0
SECTION
2
HEADER
9
$ANGBASE
50
0.0
9
$ANGDIR
70
0
0
ENDSEC
0
SECTION
2
TABLES
0
TABLE
2
LTYPE
70
1
0
LTYPE
2
CONTINUOUS
70
0
3
Solid line
72
65
73
0
40
0.0
0
ENDTAB
0
TABLE
2
LAYER
70
24
0
LAYER
2
BLACK
70
0
62
1
6
CONTINUOUS
0
LAYER
2
BLUE
70
0
62
2
6
CONTINUOUS
0
LAYER
2
GREEN
70
0
62
3
6
CONTINUOUS
0
LAYER
2
CYAN
70
0
62
4
6
CONTINUOUS
0
LAYER
2
RED
70
0
62
5
6
CONTINUOUS
0
LAYER
2
MAGENTA
70
0
62
6
6
CONTINUOUS
0
LAYER
2
BROWN
70
0
62
7
6
CONTINUOUS
0
LAYER
2
GRAY
70
0
62
8
6
CONTINUOUS
0
LAYER
2
DARKGRAY
70
0
62
9
6
CONTINUOUS
0
LAYER
2
LIGHTBLUE
70
0
62
10
6
CONTINUOUS
0
LAYER
2
LIGHTGREEN
70
0
62
11
6
CONTINUOUS
0
LAYER
2
LIGHTCYAN
70
0
62
12
6
CONTINUOUS
0
LAYER
2
LIGHTRED
70
0
62
13
6
CONTINUOUS
0
LAYER
2
LIGHTMAGENTA
70
0
62
14
6
CONTINUOUS
0
LAYER
2
YELLOW
70
0
62
15
6
CONTINUOUS
0
LAYER
2
WHITE
70
0
62
16
6
CONTINUOUS
0
LAYER
2
DARKDARKGRAY
70
0
62
17
6
CONTINUOUS
0
LAYER
2
DARKBLUE
70
0
62
18
6
CONTINUOUS
0
LAYER
2
DARKGREEN
70
0
62
19
6
CONTINUOUS
0
LAYER
2
DARKCYAN
70
0
62
20
6
CONTINUOUS
0
LAYER
2
DARKRED
70
0
62
21
6
CONTINUOUS
0
LAYER
2
DARKMAGENTA
70
0
62
22
6
CONTINUOUS
0
LAYER
2
DARKBROWN
70
0
62
23
6
CONTINUOUS
0
LAYER
2
LIGHTYELLOW
70
0
62
24
6
CONTINUOUS
0
ENDTAB
0
ENDSEC
0
SECTION
2
ENTITIES
0
LINE
8
BLACK
10
28175.0
20
45670.0
11
28175.0
21
77970.0
0
LINE
8
BLACK
10
28025.0
20
45670.0
11
28025.0
21
77970.0
0
ARC
8
BLACK
10
28100.0
20
77970.0
40
75.0
50
360.0
51
540.0
0
ARC
8
BLACK
10
28100.0
20
45670.0
40
75.0
50
180.0
51
360.0
0
LINE
8
BLACK
10
4700.0
20
45595.0
11
28100.0
21
45595.0
0
LINE
8
BLACK
10
4700.0
20
45745.0
11
28100.0
21
45745.0
0
ARC
8
BLACK
10
28100.0
20
45670.0
40
75.0
50
270.0
51
450.0
0
ARC
8
BLACK
10
4700.0
20
45670.0
40
75.0
50
90.0
51
270.0
0
LINE
8
BLACK
10
4700.0
20
77895.0
11
28100.0
21
77895.0
0
LINE
8
BLACK
10
4700.0
20
78045.0
11
28100.0
21
78045.0
0
ARC
8
BLACK
10
28100.0
20
77970.0
40
75.0
50
270.0
51
450.0
0
ARC
8
BLACK
10
4700.0
20
77970.0
40
75.0
50
90.0
51
270.0
0
LINE
8
BLACK
10
4775.0
20
45670.0
11
4775.0
21
46470.0
0
LINE
8
BLACK
10
4625.0
20
45670.0
11
4625.0
21
46470.0
0
ARC
8
BLACK
10
4700.0
20
46470.0
40
75.0
50
360.0
51
540.0
0
ARC
8
BLACK
10
4700.0
20
45670.0
40
75.0
50
180.0
51
360.0
0
LINE
8
BLACK
10
4775.0
20
46470.0
11
4775.0
21
77970.0
0
LINE
8
BLACK
10
4625.0
20
46470.0
11
4625.0
21
77970.0
0
ARC
8
BLACK
10
4700.0
20
77970.0
40
75.0
50
360.0
51
540.0
0
ARC
8
BLACK
10
4700.0
20
46470.0
40
75.0
50
180.0
51
360.0
0
LINE
8
BLACK
10
11850.0
20
59795.0
11
11850.0
21
60345.0
0
LINE
8
BLACK
10
11850.0
20
60345.0
11
11500.0
21
60345.0
0
LINE
8
BLACK
10
11500.0
20
60345.0
11
11500.0
21
59795.0
0
LINE
8
BLACK
10
11500.0
20
59795.0
11
11850.0
21
59795.0
0
LINE
8
BLACK
10
11100.0
20
59795.0
11
11100.0
21
60345.0
0
LINE
8
BLACK
10
11100.0
20
60345.0
11
10750.0
21
60345.0
0
LINE
8
BLACK
10
10750.0
20
60345.0
11
10750.0
21
59795.0
0
LINE
8
BLACK
10
10750.0
20
59795.0
11
11100.0
21
59795.0
0
LINE
8
BLACK
10
20150.0
20
74345.0
11
20150.0
21
73795.0
0
LINE
8
BLACK
10
20150.0
20
73795.0
11
20500.0
21
73795.0
0
LINE
8
BLACK
10
20500.0
20
73795.0
11
20500.0
21
74345.0
0
LINE
8
BLACK
10
20500.0
20
74345.0
11
20150.0
21
74345.0
0
LINE
8
BLACK
10
20900.0
20
74345.0
11
20900.0
21
73795.0
0
LINE
8
BLACK
10
20900.0
20
73795.0
11
21250.0
21
73795.0
0
LINE
8
BLACK
10
21250.0
20
73795.0
11
21250.0
21
74345.0
0
LINE
8
BLACK
10
21250.0
20
74345.0
11
20900.0
21
74345.0
0
LINE
8
BLACK
10
20150.0
20
73245.0
11
20150.0
21
72695.0
0
LINE
8
BLACK
10
20150.0
20
72695.0
11
20500.0
21
72695.0
0
LINE
8
BLACK
10
20500.0
20
72695.0
11
20500.0
21
73245.0
0
LINE
8
BLACK
10
20500.0
20
73245.0
11
20150.0
21
73245.0
0
LINE
8
BLACK
10
20900.0
20
73245.0
11
20900.0
21
72695.0
0
LINE
8
BLACK
10
20900.0
20
72695.0
11
21250.0
21
72695.0
0
LINE
8
BLACK
10
21250.0
20
72695.0
11
21250.0
21
73245.0
0
LINE
8
BLACK
10
21250.0
20
73245.0
11
20900.0
21
73245.0
0
LINE
8
BLACK
10
20150.0
20
72245.0
11
20150.0
21
71695.0
0
LINE
8
BLACK
10
20150.0
20
71695.0
11
20500.0
21
71695.0
0
LINE
8
BLACK
10
20500.0
20
71695.0
11
20500.0
21
72245.0
0
LINE
8
BLACK
10
20500.0
20
72245.0
11
20150.0
21
72245.0
0
LINE
8
BLACK
10
20900.0
20
72245.0
11
20900.0
21
71695.0
0
LINE
8
BLACK
10
20900.0
20
71695.0
11
21250.0
21
71695.0
0
LINE
8
BLACK
10
21250.0
20
71695.0
11
21250.0
21
72245.0
0
LINE
8
BLACK
10
21250.0
20
72245.0
11
20900.0
21
72245.0
0
LINE
8
BLACK
10
20150.0
20
71345.0
11
20150.0
21
70795.0
0
LINE
8
BLACK
10
20150.0
20
70795.0
11
20500.0
21
70795.0
0
LINE
8
BLACK
10
20500.0
20
70795.0
11
20500.0
21
71345.0
0
LINE
8
BLACK
10
20500.0
20
71345.0
11
20150.0
21
71345.0
0
LINE
8
BLACK
10
20900.0
20
71345.0
11
20900.0
21
70795.0
0
LINE
8
BLACK
10
20900.0
20
70795.0
11
21250.0
21
70795.0
0
LINE
8
BLACK
10
21250.0
20
70795.0
11
21250.0
21
71345.0
0
LINE
8
BLACK
10
21250.0
20
71345.0
11
20900.0
21
71345.0
0
LINE
8
BLACK
10
23575.0
20
71020.0
11
23025.0
21
71020.0
0
LINE
8
BLACK
10
23025.0
20
71020.0
11
23025.0
21
70670.0
0
LINE
8
BLACK
10
23025.0
20
70670.0
11
23575.0
21
70670.0
0
LINE
8
BLACK
10
23575.0
20
70670.0
11
23575.0
21
71020.0
0
LINE
8
BLACK
10
23575.0
20
70270.0
11
23025.0
21
70270.0
0
LINE
8
BLACK
10
23025.0
20
70270.0
11
23025.0
21
69920.0
0
LINE
8
BLACK
10
23025.0
20
69920.0
11
23575.0
21
69920.0
0
LINE
8
BLACK
10
23575.0
20
69920.0
11
23575.0
21
70270.0
0
LINE
8
BLACK
10
24425.0
20
52820.0
11
24975.0
21
52820.0
0
LINE
8
BLACK
10
24975.0
20
52820.0
11
24975.0
21
53170.0
0
LINE
8
BLACK
10
24975.0
20
53170.0
11
24425.0
21
53170.0
0
LINE
8
BLACK
10
24425.0
20
53170.0
11
24425.0
21
52820.0
0
LINE
8
BLACK
10
24425.0
20
53570.0
11
24975.0
21
53570.0
0
LINE
8
BLACK
10
24975.0
20
53570.0
11
24975.0
21
53920.0
0
LINE
8
BLACK
10
24975.0
20
53920.0
11
24425.0
21
53920.0
0
LINE
8
BLACK
10
24425.0
20
53920.0
11
24425.0
21
53570.0
0
LINE
8
BLACK
10
17425.0
20
52720.0
11
17975.0
21
52720.0
0
LINE
8
BLACK
10
17975.0
20
52720.0
11
17975.0
21
53070.0
0
LINE
8
BLACK
10
17975.0
20
53070.0
11
17425.0
21
53070.0
0
LINE
8
BLACK
10
17425.0
20
53070.0
11
17425.0
21
52720.0
0
LINE
8
BLACK
10
17425.0
20
53470.0
11
17975.0
21
53470.0
0
LINE
8
BLACK
10
17975.0
20
53470.0
11
17975.0
21
53820.0
0
LINE
8
BLACK
10
17975.0
20
53820.0
11
17425.0
21
53820.0
0
LINE
8
BLACK
10
17425.0
20
53820.0
11
17425.0
21
53470.0
0
LINE
8
BLACK
10
5250.0
20
63045.0
11
5250.0
21
62495.0
0
LINE
8
BLACK
10
5250.0
20
62495.0
11
5600.0
21
62495.0
0
LINE
8
BLACK
10
5600.0
20
62495.0
11
5600.0
21
63045.0
0
LINE
8
BLACK
10
5600.0
20
63045.0
11
5250.0
21
63045.0
0
LINE
8
BLACK
10
6000.0
20
63045.0
11
6000.0
21
62495.0
0
LINE
8
BLACK
10
6000.0
20
62495.0
11
6350.0
21
62495.0
0
LINE
8
BLACK
10
6350.0
20
62495.0
11
6350.0
21
63045.0
0
LINE
8
BLACK
10
6350.0
20
63045.0
11
6000.0
21
63045.0
0
LINE
8
BLACK
10
17050.0
20
67845.0
11
17050.0
21
67295.0
0
LINE
8
BLACK
10
17050.0
20
67295.0
11
17400.0
21
67295.0
0
LINE
8
BLACK
10
17400.0
20
67295.0
11
17400.0
21
67845.0
0
LINE
8
BLACK
10
17400.0
20
67845.0
11
17050.0
21
67845.0
0
LINE
8
BLACK
10
17800.0
20
67845.0
11
17800.0
21
67295.0
0
LINE
8
BLACK
10
17800.0
20
67295.0
11
18150.0
21
67295.0
0
LINE
8
BLACK
10
18150.0
20
67295.0
11
18150.0
21
67845.0
0
LINE
8
BLACK
10
18150.0
20
67845.0
11
17800.0
21
67845.0
0
LINE
8
BLACK
10
17050.0
20
65045.0
11
17050.0
21
64495.0
0
LINE
8
BLACK
10
17050.0
20
64495.0
11
17400.0
21
64495.0
0
LINE
8
BLACK
10
17400.0
20
64495.0
11
17400.0
21
65045.0
0
LINE
8
BLACK
10
17400.0
20
65045.0
11
17050.0
21
65045.0
0
LINE
8
BLACK
10
17800.0
20
65045.0
11
17800.0
21
64495.0
0
LINE
8
BLACK
10
17800.0
20
64495.0
11
18150.0
21
64495.0
0
LINE
8
BLACK
10
18150.0
20
64495.0
11
18150.0
21
65045.0
0
LINE
8
BLACK
10
18150.0
20
65045.0
11
17800.0
21
65045.0
0
LINE
8
BLACK
10
17800.0
20
67120.0
11
17000.0
21
67120.0
0
LINE
8
BLACK
10
17000.0
20
67120.0
11
17000.0
21
66520.0
0
LINE
8
BLACK
10
17000.0
20
66520.0
11
17800.0
21
66520.0
0
LINE
8
BLACK
10
17800.0
20
66520.0
11
17800.0
21
67120.0
0
LINE
8
BLACK
10
17800.0
20
65820.0
11
17000.0
21
65820.0
0
LINE
8
BLACK
10
17000.0
20
65820.0
11
17000.0
21
65220.0
0
LINE
8
BLACK
10
17000.0
20
65220.0
11
17800.0
21
65220.0
0
LINE
8
BLACK
10
17800.0
20
65220.0
11
17800.0
21
65820.0
0
ENDSEC
0
EOF
