0
SECTION
2
HEADER
9
$ANGBASE
50
0.0
9
$ANGDIR
70
0
0
ENDSEC
0
SECTION
2
TABLES
0
TABLE
2
LTYPE
70
1
0
LTYPE
2
CONTINUOUS
70
0
3
Solid line
72
65
73
0
40
0.0
0
ENDTAB
0
TABLE
2
LAYER
70
24
0
LAYER
2
BLACK
70
0
62
1
6
CONTINUOUS
0
LAYER
2
BLUE
70
0
62
2
6
CONTINUOUS
0
LAYER
2
GREEN
70
0
62
3
6
CONTINUOUS
0
LAYER
2
CYAN
70
0
62
4
6
CONTINUOUS
0
LAYER
2
RED
70
0
62
5
6
CONTINUOUS
0
LAYER
2
MAGENTA
70
0
62
6
6
CONTINUOUS
0
LAYER
2
BROWN
70
0
62
7
6
CONTINUOUS
0
LAYER
2
GRAY
70
0
62
8
6
CONTINUOUS
0
LAYER
2
DARKGRAY
70
0
62
9
6
CONTINUOUS
0
LAYER
2
LIGHTBLUE
70
0
62
10
6
CONTINUOUS
0
LAYER
2
LIGHTGREEN
70
0
62
11
6
CONTINUOUS
0
LAYER
2
LIGHTCYAN
70
0
62
12
6
CONTINUOUS
0
LAYER
2
LIGHTRED
70
0
62
13
6
CONTINUOUS
0
LAYER
2
LIGHTMAGENTA
70
0
62
14
6
CONTINUOUS
0
LAYER
2
YELLOW
70
0
62
15
6
CONTINUOUS
0
LAYER
2
WHITE
70
0
62
16
6
CONTINUOUS
0
LAYER
2
DARKDARKGRAY
70
0
62
17
6
CONTINUOUS
0
LAYER
2
DARKBLUE
70
0
62
18
6
CONTINUOUS
0
LAYER
2
DARKGREEN
70
0
62
19
6
CONTINUOUS
0
LAYER
2
DARKCYAN
70
0
62
20
6
CONTINUOUS
0
LAYER
2
DARKRED
70
0
62
21
6
CONTINUOUS
0
LAYER
2
DARKMAGENTA
70
0
62
22
6
CONTINUOUS
0
LAYER
2
DARKBROWN
70
0
62
23
6
CONTINUOUS
0
LAYER
2
LIGHTYELLOW
70
0
62
24
6
CONTINUOUS
0
ENDTAB
0
ENDSEC
0
SECTION
2
ENTITIES
0
LINE
8
BLACK
10
28175.0
20
45670.0
11
28175.0
21
77970.0
0
LINE
8
BLACK
10
28025.0
20
45670.0
11
28025.0
21
77970.0
0
ARC
8
BLACK
10
28100.0
20
77970.0
40
75.0
50
360.0
51
540.0
0
ARC
8
BLACK
10
28100.0
20
45670.0
40
75.0
50
180.0
51
360.0
0
LINE
8
BLACK
10
4700.0
20
45595.0
11
28100.0
21
45595.0
0
LINE
8
BLACK
10
4700.0
20
45745.0
11
28100.0
21
45745.0
0
ARC
8
BLACK
10
28100.0
20
45670.0
40
75.0
50
270.0
51
450.0
0
ARC
8
BLACK
10
4700.0
20
45670.0
40
75.0
50
90.0
51
270.0
0
LINE
8
BLACK
10
4700.0
20
77895.0
11
28100.0
21
77895.0
0
LINE
8
BLACK
10
4700.0
20
78045.0
11
28100.0
21
78045.0
0
ARC
8
BLACK
10
28100.0
20
77970.0
40
75.0
50
270.0
51
450.0
0
ARC
8
BLACK
10
4700.0
20
77970.0
40
75.0
50
90.0
51
270.0
0
LINE
8
BLACK
10
4775.0
20
45670.0
11
4775.0
21
46470.0
0
LINE
8
BLACK
10
4625.0
20
45670.0
11
4625.0
21
46470.0
0
ARC
8
BLACK
10
4700.0
20
46470.0
40
75.0
50
360.0
51
540.0
0
ARC
8
BLACK
10
4700.0
20
45670.0
40
75.0
50
180.0
51
360.0
0
LINE
8
BLACK
10
4775.0
20
46470.0
11
4775.0
21
77970.0
0
LINE
8
BLACK
10
4625.0
20
46470.0
11
4625.0
21
77970.0
0
ARC
8
BLACK
10
4700.0
20
77970.0
40
75.0
50
360.0
51
540.0
0
ARC
8
BLACK
10
4700.0
20
46470.0
40
75.0
50
180.0
51
360.0
0
LINE
8
BLACK
10
13300.0
20
66295.0
11
13800.0
21
66295.0
0
LINE
8
BLACK
10
13300.0
20
66445.0
11
13800.0
21
66445.0
0
ARC
8
BLACK
10
13800.0
20
66370.0
40
75.0
50
270.0
51
450.0
0
ARC
8
BLACK
10
13300.0
20
66370.0
40
75.0
50
90.0
51
270.0
0
LINE
8
BLACK
10
13625.0
20
66120.0
11
13625.0
21
66570.0
0
LINE
8
BLACK
10
13475.0
20
66120.0
11
13475.0
21
66570.0
0
ARC
8
BLACK
10
13550.0
20
66570.0
40
75.0
50
360.0
51
540.0
0
ARC
8
BLACK
10
13550.0
20
66120.0
40
75.0
50
180.0
51
360.0
0
CIRCLE
8
BLACK
10
9900.0
20
65170.0
40
800
0
CIRCLE
8
BLACK
10
7800.0
20
63370.0
40
800
0
CIRCLE
8
BLACK
10
7800.0
20
65470.0
40
800
0
CIRCLE
8
BLACK
10
5800.0
20
66270.0
40
800
0
CIRCLE
8
BLACK
10
14100.0
20
47270.0
40
800
0
CIRCLE
8
BLACK
10
14100.0
20
50270.0
40
800
0
CIRCLE
8
BLACK
10
14100.0
20
53270.0
40
800
0
CIRCLE
8
BLACK
10
14100.0
20
56270.0
40
800
0
CIRCLE
8
BLACK
10
14100.0
20
59270.0
40
800
0
CIRCLE
8
BLACK
10
20800.0
20
47270.0
40
800
0
CIRCLE
8
BLACK
10
20800.0
20
50270.0
40
800
0
CIRCLE
8
BLACK
10
20900.0
20
53270.0
40
800
0
CIRCLE
8
BLACK
10
20900.0
20
56270.0
40
800
0
CIRCLE
8
BLACK
10
20900.0
20
59270.0
40
800
0
CIRCLE
8
BLACK
10
26900.0
20
74870.0
40
800
0
CIRCLE
8
BLACK
10
26900.0
20
72470.0
40
800
0
CIRCLE
8
BLACK
10
26900.0
20
70070.0
40
800
0
CIRCLE
8
BLACK
10
26900.0
20
67070.0
40
800
0
CIRCLE
8
BLACK
10
26900.0
20
64070.0
40
800
0
CIRCLE
8
BLACK
10
8200.0
20
76870.0
40
800
0
CIRCLE
8
BLACK
10
10900.0
20
66570.0
40
275
0
CIRCLE
8
BLACK
10
10900.0
20
67570.0
40
275
0
CIRCLE
8
BLACK
10
15300.0
20
74070.0
40
275
0
CIRCLE
8
BLACK
10
15300.0
20
75070.0
40
275
0
CIRCLE
8
BLACK
10
14100.0
20
74070.0
40
275
0
CIRCLE
8
BLACK
10
14100.0
20
75070.0
40
275
0
CIRCLE
8
BLACK
10
12100.0
20
69770.0
40
275
0
CIRCLE
8
BLACK
10
12100.0
20
68770.0
40
275
0
CIRCLE
8
BLACK
10
12100.0
20
66570.0
40
275
0
CIRCLE
8
BLACK
10
12100.0
20
67570.0
40
275
0
CIRCLE
8
BLACK
10
12200.0
20
71270.0
40
275
0
CIRCLE
8
BLACK
10
12200.0
20
72270.0
40
275
0
CIRCLE
8
BLACK
10
11000.0
20
71270.0
40
275
0
CIRCLE
8
BLACK
10
11000.0
20
72270.0
40
275
0
CIRCLE
8
BLACK
10
16300.0
20
75070.0
40
275
0
CIRCLE
8
BLACK
10
16300.0
20
74070.0
40
275
0
CIRCLE
8
BLACK
10
16300.0
20
73070.0
40
275
0
CIRCLE
8
BLACK
10
16300.0
20
72070.0
40
275
0
CIRCLE
8
BLACK
10
16300.0
20
71070.0
40
275
0
CIRCLE
8
BLACK
10
16300.0
20
70070.0
40
275
0
CIRCLE
8
BLACK
10
16300.0
20
69070.0
40
275
0
CIRCLE
8
BLACK
10
16300.0
20
68070.0
40
275
0
CIRCLE
8
BLACK
10
16300.0
20
67070.0
40
275
0
CIRCLE
8
BLACK
10
16300.0
20
66070.0
40
275
0
CIRCLE
8
BLACK
10
16300.0
20
65070.0
40
275
0
CIRCLE
8
BLACK
10
16300.0
20
64070.0
40
275
0
CIRCLE
8
BLACK
10
16300.0
20
63070.0
40
275
0
LINE
8
BLACK
10
16575.0
20
76345.0
11
16025.0
21
76345.0
0
LINE
8
BLACK
10
16025.0
20
76345.0
11
16025.0
21
75795.0
0
LINE
8
BLACK
10
16025.0
20
75795.0
11
16575.0
21
75795.0
0
LINE
8
BLACK
10
16575.0
20
75795.0
11
16575.0
21
76345.0
0
CIRCLE
8
BLACK
10
19300.0
20
63070.0
40
275
0
CIRCLE
8
BLACK
10
19300.0
20
64070.0
40
275
0
CIRCLE
8
BLACK
10
19300.0
20
65070.0
40
275
0
CIRCLE
8
BLACK
10
19300.0
20
66070.0
40
275
0
CIRCLE
8
BLACK
10
19300.0
20
67070.0
40
275
0
CIRCLE
8
BLACK
10
19300.0
20
68070.0
40
275
0
CIRCLE
8
BLACK
10
19300.0
20
69070.0
40
275
0
CIRCLE
8
BLACK
10
19300.0
20
70070.0
40
275
0
CIRCLE
8
BLACK
10
19300.0
20
71070.0
40
275
0
CIRCLE
8
BLACK
10
19300.0
20
72070.0
40
275
0
CIRCLE
8
BLACK
10
19300.0
20
73070.0
40
275
0
CIRCLE
8
BLACK
10
19300.0
20
74070.0
40
275
0
CIRCLE
8
BLACK
10
19300.0
20
75070.0
40
275
0
CIRCLE
8
BLACK
10
19300.0
20
76070.0
40
275
0
CIRCLE
8
BLACK
10
14300.0
20
67570.0
40
295
0
CIRCLE
8
BLACK
10
14300.0
20
66570.0
40
295
0
CIRCLE
8
BLACK
10
8000.0
20
73970.0
40
945
0
LINE
8
BLACK
10
9455.0
20
74915.0
11
9455.0
21
73025.0
0
LINE
8
BLACK
10
9455.0
20
73025.0
11
11345.0
21
73025.0
0
LINE
8
BLACK
10
11345.0
20
73025.0
11
11345.0
21
74915.0
0
LINE
8
BLACK
10
11345.0
20
74915.0
11
9455.0
21
74915.0
0
CIRCLE
8
BLACK
10
8900.0
20
71970.0
40
945
0
CIRCLE
8
BLACK
10
8000.0
20
69270.0
40
945
0
LINE
8
BLACK
10
9455.0
20
70215.0
11
9455.0
21
68325.0
0
LINE
8
BLACK
10
9455.0
20
68325.0
11
11345.0
21
68325.0
0
LINE
8
BLACK
10
11345.0
20
68325.0
11
11345.0
21
70215.0
0
LINE
8
BLACK
10
11345.0
20
70215.0
11
9455.0
21
70215.0
0
CIRCLE
8
BLACK
10
8900.0
20
67270.0
40
945
0
LINE
8
BLACK
10
19827.0
20
74424.0
11
19827.0
21
73716.0
0
LINE
8
BLACK
10
19827.0
20
73716.0
11
20455.0
21
73716.0
0
LINE
8
BLACK
10
20455.0
20
73716.0
11
20455.0
21
74424.0
0
LINE
8
BLACK
10
20455.0
20
74424.0
11
19827.0
21
74424.0
0
LINE
8
BLACK
10
20945.0
20
74424.0
11
20945.0
21
73716.0
0
LINE
8
BLACK
10
20945.0
20
73716.0
11
21573.0
21
73716.0
0
LINE
8
BLACK
10
21573.0
20
73716.0
11
21573.0
21
74424.0
0
LINE
8
BLACK
10
21573.0
20
74424.0
11
20945.0
21
74424.0
0
LINE
8
BLACK
10
19827.0
20
73324.0
11
19827.0
21
72616.0
0
LINE
8
BLACK
10
19827.0
20
72616.0
11
20455.0
21
72616.0
0
LINE
8
BLACK
10
20455.0
20
72616.0
11
20455.0
21
73324.0
0
LINE
8
BLACK
10
20455.0
20
73324.0
11
19827.0
21
73324.0
0
LINE
8
BLACK
10
20945.0
20
73324.0
11
20945.0
21
72616.0
0
LINE
8
BLACK
10
20945.0
20
72616.0
11
21573.0
21
72616.0
0
LINE
8
BLACK
10
21573.0
20
72616.0
11
21573.0
21
73324.0
0
LINE
8
BLACK
10
21573.0
20
73324.0
11
20945.0
21
73324.0
0
LINE
8
BLACK
10
19827.0
20
72324.0
11
19827.0
21
71616.0
0
LINE
8
BLACK
10
19827.0
20
71616.0
11
20455.0
21
71616.0
0
LINE
8
BLACK
10
20455.0
20
71616.0
11
20455.0
21
72324.0
0
LINE
8
BLACK
10
20455.0
20
72324.0
11
19827.0
21
72324.0
0
LINE
8
BLACK
10
20945.0
20
72324.0
11
20945.0
21
71616.0
0
LINE
8
BLACK
10
20945.0
20
71616.0
11
21573.0
21
71616.0
0
LINE
8
BLACK
10
21573.0
20
71616.0
11
21573.0
21
72324.0
0
LINE
8
BLACK
10
21573.0
20
72324.0
11
20945.0
21
72324.0
0
LINE
8
BLACK
10
19827.0
20
71424.0
11
19827.0
21
70716.0
0
LINE
8
BLACK
10
19827.0
20
70716.0
11
20455.0
21
70716.0
0
LINE
8
BLACK
10
20455.0
20
70716.0
11
20455.0
21
71424.0
0
LINE
8
BLACK
10
20455.0
20
71424.0
11
19827.0
21
71424.0
0
LINE
8
BLACK
10
20945.0
20
71424.0
11
20945.0
21
70716.0
0
LINE
8
BLACK
10
20945.0
20
70716.0
11
21573.0
21
70716.0
0
LINE
8
BLACK
10
21573.0
20
70716.0
11
21573.0
21
71424.0
0
LINE
8
BLACK
10
21573.0
20
71424.0
11
20945.0
21
71424.0
0
LINE
8
BLACK
10
14854.0
20
72943.0
11
14146.0
21
72943.0
0
LINE
8
BLACK
10
14146.0
20
72943.0
11
14146.0
21
72315.0
0
LINE
8
BLACK
10
14146.0
20
72315.0
11
14854.0
21
72315.0
0
LINE
8
BLACK
10
14854.0
20
72315.0
11
14854.0
21
72943.0
0
LINE
8
BLACK
10
14854.0
20
71825.0
11
14146.0
21
71825.0
0
LINE
8
BLACK
10
14146.0
20
71825.0
11
14146.0
21
71197.0
0
LINE
8
BLACK
10
14146.0
20
71197.0
11
14854.0
21
71197.0
0
LINE
8
BLACK
10
14854.0
20
71197.0
11
14854.0
21
71825.0
0
CIRCLE
8
BLACK
10
12400.0
20
76070.0
40
350
0
LINE
8
BLACK
10
12050.0
20
75420.0
11
12050.0
21
74720.0
0
LINE
8
BLACK
10
12050.0
20
74720.0
11
12750.0
21
74720.0
0
LINE
8
BLACK
10
12750.0
20
74720.0
11
12750.0
21
75420.0
0
LINE
8
BLACK
10
12750.0
20
75420.0
11
12050.0
21
75420.0
0
CIRCLE
8
BLACK
10
12400.0
20
74070.0
40
350
0
CIRCLE
8
BLACK
10
5400.0
20
61870.0
40
300
0
CIRCLE
8
BLACK
10
5400.0
20
63870.0
40
300
0
CIRCLE
8
BLACK
10
6400.0
20
61270.0
40
300
0
CIRCLE
8
BLACK
10
6400.0
20
64470.0
40
300
0
CIRCLE
8
BLACK
10
8000.0
20
48632.0
40
718
0
CIRCLE
8
BLACK
10
8000.0
20
53305.0
40
718
0
LINE
8
BLACK
10
10795.0
20
53015.0
11
10205.0
21
53015.0
0
LINE
8
BLACK
10
10205.0
20
53015.0
11
10205.0
21
52425.0
0
LINE
8
BLACK
10
10205.0
20
52425.0
11
10795.0
21
52425.0
0
LINE
8
BLACK
10
10795.0
20
52425.0
11
10795.0
21
53015.0
0
CIRCLE
8
BLACK
10
11500.0
20
52220.0
40
295
0
CIRCLE
8
BLACK
10
10500.0
20
51720.0
40
295
0
CIRCLE
8
BLACK
10
11500.0
20
51220.0
40
295
0
CIRCLE
8
BLACK
10
10500.0
20
50720.0
40
295
0
CIRCLE
8
BLACK
10
11500.0
20
50220.0
40
295
0
CIRCLE
8
BLACK
10
10500.0
20
49720.0
40
295
0
CIRCLE
8
BLACK
10
11500.0
20
49220.0
40
295
0
CIRCLE
8
BLACK
10
8000.0
20
55132.0
40
718
0
CIRCLE
8
BLACK
10
8000.0
20
59805.0
40
718
0
LINE
8
BLACK
10
10795.0
20
59515.0
11
10205.0
21
59515.0
0
LINE
8
BLACK
10
10205.0
20
59515.0
11
10205.0
21
58925.0
0
LINE
8
BLACK
10
10205.0
20
58925.0
11
10795.0
21
58925.0
0
LINE
8
BLACK
10
10795.0
20
58925.0
11
10795.0
21
59515.0
0
CIRCLE
8
BLACK
10
11500.0
20
58720.0
40
295
0
CIRCLE
8
BLACK
10
10500.0
20
58220.0
40
295
0
CIRCLE
8
BLACK
10
11500.0
20
57720.0
40
295
0
CIRCLE
8
BLACK
10
10500.0
20
57220.0
40
295
0
CIRCLE
8
BLACK
10
11500.0
20
56720.0
40
295
0
CIRCLE
8
BLACK
10
10500.0
20
56220.0
40
295
0
CIRCLE
8
BLACK
10
11500.0
20
55720.0
40
295
0
LINE
8
BLACK
10
20125.0
20
76345.0
11
20125.0
21
75795.0
0
LINE
8
BLACK
10
20125.0
20
75795.0
11
20675.0
21
75795.0
0
LINE
8
BLACK
10
20675.0
20
75795.0
11
20675.0
21
76345.0
0
LINE
8
BLACK
10
20675.0
20
76345.0
11
20125.0
21
76345.0
0
LINE
8
BLACK
10
20125.0
20
75345.0
11
20125.0
21
74795.0
0
LINE
8
BLACK
10
20125.0
20
74795.0
11
20675.0
21
74795.0
0
LINE
8
BLACK
10
20675.0
20
74795.0
11
20675.0
21
75345.0
0
LINE
8
BLACK
10
20675.0
20
75345.0
11
20125.0
21
75345.0
0
LINE
8
BLACK
10
20125.0
20
66345.0
11
20125.0
21
65795.0
0
LINE
8
BLACK
10
20125.0
20
65795.0
11
20675.0
21
65795.0
0
LINE
8
BLACK
10
20675.0
20
65795.0
11
20675.0
21
66345.0
0
LINE
8
BLACK
10
20675.0
20
66345.0
11
20125.0
21
66345.0
0
LINE
8
BLACK
10
17025.0
20
63345.0
11
17025.0
21
62795.0
0
LINE
8
BLACK
10
17025.0
20
62795.0
11
17575.0
21
62795.0
0
LINE
8
BLACK
10
17575.0
20
62795.0
11
17575.0
21
63345.0
0
LINE
8
BLACK
10
17575.0
20
63345.0
11
17025.0
21
63345.0
0
LINE
8
BLACK
10
14925.0
20
69545.0
11
14925.0
21
68995.0
0
LINE
8
BLACK
10
14925.0
20
68995.0
11
15475.0
21
68995.0
0
LINE
8
BLACK
10
15475.0
20
68995.0
11
15475.0
21
69545.0
0
LINE
8
BLACK
10
15475.0
20
69545.0
11
14925.0
21
69545.0
0
LINE
8
BLACK
10
23325.0
20
74745.0
11
23325.0
21
74195.0
0
LINE
8
BLACK
10
23325.0
20
74195.0
11
23875.0
21
74195.0
0
LINE
8
BLACK
10
23875.0
20
74195.0
11
23875.0
21
74745.0
0
LINE
8
BLACK
10
23875.0
20
74745.0
11
23325.0
21
74745.0
0
LINE
8
BLACK
10
5250.0
20
63045.0
11
5250.0
21
62495.0
0
LINE
8
BLACK
10
5250.0
20
62495.0
11
5600.0
21
62495.0
0
LINE
8
BLACK
10
5600.0
20
62495.0
11
5600.0
21
63045.0
0
LINE
8
BLACK
10
5600.0
20
63045.0
11
5250.0
21
63045.0
0
LINE
8
BLACK
10
6000.0
20
63045.0
11
6000.0
21
62495.0
0
LINE
8
BLACK
10
6000.0
20
62495.0
11
6350.0
21
62495.0
0
LINE
8
BLACK
10
6350.0
20
62495.0
11
6350.0
21
63045.0
0
LINE
8
BLACK
10
6350.0
20
63045.0
11
6000.0
21
63045.0
0
LINE
8
BLACK
10
15025.0
20
71520.0
11
15575.0
21
71520.0
0
LINE
8
BLACK
10
15575.0
20
71520.0
11
15575.0
21
71870.0
0
LINE
8
BLACK
10
15575.0
20
71870.0
11
15025.0
21
71870.0
0
LINE
8
BLACK
10
15025.0
20
71870.0
11
15025.0
21
71520.0
0
LINE
8
BLACK
10
15025.0
20
72270.0
11
15575.0
21
72270.0
0
LINE
8
BLACK
10
15575.0
20
72270.0
11
15575.0
21
72620.0
0
LINE
8
BLACK
10
15575.0
20
72620.0
11
15025.0
21
72620.0
0
LINE
8
BLACK
10
15025.0
20
72620.0
11
15025.0
21
72270.0
0
LINE
8
BLACK
10
14850.0
20
70070.0
11
14850.0
21
70870.0
0
LINE
8
BLACK
10
14850.0
20
70870.0
11
14250.0
21
70870.0
0
LINE
8
BLACK
10
14250.0
20
70870.0
11
14250.0
21
70070.0
0
LINE
8
BLACK
10
14250.0
20
70070.0
11
14850.0
21
70070.0
0
LINE
8
BLACK
10
13550.0
20
70070.0
11
13550.0
21
70870.0
0
LINE
8
BLACK
10
13550.0
20
70870.0
11
12950.0
21
70870.0
0
LINE
8
BLACK
10
12950.0
20
70870.0
11
12950.0
21
70070.0
0
LINE
8
BLACK
10
12950.0
20
70070.0
11
13550.0
21
70070.0
0
LINE
8
BLACK
10
13000.0
20
71120.0
11
13800.0
21
71120.0
0
LINE
8
BLACK
10
13800.0
20
71120.0
11
13800.0
21
71720.0
0
LINE
8
BLACK
10
13800.0
20
71720.0
11
13000.0
21
71720.0
0
LINE
8
BLACK
10
13000.0
20
71720.0
11
13000.0
21
71120.0
0
LINE
8
BLACK
10
13000.0
20
72420.0
11
13800.0
21
72420.0
0
LINE
8
BLACK
10
13800.0
20
72420.0
11
13800.0
21
73020.0
0
LINE
8
BLACK
10
13800.0
20
73020.0
11
13000.0
21
73020.0
0
LINE
8
BLACK
10
13000.0
20
73020.0
11
13000.0
21
72420.0
0
LINE
8
BLACK
10
14675.0
20
63995.0
11
14675.0
21
64545.0
0
LINE
8
BLACK
10
14675.0
20
64545.0
11
14125.0
21
64545.0
0
LINE
8
BLACK
10
14125.0
20
64545.0
11
14125.0
21
63995.0
0
LINE
8
BLACK
10
14125.0
20
63995.0
11
14675.0
21
63995.0
0
CIRCLE
8
BLACK
10
13400.0
20
64270.0
40
275
0
CIRCLE
8
BLACK
10
12400.0
20
64270.0
40
275
0
CIRCLE
8
BLACK
10
11400.0
20
64270.0
40
275
0
CIRCLE
8
BLACK
10
11400.0
20
61270.0
40
275
0
CIRCLE
8
BLACK
10
12400.0
20
61270.0
40
275
0
CIRCLE
8
BLACK
10
13400.0
20
61270.0
40
275
0
CIRCLE
8
BLACK
10
14400.0
20
61270.0
40
275
0
CIRCLE
8
BLACK
10
15700.0
20
59270.0
40
275
0
CIRCLE
8
BLACK
10
15700.0
20
58270.0
40
275
0
CIRCLE
8
BLACK
10
15700.0
20
57270.0
40
275
0
CIRCLE
8
BLACK
10
15700.0
20
56270.0
40
275
0
CIRCLE
8
BLACK
10
15700.0
20
55270.0
40
275
0
CIRCLE
8
BLACK
10
15700.0
20
54270.0
40
275
0
CIRCLE
8
BLACK
10
15700.0
20
53270.0
40
275
0
CIRCLE
8
BLACK
10
15700.0
20
52270.0
40
275
0
CIRCLE
8
BLACK
10
15700.0
20
51270.0
40
275
0
CIRCLE
8
BLACK
10
15700.0
20
50270.0
40
275
0
CIRCLE
8
BLACK
10
15700.0
20
49270.0
40
275
0
CIRCLE
8
BLACK
10
15700.0
20
48270.0
40
275
0
CIRCLE
8
BLACK
10
15700.0
20
47270.0
40
275
0
LINE
8
BLACK
10
15975.0
20
60545.0
11
15425.0
21
60545.0
0
LINE
8
BLACK
10
15425.0
20
60545.0
11
15425.0
21
59995.0
0
LINE
8
BLACK
10
15425.0
20
59995.0
11
15975.0
21
59995.0
0
LINE
8
BLACK
10
15975.0
20
59995.0
11
15975.0
21
60545.0
0
CIRCLE
8
BLACK
10
18700.0
20
47270.0
40
275
0
CIRCLE
8
BLACK
10
18700.0
20
48270.0
40
275
0
CIRCLE
8
BLACK
10
18700.0
20
49270.0
40
275
0
CIRCLE
8
BLACK
10
18700.0
20
50270.0
40
275
0
CIRCLE
8
BLACK
10
18700.0
20
51270.0
40
275
0
CIRCLE
8
BLACK
10
18700.0
20
52270.0
40
275
0
CIRCLE
8
BLACK
10
18700.0
20
53270.0
40
275
0
CIRCLE
8
BLACK
10
18700.0
20
54270.0
40
275
0
CIRCLE
8
BLACK
10
18700.0
20
55270.0
40
275
0
CIRCLE
8
BLACK
10
18700.0
20
56270.0
40
275
0
CIRCLE
8
BLACK
10
18700.0
20
57270.0
40
275
0
CIRCLE
8
BLACK
10
18700.0
20
58270.0
40
275
0
CIRCLE
8
BLACK
10
18700.0
20
59270.0
40
275
0
CIRCLE
8
BLACK
10
18700.0
20
60270.0
40
275
0
CIRCLE
8
BLACK
10
22500.0
20
59270.0
40
275
0
CIRCLE
8
BLACK
10
22500.0
20
58270.0
40
275
0
CIRCLE
8
BLACK
10
22500.0
20
57270.0
40
275
0
CIRCLE
8
BLACK
10
22500.0
20
56270.0
40
275
0
CIRCLE
8
BLACK
10
22500.0
20
55270.0
40
275
0
CIRCLE
8
BLACK
10
22500.0
20
54270.0
40
275
0
CIRCLE
8
BLACK
10
22500.0
20
53270.0
40
275
0
CIRCLE
8
BLACK
10
22500.0
20
52270.0
40
275
0
CIRCLE
8
BLACK
10
22500.0
20
51270.0
40
275
0
CIRCLE
8
BLACK
10
22500.0
20
50270.0
40
275
0
CIRCLE
8
BLACK
10
22500.0
20
49270.0
40
275
0
CIRCLE
8
BLACK
10
22500.0
20
48270.0
40
275
0
CIRCLE
8
BLACK
10
22500.0
20
47270.0
40
275
0
LINE
8
BLACK
10
22775.0
20
60545.0
11
22225.0
21
60545.0
0
LINE
8
BLACK
10
22225.0
20
60545.0
11
22225.0
21
59995.0
0
LINE
8
BLACK
10
22225.0
20
59995.0
11
22775.0
21
59995.0
0
LINE
8
BLACK
10
22775.0
20
59995.0
11
22775.0
21
60545.0
0
CIRCLE
8
BLACK
10
25500.0
20
47270.0
40
275
0
CIRCLE
8
BLACK
10
25500.0
20
48270.0
40
275
0
CIRCLE
8
BLACK
10
25500.0
20
49270.0
40
275
0
CIRCLE
8
BLACK
10
25500.0
20
50270.0
40
275
0
CIRCLE
8
BLACK
10
25500.0
20
51270.0
40
275
0
CIRCLE
8
BLACK
10
25500.0
20
52270.0
40
275
0
CIRCLE
8
BLACK
10
25500.0
20
53270.0
40
275
0
CIRCLE
8
BLACK
10
25500.0
20
54270.0
40
275
0
CIRCLE
8
BLACK
10
25500.0
20
55270.0
40
275
0
CIRCLE
8
BLACK
10
25500.0
20
56270.0
40
275
0
CIRCLE
8
BLACK
10
25500.0
20
57270.0
40
275
0
CIRCLE
8
BLACK
10
25500.0
20
58270.0
40
275
0
CIRCLE
8
BLACK
10
25500.0
20
59270.0
40
275
0
CIRCLE
8
BLACK
10
25500.0
20
60270.0
40
275
0
CIRCLE
8
BLACK
10
25500.0
20
64070.0
40
275
0
CIRCLE
8
BLACK
10
25500.0
20
65070.0
40
275
0
CIRCLE
8
BLACK
10
25500.0
20
66070.0
40
275
0
CIRCLE
8
BLACK
10
25500.0
20
67070.0
40
275
0
CIRCLE
8
BLACK
10
25500.0
20
68070.0
40
275
0
CIRCLE
8
BLACK
10
25500.0
20
69070.0
40
275
0
CIRCLE
8
BLACK
10
25500.0
20
70070.0
40
275
0
CIRCLE
8
BLACK
10
25500.0
20
71070.0
40
275
0
CIRCLE
8
BLACK
10
25500.0
20
72070.0
40
275
0
CIRCLE
8
BLACK
10
25500.0
20
73070.0
40
275
0
CIRCLE
8
BLACK
10
25500.0
20
74070.0
40
275
0
CIRCLE
8
BLACK
10
25500.0
20
75070.0
40
275
0
CIRCLE
8
BLACK
10
25500.0
20
76070.0
40
275
0
LINE
8
BLACK
10
25225.0
20
62795.0
11
25775.0
21
62795.0
0
LINE
8
BLACK
10
25775.0
20
62795.0
11
25775.0
21
63345.0
0
LINE
8
BLACK
10
25775.0
20
63345.0
11
25225.0
21
63345.0
0
LINE
8
BLACK
10
25225.0
20
63345.0
11
25225.0
21
62795.0
0
CIRCLE
8
BLACK
10
22500.0
20
76070.0
40
275
0
CIRCLE
8
BLACK
10
22500.0
20
75070.0
40
275
0
CIRCLE
8
BLACK
10
22500.0
20
74070.0
40
275
0
CIRCLE
8
BLACK
10
22500.0
20
73070.0
40
275
0
CIRCLE
8
BLACK
10
22500.0
20
72070.0
40
275
0
CIRCLE
8
BLACK
10
22500.0
20
71070.0
40
275
0
CIRCLE
8
BLACK
10
22500.0
20
70070.0
40
275
0
CIRCLE
8
BLACK
10
22500.0
20
69070.0
40
275
0
CIRCLE
8
BLACK
10
22500.0
20
68070.0
40
275
0
CIRCLE
8
BLACK
10
22500.0
20
67070.0
40
275
0
CIRCLE
8
BLACK
10
22500.0
20
66070.0
40
275
0
CIRCLE
8
BLACK
10
22500.0
20
65070.0
40
275
0
CIRCLE
8
BLACK
10
22500.0
20
64070.0
40
275
0
CIRCLE
8
BLACK
10
22500.0
20
63070.0
40
275
0
CIRCLE
8
BLACK
10
27000.0
20
46770.0
40
800
0
CIRCLE
8
BLACK
10
5900.0
20
46770.0
40
800
0
CIRCLE
8
BLACK
10
27000.0
20
76870.0
40
800
0
CIRCLE
8
BLACK
10
5700.0
20
76870.0
40
800
0
CIRCLE
8
BLACK
10
21600.0
20
74070.0
40
275
0
CIRCLE
8
BLACK
10
21600.0
20
72970.0
40
275
0
CIRCLE
8
BLACK
10
21600.0
20
71970.0
40
275
0
CIRCLE
8
BLACK
10
21600.0
20
71070.0
40
275
0
LINE
8
BLACK
10
16699.0
20
70020.0
11
19299.0
21
70020.0
0
LINE
8
BLACK
10
16699.0
20
70120.0
11
19299.0
21
70120.0
0
ARC
8
BLACK
10
19299.0
20
70070.0
40
50.0
50
270.0
51
450.0
0
ARC
8
BLACK
10
16699.0
20
70070.0
40
50.0
50
90.0
51
270.0
0
LINE
8
BLACK
10
22550.0
20
63070.0
11
22550.0
21
64070.0
0
LINE
8
BLACK
10
22450.0
20
63070.0
11
22450.0
21
64070.0
0
ARC
8
BLACK
10
22500.0
20
64070.0
40
50.0
50
360.0
51
540.0
0
ARC
8
BLACK
10
22500.0
20
63070.0
40
50.0
50
180.0
51
360.0
0
LINE
8
BLACK
10
18750.0
20
59270.0
11
18750.0
21
60270.0
0
LINE
8
BLACK
10
18650.0
20
59270.0
11
18650.0
21
60270.0
0
ARC
8
BLACK
10
18700.0
20
60270.0
40
50.0
50
360.0
51
540.0
0
ARC
8
BLACK
10
18700.0
20
59270.0
40
50.0
50
180.0
51
360.0
0
LINE
8
BLACK
10
12150.0
20
67570.0
11
12150.0
21
68770.0
0
LINE
8
BLACK
10
12050.0
20
67570.0
11
12050.0
21
68770.0
0
ARC
8
BLACK
10
12100.0
20
68770.0
40
50.0
50
360.0
51
540.0
0
ARC
8
BLACK
10
12100.0
20
67570.0
40
50.0
50
180.0
51
360.0
0
LINE
8
BLACK
10
11035.0
20
72338.0
11
10436.0
21
72937.0
0
LINE
8
BLACK
10
10964.0
20
72267.0
11
10365.0
21
72866.0
0
ARC
8
BLACK
10
10400.0
20
72902.0
40
50.0
50
405.0
51
585.0
0
ARC
8
BLACK
10
11000.0
20
72302.0
40
50.0
50
225.0
51
405.0
0
LINE
8
BLACK
10
11050.0
20
72270.0
11
11050.0
21
72302.0
0
LINE
8
BLACK
10
10950.0
20
72270.0
11
10950.0
21
72302.0
0
ARC
8
BLACK
10
11000.0
20
72302.0
40
50.0
50
360.0
51
540.0
0
ARC
8
BLACK
10
11000.0
20
72270.0
40
50.0
50
180.0
51
360.0
0
LINE
8
BLACK
10
10450.0
20
72902.0
11
10450.0
21
73970.0
0
LINE
8
BLACK
10
10350.0
20
72902.0
11
10350.0
21
73970.0
0
ARC
8
BLACK
10
10400.0
20
73970.0
40
50.0
50
360.0
51
540.0
0
ARC
8
BLACK
10
10400.0
20
72902.0
40
50.0
50
180.0
51
360.0
0
LINE
8
BLACK
10
16663.0
20
69505.0
11
16264.0
21
69106.0
0
LINE
8
BLACK
10
16734.0
20
69434.0
11
16335.0
21
69035.0
0
ARC
8
BLACK
10
16300.0
20
69071.0
40
50.0
50
135.0
51
315.0
0
ARC
8
BLACK
10
16698.0
20
69469.0
40
50.0
50
-45.0
51
135.0
0
LINE
8
BLACK
10
16749.0
20
69470.0
11
16749.0
21
70070.0
0
LINE
8
BLACK
10
16649.0
20
69470.0
11
16649.0
21
70070.0
0
ARC
8
BLACK
10
16699.0
20
70070.0
40
50.0
50
360.0
51
540.0
0
ARC
8
BLACK
10
16699.0
20
69470.0
40
50.0
50
180.0
51
360.0
0
LINE
8
BLACK
10
25550.0
20
59270.0
11
25550.0
21
60270.0
0
LINE
8
BLACK
10
25450.0
20
59270.0
11
25450.0
21
60270.0
0
ARC
8
BLACK
10
25500.0
20
60270.0
40
50.0
50
360.0
51
540.0
0
ARC
8
BLACK
10
25500.0
20
59270.0
40
50.0
50
180.0
51
360.0
0
LINE
8
BLACK
10
25039.0
20
54660.0
11
25464.0
21
54235.0
0
LINE
8
BLACK
10
25110.0
20
54731.0
11
25535.0
21
54306.0
0
ARC
8
BLACK
10
25500.0
20
54270.0
40
50.0
50
225.0
51
405.0
0
ARC
8
BLACK
10
25074.0
20
54696.0
40
50.0
50
45.0
51
225.0
0
LINE
8
BLACK
10
25124.0
20
54696.0
11
25124.0
21
58844.0
0
LINE
8
BLACK
10
25024.0
20
54696.0
11
25024.0
21
58844.0
0
ARC
8
BLACK
10
25074.0
20
58844.0
40
50.0
50
360.0
51
540.0
0
ARC
8
BLACK
10
25074.0
20
54696.0
40
50.0
50
180.0
51
360.0
0
LINE
8
BLACK
10
25464.0
20
59305.0
11
25039.0
21
58880.0
0
LINE
8
BLACK
10
25535.0
20
59234.0
11
25110.0
21
58809.0
0
ARC
8
BLACK
10
25074.0
20
58844.0
40
50.0
50
135.0
51
315.0
0
ARC
8
BLACK
10
25500.0
20
59270.0
40
50.0
50
-45.0
51
135.0
0
LINE
8
BLACK
10
5400.0
20
63820.0
11
5968.0
21
63820.0
0
LINE
8
BLACK
10
5400.0
20
63920.0
11
5968.0
21
63920.0
0
ARC
8
BLACK
10
5968.0
20
63870.0
40
50.0
50
270.0
51
450.0
0
ARC
8
BLACK
10
5400.0
20
63870.0
40
50.0
50
90.0
51
270.0
0
LINE
8
BLACK
10
8604.0
20
61306.0
11
6005.0
21
63905.0
0
LINE
8
BLACK
10
8533.0
20
61235.0
11
5934.0
21
63834.0
0
ARC
8
BLACK
10
5969.0
20
63870.0
40
50.0
50
405.0
51
585.0
0
ARC
8
BLACK
10
8569.0
20
61270.0
40
50.0
50
225.0
51
405.0
0
LINE
8
BLACK
10
8569.0
20
61220.0
11
11399.0
21
61220.0
0
LINE
8
BLACK
10
8569.0
20
61320.0
11
11399.0
21
61320.0
0
ARC
8
BLACK
10
11399.0
20
61270.0
40
50.0
50
270.0
51
450.0
0
ARC
8
BLACK
10
8569.0
20
61270.0
40
50.0
50
90.0
51
270.0
0
LINE
8
BLACK
10
11968.0
20
68720.0
11
12100.0
21
68720.0
0
LINE
8
BLACK
10
11968.0
20
68820.0
11
12100.0
21
68820.0
0
ARC
8
BLACK
10
12100.0
20
68770.0
40
50.0
50
270.0
51
450.0
0
ARC
8
BLACK
10
11968.0
20
68770.0
40
50.0
50
90.0
51
270.0
0
LINE
8
BLACK
10
11433.0
20
69234.0
11
11932.0
21
68735.0
0
LINE
8
BLACK
10
11504.0
20
69305.0
11
12003.0
21
68806.0
0
ARC
8
BLACK
10
11968.0
20
68770.0
40
50.0
50
225.0
51
405.0
0
ARC
8
BLACK
10
11468.0
20
69270.0
40
50.0
50
45.0
51
225.0
0
LINE
8
BLACK
10
10400.0
20
69220.0
11
11468.0
21
69220.0
0
LINE
8
BLACK
10
10400.0
20
69320.0
11
11468.0
21
69320.0
0
ARC
8
BLACK
10
11468.0
20
69270.0
40
50.0
50
270.0
51
450.0
0
ARC
8
BLACK
10
10400.0
20
69270.0
40
50.0
50
90.0
51
270.0
0
LINE
8
BLACK
10
15300.0
20
72395.0
11
15698.0
21
72395.0
0
LINE
8
BLACK
10
15300.0
20
72495.0
11
15698.0
21
72495.0
0
ARC
8
BLACK
10
15698.0
20
72445.0
40
50.0
50
270.0
51
450.0
0
ARC
8
BLACK
10
15300.0
20
72445.0
40
50.0
50
90.0
51
270.0
0
LINE
8
BLACK
10
15748.0
20
72446.0
11
15748.0
21
74672.0
0
LINE
8
BLACK
10
15648.0
20
72446.0
11
15648.0
21
74672.0
0
ARC
8
BLACK
10
15698.0
20
74672.0
40
50.0
50
360.0
51
540.0
0
ARC
8
BLACK
10
15698.0
20
72446.0
40
50.0
50
180.0
51
360.0
0
LINE
8
BLACK
10
15265.0
20
75034.0
11
15662.0
21
74637.0
0
LINE
8
BLACK
10
15336.0
20
75105.0
11
15733.0
21
74708.0
0
ARC
8
BLACK
10
15698.0
20
74672.0
40
50.0
50
225.0
51
405.0
0
ARC
8
BLACK
10
15300.0
20
75070.0
40
50.0
50
45.0
51
225.0
0
LINE
8
BLACK
10
16749.0
20
70070.0
11
16749.0
21
70452.0
0
LINE
8
BLACK
10
16649.0
20
70070.0
11
16649.0
21
70452.0
0
ARC
8
BLACK
10
16699.0
20
70452.0
40
50.0
50
360.0
51
540.0
0
ARC
8
BLACK
10
16699.0
20
70070.0
40
50.0
50
180.0
51
360.0
0
LINE
8
BLACK
10
16636.0
20
70444.0
11
16663.0
21
70417.0
0
LINE
8
BLACK
10
16707.0
20
70515.0
11
16734.0
21
70488.0
0
ARC
8
BLACK
10
16698.0
20
70453.0
40
50.0
50
225.0
51
405.0
0
ARC
8
BLACK
10
16672.0
20
70479.0
40
50.0
50
45.0
51
225.0
0
LINE
8
BLACK
10
16206.0
20
70430.0
11
16670.0
21
70430.0
0
LINE
8
BLACK
10
16206.0
20
70530.0
11
16670.0
21
70530.0
0
ARC
8
BLACK
10
16670.0
20
70480.0
40
50.0
50
270.0
51
450.0
0
ARC
8
BLACK
10
16206.0
20
70480.0
40
50.0
50
90.0
51
270.0
0
LINE
8
BLACK
10
15845.0
20
70770.0
11
16170.0
21
70445.0
0
LINE
8
BLACK
10
15916.0
20
70841.0
11
16241.0
21
70516.0
0
ARC
8
BLACK
10
16206.0
20
70480.0
40
50.0
50
225.0
51
405.0
0
ARC
8
BLACK
10
15880.0
20
70806.0
40
50.0
50
45.0
51
225.0
0
LINE
8
BLACK
10
15930.0
20
70807.0
11
15930.0
21
72263.0
0
LINE
8
BLACK
10
15830.0
20
70807.0
11
15830.0
21
72263.0
0
ARC
8
BLACK
10
15880.0
20
72263.0
40
50.0
50
360.0
51
540.0
0
ARC
8
BLACK
10
15880.0
20
70807.0
40
50.0
50
180.0
51
360.0
0
LINE
8
BLACK
10
15663.0
20
72409.0
11
15844.0
21
72228.0
0
LINE
8
BLACK
10
15734.0
20
72480.0
11
15915.0
21
72299.0
0
ARC
8
BLACK
10
15880.0
20
72263.0
40
50.0
50
225.0
51
405.0
0
ARC
8
BLACK
10
15698.0
20
72445.0
40
50.0
50
45.0
51
225.0
0
LINE
8
BLACK
10
15127.0
20
71730.0
11
14943.0
21
71546.0
0
LINE
8
BLACK
10
15197.0
20
71660.0
11
15013.0
21
71476.0
0
ARC
8
BLACK
10
14978.0
20
71511.0
40
50.0
50
135.0
51
315.0
0
ARC
8
BLACK
10
15162.0
20
71695.0
40
50.0
50
-45.0
51
135.0
0
LINE
8
BLACK
10
15162.0
20
71645.0
11
15300.0
21
71645.0
0
LINE
8
BLACK
10
15162.0
20
71745.0
11
15300.0
21
71745.0
0
ARC
8
BLACK
10
15300.0
20
71695.0
40
50.0
50
270.0
51
450.0
0
ARC
8
BLACK
10
15162.0
20
71695.0
40
50.0
50
90.0
51
270.0
0
LINE
8
BLACK
10
14500.0
20
71461.0
11
14978.0
21
71461.0
0
LINE
8
BLACK
10
14500.0
20
71561.0
11
14978.0
21
71561.0
0
ARC
8
BLACK
10
14978.0
20
71511.0
40
50.0
50
270.0
51
450.0
0
ARC
8
BLACK
10
14500.0
20
71511.0
40
50.0
50
90.0
51
270.0
0
LINE
8
BLACK
10
6718.0
20
65987.0
11
7517.0
21
65188.0
0
LINE
8
BLACK
10
7283.0
20
66552.0
11
8082.0
21
65753.0
0
ARC
8
BLACK
10
7800.0
20
65470.0
40
400.0
50
225.0
51
405.0
0
ARC
8
BLACK
10
7000.0
20
66270.0
40
400.0
50
45.0
51
225.0
0
LINE
8
BLACK
10
5800.0
20
65870.0
11
7000.0
21
65870.0
0
LINE
8
BLACK
10
5800.0
20
66670.0
11
7000.0
21
66670.0
0
ARC
8
BLACK
10
7000.0
20
66270.0
40
400.0
50
270.0
51
450.0
0
ARC
8
BLACK
10
5800.0
20
66270.0
40
400.0
50
90.0
51
270.0
0
LINE
8
BLACK
10
8617.0
20
66852.0
11
7518.0
21
65753.0
0
LINE
8
BLACK
10
9182.0
20
66287.0
11
8083.0
21
65188.0
0
ARC
8
BLACK
10
7801.0
20
65471.0
40
400.0
50
135.0
51
315.0
0
ARC
8
BLACK
10
8899.0
20
66569.0
40
400.0
50
-45.0
51
135.0
0
LINE
8
BLACK
10
9300.0
20
66570.0
11
9300.0
21
67270.0
0
LINE
8
BLACK
10
8500.0
20
66570.0
11
8500.0
21
67270.0
0
ARC
8
BLACK
10
8900.0
20
67270.0
40
400.0
50
360.0
51
540.0
0
ARC
8
BLACK
10
8900.0
20
66570.0
40
400.0
50
180.0
51
360.0
0
LINE
8
BLACK
10
8916.0
20
65052.0
11
7518.0
21
63654.0
0
LINE
8
BLACK
10
9482.0
20
64486.0
11
8084.0
21
63088.0
0
ARC
8
BLACK
10
7801.0
20
63371.0
40
400.0
50
135.0
51
315.0
0
ARC
8
BLACK
10
9199.0
20
64769.0
40
400.0
50
-45.0
51
135.0
0
LINE
8
BLACK
10
9701.0
20
65517.0
11
9002.0
21
65117.0
0
LINE
8
BLACK
10
10098.0
20
64823.0
11
9399.0
21
64423.0
0
ARC
8
BLACK
10
9200.0
20
64770.0
40
400.0
50
119.0
51
299.0
0
ARC
8
BLACK
10
9900.0
20
65170.0
40
400.0
50
-60.0
51
119.0
0
LINE
8
BLACK
10
8671.0
20
65541.0
11
9671.0
21
64843.0
0
LINE
8
BLACK
10
9129.0
20
66197.0
11
10129.0
21
65499.0
0
ARC
8
BLACK
10
9900.0
20
65171.0
40
400.0
50
235.0
51
415.0
0
ARC
8
BLACK
10
8900.0
20
65869.0
40
400.0
50
55.0
51
235.0
0
LINE
8
BLACK
10
9300.0
20
65870.0
11
9300.0
21
67270.0
0
LINE
8
BLACK
10
8500.0
20
65870.0
11
8500.0
21
67270.0
0
ARC
8
BLACK
10
8900.0
20
67270.0
40
400.0
50
360.0
51
540.0
0
ARC
8
BLACK
10
8900.0
20
65870.0
40
400.0
50
180.0
51
360.0
0
LINE
8
BLACK
10
10900.0
20
66170.0
11
12100.0
21
66170.0
0
LINE
8
BLACK
10
10900.0
20
66970.0
11
12100.0
21
66970.0
0
ARC
8
BLACK
10
12100.0
20
66570.0
40
400.0
50
270.0
51
450.0
0
ARC
8
BLACK
10
10900.0
20
66570.0
40
400.0
50
90.0
51
270.0
0
LINE
8
BLACK
10
9608.0
20
65747.0
11
9508.0
21
65249.0
0
LINE
8
BLACK
10
10392.0
20
65591.0
11
10292.0
21
65093.0
0
ARC
8
BLACK
10
9900.0
20
65171.0
40
400.0
50
168.0
51
348.0
0
ARC
8
BLACK
10
10000.0
20
65669.0
40
400.0
50
-11.0
51
168.0
0
LINE
8
BLACK
10
10617.0
20
66853.0
11
9717.0
21
65953.0
0
LINE
8
BLACK
10
11183.0
20
66287.0
11
10283.0
21
65387.0
0
ARC
8
BLACK
10
10000.0
20
65670.0
40
400.0
50
135.0
51
315.0
0
ARC
8
BLACK
10
10900.0
20
66570.0
40
400.0
50
-45.0
51
135.0
0
LINE
8
BLACK
10
13034.0
20
66170.0
11
14300.0
21
66170.0
0
LINE
8
BLACK
10
13034.0
20
66970.0
11
14300.0
21
66970.0
0
ARC
8
BLACK
10
14300.0
20
66570.0
40
400.0
50
270.0
51
450.0
0
ARC
8
BLACK
10
13034.0
20
66570.0
40
400.0
50
90.0
51
270.0
0
LINE
8
BLACK
10
12100.0
20
66170.0
11
13034.0
21
66170.0
0
LINE
8
BLACK
10
12100.0
20
66970.0
11
13034.0
21
66970.0
0
ARC
8
BLACK
10
13034.0
20
66570.0
40
400.0
50
270.0
51
450.0
0
ARC
8
BLACK
10
12100.0
20
66570.0
40
400.0
50
90.0
51
270.0
0
LINE
8
BLACK
10
13434.0
20
66570.0
11
13434.0
21
69770.0
0
LINE
8
BLACK
10
12634.0
20
66570.0
11
12634.0
21
69770.0
0
ARC
8
BLACK
10
13034.0
20
69770.0
40
400.0
50
360.0
51
540.0
0
ARC
8
BLACK
10
13034.0
20
66570.0
40
400.0
50
180.0
51
360.0
0
LINE
8
BLACK
10
12967.0
20
70268.0
11
12752.0
21
70053.0
0
LINE
8
BLACK
10
13532.0
20
69703.0
11
13317.0
21
69488.0
0
ARC
8
BLACK
10
13035.0
20
69771.0
40
400.0
50
135.0
51
315.0
0
ARC
8
BLACK
10
13249.0
20
69985.0
40
400.0
50
-45.0
51
135.0
0
LINE
8
BLACK
10
13650.0
20
69986.0
11
13650.0
21
70470.0
0
LINE
8
BLACK
10
12850.0
20
69986.0
11
12850.0
21
70470.0
0
ARC
8
BLACK
10
13250.0
20
70470.0
40
400.0
50
360.0
51
540.0
0
ARC
8
BLACK
10
13250.0
20
69986.0
40
400.0
50
180.0
51
360.0
0
LINE
8
BLACK
10
12100.0
20
69370.0
11
13034.0
21
69370.0
0
LINE
8
BLACK
10
12100.0
20
70170.0
11
13034.0
21
70170.0
0
ARC
8
BLACK
10
13034.0
20
69770.0
40
400.0
50
270.0
51
450.0
0
ARC
8
BLACK
10
12100.0
20
69770.0
40
400.0
50
90.0
51
270.0
0
LINE
8
BLACK
10
13400.0
20
70947.0
11
13600.0
21
70947.0
0
LINE
8
BLACK
10
13400.0
20
71047.0
11
13600.0
21
71047.0
0
ARC
8
BLACK
10
13600.0
20
70997.0
40
50.0
50
270.0
51
450.0
0
ARC
8
BLACK
10
13400.0
20
70997.0
40
50.0
50
90.0
51
270.0
0
LINE
8
BLACK
10
14161.0
20
70506.0
11
13635.0
21
71032.0
0
LINE
8
BLACK
10
14091.0
20
70436.0
11
13565.0
21
70962.0
0
ARC
8
BLACK
10
13600.0
20
70997.0
40
50.0
50
405.0
51
585.0
0
ARC
8
BLACK
10
14126.0
20
70471.0
40
50.0
50
225.0
51
405.0
0
LINE
8
BLACK
10
14127.0
20
70420.0
11
14549.0
21
70420.0
0
LINE
8
BLACK
10
14127.0
20
70520.0
11
14549.0
21
70520.0
0
ARC
8
BLACK
10
14549.0
20
70470.0
40
50.0
50
270.0
51
450.0
0
ARC
8
BLACK
10
14127.0
20
70470.0
40
50.0
50
90.0
51
270.0
0
LINE
8
BLACK
10
10265.0
20
71934.0
11
10964.0
21
71235.0
0
LINE
8
BLACK
10
10336.0
20
72005.0
11
11035.0
21
71306.0
0
ARC
8
BLACK
10
10999.0
20
71271.0
40
50.0
50
225.0
51
405.0
0
ARC
8
BLACK
10
10301.0
20
71969.0
40
50.0
50
45.0
51
225.0
0
LINE
8
BLACK
10
8900.0
20
71920.0
11
10300.0
21
71920.0
0
LINE
8
BLACK
10
8900.0
20
72020.0
11
10300.0
21
72020.0
0
ARC
8
BLACK
10
10300.0
20
71970.0
40
50.0
50
270.0
51
450.0
0
ARC
8
BLACK
10
8900.0
20
71970.0
40
50.0
50
90.0
51
270.0
0
LINE
8
BLACK
10
13450.0
20
71210.0
11
13450.0
21
71420.0
0
LINE
8
BLACK
10
13350.0
20
71210.0
11
13350.0
21
71420.0
0
ARC
8
BLACK
10
13400.0
20
71420.0
40
50.0
50
360.0
51
540.0
0
ARC
8
BLACK
10
13400.0
20
71210.0
40
50.0
50
180.0
51
360.0
0
LINE
8
BLACK
10
13450.0
20
70997.0
11
13450.0
21
71209.0
0
LINE
8
BLACK
10
13350.0
20
70997.0
11
13350.0
21
71209.0
0
ARC
8
BLACK
10
13400.0
20
71209.0
40
50.0
50
360.0
51
540.0
0
ARC
8
BLACK
10
13400.0
20
70997.0
40
50.0
50
180.0
51
360.0
0
LINE
8
BLACK
10
12296.0
20
71245.0
11
12235.0
21
71306.0
0
LINE
8
BLACK
10
12225.0
20
71174.0
11
12164.0
21
71235.0
0
ARC
8
BLACK
10
12200.0
20
71270.0
40
50.0
50
405.0
51
585.0
0
ARC
8
BLACK
10
12260.0
20
71210.0
40
50.0
50
225.0
51
405.0
0
LINE
8
BLACK
10
12261.0
20
71159.0
11
13399.0
21
71159.0
0
LINE
8
BLACK
10
12261.0
20
71259.0
11
13399.0
21
71259.0
0
ARC
8
BLACK
10
13399.0
20
71209.0
40
50.0
50
270.0
51
450.0
0
ARC
8
BLACK
10
12261.0
20
71209.0
40
50.0
50
90.0
51
270.0
0
LINE
8
BLACK
10
12841.0
20
72331.0
11
13364.0
21
71808.0
0
LINE
8
BLACK
10
12912.0
20
72402.0
11
13435.0
21
71879.0
0
ARC
8
BLACK
10
13400.0
20
71843.0
40
50.0
50
225.0
51
405.0
0
ARC
8
BLACK
10
12876.0
20
72367.0
40
50.0
50
45.0
51
225.0
0
LINE
8
BLACK
10
12926.0
20
72368.0
11
12926.0
21
75594.0
0
LINE
8
BLACK
10
12826.0
20
72368.0
11
12826.0
21
75594.0
0
ARC
8
BLACK
10
12876.0
20
75594.0
40
50.0
50
360.0
51
540.0
0
ARC
8
BLACK
10
12876.0
20
72368.0
40
50.0
50
180.0
51
360.0
0
LINE
8
BLACK
10
12365.0
20
76034.0
11
12840.0
21
75559.0
0
LINE
8
BLACK
10
12436.0
20
76105.0
11
12911.0
21
75630.0
0
ARC
8
BLACK
10
12876.0
20
75594.0
40
50.0
50
225.0
51
405.0
0
ARC
8
BLACK
10
12400.0
20
76070.0
40
50.0
50
45.0
51
225.0
0
LINE
8
BLACK
10
13450.0
20
71421.0
11
13450.0
21
71843.0
0
LINE
8
BLACK
10
13350.0
20
71421.0
11
13350.0
21
71843.0
0
ARC
8
BLACK
10
13400.0
20
71843.0
40
50.0
50
360.0
51
540.0
0
ARC
8
BLACK
10
13400.0
20
71421.0
40
50.0
50
180.0
51
360.0
0
LINE
8
BLACK
10
22536.0
20
74035.0
11
22935.0
21
74434.0
0
LINE
8
BLACK
10
22465.0
20
74106.0
11
22864.0
21
74505.0
0
ARC
8
BLACK
10
22899.0
20
74469.0
40
50.0
50
315.0
51
495.0
0
ARC
8
BLACK
10
22501.0
20
74071.0
40
50.0
50
135.0
51
315.0
0
LINE
8
BLACK
10
22900.0
20
74420.0
11
23600.0
21
74420.0
0
LINE
8
BLACK
10
22900.0
20
74520.0
11
23600.0
21
74520.0
0
ARC
8
BLACK
10
23600.0
20
74470.0
40
50.0
50
270.0
51
450.0
0
ARC
8
BLACK
10
22900.0
20
74470.0
40
50.0
50
90.0
51
270.0
0
LINE
8
BLACK
10
21259.0
20
74020.0
11
21599.0
21
74020.0
0
LINE
8
BLACK
10
21259.0
20
74120.0
11
21599.0
21
74120.0
0
ARC
8
BLACK
10
21599.0
20
74070.0
40
50.0
50
270.0
51
450.0
0
ARC
8
BLACK
10
21259.0
20
74070.0
40
50.0
50
90.0
51
270.0
0
LINE
8
BLACK
10
19435.0
20
73006.0
11
19336.0
21
73105.0
0
LINE
8
BLACK
10
19364.0
20
72935.0
11
19265.0
21
73034.0
0
ARC
8
BLACK
10
19301.0
20
73069.0
40
50.0
50
405.0
51
585.0
0
ARC
8
BLACK
10
19399.0
20
72971.0
40
50.0
50
225.0
51
405.0
0
LINE
8
BLACK
10
19400.0
20
72920.0
11
20140.0
21
72920.0
0
LINE
8
BLACK
10
19400.0
20
73020.0
11
20140.0
21
73020.0
0
ARC
8
BLACK
10
20140.0
20
72970.0
40
50.0
50
270.0
51
450.0
0
ARC
8
BLACK
10
19400.0
20
72970.0
40
50.0
50
90.0
51
270.0
0
LINE
8
BLACK
10
21259.0
20
72920.0
11
21599.0
21
72920.0
0
LINE
8
BLACK
10
21259.0
20
73020.0
11
21599.0
21
73020.0
0
ARC
8
BLACK
10
21599.0
20
72970.0
40
50.0
50
270.0
51
450.0
0
ARC
8
BLACK
10
21259.0
20
72970.0
40
50.0
50
90.0
51
270.0
0
LINE
8
BLACK
10
19435.0
20
72006.0
11
19336.0
21
72105.0
0
LINE
8
BLACK
10
19364.0
20
71935.0
11
19265.0
21
72034.0
0
ARC
8
BLACK
10
19301.0
20
72069.0
40
50.0
50
405.0
51
585.0
0
ARC
8
BLACK
10
19399.0
20
71971.0
40
50.0
50
225.0
51
405.0
0
LINE
8
BLACK
10
19400.0
20
71920.0
11
20140.0
21
71920.0
0
LINE
8
BLACK
10
19400.0
20
72020.0
11
20140.0
21
72020.0
0
ARC
8
BLACK
10
20140.0
20
71970.0
40
50.0
50
270.0
51
450.0
0
ARC
8
BLACK
10
19400.0
20
71970.0
40
50.0
50
90.0
51
270.0
0
LINE
8
BLACK
10
21259.0
20
71920.0
11
21599.0
21
71920.0
0
LINE
8
BLACK
10
21259.0
20
72020.0
11
21599.0
21
72020.0
0
ARC
8
BLACK
10
21599.0
20
71970.0
40
50.0
50
270.0
51
450.0
0
ARC
8
BLACK
10
21259.0
20
71970.0
40
50.0
50
90.0
51
270.0
0
LINE
8
BLACK
10
12364.0
20
59655.0
11
11465.0
21
58756.0
0
LINE
8
BLACK
10
12435.0
20
59584.0
11
11536.0
21
58685.0
0
ARC
8
BLACK
10
11500.0
20
58720.0
40
50.0
50
135.0
51
315.0
0
ARC
8
BLACK
10
12400.0
20
59620.0
40
50.0
50
-45.0
51
135.0
0
LINE
8
BLACK
10
12450.0
20
59620.0
11
12450.0
21
61270.0
0
LINE
8
BLACK
10
12350.0
20
59620.0
11
12350.0
21
61270.0
0
ARC
8
BLACK
10
12400.0
20
61270.0
40
50.0
50
360.0
51
540.0
0
ARC
8
BLACK
10
12400.0
20
59620.0
40
50.0
50
180.0
51
360.0
0
LINE
8
BLACK
10
19300.0
20
76020.0
11
20400.0
21
76020.0
0
LINE
8
BLACK
10
19300.0
20
76120.0
11
20400.0
21
76120.0
0
ARC
8
BLACK
10
20400.0
20
76070.0
40
50.0
50
270.0
51
450.0
0
ARC
8
BLACK
10
19300.0
20
76070.0
40
50.0
50
90.0
51
270.0
0
LINE
8
BLACK
10
16864.0
20
64706.0
11
16265.0
21
64107.0
0
LINE
8
BLACK
10
16935.0
20
64635.0
11
16336.0
21
64036.0
0
ARC
8
BLACK
10
16300.0
20
64071.0
40
50.0
50
135.0
51
315.0
0
ARC
8
BLACK
10
16900.0
20
64671.0
40
50.0
50
-45.0
51
135.0
0
LINE
8
BLACK
10
16951.0
20
64672.0
11
16951.0
21
67458.0
0
LINE
8
BLACK
10
16851.0
20
64672.0
11
16851.0
21
67458.0
0
ARC
8
BLACK
10
16901.0
20
67458.0
40
50.0
50
360.0
51
540.0
0
ARC
8
BLACK
10
16901.0
20
64672.0
40
50.0
50
180.0
51
360.0
0
LINE
8
BLACK
10
18894.0
20
69521.0
11
16866.0
21
67493.0
0
LINE
8
BLACK
10
18964.0
20
69451.0
11
16936.0
21
67423.0
0
ARC
8
BLACK
10
16901.0
20
67458.0
40
50.0
50
135.0
51
315.0
0
ARC
8
BLACK
10
18929.0
20
69486.0
40
50.0
50
-45.0
51
135.0
0
LINE
8
BLACK
10
18929.0
20
69436.0
11
20113.0
21
69436.0
0
LINE
8
BLACK
10
18929.0
20
69536.0
11
20113.0
21
69536.0
0
ARC
8
BLACK
10
20113.0
20
69486.0
40
50.0
50
270.0
51
450.0
0
ARC
8
BLACK
10
18929.0
20
69486.0
40
50.0
50
90.0
51
270.0
0
LINE
8
BLACK
10
20685.0
20
70129.0
11
20078.0
21
69522.0
0
LINE
8
BLACK
10
20756.0
20
70058.0
11
20149.0
21
69451.0
0
ARC
8
BLACK
10
20114.0
20
69487.0
40
50.0
50
135.0
51
315.0
0
ARC
8
BLACK
10
20720.0
20
70093.0
40
50.0
50
-45.0
51
135.0
0
LINE
8
BLACK
10
20771.0
20
70094.0
11
20771.0
21
73324.0
0
LINE
8
BLACK
10
20671.0
20
70094.0
11
20671.0
21
73324.0
0
ARC
8
BLACK
10
20721.0
20
73324.0
40
50.0
50
360.0
51
540.0
0
ARC
8
BLACK
10
20721.0
20
70094.0
40
50.0
50
180.0
51
360.0
0
LINE
8
BLACK
10
20813.0
20
73487.0
11
20686.0
21
73360.0
0
LINE
8
BLACK
10
20884.0
20
73416.0
11
20757.0
21
73289.0
0
ARC
8
BLACK
10
20721.0
20
73324.0
40
50.0
50
135.0
51
315.0
0
ARC
8
BLACK
10
20849.0
20
73452.0
40
50.0
50
-45.0
51
135.0
0
LINE
8
BLACK
10
20849.0
20
73402.0
11
21853.0
21
73402.0
0
LINE
8
BLACK
10
20849.0
20
73502.0
11
21853.0
21
73502.0
0
ARC
8
BLACK
10
21853.0
20
73452.0
40
50.0
50
270.0
51
450.0
0
ARC
8
BLACK
10
20849.0
20
73452.0
40
50.0
50
90.0
51
270.0
0
LINE
8
BLACK
10
21986.0
20
73655.0
11
21819.0
21
73488.0
0
LINE
8
BLACK
10
22057.0
20
73584.0
11
21890.0
21
73417.0
0
ARC
8
BLACK
10
21855.0
20
73453.0
40
50.0
50
135.0
51
315.0
0
ARC
8
BLACK
10
22021.0
20
73619.0
40
50.0
50
-45.0
51
135.0
0
LINE
8
BLACK
10
22072.0
20
73620.0
11
22072.0
21
74592.0
0
LINE
8
BLACK
10
21972.0
20
73620.0
11
21972.0
21
74592.0
0
ARC
8
BLACK
10
22022.0
20
74592.0
40
50.0
50
360.0
51
540.0
0
ARC
8
BLACK
10
22022.0
20
73620.0
40
50.0
50
180.0
51
360.0
0
LINE
8
BLACK
10
22464.0
20
75105.0
11
21987.0
21
74628.0
0
LINE
8
BLACK
10
22535.0
20
75034.0
11
22058.0
21
74557.0
0
ARC
8
BLACK
10
22023.0
20
74593.0
40
50.0
50
135.0
51
315.0
0
ARC
8
BLACK
10
22499.0
20
75069.0
40
50.0
50
-45.0
51
135.0
0
LINE
8
BLACK
10
19300.0
20
71020.0
11
20140.0
21
71020.0
0
LINE
8
BLACK
10
19300.0
20
71120.0
11
20140.0
21
71120.0
0
ARC
8
BLACK
10
20140.0
20
71070.0
40
50.0
50
270.0
51
450.0
0
ARC
8
BLACK
10
19300.0
20
71070.0
40
50.0
50
90.0
51
270.0
0
LINE
8
BLACK
10
19264.0
20
56905.0
11
18665.0
21
56306.0
0
LINE
8
BLACK
10
19335.0
20
56834.0
11
18736.0
21
56235.0
0
ARC
8
BLACK
10
18700.0
20
56270.0
40
50.0
50
135.0
51
315.0
0
ARC
8
BLACK
10
19300.0
20
56870.0
40
50.0
50
-45.0
51
135.0
0
LINE
8
BLACK
10
19350.0
20
56870.0
11
19350.0
21
63070.0
0
LINE
8
BLACK
10
19250.0
20
56870.0
11
19250.0
21
63070.0
0
ARC
8
BLACK
10
19300.0
20
63070.0
40
50.0
50
360.0
51
540.0
0
ARC
8
BLACK
10
19300.0
20
56870.0
40
50.0
50
180.0
51
360.0
0
LINE
8
BLACK
10
19300.0
20
75020.0
11
20400.0
21
75020.0
0
LINE
8
BLACK
10
19300.0
20
75120.0
11
20400.0
21
75120.0
0
ARC
8
BLACK
10
20400.0
20
75070.0
40
50.0
50
270.0
51
450.0
0
ARC
8
BLACK
10
19300.0
20
75070.0
40
50.0
50
90.0
51
270.0
0
LINE
8
BLACK
10
21259.0
20
71020.0
11
21599.0
21
71020.0
0
LINE
8
BLACK
10
21259.0
20
71120.0
11
21599.0
21
71120.0
0
ARC
8
BLACK
10
21599.0
20
71070.0
40
50.0
50
270.0
51
450.0
0
ARC
8
BLACK
10
21259.0
20
71070.0
40
50.0
50
90.0
51
270.0
0
LINE
8
BLACK
10
14100.0
20
58870.0
11
15700.0
21
58870.0
0
LINE
8
BLACK
10
14100.0
20
59670.0
11
15700.0
21
59670.0
0
ARC
8
BLACK
10
15700.0
20
59270.0
40
400.0
50
270.0
51
450.0
0
ARC
8
BLACK
10
14100.0
20
59270.0
40
400.0
50
90.0
51
270.0
0
LINE
8
BLACK
10
16100.0
20
58270.0
11
16100.0
21
59270.0
0
LINE
8
BLACK
10
15300.0
20
58270.0
11
15300.0
21
59270.0
0
ARC
8
BLACK
10
15700.0
20
59270.0
40
400.0
50
360.0
51
540.0
0
ARC
8
BLACK
10
15700.0
20
58270.0
40
400.0
50
180.0
51
360.0
0
LINE
8
BLACK
10
16100.0
20
59270.0
11
16100.0
21
60270.0
0
LINE
8
BLACK
10
15300.0
20
59270.0
11
15300.0
21
60270.0
0
ARC
8
BLACK
10
15700.0
20
60270.0
40
400.0
50
360.0
51
540.0
0
ARC
8
BLACK
10
15700.0
20
59270.0
40
400.0
50
180.0
51
360.0
0
LINE
8
BLACK
10
14100.0
20
55870.0
11
15700.0
21
55870.0
0
LINE
8
BLACK
10
14100.0
20
56670.0
11
15700.0
21
56670.0
0
ARC
8
BLACK
10
15700.0
20
56270.0
40
400.0
50
270.0
51
450.0
0
ARC
8
BLACK
10
14100.0
20
56270.0
40
400.0
50
90.0
51
270.0
0
LINE
8
BLACK
10
16100.0
20
56270.0
11
16100.0
21
57270.0
0
LINE
8
BLACK
10
15300.0
20
56270.0
11
15300.0
21
57270.0
0
ARC
8
BLACK
10
15700.0
20
57270.0
40
400.0
50
360.0
51
540.0
0
ARC
8
BLACK
10
15700.0
20
56270.0
40
400.0
50
180.0
51
360.0
0
LINE
8
BLACK
10
16100.0
20
55270.0
11
16100.0
21
56270.0
0
LINE
8
BLACK
10
15300.0
20
55270.0
11
15300.0
21
56270.0
0
ARC
8
BLACK
10
15700.0
20
56270.0
40
400.0
50
360.0
51
540.0
0
ARC
8
BLACK
10
15700.0
20
55270.0
40
400.0
50
180.0
51
360.0
0
LINE
8
BLACK
10
14100.0
20
52870.0
11
15700.0
21
52870.0
0
LINE
8
BLACK
10
14100.0
20
53670.0
11
15700.0
21
53670.0
0
ARC
8
BLACK
10
15700.0
20
53270.0
40
400.0
50
270.0
51
450.0
0
ARC
8
BLACK
10
14100.0
20
53270.0
40
400.0
50
90.0
51
270.0
0
LINE
8
BLACK
10
16100.0
20
53270.0
11
16100.0
21
54270.0
0
LINE
8
BLACK
10
15300.0
20
53270.0
11
15300.0
21
54270.0
0
ARC
8
BLACK
10
15700.0
20
54270.0
40
400.0
50
360.0
51
540.0
0
ARC
8
BLACK
10
15700.0
20
53270.0
40
400.0
50
180.0
51
360.0
0
LINE
8
BLACK
10
16100.0
20
52270.0
11
16100.0
21
53270.0
0
LINE
8
BLACK
10
15300.0
20
52270.0
11
15300.0
21
53270.0
0
ARC
8
BLACK
10
15700.0
20
53270.0
40
400.0
50
360.0
51
540.0
0
ARC
8
BLACK
10
15700.0
20
52270.0
40
400.0
50
180.0
51
360.0
0
LINE
8
BLACK
10
14100.0
20
49870.0
11
15700.0
21
49870.0
0
LINE
8
BLACK
10
14100.0
20
50670.0
11
15700.0
21
50670.0
0
ARC
8
BLACK
10
15700.0
20
50270.0
40
400.0
50
270.0
51
450.0
0
ARC
8
BLACK
10
14100.0
20
50270.0
40
400.0
50
90.0
51
270.0
0
LINE
8
BLACK
10
16100.0
20
50270.0
11
16100.0
21
51270.0
0
LINE
8
BLACK
10
15300.0
20
50270.0
11
15300.0
21
51270.0
0
ARC
8
BLACK
10
15700.0
20
51270.0
40
400.0
50
360.0
51
540.0
0
ARC
8
BLACK
10
15700.0
20
50270.0
40
400.0
50
180.0
51
360.0
0
LINE
8
BLACK
10
16100.0
20
49270.0
11
16100.0
21
50270.0
0
LINE
8
BLACK
10
15300.0
20
49270.0
11
15300.0
21
50270.0
0
ARC
8
BLACK
10
15700.0
20
50270.0
40
400.0
50
360.0
51
540.0
0
ARC
8
BLACK
10
15700.0
20
49270.0
40
400.0
50
180.0
51
360.0
0
LINE
8
BLACK
10
14100.0
20
46870.0
11
15700.0
21
46870.0
0
LINE
8
BLACK
10
14100.0
20
47670.0
11
15700.0
21
47670.0
0
ARC
8
BLACK
10
15700.0
20
47270.0
40
400.0
50
270.0
51
450.0
0
ARC
8
BLACK
10
14100.0
20
47270.0
40
400.0
50
90.0
51
270.0
0
LINE
8
BLACK
10
15700.0
20
46870.0
11
18700.0
21
46870.0
0
LINE
8
BLACK
10
15700.0
20
47670.0
11
18700.0
21
47670.0
0
ARC
8
BLACK
10
18700.0
20
47270.0
40
400.0
50
270.0
51
450.0
0
ARC
8
BLACK
10
15700.0
20
47270.0
40
400.0
50
90.0
51
270.0
0
LINE
8
BLACK
10
16100.0
20
47270.0
11
16100.0
21
48270.0
0
LINE
8
BLACK
10
15300.0
20
47270.0
11
15300.0
21
48270.0
0
ARC
8
BLACK
10
15700.0
20
48270.0
40
400.0
50
360.0
51
540.0
0
ARC
8
BLACK
10
15700.0
20
47270.0
40
400.0
50
180.0
51
360.0
0
LINE
8
BLACK
10
24498.0
20
50202.0
11
25464.0
21
49236.0
0
LINE
8
BLACK
10
24568.0
20
50272.0
11
25534.0
21
49306.0
0
ARC
8
BLACK
10
25499.0
20
49271.0
40
50.0
50
225.0
51
405.0
0
ARC
8
BLACK
10
24533.0
20
50237.0
40
50.0
50
45.0
51
225.0
0
LINE
8
BLACK
10
24583.0
20
50237.0
11
24583.0
21
63037.0
0
LINE
8
BLACK
10
24483.0
20
50237.0
11
24483.0
21
63037.0
0
ARC
8
BLACK
10
24533.0
20
63037.0
40
50.0
50
360.0
51
540.0
0
ARC
8
BLACK
10
24533.0
20
50237.0
40
50.0
50
180.0
51
360.0
0
LINE
8
BLACK
10
22465.0
20
65035.0
11
24497.0
21
63003.0
0
LINE
8
BLACK
10
22535.0
20
65105.0
11
24567.0
21
63073.0
0
ARC
8
BLACK
10
24532.0
20
63038.0
40
50.0
50
225.0
51
405.0
0
ARC
8
BLACK
10
22500.0
20
65070.0
40
50.0
50
45.0
51
225.0
0
LINE
8
BLACK
10
24765.0
20
50934.0
11
25464.0
21
50235.0
0
LINE
8
BLACK
10
24836.0
20
51005.0
11
25535.0
21
50306.0
0
ARC
8
BLACK
10
25499.0
20
50271.0
40
50.0
50
225.0
51
405.0
0
ARC
8
BLACK
10
24801.0
20
50969.0
40
50.0
50
45.0
51
225.0
0
LINE
8
BLACK
10
24850.0
20
50970.0
11
24850.0
21
70770.0
0
LINE
8
BLACK
10
24750.0
20
50970.0
11
24750.0
21
70770.0
0
ARC
8
BLACK
10
24800.0
20
70770.0
40
50.0
50
360.0
51
540.0
0
ARC
8
BLACK
10
24800.0
20
50970.0
40
50.0
50
180.0
51
360.0
0
LINE
8
BLACK
10
22465.0
20
73034.0
11
24764.0
21
70735.0
0
LINE
8
BLACK
10
22536.0
20
73105.0
11
24835.0
21
70806.0
0
ARC
8
BLACK
10
24800.0
20
70770.0
40
50.0
50
225.0
51
405.0
0
ARC
8
BLACK
10
22500.0
20
73070.0
40
50.0
50
45.0
51
225.0
0
LINE
8
BLACK
10
10025.0
20
51125.0
11
10465.0
21
50685.0
0
LINE
8
BLACK
10
10095.0
20
51195.0
11
10535.0
21
50755.0
0
ARC
8
BLACK
10
10500.0
20
50720.0
40
50.0
50
225.0
51
405.0
0
ARC
8
BLACK
10
10060.0
20
51160.0
40
50.0
50
45.0
51
225.0
0
LINE
8
BLACK
10
10110.0
20
51160.0
11
10110.0
21
56780.0
0
LINE
8
BLACK
10
10010.0
20
51160.0
11
10010.0
21
56780.0
0
ARC
8
BLACK
10
10060.0
20
56780.0
40
50.0
50
360.0
51
540.0
0
ARC
8
BLACK
10
10060.0
20
51160.0
40
50.0
50
180.0
51
360.0
0
LINE
8
BLACK
10
10465.0
20
57255.0
11
10025.0
21
56815.0
0
LINE
8
BLACK
10
10535.0
20
57185.0
11
10095.0
21
56745.0
0
ARC
8
BLACK
10
10060.0
20
56780.0
40
50.0
50
135.0
51
315.0
0
ARC
8
BLACK
10
10500.0
20
57220.0
40
50.0
50
-45.0
51
135.0
0
LINE
8
BLACK
10
11905.0
20
51695.0
11
11465.0
21
51255.0
0
LINE
8
BLACK
10
11975.0
20
51625.0
11
11535.0
21
51185.0
0
ARC
8
BLACK
10
11500.0
20
51220.0
40
50.0
50
135.0
51
315.0
0
ARC
8
BLACK
10
11940.0
20
51660.0
40
50.0
50
-45.0
51
135.0
0
LINE
8
BLACK
10
11990.0
20
51661.0
11
11990.0
21
56111.0
0
LINE
8
BLACK
10
11890.0
20
51661.0
11
11890.0
21
56111.0
0
ARC
8
BLACK
10
11940.0
20
56111.0
40
50.0
50
360.0
51
540.0
0
ARC
8
BLACK
10
11940.0
20
51661.0
40
50.0
50
180.0
51
360.0
0
LINE
8
BLACK
10
11877.0
20
56103.0
11
11904.0
21
56076.0
0
LINE
8
BLACK
10
11948.0
20
56174.0
11
11975.0
21
56147.0
0
ARC
8
BLACK
10
11939.0
20
56112.0
40
50.0
50
225.0
51
405.0
0
ARC
8
BLACK
10
11913.0
20
56138.0
40
50.0
50
45.0
51
225.0
0
LINE
8
BLACK
10
11254.0
20
56089.0
11
11912.0
21
56089.0
0
LINE
8
BLACK
10
11254.0
20
56189.0
11
11912.0
21
56189.0
0
ARC
8
BLACK
10
11912.0
20
56139.0
40
50.0
50
270.0
51
450.0
0
ARC
8
BLACK
10
11254.0
20
56139.0
40
50.0
50
90.0
51
270.0
0
LINE
8
BLACK
10
10881.0
20
56441.0
11
11218.0
21
56104.0
0
LINE
8
BLACK
10
10952.0
20
56512.0
11
11289.0
21
56175.0
0
ARC
8
BLACK
10
11253.0
20
56140.0
40
50.0
50
225.0
51
405.0
0
ARC
8
BLACK
10
10917.0
20
56476.0
40
50.0
50
45.0
51
225.0
0
LINE
8
BLACK
10
10967.0
20
56476.0
11
10967.0
21
56750.0
0
LINE
8
BLACK
10
10867.0
20
56476.0
11
10867.0
21
56750.0
0
ARC
8
BLACK
10
10917.0
20
56750.0
40
50.0
50
360.0
51
540.0
0
ARC
8
BLACK
10
10917.0
20
56476.0
40
50.0
50
180.0
51
360.0
0
LINE
8
BLACK
10
11464.0
20
57369.0
11
10881.0
21
56786.0
0
LINE
8
BLACK
10
11535.0
20
57298.0
11
10952.0
21
56715.0
0
ARC
8
BLACK
10
10917.0
20
56751.0
40
50.0
50
135.0
51
315.0
0
ARC
8
BLACK
10
11499.0
20
57333.0
40
50.0
50
-45.0
51
135.0
0
LINE
8
BLACK
10
11550.0
20
57334.0
11
11550.0
21
57720.0
0
LINE
8
BLACK
10
11450.0
20
57334.0
11
11450.0
21
57720.0
0
ARC
8
BLACK
10
11500.0
20
57720.0
40
50.0
50
360.0
51
540.0
0
ARC
8
BLACK
10
11500.0
20
57334.0
40
50.0
50
180.0
51
360.0
0
LINE
8
BLACK
10
11500.0
20
56670.0
11
11600.0
21
56670.0
0
LINE
8
BLACK
10
11500.0
20
56770.0
11
11600.0
21
56770.0
0
ARC
8
BLACK
10
11600.0
20
56720.0
40
50.0
50
270.0
51
450.0
0
ARC
8
BLACK
10
11500.0
20
56720.0
40
50.0
50
90.0
51
270.0
0
LINE
8
BLACK
10
12288.0
20
56103.0
11
11636.0
21
56755.0
0
LINE
8
BLACK
10
12218.0
20
56033.0
11
11566.0
21
56685.0
0
ARC
8
BLACK
10
11601.0
20
56720.0
40
50.0
50
405.0
51
585.0
0
ARC
8
BLACK
10
12253.0
20
56068.0
40
50.0
50
225.0
51
405.0
0
LINE
8
BLACK
10
12303.0
20
50974.0
11
12303.0
21
56068.0
0
LINE
8
BLACK
10
12203.0
20
50974.0
11
12203.0
21
56068.0
0
ARC
8
BLACK
10
12253.0
20
56068.0
40
50.0
50
360.0
51
540.0
0
ARC
8
BLACK
10
12253.0
20
50974.0
40
50.0
50
180.0
51
360.0
0
LINE
8
BLACK
10
11535.0
20
50185.0
11
12288.0
21
50938.0
0
LINE
8
BLACK
10
11464.0
20
50256.0
11
12217.0
21
51009.0
0
ARC
8
BLACK
10
12252.0
20
50973.0
40
50.0
50
315.0
51
495.0
0
ARC
8
BLACK
10
11500.0
20
50221.0
40
50.0
50
135.0
51
315.0
0
LINE
8
BLACK
10
11045.0
20
49604.0
11
11464.0
21
49185.0
0
LINE
8
BLACK
10
11116.0
20
49675.0
11
11535.0
21
49256.0
0
ARC
8
BLACK
10
11499.0
20
49221.0
40
50.0
50
225.0
51
405.0
0
ARC
8
BLACK
10
11081.0
20
49639.0
40
50.0
50
45.0
51
225.0
0
LINE
8
BLACK
10
11130.0
20
49640.0
11
11130.0
21
55300.0
0
LINE
8
BLACK
10
11030.0
20
49640.0
11
11030.0
21
55300.0
0
ARC
8
BLACK
10
11080.0
20
55300.0
40
50.0
50
360.0
51
540.0
0
ARC
8
BLACK
10
11080.0
20
49640.0
40
50.0
50
180.0
51
360.0
0
LINE
8
BLACK
10
11464.0
20
55755.0
11
11045.0
21
55336.0
0
LINE
8
BLACK
10
11535.0
20
55684.0
11
11116.0
21
55265.0
0
ARC
8
BLACK
10
11081.0
20
55301.0
40
50.0
50
135.0
51
315.0
0
ARC
8
BLACK
10
11499.0
20
55719.0
40
50.0
50
-45.0
51
135.0
0
LINE
8
BLACK
10
25500.0
20
63670.0
11
26900.0
21
63670.0
0
LINE
8
BLACK
10
25500.0
20
64470.0
11
26900.0
21
64470.0
0
ARC
8
BLACK
10
26900.0
20
64070.0
40
400.0
50
270.0
51
450.0
0
ARC
8
BLACK
10
25500.0
20
64070.0
40
400.0
50
90.0
51
270.0
0
LINE
8
BLACK
10
25900.0
20
64070.0
11
25900.0
21
65070.0
0
LINE
8
BLACK
10
25100.0
20
64070.0
11
25100.0
21
65070.0
0
ARC
8
BLACK
10
25500.0
20
65070.0
40
400.0
50
360.0
51
540.0
0
ARC
8
BLACK
10
25500.0
20
64070.0
40
400.0
50
180.0
51
360.0
0
LINE
8
BLACK
10
25900.0
20
63070.0
11
25900.0
21
64070.0
0
LINE
8
BLACK
10
25100.0
20
63070.0
11
25100.0
21
64070.0
0
ARC
8
BLACK
10
25500.0
20
64070.0
40
400.0
50
360.0
51
540.0
0
ARC
8
BLACK
10
25500.0
20
63070.0
40
400.0
50
180.0
51
360.0
0
LINE
8
BLACK
10
25500.0
20
66670.0
11
26900.0
21
66670.0
0
LINE
8
BLACK
10
25500.0
20
67470.0
11
26900.0
21
67470.0
0
ARC
8
BLACK
10
26900.0
20
67070.0
40
400.0
50
270.0
51
450.0
0
ARC
8
BLACK
10
25500.0
20
67070.0
40
400.0
50
90.0
51
270.0
0
LINE
8
BLACK
10
25900.0
20
67070.0
11
25900.0
21
68070.0
0
LINE
8
BLACK
10
25100.0
20
67070.0
11
25100.0
21
68070.0
0
ARC
8
BLACK
10
25500.0
20
68070.0
40
400.0
50
360.0
51
540.0
0
ARC
8
BLACK
10
25500.0
20
67070.0
40
400.0
50
180.0
51
360.0
0
LINE
8
BLACK
10
25900.0
20
66070.0
11
25900.0
21
67070.0
0
LINE
8
BLACK
10
25100.0
20
66070.0
11
25100.0
21
67070.0
0
ARC
8
BLACK
10
25500.0
20
67070.0
40
400.0
50
360.0
51
540.0
0
ARC
8
BLACK
10
25500.0
20
66070.0
40
400.0
50
180.0
51
360.0
0
LINE
8
BLACK
10
25500.0
20
69670.0
11
26900.0
21
69670.0
0
LINE
8
BLACK
10
25500.0
20
70470.0
11
26900.0
21
70470.0
0
ARC
8
BLACK
10
26900.0
20
70070.0
40
400.0
50
270.0
51
450.0
0
ARC
8
BLACK
10
25500.0
20
70070.0
40
400.0
50
90.0
51
270.0
0
LINE
8
BLACK
10
25900.0
20
70070.0
11
25900.0
21
71070.0
0
LINE
8
BLACK
10
25100.0
20
70070.0
11
25100.0
21
71070.0
0
ARC
8
BLACK
10
25500.0
20
71070.0
40
400.0
50
360.0
51
540.0
0
ARC
8
BLACK
10
25500.0
20
70070.0
40
400.0
50
180.0
51
360.0
0
LINE
8
BLACK
10
25900.0
20
69070.0
11
25900.0
21
70070.0
0
LINE
8
BLACK
10
25100.0
20
69070.0
11
25100.0
21
70070.0
0
ARC
8
BLACK
10
25500.0
20
70070.0
40
400.0
50
360.0
51
540.0
0
ARC
8
BLACK
10
25500.0
20
69070.0
40
400.0
50
180.0
51
360.0
0
LINE
8
BLACK
10
5389.0
20
61930.0
11
5365.0
21
61906.0
0
LINE
8
BLACK
10
5459.0
20
61860.0
11
5435.0
21
61836.0
0
ARC
8
BLACK
10
5400.0
20
61871.0
40
50.0
50
135.0
51
315.0
0
ARC
8
BLACK
10
5424.0
20
61895.0
40
50.0
50
-45.0
51
135.0
0
LINE
8
BLACK
10
5475.0
20
61896.0
11
5475.0
21
62770.0
0
LINE
8
BLACK
10
5375.0
20
61896.0
11
5375.0
21
62770.0
0
ARC
8
BLACK
10
5425.0
20
62770.0
40
50.0
50
360.0
51
540.0
0
ARC
8
BLACK
10
5425.0
20
61896.0
40
50.0
50
180.0
51
360.0
0
LINE
8
BLACK
10
20900.0
20
58870.0
11
22500.0
21
58870.0
0
LINE
8
BLACK
10
20900.0
20
59670.0
11
22500.0
21
59670.0
0
ARC
8
BLACK
10
22500.0
20
59270.0
40
400.0
50
270.0
51
450.0
0
ARC
8
BLACK
10
20900.0
20
59270.0
40
400.0
50
90.0
51
270.0
0
LINE
8
BLACK
10
22900.0
20
59270.0
11
22900.0
21
60270.0
0
LINE
8
BLACK
10
22100.0
20
59270.0
11
22100.0
21
60270.0
0
ARC
8
BLACK
10
22500.0
20
60270.0
40
400.0
50
360.0
51
540.0
0
ARC
8
BLACK
10
22500.0
20
59270.0
40
400.0
50
180.0
51
360.0
0
LINE
8
BLACK
10
22900.0
20
58270.0
11
22900.0
21
59270.0
0
LINE
8
BLACK
10
22100.0
20
58270.0
11
22100.0
21
59270.0
0
ARC
8
BLACK
10
22500.0
20
59270.0
40
400.0
50
360.0
51
540.0
0
ARC
8
BLACK
10
22500.0
20
58270.0
40
400.0
50
180.0
51
360.0
0
LINE
8
BLACK
10
20900.0
20
55870.0
11
22500.0
21
55870.0
0
LINE
8
BLACK
10
20900.0
20
56670.0
11
22500.0
21
56670.0
0
ARC
8
BLACK
10
22500.0
20
56270.0
40
400.0
50
270.0
51
450.0
0
ARC
8
BLACK
10
20900.0
20
56270.0
40
400.0
50
90.0
51
270.0
0
LINE
8
BLACK
10
22900.0
20
56270.0
11
22900.0
21
57270.0
0
LINE
8
BLACK
10
22100.0
20
56270.0
11
22100.0
21
57270.0
0
ARC
8
BLACK
10
22500.0
20
57270.0
40
400.0
50
360.0
51
540.0
0
ARC
8
BLACK
10
22500.0
20
56270.0
40
400.0
50
180.0
51
360.0
0
LINE
8
BLACK
10
22900.0
20
55270.0
11
22900.0
21
56270.0
0
LINE
8
BLACK
10
22100.0
20
55270.0
11
22100.0
21
56270.0
0
ARC
8
BLACK
10
22500.0
20
56270.0
40
400.0
50
360.0
51
540.0
0
ARC
8
BLACK
10
22500.0
20
55270.0
40
400.0
50
180.0
51
360.0
0
LINE
8
BLACK
10
20900.0
20
52870.0
11
22500.0
21
52870.0
0
LINE
8
BLACK
10
20900.0
20
53670.0
11
22500.0
21
53670.0
0
ARC
8
BLACK
10
22500.0
20
53270.0
40
400.0
50
270.0
51
450.0
0
ARC
8
BLACK
10
20900.0
20
53270.0
40
400.0
50
90.0
51
270.0
0
LINE
8
BLACK
10
22900.0
20
52270.0
11
22900.0
21
53270.0
0
LINE
8
BLACK
10
22100.0
20
52270.0
11
22100.0
21
53270.0
0
ARC
8
BLACK
10
22500.0
20
53270.0
40
400.0
50
360.0
51
540.0
0
ARC
8
BLACK
10
22500.0
20
52270.0
40
400.0
50
180.0
51
360.0
0
LINE
8
BLACK
10
22900.0
20
53270.0
11
22900.0
21
54270.0
0
LINE
8
BLACK
10
22100.0
20
53270.0
11
22100.0
21
54270.0
0
ARC
8
BLACK
10
22500.0
20
54270.0
40
400.0
50
360.0
51
540.0
0
ARC
8
BLACK
10
22500.0
20
53270.0
40
400.0
50
180.0
51
360.0
0
LINE
8
BLACK
10
20800.0
20
49870.0
11
22500.0
21
49870.0
0
LINE
8
BLACK
10
20800.0
20
50670.0
11
22500.0
21
50670.0
0
ARC
8
BLACK
10
22500.0
20
50270.0
40
400.0
50
270.0
51
450.0
0
ARC
8
BLACK
10
20800.0
20
50270.0
40
400.0
50
90.0
51
270.0
0
LINE
8
BLACK
10
22900.0
20
50270.0
11
22900.0
21
51270.0
0
LINE
8
BLACK
10
22100.0
20
50270.0
11
22100.0
21
51270.0
0
ARC
8
BLACK
10
22500.0
20
51270.0
40
400.0
50
360.0
51
540.0
0
ARC
8
BLACK
10
22500.0
20
50270.0
40
400.0
50
180.0
51
360.0
0
LINE
8
BLACK
10
22900.0
20
49270.0
11
22900.0
21
50270.0
0
LINE
8
BLACK
10
22100.0
20
49270.0
11
22100.0
21
50270.0
0
ARC
8
BLACK
10
22500.0
20
50270.0
40
400.0
50
360.0
51
540.0
0
ARC
8
BLACK
10
22500.0
20
49270.0
40
400.0
50
180.0
51
360.0
0
LINE
8
BLACK
10
19300.0
20
64020.0
11
19720.0
21
64020.0
0
LINE
8
BLACK
10
19300.0
20
64120.0
11
19720.0
21
64120.0
0
ARC
8
BLACK
10
19720.0
20
64070.0
40
50.0
50
270.0
51
450.0
0
ARC
8
BLACK
10
19300.0
20
64070.0
40
50.0
50
90.0
51
270.0
0
LINE
8
BLACK
10
21300.0
20
65721.0
11
19685.0
21
64106.0
0
LINE
8
BLACK
10
21371.0
20
65650.0
11
19756.0
21
64035.0
0
ARC
8
BLACK
10
19720.0
20
64070.0
40
50.0
50
135.0
51
315.0
0
ARC
8
BLACK
10
21336.0
20
65686.0
40
50.0
50
-45.0
51
135.0
0
LINE
8
BLACK
10
21386.0
20
65686.0
11
21386.0
21
66906.0
0
LINE
8
BLACK
10
21286.0
20
65686.0
11
21286.0
21
66906.0
0
ARC
8
BLACK
10
21336.0
20
66906.0
40
50.0
50
360.0
51
540.0
0
ARC
8
BLACK
10
21336.0
20
65686.0
40
50.0
50
180.0
51
360.0
0
LINE
8
BLACK
10
22465.0
20
68105.0
11
21301.0
21
66941.0
0
LINE
8
BLACK
10
22535.0
20
68035.0
11
21371.0
21
66871.0
0
ARC
8
BLACK
10
21336.0
20
66906.0
40
50.0
50
135.0
51
315.0
0
ARC
8
BLACK
10
22500.0
20
68070.0
40
50.0
50
-45.0
51
135.0
0
LINE
8
BLACK
10
19684.0
20
56325.0
11
18665.0
21
55306.0
0
LINE
8
BLACK
10
19755.0
20
56254.0
11
18736.0
21
55235.0
0
ARC
8
BLACK
10
18700.0
20
55270.0
40
50.0
50
135.0
51
315.0
0
ARC
8
BLACK
10
19720.0
20
56290.0
40
50.0
50
-45.0
51
135.0
0
LINE
8
BLACK
10
19770.0
20
56290.0
11
19770.0
21
64070.0
0
LINE
8
BLACK
10
19670.0
20
56290.0
11
19670.0
21
64070.0
0
ARC
8
BLACK
10
19720.0
20
64070.0
40
50.0
50
360.0
51
540.0
0
ARC
8
BLACK
10
19720.0
20
56290.0
40
50.0
50
180.0
51
360.0
0
LINE
8
BLACK
10
22900.0
20
47270.0
11
22900.0
21
48270.0
0
LINE
8
BLACK
10
22100.0
20
47270.0
11
22100.0
21
48270.0
0
ARC
8
BLACK
10
22500.0
20
48270.0
40
400.0
50
360.0
51
540.0
0
ARC
8
BLACK
10
22500.0
20
47270.0
40
400.0
50
180.0
51
360.0
0
LINE
8
BLACK
10
20800.0
20
46870.0
11
22500.0
21
46870.0
0
LINE
8
BLACK
10
20800.0
20
47670.0
11
22500.0
21
47670.0
0
ARC
8
BLACK
10
22500.0
20
47270.0
40
400.0
50
270.0
51
450.0
0
ARC
8
BLACK
10
20800.0
20
47270.0
40
400.0
50
90.0
51
270.0
0
LINE
8
BLACK
10
22500.0
20
46870.0
11
25500.0
21
46870.0
0
LINE
8
BLACK
10
22500.0
20
47670.0
11
25500.0
21
47670.0
0
ARC
8
BLACK
10
25500.0
20
47270.0
40
400.0
50
270.0
51
450.0
0
ARC
8
BLACK
10
22500.0
20
47270.0
40
400.0
50
90.0
51
270.0
0
LINE
8
BLACK
10
26017.0
20
72787.0
11
26617.0
21
72187.0
0
LINE
8
BLACK
10
26583.0
20
73353.0
11
27183.0
21
72753.0
0
ARC
8
BLACK
10
26900.0
20
72470.0
40
400.0
50
225.0
51
405.0
0
ARC
8
BLACK
10
26300.0
20
73070.0
40
400.0
50
45.0
51
225.0
0
LINE
8
BLACK
10
25500.0
20
72670.0
11
26300.0
21
72670.0
0
LINE
8
BLACK
10
25500.0
20
73470.0
11
26300.0
21
73470.0
0
ARC
8
BLACK
10
26300.0
20
73070.0
40
400.0
50
270.0
51
450.0
0
ARC
8
BLACK
10
25500.0
20
73070.0
40
400.0
50
90.0
51
270.0
0
LINE
8
BLACK
10
25900.0
20
72070.0
11
25900.0
21
73070.0
0
LINE
8
BLACK
10
25100.0
20
72070.0
11
25100.0
21
73070.0
0
ARC
8
BLACK
10
25500.0
20
73070.0
40
400.0
50
360.0
51
540.0
0
ARC
8
BLACK
10
25500.0
20
72070.0
40
400.0
50
180.0
51
360.0
0
LINE
8
BLACK
10
25900.0
20
73070.0
11
25900.0
21
74070.0
0
LINE
8
BLACK
10
25100.0
20
73070.0
11
25100.0
21
74070.0
0
ARC
8
BLACK
10
25500.0
20
74070.0
40
400.0
50
360.0
51
540.0
0
ARC
8
BLACK
10
25500.0
20
73070.0
40
400.0
50
180.0
51
360.0
0
LINE
8
BLACK
10
25900.0
20
75070.0
11
25900.0
21
76070.0
0
LINE
8
BLACK
10
25100.0
20
75070.0
11
25100.0
21
76070.0
0
ARC
8
BLACK
10
25500.0
20
76070.0
40
400.0
50
360.0
51
540.0
0
ARC
8
BLACK
10
25500.0
20
75070.0
40
400.0
50
180.0
51
360.0
0
LINE
8
BLACK
10
26417.0
20
74787.0
11
26617.0
21
74587.0
0
LINE
8
BLACK
10
26983.0
20
75353.0
11
27183.0
21
75153.0
0
ARC
8
BLACK
10
26900.0
20
74870.0
40
400.0
50
225.0
51
405.0
0
ARC
8
BLACK
10
26700.0
20
75070.0
40
400.0
50
45.0
51
225.0
0
LINE
8
BLACK
10
25500.0
20
74670.0
11
26700.0
21
74670.0
0
LINE
8
BLACK
10
25500.0
20
75470.0
11
26700.0
21
75470.0
0
ARC
8
BLACK
10
26700.0
20
75070.0
40
400.0
50
270.0
51
450.0
0
ARC
8
BLACK
10
25500.0
20
75070.0
40
400.0
50
90.0
51
270.0
0
LINE
8
BLACK
10
22500.0
20
75670.0
11
25500.0
21
75670.0
0
LINE
8
BLACK
10
22500.0
20
76470.0
11
25500.0
21
76470.0
0
ARC
8
BLACK
10
25500.0
20
76070.0
40
400.0
50
270.0
51
450.0
0
ARC
8
BLACK
10
22500.0
20
76070.0
40
400.0
50
90.0
51
270.0
0
LINE
8
BLACK
10
18312.0
20
66012.0
11
19335.0
21
67035.0
0
LINE
8
BLACK
10
18241.0
20
66083.0
11
19264.0
21
67106.0
0
ARC
8
BLACK
10
19299.0
20
67070.0
40
50.0
50
315.0
51
495.0
0
ARC
8
BLACK
10
18277.0
20
66048.0
40
50.0
50
135.0
51
315.0
0
LINE
8
BLACK
10
18327.0
20
57693.0
11
18327.0
21
66047.0
0
LINE
8
BLACK
10
18227.0
20
57693.0
11
18227.0
21
66047.0
0
ARC
8
BLACK
10
18277.0
20
66047.0
40
50.0
50
360.0
51
540.0
0
ARC
8
BLACK
10
18277.0
20
57693.0
40
50.0
50
180.0
51
360.0
0
LINE
8
BLACK
10
18735.0
20
57306.0
11
18312.0
21
57729.0
0
LINE
8
BLACK
10
18664.0
20
57235.0
11
18241.0
21
57658.0
0
ARC
8
BLACK
10
18277.0
20
57693.0
40
50.0
50
405.0
51
585.0
0
ARC
8
BLACK
10
18699.0
20
57271.0
40
50.0
50
225.0
51
405.0
0
LINE
8
BLACK
10
18918.0
20
64617.0
11
19335.0
21
65034.0
0
LINE
8
BLACK
10
18847.0
20
64688.0
11
19264.0
21
65105.0
0
ARC
8
BLACK
10
19300.0
20
65070.0
40
50.0
50
315.0
51
495.0
0
ARC
8
BLACK
10
18882.0
20
64652.0
40
50.0
50
135.0
51
315.0
0
LINE
8
BLACK
10
18932.0
20
61760.0
11
18932.0
21
64652.0
0
LINE
8
BLACK
10
18832.0
20
61760.0
11
18832.0
21
64652.0
0
ARC
8
BLACK
10
18882.0
20
64652.0
40
50.0
50
360.0
51
540.0
0
ARC
8
BLACK
10
18882.0
20
61760.0
40
50.0
50
180.0
51
360.0
0
LINE
8
BLACK
10
19148.0
20
61565.0
11
18917.0
21
61796.0
0
LINE
8
BLACK
10
19077.0
20
61494.0
11
18846.0
21
61725.0
0
ARC
8
BLACK
10
18882.0
20
61760.0
40
50.0
50
405.0
51
585.0
0
ARC
8
BLACK
10
19112.0
20
61530.0
40
50.0
50
225.0
51
405.0
0
LINE
8
BLACK
10
19163.0
20
58683.0
11
19163.0
21
61529.0
0
LINE
8
BLACK
10
19063.0
20
58683.0
11
19063.0
21
61529.0
0
ARC
8
BLACK
10
19113.0
20
61529.0
40
50.0
50
360.0
51
540.0
0
ARC
8
BLACK
10
19113.0
20
58683.0
40
50.0
50
180.0
51
360.0
0
LINE
8
BLACK
10
18735.0
20
58235.0
11
19148.0
21
58648.0
0
LINE
8
BLACK
10
18664.0
20
58306.0
11
19077.0
21
58719.0
0
ARC
8
BLACK
10
19112.0
20
58683.0
40
50.0
50
315.0
51
495.0
0
ARC
8
BLACK
10
18700.0
20
58271.0
40
50.0
50
135.0
51
315.0
0
LINE
8
BLACK
10
19300.0
20
74020.0
11
20140.0
21
74020.0
0
LINE
8
BLACK
10
19300.0
20
74120.0
11
20140.0
21
74120.0
0
ARC
8
BLACK
10
20140.0
20
74070.0
40
50.0
50
270.0
51
450.0
0
ARC
8
BLACK
10
19300.0
20
74070.0
40
50.0
50
90.0
51
270.0
0
LINE
8
BLACK
10
14100.0
20
74020.0
11
15300.0
21
74020.0
0
LINE
8
BLACK
10
14100.0
20
74120.0
11
15300.0
21
74120.0
0
ARC
8
BLACK
10
15300.0
20
74070.0
40
50.0
50
270.0
51
450.0
0
ARC
8
BLACK
10
14100.0
20
74070.0
40
50.0
50
90.0
51
270.0
0
LINE
8
BLACK
10
13450.0
20
72721.0
11
13450.0
21
73143.0
0
LINE
8
BLACK
10
13350.0
20
72721.0
11
13350.0
21
73143.0
0
ARC
8
BLACK
10
13400.0
20
73143.0
40
50.0
50
360.0
51
540.0
0
ARC
8
BLACK
10
13400.0
20
72721.0
40
50.0
50
180.0
51
360.0
0
LINE
8
BLACK
10
13400.0
20
73093.0
11
14100.0
21
73093.0
0
LINE
8
BLACK
10
13400.0
20
73193.0
11
14100.0
21
73193.0
0
ARC
8
BLACK
10
14100.0
20
73143.0
40
50.0
50
270.0
51
450.0
0
ARC
8
BLACK
10
13400.0
20
73143.0
40
50.0
50
90.0
51
270.0
0
LINE
8
BLACK
10
14212.0
20
73102.0
11
14135.0
21
73179.0
0
LINE
8
BLACK
10
14141.0
20
73031.0
11
14064.0
21
73108.0
0
ARC
8
BLACK
10
14100.0
20
73143.0
40
50.0
50
405.0
51
585.0
0
ARC
8
BLACK
10
14176.0
20
73067.0
40
50.0
50
225.0
51
405.0
0
LINE
8
BLACK
10
14177.0
20
73016.0
11
14499.0
21
73016.0
0
LINE
8
BLACK
10
14177.0
20
73116.0
11
14499.0
21
73116.0
0
ARC
8
BLACK
10
14499.0
20
73066.0
40
50.0
50
270.0
51
450.0
0
ARC
8
BLACK
10
14177.0
20
73066.0
40
50.0
50
90.0
51
270.0
0
LINE
8
BLACK
10
14150.0
20
73144.0
11
14150.0
21
74070.0
0
LINE
8
BLACK
10
14050.0
20
73144.0
11
14050.0
21
74070.0
0
ARC
8
BLACK
10
14100.0
20
74070.0
40
50.0
50
360.0
51
540.0
0
ARC
8
BLACK
10
14100.0
20
73144.0
40
50.0
50
180.0
51
360.0
0
LINE
8
BLACK
10
14550.0
20
72630.0
11
14550.0
21
73066.0
0
LINE
8
BLACK
10
14450.0
20
72630.0
11
14450.0
21
73066.0
0
ARC
8
BLACK
10
14500.0
20
73066.0
40
50.0
50
360.0
51
540.0
0
ARC
8
BLACK
10
14500.0
20
72630.0
40
50.0
50
180.0
51
360.0
0
LINE
8
BLACK
10
22535.0
20
70105.0
11
22085.0
21
70555.0
0
LINE
8
BLACK
10
22465.0
20
70035.0
11
22015.0
21
70485.0
0
ARC
8
BLACK
10
22050.0
20
70520.0
40
50.0
50
405.0
51
585.0
0
ARC
8
BLACK
10
22500.0
20
70070.0
40
50.0
50
225.0
51
405.0
0
LINE
8
BLACK
10
22085.0
20
71585.0
11
22535.0
21
72035.0
0
LINE
8
BLACK
10
22015.0
20
71655.0
11
22465.0
21
72105.0
0
ARC
8
BLACK
10
22500.0
20
72070.0
40
50.0
50
315.0
51
495.0
0
ARC
8
BLACK
10
22050.0
20
71620.0
40
50.0
50
135.0
51
315.0
0
LINE
8
BLACK
10
22100.0
20
70520.0
11
22100.0
21
71620.0
0
LINE
8
BLACK
10
22000.0
20
70520.0
11
22000.0
21
71620.0
0
ARC
8
BLACK
10
22050.0
20
71620.0
40
50.0
50
360.0
51
540.0
0
ARC
8
BLACK
10
22050.0
20
70520.0
40
50.0
50
180.0
51
360.0
0
LINE
8
BLACK
10
26033.0
20
52807.0
11
25535.0
21
53305.0
0
LINE
8
BLACK
10
25963.0
20
52737.0
11
25465.0
21
53235.0
0
ARC
8
BLACK
10
25500.0
20
53270.0
40
50.0
50
405.0
51
585.0
0
ARC
8
BLACK
10
25998.0
20
52772.0
40
50.0
50
225.0
51
405.0
0
LINE
8
BLACK
10
26048.0
20
51768.0
11
26048.0
21
52772.0
0
LINE
8
BLACK
10
25948.0
20
51768.0
11
25948.0
21
52772.0
0
ARC
8
BLACK
10
25998.0
20
52772.0
40
50.0
50
360.0
51
540.0
0
ARC
8
BLACK
10
25998.0
20
51768.0
40
50.0
50
180.0
51
360.0
0
LINE
8
BLACK
10
25535.0
20
51235.0
11
26033.0
21
51733.0
0
LINE
8
BLACK
10
25465.0
20
51305.0
11
25963.0
21
51803.0
0
ARC
8
BLACK
10
25998.0
20
51768.0
40
50.0
50
315.0
51
495.0
0
ARC
8
BLACK
10
25500.0
20
51270.0
40
50.0
50
135.0
51
315.0
0
LINE
8
BLACK
10
19300.0
20
69020.0
11
20600.0
21
69020.0
0
LINE
8
BLACK
10
19300.0
20
69120.0
11
20600.0
21
69120.0
0
ARC
8
BLACK
10
20600.0
20
69070.0
40
50.0
50
270.0
51
450.0
0
ARC
8
BLACK
10
19300.0
20
69070.0
40
50.0
50
90.0
51
270.0
0
LINE
8
BLACK
10
22014.0
20
70555.0
11
20565.0
21
69106.0
0
LINE
8
BLACK
10
22085.0
20
70484.0
11
20636.0
21
69035.0
0
ARC
8
BLACK
10
20600.0
20
69070.0
40
50.0
50
135.0
51
315.0
0
ARC
8
BLACK
10
22050.0
20
70520.0
40
50.0
50
-45.0
51
135.0
0
LINE
8
BLACK
10
19350.0
20
68070.0
11
19350.0
21
69070.0
0
LINE
8
BLACK
10
19250.0
20
68070.0
11
19250.0
21
69070.0
0
ARC
8
BLACK
10
19300.0
20
69070.0
40
50.0
50
360.0
51
540.0
0
ARC
8
BLACK
10
19300.0
20
68070.0
40
50.0
50
180.0
51
360.0
0
LINE
8
BLACK
10
18126.0
20
61270.0
11
18126.0
21
66846.0
0
LINE
8
BLACK
10
18026.0
20
61270.0
11
18026.0
21
66846.0
0
ARC
8
BLACK
10
18076.0
20
66846.0
40
50.0
50
360.0
51
540.0
0
ARC
8
BLACK
10
18076.0
20
61270.0
40
50.0
50
180.0
51
360.0
0
LINE
8
BLACK
10
19264.0
20
68105.0
11
18041.0
21
66882.0
0
LINE
8
BLACK
10
19335.0
20
68034.0
11
18112.0
21
66811.0
0
ARC
8
BLACK
10
18076.0
20
66846.0
40
50.0
50
135.0
51
315.0
0
ARC
8
BLACK
10
19300.0
20
68070.0
40
50.0
50
-45.0
51
135.0
0
LINE
8
BLACK
10
18041.0
20
53858.0
11
18664.0
21
53235.0
0
LINE
8
BLACK
10
18112.0
20
53929.0
11
18735.0
21
53306.0
0
ARC
8
BLACK
10
18700.0
20
53270.0
40
50.0
50
225.0
51
405.0
0
ARC
8
BLACK
10
18076.0
20
53894.0
40
50.0
50
45.0
51
225.0
0
LINE
8
BLACK
10
18126.0
20
53894.0
11
18126.0
21
61270.0
0
LINE
8
BLACK
10
18026.0
20
53894.0
11
18026.0
21
61270.0
0
ARC
8
BLACK
10
18076.0
20
61270.0
40
50.0
50
360.0
51
540.0
0
ARC
8
BLACK
10
18076.0
20
53894.0
40
50.0
50
180.0
51
360.0
0
LINE
8
BLACK
10
14400.0
20
61220.0
11
18076.0
21
61220.0
0
LINE
8
BLACK
10
14400.0
20
61320.0
11
18076.0
21
61320.0
0
ARC
8
BLACK
10
18076.0
20
61270.0
40
50.0
50
270.0
51
450.0
0
ARC
8
BLACK
10
14400.0
20
61270.0
40
50.0
50
90.0
51
270.0
0
LINE
8
BLACK
10
8630.0
20
60684.0
11
6509.0
21
62805.0
0
LINE
8
BLACK
10
8559.0
20
60613.0
11
6438.0
21
62734.0
0
ARC
8
BLACK
10
6473.0
20
62770.0
40
50.0
50
405.0
51
585.0
0
ARC
8
BLACK
10
8595.0
20
60648.0
40
50.0
50
225.0
51
405.0
0
LINE
8
BLACK
10
8595.0
20
60598.0
11
11677.0
21
60598.0
0
LINE
8
BLACK
10
8595.0
20
60698.0
11
11677.0
21
60698.0
0
ARC
8
BLACK
10
11677.0
20
60648.0
40
50.0
50
270.0
51
450.0
0
ARC
8
BLACK
10
8595.0
20
60648.0
40
50.0
50
90.0
51
270.0
0
LINE
8
BLACK
10
11948.0
20
60991.0
11
11641.0
21
60684.0
0
LINE
8
BLACK
10
12019.0
20
60920.0
11
11712.0
21
60613.0
0
ARC
8
BLACK
10
11677.0
20
60649.0
40
50.0
50
135.0
51
315.0
0
ARC
8
BLACK
10
11983.0
20
60955.0
40
50.0
50
-45.0
51
135.0
0
LINE
8
BLACK
10
12034.0
20
60955.0
11
12034.0
21
61657.0
0
LINE
8
BLACK
10
11934.0
20
60955.0
11
11934.0
21
61657.0
0
ARC
8
BLACK
10
11984.0
20
61657.0
40
50.0
50
360.0
51
540.0
0
ARC
8
BLACK
10
11984.0
20
60955.0
40
50.0
50
180.0
51
360.0
0
LINE
8
BLACK
10
11976.0
20
61720.0
11
11949.0
21
61693.0
0
LINE
8
BLACK
10
12047.0
20
61649.0
11
12020.0
21
61622.0
0
ARC
8
BLACK
10
11985.0
20
61658.0
40
50.0
50
135.0
51
315.0
0
ARC
8
BLACK
10
12011.0
20
61684.0
40
50.0
50
-45.0
51
135.0
0
LINE
8
BLACK
10
12012.0
20
61635.0
11
13984.0
21
61635.0
0
LINE
8
BLACK
10
12012.0
20
61735.0
11
13984.0
21
61735.0
0
ARC
8
BLACK
10
13984.0
20
61685.0
40
50.0
50
270.0
51
450.0
0
ARC
8
BLACK
10
12012.0
20
61685.0
40
50.0
50
90.0
51
270.0
0
LINE
8
BLACK
10
14435.0
20
61306.0
11
14020.0
21
61721.0
0
LINE
8
BLACK
10
14364.0
20
61235.0
11
13949.0
21
61650.0
0
ARC
8
BLACK
10
13985.0
20
61685.0
40
50.0
50
405.0
51
585.0
0
ARC
8
BLACK
10
14399.0
20
61271.0
40
50.0
50
225.0
51
405.0
0
LINE
8
BLACK
10
6175.0
20
62720.0
11
6473.0
21
62720.0
0
LINE
8
BLACK
10
6175.0
20
62820.0
11
6473.0
21
62820.0
0
ARC
8
BLACK
10
6473.0
20
62770.0
40
50.0
50
270.0
51
450.0
0
ARC
8
BLACK
10
6175.0
20
62770.0
40
50.0
50
90.0
51
270.0
0
LINE
8
BLACK
10
14732.0
20
72030.0
11
14535.0
21
72227.0
0
LINE
8
BLACK
10
14661.0
20
71959.0
11
14464.0
21
72156.0
0
ARC
8
BLACK
10
14500.0
20
72191.0
40
50.0
50
405.0
51
585.0
0
ARC
8
BLACK
10
14696.0
20
71995.0
40
50.0
50
225.0
51
405.0
0
LINE
8
BLACK
10
14697.0
20
71944.0
11
15633.0
21
71944.0
0
LINE
8
BLACK
10
14697.0
20
72044.0
11
15633.0
21
72044.0
0
ARC
8
BLACK
10
15633.0
20
71994.0
40
50.0
50
270.0
51
450.0
0
ARC
8
BLACK
10
14697.0
20
71994.0
40
50.0
50
90.0
51
270.0
0
LINE
8
BLACK
10
15740.0
20
71957.0
11
15668.0
21
72029.0
0
LINE
8
BLACK
10
15670.0
20
71887.0
11
15598.0
21
71959.0
0
ARC
8
BLACK
10
15633.0
20
71994.0
40
50.0
50
405.0
51
585.0
0
ARC
8
BLACK
10
15705.0
20
71922.0
40
50.0
50
225.0
51
405.0
0
LINE
8
BLACK
10
15756.0
20
70665.0
11
15756.0
21
71921.0
0
LINE
8
BLACK
10
15656.0
20
70665.0
11
15656.0
21
71921.0
0
ARC
8
BLACK
10
15706.0
20
71921.0
40
50.0
50
360.0
51
540.0
0
ARC
8
BLACK
10
15706.0
20
70665.0
40
50.0
50
180.0
51
360.0
0
LINE
8
BLACK
10
16335.0
20
70105.0
11
15741.0
21
70699.0
0
LINE
8
BLACK
10
16265.0
20
70035.0
11
15671.0
21
70629.0
0
ARC
8
BLACK
10
15706.0
20
70664.0
40
50.0
50
405.0
51
585.0
0
ARC
8
BLACK
10
16300.0
20
70070.0
40
50.0
50
225.0
51
405.0
0
LINE
8
BLACK
10
14550.0
20
72191.0
11
14550.0
21
72629.0
0
LINE
8
BLACK
10
14450.0
20
72191.0
11
14450.0
21
72629.0
0
ARC
8
BLACK
10
14500.0
20
72629.0
40
50.0
50
360.0
51
540.0
0
ARC
8
BLACK
10
14500.0
20
72191.0
40
50.0
50
180.0
51
360.0
0
LINE
8
BLACK
10
5550.0
20
67170.0
11
9756.0
21
67170.0
0
LINE
8
BLACK
10
5550.0
20
67270.0
11
9756.0
21
67270.0
0
ARC
8
BLACK
10
9756.0
20
67220.0
40
50.0
50
270.0
51
450.0
0
ARC
8
BLACK
10
5550.0
20
67220.0
40
50.0
50
90.0
51
270.0
0
LINE
8
BLACK
10
5550.0
20
67090.0
11
9770.0
21
67090.0
0
LINE
8
BLACK
10
5550.0
20
67190.0
11
9770.0
21
67190.0
0
ARC
8
BLACK
10
9770.0
20
67140.0
40
50.0
50
270.0
51
450.0
0
ARC
8
BLACK
10
5550.0
20
67140.0
40
50.0
50
90.0
51
270.0
0
LINE
8
BLACK
10
5550.0
20
67010.0
11
9782.0
21
67010.0
0
LINE
8
BLACK
10
5550.0
20
67110.0
11
9782.0
21
67110.0
0
ARC
8
BLACK
10
9782.0
20
67060.0
40
50.0
50
270.0
51
450.0
0
ARC
8
BLACK
10
5550.0
20
67060.0
40
50.0
50
90.0
51
270.0
0
LINE
8
BLACK
10
5550.0
20
66930.0
11
9796.0
21
66930.0
0
LINE
8
BLACK
10
5550.0
20
67030.0
11
9796.0
21
67030.0
0
ARC
8
BLACK
10
9796.0
20
66980.0
40
50.0
50
270.0
51
450.0
0
ARC
8
BLACK
10
5550.0
20
66980.0
40
50.0
50
90.0
51
270.0
0
LINE
8
BLACK
10
5550.0
20
66850.0
11
9810.0
21
66850.0
0
LINE
8
BLACK
10
5550.0
20
66950.0
11
9810.0
21
66950.0
0
ARC
8
BLACK
10
9810.0
20
66900.0
40
50.0
50
270.0
51
450.0
0
ARC
8
BLACK
10
5550.0
20
66900.0
40
50.0
50
90.0
51
270.0
0
LINE
8
BLACK
10
5550.0
20
66770.0
11
9822.0
21
66770.0
0
LINE
8
BLACK
10
5550.0
20
66870.0
11
9822.0
21
66870.0
0
ARC
8
BLACK
10
9822.0
20
66820.0
40
50.0
50
270.0
51
450.0
0
ARC
8
BLACK
10
5550.0
20
66820.0
40
50.0
50
90.0
51
270.0
0
LINE
8
BLACK
10
5550.0
20
66690.0
11
9836.0
21
66690.0
0
LINE
8
BLACK
10
5550.0
20
66790.0
11
9836.0
21
66790.0
0
ARC
8
BLACK
10
9836.0
20
66740.0
40
50.0
50
270.0
51
450.0
0
ARC
8
BLACK
10
5550.0
20
66740.0
40
50.0
50
90.0
51
270.0
0
LINE
8
BLACK
10
5550.0
20
66610.0
11
9850.0
21
66610.0
0
LINE
8
BLACK
10
5550.0
20
66710.0
11
9850.0
21
66710.0
0
ARC
8
BLACK
10
9850.0
20
66660.0
40
50.0
50
270.0
51
450.0
0
ARC
8
BLACK
10
5550.0
20
66660.0
40
50.0
50
90.0
51
270.0
0
LINE
8
BLACK
10
5550.0
20
66530.0
11
9862.0
21
66530.0
0
LINE
8
BLACK
10
5550.0
20
66630.0
11
9862.0
21
66630.0
0
ARC
8
BLACK
10
9862.0
20
66580.0
40
50.0
50
270.0
51
450.0
0
ARC
8
BLACK
10
5550.0
20
66580.0
40
50.0
50
90.0
51
270.0
0
LINE
8
BLACK
10
5550.0
20
66450.0
11
9876.0
21
66450.0
0
LINE
8
BLACK
10
5550.0
20
66550.0
11
9876.0
21
66550.0
0
ARC
8
BLACK
10
9876.0
20
66500.0
40
50.0
50
270.0
51
450.0
0
ARC
8
BLACK
10
5550.0
20
66500.0
40
50.0
50
90.0
51
270.0
0
LINE
8
BLACK
10
5550.0
20
66370.0
11
9890.0
21
66370.0
0
LINE
8
BLACK
10
5550.0
20
66470.0
11
9890.0
21
66470.0
0
ARC
8
BLACK
10
9890.0
20
66420.0
40
50.0
50
270.0
51
450.0
0
ARC
8
BLACK
10
5550.0
20
66420.0
40
50.0
50
90.0
51
270.0
0
LINE
8
BLACK
10
5550.0
20
66290.0
11
9902.0
21
66290.0
0
LINE
8
BLACK
10
5550.0
20
66390.0
11
9902.0
21
66390.0
0
ARC
8
BLACK
10
9902.0
20
66340.0
40
50.0
50
270.0
51
450.0
0
ARC
8
BLACK
10
5550.0
20
66340.0
40
50.0
50
90.0
51
270.0
0
LINE
8
BLACK
10
5550.0
20
66210.0
11
9916.0
21
66210.0
0
LINE
8
BLACK
10
5550.0
20
66310.0
11
9916.0
21
66310.0
0
ARC
8
BLACK
10
9916.0
20
66260.0
40
50.0
50
270.0
51
450.0
0
ARC
8
BLACK
10
5550.0
20
66260.0
40
50.0
50
90.0
51
270.0
0
LINE
8
BLACK
10
5550.0
20
66130.0
11
9930.0
21
66130.0
0
LINE
8
BLACK
10
5550.0
20
66230.0
11
9930.0
21
66230.0
0
ARC
8
BLACK
10
9930.0
20
66180.0
40
50.0
50
270.0
51
450.0
0
ARC
8
BLACK
10
5550.0
20
66180.0
40
50.0
50
90.0
51
270.0
0
LINE
8
BLACK
10
5550.0
20
66050.0
11
9942.0
21
66050.0
0
LINE
8
BLACK
10
5550.0
20
66150.0
11
9942.0
21
66150.0
0
ARC
8
BLACK
10
9942.0
20
66100.0
40
50.0
50
270.0
51
450.0
0
ARC
8
BLACK
10
5550.0
20
66100.0
40
50.0
50
90.0
51
270.0
0
LINE
8
BLACK
10
5550.0
20
65970.0
11
9956.0
21
65970.0
0
LINE
8
BLACK
10
5550.0
20
66070.0
11
9956.0
21
66070.0
0
ARC
8
BLACK
10
9956.0
20
66020.0
40
50.0
50
270.0
51
450.0
0
ARC
8
BLACK
10
5550.0
20
66020.0
40
50.0
50
90.0
51
270.0
0
LINE
8
BLACK
10
5550.0
20
65890.0
11
9970.0
21
65890.0
0
LINE
8
BLACK
10
5550.0
20
65990.0
11
9970.0
21
65990.0
0
ARC
8
BLACK
10
9970.0
20
65940.0
40
50.0
50
270.0
51
450.0
0
ARC
8
BLACK
10
5550.0
20
65940.0
40
50.0
50
90.0
51
270.0
0
LINE
8
BLACK
10
5550.0
20
65810.0
11
9982.0
21
65810.0
0
LINE
8
BLACK
10
5550.0
20
65910.0
11
9982.0
21
65910.0
0
ARC
8
BLACK
10
9982.0
20
65860.0
40
50.0
50
270.0
51
450.0
0
ARC
8
BLACK
10
5550.0
20
65860.0
40
50.0
50
90.0
51
270.0
0
LINE
8
BLACK
10
5550.0
20
65730.0
11
9996.0
21
65730.0
0
LINE
8
BLACK
10
5550.0
20
65830.0
11
9996.0
21
65830.0
0
ARC
8
BLACK
10
9996.0
20
65780.0
40
50.0
50
270.0
51
450.0
0
ARC
8
BLACK
10
5550.0
20
65780.0
40
50.0
50
90.0
51
270.0
0
LINE
8
BLACK
10
5560.0
20
65650.0
11
10010.0
21
65650.0
0
LINE
8
BLACK
10
5560.0
20
65750.0
11
10010.0
21
65750.0
0
ARC
8
BLACK
10
10010.0
20
65700.0
40
50.0
50
270.0
51
450.0
0
ARC
8
BLACK
10
5560.0
20
65700.0
40
50.0
50
90.0
51
270.0
0
LINE
8
BLACK
10
5750.0
20
65570.0
11
10022.0
21
65570.0
0
LINE
8
BLACK
10
5750.0
20
65670.0
11
10022.0
21
65670.0
0
ARC
8
BLACK
10
10022.0
20
65620.0
40
50.0
50
270.0
51
450.0
0
ARC
8
BLACK
10
5750.0
20
65620.0
40
50.0
50
90.0
51
270.0
0
LINE
8
BLACK
10
5940.0
20
65490.0
11
10036.0
21
65490.0
0
LINE
8
BLACK
10
5940.0
20
65590.0
11
10036.0
21
65590.0
0
ARC
8
BLACK
10
10036.0
20
65540.0
40
50.0
50
270.0
51
450.0
0
ARC
8
BLACK
10
5940.0
20
65540.0
40
50.0
50
90.0
51
270.0
0
LINE
8
BLACK
10
6130.0
20
65410.0
11
10044.0
21
65410.0
0
LINE
8
BLACK
10
6130.0
20
65510.0
11
10044.0
21
65510.0
0
ARC
8
BLACK
10
10044.0
20
65460.0
40
50.0
50
270.0
51
450.0
0
ARC
8
BLACK
10
6130.0
20
65460.0
40
50.0
50
90.0
51
270.0
0
LINE
8
BLACK
10
6320.0
20
65330.0
11
10016.0
21
65330.0
0
LINE
8
BLACK
10
6320.0
20
65430.0
11
10016.0
21
65430.0
0
ARC
8
BLACK
10
10016.0
20
65380.0
40
50.0
50
270.0
51
450.0
0
ARC
8
BLACK
10
6320.0
20
65380.0
40
50.0
50
90.0
51
270.0
0
LINE
8
BLACK
10
6510.0
20
65250.0
11
9990.0
21
65250.0
0
LINE
8
BLACK
10
6510.0
20
65350.0
11
9990.0
21
65350.0
0
ARC
8
BLACK
10
9990.0
20
65300.0
40
50.0
50
270.0
51
450.0
0
ARC
8
BLACK
10
6510.0
20
65300.0
40
50.0
50
90.0
51
270.0
0
LINE
8
BLACK
10
6700.0
20
65170.0
11
9964.0
21
65170.0
0
LINE
8
BLACK
10
6700.0
20
65270.0
11
9964.0
21
65270.0
0
ARC
8
BLACK
10
9964.0
20
65220.0
40
50.0
50
270.0
51
450.0
0
ARC
8
BLACK
10
6700.0
20
65220.0
40
50.0
50
90.0
51
270.0
0
LINE
8
BLACK
10
6890.0
20
65090.0
11
9936.0
21
65090.0
0
LINE
8
BLACK
10
6890.0
20
65190.0
11
9936.0
21
65190.0
0
ARC
8
BLACK
10
9936.0
20
65140.0
40
50.0
50
270.0
51
450.0
0
ARC
8
BLACK
10
6890.0
20
65140.0
40
50.0
50
90.0
51
270.0
0
LINE
8
BLACK
10
7080.0
20
65010.0
11
9910.0
21
65010.0
0
LINE
8
BLACK
10
7080.0
20
65110.0
11
9910.0
21
65110.0
0
ARC
8
BLACK
10
9910.0
20
65060.0
40
50.0
50
270.0
51
450.0
0
ARC
8
BLACK
10
7080.0
20
65060.0
40
50.0
50
90.0
51
270.0
0
LINE
8
BLACK
10
7270.0
20
64930.0
11
9884.0
21
64930.0
0
LINE
8
BLACK
10
7270.0
20
65030.0
11
9884.0
21
65030.0
0
ARC
8
BLACK
10
9884.0
20
64980.0
40
50.0
50
270.0
51
450.0
0
ARC
8
BLACK
10
7270.0
20
64980.0
40
50.0
50
90.0
51
270.0
0
LINE
8
BLACK
10
7450.0
20
64850.0
11
9856.0
21
64850.0
0
LINE
8
BLACK
10
7450.0
20
64950.0
11
9856.0
21
64950.0
0
ARC
8
BLACK
10
9856.0
20
64900.0
40
50.0
50
270.0
51
450.0
0
ARC
8
BLACK
10
7450.0
20
64900.0
40
50.0
50
90.0
51
270.0
0
LINE
8
BLACK
10
7450.0
20
64770.0
11
9778.0
21
64770.0
0
LINE
8
BLACK
10
7450.0
20
64870.0
11
9778.0
21
64870.0
0
ARC
8
BLACK
10
9778.0
20
64820.0
40
50.0
50
270.0
51
450.0
0
ARC
8
BLACK
10
7450.0
20
64820.0
40
50.0
50
90.0
51
270.0
0
LINE
8
BLACK
10
7450.0
20
64690.0
11
9698.0
21
64690.0
0
LINE
8
BLACK
10
7450.0
20
64790.0
11
9698.0
21
64790.0
0
ARC
8
BLACK
10
9698.0
20
64740.0
40
50.0
50
270.0
51
450.0
0
ARC
8
BLACK
10
7450.0
20
64740.0
40
50.0
50
90.0
51
270.0
0
LINE
8
BLACK
10
7450.0
20
64610.0
11
9618.0
21
64610.0
0
LINE
8
BLACK
10
7450.0
20
64710.0
11
9618.0
21
64710.0
0
ARC
8
BLACK
10
9618.0
20
64660.0
40
50.0
50
270.0
51
450.0
0
ARC
8
BLACK
10
7450.0
20
64660.0
40
50.0
50
90.0
51
270.0
0
LINE
8
BLACK
10
7450.0
20
64530.0
11
9538.0
21
64530.0
0
LINE
8
BLACK
10
7450.0
20
64630.0
11
9538.0
21
64630.0
0
ARC
8
BLACK
10
9538.0
20
64580.0
40
50.0
50
270.0
51
450.0
0
ARC
8
BLACK
10
7450.0
20
64580.0
40
50.0
50
90.0
51
270.0
0
LINE
8
BLACK
10
7450.0
20
64450.0
11
9458.0
21
64450.0
0
LINE
8
BLACK
10
7450.0
20
64550.0
11
9458.0
21
64550.0
0
ARC
8
BLACK
10
9458.0
20
64500.0
40
50.0
50
270.0
51
450.0
0
ARC
8
BLACK
10
7450.0
20
64500.0
40
50.0
50
90.0
51
270.0
0
LINE
8
BLACK
10
7450.0
20
64370.0
11
9378.0
21
64370.0
0
LINE
8
BLACK
10
7450.0
20
64470.0
11
9378.0
21
64470.0
0
ARC
8
BLACK
10
9378.0
20
64420.0
40
50.0
50
270.0
51
450.0
0
ARC
8
BLACK
10
7450.0
20
64420.0
40
50.0
50
90.0
51
270.0
0
LINE
8
BLACK
10
7450.0
20
64290.0
11
9298.0
21
64290.0
0
LINE
8
BLACK
10
7450.0
20
64390.0
11
9298.0
21
64390.0
0
ARC
8
BLACK
10
9298.0
20
64340.0
40
50.0
50
270.0
51
450.0
0
ARC
8
BLACK
10
7450.0
20
64340.0
40
50.0
50
90.0
51
270.0
0
LINE
8
BLACK
10
7450.0
20
64210.0
11
9218.0
21
64210.0
0
LINE
8
BLACK
10
7450.0
20
64310.0
11
9218.0
21
64310.0
0
ARC
8
BLACK
10
9218.0
20
64260.0
40
50.0
50
270.0
51
450.0
0
ARC
8
BLACK
10
7450.0
20
64260.0
40
50.0
50
90.0
51
270.0
0
LINE
8
BLACK
10
7450.0
20
64130.0
11
9138.0
21
64130.0
0
LINE
8
BLACK
10
7450.0
20
64230.0
11
9138.0
21
64230.0
0
ARC
8
BLACK
10
9138.0
20
64180.0
40
50.0
50
270.0
51
450.0
0
ARC
8
BLACK
10
7450.0
20
64180.0
40
50.0
50
90.0
51
270.0
0
LINE
8
BLACK
10
7450.0
20
64050.0
11
9058.0
21
64050.0
0
LINE
8
BLACK
10
7450.0
20
64150.0
11
9058.0
21
64150.0
0
ARC
8
BLACK
10
9058.0
20
64100.0
40
50.0
50
270.0
51
450.0
0
ARC
8
BLACK
10
7450.0
20
64100.0
40
50.0
50
90.0
51
270.0
0
LINE
8
BLACK
10
7450.0
20
63970.0
11
8978.0
21
63970.0
0
LINE
8
BLACK
10
7450.0
20
64070.0
11
8978.0
21
64070.0
0
ARC
8
BLACK
10
8978.0
20
64020.0
40
50.0
50
270.0
51
450.0
0
ARC
8
BLACK
10
7450.0
20
64020.0
40
50.0
50
90.0
51
270.0
0
LINE
8
BLACK
10
7450.0
20
63890.0
11
8898.0
21
63890.0
0
LINE
8
BLACK
10
7450.0
20
63990.0
11
8898.0
21
63990.0
0
ARC
8
BLACK
10
8898.0
20
63940.0
40
50.0
50
270.0
51
450.0
0
ARC
8
BLACK
10
7450.0
20
63940.0
40
50.0
50
90.0
51
270.0
0
LINE
8
BLACK
10
7450.0
20
63810.0
11
8818.0
21
63810.0
0
LINE
8
BLACK
10
7450.0
20
63910.0
11
8818.0
21
63910.0
0
ARC
8
BLACK
10
8818.0
20
63860.0
40
50.0
50
270.0
51
450.0
0
ARC
8
BLACK
10
7450.0
20
63860.0
40
50.0
50
90.0
51
270.0
0
LINE
8
BLACK
10
7450.0
20
63730.0
11
8738.0
21
63730.0
0
LINE
8
BLACK
10
7450.0
20
63830.0
11
8738.0
21
63830.0
0
ARC
8
BLACK
10
8738.0
20
63780.0
40
50.0
50
270.0
51
450.0
0
ARC
8
BLACK
10
7450.0
20
63780.0
40
50.0
50
90.0
51
270.0
0
LINE
8
BLACK
10
7450.0
20
63650.0
11
8658.0
21
63650.0
0
LINE
8
BLACK
10
7450.0
20
63750.0
11
8658.0
21
63750.0
0
ARC
8
BLACK
10
8658.0
20
63700.0
40
50.0
50
270.0
51
450.0
0
ARC
8
BLACK
10
7450.0
20
63700.0
40
50.0
50
90.0
51
270.0
0
LINE
8
BLACK
10
7450.0
20
63570.0
11
8638.0
21
63570.0
0
LINE
8
BLACK
10
7450.0
20
63670.0
11
8638.0
21
63670.0
0
ARC
8
BLACK
10
8638.0
20
63620.0
40
50.0
50
270.0
51
450.0
0
ARC
8
BLACK
10
7450.0
20
63620.0
40
50.0
50
90.0
51
270.0
0
LINE
8
BLACK
10
7450.0
20
63490.0
11
8620.0
21
63490.0
0
LINE
8
BLACK
10
7450.0
20
63590.0
11
8620.0
21
63590.0
0
ARC
8
BLACK
10
8620.0
20
63540.0
40
50.0
50
270.0
51
450.0
0
ARC
8
BLACK
10
7450.0
20
63540.0
40
50.0
50
90.0
51
270.0
0
LINE
8
BLACK
10
7450.0
20
63410.0
11
8602.0
21
63410.0
0
LINE
8
BLACK
10
7450.0
20
63510.0
11
8602.0
21
63510.0
0
ARC
8
BLACK
10
8602.0
20
63460.0
40
50.0
50
270.0
51
450.0
0
ARC
8
BLACK
10
7450.0
20
63460.0
40
50.0
50
90.0
51
270.0
0
LINE
8
BLACK
10
7450.0
20
63330.0
11
8584.0
21
63330.0
0
LINE
8
BLACK
10
7450.0
20
63430.0
11
8584.0
21
63430.0
0
ARC
8
BLACK
10
8584.0
20
63380.0
40
50.0
50
270.0
51
450.0
0
ARC
8
BLACK
10
7450.0
20
63380.0
40
50.0
50
90.0
51
270.0
0
LINE
8
BLACK
10
7450.0
20
63250.0
11
8566.0
21
63250.0
0
LINE
8
BLACK
10
7450.0
20
63350.0
11
8566.0
21
63350.0
0
ARC
8
BLACK
10
8566.0
20
63300.0
40
50.0
50
270.0
51
450.0
0
ARC
8
BLACK
10
7450.0
20
63300.0
40
50.0
50
90.0
51
270.0
0
LINE
8
BLACK
10
7450.0
20
63170.0
11
8548.0
21
63170.0
0
LINE
8
BLACK
10
7450.0
20
63270.0
11
8548.0
21
63270.0
0
ARC
8
BLACK
10
8548.0
20
63220.0
40
50.0
50
270.0
51
450.0
0
ARC
8
BLACK
10
7450.0
20
63220.0
40
50.0
50
90.0
51
270.0
0
LINE
8
BLACK
10
7450.0
20
63090.0
11
8530.0
21
63090.0
0
LINE
8
BLACK
10
7450.0
20
63190.0
11
8530.0
21
63190.0
0
ARC
8
BLACK
10
8530.0
20
63140.0
40
50.0
50
270.0
51
450.0
0
ARC
8
BLACK
10
7450.0
20
63140.0
40
50.0
50
90.0
51
270.0
0
LINE
8
BLACK
10
7450.0
20
63010.0
11
8512.0
21
63010.0
0
LINE
8
BLACK
10
7450.0
20
63110.0
11
8512.0
21
63110.0
0
ARC
8
BLACK
10
8512.0
20
63060.0
40
50.0
50
270.0
51
450.0
0
ARC
8
BLACK
10
7450.0
20
63060.0
40
50.0
50
90.0
51
270.0
0
LINE
8
BLACK
10
7450.0
20
62930.0
11
8494.0
21
62930.0
0
LINE
8
BLACK
10
7450.0
20
63030.0
11
8494.0
21
63030.0
0
ARC
8
BLACK
10
8494.0
20
62980.0
40
50.0
50
270.0
51
450.0
0
ARC
8
BLACK
10
7450.0
20
62980.0
40
50.0
50
90.0
51
270.0
0
LINE
8
BLACK
10
7450.0
20
62850.0
11
8476.0
21
62850.0
0
LINE
8
BLACK
10
7450.0
20
62950.0
11
8476.0
21
62950.0
0
ARC
8
BLACK
10
8476.0
20
62900.0
40
50.0
50
270.0
51
450.0
0
ARC
8
BLACK
10
7450.0
20
62900.0
40
50.0
50
90.0
51
270.0
0
LINE
8
BLACK
10
8459.0
20
62820.0
11
8654.0
21
63696.0
0
LINE
8
BLACK
10
8654.0
20
63696.0
11
9856.0
21
64898.0
0
LINE
8
BLACK
10
9856.0
20
64898.0
11
10048.0
21
65475.0
0
LINE
8
BLACK
10
10048.0
20
65475.0
11
9757.0
21
67220.0
0
LINE
8
BLACK
10
9757.0
20
67220.0
11
5550.0
21
67220.0
0
LINE
8
BLACK
10
5550.0
20
67220.0
11
5550.0
21
65704.0
0
LINE
8
BLACK
10
5550.0
20
65704.0
11
7450.0
21
64904.0
0
LINE
8
BLACK
10
7450.0
20
64904.0
11
7450.0
21
62820.0
0
LINE
8
BLACK
10
7450.0
20
62820.0
11
8459.0
21
62820.0
0
ENDSEC
0
EOF
