0
SECTION
2
HEADER
9
$ANGBASE
50
0.0
9
$ANGDIR
70
0
0
ENDSEC
0
SECTION
2
TABLES
0
TABLE
2
LTYPE
70
1
0
LTYPE
2
CONTINUOUS
70
0
3
Solid line
72
65
73
0
40
0.0
0
ENDTAB
0
TABLE
2
LAYER
70
24
0
LAYER
2
BLACK
70
0
62
1
6
CONTINUOUS
0
LAYER
2
BLUE
70
0
62
2
6
CONTINUOUS
0
LAYER
2
GREEN
70
0
62
3
6
CONTINUOUS
0
LAYER
2
CYAN
70
0
62
4
6
CONTINUOUS
0
LAYER
2
RED
70
0
62
5
6
CONTINUOUS
0
LAYER
2
MAGENTA
70
0
62
6
6
CONTINUOUS
0
LAYER
2
BROWN
70
0
62
7
6
CONTINUOUS
0
LAYER
2
GRAY
70
0
62
8
6
CONTINUOUS
0
LAYER
2
DARKGRAY
70
0
62
9
6
CONTINUOUS
0
LAYER
2
LIGHTBLUE
70
0
62
10
6
CONTINUOUS
0
LAYER
2
LIGHTGREEN
70
0
62
11
6
CONTINUOUS
0
LAYER
2
LIGHTCYAN
70
0
62
12
6
CONTINUOUS
0
LAYER
2
LIGHTRED
70
0
62
13
6
CONTINUOUS
0
LAYER
2
LIGHTMAGENTA
70
0
62
14
6
CONTINUOUS
0
LAYER
2
YELLOW
70
0
62
15
6
CONTINUOUS
0
LAYER
2
WHITE
70
0
62
16
6
CONTINUOUS
0
LAYER
2
DARKDARKGRAY
70
0
62
17
6
CONTINUOUS
0
LAYER
2
DARKBLUE
70
0
62
18
6
CONTINUOUS
0
LAYER
2
DARKGREEN
70
0
62
19
6
CONTINUOUS
0
LAYER
2
DARKCYAN
70
0
62
20
6
CONTINUOUS
0
LAYER
2
DARKRED
70
0
62
21
6
CONTINUOUS
0
LAYER
2
DARKMAGENTA
70
0
62
22
6
CONTINUOUS
0
LAYER
2
DARKBROWN
70
0
62
23
6
CONTINUOUS
0
LAYER
2
LIGHTYELLOW
70
0
62
24
6
CONTINUOUS
0
ENDTAB
0
ENDSEC
0
SECTION
2
ENTITIES
0
LINE
8
BLACK
10
28175.0
20
45670.0
11
28175.0
21
77970.0
0
LINE
8
BLACK
10
28025.0
20
45670.0
11
28025.0
21
77970.0
0
ARC
8
BLACK
10
28100.0
20
77970.0
40
75.0
50
360.0
51
540.0
0
ARC
8
BLACK
10
28100.0
20
45670.0
40
75.0
50
180.0
51
360.0
0
LINE
8
BLACK
10
4700.0
20
45595.0
11
28100.0
21
45595.0
0
LINE
8
BLACK
10
4700.0
20
45745.0
11
28100.0
21
45745.0
0
ARC
8
BLACK
10
28100.0
20
45670.0
40
75.0
50
270.0
51
450.0
0
ARC
8
BLACK
10
4700.0
20
45670.0
40
75.0
50
90.0
51
270.0
0
LINE
8
BLACK
10
4700.0
20
77895.0
11
28100.0
21
77895.0
0
LINE
8
BLACK
10
4700.0
20
78045.0
11
28100.0
21
78045.0
0
ARC
8
BLACK
10
28100.0
20
77970.0
40
75.0
50
270.0
51
450.0
0
ARC
8
BLACK
10
4700.0
20
77970.0
40
75.0
50
90.0
51
270.0
0
LINE
8
BLACK
10
4775.0
20
45670.0
11
4775.0
21
46470.0
0
LINE
8
BLACK
10
4625.0
20
45670.0
11
4625.0
21
46470.0
0
ARC
8
BLACK
10
4700.0
20
46470.0
40
75.0
50
360.0
51
540.0
0
ARC
8
BLACK
10
4700.0
20
45670.0
40
75.0
50
180.0
51
360.0
0
LINE
8
BLACK
10
4775.0
20
46470.0
11
4775.0
21
77970.0
0
LINE
8
BLACK
10
4625.0
20
46470.0
11
4625.0
21
77970.0
0
ARC
8
BLACK
10
4700.0
20
77970.0
40
75.0
50
360.0
51
540.0
0
ARC
8
BLACK
10
4700.0
20
46470.0
40
75.0
50
180.0
51
360.0
0
CIRCLE
8
BLACK
10
9900.0
20
65170.0
40
900
0
CIRCLE
8
BLACK
10
7800.0
20
63370.0
40
900
0
CIRCLE
8
BLACK
10
7800.0
20
65470.0
40
900
0
CIRCLE
8
BLACK
10
5800.0
20
66270.0
40
900
0
CIRCLE
8
BLACK
10
14100.0
20
47270.0
40
900
0
CIRCLE
8
BLACK
10
14100.0
20
50270.0
40
900
0
CIRCLE
8
BLACK
10
14100.0
20
53270.0
40
900
0
CIRCLE
8
BLACK
10
14100.0
20
56270.0
40
900
0
CIRCLE
8
BLACK
10
14100.0
20
59270.0
40
900
0
CIRCLE
8
BLACK
10
20800.0
20
47270.0
40
900
0
CIRCLE
8
BLACK
10
20800.0
20
50270.0
40
900
0
CIRCLE
8
BLACK
10
20900.0
20
53270.0
40
900
0
CIRCLE
8
BLACK
10
20900.0
20
56270.0
40
900
0
CIRCLE
8
BLACK
10
20900.0
20
59270.0
40
900
0
CIRCLE
8
BLACK
10
26900.0
20
74870.0
40
900
0
CIRCLE
8
BLACK
10
26900.0
20
72470.0
40
900
0
CIRCLE
8
BLACK
10
26900.0
20
70070.0
40
900
0
CIRCLE
8
BLACK
10
26900.0
20
67070.0
40
900
0
CIRCLE
8
BLACK
10
26900.0
20
64070.0
40
900
0
CIRCLE
8
BLACK
10
8200.0
20
76870.0
40
900
0
CIRCLE
8
BLACK
10
10900.0
20
66570.0
40
375
0
CIRCLE
8
BLACK
10
10900.0
20
67570.0
40
375
0
CIRCLE
8
BLACK
10
15300.0
20
74070.0
40
375
0
CIRCLE
8
BLACK
10
15300.0
20
75070.0
40
375
0
CIRCLE
8
BLACK
10
14100.0
20
74070.0
40
375
0
CIRCLE
8
BLACK
10
14100.0
20
75070.0
40
375
0
CIRCLE
8
BLACK
10
12100.0
20
69770.0
40
375
0
CIRCLE
8
BLACK
10
12100.0
20
68770.0
40
375
0
CIRCLE
8
BLACK
10
12100.0
20
66570.0
40
375
0
CIRCLE
8
BLACK
10
12100.0
20
67570.0
40
375
0
CIRCLE
8
BLACK
10
12200.0
20
71270.0
40
375
0
CIRCLE
8
BLACK
10
12200.0
20
72270.0
40
375
0
CIRCLE
8
BLACK
10
11000.0
20
71270.0
40
375
0
CIRCLE
8
BLACK
10
11000.0
20
72270.0
40
375
0
CIRCLE
8
BLACK
10
16300.0
20
75070.0
40
375
0
CIRCLE
8
BLACK
10
16300.0
20
74070.0
40
375
0
CIRCLE
8
BLACK
10
16300.0
20
73070.0
40
375
0
CIRCLE
8
BLACK
10
16300.0
20
72070.0
40
375
0
CIRCLE
8
BLACK
10
16300.0
20
71070.0
40
375
0
CIRCLE
8
BLACK
10
16300.0
20
70070.0
40
375
0
CIRCLE
8
BLACK
10
16300.0
20
69070.0
40
375
0
CIRCLE
8
BLACK
10
16300.0
20
68070.0
40
375
0
CIRCLE
8
BLACK
10
16300.0
20
67070.0
40
375
0
CIRCLE
8
BLACK
10
16300.0
20
66070.0
40
375
0
CIRCLE
8
BLACK
10
16300.0
20
65070.0
40
375
0
CIRCLE
8
BLACK
10
16300.0
20
64070.0
40
375
0
CIRCLE
8
BLACK
10
16300.0
20
63070.0
40
375
0
LINE
8
BLACK
10
16675.0
20
76445.0
11
15925.0
21
76445.0
0
LINE
8
BLACK
10
15925.0
20
76445.0
11
15925.0
21
75695.0
0
LINE
8
BLACK
10
15925.0
20
75695.0
11
16675.0
21
75695.0
0
LINE
8
BLACK
10
16675.0
20
75695.0
11
16675.0
21
76445.0
0
CIRCLE
8
BLACK
10
19300.0
20
63070.0
40
375
0
CIRCLE
8
BLACK
10
19300.0
20
64070.0
40
375
0
CIRCLE
8
BLACK
10
19300.0
20
65070.0
40
375
0
CIRCLE
8
BLACK
10
19300.0
20
66070.0
40
375
0
CIRCLE
8
BLACK
10
19300.0
20
67070.0
40
375
0
CIRCLE
8
BLACK
10
19300.0
20
68070.0
40
375
0
CIRCLE
8
BLACK
10
19300.0
20
69070.0
40
375
0
CIRCLE
8
BLACK
10
19300.0
20
70070.0
40
375
0
CIRCLE
8
BLACK
10
19300.0
20
71070.0
40
375
0
CIRCLE
8
BLACK
10
19300.0
20
72070.0
40
375
0
CIRCLE
8
BLACK
10
19300.0
20
73070.0
40
375
0
CIRCLE
8
BLACK
10
19300.0
20
74070.0
40
375
0
CIRCLE
8
BLACK
10
19300.0
20
75070.0
40
375
0
CIRCLE
8
BLACK
10
19300.0
20
76070.0
40
375
0
CIRCLE
8
BLACK
10
14300.0
20
67570.0
40
395
0
CIRCLE
8
BLACK
10
14300.0
20
66570.0
40
395
0
CIRCLE
8
BLACK
10
8000.0
20
73970.0
40
1045
0
LINE
8
BLACK
10
9355.0
20
75015.0
11
9355.0
21
72925.0
0
LINE
8
BLACK
10
9355.0
20
72925.0
11
11445.0
21
72925.0
0
LINE
8
BLACK
10
11445.0
20
72925.0
11
11445.0
21
75015.0
0
LINE
8
BLACK
10
11445.0
20
75015.0
11
9355.0
21
75015.0
0
CIRCLE
8
BLACK
10
8900.0
20
71970.0
40
1045
0
CIRCLE
8
BLACK
10
8000.0
20
69270.0
40
1045
0
LINE
8
BLACK
10
9355.0
20
70315.0
11
9355.0
21
68225.0
0
LINE
8
BLACK
10
9355.0
20
68225.0
11
11445.0
21
68225.0
0
LINE
8
BLACK
10
11445.0
20
68225.0
11
11445.0
21
70315.0
0
LINE
8
BLACK
10
11445.0
20
70315.0
11
9355.0
21
70315.0
0
CIRCLE
8
BLACK
10
8900.0
20
67270.0
40
1045
0
CIRCLE
8
BLACK
10
12400.0
20
76070.0
40
450
0
LINE
8
BLACK
10
11950.0
20
75520.0
11
11950.0
21
74620.0
0
LINE
8
BLACK
10
11950.0
20
74620.0
11
12850.0
21
74620.0
0
LINE
8
BLACK
10
12850.0
20
74620.0
11
12850.0
21
75520.0
0
LINE
8
BLACK
10
12850.0
20
75520.0
11
11950.0
21
75520.0
0
CIRCLE
8
BLACK
10
12400.0
20
74070.0
40
450
0
CIRCLE
8
BLACK
10
5400.0
20
61870.0
40
400
0
CIRCLE
8
BLACK
10
5400.0
20
63870.0
40
400
0
CIRCLE
8
BLACK
10
6400.0
20
61270.0
40
400
0
CIRCLE
8
BLACK
10
6400.0
20
64470.0
40
400
0
CIRCLE
8
BLACK
10
8000.0
20
48632.0
40
818
0
CIRCLE
8
BLACK
10
8000.0
20
53305.0
40
818
0
LINE
8
BLACK
10
10895.0
20
53115.0
11
10105.0
21
53115.0
0
LINE
8
BLACK
10
10105.0
20
53115.0
11
10105.0
21
52325.0
0
LINE
8
BLACK
10
10105.0
20
52325.0
11
10895.0
21
52325.0
0
LINE
8
BLACK
10
10895.0
20
52325.0
11
10895.0
21
53115.0
0
CIRCLE
8
BLACK
10
11500.0
20
52220.0
40
395
0
CIRCLE
8
BLACK
10
10500.0
20
51720.0
40
395
0
CIRCLE
8
BLACK
10
11500.0
20
51220.0
40
395
0
CIRCLE
8
BLACK
10
10500.0
20
50720.0
40
395
0
CIRCLE
8
BLACK
10
11500.0
20
50220.0
40
395
0
CIRCLE
8
BLACK
10
10500.0
20
49720.0
40
395
0
CIRCLE
8
BLACK
10
11500.0
20
49220.0
40
395
0
CIRCLE
8
BLACK
10
8000.0
20
55132.0
40
818
0
CIRCLE
8
BLACK
10
8000.0
20
59805.0
40
818
0
LINE
8
BLACK
10
10895.0
20
59615.0
11
10105.0
21
59615.0
0
LINE
8
BLACK
10
10105.0
20
59615.0
11
10105.0
21
58825.0
0
LINE
8
BLACK
10
10105.0
20
58825.0
11
10895.0
21
58825.0
0
LINE
8
BLACK
10
10895.0
20
58825.0
11
10895.0
21
59615.0
0
CIRCLE
8
BLACK
10
11500.0
20
58720.0
40
395
0
CIRCLE
8
BLACK
10
10500.0
20
58220.0
40
395
0
CIRCLE
8
BLACK
10
11500.0
20
57720.0
40
395
0
CIRCLE
8
BLACK
10
10500.0
20
57220.0
40
395
0
CIRCLE
8
BLACK
10
11500.0
20
56720.0
40
395
0
CIRCLE
8
BLACK
10
10500.0
20
56220.0
40
395
0
CIRCLE
8
BLACK
10
11500.0
20
55720.0
40
395
0
LINE
8
BLACK
10
20025.0
20
76445.0
11
20025.0
21
75695.0
0
LINE
8
BLACK
10
20025.0
20
75695.0
11
20775.0
21
75695.0
0
LINE
8
BLACK
10
20775.0
20
75695.0
11
20775.0
21
76445.0
0
LINE
8
BLACK
10
20775.0
20
76445.0
11
20025.0
21
76445.0
0
LINE
8
BLACK
10
20025.0
20
75445.0
11
20025.0
21
74695.0
0
LINE
8
BLACK
10
20025.0
20
74695.0
11
20775.0
21
74695.0
0
LINE
8
BLACK
10
20775.0
20
74695.0
11
20775.0
21
75445.0
0
LINE
8
BLACK
10
20775.0
20
75445.0
11
20025.0
21
75445.0
0
LINE
8
BLACK
10
20025.0
20
66445.0
11
20025.0
21
65695.0
0
LINE
8
BLACK
10
20025.0
20
65695.0
11
20775.0
21
65695.0
0
LINE
8
BLACK
10
20775.0
20
65695.0
11
20775.0
21
66445.0
0
LINE
8
BLACK
10
20775.0
20
66445.0
11
20025.0
21
66445.0
0
LINE
8
BLACK
10
16925.0
20
63445.0
11
16925.0
21
62695.0
0
LINE
8
BLACK
10
16925.0
20
62695.0
11
17675.0
21
62695.0
0
LINE
8
BLACK
10
17675.0
20
62695.0
11
17675.0
21
63445.0
0
LINE
8
BLACK
10
17675.0
20
63445.0
11
16925.0
21
63445.0
0
LINE
8
BLACK
10
14825.0
20
69645.0
11
14825.0
21
68895.0
0
LINE
8
BLACK
10
14825.0
20
68895.0
11
15575.0
21
68895.0
0
LINE
8
BLACK
10
15575.0
20
68895.0
11
15575.0
21
69645.0
0
LINE
8
BLACK
10
15575.0
20
69645.0
11
14825.0
21
69645.0
0
LINE
8
BLACK
10
23225.0
20
74845.0
11
23225.0
21
74095.0
0
LINE
8
BLACK
10
23225.0
20
74095.0
11
23975.0
21
74095.0
0
LINE
8
BLACK
10
23975.0
20
74095.0
11
23975.0
21
74845.0
0
LINE
8
BLACK
10
23975.0
20
74845.0
11
23225.0
21
74845.0
0
LINE
8
BLACK
10
11950.0
20
59695.0
11
11950.0
21
60445.0
0
LINE
8
BLACK
10
11950.0
20
60445.0
11
11400.0
21
60445.0
0
LINE
8
BLACK
10
11400.0
20
60445.0
11
11400.0
21
59695.0
0
LINE
8
BLACK
10
11400.0
20
59695.0
11
11950.0
21
59695.0
0
LINE
8
BLACK
10
11200.0
20
59695.0
11
11200.0
21
60445.0
0
LINE
8
BLACK
10
11200.0
20
60445.0
11
10650.0
21
60445.0
0
LINE
8
BLACK
10
10650.0
20
60445.0
11
10650.0
21
59695.0
0
LINE
8
BLACK
10
10650.0
20
59695.0
11
11200.0
21
59695.0
0
LINE
8
BLACK
10
20050.0
20
74445.0
11
20050.0
21
73695.0
0
LINE
8
BLACK
10
20050.0
20
73695.0
11
20600.0
21
73695.0
0
LINE
8
BLACK
10
20600.0
20
73695.0
11
20600.0
21
74445.0
0
LINE
8
BLACK
10
20600.0
20
74445.0
11
20050.0
21
74445.0
0
LINE
8
BLACK
10
20800.0
20
74445.0
11
20800.0
21
73695.0
0
LINE
8
BLACK
10
20800.0
20
73695.0
11
21350.0
21
73695.0
0
LINE
8
BLACK
10
21350.0
20
73695.0
11
21350.0
21
74445.0
0
LINE
8
BLACK
10
21350.0
20
74445.0
11
20800.0
21
74445.0
0
LINE
8
BLACK
10
20050.0
20
73345.0
11
20050.0
21
72595.0
0
LINE
8
BLACK
10
20050.0
20
72595.0
11
20600.0
21
72595.0
0
LINE
8
BLACK
10
20600.0
20
72595.0
11
20600.0
21
73345.0
0
LINE
8
BLACK
10
20600.0
20
73345.0
11
20050.0
21
73345.0
0
LINE
8
BLACK
10
20800.0
20
73345.0
11
20800.0
21
72595.0
0
LINE
8
BLACK
10
20800.0
20
72595.0
11
21350.0
21
72595.0
0
LINE
8
BLACK
10
21350.0
20
72595.0
11
21350.0
21
73345.0
0
LINE
8
BLACK
10
21350.0
20
73345.0
11
20800.0
21
73345.0
0
LINE
8
BLACK
10
20050.0
20
72345.0
11
20050.0
21
71595.0
0
LINE
8
BLACK
10
20050.0
20
71595.0
11
20600.0
21
71595.0
0
LINE
8
BLACK
10
20600.0
20
71595.0
11
20600.0
21
72345.0
0
LINE
8
BLACK
10
20600.0
20
72345.0
11
20050.0
21
72345.0
0
LINE
8
BLACK
10
20800.0
20
72345.0
11
20800.0
21
71595.0
0
LINE
8
BLACK
10
20800.0
20
71595.0
11
21350.0
21
71595.0
0
LINE
8
BLACK
10
21350.0
20
71595.0
11
21350.0
21
72345.0
0
LINE
8
BLACK
10
21350.0
20
72345.0
11
20800.0
21
72345.0
0
LINE
8
BLACK
10
20050.0
20
71445.0
11
20050.0
21
70695.0
0
LINE
8
BLACK
10
20050.0
20
70695.0
11
20600.0
21
70695.0
0
LINE
8
BLACK
10
20600.0
20
70695.0
11
20600.0
21
71445.0
0
LINE
8
BLACK
10
20600.0
20
71445.0
11
20050.0
21
71445.0
0
LINE
8
BLACK
10
20800.0
20
71445.0
11
20800.0
21
70695.0
0
LINE
8
BLACK
10
20800.0
20
70695.0
11
21350.0
21
70695.0
0
LINE
8
BLACK
10
21350.0
20
70695.0
11
21350.0
21
71445.0
0
LINE
8
BLACK
10
21350.0
20
71445.0
11
20800.0
21
71445.0
0
LINE
8
BLACK
10
23675.0
20
71120.0
11
22925.0
21
71120.0
0
LINE
8
BLACK
10
22925.0
20
71120.0
11
22925.0
21
70570.0
0
LINE
8
BLACK
10
22925.0
20
70570.0
11
23675.0
21
70570.0
0
LINE
8
BLACK
10
23675.0
20
70570.0
11
23675.0
21
71120.0
0
LINE
8
BLACK
10
23675.0
20
70370.0
11
22925.0
21
70370.0
0
LINE
8
BLACK
10
22925.0
20
70370.0
11
22925.0
21
69820.0
0
LINE
8
BLACK
10
22925.0
20
69820.0
11
23675.0
21
69820.0
0
LINE
8
BLACK
10
23675.0
20
69820.0
11
23675.0
21
70370.0
0
LINE
8
BLACK
10
24325.0
20
52720.0
11
25075.0
21
52720.0
0
LINE
8
BLACK
10
25075.0
20
52720.0
11
25075.0
21
53270.0
0
LINE
8
BLACK
10
25075.0
20
53270.0
11
24325.0
21
53270.0
0
LINE
8
BLACK
10
24325.0
20
53270.0
11
24325.0
21
52720.0
0
LINE
8
BLACK
10
24325.0
20
53470.0
11
25075.0
21
53470.0
0
LINE
8
BLACK
10
25075.0
20
53470.0
11
25075.0
21
54020.0
0
LINE
8
BLACK
10
25075.0
20
54020.0
11
24325.0
21
54020.0
0
LINE
8
BLACK
10
24325.0
20
54020.0
11
24325.0
21
53470.0
0
LINE
8
BLACK
10
17325.0
20
52620.0
11
18075.0
21
52620.0
0
LINE
8
BLACK
10
18075.0
20
52620.0
11
18075.0
21
53170.0
0
LINE
8
BLACK
10
18075.0
20
53170.0
11
17325.0
21
53170.0
0
LINE
8
BLACK
10
17325.0
20
53170.0
11
17325.0
21
52620.0
0
LINE
8
BLACK
10
17325.0
20
53370.0
11
18075.0
21
53370.0
0
LINE
8
BLACK
10
18075.0
20
53370.0
11
18075.0
21
53920.0
0
LINE
8
BLACK
10
18075.0
20
53920.0
11
17325.0
21
53920.0
0
LINE
8
BLACK
10
17325.0
20
53920.0
11
17325.0
21
53370.0
0
LINE
8
BLACK
10
5150.0
20
63145.0
11
5150.0
21
62395.0
0
LINE
8
BLACK
10
5150.0
20
62395.0
11
5700.0
21
62395.0
0
LINE
8
BLACK
10
5700.0
20
62395.0
11
5700.0
21
63145.0
0
LINE
8
BLACK
10
5700.0
20
63145.0
11
5150.0
21
63145.0
0
LINE
8
BLACK
10
5900.0
20
63145.0
11
5900.0
21
62395.0
0
LINE
8
BLACK
10
5900.0
20
62395.0
11
6450.0
21
62395.0
0
LINE
8
BLACK
10
6450.0
20
62395.0
11
6450.0
21
63145.0
0
LINE
8
BLACK
10
6450.0
20
63145.0
11
5900.0
21
63145.0
0
LINE
8
BLACK
10
16950.0
20
67945.0
11
16950.0
21
67195.0
0
LINE
8
BLACK
10
16950.0
20
67195.0
11
17500.0
21
67195.0
0
LINE
8
BLACK
10
17500.0
20
67195.0
11
17500.0
21
67945.0
0
LINE
8
BLACK
10
17500.0
20
67945.0
11
16950.0
21
67945.0
0
LINE
8
BLACK
10
17700.0
20
67945.0
11
17700.0
21
67195.0
0
LINE
8
BLACK
10
17700.0
20
67195.0
11
18250.0
21
67195.0
0
LINE
8
BLACK
10
18250.0
20
67195.0
11
18250.0
21
67945.0
0
LINE
8
BLACK
10
18250.0
20
67945.0
11
17700.0
21
67945.0
0
LINE
8
BLACK
10
16950.0
20
65145.0
11
16950.0
21
64395.0
0
LINE
8
BLACK
10
16950.0
20
64395.0
11
17500.0
21
64395.0
0
LINE
8
BLACK
10
17500.0
20
64395.0
11
17500.0
21
65145.0
0
LINE
8
BLACK
10
17500.0
20
65145.0
11
16950.0
21
65145.0
0
LINE
8
BLACK
10
17700.0
20
65145.0
11
17700.0
21
64395.0
0
LINE
8
BLACK
10
17700.0
20
64395.0
11
18250.0
21
64395.0
0
LINE
8
BLACK
10
18250.0
20
64395.0
11
18250.0
21
65145.0
0
LINE
8
BLACK
10
18250.0
20
65145.0
11
17700.0
21
65145.0
0
LINE
8
BLACK
10
17900.0
20
67220.0
11
16900.0
21
67220.0
0
LINE
8
BLACK
10
16900.0
20
67220.0
11
16900.0
21
66420.0
0
LINE
8
BLACK
10
16900.0
20
66420.0
11
17900.0
21
66420.0
0
LINE
8
BLACK
10
17900.0
20
66420.0
11
17900.0
21
67220.0
0
LINE
8
BLACK
10
17900.0
20
65920.0
11
16900.0
21
65920.0
0
LINE
8
BLACK
10
16900.0
20
65920.0
11
16900.0
21
65120.0
0
LINE
8
BLACK
10
16900.0
20
65120.0
11
17900.0
21
65120.0
0
LINE
8
BLACK
10
17900.0
20
65120.0
11
17900.0
21
65920.0
0
LINE
8
BLACK
10
14775.0
20
63895.0
11
14775.0
21
64645.0
0
LINE
8
BLACK
10
14775.0
20
64645.0
11
14025.0
21
64645.0
0
LINE
8
BLACK
10
14025.0
20
64645.0
11
14025.0
21
63895.0
0
LINE
8
BLACK
10
14025.0
20
63895.0
11
14775.0
21
63895.0
0
CIRCLE
8
BLACK
10
13400.0
20
64270.0
40
375
0
CIRCLE
8
BLACK
10
12400.0
20
64270.0
40
375
0
CIRCLE
8
BLACK
10
11400.0
20
64270.0
40
375
0
CIRCLE
8
BLACK
10
11400.0
20
61270.0
40
375
0
CIRCLE
8
BLACK
10
12400.0
20
61270.0
40
375
0
CIRCLE
8
BLACK
10
13400.0
20
61270.0
40
375
0
CIRCLE
8
BLACK
10
14400.0
20
61270.0
40
375
0
CIRCLE
8
BLACK
10
15700.0
20
59270.0
40
375
0
CIRCLE
8
BLACK
10
15700.0
20
58270.0
40
375
0
CIRCLE
8
BLACK
10
15700.0
20
57270.0
40
375
0
CIRCLE
8
BLACK
10
15700.0
20
56270.0
40
375
0
CIRCLE
8
BLACK
10
15700.0
20
55270.0
40
375
0
CIRCLE
8
BLACK
10
15700.0
20
54270.0
40
375
0
CIRCLE
8
BLACK
10
15700.0
20
53270.0
40
375
0
CIRCLE
8
BLACK
10
15700.0
20
52270.0
40
375
0
CIRCLE
8
BLACK
10
15700.0
20
51270.0
40
375
0
CIRCLE
8
BLACK
10
15700.0
20
50270.0
40
375
0
CIRCLE
8
BLACK
10
15700.0
20
49270.0
40
375
0
CIRCLE
8
BLACK
10
15700.0
20
48270.0
40
375
0
CIRCLE
8
BLACK
10
15700.0
20
47270.0
40
375
0
LINE
8
BLACK
10
16075.0
20
60645.0
11
15325.0
21
60645.0
0
LINE
8
BLACK
10
15325.0
20
60645.0
11
15325.0
21
59895.0
0
LINE
8
BLACK
10
15325.0
20
59895.0
11
16075.0
21
59895.0
0
LINE
8
BLACK
10
16075.0
20
59895.0
11
16075.0
21
60645.0
0
CIRCLE
8
BLACK
10
18700.0
20
47270.0
40
375
0
CIRCLE
8
BLACK
10
18700.0
20
48270.0
40
375
0
CIRCLE
8
BLACK
10
18700.0
20
49270.0
40
375
0
CIRCLE
8
BLACK
10
18700.0
20
50270.0
40
375
0
CIRCLE
8
BLACK
10
18700.0
20
51270.0
40
375
0
CIRCLE
8
BLACK
10
18700.0
20
52270.0
40
375
0
CIRCLE
8
BLACK
10
18700.0
20
53270.0
40
375
0
CIRCLE
8
BLACK
10
18700.0
20
54270.0
40
375
0
CIRCLE
8
BLACK
10
18700.0
20
55270.0
40
375
0
CIRCLE
8
BLACK
10
18700.0
20
56270.0
40
375
0
CIRCLE
8
BLACK
10
18700.0
20
57270.0
40
375
0
CIRCLE
8
BLACK
10
18700.0
20
58270.0
40
375
0
CIRCLE
8
BLACK
10
18700.0
20
59270.0
40
375
0
CIRCLE
8
BLACK
10
18700.0
20
60270.0
40
375
0
CIRCLE
8
BLACK
10
22500.0
20
59270.0
40
375
0
CIRCLE
8
BLACK
10
22500.0
20
58270.0
40
375
0
CIRCLE
8
BLACK
10
22500.0
20
57270.0
40
375
0
CIRCLE
8
BLACK
10
22500.0
20
56270.0
40
375
0
CIRCLE
8
BLACK
10
22500.0
20
55270.0
40
375
0
CIRCLE
8
BLACK
10
22500.0
20
54270.0
40
375
0
CIRCLE
8
BLACK
10
22500.0
20
53270.0
40
375
0
CIRCLE
8
BLACK
10
22500.0
20
52270.0
40
375
0
CIRCLE
8
BLACK
10
22500.0
20
51270.0
40
375
0
CIRCLE
8
BLACK
10
22500.0
20
50270.0
40
375
0
CIRCLE
8
BLACK
10
22500.0
20
49270.0
40
375
0
CIRCLE
8
BLACK
10
22500.0
20
48270.0
40
375
0
CIRCLE
8
BLACK
10
22500.0
20
47270.0
40
375
0
LINE
8
BLACK
10
22875.0
20
60645.0
11
22125.0
21
60645.0
0
LINE
8
BLACK
10
22125.0
20
60645.0
11
22125.0
21
59895.0
0
LINE
8
BLACK
10
22125.0
20
59895.0
11
22875.0
21
59895.0
0
LINE
8
BLACK
10
22875.0
20
59895.0
11
22875.0
21
60645.0
0
CIRCLE
8
BLACK
10
25500.0
20
47270.0
40
375
0
CIRCLE
8
BLACK
10
25500.0
20
48270.0
40
375
0
CIRCLE
8
BLACK
10
25500.0
20
49270.0
40
375
0
CIRCLE
8
BLACK
10
25500.0
20
50270.0
40
375
0
CIRCLE
8
BLACK
10
25500.0
20
51270.0
40
375
0
CIRCLE
8
BLACK
10
25500.0
20
52270.0
40
375
0
CIRCLE
8
BLACK
10
25500.0
20
53270.0
40
375
0
CIRCLE
8
BLACK
10
25500.0
20
54270.0
40
375
0
CIRCLE
8
BLACK
10
25500.0
20
55270.0
40
375
0
CIRCLE
8
BLACK
10
25500.0
20
56270.0
40
375
0
CIRCLE
8
BLACK
10
25500.0
20
57270.0
40
375
0
CIRCLE
8
BLACK
10
25500.0
20
58270.0
40
375
0
CIRCLE
8
BLACK
10
25500.0
20
59270.0
40
375
0
CIRCLE
8
BLACK
10
25500.0
20
60270.0
40
375
0
CIRCLE
8
BLACK
10
25500.0
20
64070.0
40
375
0
CIRCLE
8
BLACK
10
25500.0
20
65070.0
40
375
0
CIRCLE
8
BLACK
10
25500.0
20
66070.0
40
375
0
CIRCLE
8
BLACK
10
25500.0
20
67070.0
40
375
0
CIRCLE
8
BLACK
10
25500.0
20
68070.0
40
375
0
CIRCLE
8
BLACK
10
25500.0
20
69070.0
40
375
0
CIRCLE
8
BLACK
10
25500.0
20
70070.0
40
375
0
CIRCLE
8
BLACK
10
25500.0
20
71070.0
40
375
0
CIRCLE
8
BLACK
10
25500.0
20
72070.0
40
375
0
CIRCLE
8
BLACK
10
25500.0
20
73070.0
40
375
0
CIRCLE
8
BLACK
10
25500.0
20
74070.0
40
375
0
CIRCLE
8
BLACK
10
25500.0
20
75070.0
40
375
0
CIRCLE
8
BLACK
10
25500.0
20
76070.0
40
375
0
LINE
8
BLACK
10
25125.0
20
62695.0
11
25875.0
21
62695.0
0
LINE
8
BLACK
10
25875.0
20
62695.0
11
25875.0
21
63445.0
0
LINE
8
BLACK
10
25875.0
20
63445.0
11
25125.0
21
63445.0
0
LINE
8
BLACK
10
25125.0
20
63445.0
11
25125.0
21
62695.0
0
CIRCLE
8
BLACK
10
22500.0
20
76070.0
40
375
0
CIRCLE
8
BLACK
10
22500.0
20
75070.0
40
375
0
CIRCLE
8
BLACK
10
22500.0
20
74070.0
40
375
0
CIRCLE
8
BLACK
10
22500.0
20
73070.0
40
375
0
CIRCLE
8
BLACK
10
22500.0
20
72070.0
40
375
0
CIRCLE
8
BLACK
10
22500.0
20
71070.0
40
375
0
CIRCLE
8
BLACK
10
22500.0
20
70070.0
40
375
0
CIRCLE
8
BLACK
10
22500.0
20
69070.0
40
375
0
CIRCLE
8
BLACK
10
22500.0
20
68070.0
40
375
0
CIRCLE
8
BLACK
10
22500.0
20
67070.0
40
375
0
CIRCLE
8
BLACK
10
22500.0
20
66070.0
40
375
0
CIRCLE
8
BLACK
10
22500.0
20
65070.0
40
375
0
CIRCLE
8
BLACK
10
22500.0
20
64070.0
40
375
0
CIRCLE
8
BLACK
10
22500.0
20
63070.0
40
375
0
CIRCLE
8
BLACK
10
27000.0
20
46770.0
40
900
0
CIRCLE
8
BLACK
10
5900.0
20
46770.0
40
900
0
CIRCLE
8
BLACK
10
27000.0
20
76870.0
40
900
0
CIRCLE
8
BLACK
10
5700.0
20
76870.0
40
900
0
ENDSEC
0
EOF
