0
SECTION
2
HEADER
9
$ANGBASE
50
0.0
9
$ANGDIR
70
0
0
ENDSEC
0
SECTION
2
TABLES
0
TABLE
2
LTYPE
70
1
0
LTYPE
2
CONTINUOUS
70
0
3
Solid line
72
65
73
0
40
0.0
0
ENDTAB
0
TABLE
2
LAYER
70
24
0
LAYER
2
BLACK
70
0
62
1
6
CONTINUOUS
0
LAYER
2
BLUE
70
0
62
2
6
CONTINUOUS
0
LAYER
2
GREEN
70
0
62
3
6
CONTINUOUS
0
LAYER
2
CYAN
70
0
62
4
6
CONTINUOUS
0
LAYER
2
RED
70
0
62
5
6
CONTINUOUS
0
LAYER
2
MAGENTA
70
0
62
6
6
CONTINUOUS
0
LAYER
2
BROWN
70
0
62
7
6
CONTINUOUS
0
LAYER
2
GRAY
70
0
62
8
6
CONTINUOUS
0
LAYER
2
DARKGRAY
70
0
62
9
6
CONTINUOUS
0
LAYER
2
LIGHTBLUE
70
0
62
10
6
CONTINUOUS
0
LAYER
2
LIGHTGREEN
70
0
62
11
6
CONTINUOUS
0
LAYER
2
LIGHTCYAN
70
0
62
12
6
CONTINUOUS
0
LAYER
2
LIGHTRED
70
0
62
13
6
CONTINUOUS
0
LAYER
2
LIGHTMAGENTA
70
0
62
14
6
CONTINUOUS
0
LAYER
2
YELLOW
70
0
62
15
6
CONTINUOUS
0
LAYER
2
WHITE
70
0
62
16
6
CONTINUOUS
0
LAYER
2
DARKDARKGRAY
70
0
62
17
6
CONTINUOUS
0
LAYER
2
DARKBLUE
70
0
62
18
6
CONTINUOUS
0
LAYER
2
DARKGREEN
70
0
62
19
6
CONTINUOUS
0
LAYER
2
DARKCYAN
70
0
62
20
6
CONTINUOUS
0
LAYER
2
DARKRED
70
0
62
21
6
CONTINUOUS
0
LAYER
2
DARKMAGENTA
70
0
62
22
6
CONTINUOUS
0
LAYER
2
DARKBROWN
70
0
62
23
6
CONTINUOUS
0
LAYER
2
LIGHTYELLOW
70
0
62
24
6
CONTINUOUS
0
ENDTAB
0
ENDSEC
0
SECTION
2
ENTITIES
0
LINE
8
BLACK
10
28175.0
20
45670.0
11
28175.0
21
77970.0
0
LINE
8
BLACK
10
28025.0
20
45670.0
11
28025.0
21
77970.0
0
ARC
8
BLACK
10
28100.0
20
77970.0
40
75.0
50
360.0
51
540.0
0
ARC
8
BLACK
10
28100.0
20
45670.0
40
75.0
50
180.0
51
360.0
0
LINE
8
BLACK
10
4700.0
20
45595.0
11
28100.0
21
45595.0
0
LINE
8
BLACK
10
4700.0
20
45745.0
11
28100.0
21
45745.0
0
ARC
8
BLACK
10
28100.0
20
45670.0
40
75.0
50
270.0
51
450.0
0
ARC
8
BLACK
10
4700.0
20
45670.0
40
75.0
50
90.0
51
270.0
0
LINE
8
BLACK
10
4700.0
20
77895.0
11
28100.0
21
77895.0
0
LINE
8
BLACK
10
4700.0
20
78045.0
11
28100.0
21
78045.0
0
ARC
8
BLACK
10
28100.0
20
77970.0
40
75.0
50
270.0
51
450.0
0
ARC
8
BLACK
10
4700.0
20
77970.0
40
75.0
50
90.0
51
270.0
0
LINE
8
BLACK
10
4775.0
20
45670.0
11
4775.0
21
46470.0
0
LINE
8
BLACK
10
4625.0
20
45670.0
11
4625.0
21
46470.0
0
ARC
8
BLACK
10
4700.0
20
46470.0
40
75.0
50
360.0
51
540.0
0
ARC
8
BLACK
10
4700.0
20
45670.0
40
75.0
50
180.0
51
360.0
0
LINE
8
BLACK
10
4775.0
20
46470.0
11
4775.0
21
77970.0
0
LINE
8
BLACK
10
4625.0
20
46470.0
11
4625.0
21
77970.0
0
ARC
8
BLACK
10
4700.0
20
77970.0
40
75.0
50
360.0
51
540.0
0
ARC
8
BLACK
10
4700.0
20
46470.0
40
75.0
50
180.0
51
360.0
0
LINE
8
BLACK
10
19827.0
20
74424.0
11
19827.0
21
73716.0
0
LINE
8
BLACK
10
19827.0
20
73716.0
11
20455.0
21
73716.0
0
LINE
8
BLACK
10
20455.0
20
73716.0
11
20455.0
21
74424.0
0
LINE
8
BLACK
10
20455.0
20
74424.0
11
19827.0
21
74424.0
0
LINE
8
BLACK
10
20945.0
20
74424.0
11
20945.0
21
73716.0
0
LINE
8
BLACK
10
20945.0
20
73716.0
11
21573.0
21
73716.0
0
LINE
8
BLACK
10
21573.0
20
73716.0
11
21573.0
21
74424.0
0
LINE
8
BLACK
10
21573.0
20
74424.0
11
20945.0
21
74424.0
0
LINE
8
BLACK
10
19827.0
20
73324.0
11
19827.0
21
72616.0
0
LINE
8
BLACK
10
19827.0
20
72616.0
11
20455.0
21
72616.0
0
LINE
8
BLACK
10
20455.0
20
72616.0
11
20455.0
21
73324.0
0
LINE
8
BLACK
10
20455.0
20
73324.0
11
19827.0
21
73324.0
0
LINE
8
BLACK
10
20945.0
20
73324.0
11
20945.0
21
72616.0
0
LINE
8
BLACK
10
20945.0
20
72616.0
11
21573.0
21
72616.0
0
LINE
8
BLACK
10
21573.0
20
72616.0
11
21573.0
21
73324.0
0
LINE
8
BLACK
10
21573.0
20
73324.0
11
20945.0
21
73324.0
0
LINE
8
BLACK
10
19827.0
20
72324.0
11
19827.0
21
71616.0
0
LINE
8
BLACK
10
19827.0
20
71616.0
11
20455.0
21
71616.0
0
LINE
8
BLACK
10
20455.0
20
71616.0
11
20455.0
21
72324.0
0
LINE
8
BLACK
10
20455.0
20
72324.0
11
19827.0
21
72324.0
0
LINE
8
BLACK
10
20945.0
20
72324.0
11
20945.0
21
71616.0
0
LINE
8
BLACK
10
20945.0
20
71616.0
11
21573.0
21
71616.0
0
LINE
8
BLACK
10
21573.0
20
71616.0
11
21573.0
21
72324.0
0
LINE
8
BLACK
10
21573.0
20
72324.0
11
20945.0
21
72324.0
0
LINE
8
BLACK
10
19827.0
20
71424.0
11
19827.0
21
70716.0
0
LINE
8
BLACK
10
19827.0
20
70716.0
11
20455.0
21
70716.0
0
LINE
8
BLACK
10
20455.0
20
70716.0
11
20455.0
21
71424.0
0
LINE
8
BLACK
10
20455.0
20
71424.0
11
19827.0
21
71424.0
0
LINE
8
BLACK
10
20945.0
20
71424.0
11
20945.0
21
70716.0
0
LINE
8
BLACK
10
20945.0
20
70716.0
11
21573.0
21
70716.0
0
LINE
8
BLACK
10
21573.0
20
70716.0
11
21573.0
21
71424.0
0
LINE
8
BLACK
10
21573.0
20
71424.0
11
20945.0
21
71424.0
0
LINE
8
BLACK
10
14854.0
20
72943.0
11
14146.0
21
72943.0
0
LINE
8
BLACK
10
14146.0
20
72943.0
11
14146.0
21
72315.0
0
LINE
8
BLACK
10
14146.0
20
72315.0
11
14854.0
21
72315.0
0
LINE
8
BLACK
10
14854.0
20
72315.0
11
14854.0
21
72943.0
0
LINE
8
BLACK
10
14854.0
20
71825.0
11
14146.0
21
71825.0
0
LINE
8
BLACK
10
14146.0
20
71825.0
11
14146.0
21
71197.0
0
LINE
8
BLACK
10
14146.0
20
71197.0
11
14854.0
21
71197.0
0
LINE
8
BLACK
10
14854.0
20
71197.0
11
14854.0
21
71825.0
0
LINE
8
BLACK
10
5250.0
20
63045.0
11
5250.0
21
62495.0
0
LINE
8
BLACK
10
5250.0
20
62495.0
11
5600.0
21
62495.0
0
LINE
8
BLACK
10
5600.0
20
62495.0
11
5600.0
21
63045.0
0
LINE
8
BLACK
10
5600.0
20
63045.0
11
5250.0
21
63045.0
0
LINE
8
BLACK
10
6000.0
20
63045.0
11
6000.0
21
62495.0
0
LINE
8
BLACK
10
6000.0
20
62495.0
11
6350.0
21
62495.0
0
LINE
8
BLACK
10
6350.0
20
62495.0
11
6350.0
21
63045.0
0
LINE
8
BLACK
10
6350.0
20
63045.0
11
6000.0
21
63045.0
0
LINE
8
BLACK
10
15025.0
20
71520.0
11
15575.0
21
71520.0
0
LINE
8
BLACK
10
15575.0
20
71520.0
11
15575.0
21
71870.0
0
LINE
8
BLACK
10
15575.0
20
71870.0
11
15025.0
21
71870.0
0
LINE
8
BLACK
10
15025.0
20
71870.0
11
15025.0
21
71520.0
0
LINE
8
BLACK
10
15025.0
20
72270.0
11
15575.0
21
72270.0
0
LINE
8
BLACK
10
15575.0
20
72270.0
11
15575.0
21
72620.0
0
LINE
8
BLACK
10
15575.0
20
72620.0
11
15025.0
21
72620.0
0
LINE
8
BLACK
10
15025.0
20
72620.0
11
15025.0
21
72270.0
0
LINE
8
BLACK
10
14850.0
20
70070.0
11
14850.0
21
70870.0
0
LINE
8
BLACK
10
14850.0
20
70870.0
11
14250.0
21
70870.0
0
LINE
8
BLACK
10
14250.0
20
70870.0
11
14250.0
21
70070.0
0
LINE
8
BLACK
10
14250.0
20
70070.0
11
14850.0
21
70070.0
0
LINE
8
BLACK
10
13550.0
20
70070.0
11
13550.0
21
70870.0
0
LINE
8
BLACK
10
13550.0
20
70870.0
11
12950.0
21
70870.0
0
LINE
8
BLACK
10
12950.0
20
70870.0
11
12950.0
21
70070.0
0
LINE
8
BLACK
10
12950.0
20
70070.0
11
13550.0
21
70070.0
0
LINE
8
BLACK
10
13000.0
20
71120.0
11
13800.0
21
71120.0
0
LINE
8
BLACK
10
13800.0
20
71120.0
11
13800.0
21
71720.0
0
LINE
8
BLACK
10
13800.0
20
71720.0
11
13000.0
21
71720.0
0
LINE
8
BLACK
10
13000.0
20
71720.0
11
13000.0
21
71120.0
0
LINE
8
BLACK
10
13000.0
20
72420.0
11
13800.0
21
72420.0
0
LINE
8
BLACK
10
13800.0
20
72420.0
11
13800.0
21
73020.0
0
LINE
8
BLACK
10
13800.0
20
73020.0
11
13000.0
21
73020.0
0
LINE
8
BLACK
10
13000.0
20
73020.0
11
13000.0
21
72420.0
0
ENDSEC
0
EOF
