G04 (created by PCBNEW-RS274X (2010-04-21 BZR 23xx)-stable) date Sun 17 Jul 2011 03:23:55 PM EDT*
G01*
G70*
G90*
%MOIN*%
G04 Gerber Fmt 3.4, Leading zero omitted, Abs format*
%FSLAX34Y34*%
G04 APERTURE LIST*
%ADD10C,0.006000*%
%ADD11C,0.015000*%
%ADD12R,0.086600X0.094500*%
%ADD13C,0.059100*%
%ADD14C,0.070000*%
%ADD15R,0.070000X0.070000*%
%ADD16R,0.055000X0.055000*%
%ADD17C,0.055000*%
%ADD18R,0.019700X0.019700*%
%ADD19R,0.023600X0.086600*%
%ADD20R,0.016000X0.050000*%
%ADD21C,0.021000*%
%ADD22C,0.010000*%
%ADD23C,0.008000*%
%ADD24C,0.030000*%
G04 APERTURE END LIST*
G54D10*
G54D11*
X15300Y-30000D02*
X15800Y-30000D01*
X15550Y-30250D02*
X15550Y-29800D01*
G54D12*
X21740Y-28500D03*
X19260Y-28500D03*
G54D13*
X16300Y-28800D03*
X16300Y-29800D03*
G54D14*
X13500Y-28500D03*
G54D15*
X13500Y-29500D03*
G54D14*
X13500Y-30500D03*
G54D16*
X22700Y-26900D03*
X11900Y-26900D03*
X13100Y-26900D03*
X14300Y-26900D03*
X15500Y-32300D03*
X15500Y-33600D03*
X14300Y-32300D03*
X13100Y-32300D03*
X14300Y-33600D03*
X11900Y-28700D03*
X11900Y-31200D03*
X11900Y-29900D03*
X11900Y-33600D03*
X11900Y-32400D03*
X15500Y-26900D03*
G54D17*
X16500Y-26900D03*
G54D18*
X23699Y-31000D03*
X24101Y-31000D03*
X23699Y-30000D03*
X24101Y-30000D03*
X23699Y-29000D03*
X24101Y-29000D03*
X23699Y-28000D03*
X24101Y-28000D03*
X21001Y-29500D03*
X20599Y-29500D03*
X15601Y-27500D03*
X15199Y-27500D03*
X21001Y-28500D03*
X20599Y-28500D03*
X20599Y-28100D03*
X21001Y-28100D03*
X16401Y-27500D03*
X15999Y-27500D03*
G54D19*
X17950Y-31676D03*
X17450Y-31676D03*
X16950Y-31676D03*
X16450Y-31676D03*
X16450Y-33723D03*
X16950Y-33723D03*
X17450Y-33723D03*
X17950Y-33723D03*
G54D20*
X19050Y-32800D03*
X19300Y-32800D03*
X19560Y-32800D03*
X19820Y-32800D03*
X20070Y-32800D03*
X20330Y-32800D03*
X20590Y-32800D03*
X20840Y-32800D03*
X21100Y-32800D03*
X21350Y-32800D03*
X21610Y-32800D03*
X21870Y-32800D03*
X22120Y-32800D03*
X22380Y-32800D03*
X22380Y-30000D03*
X22120Y-30000D03*
X21880Y-30000D03*
X21610Y-30000D03*
X21350Y-30000D03*
X21100Y-30000D03*
X20840Y-30000D03*
X20590Y-30000D03*
X20330Y-30000D03*
X20070Y-30000D03*
X19820Y-30000D03*
X19560Y-30000D03*
X19300Y-30000D03*
X19050Y-30000D03*
G54D16*
X17600Y-26900D03*
X21400Y-33700D03*
X20200Y-33700D03*
X19000Y-33700D03*
X22600Y-33700D03*
X23800Y-33700D03*
G54D21*
X24100Y-28600D03*
X24101Y-29601D03*
X24101Y-30601D03*
X17082Y-33111D03*
X24101Y-27601D03*
X20330Y-29080D03*
X21704Y-29485D03*
X20231Y-28789D03*
X18570Y-31136D03*
X19187Y-27835D03*
X16612Y-31058D03*
X21859Y-30488D03*
X19136Y-26558D03*
X20362Y-27767D03*
X17709Y-30896D03*
G54D22*
X16401Y-27500D02*
X16401Y-27279D01*
X20601Y-28100D02*
X20599Y-28100D01*
X21001Y-28500D02*
X20601Y-28100D01*
X20599Y-29611D02*
X20599Y-29578D01*
X20599Y-29611D02*
X20599Y-29722D01*
X20599Y-29539D02*
X20599Y-29578D01*
X21001Y-28500D02*
X21001Y-28722D01*
X20599Y-29539D02*
X20599Y-29500D01*
X12698Y-29500D02*
X12298Y-29900D01*
X13500Y-29500D02*
X12698Y-29500D01*
X23699Y-31000D02*
X23699Y-30778D01*
X23699Y-30000D02*
X23699Y-30778D01*
X20599Y-29500D02*
X20599Y-29279D01*
X21001Y-28877D02*
X20599Y-29279D01*
X21001Y-28722D02*
X21001Y-28877D01*
X16500Y-27180D02*
X16500Y-26900D01*
X16401Y-27279D02*
X16500Y-27180D01*
X23699Y-28000D02*
X23699Y-29000D01*
X23699Y-29000D02*
X23699Y-30000D01*
X11900Y-29900D02*
X12099Y-29900D01*
X12099Y-29900D02*
X12298Y-29900D01*
X15985Y-34188D02*
X16450Y-33723D01*
X11545Y-34188D02*
X15985Y-34188D01*
X11501Y-34144D02*
X11545Y-34188D01*
X11501Y-30498D02*
X11501Y-34144D01*
X12099Y-29900D02*
X11501Y-30498D01*
X13500Y-29500D02*
X13973Y-29500D01*
X14673Y-28800D02*
X16300Y-28800D01*
X13973Y-29500D02*
X14673Y-28800D01*
X17052Y-26348D02*
X16500Y-26900D01*
X18591Y-26348D02*
X17052Y-26348D01*
X18611Y-26328D02*
X18591Y-26348D01*
X23171Y-26328D02*
X18611Y-26328D01*
X23699Y-26856D02*
X23171Y-26328D01*
X23699Y-28000D02*
X23699Y-26856D01*
X20343Y-28100D02*
X20599Y-28100D01*
X18591Y-26348D02*
X20343Y-28100D01*
X20590Y-29731D02*
X20590Y-30000D01*
X20599Y-29722D02*
X20590Y-29731D01*
X20590Y-30373D02*
X19300Y-30373D01*
X20590Y-30000D02*
X20590Y-30373D01*
X19300Y-30000D02*
X19300Y-30373D01*
X19050Y-30000D02*
X19300Y-30000D01*
X24100Y-28600D02*
X24101Y-28601D01*
G54D23*
X24101Y-29000D02*
X24101Y-28601D01*
G54D22*
X24100Y-29600D02*
X24101Y-29601D01*
G54D23*
X24101Y-29601D02*
X24100Y-29600D01*
X24101Y-30000D02*
X24101Y-29601D01*
X24101Y-31000D02*
X24101Y-30601D01*
X24101Y-30601D02*
X24100Y-30600D01*
G54D22*
X12498Y-28500D02*
X12298Y-28700D01*
X13500Y-28500D02*
X12498Y-28500D01*
X11900Y-28700D02*
X12298Y-28700D01*
G54D24*
X15500Y-30600D02*
X16300Y-29800D01*
X15500Y-32300D02*
X15500Y-30600D01*
X13000Y-32300D02*
X11900Y-31200D01*
X13100Y-32300D02*
X13000Y-32300D01*
X14300Y-32300D02*
X13100Y-32300D01*
X15500Y-32300D02*
X14300Y-32300D01*
X15500Y-32300D02*
X15500Y-33600D01*
X15500Y-33600D02*
X14300Y-33600D01*
X14300Y-33600D02*
X14300Y-32300D01*
G54D22*
X17026Y-33167D02*
X17082Y-33111D01*
X16950Y-33167D02*
X17026Y-33167D01*
X16950Y-33723D02*
X16950Y-33167D01*
G54D23*
X24101Y-28000D02*
X24101Y-27601D01*
X24101Y-27601D02*
X24100Y-27600D01*
G54D22*
X20330Y-30000D02*
X20330Y-29080D01*
X12696Y-33998D02*
X12298Y-33600D01*
X15873Y-33998D02*
X12696Y-33998D01*
X16208Y-33663D02*
X15873Y-33998D01*
X16208Y-32894D02*
X16208Y-33663D01*
X16236Y-32866D02*
X16208Y-32894D01*
X17172Y-32866D02*
X16236Y-32866D01*
X17450Y-33144D02*
X17172Y-32866D01*
X17450Y-33723D02*
X17450Y-33144D01*
X11900Y-33600D02*
X12298Y-33600D01*
X21001Y-29528D02*
X21001Y-29500D01*
X21100Y-29627D02*
X21001Y-29528D01*
X21100Y-30000D02*
X21100Y-29627D01*
X13100Y-26900D02*
X13498Y-26900D01*
X19560Y-30000D02*
X19560Y-29627D01*
X18963Y-29627D02*
X19560Y-29627D01*
X17672Y-28336D02*
X18963Y-29627D01*
X14690Y-28336D02*
X17672Y-28336D01*
X13498Y-27144D02*
X14690Y-28336D01*
X13498Y-26900D02*
X13498Y-27144D01*
X22700Y-28620D02*
X22700Y-26900D01*
X21835Y-29485D02*
X22700Y-28620D01*
X21704Y-29485D02*
X21835Y-29485D01*
X20070Y-28950D02*
X20070Y-30000D01*
X20231Y-28789D02*
X20070Y-28950D01*
X21870Y-32427D02*
X21610Y-32427D01*
X21870Y-32800D02*
X21870Y-32427D01*
X21675Y-33173D02*
X22202Y-33700D01*
X21610Y-33173D02*
X21675Y-33173D01*
X21610Y-32800D02*
X21610Y-33173D01*
X22600Y-33700D02*
X22202Y-33700D01*
X21350Y-32800D02*
X21350Y-32613D01*
X21610Y-32800D02*
X21610Y-32427D01*
X21378Y-32427D02*
X21610Y-32427D01*
X21350Y-32455D02*
X21378Y-32427D01*
X21350Y-32613D02*
X21350Y-32455D01*
X22380Y-32800D02*
X22380Y-32880D01*
X23200Y-33100D02*
X23800Y-33700D01*
X22600Y-33100D02*
X23200Y-33100D01*
X22380Y-32880D02*
X22600Y-33100D01*
X22120Y-32800D02*
X22120Y-32427D01*
X22380Y-32427D02*
X22120Y-32427D01*
X22380Y-30000D02*
X22380Y-32427D01*
X22380Y-32427D02*
X22380Y-32800D01*
X21100Y-32427D02*
X20840Y-32427D01*
X21100Y-32800D02*
X21100Y-32427D01*
X21002Y-33335D02*
X21002Y-33700D01*
X20840Y-33173D02*
X21002Y-33335D01*
X20840Y-32800D02*
X20840Y-33173D01*
X21400Y-33700D02*
X21002Y-33700D01*
X20590Y-32800D02*
X20590Y-32613D01*
X20840Y-32800D02*
X20840Y-32427D01*
X20618Y-32427D02*
X20840Y-32427D01*
X20590Y-32455D02*
X20618Y-32427D01*
X20590Y-32613D02*
X20590Y-32455D01*
X17950Y-31676D02*
X17950Y-31120D01*
X18554Y-31120D02*
X17950Y-31120D01*
X18570Y-31136D02*
X18554Y-31120D01*
X15500Y-26900D02*
X15500Y-27298D01*
X15601Y-27399D02*
X15500Y-27298D01*
X15601Y-27500D02*
X15601Y-27399D01*
X15999Y-27500D02*
X15777Y-27500D01*
X15601Y-27500D02*
X15777Y-27500D01*
X19050Y-33252D02*
X19000Y-33302D01*
X19050Y-32800D02*
X19050Y-33252D01*
X19000Y-33700D02*
X19000Y-33302D01*
X19300Y-32800D02*
X19300Y-32613D01*
X19050Y-32800D02*
X19050Y-32427D01*
X19560Y-32800D02*
X19560Y-32427D01*
X19272Y-32427D02*
X19050Y-32427D01*
X19300Y-32455D02*
X19272Y-32427D01*
X19328Y-32427D02*
X19300Y-32455D01*
X19560Y-32427D02*
X19328Y-32427D01*
X19300Y-32455D02*
X19300Y-32613D01*
X20330Y-32427D02*
X20070Y-32427D01*
X20330Y-32800D02*
X20330Y-32427D01*
X20071Y-33173D02*
X20200Y-33302D01*
X20070Y-33173D02*
X20071Y-33173D01*
X20200Y-33700D02*
X20200Y-33302D01*
X20070Y-32800D02*
X20070Y-33173D01*
X19820Y-32800D02*
X19820Y-32613D01*
X20070Y-32800D02*
X20070Y-32427D01*
X19848Y-32427D02*
X20070Y-32427D01*
X19820Y-32455D02*
X19848Y-32427D01*
X19820Y-32613D02*
X19820Y-32455D01*
X19257Y-27905D02*
X19187Y-27835D01*
X19260Y-27905D02*
X19257Y-27905D01*
X19260Y-28500D02*
X19260Y-28343D01*
X19260Y-28343D02*
X19260Y-27905D01*
X20220Y-28343D02*
X20377Y-28500D01*
X19260Y-28343D02*
X20220Y-28343D01*
X20599Y-28500D02*
X20377Y-28500D01*
X16450Y-31676D02*
X16450Y-31120D01*
X16550Y-31120D02*
X16450Y-31120D01*
X16612Y-31058D02*
X16550Y-31120D01*
X21610Y-30000D02*
X21610Y-30373D01*
X21744Y-30373D02*
X21859Y-30488D01*
X21610Y-30373D02*
X21744Y-30373D01*
X22120Y-29518D02*
X22120Y-30000D01*
X23099Y-28539D02*
X22120Y-29518D01*
X23099Y-26529D02*
X23099Y-28539D01*
X23071Y-26501D02*
X23099Y-26529D01*
X19193Y-26501D02*
X23071Y-26501D01*
X19136Y-26558D02*
X19193Y-26501D01*
X21340Y-28100D02*
X21001Y-28100D01*
X21740Y-28500D02*
X21340Y-28100D01*
X20668Y-27767D02*
X21001Y-28100D01*
X20362Y-27767D02*
X20668Y-27767D01*
X19820Y-29468D02*
X19820Y-30000D01*
X19792Y-29440D02*
X19820Y-29468D01*
X19022Y-29440D02*
X19792Y-29440D01*
X17571Y-27989D02*
X19022Y-29440D01*
X14588Y-27989D02*
X17571Y-27989D01*
X13733Y-27134D02*
X14588Y-27989D01*
X13733Y-26735D02*
X13733Y-27134D01*
X13499Y-26501D02*
X13733Y-26735D01*
X12697Y-26501D02*
X13499Y-26501D01*
X12298Y-26900D02*
X12697Y-26501D01*
X11900Y-26900D02*
X12298Y-26900D01*
X16950Y-31676D02*
X16950Y-31120D01*
X16950Y-31120D02*
X17450Y-31120D01*
X17450Y-31676D02*
X17450Y-31120D01*
X17674Y-30896D02*
X17450Y-31120D01*
X17709Y-30896D02*
X17674Y-30896D01*
X17600Y-26900D02*
X17202Y-26900D01*
X21350Y-30000D02*
X21350Y-30373D01*
X20840Y-30000D02*
X20840Y-30373D01*
X17950Y-33723D02*
X17950Y-33167D01*
X21350Y-30373D02*
X20840Y-30373D01*
X15422Y-27723D02*
X15199Y-27500D01*
X16614Y-27723D02*
X15422Y-27723D01*
X17202Y-27135D02*
X16614Y-27723D01*
X17202Y-26900D02*
X17202Y-27135D01*
X19909Y-31304D02*
X19469Y-31304D01*
X20840Y-30373D02*
X19909Y-31304D01*
X17545Y-29380D02*
X19469Y-31304D01*
X14620Y-29380D02*
X17545Y-29380D01*
X13500Y-30500D02*
X14620Y-29380D01*
X19469Y-31648D02*
X17950Y-33167D01*
X19469Y-31304D02*
X19469Y-31648D01*
X19050Y-32650D02*
X19491Y-32650D01*
X19050Y-32730D02*
X19491Y-32730D01*
X19050Y-32810D02*
X19491Y-32810D01*
X19050Y-32890D02*
X19491Y-32890D01*
X19050Y-32970D02*
X19491Y-32970D01*
X19050Y-33050D02*
X19479Y-33050D01*
X19050Y-33130D02*
X19399Y-33130D01*
X19050Y-33210D02*
X19319Y-33210D01*
X19050Y-33290D02*
X19250Y-33290D01*
X19050Y-33370D02*
X19250Y-33370D01*
X19050Y-33450D02*
X19250Y-33450D01*
X19050Y-33530D02*
X19250Y-33530D01*
X19050Y-33610D02*
X19250Y-33610D01*
X19050Y-33690D02*
X19250Y-33690D01*
X19250Y-33750D02*
X19250Y-33279D01*
X19491Y-33038D01*
X19491Y-32650D01*
X19050Y-32650D01*
X19050Y-33750D01*
X19250Y-33750D01*
X19889Y-32650D02*
X20261Y-32650D01*
X19889Y-32730D02*
X20261Y-32730D01*
X19889Y-32810D02*
X20261Y-32810D01*
X19899Y-32890D02*
X20261Y-32890D01*
X19913Y-32970D02*
X20261Y-32970D01*
X19926Y-33050D02*
X20261Y-33050D01*
X19939Y-33130D02*
X20273Y-33130D01*
X19953Y-33210D02*
X20318Y-33210D01*
X19966Y-33290D02*
X20350Y-33290D01*
X19979Y-33370D02*
X20350Y-33370D01*
X19993Y-33450D02*
X20350Y-33450D01*
X20006Y-33530D02*
X20350Y-33530D01*
X20019Y-33610D02*
X20350Y-33610D01*
X20033Y-33690D02*
X20350Y-33690D01*
X20350Y-33750D02*
X20350Y-33242D01*
X20299Y-33191D01*
X20261Y-33099D01*
X20261Y-32650D01*
X19889Y-32650D01*
X19889Y-32830D01*
X20042Y-33750D01*
X20350Y-33750D01*
X20659Y-32650D02*
X21021Y-32650D01*
X20659Y-32730D02*
X21021Y-32730D01*
X20659Y-32810D02*
X21021Y-32810D01*
X20659Y-32890D02*
X21021Y-32890D01*
X20659Y-32970D02*
X21021Y-32970D01*
X20721Y-33050D02*
X21021Y-33050D01*
X20801Y-33130D02*
X21033Y-33130D01*
X20858Y-33210D02*
X21078Y-33210D01*
X20890Y-33290D02*
X21198Y-33290D01*
X20922Y-33370D02*
X21299Y-33370D01*
X20954Y-33450D02*
X21350Y-33450D01*
X20986Y-33530D02*
X21350Y-33530D01*
X21018Y-33610D02*
X21350Y-33610D01*
X21350Y-33650D02*
X21350Y-33420D01*
X21228Y-33299D01*
X21220Y-33299D01*
X21129Y-33261D01*
X21059Y-33191D01*
X21021Y-33099D01*
X21021Y-32650D01*
X20659Y-32650D01*
X20659Y-32988D01*
X20842Y-33171D01*
X21033Y-33650D01*
X21350Y-33650D01*
X21450Y-32650D02*
X21791Y-32650D01*
X21450Y-32730D02*
X21791Y-32730D01*
X21450Y-32810D02*
X21791Y-32810D01*
X21450Y-32890D02*
X21791Y-32890D01*
X21450Y-32970D02*
X21791Y-32970D01*
X21620Y-33050D02*
X21791Y-33050D01*
X21700Y-33130D02*
X21803Y-33130D01*
X21807Y-33210D02*
X21848Y-33210D01*
X21889Y-33290D02*
X21968Y-33290D01*
X21940Y-33370D02*
X22039Y-33370D01*
X22020Y-33450D02*
X22099Y-33450D01*
X22100Y-33530D02*
X22159Y-33530D01*
X22180Y-33610D02*
X22550Y-33610D01*
X22550Y-33650D02*
X22550Y-33550D01*
X22175Y-33550D01*
X21985Y-33297D01*
X21899Y-33261D01*
X21829Y-33191D01*
X21791Y-33099D01*
X21791Y-32650D01*
X21450Y-32650D01*
X21450Y-33050D01*
X21620Y-33050D01*
X21761Y-33191D01*
X21816Y-33214D01*
X21886Y-33284D01*
X21908Y-33338D01*
X22220Y-33650D01*
X22550Y-33650D01*
X22199Y-32650D02*
X22460Y-32650D01*
X22199Y-32730D02*
X22480Y-32730D01*
X22199Y-32810D02*
X22500Y-32810D01*
X22199Y-32890D02*
X22520Y-32890D01*
X22199Y-32970D02*
X22540Y-32970D01*
X22267Y-33050D02*
X23375Y-33050D01*
X22386Y-33130D02*
X23439Y-33130D01*
X23180Y-33210D02*
X23503Y-33210D01*
X23260Y-33290D02*
X23567Y-33290D01*
X23340Y-33370D02*
X23631Y-33370D01*
X23420Y-33450D02*
X23696Y-33450D01*
X23500Y-33530D02*
X23750Y-33530D01*
X23580Y-33610D02*
X23750Y-33610D01*
X23750Y-33650D02*
X23750Y-33517D01*
X23375Y-33050D01*
X22560Y-33050D01*
X22460Y-32650D01*
X22199Y-32650D01*
X22199Y-33005D01*
X22415Y-33150D01*
X23120Y-33150D01*
X23620Y-33650D01*
X23750Y-33650D01*
X11475Y-25975D02*
X24925Y-25975D01*
X11475Y-26055D02*
X24925Y-26055D01*
X11475Y-26135D02*
X24925Y-26135D01*
X11475Y-26215D02*
X12627Y-26215D01*
X13569Y-26215D02*
X19040Y-26215D01*
X23141Y-26215D02*
X24925Y-26215D01*
X11475Y-26295D02*
X12479Y-26295D01*
X13717Y-26295D02*
X18899Y-26295D01*
X23290Y-26295D02*
X24925Y-26295D01*
X11475Y-26375D02*
X12398Y-26375D01*
X13797Y-26375D02*
X18829Y-26375D01*
X23351Y-26375D02*
X24925Y-26375D01*
X14757Y-26455D02*
X15043Y-26455D01*
X15957Y-26455D02*
X17143Y-26455D01*
X18057Y-26455D02*
X18796Y-26455D01*
X23385Y-26455D02*
X24925Y-26455D01*
X14808Y-26535D02*
X14993Y-26535D01*
X16008Y-26535D02*
X17093Y-26535D01*
X18108Y-26535D02*
X18782Y-26535D01*
X23399Y-26535D02*
X24925Y-26535D01*
X14824Y-26615D02*
X14976Y-26615D01*
X16024Y-26615D02*
X17076Y-26615D01*
X18124Y-26615D02*
X18782Y-26615D01*
X23399Y-26615D02*
X24925Y-26615D01*
X14824Y-26695D02*
X14976Y-26695D01*
X16024Y-26695D02*
X16986Y-26695D01*
X18124Y-26695D02*
X18809Y-26695D01*
X23399Y-26695D02*
X24925Y-26695D01*
X14824Y-26775D02*
X14976Y-26775D01*
X16024Y-26775D02*
X16932Y-26775D01*
X18124Y-26775D02*
X18852Y-26775D01*
X23399Y-26775D02*
X24925Y-26775D01*
X14824Y-26855D02*
X14976Y-26855D01*
X16024Y-26855D02*
X16911Y-26855D01*
X18124Y-26855D02*
X18932Y-26855D01*
X19338Y-26855D02*
X22176Y-26855D01*
X23399Y-26855D02*
X24925Y-26855D01*
X14824Y-26935D02*
X14976Y-26935D01*
X16024Y-26935D02*
X16902Y-26935D01*
X18124Y-26935D02*
X22176Y-26935D01*
X23399Y-26935D02*
X24925Y-26935D01*
X14824Y-27015D02*
X14976Y-27015D01*
X16024Y-27015D02*
X16897Y-27015D01*
X18124Y-27015D02*
X22176Y-27015D01*
X23399Y-27015D02*
X24925Y-27015D01*
X14824Y-27095D02*
X14976Y-27095D01*
X16024Y-27095D02*
X16817Y-27095D01*
X18124Y-27095D02*
X22176Y-27095D01*
X23399Y-27095D02*
X24925Y-27095D01*
X14824Y-27175D02*
X14976Y-27175D01*
X16200Y-27175D02*
X16737Y-27175D01*
X18124Y-27175D02*
X22176Y-27175D01*
X23399Y-27175D02*
X24925Y-27175D01*
X14811Y-27255D02*
X14896Y-27255D01*
X16302Y-27255D02*
X16657Y-27255D01*
X18111Y-27255D02*
X22188Y-27255D01*
X23399Y-27255D02*
X24012Y-27255D01*
X24192Y-27255D02*
X24925Y-27255D01*
X14767Y-27335D02*
X14860Y-27335D01*
X16339Y-27335D02*
X16577Y-27335D01*
X18067Y-27335D02*
X22233Y-27335D01*
X23399Y-27335D02*
X23867Y-27335D01*
X24336Y-27335D02*
X24925Y-27335D01*
X14645Y-27415D02*
X14852Y-27415D01*
X16346Y-27415D02*
X16497Y-27415D01*
X17945Y-27415D02*
X20288Y-27415D01*
X20438Y-27415D02*
X22353Y-27415D01*
X23399Y-27415D02*
X23795Y-27415D01*
X24407Y-27415D02*
X24925Y-27415D01*
X14518Y-27495D02*
X14852Y-27495D01*
X17266Y-27495D02*
X19084Y-27495D01*
X19292Y-27495D02*
X20134Y-27495D01*
X20791Y-27495D02*
X22400Y-27495D01*
X23399Y-27495D02*
X23762Y-27495D01*
X24441Y-27495D02*
X24925Y-27495D01*
X14598Y-27575D02*
X14852Y-27575D01*
X17186Y-27575D02*
X18947Y-27575D01*
X19428Y-27575D02*
X20059Y-27575D01*
X20900Y-27575D02*
X22400Y-27575D01*
X23399Y-27575D02*
X23747Y-27575D01*
X24455Y-27575D02*
X24925Y-27575D01*
X14678Y-27655D02*
X14855Y-27655D01*
X17106Y-27655D02*
X18879Y-27655D01*
X19496Y-27655D02*
X20026Y-27655D01*
X20980Y-27655D02*
X22400Y-27655D01*
X23399Y-27655D02*
X23747Y-27655D01*
X24455Y-27655D02*
X24925Y-27655D01*
X17721Y-27735D02*
X18846Y-27735D01*
X19529Y-27735D02*
X20008Y-27735D01*
X21060Y-27735D02*
X22400Y-27735D01*
X23399Y-27735D02*
X23773Y-27735D01*
X24428Y-27735D02*
X24925Y-27735D01*
X17821Y-27815D02*
X18691Y-27815D01*
X19830Y-27815D02*
X20008Y-27815D01*
X22310Y-27815D02*
X22400Y-27815D01*
X23399Y-27815D02*
X23770Y-27815D01*
X24433Y-27815D02*
X24925Y-27815D01*
X17901Y-27895D02*
X18613Y-27895D01*
X19908Y-27895D02*
X20032Y-27895D01*
X22388Y-27895D02*
X22400Y-27895D01*
X23399Y-27895D02*
X23754Y-27895D01*
X24448Y-27895D02*
X24925Y-27895D01*
X17981Y-27975D02*
X18580Y-27975D01*
X19941Y-27975D02*
X20069Y-27975D01*
X23399Y-27975D02*
X23754Y-27975D01*
X24448Y-27975D02*
X24925Y-27975D01*
X18061Y-28055D02*
X18578Y-28055D01*
X23399Y-28055D02*
X23754Y-28055D01*
X24448Y-28055D02*
X24925Y-28055D01*
X18141Y-28135D02*
X18578Y-28135D01*
X23399Y-28135D02*
X23754Y-28135D01*
X24448Y-28135D02*
X24925Y-28135D01*
X18221Y-28215D02*
X18578Y-28215D01*
X23399Y-28215D02*
X23782Y-28215D01*
X24420Y-28215D02*
X24925Y-28215D01*
X18301Y-28295D02*
X18578Y-28295D01*
X23399Y-28295D02*
X23848Y-28295D01*
X24354Y-28295D02*
X24925Y-28295D01*
X18381Y-28375D02*
X18578Y-28375D01*
X23399Y-28375D02*
X23824Y-28375D01*
X24376Y-28375D02*
X24925Y-28375D01*
X18461Y-28455D02*
X18578Y-28455D01*
X23399Y-28455D02*
X23777Y-28455D01*
X24423Y-28455D02*
X24925Y-28455D01*
X18541Y-28535D02*
X18578Y-28535D01*
X23399Y-28535D02*
X23746Y-28535D01*
X24454Y-28535D02*
X24925Y-28535D01*
X23383Y-28615D02*
X23746Y-28615D01*
X24454Y-28615D02*
X24925Y-28615D01*
X23348Y-28695D02*
X23756Y-28695D01*
X24443Y-28695D02*
X24925Y-28695D01*
X23286Y-28775D02*
X23785Y-28775D01*
X24416Y-28775D02*
X24925Y-28775D01*
X23206Y-28855D02*
X23754Y-28855D01*
X24448Y-28855D02*
X24925Y-28855D01*
X23126Y-28935D02*
X23754Y-28935D01*
X24448Y-28935D02*
X24925Y-28935D01*
X23046Y-29015D02*
X23754Y-29015D01*
X24448Y-29015D02*
X24925Y-29015D01*
X22966Y-29095D02*
X23754Y-29095D01*
X24448Y-29095D02*
X24925Y-29095D01*
X22886Y-29175D02*
X23765Y-29175D01*
X24436Y-29175D02*
X24925Y-29175D01*
X22806Y-29255D02*
X23808Y-29255D01*
X24394Y-29255D02*
X24925Y-29255D01*
X22726Y-29335D02*
X23866Y-29335D01*
X24336Y-29335D02*
X24925Y-29335D01*
X22646Y-29415D02*
X23795Y-29415D01*
X24407Y-29415D02*
X24925Y-29415D01*
X22566Y-29495D02*
X23762Y-29495D01*
X24441Y-29495D02*
X24925Y-29495D01*
X22637Y-29575D02*
X23747Y-29575D01*
X24455Y-29575D02*
X24925Y-29575D01*
X22690Y-29655D02*
X23747Y-29655D01*
X24455Y-29655D02*
X24925Y-29655D01*
X22709Y-29735D02*
X23773Y-29735D01*
X24428Y-29735D02*
X24925Y-29735D01*
X22709Y-29815D02*
X23770Y-29815D01*
X24433Y-29815D02*
X24925Y-29815D01*
X22709Y-29895D02*
X23754Y-29895D01*
X24448Y-29895D02*
X24925Y-29895D01*
X22709Y-29975D02*
X23754Y-29975D01*
X24448Y-29975D02*
X24925Y-29975D01*
X22709Y-30055D02*
X23754Y-30055D01*
X24448Y-30055D02*
X24925Y-30055D01*
X22709Y-30135D02*
X23754Y-30135D01*
X24448Y-30135D02*
X24925Y-30135D01*
X22709Y-30215D02*
X23782Y-30215D01*
X24420Y-30215D02*
X24925Y-30215D01*
X22709Y-30295D02*
X23848Y-30295D01*
X24354Y-30295D02*
X24925Y-30295D01*
X22680Y-30375D02*
X23826Y-30375D01*
X24376Y-30375D02*
X24925Y-30375D01*
X22680Y-30455D02*
X23779Y-30455D01*
X24424Y-30455D02*
X24925Y-30455D01*
X22680Y-30535D02*
X23747Y-30535D01*
X24455Y-30535D02*
X24925Y-30535D01*
X22680Y-30615D02*
X23747Y-30615D01*
X24455Y-30615D02*
X24925Y-30615D01*
X22680Y-30695D02*
X23756Y-30695D01*
X24445Y-30695D02*
X24925Y-30695D01*
X22680Y-30775D02*
X23786Y-30775D01*
X24417Y-30775D02*
X24925Y-30775D01*
X22680Y-30855D02*
X23754Y-30855D01*
X24448Y-30855D02*
X24925Y-30855D01*
X22680Y-30935D02*
X23754Y-30935D01*
X24448Y-30935D02*
X24925Y-30935D01*
X22680Y-31015D02*
X23754Y-31015D01*
X24448Y-31015D02*
X24925Y-31015D01*
X22680Y-31095D02*
X23754Y-31095D01*
X24448Y-31095D02*
X24925Y-31095D01*
X22680Y-31175D02*
X23765Y-31175D01*
X24436Y-31175D02*
X24925Y-31175D01*
X22680Y-31255D02*
X23808Y-31255D01*
X24394Y-31255D02*
X24925Y-31255D01*
X22680Y-31335D02*
X23924Y-31335D01*
X24277Y-31335D02*
X24925Y-31335D01*
X22680Y-31415D02*
X24925Y-31415D01*
X22680Y-31495D02*
X24925Y-31495D01*
X22680Y-31575D02*
X24925Y-31575D01*
X22680Y-31655D02*
X24925Y-31655D01*
X22680Y-31735D02*
X24925Y-31735D01*
X22680Y-31815D02*
X24925Y-31815D01*
X22680Y-31895D02*
X24925Y-31895D01*
X22680Y-31975D02*
X24925Y-31975D01*
X22680Y-32055D02*
X24925Y-32055D01*
X22680Y-32135D02*
X24925Y-32135D01*
X22680Y-32215D02*
X24925Y-32215D01*
X22714Y-32295D02*
X24925Y-32295D01*
X22769Y-32375D02*
X24925Y-32375D01*
X22824Y-32455D02*
X24925Y-32455D01*
X22879Y-32535D02*
X24925Y-32535D01*
X22934Y-32615D02*
X24925Y-32615D01*
X22989Y-32695D02*
X24925Y-32695D01*
X23758Y-32775D02*
X24925Y-32775D01*
X23899Y-32855D02*
X24925Y-32855D01*
X24039Y-32935D02*
X24925Y-32935D01*
X24179Y-33015D02*
X24925Y-33015D01*
X24319Y-33095D02*
X24925Y-33095D01*
X24450Y-33175D02*
X24925Y-33175D01*
X24450Y-33255D02*
X24925Y-33255D01*
X24450Y-33335D02*
X24925Y-33335D01*
X24450Y-33415D02*
X24925Y-33415D01*
X24450Y-33495D02*
X24925Y-33495D01*
X24450Y-33575D02*
X24925Y-33575D01*
X24450Y-33655D02*
X24925Y-33655D01*
X24450Y-33735D02*
X24925Y-33735D01*
X24450Y-33815D02*
X24925Y-33815D01*
X24450Y-33895D02*
X24925Y-33895D01*
X24450Y-33975D02*
X24925Y-33975D01*
X24450Y-34055D02*
X24925Y-34055D01*
X12576Y-27046D02*
X12576Y-27046D01*
X12488Y-27126D02*
X12576Y-27126D01*
X12424Y-27206D02*
X12576Y-27206D01*
X12398Y-27286D02*
X12601Y-27286D01*
X12336Y-27366D02*
X12664Y-27366D01*
X11475Y-27446D02*
X13375Y-27446D01*
X11475Y-27526D02*
X13455Y-27526D01*
X11475Y-27606D02*
X13535Y-27606D01*
X11475Y-27686D02*
X13615Y-27686D01*
X11475Y-27766D02*
X13695Y-27766D01*
X11475Y-27846D02*
X13775Y-27846D01*
X11475Y-27926D02*
X13321Y-27926D01*
X13680Y-27926D02*
X13855Y-27926D01*
X11475Y-28006D02*
X13147Y-28006D01*
X13853Y-28006D02*
X13935Y-28006D01*
X11475Y-28086D02*
X13067Y-28086D01*
X13933Y-28086D02*
X14015Y-28086D01*
X11475Y-28166D02*
X12990Y-28166D01*
X14011Y-28166D02*
X14095Y-28166D01*
X14044Y-28246D02*
X14175Y-28246D01*
X14077Y-28326D02*
X14255Y-28326D01*
X14099Y-28406D02*
X14335Y-28406D01*
X14099Y-28486D02*
X14415Y-28486D01*
X14099Y-28566D02*
X14504Y-28566D01*
X14087Y-28646D02*
X17557Y-28646D01*
X14054Y-28726D02*
X17637Y-28726D01*
X12616Y-28806D02*
X12977Y-28806D01*
X14021Y-28806D02*
X17717Y-28806D01*
X12536Y-28886D02*
X13039Y-28886D01*
X13961Y-28886D02*
X17797Y-28886D01*
X12428Y-28966D02*
X13119Y-28966D01*
X13881Y-28966D02*
X17877Y-28966D01*
X12415Y-29046D02*
X13252Y-29046D01*
X13747Y-29046D02*
X17957Y-29046D01*
X12376Y-29126D02*
X14471Y-29126D01*
X17695Y-29126D02*
X18037Y-29126D01*
X11475Y-29206D02*
X11531Y-29206D01*
X12267Y-29206D02*
X14370Y-29206D01*
X17795Y-29206D02*
X18117Y-29206D01*
X11475Y-29286D02*
X14290Y-29286D01*
X17875Y-29286D02*
X18197Y-29286D01*
X11475Y-29366D02*
X14210Y-29366D01*
X17955Y-29366D02*
X18277Y-29366D01*
X11475Y-29446D02*
X14130Y-29446D01*
X18035Y-29446D02*
X18357Y-29446D01*
X11475Y-29526D02*
X14050Y-29526D01*
X18115Y-29526D02*
X18437Y-29526D01*
X11475Y-29606D02*
X13970Y-29606D01*
X18195Y-29606D02*
X18517Y-29606D01*
X11475Y-29686D02*
X13890Y-29686D01*
X14737Y-29686D02*
X15758Y-29686D01*
X18275Y-29686D02*
X18597Y-29686D01*
X11475Y-29766D02*
X13810Y-29766D01*
X14657Y-29766D02*
X15166Y-29766D01*
X18355Y-29766D02*
X18677Y-29766D01*
X11475Y-29846D02*
X13730Y-29846D01*
X14577Y-29846D02*
X15080Y-29846D01*
X18435Y-29846D02*
X18760Y-29846D01*
X11475Y-29926D02*
X13321Y-29926D01*
X14497Y-29926D02*
X15040Y-29926D01*
X18515Y-29926D02*
X18958Y-29926D01*
X11475Y-30006D02*
X13147Y-30006D01*
X14417Y-30006D02*
X15026Y-30006D01*
X18595Y-30006D02*
X19231Y-30006D01*
X11475Y-30086D02*
X13067Y-30086D01*
X14337Y-30086D02*
X15042Y-30086D01*
X18675Y-30086D02*
X19231Y-30086D01*
X11475Y-30166D02*
X12990Y-30166D01*
X14257Y-30166D02*
X15087Y-30166D01*
X18755Y-30166D02*
X19231Y-30166D01*
X11475Y-30246D02*
X12957Y-30246D01*
X14177Y-30246D02*
X15183Y-30246D01*
X18835Y-30246D02*
X19231Y-30246D01*
X11475Y-30326D02*
X12924Y-30326D01*
X14097Y-30326D02*
X15211Y-30326D01*
X18915Y-30326D02*
X19242Y-30326D01*
X11475Y-30406D02*
X12901Y-30406D01*
X14099Y-30406D02*
X15158Y-30406D01*
X18995Y-30406D02*
X19284Y-30406D01*
X11475Y-30486D02*
X12901Y-30486D01*
X14099Y-30486D02*
X15123Y-30486D01*
X19075Y-30486D02*
X19398Y-30486D01*
X11475Y-30566D02*
X12901Y-30566D01*
X14099Y-30566D02*
X15107Y-30566D01*
X19155Y-30566D02*
X20222Y-30566D01*
X11475Y-30646D02*
X12912Y-30646D01*
X14087Y-30646D02*
X15100Y-30646D01*
X19235Y-30646D02*
X20142Y-30646D01*
X12328Y-30726D02*
X12945Y-30726D01*
X14054Y-30726D02*
X15100Y-30726D01*
X19315Y-30726D02*
X20062Y-30726D01*
X12396Y-30806D02*
X12978Y-30806D01*
X14021Y-30806D02*
X15100Y-30806D01*
X19395Y-30806D02*
X19982Y-30806D01*
X12424Y-30886D02*
X13039Y-30886D01*
X13961Y-30886D02*
X15100Y-30886D01*
X19475Y-30886D02*
X19902Y-30886D01*
X12424Y-30966D02*
X13119Y-30966D01*
X13881Y-30966D02*
X15100Y-30966D01*
X19555Y-30966D02*
X19822Y-30966D01*
X12424Y-31046D02*
X13252Y-31046D01*
X13747Y-31046D02*
X15100Y-31046D01*
X12424Y-31126D02*
X15100Y-31126D01*
X12472Y-31206D02*
X15100Y-31206D01*
X12552Y-31286D02*
X15100Y-31286D01*
X12632Y-31366D02*
X15100Y-31366D01*
X12712Y-31446D02*
X15100Y-31446D01*
X12792Y-31526D02*
X15100Y-31526D01*
X12872Y-31606D02*
X15100Y-31606D01*
X12952Y-31686D02*
X15100Y-31686D01*
X13032Y-31766D02*
X15100Y-31766D01*
X13548Y-31846D02*
X13852Y-31846D01*
X14748Y-31846D02*
X15052Y-31846D01*
X20946Y-28447D02*
X21058Y-28447D01*
X20946Y-28527D02*
X21058Y-28527D01*
X20946Y-28607D02*
X21058Y-28607D01*
X20929Y-28687D02*
X21058Y-28687D01*
X20880Y-28767D02*
X21058Y-28767D01*
X20597Y-28847D02*
X21058Y-28847D01*
X20650Y-28927D02*
X21058Y-28927D01*
X20683Y-29007D02*
X21058Y-29007D01*
X20684Y-29087D02*
X21085Y-29087D01*
X20677Y-29167D02*
X20821Y-29167D01*
X20644Y-29247D02*
X20706Y-29247D01*
X20630Y-29327D02*
X20665Y-29327D01*
X20630Y-29407D02*
X20654Y-29407D01*
X20630Y-29487D02*
X20654Y-29487D01*
X24925Y-34125D02*
X24925Y-25975D01*
X11475Y-25975D01*
X11475Y-26423D01*
X11484Y-26414D01*
X11576Y-26376D01*
X12225Y-26376D01*
X12316Y-26414D01*
X12337Y-26435D01*
X12485Y-26289D01*
X12582Y-26224D01*
X12697Y-26201D01*
X13499Y-26201D01*
X13614Y-26224D01*
X13711Y-26289D01*
X13860Y-26438D01*
X13884Y-26414D01*
X13976Y-26376D01*
X14625Y-26376D01*
X14716Y-26414D01*
X14786Y-26484D01*
X14824Y-26576D01*
X14824Y-27225D01*
X14786Y-27316D01*
X14716Y-27386D01*
X14624Y-27424D01*
X14447Y-27424D01*
X14712Y-27689D01*
X14869Y-27689D01*
X14852Y-27647D01*
X14852Y-27352D01*
X14890Y-27261D01*
X14960Y-27191D01*
X14976Y-27184D01*
X14976Y-26575D01*
X15014Y-26484D01*
X15084Y-26414D01*
X15176Y-26376D01*
X15825Y-26376D01*
X15916Y-26414D01*
X15986Y-26484D01*
X16024Y-26576D01*
X16024Y-27153D01*
X16147Y-27153D01*
X16238Y-27191D01*
X16308Y-27261D01*
X16346Y-27353D01*
X16346Y-27423D01*
X16489Y-27423D01*
X16902Y-27010D01*
X16902Y-26900D01*
X16925Y-26785D01*
X16990Y-26688D01*
X17076Y-26630D01*
X17076Y-26575D01*
X17114Y-26484D01*
X17184Y-26414D01*
X17276Y-26376D01*
X17925Y-26376D01*
X18016Y-26414D01*
X18086Y-26484D01*
X18124Y-26576D01*
X18124Y-27225D01*
X18086Y-27316D01*
X18016Y-27386D01*
X17924Y-27424D01*
X17337Y-27424D01*
X17072Y-27689D01*
X17571Y-27689D01*
X17686Y-27712D01*
X17783Y-27777D01*
X18578Y-28572D01*
X18578Y-27978D01*
X18616Y-27887D01*
X18686Y-27817D01*
X18778Y-27779D01*
X18833Y-27779D01*
X18833Y-27764D01*
X18887Y-27634D01*
X18987Y-27535D01*
X19117Y-27481D01*
X19258Y-27481D01*
X19388Y-27535D01*
X19487Y-27635D01*
X19541Y-27765D01*
X19541Y-27779D01*
X19743Y-27779D01*
X19834Y-27817D01*
X19904Y-27887D01*
X19942Y-27979D01*
X19942Y-28043D01*
X20137Y-28043D01*
X20062Y-27967D01*
X20008Y-27837D01*
X20008Y-27696D01*
X20062Y-27566D01*
X20162Y-27467D01*
X20292Y-27413D01*
X20433Y-27413D01*
X20563Y-27467D01*
X20668Y-27467D01*
X20783Y-27490D01*
X20880Y-27555D01*
X21078Y-27753D01*
X21149Y-27753D01*
X21234Y-27788D01*
X21258Y-27779D01*
X22223Y-27779D01*
X22314Y-27817D01*
X22384Y-27887D01*
X22400Y-27925D01*
X22400Y-27424D01*
X22375Y-27424D01*
X22284Y-27386D01*
X22214Y-27316D01*
X22176Y-27224D01*
X22176Y-26801D01*
X19393Y-26800D01*
X19336Y-26858D01*
X19206Y-26912D01*
X19065Y-26912D01*
X18935Y-26858D01*
X18836Y-26758D01*
X18782Y-26628D01*
X18782Y-26487D01*
X18836Y-26357D01*
X18936Y-26258D01*
X19066Y-26204D01*
X19178Y-26204D01*
X19193Y-26201D01*
X23071Y-26201D01*
X23186Y-26224D01*
X23283Y-26289D01*
X23311Y-26316D01*
X23376Y-26414D01*
X23399Y-26529D01*
X23399Y-28539D01*
X23376Y-28654D01*
X23311Y-28751D01*
X22545Y-29516D01*
X22601Y-29539D01*
X22671Y-29609D01*
X22709Y-29701D01*
X22709Y-30300D01*
X22680Y-30369D01*
X22680Y-32250D01*
X22683Y-32250D01*
X23026Y-32750D01*
X23713Y-32750D01*
X23953Y-32886D01*
X23953Y-31347D01*
X23862Y-31309D01*
X23792Y-31239D01*
X23754Y-31147D01*
X23754Y-30852D01*
X23788Y-30770D01*
X23747Y-30671D01*
X23747Y-30530D01*
X23801Y-30400D01*
X23883Y-30318D01*
X23862Y-30309D01*
X23792Y-30239D01*
X23754Y-30147D01*
X23754Y-29852D01*
X23788Y-29770D01*
X23747Y-29671D01*
X23747Y-29530D01*
X23801Y-29400D01*
X23883Y-29318D01*
X23862Y-29309D01*
X23792Y-29239D01*
X23754Y-29147D01*
X23754Y-28852D01*
X23787Y-28770D01*
X23746Y-28670D01*
X23746Y-28529D01*
X23800Y-28399D01*
X23882Y-28317D01*
X23862Y-28309D01*
X23792Y-28239D01*
X23754Y-28147D01*
X23754Y-27852D01*
X23788Y-27770D01*
X23747Y-27671D01*
X23747Y-27530D01*
X23801Y-27400D01*
X23901Y-27301D01*
X24031Y-27247D01*
X24172Y-27247D01*
X24302Y-27301D01*
X24401Y-27401D01*
X24455Y-27531D01*
X24455Y-27672D01*
X24414Y-27770D01*
X24448Y-27853D01*
X24448Y-28148D01*
X24410Y-28239D01*
X24340Y-28309D01*
X24318Y-28317D01*
X24400Y-28400D01*
X24454Y-28530D01*
X24454Y-28671D01*
X24413Y-28768D01*
X24448Y-28853D01*
X24448Y-29148D01*
X24410Y-29239D01*
X24340Y-29309D01*
X24318Y-29317D01*
X24401Y-29401D01*
X24455Y-29531D01*
X24455Y-29672D01*
X24414Y-29770D01*
X24448Y-29853D01*
X24448Y-30148D01*
X24410Y-30239D01*
X24340Y-30309D01*
X24318Y-30317D01*
X24401Y-30401D01*
X24455Y-30531D01*
X24455Y-30672D01*
X24414Y-30770D01*
X24448Y-30853D01*
X24448Y-31148D01*
X24410Y-31239D01*
X24340Y-31309D01*
X24248Y-31347D01*
X23953Y-31347D01*
X23953Y-32886D01*
X24450Y-33170D01*
X24450Y-34125D01*
X24925Y-34125D01*
X11475Y-25975D02*
X24925Y-25975D01*
X11475Y-26055D02*
X24925Y-26055D01*
X11475Y-26135D02*
X24925Y-26135D01*
X11475Y-26215D02*
X12627Y-26215D01*
X13569Y-26215D02*
X19040Y-26215D01*
X23141Y-26215D02*
X24925Y-26215D01*
X11475Y-26295D02*
X12479Y-26295D01*
X13717Y-26295D02*
X18899Y-26295D01*
X23290Y-26295D02*
X24925Y-26295D01*
X11475Y-26375D02*
X12398Y-26375D01*
X13797Y-26375D02*
X18829Y-26375D01*
X23351Y-26375D02*
X24925Y-26375D01*
X14757Y-26455D02*
X15043Y-26455D01*
X15957Y-26455D02*
X17143Y-26455D01*
X18057Y-26455D02*
X18796Y-26455D01*
X23385Y-26455D02*
X24925Y-26455D01*
X14808Y-26535D02*
X14993Y-26535D01*
X16008Y-26535D02*
X17093Y-26535D01*
X18108Y-26535D02*
X18782Y-26535D01*
X23399Y-26535D02*
X24925Y-26535D01*
X14824Y-26615D02*
X14976Y-26615D01*
X16024Y-26615D02*
X17076Y-26615D01*
X18124Y-26615D02*
X18782Y-26615D01*
X23399Y-26615D02*
X24925Y-26615D01*
X14824Y-26695D02*
X14976Y-26695D01*
X16024Y-26695D02*
X16986Y-26695D01*
X18124Y-26695D02*
X18809Y-26695D01*
X23399Y-26695D02*
X24925Y-26695D01*
X14824Y-26775D02*
X14976Y-26775D01*
X16024Y-26775D02*
X16932Y-26775D01*
X18124Y-26775D02*
X18852Y-26775D01*
X23399Y-26775D02*
X24925Y-26775D01*
X14824Y-26855D02*
X14976Y-26855D01*
X16024Y-26855D02*
X16911Y-26855D01*
X18124Y-26855D02*
X18932Y-26855D01*
X19338Y-26855D02*
X22176Y-26855D01*
X23399Y-26855D02*
X24925Y-26855D01*
X14824Y-26935D02*
X14976Y-26935D01*
X16024Y-26935D02*
X16902Y-26935D01*
X18124Y-26935D02*
X22176Y-26935D01*
X23399Y-26935D02*
X24925Y-26935D01*
X14824Y-27015D02*
X14976Y-27015D01*
X16024Y-27015D02*
X16897Y-27015D01*
X18124Y-27015D02*
X22176Y-27015D01*
X23399Y-27015D02*
X24925Y-27015D01*
X14824Y-27095D02*
X14976Y-27095D01*
X16024Y-27095D02*
X16817Y-27095D01*
X18124Y-27095D02*
X22176Y-27095D01*
X23399Y-27095D02*
X24925Y-27095D01*
X14824Y-27175D02*
X14976Y-27175D01*
X16200Y-27175D02*
X16737Y-27175D01*
X18124Y-27175D02*
X22176Y-27175D01*
X23399Y-27175D02*
X24925Y-27175D01*
X14811Y-27255D02*
X14896Y-27255D01*
X16302Y-27255D02*
X16657Y-27255D01*
X18111Y-27255D02*
X22188Y-27255D01*
X23399Y-27255D02*
X24012Y-27255D01*
X24192Y-27255D02*
X24925Y-27255D01*
X14767Y-27335D02*
X14860Y-27335D01*
X16339Y-27335D02*
X16577Y-27335D01*
X18067Y-27335D02*
X22233Y-27335D01*
X23399Y-27335D02*
X23867Y-27335D01*
X24336Y-27335D02*
X24925Y-27335D01*
X14645Y-27415D02*
X14852Y-27415D01*
X16346Y-27415D02*
X16497Y-27415D01*
X17945Y-27415D02*
X20288Y-27415D01*
X20438Y-27415D02*
X22353Y-27415D01*
X23399Y-27415D02*
X23795Y-27415D01*
X24407Y-27415D02*
X24925Y-27415D01*
X14518Y-27495D02*
X14852Y-27495D01*
X17266Y-27495D02*
X19084Y-27495D01*
X19292Y-27495D02*
X20134Y-27495D01*
X20791Y-27495D02*
X22400Y-27495D01*
X23399Y-27495D02*
X23762Y-27495D01*
X24441Y-27495D02*
X24925Y-27495D01*
X14598Y-27575D02*
X14852Y-27575D01*
X17186Y-27575D02*
X18947Y-27575D01*
X19428Y-27575D02*
X20059Y-27575D01*
X20900Y-27575D02*
X22400Y-27575D01*
X23399Y-27575D02*
X23747Y-27575D01*
X24455Y-27575D02*
X24925Y-27575D01*
X14678Y-27655D02*
X14855Y-27655D01*
X17106Y-27655D02*
X18879Y-27655D01*
X19496Y-27655D02*
X20026Y-27655D01*
X20980Y-27655D02*
X22400Y-27655D01*
X23399Y-27655D02*
X23747Y-27655D01*
X24455Y-27655D02*
X24925Y-27655D01*
X17721Y-27735D02*
X18846Y-27735D01*
X19529Y-27735D02*
X20008Y-27735D01*
X21060Y-27735D02*
X22400Y-27735D01*
X23399Y-27735D02*
X23773Y-27735D01*
X24428Y-27735D02*
X24925Y-27735D01*
X17821Y-27815D02*
X18691Y-27815D01*
X19830Y-27815D02*
X20008Y-27815D01*
X22310Y-27815D02*
X22400Y-27815D01*
X23399Y-27815D02*
X23770Y-27815D01*
X24433Y-27815D02*
X24925Y-27815D01*
X17901Y-27895D02*
X18613Y-27895D01*
X19908Y-27895D02*
X20032Y-27895D01*
X22388Y-27895D02*
X22400Y-27895D01*
X23399Y-27895D02*
X23754Y-27895D01*
X24448Y-27895D02*
X24925Y-27895D01*
X17981Y-27975D02*
X18580Y-27975D01*
X19941Y-27975D02*
X20069Y-27975D01*
X23399Y-27975D02*
X23754Y-27975D01*
X24448Y-27975D02*
X24925Y-27975D01*
X18061Y-28055D02*
X18578Y-28055D01*
X23399Y-28055D02*
X23754Y-28055D01*
X24448Y-28055D02*
X24925Y-28055D01*
X18141Y-28135D02*
X18578Y-28135D01*
X23399Y-28135D02*
X23754Y-28135D01*
X24448Y-28135D02*
X24925Y-28135D01*
X18221Y-28215D02*
X18578Y-28215D01*
X23399Y-28215D02*
X23782Y-28215D01*
X24420Y-28215D02*
X24925Y-28215D01*
X18301Y-28295D02*
X18578Y-28295D01*
X23399Y-28295D02*
X23848Y-28295D01*
X24354Y-28295D02*
X24925Y-28295D01*
X18381Y-28375D02*
X18578Y-28375D01*
X23399Y-28375D02*
X23824Y-28375D01*
X24376Y-28375D02*
X24925Y-28375D01*
X18461Y-28455D02*
X18578Y-28455D01*
X23399Y-28455D02*
X23777Y-28455D01*
X24423Y-28455D02*
X24925Y-28455D01*
X18541Y-28535D02*
X18578Y-28535D01*
X23399Y-28535D02*
X23746Y-28535D01*
X24454Y-28535D02*
X24925Y-28535D01*
X23383Y-28615D02*
X23746Y-28615D01*
X24454Y-28615D02*
X24925Y-28615D01*
X23348Y-28695D02*
X23756Y-28695D01*
X24443Y-28695D02*
X24925Y-28695D01*
X23286Y-28775D02*
X23785Y-28775D01*
X24416Y-28775D02*
X24925Y-28775D01*
X23206Y-28855D02*
X23754Y-28855D01*
X24448Y-28855D02*
X24925Y-28855D01*
X23126Y-28935D02*
X23754Y-28935D01*
X24448Y-28935D02*
X24925Y-28935D01*
X23046Y-29015D02*
X23754Y-29015D01*
X24448Y-29015D02*
X24925Y-29015D01*
X22966Y-29095D02*
X23754Y-29095D01*
X24448Y-29095D02*
X24925Y-29095D01*
X22886Y-29175D02*
X23765Y-29175D01*
X24436Y-29175D02*
X24925Y-29175D01*
X22806Y-29255D02*
X23808Y-29255D01*
X24394Y-29255D02*
X24925Y-29255D01*
X22726Y-29335D02*
X23866Y-29335D01*
X24336Y-29335D02*
X24925Y-29335D01*
X22646Y-29415D02*
X23795Y-29415D01*
X24407Y-29415D02*
X24925Y-29415D01*
X22566Y-29495D02*
X23762Y-29495D01*
X24441Y-29495D02*
X24925Y-29495D01*
X22637Y-29575D02*
X23747Y-29575D01*
X24455Y-29575D02*
X24925Y-29575D01*
X22690Y-29655D02*
X23747Y-29655D01*
X24455Y-29655D02*
X24925Y-29655D01*
X22709Y-29735D02*
X23773Y-29735D01*
X24428Y-29735D02*
X24925Y-29735D01*
X22709Y-29815D02*
X23770Y-29815D01*
X24433Y-29815D02*
X24925Y-29815D01*
X22709Y-29895D02*
X23754Y-29895D01*
X24448Y-29895D02*
X24925Y-29895D01*
X22709Y-29975D02*
X23754Y-29975D01*
X24448Y-29975D02*
X24925Y-29975D01*
X22709Y-30055D02*
X23754Y-30055D01*
X24448Y-30055D02*
X24925Y-30055D01*
X22709Y-30135D02*
X23754Y-30135D01*
X24448Y-30135D02*
X24925Y-30135D01*
X22709Y-30215D02*
X23782Y-30215D01*
X24420Y-30215D02*
X24925Y-30215D01*
X22709Y-30295D02*
X23848Y-30295D01*
X24354Y-30295D02*
X24925Y-30295D01*
X22680Y-30375D02*
X23826Y-30375D01*
X24376Y-30375D02*
X24925Y-30375D01*
X22680Y-30455D02*
X23779Y-30455D01*
X24424Y-30455D02*
X24925Y-30455D01*
X22680Y-30535D02*
X23747Y-30535D01*
X24455Y-30535D02*
X24925Y-30535D01*
X22680Y-30615D02*
X23747Y-30615D01*
X24455Y-30615D02*
X24925Y-30615D01*
X22680Y-30695D02*
X23756Y-30695D01*
X24445Y-30695D02*
X24925Y-30695D01*
X22680Y-30775D02*
X23786Y-30775D01*
X24417Y-30775D02*
X24925Y-30775D01*
X22680Y-30855D02*
X23754Y-30855D01*
X24448Y-30855D02*
X24925Y-30855D01*
X22680Y-30935D02*
X23754Y-30935D01*
X24448Y-30935D02*
X24925Y-30935D01*
X22680Y-31015D02*
X23754Y-31015D01*
X24448Y-31015D02*
X24925Y-31015D01*
X22680Y-31095D02*
X23754Y-31095D01*
X24448Y-31095D02*
X24925Y-31095D01*
X22680Y-31175D02*
X23765Y-31175D01*
X24436Y-31175D02*
X24925Y-31175D01*
X22680Y-31255D02*
X23808Y-31255D01*
X24394Y-31255D02*
X24925Y-31255D01*
X22680Y-31335D02*
X23924Y-31335D01*
X24277Y-31335D02*
X24925Y-31335D01*
X22680Y-31415D02*
X24925Y-31415D01*
X22680Y-31495D02*
X24925Y-31495D01*
X22680Y-31575D02*
X24925Y-31575D01*
X22680Y-31655D02*
X24925Y-31655D01*
X22680Y-31735D02*
X24925Y-31735D01*
X22680Y-31815D02*
X24925Y-31815D01*
X22680Y-31895D02*
X24925Y-31895D01*
X22680Y-31975D02*
X24925Y-31975D01*
X22680Y-32055D02*
X24925Y-32055D01*
X22680Y-32135D02*
X24925Y-32135D01*
X22680Y-32215D02*
X24925Y-32215D01*
X22714Y-32295D02*
X24925Y-32295D01*
X22769Y-32375D02*
X24925Y-32375D01*
X22824Y-32455D02*
X24925Y-32455D01*
X22879Y-32535D02*
X24925Y-32535D01*
X22934Y-32615D02*
X24925Y-32615D01*
X22989Y-32695D02*
X24925Y-32695D01*
X23758Y-32775D02*
X24925Y-32775D01*
X23899Y-32855D02*
X24925Y-32855D01*
X24039Y-32935D02*
X24925Y-32935D01*
X24179Y-33015D02*
X24925Y-33015D01*
X24319Y-33095D02*
X24925Y-33095D01*
X24450Y-33175D02*
X24925Y-33175D01*
X24450Y-33255D02*
X24925Y-33255D01*
X24450Y-33335D02*
X24925Y-33335D01*
X24450Y-33415D02*
X24925Y-33415D01*
X24450Y-33495D02*
X24925Y-33495D01*
X24450Y-33575D02*
X24925Y-33575D01*
X24450Y-33655D02*
X24925Y-33655D01*
X24450Y-33735D02*
X24925Y-33735D01*
X24450Y-33815D02*
X24925Y-33815D01*
X24450Y-33895D02*
X24925Y-33895D01*
X24450Y-33975D02*
X24925Y-33975D01*
X24450Y-34055D02*
X24925Y-34055D01*
X12576Y-27046D02*
X12576Y-27046D01*
X12488Y-27126D02*
X12576Y-27126D01*
X12424Y-27206D02*
X12576Y-27206D01*
X12398Y-27286D02*
X12601Y-27286D01*
X12336Y-27366D02*
X12664Y-27366D01*
X11475Y-27446D02*
X13375Y-27446D01*
X11475Y-27526D02*
X13455Y-27526D01*
X11475Y-27606D02*
X13535Y-27606D01*
X11475Y-27686D02*
X13615Y-27686D01*
X11475Y-27766D02*
X13695Y-27766D01*
X11475Y-27846D02*
X13775Y-27846D01*
X11475Y-27926D02*
X13321Y-27926D01*
X13680Y-27926D02*
X13855Y-27926D01*
X11475Y-28006D02*
X13147Y-28006D01*
X13853Y-28006D02*
X13935Y-28006D01*
X11475Y-28086D02*
X13067Y-28086D01*
X13933Y-28086D02*
X14015Y-28086D01*
X11475Y-28166D02*
X12990Y-28166D01*
X14011Y-28166D02*
X14095Y-28166D01*
X14044Y-28246D02*
X14175Y-28246D01*
X14077Y-28326D02*
X14255Y-28326D01*
X14099Y-28406D02*
X14335Y-28406D01*
X14099Y-28486D02*
X14415Y-28486D01*
X14099Y-28566D02*
X14504Y-28566D01*
X14087Y-28646D02*
X17557Y-28646D01*
X14054Y-28726D02*
X17637Y-28726D01*
X12616Y-28806D02*
X12977Y-28806D01*
X14021Y-28806D02*
X17717Y-28806D01*
X12536Y-28886D02*
X13039Y-28886D01*
X13961Y-28886D02*
X17797Y-28886D01*
X12428Y-28966D02*
X13119Y-28966D01*
X13881Y-28966D02*
X17877Y-28966D01*
X12415Y-29046D02*
X13252Y-29046D01*
X13747Y-29046D02*
X17957Y-29046D01*
X12376Y-29126D02*
X14471Y-29126D01*
X17695Y-29126D02*
X18037Y-29126D01*
X11475Y-29206D02*
X11531Y-29206D01*
X12267Y-29206D02*
X14370Y-29206D01*
X17795Y-29206D02*
X18117Y-29206D01*
X11475Y-29286D02*
X14290Y-29286D01*
X17875Y-29286D02*
X18197Y-29286D01*
X11475Y-29366D02*
X14210Y-29366D01*
X17955Y-29366D02*
X18277Y-29366D01*
X11475Y-29446D02*
X14130Y-29446D01*
X18035Y-29446D02*
X18357Y-29446D01*
X11475Y-29526D02*
X14050Y-29526D01*
X18115Y-29526D02*
X18437Y-29526D01*
X11475Y-29606D02*
X13970Y-29606D01*
X18195Y-29606D02*
X18517Y-29606D01*
X11475Y-29686D02*
X13890Y-29686D01*
X14737Y-29686D02*
X15758Y-29686D01*
X18275Y-29686D02*
X18597Y-29686D01*
X11475Y-29766D02*
X13810Y-29766D01*
X14657Y-29766D02*
X15166Y-29766D01*
X18355Y-29766D02*
X18677Y-29766D01*
X11475Y-29846D02*
X13730Y-29846D01*
X14577Y-29846D02*
X15080Y-29846D01*
X18435Y-29846D02*
X18760Y-29846D01*
X11475Y-29926D02*
X13321Y-29926D01*
X14497Y-29926D02*
X15040Y-29926D01*
X18515Y-29926D02*
X18958Y-29926D01*
X11475Y-30006D02*
X13147Y-30006D01*
X14417Y-30006D02*
X15026Y-30006D01*
X18595Y-30006D02*
X19231Y-30006D01*
X11475Y-30086D02*
X13067Y-30086D01*
X14337Y-30086D02*
X15042Y-30086D01*
X18675Y-30086D02*
X19231Y-30086D01*
X11475Y-30166D02*
X12990Y-30166D01*
X14257Y-30166D02*
X15087Y-30166D01*
X18755Y-30166D02*
X19231Y-30166D01*
X11475Y-30246D02*
X12957Y-30246D01*
X14177Y-30246D02*
X15183Y-30246D01*
X18835Y-30246D02*
X19231Y-30246D01*
X11475Y-30326D02*
X12924Y-30326D01*
X14097Y-30326D02*
X15211Y-30326D01*
X18915Y-30326D02*
X19242Y-30326D01*
X11475Y-30406D02*
X12901Y-30406D01*
X14099Y-30406D02*
X15158Y-30406D01*
X18995Y-30406D02*
X19284Y-30406D01*
X11475Y-30486D02*
X12901Y-30486D01*
X14099Y-30486D02*
X15123Y-30486D01*
X19075Y-30486D02*
X19398Y-30486D01*
X11475Y-30566D02*
X12901Y-30566D01*
X14099Y-30566D02*
X15107Y-30566D01*
X19155Y-30566D02*
X20222Y-30566D01*
X11475Y-30646D02*
X12912Y-30646D01*
X14087Y-30646D02*
X15100Y-30646D01*
X19235Y-30646D02*
X20142Y-30646D01*
X12328Y-30726D02*
X12945Y-30726D01*
X14054Y-30726D02*
X15100Y-30726D01*
X19315Y-30726D02*
X20062Y-30726D01*
X12396Y-30806D02*
X12978Y-30806D01*
X14021Y-30806D02*
X15100Y-30806D01*
X19395Y-30806D02*
X19982Y-30806D01*
X12424Y-30886D02*
X13039Y-30886D01*
X13961Y-30886D02*
X15100Y-30886D01*
X19475Y-30886D02*
X19902Y-30886D01*
X12424Y-30966D02*
X13119Y-30966D01*
X13881Y-30966D02*
X15100Y-30966D01*
X19555Y-30966D02*
X19822Y-30966D01*
X12424Y-31046D02*
X13252Y-31046D01*
X13747Y-31046D02*
X15100Y-31046D01*
X12424Y-31126D02*
X15100Y-31126D01*
X12472Y-31206D02*
X15100Y-31206D01*
X12552Y-31286D02*
X15100Y-31286D01*
X12632Y-31366D02*
X15100Y-31366D01*
X12712Y-31446D02*
X15100Y-31446D01*
X12792Y-31526D02*
X15100Y-31526D01*
X12872Y-31606D02*
X15100Y-31606D01*
X12952Y-31686D02*
X15100Y-31686D01*
X13032Y-31766D02*
X15100Y-31766D01*
X13548Y-31846D02*
X13852Y-31846D01*
X14748Y-31846D02*
X15052Y-31846D01*
X20946Y-28447D02*
X21058Y-28447D01*
X20946Y-28527D02*
X21058Y-28527D01*
X20946Y-28607D02*
X21058Y-28607D01*
X20929Y-28687D02*
X21058Y-28687D01*
X20880Y-28767D02*
X21058Y-28767D01*
X20597Y-28847D02*
X21058Y-28847D01*
X20650Y-28927D02*
X21058Y-28927D01*
X20683Y-29007D02*
X21058Y-29007D01*
X20684Y-29087D02*
X21085Y-29087D01*
X20677Y-29167D02*
X20821Y-29167D01*
X20644Y-29247D02*
X20706Y-29247D01*
X20630Y-29327D02*
X20665Y-29327D01*
X20630Y-29407D02*
X20654Y-29407D01*
X20630Y-29487D02*
X20654Y-29487D01*
X15007Y-31900D02*
X15014Y-31884D01*
X15084Y-31814D01*
X15100Y-31807D01*
X15100Y-30600D01*
X15130Y-30447D01*
X15217Y-30317D01*
X15265Y-30268D01*
X15195Y-30254D01*
X15106Y-30194D01*
X15046Y-30105D01*
X15025Y-30000D01*
X15046Y-29895D01*
X15106Y-29806D01*
X15195Y-29746D01*
X15300Y-29725D01*
X15756Y-29725D01*
X15756Y-29692D01*
X15760Y-29680D01*
X14743Y-29680D01*
X14082Y-30341D01*
X14099Y-30381D01*
X14099Y-30619D01*
X14008Y-30839D01*
X13839Y-31008D01*
X13619Y-31099D01*
X13381Y-31099D01*
X13161Y-31008D01*
X12992Y-30839D01*
X12901Y-30619D01*
X12901Y-30381D01*
X12992Y-30161D01*
X13161Y-29992D01*
X13381Y-29901D01*
X13619Y-29901D01*
X13658Y-29917D01*
X14407Y-29169D01*
X14407Y-29168D01*
X14408Y-29168D01*
X14505Y-29103D01*
X14620Y-29080D01*
X17545Y-29080D01*
X17660Y-29103D01*
X17757Y-29168D01*
X19593Y-31004D01*
X19784Y-31004D01*
X20289Y-30499D01*
X20200Y-30499D01*
X20199Y-30498D01*
X20199Y-30499D01*
X19949Y-30499D01*
X19940Y-30499D01*
X19690Y-30499D01*
X19689Y-30498D01*
X19689Y-30499D01*
X19430Y-30499D01*
X19339Y-30461D01*
X19269Y-30391D01*
X19231Y-30299D01*
X19231Y-29927D01*
X18963Y-29927D01*
X18848Y-29904D01*
X18750Y-29839D01*
X17547Y-28636D01*
X14690Y-28636D01*
X14575Y-28613D01*
X14477Y-28548D01*
X13353Y-27424D01*
X12775Y-27424D01*
X12684Y-27386D01*
X12614Y-27316D01*
X12576Y-27224D01*
X12576Y-27046D01*
X12510Y-27112D01*
X12424Y-27169D01*
X12424Y-27225D01*
X12386Y-27316D01*
X12316Y-27386D01*
X12224Y-27424D01*
X11575Y-27424D01*
X11484Y-27386D01*
X11475Y-27377D01*
X11475Y-28223D01*
X11484Y-28214D01*
X11576Y-28176D01*
X12225Y-28176D01*
X12316Y-28214D01*
X12348Y-28246D01*
X12383Y-28223D01*
X12498Y-28200D01*
X12975Y-28200D01*
X12992Y-28161D01*
X13161Y-27992D01*
X13381Y-27901D01*
X13619Y-27901D01*
X13839Y-27992D01*
X14008Y-28161D01*
X14099Y-28381D01*
X14099Y-28619D01*
X14008Y-28839D01*
X13839Y-29008D01*
X13619Y-29099D01*
X13381Y-29099D01*
X13161Y-29008D01*
X12992Y-28839D01*
X12975Y-28800D01*
X12622Y-28800D01*
X12510Y-28912D01*
X12424Y-28969D01*
X12424Y-29025D01*
X12386Y-29116D01*
X12316Y-29186D01*
X12224Y-29224D01*
X11575Y-29224D01*
X11484Y-29186D01*
X11475Y-29177D01*
X11475Y-30723D01*
X11484Y-30714D01*
X11576Y-30676D01*
X12225Y-30676D01*
X12316Y-30714D01*
X12386Y-30784D01*
X12424Y-30876D01*
X12424Y-31158D01*
X13041Y-31776D01*
X13425Y-31776D01*
X13516Y-31814D01*
X13586Y-31884D01*
X13592Y-31900D01*
X13807Y-31900D01*
X13814Y-31884D01*
X13884Y-31814D01*
X13976Y-31776D01*
X14625Y-31776D01*
X14716Y-31814D01*
X14786Y-31884D01*
X14792Y-31900D01*
X15007Y-31900D01*
X11475Y-25975D02*
X24925Y-25975D01*
X11475Y-26055D02*
X24925Y-26055D01*
X11475Y-26135D02*
X24925Y-26135D01*
X11475Y-26215D02*
X12627Y-26215D01*
X13569Y-26215D02*
X19040Y-26215D01*
X23141Y-26215D02*
X24925Y-26215D01*
X11475Y-26295D02*
X12479Y-26295D01*
X13717Y-26295D02*
X18899Y-26295D01*
X23290Y-26295D02*
X24925Y-26295D01*
X11475Y-26375D02*
X12398Y-26375D01*
X13797Y-26375D02*
X18829Y-26375D01*
X23351Y-26375D02*
X24925Y-26375D01*
X14757Y-26455D02*
X15043Y-26455D01*
X15957Y-26455D02*
X17143Y-26455D01*
X18057Y-26455D02*
X18796Y-26455D01*
X23385Y-26455D02*
X24925Y-26455D01*
X14808Y-26535D02*
X14993Y-26535D01*
X16008Y-26535D02*
X17093Y-26535D01*
X18108Y-26535D02*
X18782Y-26535D01*
X23399Y-26535D02*
X24925Y-26535D01*
X14824Y-26615D02*
X14976Y-26615D01*
X16024Y-26615D02*
X17076Y-26615D01*
X18124Y-26615D02*
X18782Y-26615D01*
X23399Y-26615D02*
X24925Y-26615D01*
X14824Y-26695D02*
X14976Y-26695D01*
X16024Y-26695D02*
X16986Y-26695D01*
X18124Y-26695D02*
X18809Y-26695D01*
X23399Y-26695D02*
X24925Y-26695D01*
X14824Y-26775D02*
X14976Y-26775D01*
X16024Y-26775D02*
X16932Y-26775D01*
X18124Y-26775D02*
X18852Y-26775D01*
X23399Y-26775D02*
X24925Y-26775D01*
X14824Y-26855D02*
X14976Y-26855D01*
X16024Y-26855D02*
X16911Y-26855D01*
X18124Y-26855D02*
X18932Y-26855D01*
X19338Y-26855D02*
X22176Y-26855D01*
X23399Y-26855D02*
X24925Y-26855D01*
X14824Y-26935D02*
X14976Y-26935D01*
X16024Y-26935D02*
X16902Y-26935D01*
X18124Y-26935D02*
X22176Y-26935D01*
X23399Y-26935D02*
X24925Y-26935D01*
X14824Y-27015D02*
X14976Y-27015D01*
X16024Y-27015D02*
X16897Y-27015D01*
X18124Y-27015D02*
X22176Y-27015D01*
X23399Y-27015D02*
X24925Y-27015D01*
X14824Y-27095D02*
X14976Y-27095D01*
X16024Y-27095D02*
X16817Y-27095D01*
X18124Y-27095D02*
X22176Y-27095D01*
X23399Y-27095D02*
X24925Y-27095D01*
X14824Y-27175D02*
X14976Y-27175D01*
X16200Y-27175D02*
X16737Y-27175D01*
X18124Y-27175D02*
X22176Y-27175D01*
X23399Y-27175D02*
X24925Y-27175D01*
X14811Y-27255D02*
X14896Y-27255D01*
X16302Y-27255D02*
X16657Y-27255D01*
X18111Y-27255D02*
X22188Y-27255D01*
X23399Y-27255D02*
X24012Y-27255D01*
X24192Y-27255D02*
X24925Y-27255D01*
X14767Y-27335D02*
X14860Y-27335D01*
X16339Y-27335D02*
X16577Y-27335D01*
X18067Y-27335D02*
X22233Y-27335D01*
X23399Y-27335D02*
X23867Y-27335D01*
X24336Y-27335D02*
X24925Y-27335D01*
X14645Y-27415D02*
X14852Y-27415D01*
X16346Y-27415D02*
X16497Y-27415D01*
X17945Y-27415D02*
X20288Y-27415D01*
X20438Y-27415D02*
X22353Y-27415D01*
X23399Y-27415D02*
X23795Y-27415D01*
X24407Y-27415D02*
X24925Y-27415D01*
X14518Y-27495D02*
X14852Y-27495D01*
X17266Y-27495D02*
X19084Y-27495D01*
X19292Y-27495D02*
X20134Y-27495D01*
X20791Y-27495D02*
X22400Y-27495D01*
X23399Y-27495D02*
X23762Y-27495D01*
X24441Y-27495D02*
X24925Y-27495D01*
X14598Y-27575D02*
X14852Y-27575D01*
X17186Y-27575D02*
X18947Y-27575D01*
X19428Y-27575D02*
X20059Y-27575D01*
X20900Y-27575D02*
X22400Y-27575D01*
X23399Y-27575D02*
X23747Y-27575D01*
X24455Y-27575D02*
X24925Y-27575D01*
X14678Y-27655D02*
X14855Y-27655D01*
X17106Y-27655D02*
X18879Y-27655D01*
X19496Y-27655D02*
X20026Y-27655D01*
X20980Y-27655D02*
X22400Y-27655D01*
X23399Y-27655D02*
X23747Y-27655D01*
X24455Y-27655D02*
X24925Y-27655D01*
X17721Y-27735D02*
X18846Y-27735D01*
X19529Y-27735D02*
X20008Y-27735D01*
X21060Y-27735D02*
X22400Y-27735D01*
X23399Y-27735D02*
X23773Y-27735D01*
X24428Y-27735D02*
X24925Y-27735D01*
X17821Y-27815D02*
X18691Y-27815D01*
X19830Y-27815D02*
X20008Y-27815D01*
X22310Y-27815D02*
X22400Y-27815D01*
X23399Y-27815D02*
X23770Y-27815D01*
X24433Y-27815D02*
X24925Y-27815D01*
X17901Y-27895D02*
X18613Y-27895D01*
X19908Y-27895D02*
X20032Y-27895D01*
X22388Y-27895D02*
X22400Y-27895D01*
X23399Y-27895D02*
X23754Y-27895D01*
X24448Y-27895D02*
X24925Y-27895D01*
X17981Y-27975D02*
X18580Y-27975D01*
X19941Y-27975D02*
X20069Y-27975D01*
X23399Y-27975D02*
X23754Y-27975D01*
X24448Y-27975D02*
X24925Y-27975D01*
X18061Y-28055D02*
X18578Y-28055D01*
X23399Y-28055D02*
X23754Y-28055D01*
X24448Y-28055D02*
X24925Y-28055D01*
X18141Y-28135D02*
X18578Y-28135D01*
X23399Y-28135D02*
X23754Y-28135D01*
X24448Y-28135D02*
X24925Y-28135D01*
X18221Y-28215D02*
X18578Y-28215D01*
X23399Y-28215D02*
X23782Y-28215D01*
X24420Y-28215D02*
X24925Y-28215D01*
X18301Y-28295D02*
X18578Y-28295D01*
X23399Y-28295D02*
X23848Y-28295D01*
X24354Y-28295D02*
X24925Y-28295D01*
X18381Y-28375D02*
X18578Y-28375D01*
X23399Y-28375D02*
X23824Y-28375D01*
X24376Y-28375D02*
X24925Y-28375D01*
X18461Y-28455D02*
X18578Y-28455D01*
X23399Y-28455D02*
X23777Y-28455D01*
X24423Y-28455D02*
X24925Y-28455D01*
X18541Y-28535D02*
X18578Y-28535D01*
X23399Y-28535D02*
X23746Y-28535D01*
X24454Y-28535D02*
X24925Y-28535D01*
X23383Y-28615D02*
X23746Y-28615D01*
X24454Y-28615D02*
X24925Y-28615D01*
X23348Y-28695D02*
X23756Y-28695D01*
X24443Y-28695D02*
X24925Y-28695D01*
X23286Y-28775D02*
X23785Y-28775D01*
X24416Y-28775D02*
X24925Y-28775D01*
X23206Y-28855D02*
X23754Y-28855D01*
X24448Y-28855D02*
X24925Y-28855D01*
X23126Y-28935D02*
X23754Y-28935D01*
X24448Y-28935D02*
X24925Y-28935D01*
X23046Y-29015D02*
X23754Y-29015D01*
X24448Y-29015D02*
X24925Y-29015D01*
X22966Y-29095D02*
X23754Y-29095D01*
X24448Y-29095D02*
X24925Y-29095D01*
X22886Y-29175D02*
X23765Y-29175D01*
X24436Y-29175D02*
X24925Y-29175D01*
X22806Y-29255D02*
X23808Y-29255D01*
X24394Y-29255D02*
X24925Y-29255D01*
X22726Y-29335D02*
X23866Y-29335D01*
X24336Y-29335D02*
X24925Y-29335D01*
X22646Y-29415D02*
X23795Y-29415D01*
X24407Y-29415D02*
X24925Y-29415D01*
X22566Y-29495D02*
X23762Y-29495D01*
X24441Y-29495D02*
X24925Y-29495D01*
X22637Y-29575D02*
X23747Y-29575D01*
X24455Y-29575D02*
X24925Y-29575D01*
X22690Y-29655D02*
X23747Y-29655D01*
X24455Y-29655D02*
X24925Y-29655D01*
X22709Y-29735D02*
X23773Y-29735D01*
X24428Y-29735D02*
X24925Y-29735D01*
X22709Y-29815D02*
X23770Y-29815D01*
X24433Y-29815D02*
X24925Y-29815D01*
X22709Y-29895D02*
X23754Y-29895D01*
X24448Y-29895D02*
X24925Y-29895D01*
X22709Y-29975D02*
X23754Y-29975D01*
X24448Y-29975D02*
X24925Y-29975D01*
X22709Y-30055D02*
X23754Y-30055D01*
X24448Y-30055D02*
X24925Y-30055D01*
X22709Y-30135D02*
X23754Y-30135D01*
X24448Y-30135D02*
X24925Y-30135D01*
X22709Y-30215D02*
X23782Y-30215D01*
X24420Y-30215D02*
X24925Y-30215D01*
X22709Y-30295D02*
X23848Y-30295D01*
X24354Y-30295D02*
X24925Y-30295D01*
X22680Y-30375D02*
X23826Y-30375D01*
X24376Y-30375D02*
X24925Y-30375D01*
X22680Y-30455D02*
X23779Y-30455D01*
X24424Y-30455D02*
X24925Y-30455D01*
X22680Y-30535D02*
X23747Y-30535D01*
X24455Y-30535D02*
X24925Y-30535D01*
X22680Y-30615D02*
X23747Y-30615D01*
X24455Y-30615D02*
X24925Y-30615D01*
X22680Y-30695D02*
X23756Y-30695D01*
X24445Y-30695D02*
X24925Y-30695D01*
X22680Y-30775D02*
X23786Y-30775D01*
X24417Y-30775D02*
X24925Y-30775D01*
X22680Y-30855D02*
X23754Y-30855D01*
X24448Y-30855D02*
X24925Y-30855D01*
X22680Y-30935D02*
X23754Y-30935D01*
X24448Y-30935D02*
X24925Y-30935D01*
X22680Y-31015D02*
X23754Y-31015D01*
X24448Y-31015D02*
X24925Y-31015D01*
X22680Y-31095D02*
X23754Y-31095D01*
X24448Y-31095D02*
X24925Y-31095D01*
X22680Y-31175D02*
X23765Y-31175D01*
X24436Y-31175D02*
X24925Y-31175D01*
X22680Y-31255D02*
X23808Y-31255D01*
X24394Y-31255D02*
X24925Y-31255D01*
X22680Y-31335D02*
X23924Y-31335D01*
X24277Y-31335D02*
X24925Y-31335D01*
X22680Y-31415D02*
X24925Y-31415D01*
X22680Y-31495D02*
X24925Y-31495D01*
X22680Y-31575D02*
X24925Y-31575D01*
X22680Y-31655D02*
X24925Y-31655D01*
X22680Y-31735D02*
X24925Y-31735D01*
X22680Y-31815D02*
X24925Y-31815D01*
X22680Y-31895D02*
X24925Y-31895D01*
X22680Y-31975D02*
X24925Y-31975D01*
X22680Y-32055D02*
X24925Y-32055D01*
X22680Y-32135D02*
X24925Y-32135D01*
X22680Y-32215D02*
X24925Y-32215D01*
X22714Y-32295D02*
X24925Y-32295D01*
X22769Y-32375D02*
X24925Y-32375D01*
X22824Y-32455D02*
X24925Y-32455D01*
X22879Y-32535D02*
X24925Y-32535D01*
X22934Y-32615D02*
X24925Y-32615D01*
X22989Y-32695D02*
X24925Y-32695D01*
X23758Y-32775D02*
X24925Y-32775D01*
X23899Y-32855D02*
X24925Y-32855D01*
X24039Y-32935D02*
X24925Y-32935D01*
X24179Y-33015D02*
X24925Y-33015D01*
X24319Y-33095D02*
X24925Y-33095D01*
X24450Y-33175D02*
X24925Y-33175D01*
X24450Y-33255D02*
X24925Y-33255D01*
X24450Y-33335D02*
X24925Y-33335D01*
X24450Y-33415D02*
X24925Y-33415D01*
X24450Y-33495D02*
X24925Y-33495D01*
X24450Y-33575D02*
X24925Y-33575D01*
X24450Y-33655D02*
X24925Y-33655D01*
X24450Y-33735D02*
X24925Y-33735D01*
X24450Y-33815D02*
X24925Y-33815D01*
X24450Y-33895D02*
X24925Y-33895D01*
X24450Y-33975D02*
X24925Y-33975D01*
X24450Y-34055D02*
X24925Y-34055D01*
X12576Y-27046D02*
X12576Y-27046D01*
X12488Y-27126D02*
X12576Y-27126D01*
X12424Y-27206D02*
X12576Y-27206D01*
X12398Y-27286D02*
X12601Y-27286D01*
X12336Y-27366D02*
X12664Y-27366D01*
X11475Y-27446D02*
X13375Y-27446D01*
X11475Y-27526D02*
X13455Y-27526D01*
X11475Y-27606D02*
X13535Y-27606D01*
X11475Y-27686D02*
X13615Y-27686D01*
X11475Y-27766D02*
X13695Y-27766D01*
X11475Y-27846D02*
X13775Y-27846D01*
X11475Y-27926D02*
X13321Y-27926D01*
X13680Y-27926D02*
X13855Y-27926D01*
X11475Y-28006D02*
X13147Y-28006D01*
X13853Y-28006D02*
X13935Y-28006D01*
X11475Y-28086D02*
X13067Y-28086D01*
X13933Y-28086D02*
X14015Y-28086D01*
X11475Y-28166D02*
X12990Y-28166D01*
X14011Y-28166D02*
X14095Y-28166D01*
X14044Y-28246D02*
X14175Y-28246D01*
X14077Y-28326D02*
X14255Y-28326D01*
X14099Y-28406D02*
X14335Y-28406D01*
X14099Y-28486D02*
X14415Y-28486D01*
X14099Y-28566D02*
X14504Y-28566D01*
X14087Y-28646D02*
X17557Y-28646D01*
X14054Y-28726D02*
X17637Y-28726D01*
X12616Y-28806D02*
X12977Y-28806D01*
X14021Y-28806D02*
X17717Y-28806D01*
X12536Y-28886D02*
X13039Y-28886D01*
X13961Y-28886D02*
X17797Y-28886D01*
X12428Y-28966D02*
X13119Y-28966D01*
X13881Y-28966D02*
X17877Y-28966D01*
X12415Y-29046D02*
X13252Y-29046D01*
X13747Y-29046D02*
X17957Y-29046D01*
X12376Y-29126D02*
X14471Y-29126D01*
X17695Y-29126D02*
X18037Y-29126D01*
X11475Y-29206D02*
X11531Y-29206D01*
X12267Y-29206D02*
X14370Y-29206D01*
X17795Y-29206D02*
X18117Y-29206D01*
X11475Y-29286D02*
X14290Y-29286D01*
X17875Y-29286D02*
X18197Y-29286D01*
X11475Y-29366D02*
X14210Y-29366D01*
X17955Y-29366D02*
X18277Y-29366D01*
X11475Y-29446D02*
X14130Y-29446D01*
X18035Y-29446D02*
X18357Y-29446D01*
X11475Y-29526D02*
X14050Y-29526D01*
X18115Y-29526D02*
X18437Y-29526D01*
X11475Y-29606D02*
X13970Y-29606D01*
X18195Y-29606D02*
X18517Y-29606D01*
X11475Y-29686D02*
X13890Y-29686D01*
X14737Y-29686D02*
X15758Y-29686D01*
X18275Y-29686D02*
X18597Y-29686D01*
X11475Y-29766D02*
X13810Y-29766D01*
X14657Y-29766D02*
X15166Y-29766D01*
X18355Y-29766D02*
X18677Y-29766D01*
X11475Y-29846D02*
X13730Y-29846D01*
X14577Y-29846D02*
X15080Y-29846D01*
X18435Y-29846D02*
X18760Y-29846D01*
X11475Y-29926D02*
X13321Y-29926D01*
X14497Y-29926D02*
X15040Y-29926D01*
X18515Y-29926D02*
X18958Y-29926D01*
X11475Y-30006D02*
X13147Y-30006D01*
X14417Y-30006D02*
X15026Y-30006D01*
X18595Y-30006D02*
X19231Y-30006D01*
X11475Y-30086D02*
X13067Y-30086D01*
X14337Y-30086D02*
X15042Y-30086D01*
X18675Y-30086D02*
X19231Y-30086D01*
X11475Y-30166D02*
X12990Y-30166D01*
X14257Y-30166D02*
X15087Y-30166D01*
X18755Y-30166D02*
X19231Y-30166D01*
X11475Y-30246D02*
X12957Y-30246D01*
X14177Y-30246D02*
X15183Y-30246D01*
X18835Y-30246D02*
X19231Y-30246D01*
X11475Y-30326D02*
X12924Y-30326D01*
X14097Y-30326D02*
X15211Y-30326D01*
X18915Y-30326D02*
X19242Y-30326D01*
X11475Y-30406D02*
X12901Y-30406D01*
X14099Y-30406D02*
X15158Y-30406D01*
X18995Y-30406D02*
X19284Y-30406D01*
X11475Y-30486D02*
X12901Y-30486D01*
X14099Y-30486D02*
X15123Y-30486D01*
X19075Y-30486D02*
X19398Y-30486D01*
X11475Y-30566D02*
X12901Y-30566D01*
X14099Y-30566D02*
X15107Y-30566D01*
X19155Y-30566D02*
X20222Y-30566D01*
X11475Y-30646D02*
X12912Y-30646D01*
X14087Y-30646D02*
X15100Y-30646D01*
X19235Y-30646D02*
X20142Y-30646D01*
X12328Y-30726D02*
X12945Y-30726D01*
X14054Y-30726D02*
X15100Y-30726D01*
X19315Y-30726D02*
X20062Y-30726D01*
X12396Y-30806D02*
X12978Y-30806D01*
X14021Y-30806D02*
X15100Y-30806D01*
X19395Y-30806D02*
X19982Y-30806D01*
X12424Y-30886D02*
X13039Y-30886D01*
X13961Y-30886D02*
X15100Y-30886D01*
X19475Y-30886D02*
X19902Y-30886D01*
X12424Y-30966D02*
X13119Y-30966D01*
X13881Y-30966D02*
X15100Y-30966D01*
X19555Y-30966D02*
X19822Y-30966D01*
X12424Y-31046D02*
X13252Y-31046D01*
X13747Y-31046D02*
X15100Y-31046D01*
X12424Y-31126D02*
X15100Y-31126D01*
X12472Y-31206D02*
X15100Y-31206D01*
X12552Y-31286D02*
X15100Y-31286D01*
X12632Y-31366D02*
X15100Y-31366D01*
X12712Y-31446D02*
X15100Y-31446D01*
X12792Y-31526D02*
X15100Y-31526D01*
X12872Y-31606D02*
X15100Y-31606D01*
X12952Y-31686D02*
X15100Y-31686D01*
X13032Y-31766D02*
X15100Y-31766D01*
X13548Y-31846D02*
X13852Y-31846D01*
X14748Y-31846D02*
X15052Y-31846D01*
X20946Y-28447D02*
X21058Y-28447D01*
X20946Y-28527D02*
X21058Y-28527D01*
X20946Y-28607D02*
X21058Y-28607D01*
X20929Y-28687D02*
X21058Y-28687D01*
X20880Y-28767D02*
X21058Y-28767D01*
X20597Y-28847D02*
X21058Y-28847D01*
X20650Y-28927D02*
X21058Y-28927D01*
X20683Y-29007D02*
X21058Y-29007D01*
X20684Y-29087D02*
X21085Y-29087D01*
X20677Y-29167D02*
X20821Y-29167D01*
X20644Y-29247D02*
X20706Y-29247D01*
X20630Y-29327D02*
X20665Y-29327D01*
X20630Y-29407D02*
X20654Y-29407D01*
X20630Y-29487D02*
X20654Y-29487D01*
X20630Y-29534D02*
X20654Y-29524D01*
X20654Y-29352D01*
X20692Y-29261D01*
X20762Y-29191D01*
X20854Y-29153D01*
X21135Y-29153D01*
X21096Y-29113D01*
X21058Y-29021D01*
X21058Y-28447D01*
X20946Y-28447D01*
X20946Y-28648D01*
X20908Y-28739D01*
X20838Y-28809D01*
X20746Y-28847D01*
X20597Y-28847D01*
X20630Y-28880D01*
X20684Y-29010D01*
X20684Y-29151D01*
X20630Y-29281D01*
X20630Y-29534D01*
M02*
