G04 (created by PCBNEW-RS274X (2011-07-08)-stable) date Wed 10 Aug 2011 10:39:09 PM EDT*
G01*
G70*
G90*
%MOIN*%
G04 Gerber Fmt 3.4, Leading zero omitted, Abs format*
%FSLAX34Y34*%
G04 APERTURE LIST*
%ADD10C,0.006000*%
%ADD11R,0.086600X0.094500*%
%ADD12R,0.019700X0.019700*%
%ADD13R,0.023600X0.086600*%
%ADD14R,0.016000X0.050000*%
G04 APERTURE END LIST*
G54D10*
G54D11*
X21740Y-28500D03*
X19260Y-28500D03*
G54D12*
X23699Y-31000D03*
X24101Y-31000D03*
X23699Y-30000D03*
X24101Y-30000D03*
X23699Y-29000D03*
X24101Y-29000D03*
X23699Y-28000D03*
X24101Y-28000D03*
X15601Y-27500D03*
X15199Y-27500D03*
X19601Y-27200D03*
X19199Y-27200D03*
X21399Y-27200D03*
X21801Y-27200D03*
X16401Y-27500D03*
X15999Y-27500D03*
G54D13*
X17950Y-31676D03*
X17450Y-31676D03*
X16950Y-31676D03*
X16450Y-31676D03*
X16450Y-33723D03*
X16950Y-33723D03*
X17450Y-33723D03*
X17950Y-33723D03*
G54D14*
X19050Y-32800D03*
X19300Y-32800D03*
X19560Y-32800D03*
X19820Y-32800D03*
X20070Y-32800D03*
X20330Y-32800D03*
X20590Y-32800D03*
X20840Y-32800D03*
X21100Y-32800D03*
X21350Y-32800D03*
X21610Y-32800D03*
X21870Y-32800D03*
X22120Y-32800D03*
X22380Y-32800D03*
X22380Y-30000D03*
X22120Y-30000D03*
X21880Y-30000D03*
X21610Y-30000D03*
X21350Y-30000D03*
X21100Y-30000D03*
X20840Y-30000D03*
X20590Y-30000D03*
X20330Y-30000D03*
X20070Y-30000D03*
X19820Y-30000D03*
X19560Y-30000D03*
X19300Y-30000D03*
X19050Y-30000D03*
M02*
