G04 (created by PCBNEW-RS274X (2011-07-08)-stable) date Fri 25 Nov 2011 09:09:20 PM EST*
G01*
G70*
G90*
%MOIN*%
G04 Gerber Fmt 3.4, Leading zero omitted, Abs format*
%FSLAX34Y34*%
G04 APERTURE LIST*
%ADD10C,0.006000*%
%ADD11R,0.106600X0.043600*%
%ADD12R,0.075000X0.055000*%
%ADD13R,0.055000X0.075000*%
%ADD14R,0.065000X0.045000*%
%ADD15C,0.163700*%
%ADD16R,0.079100X0.079100*%
%ADD17C,0.079100*%
%ADD18C,0.075000*%
G04 APERTURE END LIST*
G54D10*
G54D11*
X33276Y-17350D03*
X33276Y-16850D03*
X33276Y-16350D03*
X33276Y-15850D03*
X35323Y-15850D03*
X35323Y-16350D03*
X35323Y-16850D03*
X35323Y-17350D03*
G54D12*
X31200Y-19975D03*
X31200Y-19225D03*
X36700Y-15425D03*
X36700Y-16175D03*
X36700Y-19325D03*
X36700Y-20075D03*
X36700Y-18075D03*
X36700Y-17325D03*
G54D13*
X31025Y-15500D03*
X31775Y-15500D03*
G54D12*
X34700Y-18975D03*
X34700Y-18225D03*
X32000Y-19975D03*
X32000Y-19225D03*
G54D14*
X31150Y-18600D03*
X31150Y-18000D03*
G54D15*
X42938Y-19500D03*
X38265Y-19500D03*
G54D16*
X38850Y-17000D03*
G54D17*
X39350Y-16000D03*
X39850Y-17000D03*
X40350Y-16000D03*
X40850Y-17000D03*
X41350Y-16000D03*
X41850Y-17000D03*
X42350Y-16000D03*
G54D15*
X49438Y-19500D03*
X44765Y-19500D03*
G54D16*
X45350Y-17000D03*
G54D17*
X45850Y-16000D03*
X46350Y-17000D03*
X46850Y-16000D03*
X47350Y-17000D03*
X47850Y-16000D03*
X48350Y-17000D03*
X48850Y-16000D03*
G54D18*
X30900Y-20600D03*
X31300Y-16350D03*
X31300Y-17250D03*
X32000Y-20600D03*
M02*
