G04 (created by PCBNEW-RS274X (2011-07-08)-stable) date Fri 25 Nov 2011 09:09:20 PM EST*
G01*
G70*
G90*
%MOIN*%
G04 Gerber Fmt 3.4, Leading zero omitted, Abs format*
%FSLAX34Y34*%
G04 APERTURE LIST*
%ADD10C,0.006000*%
%ADD11C,0.006300*%
%ADD12C,0.059100*%
%ADD13C,0.063000*%
%ADD14C,0.126600*%
%ADD15R,0.086600X0.023600*%
%ADD16R,0.055000X0.035000*%
%ADD17R,0.035000X0.055000*%
%ADD18R,0.045000X0.025000*%
%ADD19C,0.143700*%
%ADD20R,0.059100X0.059100*%
%ADD21C,0.055000*%
%ADD22C,0.035000*%
%ADD23C,0.008000*%
%ADD24C,0.010000*%
G04 APERTURE END LIST*
G54D10*
G54D11*
X31695Y-20306D02*
X31505Y-20306D01*
X31600Y-20401D02*
X31600Y-20211D01*
G54D12*
X29400Y-18886D03*
G54D13*
X30226Y-17606D03*
X30227Y-18394D03*
X30226Y-16622D03*
G54D14*
X29400Y-20283D03*
X29400Y-15717D03*
G54D13*
X30227Y-19378D03*
G54D12*
X29400Y-17114D03*
G54D15*
X33276Y-17350D03*
X33276Y-16850D03*
X33276Y-16350D03*
X33276Y-15850D03*
X35323Y-15850D03*
X35323Y-16350D03*
X35323Y-16850D03*
X35323Y-17350D03*
G54D16*
X31200Y-19975D03*
X31200Y-19225D03*
X36700Y-15425D03*
X36700Y-16175D03*
X36700Y-19325D03*
X36700Y-20075D03*
X36700Y-18075D03*
X36700Y-17325D03*
G54D17*
X31025Y-15500D03*
X31775Y-15500D03*
G54D16*
X34700Y-18975D03*
X34700Y-18225D03*
X32000Y-19975D03*
X32000Y-19225D03*
G54D18*
X31150Y-18600D03*
X31150Y-18000D03*
G54D19*
X42938Y-19500D03*
X38265Y-19500D03*
G54D20*
X38850Y-17000D03*
G54D12*
X39350Y-16000D03*
X39850Y-17000D03*
X40350Y-16000D03*
X40850Y-17000D03*
X41350Y-16000D03*
X41850Y-17000D03*
X42350Y-16000D03*
G54D19*
X49438Y-19500D03*
X44765Y-19500D03*
G54D20*
X45350Y-17000D03*
G54D12*
X45850Y-16000D03*
X46350Y-17000D03*
X46850Y-16000D03*
X47350Y-17000D03*
X47850Y-16000D03*
X48350Y-17000D03*
X48850Y-16000D03*
G54D21*
X30900Y-20600D03*
X31300Y-16350D03*
X31300Y-17250D03*
X32000Y-20600D03*
G54D22*
X34350Y-17350D03*
X31700Y-17800D03*
X32250Y-16450D03*
X32300Y-15500D03*
X33800Y-16800D03*
X36700Y-20600D03*
X36700Y-16800D03*
X34700Y-19100D03*
X31700Y-18750D03*
X34100Y-18300D03*
X32050Y-17400D03*
G54D23*
X35323Y-15850D02*
X34350Y-15850D01*
X34700Y-17700D02*
X34700Y-18225D01*
X34350Y-17350D02*
X34700Y-17700D01*
X31500Y-18000D02*
X31150Y-18000D01*
X31700Y-17800D02*
X31500Y-18000D01*
X30226Y-16876D02*
X30226Y-16622D01*
X31150Y-17800D02*
X30226Y-16876D01*
X31150Y-18000D02*
X31150Y-17800D01*
X30226Y-16399D02*
X31125Y-15500D01*
X30226Y-16622D02*
X30226Y-16399D01*
X31200Y-19225D02*
X32000Y-19225D01*
X31200Y-19225D02*
X31200Y-19300D01*
X31200Y-19225D02*
X30700Y-19225D01*
X30700Y-19225D02*
X30700Y-19200D01*
X30700Y-20400D02*
X30900Y-20600D01*
X30700Y-19225D02*
X30700Y-20400D01*
X30700Y-18200D02*
X30700Y-19200D01*
X30900Y-18000D02*
X30700Y-18200D01*
X31150Y-18000D02*
X30900Y-18000D01*
X30700Y-19200D02*
X30700Y-19225D01*
X34350Y-15400D02*
X34350Y-15850D01*
X33900Y-14950D02*
X34350Y-15400D01*
X31250Y-14950D02*
X33900Y-14950D01*
X31125Y-15075D02*
X31250Y-14950D01*
X31125Y-15500D02*
X31125Y-15075D01*
X34350Y-15850D02*
X34350Y-17350D01*
X41350Y-16000D02*
X41350Y-15850D01*
X47350Y-15500D02*
X47850Y-16000D01*
X41700Y-15500D02*
X47350Y-15500D01*
X41350Y-15850D02*
X41700Y-15500D01*
X32250Y-16450D02*
X32250Y-17000D01*
X31800Y-17000D02*
X32250Y-17000D01*
X31550Y-17250D02*
X31800Y-17000D01*
X31300Y-17250D02*
X31550Y-17250D01*
X32750Y-17350D02*
X33276Y-17350D01*
X32400Y-17000D02*
X32750Y-17350D01*
X32250Y-17000D02*
X32400Y-17000D01*
X32300Y-15500D02*
X31875Y-15500D01*
X38850Y-16500D02*
X44300Y-16500D01*
X44800Y-17000D02*
X45350Y-17000D01*
X44300Y-16500D02*
X44800Y-17000D01*
X36725Y-16200D02*
X36700Y-16175D01*
X37100Y-16200D02*
X36725Y-16200D01*
X36325Y-16175D02*
X36700Y-16175D01*
X35650Y-16850D02*
X36325Y-16175D01*
X35323Y-16850D02*
X35650Y-16850D01*
X37100Y-16200D02*
X36700Y-16200D01*
X38850Y-17000D02*
X38850Y-16500D01*
X38850Y-16500D02*
X38850Y-16470D01*
X38700Y-16200D02*
X37100Y-16200D01*
X38850Y-16350D02*
X38700Y-16200D01*
X38850Y-16470D02*
X38850Y-16350D01*
X41850Y-17000D02*
X41850Y-17250D01*
X47850Y-17500D02*
X48350Y-17000D01*
X42100Y-17500D02*
X47850Y-17500D01*
X41850Y-17250D02*
X42100Y-17500D01*
X33276Y-16850D02*
X33276Y-16350D01*
X33750Y-16850D02*
X33276Y-16850D01*
X33800Y-16800D02*
X33750Y-16850D01*
X36700Y-20600D02*
X36700Y-20075D01*
X36700Y-17325D02*
X36700Y-16800D01*
X34700Y-19100D02*
X34700Y-18975D01*
X32500Y-15850D02*
X33276Y-15850D01*
X32300Y-16050D02*
X32500Y-15850D01*
X31850Y-16050D02*
X32300Y-16050D01*
X31550Y-16350D02*
X31850Y-16050D01*
X31300Y-16350D02*
X31550Y-16350D01*
X31550Y-18600D02*
X31150Y-18600D01*
X31700Y-18750D02*
X31550Y-18600D01*
X42350Y-16000D02*
X44400Y-16000D01*
X48400Y-16450D02*
X48850Y-16000D01*
X44850Y-16450D02*
X48400Y-16450D01*
X44400Y-16000D02*
X44850Y-16450D01*
X37100Y-15800D02*
X36700Y-15800D01*
X37200Y-15900D02*
X37100Y-15800D01*
X37200Y-16000D02*
X37200Y-15900D01*
X39350Y-16000D02*
X37200Y-16000D01*
X36700Y-15800D02*
X36700Y-15425D01*
X36400Y-15800D02*
X36700Y-15800D01*
X35850Y-16350D02*
X36400Y-15800D01*
X35323Y-16350D02*
X35850Y-16350D01*
X35323Y-18550D02*
X35300Y-18600D01*
X35323Y-17350D02*
X35323Y-18550D01*
X36700Y-18600D02*
X36700Y-19325D01*
X36700Y-18600D02*
X36700Y-18075D01*
X34100Y-18300D02*
X32650Y-18300D01*
X32000Y-20600D02*
X32000Y-19975D01*
X32000Y-19975D02*
X31200Y-19975D01*
X32650Y-18000D02*
X32650Y-18300D01*
X32050Y-17400D02*
X32650Y-18000D01*
X32650Y-19325D02*
X32000Y-19975D01*
X32650Y-18300D02*
X32650Y-19325D01*
X34100Y-18600D02*
X35300Y-18600D01*
X34100Y-18300D02*
X34100Y-18600D01*
X35300Y-18600D02*
X36700Y-18600D01*
G54D10*
G36*
X31774Y-21075D02*
X29795Y-21075D01*
X29900Y-21032D01*
X30148Y-20784D01*
X30283Y-20459D01*
X30283Y-20108D01*
X30214Y-19943D01*
X30339Y-19943D01*
X30547Y-19857D01*
X30691Y-19712D01*
X30676Y-19750D01*
X30676Y-19849D01*
X30676Y-20199D01*
X30714Y-20291D01*
X30784Y-20361D01*
X30875Y-20399D01*
X30974Y-20399D01*
X31164Y-20399D01*
X31164Y-20757D01*
X31496Y-20757D01*
X31555Y-20897D01*
X31702Y-21045D01*
X31774Y-21075D01*
X31774Y-21075D01*
G37*
G54D24*
X31774Y-21075D02*
X29795Y-21075D01*
X29900Y-21032D01*
X30148Y-20784D01*
X30283Y-20459D01*
X30283Y-20108D01*
X30214Y-19943D01*
X30339Y-19943D01*
X30547Y-19857D01*
X30691Y-19712D01*
X30676Y-19750D01*
X30676Y-19849D01*
X30676Y-20199D01*
X30714Y-20291D01*
X30784Y-20361D01*
X30875Y-20399D01*
X30974Y-20399D01*
X31164Y-20399D01*
X31164Y-20757D01*
X31496Y-20757D01*
X31555Y-20897D01*
X31702Y-21045D01*
X31774Y-21075D01*
G54D10*
G36*
X50225Y-21075D02*
X45732Y-21075D01*
X45732Y-19693D01*
X45732Y-19308D01*
X45585Y-18953D01*
X45313Y-18680D01*
X44958Y-18533D01*
X44573Y-18533D01*
X44218Y-18680D01*
X43945Y-18952D01*
X43851Y-19178D01*
X43758Y-18953D01*
X43486Y-18680D01*
X43131Y-18533D01*
X42746Y-18533D01*
X42391Y-18680D01*
X42118Y-18952D01*
X41971Y-19307D01*
X41971Y-19692D01*
X42118Y-20047D01*
X42390Y-20320D01*
X42745Y-20467D01*
X43130Y-20467D01*
X43485Y-20320D01*
X43758Y-20048D01*
X43851Y-19821D01*
X43945Y-20047D01*
X44217Y-20320D01*
X44572Y-20467D01*
X44957Y-20467D01*
X45312Y-20320D01*
X45585Y-20048D01*
X45732Y-19693D01*
X45732Y-21075D01*
X39232Y-21075D01*
X39232Y-19693D01*
X39232Y-19308D01*
X39085Y-18953D01*
X38813Y-18680D01*
X38458Y-18533D01*
X38073Y-18533D01*
X37718Y-18680D01*
X37445Y-18952D01*
X37298Y-19307D01*
X37298Y-19692D01*
X37445Y-20047D01*
X37717Y-20320D01*
X38072Y-20467D01*
X38457Y-20467D01*
X38812Y-20320D01*
X39085Y-20048D01*
X39232Y-19693D01*
X39232Y-21075D01*
X32224Y-21075D01*
X32297Y-21045D01*
X32445Y-20898D01*
X32525Y-20705D01*
X32525Y-20496D01*
X32453Y-20323D01*
X32486Y-20291D01*
X32524Y-20200D01*
X32524Y-20101D01*
X32524Y-19861D01*
X32855Y-19530D01*
X32918Y-19436D01*
X32940Y-19325D01*
X32940Y-18590D01*
X33789Y-18590D01*
X33812Y-18613D01*
X33832Y-18711D01*
X33895Y-18805D01*
X33989Y-18868D01*
X34100Y-18890D01*
X34176Y-18890D01*
X34176Y-19199D01*
X34214Y-19291D01*
X34284Y-19361D01*
X34375Y-19399D01*
X34398Y-19399D01*
X34459Y-19460D01*
X34615Y-19525D01*
X34784Y-19525D01*
X34940Y-19461D01*
X35002Y-19399D01*
X35024Y-19399D01*
X35116Y-19361D01*
X35186Y-19291D01*
X35224Y-19200D01*
X35224Y-19101D01*
X35224Y-18890D01*
X35289Y-18890D01*
X35300Y-18890D01*
X36410Y-18890D01*
X36410Y-18901D01*
X36376Y-18901D01*
X36284Y-18939D01*
X36214Y-19009D01*
X36176Y-19100D01*
X36176Y-19199D01*
X36176Y-19549D01*
X36214Y-19641D01*
X36273Y-19700D01*
X36214Y-19759D01*
X36176Y-19850D01*
X36176Y-19949D01*
X36176Y-20299D01*
X36214Y-20391D01*
X36284Y-20461D01*
X36295Y-20465D01*
X36275Y-20515D01*
X36275Y-20684D01*
X36339Y-20840D01*
X36459Y-20960D01*
X36615Y-21025D01*
X36784Y-21025D01*
X36940Y-20961D01*
X37060Y-20841D01*
X37125Y-20685D01*
X37125Y-20516D01*
X37104Y-20465D01*
X37116Y-20461D01*
X37186Y-20391D01*
X37224Y-20300D01*
X37224Y-20201D01*
X37224Y-19851D01*
X37186Y-19759D01*
X37127Y-19700D01*
X37186Y-19641D01*
X37224Y-19550D01*
X37224Y-19451D01*
X37224Y-19101D01*
X37186Y-19009D01*
X37116Y-18939D01*
X37025Y-18901D01*
X36990Y-18901D01*
X36990Y-18600D01*
X36990Y-18499D01*
X37024Y-18499D01*
X37116Y-18461D01*
X37186Y-18391D01*
X37224Y-18300D01*
X37224Y-18201D01*
X37224Y-17851D01*
X37186Y-17759D01*
X37127Y-17700D01*
X37186Y-17641D01*
X37224Y-17550D01*
X37224Y-17451D01*
X37224Y-17101D01*
X37186Y-17009D01*
X37116Y-16939D01*
X37104Y-16934D01*
X37125Y-16885D01*
X37125Y-16716D01*
X37069Y-16580D01*
X37116Y-16561D01*
X37186Y-16491D01*
X37186Y-16490D01*
X38423Y-16490D01*
X38414Y-16494D01*
X38344Y-16564D01*
X38306Y-16655D01*
X38306Y-16754D01*
X38306Y-17344D01*
X38344Y-17436D01*
X38414Y-17506D01*
X38505Y-17544D01*
X38604Y-17544D01*
X39194Y-17544D01*
X39286Y-17506D01*
X39356Y-17436D01*
X39394Y-17345D01*
X39394Y-17313D01*
X39542Y-17461D01*
X39742Y-17544D01*
X39958Y-17544D01*
X40158Y-17461D01*
X40311Y-17308D01*
X40350Y-17214D01*
X40389Y-17308D01*
X40542Y-17461D01*
X40742Y-17544D01*
X40958Y-17544D01*
X41158Y-17461D01*
X41311Y-17308D01*
X41350Y-17214D01*
X41389Y-17308D01*
X41542Y-17461D01*
X41728Y-17538D01*
X41895Y-17705D01*
X41989Y-17768D01*
X42100Y-17790D01*
X47850Y-17790D01*
X47961Y-17768D01*
X48055Y-17705D01*
X48223Y-17536D01*
X48242Y-17544D01*
X48458Y-17544D01*
X48658Y-17461D01*
X48811Y-17308D01*
X48894Y-17108D01*
X48894Y-16892D01*
X48811Y-16692D01*
X48689Y-16570D01*
X48723Y-16536D01*
X48742Y-16544D01*
X48958Y-16544D01*
X49158Y-16461D01*
X49311Y-16308D01*
X49394Y-16108D01*
X49394Y-15892D01*
X49311Y-15692D01*
X49158Y-15539D01*
X48958Y-15456D01*
X48742Y-15456D01*
X48542Y-15539D01*
X48389Y-15692D01*
X48350Y-15785D01*
X48311Y-15692D01*
X48158Y-15539D01*
X47958Y-15456D01*
X47742Y-15456D01*
X47723Y-15463D01*
X47555Y-15295D01*
X47461Y-15232D01*
X47350Y-15210D01*
X41700Y-15210D01*
X41589Y-15232D01*
X41495Y-15295D01*
X41494Y-15295D01*
X41494Y-15296D01*
X41334Y-15456D01*
X41242Y-15456D01*
X41042Y-15539D01*
X40889Y-15692D01*
X40850Y-15785D01*
X40811Y-15692D01*
X40658Y-15539D01*
X40458Y-15456D01*
X40242Y-15456D01*
X40042Y-15539D01*
X39889Y-15692D01*
X39850Y-15785D01*
X39811Y-15692D01*
X39658Y-15539D01*
X39458Y-15456D01*
X39242Y-15456D01*
X39042Y-15539D01*
X38889Y-15692D01*
X38881Y-15710D01*
X37415Y-15710D01*
X37405Y-15695D01*
X37305Y-15595D01*
X37224Y-15540D01*
X37224Y-15201D01*
X37186Y-15109D01*
X37116Y-15039D01*
X37025Y-15001D01*
X36926Y-15001D01*
X36376Y-15001D01*
X36284Y-15039D01*
X36214Y-15109D01*
X36176Y-15200D01*
X36176Y-15299D01*
X36176Y-15614D01*
X35806Y-15983D01*
X35707Y-15983D01*
X34841Y-15983D01*
X34749Y-16021D01*
X34679Y-16091D01*
X34641Y-16182D01*
X34641Y-16281D01*
X34641Y-16517D01*
X34675Y-16599D01*
X34641Y-16682D01*
X34641Y-16781D01*
X34641Y-17017D01*
X34675Y-17099D01*
X34641Y-17182D01*
X34641Y-17281D01*
X34641Y-17517D01*
X34679Y-17609D01*
X34749Y-17679D01*
X34840Y-17717D01*
X34939Y-17717D01*
X35033Y-17717D01*
X35033Y-18310D01*
X34525Y-18310D01*
X34525Y-18216D01*
X34461Y-18060D01*
X34341Y-17940D01*
X34185Y-17875D01*
X34016Y-17875D01*
X33860Y-17939D01*
X33789Y-18010D01*
X32940Y-18010D01*
X32940Y-18000D01*
X32918Y-17889D01*
X32855Y-17795D01*
X32765Y-17705D01*
X32793Y-17717D01*
X32892Y-17717D01*
X33758Y-17717D01*
X33850Y-17679D01*
X33920Y-17609D01*
X33958Y-17518D01*
X33958Y-17419D01*
X33958Y-17194D01*
X34040Y-17161D01*
X34160Y-17041D01*
X34225Y-16885D01*
X34225Y-16716D01*
X34161Y-16560D01*
X34041Y-16440D01*
X33958Y-16405D01*
X33958Y-16183D01*
X33923Y-16100D01*
X33958Y-16018D01*
X33958Y-15919D01*
X33958Y-15683D01*
X33920Y-15591D01*
X33850Y-15521D01*
X33759Y-15483D01*
X33660Y-15483D01*
X32794Y-15483D01*
X32725Y-15511D01*
X32725Y-15416D01*
X32661Y-15260D01*
X32541Y-15140D01*
X32385Y-15075D01*
X32216Y-15075D01*
X32165Y-15095D01*
X32161Y-15084D01*
X32091Y-15014D01*
X32000Y-14976D01*
X31901Y-14976D01*
X31551Y-14976D01*
X31459Y-15014D01*
X31389Y-15084D01*
X31351Y-15175D01*
X31351Y-15274D01*
X31351Y-15824D01*
X31351Y-15825D01*
X31196Y-15825D01*
X31003Y-15905D01*
X30855Y-16052D01*
X30775Y-16245D01*
X30775Y-16454D01*
X30855Y-16647D01*
X31002Y-16795D01*
X31014Y-16800D01*
X31003Y-16805D01*
X30855Y-16952D01*
X30775Y-17145D01*
X30775Y-17354D01*
X30855Y-17547D01*
X31002Y-17695D01*
X31195Y-17775D01*
X31404Y-17775D01*
X31597Y-17695D01*
X31678Y-17614D01*
X31689Y-17640D01*
X31809Y-17760D01*
X31965Y-17825D01*
X32065Y-17825D01*
X32360Y-18120D01*
X32360Y-18300D01*
X32360Y-19205D01*
X32014Y-19551D01*
X31676Y-19551D01*
X31600Y-19582D01*
X31525Y-19551D01*
X31426Y-19551D01*
X30876Y-19551D01*
X30784Y-19589D01*
X30728Y-19644D01*
X30792Y-19491D01*
X30792Y-19266D01*
X30706Y-19058D01*
X30547Y-18899D01*
X30515Y-18885D01*
X30547Y-18873D01*
X30676Y-18744D01*
X30676Y-18774D01*
X30714Y-18866D01*
X30784Y-18936D01*
X30875Y-18974D01*
X30974Y-18974D01*
X31332Y-18974D01*
X31339Y-18990D01*
X31459Y-19110D01*
X31615Y-19175D01*
X31784Y-19175D01*
X31940Y-19111D01*
X32060Y-18991D01*
X32125Y-18835D01*
X32125Y-18666D01*
X32061Y-18510D01*
X31941Y-18390D01*
X31785Y-18325D01*
X31625Y-18325D01*
X31564Y-18312D01*
X31516Y-18264D01*
X31425Y-18226D01*
X31326Y-18226D01*
X30876Y-18226D01*
X30784Y-18263D01*
X30706Y-18074D01*
X30631Y-17999D01*
X30705Y-17926D01*
X30791Y-17719D01*
X30791Y-17494D01*
X30705Y-17286D01*
X30546Y-17127D01*
X30339Y-17041D01*
X30114Y-17041D01*
X29944Y-17111D01*
X29944Y-17006D01*
X29861Y-16806D01*
X29708Y-16653D01*
X29577Y-16598D01*
X29900Y-16466D01*
X30148Y-16218D01*
X30283Y-15893D01*
X30283Y-15542D01*
X30149Y-15217D01*
X29901Y-14969D01*
X29795Y-14925D01*
X50225Y-14925D01*
X50225Y-18919D01*
X49986Y-18680D01*
X49631Y-18533D01*
X49246Y-18533D01*
X48891Y-18680D01*
X48618Y-18952D01*
X48471Y-19307D01*
X48471Y-19692D01*
X48618Y-20047D01*
X48890Y-20320D01*
X49245Y-20467D01*
X49630Y-20467D01*
X49985Y-20320D01*
X50225Y-20080D01*
X50225Y-21075D01*
X50225Y-21075D01*
G37*
G54D24*
X50225Y-21075D02*
X45732Y-21075D01*
X45732Y-19693D01*
X45732Y-19308D01*
X45585Y-18953D01*
X45313Y-18680D01*
X44958Y-18533D01*
X44573Y-18533D01*
X44218Y-18680D01*
X43945Y-18952D01*
X43851Y-19178D01*
X43758Y-18953D01*
X43486Y-18680D01*
X43131Y-18533D01*
X42746Y-18533D01*
X42391Y-18680D01*
X42118Y-18952D01*
X41971Y-19307D01*
X41971Y-19692D01*
X42118Y-20047D01*
X42390Y-20320D01*
X42745Y-20467D01*
X43130Y-20467D01*
X43485Y-20320D01*
X43758Y-20048D01*
X43851Y-19821D01*
X43945Y-20047D01*
X44217Y-20320D01*
X44572Y-20467D01*
X44957Y-20467D01*
X45312Y-20320D01*
X45585Y-20048D01*
X45732Y-19693D01*
X45732Y-21075D01*
X39232Y-21075D01*
X39232Y-19693D01*
X39232Y-19308D01*
X39085Y-18953D01*
X38813Y-18680D01*
X38458Y-18533D01*
X38073Y-18533D01*
X37718Y-18680D01*
X37445Y-18952D01*
X37298Y-19307D01*
X37298Y-19692D01*
X37445Y-20047D01*
X37717Y-20320D01*
X38072Y-20467D01*
X38457Y-20467D01*
X38812Y-20320D01*
X39085Y-20048D01*
X39232Y-19693D01*
X39232Y-21075D01*
X32224Y-21075D01*
X32297Y-21045D01*
X32445Y-20898D01*
X32525Y-20705D01*
X32525Y-20496D01*
X32453Y-20323D01*
X32486Y-20291D01*
X32524Y-20200D01*
X32524Y-20101D01*
X32524Y-19861D01*
X32855Y-19530D01*
X32918Y-19436D01*
X32940Y-19325D01*
X32940Y-18590D01*
X33789Y-18590D01*
X33812Y-18613D01*
X33832Y-18711D01*
X33895Y-18805D01*
X33989Y-18868D01*
X34100Y-18890D01*
X34176Y-18890D01*
X34176Y-19199D01*
X34214Y-19291D01*
X34284Y-19361D01*
X34375Y-19399D01*
X34398Y-19399D01*
X34459Y-19460D01*
X34615Y-19525D01*
X34784Y-19525D01*
X34940Y-19461D01*
X35002Y-19399D01*
X35024Y-19399D01*
X35116Y-19361D01*
X35186Y-19291D01*
X35224Y-19200D01*
X35224Y-19101D01*
X35224Y-18890D01*
X35289Y-18890D01*
X35300Y-18890D01*
X36410Y-18890D01*
X36410Y-18901D01*
X36376Y-18901D01*
X36284Y-18939D01*
X36214Y-19009D01*
X36176Y-19100D01*
X36176Y-19199D01*
X36176Y-19549D01*
X36214Y-19641D01*
X36273Y-19700D01*
X36214Y-19759D01*
X36176Y-19850D01*
X36176Y-19949D01*
X36176Y-20299D01*
X36214Y-20391D01*
X36284Y-20461D01*
X36295Y-20465D01*
X36275Y-20515D01*
X36275Y-20684D01*
X36339Y-20840D01*
X36459Y-20960D01*
X36615Y-21025D01*
X36784Y-21025D01*
X36940Y-20961D01*
X37060Y-20841D01*
X37125Y-20685D01*
X37125Y-20516D01*
X37104Y-20465D01*
X37116Y-20461D01*
X37186Y-20391D01*
X37224Y-20300D01*
X37224Y-20201D01*
X37224Y-19851D01*
X37186Y-19759D01*
X37127Y-19700D01*
X37186Y-19641D01*
X37224Y-19550D01*
X37224Y-19451D01*
X37224Y-19101D01*
X37186Y-19009D01*
X37116Y-18939D01*
X37025Y-18901D01*
X36990Y-18901D01*
X36990Y-18600D01*
X36990Y-18499D01*
X37024Y-18499D01*
X37116Y-18461D01*
X37186Y-18391D01*
X37224Y-18300D01*
X37224Y-18201D01*
X37224Y-17851D01*
X37186Y-17759D01*
X37127Y-17700D01*
X37186Y-17641D01*
X37224Y-17550D01*
X37224Y-17451D01*
X37224Y-17101D01*
X37186Y-17009D01*
X37116Y-16939D01*
X37104Y-16934D01*
X37125Y-16885D01*
X37125Y-16716D01*
X37069Y-16580D01*
X37116Y-16561D01*
X37186Y-16491D01*
X37186Y-16490D01*
X38423Y-16490D01*
X38414Y-16494D01*
X38344Y-16564D01*
X38306Y-16655D01*
X38306Y-16754D01*
X38306Y-17344D01*
X38344Y-17436D01*
X38414Y-17506D01*
X38505Y-17544D01*
X38604Y-17544D01*
X39194Y-17544D01*
X39286Y-17506D01*
X39356Y-17436D01*
X39394Y-17345D01*
X39394Y-17313D01*
X39542Y-17461D01*
X39742Y-17544D01*
X39958Y-17544D01*
X40158Y-17461D01*
X40311Y-17308D01*
X40350Y-17214D01*
X40389Y-17308D01*
X40542Y-17461D01*
X40742Y-17544D01*
X40958Y-17544D01*
X41158Y-17461D01*
X41311Y-17308D01*
X41350Y-17214D01*
X41389Y-17308D01*
X41542Y-17461D01*
X41728Y-17538D01*
X41895Y-17705D01*
X41989Y-17768D01*
X42100Y-17790D01*
X47850Y-17790D01*
X47961Y-17768D01*
X48055Y-17705D01*
X48223Y-17536D01*
X48242Y-17544D01*
X48458Y-17544D01*
X48658Y-17461D01*
X48811Y-17308D01*
X48894Y-17108D01*
X48894Y-16892D01*
X48811Y-16692D01*
X48689Y-16570D01*
X48723Y-16536D01*
X48742Y-16544D01*
X48958Y-16544D01*
X49158Y-16461D01*
X49311Y-16308D01*
X49394Y-16108D01*
X49394Y-15892D01*
X49311Y-15692D01*
X49158Y-15539D01*
X48958Y-15456D01*
X48742Y-15456D01*
X48542Y-15539D01*
X48389Y-15692D01*
X48350Y-15785D01*
X48311Y-15692D01*
X48158Y-15539D01*
X47958Y-15456D01*
X47742Y-15456D01*
X47723Y-15463D01*
X47555Y-15295D01*
X47461Y-15232D01*
X47350Y-15210D01*
X41700Y-15210D01*
X41589Y-15232D01*
X41495Y-15295D01*
X41494Y-15295D01*
X41494Y-15296D01*
X41334Y-15456D01*
X41242Y-15456D01*
X41042Y-15539D01*
X40889Y-15692D01*
X40850Y-15785D01*
X40811Y-15692D01*
X40658Y-15539D01*
X40458Y-15456D01*
X40242Y-15456D01*
X40042Y-15539D01*
X39889Y-15692D01*
X39850Y-15785D01*
X39811Y-15692D01*
X39658Y-15539D01*
X39458Y-15456D01*
X39242Y-15456D01*
X39042Y-15539D01*
X38889Y-15692D01*
X38881Y-15710D01*
X37415Y-15710D01*
X37405Y-15695D01*
X37305Y-15595D01*
X37224Y-15540D01*
X37224Y-15201D01*
X37186Y-15109D01*
X37116Y-15039D01*
X37025Y-15001D01*
X36926Y-15001D01*
X36376Y-15001D01*
X36284Y-15039D01*
X36214Y-15109D01*
X36176Y-15200D01*
X36176Y-15299D01*
X36176Y-15614D01*
X35806Y-15983D01*
X35707Y-15983D01*
X34841Y-15983D01*
X34749Y-16021D01*
X34679Y-16091D01*
X34641Y-16182D01*
X34641Y-16281D01*
X34641Y-16517D01*
X34675Y-16599D01*
X34641Y-16682D01*
X34641Y-16781D01*
X34641Y-17017D01*
X34675Y-17099D01*
X34641Y-17182D01*
X34641Y-17281D01*
X34641Y-17517D01*
X34679Y-17609D01*
X34749Y-17679D01*
X34840Y-17717D01*
X34939Y-17717D01*
X35033Y-17717D01*
X35033Y-18310D01*
X34525Y-18310D01*
X34525Y-18216D01*
X34461Y-18060D01*
X34341Y-17940D01*
X34185Y-17875D01*
X34016Y-17875D01*
X33860Y-17939D01*
X33789Y-18010D01*
X32940Y-18010D01*
X32940Y-18000D01*
X32918Y-17889D01*
X32855Y-17795D01*
X32765Y-17705D01*
X32793Y-17717D01*
X32892Y-17717D01*
X33758Y-17717D01*
X33850Y-17679D01*
X33920Y-17609D01*
X33958Y-17518D01*
X33958Y-17419D01*
X33958Y-17194D01*
X34040Y-17161D01*
X34160Y-17041D01*
X34225Y-16885D01*
X34225Y-16716D01*
X34161Y-16560D01*
X34041Y-16440D01*
X33958Y-16405D01*
X33958Y-16183D01*
X33923Y-16100D01*
X33958Y-16018D01*
X33958Y-15919D01*
X33958Y-15683D01*
X33920Y-15591D01*
X33850Y-15521D01*
X33759Y-15483D01*
X33660Y-15483D01*
X32794Y-15483D01*
X32725Y-15511D01*
X32725Y-15416D01*
X32661Y-15260D01*
X32541Y-15140D01*
X32385Y-15075D01*
X32216Y-15075D01*
X32165Y-15095D01*
X32161Y-15084D01*
X32091Y-15014D01*
X32000Y-14976D01*
X31901Y-14976D01*
X31551Y-14976D01*
X31459Y-15014D01*
X31389Y-15084D01*
X31351Y-15175D01*
X31351Y-15274D01*
X31351Y-15824D01*
X31351Y-15825D01*
X31196Y-15825D01*
X31003Y-15905D01*
X30855Y-16052D01*
X30775Y-16245D01*
X30775Y-16454D01*
X30855Y-16647D01*
X31002Y-16795D01*
X31014Y-16800D01*
X31003Y-16805D01*
X30855Y-16952D01*
X30775Y-17145D01*
X30775Y-17354D01*
X30855Y-17547D01*
X31002Y-17695D01*
X31195Y-17775D01*
X31404Y-17775D01*
X31597Y-17695D01*
X31678Y-17614D01*
X31689Y-17640D01*
X31809Y-17760D01*
X31965Y-17825D01*
X32065Y-17825D01*
X32360Y-18120D01*
X32360Y-18300D01*
X32360Y-19205D01*
X32014Y-19551D01*
X31676Y-19551D01*
X31600Y-19582D01*
X31525Y-19551D01*
X31426Y-19551D01*
X30876Y-19551D01*
X30784Y-19589D01*
X30728Y-19644D01*
X30792Y-19491D01*
X30792Y-19266D01*
X30706Y-19058D01*
X30547Y-18899D01*
X30515Y-18885D01*
X30547Y-18873D01*
X30676Y-18744D01*
X30676Y-18774D01*
X30714Y-18866D01*
X30784Y-18936D01*
X30875Y-18974D01*
X30974Y-18974D01*
X31332Y-18974D01*
X31339Y-18990D01*
X31459Y-19110D01*
X31615Y-19175D01*
X31784Y-19175D01*
X31940Y-19111D01*
X32060Y-18991D01*
X32125Y-18835D01*
X32125Y-18666D01*
X32061Y-18510D01*
X31941Y-18390D01*
X31785Y-18325D01*
X31625Y-18325D01*
X31564Y-18312D01*
X31516Y-18264D01*
X31425Y-18226D01*
X31326Y-18226D01*
X30876Y-18226D01*
X30784Y-18263D01*
X30706Y-18074D01*
X30631Y-17999D01*
X30705Y-17926D01*
X30791Y-17719D01*
X30791Y-17494D01*
X30705Y-17286D01*
X30546Y-17127D01*
X30339Y-17041D01*
X30114Y-17041D01*
X29944Y-17111D01*
X29944Y-17006D01*
X29861Y-16806D01*
X29708Y-16653D01*
X29577Y-16598D01*
X29900Y-16466D01*
X30148Y-16218D01*
X30283Y-15893D01*
X30283Y-15542D01*
X30149Y-15217D01*
X29901Y-14969D01*
X29795Y-14925D01*
X50225Y-14925D01*
X50225Y-18919D01*
X49986Y-18680D01*
X49631Y-18533D01*
X49246Y-18533D01*
X48891Y-18680D01*
X48618Y-18952D01*
X48471Y-19307D01*
X48471Y-19692D01*
X48618Y-20047D01*
X48890Y-20320D01*
X49245Y-20467D01*
X49630Y-20467D01*
X49985Y-20320D01*
X50225Y-20080D01*
X50225Y-21075D01*
M02*
