M48
;DRILL file {PCBnew (2011-07-08)-stable} date Fri 25 Nov 2011 09:09:54 PM EST
;FORMAT={-:-/ absolute / inch / decimal}
FMAT,2
INCH,TZ
T1C0.025
T2C0.032
T3C0.035
T4C0.036
T5C0.043
T6C0.098
T7C0.128
%
G90
G05
M72
T1
X3.170Y1.780
X3.170Y1.875
X3.205Y1.740
X3.225Y1.645
X3.230Y1.550
X3.380Y1.680
X3.410Y1.830
X3.435Y1.735
X3.470Y1.910
X3.670Y1.680
X3.670Y2.060
T2
X3.090Y2.060
X3.130Y1.635
X3.130Y1.725
X3.200Y2.060
T3
X3.885Y1.700
X3.935Y1.600
X3.985Y1.700
X4.035Y1.600
X4.085Y1.700
X4.135Y1.600
X4.185Y1.700
X4.235Y1.600
X4.535Y1.700
X4.585Y1.600
X4.635Y1.700
X4.685Y1.600
X4.735Y1.700
X4.785Y1.600
X4.835Y1.700
X4.885Y1.600
T4
X3.023Y1.662
X3.023Y1.761
X3.023Y1.839
X3.023Y1.938
T5
X2.940Y1.711
X2.940Y1.889
T6
X2.940Y1.572
X2.940Y2.028
T7
X3.827Y1.950
X4.294Y1.950
X4.477Y1.950
X4.944Y1.950
T0
M30
