G04 (created by PCBNEW-RS274X (2011-07-08)-stable) date Wed 10 Aug 2011 10:39:09 PM EDT*
G01*
G70*
G90*
%MOIN*%
G04 Gerber Fmt 3.4, Leading zero omitted, Abs format*
%FSLAX34Y34*%
G04 APERTURE LIST*
%ADD10C,0.006000*%
%ADD11R,0.062900X0.070900*%
%ADD12R,0.019700X0.019700*%
%ADD13R,0.078700X0.017700*%
%ADD14R,0.017700X0.078700*%
G04 APERTURE END LIST*
G54D10*
G54D11*
X23541Y-31000D03*
X24659Y-31000D03*
X23541Y-30000D03*
X24659Y-30000D03*
X23541Y-29000D03*
X24659Y-29000D03*
X23541Y-28000D03*
X24659Y-28000D03*
X15241Y-28000D03*
X16359Y-28000D03*
G54D12*
X17601Y-33500D03*
X17199Y-33500D03*
X21101Y-31900D03*
X20699Y-31900D03*
X16999Y-28000D03*
X17401Y-28000D03*
X15700Y-29501D03*
X15700Y-29099D03*
X14200Y-30201D03*
X14200Y-29799D03*
X14600Y-30201D03*
X14600Y-29799D03*
X17500Y-29501D03*
X17500Y-29099D03*
X17000Y-29501D03*
X17000Y-29099D03*
X14600Y-28299D03*
X14600Y-28701D03*
X14200Y-28299D03*
X14200Y-28701D03*
G54D13*
X18604Y-27907D03*
X18604Y-28222D03*
X18604Y-28537D03*
X18604Y-28852D03*
X18604Y-29167D03*
X18604Y-29482D03*
X18604Y-29797D03*
X18604Y-30112D03*
X22370Y-30110D03*
X22370Y-27900D03*
X22370Y-28220D03*
X22370Y-28540D03*
X22370Y-28850D03*
X22370Y-29170D03*
X22370Y-29480D03*
X22370Y-29800D03*
G54D14*
X19388Y-30900D03*
X19702Y-30900D03*
X20018Y-30900D03*
X20332Y-30900D03*
X20648Y-30900D03*
X20962Y-30900D03*
X21278Y-30900D03*
X21592Y-30900D03*
X19390Y-27120D03*
X19700Y-27120D03*
X20020Y-27120D03*
X20330Y-27120D03*
X20640Y-27120D03*
X20960Y-27120D03*
X21280Y-27120D03*
X21600Y-27120D03*
M02*
