G04 (created by PCBNEW-RS274X (2011-07-08)-stable) date Wed 23 Nov 2011 11:36:48 PM EST*
G01*
G70*
G90*
%MOIN*%
G04 Gerber Fmt 3.4, Leading zero omitted, Abs format*
%FSLAX34Y34*%
G04 APERTURE LIST*
%ADD10C,0.006000*%
%ADD11C,0.006300*%
%ADD12C,0.007500*%
%ADD13C,0.015000*%
%ADD14C,0.010000*%
%ADD15C,0.012000*%
%ADD16C,0.003000*%
%ADD17C,0.007000*%
%ADD18C,0.005000*%
G04 APERTURE END LIST*
G54D10*
X14696Y-27780D02*
X14685Y-27792D01*
X14649Y-27816D01*
X14625Y-27828D01*
X14589Y-27840D01*
X14530Y-27851D01*
X14482Y-27851D01*
X14423Y-27840D01*
X14387Y-27828D01*
X14363Y-27816D01*
X14327Y-27792D01*
X14315Y-27780D01*
X14577Y-27542D02*
X14589Y-27554D01*
X14601Y-27589D01*
X14601Y-27613D01*
X14589Y-27649D01*
X14565Y-27673D01*
X14542Y-27684D01*
X14494Y-27696D01*
X14458Y-27696D01*
X14411Y-27684D01*
X14387Y-27673D01*
X14363Y-27649D01*
X14351Y-27613D01*
X14351Y-27589D01*
X14363Y-27554D01*
X14375Y-27542D01*
X14375Y-27446D02*
X14363Y-27434D01*
X14351Y-27411D01*
X14351Y-27351D01*
X14363Y-27327D01*
X14375Y-27315D01*
X14399Y-27304D01*
X14423Y-27304D01*
X14458Y-27315D01*
X14601Y-27458D01*
X14601Y-27304D01*
X14696Y-27220D02*
X14685Y-27208D01*
X14649Y-27185D01*
X14625Y-27173D01*
X14589Y-27161D01*
X14530Y-27149D01*
X14482Y-27149D01*
X14423Y-27161D01*
X14387Y-27173D01*
X14363Y-27185D01*
X14327Y-27208D01*
X14315Y-27220D01*
X14196Y-27780D02*
X14185Y-27792D01*
X14149Y-27816D01*
X14125Y-27828D01*
X14089Y-27840D01*
X14030Y-27851D01*
X13982Y-27851D01*
X13923Y-27840D01*
X13887Y-27828D01*
X13863Y-27816D01*
X13827Y-27792D01*
X13815Y-27780D01*
X14077Y-27542D02*
X14089Y-27554D01*
X14101Y-27589D01*
X14101Y-27613D01*
X14089Y-27649D01*
X14065Y-27673D01*
X14042Y-27684D01*
X13994Y-27696D01*
X13958Y-27696D01*
X13911Y-27684D01*
X13887Y-27673D01*
X13863Y-27649D01*
X13851Y-27613D01*
X13851Y-27589D01*
X13863Y-27554D01*
X13875Y-27542D01*
X14101Y-27304D02*
X14101Y-27446D01*
X14101Y-27375D02*
X13851Y-27375D01*
X13887Y-27399D01*
X13911Y-27423D01*
X13923Y-27446D01*
X14196Y-27220D02*
X14185Y-27208D01*
X14149Y-27185D01*
X14125Y-27173D01*
X14089Y-27161D01*
X14030Y-27149D01*
X13982Y-27149D01*
X13923Y-27161D01*
X13887Y-27173D01*
X13863Y-27185D01*
X13827Y-27208D01*
X13815Y-27220D01*
X15496Y-29580D02*
X15485Y-29592D01*
X15449Y-29616D01*
X15425Y-29628D01*
X15389Y-29640D01*
X15330Y-29651D01*
X15282Y-29651D01*
X15223Y-29640D01*
X15187Y-29628D01*
X15163Y-29616D01*
X15127Y-29592D01*
X15115Y-29580D01*
X15377Y-29342D02*
X15389Y-29354D01*
X15401Y-29389D01*
X15401Y-29413D01*
X15389Y-29449D01*
X15365Y-29473D01*
X15342Y-29484D01*
X15294Y-29496D01*
X15258Y-29496D01*
X15211Y-29484D01*
X15187Y-29473D01*
X15163Y-29449D01*
X15151Y-29413D01*
X15151Y-29389D01*
X15163Y-29354D01*
X15175Y-29342D01*
X15258Y-29199D02*
X15246Y-29223D01*
X15235Y-29234D01*
X15211Y-29246D01*
X15199Y-29246D01*
X15175Y-29234D01*
X15163Y-29223D01*
X15151Y-29199D01*
X15151Y-29151D01*
X15163Y-29127D01*
X15175Y-29115D01*
X15199Y-29104D01*
X15211Y-29104D01*
X15235Y-29115D01*
X15246Y-29127D01*
X15258Y-29151D01*
X15258Y-29199D01*
X15270Y-29223D01*
X15282Y-29234D01*
X15306Y-29246D01*
X15354Y-29246D01*
X15377Y-29234D01*
X15389Y-29223D01*
X15401Y-29199D01*
X15401Y-29151D01*
X15389Y-29127D01*
X15377Y-29115D01*
X15354Y-29104D01*
X15306Y-29104D01*
X15282Y-29115D01*
X15270Y-29127D01*
X15258Y-29151D01*
X15496Y-29020D02*
X15485Y-29008D01*
X15449Y-28985D01*
X15425Y-28973D01*
X15389Y-28961D01*
X15330Y-28949D01*
X15282Y-28949D01*
X15223Y-28961D01*
X15187Y-28973D01*
X15163Y-28985D01*
X15127Y-29008D01*
X15115Y-29020D01*
X14996Y-31080D02*
X14985Y-31092D01*
X14949Y-31116D01*
X14925Y-31128D01*
X14889Y-31140D01*
X14830Y-31151D01*
X14782Y-31151D01*
X14723Y-31140D01*
X14687Y-31128D01*
X14663Y-31116D01*
X14627Y-31092D01*
X14615Y-31080D01*
X14877Y-30842D02*
X14889Y-30854D01*
X14901Y-30889D01*
X14901Y-30913D01*
X14889Y-30949D01*
X14865Y-30973D01*
X14842Y-30984D01*
X14794Y-30996D01*
X14758Y-30996D01*
X14711Y-30984D01*
X14687Y-30973D01*
X14663Y-30949D01*
X14651Y-30913D01*
X14651Y-30889D01*
X14663Y-30854D01*
X14675Y-30842D01*
X14651Y-30627D02*
X14651Y-30675D01*
X14663Y-30699D01*
X14675Y-30711D01*
X14711Y-30734D01*
X14758Y-30746D01*
X14854Y-30746D01*
X14877Y-30734D01*
X14889Y-30723D01*
X14901Y-30699D01*
X14901Y-30651D01*
X14889Y-30627D01*
X14877Y-30615D01*
X14854Y-30604D01*
X14794Y-30604D01*
X14770Y-30615D01*
X14758Y-30627D01*
X14746Y-30651D01*
X14746Y-30699D01*
X14758Y-30723D01*
X14770Y-30734D01*
X14794Y-30746D01*
X14996Y-30520D02*
X14985Y-30508D01*
X14949Y-30485D01*
X14925Y-30473D01*
X14889Y-30461D01*
X14830Y-30449D01*
X14782Y-30449D01*
X14723Y-30461D01*
X14687Y-30473D01*
X14663Y-30485D01*
X14627Y-30508D01*
X14615Y-30520D01*
X15320Y-28696D02*
X15308Y-28685D01*
X15284Y-28649D01*
X15272Y-28625D01*
X15260Y-28589D01*
X15249Y-28530D01*
X15249Y-28482D01*
X15260Y-28423D01*
X15272Y-28387D01*
X15284Y-28363D01*
X15308Y-28327D01*
X15320Y-28315D01*
X15416Y-28601D02*
X15416Y-28351D01*
X15475Y-28351D01*
X15511Y-28363D01*
X15535Y-28387D01*
X15546Y-28411D01*
X15558Y-28458D01*
X15558Y-28494D01*
X15546Y-28542D01*
X15535Y-28565D01*
X15511Y-28589D01*
X15475Y-28601D01*
X15416Y-28601D01*
X15796Y-28601D02*
X15654Y-28601D01*
X15725Y-28601D02*
X15725Y-28351D01*
X15701Y-28387D01*
X15677Y-28411D01*
X15654Y-28423D01*
X15880Y-28696D02*
X15892Y-28685D01*
X15915Y-28649D01*
X15927Y-28625D01*
X15939Y-28589D01*
X15951Y-28530D01*
X15951Y-28482D01*
X15939Y-28423D01*
X15927Y-28387D01*
X15915Y-28363D01*
X15892Y-28327D01*
X15880Y-28315D01*
X16920Y-30096D02*
X16908Y-30085D01*
X16884Y-30049D01*
X16872Y-30025D01*
X16860Y-29989D01*
X16849Y-29930D01*
X16849Y-29882D01*
X16860Y-29823D01*
X16872Y-29787D01*
X16884Y-29763D01*
X16908Y-29727D01*
X16920Y-29715D01*
X17158Y-29977D02*
X17146Y-29989D01*
X17111Y-30001D01*
X17087Y-30001D01*
X17051Y-29989D01*
X17027Y-29965D01*
X17016Y-29942D01*
X17004Y-29894D01*
X17004Y-29858D01*
X17016Y-29811D01*
X17027Y-29787D01*
X17051Y-29763D01*
X17087Y-29751D01*
X17111Y-29751D01*
X17146Y-29763D01*
X17158Y-29775D01*
X17385Y-29751D02*
X17266Y-29751D01*
X17254Y-29870D01*
X17266Y-29858D01*
X17289Y-29846D01*
X17349Y-29846D01*
X17373Y-29858D01*
X17385Y-29870D01*
X17396Y-29894D01*
X17396Y-29954D01*
X17385Y-29977D01*
X17373Y-29989D01*
X17349Y-30001D01*
X17289Y-30001D01*
X17266Y-29989D01*
X17254Y-29977D01*
X17480Y-30096D02*
X17492Y-30085D01*
X17515Y-30049D01*
X17527Y-30025D01*
X17539Y-29989D01*
X17551Y-29930D01*
X17551Y-29882D01*
X17539Y-29823D01*
X17527Y-29787D01*
X17515Y-29763D01*
X17492Y-29727D01*
X17480Y-29715D01*
X14296Y-31080D02*
X14285Y-31092D01*
X14249Y-31116D01*
X14225Y-31128D01*
X14189Y-31140D01*
X14130Y-31151D01*
X14082Y-31151D01*
X14023Y-31140D01*
X13987Y-31128D01*
X13963Y-31116D01*
X13927Y-31092D01*
X13915Y-31080D01*
X14177Y-30842D02*
X14189Y-30854D01*
X14201Y-30889D01*
X14201Y-30913D01*
X14189Y-30949D01*
X14165Y-30973D01*
X14142Y-30984D01*
X14094Y-30996D01*
X14058Y-30996D01*
X14011Y-30984D01*
X13987Y-30973D01*
X13963Y-30949D01*
X13951Y-30913D01*
X13951Y-30889D01*
X13963Y-30854D01*
X13975Y-30842D01*
X13951Y-30758D02*
X13951Y-30592D01*
X14201Y-30699D01*
X14296Y-30520D02*
X14285Y-30508D01*
X14249Y-30485D01*
X14225Y-30473D01*
X14189Y-30461D01*
X14130Y-30449D01*
X14082Y-30449D01*
X14023Y-30461D01*
X13987Y-30473D01*
X13963Y-30485D01*
X13927Y-30508D01*
X13915Y-30520D01*
X16820Y-28896D02*
X16808Y-28885D01*
X16784Y-28849D01*
X16772Y-28825D01*
X16760Y-28789D01*
X16749Y-28730D01*
X16749Y-28682D01*
X16760Y-28623D01*
X16772Y-28587D01*
X16784Y-28563D01*
X16808Y-28527D01*
X16820Y-28515D01*
X17058Y-28777D02*
X17046Y-28789D01*
X17011Y-28801D01*
X16987Y-28801D01*
X16951Y-28789D01*
X16927Y-28765D01*
X16916Y-28742D01*
X16904Y-28694D01*
X16904Y-28658D01*
X16916Y-28611D01*
X16927Y-28587D01*
X16951Y-28563D01*
X16987Y-28551D01*
X17011Y-28551D01*
X17046Y-28563D01*
X17058Y-28575D01*
X17273Y-28635D02*
X17273Y-28801D01*
X17213Y-28539D02*
X17154Y-28718D01*
X17308Y-28718D01*
X17380Y-28896D02*
X17392Y-28885D01*
X17415Y-28849D01*
X17427Y-28825D01*
X17439Y-28789D01*
X17451Y-28730D01*
X17451Y-28682D01*
X17439Y-28623D01*
X17427Y-28587D01*
X17415Y-28563D01*
X17392Y-28527D01*
X17380Y-28515D01*
X17320Y-27896D02*
X17308Y-27885D01*
X17284Y-27849D01*
X17272Y-27825D01*
X17260Y-27789D01*
X17249Y-27730D01*
X17249Y-27682D01*
X17260Y-27623D01*
X17272Y-27587D01*
X17284Y-27563D01*
X17308Y-27527D01*
X17320Y-27515D01*
X17558Y-27801D02*
X17475Y-27682D01*
X17416Y-27801D02*
X17416Y-27551D01*
X17511Y-27551D01*
X17535Y-27563D01*
X17546Y-27575D01*
X17558Y-27599D01*
X17558Y-27635D01*
X17546Y-27658D01*
X17535Y-27670D01*
X17511Y-27682D01*
X17416Y-27682D01*
X17796Y-27801D02*
X17654Y-27801D01*
X17725Y-27801D02*
X17725Y-27551D01*
X17701Y-27587D01*
X17677Y-27611D01*
X17654Y-27623D01*
X17880Y-27896D02*
X17892Y-27885D01*
X17915Y-27849D01*
X17927Y-27825D01*
X17939Y-27789D01*
X17951Y-27730D01*
X17951Y-27682D01*
X17939Y-27623D01*
X17927Y-27587D01*
X17915Y-27563D01*
X17892Y-27527D01*
X17880Y-27515D01*
X23220Y-27596D02*
X23208Y-27585D01*
X23184Y-27549D01*
X23172Y-27525D01*
X23160Y-27489D01*
X23149Y-27430D01*
X23149Y-27382D01*
X23160Y-27323D01*
X23172Y-27287D01*
X23184Y-27263D01*
X23208Y-27227D01*
X23220Y-27215D01*
X23316Y-27501D02*
X23316Y-27251D01*
X23375Y-27251D01*
X23411Y-27263D01*
X23435Y-27287D01*
X23446Y-27311D01*
X23458Y-27358D01*
X23458Y-27394D01*
X23446Y-27442D01*
X23435Y-27465D01*
X23411Y-27489D01*
X23375Y-27501D01*
X23316Y-27501D01*
X23554Y-27275D02*
X23566Y-27263D01*
X23589Y-27251D01*
X23649Y-27251D01*
X23673Y-27263D01*
X23685Y-27275D01*
X23696Y-27299D01*
X23696Y-27323D01*
X23685Y-27358D01*
X23542Y-27501D01*
X23696Y-27501D01*
X23780Y-27596D02*
X23792Y-27585D01*
X23815Y-27549D01*
X23827Y-27525D01*
X23839Y-27489D01*
X23851Y-27430D01*
X23851Y-27382D01*
X23839Y-27323D01*
X23827Y-27287D01*
X23815Y-27263D01*
X23792Y-27227D01*
X23780Y-27215D01*
X23120Y-31796D02*
X23108Y-31785D01*
X23084Y-31749D01*
X23072Y-31725D01*
X23060Y-31689D01*
X23049Y-31630D01*
X23049Y-31582D01*
X23060Y-31523D01*
X23072Y-31487D01*
X23084Y-31463D01*
X23108Y-31427D01*
X23120Y-31415D01*
X23216Y-31701D02*
X23216Y-31451D01*
X23275Y-31451D01*
X23311Y-31463D01*
X23335Y-31487D01*
X23346Y-31511D01*
X23358Y-31558D01*
X23358Y-31594D01*
X23346Y-31642D01*
X23335Y-31665D01*
X23311Y-31689D01*
X23275Y-31701D01*
X23216Y-31701D01*
X23585Y-31451D02*
X23466Y-31451D01*
X23454Y-31570D01*
X23466Y-31558D01*
X23489Y-31546D01*
X23549Y-31546D01*
X23573Y-31558D01*
X23585Y-31570D01*
X23596Y-31594D01*
X23596Y-31654D01*
X23585Y-31677D01*
X23573Y-31689D01*
X23549Y-31701D01*
X23489Y-31701D01*
X23466Y-31689D01*
X23454Y-31677D01*
X23680Y-31796D02*
X23692Y-31785D01*
X23715Y-31749D01*
X23727Y-31725D01*
X23739Y-31689D01*
X23751Y-31630D01*
X23751Y-31582D01*
X23739Y-31523D01*
X23727Y-31487D01*
X23715Y-31463D01*
X23692Y-31427D01*
X23680Y-31415D01*
G54D11*
X20261Y-28796D02*
X20249Y-28785D01*
X20225Y-28749D01*
X20213Y-28725D01*
X20201Y-28689D01*
X20190Y-28630D01*
X20190Y-28582D01*
X20201Y-28523D01*
X20213Y-28487D01*
X20225Y-28463D01*
X20249Y-28427D01*
X20261Y-28415D01*
X20357Y-28701D02*
X20357Y-28451D01*
X20618Y-28677D02*
X20606Y-28689D01*
X20571Y-28701D01*
X20547Y-28701D01*
X20511Y-28689D01*
X20487Y-28665D01*
X20476Y-28642D01*
X20464Y-28594D01*
X20464Y-28558D01*
X20476Y-28511D01*
X20487Y-28487D01*
X20511Y-28463D01*
X20547Y-28451D01*
X20571Y-28451D01*
X20606Y-28463D01*
X20618Y-28475D01*
X20856Y-28701D02*
X20714Y-28701D01*
X20785Y-28701D02*
X20785Y-28451D01*
X20761Y-28487D01*
X20737Y-28511D01*
X20714Y-28523D01*
X20940Y-28796D02*
X20952Y-28785D01*
X20975Y-28749D01*
X20987Y-28725D01*
X20999Y-28689D01*
X21011Y-28630D01*
X21011Y-28582D01*
X20999Y-28523D01*
X20987Y-28487D01*
X20975Y-28463D01*
X20952Y-28427D01*
X20940Y-28415D01*
X21420Y-32096D02*
X21408Y-32085D01*
X21384Y-32049D01*
X21372Y-32025D01*
X21360Y-31989D01*
X21349Y-31930D01*
X21349Y-31882D01*
X21360Y-31823D01*
X21372Y-31787D01*
X21384Y-31763D01*
X21408Y-31727D01*
X21420Y-31715D01*
X21658Y-32001D02*
X21575Y-31882D01*
X21516Y-32001D02*
X21516Y-31751D01*
X21611Y-31751D01*
X21635Y-31763D01*
X21646Y-31775D01*
X21658Y-31799D01*
X21658Y-31835D01*
X21646Y-31858D01*
X21635Y-31870D01*
X21611Y-31882D01*
X21516Y-31882D01*
X21742Y-31751D02*
X21896Y-31751D01*
X21813Y-31846D01*
X21849Y-31846D01*
X21873Y-31858D01*
X21885Y-31870D01*
X21896Y-31894D01*
X21896Y-31954D01*
X21885Y-31977D01*
X21873Y-31989D01*
X21849Y-32001D01*
X21777Y-32001D01*
X21754Y-31989D01*
X21742Y-31977D01*
X21980Y-32096D02*
X21992Y-32085D01*
X22015Y-32049D01*
X22027Y-32025D01*
X22039Y-31989D01*
X22051Y-31930D01*
X22051Y-31882D01*
X22039Y-31823D01*
X22027Y-31787D01*
X22015Y-31763D01*
X21992Y-31727D01*
X21980Y-31715D01*
X16601Y-32696D02*
X16589Y-32685D01*
X16565Y-32649D01*
X16553Y-32625D01*
X16541Y-32589D01*
X16530Y-32530D01*
X16530Y-32482D01*
X16541Y-32423D01*
X16553Y-32387D01*
X16565Y-32363D01*
X16589Y-32327D01*
X16601Y-32315D01*
X16839Y-32601D02*
X16756Y-32482D01*
X16697Y-32601D02*
X16697Y-32351D01*
X16792Y-32351D01*
X16816Y-32363D01*
X16827Y-32375D01*
X16839Y-32399D01*
X16839Y-32435D01*
X16827Y-32458D01*
X16816Y-32470D01*
X16792Y-32482D01*
X16697Y-32482D01*
X17077Y-32601D02*
X16935Y-32601D01*
X17006Y-32601D02*
X17006Y-32351D01*
X16982Y-32387D01*
X16958Y-32411D01*
X16935Y-32423D01*
X17315Y-32601D02*
X17173Y-32601D01*
X17244Y-32601D02*
X17244Y-32351D01*
X17220Y-32387D01*
X17196Y-32411D01*
X17173Y-32423D01*
X17399Y-32696D02*
X17411Y-32685D01*
X17434Y-32649D01*
X17446Y-32625D01*
X17458Y-32589D01*
X17470Y-32530D01*
X17470Y-32482D01*
X17458Y-32423D01*
X17446Y-32387D01*
X17434Y-32363D01*
X17411Y-32327D01*
X17399Y-32315D01*
X17301Y-33196D02*
X17289Y-33185D01*
X17265Y-33149D01*
X17253Y-33125D01*
X17241Y-33089D01*
X17230Y-33030D01*
X17230Y-32982D01*
X17241Y-32923D01*
X17253Y-32887D01*
X17265Y-32863D01*
X17289Y-32827D01*
X17301Y-32815D01*
X17539Y-33101D02*
X17456Y-32982D01*
X17397Y-33101D02*
X17397Y-32851D01*
X17492Y-32851D01*
X17516Y-32863D01*
X17527Y-32875D01*
X17539Y-32899D01*
X17539Y-32935D01*
X17527Y-32958D01*
X17516Y-32970D01*
X17492Y-32982D01*
X17397Y-32982D01*
X17777Y-33101D02*
X17635Y-33101D01*
X17706Y-33101D02*
X17706Y-32851D01*
X17682Y-32887D01*
X17658Y-32911D01*
X17635Y-32923D01*
X17932Y-32851D02*
X17956Y-32851D01*
X17980Y-32863D01*
X17992Y-32875D01*
X18004Y-32899D01*
X18015Y-32946D01*
X18015Y-33006D01*
X18004Y-33054D01*
X17992Y-33077D01*
X17980Y-33089D01*
X17956Y-33101D01*
X17932Y-33101D01*
X17908Y-33089D01*
X17896Y-33077D01*
X17885Y-33054D01*
X17873Y-33006D01*
X17873Y-32946D01*
X17885Y-32899D01*
X17896Y-32875D01*
X17908Y-32863D01*
X17932Y-32851D01*
X18099Y-33196D02*
X18111Y-33185D01*
X18134Y-33149D01*
X18146Y-33125D01*
X18158Y-33089D01*
X18170Y-33030D01*
X18170Y-32982D01*
X18158Y-32923D01*
X18146Y-32887D01*
X18134Y-32863D01*
X18111Y-32827D01*
X18099Y-32815D01*
X16101Y-27037D02*
X15982Y-27120D01*
X16101Y-27179D02*
X15851Y-27179D01*
X15851Y-27084D01*
X15863Y-27060D01*
X15875Y-27049D01*
X15899Y-27037D01*
X15935Y-27037D01*
X15958Y-27049D01*
X15970Y-27060D01*
X15982Y-27084D01*
X15982Y-27179D01*
X16089Y-26941D02*
X16101Y-26906D01*
X16101Y-26846D01*
X16089Y-26822D01*
X16077Y-26810D01*
X16054Y-26799D01*
X16030Y-26799D01*
X16006Y-26810D01*
X15994Y-26822D01*
X15982Y-26846D01*
X15970Y-26894D01*
X15958Y-26918D01*
X15946Y-26929D01*
X15923Y-26941D01*
X15899Y-26941D01*
X15875Y-26929D01*
X15863Y-26918D01*
X15851Y-26894D01*
X15851Y-26834D01*
X15863Y-26799D01*
X15851Y-26727D02*
X15851Y-26584D01*
X16101Y-26656D02*
X15851Y-26656D01*
G54D12*
X23457Y-34021D02*
X23457Y-34221D01*
X23386Y-33907D02*
X23314Y-34121D01*
X23500Y-34121D01*
X19386Y-33921D02*
X19414Y-33921D01*
X19443Y-33936D01*
X19457Y-33950D01*
X19471Y-33979D01*
X19486Y-34036D01*
X19486Y-34107D01*
X19471Y-34164D01*
X19457Y-34193D01*
X19443Y-34207D01*
X19414Y-34221D01*
X19386Y-34221D01*
X19357Y-34207D01*
X19343Y-34193D01*
X19328Y-34164D01*
X19314Y-34107D01*
X19314Y-34036D01*
X19328Y-33979D01*
X19343Y-33950D01*
X19357Y-33936D01*
X19386Y-33921D01*
G54D11*
X11573Y-28301D02*
X11454Y-28301D01*
X11454Y-28051D01*
X11786Y-28063D02*
X11763Y-28051D01*
X11727Y-28051D01*
X11691Y-28063D01*
X11667Y-28087D01*
X11656Y-28111D01*
X11644Y-28158D01*
X11644Y-28194D01*
X11656Y-28242D01*
X11667Y-28265D01*
X11691Y-28289D01*
X11727Y-28301D01*
X11751Y-28301D01*
X11786Y-28289D01*
X11798Y-28277D01*
X11798Y-28194D01*
X11751Y-28194D01*
X12048Y-28277D02*
X12036Y-28289D01*
X12001Y-28301D01*
X11977Y-28301D01*
X11941Y-28289D01*
X11917Y-28265D01*
X11906Y-28242D01*
X11894Y-28194D01*
X11894Y-28158D01*
X11906Y-28111D01*
X11917Y-28087D01*
X11941Y-28063D01*
X11977Y-28051D01*
X12001Y-28051D01*
X12036Y-28063D01*
X12048Y-28075D01*
X12156Y-28206D02*
X12346Y-28206D01*
X12251Y-28301D02*
X12251Y-28111D01*
X11709Y-29263D02*
X11686Y-29251D01*
X11650Y-29251D01*
X11614Y-29263D01*
X11590Y-29287D01*
X11579Y-29311D01*
X11567Y-29358D01*
X11567Y-29394D01*
X11579Y-29442D01*
X11590Y-29465D01*
X11614Y-29489D01*
X11650Y-29501D01*
X11674Y-29501D01*
X11709Y-29489D01*
X11721Y-29477D01*
X11721Y-29394D01*
X11674Y-29394D01*
X11829Y-29501D02*
X11829Y-29251D01*
X11971Y-29501D01*
X11971Y-29251D01*
X12091Y-29501D02*
X12091Y-29251D01*
X12150Y-29251D01*
X12186Y-29263D01*
X12210Y-29287D01*
X12221Y-29311D01*
X12233Y-29358D01*
X12233Y-29394D01*
X12221Y-29442D01*
X12210Y-29465D01*
X12186Y-29489D01*
X12150Y-29501D01*
X12091Y-29501D01*
X11585Y-30801D02*
X11466Y-30801D01*
X11466Y-30551D01*
X11668Y-30670D02*
X11751Y-30670D01*
X11787Y-30801D02*
X11668Y-30801D01*
X11668Y-30551D01*
X11787Y-30551D01*
X11894Y-30801D02*
X11894Y-30551D01*
X11953Y-30551D01*
X11989Y-30563D01*
X12013Y-30587D01*
X12024Y-30611D01*
X12036Y-30658D01*
X12036Y-30694D01*
X12024Y-30742D01*
X12013Y-30765D01*
X11989Y-30789D01*
X11953Y-30801D01*
X11894Y-30801D01*
X12144Y-30706D02*
X12334Y-30706D01*
X12239Y-30801D02*
X12239Y-30611D01*
X13747Y-33101D02*
X13628Y-33101D01*
X13628Y-32851D01*
X13830Y-32970D02*
X13913Y-32970D01*
X13949Y-33101D02*
X13830Y-33101D01*
X13830Y-32851D01*
X13949Y-32851D01*
X14056Y-33101D02*
X14056Y-32851D01*
X14115Y-32851D01*
X14151Y-32863D01*
X14175Y-32887D01*
X14186Y-32911D01*
X14198Y-32958D01*
X14198Y-32994D01*
X14186Y-33042D01*
X14175Y-33065D01*
X14151Y-33089D01*
X14115Y-33101D01*
X14056Y-33101D01*
X14306Y-33101D02*
X14306Y-32851D01*
X14401Y-32851D01*
X14425Y-32863D01*
X14436Y-32875D01*
X14448Y-32899D01*
X14448Y-32935D01*
X14436Y-32958D01*
X14425Y-32970D01*
X14401Y-32982D01*
X14306Y-32982D01*
X14532Y-32851D02*
X14591Y-33101D01*
X14639Y-32923D01*
X14686Y-33101D01*
X14746Y-32851D01*
X14984Y-33101D02*
X14901Y-32982D01*
X14842Y-33101D02*
X14842Y-32851D01*
X14937Y-32851D01*
X14961Y-32863D01*
X14972Y-32875D01*
X14984Y-32899D01*
X14984Y-32935D01*
X14972Y-32958D01*
X14961Y-32970D01*
X14937Y-32982D01*
X14842Y-32982D01*
X11728Y-32101D02*
X11728Y-31851D01*
X11787Y-31851D01*
X11823Y-31863D01*
X11847Y-31887D01*
X11858Y-31911D01*
X11870Y-31958D01*
X11870Y-31994D01*
X11858Y-32042D01*
X11847Y-32065D01*
X11823Y-32089D01*
X11787Y-32101D01*
X11728Y-32101D01*
X11966Y-32030D02*
X12085Y-32030D01*
X11942Y-32101D02*
X12025Y-31851D01*
X12108Y-32101D01*
X11710Y-33301D02*
X11710Y-33051D01*
X11769Y-33051D01*
X11805Y-33063D01*
X11829Y-33087D01*
X11840Y-33111D01*
X11852Y-33158D01*
X11852Y-33194D01*
X11840Y-33242D01*
X11829Y-33265D01*
X11805Y-33289D01*
X11769Y-33301D01*
X11710Y-33301D01*
X12043Y-33170D02*
X12079Y-33182D01*
X12090Y-33194D01*
X12102Y-33218D01*
X12102Y-33254D01*
X12090Y-33277D01*
X12079Y-33289D01*
X12055Y-33301D01*
X11960Y-33301D01*
X11960Y-33051D01*
X12043Y-33051D01*
X12067Y-33063D01*
X12079Y-33075D01*
X12090Y-33099D01*
X12090Y-33123D01*
X12079Y-33146D01*
X12067Y-33158D01*
X12043Y-33170D01*
X11960Y-33170D01*
X13908Y-26501D02*
X13908Y-26251D01*
X13991Y-26430D01*
X14074Y-26251D01*
X14074Y-26501D01*
X14194Y-26501D02*
X14194Y-26251D01*
X14301Y-26489D02*
X14336Y-26501D01*
X14396Y-26501D01*
X14420Y-26489D01*
X14432Y-26477D01*
X14443Y-26454D01*
X14443Y-26430D01*
X14432Y-26406D01*
X14420Y-26394D01*
X14396Y-26382D01*
X14348Y-26370D01*
X14324Y-26358D01*
X14313Y-26346D01*
X14301Y-26323D01*
X14301Y-26299D01*
X14313Y-26275D01*
X14324Y-26263D01*
X14348Y-26251D01*
X14408Y-26251D01*
X14443Y-26263D01*
X14598Y-26251D02*
X14646Y-26251D01*
X14670Y-26263D01*
X14693Y-26287D01*
X14705Y-26335D01*
X14705Y-26418D01*
X14693Y-26465D01*
X14670Y-26489D01*
X14646Y-26501D01*
X14598Y-26501D01*
X14574Y-26489D01*
X14551Y-26465D01*
X14539Y-26418D01*
X14539Y-26335D01*
X14551Y-26287D01*
X14574Y-26263D01*
X14598Y-26251D01*
X12708Y-26501D02*
X12708Y-26251D01*
X12791Y-26430D01*
X12874Y-26251D01*
X12874Y-26501D01*
X13041Y-26251D02*
X13089Y-26251D01*
X13113Y-26263D01*
X13136Y-26287D01*
X13148Y-26335D01*
X13148Y-26418D01*
X13136Y-26465D01*
X13113Y-26489D01*
X13089Y-26501D01*
X13041Y-26501D01*
X13017Y-26489D01*
X12994Y-26465D01*
X12982Y-26418D01*
X12982Y-26335D01*
X12994Y-26287D01*
X13017Y-26263D01*
X13041Y-26251D01*
X13244Y-26489D02*
X13279Y-26501D01*
X13339Y-26501D01*
X13363Y-26489D01*
X13375Y-26477D01*
X13386Y-26454D01*
X13386Y-26430D01*
X13375Y-26406D01*
X13363Y-26394D01*
X13339Y-26382D01*
X13291Y-26370D01*
X13267Y-26358D01*
X13256Y-26346D01*
X13244Y-26323D01*
X13244Y-26299D01*
X13256Y-26275D01*
X13267Y-26263D01*
X13291Y-26251D01*
X13351Y-26251D01*
X13386Y-26263D01*
X13494Y-26501D02*
X13494Y-26251D01*
X11579Y-26489D02*
X11614Y-26501D01*
X11674Y-26501D01*
X11698Y-26489D01*
X11710Y-26477D01*
X11721Y-26454D01*
X11721Y-26430D01*
X11710Y-26406D01*
X11698Y-26394D01*
X11674Y-26382D01*
X11626Y-26370D01*
X11602Y-26358D01*
X11591Y-26346D01*
X11579Y-26323D01*
X11579Y-26299D01*
X11591Y-26275D01*
X11602Y-26263D01*
X11626Y-26251D01*
X11686Y-26251D01*
X11721Y-26263D01*
X11971Y-26477D02*
X11959Y-26489D01*
X11924Y-26501D01*
X11900Y-26501D01*
X11864Y-26489D01*
X11840Y-26465D01*
X11829Y-26442D01*
X11817Y-26394D01*
X11817Y-26358D01*
X11829Y-26311D01*
X11840Y-26287D01*
X11864Y-26263D01*
X11900Y-26251D01*
X11924Y-26251D01*
X11959Y-26263D01*
X11971Y-26275D01*
X12079Y-26501D02*
X12079Y-26251D01*
X12221Y-26501D02*
X12114Y-26358D01*
X12221Y-26251D02*
X12079Y-26394D01*
G54D12*
X24600Y-31521D02*
X24786Y-31521D01*
X24686Y-31636D01*
X24728Y-31636D01*
X24757Y-31650D01*
X24771Y-31664D01*
X24786Y-31693D01*
X24786Y-31764D01*
X24771Y-31793D01*
X24757Y-31807D01*
X24728Y-31821D01*
X24643Y-31821D01*
X24614Y-31807D01*
X24600Y-31793D01*
G54D10*
X24221Y-26321D02*
X24221Y-26536D01*
X24207Y-26579D01*
X24178Y-26607D01*
X24135Y-26621D01*
X24107Y-26621D01*
X24336Y-26321D02*
X24407Y-26621D01*
X24464Y-26407D01*
X24522Y-26621D01*
X24593Y-26321D01*
X24879Y-26593D02*
X24865Y-26607D01*
X24822Y-26621D01*
X24793Y-26621D01*
X24750Y-26607D01*
X24722Y-26579D01*
X24707Y-26550D01*
X24693Y-26493D01*
X24693Y-26450D01*
X24707Y-26393D01*
X24722Y-26364D01*
X24750Y-26336D01*
X24793Y-26321D01*
X24822Y-26321D01*
X24865Y-26336D01*
X24879Y-26350D01*
X23429Y-26221D02*
X23286Y-26221D01*
X23286Y-25921D01*
X23529Y-26064D02*
X23629Y-26064D01*
X23672Y-26221D02*
X23529Y-26221D01*
X23529Y-25921D01*
X23672Y-25921D01*
X23800Y-26221D02*
X23800Y-25921D01*
X23872Y-25921D01*
X23915Y-25936D01*
X23943Y-25964D01*
X23958Y-25993D01*
X23972Y-26050D01*
X23972Y-26093D01*
X23958Y-26150D01*
X23943Y-26179D01*
X23915Y-26207D01*
X23872Y-26221D01*
X23800Y-26221D01*
X24100Y-26221D02*
X24100Y-26021D01*
X24100Y-26050D02*
X24115Y-26036D01*
X24143Y-26021D01*
X24186Y-26021D01*
X24215Y-26036D01*
X24229Y-26064D01*
X24229Y-26221D01*
X24229Y-26064D02*
X24243Y-26036D01*
X24272Y-26021D01*
X24315Y-26021D01*
X24343Y-26036D01*
X24358Y-26064D01*
X24358Y-26221D01*
X24500Y-26221D02*
X24500Y-26021D01*
X24500Y-25921D02*
X24486Y-25936D01*
X24500Y-25950D01*
X24515Y-25936D01*
X24500Y-25921D01*
X24500Y-25950D01*
X24643Y-26021D02*
X24643Y-26221D01*
X24643Y-26050D02*
X24658Y-26036D01*
X24686Y-26021D01*
X24729Y-26021D01*
X24758Y-26036D01*
X24772Y-26064D01*
X24772Y-26221D01*
X24914Y-26221D02*
X24914Y-26021D01*
X24914Y-25921D02*
X24900Y-25936D01*
X24914Y-25950D01*
X24929Y-25936D01*
X24914Y-25921D01*
X24914Y-25950D01*
G54D13*
X21976Y-27516D02*
X21976Y-27831D01*
X21976Y-29484D02*
X21976Y-29169D01*
X19024Y-29484D02*
X19024Y-29169D01*
X19024Y-27516D02*
X19024Y-27831D01*
X21976Y-27516D02*
X19024Y-27516D01*
X19024Y-29484D02*
X21976Y-29484D01*
X15300Y-30000D02*
X15800Y-30000D01*
X15550Y-30250D02*
X15550Y-29800D01*
X17800Y-29300D02*
X17771Y-29591D01*
X17686Y-29871D01*
X17549Y-30130D01*
X17364Y-30356D01*
X17138Y-30543D01*
X16881Y-30682D01*
X16601Y-30769D01*
X16310Y-30799D01*
X16019Y-30773D01*
X15739Y-30690D01*
X15479Y-30555D01*
X15251Y-30371D01*
X15063Y-30147D01*
X14922Y-29890D01*
X14833Y-29611D01*
X14801Y-29320D01*
X14825Y-29030D01*
X14906Y-28748D01*
X15040Y-28488D01*
X15221Y-28259D01*
X15444Y-28069D01*
X15700Y-27926D01*
X15978Y-27835D01*
X16269Y-27801D01*
X16560Y-27823D01*
X16842Y-27902D01*
X17103Y-28034D01*
X17334Y-28214D01*
X17525Y-28436D01*
X17670Y-28690D01*
X17762Y-28968D01*
X17799Y-29259D01*
X17800Y-29300D01*
G54D14*
X14250Y-27750D02*
X14500Y-27750D01*
X14500Y-27750D02*
X14500Y-31250D01*
X14500Y-31250D02*
X14250Y-31250D01*
X12750Y-27750D02*
X14250Y-27750D01*
X14250Y-27750D02*
X14250Y-31250D01*
X14250Y-31250D02*
X12750Y-31250D01*
X12750Y-31250D02*
X12750Y-27750D01*
G54D15*
X15000Y-27400D02*
X15000Y-26400D01*
X15000Y-26400D02*
X17000Y-26400D01*
X17000Y-26400D02*
X17000Y-27400D01*
X17000Y-27400D02*
X15000Y-27400D01*
G54D16*
X23553Y-31148D02*
X24247Y-31148D01*
X23553Y-30852D02*
X24247Y-30852D01*
X23553Y-30852D02*
X23553Y-31148D01*
X24247Y-30852D02*
X24247Y-31148D01*
X23553Y-30148D02*
X24247Y-30148D01*
X23553Y-29852D02*
X24247Y-29852D01*
X23553Y-29852D02*
X23553Y-30148D01*
X24247Y-29852D02*
X24247Y-30148D01*
X23553Y-29148D02*
X24247Y-29148D01*
X23553Y-28852D02*
X24247Y-28852D01*
X23553Y-28852D02*
X23553Y-29148D01*
X24247Y-28852D02*
X24247Y-29148D01*
X23553Y-28148D02*
X24247Y-28148D01*
X23553Y-27852D02*
X24247Y-27852D01*
X23553Y-27852D02*
X23553Y-28148D01*
X24247Y-27852D02*
X24247Y-28148D01*
X15747Y-27352D02*
X15053Y-27352D01*
X15747Y-27648D02*
X15053Y-27648D01*
X15747Y-27648D02*
X15747Y-27352D01*
X15053Y-27648D02*
X15053Y-27352D01*
X19747Y-27052D02*
X19053Y-27052D01*
X19747Y-27348D02*
X19053Y-27348D01*
X19747Y-27348D02*
X19747Y-27052D01*
X19053Y-27348D02*
X19053Y-27052D01*
X21253Y-27348D02*
X21947Y-27348D01*
X21253Y-27052D02*
X21947Y-27052D01*
X21253Y-27052D02*
X21253Y-27348D01*
X21947Y-27052D02*
X21947Y-27348D01*
X16547Y-27352D02*
X15853Y-27352D01*
X16547Y-27648D02*
X15853Y-27648D01*
X16547Y-27648D02*
X16547Y-27352D01*
X15853Y-27648D02*
X15853Y-27352D01*
G54D17*
X18333Y-31520D02*
X18331Y-31530D01*
X18329Y-31540D01*
X18324Y-31549D01*
X18317Y-31557D01*
X18309Y-31563D01*
X18300Y-31568D01*
X18290Y-31571D01*
X18280Y-31572D01*
X18271Y-31572D01*
X18261Y-31569D01*
X18251Y-31564D01*
X18243Y-31557D01*
X18237Y-31549D01*
X18232Y-31540D01*
X18229Y-31531D01*
X18228Y-31520D01*
X18228Y-31511D01*
X18231Y-31501D01*
X18236Y-31492D01*
X18242Y-31484D01*
X18250Y-31477D01*
X18259Y-31472D01*
X18269Y-31469D01*
X18279Y-31468D01*
X18289Y-31468D01*
X18299Y-31471D01*
X18308Y-31476D01*
X18316Y-31482D01*
X18323Y-31490D01*
X18328Y-31499D01*
X18331Y-31509D01*
X18332Y-31519D01*
X18333Y-31520D01*
G54D10*
X18100Y-33800D02*
X18200Y-33800D01*
X18200Y-33800D02*
X18200Y-31600D01*
X18200Y-31600D02*
X18100Y-31600D01*
X16200Y-31600D02*
X16200Y-33800D01*
X16200Y-33800D02*
X16300Y-33800D01*
X16200Y-31600D02*
X16300Y-31600D01*
G54D18*
X19041Y-32250D02*
X19038Y-32277D01*
X19030Y-32303D01*
X19017Y-32328D01*
X19000Y-32349D01*
X18978Y-32366D01*
X18954Y-32379D01*
X18928Y-32388D01*
X18900Y-32390D01*
X18874Y-32388D01*
X18848Y-32380D01*
X18823Y-32367D01*
X18802Y-32350D01*
X18784Y-32329D01*
X18771Y-32305D01*
X18763Y-32279D01*
X18760Y-32251D01*
X18762Y-32225D01*
X18769Y-32199D01*
X18782Y-32174D01*
X18799Y-32153D01*
X18820Y-32135D01*
X18844Y-32121D01*
X18870Y-32113D01*
X18898Y-32110D01*
X18924Y-32112D01*
X18950Y-32119D01*
X18975Y-32131D01*
X18997Y-32148D01*
X19015Y-32169D01*
X19028Y-32193D01*
X19037Y-32219D01*
X19040Y-32247D01*
X19041Y-32250D01*
X18700Y-31150D02*
X19000Y-31150D01*
X19000Y-31150D02*
X19000Y-31650D01*
X19000Y-31650D02*
X18700Y-31650D01*
X22750Y-32450D02*
X18700Y-32450D01*
X18700Y-30350D02*
X22750Y-30350D01*
X18700Y-30350D02*
X18700Y-32450D01*
X22750Y-30350D02*
X22750Y-32450D01*
G54D10*
X20598Y-27951D02*
X20764Y-28201D01*
X20764Y-27951D02*
X20598Y-28201D01*
X20990Y-28201D02*
X20848Y-28201D01*
X20919Y-28201D02*
X20919Y-27951D01*
X20895Y-27987D01*
X20871Y-28011D01*
X20848Y-28023D01*
X16250Y-30593D02*
X16236Y-30607D01*
X16193Y-30621D01*
X16164Y-30621D01*
X16121Y-30607D01*
X16093Y-30579D01*
X16078Y-30550D01*
X16064Y-30493D01*
X16064Y-30450D01*
X16078Y-30393D01*
X16093Y-30364D01*
X16121Y-30336D01*
X16164Y-30321D01*
X16193Y-30321D01*
X16236Y-30336D01*
X16250Y-30350D01*
X16350Y-30321D02*
X16536Y-30321D01*
X16436Y-30436D01*
X16478Y-30436D01*
X16507Y-30450D01*
X16521Y-30464D01*
X16536Y-30493D01*
X16536Y-30564D01*
X16521Y-30593D01*
X16507Y-30607D01*
X16478Y-30621D01*
X16393Y-30621D01*
X16364Y-30607D01*
X16350Y-30593D01*
G54D11*
X12910Y-27851D02*
X12910Y-28054D01*
X12921Y-28077D01*
X12933Y-28089D01*
X12957Y-28101D01*
X13005Y-28101D01*
X13029Y-28089D01*
X13040Y-28077D01*
X13052Y-28054D01*
X13052Y-27851D01*
X13302Y-28101D02*
X13160Y-28101D01*
X13231Y-28101D02*
X13231Y-27851D01*
X13207Y-27887D01*
X13183Y-27911D01*
X13160Y-27923D01*
G54D10*
X24058Y-31601D02*
X23975Y-31482D01*
X23916Y-31601D02*
X23916Y-31351D01*
X24011Y-31351D01*
X24035Y-31363D01*
X24046Y-31375D01*
X24058Y-31399D01*
X24058Y-31435D01*
X24046Y-31458D01*
X24035Y-31470D01*
X24011Y-31482D01*
X23916Y-31482D01*
X24177Y-31601D02*
X24225Y-31601D01*
X24249Y-31589D01*
X24261Y-31577D01*
X24285Y-31542D01*
X24296Y-31494D01*
X24296Y-31399D01*
X24285Y-31375D01*
X24273Y-31363D01*
X24249Y-31351D01*
X24201Y-31351D01*
X24177Y-31363D01*
X24166Y-31375D01*
X24154Y-31399D01*
X24154Y-31458D01*
X24166Y-31482D01*
X24177Y-31494D01*
X24201Y-31506D01*
X24249Y-31506D01*
X24273Y-31494D01*
X24285Y-31482D01*
X24296Y-31458D01*
X24058Y-30501D02*
X23975Y-30382D01*
X23916Y-30501D02*
X23916Y-30251D01*
X24011Y-30251D01*
X24035Y-30263D01*
X24046Y-30275D01*
X24058Y-30299D01*
X24058Y-30335D01*
X24046Y-30358D01*
X24035Y-30370D01*
X24011Y-30382D01*
X23916Y-30382D01*
X24201Y-30358D02*
X24177Y-30346D01*
X24166Y-30335D01*
X24154Y-30311D01*
X24154Y-30299D01*
X24166Y-30275D01*
X24177Y-30263D01*
X24201Y-30251D01*
X24249Y-30251D01*
X24273Y-30263D01*
X24285Y-30275D01*
X24296Y-30299D01*
X24296Y-30311D01*
X24285Y-30335D01*
X24273Y-30346D01*
X24249Y-30358D01*
X24201Y-30358D01*
X24177Y-30370D01*
X24166Y-30382D01*
X24154Y-30406D01*
X24154Y-30454D01*
X24166Y-30477D01*
X24177Y-30489D01*
X24201Y-30501D01*
X24249Y-30501D01*
X24273Y-30489D01*
X24285Y-30477D01*
X24296Y-30454D01*
X24296Y-30406D01*
X24285Y-30382D01*
X24273Y-30370D01*
X24249Y-30358D01*
X24058Y-29501D02*
X23975Y-29382D01*
X23916Y-29501D02*
X23916Y-29251D01*
X24011Y-29251D01*
X24035Y-29263D01*
X24046Y-29275D01*
X24058Y-29299D01*
X24058Y-29335D01*
X24046Y-29358D01*
X24035Y-29370D01*
X24011Y-29382D01*
X23916Y-29382D01*
X24142Y-29251D02*
X24308Y-29251D01*
X24201Y-29501D01*
X24058Y-28501D02*
X23975Y-28382D01*
X23916Y-28501D02*
X23916Y-28251D01*
X24011Y-28251D01*
X24035Y-28263D01*
X24046Y-28275D01*
X24058Y-28299D01*
X24058Y-28335D01*
X24046Y-28358D01*
X24035Y-28370D01*
X24011Y-28382D01*
X23916Y-28382D01*
X24273Y-28251D02*
X24225Y-28251D01*
X24201Y-28263D01*
X24189Y-28275D01*
X24166Y-28311D01*
X24154Y-28358D01*
X24154Y-28454D01*
X24166Y-28477D01*
X24177Y-28489D01*
X24201Y-28501D01*
X24249Y-28501D01*
X24273Y-28489D01*
X24285Y-28477D01*
X24296Y-28454D01*
X24296Y-28394D01*
X24285Y-28370D01*
X24273Y-28358D01*
X24249Y-28346D01*
X24201Y-28346D01*
X24177Y-28358D01*
X24166Y-28370D01*
X24154Y-28394D01*
X14758Y-27801D02*
X14675Y-27682D01*
X14616Y-27801D02*
X14616Y-27551D01*
X14711Y-27551D01*
X14735Y-27563D01*
X14746Y-27575D01*
X14758Y-27599D01*
X14758Y-27635D01*
X14746Y-27658D01*
X14735Y-27670D01*
X14711Y-27682D01*
X14616Y-27682D01*
X14854Y-27575D02*
X14866Y-27563D01*
X14889Y-27551D01*
X14949Y-27551D01*
X14973Y-27563D01*
X14985Y-27575D01*
X14996Y-27599D01*
X14996Y-27623D01*
X14985Y-27658D01*
X14842Y-27801D01*
X14996Y-27801D01*
X19239Y-26877D02*
X19227Y-26889D01*
X19192Y-26901D01*
X19168Y-26901D01*
X19132Y-26889D01*
X19108Y-26865D01*
X19097Y-26842D01*
X19085Y-26794D01*
X19085Y-26758D01*
X19097Y-26711D01*
X19108Y-26687D01*
X19132Y-26663D01*
X19168Y-26651D01*
X19192Y-26651D01*
X19227Y-26663D01*
X19239Y-26675D01*
X19477Y-26901D02*
X19335Y-26901D01*
X19406Y-26901D02*
X19406Y-26651D01*
X19382Y-26687D01*
X19358Y-26711D01*
X19335Y-26723D01*
X19715Y-26901D02*
X19573Y-26901D01*
X19644Y-26901D02*
X19644Y-26651D01*
X19620Y-26687D01*
X19596Y-26711D01*
X19573Y-26723D01*
X21439Y-26877D02*
X21427Y-26889D01*
X21392Y-26901D01*
X21368Y-26901D01*
X21332Y-26889D01*
X21308Y-26865D01*
X21297Y-26842D01*
X21285Y-26794D01*
X21285Y-26758D01*
X21297Y-26711D01*
X21308Y-26687D01*
X21332Y-26663D01*
X21368Y-26651D01*
X21392Y-26651D01*
X21427Y-26663D01*
X21439Y-26675D01*
X21677Y-26901D02*
X21535Y-26901D01*
X21606Y-26901D02*
X21606Y-26651D01*
X21582Y-26687D01*
X21558Y-26711D01*
X21535Y-26723D01*
X21832Y-26651D02*
X21856Y-26651D01*
X21880Y-26663D01*
X21892Y-26675D01*
X21904Y-26699D01*
X21915Y-26746D01*
X21915Y-26806D01*
X21904Y-26854D01*
X21892Y-26877D01*
X21880Y-26889D01*
X21856Y-26901D01*
X21832Y-26901D01*
X21808Y-26889D01*
X21796Y-26877D01*
X21785Y-26854D01*
X21773Y-26806D01*
X21773Y-26746D01*
X21785Y-26699D01*
X21796Y-26675D01*
X21808Y-26663D01*
X21832Y-26651D01*
X16758Y-27777D02*
X16746Y-27789D01*
X16711Y-27801D01*
X16687Y-27801D01*
X16651Y-27789D01*
X16627Y-27765D01*
X16616Y-27742D01*
X16604Y-27694D01*
X16604Y-27658D01*
X16616Y-27611D01*
X16627Y-27587D01*
X16651Y-27563D01*
X16687Y-27551D01*
X16711Y-27551D01*
X16746Y-27563D01*
X16758Y-27575D01*
X16877Y-27801D02*
X16925Y-27801D01*
X16949Y-27789D01*
X16961Y-27777D01*
X16985Y-27742D01*
X16996Y-27694D01*
X16996Y-27599D01*
X16985Y-27575D01*
X16973Y-27563D01*
X16949Y-27551D01*
X16901Y-27551D01*
X16877Y-27563D01*
X16866Y-27575D01*
X16854Y-27599D01*
X16854Y-27658D01*
X16866Y-27682D01*
X16877Y-27694D01*
X16901Y-27706D01*
X16949Y-27706D01*
X16973Y-27694D01*
X16985Y-27682D01*
X16996Y-27658D01*
X16257Y-33001D02*
X16257Y-32751D01*
X16518Y-32977D02*
X16506Y-32989D01*
X16471Y-33001D01*
X16447Y-33001D01*
X16411Y-32989D01*
X16387Y-32965D01*
X16376Y-32942D01*
X16364Y-32894D01*
X16364Y-32858D01*
X16376Y-32811D01*
X16387Y-32787D01*
X16411Y-32763D01*
X16447Y-32751D01*
X16471Y-32751D01*
X16506Y-32763D01*
X16518Y-32775D01*
X16614Y-32775D02*
X16626Y-32763D01*
X16649Y-32751D01*
X16709Y-32751D01*
X16733Y-32763D01*
X16745Y-32775D01*
X16756Y-32799D01*
X16756Y-32823D01*
X16745Y-32858D01*
X16602Y-33001D01*
X16756Y-33001D01*
X19184Y-31251D02*
X19327Y-31251D01*
X19255Y-31501D02*
X19255Y-31251D01*
X19529Y-31501D02*
X19410Y-31501D01*
X19410Y-31251D01*
X19754Y-31477D02*
X19742Y-31489D01*
X19707Y-31501D01*
X19683Y-31501D01*
X19647Y-31489D01*
X19623Y-31465D01*
X19612Y-31442D01*
X19600Y-31394D01*
X19600Y-31358D01*
X19612Y-31311D01*
X19623Y-31287D01*
X19647Y-31263D01*
X19683Y-31251D01*
X19707Y-31251D01*
X19742Y-31263D01*
X19754Y-31275D01*
X19992Y-31501D02*
X19850Y-31501D01*
X19921Y-31501D02*
X19921Y-31251D01*
X19897Y-31287D01*
X19873Y-31311D01*
X19850Y-31323D01*
G54D11*
X22397Y-27501D02*
X22397Y-27251D01*
X22492Y-27251D01*
X22516Y-27263D01*
X22527Y-27275D01*
X22539Y-27299D01*
X22539Y-27335D01*
X22527Y-27358D01*
X22516Y-27370D01*
X22492Y-27382D01*
X22397Y-27382D01*
X22623Y-27251D02*
X22789Y-27501D01*
X22789Y-27251D02*
X22623Y-27501D01*
X23015Y-27501D02*
X22873Y-27501D01*
X22944Y-27501D02*
X22944Y-27251D01*
X22920Y-27287D01*
X22896Y-27311D01*
X22873Y-27323D01*
M02*
