G04 (created by PCBNEW-RS274X (2011-07-08)-stable) date Wed 23 Nov 2011 11:36:48 PM EST*
G01*
G70*
G90*
%MOIN*%
G04 Gerber Fmt 3.4, Leading zero omitted, Abs format*
%FSLAX34Y34*%
G04 APERTURE LIST*
%ADD10C,0.006000*%
%ADD11C,0.059100*%
%ADD12R,0.062900X0.070900*%
%ADD13C,0.070000*%
%ADD14R,0.070000X0.070000*%
%ADD15R,0.055000X0.055000*%
%ADD16C,0.055000*%
%ADD17R,0.019700X0.019700*%
%ADD18R,0.078700X0.017700*%
%ADD19R,0.017700X0.078700*%
%ADD20C,0.021000*%
%ADD21C,0.010000*%
%ADD22C,0.008000*%
%ADD23C,0.030000*%
G04 APERTURE END LIST*
G54D10*
G54D11*
X16300Y-28800D03*
X16300Y-29800D03*
G54D12*
X23541Y-31000D03*
X24659Y-31000D03*
X23541Y-30000D03*
X24659Y-30000D03*
X23541Y-29000D03*
X24659Y-29000D03*
X23541Y-28000D03*
X24659Y-28000D03*
X15241Y-28000D03*
X16359Y-28000D03*
G54D13*
X13500Y-28500D03*
G54D14*
X13500Y-29500D03*
G54D13*
X13500Y-30500D03*
G54D15*
X15500Y-26900D03*
G54D16*
X16500Y-26900D03*
G54D17*
X17601Y-33500D03*
X17199Y-33500D03*
X21101Y-31900D03*
X20699Y-31900D03*
X16999Y-28000D03*
X17401Y-28000D03*
X15700Y-29501D03*
X15700Y-29099D03*
X14200Y-30201D03*
X14200Y-29799D03*
X14600Y-30201D03*
X14600Y-29799D03*
X17500Y-29501D03*
X17500Y-29099D03*
X17000Y-29501D03*
X17000Y-29099D03*
X14600Y-28299D03*
X14600Y-28701D03*
X14200Y-28299D03*
X14200Y-28701D03*
G54D18*
X18604Y-27907D03*
X18604Y-28222D03*
X18604Y-28537D03*
X18604Y-28852D03*
X18604Y-29167D03*
X18604Y-29482D03*
X18604Y-29797D03*
X18604Y-30112D03*
X22370Y-30110D03*
X22370Y-27900D03*
X22370Y-28220D03*
X22370Y-28540D03*
X22370Y-28850D03*
X22370Y-29170D03*
X22370Y-29480D03*
X22370Y-29800D03*
G54D19*
X19388Y-30900D03*
X19702Y-30900D03*
X20018Y-30900D03*
X20332Y-30900D03*
X20648Y-30900D03*
X20962Y-30900D03*
X21278Y-30900D03*
X21592Y-30900D03*
X19390Y-27120D03*
X19700Y-27120D03*
X20020Y-27120D03*
X20330Y-27120D03*
X20640Y-27120D03*
X20960Y-27120D03*
X21280Y-27120D03*
X21600Y-27120D03*
G54D17*
X16999Y-32400D03*
X17401Y-32400D03*
G54D16*
X11900Y-32400D03*
X11900Y-33600D03*
X11900Y-29900D03*
X11900Y-31200D03*
X11900Y-28700D03*
X14300Y-33600D03*
X13100Y-32300D03*
X14300Y-32300D03*
X15500Y-33600D03*
X15500Y-32300D03*
X14300Y-26900D03*
X13100Y-26900D03*
X19000Y-33700D03*
X20200Y-33700D03*
X21400Y-33700D03*
X22600Y-33700D03*
X23800Y-33700D03*
X17600Y-26900D03*
X11900Y-26900D03*
X22700Y-26900D03*
G54D20*
X24100Y-28600D03*
X24101Y-29601D03*
X24101Y-30601D03*
X17082Y-33111D03*
X24101Y-27601D03*
X16612Y-31058D03*
X21100Y-31600D03*
X20300Y-28200D03*
X21859Y-30488D03*
X18570Y-31136D03*
X20231Y-28789D03*
X20330Y-29080D03*
X19136Y-26558D03*
X17600Y-32200D03*
X17709Y-30896D03*
X21704Y-29485D03*
X18700Y-27200D03*
G54D21*
X17500Y-29099D02*
X17611Y-29099D01*
X17611Y-29099D02*
X17722Y-29099D01*
X17611Y-28432D02*
X17401Y-28222D01*
X17611Y-29099D02*
X17611Y-28432D01*
X17401Y-28000D02*
X17401Y-28222D01*
X17401Y-28000D02*
X17401Y-27779D01*
X14050Y-29577D02*
X14200Y-29577D01*
X13973Y-29500D02*
X14050Y-29577D01*
X13500Y-29500D02*
X13973Y-29500D01*
X14200Y-29799D02*
X14200Y-29688D01*
X14200Y-29688D02*
X14200Y-29577D01*
X14268Y-29688D02*
X14379Y-29799D01*
X14200Y-29688D02*
X14268Y-29688D01*
X14600Y-29799D02*
X14379Y-29799D01*
X14600Y-28701D02*
X14378Y-28701D01*
X14200Y-28701D02*
X14200Y-29577D01*
X14200Y-28701D02*
X14378Y-28701D01*
X16522Y-26900D02*
X16500Y-26900D01*
X17401Y-27779D02*
X16522Y-26900D01*
X16001Y-29099D02*
X16300Y-28800D01*
X15700Y-29099D02*
X16001Y-29099D01*
X17500Y-29099D02*
X17000Y-29099D01*
X16599Y-29099D02*
X16300Y-28800D01*
X17000Y-29099D02*
X16599Y-29099D01*
X18604Y-28852D02*
X18088Y-28852D01*
X18088Y-29465D02*
X17782Y-29158D01*
X18088Y-29482D02*
X18088Y-29465D01*
X18088Y-28852D02*
X17782Y-29158D01*
X17782Y-29158D02*
X17722Y-29099D01*
X18604Y-29482D02*
X18088Y-29482D01*
X21384Y-29482D02*
X19121Y-29482D01*
X21696Y-29170D02*
X21384Y-29482D01*
X22370Y-29170D02*
X21696Y-29170D01*
X18604Y-29482D02*
X19121Y-29482D01*
X23104Y-30000D02*
X23104Y-29000D01*
X22994Y-30110D02*
X23104Y-30000D01*
X22370Y-30110D02*
X22994Y-30110D01*
X23541Y-29000D02*
X23104Y-29000D01*
G54D22*
X24500Y-29000D02*
X24659Y-29000D01*
X24100Y-28600D02*
X24500Y-29000D01*
G54D21*
X24101Y-29601D02*
X24100Y-29600D01*
G54D22*
X24500Y-30000D02*
X24659Y-30000D01*
X24101Y-29601D02*
X24500Y-30000D01*
X24100Y-29600D02*
X24101Y-29601D01*
G54D21*
X22641Y-30900D02*
X23541Y-30000D01*
X21592Y-30900D02*
X22641Y-30900D01*
G54D22*
X24500Y-31000D02*
X24101Y-30601D01*
X24659Y-31000D02*
X24500Y-31000D01*
G54D21*
X24100Y-30600D02*
X24101Y-30601D01*
G54D22*
X24100Y-30600D02*
X24101Y-30601D01*
G54D23*
X16022Y-29522D02*
X16022Y-29501D01*
X16300Y-29800D02*
X16022Y-29522D01*
X15700Y-29501D02*
X16022Y-29501D01*
X16599Y-29501D02*
X17000Y-29501D01*
X16300Y-29800D02*
X16599Y-29501D01*
X17000Y-29501D02*
X17500Y-29501D01*
G54D21*
X11900Y-32400D02*
X12298Y-32400D01*
X17199Y-33228D02*
X17082Y-33111D01*
X17199Y-33500D02*
X17199Y-33228D01*
X13009Y-33111D02*
X12298Y-32400D01*
X17082Y-33111D02*
X13009Y-33111D01*
X11900Y-33600D02*
X12298Y-33600D01*
X12298Y-33600D02*
X12696Y-33998D01*
X12696Y-33998D02*
X17103Y-33998D01*
X17103Y-33998D02*
X17601Y-33500D01*
X16999Y-28000D02*
X16359Y-28000D01*
G54D22*
X24500Y-28000D02*
X24101Y-27601D01*
X24659Y-28000D02*
X24500Y-28000D01*
G54D21*
X24100Y-27600D02*
X24101Y-27601D01*
G54D22*
X24100Y-27600D02*
X24101Y-27601D01*
G54D21*
X22687Y-31417D02*
X23104Y-31000D01*
X21278Y-31417D02*
X22687Y-31417D01*
X21278Y-30900D02*
X21278Y-31417D01*
X23541Y-31000D02*
X23104Y-31000D01*
X14300Y-26173D02*
X14300Y-26900D01*
X14345Y-26128D02*
X14300Y-26173D01*
X21124Y-26128D02*
X14345Y-26128D01*
X21600Y-26604D02*
X21124Y-26128D01*
X21600Y-27120D02*
X21600Y-26604D01*
X22887Y-28217D02*
X23104Y-28000D01*
X22887Y-29800D02*
X22887Y-28217D01*
X22370Y-29800D02*
X22887Y-29800D01*
X23541Y-28000D02*
X23104Y-28000D01*
X13288Y-25910D02*
X12298Y-26900D01*
X21489Y-25910D02*
X13288Y-25910D01*
X21854Y-26275D02*
X21489Y-25910D01*
X21854Y-27900D02*
X21854Y-26275D01*
X22370Y-27900D02*
X21854Y-27900D01*
X11900Y-26900D02*
X12298Y-26900D01*
X17286Y-30384D02*
X16612Y-31058D01*
X19702Y-30384D02*
X17286Y-30384D01*
X19702Y-30900D02*
X19702Y-30384D01*
X21101Y-31601D02*
X21101Y-31900D01*
X21100Y-31600D02*
X21101Y-31601D01*
X14600Y-28299D02*
X14200Y-28299D01*
X13701Y-28299D02*
X13500Y-28500D01*
X14200Y-28299D02*
X13701Y-28299D01*
X18604Y-28222D02*
X20278Y-28222D01*
X20278Y-28222D02*
X20300Y-28200D01*
X21483Y-30112D02*
X21859Y-30488D01*
X18604Y-30112D02*
X21483Y-30112D01*
X20018Y-30900D02*
X20018Y-31417D01*
X18851Y-31417D02*
X18570Y-31136D01*
X20018Y-31417D02*
X18851Y-31417D01*
X20640Y-28380D02*
X20231Y-28789D01*
X20640Y-27120D02*
X20640Y-28380D01*
X15500Y-26900D02*
X15500Y-27298D01*
X20332Y-31583D02*
X20332Y-30900D01*
X20304Y-31611D02*
X20332Y-31583D01*
X16804Y-31611D02*
X20304Y-31611D01*
X15197Y-30004D02*
X16804Y-31611D01*
X15197Y-28920D02*
X15197Y-30004D01*
X15692Y-28425D02*
X15197Y-28920D01*
X15692Y-27490D02*
X15692Y-28425D01*
X15500Y-27298D02*
X15692Y-27490D01*
X20960Y-28450D02*
X20330Y-29080D01*
X20960Y-27120D02*
X20960Y-28450D01*
X19182Y-26604D02*
X19136Y-26558D01*
X19390Y-26604D02*
X19182Y-26604D01*
X19390Y-27120D02*
X19390Y-26604D01*
X13896Y-27298D02*
X13498Y-26900D01*
X14692Y-27298D02*
X13896Y-27298D01*
X14719Y-27271D02*
X14692Y-27298D01*
X14719Y-26556D02*
X14719Y-27271D01*
X14955Y-26320D02*
X14719Y-26556D01*
X20996Y-26320D02*
X14955Y-26320D01*
X21280Y-26604D02*
X20996Y-26320D01*
X21280Y-27120D02*
X21280Y-26604D01*
X13100Y-26900D02*
X13498Y-26900D01*
X17401Y-32400D02*
X17401Y-32399D01*
X17401Y-32399D02*
X17600Y-32200D01*
X17713Y-30900D02*
X17709Y-30896D01*
X19388Y-30900D02*
X17713Y-30900D01*
X21392Y-29797D02*
X21704Y-29485D01*
X18604Y-29797D02*
X21392Y-29797D01*
X18604Y-27907D02*
X18604Y-27296D01*
X18604Y-27296D02*
X18700Y-27200D01*
X13799Y-30201D02*
X13500Y-30500D01*
X14200Y-30201D02*
X13799Y-30201D01*
X15241Y-28000D02*
X15241Y-28478D01*
X14200Y-30201D02*
X14422Y-30201D01*
X14822Y-29979D02*
X14600Y-30201D01*
X14822Y-28897D02*
X14822Y-29979D01*
X15241Y-28478D02*
X14822Y-28897D01*
X14600Y-30201D02*
X14422Y-30201D01*
X18088Y-27786D02*
X17600Y-27298D01*
X18088Y-28537D02*
X18088Y-27786D01*
X18604Y-28537D02*
X18088Y-28537D01*
X17600Y-27099D02*
X17600Y-27298D01*
X17600Y-27099D02*
X17600Y-26900D01*
X15101Y-27383D02*
X15241Y-27523D01*
X15101Y-26529D02*
X15101Y-27383D01*
X15129Y-26501D02*
X15101Y-26529D01*
X16803Y-26501D02*
X15129Y-26501D01*
X17202Y-26900D02*
X16803Y-26501D01*
X17600Y-26900D02*
X17202Y-26900D01*
X15241Y-28000D02*
X15241Y-27523D01*
X18604Y-28537D02*
X19121Y-28537D01*
X19121Y-29167D02*
X19121Y-28537D01*
X18604Y-29167D02*
X19121Y-29167D01*
X22370Y-28850D02*
X21854Y-28850D01*
X22370Y-28220D02*
X21854Y-28220D01*
X21854Y-28850D02*
X21854Y-28220D01*
X19262Y-29308D02*
X19121Y-29167D01*
X21081Y-29308D02*
X19262Y-29308D01*
X21539Y-28850D02*
X21081Y-29308D01*
X21854Y-28850D02*
X21539Y-28850D01*
X16024Y-26801D02*
X16679Y-26801D01*
X16024Y-26881D02*
X16759Y-26881D01*
X16024Y-26961D02*
X16839Y-26961D01*
X16024Y-27041D02*
X16919Y-27041D01*
X16024Y-27121D02*
X17004Y-27121D01*
X16024Y-27201D02*
X17159Y-27201D01*
X16001Y-27281D02*
X17239Y-27281D01*
X15959Y-27361D02*
X17313Y-27361D01*
X16820Y-27441D02*
X17342Y-27441D01*
X16890Y-27521D02*
X17399Y-27521D01*
X16922Y-27601D02*
X17479Y-27601D01*
X17214Y-27681D02*
X17559Y-27681D01*
X17308Y-27761D02*
X17639Y-27761D01*
X17341Y-27841D02*
X17719Y-27841D01*
X17346Y-27921D02*
X17788Y-27921D01*
X17346Y-28001D02*
X17788Y-28001D01*
X17346Y-28081D02*
X17788Y-28081D01*
X17341Y-28161D02*
X17788Y-28161D01*
X17306Y-28241D02*
X17788Y-28241D01*
X17209Y-28321D02*
X17788Y-28321D01*
X16922Y-28401D02*
X17788Y-28401D01*
X16890Y-28481D02*
X17788Y-28481D01*
X16818Y-28561D02*
X17793Y-28561D01*
X15900Y-28641D02*
X17809Y-28641D01*
X15820Y-28721D02*
X17858Y-28721D01*
X15740Y-28801D02*
X17954Y-28801D01*
X15660Y-28881D02*
X18057Y-28881D01*
X15580Y-28961D02*
X17990Y-28961D01*
X15500Y-29041D02*
X17962Y-29041D01*
X15497Y-29121D02*
X15598Y-29121D01*
X16124Y-29121D02*
X16496Y-29121D01*
X17602Y-29121D02*
X17962Y-29121D01*
X16279Y-29201D02*
X16341Y-29201D01*
X17757Y-29201D02*
X17962Y-29201D01*
X17825Y-29281D02*
X17962Y-29281D01*
X17872Y-29361D02*
X17986Y-29361D01*
X17888Y-29441D02*
X18045Y-29441D01*
X17897Y-29521D02*
X18047Y-29521D01*
X17881Y-29601D02*
X17986Y-29601D01*
X17852Y-29681D02*
X17962Y-29681D01*
X17799Y-29761D02*
X17962Y-29761D01*
X15497Y-29841D02*
X15503Y-29841D01*
X17698Y-29841D02*
X17962Y-29841D01*
X15538Y-29921D02*
X15762Y-29921D01*
X16839Y-29921D02*
X17962Y-29921D01*
X15618Y-30001D02*
X15795Y-30001D01*
X16806Y-30001D02*
X17962Y-30001D01*
X15698Y-30081D02*
X15828Y-30081D01*
X16773Y-30081D02*
X17962Y-30081D01*
X15778Y-30161D02*
X15892Y-30161D01*
X16708Y-30161D02*
X17090Y-30161D01*
X15858Y-30241D02*
X15972Y-30241D01*
X16628Y-30241D02*
X17005Y-30241D01*
X15938Y-30321D02*
X16137Y-30321D01*
X16464Y-30321D02*
X16925Y-30321D01*
X16018Y-30401D02*
X16845Y-30401D01*
X16098Y-30481D02*
X16765Y-30481D01*
X16178Y-30561D02*
X16685Y-30561D01*
X16258Y-30641D02*
X16605Y-30641D01*
X16338Y-30721D02*
X16501Y-30721D01*
X12587Y-27034D02*
X12587Y-27034D01*
X12508Y-27114D02*
X12621Y-27114D01*
X12347Y-27194D02*
X12654Y-27194D01*
X11525Y-27274D02*
X11532Y-27274D01*
X12269Y-27274D02*
X12732Y-27274D01*
X11525Y-27354D02*
X11624Y-27354D01*
X12176Y-27354D02*
X12824Y-27354D01*
X13376Y-27354D02*
X13527Y-27354D01*
X11525Y-27434D02*
X13607Y-27434D01*
X11525Y-27514D02*
X13690Y-27514D01*
X11525Y-27594D02*
X13880Y-27594D01*
X11525Y-27674D02*
X14678Y-27674D01*
X11525Y-27754D02*
X14678Y-27754D01*
X11525Y-27834D02*
X14678Y-27834D01*
X11525Y-27914D02*
X13349Y-27914D01*
X13650Y-27914D02*
X14678Y-27914D01*
X11525Y-27994D02*
X13159Y-27994D01*
X13841Y-27994D02*
X13957Y-27994D01*
X11525Y-28074D02*
X13079Y-28074D01*
X11525Y-28154D02*
X12999Y-28154D01*
X11525Y-28234D02*
X11653Y-28234D01*
X12147Y-28234D02*
X12961Y-28234D01*
X11525Y-28314D02*
X11543Y-28314D01*
X12256Y-28314D02*
X12928Y-28314D01*
X12336Y-28394D02*
X12901Y-28394D01*
X12374Y-28474D02*
X12901Y-28474D01*
X12407Y-28554D02*
X12901Y-28554D01*
X12425Y-28634D02*
X12908Y-28634D01*
X14376Y-28634D02*
X14424Y-28634D01*
X12425Y-28714D02*
X12941Y-28714D01*
X14060Y-28714D02*
X14590Y-28714D01*
X12425Y-28794D02*
X12974Y-28794D01*
X14027Y-28794D02*
X14542Y-28794D01*
X12397Y-28874D02*
X13027Y-28874D01*
X13973Y-28874D02*
X14526Y-28874D01*
X12364Y-28954D02*
X13107Y-28954D01*
X13893Y-28954D02*
X14522Y-28954D01*
X12309Y-29034D02*
X13224Y-29034D01*
X13777Y-29034D02*
X14522Y-29034D01*
X11525Y-29114D02*
X11572Y-29114D01*
X12229Y-29114D02*
X14522Y-29114D01*
X11525Y-29194D02*
X11721Y-29194D01*
X12079Y-29194D02*
X14522Y-29194D01*
X11525Y-29274D02*
X14522Y-29274D01*
X11525Y-29354D02*
X14522Y-29354D01*
X11525Y-29434D02*
X14522Y-29434D01*
X11525Y-29514D02*
X14522Y-29514D01*
X11525Y-29594D02*
X14522Y-29594D01*
X11525Y-29674D02*
X14522Y-29674D01*
X11525Y-29754D02*
X14522Y-29754D01*
X11525Y-29834D02*
X14522Y-29834D01*
X11525Y-29914D02*
X13349Y-29914D01*
X13650Y-29914D02*
X13734Y-29914D01*
X11525Y-29994D02*
X13159Y-29994D01*
X11525Y-30074D02*
X13079Y-30074D01*
X11525Y-30154D02*
X12999Y-30154D01*
X11525Y-30234D02*
X12961Y-30234D01*
X14991Y-30234D02*
X15002Y-30234D01*
X11525Y-30314D02*
X12928Y-30314D01*
X14947Y-30314D02*
X15082Y-30314D01*
X11525Y-30394D02*
X12901Y-30394D01*
X14929Y-30394D02*
X15162Y-30394D01*
X11525Y-30474D02*
X12901Y-30474D01*
X14875Y-30474D02*
X15242Y-30474D01*
X11525Y-30554D02*
X12901Y-30554D01*
X14099Y-30554D02*
X15322Y-30554D01*
X11525Y-30634D02*
X12908Y-30634D01*
X14093Y-30634D02*
X15402Y-30634D01*
X11525Y-30714D02*
X11701Y-30714D01*
X12099Y-30714D02*
X12941Y-30714D01*
X14060Y-30714D02*
X15482Y-30714D01*
X11525Y-30794D02*
X11563Y-30794D01*
X12236Y-30794D02*
X12974Y-30794D01*
X14027Y-30794D02*
X15562Y-30794D01*
X12316Y-30874D02*
X13027Y-30874D01*
X13973Y-30874D02*
X15642Y-30874D01*
X12366Y-30954D02*
X13107Y-30954D01*
X13893Y-30954D02*
X15722Y-30954D01*
X12399Y-31034D02*
X13224Y-31034D01*
X13777Y-31034D02*
X15802Y-31034D01*
X12425Y-31114D02*
X15882Y-31114D01*
X12425Y-31194D02*
X15962Y-31194D01*
X12425Y-31274D02*
X16042Y-31274D01*
X12405Y-31354D02*
X16122Y-31354D01*
X12372Y-31434D02*
X16202Y-31434D01*
X24092Y-31434D02*
X24109Y-31434D01*
X12329Y-31514D02*
X16282Y-31514D01*
X23014Y-31514D02*
X23035Y-31514D01*
X24047Y-31514D02*
X24153Y-31514D01*
X11525Y-31594D02*
X11552Y-31594D01*
X12249Y-31594D02*
X16362Y-31594D01*
X20629Y-31594D02*
X20746Y-31594D01*
X22934Y-31594D02*
X23156Y-31594D01*
X23926Y-31594D02*
X24274Y-31594D01*
X11525Y-31674D02*
X11672Y-31674D01*
X12128Y-31674D02*
X16442Y-31674D01*
X20614Y-31674D02*
X20748Y-31674D01*
X22832Y-31674D02*
X24875Y-31674D01*
X11525Y-31754D02*
X16522Y-31754D01*
X20572Y-31754D02*
X20754Y-31754D01*
X21448Y-31754D02*
X24875Y-31754D01*
X11525Y-31834D02*
X12853Y-31834D01*
X13347Y-31834D02*
X14053Y-31834D01*
X14547Y-31834D02*
X15253Y-31834D01*
X15747Y-31834D02*
X16609Y-31834D01*
X20500Y-31834D02*
X20754Y-31834D01*
X21448Y-31834D02*
X24875Y-31834D01*
X11525Y-31914D02*
X11701Y-31914D01*
X12099Y-31914D02*
X12743Y-31914D01*
X13456Y-31914D02*
X13943Y-31914D01*
X14656Y-31914D02*
X15143Y-31914D01*
X15856Y-31914D02*
X17385Y-31914D01*
X17814Y-31914D02*
X20754Y-31914D01*
X21448Y-31914D02*
X24875Y-31914D01*
X11525Y-31994D02*
X11563Y-31994D01*
X12236Y-31994D02*
X12663Y-31994D01*
X13536Y-31994D02*
X13863Y-31994D01*
X14736Y-31994D02*
X15063Y-31994D01*
X15936Y-31994D02*
X17305Y-31994D01*
X17894Y-31994D02*
X20754Y-31994D01*
X21448Y-31994D02*
X24875Y-31994D01*
X12316Y-32074D02*
X12625Y-32074D01*
X13574Y-32074D02*
X13825Y-32074D01*
X14774Y-32074D02*
X15025Y-32074D01*
X15974Y-32074D02*
X17203Y-32074D01*
X17930Y-32074D02*
X20766Y-32074D01*
X21438Y-32074D02*
X24875Y-32074D01*
X12459Y-32154D02*
X12591Y-32154D01*
X13607Y-32154D02*
X13791Y-32154D01*
X14807Y-32154D02*
X14991Y-32154D01*
X16007Y-32154D02*
X17099Y-32154D01*
X17954Y-32154D02*
X20807Y-32154D01*
X21395Y-32154D02*
X24875Y-32154D01*
X12556Y-32234D02*
X12575Y-32234D01*
X13625Y-32234D02*
X13775Y-32234D01*
X14825Y-32234D02*
X14975Y-32234D01*
X16025Y-32234D02*
X17061Y-32234D01*
X17954Y-32234D02*
X20922Y-32234D01*
X21280Y-32234D02*
X24875Y-32234D01*
X13625Y-32314D02*
X13775Y-32314D01*
X14825Y-32314D02*
X14975Y-32314D01*
X16025Y-32314D02*
X17054Y-32314D01*
X17937Y-32314D02*
X24875Y-32314D01*
X13625Y-32394D02*
X13775Y-32394D01*
X14825Y-32394D02*
X14975Y-32394D01*
X16025Y-32394D02*
X17054Y-32394D01*
X17903Y-32394D02*
X24875Y-32394D01*
X13597Y-32474D02*
X13805Y-32474D01*
X14797Y-32474D02*
X15005Y-32474D01*
X15997Y-32474D02*
X17054Y-32474D01*
X17827Y-32474D02*
X24875Y-32474D01*
X13564Y-32554D02*
X13838Y-32554D01*
X14764Y-32554D02*
X15038Y-32554D01*
X15964Y-32554D02*
X17057Y-32554D01*
X17746Y-32554D02*
X24875Y-32554D01*
X13509Y-32634D02*
X13892Y-32634D01*
X14709Y-32634D02*
X15092Y-32634D01*
X15909Y-32634D02*
X17090Y-32634D01*
X17713Y-32634D02*
X24875Y-32634D01*
X13429Y-32714D02*
X13972Y-32714D01*
X14629Y-32714D02*
X15172Y-32714D01*
X15829Y-32714D02*
X17174Y-32714D01*
X17628Y-32714D02*
X24875Y-32714D01*
X13279Y-32794D02*
X14121Y-32794D01*
X14479Y-32794D02*
X15321Y-32794D01*
X15679Y-32794D02*
X16922Y-32794D01*
X17242Y-32794D02*
X24875Y-32794D01*
X17345Y-32874D02*
X24875Y-32874D01*
X17399Y-32954D02*
X24875Y-32954D01*
X17433Y-33034D02*
X24875Y-33034D01*
X17476Y-33114D02*
X24875Y-33114D01*
X17843Y-33194D02*
X18850Y-33194D01*
X19150Y-33194D02*
X20050Y-33194D01*
X20350Y-33194D02*
X21250Y-33194D01*
X21550Y-33194D02*
X22450Y-33194D01*
X22750Y-33194D02*
X23650Y-33194D01*
X23950Y-33194D02*
X24875Y-33194D01*
X17915Y-33274D02*
X18683Y-33274D01*
X19316Y-33274D02*
X19883Y-33274D01*
X20516Y-33274D02*
X21083Y-33274D01*
X21716Y-33274D02*
X22283Y-33274D01*
X22916Y-33274D02*
X23483Y-33274D01*
X24116Y-33274D02*
X24875Y-33274D01*
X17948Y-33354D02*
X18603Y-33354D01*
X19396Y-33354D02*
X19803Y-33354D01*
X20596Y-33354D02*
X21003Y-33354D01*
X21796Y-33354D02*
X22203Y-33354D01*
X22996Y-33354D02*
X23403Y-33354D01*
X24196Y-33354D02*
X24875Y-33354D01*
X17948Y-33434D02*
X18541Y-33434D01*
X19457Y-33434D02*
X19741Y-33434D01*
X20657Y-33434D02*
X20941Y-33434D01*
X21857Y-33434D02*
X22141Y-33434D01*
X23057Y-33434D02*
X23341Y-33434D01*
X24257Y-33434D02*
X24875Y-33434D01*
X17948Y-33514D02*
X18508Y-33514D01*
X19491Y-33514D02*
X19708Y-33514D01*
X20691Y-33514D02*
X20908Y-33514D01*
X21891Y-33514D02*
X22108Y-33514D01*
X23091Y-33514D02*
X23308Y-33514D01*
X24291Y-33514D02*
X24875Y-33514D01*
X17948Y-33594D02*
X18475Y-33594D01*
X19524Y-33594D02*
X19675Y-33594D01*
X20724Y-33594D02*
X20875Y-33594D01*
X21924Y-33594D02*
X22075Y-33594D01*
X23124Y-33594D02*
X23275Y-33594D01*
X24324Y-33594D02*
X24875Y-33594D01*
X17938Y-33674D02*
X18475Y-33674D01*
X19525Y-33674D02*
X19675Y-33674D01*
X20725Y-33674D02*
X20875Y-33674D01*
X21925Y-33674D02*
X22075Y-33674D01*
X23125Y-33674D02*
X23275Y-33674D01*
X24325Y-33674D02*
X24875Y-33674D01*
X17895Y-33754D02*
X18475Y-33754D01*
X19525Y-33754D02*
X19675Y-33754D01*
X20725Y-33754D02*
X20875Y-33754D01*
X21925Y-33754D02*
X22075Y-33754D01*
X23125Y-33754D02*
X23275Y-33754D01*
X24325Y-33754D02*
X24875Y-33754D01*
X17780Y-33834D02*
X18488Y-33834D01*
X19513Y-33834D02*
X19688Y-33834D01*
X20713Y-33834D02*
X20888Y-33834D01*
X21913Y-33834D02*
X22088Y-33834D01*
X23113Y-33834D02*
X23288Y-33834D01*
X24313Y-33834D02*
X24875Y-33834D01*
X17611Y-33914D02*
X18521Y-33914D01*
X19480Y-33914D02*
X19721Y-33914D01*
X20680Y-33914D02*
X20921Y-33914D01*
X21880Y-33914D02*
X22121Y-33914D01*
X23080Y-33914D02*
X23321Y-33914D01*
X24280Y-33914D02*
X24875Y-33914D01*
X17531Y-33994D02*
X18554Y-33994D01*
X19447Y-33994D02*
X19754Y-33994D01*
X20647Y-33994D02*
X20954Y-33994D01*
X21847Y-33994D02*
X22154Y-33994D01*
X23047Y-33994D02*
X23354Y-33994D01*
X24247Y-33994D02*
X24875Y-33994D01*
X17451Y-34074D02*
X18632Y-34074D01*
X19369Y-34074D02*
X19832Y-34074D01*
X20569Y-34074D02*
X21032Y-34074D01*
X21769Y-34074D02*
X22232Y-34074D01*
X22969Y-34074D02*
X23432Y-34074D01*
X24169Y-34074D02*
X24875Y-34074D01*
X18108Y-29482D02*
X18070Y-29498D01*
X18000Y-29568D01*
X17962Y-29659D01*
X17962Y-29758D01*
X17962Y-29934D01*
X17970Y-29954D01*
X17962Y-29974D01*
X17962Y-30073D01*
X17962Y-30084D01*
X17286Y-30084D01*
X17171Y-30107D01*
X17074Y-30172D01*
X16542Y-30704D01*
X16412Y-30758D01*
X16393Y-30776D01*
X15497Y-29879D01*
X15497Y-29837D01*
X15547Y-29871D01*
X15700Y-29901D01*
X15756Y-29901D01*
X15756Y-29908D01*
X15839Y-30108D01*
X15992Y-30261D01*
X16192Y-30344D01*
X16408Y-30344D01*
X16608Y-30261D01*
X16761Y-30108D01*
X16844Y-29908D01*
X16844Y-29901D01*
X17000Y-29901D01*
X17500Y-29901D01*
X17653Y-29871D01*
X17783Y-29784D01*
X17870Y-29654D01*
X17900Y-29501D01*
X17870Y-29348D01*
X17783Y-29218D01*
X17653Y-29131D01*
X17500Y-29101D01*
X17000Y-29101D01*
X16599Y-29101D01*
X16598Y-29101D01*
X16568Y-29107D01*
X16446Y-29131D01*
X16316Y-29218D01*
X16313Y-29221D01*
X16309Y-29225D01*
X16305Y-29218D01*
X16175Y-29131D01*
X16022Y-29101D01*
X15700Y-29101D01*
X15547Y-29131D01*
X15497Y-29164D01*
X15497Y-29044D01*
X15904Y-28637D01*
X15941Y-28580D01*
X15995Y-28603D01*
X16094Y-28603D01*
X16722Y-28603D01*
X16814Y-28565D01*
X16884Y-28495D01*
X16922Y-28404D01*
X16922Y-28347D01*
X16950Y-28347D01*
X17146Y-28347D01*
X17238Y-28309D01*
X17308Y-28239D01*
X17346Y-28148D01*
X17346Y-28049D01*
X17346Y-27853D01*
X17308Y-27761D01*
X17238Y-27691D01*
X17147Y-27653D01*
X17048Y-27653D01*
X16922Y-27653D01*
X16922Y-27597D01*
X16884Y-27505D01*
X16814Y-27435D01*
X16723Y-27397D01*
X16624Y-27397D01*
X15996Y-27397D01*
X15975Y-27405D01*
X15969Y-27375D01*
X15952Y-27349D01*
X15986Y-27316D01*
X16024Y-27225D01*
X16024Y-27126D01*
X16024Y-26801D01*
X16679Y-26801D01*
X16990Y-27112D01*
X17087Y-27177D01*
X17152Y-27190D01*
X17155Y-27197D01*
X17302Y-27345D01*
X17310Y-27348D01*
X17323Y-27413D01*
X17388Y-27510D01*
X17788Y-27910D01*
X17788Y-28537D01*
X17811Y-28652D01*
X17876Y-28749D01*
X17973Y-28814D01*
X18066Y-28832D01*
X18070Y-28836D01*
X18108Y-28852D01*
X18070Y-28868D01*
X18000Y-28938D01*
X17962Y-29029D01*
X17962Y-29128D01*
X17962Y-29304D01*
X18000Y-29396D01*
X18070Y-29466D01*
X18108Y-29482D01*
X16024Y-26801D02*
X16679Y-26801D01*
X16024Y-26881D02*
X16759Y-26881D01*
X16024Y-26961D02*
X16839Y-26961D01*
X16024Y-27041D02*
X16919Y-27041D01*
X16024Y-27121D02*
X17004Y-27121D01*
X16024Y-27201D02*
X17159Y-27201D01*
X16001Y-27281D02*
X17239Y-27281D01*
X15959Y-27361D02*
X17313Y-27361D01*
X16820Y-27441D02*
X17342Y-27441D01*
X16890Y-27521D02*
X17399Y-27521D01*
X16922Y-27601D02*
X17479Y-27601D01*
X17214Y-27681D02*
X17559Y-27681D01*
X17308Y-27761D02*
X17639Y-27761D01*
X17341Y-27841D02*
X17719Y-27841D01*
X17346Y-27921D02*
X17788Y-27921D01*
X17346Y-28001D02*
X17788Y-28001D01*
X17346Y-28081D02*
X17788Y-28081D01*
X17341Y-28161D02*
X17788Y-28161D01*
X17306Y-28241D02*
X17788Y-28241D01*
X17209Y-28321D02*
X17788Y-28321D01*
X16922Y-28401D02*
X17788Y-28401D01*
X16890Y-28481D02*
X17788Y-28481D01*
X16818Y-28561D02*
X17793Y-28561D01*
X15900Y-28641D02*
X17809Y-28641D01*
X15820Y-28721D02*
X17858Y-28721D01*
X15740Y-28801D02*
X17954Y-28801D01*
X15660Y-28881D02*
X18057Y-28881D01*
X15580Y-28961D02*
X17990Y-28961D01*
X15500Y-29041D02*
X17962Y-29041D01*
X15497Y-29121D02*
X15598Y-29121D01*
X16124Y-29121D02*
X16496Y-29121D01*
X17602Y-29121D02*
X17962Y-29121D01*
X16279Y-29201D02*
X16341Y-29201D01*
X17757Y-29201D02*
X17962Y-29201D01*
X17825Y-29281D02*
X17962Y-29281D01*
X17872Y-29361D02*
X17986Y-29361D01*
X17888Y-29441D02*
X18045Y-29441D01*
X17897Y-29521D02*
X18047Y-29521D01*
X17881Y-29601D02*
X17986Y-29601D01*
X17852Y-29681D02*
X17962Y-29681D01*
X17799Y-29761D02*
X17962Y-29761D01*
X15497Y-29841D02*
X15503Y-29841D01*
X17698Y-29841D02*
X17962Y-29841D01*
X15538Y-29921D02*
X15762Y-29921D01*
X16839Y-29921D02*
X17962Y-29921D01*
X15618Y-30001D02*
X15795Y-30001D01*
X16806Y-30001D02*
X17962Y-30001D01*
X15698Y-30081D02*
X15828Y-30081D01*
X16773Y-30081D02*
X17962Y-30081D01*
X15778Y-30161D02*
X15892Y-30161D01*
X16708Y-30161D02*
X17090Y-30161D01*
X15858Y-30241D02*
X15972Y-30241D01*
X16628Y-30241D02*
X17005Y-30241D01*
X15938Y-30321D02*
X16137Y-30321D01*
X16464Y-30321D02*
X16925Y-30321D01*
X16018Y-30401D02*
X16845Y-30401D01*
X16098Y-30481D02*
X16765Y-30481D01*
X16178Y-30561D02*
X16685Y-30561D01*
X16258Y-30641D02*
X16605Y-30641D01*
X16338Y-30721D02*
X16501Y-30721D01*
X12587Y-27034D02*
X12587Y-27034D01*
X12508Y-27114D02*
X12621Y-27114D01*
X12347Y-27194D02*
X12654Y-27194D01*
X11525Y-27274D02*
X11532Y-27274D01*
X12269Y-27274D02*
X12732Y-27274D01*
X11525Y-27354D02*
X11624Y-27354D01*
X12176Y-27354D02*
X12824Y-27354D01*
X13376Y-27354D02*
X13527Y-27354D01*
X11525Y-27434D02*
X13607Y-27434D01*
X11525Y-27514D02*
X13690Y-27514D01*
X11525Y-27594D02*
X13880Y-27594D01*
X11525Y-27674D02*
X14678Y-27674D01*
X11525Y-27754D02*
X14678Y-27754D01*
X11525Y-27834D02*
X14678Y-27834D01*
X11525Y-27914D02*
X13349Y-27914D01*
X13650Y-27914D02*
X14678Y-27914D01*
X11525Y-27994D02*
X13159Y-27994D01*
X13841Y-27994D02*
X13957Y-27994D01*
X11525Y-28074D02*
X13079Y-28074D01*
X11525Y-28154D02*
X12999Y-28154D01*
X11525Y-28234D02*
X11653Y-28234D01*
X12147Y-28234D02*
X12961Y-28234D01*
X11525Y-28314D02*
X11543Y-28314D01*
X12256Y-28314D02*
X12928Y-28314D01*
X12336Y-28394D02*
X12901Y-28394D01*
X12374Y-28474D02*
X12901Y-28474D01*
X12407Y-28554D02*
X12901Y-28554D01*
X12425Y-28634D02*
X12908Y-28634D01*
X14376Y-28634D02*
X14424Y-28634D01*
X12425Y-28714D02*
X12941Y-28714D01*
X14060Y-28714D02*
X14590Y-28714D01*
X12425Y-28794D02*
X12974Y-28794D01*
X14027Y-28794D02*
X14542Y-28794D01*
X12397Y-28874D02*
X13027Y-28874D01*
X13973Y-28874D02*
X14526Y-28874D01*
X12364Y-28954D02*
X13107Y-28954D01*
X13893Y-28954D02*
X14522Y-28954D01*
X12309Y-29034D02*
X13224Y-29034D01*
X13777Y-29034D02*
X14522Y-29034D01*
X11525Y-29114D02*
X11572Y-29114D01*
X12229Y-29114D02*
X14522Y-29114D01*
X11525Y-29194D02*
X11721Y-29194D01*
X12079Y-29194D02*
X14522Y-29194D01*
X11525Y-29274D02*
X14522Y-29274D01*
X11525Y-29354D02*
X14522Y-29354D01*
X11525Y-29434D02*
X14522Y-29434D01*
X11525Y-29514D02*
X14522Y-29514D01*
X11525Y-29594D02*
X14522Y-29594D01*
X11525Y-29674D02*
X14522Y-29674D01*
X11525Y-29754D02*
X14522Y-29754D01*
X11525Y-29834D02*
X14522Y-29834D01*
X11525Y-29914D02*
X13349Y-29914D01*
X13650Y-29914D02*
X13734Y-29914D01*
X11525Y-29994D02*
X13159Y-29994D01*
X11525Y-30074D02*
X13079Y-30074D01*
X11525Y-30154D02*
X12999Y-30154D01*
X11525Y-30234D02*
X12961Y-30234D01*
X14991Y-30234D02*
X15002Y-30234D01*
X11525Y-30314D02*
X12928Y-30314D01*
X14947Y-30314D02*
X15082Y-30314D01*
X11525Y-30394D02*
X12901Y-30394D01*
X14929Y-30394D02*
X15162Y-30394D01*
X11525Y-30474D02*
X12901Y-30474D01*
X14875Y-30474D02*
X15242Y-30474D01*
X11525Y-30554D02*
X12901Y-30554D01*
X14099Y-30554D02*
X15322Y-30554D01*
X11525Y-30634D02*
X12908Y-30634D01*
X14093Y-30634D02*
X15402Y-30634D01*
X11525Y-30714D02*
X11701Y-30714D01*
X12099Y-30714D02*
X12941Y-30714D01*
X14060Y-30714D02*
X15482Y-30714D01*
X11525Y-30794D02*
X11563Y-30794D01*
X12236Y-30794D02*
X12974Y-30794D01*
X14027Y-30794D02*
X15562Y-30794D01*
X12316Y-30874D02*
X13027Y-30874D01*
X13973Y-30874D02*
X15642Y-30874D01*
X12366Y-30954D02*
X13107Y-30954D01*
X13893Y-30954D02*
X15722Y-30954D01*
X12399Y-31034D02*
X13224Y-31034D01*
X13777Y-31034D02*
X15802Y-31034D01*
X12425Y-31114D02*
X15882Y-31114D01*
X12425Y-31194D02*
X15962Y-31194D01*
X12425Y-31274D02*
X16042Y-31274D01*
X12405Y-31354D02*
X16122Y-31354D01*
X12372Y-31434D02*
X16202Y-31434D01*
X24092Y-31434D02*
X24109Y-31434D01*
X12329Y-31514D02*
X16282Y-31514D01*
X23014Y-31514D02*
X23035Y-31514D01*
X24047Y-31514D02*
X24153Y-31514D01*
X11525Y-31594D02*
X11552Y-31594D01*
X12249Y-31594D02*
X16362Y-31594D01*
X20629Y-31594D02*
X20746Y-31594D01*
X22934Y-31594D02*
X23156Y-31594D01*
X23926Y-31594D02*
X24274Y-31594D01*
X11525Y-31674D02*
X11672Y-31674D01*
X12128Y-31674D02*
X16442Y-31674D01*
X20614Y-31674D02*
X20748Y-31674D01*
X22832Y-31674D02*
X24875Y-31674D01*
X11525Y-31754D02*
X16522Y-31754D01*
X20572Y-31754D02*
X20754Y-31754D01*
X21448Y-31754D02*
X24875Y-31754D01*
X11525Y-31834D02*
X12853Y-31834D01*
X13347Y-31834D02*
X14053Y-31834D01*
X14547Y-31834D02*
X15253Y-31834D01*
X15747Y-31834D02*
X16609Y-31834D01*
X20500Y-31834D02*
X20754Y-31834D01*
X21448Y-31834D02*
X24875Y-31834D01*
X11525Y-31914D02*
X11701Y-31914D01*
X12099Y-31914D02*
X12743Y-31914D01*
X13456Y-31914D02*
X13943Y-31914D01*
X14656Y-31914D02*
X15143Y-31914D01*
X15856Y-31914D02*
X17385Y-31914D01*
X17814Y-31914D02*
X20754Y-31914D01*
X21448Y-31914D02*
X24875Y-31914D01*
X11525Y-31994D02*
X11563Y-31994D01*
X12236Y-31994D02*
X12663Y-31994D01*
X13536Y-31994D02*
X13863Y-31994D01*
X14736Y-31994D02*
X15063Y-31994D01*
X15936Y-31994D02*
X17305Y-31994D01*
X17894Y-31994D02*
X20754Y-31994D01*
X21448Y-31994D02*
X24875Y-31994D01*
X12316Y-32074D02*
X12625Y-32074D01*
X13574Y-32074D02*
X13825Y-32074D01*
X14774Y-32074D02*
X15025Y-32074D01*
X15974Y-32074D02*
X17203Y-32074D01*
X17930Y-32074D02*
X20766Y-32074D01*
X21438Y-32074D02*
X24875Y-32074D01*
X12459Y-32154D02*
X12591Y-32154D01*
X13607Y-32154D02*
X13791Y-32154D01*
X14807Y-32154D02*
X14991Y-32154D01*
X16007Y-32154D02*
X17099Y-32154D01*
X17954Y-32154D02*
X20807Y-32154D01*
X21395Y-32154D02*
X24875Y-32154D01*
X12556Y-32234D02*
X12575Y-32234D01*
X13625Y-32234D02*
X13775Y-32234D01*
X14825Y-32234D02*
X14975Y-32234D01*
X16025Y-32234D02*
X17061Y-32234D01*
X17954Y-32234D02*
X20922Y-32234D01*
X21280Y-32234D02*
X24875Y-32234D01*
X13625Y-32314D02*
X13775Y-32314D01*
X14825Y-32314D02*
X14975Y-32314D01*
X16025Y-32314D02*
X17054Y-32314D01*
X17937Y-32314D02*
X24875Y-32314D01*
X13625Y-32394D02*
X13775Y-32394D01*
X14825Y-32394D02*
X14975Y-32394D01*
X16025Y-32394D02*
X17054Y-32394D01*
X17903Y-32394D02*
X24875Y-32394D01*
X13597Y-32474D02*
X13805Y-32474D01*
X14797Y-32474D02*
X15005Y-32474D01*
X15997Y-32474D02*
X17054Y-32474D01*
X17827Y-32474D02*
X24875Y-32474D01*
X13564Y-32554D02*
X13838Y-32554D01*
X14764Y-32554D02*
X15038Y-32554D01*
X15964Y-32554D02*
X17057Y-32554D01*
X17746Y-32554D02*
X24875Y-32554D01*
X13509Y-32634D02*
X13892Y-32634D01*
X14709Y-32634D02*
X15092Y-32634D01*
X15909Y-32634D02*
X17090Y-32634D01*
X17713Y-32634D02*
X24875Y-32634D01*
X13429Y-32714D02*
X13972Y-32714D01*
X14629Y-32714D02*
X15172Y-32714D01*
X15829Y-32714D02*
X17174Y-32714D01*
X17628Y-32714D02*
X24875Y-32714D01*
X13279Y-32794D02*
X14121Y-32794D01*
X14479Y-32794D02*
X15321Y-32794D01*
X15679Y-32794D02*
X16922Y-32794D01*
X17242Y-32794D02*
X24875Y-32794D01*
X17345Y-32874D02*
X24875Y-32874D01*
X17399Y-32954D02*
X24875Y-32954D01*
X17433Y-33034D02*
X24875Y-33034D01*
X17476Y-33114D02*
X24875Y-33114D01*
X17843Y-33194D02*
X18850Y-33194D01*
X19150Y-33194D02*
X20050Y-33194D01*
X20350Y-33194D02*
X21250Y-33194D01*
X21550Y-33194D02*
X22450Y-33194D01*
X22750Y-33194D02*
X23650Y-33194D01*
X23950Y-33194D02*
X24875Y-33194D01*
X17915Y-33274D02*
X18683Y-33274D01*
X19316Y-33274D02*
X19883Y-33274D01*
X20516Y-33274D02*
X21083Y-33274D01*
X21716Y-33274D02*
X22283Y-33274D01*
X22916Y-33274D02*
X23483Y-33274D01*
X24116Y-33274D02*
X24875Y-33274D01*
X17948Y-33354D02*
X18603Y-33354D01*
X19396Y-33354D02*
X19803Y-33354D01*
X20596Y-33354D02*
X21003Y-33354D01*
X21796Y-33354D02*
X22203Y-33354D01*
X22996Y-33354D02*
X23403Y-33354D01*
X24196Y-33354D02*
X24875Y-33354D01*
X17948Y-33434D02*
X18541Y-33434D01*
X19457Y-33434D02*
X19741Y-33434D01*
X20657Y-33434D02*
X20941Y-33434D01*
X21857Y-33434D02*
X22141Y-33434D01*
X23057Y-33434D02*
X23341Y-33434D01*
X24257Y-33434D02*
X24875Y-33434D01*
X17948Y-33514D02*
X18508Y-33514D01*
X19491Y-33514D02*
X19708Y-33514D01*
X20691Y-33514D02*
X20908Y-33514D01*
X21891Y-33514D02*
X22108Y-33514D01*
X23091Y-33514D02*
X23308Y-33514D01*
X24291Y-33514D02*
X24875Y-33514D01*
X17948Y-33594D02*
X18475Y-33594D01*
X19524Y-33594D02*
X19675Y-33594D01*
X20724Y-33594D02*
X20875Y-33594D01*
X21924Y-33594D02*
X22075Y-33594D01*
X23124Y-33594D02*
X23275Y-33594D01*
X24324Y-33594D02*
X24875Y-33594D01*
X17938Y-33674D02*
X18475Y-33674D01*
X19525Y-33674D02*
X19675Y-33674D01*
X20725Y-33674D02*
X20875Y-33674D01*
X21925Y-33674D02*
X22075Y-33674D01*
X23125Y-33674D02*
X23275Y-33674D01*
X24325Y-33674D02*
X24875Y-33674D01*
X17895Y-33754D02*
X18475Y-33754D01*
X19525Y-33754D02*
X19675Y-33754D01*
X20725Y-33754D02*
X20875Y-33754D01*
X21925Y-33754D02*
X22075Y-33754D01*
X23125Y-33754D02*
X23275Y-33754D01*
X24325Y-33754D02*
X24875Y-33754D01*
X17780Y-33834D02*
X18488Y-33834D01*
X19513Y-33834D02*
X19688Y-33834D01*
X20713Y-33834D02*
X20888Y-33834D01*
X21913Y-33834D02*
X22088Y-33834D01*
X23113Y-33834D02*
X23288Y-33834D01*
X24313Y-33834D02*
X24875Y-33834D01*
X17611Y-33914D02*
X18521Y-33914D01*
X19480Y-33914D02*
X19721Y-33914D01*
X20680Y-33914D02*
X20921Y-33914D01*
X21880Y-33914D02*
X22121Y-33914D01*
X23080Y-33914D02*
X23321Y-33914D01*
X24280Y-33914D02*
X24875Y-33914D01*
X17531Y-33994D02*
X18554Y-33994D01*
X19447Y-33994D02*
X19754Y-33994D01*
X20647Y-33994D02*
X20954Y-33994D01*
X21847Y-33994D02*
X22154Y-33994D01*
X23047Y-33994D02*
X23354Y-33994D01*
X24247Y-33994D02*
X24875Y-33994D01*
X17451Y-34074D02*
X18632Y-34074D01*
X19369Y-34074D02*
X19832Y-34074D01*
X20569Y-34074D02*
X21032Y-34074D01*
X21769Y-34074D02*
X22232Y-34074D01*
X22969Y-34074D02*
X23432Y-34074D01*
X24169Y-34074D02*
X24875Y-34074D01*
X24875Y-34075D02*
X24167Y-34075D01*
X24245Y-33998D01*
X24325Y-33805D01*
X24325Y-33596D01*
X24245Y-33403D01*
X24098Y-33255D01*
X23905Y-33175D01*
X23696Y-33175D01*
X23503Y-33255D01*
X23355Y-33402D01*
X23275Y-33595D01*
X23275Y-33804D01*
X23355Y-33997D01*
X23432Y-34075D01*
X22967Y-34075D01*
X23045Y-33998D01*
X23125Y-33805D01*
X23125Y-33596D01*
X23045Y-33403D01*
X22898Y-33255D01*
X22705Y-33175D01*
X22496Y-33175D01*
X22303Y-33255D01*
X22155Y-33402D01*
X22075Y-33595D01*
X22075Y-33804D01*
X22155Y-33997D01*
X22232Y-34075D01*
X21767Y-34075D01*
X21845Y-33998D01*
X21925Y-33805D01*
X21925Y-33596D01*
X21845Y-33403D01*
X21698Y-33255D01*
X21505Y-33175D01*
X21296Y-33175D01*
X21103Y-33255D01*
X20955Y-33402D01*
X20875Y-33595D01*
X20875Y-33804D01*
X20955Y-33997D01*
X21032Y-34075D01*
X20567Y-34075D01*
X20645Y-33998D01*
X20725Y-33805D01*
X20725Y-33596D01*
X20645Y-33403D01*
X20498Y-33255D01*
X20305Y-33175D01*
X20096Y-33175D01*
X19903Y-33255D01*
X19755Y-33402D01*
X19675Y-33595D01*
X19675Y-33804D01*
X19755Y-33997D01*
X19832Y-34075D01*
X19367Y-34075D01*
X19445Y-33998D01*
X19525Y-33805D01*
X19525Y-33596D01*
X19445Y-33403D01*
X19298Y-33255D01*
X19105Y-33175D01*
X18896Y-33175D01*
X18703Y-33255D01*
X18555Y-33402D01*
X18475Y-33595D01*
X18475Y-33804D01*
X18555Y-33997D01*
X18632Y-34075D01*
X17450Y-34075D01*
X17678Y-33847D01*
X17748Y-33847D01*
X17840Y-33809D01*
X17910Y-33739D01*
X17948Y-33648D01*
X17948Y-33549D01*
X17948Y-33353D01*
X17910Y-33261D01*
X17840Y-33191D01*
X17749Y-33153D01*
X17650Y-33153D01*
X17484Y-33153D01*
X17476Y-33113D01*
X17436Y-33053D01*
X17436Y-33041D01*
X17382Y-32911D01*
X17283Y-32811D01*
X17153Y-32757D01*
X17012Y-32757D01*
X16882Y-32811D01*
X15637Y-32811D01*
X15797Y-32745D01*
X15945Y-32598D01*
X16025Y-32405D01*
X16025Y-32196D01*
X15945Y-32003D01*
X15798Y-31855D01*
X15605Y-31775D01*
X15396Y-31775D01*
X15203Y-31855D01*
X15055Y-32002D01*
X14975Y-32195D01*
X14975Y-32404D01*
X15055Y-32597D01*
X15202Y-32745D01*
X15361Y-32811D01*
X14437Y-32811D01*
X14597Y-32745D01*
X14745Y-32598D01*
X14825Y-32405D01*
X14825Y-32196D01*
X14745Y-32003D01*
X14598Y-31855D01*
X14405Y-31775D01*
X14196Y-31775D01*
X14003Y-31855D01*
X13855Y-32002D01*
X13775Y-32195D01*
X13775Y-32404D01*
X13855Y-32597D01*
X14002Y-32745D01*
X14161Y-32811D01*
X13237Y-32811D01*
X13397Y-32745D01*
X13545Y-32598D01*
X13625Y-32405D01*
X13625Y-32196D01*
X13545Y-32003D01*
X13398Y-31855D01*
X13205Y-31775D01*
X12996Y-31775D01*
X12803Y-31855D01*
X12655Y-32002D01*
X12575Y-32195D01*
X12575Y-32253D01*
X12510Y-32188D01*
X12413Y-32123D01*
X12347Y-32109D01*
X12345Y-32103D01*
X12198Y-31955D01*
X12005Y-31875D01*
X11796Y-31875D01*
X11603Y-31955D01*
X11525Y-32032D01*
X11525Y-31567D01*
X11602Y-31645D01*
X11795Y-31725D01*
X12004Y-31725D01*
X12197Y-31645D01*
X12345Y-31498D01*
X12425Y-31305D01*
X12425Y-31096D01*
X12345Y-30903D01*
X12198Y-30755D01*
X12005Y-30675D01*
X11796Y-30675D01*
X11603Y-30755D01*
X11525Y-30832D01*
X11525Y-29067D01*
X11602Y-29145D01*
X11795Y-29225D01*
X12004Y-29225D01*
X12197Y-29145D01*
X12345Y-28998D01*
X12425Y-28805D01*
X12425Y-28596D01*
X12345Y-28403D01*
X12198Y-28255D01*
X12005Y-28175D01*
X11796Y-28175D01*
X11603Y-28255D01*
X11525Y-28332D01*
X11525Y-27267D01*
X11602Y-27345D01*
X11795Y-27425D01*
X12004Y-27425D01*
X12197Y-27345D01*
X12345Y-27198D01*
X12348Y-27189D01*
X12413Y-27177D01*
X12510Y-27112D01*
X12587Y-27034D01*
X12655Y-27197D01*
X12802Y-27345D01*
X12995Y-27425D01*
X13204Y-27425D01*
X13397Y-27345D01*
X13457Y-27284D01*
X13683Y-27510D01*
X13684Y-27510D01*
X13781Y-27575D01*
X13895Y-27597D01*
X13896Y-27598D01*
X14678Y-27598D01*
X14678Y-27695D01*
X14678Y-27952D01*
X14649Y-27952D01*
X14453Y-27952D01*
X14400Y-27973D01*
X14348Y-27952D01*
X14249Y-27952D01*
X14053Y-27952D01*
X13961Y-27990D01*
X13952Y-27999D01*
X13846Y-27999D01*
X13839Y-27992D01*
X13619Y-27901D01*
X13381Y-27901D01*
X13161Y-27992D01*
X12992Y-28161D01*
X12901Y-28381D01*
X12901Y-28619D01*
X12992Y-28839D01*
X13161Y-29008D01*
X13381Y-29099D01*
X13619Y-29099D01*
X13839Y-29008D01*
X14008Y-28839D01*
X14087Y-28646D01*
X14151Y-28646D01*
X14347Y-28646D01*
X14399Y-28624D01*
X14452Y-28646D01*
X14551Y-28646D01*
X14648Y-28646D01*
X14610Y-28685D01*
X14545Y-28782D01*
X14522Y-28897D01*
X14522Y-29854D01*
X14453Y-29854D01*
X14400Y-29875D01*
X14348Y-29854D01*
X14249Y-29854D01*
X14053Y-29854D01*
X13961Y-29892D01*
X13952Y-29901D01*
X13799Y-29901D01*
X13684Y-29924D01*
X13680Y-29926D01*
X13619Y-29901D01*
X13381Y-29901D01*
X13161Y-29992D01*
X12992Y-30161D01*
X12901Y-30381D01*
X12901Y-30619D01*
X12992Y-30839D01*
X13161Y-31008D01*
X13381Y-31099D01*
X13619Y-31099D01*
X13839Y-31008D01*
X14008Y-30839D01*
X14099Y-30619D01*
X14099Y-30548D01*
X14151Y-30548D01*
X14347Y-30548D01*
X14399Y-30526D01*
X14452Y-30548D01*
X14551Y-30548D01*
X14747Y-30548D01*
X14839Y-30510D01*
X14909Y-30440D01*
X14947Y-30349D01*
X14947Y-30278D01*
X14996Y-30228D01*
X16591Y-31823D01*
X16592Y-31823D01*
X16689Y-31888D01*
X16804Y-31911D01*
X17388Y-31911D01*
X17300Y-31999D01*
X17277Y-32053D01*
X17254Y-32053D01*
X17162Y-32091D01*
X17092Y-32161D01*
X17054Y-32252D01*
X17054Y-32351D01*
X17054Y-32547D01*
X17092Y-32639D01*
X17162Y-32709D01*
X17253Y-32747D01*
X17352Y-32747D01*
X17548Y-32747D01*
X17640Y-32709D01*
X17710Y-32639D01*
X17748Y-32548D01*
X17748Y-32521D01*
X17800Y-32500D01*
X17900Y-32401D01*
X17954Y-32271D01*
X17954Y-32130D01*
X17900Y-32000D01*
X17811Y-31911D01*
X20304Y-31911D01*
X20419Y-31888D01*
X20516Y-31823D01*
X20544Y-31796D01*
X20544Y-31795D01*
X20609Y-31698D01*
X20631Y-31583D01*
X20632Y-31583D01*
X20632Y-31542D01*
X20746Y-31542D01*
X20746Y-31670D01*
X20767Y-31720D01*
X20754Y-31752D01*
X20754Y-31851D01*
X20754Y-32047D01*
X20792Y-32139D01*
X20862Y-32209D01*
X20953Y-32247D01*
X21052Y-32247D01*
X21248Y-32247D01*
X21340Y-32209D01*
X21410Y-32139D01*
X21448Y-32048D01*
X21448Y-31949D01*
X21448Y-31753D01*
X21434Y-31719D01*
X21434Y-31717D01*
X22687Y-31717D01*
X22802Y-31694D01*
X22899Y-31629D01*
X23024Y-31503D01*
X23086Y-31565D01*
X23177Y-31603D01*
X23276Y-31603D01*
X23904Y-31603D01*
X23996Y-31565D01*
X24066Y-31495D01*
X24100Y-31413D01*
X24134Y-31495D01*
X24204Y-31565D01*
X24295Y-31603D01*
X24394Y-31603D01*
X24875Y-31603D01*
X24875Y-34075D01*
M02*
