G04 (created by PCBNEW-RS274X (2011-07-08)-stable) date Wed 23 Nov 2011 11:36:48 PM EST*
G01*
G70*
G90*
%MOIN*%
G04 Gerber Fmt 3.4, Leading zero omitted, Abs format*
%FSLAX34Y34*%
G04 APERTURE LIST*
%ADD10C,0.006000*%
%ADD11C,0.015000*%
%ADD12R,0.086600X0.094500*%
%ADD13C,0.059100*%
%ADD14C,0.070000*%
%ADD15R,0.070000X0.070000*%
%ADD16R,0.055000X0.055000*%
%ADD17C,0.055000*%
%ADD18R,0.019700X0.019700*%
%ADD19R,0.023600X0.086600*%
%ADD20R,0.016000X0.050000*%
%ADD21C,0.021000*%
%ADD22C,0.010000*%
%ADD23C,0.008000*%
%ADD24C,0.030000*%
G04 APERTURE END LIST*
G54D10*
G54D11*
X15300Y-30000D02*
X15800Y-30000D01*
X15550Y-30250D02*
X15550Y-29800D01*
G54D12*
X21740Y-28500D03*
X19260Y-28500D03*
G54D13*
X16300Y-28800D03*
X16300Y-29800D03*
G54D14*
X13500Y-28500D03*
G54D15*
X13500Y-29500D03*
G54D14*
X13500Y-30500D03*
G54D16*
X15500Y-26900D03*
G54D17*
X16500Y-26900D03*
G54D18*
X23699Y-31000D03*
X24101Y-31000D03*
X23699Y-30000D03*
X24101Y-30000D03*
X23699Y-29000D03*
X24101Y-29000D03*
X23699Y-28000D03*
X24101Y-28000D03*
X15601Y-27500D03*
X15199Y-27500D03*
X19601Y-27200D03*
X19199Y-27200D03*
X21399Y-27200D03*
X21801Y-27200D03*
X16401Y-27500D03*
X15999Y-27500D03*
G54D19*
X17950Y-31676D03*
X17450Y-31676D03*
X16950Y-31676D03*
X16450Y-31676D03*
X16450Y-33723D03*
X16950Y-33723D03*
X17450Y-33723D03*
X17950Y-33723D03*
G54D20*
X19050Y-32800D03*
X19300Y-32800D03*
X19560Y-32800D03*
X19820Y-32800D03*
X20070Y-32800D03*
X20330Y-32800D03*
X20590Y-32800D03*
X20840Y-32800D03*
X21100Y-32800D03*
X21350Y-32800D03*
X21610Y-32800D03*
X21870Y-32800D03*
X22120Y-32800D03*
X22380Y-32800D03*
X22380Y-30000D03*
X22120Y-30000D03*
X21880Y-30000D03*
X21610Y-30000D03*
X21350Y-30000D03*
X21100Y-30000D03*
X20840Y-30000D03*
X20590Y-30000D03*
X20330Y-30000D03*
X20070Y-30000D03*
X19820Y-30000D03*
X19560Y-30000D03*
X19300Y-30000D03*
X19050Y-30000D03*
G54D17*
X11900Y-32400D03*
X11900Y-33600D03*
X11900Y-29900D03*
X11900Y-31200D03*
X11900Y-28700D03*
X14300Y-33600D03*
X13100Y-32300D03*
X14300Y-32300D03*
X15500Y-33600D03*
X15500Y-32300D03*
X14300Y-26900D03*
X13100Y-26900D03*
X19000Y-33700D03*
X20200Y-33700D03*
X21400Y-33700D03*
X22600Y-33700D03*
X23800Y-33700D03*
X17600Y-26900D03*
X11900Y-26900D03*
X22700Y-26900D03*
G54D21*
X24100Y-28600D03*
X24101Y-29601D03*
X24101Y-30601D03*
X17082Y-33111D03*
X24101Y-27601D03*
X16612Y-31058D03*
X21100Y-31600D03*
X20300Y-28200D03*
X21859Y-30488D03*
X18570Y-31136D03*
X20231Y-28789D03*
X20330Y-29080D03*
X19136Y-26558D03*
X17600Y-32200D03*
X17709Y-30896D03*
X21704Y-29485D03*
X18700Y-27200D03*
G54D22*
X19399Y-26801D02*
X19400Y-26800D01*
X19301Y-26801D02*
X19399Y-26801D01*
X19300Y-26800D02*
X19000Y-26800D01*
X19301Y-26801D02*
X19300Y-26800D01*
X19301Y-26900D02*
X19301Y-26801D01*
X19000Y-26800D02*
X18600Y-26400D01*
X18900Y-26900D02*
X18800Y-26800D01*
X19100Y-26900D02*
X18900Y-26900D01*
X18600Y-26400D02*
X18600Y-26357D01*
X19100Y-26900D02*
X19000Y-26800D01*
X19122Y-26900D02*
X19100Y-26900D01*
X18600Y-26357D02*
X18591Y-26348D01*
X21399Y-27200D02*
X19601Y-27200D01*
X19601Y-27200D02*
X19301Y-26900D01*
X19301Y-26900D02*
X19122Y-26900D01*
X16401Y-27500D02*
X16401Y-27279D01*
X12698Y-29500D02*
X12298Y-29900D01*
X13500Y-29500D02*
X12698Y-29500D01*
X23699Y-31000D02*
X23699Y-30778D01*
X23699Y-30000D02*
X23699Y-30778D01*
X16500Y-27180D02*
X16500Y-26900D01*
X16401Y-27279D02*
X16500Y-27180D01*
X23699Y-28000D02*
X23699Y-29000D01*
X23699Y-29000D02*
X23699Y-30000D01*
X11900Y-29900D02*
X12099Y-29900D01*
X12099Y-29900D02*
X12298Y-29900D01*
X15985Y-34188D02*
X16450Y-33723D01*
X11545Y-34188D02*
X15985Y-34188D01*
X11501Y-34144D02*
X11545Y-34188D01*
X11501Y-30498D02*
X11501Y-34144D01*
X12099Y-29900D02*
X11501Y-30498D01*
X13500Y-29500D02*
X13973Y-29500D01*
X14673Y-28800D02*
X16300Y-28800D01*
X13973Y-29500D02*
X14673Y-28800D01*
X17052Y-26348D02*
X16500Y-26900D01*
X18591Y-26348D02*
X17052Y-26348D01*
X18811Y-26128D02*
X18591Y-26348D01*
X23071Y-26128D02*
X18811Y-26128D01*
X23699Y-26756D02*
X23071Y-26128D01*
X23699Y-28000D02*
X23699Y-26756D01*
X20590Y-30373D02*
X19300Y-30373D01*
X20590Y-30000D02*
X20590Y-30373D01*
X19300Y-30000D02*
X19300Y-30373D01*
X19050Y-30000D02*
X19300Y-30000D01*
X24100Y-28600D02*
X24101Y-28601D01*
G54D23*
X24101Y-29000D02*
X24101Y-28601D01*
G54D22*
X24100Y-29600D02*
X24101Y-29601D01*
G54D23*
X24101Y-29601D02*
X24100Y-29600D01*
X24101Y-30000D02*
X24101Y-29601D01*
X24101Y-31000D02*
X24101Y-30601D01*
X24101Y-30601D02*
X24100Y-30600D01*
G54D24*
X15500Y-30600D02*
X16300Y-29800D01*
X15500Y-32300D02*
X15500Y-30600D01*
X13000Y-32300D02*
X11900Y-31200D01*
X13100Y-32300D02*
X13000Y-32300D01*
X14300Y-32300D02*
X13100Y-32300D01*
X15500Y-32300D02*
X14300Y-32300D01*
X15500Y-32300D02*
X15500Y-33600D01*
X15500Y-33600D02*
X14300Y-33600D01*
X14300Y-33600D02*
X14300Y-32300D01*
G54D22*
X17026Y-33167D02*
X17082Y-33111D01*
X16950Y-33167D02*
X17026Y-33167D01*
X16950Y-33723D02*
X16950Y-33167D01*
X12696Y-33998D02*
X12298Y-33600D01*
X15873Y-33998D02*
X12696Y-33998D01*
X16208Y-33663D02*
X15873Y-33998D01*
X16208Y-32894D02*
X16208Y-33663D01*
X16236Y-32866D02*
X16208Y-32894D01*
X17172Y-32866D02*
X16236Y-32866D01*
X17450Y-33144D02*
X17172Y-32866D01*
X17450Y-33723D02*
X17450Y-33144D01*
X11900Y-33600D02*
X12298Y-33600D01*
G54D23*
X24101Y-28000D02*
X24101Y-27601D01*
X24101Y-27601D02*
X24100Y-27600D01*
G54D22*
X19820Y-29468D02*
X19820Y-30000D01*
X19792Y-29440D02*
X19820Y-29468D01*
X19022Y-29440D02*
X19792Y-29440D01*
X17571Y-27989D02*
X19022Y-29440D01*
X14588Y-27989D02*
X17571Y-27989D01*
X13733Y-27134D02*
X14588Y-27989D01*
X13733Y-26735D02*
X13733Y-27134D01*
X13499Y-26501D02*
X13733Y-26735D01*
X12697Y-26501D02*
X13499Y-26501D01*
X12298Y-26900D02*
X12697Y-26501D01*
X11900Y-26900D02*
X12298Y-26900D01*
X16450Y-31676D02*
X16450Y-31120D01*
X16550Y-31120D02*
X16450Y-31120D01*
X16612Y-31058D02*
X16550Y-31120D01*
X21100Y-30000D02*
X21100Y-31600D01*
X12498Y-28500D02*
X12298Y-28700D01*
X13500Y-28500D02*
X12498Y-28500D01*
X11900Y-28700D02*
X12298Y-28700D01*
X21740Y-28500D02*
X21740Y-27261D01*
X21740Y-27261D02*
X21801Y-27200D01*
X20600Y-28500D02*
X21740Y-28500D01*
X20300Y-28200D02*
X20600Y-28500D01*
X21610Y-30000D02*
X21610Y-30373D01*
X21744Y-30373D02*
X21859Y-30488D01*
X21610Y-30373D02*
X21744Y-30373D01*
X17950Y-31676D02*
X17950Y-31120D01*
X18554Y-31120D02*
X17950Y-31120D01*
X18570Y-31136D02*
X18554Y-31120D01*
X20070Y-28950D02*
X20070Y-30000D01*
X20231Y-28789D02*
X20070Y-28950D01*
X22380Y-32800D02*
X22380Y-32880D01*
X23200Y-33100D02*
X23800Y-33700D01*
X22600Y-33100D02*
X23200Y-33100D01*
X22380Y-32880D02*
X22600Y-33100D01*
X22120Y-32800D02*
X22120Y-32427D01*
X22380Y-32427D02*
X22120Y-32427D01*
X22380Y-30000D02*
X22380Y-32427D01*
X22380Y-32427D02*
X22380Y-32800D01*
X21870Y-32427D02*
X21610Y-32427D01*
X21870Y-32800D02*
X21870Y-32427D01*
X21800Y-33200D02*
X22202Y-33700D01*
X22600Y-33700D02*
X22202Y-33700D01*
X21610Y-32800D02*
X21700Y-33200D01*
X21700Y-33200D02*
X21800Y-33200D01*
X21350Y-32800D02*
X21350Y-32613D01*
X21350Y-32613D02*
X21350Y-32455D01*
X21350Y-32455D02*
X21378Y-32427D01*
X21378Y-32427D02*
X21610Y-32427D01*
X21610Y-32800D02*
X21610Y-32427D01*
X15500Y-26900D02*
X15500Y-27298D01*
X15601Y-27399D02*
X15500Y-27298D01*
X15601Y-27500D02*
X15601Y-27399D01*
X15999Y-27500D02*
X15777Y-27500D01*
X15601Y-27500D02*
X15777Y-27500D01*
X19050Y-33252D02*
X19000Y-33302D01*
X19050Y-32800D02*
X19050Y-33252D01*
X19000Y-33700D02*
X19000Y-33302D01*
X19300Y-32800D02*
X19300Y-32613D01*
X19300Y-32455D02*
X19300Y-32613D01*
X19050Y-32800D02*
X19050Y-32427D01*
X19272Y-32427D02*
X19050Y-32427D01*
X19300Y-32455D02*
X19272Y-32427D01*
X19560Y-32800D02*
X19560Y-32427D01*
X19560Y-32427D02*
X19328Y-32427D01*
X19328Y-32427D02*
X19300Y-32455D01*
X20330Y-32427D02*
X20070Y-32427D01*
X20330Y-32800D02*
X20330Y-32427D01*
X20071Y-33173D02*
X20200Y-33302D01*
X20070Y-33173D02*
X20071Y-33173D01*
X20200Y-33700D02*
X20200Y-33302D01*
X20070Y-32800D02*
X20070Y-33173D01*
X19820Y-32800D02*
X19820Y-32613D01*
X20070Y-32800D02*
X20070Y-32427D01*
X19848Y-32427D02*
X20070Y-32427D01*
X19820Y-32455D02*
X19848Y-32427D01*
X19820Y-32613D02*
X19820Y-32455D01*
X21100Y-32427D02*
X20840Y-32427D01*
X21100Y-32800D02*
X21100Y-32427D01*
X21002Y-33335D02*
X21002Y-33700D01*
X21400Y-33700D02*
X21002Y-33700D01*
X20840Y-32800D02*
X20840Y-33173D01*
X20840Y-33173D02*
X21002Y-33335D01*
X20590Y-32800D02*
X20590Y-32613D01*
X20590Y-32613D02*
X20590Y-32455D01*
X20590Y-32455D02*
X20618Y-32427D01*
X20618Y-32427D02*
X20840Y-32427D01*
X20840Y-32800D02*
X20840Y-32427D01*
X20330Y-30000D02*
X20330Y-29080D01*
X22120Y-29518D02*
X22120Y-30000D01*
X23099Y-28539D02*
X22120Y-29518D01*
X23099Y-26529D02*
X23099Y-28539D01*
X23071Y-26501D02*
X23099Y-26529D01*
X19193Y-26501D02*
X23071Y-26501D01*
X19136Y-26558D02*
X19193Y-26501D01*
X13100Y-26900D02*
X13498Y-26900D01*
X19560Y-30000D02*
X19560Y-29627D01*
X18963Y-29627D02*
X19560Y-29627D01*
X17672Y-28336D02*
X18963Y-29627D01*
X14690Y-28336D02*
X17672Y-28336D01*
X13498Y-27144D02*
X14690Y-28336D01*
X13498Y-26900D02*
X13498Y-27144D01*
X17450Y-32050D02*
X17450Y-31676D01*
X17600Y-32200D02*
X17450Y-32050D01*
X16950Y-31676D02*
X16950Y-31120D01*
X16950Y-31120D02*
X17450Y-31120D01*
X17450Y-31676D02*
X17450Y-31120D01*
X17674Y-30896D02*
X17450Y-31120D01*
X17709Y-30896D02*
X17674Y-30896D01*
X22700Y-28620D02*
X22700Y-26900D01*
X21835Y-29485D02*
X22700Y-28620D01*
X21704Y-29485D02*
X21835Y-29485D01*
X19199Y-27200D02*
X19199Y-28439D01*
X19199Y-28439D02*
X19260Y-28500D01*
X18700Y-27200D02*
X19199Y-27200D01*
X20840Y-30000D02*
X20840Y-29660D01*
X21350Y-29650D02*
X21350Y-30000D01*
X21300Y-29600D02*
X21350Y-29650D01*
X20900Y-29600D02*
X21300Y-29600D01*
X20840Y-29660D02*
X20900Y-29600D01*
X17600Y-26900D02*
X17202Y-26900D01*
X20840Y-30000D02*
X20840Y-30373D01*
X17950Y-33723D02*
X17950Y-33167D01*
X15422Y-27723D02*
X15199Y-27500D01*
X16614Y-27723D02*
X15422Y-27723D01*
X17202Y-27135D02*
X16614Y-27723D01*
X17202Y-26900D02*
X17202Y-27135D01*
X19909Y-31304D02*
X19469Y-31304D01*
X20840Y-30373D02*
X19909Y-31304D01*
X17545Y-29380D02*
X19469Y-31304D01*
X14620Y-29380D02*
X17545Y-29380D01*
X13500Y-30500D02*
X14620Y-29380D01*
X19469Y-31648D02*
X17950Y-33167D01*
X19469Y-31304D02*
X19469Y-31648D01*
X19050Y-32650D02*
X19491Y-32650D01*
X19050Y-32730D02*
X19491Y-32730D01*
X19050Y-32810D02*
X19491Y-32810D01*
X19050Y-32890D02*
X19491Y-32890D01*
X19050Y-32970D02*
X19491Y-32970D01*
X19050Y-33050D02*
X19479Y-33050D01*
X19050Y-33130D02*
X19399Y-33130D01*
X19050Y-33210D02*
X19319Y-33210D01*
X19050Y-33290D02*
X19250Y-33290D01*
X19050Y-33370D02*
X19250Y-33370D01*
X19050Y-33450D02*
X19250Y-33450D01*
X19050Y-33530D02*
X19250Y-33530D01*
X19050Y-33610D02*
X19250Y-33610D01*
X19050Y-33690D02*
X19250Y-33690D01*
X19491Y-33038D02*
X19250Y-33279D01*
X19250Y-33750D01*
X19050Y-33750D01*
X19050Y-32650D01*
X19491Y-32650D01*
X19491Y-33038D01*
X19889Y-32650D02*
X20261Y-32650D01*
X19889Y-32730D02*
X20261Y-32730D01*
X19889Y-32810D02*
X20261Y-32810D01*
X19898Y-32890D02*
X20261Y-32890D01*
X19912Y-32970D02*
X20261Y-32970D01*
X19925Y-33050D02*
X20261Y-33050D01*
X19938Y-33130D02*
X20274Y-33130D01*
X19952Y-33210D02*
X20318Y-33210D01*
X19965Y-33290D02*
X20350Y-33290D01*
X19978Y-33370D02*
X20350Y-33370D01*
X19992Y-33450D02*
X20350Y-33450D01*
X20005Y-33530D02*
X20350Y-33530D01*
X20018Y-33610D02*
X20350Y-33610D01*
X20032Y-33690D02*
X20350Y-33690D01*
X20350Y-33750D02*
X20042Y-33750D01*
X19889Y-32830D01*
X19889Y-32650D01*
X20261Y-32650D01*
X20261Y-33099D01*
X20299Y-33191D01*
X20350Y-33242D01*
X20350Y-33750D01*
X20659Y-32650D02*
X21021Y-32650D01*
X20659Y-32730D02*
X21021Y-32730D01*
X20659Y-32810D02*
X21021Y-32810D01*
X20659Y-32890D02*
X21021Y-32890D01*
X20659Y-32970D02*
X21021Y-32970D01*
X20721Y-33050D02*
X21021Y-33050D01*
X20801Y-33130D02*
X21034Y-33130D01*
X20858Y-33210D02*
X21078Y-33210D01*
X20890Y-33290D02*
X21199Y-33290D01*
X20922Y-33370D02*
X21299Y-33370D01*
X20954Y-33450D02*
X21350Y-33450D01*
X20986Y-33530D02*
X21350Y-33530D01*
X21018Y-33610D02*
X21350Y-33610D01*
X21350Y-33650D02*
X21034Y-33650D01*
X20843Y-33172D01*
X20659Y-32988D01*
X20659Y-32650D01*
X21021Y-32650D01*
X21021Y-33099D01*
X21059Y-33191D01*
X21129Y-33261D01*
X21220Y-33299D01*
X21228Y-33299D01*
X21350Y-33421D01*
X21350Y-33650D01*
X22199Y-32650D02*
X22461Y-32650D01*
X22199Y-32730D02*
X22481Y-32730D01*
X22199Y-32810D02*
X22501Y-32810D01*
X22199Y-32890D02*
X22521Y-32890D01*
X22199Y-32970D02*
X22541Y-32970D01*
X22312Y-33050D02*
X23376Y-33050D01*
X22472Y-33130D02*
X23440Y-33130D01*
X23181Y-33210D02*
X23504Y-33210D01*
X23261Y-33290D02*
X23568Y-33290D01*
X23341Y-33370D02*
X23632Y-33370D01*
X23421Y-33450D02*
X23696Y-33450D01*
X23501Y-33530D02*
X23750Y-33530D01*
X23581Y-33610D02*
X23750Y-33610D01*
X23750Y-33650D02*
X23621Y-33650D01*
X23121Y-33150D01*
X22512Y-33150D01*
X22199Y-32993D01*
X22199Y-32650D01*
X22461Y-32650D01*
X22561Y-33050D01*
X23376Y-33050D01*
X23750Y-33518D01*
X23750Y-33650D01*
X12587Y-27034D02*
X12587Y-27034D01*
X12508Y-27114D02*
X12621Y-27114D01*
X12347Y-27194D02*
X12654Y-27194D01*
X11525Y-27274D02*
X11532Y-27274D01*
X12269Y-27274D02*
X12732Y-27274D01*
X11525Y-27354D02*
X11624Y-27354D01*
X12176Y-27354D02*
X12824Y-27354D01*
X11525Y-27434D02*
X13364Y-27434D01*
X11525Y-27514D02*
X13444Y-27514D01*
X11525Y-27594D02*
X13524Y-27594D01*
X11525Y-27674D02*
X13604Y-27674D01*
X11525Y-27754D02*
X13684Y-27754D01*
X11525Y-27834D02*
X13764Y-27834D01*
X11525Y-27914D02*
X13349Y-27914D01*
X13650Y-27914D02*
X13844Y-27914D01*
X11525Y-27994D02*
X13159Y-27994D01*
X13841Y-27994D02*
X13924Y-27994D01*
X11525Y-28074D02*
X13079Y-28074D01*
X13921Y-28074D02*
X14004Y-28074D01*
X11525Y-28154D02*
X12999Y-28154D01*
X14001Y-28154D02*
X14084Y-28154D01*
X11525Y-28234D02*
X11653Y-28234D01*
X12147Y-28234D02*
X12366Y-28234D01*
X14038Y-28234D02*
X14164Y-28234D01*
X11525Y-28314D02*
X11543Y-28314D01*
X12256Y-28314D02*
X12258Y-28314D01*
X14071Y-28314D02*
X14244Y-28314D01*
X14099Y-28394D02*
X14324Y-28394D01*
X14099Y-28474D02*
X14404Y-28474D01*
X14099Y-28554D02*
X14487Y-28554D01*
X14093Y-28634D02*
X14684Y-28634D01*
X14060Y-28714D02*
X17625Y-28714D01*
X14027Y-28794D02*
X17705Y-28794D01*
X12548Y-28874D02*
X13027Y-28874D01*
X13973Y-28874D02*
X17785Y-28874D01*
X12448Y-28954D02*
X13107Y-28954D01*
X13893Y-28954D02*
X17865Y-28954D01*
X12309Y-29034D02*
X13224Y-29034D01*
X13777Y-29034D02*
X17945Y-29034D01*
X11525Y-29114D02*
X11572Y-29114D01*
X12229Y-29114D02*
X14488Y-29114D01*
X17676Y-29114D02*
X18025Y-29114D01*
X11525Y-29194D02*
X11721Y-29194D01*
X12079Y-29194D02*
X14381Y-29194D01*
X17783Y-29194D02*
X18105Y-29194D01*
X11525Y-29274D02*
X14301Y-29274D01*
X17863Y-29274D02*
X18185Y-29274D01*
X11525Y-29354D02*
X14221Y-29354D01*
X17943Y-29354D02*
X18265Y-29354D01*
X11525Y-29434D02*
X14141Y-29434D01*
X18023Y-29434D02*
X18345Y-29434D01*
X11525Y-29514D02*
X14061Y-29514D01*
X18103Y-29514D02*
X18425Y-29514D01*
X11525Y-29594D02*
X13981Y-29594D01*
X18183Y-29594D02*
X18505Y-29594D01*
X11525Y-29674D02*
X13901Y-29674D01*
X18263Y-29674D02*
X18585Y-29674D01*
X11525Y-29754D02*
X13821Y-29754D01*
X14670Y-29754D02*
X15094Y-29754D01*
X18343Y-29754D02*
X18665Y-29754D01*
X11525Y-29834D02*
X13741Y-29834D01*
X14590Y-29834D02*
X15027Y-29834D01*
X18423Y-29834D02*
X18745Y-29834D01*
X11525Y-29914D02*
X13349Y-29914D01*
X13650Y-29914D02*
X13661Y-29914D01*
X14510Y-29914D02*
X14992Y-29914D01*
X18503Y-29914D02*
X18900Y-29914D01*
X11525Y-29994D02*
X13159Y-29994D01*
X14430Y-29994D02*
X14976Y-29994D01*
X18583Y-29994D02*
X19231Y-29994D01*
X11525Y-30074D02*
X13079Y-30074D01*
X14350Y-30074D02*
X14990Y-30074D01*
X18663Y-30074D02*
X19231Y-30074D01*
X11525Y-30154D02*
X12999Y-30154D01*
X14270Y-30154D02*
X15020Y-30154D01*
X18743Y-30154D02*
X19231Y-30154D01*
X11525Y-30234D02*
X12961Y-30234D01*
X14190Y-30234D02*
X15077Y-30234D01*
X18823Y-30234D02*
X19231Y-30234D01*
X11525Y-30314D02*
X12928Y-30314D01*
X14110Y-30314D02*
X15219Y-30314D01*
X18903Y-30314D02*
X19238Y-30314D01*
X11525Y-30394D02*
X12901Y-30394D01*
X14099Y-30394D02*
X15165Y-30394D01*
X18983Y-30394D02*
X19272Y-30394D01*
X11525Y-30474D02*
X12901Y-30474D01*
X14099Y-30474D02*
X15124Y-30474D01*
X19063Y-30474D02*
X19371Y-30474D01*
X11525Y-30554D02*
X12901Y-30554D01*
X14099Y-30554D02*
X15109Y-30554D01*
X19143Y-30554D02*
X20234Y-30554D01*
X11525Y-30634D02*
X12908Y-30634D01*
X14093Y-30634D02*
X15100Y-30634D01*
X19223Y-30634D02*
X20154Y-30634D01*
X11525Y-30714D02*
X11701Y-30714D01*
X12099Y-30714D02*
X12941Y-30714D01*
X14060Y-30714D02*
X15100Y-30714D01*
X19303Y-30714D02*
X20074Y-30714D01*
X11525Y-30794D02*
X11563Y-30794D01*
X12236Y-30794D02*
X12974Y-30794D01*
X14027Y-30794D02*
X15100Y-30794D01*
X19383Y-30794D02*
X19994Y-30794D01*
X12316Y-30874D02*
X13027Y-30874D01*
X13973Y-30874D02*
X15100Y-30874D01*
X19463Y-30874D02*
X19914Y-30874D01*
X12366Y-30954D02*
X13107Y-30954D01*
X13893Y-30954D02*
X15100Y-30954D01*
X19543Y-30954D02*
X19834Y-30954D01*
X12399Y-31034D02*
X13224Y-31034D01*
X13777Y-31034D02*
X15100Y-31034D01*
X12425Y-31114D02*
X15100Y-31114D01*
X12459Y-31194D02*
X15100Y-31194D01*
X12539Y-31274D02*
X15100Y-31274D01*
X12619Y-31354D02*
X15100Y-31354D01*
X12699Y-31434D02*
X15100Y-31434D01*
X12779Y-31514D02*
X15100Y-31514D01*
X12859Y-31594D02*
X15100Y-31594D01*
X12939Y-31674D02*
X15100Y-31674D01*
X13019Y-31754D02*
X15100Y-31754D01*
X13347Y-31834D02*
X14053Y-31834D01*
X14547Y-31834D02*
X15100Y-31834D01*
X19393Y-26801D02*
X22175Y-26801D01*
X19414Y-26881D02*
X21586Y-26881D01*
X22016Y-26881D02*
X22175Y-26881D01*
X19508Y-26961D02*
X21492Y-26961D01*
X22110Y-26961D02*
X22175Y-26961D01*
X19541Y-27041D02*
X21458Y-27041D01*
X22143Y-27041D02*
X22191Y-27041D01*
X19546Y-27121D02*
X21454Y-27121D01*
X22148Y-27121D02*
X22224Y-27121D01*
X19546Y-27201D02*
X21452Y-27201D01*
X22148Y-27201D02*
X22259Y-27201D01*
X19546Y-27281D02*
X21440Y-27281D01*
X22148Y-27281D02*
X22339Y-27281D01*
X19541Y-27361D02*
X21440Y-27361D01*
X22143Y-27361D02*
X22400Y-27361D01*
X19506Y-27441D02*
X21440Y-27441D01*
X22108Y-27441D02*
X22400Y-27441D01*
X19499Y-27521D02*
X21440Y-27521D01*
X22040Y-27521D02*
X22400Y-27521D01*
X19499Y-27601D02*
X21440Y-27601D01*
X22040Y-27601D02*
X22400Y-27601D01*
X19499Y-27681D02*
X21440Y-27681D01*
X22040Y-27681D02*
X22400Y-27681D01*
X19499Y-27761D02*
X21440Y-27761D01*
X22040Y-27761D02*
X22400Y-27761D01*
X19858Y-27841D02*
X21142Y-27841D01*
X22338Y-27841D02*
X22400Y-27841D01*
X19918Y-27921D02*
X20078Y-27921D01*
X20521Y-27921D02*
X21081Y-27921D01*
X22398Y-27921D02*
X22400Y-27921D01*
X19942Y-28001D02*
X19999Y-28001D01*
X20600Y-28001D02*
X21058Y-28001D01*
X19942Y-28081D02*
X19965Y-28081D01*
X20633Y-28081D02*
X21058Y-28081D01*
X19942Y-28161D02*
X19946Y-28161D01*
X20685Y-28161D02*
X21058Y-28161D01*
X19942Y-28241D02*
X19946Y-28241D01*
X19942Y-28321D02*
X19968Y-28321D01*
X19942Y-28401D02*
X20001Y-28401D01*
X19942Y-28481D02*
X20049Y-28481D01*
X19942Y-28561D02*
X19958Y-28561D01*
X11525Y-26025D02*
X24875Y-26025D01*
X11525Y-26105D02*
X24875Y-26105D01*
X11525Y-26185D02*
X24875Y-26185D01*
X11525Y-26265D02*
X12520Y-26265D01*
X13675Y-26265D02*
X18928Y-26265D01*
X23247Y-26265D02*
X24875Y-26265D01*
X11525Y-26345D02*
X12428Y-26345D01*
X13767Y-26345D02*
X18848Y-26345D01*
X23329Y-26345D02*
X24875Y-26345D01*
X11525Y-26425D02*
X11675Y-26425D01*
X12125Y-26425D02*
X12348Y-26425D01*
X13847Y-26425D02*
X14075Y-26425D01*
X14525Y-26425D02*
X15073Y-26425D01*
X15927Y-26425D02*
X17375Y-26425D01*
X17825Y-26425D02*
X18807Y-26425D01*
X23378Y-26425D02*
X24875Y-26425D01*
X11525Y-26505D02*
X11552Y-26505D01*
X12248Y-26505D02*
X12268Y-26505D01*
X13927Y-26505D02*
X13951Y-26505D01*
X14647Y-26505D02*
X15005Y-26505D01*
X15994Y-26505D02*
X17252Y-26505D01*
X17947Y-26505D02*
X18782Y-26505D01*
X23394Y-26505D02*
X24875Y-26505D01*
X14727Y-26585D02*
X14976Y-26585D01*
X16024Y-26585D02*
X17172Y-26585D01*
X18027Y-26585D02*
X18782Y-26585D01*
X23399Y-26585D02*
X24875Y-26585D01*
X14770Y-26665D02*
X14976Y-26665D01*
X16024Y-26665D02*
X17024Y-26665D01*
X18070Y-26665D02*
X18798Y-26665D01*
X23399Y-26665D02*
X24875Y-26665D01*
X14803Y-26745D02*
X14976Y-26745D01*
X16024Y-26745D02*
X16951Y-26745D01*
X18103Y-26745D02*
X18831Y-26745D01*
X23399Y-26745D02*
X24875Y-26745D01*
X14825Y-26825D02*
X14976Y-26825D01*
X16024Y-26825D02*
X16917Y-26825D01*
X18125Y-26825D02*
X18903Y-26825D01*
X23399Y-26825D02*
X24875Y-26825D01*
X14825Y-26905D02*
X14976Y-26905D01*
X16024Y-26905D02*
X16902Y-26905D01*
X18125Y-26905D02*
X18494Y-26905D01*
X23399Y-26905D02*
X24875Y-26905D01*
X14825Y-26985D02*
X14976Y-26985D01*
X16024Y-26985D02*
X16902Y-26985D01*
X18125Y-26985D02*
X18414Y-26985D01*
X23399Y-26985D02*
X24875Y-26985D01*
X14801Y-27065D02*
X14976Y-27065D01*
X16024Y-27065D02*
X16847Y-27065D01*
X18101Y-27065D02*
X18372Y-27065D01*
X23399Y-27065D02*
X24875Y-27065D01*
X14767Y-27145D02*
X14976Y-27145D01*
X16024Y-27145D02*
X16767Y-27145D01*
X18067Y-27145D02*
X18346Y-27145D01*
X23399Y-27145D02*
X24875Y-27145D01*
X14718Y-27225D02*
X14926Y-27225D01*
X16272Y-27225D02*
X16687Y-27225D01*
X18018Y-27225D02*
X18346Y-27225D01*
X23399Y-27225D02*
X24875Y-27225D01*
X14638Y-27305D02*
X14871Y-27305D01*
X16326Y-27305D02*
X16607Y-27305D01*
X17938Y-27305D02*
X18361Y-27305D01*
X23399Y-27305D02*
X23896Y-27305D01*
X24305Y-27305D02*
X24875Y-27305D01*
X14501Y-27385D02*
X14852Y-27385D01*
X16346Y-27385D02*
X16527Y-27385D01*
X17376Y-27385D02*
X17400Y-27385D01*
X17801Y-27385D02*
X18394Y-27385D01*
X23399Y-27385D02*
X23816Y-27385D01*
X24385Y-27385D02*
X24875Y-27385D01*
X14488Y-27465D02*
X14852Y-27465D01*
X17296Y-27465D02*
X18465Y-27465D01*
X23399Y-27465D02*
X23774Y-27465D01*
X24427Y-27465D02*
X24875Y-27465D01*
X14568Y-27545D02*
X14852Y-27545D01*
X17216Y-27545D02*
X18608Y-27545D01*
X18792Y-27545D02*
X18899Y-27545D01*
X23399Y-27545D02*
X23747Y-27545D01*
X24455Y-27545D02*
X24875Y-27545D01*
X14648Y-27625D02*
X14852Y-27625D01*
X17136Y-27625D02*
X18899Y-27625D01*
X23399Y-27625D02*
X23747Y-27625D01*
X24455Y-27625D02*
X24875Y-27625D01*
X17651Y-27705D02*
X18899Y-27705D01*
X23399Y-27705D02*
X23762Y-27705D01*
X24442Y-27705D02*
X24875Y-27705D01*
X17791Y-27785D02*
X18763Y-27785D01*
X23399Y-27785D02*
X23781Y-27785D01*
X24420Y-27785D02*
X24875Y-27785D01*
X17871Y-27865D02*
X18638Y-27865D01*
X23399Y-27865D02*
X23754Y-27865D01*
X24448Y-27865D02*
X24875Y-27865D01*
X17951Y-27945D02*
X18591Y-27945D01*
X23399Y-27945D02*
X23754Y-27945D01*
X24448Y-27945D02*
X24875Y-27945D01*
X18031Y-28025D02*
X18578Y-28025D01*
X23399Y-28025D02*
X23754Y-28025D01*
X24448Y-28025D02*
X24875Y-28025D01*
X18111Y-28105D02*
X18578Y-28105D01*
X23399Y-28105D02*
X23754Y-28105D01*
X24448Y-28105D02*
X24875Y-28105D01*
X18191Y-28185D02*
X18578Y-28185D01*
X23399Y-28185D02*
X23770Y-28185D01*
X24433Y-28185D02*
X24875Y-28185D01*
X18271Y-28265D02*
X18578Y-28265D01*
X23399Y-28265D02*
X23818Y-28265D01*
X24384Y-28265D02*
X24875Y-28265D01*
X18351Y-28345D02*
X18578Y-28345D01*
X23399Y-28345D02*
X23854Y-28345D01*
X24345Y-28345D02*
X24875Y-28345D01*
X18431Y-28425D02*
X18578Y-28425D01*
X23399Y-28425D02*
X23789Y-28425D01*
X24410Y-28425D02*
X24875Y-28425D01*
X18511Y-28505D02*
X18578Y-28505D01*
X23399Y-28505D02*
X23755Y-28505D01*
X24443Y-28505D02*
X24875Y-28505D01*
X23390Y-28585D02*
X23746Y-28585D01*
X24454Y-28585D02*
X24875Y-28585D01*
X23369Y-28665D02*
X23746Y-28665D01*
X24454Y-28665D02*
X24875Y-28665D01*
X23316Y-28745D02*
X23777Y-28745D01*
X24423Y-28745D02*
X24875Y-28745D01*
X23237Y-28825D02*
X23764Y-28825D01*
X24436Y-28825D02*
X24875Y-28825D01*
X23157Y-28905D02*
X23754Y-28905D01*
X24448Y-28905D02*
X24875Y-28905D01*
X23077Y-28985D02*
X23754Y-28985D01*
X24448Y-28985D02*
X24875Y-28985D01*
X22997Y-29065D02*
X23754Y-29065D01*
X24448Y-29065D02*
X24875Y-29065D01*
X22917Y-29145D02*
X23754Y-29145D01*
X24448Y-29145D02*
X24875Y-29145D01*
X22837Y-29225D02*
X23787Y-29225D01*
X24416Y-29225D02*
X24875Y-29225D01*
X22757Y-29305D02*
X23858Y-29305D01*
X24344Y-29305D02*
X24875Y-29305D01*
X22677Y-29385D02*
X23816Y-29385D01*
X24385Y-29385D02*
X24875Y-29385D01*
X22597Y-29465D02*
X23774Y-29465D01*
X24427Y-29465D02*
X24875Y-29465D01*
X22607Y-29545D02*
X23747Y-29545D01*
X24455Y-29545D02*
X24875Y-29545D01*
X22677Y-29625D02*
X23747Y-29625D01*
X24455Y-29625D02*
X24875Y-29625D01*
X22709Y-29705D02*
X23762Y-29705D01*
X24442Y-29705D02*
X24875Y-29705D01*
X22709Y-29785D02*
X23781Y-29785D01*
X24420Y-29785D02*
X24875Y-29785D01*
X22709Y-29865D02*
X23754Y-29865D01*
X24448Y-29865D02*
X24875Y-29865D01*
X22709Y-29945D02*
X23754Y-29945D01*
X24448Y-29945D02*
X24875Y-29945D01*
X22709Y-30025D02*
X23754Y-30025D01*
X24448Y-30025D02*
X24875Y-30025D01*
X22709Y-30105D02*
X23754Y-30105D01*
X24448Y-30105D02*
X24875Y-30105D01*
X22709Y-30185D02*
X23770Y-30185D01*
X24433Y-30185D02*
X24875Y-30185D01*
X22709Y-30265D02*
X23818Y-30265D01*
X24384Y-30265D02*
X24875Y-30265D01*
X22691Y-30345D02*
X23856Y-30345D01*
X24345Y-30345D02*
X24875Y-30345D01*
X22680Y-30425D02*
X23790Y-30425D01*
X24410Y-30425D02*
X24875Y-30425D01*
X22680Y-30505D02*
X23757Y-30505D01*
X24444Y-30505D02*
X24875Y-30505D01*
X22680Y-30585D02*
X23747Y-30585D01*
X24455Y-30585D02*
X24875Y-30585D01*
X22680Y-30665D02*
X23747Y-30665D01*
X24455Y-30665D02*
X24875Y-30665D01*
X22680Y-30745D02*
X23778Y-30745D01*
X24425Y-30745D02*
X24455Y-30745D01*
X24455Y-30745D02*
X24875Y-30745D01*
X22680Y-30825D02*
X23765Y-30825D01*
X24436Y-30825D02*
X24455Y-30825D01*
X24455Y-30825D02*
X24875Y-30825D01*
X22680Y-30905D02*
X23754Y-30905D01*
X24448Y-30905D02*
X24455Y-30905D01*
X24455Y-30905D02*
X24875Y-30905D01*
X22680Y-30985D02*
X23754Y-30985D01*
X24448Y-30985D02*
X24455Y-30985D01*
X24455Y-30985D02*
X24875Y-30985D01*
X22680Y-31065D02*
X23754Y-31065D01*
X24448Y-31065D02*
X24455Y-31065D01*
X24455Y-31065D02*
X24875Y-31065D01*
X22680Y-31145D02*
X23754Y-31145D01*
X24448Y-31145D02*
X24455Y-31145D01*
X24455Y-31145D02*
X24875Y-31145D01*
X22680Y-31225D02*
X23787Y-31225D01*
X24416Y-31225D02*
X24455Y-31225D01*
X24455Y-31225D02*
X24875Y-31225D01*
X22680Y-31305D02*
X23858Y-31305D01*
X24344Y-31305D02*
X24455Y-31305D01*
X24455Y-31305D02*
X24875Y-31305D01*
X22680Y-31385D02*
X24455Y-31385D01*
X24455Y-31385D02*
X24875Y-31385D01*
X22680Y-31465D02*
X24455Y-31465D01*
X24455Y-31465D02*
X24875Y-31465D01*
X22680Y-31545D02*
X24455Y-31545D01*
X24455Y-31545D02*
X24875Y-31545D01*
X22680Y-31625D02*
X24455Y-31625D01*
X24455Y-31625D02*
X24875Y-31625D01*
X22680Y-31705D02*
X24455Y-31705D01*
X24455Y-31705D02*
X24875Y-31705D01*
X22680Y-31785D02*
X24455Y-31785D01*
X24455Y-31785D02*
X24875Y-31785D01*
X22680Y-31865D02*
X24455Y-31865D01*
X24455Y-31865D02*
X24875Y-31865D01*
X22680Y-31945D02*
X24455Y-31945D01*
X24455Y-31945D02*
X24875Y-31945D01*
X22680Y-32025D02*
X24455Y-32025D01*
X24455Y-32025D02*
X24875Y-32025D01*
X22680Y-32105D02*
X24455Y-32105D01*
X24455Y-32105D02*
X24875Y-32105D01*
X22680Y-32185D02*
X24455Y-32185D01*
X24455Y-32185D02*
X24875Y-32185D01*
X22693Y-32265D02*
X24455Y-32265D01*
X24455Y-32265D02*
X24875Y-32265D01*
X22748Y-32345D02*
X24455Y-32345D01*
X24455Y-32345D02*
X24875Y-32345D01*
X22803Y-32425D02*
X24455Y-32425D01*
X24455Y-32425D02*
X24875Y-32425D01*
X22857Y-32505D02*
X24455Y-32505D01*
X24455Y-32505D02*
X24875Y-32505D01*
X22912Y-32585D02*
X24455Y-32585D01*
X24455Y-32585D02*
X24875Y-32585D01*
X22967Y-32665D02*
X24455Y-32665D01*
X24455Y-32665D02*
X24875Y-32665D01*
X23022Y-32745D02*
X24455Y-32745D01*
X24455Y-32745D02*
X24875Y-32745D01*
X23844Y-32825D02*
X24455Y-32825D01*
X24455Y-32825D02*
X24875Y-32825D01*
X23984Y-32905D02*
X24455Y-32905D01*
X24455Y-32905D02*
X24875Y-32905D01*
X24124Y-32985D02*
X24455Y-32985D01*
X24455Y-32985D02*
X24875Y-32985D01*
X24264Y-33065D02*
X24455Y-33065D01*
X24455Y-33065D02*
X24875Y-33065D01*
X24404Y-33145D02*
X24455Y-33145D01*
X24455Y-33145D02*
X24875Y-33145D01*
X24450Y-33225D02*
X24455Y-33225D01*
X24455Y-33225D02*
X24875Y-33225D01*
X24450Y-33305D02*
X24455Y-33305D01*
X24455Y-33305D02*
X24875Y-33305D01*
X24450Y-33385D02*
X24455Y-33385D01*
X24455Y-33385D02*
X24875Y-33385D01*
X24450Y-33465D02*
X24455Y-33465D01*
X24455Y-33465D02*
X24875Y-33465D01*
X24450Y-33545D02*
X24455Y-33545D01*
X24455Y-33545D02*
X24875Y-33545D01*
X24450Y-33625D02*
X24455Y-33625D01*
X24455Y-33625D02*
X24875Y-33625D01*
X24450Y-33705D02*
X24455Y-33705D01*
X24455Y-33705D02*
X24875Y-33705D01*
X24450Y-33785D02*
X24455Y-33785D01*
X24455Y-33785D02*
X24875Y-33785D01*
X24450Y-33865D02*
X24455Y-33865D01*
X24455Y-33865D02*
X24875Y-33865D01*
X24450Y-33945D02*
X24455Y-33945D01*
X24455Y-33945D02*
X24875Y-33945D01*
X24450Y-34025D02*
X24455Y-34025D01*
X24455Y-34025D02*
X24875Y-34025D01*
X20289Y-30499D02*
X19784Y-31004D01*
X19593Y-31004D01*
X17757Y-29168D01*
X17660Y-29103D01*
X17545Y-29080D01*
X14620Y-29080D01*
X14505Y-29103D01*
X14408Y-29168D01*
X14407Y-29168D01*
X14407Y-29169D01*
X13658Y-29917D01*
X13619Y-29901D01*
X13381Y-29901D01*
X13161Y-29992D01*
X12992Y-30161D01*
X12901Y-30381D01*
X12901Y-30619D01*
X12992Y-30839D01*
X13161Y-31008D01*
X13381Y-31099D01*
X13619Y-31099D01*
X13839Y-31008D01*
X14008Y-30839D01*
X14099Y-30619D01*
X14099Y-30381D01*
X14082Y-30341D01*
X14744Y-29680D01*
X15275Y-29680D01*
X15176Y-29700D01*
X15070Y-29770D01*
X15000Y-29876D01*
X14975Y-30000D01*
X15000Y-30124D01*
X15070Y-30230D01*
X15176Y-30300D01*
X15224Y-30309D01*
X15217Y-30317D01*
X15130Y-30447D01*
X15100Y-30600D01*
X15100Y-31900D01*
X14642Y-31900D01*
X14598Y-31855D01*
X14405Y-31775D01*
X14196Y-31775D01*
X14003Y-31855D01*
X13957Y-31900D01*
X13442Y-31900D01*
X13398Y-31855D01*
X13205Y-31775D01*
X13040Y-31775D01*
X12425Y-31159D01*
X12425Y-31096D01*
X12345Y-30903D01*
X12198Y-30755D01*
X12005Y-30675D01*
X11796Y-30675D01*
X11603Y-30755D01*
X11525Y-30832D01*
X11525Y-29067D01*
X11602Y-29145D01*
X11795Y-29225D01*
X12004Y-29225D01*
X12197Y-29145D01*
X12345Y-28998D01*
X12348Y-28989D01*
X12413Y-28977D01*
X12510Y-28912D01*
X12622Y-28800D01*
X12975Y-28800D01*
X12992Y-28839D01*
X13161Y-29008D01*
X13381Y-29099D01*
X13619Y-29099D01*
X13839Y-29008D01*
X14008Y-28839D01*
X14099Y-28619D01*
X14099Y-28381D01*
X14008Y-28161D01*
X13839Y-27992D01*
X13619Y-27901D01*
X13381Y-27901D01*
X13161Y-27992D01*
X12992Y-28161D01*
X12975Y-28200D01*
X12498Y-28200D01*
X12383Y-28223D01*
X12285Y-28288D01*
X12257Y-28315D01*
X12198Y-28255D01*
X12005Y-28175D01*
X11796Y-28175D01*
X11603Y-28255D01*
X11525Y-28332D01*
X11525Y-27267D01*
X11602Y-27345D01*
X11795Y-27425D01*
X12004Y-27425D01*
X12197Y-27345D01*
X12345Y-27198D01*
X12348Y-27189D01*
X12413Y-27177D01*
X12510Y-27112D01*
X12587Y-27034D01*
X12655Y-27197D01*
X12802Y-27345D01*
X12995Y-27425D01*
X13204Y-27425D01*
X13310Y-27380D01*
X14477Y-28548D01*
X14478Y-28548D01*
X14575Y-28613D01*
X14689Y-28635D01*
X14690Y-28636D01*
X17547Y-28636D01*
X18750Y-29839D01*
X18751Y-29839D01*
X18848Y-29904D01*
X18962Y-29926D01*
X18963Y-29927D01*
X19231Y-29927D01*
X19231Y-30299D01*
X19269Y-30391D01*
X19339Y-30461D01*
X19430Y-30499D01*
X19529Y-30499D01*
X19689Y-30499D01*
X19689Y-30498D01*
X19690Y-30499D01*
X19789Y-30499D01*
X19940Y-30499D01*
X19949Y-30499D01*
X20039Y-30499D01*
X20199Y-30499D01*
X20199Y-30498D01*
X20200Y-30499D01*
X20289Y-30499D01*
X12587Y-27034D02*
X12587Y-27034D01*
X12508Y-27114D02*
X12621Y-27114D01*
X12347Y-27194D02*
X12654Y-27194D01*
X11525Y-27274D02*
X11532Y-27274D01*
X12269Y-27274D02*
X12732Y-27274D01*
X11525Y-27354D02*
X11624Y-27354D01*
X12176Y-27354D02*
X12824Y-27354D01*
X11525Y-27434D02*
X13364Y-27434D01*
X11525Y-27514D02*
X13444Y-27514D01*
X11525Y-27594D02*
X13524Y-27594D01*
X11525Y-27674D02*
X13604Y-27674D01*
X11525Y-27754D02*
X13684Y-27754D01*
X11525Y-27834D02*
X13764Y-27834D01*
X11525Y-27914D02*
X13349Y-27914D01*
X13650Y-27914D02*
X13844Y-27914D01*
X11525Y-27994D02*
X13159Y-27994D01*
X13841Y-27994D02*
X13924Y-27994D01*
X11525Y-28074D02*
X13079Y-28074D01*
X13921Y-28074D02*
X14004Y-28074D01*
X11525Y-28154D02*
X12999Y-28154D01*
X14001Y-28154D02*
X14084Y-28154D01*
X11525Y-28234D02*
X11653Y-28234D01*
X12147Y-28234D02*
X12366Y-28234D01*
X14038Y-28234D02*
X14164Y-28234D01*
X11525Y-28314D02*
X11543Y-28314D01*
X12256Y-28314D02*
X12258Y-28314D01*
X14071Y-28314D02*
X14244Y-28314D01*
X14099Y-28394D02*
X14324Y-28394D01*
X14099Y-28474D02*
X14404Y-28474D01*
X14099Y-28554D02*
X14487Y-28554D01*
X14093Y-28634D02*
X14684Y-28634D01*
X14060Y-28714D02*
X17625Y-28714D01*
X14027Y-28794D02*
X17705Y-28794D01*
X12548Y-28874D02*
X13027Y-28874D01*
X13973Y-28874D02*
X17785Y-28874D01*
X12448Y-28954D02*
X13107Y-28954D01*
X13893Y-28954D02*
X17865Y-28954D01*
X12309Y-29034D02*
X13224Y-29034D01*
X13777Y-29034D02*
X17945Y-29034D01*
X11525Y-29114D02*
X11572Y-29114D01*
X12229Y-29114D02*
X14488Y-29114D01*
X17676Y-29114D02*
X18025Y-29114D01*
X11525Y-29194D02*
X11721Y-29194D01*
X12079Y-29194D02*
X14381Y-29194D01*
X17783Y-29194D02*
X18105Y-29194D01*
X11525Y-29274D02*
X14301Y-29274D01*
X17863Y-29274D02*
X18185Y-29274D01*
X11525Y-29354D02*
X14221Y-29354D01*
X17943Y-29354D02*
X18265Y-29354D01*
X11525Y-29434D02*
X14141Y-29434D01*
X18023Y-29434D02*
X18345Y-29434D01*
X11525Y-29514D02*
X14061Y-29514D01*
X18103Y-29514D02*
X18425Y-29514D01*
X11525Y-29594D02*
X13981Y-29594D01*
X18183Y-29594D02*
X18505Y-29594D01*
X11525Y-29674D02*
X13901Y-29674D01*
X18263Y-29674D02*
X18585Y-29674D01*
X11525Y-29754D02*
X13821Y-29754D01*
X14670Y-29754D02*
X15094Y-29754D01*
X18343Y-29754D02*
X18665Y-29754D01*
X11525Y-29834D02*
X13741Y-29834D01*
X14590Y-29834D02*
X15027Y-29834D01*
X18423Y-29834D02*
X18745Y-29834D01*
X11525Y-29914D02*
X13349Y-29914D01*
X13650Y-29914D02*
X13661Y-29914D01*
X14510Y-29914D02*
X14992Y-29914D01*
X18503Y-29914D02*
X18900Y-29914D01*
X11525Y-29994D02*
X13159Y-29994D01*
X14430Y-29994D02*
X14976Y-29994D01*
X18583Y-29994D02*
X19231Y-29994D01*
X11525Y-30074D02*
X13079Y-30074D01*
X14350Y-30074D02*
X14990Y-30074D01*
X18663Y-30074D02*
X19231Y-30074D01*
X11525Y-30154D02*
X12999Y-30154D01*
X14270Y-30154D02*
X15020Y-30154D01*
X18743Y-30154D02*
X19231Y-30154D01*
X11525Y-30234D02*
X12961Y-30234D01*
X14190Y-30234D02*
X15077Y-30234D01*
X18823Y-30234D02*
X19231Y-30234D01*
X11525Y-30314D02*
X12928Y-30314D01*
X14110Y-30314D02*
X15219Y-30314D01*
X18903Y-30314D02*
X19238Y-30314D01*
X11525Y-30394D02*
X12901Y-30394D01*
X14099Y-30394D02*
X15165Y-30394D01*
X18983Y-30394D02*
X19272Y-30394D01*
X11525Y-30474D02*
X12901Y-30474D01*
X14099Y-30474D02*
X15124Y-30474D01*
X19063Y-30474D02*
X19371Y-30474D01*
X11525Y-30554D02*
X12901Y-30554D01*
X14099Y-30554D02*
X15109Y-30554D01*
X19143Y-30554D02*
X20234Y-30554D01*
X11525Y-30634D02*
X12908Y-30634D01*
X14093Y-30634D02*
X15100Y-30634D01*
X19223Y-30634D02*
X20154Y-30634D01*
X11525Y-30714D02*
X11701Y-30714D01*
X12099Y-30714D02*
X12941Y-30714D01*
X14060Y-30714D02*
X15100Y-30714D01*
X19303Y-30714D02*
X20074Y-30714D01*
X11525Y-30794D02*
X11563Y-30794D01*
X12236Y-30794D02*
X12974Y-30794D01*
X14027Y-30794D02*
X15100Y-30794D01*
X19383Y-30794D02*
X19994Y-30794D01*
X12316Y-30874D02*
X13027Y-30874D01*
X13973Y-30874D02*
X15100Y-30874D01*
X19463Y-30874D02*
X19914Y-30874D01*
X12366Y-30954D02*
X13107Y-30954D01*
X13893Y-30954D02*
X15100Y-30954D01*
X19543Y-30954D02*
X19834Y-30954D01*
X12399Y-31034D02*
X13224Y-31034D01*
X13777Y-31034D02*
X15100Y-31034D01*
X12425Y-31114D02*
X15100Y-31114D01*
X12459Y-31194D02*
X15100Y-31194D01*
X12539Y-31274D02*
X15100Y-31274D01*
X12619Y-31354D02*
X15100Y-31354D01*
X12699Y-31434D02*
X15100Y-31434D01*
X12779Y-31514D02*
X15100Y-31514D01*
X12859Y-31594D02*
X15100Y-31594D01*
X12939Y-31674D02*
X15100Y-31674D01*
X13019Y-31754D02*
X15100Y-31754D01*
X13347Y-31834D02*
X14053Y-31834D01*
X14547Y-31834D02*
X15100Y-31834D01*
X19393Y-26801D02*
X22175Y-26801D01*
X19414Y-26881D02*
X21586Y-26881D01*
X22016Y-26881D02*
X22175Y-26881D01*
X19508Y-26961D02*
X21492Y-26961D01*
X22110Y-26961D02*
X22175Y-26961D01*
X19541Y-27041D02*
X21458Y-27041D01*
X22143Y-27041D02*
X22191Y-27041D01*
X19546Y-27121D02*
X21454Y-27121D01*
X22148Y-27121D02*
X22224Y-27121D01*
X19546Y-27201D02*
X21452Y-27201D01*
X22148Y-27201D02*
X22259Y-27201D01*
X19546Y-27281D02*
X21440Y-27281D01*
X22148Y-27281D02*
X22339Y-27281D01*
X19541Y-27361D02*
X21440Y-27361D01*
X22143Y-27361D02*
X22400Y-27361D01*
X19506Y-27441D02*
X21440Y-27441D01*
X22108Y-27441D02*
X22400Y-27441D01*
X19499Y-27521D02*
X21440Y-27521D01*
X22040Y-27521D02*
X22400Y-27521D01*
X19499Y-27601D02*
X21440Y-27601D01*
X22040Y-27601D02*
X22400Y-27601D01*
X19499Y-27681D02*
X21440Y-27681D01*
X22040Y-27681D02*
X22400Y-27681D01*
X19499Y-27761D02*
X21440Y-27761D01*
X22040Y-27761D02*
X22400Y-27761D01*
X19858Y-27841D02*
X21142Y-27841D01*
X22338Y-27841D02*
X22400Y-27841D01*
X19918Y-27921D02*
X20078Y-27921D01*
X20521Y-27921D02*
X21081Y-27921D01*
X22398Y-27921D02*
X22400Y-27921D01*
X19942Y-28001D02*
X19999Y-28001D01*
X20600Y-28001D02*
X21058Y-28001D01*
X19942Y-28081D02*
X19965Y-28081D01*
X20633Y-28081D02*
X21058Y-28081D01*
X19942Y-28161D02*
X19946Y-28161D01*
X20685Y-28161D02*
X21058Y-28161D01*
X19942Y-28241D02*
X19946Y-28241D01*
X19942Y-28321D02*
X19968Y-28321D01*
X19942Y-28401D02*
X20001Y-28401D01*
X19942Y-28481D02*
X20049Y-28481D01*
X19942Y-28561D02*
X19958Y-28561D01*
X11525Y-26025D02*
X24875Y-26025D01*
X11525Y-26105D02*
X24875Y-26105D01*
X11525Y-26185D02*
X24875Y-26185D01*
X11525Y-26265D02*
X12520Y-26265D01*
X13675Y-26265D02*
X18928Y-26265D01*
X23247Y-26265D02*
X24875Y-26265D01*
X11525Y-26345D02*
X12428Y-26345D01*
X13767Y-26345D02*
X18848Y-26345D01*
X23329Y-26345D02*
X24875Y-26345D01*
X11525Y-26425D02*
X11675Y-26425D01*
X12125Y-26425D02*
X12348Y-26425D01*
X13847Y-26425D02*
X14075Y-26425D01*
X14525Y-26425D02*
X15073Y-26425D01*
X15927Y-26425D02*
X17375Y-26425D01*
X17825Y-26425D02*
X18807Y-26425D01*
X23378Y-26425D02*
X24875Y-26425D01*
X11525Y-26505D02*
X11552Y-26505D01*
X12248Y-26505D02*
X12268Y-26505D01*
X13927Y-26505D02*
X13951Y-26505D01*
X14647Y-26505D02*
X15005Y-26505D01*
X15994Y-26505D02*
X17252Y-26505D01*
X17947Y-26505D02*
X18782Y-26505D01*
X23394Y-26505D02*
X24875Y-26505D01*
X14727Y-26585D02*
X14976Y-26585D01*
X16024Y-26585D02*
X17172Y-26585D01*
X18027Y-26585D02*
X18782Y-26585D01*
X23399Y-26585D02*
X24875Y-26585D01*
X14770Y-26665D02*
X14976Y-26665D01*
X16024Y-26665D02*
X17024Y-26665D01*
X18070Y-26665D02*
X18798Y-26665D01*
X23399Y-26665D02*
X24875Y-26665D01*
X14803Y-26745D02*
X14976Y-26745D01*
X16024Y-26745D02*
X16951Y-26745D01*
X18103Y-26745D02*
X18831Y-26745D01*
X23399Y-26745D02*
X24875Y-26745D01*
X14825Y-26825D02*
X14976Y-26825D01*
X16024Y-26825D02*
X16917Y-26825D01*
X18125Y-26825D02*
X18903Y-26825D01*
X23399Y-26825D02*
X24875Y-26825D01*
X14825Y-26905D02*
X14976Y-26905D01*
X16024Y-26905D02*
X16902Y-26905D01*
X18125Y-26905D02*
X18494Y-26905D01*
X23399Y-26905D02*
X24875Y-26905D01*
X14825Y-26985D02*
X14976Y-26985D01*
X16024Y-26985D02*
X16902Y-26985D01*
X18125Y-26985D02*
X18414Y-26985D01*
X23399Y-26985D02*
X24875Y-26985D01*
X14801Y-27065D02*
X14976Y-27065D01*
X16024Y-27065D02*
X16847Y-27065D01*
X18101Y-27065D02*
X18372Y-27065D01*
X23399Y-27065D02*
X24875Y-27065D01*
X14767Y-27145D02*
X14976Y-27145D01*
X16024Y-27145D02*
X16767Y-27145D01*
X18067Y-27145D02*
X18346Y-27145D01*
X23399Y-27145D02*
X24875Y-27145D01*
X14718Y-27225D02*
X14926Y-27225D01*
X16272Y-27225D02*
X16687Y-27225D01*
X18018Y-27225D02*
X18346Y-27225D01*
X23399Y-27225D02*
X24875Y-27225D01*
X14638Y-27305D02*
X14871Y-27305D01*
X16326Y-27305D02*
X16607Y-27305D01*
X17938Y-27305D02*
X18361Y-27305D01*
X23399Y-27305D02*
X23896Y-27305D01*
X24305Y-27305D02*
X24875Y-27305D01*
X14501Y-27385D02*
X14852Y-27385D01*
X16346Y-27385D02*
X16527Y-27385D01*
X17376Y-27385D02*
X17400Y-27385D01*
X17801Y-27385D02*
X18394Y-27385D01*
X23399Y-27385D02*
X23816Y-27385D01*
X24385Y-27385D02*
X24875Y-27385D01*
X14488Y-27465D02*
X14852Y-27465D01*
X17296Y-27465D02*
X18465Y-27465D01*
X23399Y-27465D02*
X23774Y-27465D01*
X24427Y-27465D02*
X24875Y-27465D01*
X14568Y-27545D02*
X14852Y-27545D01*
X17216Y-27545D02*
X18608Y-27545D01*
X18792Y-27545D02*
X18899Y-27545D01*
X23399Y-27545D02*
X23747Y-27545D01*
X24455Y-27545D02*
X24875Y-27545D01*
X14648Y-27625D02*
X14852Y-27625D01*
X17136Y-27625D02*
X18899Y-27625D01*
X23399Y-27625D02*
X23747Y-27625D01*
X24455Y-27625D02*
X24875Y-27625D01*
X17651Y-27705D02*
X18899Y-27705D01*
X23399Y-27705D02*
X23762Y-27705D01*
X24442Y-27705D02*
X24875Y-27705D01*
X17791Y-27785D02*
X18763Y-27785D01*
X23399Y-27785D02*
X23781Y-27785D01*
X24420Y-27785D02*
X24875Y-27785D01*
X17871Y-27865D02*
X18638Y-27865D01*
X23399Y-27865D02*
X23754Y-27865D01*
X24448Y-27865D02*
X24875Y-27865D01*
X17951Y-27945D02*
X18591Y-27945D01*
X23399Y-27945D02*
X23754Y-27945D01*
X24448Y-27945D02*
X24875Y-27945D01*
X18031Y-28025D02*
X18578Y-28025D01*
X23399Y-28025D02*
X23754Y-28025D01*
X24448Y-28025D02*
X24875Y-28025D01*
X18111Y-28105D02*
X18578Y-28105D01*
X23399Y-28105D02*
X23754Y-28105D01*
X24448Y-28105D02*
X24875Y-28105D01*
X18191Y-28185D02*
X18578Y-28185D01*
X23399Y-28185D02*
X23770Y-28185D01*
X24433Y-28185D02*
X24875Y-28185D01*
X18271Y-28265D02*
X18578Y-28265D01*
X23399Y-28265D02*
X23818Y-28265D01*
X24384Y-28265D02*
X24875Y-28265D01*
X18351Y-28345D02*
X18578Y-28345D01*
X23399Y-28345D02*
X23854Y-28345D01*
X24345Y-28345D02*
X24875Y-28345D01*
X18431Y-28425D02*
X18578Y-28425D01*
X23399Y-28425D02*
X23789Y-28425D01*
X24410Y-28425D02*
X24875Y-28425D01*
X18511Y-28505D02*
X18578Y-28505D01*
X23399Y-28505D02*
X23755Y-28505D01*
X24443Y-28505D02*
X24875Y-28505D01*
X23390Y-28585D02*
X23746Y-28585D01*
X24454Y-28585D02*
X24875Y-28585D01*
X23369Y-28665D02*
X23746Y-28665D01*
X24454Y-28665D02*
X24875Y-28665D01*
X23316Y-28745D02*
X23777Y-28745D01*
X24423Y-28745D02*
X24875Y-28745D01*
X23237Y-28825D02*
X23764Y-28825D01*
X24436Y-28825D02*
X24875Y-28825D01*
X23157Y-28905D02*
X23754Y-28905D01*
X24448Y-28905D02*
X24875Y-28905D01*
X23077Y-28985D02*
X23754Y-28985D01*
X24448Y-28985D02*
X24875Y-28985D01*
X22997Y-29065D02*
X23754Y-29065D01*
X24448Y-29065D02*
X24875Y-29065D01*
X22917Y-29145D02*
X23754Y-29145D01*
X24448Y-29145D02*
X24875Y-29145D01*
X22837Y-29225D02*
X23787Y-29225D01*
X24416Y-29225D02*
X24875Y-29225D01*
X22757Y-29305D02*
X23858Y-29305D01*
X24344Y-29305D02*
X24875Y-29305D01*
X22677Y-29385D02*
X23816Y-29385D01*
X24385Y-29385D02*
X24875Y-29385D01*
X22597Y-29465D02*
X23774Y-29465D01*
X24427Y-29465D02*
X24875Y-29465D01*
X22607Y-29545D02*
X23747Y-29545D01*
X24455Y-29545D02*
X24875Y-29545D01*
X22677Y-29625D02*
X23747Y-29625D01*
X24455Y-29625D02*
X24875Y-29625D01*
X22709Y-29705D02*
X23762Y-29705D01*
X24442Y-29705D02*
X24875Y-29705D01*
X22709Y-29785D02*
X23781Y-29785D01*
X24420Y-29785D02*
X24875Y-29785D01*
X22709Y-29865D02*
X23754Y-29865D01*
X24448Y-29865D02*
X24875Y-29865D01*
X22709Y-29945D02*
X23754Y-29945D01*
X24448Y-29945D02*
X24875Y-29945D01*
X22709Y-30025D02*
X23754Y-30025D01*
X24448Y-30025D02*
X24875Y-30025D01*
X22709Y-30105D02*
X23754Y-30105D01*
X24448Y-30105D02*
X24875Y-30105D01*
X22709Y-30185D02*
X23770Y-30185D01*
X24433Y-30185D02*
X24875Y-30185D01*
X22709Y-30265D02*
X23818Y-30265D01*
X24384Y-30265D02*
X24875Y-30265D01*
X22691Y-30345D02*
X23856Y-30345D01*
X24345Y-30345D02*
X24875Y-30345D01*
X22680Y-30425D02*
X23790Y-30425D01*
X24410Y-30425D02*
X24875Y-30425D01*
X22680Y-30505D02*
X23757Y-30505D01*
X24444Y-30505D02*
X24875Y-30505D01*
X22680Y-30585D02*
X23747Y-30585D01*
X24455Y-30585D02*
X24875Y-30585D01*
X22680Y-30665D02*
X23747Y-30665D01*
X24455Y-30665D02*
X24875Y-30665D01*
X22680Y-30745D02*
X23778Y-30745D01*
X24425Y-30745D02*
X24455Y-30745D01*
X24455Y-30745D02*
X24875Y-30745D01*
X22680Y-30825D02*
X23765Y-30825D01*
X24436Y-30825D02*
X24455Y-30825D01*
X24455Y-30825D02*
X24875Y-30825D01*
X22680Y-30905D02*
X23754Y-30905D01*
X24448Y-30905D02*
X24455Y-30905D01*
X24455Y-30905D02*
X24875Y-30905D01*
X22680Y-30985D02*
X23754Y-30985D01*
X24448Y-30985D02*
X24455Y-30985D01*
X24455Y-30985D02*
X24875Y-30985D01*
X22680Y-31065D02*
X23754Y-31065D01*
X24448Y-31065D02*
X24455Y-31065D01*
X24455Y-31065D02*
X24875Y-31065D01*
X22680Y-31145D02*
X23754Y-31145D01*
X24448Y-31145D02*
X24455Y-31145D01*
X24455Y-31145D02*
X24875Y-31145D01*
X22680Y-31225D02*
X23787Y-31225D01*
X24416Y-31225D02*
X24455Y-31225D01*
X24455Y-31225D02*
X24875Y-31225D01*
X22680Y-31305D02*
X23858Y-31305D01*
X24344Y-31305D02*
X24455Y-31305D01*
X24455Y-31305D02*
X24875Y-31305D01*
X22680Y-31385D02*
X24455Y-31385D01*
X24455Y-31385D02*
X24875Y-31385D01*
X22680Y-31465D02*
X24455Y-31465D01*
X24455Y-31465D02*
X24875Y-31465D01*
X22680Y-31545D02*
X24455Y-31545D01*
X24455Y-31545D02*
X24875Y-31545D01*
X22680Y-31625D02*
X24455Y-31625D01*
X24455Y-31625D02*
X24875Y-31625D01*
X22680Y-31705D02*
X24455Y-31705D01*
X24455Y-31705D02*
X24875Y-31705D01*
X22680Y-31785D02*
X24455Y-31785D01*
X24455Y-31785D02*
X24875Y-31785D01*
X22680Y-31865D02*
X24455Y-31865D01*
X24455Y-31865D02*
X24875Y-31865D01*
X22680Y-31945D02*
X24455Y-31945D01*
X24455Y-31945D02*
X24875Y-31945D01*
X22680Y-32025D02*
X24455Y-32025D01*
X24455Y-32025D02*
X24875Y-32025D01*
X22680Y-32105D02*
X24455Y-32105D01*
X24455Y-32105D02*
X24875Y-32105D01*
X22680Y-32185D02*
X24455Y-32185D01*
X24455Y-32185D02*
X24875Y-32185D01*
X22693Y-32265D02*
X24455Y-32265D01*
X24455Y-32265D02*
X24875Y-32265D01*
X22748Y-32345D02*
X24455Y-32345D01*
X24455Y-32345D02*
X24875Y-32345D01*
X22803Y-32425D02*
X24455Y-32425D01*
X24455Y-32425D02*
X24875Y-32425D01*
X22857Y-32505D02*
X24455Y-32505D01*
X24455Y-32505D02*
X24875Y-32505D01*
X22912Y-32585D02*
X24455Y-32585D01*
X24455Y-32585D02*
X24875Y-32585D01*
X22967Y-32665D02*
X24455Y-32665D01*
X24455Y-32665D02*
X24875Y-32665D01*
X23022Y-32745D02*
X24455Y-32745D01*
X24455Y-32745D02*
X24875Y-32745D01*
X23844Y-32825D02*
X24455Y-32825D01*
X24455Y-32825D02*
X24875Y-32825D01*
X23984Y-32905D02*
X24455Y-32905D01*
X24455Y-32905D02*
X24875Y-32905D01*
X24124Y-32985D02*
X24455Y-32985D01*
X24455Y-32985D02*
X24875Y-32985D01*
X24264Y-33065D02*
X24455Y-33065D01*
X24455Y-33065D02*
X24875Y-33065D01*
X24404Y-33145D02*
X24455Y-33145D01*
X24455Y-33145D02*
X24875Y-33145D01*
X24450Y-33225D02*
X24455Y-33225D01*
X24455Y-33225D02*
X24875Y-33225D01*
X24450Y-33305D02*
X24455Y-33305D01*
X24455Y-33305D02*
X24875Y-33305D01*
X24450Y-33385D02*
X24455Y-33385D01*
X24455Y-33385D02*
X24875Y-33385D01*
X24450Y-33465D02*
X24455Y-33465D01*
X24455Y-33465D02*
X24875Y-33465D01*
X24450Y-33545D02*
X24455Y-33545D01*
X24455Y-33545D02*
X24875Y-33545D01*
X24450Y-33625D02*
X24455Y-33625D01*
X24455Y-33625D02*
X24875Y-33625D01*
X24450Y-33705D02*
X24455Y-33705D01*
X24455Y-33705D02*
X24875Y-33705D01*
X24450Y-33785D02*
X24455Y-33785D01*
X24455Y-33785D02*
X24875Y-33785D01*
X24450Y-33865D02*
X24455Y-33865D01*
X24455Y-33865D02*
X24875Y-33865D01*
X24450Y-33945D02*
X24455Y-33945D01*
X24455Y-33945D02*
X24875Y-33945D01*
X24450Y-34025D02*
X24455Y-34025D01*
X24455Y-34025D02*
X24875Y-34025D01*
X22400Y-27925D02*
X22384Y-27887D01*
X22314Y-27817D01*
X22223Y-27779D01*
X22124Y-27779D01*
X22040Y-27779D01*
X22040Y-27509D01*
X22110Y-27439D01*
X22148Y-27348D01*
X22148Y-27249D01*
X22148Y-27053D01*
X22110Y-26961D01*
X22040Y-26891D01*
X21949Y-26853D01*
X21850Y-26853D01*
X21654Y-26853D01*
X21562Y-26891D01*
X21492Y-26961D01*
X21454Y-27052D01*
X21454Y-27151D01*
X21454Y-27191D01*
X21440Y-27261D01*
X21440Y-27779D01*
X21258Y-27779D01*
X21166Y-27817D01*
X21096Y-27887D01*
X21058Y-27978D01*
X21058Y-28077D01*
X21058Y-28200D01*
X20724Y-28200D01*
X20654Y-28130D01*
X20600Y-28000D01*
X20501Y-27900D01*
X20371Y-27846D01*
X20230Y-27846D01*
X20100Y-27900D01*
X20000Y-27999D01*
X19946Y-28129D01*
X19946Y-28270D01*
X20000Y-28400D01*
X20071Y-28472D01*
X20031Y-28489D01*
X19942Y-28577D01*
X19942Y-27979D01*
X19904Y-27887D01*
X19834Y-27817D01*
X19743Y-27779D01*
X19644Y-27779D01*
X19499Y-27779D01*
X19499Y-27448D01*
X19508Y-27439D01*
X19546Y-27348D01*
X19546Y-27249D01*
X19546Y-27053D01*
X19508Y-26961D01*
X19438Y-26891D01*
X19347Y-26853D01*
X19341Y-26853D01*
X19393Y-26801D01*
X22175Y-26801D01*
X22175Y-27004D01*
X22255Y-27197D01*
X22400Y-27342D01*
X22400Y-27925D01*
X12587Y-27034D02*
X12587Y-27034D01*
X12508Y-27114D02*
X12621Y-27114D01*
X12347Y-27194D02*
X12654Y-27194D01*
X11525Y-27274D02*
X11532Y-27274D01*
X12269Y-27274D02*
X12732Y-27274D01*
X11525Y-27354D02*
X11624Y-27354D01*
X12176Y-27354D02*
X12824Y-27354D01*
X11525Y-27434D02*
X13364Y-27434D01*
X11525Y-27514D02*
X13444Y-27514D01*
X11525Y-27594D02*
X13524Y-27594D01*
X11525Y-27674D02*
X13604Y-27674D01*
X11525Y-27754D02*
X13684Y-27754D01*
X11525Y-27834D02*
X13764Y-27834D01*
X11525Y-27914D02*
X13349Y-27914D01*
X13650Y-27914D02*
X13844Y-27914D01*
X11525Y-27994D02*
X13159Y-27994D01*
X13841Y-27994D02*
X13924Y-27994D01*
X11525Y-28074D02*
X13079Y-28074D01*
X13921Y-28074D02*
X14004Y-28074D01*
X11525Y-28154D02*
X12999Y-28154D01*
X14001Y-28154D02*
X14084Y-28154D01*
X11525Y-28234D02*
X11653Y-28234D01*
X12147Y-28234D02*
X12366Y-28234D01*
X14038Y-28234D02*
X14164Y-28234D01*
X11525Y-28314D02*
X11543Y-28314D01*
X12256Y-28314D02*
X12258Y-28314D01*
X14071Y-28314D02*
X14244Y-28314D01*
X14099Y-28394D02*
X14324Y-28394D01*
X14099Y-28474D02*
X14404Y-28474D01*
X14099Y-28554D02*
X14487Y-28554D01*
X14093Y-28634D02*
X14684Y-28634D01*
X14060Y-28714D02*
X17625Y-28714D01*
X14027Y-28794D02*
X17705Y-28794D01*
X12548Y-28874D02*
X13027Y-28874D01*
X13973Y-28874D02*
X17785Y-28874D01*
X12448Y-28954D02*
X13107Y-28954D01*
X13893Y-28954D02*
X17865Y-28954D01*
X12309Y-29034D02*
X13224Y-29034D01*
X13777Y-29034D02*
X17945Y-29034D01*
X11525Y-29114D02*
X11572Y-29114D01*
X12229Y-29114D02*
X14488Y-29114D01*
X17676Y-29114D02*
X18025Y-29114D01*
X11525Y-29194D02*
X11721Y-29194D01*
X12079Y-29194D02*
X14381Y-29194D01*
X17783Y-29194D02*
X18105Y-29194D01*
X11525Y-29274D02*
X14301Y-29274D01*
X17863Y-29274D02*
X18185Y-29274D01*
X11525Y-29354D02*
X14221Y-29354D01*
X17943Y-29354D02*
X18265Y-29354D01*
X11525Y-29434D02*
X14141Y-29434D01*
X18023Y-29434D02*
X18345Y-29434D01*
X11525Y-29514D02*
X14061Y-29514D01*
X18103Y-29514D02*
X18425Y-29514D01*
X11525Y-29594D02*
X13981Y-29594D01*
X18183Y-29594D02*
X18505Y-29594D01*
X11525Y-29674D02*
X13901Y-29674D01*
X18263Y-29674D02*
X18585Y-29674D01*
X11525Y-29754D02*
X13821Y-29754D01*
X14670Y-29754D02*
X15094Y-29754D01*
X18343Y-29754D02*
X18665Y-29754D01*
X11525Y-29834D02*
X13741Y-29834D01*
X14590Y-29834D02*
X15027Y-29834D01*
X18423Y-29834D02*
X18745Y-29834D01*
X11525Y-29914D02*
X13349Y-29914D01*
X13650Y-29914D02*
X13661Y-29914D01*
X14510Y-29914D02*
X14992Y-29914D01*
X18503Y-29914D02*
X18900Y-29914D01*
X11525Y-29994D02*
X13159Y-29994D01*
X14430Y-29994D02*
X14976Y-29994D01*
X18583Y-29994D02*
X19231Y-29994D01*
X11525Y-30074D02*
X13079Y-30074D01*
X14350Y-30074D02*
X14990Y-30074D01*
X18663Y-30074D02*
X19231Y-30074D01*
X11525Y-30154D02*
X12999Y-30154D01*
X14270Y-30154D02*
X15020Y-30154D01*
X18743Y-30154D02*
X19231Y-30154D01*
X11525Y-30234D02*
X12961Y-30234D01*
X14190Y-30234D02*
X15077Y-30234D01*
X18823Y-30234D02*
X19231Y-30234D01*
X11525Y-30314D02*
X12928Y-30314D01*
X14110Y-30314D02*
X15219Y-30314D01*
X18903Y-30314D02*
X19238Y-30314D01*
X11525Y-30394D02*
X12901Y-30394D01*
X14099Y-30394D02*
X15165Y-30394D01*
X18983Y-30394D02*
X19272Y-30394D01*
X11525Y-30474D02*
X12901Y-30474D01*
X14099Y-30474D02*
X15124Y-30474D01*
X19063Y-30474D02*
X19371Y-30474D01*
X11525Y-30554D02*
X12901Y-30554D01*
X14099Y-30554D02*
X15109Y-30554D01*
X19143Y-30554D02*
X20234Y-30554D01*
X11525Y-30634D02*
X12908Y-30634D01*
X14093Y-30634D02*
X15100Y-30634D01*
X19223Y-30634D02*
X20154Y-30634D01*
X11525Y-30714D02*
X11701Y-30714D01*
X12099Y-30714D02*
X12941Y-30714D01*
X14060Y-30714D02*
X15100Y-30714D01*
X19303Y-30714D02*
X20074Y-30714D01*
X11525Y-30794D02*
X11563Y-30794D01*
X12236Y-30794D02*
X12974Y-30794D01*
X14027Y-30794D02*
X15100Y-30794D01*
X19383Y-30794D02*
X19994Y-30794D01*
X12316Y-30874D02*
X13027Y-30874D01*
X13973Y-30874D02*
X15100Y-30874D01*
X19463Y-30874D02*
X19914Y-30874D01*
X12366Y-30954D02*
X13107Y-30954D01*
X13893Y-30954D02*
X15100Y-30954D01*
X19543Y-30954D02*
X19834Y-30954D01*
X12399Y-31034D02*
X13224Y-31034D01*
X13777Y-31034D02*
X15100Y-31034D01*
X12425Y-31114D02*
X15100Y-31114D01*
X12459Y-31194D02*
X15100Y-31194D01*
X12539Y-31274D02*
X15100Y-31274D01*
X12619Y-31354D02*
X15100Y-31354D01*
X12699Y-31434D02*
X15100Y-31434D01*
X12779Y-31514D02*
X15100Y-31514D01*
X12859Y-31594D02*
X15100Y-31594D01*
X12939Y-31674D02*
X15100Y-31674D01*
X13019Y-31754D02*
X15100Y-31754D01*
X13347Y-31834D02*
X14053Y-31834D01*
X14547Y-31834D02*
X15100Y-31834D01*
X19393Y-26801D02*
X22175Y-26801D01*
X19414Y-26881D02*
X21586Y-26881D01*
X22016Y-26881D02*
X22175Y-26881D01*
X19508Y-26961D02*
X21492Y-26961D01*
X22110Y-26961D02*
X22175Y-26961D01*
X19541Y-27041D02*
X21458Y-27041D01*
X22143Y-27041D02*
X22191Y-27041D01*
X19546Y-27121D02*
X21454Y-27121D01*
X22148Y-27121D02*
X22224Y-27121D01*
X19546Y-27201D02*
X21452Y-27201D01*
X22148Y-27201D02*
X22259Y-27201D01*
X19546Y-27281D02*
X21440Y-27281D01*
X22148Y-27281D02*
X22339Y-27281D01*
X19541Y-27361D02*
X21440Y-27361D01*
X22143Y-27361D02*
X22400Y-27361D01*
X19506Y-27441D02*
X21440Y-27441D01*
X22108Y-27441D02*
X22400Y-27441D01*
X19499Y-27521D02*
X21440Y-27521D01*
X22040Y-27521D02*
X22400Y-27521D01*
X19499Y-27601D02*
X21440Y-27601D01*
X22040Y-27601D02*
X22400Y-27601D01*
X19499Y-27681D02*
X21440Y-27681D01*
X22040Y-27681D02*
X22400Y-27681D01*
X19499Y-27761D02*
X21440Y-27761D01*
X22040Y-27761D02*
X22400Y-27761D01*
X19858Y-27841D02*
X21142Y-27841D01*
X22338Y-27841D02*
X22400Y-27841D01*
X19918Y-27921D02*
X20078Y-27921D01*
X20521Y-27921D02*
X21081Y-27921D01*
X22398Y-27921D02*
X22400Y-27921D01*
X19942Y-28001D02*
X19999Y-28001D01*
X20600Y-28001D02*
X21058Y-28001D01*
X19942Y-28081D02*
X19965Y-28081D01*
X20633Y-28081D02*
X21058Y-28081D01*
X19942Y-28161D02*
X19946Y-28161D01*
X20685Y-28161D02*
X21058Y-28161D01*
X19942Y-28241D02*
X19946Y-28241D01*
X19942Y-28321D02*
X19968Y-28321D01*
X19942Y-28401D02*
X20001Y-28401D01*
X19942Y-28481D02*
X20049Y-28481D01*
X19942Y-28561D02*
X19958Y-28561D01*
X11525Y-26025D02*
X24875Y-26025D01*
X11525Y-26105D02*
X24875Y-26105D01*
X11525Y-26185D02*
X24875Y-26185D01*
X11525Y-26265D02*
X12520Y-26265D01*
X13675Y-26265D02*
X18928Y-26265D01*
X23247Y-26265D02*
X24875Y-26265D01*
X11525Y-26345D02*
X12428Y-26345D01*
X13767Y-26345D02*
X18848Y-26345D01*
X23329Y-26345D02*
X24875Y-26345D01*
X11525Y-26425D02*
X11675Y-26425D01*
X12125Y-26425D02*
X12348Y-26425D01*
X13847Y-26425D02*
X14075Y-26425D01*
X14525Y-26425D02*
X15073Y-26425D01*
X15927Y-26425D02*
X17375Y-26425D01*
X17825Y-26425D02*
X18807Y-26425D01*
X23378Y-26425D02*
X24875Y-26425D01*
X11525Y-26505D02*
X11552Y-26505D01*
X12248Y-26505D02*
X12268Y-26505D01*
X13927Y-26505D02*
X13951Y-26505D01*
X14647Y-26505D02*
X15005Y-26505D01*
X15994Y-26505D02*
X17252Y-26505D01*
X17947Y-26505D02*
X18782Y-26505D01*
X23394Y-26505D02*
X24875Y-26505D01*
X14727Y-26585D02*
X14976Y-26585D01*
X16024Y-26585D02*
X17172Y-26585D01*
X18027Y-26585D02*
X18782Y-26585D01*
X23399Y-26585D02*
X24875Y-26585D01*
X14770Y-26665D02*
X14976Y-26665D01*
X16024Y-26665D02*
X17024Y-26665D01*
X18070Y-26665D02*
X18798Y-26665D01*
X23399Y-26665D02*
X24875Y-26665D01*
X14803Y-26745D02*
X14976Y-26745D01*
X16024Y-26745D02*
X16951Y-26745D01*
X18103Y-26745D02*
X18831Y-26745D01*
X23399Y-26745D02*
X24875Y-26745D01*
X14825Y-26825D02*
X14976Y-26825D01*
X16024Y-26825D02*
X16917Y-26825D01*
X18125Y-26825D02*
X18903Y-26825D01*
X23399Y-26825D02*
X24875Y-26825D01*
X14825Y-26905D02*
X14976Y-26905D01*
X16024Y-26905D02*
X16902Y-26905D01*
X18125Y-26905D02*
X18494Y-26905D01*
X23399Y-26905D02*
X24875Y-26905D01*
X14825Y-26985D02*
X14976Y-26985D01*
X16024Y-26985D02*
X16902Y-26985D01*
X18125Y-26985D02*
X18414Y-26985D01*
X23399Y-26985D02*
X24875Y-26985D01*
X14801Y-27065D02*
X14976Y-27065D01*
X16024Y-27065D02*
X16847Y-27065D01*
X18101Y-27065D02*
X18372Y-27065D01*
X23399Y-27065D02*
X24875Y-27065D01*
X14767Y-27145D02*
X14976Y-27145D01*
X16024Y-27145D02*
X16767Y-27145D01*
X18067Y-27145D02*
X18346Y-27145D01*
X23399Y-27145D02*
X24875Y-27145D01*
X14718Y-27225D02*
X14926Y-27225D01*
X16272Y-27225D02*
X16687Y-27225D01*
X18018Y-27225D02*
X18346Y-27225D01*
X23399Y-27225D02*
X24875Y-27225D01*
X14638Y-27305D02*
X14871Y-27305D01*
X16326Y-27305D02*
X16607Y-27305D01*
X17938Y-27305D02*
X18361Y-27305D01*
X23399Y-27305D02*
X23896Y-27305D01*
X24305Y-27305D02*
X24875Y-27305D01*
X14501Y-27385D02*
X14852Y-27385D01*
X16346Y-27385D02*
X16527Y-27385D01*
X17376Y-27385D02*
X17400Y-27385D01*
X17801Y-27385D02*
X18394Y-27385D01*
X23399Y-27385D02*
X23816Y-27385D01*
X24385Y-27385D02*
X24875Y-27385D01*
X14488Y-27465D02*
X14852Y-27465D01*
X17296Y-27465D02*
X18465Y-27465D01*
X23399Y-27465D02*
X23774Y-27465D01*
X24427Y-27465D02*
X24875Y-27465D01*
X14568Y-27545D02*
X14852Y-27545D01*
X17216Y-27545D02*
X18608Y-27545D01*
X18792Y-27545D02*
X18899Y-27545D01*
X23399Y-27545D02*
X23747Y-27545D01*
X24455Y-27545D02*
X24875Y-27545D01*
X14648Y-27625D02*
X14852Y-27625D01*
X17136Y-27625D02*
X18899Y-27625D01*
X23399Y-27625D02*
X23747Y-27625D01*
X24455Y-27625D02*
X24875Y-27625D01*
X17651Y-27705D02*
X18899Y-27705D01*
X23399Y-27705D02*
X23762Y-27705D01*
X24442Y-27705D02*
X24875Y-27705D01*
X17791Y-27785D02*
X18763Y-27785D01*
X23399Y-27785D02*
X23781Y-27785D01*
X24420Y-27785D02*
X24875Y-27785D01*
X17871Y-27865D02*
X18638Y-27865D01*
X23399Y-27865D02*
X23754Y-27865D01*
X24448Y-27865D02*
X24875Y-27865D01*
X17951Y-27945D02*
X18591Y-27945D01*
X23399Y-27945D02*
X23754Y-27945D01*
X24448Y-27945D02*
X24875Y-27945D01*
X18031Y-28025D02*
X18578Y-28025D01*
X23399Y-28025D02*
X23754Y-28025D01*
X24448Y-28025D02*
X24875Y-28025D01*
X18111Y-28105D02*
X18578Y-28105D01*
X23399Y-28105D02*
X23754Y-28105D01*
X24448Y-28105D02*
X24875Y-28105D01*
X18191Y-28185D02*
X18578Y-28185D01*
X23399Y-28185D02*
X23770Y-28185D01*
X24433Y-28185D02*
X24875Y-28185D01*
X18271Y-28265D02*
X18578Y-28265D01*
X23399Y-28265D02*
X23818Y-28265D01*
X24384Y-28265D02*
X24875Y-28265D01*
X18351Y-28345D02*
X18578Y-28345D01*
X23399Y-28345D02*
X23854Y-28345D01*
X24345Y-28345D02*
X24875Y-28345D01*
X18431Y-28425D02*
X18578Y-28425D01*
X23399Y-28425D02*
X23789Y-28425D01*
X24410Y-28425D02*
X24875Y-28425D01*
X18511Y-28505D02*
X18578Y-28505D01*
X23399Y-28505D02*
X23755Y-28505D01*
X24443Y-28505D02*
X24875Y-28505D01*
X23390Y-28585D02*
X23746Y-28585D01*
X24454Y-28585D02*
X24875Y-28585D01*
X23369Y-28665D02*
X23746Y-28665D01*
X24454Y-28665D02*
X24875Y-28665D01*
X23316Y-28745D02*
X23777Y-28745D01*
X24423Y-28745D02*
X24875Y-28745D01*
X23237Y-28825D02*
X23764Y-28825D01*
X24436Y-28825D02*
X24875Y-28825D01*
X23157Y-28905D02*
X23754Y-28905D01*
X24448Y-28905D02*
X24875Y-28905D01*
X23077Y-28985D02*
X23754Y-28985D01*
X24448Y-28985D02*
X24875Y-28985D01*
X22997Y-29065D02*
X23754Y-29065D01*
X24448Y-29065D02*
X24875Y-29065D01*
X22917Y-29145D02*
X23754Y-29145D01*
X24448Y-29145D02*
X24875Y-29145D01*
X22837Y-29225D02*
X23787Y-29225D01*
X24416Y-29225D02*
X24875Y-29225D01*
X22757Y-29305D02*
X23858Y-29305D01*
X24344Y-29305D02*
X24875Y-29305D01*
X22677Y-29385D02*
X23816Y-29385D01*
X24385Y-29385D02*
X24875Y-29385D01*
X22597Y-29465D02*
X23774Y-29465D01*
X24427Y-29465D02*
X24875Y-29465D01*
X22607Y-29545D02*
X23747Y-29545D01*
X24455Y-29545D02*
X24875Y-29545D01*
X22677Y-29625D02*
X23747Y-29625D01*
X24455Y-29625D02*
X24875Y-29625D01*
X22709Y-29705D02*
X23762Y-29705D01*
X24442Y-29705D02*
X24875Y-29705D01*
X22709Y-29785D02*
X23781Y-29785D01*
X24420Y-29785D02*
X24875Y-29785D01*
X22709Y-29865D02*
X23754Y-29865D01*
X24448Y-29865D02*
X24875Y-29865D01*
X22709Y-29945D02*
X23754Y-29945D01*
X24448Y-29945D02*
X24875Y-29945D01*
X22709Y-30025D02*
X23754Y-30025D01*
X24448Y-30025D02*
X24875Y-30025D01*
X22709Y-30105D02*
X23754Y-30105D01*
X24448Y-30105D02*
X24875Y-30105D01*
X22709Y-30185D02*
X23770Y-30185D01*
X24433Y-30185D02*
X24875Y-30185D01*
X22709Y-30265D02*
X23818Y-30265D01*
X24384Y-30265D02*
X24875Y-30265D01*
X22691Y-30345D02*
X23856Y-30345D01*
X24345Y-30345D02*
X24875Y-30345D01*
X22680Y-30425D02*
X23790Y-30425D01*
X24410Y-30425D02*
X24875Y-30425D01*
X22680Y-30505D02*
X23757Y-30505D01*
X24444Y-30505D02*
X24875Y-30505D01*
X22680Y-30585D02*
X23747Y-30585D01*
X24455Y-30585D02*
X24875Y-30585D01*
X22680Y-30665D02*
X23747Y-30665D01*
X24455Y-30665D02*
X24875Y-30665D01*
X22680Y-30745D02*
X23778Y-30745D01*
X24425Y-30745D02*
X24455Y-30745D01*
X24455Y-30745D02*
X24875Y-30745D01*
X22680Y-30825D02*
X23765Y-30825D01*
X24436Y-30825D02*
X24455Y-30825D01*
X24455Y-30825D02*
X24875Y-30825D01*
X22680Y-30905D02*
X23754Y-30905D01*
X24448Y-30905D02*
X24455Y-30905D01*
X24455Y-30905D02*
X24875Y-30905D01*
X22680Y-30985D02*
X23754Y-30985D01*
X24448Y-30985D02*
X24455Y-30985D01*
X24455Y-30985D02*
X24875Y-30985D01*
X22680Y-31065D02*
X23754Y-31065D01*
X24448Y-31065D02*
X24455Y-31065D01*
X24455Y-31065D02*
X24875Y-31065D01*
X22680Y-31145D02*
X23754Y-31145D01*
X24448Y-31145D02*
X24455Y-31145D01*
X24455Y-31145D02*
X24875Y-31145D01*
X22680Y-31225D02*
X23787Y-31225D01*
X24416Y-31225D02*
X24455Y-31225D01*
X24455Y-31225D02*
X24875Y-31225D01*
X22680Y-31305D02*
X23858Y-31305D01*
X24344Y-31305D02*
X24455Y-31305D01*
X24455Y-31305D02*
X24875Y-31305D01*
X22680Y-31385D02*
X24455Y-31385D01*
X24455Y-31385D02*
X24875Y-31385D01*
X22680Y-31465D02*
X24455Y-31465D01*
X24455Y-31465D02*
X24875Y-31465D01*
X22680Y-31545D02*
X24455Y-31545D01*
X24455Y-31545D02*
X24875Y-31545D01*
X22680Y-31625D02*
X24455Y-31625D01*
X24455Y-31625D02*
X24875Y-31625D01*
X22680Y-31705D02*
X24455Y-31705D01*
X24455Y-31705D02*
X24875Y-31705D01*
X22680Y-31785D02*
X24455Y-31785D01*
X24455Y-31785D02*
X24875Y-31785D01*
X22680Y-31865D02*
X24455Y-31865D01*
X24455Y-31865D02*
X24875Y-31865D01*
X22680Y-31945D02*
X24455Y-31945D01*
X24455Y-31945D02*
X24875Y-31945D01*
X22680Y-32025D02*
X24455Y-32025D01*
X24455Y-32025D02*
X24875Y-32025D01*
X22680Y-32105D02*
X24455Y-32105D01*
X24455Y-32105D02*
X24875Y-32105D01*
X22680Y-32185D02*
X24455Y-32185D01*
X24455Y-32185D02*
X24875Y-32185D01*
X22693Y-32265D02*
X24455Y-32265D01*
X24455Y-32265D02*
X24875Y-32265D01*
X22748Y-32345D02*
X24455Y-32345D01*
X24455Y-32345D02*
X24875Y-32345D01*
X22803Y-32425D02*
X24455Y-32425D01*
X24455Y-32425D02*
X24875Y-32425D01*
X22857Y-32505D02*
X24455Y-32505D01*
X24455Y-32505D02*
X24875Y-32505D01*
X22912Y-32585D02*
X24455Y-32585D01*
X24455Y-32585D02*
X24875Y-32585D01*
X22967Y-32665D02*
X24455Y-32665D01*
X24455Y-32665D02*
X24875Y-32665D01*
X23022Y-32745D02*
X24455Y-32745D01*
X24455Y-32745D02*
X24875Y-32745D01*
X23844Y-32825D02*
X24455Y-32825D01*
X24455Y-32825D02*
X24875Y-32825D01*
X23984Y-32905D02*
X24455Y-32905D01*
X24455Y-32905D02*
X24875Y-32905D01*
X24124Y-32985D02*
X24455Y-32985D01*
X24455Y-32985D02*
X24875Y-32985D01*
X24264Y-33065D02*
X24455Y-33065D01*
X24455Y-33065D02*
X24875Y-33065D01*
X24404Y-33145D02*
X24455Y-33145D01*
X24455Y-33145D02*
X24875Y-33145D01*
X24450Y-33225D02*
X24455Y-33225D01*
X24455Y-33225D02*
X24875Y-33225D01*
X24450Y-33305D02*
X24455Y-33305D01*
X24455Y-33305D02*
X24875Y-33305D01*
X24450Y-33385D02*
X24455Y-33385D01*
X24455Y-33385D02*
X24875Y-33385D01*
X24450Y-33465D02*
X24455Y-33465D01*
X24455Y-33465D02*
X24875Y-33465D01*
X24450Y-33545D02*
X24455Y-33545D01*
X24455Y-33545D02*
X24875Y-33545D01*
X24450Y-33625D02*
X24455Y-33625D01*
X24455Y-33625D02*
X24875Y-33625D01*
X24450Y-33705D02*
X24455Y-33705D01*
X24455Y-33705D02*
X24875Y-33705D01*
X24450Y-33785D02*
X24455Y-33785D01*
X24455Y-33785D02*
X24875Y-33785D01*
X24450Y-33865D02*
X24455Y-33865D01*
X24455Y-33865D02*
X24875Y-33865D01*
X24450Y-33945D02*
X24455Y-33945D01*
X24455Y-33945D02*
X24875Y-33945D01*
X24450Y-34025D02*
X24455Y-34025D01*
X24455Y-34025D02*
X24875Y-34025D01*
X24875Y-34075D02*
X24455Y-34075D01*
X24455Y-30672D01*
X24455Y-30531D01*
X24401Y-30401D01*
X24318Y-30317D01*
X24340Y-30309D01*
X24410Y-30239D01*
X24448Y-30148D01*
X24448Y-30049D01*
X24448Y-29853D01*
X24414Y-29770D01*
X24455Y-29672D01*
X24455Y-29531D01*
X24401Y-29401D01*
X24318Y-29317D01*
X24340Y-29309D01*
X24410Y-29239D01*
X24448Y-29148D01*
X24448Y-29049D01*
X24448Y-28853D01*
X24413Y-28768D01*
X24454Y-28671D01*
X24454Y-28530D01*
X24400Y-28400D01*
X24318Y-28317D01*
X24340Y-28309D01*
X24410Y-28239D01*
X24448Y-28148D01*
X24448Y-28049D01*
X24448Y-27853D01*
X24414Y-27770D01*
X24455Y-27672D01*
X24455Y-27531D01*
X24401Y-27401D01*
X24302Y-27301D01*
X24172Y-27247D01*
X24031Y-27247D01*
X23901Y-27301D01*
X23801Y-27400D01*
X23747Y-27530D01*
X23747Y-27671D01*
X23788Y-27770D01*
X23754Y-27852D01*
X23754Y-27951D01*
X23754Y-28147D01*
X23792Y-28239D01*
X23862Y-28309D01*
X23882Y-28317D01*
X23800Y-28399D01*
X23746Y-28529D01*
X23746Y-28670D01*
X23787Y-28770D01*
X23754Y-28852D01*
X23754Y-28951D01*
X23754Y-29147D01*
X23792Y-29239D01*
X23862Y-29309D01*
X23883Y-29318D01*
X23801Y-29400D01*
X23747Y-29530D01*
X23747Y-29671D01*
X23788Y-29770D01*
X23754Y-29852D01*
X23754Y-29951D01*
X23754Y-30147D01*
X23792Y-30239D01*
X23862Y-30309D01*
X23883Y-30318D01*
X23801Y-30400D01*
X23747Y-30530D01*
X23747Y-30671D01*
X23788Y-30770D01*
X23754Y-30852D01*
X23754Y-30951D01*
X23754Y-31147D01*
X23792Y-31239D01*
X23862Y-31309D01*
X23953Y-31347D01*
X24052Y-31347D01*
X24248Y-31347D01*
X24340Y-31309D01*
X24410Y-31239D01*
X24448Y-31148D01*
X24448Y-31049D01*
X24448Y-30853D01*
X24414Y-30770D01*
X24455Y-30672D01*
X24455Y-34075D01*
X24450Y-34075D01*
X24450Y-33171D01*
X23713Y-32750D01*
X23026Y-32750D01*
X22683Y-32250D01*
X22680Y-32250D01*
X22680Y-30369D01*
X22709Y-30300D01*
X22709Y-30201D01*
X22709Y-29701D01*
X22671Y-29609D01*
X22601Y-29539D01*
X22545Y-29516D01*
X23311Y-28751D01*
X23376Y-28654D01*
X23398Y-28539D01*
X23399Y-28539D01*
X23399Y-26529D01*
X23376Y-26414D01*
X23311Y-26317D01*
X23311Y-26316D01*
X23283Y-26289D01*
X23186Y-26224D01*
X23071Y-26201D01*
X19193Y-26201D01*
X19178Y-26204D01*
X19066Y-26204D01*
X18936Y-26258D01*
X18836Y-26357D01*
X18782Y-26487D01*
X18782Y-26628D01*
X18836Y-26758D01*
X18935Y-26858D01*
X18987Y-26879D01*
X18960Y-26891D01*
X18951Y-26900D01*
X18901Y-26900D01*
X18771Y-26846D01*
X18630Y-26846D01*
X18500Y-26900D01*
X18400Y-26999D01*
X18346Y-27129D01*
X18346Y-27270D01*
X18400Y-27400D01*
X18499Y-27500D01*
X18629Y-27554D01*
X18770Y-27554D01*
X18899Y-27500D01*
X18899Y-27779D01*
X18778Y-27779D01*
X18686Y-27817D01*
X18616Y-27887D01*
X18578Y-27978D01*
X18578Y-28077D01*
X18578Y-28572D01*
X17783Y-27777D01*
X17686Y-27712D01*
X17571Y-27689D01*
X17072Y-27689D01*
X17383Y-27378D01*
X17495Y-27425D01*
X17704Y-27425D01*
X17897Y-27345D01*
X18045Y-27198D01*
X18125Y-27005D01*
X18125Y-26796D01*
X18045Y-26603D01*
X17898Y-26455D01*
X17705Y-26375D01*
X17496Y-26375D01*
X17303Y-26455D01*
X17155Y-26602D01*
X17151Y-26610D01*
X17087Y-26623D01*
X16990Y-26688D01*
X16925Y-26785D01*
X16902Y-26900D01*
X16902Y-27010D01*
X16489Y-27423D01*
X16346Y-27423D01*
X16346Y-27353D01*
X16308Y-27261D01*
X16238Y-27191D01*
X16147Y-27153D01*
X16048Y-27153D01*
X16024Y-27153D01*
X16024Y-27126D01*
X16024Y-26576D01*
X15986Y-26484D01*
X15916Y-26414D01*
X15825Y-26376D01*
X15726Y-26376D01*
X15176Y-26376D01*
X15084Y-26414D01*
X15014Y-26484D01*
X14976Y-26575D01*
X14976Y-26674D01*
X14976Y-27184D01*
X14960Y-27191D01*
X14890Y-27261D01*
X14852Y-27352D01*
X14852Y-27451D01*
X14852Y-27647D01*
X14869Y-27689D01*
X14712Y-27689D01*
X14435Y-27412D01*
X14597Y-27345D01*
X14745Y-27198D01*
X14825Y-27005D01*
X14825Y-26796D01*
X14745Y-26603D01*
X14598Y-26455D01*
X14405Y-26375D01*
X14196Y-26375D01*
X14003Y-26455D01*
X13939Y-26517D01*
X13711Y-26289D01*
X13614Y-26224D01*
X13499Y-26201D01*
X12697Y-26201D01*
X12582Y-26224D01*
X12485Y-26289D01*
X12258Y-26515D01*
X12198Y-26455D01*
X12005Y-26375D01*
X11796Y-26375D01*
X11603Y-26455D01*
X11525Y-26532D01*
X11525Y-26025D01*
X24875Y-26025D01*
X24875Y-34075D01*
X21429Y-32550D02*
X21791Y-32550D01*
X21429Y-32630D02*
X21791Y-32630D01*
X21429Y-32710D02*
X21791Y-32710D01*
X21429Y-32790D02*
X21791Y-32790D01*
X21429Y-32870D02*
X21791Y-32870D01*
X21429Y-32950D02*
X21791Y-32950D01*
X21429Y-33030D02*
X21791Y-33030D01*
X21531Y-33110D02*
X21796Y-33110D01*
X21656Y-33190D02*
X21829Y-33190D01*
X21725Y-33270D02*
X21899Y-33270D01*
X21793Y-33350D02*
X21979Y-33350D01*
X21862Y-33430D02*
X22059Y-33430D01*
X21931Y-33510D02*
X22139Y-33510D01*
X22000Y-33590D02*
X22219Y-33590D01*
X22068Y-33670D02*
X22550Y-33670D01*
X22137Y-33750D02*
X22550Y-33750D01*
X22205Y-33830D02*
X22550Y-33830D01*
X22550Y-33850D02*
X22223Y-33850D01*
X21850Y-33415D01*
X21845Y-33403D01*
X21804Y-33362D01*
X21631Y-33160D01*
X21430Y-33059D01*
X21429Y-33058D01*
X21429Y-33001D01*
X21429Y-32550D01*
X21791Y-32550D01*
X21791Y-32599D01*
X21791Y-33099D01*
X21829Y-33191D01*
X21850Y-33212D01*
X21850Y-33221D01*
X22279Y-33650D01*
X22550Y-33650D01*
X22550Y-33850D01*
M02*
