M48
;DRILL file {PCBnew (2011-07-08)-stable} date Wed 23 Nov 2011 11:36:52 PM EST
;FORMAT={-:-/ absolute / inch / decimal}
FMAT,2
INCH,TZ
T1C0.014
T2C0.032
T3C0.032
T4C0.045
%
G90
G05
M72
T1
X1.661Y-3.106
X1.708Y-3.311
X1.760Y-3.220
X1.771Y-3.090
X1.857Y-3.114
X1.870Y-2.720
X1.914Y-2.656
X2.023Y-2.879
X2.030Y-2.820
X2.033Y-2.908
X2.110Y-3.160
X2.170Y-2.949
X2.186Y-3.049
X2.410Y-2.860
X2.410Y-2.760
X2.410Y-2.960
X2.410Y-3.060
T2
X1.630Y-2.880
X1.630Y-2.980
T3
X1.190Y-2.690
X1.190Y-2.870
X1.190Y-2.990
X1.190Y-3.120
X1.190Y-3.240
X1.190Y-3.360
X1.310Y-2.690
X1.310Y-3.230
X1.430Y-2.690
X1.430Y-3.230
X1.430Y-3.360
X1.550Y-2.690
X1.550Y-3.230
X1.550Y-3.360
X1.650Y-2.690
X1.760Y-2.690
X1.900Y-3.370
X2.020Y-3.370
X2.140Y-3.370
X2.260Y-3.370
X2.270Y-2.690
X2.380Y-3.370
T4
X1.350Y-2.850
X1.350Y-2.950
X1.350Y-3.050
T0
M30
