G04 (created by PCBNEW-RS274X (2011-07-08)-stable) date Wed 23 Nov 2011 11:36:48 PM EST*
G01*
G70*
G90*
%MOIN*%
G04 Gerber Fmt 3.4, Leading zero omitted, Abs format*
%FSLAX34Y34*%
G04 APERTURE LIST*
%ADD10C,0.006000*%
%ADD11C,0.002600*%
%ADD12C,0.004000*%
%ADD13C,0.003000*%
%ADD14C,0.006300*%
G04 APERTURE END LIST*
G54D10*
G54D11*
X24061Y-30961D02*
X24139Y-30961D01*
X24139Y-30961D02*
X24139Y-31039D01*
X24061Y-31039D02*
X24139Y-31039D01*
X24061Y-30961D02*
X24061Y-31039D01*
X24277Y-30725D02*
X24414Y-30725D01*
X24414Y-30725D02*
X24414Y-30823D01*
X24277Y-30823D02*
X24414Y-30823D01*
X24277Y-30725D02*
X24277Y-30823D01*
X24414Y-30725D02*
X24454Y-30725D01*
X24454Y-30725D02*
X24454Y-31196D01*
X24414Y-31196D02*
X24454Y-31196D01*
X24414Y-30725D02*
X24414Y-31196D01*
X24414Y-31216D02*
X24454Y-31216D01*
X24454Y-31216D02*
X24454Y-31275D01*
X24414Y-31275D02*
X24454Y-31275D01*
X24414Y-31216D02*
X24414Y-31275D01*
X23746Y-30725D02*
X23786Y-30725D01*
X23786Y-30725D02*
X23786Y-31196D01*
X23746Y-31196D02*
X23786Y-31196D01*
X23746Y-30725D02*
X23746Y-31196D01*
X23746Y-31216D02*
X23786Y-31216D01*
X23786Y-31216D02*
X23786Y-31275D01*
X23746Y-31275D02*
X23786Y-31275D01*
X23746Y-31216D02*
X23746Y-31275D01*
X24277Y-30725D02*
X24336Y-30725D01*
X24336Y-30725D02*
X24336Y-30823D01*
X24277Y-30823D02*
X24336Y-30823D01*
X24277Y-30725D02*
X24277Y-30823D01*
G54D12*
X24710Y-30705D02*
X23490Y-30705D01*
X23490Y-30705D02*
X23490Y-31295D01*
X23490Y-31295D02*
X24710Y-31295D01*
X24710Y-31295D02*
X24710Y-30705D01*
X24315Y-30805D02*
X24297Y-30787D01*
X24278Y-30771D01*
X24257Y-30756D01*
X24235Y-30743D01*
X24212Y-30732D01*
X24188Y-30723D01*
X24164Y-30717D01*
X24139Y-30712D01*
X24114Y-30710D01*
X24089Y-30710D01*
X24064Y-30712D01*
X24039Y-30716D01*
X24014Y-30723D01*
X23991Y-30731D01*
X23967Y-30742D01*
X23945Y-30754D01*
X23925Y-30769D01*
X23905Y-30785D01*
X23887Y-30803D01*
X23886Y-30804D01*
X23885Y-30805D02*
X23869Y-30825D01*
X23854Y-30845D01*
X23842Y-30867D01*
X23831Y-30891D01*
X23823Y-30914D01*
X23816Y-30939D01*
X23812Y-30964D01*
X23810Y-30989D01*
X23810Y-31014D01*
X23812Y-31039D01*
X23817Y-31064D01*
X23823Y-31088D01*
X23832Y-31112D01*
X23843Y-31135D01*
X23856Y-31157D01*
X23871Y-31178D01*
X23885Y-31195D01*
X23885Y-31195D02*
X23903Y-31213D01*
X23922Y-31229D01*
X23943Y-31244D01*
X23965Y-31257D01*
X23988Y-31268D01*
X24012Y-31277D01*
X24036Y-31283D01*
X24061Y-31288D01*
X24086Y-31290D01*
X24111Y-31290D01*
X24136Y-31288D01*
X24161Y-31284D01*
X24186Y-31277D01*
X24209Y-31269D01*
X24233Y-31258D01*
X24255Y-31246D01*
X24275Y-31231D01*
X24295Y-31215D01*
X24313Y-31197D01*
X24314Y-31196D01*
X24315Y-31195D02*
X24331Y-31175D01*
X24346Y-31155D01*
X24358Y-31133D01*
X24369Y-31109D01*
X24377Y-31086D01*
X24384Y-31061D01*
X24388Y-31036D01*
X24390Y-31011D01*
X24390Y-30986D01*
X24388Y-30961D01*
X24383Y-30936D01*
X24377Y-30912D01*
X24368Y-30888D01*
X24357Y-30865D01*
X24344Y-30843D01*
X24329Y-30822D01*
X24315Y-30805D01*
G54D11*
X24061Y-29961D02*
X24139Y-29961D01*
X24139Y-29961D02*
X24139Y-30039D01*
X24061Y-30039D02*
X24139Y-30039D01*
X24061Y-29961D02*
X24061Y-30039D01*
X24277Y-29725D02*
X24414Y-29725D01*
X24414Y-29725D02*
X24414Y-29823D01*
X24277Y-29823D02*
X24414Y-29823D01*
X24277Y-29725D02*
X24277Y-29823D01*
X24414Y-29725D02*
X24454Y-29725D01*
X24454Y-29725D02*
X24454Y-30196D01*
X24414Y-30196D02*
X24454Y-30196D01*
X24414Y-29725D02*
X24414Y-30196D01*
X24414Y-30216D02*
X24454Y-30216D01*
X24454Y-30216D02*
X24454Y-30275D01*
X24414Y-30275D02*
X24454Y-30275D01*
X24414Y-30216D02*
X24414Y-30275D01*
X23746Y-29725D02*
X23786Y-29725D01*
X23786Y-29725D02*
X23786Y-30196D01*
X23746Y-30196D02*
X23786Y-30196D01*
X23746Y-29725D02*
X23746Y-30196D01*
X23746Y-30216D02*
X23786Y-30216D01*
X23786Y-30216D02*
X23786Y-30275D01*
X23746Y-30275D02*
X23786Y-30275D01*
X23746Y-30216D02*
X23746Y-30275D01*
X24277Y-29725D02*
X24336Y-29725D01*
X24336Y-29725D02*
X24336Y-29823D01*
X24277Y-29823D02*
X24336Y-29823D01*
X24277Y-29725D02*
X24277Y-29823D01*
G54D12*
X24710Y-29705D02*
X23490Y-29705D01*
X23490Y-29705D02*
X23490Y-30295D01*
X23490Y-30295D02*
X24710Y-30295D01*
X24710Y-30295D02*
X24710Y-29705D01*
X24315Y-29805D02*
X24297Y-29787D01*
X24278Y-29771D01*
X24257Y-29756D01*
X24235Y-29743D01*
X24212Y-29732D01*
X24188Y-29723D01*
X24164Y-29717D01*
X24139Y-29712D01*
X24114Y-29710D01*
X24089Y-29710D01*
X24064Y-29712D01*
X24039Y-29716D01*
X24014Y-29723D01*
X23991Y-29731D01*
X23967Y-29742D01*
X23945Y-29754D01*
X23925Y-29769D01*
X23905Y-29785D01*
X23887Y-29803D01*
X23886Y-29804D01*
X23885Y-29805D02*
X23869Y-29825D01*
X23854Y-29845D01*
X23842Y-29867D01*
X23831Y-29891D01*
X23823Y-29914D01*
X23816Y-29939D01*
X23812Y-29964D01*
X23810Y-29989D01*
X23810Y-30014D01*
X23812Y-30039D01*
X23817Y-30064D01*
X23823Y-30088D01*
X23832Y-30112D01*
X23843Y-30135D01*
X23856Y-30157D01*
X23871Y-30178D01*
X23885Y-30195D01*
X23885Y-30195D02*
X23903Y-30213D01*
X23922Y-30229D01*
X23943Y-30244D01*
X23965Y-30257D01*
X23988Y-30268D01*
X24012Y-30277D01*
X24036Y-30283D01*
X24061Y-30288D01*
X24086Y-30290D01*
X24111Y-30290D01*
X24136Y-30288D01*
X24161Y-30284D01*
X24186Y-30277D01*
X24209Y-30269D01*
X24233Y-30258D01*
X24255Y-30246D01*
X24275Y-30231D01*
X24295Y-30215D01*
X24313Y-30197D01*
X24314Y-30196D01*
X24315Y-30195D02*
X24331Y-30175D01*
X24346Y-30155D01*
X24358Y-30133D01*
X24369Y-30109D01*
X24377Y-30086D01*
X24384Y-30061D01*
X24388Y-30036D01*
X24390Y-30011D01*
X24390Y-29986D01*
X24388Y-29961D01*
X24383Y-29936D01*
X24377Y-29912D01*
X24368Y-29888D01*
X24357Y-29865D01*
X24344Y-29843D01*
X24329Y-29822D01*
X24315Y-29805D01*
G54D11*
X24061Y-28961D02*
X24139Y-28961D01*
X24139Y-28961D02*
X24139Y-29039D01*
X24061Y-29039D02*
X24139Y-29039D01*
X24061Y-28961D02*
X24061Y-29039D01*
X24277Y-28725D02*
X24414Y-28725D01*
X24414Y-28725D02*
X24414Y-28823D01*
X24277Y-28823D02*
X24414Y-28823D01*
X24277Y-28725D02*
X24277Y-28823D01*
X24414Y-28725D02*
X24454Y-28725D01*
X24454Y-28725D02*
X24454Y-29196D01*
X24414Y-29196D02*
X24454Y-29196D01*
X24414Y-28725D02*
X24414Y-29196D01*
X24414Y-29216D02*
X24454Y-29216D01*
X24454Y-29216D02*
X24454Y-29275D01*
X24414Y-29275D02*
X24454Y-29275D01*
X24414Y-29216D02*
X24414Y-29275D01*
X23746Y-28725D02*
X23786Y-28725D01*
X23786Y-28725D02*
X23786Y-29196D01*
X23746Y-29196D02*
X23786Y-29196D01*
X23746Y-28725D02*
X23746Y-29196D01*
X23746Y-29216D02*
X23786Y-29216D01*
X23786Y-29216D02*
X23786Y-29275D01*
X23746Y-29275D02*
X23786Y-29275D01*
X23746Y-29216D02*
X23746Y-29275D01*
X24277Y-28725D02*
X24336Y-28725D01*
X24336Y-28725D02*
X24336Y-28823D01*
X24277Y-28823D02*
X24336Y-28823D01*
X24277Y-28725D02*
X24277Y-28823D01*
G54D12*
X24710Y-28705D02*
X23490Y-28705D01*
X23490Y-28705D02*
X23490Y-29295D01*
X23490Y-29295D02*
X24710Y-29295D01*
X24710Y-29295D02*
X24710Y-28705D01*
X24315Y-28805D02*
X24297Y-28787D01*
X24278Y-28771D01*
X24257Y-28756D01*
X24235Y-28743D01*
X24212Y-28732D01*
X24188Y-28723D01*
X24164Y-28717D01*
X24139Y-28712D01*
X24114Y-28710D01*
X24089Y-28710D01*
X24064Y-28712D01*
X24039Y-28716D01*
X24014Y-28723D01*
X23991Y-28731D01*
X23967Y-28742D01*
X23945Y-28754D01*
X23925Y-28769D01*
X23905Y-28785D01*
X23887Y-28803D01*
X23886Y-28804D01*
X23885Y-28805D02*
X23869Y-28825D01*
X23854Y-28845D01*
X23842Y-28867D01*
X23831Y-28891D01*
X23823Y-28914D01*
X23816Y-28939D01*
X23812Y-28964D01*
X23810Y-28989D01*
X23810Y-29014D01*
X23812Y-29039D01*
X23817Y-29064D01*
X23823Y-29088D01*
X23832Y-29112D01*
X23843Y-29135D01*
X23856Y-29157D01*
X23871Y-29178D01*
X23885Y-29195D01*
X23885Y-29195D02*
X23903Y-29213D01*
X23922Y-29229D01*
X23943Y-29244D01*
X23965Y-29257D01*
X23988Y-29268D01*
X24012Y-29277D01*
X24036Y-29283D01*
X24061Y-29288D01*
X24086Y-29290D01*
X24111Y-29290D01*
X24136Y-29288D01*
X24161Y-29284D01*
X24186Y-29277D01*
X24209Y-29269D01*
X24233Y-29258D01*
X24255Y-29246D01*
X24275Y-29231D01*
X24295Y-29215D01*
X24313Y-29197D01*
X24314Y-29196D01*
X24315Y-29195D02*
X24331Y-29175D01*
X24346Y-29155D01*
X24358Y-29133D01*
X24369Y-29109D01*
X24377Y-29086D01*
X24384Y-29061D01*
X24388Y-29036D01*
X24390Y-29011D01*
X24390Y-28986D01*
X24388Y-28961D01*
X24383Y-28936D01*
X24377Y-28912D01*
X24368Y-28888D01*
X24357Y-28865D01*
X24344Y-28843D01*
X24329Y-28822D01*
X24315Y-28805D01*
G54D11*
X24061Y-27961D02*
X24139Y-27961D01*
X24139Y-27961D02*
X24139Y-28039D01*
X24061Y-28039D02*
X24139Y-28039D01*
X24061Y-27961D02*
X24061Y-28039D01*
X24277Y-27725D02*
X24414Y-27725D01*
X24414Y-27725D02*
X24414Y-27823D01*
X24277Y-27823D02*
X24414Y-27823D01*
X24277Y-27725D02*
X24277Y-27823D01*
X24414Y-27725D02*
X24454Y-27725D01*
X24454Y-27725D02*
X24454Y-28196D01*
X24414Y-28196D02*
X24454Y-28196D01*
X24414Y-27725D02*
X24414Y-28196D01*
X24414Y-28216D02*
X24454Y-28216D01*
X24454Y-28216D02*
X24454Y-28275D01*
X24414Y-28275D02*
X24454Y-28275D01*
X24414Y-28216D02*
X24414Y-28275D01*
X23746Y-27725D02*
X23786Y-27725D01*
X23786Y-27725D02*
X23786Y-28196D01*
X23746Y-28196D02*
X23786Y-28196D01*
X23746Y-27725D02*
X23746Y-28196D01*
X23746Y-28216D02*
X23786Y-28216D01*
X23786Y-28216D02*
X23786Y-28275D01*
X23746Y-28275D02*
X23786Y-28275D01*
X23746Y-28216D02*
X23746Y-28275D01*
X24277Y-27725D02*
X24336Y-27725D01*
X24336Y-27725D02*
X24336Y-27823D01*
X24277Y-27823D02*
X24336Y-27823D01*
X24277Y-27725D02*
X24277Y-27823D01*
G54D12*
X24710Y-27705D02*
X23490Y-27705D01*
X23490Y-27705D02*
X23490Y-28295D01*
X23490Y-28295D02*
X24710Y-28295D01*
X24710Y-28295D02*
X24710Y-27705D01*
X24315Y-27805D02*
X24297Y-27787D01*
X24278Y-27771D01*
X24257Y-27756D01*
X24235Y-27743D01*
X24212Y-27732D01*
X24188Y-27723D01*
X24164Y-27717D01*
X24139Y-27712D01*
X24114Y-27710D01*
X24089Y-27710D01*
X24064Y-27712D01*
X24039Y-27716D01*
X24014Y-27723D01*
X23991Y-27731D01*
X23967Y-27742D01*
X23945Y-27754D01*
X23925Y-27769D01*
X23905Y-27785D01*
X23887Y-27803D01*
X23886Y-27804D01*
X23885Y-27805D02*
X23869Y-27825D01*
X23854Y-27845D01*
X23842Y-27867D01*
X23831Y-27891D01*
X23823Y-27914D01*
X23816Y-27939D01*
X23812Y-27964D01*
X23810Y-27989D01*
X23810Y-28014D01*
X23812Y-28039D01*
X23817Y-28064D01*
X23823Y-28088D01*
X23832Y-28112D01*
X23843Y-28135D01*
X23856Y-28157D01*
X23871Y-28178D01*
X23885Y-28195D01*
X23885Y-28195D02*
X23903Y-28213D01*
X23922Y-28229D01*
X23943Y-28244D01*
X23965Y-28257D01*
X23988Y-28268D01*
X24012Y-28277D01*
X24036Y-28283D01*
X24061Y-28288D01*
X24086Y-28290D01*
X24111Y-28290D01*
X24136Y-28288D01*
X24161Y-28284D01*
X24186Y-28277D01*
X24209Y-28269D01*
X24233Y-28258D01*
X24255Y-28246D01*
X24275Y-28231D01*
X24295Y-28215D01*
X24313Y-28197D01*
X24314Y-28196D01*
X24315Y-28195D02*
X24331Y-28175D01*
X24346Y-28155D01*
X24358Y-28133D01*
X24369Y-28109D01*
X24377Y-28086D01*
X24384Y-28061D01*
X24388Y-28036D01*
X24390Y-28011D01*
X24390Y-27986D01*
X24388Y-27961D01*
X24383Y-27936D01*
X24377Y-27912D01*
X24368Y-27888D01*
X24357Y-27865D01*
X24344Y-27843D01*
X24329Y-27822D01*
X24315Y-27805D01*
G54D11*
X15761Y-27961D02*
X15839Y-27961D01*
X15839Y-27961D02*
X15839Y-28039D01*
X15761Y-28039D02*
X15839Y-28039D01*
X15761Y-27961D02*
X15761Y-28039D01*
X15977Y-27725D02*
X16114Y-27725D01*
X16114Y-27725D02*
X16114Y-27823D01*
X15977Y-27823D02*
X16114Y-27823D01*
X15977Y-27725D02*
X15977Y-27823D01*
X16114Y-27725D02*
X16154Y-27725D01*
X16154Y-27725D02*
X16154Y-28196D01*
X16114Y-28196D02*
X16154Y-28196D01*
X16114Y-27725D02*
X16114Y-28196D01*
X16114Y-28216D02*
X16154Y-28216D01*
X16154Y-28216D02*
X16154Y-28275D01*
X16114Y-28275D02*
X16154Y-28275D01*
X16114Y-28216D02*
X16114Y-28275D01*
X15446Y-27725D02*
X15486Y-27725D01*
X15486Y-27725D02*
X15486Y-28196D01*
X15446Y-28196D02*
X15486Y-28196D01*
X15446Y-27725D02*
X15446Y-28196D01*
X15446Y-28216D02*
X15486Y-28216D01*
X15486Y-28216D02*
X15486Y-28275D01*
X15446Y-28275D02*
X15486Y-28275D01*
X15446Y-28216D02*
X15446Y-28275D01*
X15977Y-27725D02*
X16036Y-27725D01*
X16036Y-27725D02*
X16036Y-27823D01*
X15977Y-27823D02*
X16036Y-27823D01*
X15977Y-27725D02*
X15977Y-27823D01*
G54D12*
X16410Y-27705D02*
X15190Y-27705D01*
X15190Y-27705D02*
X15190Y-28295D01*
X15190Y-28295D02*
X16410Y-28295D01*
X16410Y-28295D02*
X16410Y-27705D01*
X16015Y-27805D02*
X15997Y-27787D01*
X15978Y-27771D01*
X15957Y-27756D01*
X15935Y-27743D01*
X15912Y-27732D01*
X15888Y-27723D01*
X15864Y-27717D01*
X15839Y-27712D01*
X15814Y-27710D01*
X15789Y-27710D01*
X15764Y-27712D01*
X15739Y-27716D01*
X15714Y-27723D01*
X15691Y-27731D01*
X15667Y-27742D01*
X15645Y-27754D01*
X15625Y-27769D01*
X15605Y-27785D01*
X15587Y-27803D01*
X15586Y-27804D01*
X15585Y-27805D02*
X15569Y-27825D01*
X15554Y-27845D01*
X15542Y-27867D01*
X15531Y-27891D01*
X15523Y-27914D01*
X15516Y-27939D01*
X15512Y-27964D01*
X15510Y-27989D01*
X15510Y-28014D01*
X15512Y-28039D01*
X15517Y-28064D01*
X15523Y-28088D01*
X15532Y-28112D01*
X15543Y-28135D01*
X15556Y-28157D01*
X15571Y-28178D01*
X15585Y-28195D01*
X15585Y-28195D02*
X15603Y-28213D01*
X15622Y-28229D01*
X15643Y-28244D01*
X15665Y-28257D01*
X15688Y-28268D01*
X15712Y-28277D01*
X15736Y-28283D01*
X15761Y-28288D01*
X15786Y-28290D01*
X15811Y-28290D01*
X15836Y-28288D01*
X15861Y-28284D01*
X15886Y-28277D01*
X15909Y-28269D01*
X15933Y-28258D01*
X15955Y-28246D01*
X15975Y-28231D01*
X15995Y-28215D01*
X16013Y-28197D01*
X16014Y-28196D01*
X16015Y-28195D02*
X16031Y-28175D01*
X16046Y-28155D01*
X16058Y-28133D01*
X16069Y-28109D01*
X16077Y-28086D01*
X16084Y-28061D01*
X16088Y-28036D01*
X16090Y-28011D01*
X16090Y-27986D01*
X16088Y-27961D01*
X16083Y-27936D01*
X16077Y-27912D01*
X16068Y-27888D01*
X16057Y-27865D01*
X16044Y-27843D01*
X16029Y-27822D01*
X16015Y-27805D01*
G54D13*
X17747Y-33648D02*
X17053Y-33648D01*
X17747Y-33352D02*
X17053Y-33352D01*
X17747Y-33352D02*
X17747Y-33648D01*
X17053Y-33352D02*
X17053Y-33648D01*
X21247Y-32048D02*
X20553Y-32048D01*
X21247Y-31752D02*
X20553Y-31752D01*
X21247Y-31752D02*
X21247Y-32048D01*
X20553Y-31752D02*
X20553Y-32048D01*
X16853Y-27852D02*
X17547Y-27852D01*
X16853Y-28148D02*
X17547Y-28148D01*
X16853Y-28148D02*
X16853Y-27852D01*
X17547Y-28148D02*
X17547Y-27852D01*
X15552Y-29647D02*
X15552Y-28953D01*
X15848Y-29647D02*
X15848Y-28953D01*
X15848Y-29647D02*
X15552Y-29647D01*
X15848Y-28953D02*
X15552Y-28953D01*
X14052Y-30347D02*
X14052Y-29653D01*
X14348Y-30347D02*
X14348Y-29653D01*
X14348Y-30347D02*
X14052Y-30347D01*
X14348Y-29653D02*
X14052Y-29653D01*
X14452Y-30347D02*
X14452Y-29653D01*
X14748Y-30347D02*
X14748Y-29653D01*
X14748Y-30347D02*
X14452Y-30347D01*
X14748Y-29653D02*
X14452Y-29653D01*
X17352Y-29647D02*
X17352Y-28953D01*
X17648Y-29647D02*
X17648Y-28953D01*
X17648Y-29647D02*
X17352Y-29647D01*
X17648Y-28953D02*
X17352Y-28953D01*
X16852Y-29647D02*
X16852Y-28953D01*
X17148Y-29647D02*
X17148Y-28953D01*
X17148Y-29647D02*
X16852Y-29647D01*
X17148Y-28953D02*
X16852Y-28953D01*
X14748Y-28153D02*
X14748Y-28847D01*
X14452Y-28153D02*
X14452Y-28847D01*
X14452Y-28153D02*
X14748Y-28153D01*
X14452Y-28847D02*
X14748Y-28847D01*
X14348Y-28153D02*
X14348Y-28847D01*
X14052Y-28153D02*
X14052Y-28847D01*
X14052Y-28153D02*
X14348Y-28153D01*
X14052Y-28847D02*
X14348Y-28847D01*
G54D10*
X22480Y-27910D02*
X22030Y-27910D01*
X22480Y-30090D02*
X22040Y-30090D01*
X22480Y-27910D02*
X22480Y-30090D01*
X21600Y-27440D02*
X21600Y-27010D01*
X19390Y-27430D02*
X19390Y-27010D01*
X19380Y-27010D02*
X21600Y-27000D01*
X19400Y-30980D02*
X21570Y-30990D01*
X18970Y-30290D02*
X18970Y-27460D01*
X21580Y-30980D02*
X21580Y-30570D01*
X19220Y-30530D02*
X22000Y-30530D01*
X22020Y-27450D02*
X22020Y-30490D01*
X18970Y-27450D02*
X21970Y-27450D01*
X18520Y-30120D02*
X18520Y-27900D01*
X18520Y-27900D02*
X18970Y-27900D01*
X18974Y-30300D02*
X19204Y-30530D01*
X18522Y-30120D02*
X18974Y-30120D01*
X19400Y-30530D02*
X19400Y-30982D01*
X19570Y-30126D02*
X19566Y-30162D01*
X19555Y-30197D01*
X19538Y-30230D01*
X19515Y-30258D01*
X19487Y-30281D01*
X19454Y-30299D01*
X19419Y-30310D01*
X19383Y-30313D01*
X19347Y-30310D01*
X19312Y-30300D01*
X19280Y-30283D01*
X19251Y-30260D01*
X19227Y-30232D01*
X19210Y-30200D01*
X19199Y-30165D01*
X19195Y-30128D01*
X19198Y-30093D01*
X19208Y-30057D01*
X19224Y-30025D01*
X19247Y-29996D01*
X19275Y-29972D01*
X19307Y-29954D01*
X19342Y-29943D01*
X19379Y-29939D01*
X19414Y-29941D01*
X19449Y-29951D01*
X19482Y-29968D01*
X19511Y-29990D01*
X19535Y-30018D01*
X19553Y-30050D01*
X19565Y-30085D01*
X19569Y-30121D01*
X19570Y-30126D01*
G54D13*
X16853Y-32252D02*
X17547Y-32252D01*
X16853Y-32548D02*
X17547Y-32548D01*
X16853Y-32548D02*
X16853Y-32252D01*
X17547Y-32548D02*
X17547Y-32252D01*
G54D10*
X24284Y-31601D02*
X24284Y-31351D01*
X24225Y-31351D01*
X24189Y-31363D01*
X24165Y-31387D01*
X24154Y-31411D01*
X24142Y-31458D01*
X24142Y-31494D01*
X24154Y-31542D01*
X24165Y-31565D01*
X24189Y-31589D01*
X24225Y-31601D01*
X24284Y-31601D01*
X23915Y-31351D02*
X24034Y-31351D01*
X24046Y-31470D01*
X24034Y-31458D01*
X24011Y-31446D01*
X23951Y-31446D01*
X23927Y-31458D01*
X23915Y-31470D01*
X23904Y-31494D01*
X23904Y-31554D01*
X23915Y-31577D01*
X23927Y-31589D01*
X23951Y-31601D01*
X24011Y-31601D01*
X24034Y-31589D01*
X24046Y-31577D01*
X24284Y-30501D02*
X24284Y-30251D01*
X24225Y-30251D01*
X24189Y-30263D01*
X24165Y-30287D01*
X24154Y-30311D01*
X24142Y-30358D01*
X24142Y-30394D01*
X24154Y-30442D01*
X24165Y-30465D01*
X24189Y-30489D01*
X24225Y-30501D01*
X24284Y-30501D01*
X23927Y-30335D02*
X23927Y-30501D01*
X23987Y-30239D02*
X24046Y-30418D01*
X23892Y-30418D01*
X24284Y-29501D02*
X24284Y-29251D01*
X24225Y-29251D01*
X24189Y-29263D01*
X24165Y-29287D01*
X24154Y-29311D01*
X24142Y-29358D01*
X24142Y-29394D01*
X24154Y-29442D01*
X24165Y-29465D01*
X24189Y-29489D01*
X24225Y-29501D01*
X24284Y-29501D01*
X24058Y-29251D02*
X23904Y-29251D01*
X23987Y-29346D01*
X23951Y-29346D01*
X23927Y-29358D01*
X23915Y-29370D01*
X23904Y-29394D01*
X23904Y-29454D01*
X23915Y-29477D01*
X23927Y-29489D01*
X23951Y-29501D01*
X24023Y-29501D01*
X24046Y-29489D01*
X24058Y-29477D01*
X24284Y-28501D02*
X24284Y-28251D01*
X24225Y-28251D01*
X24189Y-28263D01*
X24165Y-28287D01*
X24154Y-28311D01*
X24142Y-28358D01*
X24142Y-28394D01*
X24154Y-28442D01*
X24165Y-28465D01*
X24189Y-28489D01*
X24225Y-28501D01*
X24284Y-28501D01*
X24046Y-28275D02*
X24034Y-28263D01*
X24011Y-28251D01*
X23951Y-28251D01*
X23927Y-28263D01*
X23915Y-28275D01*
X23904Y-28299D01*
X23904Y-28323D01*
X23915Y-28358D01*
X24058Y-28501D01*
X23904Y-28501D01*
X15984Y-28601D02*
X15984Y-28351D01*
X15925Y-28351D01*
X15889Y-28363D01*
X15865Y-28387D01*
X15854Y-28411D01*
X15842Y-28458D01*
X15842Y-28494D01*
X15854Y-28542D01*
X15865Y-28565D01*
X15889Y-28589D01*
X15925Y-28601D01*
X15984Y-28601D01*
X15604Y-28601D02*
X15746Y-28601D01*
X15675Y-28601D02*
X15675Y-28351D01*
X15699Y-28387D01*
X15723Y-28411D01*
X15746Y-28423D01*
X17761Y-33201D02*
X17844Y-33082D01*
X17903Y-33201D02*
X17903Y-32951D01*
X17808Y-32951D01*
X17784Y-32963D01*
X17773Y-32975D01*
X17761Y-32999D01*
X17761Y-33035D01*
X17773Y-33058D01*
X17784Y-33070D01*
X17808Y-33082D01*
X17903Y-33082D01*
X17523Y-33201D02*
X17665Y-33201D01*
X17594Y-33201D02*
X17594Y-32951D01*
X17618Y-32987D01*
X17642Y-33011D01*
X17665Y-33023D01*
X17368Y-32951D02*
X17344Y-32951D01*
X17320Y-32963D01*
X17308Y-32975D01*
X17296Y-32999D01*
X17285Y-33046D01*
X17285Y-33106D01*
X17296Y-33154D01*
X17308Y-33177D01*
X17320Y-33189D01*
X17344Y-33201D01*
X17368Y-33201D01*
X17392Y-33189D01*
X17404Y-33177D01*
X17415Y-33154D01*
X17427Y-33106D01*
X17427Y-33046D01*
X17415Y-32999D01*
X17404Y-32975D01*
X17392Y-32963D01*
X17368Y-32951D01*
X21742Y-32001D02*
X21825Y-31882D01*
X21884Y-32001D02*
X21884Y-31751D01*
X21789Y-31751D01*
X21765Y-31763D01*
X21754Y-31775D01*
X21742Y-31799D01*
X21742Y-31835D01*
X21754Y-31858D01*
X21765Y-31870D01*
X21789Y-31882D01*
X21884Y-31882D01*
X21658Y-31751D02*
X21504Y-31751D01*
X21587Y-31846D01*
X21551Y-31846D01*
X21527Y-31858D01*
X21515Y-31870D01*
X21504Y-31894D01*
X21504Y-31954D01*
X21515Y-31977D01*
X21527Y-31989D01*
X21551Y-32001D01*
X21623Y-32001D01*
X21646Y-31989D01*
X21658Y-31977D01*
X17542Y-27701D02*
X17625Y-27582D01*
X17684Y-27701D02*
X17684Y-27451D01*
X17589Y-27451D01*
X17565Y-27463D01*
X17554Y-27475D01*
X17542Y-27499D01*
X17542Y-27535D01*
X17554Y-27558D01*
X17565Y-27570D01*
X17589Y-27582D01*
X17684Y-27582D01*
X17304Y-27701D02*
X17446Y-27701D01*
X17375Y-27701D02*
X17375Y-27451D01*
X17399Y-27487D01*
X17423Y-27511D01*
X17446Y-27523D01*
X15377Y-29258D02*
X15389Y-29246D01*
X15401Y-29211D01*
X15401Y-29187D01*
X15389Y-29151D01*
X15365Y-29127D01*
X15342Y-29116D01*
X15294Y-29104D01*
X15258Y-29104D01*
X15211Y-29116D01*
X15187Y-29127D01*
X15163Y-29151D01*
X15151Y-29187D01*
X15151Y-29211D01*
X15163Y-29246D01*
X15175Y-29258D01*
X15258Y-29401D02*
X15246Y-29377D01*
X15235Y-29366D01*
X15211Y-29354D01*
X15199Y-29354D01*
X15175Y-29366D01*
X15163Y-29377D01*
X15151Y-29401D01*
X15151Y-29449D01*
X15163Y-29473D01*
X15175Y-29485D01*
X15199Y-29496D01*
X15211Y-29496D01*
X15235Y-29485D01*
X15246Y-29473D01*
X15258Y-29449D01*
X15258Y-29401D01*
X15270Y-29377D01*
X15282Y-29366D01*
X15306Y-29354D01*
X15354Y-29354D01*
X15377Y-29366D01*
X15389Y-29377D01*
X15401Y-29401D01*
X15401Y-29449D01*
X15389Y-29473D01*
X15377Y-29485D01*
X15354Y-29496D01*
X15306Y-29496D01*
X15282Y-29485D01*
X15270Y-29473D01*
X15258Y-29449D01*
X14277Y-30558D02*
X14289Y-30546D01*
X14301Y-30511D01*
X14301Y-30487D01*
X14289Y-30451D01*
X14265Y-30427D01*
X14242Y-30416D01*
X14194Y-30404D01*
X14158Y-30404D01*
X14111Y-30416D01*
X14087Y-30427D01*
X14063Y-30451D01*
X14051Y-30487D01*
X14051Y-30511D01*
X14063Y-30546D01*
X14075Y-30558D01*
X14051Y-30642D02*
X14051Y-30808D01*
X14301Y-30701D01*
X14777Y-30558D02*
X14789Y-30546D01*
X14801Y-30511D01*
X14801Y-30487D01*
X14789Y-30451D01*
X14765Y-30427D01*
X14742Y-30416D01*
X14694Y-30404D01*
X14658Y-30404D01*
X14611Y-30416D01*
X14587Y-30427D01*
X14563Y-30451D01*
X14551Y-30487D01*
X14551Y-30511D01*
X14563Y-30546D01*
X14575Y-30558D01*
X14551Y-30773D02*
X14551Y-30725D01*
X14563Y-30701D01*
X14575Y-30689D01*
X14611Y-30666D01*
X14658Y-30654D01*
X14754Y-30654D01*
X14777Y-30666D01*
X14789Y-30677D01*
X14801Y-30701D01*
X14801Y-30749D01*
X14789Y-30773D01*
X14777Y-30785D01*
X14754Y-30796D01*
X14694Y-30796D01*
X14670Y-30785D01*
X14658Y-30773D01*
X14646Y-30749D01*
X14646Y-30701D01*
X14658Y-30677D01*
X14670Y-30666D01*
X14694Y-30654D01*
X17577Y-28558D02*
X17589Y-28546D01*
X17601Y-28511D01*
X17601Y-28487D01*
X17589Y-28451D01*
X17565Y-28427D01*
X17542Y-28416D01*
X17494Y-28404D01*
X17458Y-28404D01*
X17411Y-28416D01*
X17387Y-28427D01*
X17363Y-28451D01*
X17351Y-28487D01*
X17351Y-28511D01*
X17363Y-28546D01*
X17375Y-28558D01*
X17351Y-28785D02*
X17351Y-28666D01*
X17470Y-28654D01*
X17458Y-28666D01*
X17446Y-28689D01*
X17446Y-28749D01*
X17458Y-28773D01*
X17470Y-28785D01*
X17494Y-28796D01*
X17554Y-28796D01*
X17577Y-28785D01*
X17589Y-28773D01*
X17601Y-28749D01*
X17601Y-28689D01*
X17589Y-28666D01*
X17577Y-28654D01*
X17077Y-28558D02*
X17089Y-28546D01*
X17101Y-28511D01*
X17101Y-28487D01*
X17089Y-28451D01*
X17065Y-28427D01*
X17042Y-28416D01*
X16994Y-28404D01*
X16958Y-28404D01*
X16911Y-28416D01*
X16887Y-28427D01*
X16863Y-28451D01*
X16851Y-28487D01*
X16851Y-28511D01*
X16863Y-28546D01*
X16875Y-28558D01*
X16935Y-28773D02*
X17101Y-28773D01*
X16839Y-28713D02*
X17018Y-28654D01*
X17018Y-28808D01*
X14677Y-27858D02*
X14689Y-27846D01*
X14701Y-27811D01*
X14701Y-27787D01*
X14689Y-27751D01*
X14665Y-27727D01*
X14642Y-27716D01*
X14594Y-27704D01*
X14558Y-27704D01*
X14511Y-27716D01*
X14487Y-27727D01*
X14463Y-27751D01*
X14451Y-27787D01*
X14451Y-27811D01*
X14463Y-27846D01*
X14475Y-27858D01*
X14475Y-27954D02*
X14463Y-27966D01*
X14451Y-27989D01*
X14451Y-28049D01*
X14463Y-28073D01*
X14475Y-28085D01*
X14499Y-28096D01*
X14523Y-28096D01*
X14558Y-28085D01*
X14701Y-27942D01*
X14701Y-28096D01*
X14277Y-27858D02*
X14289Y-27846D01*
X14301Y-27811D01*
X14301Y-27787D01*
X14289Y-27751D01*
X14265Y-27727D01*
X14242Y-27716D01*
X14194Y-27704D01*
X14158Y-27704D01*
X14111Y-27716D01*
X14087Y-27727D01*
X14063Y-27751D01*
X14051Y-27787D01*
X14051Y-27811D01*
X14063Y-27846D01*
X14075Y-27858D01*
X14301Y-28096D02*
X14301Y-27954D01*
X14301Y-28025D02*
X14051Y-28025D01*
X14087Y-28001D01*
X14111Y-27977D01*
X14123Y-27954D01*
G54D14*
X21043Y-28801D02*
X21043Y-28551D01*
X20782Y-28777D02*
X20794Y-28789D01*
X20829Y-28801D01*
X20853Y-28801D01*
X20889Y-28789D01*
X20913Y-28765D01*
X20924Y-28742D01*
X20936Y-28694D01*
X20936Y-28658D01*
X20924Y-28611D01*
X20913Y-28587D01*
X20889Y-28563D01*
X20853Y-28551D01*
X20829Y-28551D01*
X20794Y-28563D01*
X20782Y-28575D01*
X20544Y-28801D02*
X20686Y-28801D01*
X20615Y-28801D02*
X20615Y-28551D01*
X20639Y-28587D01*
X20663Y-28611D01*
X20686Y-28623D01*
G54D10*
X16761Y-32901D02*
X16844Y-32782D01*
X16903Y-32901D02*
X16903Y-32651D01*
X16808Y-32651D01*
X16784Y-32663D01*
X16773Y-32675D01*
X16761Y-32699D01*
X16761Y-32735D01*
X16773Y-32758D01*
X16784Y-32770D01*
X16808Y-32782D01*
X16903Y-32782D01*
X16523Y-32901D02*
X16665Y-32901D01*
X16594Y-32901D02*
X16594Y-32651D01*
X16618Y-32687D01*
X16642Y-32711D01*
X16665Y-32723D01*
X16285Y-32901D02*
X16427Y-32901D01*
X16356Y-32901D02*
X16356Y-32651D01*
X16380Y-32687D01*
X16404Y-32711D01*
X16427Y-32723D01*
M02*
