G04 (created by PCBNEW-RS274X (2010-04-21 BZR 23xx)-stable) date Tue 14 Jun 2011 01:50:34 AM EDT*
G01*
G70*
G90*
%MOIN*%
G04 Gerber Fmt 3.4, Leading zero omitted, Abs format*
%FSLAX34Y34*%
G04 APERTURE LIST*
%ADD10C,0.006000*%
%ADD11R,0.062900X0.070900*%
%ADD12C,0.143700*%
%ADD13R,0.059100X0.059100*%
%ADD14C,0.059100*%
%ADD15R,0.055000X0.055000*%
%ADD16R,0.055000X0.035000*%
%ADD17R,0.060000X0.080000*%
%ADD18R,0.080000X0.060000*%
%ADD19C,0.050000*%
%ADD20C,0.035000*%
%ADD21C,0.008000*%
%ADD22C,0.010000*%
G04 APERTURE END LIST*
G54D10*
G54D11*
X55041Y-42000D03*
X56159Y-42000D03*
G54D12*
X56962Y-36900D03*
X61635Y-36900D03*
G54D13*
X61050Y-39400D03*
G54D14*
X60550Y-40400D03*
X60050Y-39400D03*
X59550Y-40400D03*
X59050Y-39400D03*
X58550Y-40400D03*
X58050Y-39400D03*
X57550Y-40400D03*
G54D12*
X50062Y-36900D03*
X54735Y-36900D03*
G54D13*
X54150Y-39400D03*
G54D14*
X53650Y-40400D03*
X53150Y-39400D03*
X52650Y-40400D03*
X52150Y-39400D03*
X51650Y-40400D03*
X51150Y-39400D03*
X50650Y-40400D03*
G54D15*
X61700Y-41700D03*
X61700Y-45000D03*
G54D16*
X58200Y-43825D03*
X58200Y-44575D03*
X58200Y-42575D03*
X58200Y-41825D03*
X55000Y-42725D03*
X55000Y-43475D03*
X56200Y-44575D03*
X56200Y-43825D03*
X53000Y-43775D03*
X53000Y-43025D03*
G54D17*
X61750Y-42800D03*
X60450Y-42800D03*
G54D18*
X52000Y-44050D03*
X52000Y-42750D03*
G54D19*
X50830Y-44265D03*
X50830Y-42535D03*
G54D15*
X59700Y-41700D03*
X59700Y-45000D03*
G54D16*
X61900Y-40575D03*
X61900Y-39825D03*
G54D20*
X58200Y-45100D03*
X58200Y-41300D03*
X55636Y-44429D03*
X60450Y-43480D03*
X55561Y-43600D03*
X50295Y-44393D03*
X53455Y-42320D03*
G54D21*
X56159Y-42000D02*
X56159Y-42498D01*
X56200Y-43825D02*
X56200Y-43507D01*
X60425Y-44143D02*
X56200Y-44143D01*
X61282Y-45000D02*
X60425Y-44143D01*
X61700Y-45000D02*
X61282Y-45000D01*
X56200Y-43825D02*
X56200Y-44143D01*
X52582Y-42789D02*
X52543Y-42750D01*
X52582Y-43025D02*
X52582Y-42789D01*
X52000Y-42750D02*
X52543Y-42750D01*
X53000Y-43025D02*
X52582Y-43025D01*
X55808Y-42849D02*
X56159Y-42498D01*
X55808Y-43115D02*
X55808Y-42849D01*
X53508Y-43115D02*
X53418Y-43025D01*
X55808Y-43115D02*
X53508Y-43115D01*
X56200Y-43507D02*
X55808Y-43115D01*
X53000Y-43025D02*
X53418Y-43025D01*
X55041Y-42684D02*
X55000Y-42725D01*
X55041Y-42000D02*
X55041Y-42684D01*
X59110Y-39960D02*
X59550Y-40400D01*
X53090Y-39960D02*
X59110Y-39960D01*
X52650Y-40400D02*
X53090Y-39960D01*
X58200Y-44575D02*
X58200Y-45100D01*
X57445Y-38795D02*
X58050Y-39400D01*
X51755Y-38795D02*
X57445Y-38795D01*
X51150Y-39400D02*
X51755Y-38795D01*
X58200Y-41825D02*
X58200Y-41300D01*
X56200Y-44575D02*
X55782Y-44575D01*
X55782Y-44575D02*
X55636Y-44429D01*
X60450Y-42800D02*
X60450Y-43480D01*
X61595Y-39507D02*
X61900Y-39507D01*
X61488Y-39400D02*
X61595Y-39507D01*
X61050Y-39400D02*
X61488Y-39400D01*
X61900Y-39825D02*
X61900Y-39507D01*
X61900Y-40575D02*
X61482Y-40575D01*
X61307Y-40400D02*
X61482Y-40575D01*
X60550Y-40400D02*
X61307Y-40400D01*
X54090Y-40840D02*
X53650Y-40400D01*
X60110Y-40840D02*
X54090Y-40840D01*
X60550Y-40400D02*
X60110Y-40840D01*
X61750Y-42800D02*
X61750Y-42257D01*
X61650Y-42257D02*
X61700Y-42207D01*
X58200Y-42257D02*
X61650Y-42257D01*
X61750Y-42257D02*
X61700Y-42207D01*
X61700Y-42207D02*
X61700Y-41700D01*
X58200Y-43825D02*
X58200Y-42575D01*
X58200Y-42575D02*
X58200Y-42331D01*
X58200Y-42331D02*
X58200Y-42313D01*
X58200Y-42313D02*
X58200Y-42257D01*
X52582Y-44011D02*
X52582Y-43775D01*
X52543Y-44050D02*
X52582Y-44011D01*
X52000Y-44050D02*
X52543Y-44050D01*
X53000Y-43775D02*
X52582Y-43775D01*
X54282Y-43775D02*
X54582Y-43475D01*
X53000Y-43775D02*
X54282Y-43775D01*
X55000Y-43475D02*
X54582Y-43475D01*
X55543Y-43600D02*
X55561Y-43600D01*
X55418Y-43475D02*
X55543Y-43600D01*
X55000Y-43475D02*
X55418Y-43475D01*
X52000Y-44050D02*
X51457Y-44050D01*
X51457Y-43596D02*
X51456Y-43595D01*
X51457Y-44050D02*
X51457Y-43596D01*
X50295Y-44241D02*
X50295Y-44393D01*
X50941Y-43595D02*
X50295Y-44241D01*
X51456Y-43595D02*
X50941Y-43595D01*
X51478Y-42289D02*
X53455Y-42289D01*
X51456Y-42311D02*
X51478Y-42289D01*
X51456Y-43595D02*
X51456Y-42311D01*
X54242Y-41502D02*
X53455Y-42289D01*
X56596Y-41502D02*
X54242Y-41502D01*
X57407Y-42313D02*
X56596Y-41502D01*
X58200Y-42313D02*
X57407Y-42313D01*
X53455Y-42289D02*
X53455Y-42320D01*
G54D22*
X61018Y-40690D02*
X61187Y-40690D01*
X60949Y-40770D02*
X61267Y-40770D01*
X60869Y-40850D02*
X61396Y-40850D01*
X60691Y-40930D02*
X61453Y-40930D01*
X60349Y-41010D02*
X62325Y-41010D01*
X60247Y-41090D02*
X62325Y-41090D01*
X58606Y-41170D02*
X62325Y-41170D01*
X58625Y-41250D02*
X59248Y-41250D01*
X60152Y-41250D02*
X61248Y-41250D01*
X62152Y-41250D02*
X62325Y-41250D01*
X58625Y-41330D02*
X59195Y-41330D01*
X60205Y-41330D02*
X61195Y-41330D01*
X62205Y-41330D02*
X62325Y-41330D01*
X58614Y-41410D02*
X59176Y-41410D01*
X60224Y-41410D02*
X61176Y-41410D01*
X62224Y-41410D02*
X62325Y-41410D01*
X58667Y-41490D02*
X59176Y-41490D01*
X60224Y-41490D02*
X61176Y-41490D01*
X62224Y-41490D02*
X62325Y-41490D01*
X58712Y-41570D02*
X59176Y-41570D01*
X60224Y-41570D02*
X61176Y-41570D01*
X62224Y-41570D02*
X62325Y-41570D01*
X58724Y-41650D02*
X59176Y-41650D01*
X60224Y-41650D02*
X61176Y-41650D01*
X62224Y-41650D02*
X62325Y-41650D01*
X58724Y-41730D02*
X59176Y-41730D01*
X60224Y-41730D02*
X61176Y-41730D01*
X62224Y-41730D02*
X62325Y-41730D01*
X58724Y-41810D02*
X59176Y-41810D01*
X60224Y-41810D02*
X61176Y-41810D01*
X62224Y-41810D02*
X62325Y-41810D01*
X58724Y-41890D02*
X59176Y-41890D01*
X60224Y-41890D02*
X61176Y-41890D01*
X62224Y-41890D02*
X62325Y-41890D01*
X62224Y-41970D02*
X62325Y-41970D01*
X62213Y-42050D02*
X62325Y-42050D01*
X62171Y-42130D02*
X62325Y-42130D01*
X62212Y-42210D02*
X62325Y-42210D01*
X62274Y-42290D02*
X62325Y-42290D01*
X62299Y-42370D02*
X62325Y-42370D01*
X62299Y-42450D02*
X62325Y-42450D01*
X62299Y-42530D02*
X62325Y-42530D01*
X58724Y-42610D02*
X59901Y-42610D01*
X60999Y-42610D02*
X61201Y-42610D01*
X62299Y-42610D02*
X62325Y-42610D01*
X58724Y-42690D02*
X59901Y-42690D01*
X60999Y-42690D02*
X61201Y-42690D01*
X62299Y-42690D02*
X62325Y-42690D01*
X58724Y-42770D02*
X59901Y-42770D01*
X60999Y-42770D02*
X61201Y-42770D01*
X62299Y-42770D02*
X62325Y-42770D01*
X58703Y-42850D02*
X59901Y-42850D01*
X60999Y-42850D02*
X61201Y-42850D01*
X62299Y-42850D02*
X62325Y-42850D01*
X58647Y-42930D02*
X59901Y-42930D01*
X60999Y-42930D02*
X61201Y-42930D01*
X62299Y-42930D02*
X62325Y-42930D01*
X58490Y-43010D02*
X59901Y-43010D01*
X60999Y-43010D02*
X61201Y-43010D01*
X62299Y-43010D02*
X62325Y-43010D01*
X58490Y-43090D02*
X59901Y-43090D01*
X60999Y-43090D02*
X61201Y-43090D01*
X62299Y-43090D02*
X62325Y-43090D01*
X58490Y-43170D02*
X59901Y-43170D01*
X60999Y-43170D02*
X61201Y-43170D01*
X62299Y-43170D02*
X62325Y-43170D01*
X58490Y-43250D02*
X59901Y-43250D01*
X60999Y-43250D02*
X61201Y-43250D01*
X62299Y-43250D02*
X62325Y-43250D01*
X58490Y-43330D02*
X59934Y-43330D01*
X60965Y-43330D02*
X61234Y-43330D01*
X62265Y-43330D02*
X62325Y-43330D01*
X58547Y-43410D02*
X60008Y-43410D01*
X60892Y-43410D02*
X61308Y-43410D01*
X62192Y-43410D02*
X62325Y-43410D01*
X58667Y-43490D02*
X60025Y-43490D01*
X60875Y-43490D02*
X62325Y-43490D01*
X58712Y-43570D02*
X60027Y-43570D01*
X60872Y-43570D02*
X62325Y-43570D01*
X58724Y-43650D02*
X60060Y-43650D01*
X60839Y-43650D02*
X62325Y-43650D01*
X58724Y-43730D02*
X60099Y-43730D01*
X60801Y-43730D02*
X62325Y-43730D01*
X58724Y-43810D02*
X60179Y-43810D01*
X60721Y-43810D02*
X62325Y-43810D01*
X58724Y-43890D02*
X60329Y-43890D01*
X60570Y-43890D02*
X62325Y-43890D01*
X58724Y-43970D02*
X62325Y-43970D01*
X58724Y-44050D02*
X62325Y-44050D01*
X58690Y-44130D02*
X62325Y-44130D01*
X58638Y-44210D02*
X62325Y-44210D01*
X58699Y-44290D02*
X62325Y-44290D01*
X58724Y-44370D02*
X62325Y-44370D01*
X58724Y-44450D02*
X62325Y-44450D01*
X58724Y-44530D02*
X59268Y-44530D01*
X60132Y-44530D02*
X62325Y-44530D01*
X58724Y-44610D02*
X59204Y-44610D01*
X60197Y-44610D02*
X62325Y-44610D01*
X58724Y-44690D02*
X59176Y-44690D01*
X60224Y-44690D02*
X62325Y-44690D01*
X58724Y-44770D02*
X59176Y-44770D01*
X60224Y-44770D02*
X62325Y-44770D01*
X58703Y-44850D02*
X59176Y-44850D01*
X60224Y-44850D02*
X62325Y-44850D01*
X58647Y-44930D02*
X59176Y-44930D01*
X60224Y-44930D02*
X62325Y-44930D01*
X58623Y-45010D02*
X59176Y-45010D01*
X60224Y-45010D02*
X62325Y-45010D01*
X58625Y-45090D02*
X59176Y-45090D01*
X60224Y-45090D02*
X62325Y-45090D01*
X58625Y-45170D02*
X59176Y-45170D01*
X60224Y-45170D02*
X62325Y-45170D01*
X58597Y-45250D02*
X59176Y-45250D01*
X60224Y-45250D02*
X62325Y-45250D01*
X58564Y-45330D02*
X59178Y-45330D01*
X60221Y-45330D02*
X62325Y-45330D01*
X58490Y-45410D02*
X59211Y-45410D01*
X60188Y-45410D02*
X62325Y-45410D01*
X49375Y-33975D02*
X62325Y-33975D01*
X49375Y-34055D02*
X62325Y-34055D01*
X49375Y-34135D02*
X62325Y-34135D01*
X49375Y-34215D02*
X62325Y-34215D01*
X49375Y-34295D02*
X62325Y-34295D01*
X49375Y-34375D02*
X62325Y-34375D01*
X49375Y-34455D02*
X62325Y-34455D01*
X49375Y-34535D02*
X62325Y-34535D01*
X49375Y-34615D02*
X62325Y-34615D01*
X49375Y-34695D02*
X62325Y-34695D01*
X49375Y-34775D02*
X62325Y-34775D01*
X49375Y-34855D02*
X62325Y-34855D01*
X49375Y-34935D02*
X62325Y-34935D01*
X49375Y-35015D02*
X62325Y-35015D01*
X49375Y-35095D02*
X62325Y-35095D01*
X49375Y-35175D02*
X62325Y-35175D01*
X49375Y-35255D02*
X62325Y-35255D01*
X49375Y-35335D02*
X62325Y-35335D01*
X49375Y-35415D02*
X62325Y-35415D01*
X49375Y-35495D02*
X62325Y-35495D01*
X49375Y-35575D02*
X62325Y-35575D01*
X49375Y-35655D02*
X62325Y-35655D01*
X49375Y-35735D02*
X62325Y-35735D01*
X49375Y-35815D02*
X62325Y-35815D01*
X49375Y-35895D02*
X62325Y-35895D01*
X49375Y-35975D02*
X49769Y-35975D01*
X50357Y-35975D02*
X54442Y-35975D01*
X55030Y-35975D02*
X56669Y-35975D01*
X57257Y-35975D02*
X61342Y-35975D01*
X61930Y-35975D02*
X62325Y-35975D01*
X49375Y-36055D02*
X49576Y-36055D01*
X50550Y-36055D02*
X54249Y-36055D01*
X55223Y-36055D02*
X56476Y-36055D01*
X57450Y-36055D02*
X61149Y-36055D01*
X62123Y-36055D02*
X62325Y-36055D01*
X49375Y-36135D02*
X49460Y-36135D01*
X50665Y-36135D02*
X54133Y-36135D01*
X55338Y-36135D02*
X56360Y-36135D01*
X57565Y-36135D02*
X61033Y-36135D01*
X62238Y-36135D02*
X62325Y-36135D01*
X49375Y-36215D02*
X49380Y-36215D01*
X50745Y-36215D02*
X54053Y-36215D01*
X55418Y-36215D02*
X56280Y-36215D01*
X57645Y-36215D02*
X60953Y-36215D01*
X62318Y-36215D02*
X62325Y-36215D01*
X50825Y-36295D02*
X53973Y-36295D01*
X55498Y-36295D02*
X56200Y-36295D01*
X57725Y-36295D02*
X60873Y-36295D01*
X50892Y-36375D02*
X53906Y-36375D01*
X55565Y-36375D02*
X56133Y-36375D01*
X57792Y-36375D02*
X60806Y-36375D01*
X50925Y-36455D02*
X53873Y-36455D01*
X55598Y-36455D02*
X56100Y-36455D01*
X57825Y-36455D02*
X60773Y-36455D01*
X50958Y-36535D02*
X53840Y-36535D01*
X55631Y-36535D02*
X56067Y-36535D01*
X57858Y-36535D02*
X60740Y-36535D01*
X50991Y-36615D02*
X53807Y-36615D01*
X55664Y-36615D02*
X56034Y-36615D01*
X57891Y-36615D02*
X60707Y-36615D01*
X51024Y-36695D02*
X53773Y-36695D01*
X55697Y-36695D02*
X56000Y-36695D01*
X57924Y-36695D02*
X60673Y-36695D01*
X51029Y-36775D02*
X53768Y-36775D01*
X55702Y-36775D02*
X55995Y-36775D01*
X57929Y-36775D02*
X60668Y-36775D01*
X51029Y-36855D02*
X53768Y-36855D01*
X55702Y-36855D02*
X55995Y-36855D01*
X57929Y-36855D02*
X60668Y-36855D01*
X51029Y-36935D02*
X53768Y-36935D01*
X55702Y-36935D02*
X55995Y-36935D01*
X57929Y-36935D02*
X60668Y-36935D01*
X51029Y-37015D02*
X53768Y-37015D01*
X55702Y-37015D02*
X55995Y-37015D01*
X57929Y-37015D02*
X60668Y-37015D01*
X51028Y-37095D02*
X53769Y-37095D01*
X55701Y-37095D02*
X55996Y-37095D01*
X57928Y-37095D02*
X60669Y-37095D01*
X50995Y-37175D02*
X53802Y-37175D01*
X55668Y-37175D02*
X56029Y-37175D01*
X57895Y-37175D02*
X60702Y-37175D01*
X50961Y-37255D02*
X53835Y-37255D01*
X55634Y-37255D02*
X56062Y-37255D01*
X57861Y-37255D02*
X60735Y-37255D01*
X50928Y-37335D02*
X53868Y-37335D01*
X55601Y-37335D02*
X56095Y-37335D01*
X57828Y-37335D02*
X60768Y-37335D01*
X50895Y-37415D02*
X53901Y-37415D01*
X55568Y-37415D02*
X56128Y-37415D01*
X57795Y-37415D02*
X60801Y-37415D01*
X50834Y-37495D02*
X53962Y-37495D01*
X55507Y-37495D02*
X56189Y-37495D01*
X57734Y-37495D02*
X60862Y-37495D01*
X50754Y-37575D02*
X54042Y-37575D01*
X55427Y-37575D02*
X56269Y-37575D01*
X57654Y-37575D02*
X60942Y-37575D01*
X49375Y-37655D02*
X49449Y-37655D01*
X50674Y-37655D02*
X54122Y-37655D01*
X55347Y-37655D02*
X56349Y-37655D01*
X57574Y-37655D02*
X61022Y-37655D01*
X62247Y-37655D02*
X62325Y-37655D01*
X49375Y-37735D02*
X49550Y-37735D01*
X50572Y-37735D02*
X54223Y-37735D01*
X55245Y-37735D02*
X56450Y-37735D01*
X57472Y-37735D02*
X61123Y-37735D01*
X62145Y-37735D02*
X62325Y-37735D01*
X49375Y-37815D02*
X49743Y-37815D01*
X50379Y-37815D02*
X54416Y-37815D01*
X55052Y-37815D02*
X56643Y-37815D01*
X57279Y-37815D02*
X61316Y-37815D01*
X61952Y-37815D02*
X62325Y-37815D01*
X49375Y-37895D02*
X62325Y-37895D01*
X49375Y-37975D02*
X62325Y-37975D01*
X49375Y-38055D02*
X62325Y-38055D01*
X49375Y-38135D02*
X62325Y-38135D01*
X49375Y-38215D02*
X62325Y-38215D01*
X49375Y-38295D02*
X62325Y-38295D01*
X49375Y-38375D02*
X62325Y-38375D01*
X49375Y-38455D02*
X62325Y-38455D01*
X49375Y-38535D02*
X51633Y-38535D01*
X57568Y-38535D02*
X62325Y-38535D01*
X49375Y-38615D02*
X51525Y-38615D01*
X57675Y-38615D02*
X62325Y-38615D01*
X49375Y-38695D02*
X51445Y-38695D01*
X57755Y-38695D02*
X62325Y-38695D01*
X49375Y-38775D02*
X51365Y-38775D01*
X57835Y-38775D02*
X62325Y-38775D01*
X49375Y-38855D02*
X51285Y-38855D01*
X57915Y-38855D02*
X62325Y-38855D01*
X49375Y-38935D02*
X50852Y-38935D01*
X58349Y-38935D02*
X58752Y-38935D01*
X59349Y-38935D02*
X59752Y-38935D01*
X60349Y-38935D02*
X60573Y-38935D01*
X61527Y-38935D02*
X62325Y-38935D01*
X49375Y-39015D02*
X50766Y-39015D01*
X58434Y-39015D02*
X58666Y-39015D01*
X59434Y-39015D02*
X59666Y-39015D01*
X60434Y-39015D02*
X60523Y-39015D01*
X61578Y-39015D02*
X62325Y-39015D01*
X49375Y-39095D02*
X50688Y-39095D01*
X58513Y-39095D02*
X58588Y-39095D01*
X59513Y-39095D02*
X59588Y-39095D01*
X61594Y-39095D02*
X62325Y-39095D01*
X49375Y-39175D02*
X50655Y-39175D01*
X58546Y-39175D02*
X58555Y-39175D01*
X59546Y-39175D02*
X59555Y-39175D01*
X61664Y-39175D02*
X62325Y-39175D01*
X49375Y-39255D02*
X50622Y-39255D01*
X62035Y-39255D02*
X62325Y-39255D01*
X49375Y-39335D02*
X50606Y-39335D01*
X62128Y-39335D02*
X62325Y-39335D01*
X49375Y-39415D02*
X50606Y-39415D01*
X62259Y-39415D02*
X62325Y-39415D01*
X49375Y-39495D02*
X50606Y-39495D01*
X49375Y-39575D02*
X50633Y-39575D01*
X49375Y-39655D02*
X50667Y-39655D01*
X51632Y-39655D02*
X51666Y-39655D01*
X52632Y-39655D02*
X52666Y-39655D01*
X49375Y-39735D02*
X50716Y-39735D01*
X51584Y-39735D02*
X51716Y-39735D01*
X52584Y-39735D02*
X52716Y-39735D01*
X49375Y-39815D02*
X50796Y-39815D01*
X51504Y-39815D02*
X51796Y-39815D01*
X52504Y-39815D02*
X52796Y-39815D01*
X49375Y-39895D02*
X50449Y-39895D01*
X50852Y-39895D02*
X50923Y-39895D01*
X51376Y-39895D02*
X51449Y-39895D01*
X51852Y-39895D02*
X51923Y-39895D01*
X52376Y-39895D02*
X52449Y-39895D01*
X49375Y-39975D02*
X50306Y-39975D01*
X50994Y-39975D02*
X51306Y-39975D01*
X51994Y-39975D02*
X52306Y-39975D01*
X49375Y-40055D02*
X50226Y-40055D01*
X51074Y-40055D02*
X51226Y-40055D01*
X52074Y-40055D02*
X52226Y-40055D01*
X49375Y-40135D02*
X50172Y-40135D01*
X51130Y-40135D02*
X51171Y-40135D01*
X52130Y-40135D02*
X52171Y-40135D01*
X49375Y-40215D02*
X50138Y-40215D01*
X49375Y-40295D02*
X50106Y-40295D01*
X49375Y-40375D02*
X50106Y-40375D01*
X49375Y-40455D02*
X50106Y-40455D01*
X49375Y-40535D02*
X50117Y-40535D01*
X49375Y-40615D02*
X50150Y-40615D01*
X51149Y-40615D02*
X51150Y-40615D01*
X52149Y-40615D02*
X52150Y-40615D01*
X53148Y-40615D02*
X53149Y-40615D01*
X49375Y-40695D02*
X50183Y-40695D01*
X51116Y-40695D02*
X51183Y-40695D01*
X52116Y-40695D02*
X52183Y-40695D01*
X53116Y-40695D02*
X53183Y-40695D01*
X49375Y-40775D02*
X50256Y-40775D01*
X51044Y-40775D02*
X51256Y-40775D01*
X52044Y-40775D02*
X52256Y-40775D01*
X53044Y-40775D02*
X53256Y-40775D01*
X49375Y-40855D02*
X50336Y-40855D01*
X50964Y-40855D02*
X51336Y-40855D01*
X51964Y-40855D02*
X52336Y-40855D01*
X52964Y-40855D02*
X53336Y-40855D01*
X49375Y-40935D02*
X50520Y-40935D01*
X50779Y-40935D02*
X51520Y-40935D01*
X51779Y-40935D02*
X52520Y-40935D01*
X52779Y-40935D02*
X53520Y-40935D01*
X49375Y-41015D02*
X53855Y-41015D01*
X49375Y-41095D02*
X53959Y-41095D01*
X49375Y-41175D02*
X57792Y-41175D01*
X49375Y-41255D02*
X54100Y-41255D01*
X56739Y-41255D02*
X57775Y-41255D01*
X49375Y-41335D02*
X53999Y-41335D01*
X56839Y-41335D02*
X57775Y-41335D01*
X49375Y-41415D02*
X53919Y-41415D01*
X56919Y-41415D02*
X57787Y-41415D01*
X49375Y-41495D02*
X53839Y-41495D01*
X56999Y-41495D02*
X57728Y-41495D01*
X49375Y-41575D02*
X53759Y-41575D01*
X57079Y-41575D02*
X57687Y-41575D01*
X49375Y-41655D02*
X53679Y-41655D01*
X57159Y-41655D02*
X57676Y-41655D01*
X49375Y-41735D02*
X53599Y-41735D01*
X57239Y-41735D02*
X57676Y-41735D01*
X49375Y-41815D02*
X53519Y-41815D01*
X55604Y-41815D02*
X56499Y-41815D01*
X57319Y-41815D02*
X57676Y-41815D01*
X49375Y-41895D02*
X53371Y-41895D01*
X55604Y-41895D02*
X56579Y-41895D01*
X57399Y-41895D02*
X57676Y-41895D01*
X49375Y-41975D02*
X53199Y-41975D01*
X55604Y-41975D02*
X56659Y-41975D01*
X57479Y-41975D02*
X57676Y-41975D01*
X49375Y-42055D02*
X50686Y-42055D01*
X50975Y-42055D02*
X51317Y-42055D01*
X55604Y-42055D02*
X56739Y-42055D01*
X49375Y-42135D02*
X50525Y-42135D01*
X51136Y-42135D02*
X51232Y-42135D01*
X55604Y-42135D02*
X56819Y-42135D01*
X49375Y-42215D02*
X50445Y-42215D01*
X55604Y-42215D02*
X56899Y-42215D01*
X49375Y-42295D02*
X50390Y-42295D01*
X55604Y-42295D02*
X56979Y-42295D01*
X49375Y-42375D02*
X50357Y-42375D01*
X55604Y-42375D02*
X57059Y-42375D01*
X49375Y-42455D02*
X50331Y-42455D01*
X55582Y-42455D02*
X57139Y-42455D01*
X49375Y-42535D02*
X50331Y-42535D01*
X55526Y-42535D02*
X57227Y-42535D01*
X49375Y-42615D02*
X50331Y-42615D01*
X55524Y-42615D02*
X57676Y-42615D01*
X49375Y-42695D02*
X50356Y-42695D01*
X55524Y-42695D02*
X57676Y-42695D01*
X49375Y-42775D02*
X50389Y-42775D01*
X55524Y-42775D02*
X57676Y-42775D01*
X49375Y-42855D02*
X50444Y-42855D01*
X55524Y-42855D02*
X57699Y-42855D01*
X49375Y-42935D02*
X50524Y-42935D01*
X51135Y-42935D02*
X51166Y-42935D01*
X55524Y-42935D02*
X57758Y-42935D01*
X49375Y-43015D02*
X50685Y-43015D01*
X50974Y-43015D02*
X51166Y-43015D01*
X55496Y-43015D02*
X57910Y-43015D01*
X49375Y-43095D02*
X51166Y-43095D01*
X55431Y-43095D02*
X57910Y-43095D01*
X49375Y-43175D02*
X51166Y-43175D01*
X55646Y-43175D02*
X57910Y-43175D01*
X49375Y-43255D02*
X51166Y-43255D01*
X55817Y-43255D02*
X57910Y-43255D01*
X49375Y-43335D02*
X50818Y-43335D01*
X55897Y-43335D02*
X57910Y-43335D01*
X49375Y-43415D02*
X50710Y-43415D01*
X55945Y-43415D02*
X57843Y-43415D01*
X49375Y-43495D02*
X50630Y-43495D01*
X55978Y-43495D02*
X57728Y-43495D01*
X49375Y-43575D02*
X50550Y-43575D01*
X55986Y-43575D02*
X57687Y-43575D01*
X49375Y-43655D02*
X50470Y-43655D01*
X55986Y-43655D02*
X57676Y-43655D01*
X49375Y-43735D02*
X50390Y-43735D01*
X55965Y-43735D02*
X57676Y-43735D01*
X49375Y-43815D02*
X50310Y-43815D01*
X55931Y-43815D02*
X57676Y-43815D01*
X49375Y-43895D02*
X50230Y-43895D01*
X54571Y-43895D02*
X54665Y-43895D01*
X55867Y-43895D02*
X57676Y-43895D01*
X49375Y-43975D02*
X50150Y-43975D01*
X54491Y-43975D02*
X55356Y-43975D01*
X55766Y-43975D02*
X57676Y-43975D01*
X49375Y-44055D02*
X50032Y-44055D01*
X54332Y-44055D02*
X55428Y-44055D01*
X55844Y-44055D02*
X57678Y-44055D01*
X49375Y-44135D02*
X49952Y-44135D01*
X53442Y-44135D02*
X55329Y-44135D01*
X55943Y-44135D02*
X57711Y-44135D01*
X49375Y-44215D02*
X49909Y-44215D01*
X52787Y-44215D02*
X55265Y-44215D01*
X56642Y-44215D02*
X57758Y-44215D01*
X49375Y-44295D02*
X49876Y-44295D01*
X52688Y-44295D02*
X55232Y-44295D01*
X56701Y-44295D02*
X57699Y-44295D01*
X49375Y-44375D02*
X49870Y-44375D01*
X51324Y-44375D02*
X51351Y-44375D01*
X52649Y-44375D02*
X55211Y-44375D01*
X56724Y-44375D02*
X57676Y-44375D01*
X49375Y-44455D02*
X49870Y-44455D01*
X51291Y-44455D02*
X51374Y-44455D01*
X52626Y-44455D02*
X55211Y-44455D01*
X56724Y-44455D02*
X57676Y-44455D01*
X49375Y-44535D02*
X49893Y-44535D01*
X51258Y-44535D02*
X51433Y-44535D01*
X52567Y-44535D02*
X55220Y-44535D01*
X56724Y-44535D02*
X57676Y-44535D01*
X49375Y-44615D02*
X49926Y-44615D01*
X51185Y-44615D02*
X55252Y-44615D01*
X56724Y-44615D02*
X57676Y-44615D01*
X49375Y-44695D02*
X49996Y-44695D01*
X51095Y-44695D02*
X55301Y-44695D01*
X56724Y-44695D02*
X57676Y-44695D01*
X49375Y-44775D02*
X50106Y-44775D01*
X50483Y-44775D02*
X55381Y-44775D01*
X56724Y-44775D02*
X57676Y-44775D01*
X49375Y-44855D02*
X55698Y-44855D01*
X56701Y-44855D02*
X57699Y-44855D01*
X49375Y-44935D02*
X55758Y-44935D01*
X56642Y-44935D02*
X57758Y-44935D01*
X49375Y-45015D02*
X57775Y-45015D01*
X49375Y-45095D02*
X57775Y-45095D01*
X49375Y-45175D02*
X57775Y-45175D01*
X49375Y-45255D02*
X57804Y-45255D01*
X49375Y-45335D02*
X57836Y-45335D01*
X49375Y-45415D02*
X57914Y-45415D01*
X54362Y-41792D02*
X54478Y-41792D01*
X54282Y-41872D02*
X54478Y-41872D01*
X54202Y-41952D02*
X54478Y-41952D01*
X54122Y-42032D02*
X54478Y-42032D01*
X54042Y-42112D02*
X54478Y-42112D01*
X53962Y-42192D02*
X54478Y-42192D01*
X53882Y-42272D02*
X54478Y-42272D01*
X53880Y-42352D02*
X54478Y-42352D01*
X53868Y-42432D02*
X54489Y-42432D01*
X53835Y-42512D02*
X54476Y-42512D01*
X51746Y-42592D02*
X53126Y-42592D01*
X53784Y-42592D02*
X54476Y-42592D01*
X51746Y-42672D02*
X53206Y-42672D01*
X53704Y-42672D02*
X54476Y-42672D01*
X51746Y-42752D02*
X54476Y-42752D01*
X51746Y-42832D02*
X54476Y-42832D01*
X51746Y-42912D02*
X54476Y-42912D01*
X51746Y-42992D02*
X54493Y-42992D01*
X51746Y-43072D02*
X54545Y-43072D01*
X51746Y-43152D02*
X54521Y-43152D01*
X51746Y-43232D02*
X54434Y-43232D01*
X51746Y-43312D02*
X54335Y-43312D01*
X51746Y-43392D02*
X52581Y-43392D01*
X53419Y-43392D02*
X54255Y-43392D01*
X51746Y-43472D02*
X52509Y-43472D01*
X53491Y-43472D02*
X54175Y-43472D01*
X62325Y-45425D02*
X62325Y-40952D01*
X62316Y-40961D01*
X62224Y-40999D01*
X61575Y-40999D01*
X61484Y-40961D01*
X61414Y-40891D01*
X61396Y-40848D01*
X61371Y-40843D01*
X61277Y-40780D01*
X61187Y-40690D01*
X61018Y-40690D01*
X61011Y-40708D01*
X60858Y-40861D01*
X60658Y-40944D01*
X60442Y-40944D01*
X60423Y-40936D01*
X60315Y-41045D01*
X60221Y-41108D01*
X60110Y-41130D01*
X58589Y-41130D01*
X58625Y-41216D01*
X58625Y-41385D01*
X58604Y-41434D01*
X58616Y-41439D01*
X58686Y-41509D01*
X58724Y-41601D01*
X58724Y-41967D01*
X59176Y-41967D01*
X59176Y-41375D01*
X59214Y-41284D01*
X59284Y-41214D01*
X59376Y-41176D01*
X60025Y-41176D01*
X60116Y-41214D01*
X60186Y-41284D01*
X60224Y-41376D01*
X60224Y-41967D01*
X61176Y-41967D01*
X61176Y-41375D01*
X61214Y-41284D01*
X61284Y-41214D01*
X61376Y-41176D01*
X62025Y-41176D01*
X62116Y-41214D01*
X62186Y-41284D01*
X62224Y-41376D01*
X62224Y-42025D01*
X62186Y-42116D01*
X62135Y-42166D01*
X62191Y-42189D01*
X62261Y-42259D01*
X62299Y-42351D01*
X62299Y-43250D01*
X62261Y-43341D01*
X62191Y-43411D01*
X62099Y-43449D01*
X61400Y-43449D01*
X61309Y-43411D01*
X61239Y-43341D01*
X61201Y-43249D01*
X61201Y-42547D01*
X60999Y-42547D01*
X60999Y-43250D01*
X60961Y-43341D01*
X60891Y-43411D01*
X60875Y-43417D01*
X60875Y-43565D01*
X60810Y-43721D01*
X60690Y-43841D01*
X60534Y-43905D01*
X60365Y-43905D01*
X60209Y-43840D01*
X60089Y-43720D01*
X60025Y-43564D01*
X60025Y-43417D01*
X60009Y-43411D01*
X59939Y-43341D01*
X59901Y-43249D01*
X59901Y-42547D01*
X58724Y-42547D01*
X58724Y-42800D01*
X58686Y-42891D01*
X58616Y-42961D01*
X58524Y-42999D01*
X58490Y-42999D01*
X58490Y-43401D01*
X58525Y-43401D01*
X58616Y-43439D01*
X58686Y-43509D01*
X58724Y-43601D01*
X58724Y-44050D01*
X58686Y-44141D01*
X58627Y-44199D01*
X58686Y-44259D01*
X58724Y-44351D01*
X58724Y-44800D01*
X58686Y-44891D01*
X58616Y-44961D01*
X58604Y-44965D01*
X58625Y-45016D01*
X58625Y-45185D01*
X58560Y-45341D01*
X58475Y-45425D01*
X59223Y-45425D01*
X59214Y-45416D01*
X59176Y-45324D01*
X59176Y-44675D01*
X59214Y-44584D01*
X59284Y-44514D01*
X59376Y-44476D01*
X60025Y-44476D01*
X60116Y-44514D01*
X60186Y-44584D01*
X60224Y-44676D01*
X60224Y-45325D01*
X60186Y-45416D01*
X60177Y-45425D01*
X62325Y-45425D01*
X61018Y-40690D02*
X61187Y-40690D01*
X60949Y-40770D02*
X61267Y-40770D01*
X60869Y-40850D02*
X61396Y-40850D01*
X60691Y-40930D02*
X61453Y-40930D01*
X60349Y-41010D02*
X62325Y-41010D01*
X60247Y-41090D02*
X62325Y-41090D01*
X58606Y-41170D02*
X62325Y-41170D01*
X58625Y-41250D02*
X59248Y-41250D01*
X60152Y-41250D02*
X61248Y-41250D01*
X62152Y-41250D02*
X62325Y-41250D01*
X58625Y-41330D02*
X59195Y-41330D01*
X60205Y-41330D02*
X61195Y-41330D01*
X62205Y-41330D02*
X62325Y-41330D01*
X58614Y-41410D02*
X59176Y-41410D01*
X60224Y-41410D02*
X61176Y-41410D01*
X62224Y-41410D02*
X62325Y-41410D01*
X58667Y-41490D02*
X59176Y-41490D01*
X60224Y-41490D02*
X61176Y-41490D01*
X62224Y-41490D02*
X62325Y-41490D01*
X58712Y-41570D02*
X59176Y-41570D01*
X60224Y-41570D02*
X61176Y-41570D01*
X62224Y-41570D02*
X62325Y-41570D01*
X58724Y-41650D02*
X59176Y-41650D01*
X60224Y-41650D02*
X61176Y-41650D01*
X62224Y-41650D02*
X62325Y-41650D01*
X58724Y-41730D02*
X59176Y-41730D01*
X60224Y-41730D02*
X61176Y-41730D01*
X62224Y-41730D02*
X62325Y-41730D01*
X58724Y-41810D02*
X59176Y-41810D01*
X60224Y-41810D02*
X61176Y-41810D01*
X62224Y-41810D02*
X62325Y-41810D01*
X58724Y-41890D02*
X59176Y-41890D01*
X60224Y-41890D02*
X61176Y-41890D01*
X62224Y-41890D02*
X62325Y-41890D01*
X62224Y-41970D02*
X62325Y-41970D01*
X62213Y-42050D02*
X62325Y-42050D01*
X62171Y-42130D02*
X62325Y-42130D01*
X62212Y-42210D02*
X62325Y-42210D01*
X62274Y-42290D02*
X62325Y-42290D01*
X62299Y-42370D02*
X62325Y-42370D01*
X62299Y-42450D02*
X62325Y-42450D01*
X62299Y-42530D02*
X62325Y-42530D01*
X58724Y-42610D02*
X59901Y-42610D01*
X60999Y-42610D02*
X61201Y-42610D01*
X62299Y-42610D02*
X62325Y-42610D01*
X58724Y-42690D02*
X59901Y-42690D01*
X60999Y-42690D02*
X61201Y-42690D01*
X62299Y-42690D02*
X62325Y-42690D01*
X58724Y-42770D02*
X59901Y-42770D01*
X60999Y-42770D02*
X61201Y-42770D01*
X62299Y-42770D02*
X62325Y-42770D01*
X58703Y-42850D02*
X59901Y-42850D01*
X60999Y-42850D02*
X61201Y-42850D01*
X62299Y-42850D02*
X62325Y-42850D01*
X58647Y-42930D02*
X59901Y-42930D01*
X60999Y-42930D02*
X61201Y-42930D01*
X62299Y-42930D02*
X62325Y-42930D01*
X58490Y-43010D02*
X59901Y-43010D01*
X60999Y-43010D02*
X61201Y-43010D01*
X62299Y-43010D02*
X62325Y-43010D01*
X58490Y-43090D02*
X59901Y-43090D01*
X60999Y-43090D02*
X61201Y-43090D01*
X62299Y-43090D02*
X62325Y-43090D01*
X58490Y-43170D02*
X59901Y-43170D01*
X60999Y-43170D02*
X61201Y-43170D01*
X62299Y-43170D02*
X62325Y-43170D01*
X58490Y-43250D02*
X59901Y-43250D01*
X60999Y-43250D02*
X61201Y-43250D01*
X62299Y-43250D02*
X62325Y-43250D01*
X58490Y-43330D02*
X59934Y-43330D01*
X60965Y-43330D02*
X61234Y-43330D01*
X62265Y-43330D02*
X62325Y-43330D01*
X58547Y-43410D02*
X60008Y-43410D01*
X60892Y-43410D02*
X61308Y-43410D01*
X62192Y-43410D02*
X62325Y-43410D01*
X58667Y-43490D02*
X60025Y-43490D01*
X60875Y-43490D02*
X62325Y-43490D01*
X58712Y-43570D02*
X60027Y-43570D01*
X60872Y-43570D02*
X62325Y-43570D01*
X58724Y-43650D02*
X60060Y-43650D01*
X60839Y-43650D02*
X62325Y-43650D01*
X58724Y-43730D02*
X60099Y-43730D01*
X60801Y-43730D02*
X62325Y-43730D01*
X58724Y-43810D02*
X60179Y-43810D01*
X60721Y-43810D02*
X62325Y-43810D01*
X58724Y-43890D02*
X60329Y-43890D01*
X60570Y-43890D02*
X62325Y-43890D01*
X58724Y-43970D02*
X62325Y-43970D01*
X58724Y-44050D02*
X62325Y-44050D01*
X58690Y-44130D02*
X62325Y-44130D01*
X58638Y-44210D02*
X62325Y-44210D01*
X58699Y-44290D02*
X62325Y-44290D01*
X58724Y-44370D02*
X62325Y-44370D01*
X58724Y-44450D02*
X62325Y-44450D01*
X58724Y-44530D02*
X59268Y-44530D01*
X60132Y-44530D02*
X62325Y-44530D01*
X58724Y-44610D02*
X59204Y-44610D01*
X60197Y-44610D02*
X62325Y-44610D01*
X58724Y-44690D02*
X59176Y-44690D01*
X60224Y-44690D02*
X62325Y-44690D01*
X58724Y-44770D02*
X59176Y-44770D01*
X60224Y-44770D02*
X62325Y-44770D01*
X58703Y-44850D02*
X59176Y-44850D01*
X60224Y-44850D02*
X62325Y-44850D01*
X58647Y-44930D02*
X59176Y-44930D01*
X60224Y-44930D02*
X62325Y-44930D01*
X58623Y-45010D02*
X59176Y-45010D01*
X60224Y-45010D02*
X62325Y-45010D01*
X58625Y-45090D02*
X59176Y-45090D01*
X60224Y-45090D02*
X62325Y-45090D01*
X58625Y-45170D02*
X59176Y-45170D01*
X60224Y-45170D02*
X62325Y-45170D01*
X58597Y-45250D02*
X59176Y-45250D01*
X60224Y-45250D02*
X62325Y-45250D01*
X58564Y-45330D02*
X59178Y-45330D01*
X60221Y-45330D02*
X62325Y-45330D01*
X58490Y-45410D02*
X59211Y-45410D01*
X60188Y-45410D02*
X62325Y-45410D01*
X49375Y-33975D02*
X62325Y-33975D01*
X49375Y-34055D02*
X62325Y-34055D01*
X49375Y-34135D02*
X62325Y-34135D01*
X49375Y-34215D02*
X62325Y-34215D01*
X49375Y-34295D02*
X62325Y-34295D01*
X49375Y-34375D02*
X62325Y-34375D01*
X49375Y-34455D02*
X62325Y-34455D01*
X49375Y-34535D02*
X62325Y-34535D01*
X49375Y-34615D02*
X62325Y-34615D01*
X49375Y-34695D02*
X62325Y-34695D01*
X49375Y-34775D02*
X62325Y-34775D01*
X49375Y-34855D02*
X62325Y-34855D01*
X49375Y-34935D02*
X62325Y-34935D01*
X49375Y-35015D02*
X62325Y-35015D01*
X49375Y-35095D02*
X62325Y-35095D01*
X49375Y-35175D02*
X62325Y-35175D01*
X49375Y-35255D02*
X62325Y-35255D01*
X49375Y-35335D02*
X62325Y-35335D01*
X49375Y-35415D02*
X62325Y-35415D01*
X49375Y-35495D02*
X62325Y-35495D01*
X49375Y-35575D02*
X62325Y-35575D01*
X49375Y-35655D02*
X62325Y-35655D01*
X49375Y-35735D02*
X62325Y-35735D01*
X49375Y-35815D02*
X62325Y-35815D01*
X49375Y-35895D02*
X62325Y-35895D01*
X49375Y-35975D02*
X49769Y-35975D01*
X50357Y-35975D02*
X54442Y-35975D01*
X55030Y-35975D02*
X56669Y-35975D01*
X57257Y-35975D02*
X61342Y-35975D01*
X61930Y-35975D02*
X62325Y-35975D01*
X49375Y-36055D02*
X49576Y-36055D01*
X50550Y-36055D02*
X54249Y-36055D01*
X55223Y-36055D02*
X56476Y-36055D01*
X57450Y-36055D02*
X61149Y-36055D01*
X62123Y-36055D02*
X62325Y-36055D01*
X49375Y-36135D02*
X49460Y-36135D01*
X50665Y-36135D02*
X54133Y-36135D01*
X55338Y-36135D02*
X56360Y-36135D01*
X57565Y-36135D02*
X61033Y-36135D01*
X62238Y-36135D02*
X62325Y-36135D01*
X49375Y-36215D02*
X49380Y-36215D01*
X50745Y-36215D02*
X54053Y-36215D01*
X55418Y-36215D02*
X56280Y-36215D01*
X57645Y-36215D02*
X60953Y-36215D01*
X62318Y-36215D02*
X62325Y-36215D01*
X50825Y-36295D02*
X53973Y-36295D01*
X55498Y-36295D02*
X56200Y-36295D01*
X57725Y-36295D02*
X60873Y-36295D01*
X50892Y-36375D02*
X53906Y-36375D01*
X55565Y-36375D02*
X56133Y-36375D01*
X57792Y-36375D02*
X60806Y-36375D01*
X50925Y-36455D02*
X53873Y-36455D01*
X55598Y-36455D02*
X56100Y-36455D01*
X57825Y-36455D02*
X60773Y-36455D01*
X50958Y-36535D02*
X53840Y-36535D01*
X55631Y-36535D02*
X56067Y-36535D01*
X57858Y-36535D02*
X60740Y-36535D01*
X50991Y-36615D02*
X53807Y-36615D01*
X55664Y-36615D02*
X56034Y-36615D01*
X57891Y-36615D02*
X60707Y-36615D01*
X51024Y-36695D02*
X53773Y-36695D01*
X55697Y-36695D02*
X56000Y-36695D01*
X57924Y-36695D02*
X60673Y-36695D01*
X51029Y-36775D02*
X53768Y-36775D01*
X55702Y-36775D02*
X55995Y-36775D01*
X57929Y-36775D02*
X60668Y-36775D01*
X51029Y-36855D02*
X53768Y-36855D01*
X55702Y-36855D02*
X55995Y-36855D01*
X57929Y-36855D02*
X60668Y-36855D01*
X51029Y-36935D02*
X53768Y-36935D01*
X55702Y-36935D02*
X55995Y-36935D01*
X57929Y-36935D02*
X60668Y-36935D01*
X51029Y-37015D02*
X53768Y-37015D01*
X55702Y-37015D02*
X55995Y-37015D01*
X57929Y-37015D02*
X60668Y-37015D01*
X51028Y-37095D02*
X53769Y-37095D01*
X55701Y-37095D02*
X55996Y-37095D01*
X57928Y-37095D02*
X60669Y-37095D01*
X50995Y-37175D02*
X53802Y-37175D01*
X55668Y-37175D02*
X56029Y-37175D01*
X57895Y-37175D02*
X60702Y-37175D01*
X50961Y-37255D02*
X53835Y-37255D01*
X55634Y-37255D02*
X56062Y-37255D01*
X57861Y-37255D02*
X60735Y-37255D01*
X50928Y-37335D02*
X53868Y-37335D01*
X55601Y-37335D02*
X56095Y-37335D01*
X57828Y-37335D02*
X60768Y-37335D01*
X50895Y-37415D02*
X53901Y-37415D01*
X55568Y-37415D02*
X56128Y-37415D01*
X57795Y-37415D02*
X60801Y-37415D01*
X50834Y-37495D02*
X53962Y-37495D01*
X55507Y-37495D02*
X56189Y-37495D01*
X57734Y-37495D02*
X60862Y-37495D01*
X50754Y-37575D02*
X54042Y-37575D01*
X55427Y-37575D02*
X56269Y-37575D01*
X57654Y-37575D02*
X60942Y-37575D01*
X49375Y-37655D02*
X49449Y-37655D01*
X50674Y-37655D02*
X54122Y-37655D01*
X55347Y-37655D02*
X56349Y-37655D01*
X57574Y-37655D02*
X61022Y-37655D01*
X62247Y-37655D02*
X62325Y-37655D01*
X49375Y-37735D02*
X49550Y-37735D01*
X50572Y-37735D02*
X54223Y-37735D01*
X55245Y-37735D02*
X56450Y-37735D01*
X57472Y-37735D02*
X61123Y-37735D01*
X62145Y-37735D02*
X62325Y-37735D01*
X49375Y-37815D02*
X49743Y-37815D01*
X50379Y-37815D02*
X54416Y-37815D01*
X55052Y-37815D02*
X56643Y-37815D01*
X57279Y-37815D02*
X61316Y-37815D01*
X61952Y-37815D02*
X62325Y-37815D01*
X49375Y-37895D02*
X62325Y-37895D01*
X49375Y-37975D02*
X62325Y-37975D01*
X49375Y-38055D02*
X62325Y-38055D01*
X49375Y-38135D02*
X62325Y-38135D01*
X49375Y-38215D02*
X62325Y-38215D01*
X49375Y-38295D02*
X62325Y-38295D01*
X49375Y-38375D02*
X62325Y-38375D01*
X49375Y-38455D02*
X62325Y-38455D01*
X49375Y-38535D02*
X51633Y-38535D01*
X57568Y-38535D02*
X62325Y-38535D01*
X49375Y-38615D02*
X51525Y-38615D01*
X57675Y-38615D02*
X62325Y-38615D01*
X49375Y-38695D02*
X51445Y-38695D01*
X57755Y-38695D02*
X62325Y-38695D01*
X49375Y-38775D02*
X51365Y-38775D01*
X57835Y-38775D02*
X62325Y-38775D01*
X49375Y-38855D02*
X51285Y-38855D01*
X57915Y-38855D02*
X62325Y-38855D01*
X49375Y-38935D02*
X50852Y-38935D01*
X58349Y-38935D02*
X58752Y-38935D01*
X59349Y-38935D02*
X59752Y-38935D01*
X60349Y-38935D02*
X60573Y-38935D01*
X61527Y-38935D02*
X62325Y-38935D01*
X49375Y-39015D02*
X50766Y-39015D01*
X58434Y-39015D02*
X58666Y-39015D01*
X59434Y-39015D02*
X59666Y-39015D01*
X60434Y-39015D02*
X60523Y-39015D01*
X61578Y-39015D02*
X62325Y-39015D01*
X49375Y-39095D02*
X50688Y-39095D01*
X58513Y-39095D02*
X58588Y-39095D01*
X59513Y-39095D02*
X59588Y-39095D01*
X61594Y-39095D02*
X62325Y-39095D01*
X49375Y-39175D02*
X50655Y-39175D01*
X58546Y-39175D02*
X58555Y-39175D01*
X59546Y-39175D02*
X59555Y-39175D01*
X61664Y-39175D02*
X62325Y-39175D01*
X49375Y-39255D02*
X50622Y-39255D01*
X62035Y-39255D02*
X62325Y-39255D01*
X49375Y-39335D02*
X50606Y-39335D01*
X62128Y-39335D02*
X62325Y-39335D01*
X49375Y-39415D02*
X50606Y-39415D01*
X62259Y-39415D02*
X62325Y-39415D01*
X49375Y-39495D02*
X50606Y-39495D01*
X49375Y-39575D02*
X50633Y-39575D01*
X49375Y-39655D02*
X50667Y-39655D01*
X51632Y-39655D02*
X51666Y-39655D01*
X52632Y-39655D02*
X52666Y-39655D01*
X49375Y-39735D02*
X50716Y-39735D01*
X51584Y-39735D02*
X51716Y-39735D01*
X52584Y-39735D02*
X52716Y-39735D01*
X49375Y-39815D02*
X50796Y-39815D01*
X51504Y-39815D02*
X51796Y-39815D01*
X52504Y-39815D02*
X52796Y-39815D01*
X49375Y-39895D02*
X50449Y-39895D01*
X50852Y-39895D02*
X50923Y-39895D01*
X51376Y-39895D02*
X51449Y-39895D01*
X51852Y-39895D02*
X51923Y-39895D01*
X52376Y-39895D02*
X52449Y-39895D01*
X49375Y-39975D02*
X50306Y-39975D01*
X50994Y-39975D02*
X51306Y-39975D01*
X51994Y-39975D02*
X52306Y-39975D01*
X49375Y-40055D02*
X50226Y-40055D01*
X51074Y-40055D02*
X51226Y-40055D01*
X52074Y-40055D02*
X52226Y-40055D01*
X49375Y-40135D02*
X50172Y-40135D01*
X51130Y-40135D02*
X51171Y-40135D01*
X52130Y-40135D02*
X52171Y-40135D01*
X49375Y-40215D02*
X50138Y-40215D01*
X49375Y-40295D02*
X50106Y-40295D01*
X49375Y-40375D02*
X50106Y-40375D01*
X49375Y-40455D02*
X50106Y-40455D01*
X49375Y-40535D02*
X50117Y-40535D01*
X49375Y-40615D02*
X50150Y-40615D01*
X51149Y-40615D02*
X51150Y-40615D01*
X52149Y-40615D02*
X52150Y-40615D01*
X53148Y-40615D02*
X53149Y-40615D01*
X49375Y-40695D02*
X50183Y-40695D01*
X51116Y-40695D02*
X51183Y-40695D01*
X52116Y-40695D02*
X52183Y-40695D01*
X53116Y-40695D02*
X53183Y-40695D01*
X49375Y-40775D02*
X50256Y-40775D01*
X51044Y-40775D02*
X51256Y-40775D01*
X52044Y-40775D02*
X52256Y-40775D01*
X53044Y-40775D02*
X53256Y-40775D01*
X49375Y-40855D02*
X50336Y-40855D01*
X50964Y-40855D02*
X51336Y-40855D01*
X51964Y-40855D02*
X52336Y-40855D01*
X52964Y-40855D02*
X53336Y-40855D01*
X49375Y-40935D02*
X50520Y-40935D01*
X50779Y-40935D02*
X51520Y-40935D01*
X51779Y-40935D02*
X52520Y-40935D01*
X52779Y-40935D02*
X53520Y-40935D01*
X49375Y-41015D02*
X53855Y-41015D01*
X49375Y-41095D02*
X53959Y-41095D01*
X49375Y-41175D02*
X57792Y-41175D01*
X49375Y-41255D02*
X54100Y-41255D01*
X56739Y-41255D02*
X57775Y-41255D01*
X49375Y-41335D02*
X53999Y-41335D01*
X56839Y-41335D02*
X57775Y-41335D01*
X49375Y-41415D02*
X53919Y-41415D01*
X56919Y-41415D02*
X57787Y-41415D01*
X49375Y-41495D02*
X53839Y-41495D01*
X56999Y-41495D02*
X57728Y-41495D01*
X49375Y-41575D02*
X53759Y-41575D01*
X57079Y-41575D02*
X57687Y-41575D01*
X49375Y-41655D02*
X53679Y-41655D01*
X57159Y-41655D02*
X57676Y-41655D01*
X49375Y-41735D02*
X53599Y-41735D01*
X57239Y-41735D02*
X57676Y-41735D01*
X49375Y-41815D02*
X53519Y-41815D01*
X55604Y-41815D02*
X56499Y-41815D01*
X57319Y-41815D02*
X57676Y-41815D01*
X49375Y-41895D02*
X53371Y-41895D01*
X55604Y-41895D02*
X56579Y-41895D01*
X57399Y-41895D02*
X57676Y-41895D01*
X49375Y-41975D02*
X53199Y-41975D01*
X55604Y-41975D02*
X56659Y-41975D01*
X57479Y-41975D02*
X57676Y-41975D01*
X49375Y-42055D02*
X50686Y-42055D01*
X50975Y-42055D02*
X51317Y-42055D01*
X55604Y-42055D02*
X56739Y-42055D01*
X49375Y-42135D02*
X50525Y-42135D01*
X51136Y-42135D02*
X51232Y-42135D01*
X55604Y-42135D02*
X56819Y-42135D01*
X49375Y-42215D02*
X50445Y-42215D01*
X55604Y-42215D02*
X56899Y-42215D01*
X49375Y-42295D02*
X50390Y-42295D01*
X55604Y-42295D02*
X56979Y-42295D01*
X49375Y-42375D02*
X50357Y-42375D01*
X55604Y-42375D02*
X57059Y-42375D01*
X49375Y-42455D02*
X50331Y-42455D01*
X55582Y-42455D02*
X57139Y-42455D01*
X49375Y-42535D02*
X50331Y-42535D01*
X55526Y-42535D02*
X57227Y-42535D01*
X49375Y-42615D02*
X50331Y-42615D01*
X55524Y-42615D02*
X57676Y-42615D01*
X49375Y-42695D02*
X50356Y-42695D01*
X55524Y-42695D02*
X57676Y-42695D01*
X49375Y-42775D02*
X50389Y-42775D01*
X55524Y-42775D02*
X57676Y-42775D01*
X49375Y-42855D02*
X50444Y-42855D01*
X55524Y-42855D02*
X57699Y-42855D01*
X49375Y-42935D02*
X50524Y-42935D01*
X51135Y-42935D02*
X51166Y-42935D01*
X55524Y-42935D02*
X57758Y-42935D01*
X49375Y-43015D02*
X50685Y-43015D01*
X50974Y-43015D02*
X51166Y-43015D01*
X55496Y-43015D02*
X57910Y-43015D01*
X49375Y-43095D02*
X51166Y-43095D01*
X55431Y-43095D02*
X57910Y-43095D01*
X49375Y-43175D02*
X51166Y-43175D01*
X55646Y-43175D02*
X57910Y-43175D01*
X49375Y-43255D02*
X51166Y-43255D01*
X55817Y-43255D02*
X57910Y-43255D01*
X49375Y-43335D02*
X50818Y-43335D01*
X55897Y-43335D02*
X57910Y-43335D01*
X49375Y-43415D02*
X50710Y-43415D01*
X55945Y-43415D02*
X57843Y-43415D01*
X49375Y-43495D02*
X50630Y-43495D01*
X55978Y-43495D02*
X57728Y-43495D01*
X49375Y-43575D02*
X50550Y-43575D01*
X55986Y-43575D02*
X57687Y-43575D01*
X49375Y-43655D02*
X50470Y-43655D01*
X55986Y-43655D02*
X57676Y-43655D01*
X49375Y-43735D02*
X50390Y-43735D01*
X55965Y-43735D02*
X57676Y-43735D01*
X49375Y-43815D02*
X50310Y-43815D01*
X55931Y-43815D02*
X57676Y-43815D01*
X49375Y-43895D02*
X50230Y-43895D01*
X54571Y-43895D02*
X54665Y-43895D01*
X55867Y-43895D02*
X57676Y-43895D01*
X49375Y-43975D02*
X50150Y-43975D01*
X54491Y-43975D02*
X55356Y-43975D01*
X55766Y-43975D02*
X57676Y-43975D01*
X49375Y-44055D02*
X50032Y-44055D01*
X54332Y-44055D02*
X55428Y-44055D01*
X55844Y-44055D02*
X57678Y-44055D01*
X49375Y-44135D02*
X49952Y-44135D01*
X53442Y-44135D02*
X55329Y-44135D01*
X55943Y-44135D02*
X57711Y-44135D01*
X49375Y-44215D02*
X49909Y-44215D01*
X52787Y-44215D02*
X55265Y-44215D01*
X56642Y-44215D02*
X57758Y-44215D01*
X49375Y-44295D02*
X49876Y-44295D01*
X52688Y-44295D02*
X55232Y-44295D01*
X56701Y-44295D02*
X57699Y-44295D01*
X49375Y-44375D02*
X49870Y-44375D01*
X51324Y-44375D02*
X51351Y-44375D01*
X52649Y-44375D02*
X55211Y-44375D01*
X56724Y-44375D02*
X57676Y-44375D01*
X49375Y-44455D02*
X49870Y-44455D01*
X51291Y-44455D02*
X51374Y-44455D01*
X52626Y-44455D02*
X55211Y-44455D01*
X56724Y-44455D02*
X57676Y-44455D01*
X49375Y-44535D02*
X49893Y-44535D01*
X51258Y-44535D02*
X51433Y-44535D01*
X52567Y-44535D02*
X55220Y-44535D01*
X56724Y-44535D02*
X57676Y-44535D01*
X49375Y-44615D02*
X49926Y-44615D01*
X51185Y-44615D02*
X55252Y-44615D01*
X56724Y-44615D02*
X57676Y-44615D01*
X49375Y-44695D02*
X49996Y-44695D01*
X51095Y-44695D02*
X55301Y-44695D01*
X56724Y-44695D02*
X57676Y-44695D01*
X49375Y-44775D02*
X50106Y-44775D01*
X50483Y-44775D02*
X55381Y-44775D01*
X56724Y-44775D02*
X57676Y-44775D01*
X49375Y-44855D02*
X55698Y-44855D01*
X56701Y-44855D02*
X57699Y-44855D01*
X49375Y-44935D02*
X55758Y-44935D01*
X56642Y-44935D02*
X57758Y-44935D01*
X49375Y-45015D02*
X57775Y-45015D01*
X49375Y-45095D02*
X57775Y-45095D01*
X49375Y-45175D02*
X57775Y-45175D01*
X49375Y-45255D02*
X57804Y-45255D01*
X49375Y-45335D02*
X57836Y-45335D01*
X49375Y-45415D02*
X57914Y-45415D01*
X54362Y-41792D02*
X54478Y-41792D01*
X54282Y-41872D02*
X54478Y-41872D01*
X54202Y-41952D02*
X54478Y-41952D01*
X54122Y-42032D02*
X54478Y-42032D01*
X54042Y-42112D02*
X54478Y-42112D01*
X53962Y-42192D02*
X54478Y-42192D01*
X53882Y-42272D02*
X54478Y-42272D01*
X53880Y-42352D02*
X54478Y-42352D01*
X53868Y-42432D02*
X54489Y-42432D01*
X53835Y-42512D02*
X54476Y-42512D01*
X51746Y-42592D02*
X53126Y-42592D01*
X53784Y-42592D02*
X54476Y-42592D01*
X51746Y-42672D02*
X53206Y-42672D01*
X53704Y-42672D02*
X54476Y-42672D01*
X51746Y-42752D02*
X54476Y-42752D01*
X51746Y-42832D02*
X54476Y-42832D01*
X51746Y-42912D02*
X54476Y-42912D01*
X51746Y-42992D02*
X54493Y-42992D01*
X51746Y-43072D02*
X54545Y-43072D01*
X51746Y-43152D02*
X54521Y-43152D01*
X51746Y-43232D02*
X54434Y-43232D01*
X51746Y-43312D02*
X54335Y-43312D01*
X51746Y-43392D02*
X52581Y-43392D01*
X53419Y-43392D02*
X54255Y-43392D01*
X51746Y-43472D02*
X52509Y-43472D01*
X53491Y-43472D02*
X54175Y-43472D01*
X57924Y-45425D02*
X57839Y-45340D01*
X57775Y-45184D01*
X57775Y-45015D01*
X57795Y-44965D01*
X57784Y-44961D01*
X57714Y-44891D01*
X57676Y-44799D01*
X57676Y-44350D01*
X57714Y-44259D01*
X57773Y-44200D01*
X57714Y-44141D01*
X57676Y-44049D01*
X57676Y-43600D01*
X57714Y-43509D01*
X57784Y-43439D01*
X57876Y-43401D01*
X57910Y-43401D01*
X57910Y-42999D01*
X57875Y-42999D01*
X57784Y-42961D01*
X57714Y-42891D01*
X57676Y-42799D01*
X57676Y-42603D01*
X57407Y-42603D01*
X57296Y-42581D01*
X57202Y-42518D01*
X57201Y-42517D01*
X57201Y-42517D01*
X56476Y-41792D01*
X55604Y-41792D01*
X55604Y-42404D01*
X55566Y-42495D01*
X55524Y-42537D01*
X55524Y-42950D01*
X55486Y-43041D01*
X55427Y-43099D01*
X55486Y-43159D01*
X55492Y-43175D01*
X55646Y-43175D01*
X55802Y-43240D01*
X55922Y-43360D01*
X55986Y-43516D01*
X55986Y-43685D01*
X55921Y-43841D01*
X55801Y-43961D01*
X55696Y-44003D01*
X55721Y-44004D01*
X55877Y-44069D01*
X55959Y-44151D01*
X56525Y-44151D01*
X56616Y-44189D01*
X56686Y-44259D01*
X56724Y-44351D01*
X56724Y-44800D01*
X56686Y-44891D01*
X56616Y-44961D01*
X56524Y-44999D01*
X55875Y-44999D01*
X55784Y-44961D01*
X55714Y-44891D01*
X55698Y-44854D01*
X55551Y-44854D01*
X55395Y-44789D01*
X55275Y-44669D01*
X55211Y-44513D01*
X55211Y-44344D01*
X55276Y-44188D01*
X55396Y-44068D01*
X55500Y-44025D01*
X55476Y-44025D01*
X55320Y-43960D01*
X55259Y-43899D01*
X54675Y-43899D01*
X54599Y-43867D01*
X54487Y-43980D01*
X54393Y-44043D01*
X54282Y-44065D01*
X53496Y-44065D01*
X53486Y-44091D01*
X53416Y-44161D01*
X53324Y-44199D01*
X52798Y-44199D01*
X52787Y-44216D01*
X52748Y-44255D01*
X52654Y-44318D01*
X52649Y-44318D01*
X52649Y-44400D01*
X52611Y-44491D01*
X52541Y-44561D01*
X52449Y-44599D01*
X51550Y-44599D01*
X51459Y-44561D01*
X51389Y-44491D01*
X51351Y-44399D01*
X51351Y-44318D01*
X51346Y-44318D01*
X51329Y-44306D01*
X51329Y-44364D01*
X51253Y-44548D01*
X51112Y-44688D01*
X50929Y-44764D01*
X50731Y-44764D01*
X50585Y-44703D01*
X50535Y-44754D01*
X50379Y-44818D01*
X50210Y-44818D01*
X50054Y-44753D01*
X49934Y-44633D01*
X49870Y-44477D01*
X49870Y-44308D01*
X49935Y-44152D01*
X50055Y-44032D01*
X50121Y-44004D01*
X50735Y-43390D01*
X50830Y-43327D01*
X50941Y-43305D01*
X51166Y-43305D01*
X51166Y-42904D01*
X51112Y-42958D01*
X50929Y-43034D01*
X50731Y-43034D01*
X50547Y-42958D01*
X50407Y-42817D01*
X50331Y-42634D01*
X50331Y-42436D01*
X50407Y-42252D01*
X50548Y-42112D01*
X50731Y-42036D01*
X50929Y-42036D01*
X51113Y-42112D01*
X51192Y-42192D01*
X51251Y-42106D01*
X51273Y-42084D01*
X51367Y-42021D01*
X51478Y-41999D01*
X53175Y-41999D01*
X53215Y-41959D01*
X53371Y-41895D01*
X53439Y-41895D01*
X54036Y-41298D01*
X54036Y-41297D01*
X54037Y-41297D01*
X54131Y-41234D01*
X54242Y-41212D01*
X56596Y-41212D01*
X56707Y-41234D01*
X56801Y-41297D01*
X57527Y-42023D01*
X57676Y-42023D01*
X57676Y-41600D01*
X57714Y-41509D01*
X57784Y-41439D01*
X57795Y-41434D01*
X57775Y-41384D01*
X57775Y-41215D01*
X57810Y-41130D01*
X54090Y-41130D01*
X53979Y-41108D01*
X53884Y-41044D01*
X53776Y-40936D01*
X53758Y-40944D01*
X53542Y-40944D01*
X53342Y-40861D01*
X53189Y-40708D01*
X53149Y-40614D01*
X53111Y-40708D01*
X52958Y-40861D01*
X52758Y-40944D01*
X52542Y-40944D01*
X52342Y-40861D01*
X52189Y-40708D01*
X52150Y-40614D01*
X52111Y-40708D01*
X51958Y-40861D01*
X51758Y-40944D01*
X51542Y-40944D01*
X51342Y-40861D01*
X51189Y-40708D01*
X51150Y-40614D01*
X51111Y-40708D01*
X50958Y-40861D01*
X50758Y-40944D01*
X50542Y-40944D01*
X50342Y-40861D01*
X50189Y-40708D01*
X50106Y-40508D01*
X50106Y-40292D01*
X50189Y-40092D01*
X50342Y-39939D01*
X50542Y-39856D01*
X50758Y-39856D01*
X50958Y-39939D01*
X51111Y-40092D01*
X51150Y-40185D01*
X51189Y-40092D01*
X51342Y-39939D01*
X51542Y-39856D01*
X51758Y-39856D01*
X51958Y-39939D01*
X52111Y-40092D01*
X52150Y-40185D01*
X52189Y-40092D01*
X52342Y-39939D01*
X52542Y-39856D01*
X52758Y-39856D01*
X52776Y-39863D01*
X52810Y-39829D01*
X52689Y-39708D01*
X52649Y-39614D01*
X52611Y-39708D01*
X52458Y-39861D01*
X52258Y-39944D01*
X52042Y-39944D01*
X51842Y-39861D01*
X51689Y-39708D01*
X51649Y-39614D01*
X51611Y-39708D01*
X51458Y-39861D01*
X51258Y-39944D01*
X51042Y-39944D01*
X50842Y-39861D01*
X50689Y-39708D01*
X50606Y-39508D01*
X50606Y-39292D01*
X50689Y-39092D01*
X50842Y-38939D01*
X51042Y-38856D01*
X51258Y-38856D01*
X51276Y-38863D01*
X51550Y-38590D01*
X51644Y-38527D01*
X51755Y-38505D01*
X54542Y-38505D01*
X54542Y-37867D01*
X54187Y-37720D01*
X53915Y-37447D01*
X53768Y-37092D01*
X53768Y-36707D01*
X53915Y-36352D01*
X54188Y-36080D01*
X54543Y-35933D01*
X54928Y-35933D01*
X55283Y-36080D01*
X55555Y-36353D01*
X55702Y-36708D01*
X55702Y-37093D01*
X55555Y-37448D01*
X55282Y-37720D01*
X54927Y-37867D01*
X54542Y-37867D01*
X54542Y-38505D01*
X56769Y-38505D01*
X56769Y-37867D01*
X56414Y-37720D01*
X56142Y-37447D01*
X55995Y-37092D01*
X55995Y-36707D01*
X56142Y-36352D01*
X56415Y-36080D01*
X56770Y-35933D01*
X57155Y-35933D01*
X57510Y-36080D01*
X57782Y-36353D01*
X57929Y-36708D01*
X57929Y-37093D01*
X57782Y-37448D01*
X57509Y-37720D01*
X57154Y-37867D01*
X56769Y-37867D01*
X56769Y-38505D01*
X57445Y-38505D01*
X57556Y-38527D01*
X57650Y-38590D01*
X57923Y-38863D01*
X57942Y-38856D01*
X58158Y-38856D01*
X58358Y-38939D01*
X58511Y-39092D01*
X58550Y-39185D01*
X58589Y-39092D01*
X58742Y-38939D01*
X58942Y-38856D01*
X59158Y-38856D01*
X59358Y-38939D01*
X59511Y-39092D01*
X59550Y-39185D01*
X59589Y-39092D01*
X59742Y-38939D01*
X59942Y-38856D01*
X60158Y-38856D01*
X60358Y-38939D01*
X60506Y-39087D01*
X60506Y-39055D01*
X60544Y-38964D01*
X60614Y-38894D01*
X60706Y-38856D01*
X61395Y-38856D01*
X61486Y-38894D01*
X61556Y-38964D01*
X61594Y-39056D01*
X61594Y-39131D01*
X61599Y-39132D01*
X61693Y-39195D01*
X61715Y-39217D01*
X61900Y-39217D01*
X62011Y-39239D01*
X62105Y-39302D01*
X62168Y-39396D01*
X62168Y-39401D01*
X62225Y-39401D01*
X62316Y-39439D01*
X62325Y-39448D01*
X62325Y-37577D01*
X62182Y-37720D01*
X61827Y-37867D01*
X61442Y-37867D01*
X61087Y-37720D01*
X60815Y-37447D01*
X60668Y-37092D01*
X60668Y-36707D01*
X60815Y-36352D01*
X61088Y-36080D01*
X61443Y-35933D01*
X61828Y-35933D01*
X62183Y-36080D01*
X62325Y-36222D01*
X62325Y-33975D01*
X49375Y-33975D01*
X49375Y-36219D01*
X49515Y-36080D01*
X49870Y-35933D01*
X50255Y-35933D01*
X50610Y-36080D01*
X50882Y-36353D01*
X51029Y-36708D01*
X51029Y-37093D01*
X50882Y-37448D01*
X50609Y-37720D01*
X50254Y-37867D01*
X49869Y-37867D01*
X49514Y-37720D01*
X49375Y-37580D01*
X49375Y-45425D01*
X57924Y-45425D01*
X61018Y-40690D02*
X61187Y-40690D01*
X60949Y-40770D02*
X61267Y-40770D01*
X60869Y-40850D02*
X61396Y-40850D01*
X60691Y-40930D02*
X61453Y-40930D01*
X60349Y-41010D02*
X62325Y-41010D01*
X60247Y-41090D02*
X62325Y-41090D01*
X58606Y-41170D02*
X62325Y-41170D01*
X58625Y-41250D02*
X59248Y-41250D01*
X60152Y-41250D02*
X61248Y-41250D01*
X62152Y-41250D02*
X62325Y-41250D01*
X58625Y-41330D02*
X59195Y-41330D01*
X60205Y-41330D02*
X61195Y-41330D01*
X62205Y-41330D02*
X62325Y-41330D01*
X58614Y-41410D02*
X59176Y-41410D01*
X60224Y-41410D02*
X61176Y-41410D01*
X62224Y-41410D02*
X62325Y-41410D01*
X58667Y-41490D02*
X59176Y-41490D01*
X60224Y-41490D02*
X61176Y-41490D01*
X62224Y-41490D02*
X62325Y-41490D01*
X58712Y-41570D02*
X59176Y-41570D01*
X60224Y-41570D02*
X61176Y-41570D01*
X62224Y-41570D02*
X62325Y-41570D01*
X58724Y-41650D02*
X59176Y-41650D01*
X60224Y-41650D02*
X61176Y-41650D01*
X62224Y-41650D02*
X62325Y-41650D01*
X58724Y-41730D02*
X59176Y-41730D01*
X60224Y-41730D02*
X61176Y-41730D01*
X62224Y-41730D02*
X62325Y-41730D01*
X58724Y-41810D02*
X59176Y-41810D01*
X60224Y-41810D02*
X61176Y-41810D01*
X62224Y-41810D02*
X62325Y-41810D01*
X58724Y-41890D02*
X59176Y-41890D01*
X60224Y-41890D02*
X61176Y-41890D01*
X62224Y-41890D02*
X62325Y-41890D01*
X62224Y-41970D02*
X62325Y-41970D01*
X62213Y-42050D02*
X62325Y-42050D01*
X62171Y-42130D02*
X62325Y-42130D01*
X62212Y-42210D02*
X62325Y-42210D01*
X62274Y-42290D02*
X62325Y-42290D01*
X62299Y-42370D02*
X62325Y-42370D01*
X62299Y-42450D02*
X62325Y-42450D01*
X62299Y-42530D02*
X62325Y-42530D01*
X58724Y-42610D02*
X59901Y-42610D01*
X60999Y-42610D02*
X61201Y-42610D01*
X62299Y-42610D02*
X62325Y-42610D01*
X58724Y-42690D02*
X59901Y-42690D01*
X60999Y-42690D02*
X61201Y-42690D01*
X62299Y-42690D02*
X62325Y-42690D01*
X58724Y-42770D02*
X59901Y-42770D01*
X60999Y-42770D02*
X61201Y-42770D01*
X62299Y-42770D02*
X62325Y-42770D01*
X58703Y-42850D02*
X59901Y-42850D01*
X60999Y-42850D02*
X61201Y-42850D01*
X62299Y-42850D02*
X62325Y-42850D01*
X58647Y-42930D02*
X59901Y-42930D01*
X60999Y-42930D02*
X61201Y-42930D01*
X62299Y-42930D02*
X62325Y-42930D01*
X58490Y-43010D02*
X59901Y-43010D01*
X60999Y-43010D02*
X61201Y-43010D01*
X62299Y-43010D02*
X62325Y-43010D01*
X58490Y-43090D02*
X59901Y-43090D01*
X60999Y-43090D02*
X61201Y-43090D01*
X62299Y-43090D02*
X62325Y-43090D01*
X58490Y-43170D02*
X59901Y-43170D01*
X60999Y-43170D02*
X61201Y-43170D01*
X62299Y-43170D02*
X62325Y-43170D01*
X58490Y-43250D02*
X59901Y-43250D01*
X60999Y-43250D02*
X61201Y-43250D01*
X62299Y-43250D02*
X62325Y-43250D01*
X58490Y-43330D02*
X59934Y-43330D01*
X60965Y-43330D02*
X61234Y-43330D01*
X62265Y-43330D02*
X62325Y-43330D01*
X58547Y-43410D02*
X60008Y-43410D01*
X60892Y-43410D02*
X61308Y-43410D01*
X62192Y-43410D02*
X62325Y-43410D01*
X58667Y-43490D02*
X60025Y-43490D01*
X60875Y-43490D02*
X62325Y-43490D01*
X58712Y-43570D02*
X60027Y-43570D01*
X60872Y-43570D02*
X62325Y-43570D01*
X58724Y-43650D02*
X60060Y-43650D01*
X60839Y-43650D02*
X62325Y-43650D01*
X58724Y-43730D02*
X60099Y-43730D01*
X60801Y-43730D02*
X62325Y-43730D01*
X58724Y-43810D02*
X60179Y-43810D01*
X60721Y-43810D02*
X62325Y-43810D01*
X58724Y-43890D02*
X60329Y-43890D01*
X60570Y-43890D02*
X62325Y-43890D01*
X58724Y-43970D02*
X62325Y-43970D01*
X58724Y-44050D02*
X62325Y-44050D01*
X58690Y-44130D02*
X62325Y-44130D01*
X58638Y-44210D02*
X62325Y-44210D01*
X58699Y-44290D02*
X62325Y-44290D01*
X58724Y-44370D02*
X62325Y-44370D01*
X58724Y-44450D02*
X62325Y-44450D01*
X58724Y-44530D02*
X59268Y-44530D01*
X60132Y-44530D02*
X62325Y-44530D01*
X58724Y-44610D02*
X59204Y-44610D01*
X60197Y-44610D02*
X62325Y-44610D01*
X58724Y-44690D02*
X59176Y-44690D01*
X60224Y-44690D02*
X62325Y-44690D01*
X58724Y-44770D02*
X59176Y-44770D01*
X60224Y-44770D02*
X62325Y-44770D01*
X58703Y-44850D02*
X59176Y-44850D01*
X60224Y-44850D02*
X62325Y-44850D01*
X58647Y-44930D02*
X59176Y-44930D01*
X60224Y-44930D02*
X62325Y-44930D01*
X58623Y-45010D02*
X59176Y-45010D01*
X60224Y-45010D02*
X62325Y-45010D01*
X58625Y-45090D02*
X59176Y-45090D01*
X60224Y-45090D02*
X62325Y-45090D01*
X58625Y-45170D02*
X59176Y-45170D01*
X60224Y-45170D02*
X62325Y-45170D01*
X58597Y-45250D02*
X59176Y-45250D01*
X60224Y-45250D02*
X62325Y-45250D01*
X58564Y-45330D02*
X59178Y-45330D01*
X60221Y-45330D02*
X62325Y-45330D01*
X58490Y-45410D02*
X59211Y-45410D01*
X60188Y-45410D02*
X62325Y-45410D01*
X49375Y-33975D02*
X62325Y-33975D01*
X49375Y-34055D02*
X62325Y-34055D01*
X49375Y-34135D02*
X62325Y-34135D01*
X49375Y-34215D02*
X62325Y-34215D01*
X49375Y-34295D02*
X62325Y-34295D01*
X49375Y-34375D02*
X62325Y-34375D01*
X49375Y-34455D02*
X62325Y-34455D01*
X49375Y-34535D02*
X62325Y-34535D01*
X49375Y-34615D02*
X62325Y-34615D01*
X49375Y-34695D02*
X62325Y-34695D01*
X49375Y-34775D02*
X62325Y-34775D01*
X49375Y-34855D02*
X62325Y-34855D01*
X49375Y-34935D02*
X62325Y-34935D01*
X49375Y-35015D02*
X62325Y-35015D01*
X49375Y-35095D02*
X62325Y-35095D01*
X49375Y-35175D02*
X62325Y-35175D01*
X49375Y-35255D02*
X62325Y-35255D01*
X49375Y-35335D02*
X62325Y-35335D01*
X49375Y-35415D02*
X62325Y-35415D01*
X49375Y-35495D02*
X62325Y-35495D01*
X49375Y-35575D02*
X62325Y-35575D01*
X49375Y-35655D02*
X62325Y-35655D01*
X49375Y-35735D02*
X62325Y-35735D01*
X49375Y-35815D02*
X62325Y-35815D01*
X49375Y-35895D02*
X62325Y-35895D01*
X49375Y-35975D02*
X49769Y-35975D01*
X50357Y-35975D02*
X54442Y-35975D01*
X55030Y-35975D02*
X56669Y-35975D01*
X57257Y-35975D02*
X61342Y-35975D01*
X61930Y-35975D02*
X62325Y-35975D01*
X49375Y-36055D02*
X49576Y-36055D01*
X50550Y-36055D02*
X54249Y-36055D01*
X55223Y-36055D02*
X56476Y-36055D01*
X57450Y-36055D02*
X61149Y-36055D01*
X62123Y-36055D02*
X62325Y-36055D01*
X49375Y-36135D02*
X49460Y-36135D01*
X50665Y-36135D02*
X54133Y-36135D01*
X55338Y-36135D02*
X56360Y-36135D01*
X57565Y-36135D02*
X61033Y-36135D01*
X62238Y-36135D02*
X62325Y-36135D01*
X49375Y-36215D02*
X49380Y-36215D01*
X50745Y-36215D02*
X54053Y-36215D01*
X55418Y-36215D02*
X56280Y-36215D01*
X57645Y-36215D02*
X60953Y-36215D01*
X62318Y-36215D02*
X62325Y-36215D01*
X50825Y-36295D02*
X53973Y-36295D01*
X55498Y-36295D02*
X56200Y-36295D01*
X57725Y-36295D02*
X60873Y-36295D01*
X50892Y-36375D02*
X53906Y-36375D01*
X55565Y-36375D02*
X56133Y-36375D01*
X57792Y-36375D02*
X60806Y-36375D01*
X50925Y-36455D02*
X53873Y-36455D01*
X55598Y-36455D02*
X56100Y-36455D01*
X57825Y-36455D02*
X60773Y-36455D01*
X50958Y-36535D02*
X53840Y-36535D01*
X55631Y-36535D02*
X56067Y-36535D01*
X57858Y-36535D02*
X60740Y-36535D01*
X50991Y-36615D02*
X53807Y-36615D01*
X55664Y-36615D02*
X56034Y-36615D01*
X57891Y-36615D02*
X60707Y-36615D01*
X51024Y-36695D02*
X53773Y-36695D01*
X55697Y-36695D02*
X56000Y-36695D01*
X57924Y-36695D02*
X60673Y-36695D01*
X51029Y-36775D02*
X53768Y-36775D01*
X55702Y-36775D02*
X55995Y-36775D01*
X57929Y-36775D02*
X60668Y-36775D01*
X51029Y-36855D02*
X53768Y-36855D01*
X55702Y-36855D02*
X55995Y-36855D01*
X57929Y-36855D02*
X60668Y-36855D01*
X51029Y-36935D02*
X53768Y-36935D01*
X55702Y-36935D02*
X55995Y-36935D01*
X57929Y-36935D02*
X60668Y-36935D01*
X51029Y-37015D02*
X53768Y-37015D01*
X55702Y-37015D02*
X55995Y-37015D01*
X57929Y-37015D02*
X60668Y-37015D01*
X51028Y-37095D02*
X53769Y-37095D01*
X55701Y-37095D02*
X55996Y-37095D01*
X57928Y-37095D02*
X60669Y-37095D01*
X50995Y-37175D02*
X53802Y-37175D01*
X55668Y-37175D02*
X56029Y-37175D01*
X57895Y-37175D02*
X60702Y-37175D01*
X50961Y-37255D02*
X53835Y-37255D01*
X55634Y-37255D02*
X56062Y-37255D01*
X57861Y-37255D02*
X60735Y-37255D01*
X50928Y-37335D02*
X53868Y-37335D01*
X55601Y-37335D02*
X56095Y-37335D01*
X57828Y-37335D02*
X60768Y-37335D01*
X50895Y-37415D02*
X53901Y-37415D01*
X55568Y-37415D02*
X56128Y-37415D01*
X57795Y-37415D02*
X60801Y-37415D01*
X50834Y-37495D02*
X53962Y-37495D01*
X55507Y-37495D02*
X56189Y-37495D01*
X57734Y-37495D02*
X60862Y-37495D01*
X50754Y-37575D02*
X54042Y-37575D01*
X55427Y-37575D02*
X56269Y-37575D01*
X57654Y-37575D02*
X60942Y-37575D01*
X49375Y-37655D02*
X49449Y-37655D01*
X50674Y-37655D02*
X54122Y-37655D01*
X55347Y-37655D02*
X56349Y-37655D01*
X57574Y-37655D02*
X61022Y-37655D01*
X62247Y-37655D02*
X62325Y-37655D01*
X49375Y-37735D02*
X49550Y-37735D01*
X50572Y-37735D02*
X54223Y-37735D01*
X55245Y-37735D02*
X56450Y-37735D01*
X57472Y-37735D02*
X61123Y-37735D01*
X62145Y-37735D02*
X62325Y-37735D01*
X49375Y-37815D02*
X49743Y-37815D01*
X50379Y-37815D02*
X54416Y-37815D01*
X55052Y-37815D02*
X56643Y-37815D01*
X57279Y-37815D02*
X61316Y-37815D01*
X61952Y-37815D02*
X62325Y-37815D01*
X49375Y-37895D02*
X62325Y-37895D01*
X49375Y-37975D02*
X62325Y-37975D01*
X49375Y-38055D02*
X62325Y-38055D01*
X49375Y-38135D02*
X62325Y-38135D01*
X49375Y-38215D02*
X62325Y-38215D01*
X49375Y-38295D02*
X62325Y-38295D01*
X49375Y-38375D02*
X62325Y-38375D01*
X49375Y-38455D02*
X62325Y-38455D01*
X49375Y-38535D02*
X51633Y-38535D01*
X57568Y-38535D02*
X62325Y-38535D01*
X49375Y-38615D02*
X51525Y-38615D01*
X57675Y-38615D02*
X62325Y-38615D01*
X49375Y-38695D02*
X51445Y-38695D01*
X57755Y-38695D02*
X62325Y-38695D01*
X49375Y-38775D02*
X51365Y-38775D01*
X57835Y-38775D02*
X62325Y-38775D01*
X49375Y-38855D02*
X51285Y-38855D01*
X57915Y-38855D02*
X62325Y-38855D01*
X49375Y-38935D02*
X50852Y-38935D01*
X58349Y-38935D02*
X58752Y-38935D01*
X59349Y-38935D02*
X59752Y-38935D01*
X60349Y-38935D02*
X60573Y-38935D01*
X61527Y-38935D02*
X62325Y-38935D01*
X49375Y-39015D02*
X50766Y-39015D01*
X58434Y-39015D02*
X58666Y-39015D01*
X59434Y-39015D02*
X59666Y-39015D01*
X60434Y-39015D02*
X60523Y-39015D01*
X61578Y-39015D02*
X62325Y-39015D01*
X49375Y-39095D02*
X50688Y-39095D01*
X58513Y-39095D02*
X58588Y-39095D01*
X59513Y-39095D02*
X59588Y-39095D01*
X61594Y-39095D02*
X62325Y-39095D01*
X49375Y-39175D02*
X50655Y-39175D01*
X58546Y-39175D02*
X58555Y-39175D01*
X59546Y-39175D02*
X59555Y-39175D01*
X61664Y-39175D02*
X62325Y-39175D01*
X49375Y-39255D02*
X50622Y-39255D01*
X62035Y-39255D02*
X62325Y-39255D01*
X49375Y-39335D02*
X50606Y-39335D01*
X62128Y-39335D02*
X62325Y-39335D01*
X49375Y-39415D02*
X50606Y-39415D01*
X62259Y-39415D02*
X62325Y-39415D01*
X49375Y-39495D02*
X50606Y-39495D01*
X49375Y-39575D02*
X50633Y-39575D01*
X49375Y-39655D02*
X50667Y-39655D01*
X51632Y-39655D02*
X51666Y-39655D01*
X52632Y-39655D02*
X52666Y-39655D01*
X49375Y-39735D02*
X50716Y-39735D01*
X51584Y-39735D02*
X51716Y-39735D01*
X52584Y-39735D02*
X52716Y-39735D01*
X49375Y-39815D02*
X50796Y-39815D01*
X51504Y-39815D02*
X51796Y-39815D01*
X52504Y-39815D02*
X52796Y-39815D01*
X49375Y-39895D02*
X50449Y-39895D01*
X50852Y-39895D02*
X50923Y-39895D01*
X51376Y-39895D02*
X51449Y-39895D01*
X51852Y-39895D02*
X51923Y-39895D01*
X52376Y-39895D02*
X52449Y-39895D01*
X49375Y-39975D02*
X50306Y-39975D01*
X50994Y-39975D02*
X51306Y-39975D01*
X51994Y-39975D02*
X52306Y-39975D01*
X49375Y-40055D02*
X50226Y-40055D01*
X51074Y-40055D02*
X51226Y-40055D01*
X52074Y-40055D02*
X52226Y-40055D01*
X49375Y-40135D02*
X50172Y-40135D01*
X51130Y-40135D02*
X51171Y-40135D01*
X52130Y-40135D02*
X52171Y-40135D01*
X49375Y-40215D02*
X50138Y-40215D01*
X49375Y-40295D02*
X50106Y-40295D01*
X49375Y-40375D02*
X50106Y-40375D01*
X49375Y-40455D02*
X50106Y-40455D01*
X49375Y-40535D02*
X50117Y-40535D01*
X49375Y-40615D02*
X50150Y-40615D01*
X51149Y-40615D02*
X51150Y-40615D01*
X52149Y-40615D02*
X52150Y-40615D01*
X53148Y-40615D02*
X53149Y-40615D01*
X49375Y-40695D02*
X50183Y-40695D01*
X51116Y-40695D02*
X51183Y-40695D01*
X52116Y-40695D02*
X52183Y-40695D01*
X53116Y-40695D02*
X53183Y-40695D01*
X49375Y-40775D02*
X50256Y-40775D01*
X51044Y-40775D02*
X51256Y-40775D01*
X52044Y-40775D02*
X52256Y-40775D01*
X53044Y-40775D02*
X53256Y-40775D01*
X49375Y-40855D02*
X50336Y-40855D01*
X50964Y-40855D02*
X51336Y-40855D01*
X51964Y-40855D02*
X52336Y-40855D01*
X52964Y-40855D02*
X53336Y-40855D01*
X49375Y-40935D02*
X50520Y-40935D01*
X50779Y-40935D02*
X51520Y-40935D01*
X51779Y-40935D02*
X52520Y-40935D01*
X52779Y-40935D02*
X53520Y-40935D01*
X49375Y-41015D02*
X53855Y-41015D01*
X49375Y-41095D02*
X53959Y-41095D01*
X49375Y-41175D02*
X57792Y-41175D01*
X49375Y-41255D02*
X54100Y-41255D01*
X56739Y-41255D02*
X57775Y-41255D01*
X49375Y-41335D02*
X53999Y-41335D01*
X56839Y-41335D02*
X57775Y-41335D01*
X49375Y-41415D02*
X53919Y-41415D01*
X56919Y-41415D02*
X57787Y-41415D01*
X49375Y-41495D02*
X53839Y-41495D01*
X56999Y-41495D02*
X57728Y-41495D01*
X49375Y-41575D02*
X53759Y-41575D01*
X57079Y-41575D02*
X57687Y-41575D01*
X49375Y-41655D02*
X53679Y-41655D01*
X57159Y-41655D02*
X57676Y-41655D01*
X49375Y-41735D02*
X53599Y-41735D01*
X57239Y-41735D02*
X57676Y-41735D01*
X49375Y-41815D02*
X53519Y-41815D01*
X55604Y-41815D02*
X56499Y-41815D01*
X57319Y-41815D02*
X57676Y-41815D01*
X49375Y-41895D02*
X53371Y-41895D01*
X55604Y-41895D02*
X56579Y-41895D01*
X57399Y-41895D02*
X57676Y-41895D01*
X49375Y-41975D02*
X53199Y-41975D01*
X55604Y-41975D02*
X56659Y-41975D01*
X57479Y-41975D02*
X57676Y-41975D01*
X49375Y-42055D02*
X50686Y-42055D01*
X50975Y-42055D02*
X51317Y-42055D01*
X55604Y-42055D02*
X56739Y-42055D01*
X49375Y-42135D02*
X50525Y-42135D01*
X51136Y-42135D02*
X51232Y-42135D01*
X55604Y-42135D02*
X56819Y-42135D01*
X49375Y-42215D02*
X50445Y-42215D01*
X55604Y-42215D02*
X56899Y-42215D01*
X49375Y-42295D02*
X50390Y-42295D01*
X55604Y-42295D02*
X56979Y-42295D01*
X49375Y-42375D02*
X50357Y-42375D01*
X55604Y-42375D02*
X57059Y-42375D01*
X49375Y-42455D02*
X50331Y-42455D01*
X55582Y-42455D02*
X57139Y-42455D01*
X49375Y-42535D02*
X50331Y-42535D01*
X55526Y-42535D02*
X57227Y-42535D01*
X49375Y-42615D02*
X50331Y-42615D01*
X55524Y-42615D02*
X57676Y-42615D01*
X49375Y-42695D02*
X50356Y-42695D01*
X55524Y-42695D02*
X57676Y-42695D01*
X49375Y-42775D02*
X50389Y-42775D01*
X55524Y-42775D02*
X57676Y-42775D01*
X49375Y-42855D02*
X50444Y-42855D01*
X55524Y-42855D02*
X57699Y-42855D01*
X49375Y-42935D02*
X50524Y-42935D01*
X51135Y-42935D02*
X51166Y-42935D01*
X55524Y-42935D02*
X57758Y-42935D01*
X49375Y-43015D02*
X50685Y-43015D01*
X50974Y-43015D02*
X51166Y-43015D01*
X55496Y-43015D02*
X57910Y-43015D01*
X49375Y-43095D02*
X51166Y-43095D01*
X55431Y-43095D02*
X57910Y-43095D01*
X49375Y-43175D02*
X51166Y-43175D01*
X55646Y-43175D02*
X57910Y-43175D01*
X49375Y-43255D02*
X51166Y-43255D01*
X55817Y-43255D02*
X57910Y-43255D01*
X49375Y-43335D02*
X50818Y-43335D01*
X55897Y-43335D02*
X57910Y-43335D01*
X49375Y-43415D02*
X50710Y-43415D01*
X55945Y-43415D02*
X57843Y-43415D01*
X49375Y-43495D02*
X50630Y-43495D01*
X55978Y-43495D02*
X57728Y-43495D01*
X49375Y-43575D02*
X50550Y-43575D01*
X55986Y-43575D02*
X57687Y-43575D01*
X49375Y-43655D02*
X50470Y-43655D01*
X55986Y-43655D02*
X57676Y-43655D01*
X49375Y-43735D02*
X50390Y-43735D01*
X55965Y-43735D02*
X57676Y-43735D01*
X49375Y-43815D02*
X50310Y-43815D01*
X55931Y-43815D02*
X57676Y-43815D01*
X49375Y-43895D02*
X50230Y-43895D01*
X54571Y-43895D02*
X54665Y-43895D01*
X55867Y-43895D02*
X57676Y-43895D01*
X49375Y-43975D02*
X50150Y-43975D01*
X54491Y-43975D02*
X55356Y-43975D01*
X55766Y-43975D02*
X57676Y-43975D01*
X49375Y-44055D02*
X50032Y-44055D01*
X54332Y-44055D02*
X55428Y-44055D01*
X55844Y-44055D02*
X57678Y-44055D01*
X49375Y-44135D02*
X49952Y-44135D01*
X53442Y-44135D02*
X55329Y-44135D01*
X55943Y-44135D02*
X57711Y-44135D01*
X49375Y-44215D02*
X49909Y-44215D01*
X52787Y-44215D02*
X55265Y-44215D01*
X56642Y-44215D02*
X57758Y-44215D01*
X49375Y-44295D02*
X49876Y-44295D01*
X52688Y-44295D02*
X55232Y-44295D01*
X56701Y-44295D02*
X57699Y-44295D01*
X49375Y-44375D02*
X49870Y-44375D01*
X51324Y-44375D02*
X51351Y-44375D01*
X52649Y-44375D02*
X55211Y-44375D01*
X56724Y-44375D02*
X57676Y-44375D01*
X49375Y-44455D02*
X49870Y-44455D01*
X51291Y-44455D02*
X51374Y-44455D01*
X52626Y-44455D02*
X55211Y-44455D01*
X56724Y-44455D02*
X57676Y-44455D01*
X49375Y-44535D02*
X49893Y-44535D01*
X51258Y-44535D02*
X51433Y-44535D01*
X52567Y-44535D02*
X55220Y-44535D01*
X56724Y-44535D02*
X57676Y-44535D01*
X49375Y-44615D02*
X49926Y-44615D01*
X51185Y-44615D02*
X55252Y-44615D01*
X56724Y-44615D02*
X57676Y-44615D01*
X49375Y-44695D02*
X49996Y-44695D01*
X51095Y-44695D02*
X55301Y-44695D01*
X56724Y-44695D02*
X57676Y-44695D01*
X49375Y-44775D02*
X50106Y-44775D01*
X50483Y-44775D02*
X55381Y-44775D01*
X56724Y-44775D02*
X57676Y-44775D01*
X49375Y-44855D02*
X55698Y-44855D01*
X56701Y-44855D02*
X57699Y-44855D01*
X49375Y-44935D02*
X55758Y-44935D01*
X56642Y-44935D02*
X57758Y-44935D01*
X49375Y-45015D02*
X57775Y-45015D01*
X49375Y-45095D02*
X57775Y-45095D01*
X49375Y-45175D02*
X57775Y-45175D01*
X49375Y-45255D02*
X57804Y-45255D01*
X49375Y-45335D02*
X57836Y-45335D01*
X49375Y-45415D02*
X57914Y-45415D01*
X54362Y-41792D02*
X54478Y-41792D01*
X54282Y-41872D02*
X54478Y-41872D01*
X54202Y-41952D02*
X54478Y-41952D01*
X54122Y-42032D02*
X54478Y-42032D01*
X54042Y-42112D02*
X54478Y-42112D01*
X53962Y-42192D02*
X54478Y-42192D01*
X53882Y-42272D02*
X54478Y-42272D01*
X53880Y-42352D02*
X54478Y-42352D01*
X53868Y-42432D02*
X54489Y-42432D01*
X53835Y-42512D02*
X54476Y-42512D01*
X51746Y-42592D02*
X53126Y-42592D01*
X53784Y-42592D02*
X54476Y-42592D01*
X51746Y-42672D02*
X53206Y-42672D01*
X53704Y-42672D02*
X54476Y-42672D01*
X51746Y-42752D02*
X54476Y-42752D01*
X51746Y-42832D02*
X54476Y-42832D01*
X51746Y-42912D02*
X54476Y-42912D01*
X51746Y-42992D02*
X54493Y-42992D01*
X51746Y-43072D02*
X54545Y-43072D01*
X51746Y-43152D02*
X54521Y-43152D01*
X51746Y-43232D02*
X54434Y-43232D01*
X51746Y-43312D02*
X54335Y-43312D01*
X51746Y-43392D02*
X52581Y-43392D01*
X53419Y-43392D02*
X54255Y-43392D01*
X51746Y-43472D02*
X52509Y-43472D01*
X53491Y-43472D02*
X54175Y-43472D01*
X52468Y-43508D02*
X52471Y-43507D01*
X52496Y-43502D01*
X52514Y-43459D01*
X52584Y-43389D01*
X52676Y-43351D01*
X53325Y-43351D01*
X53416Y-43389D01*
X53486Y-43459D01*
X53496Y-43485D01*
X54161Y-43485D01*
X54377Y-43270D01*
X54471Y-43207D01*
X54496Y-43202D01*
X54514Y-43159D01*
X54573Y-43100D01*
X54514Y-43041D01*
X54476Y-42949D01*
X54476Y-42500D01*
X54497Y-42449D01*
X54478Y-42403D01*
X54478Y-41792D01*
X54362Y-41792D01*
X53880Y-42274D01*
X53880Y-42405D01*
X53815Y-42561D01*
X53695Y-42681D01*
X53539Y-42745D01*
X53370Y-42745D01*
X53214Y-42680D01*
X53113Y-42579D01*
X51746Y-42579D01*
X51746Y-43501D01*
X52450Y-43501D01*
X52468Y-43508D01*
M02*
