G04 (created by PCBNEW-RS274X (2011-07-08)-stable) date Wed 10 Aug 2011 06:35:13 PM EDT*
G01*
G70*
G90*
%MOIN*%
G04 Gerber Fmt 3.4, Leading zero omitted, Abs format*
%FSLAX34Y34*%
G04 APERTURE LIST*
%ADD10C,0.006000*%
%ADD11R,0.062900X0.070900*%
%ADD12C,0.143700*%
%ADD13R,0.059100X0.059100*%
%ADD14C,0.059100*%
%ADD15R,0.055000X0.055000*%
%ADD16R,0.055000X0.035000*%
%ADD17R,0.060000X0.080000*%
%ADD18R,0.080000X0.060000*%
%ADD19C,0.050000*%
%ADD20R,0.025000X0.045000*%
%ADD21C,0.035000*%
%ADD22C,0.008000*%
%ADD23C,0.010000*%
G04 APERTURE END LIST*
G54D10*
G54D11*
X55041Y-42000D03*
X56159Y-42000D03*
G54D12*
X56962Y-36900D03*
X61635Y-36900D03*
G54D13*
X61050Y-39400D03*
G54D14*
X60550Y-40400D03*
X60050Y-39400D03*
X59550Y-40400D03*
X59050Y-39400D03*
X58550Y-40400D03*
X58050Y-39400D03*
X57550Y-40400D03*
G54D12*
X50062Y-36900D03*
X54735Y-36900D03*
G54D13*
X54150Y-39400D03*
G54D14*
X53650Y-40400D03*
X53150Y-39400D03*
X52650Y-40400D03*
X52150Y-39400D03*
X51650Y-40400D03*
X51150Y-39400D03*
X50650Y-40400D03*
G54D15*
X61700Y-41700D03*
X61700Y-45000D03*
G54D16*
X58200Y-43825D03*
X58200Y-44575D03*
X58200Y-42575D03*
X58200Y-41825D03*
X55000Y-42725D03*
X55000Y-43475D03*
X56200Y-44575D03*
X56200Y-43825D03*
X53000Y-43775D03*
X53000Y-43025D03*
G54D17*
X61750Y-42800D03*
X60450Y-42800D03*
G54D18*
X52000Y-44050D03*
X52000Y-42750D03*
G54D19*
X50830Y-44265D03*
X50830Y-42535D03*
G54D15*
X59700Y-41700D03*
X59700Y-45000D03*
G54D16*
X61900Y-40575D03*
X61900Y-39825D03*
G54D20*
X50700Y-45000D03*
X51300Y-45000D03*
G54D21*
X52700Y-42500D03*
X58200Y-45100D03*
X58200Y-41300D03*
X55636Y-44429D03*
X50200Y-44400D03*
X60450Y-43480D03*
X55561Y-43600D03*
X53455Y-42320D03*
G54D22*
X56159Y-42000D02*
X56159Y-42498D01*
X56200Y-43825D02*
X56200Y-43507D01*
X60425Y-44143D02*
X56200Y-44143D01*
X61282Y-45000D02*
X60425Y-44143D01*
X61700Y-45000D02*
X61282Y-45000D01*
X56200Y-43825D02*
X56200Y-44143D01*
X52582Y-42789D02*
X52543Y-42750D01*
X52582Y-43025D02*
X52582Y-42789D01*
X52000Y-42750D02*
X52543Y-42750D01*
X53000Y-43025D02*
X52582Y-43025D01*
X55808Y-42849D02*
X56159Y-42498D01*
X55808Y-43115D02*
X55808Y-42849D01*
X56200Y-43507D02*
X55808Y-43115D01*
X55041Y-42684D02*
X55000Y-42725D01*
X55041Y-42000D02*
X55041Y-42684D01*
X61595Y-39507D02*
X61900Y-39507D01*
X61488Y-39400D02*
X61595Y-39507D01*
X61050Y-39400D02*
X61488Y-39400D01*
X61900Y-39825D02*
X61900Y-39507D01*
X57445Y-38795D02*
X58050Y-39400D01*
X51755Y-38795D02*
X57445Y-38795D01*
X51150Y-39400D02*
X51755Y-38795D01*
X59110Y-39960D02*
X59550Y-40400D01*
X53090Y-39960D02*
X59110Y-39960D01*
X52650Y-40400D02*
X53090Y-39960D01*
X58200Y-44575D02*
X58200Y-45100D01*
X58200Y-41825D02*
X58200Y-41300D01*
X56200Y-44575D02*
X55782Y-44575D01*
X55782Y-44575D02*
X55636Y-44429D01*
X50700Y-44900D02*
X50700Y-45000D01*
X50200Y-44400D02*
X50700Y-44900D01*
X60450Y-42800D02*
X60450Y-43480D01*
X61900Y-40575D02*
X61482Y-40575D01*
X61307Y-40400D02*
X61482Y-40575D01*
X60550Y-40400D02*
X61307Y-40400D01*
X54090Y-40840D02*
X53650Y-40400D01*
X60110Y-40840D02*
X54090Y-40840D01*
X60550Y-40400D02*
X60110Y-40840D01*
X53455Y-42320D02*
X53455Y-43775D01*
X53400Y-43800D02*
X53400Y-43775D01*
X53430Y-43800D02*
X53400Y-43800D01*
X53455Y-43775D02*
X53430Y-43800D01*
X51300Y-45000D02*
X51300Y-44750D01*
X51300Y-44750D02*
X52000Y-44050D01*
X61750Y-42800D02*
X61750Y-42257D01*
X61650Y-42257D02*
X61700Y-42207D01*
X58200Y-42257D02*
X61650Y-42257D01*
X61750Y-42257D02*
X61700Y-42207D01*
X61700Y-42207D02*
X61700Y-41700D01*
X58200Y-43825D02*
X58200Y-42575D01*
X58200Y-42575D02*
X58200Y-42331D01*
X58200Y-42331D02*
X58200Y-42313D01*
X58200Y-42313D02*
X58200Y-42257D01*
X52582Y-44011D02*
X52582Y-43775D01*
X52543Y-44050D02*
X52582Y-44011D01*
X52000Y-44050D02*
X52543Y-44050D01*
X53000Y-43775D02*
X52582Y-43775D01*
X54282Y-43775D02*
X54582Y-43475D01*
X55000Y-43475D02*
X54582Y-43475D01*
X53400Y-43775D02*
X54282Y-43775D01*
X53000Y-43775D02*
X53400Y-43775D01*
X55543Y-43600D02*
X55561Y-43600D01*
X55418Y-43475D02*
X55543Y-43600D01*
X55000Y-43475D02*
X55418Y-43475D01*
X54242Y-41502D02*
X53455Y-42289D01*
X56596Y-41502D02*
X54242Y-41502D01*
X57407Y-42313D02*
X56596Y-41502D01*
X58200Y-42313D02*
X57407Y-42313D01*
X53455Y-42289D02*
X53455Y-42320D01*
G54D23*
X55604Y-41792D02*
X56476Y-41792D01*
X55604Y-41872D02*
X56556Y-41872D01*
X55604Y-41952D02*
X56636Y-41952D01*
X55604Y-42032D02*
X56716Y-42032D01*
X55604Y-42112D02*
X56796Y-42112D01*
X55604Y-42192D02*
X56876Y-42192D01*
X55604Y-42272D02*
X56956Y-42272D01*
X55604Y-42352D02*
X57036Y-42352D01*
X55593Y-42432D02*
X57116Y-42432D01*
X55549Y-42512D02*
X57196Y-42512D01*
X55524Y-42592D02*
X57354Y-42592D01*
X55524Y-42672D02*
X57676Y-42672D01*
X55524Y-42752D02*
X57676Y-42752D01*
X55524Y-42832D02*
X57690Y-42832D01*
X55524Y-42912D02*
X57735Y-42912D01*
X55507Y-42992D02*
X57859Y-42992D01*
X55455Y-43072D02*
X57910Y-43072D01*
X55479Y-43152D02*
X57910Y-43152D01*
X55782Y-43232D02*
X57910Y-43232D01*
X55874Y-43312D02*
X57910Y-43312D01*
X55935Y-43392D02*
X57910Y-43392D01*
X55967Y-43472D02*
X57751Y-43472D01*
X55986Y-43552D02*
X57696Y-43552D01*
X55986Y-43632D02*
X57676Y-43632D01*
X55975Y-43712D02*
X57676Y-43712D01*
X55942Y-43792D02*
X57676Y-43792D01*
X54595Y-43872D02*
X54611Y-43872D01*
X55890Y-43872D02*
X57676Y-43872D01*
X54515Y-43952D02*
X55312Y-43952D01*
X55810Y-43952D02*
X57676Y-43952D01*
X54410Y-44032D02*
X55483Y-44032D01*
X55788Y-44032D02*
X57676Y-44032D01*
X53465Y-44112D02*
X55352Y-44112D01*
X55920Y-44112D02*
X57703Y-44112D01*
X53341Y-44192D02*
X55274Y-44192D01*
X56619Y-44192D02*
X57765Y-44192D01*
X52723Y-44272D02*
X55241Y-44272D01*
X56691Y-44272D02*
X57708Y-44272D01*
X52649Y-44352D02*
X55211Y-44352D01*
X56724Y-44352D02*
X57676Y-44352D01*
X52636Y-44432D02*
X55211Y-44432D01*
X56724Y-44432D02*
X57676Y-44432D01*
X52590Y-44512D02*
X55211Y-44512D01*
X56724Y-44512D02*
X57676Y-44512D01*
X52466Y-44592D02*
X55244Y-44592D01*
X56724Y-44592D02*
X57676Y-44592D01*
X51788Y-44672D02*
X55278Y-44672D01*
X56724Y-44672D02*
X57676Y-44672D01*
X51708Y-44752D02*
X55358Y-44752D01*
X56724Y-44752D02*
X57676Y-44752D01*
X51674Y-44832D02*
X55499Y-44832D01*
X56711Y-44832D02*
X57690Y-44832D01*
X51674Y-44912D02*
X55735Y-44912D01*
X56665Y-44912D02*
X57735Y-44912D01*
X51674Y-44992D02*
X55859Y-44992D01*
X56541Y-44992D02*
X57784Y-44992D01*
X51674Y-45072D02*
X57775Y-45072D01*
X51674Y-45152D02*
X57775Y-45152D01*
X51674Y-45232D02*
X57795Y-45232D01*
X51659Y-45312D02*
X57828Y-45312D01*
X49425Y-34025D02*
X62275Y-34025D01*
X49425Y-34105D02*
X62275Y-34105D01*
X49425Y-34185D02*
X62275Y-34185D01*
X49425Y-34265D02*
X62275Y-34265D01*
X49425Y-34345D02*
X62275Y-34345D01*
X49425Y-34425D02*
X62275Y-34425D01*
X49425Y-34505D02*
X62275Y-34505D01*
X49425Y-34585D02*
X62275Y-34585D01*
X49425Y-34665D02*
X62275Y-34665D01*
X49425Y-34745D02*
X62275Y-34745D01*
X49425Y-34825D02*
X62275Y-34825D01*
X49425Y-34905D02*
X62275Y-34905D01*
X49425Y-34985D02*
X62275Y-34985D01*
X49425Y-35065D02*
X62275Y-35065D01*
X49425Y-35145D02*
X62275Y-35145D01*
X49425Y-35225D02*
X62275Y-35225D01*
X49425Y-35305D02*
X62275Y-35305D01*
X49425Y-35385D02*
X62275Y-35385D01*
X49425Y-35465D02*
X62275Y-35465D01*
X49425Y-35545D02*
X62275Y-35545D01*
X49425Y-35625D02*
X62275Y-35625D01*
X49425Y-35705D02*
X62275Y-35705D01*
X49425Y-35785D02*
X62275Y-35785D01*
X49425Y-35865D02*
X62275Y-35865D01*
X49425Y-35945D02*
X49841Y-35945D01*
X50283Y-35945D02*
X54514Y-35945D01*
X54956Y-35945D02*
X56741Y-35945D01*
X57183Y-35945D02*
X61414Y-35945D01*
X61856Y-35945D02*
X62275Y-35945D01*
X49425Y-36025D02*
X49647Y-36025D01*
X50477Y-36025D02*
X54320Y-36025D01*
X55150Y-36025D02*
X56547Y-36025D01*
X57377Y-36025D02*
X61220Y-36025D01*
X62050Y-36025D02*
X62275Y-36025D01*
X49425Y-36105D02*
X49489Y-36105D01*
X50634Y-36105D02*
X54162Y-36105D01*
X55307Y-36105D02*
X56389Y-36105D01*
X57534Y-36105D02*
X61062Y-36105D01*
X62208Y-36105D02*
X62275Y-36105D01*
X50714Y-36185D02*
X54082Y-36185D01*
X55387Y-36185D02*
X56309Y-36185D01*
X57614Y-36185D02*
X60982Y-36185D01*
X50794Y-36265D02*
X54002Y-36265D01*
X55467Y-36265D02*
X56229Y-36265D01*
X57694Y-36265D02*
X60902Y-36265D01*
X50874Y-36345D02*
X53922Y-36345D01*
X55547Y-36345D02*
X56149Y-36345D01*
X57774Y-36345D02*
X60822Y-36345D01*
X50911Y-36425D02*
X53884Y-36425D01*
X55584Y-36425D02*
X56111Y-36425D01*
X57811Y-36425D02*
X60784Y-36425D01*
X50944Y-36505D02*
X53851Y-36505D01*
X55617Y-36505D02*
X56078Y-36505D01*
X57844Y-36505D02*
X60751Y-36505D01*
X50978Y-36585D02*
X53818Y-36585D01*
X55651Y-36585D02*
X56045Y-36585D01*
X57878Y-36585D02*
X60718Y-36585D01*
X51011Y-36665D02*
X53785Y-36665D01*
X55684Y-36665D02*
X56012Y-36665D01*
X57911Y-36665D02*
X60685Y-36665D01*
X51029Y-36745D02*
X53768Y-36745D01*
X55702Y-36745D02*
X55995Y-36745D01*
X57929Y-36745D02*
X60668Y-36745D01*
X51029Y-36825D02*
X53768Y-36825D01*
X55702Y-36825D02*
X55995Y-36825D01*
X57929Y-36825D02*
X60668Y-36825D01*
X51029Y-36905D02*
X53768Y-36905D01*
X55702Y-36905D02*
X55995Y-36905D01*
X57929Y-36905D02*
X60668Y-36905D01*
X51029Y-36985D02*
X53768Y-36985D01*
X55702Y-36985D02*
X55995Y-36985D01*
X57929Y-36985D02*
X60668Y-36985D01*
X51029Y-37065D02*
X53768Y-37065D01*
X55702Y-37065D02*
X55995Y-37065D01*
X57929Y-37065D02*
X60668Y-37065D01*
X51008Y-37145D02*
X53790Y-37145D01*
X55681Y-37145D02*
X55702Y-37145D01*
X55702Y-37145D02*
X56017Y-37145D01*
X57908Y-37145D02*
X57929Y-37145D01*
X57929Y-37145D02*
X60690Y-37145D01*
X50975Y-37225D02*
X53824Y-37225D01*
X55648Y-37225D02*
X55702Y-37225D01*
X55702Y-37225D02*
X56051Y-37225D01*
X57875Y-37225D02*
X57929Y-37225D01*
X57929Y-37225D02*
X60724Y-37225D01*
X50942Y-37305D02*
X53857Y-37305D01*
X55615Y-37305D02*
X55702Y-37305D01*
X55702Y-37305D02*
X56084Y-37305D01*
X57842Y-37305D02*
X57929Y-37305D01*
X57929Y-37305D02*
X60757Y-37305D01*
X50909Y-37385D02*
X53890Y-37385D01*
X55582Y-37385D02*
X55702Y-37385D01*
X55702Y-37385D02*
X56117Y-37385D01*
X57809Y-37385D02*
X57929Y-37385D01*
X57929Y-37385D02*
X60790Y-37385D01*
X50865Y-37465D02*
X53933Y-37465D01*
X55538Y-37465D02*
X55702Y-37465D01*
X55702Y-37465D02*
X56160Y-37465D01*
X57765Y-37465D02*
X57929Y-37465D01*
X57929Y-37465D02*
X60833Y-37465D01*
X50785Y-37545D02*
X54013Y-37545D01*
X55458Y-37545D02*
X55702Y-37545D01*
X55702Y-37545D02*
X56240Y-37545D01*
X57685Y-37545D02*
X57929Y-37545D01*
X57929Y-37545D02*
X60913Y-37545D01*
X50705Y-37625D02*
X54093Y-37625D01*
X55378Y-37625D02*
X55702Y-37625D01*
X55702Y-37625D02*
X56320Y-37625D01*
X57605Y-37625D02*
X57929Y-37625D01*
X57929Y-37625D02*
X60993Y-37625D01*
X49425Y-37705D02*
X49500Y-37705D01*
X50625Y-37705D02*
X54173Y-37705D01*
X55298Y-37705D02*
X55702Y-37705D01*
X55702Y-37705D02*
X56400Y-37705D01*
X57525Y-37705D02*
X57929Y-37705D01*
X57929Y-37705D02*
X61073Y-37705D01*
X62197Y-37705D02*
X62275Y-37705D01*
X49425Y-37785D02*
X49671Y-37785D01*
X50453Y-37785D02*
X54344Y-37785D01*
X55126Y-37785D02*
X55702Y-37785D01*
X55702Y-37785D02*
X56571Y-37785D01*
X57353Y-37785D02*
X57929Y-37785D01*
X57929Y-37785D02*
X61244Y-37785D01*
X62026Y-37785D02*
X62275Y-37785D01*
X49425Y-37865D02*
X49865Y-37865D01*
X50259Y-37865D02*
X54538Y-37865D01*
X54932Y-37865D02*
X55702Y-37865D01*
X55702Y-37865D02*
X56765Y-37865D01*
X57159Y-37865D02*
X57929Y-37865D01*
X57929Y-37865D02*
X61438Y-37865D01*
X61832Y-37865D02*
X62275Y-37865D01*
X49425Y-37945D02*
X55702Y-37945D01*
X55702Y-37945D02*
X57929Y-37945D01*
X57929Y-37945D02*
X62275Y-37945D01*
X49425Y-38025D02*
X55702Y-38025D01*
X55702Y-38025D02*
X57929Y-38025D01*
X57929Y-38025D02*
X62275Y-38025D01*
X49425Y-38105D02*
X55702Y-38105D01*
X55702Y-38105D02*
X57929Y-38105D01*
X57929Y-38105D02*
X62275Y-38105D01*
X49425Y-38185D02*
X55702Y-38185D01*
X55702Y-38185D02*
X57929Y-38185D01*
X57929Y-38185D02*
X62275Y-38185D01*
X49425Y-38265D02*
X55702Y-38265D01*
X55702Y-38265D02*
X57929Y-38265D01*
X57929Y-38265D02*
X62275Y-38265D01*
X49425Y-38345D02*
X55702Y-38345D01*
X55702Y-38345D02*
X57929Y-38345D01*
X57929Y-38345D02*
X62275Y-38345D01*
X49425Y-38425D02*
X55702Y-38425D01*
X55702Y-38425D02*
X57929Y-38425D01*
X57929Y-38425D02*
X62275Y-38425D01*
X49425Y-38505D02*
X51755Y-38505D01*
X57445Y-38505D02*
X57929Y-38505D01*
X57929Y-38505D02*
X62275Y-38505D01*
X49425Y-38585D02*
X51557Y-38585D01*
X57642Y-38585D02*
X57929Y-38585D01*
X57929Y-38585D02*
X62275Y-38585D01*
X49425Y-38665D02*
X51474Y-38665D01*
X57725Y-38665D02*
X57929Y-38665D01*
X57929Y-38665D02*
X62275Y-38665D01*
X49425Y-38745D02*
X51394Y-38745D01*
X57805Y-38745D02*
X57929Y-38745D01*
X57929Y-38745D02*
X62275Y-38745D01*
X49425Y-38825D02*
X51314Y-38825D01*
X57885Y-38825D02*
X57929Y-38825D01*
X57929Y-38825D02*
X62275Y-38825D01*
X49425Y-38905D02*
X50923Y-38905D01*
X58276Y-38905D02*
X58823Y-38905D01*
X59276Y-38905D02*
X59823Y-38905D01*
X60276Y-38905D02*
X60603Y-38905D01*
X61497Y-38905D02*
X62275Y-38905D01*
X49425Y-38985D02*
X50796Y-38985D01*
X58404Y-38985D02*
X58696Y-38985D01*
X59404Y-38985D02*
X59696Y-38985D01*
X60404Y-38985D02*
X60535Y-38985D01*
X61564Y-38985D02*
X62275Y-38985D01*
X49425Y-39065D02*
X50716Y-39065D01*
X58484Y-39065D02*
X58616Y-39065D01*
X59484Y-39065D02*
X59616Y-39065D01*
X60484Y-39065D02*
X60506Y-39065D01*
X61594Y-39065D02*
X62275Y-39065D01*
X49425Y-39145D02*
X50667Y-39145D01*
X58533Y-39145D02*
X58566Y-39145D01*
X59533Y-39145D02*
X59566Y-39145D01*
X61618Y-39145D02*
X62275Y-39145D01*
X49425Y-39225D02*
X50633Y-39225D01*
X61940Y-39225D02*
X62275Y-39225D01*
X49425Y-39305D02*
X50606Y-39305D01*
X62107Y-39305D02*
X62275Y-39305D01*
X49425Y-39385D02*
X50606Y-39385D01*
X62160Y-39385D02*
X62275Y-39385D01*
X49425Y-39465D02*
X50606Y-39465D01*
X49425Y-39545D02*
X50622Y-39545D01*
X49425Y-39625D02*
X50655Y-39625D01*
X51646Y-39625D02*
X51655Y-39625D01*
X52646Y-39625D02*
X52655Y-39625D01*
X49425Y-39705D02*
X50688Y-39705D01*
X51613Y-39705D02*
X51688Y-39705D01*
X52613Y-39705D02*
X52688Y-39705D01*
X49425Y-39785D02*
X50766Y-39785D01*
X51534Y-39785D02*
X51766Y-39785D01*
X52534Y-39785D02*
X52766Y-39785D01*
X49425Y-39865D02*
X50520Y-39865D01*
X50779Y-39865D02*
X50852Y-39865D01*
X51449Y-39865D02*
X51520Y-39865D01*
X51779Y-39865D02*
X51852Y-39865D01*
X52449Y-39865D02*
X52520Y-39865D01*
X49425Y-39945D02*
X50336Y-39945D01*
X50964Y-39945D02*
X51336Y-39945D01*
X51964Y-39945D02*
X52336Y-39945D01*
X49425Y-40025D02*
X50256Y-40025D01*
X51044Y-40025D02*
X51256Y-40025D01*
X52044Y-40025D02*
X52256Y-40025D01*
X49425Y-40105D02*
X50183Y-40105D01*
X51116Y-40105D02*
X51183Y-40105D01*
X52116Y-40105D02*
X52183Y-40105D01*
X49425Y-40185D02*
X50150Y-40185D01*
X49425Y-40265D02*
X50117Y-40265D01*
X49425Y-40345D02*
X50106Y-40345D01*
X49425Y-40425D02*
X50106Y-40425D01*
X49425Y-40505D02*
X50106Y-40505D01*
X49425Y-40585D02*
X50138Y-40585D01*
X49425Y-40665D02*
X50172Y-40665D01*
X51129Y-40665D02*
X51172Y-40665D01*
X52129Y-40665D02*
X52172Y-40665D01*
X53129Y-40665D02*
X53172Y-40665D01*
X49425Y-40745D02*
X50226Y-40745D01*
X51074Y-40745D02*
X51226Y-40745D01*
X52074Y-40745D02*
X52226Y-40745D01*
X53074Y-40745D02*
X53226Y-40745D01*
X49425Y-40825D02*
X50306Y-40825D01*
X50994Y-40825D02*
X51306Y-40825D01*
X51994Y-40825D02*
X52306Y-40825D01*
X52994Y-40825D02*
X53306Y-40825D01*
X49425Y-40905D02*
X50449Y-40905D01*
X50852Y-40905D02*
X51449Y-40905D01*
X51852Y-40905D02*
X52449Y-40905D01*
X52852Y-40905D02*
X53449Y-40905D01*
X49425Y-40985D02*
X53825Y-40985D01*
X49425Y-41065D02*
X53915Y-41065D01*
X49425Y-41145D02*
X57803Y-41145D01*
X49425Y-41225D02*
X54176Y-41225D01*
X56661Y-41225D02*
X57775Y-41225D01*
X49425Y-41305D02*
X54029Y-41305D01*
X56809Y-41305D02*
X57775Y-41305D01*
X49425Y-41385D02*
X53949Y-41385D01*
X56889Y-41385D02*
X57776Y-41385D01*
X49425Y-41465D02*
X53869Y-41465D01*
X56969Y-41465D02*
X57758Y-41465D01*
X49425Y-41545D02*
X53789Y-41545D01*
X57049Y-41545D02*
X57698Y-41545D01*
X49425Y-41625D02*
X53709Y-41625D01*
X57129Y-41625D02*
X57676Y-41625D01*
X49425Y-41705D02*
X53629Y-41705D01*
X57209Y-41705D02*
X57676Y-41705D01*
X49425Y-41785D02*
X53549Y-41785D01*
X57289Y-41785D02*
X57676Y-41785D01*
X49425Y-41865D02*
X53469Y-41865D01*
X57369Y-41865D02*
X57676Y-41865D01*
X49425Y-41945D02*
X53249Y-41945D01*
X57449Y-41945D02*
X57676Y-41945D01*
X49425Y-42025D02*
X53149Y-42025D01*
X49425Y-42105D02*
X50564Y-42105D01*
X51096Y-42105D02*
X53084Y-42105D01*
X49425Y-42185D02*
X50474Y-42185D01*
X51185Y-42185D02*
X53050Y-42185D01*
X49425Y-42265D02*
X50401Y-42265D01*
X51257Y-42265D02*
X53030Y-42265D01*
X49425Y-42345D02*
X50368Y-42345D01*
X51291Y-42345D02*
X53030Y-42345D01*
X49425Y-42425D02*
X50335Y-42425D01*
X51324Y-42425D02*
X53039Y-42425D01*
X49425Y-42505D02*
X50331Y-42505D01*
X51329Y-42505D02*
X53072Y-42505D01*
X49425Y-42585D02*
X50331Y-42585D01*
X51329Y-42585D02*
X53119Y-42585D01*
X49425Y-42665D02*
X50344Y-42665D01*
X51317Y-42665D02*
X51329Y-42665D01*
X51329Y-42665D02*
X53165Y-42665D01*
X49425Y-42745D02*
X50378Y-42745D01*
X51284Y-42745D02*
X51329Y-42745D01*
X51329Y-42745D02*
X53165Y-42745D01*
X49425Y-42825D02*
X50415Y-42825D01*
X51246Y-42825D02*
X51329Y-42825D01*
X51329Y-42825D02*
X53165Y-42825D01*
X49425Y-42905D02*
X50495Y-42905D01*
X51166Y-42905D02*
X51329Y-42905D01*
X51329Y-42905D02*
X53165Y-42905D01*
X49425Y-42985D02*
X50613Y-42985D01*
X51047Y-42985D02*
X51329Y-42985D01*
X51329Y-42985D02*
X53165Y-42985D01*
X49425Y-43065D02*
X51329Y-43065D01*
X51329Y-43065D02*
X53165Y-43065D01*
X49425Y-43145D02*
X51329Y-43145D01*
X51329Y-43145D02*
X53165Y-43145D01*
X49425Y-43225D02*
X51329Y-43225D01*
X51329Y-43225D02*
X53165Y-43225D01*
X49425Y-43305D02*
X51329Y-43305D01*
X51329Y-43305D02*
X53165Y-43305D01*
X49425Y-43385D02*
X51329Y-43385D01*
X51329Y-43385D02*
X52593Y-43385D01*
X49425Y-43465D02*
X51329Y-43465D01*
X51329Y-43465D02*
X52511Y-43465D01*
X49425Y-43545D02*
X51329Y-43545D01*
X51329Y-43545D02*
X51453Y-43545D01*
X49425Y-43625D02*
X51329Y-43625D01*
X51329Y-43625D02*
X51382Y-43625D01*
X49425Y-43705D02*
X51329Y-43705D01*
X51329Y-43705D02*
X51351Y-43705D01*
X49425Y-43785D02*
X50685Y-43785D01*
X50975Y-43785D02*
X51329Y-43785D01*
X51329Y-43785D02*
X51351Y-43785D01*
X49425Y-43865D02*
X50524Y-43865D01*
X51135Y-43865D02*
X51329Y-43865D01*
X51329Y-43865D02*
X51351Y-43865D01*
X49425Y-43945D02*
X50444Y-43945D01*
X51215Y-43945D02*
X51329Y-43945D01*
X51329Y-43945D02*
X51351Y-43945D01*
X49425Y-44025D02*
X49994Y-44025D01*
X51270Y-44025D02*
X51329Y-44025D01*
X51329Y-44025D02*
X51351Y-44025D01*
X49425Y-44105D02*
X49894Y-44105D01*
X51303Y-44105D02*
X51329Y-44105D01*
X51329Y-44105D02*
X51351Y-44105D01*
X49425Y-44185D02*
X49829Y-44185D01*
X51329Y-44185D02*
X51351Y-44185D01*
X49425Y-44265D02*
X49795Y-44265D01*
X51329Y-44265D02*
X51351Y-44265D01*
X49425Y-44345D02*
X49775Y-44345D01*
X49425Y-44425D02*
X49775Y-44425D01*
X49425Y-44505D02*
X49784Y-44505D01*
X49425Y-44585D02*
X49817Y-44585D01*
X49425Y-44665D02*
X49864Y-44665D01*
X49425Y-44745D02*
X49944Y-44745D01*
X49425Y-44825D02*
X50215Y-44825D01*
X49425Y-44905D02*
X50295Y-44905D01*
X49425Y-44985D02*
X50326Y-44985D01*
X49425Y-45065D02*
X50326Y-45065D01*
X49425Y-45145D02*
X50326Y-45145D01*
X49425Y-45225D02*
X50326Y-45225D01*
X49425Y-45305D02*
X50339Y-45305D01*
X58724Y-42547D02*
X59901Y-42547D01*
X60999Y-42547D02*
X61201Y-42547D01*
X58724Y-42627D02*
X59901Y-42627D01*
X60999Y-42627D02*
X61201Y-42627D01*
X58724Y-42707D02*
X59901Y-42707D01*
X60999Y-42707D02*
X61201Y-42707D01*
X58724Y-42787D02*
X59901Y-42787D01*
X60999Y-42787D02*
X61201Y-42787D01*
X58697Y-42867D02*
X59901Y-42867D01*
X60999Y-42867D02*
X61201Y-42867D01*
X58630Y-42947D02*
X59901Y-42947D01*
X60999Y-42947D02*
X61201Y-42947D01*
X58490Y-43027D02*
X59901Y-43027D01*
X60999Y-43027D02*
X61201Y-43027D01*
X58490Y-43107D02*
X59901Y-43107D01*
X60999Y-43107D02*
X61201Y-43107D01*
X58490Y-43187D02*
X59901Y-43187D01*
X60999Y-43187D02*
X61201Y-43187D01*
X58490Y-43267D02*
X59909Y-43267D01*
X60992Y-43267D02*
X61209Y-43267D01*
X58490Y-43347D02*
X59945Y-43347D01*
X60955Y-43347D02*
X61245Y-43347D01*
X62255Y-43347D02*
X62275Y-43347D01*
X58587Y-43427D02*
X60025Y-43427D01*
X60875Y-43427D02*
X61348Y-43427D01*
X62153Y-43427D02*
X62275Y-43427D01*
X58684Y-43507D02*
X60025Y-43507D01*
X60875Y-43507D02*
X62275Y-43507D01*
X58718Y-43587D02*
X60035Y-43587D01*
X60866Y-43587D02*
X62275Y-43587D01*
X58724Y-43667D02*
X60068Y-43667D01*
X60833Y-43667D02*
X62275Y-43667D01*
X58724Y-43747D02*
X60116Y-43747D01*
X60784Y-43747D02*
X62275Y-43747D01*
X58724Y-43827D02*
X60196Y-43827D01*
X60704Y-43827D02*
X62275Y-43827D01*
X58724Y-43907D02*
X62275Y-43907D01*
X58724Y-43987D02*
X62275Y-43987D01*
X58717Y-44067D02*
X62275Y-44067D01*
X58680Y-44147D02*
X62275Y-44147D01*
X58654Y-44227D02*
X62275Y-44227D01*
X58705Y-44307D02*
X62275Y-44307D01*
X58724Y-44387D02*
X62275Y-44387D01*
X58724Y-44467D02*
X62275Y-44467D01*
X58724Y-44547D02*
X59251Y-44547D01*
X60149Y-44547D02*
X62275Y-44547D01*
X58724Y-44627D02*
X59196Y-44627D01*
X60203Y-44627D02*
X62275Y-44627D01*
X58724Y-44707D02*
X59176Y-44707D01*
X60224Y-44707D02*
X62275Y-44707D01*
X58724Y-44787D02*
X59176Y-44787D01*
X60224Y-44787D02*
X62275Y-44787D01*
X58697Y-44867D02*
X59176Y-44867D01*
X60224Y-44867D02*
X62275Y-44867D01*
X58630Y-44947D02*
X59176Y-44947D01*
X60224Y-44947D02*
X62275Y-44947D01*
X58625Y-45027D02*
X59176Y-45027D01*
X60224Y-45027D02*
X62275Y-45027D01*
X58625Y-45107D02*
X59176Y-45107D01*
X60224Y-45107D02*
X62275Y-45107D01*
X58625Y-45187D02*
X59176Y-45187D01*
X60224Y-45187D02*
X62275Y-45187D01*
X58591Y-45267D02*
X59176Y-45267D01*
X60224Y-45267D02*
X62275Y-45267D01*
X58554Y-45347D02*
X59186Y-45347D01*
X60215Y-45347D02*
X62275Y-45347D01*
X57910Y-43401D02*
X57876Y-43401D01*
X57784Y-43439D01*
X57714Y-43509D01*
X57676Y-43600D01*
X57676Y-43699D01*
X57676Y-44049D01*
X57714Y-44141D01*
X57773Y-44200D01*
X57714Y-44259D01*
X57676Y-44350D01*
X57676Y-44449D01*
X57676Y-44799D01*
X57714Y-44891D01*
X57784Y-44961D01*
X57795Y-44965D01*
X57775Y-45015D01*
X57775Y-45184D01*
X57839Y-45340D01*
X57874Y-45375D01*
X51627Y-45375D01*
X51636Y-45366D01*
X51674Y-45275D01*
X51674Y-45176D01*
X51674Y-44786D01*
X51861Y-44599D01*
X52449Y-44599D01*
X52541Y-44561D01*
X52611Y-44491D01*
X52649Y-44400D01*
X52649Y-44318D01*
X52654Y-44318D01*
X52748Y-44255D01*
X52787Y-44216D01*
X52798Y-44199D01*
X53324Y-44199D01*
X53416Y-44161D01*
X53486Y-44091D01*
X53491Y-44077D01*
X53541Y-44068D01*
X53545Y-44065D01*
X54282Y-44065D01*
X54393Y-44043D01*
X54487Y-43980D01*
X54599Y-43867D01*
X54675Y-43899D01*
X54774Y-43899D01*
X55259Y-43899D01*
X55320Y-43960D01*
X55476Y-44025D01*
X55500Y-44025D01*
X55396Y-44068D01*
X55276Y-44188D01*
X55211Y-44344D01*
X55211Y-44513D01*
X55275Y-44669D01*
X55395Y-44789D01*
X55551Y-44854D01*
X55698Y-44854D01*
X55714Y-44891D01*
X55784Y-44961D01*
X55875Y-44999D01*
X55974Y-44999D01*
X56524Y-44999D01*
X56616Y-44961D01*
X56686Y-44891D01*
X56724Y-44800D01*
X56724Y-44701D01*
X56724Y-44351D01*
X56686Y-44259D01*
X56616Y-44189D01*
X56525Y-44151D01*
X56426Y-44151D01*
X55959Y-44151D01*
X55877Y-44069D01*
X55721Y-44004D01*
X55696Y-44004D01*
X55801Y-43961D01*
X55921Y-43841D01*
X55986Y-43685D01*
X55986Y-43516D01*
X55922Y-43360D01*
X55802Y-43240D01*
X55646Y-43175D01*
X55492Y-43175D01*
X55486Y-43159D01*
X55427Y-43100D01*
X55486Y-43041D01*
X55524Y-42950D01*
X55524Y-42851D01*
X55524Y-42537D01*
X55566Y-42495D01*
X55604Y-42404D01*
X55604Y-42305D01*
X55604Y-41792D01*
X56476Y-41792D01*
X57201Y-42517D01*
X57202Y-42518D01*
X57295Y-42580D01*
X57296Y-42581D01*
X57406Y-42602D01*
X57407Y-42603D01*
X57676Y-42603D01*
X57676Y-42799D01*
X57714Y-42891D01*
X57784Y-42961D01*
X57875Y-42999D01*
X57910Y-42999D01*
X57910Y-43401D01*
X55604Y-41792D02*
X56476Y-41792D01*
X55604Y-41872D02*
X56556Y-41872D01*
X55604Y-41952D02*
X56636Y-41952D01*
X55604Y-42032D02*
X56716Y-42032D01*
X55604Y-42112D02*
X56796Y-42112D01*
X55604Y-42192D02*
X56876Y-42192D01*
X55604Y-42272D02*
X56956Y-42272D01*
X55604Y-42352D02*
X57036Y-42352D01*
X55593Y-42432D02*
X57116Y-42432D01*
X55549Y-42512D02*
X57196Y-42512D01*
X55524Y-42592D02*
X57354Y-42592D01*
X55524Y-42672D02*
X57676Y-42672D01*
X55524Y-42752D02*
X57676Y-42752D01*
X55524Y-42832D02*
X57690Y-42832D01*
X55524Y-42912D02*
X57735Y-42912D01*
X55507Y-42992D02*
X57859Y-42992D01*
X55455Y-43072D02*
X57910Y-43072D01*
X55479Y-43152D02*
X57910Y-43152D01*
X55782Y-43232D02*
X57910Y-43232D01*
X55874Y-43312D02*
X57910Y-43312D01*
X55935Y-43392D02*
X57910Y-43392D01*
X55967Y-43472D02*
X57751Y-43472D01*
X55986Y-43552D02*
X57696Y-43552D01*
X55986Y-43632D02*
X57676Y-43632D01*
X55975Y-43712D02*
X57676Y-43712D01*
X55942Y-43792D02*
X57676Y-43792D01*
X54595Y-43872D02*
X54611Y-43872D01*
X55890Y-43872D02*
X57676Y-43872D01*
X54515Y-43952D02*
X55312Y-43952D01*
X55810Y-43952D02*
X57676Y-43952D01*
X54410Y-44032D02*
X55483Y-44032D01*
X55788Y-44032D02*
X57676Y-44032D01*
X53465Y-44112D02*
X55352Y-44112D01*
X55920Y-44112D02*
X57703Y-44112D01*
X53341Y-44192D02*
X55274Y-44192D01*
X56619Y-44192D02*
X57765Y-44192D01*
X52723Y-44272D02*
X55241Y-44272D01*
X56691Y-44272D02*
X57708Y-44272D01*
X52649Y-44352D02*
X55211Y-44352D01*
X56724Y-44352D02*
X57676Y-44352D01*
X52636Y-44432D02*
X55211Y-44432D01*
X56724Y-44432D02*
X57676Y-44432D01*
X52590Y-44512D02*
X55211Y-44512D01*
X56724Y-44512D02*
X57676Y-44512D01*
X52466Y-44592D02*
X55244Y-44592D01*
X56724Y-44592D02*
X57676Y-44592D01*
X51788Y-44672D02*
X55278Y-44672D01*
X56724Y-44672D02*
X57676Y-44672D01*
X51708Y-44752D02*
X55358Y-44752D01*
X56724Y-44752D02*
X57676Y-44752D01*
X51674Y-44832D02*
X55499Y-44832D01*
X56711Y-44832D02*
X57690Y-44832D01*
X51674Y-44912D02*
X55735Y-44912D01*
X56665Y-44912D02*
X57735Y-44912D01*
X51674Y-44992D02*
X55859Y-44992D01*
X56541Y-44992D02*
X57784Y-44992D01*
X51674Y-45072D02*
X57775Y-45072D01*
X51674Y-45152D02*
X57775Y-45152D01*
X51674Y-45232D02*
X57795Y-45232D01*
X51659Y-45312D02*
X57828Y-45312D01*
X49425Y-34025D02*
X62275Y-34025D01*
X49425Y-34105D02*
X62275Y-34105D01*
X49425Y-34185D02*
X62275Y-34185D01*
X49425Y-34265D02*
X62275Y-34265D01*
X49425Y-34345D02*
X62275Y-34345D01*
X49425Y-34425D02*
X62275Y-34425D01*
X49425Y-34505D02*
X62275Y-34505D01*
X49425Y-34585D02*
X62275Y-34585D01*
X49425Y-34665D02*
X62275Y-34665D01*
X49425Y-34745D02*
X62275Y-34745D01*
X49425Y-34825D02*
X62275Y-34825D01*
X49425Y-34905D02*
X62275Y-34905D01*
X49425Y-34985D02*
X62275Y-34985D01*
X49425Y-35065D02*
X62275Y-35065D01*
X49425Y-35145D02*
X62275Y-35145D01*
X49425Y-35225D02*
X62275Y-35225D01*
X49425Y-35305D02*
X62275Y-35305D01*
X49425Y-35385D02*
X62275Y-35385D01*
X49425Y-35465D02*
X62275Y-35465D01*
X49425Y-35545D02*
X62275Y-35545D01*
X49425Y-35625D02*
X62275Y-35625D01*
X49425Y-35705D02*
X62275Y-35705D01*
X49425Y-35785D02*
X62275Y-35785D01*
X49425Y-35865D02*
X62275Y-35865D01*
X49425Y-35945D02*
X49841Y-35945D01*
X50283Y-35945D02*
X54514Y-35945D01*
X54956Y-35945D02*
X56741Y-35945D01*
X57183Y-35945D02*
X61414Y-35945D01*
X61856Y-35945D02*
X62275Y-35945D01*
X49425Y-36025D02*
X49647Y-36025D01*
X50477Y-36025D02*
X54320Y-36025D01*
X55150Y-36025D02*
X56547Y-36025D01*
X57377Y-36025D02*
X61220Y-36025D01*
X62050Y-36025D02*
X62275Y-36025D01*
X49425Y-36105D02*
X49489Y-36105D01*
X50634Y-36105D02*
X54162Y-36105D01*
X55307Y-36105D02*
X56389Y-36105D01*
X57534Y-36105D02*
X61062Y-36105D01*
X62208Y-36105D02*
X62275Y-36105D01*
X50714Y-36185D02*
X54082Y-36185D01*
X55387Y-36185D02*
X56309Y-36185D01*
X57614Y-36185D02*
X60982Y-36185D01*
X50794Y-36265D02*
X54002Y-36265D01*
X55467Y-36265D02*
X56229Y-36265D01*
X57694Y-36265D02*
X60902Y-36265D01*
X50874Y-36345D02*
X53922Y-36345D01*
X55547Y-36345D02*
X56149Y-36345D01*
X57774Y-36345D02*
X60822Y-36345D01*
X50911Y-36425D02*
X53884Y-36425D01*
X55584Y-36425D02*
X56111Y-36425D01*
X57811Y-36425D02*
X60784Y-36425D01*
X50944Y-36505D02*
X53851Y-36505D01*
X55617Y-36505D02*
X56078Y-36505D01*
X57844Y-36505D02*
X60751Y-36505D01*
X50978Y-36585D02*
X53818Y-36585D01*
X55651Y-36585D02*
X56045Y-36585D01*
X57878Y-36585D02*
X60718Y-36585D01*
X51011Y-36665D02*
X53785Y-36665D01*
X55684Y-36665D02*
X56012Y-36665D01*
X57911Y-36665D02*
X60685Y-36665D01*
X51029Y-36745D02*
X53768Y-36745D01*
X55702Y-36745D02*
X55995Y-36745D01*
X57929Y-36745D02*
X60668Y-36745D01*
X51029Y-36825D02*
X53768Y-36825D01*
X55702Y-36825D02*
X55995Y-36825D01*
X57929Y-36825D02*
X60668Y-36825D01*
X51029Y-36905D02*
X53768Y-36905D01*
X55702Y-36905D02*
X55995Y-36905D01*
X57929Y-36905D02*
X60668Y-36905D01*
X51029Y-36985D02*
X53768Y-36985D01*
X55702Y-36985D02*
X55995Y-36985D01*
X57929Y-36985D02*
X60668Y-36985D01*
X51029Y-37065D02*
X53768Y-37065D01*
X55702Y-37065D02*
X55995Y-37065D01*
X57929Y-37065D02*
X60668Y-37065D01*
X51008Y-37145D02*
X53790Y-37145D01*
X55681Y-37145D02*
X55702Y-37145D01*
X55702Y-37145D02*
X56017Y-37145D01*
X57908Y-37145D02*
X57929Y-37145D01*
X57929Y-37145D02*
X60690Y-37145D01*
X50975Y-37225D02*
X53824Y-37225D01*
X55648Y-37225D02*
X55702Y-37225D01*
X55702Y-37225D02*
X56051Y-37225D01*
X57875Y-37225D02*
X57929Y-37225D01*
X57929Y-37225D02*
X60724Y-37225D01*
X50942Y-37305D02*
X53857Y-37305D01*
X55615Y-37305D02*
X55702Y-37305D01*
X55702Y-37305D02*
X56084Y-37305D01*
X57842Y-37305D02*
X57929Y-37305D01*
X57929Y-37305D02*
X60757Y-37305D01*
X50909Y-37385D02*
X53890Y-37385D01*
X55582Y-37385D02*
X55702Y-37385D01*
X55702Y-37385D02*
X56117Y-37385D01*
X57809Y-37385D02*
X57929Y-37385D01*
X57929Y-37385D02*
X60790Y-37385D01*
X50865Y-37465D02*
X53933Y-37465D01*
X55538Y-37465D02*
X55702Y-37465D01*
X55702Y-37465D02*
X56160Y-37465D01*
X57765Y-37465D02*
X57929Y-37465D01*
X57929Y-37465D02*
X60833Y-37465D01*
X50785Y-37545D02*
X54013Y-37545D01*
X55458Y-37545D02*
X55702Y-37545D01*
X55702Y-37545D02*
X56240Y-37545D01*
X57685Y-37545D02*
X57929Y-37545D01*
X57929Y-37545D02*
X60913Y-37545D01*
X50705Y-37625D02*
X54093Y-37625D01*
X55378Y-37625D02*
X55702Y-37625D01*
X55702Y-37625D02*
X56320Y-37625D01*
X57605Y-37625D02*
X57929Y-37625D01*
X57929Y-37625D02*
X60993Y-37625D01*
X49425Y-37705D02*
X49500Y-37705D01*
X50625Y-37705D02*
X54173Y-37705D01*
X55298Y-37705D02*
X55702Y-37705D01*
X55702Y-37705D02*
X56400Y-37705D01*
X57525Y-37705D02*
X57929Y-37705D01*
X57929Y-37705D02*
X61073Y-37705D01*
X62197Y-37705D02*
X62275Y-37705D01*
X49425Y-37785D02*
X49671Y-37785D01*
X50453Y-37785D02*
X54344Y-37785D01*
X55126Y-37785D02*
X55702Y-37785D01*
X55702Y-37785D02*
X56571Y-37785D01*
X57353Y-37785D02*
X57929Y-37785D01*
X57929Y-37785D02*
X61244Y-37785D01*
X62026Y-37785D02*
X62275Y-37785D01*
X49425Y-37865D02*
X49865Y-37865D01*
X50259Y-37865D02*
X54538Y-37865D01*
X54932Y-37865D02*
X55702Y-37865D01*
X55702Y-37865D02*
X56765Y-37865D01*
X57159Y-37865D02*
X57929Y-37865D01*
X57929Y-37865D02*
X61438Y-37865D01*
X61832Y-37865D02*
X62275Y-37865D01*
X49425Y-37945D02*
X55702Y-37945D01*
X55702Y-37945D02*
X57929Y-37945D01*
X57929Y-37945D02*
X62275Y-37945D01*
X49425Y-38025D02*
X55702Y-38025D01*
X55702Y-38025D02*
X57929Y-38025D01*
X57929Y-38025D02*
X62275Y-38025D01*
X49425Y-38105D02*
X55702Y-38105D01*
X55702Y-38105D02*
X57929Y-38105D01*
X57929Y-38105D02*
X62275Y-38105D01*
X49425Y-38185D02*
X55702Y-38185D01*
X55702Y-38185D02*
X57929Y-38185D01*
X57929Y-38185D02*
X62275Y-38185D01*
X49425Y-38265D02*
X55702Y-38265D01*
X55702Y-38265D02*
X57929Y-38265D01*
X57929Y-38265D02*
X62275Y-38265D01*
X49425Y-38345D02*
X55702Y-38345D01*
X55702Y-38345D02*
X57929Y-38345D01*
X57929Y-38345D02*
X62275Y-38345D01*
X49425Y-38425D02*
X55702Y-38425D01*
X55702Y-38425D02*
X57929Y-38425D01*
X57929Y-38425D02*
X62275Y-38425D01*
X49425Y-38505D02*
X51755Y-38505D01*
X57445Y-38505D02*
X57929Y-38505D01*
X57929Y-38505D02*
X62275Y-38505D01*
X49425Y-38585D02*
X51557Y-38585D01*
X57642Y-38585D02*
X57929Y-38585D01*
X57929Y-38585D02*
X62275Y-38585D01*
X49425Y-38665D02*
X51474Y-38665D01*
X57725Y-38665D02*
X57929Y-38665D01*
X57929Y-38665D02*
X62275Y-38665D01*
X49425Y-38745D02*
X51394Y-38745D01*
X57805Y-38745D02*
X57929Y-38745D01*
X57929Y-38745D02*
X62275Y-38745D01*
X49425Y-38825D02*
X51314Y-38825D01*
X57885Y-38825D02*
X57929Y-38825D01*
X57929Y-38825D02*
X62275Y-38825D01*
X49425Y-38905D02*
X50923Y-38905D01*
X58276Y-38905D02*
X58823Y-38905D01*
X59276Y-38905D02*
X59823Y-38905D01*
X60276Y-38905D02*
X60603Y-38905D01*
X61497Y-38905D02*
X62275Y-38905D01*
X49425Y-38985D02*
X50796Y-38985D01*
X58404Y-38985D02*
X58696Y-38985D01*
X59404Y-38985D02*
X59696Y-38985D01*
X60404Y-38985D02*
X60535Y-38985D01*
X61564Y-38985D02*
X62275Y-38985D01*
X49425Y-39065D02*
X50716Y-39065D01*
X58484Y-39065D02*
X58616Y-39065D01*
X59484Y-39065D02*
X59616Y-39065D01*
X60484Y-39065D02*
X60506Y-39065D01*
X61594Y-39065D02*
X62275Y-39065D01*
X49425Y-39145D02*
X50667Y-39145D01*
X58533Y-39145D02*
X58566Y-39145D01*
X59533Y-39145D02*
X59566Y-39145D01*
X61618Y-39145D02*
X62275Y-39145D01*
X49425Y-39225D02*
X50633Y-39225D01*
X61940Y-39225D02*
X62275Y-39225D01*
X49425Y-39305D02*
X50606Y-39305D01*
X62107Y-39305D02*
X62275Y-39305D01*
X49425Y-39385D02*
X50606Y-39385D01*
X62160Y-39385D02*
X62275Y-39385D01*
X49425Y-39465D02*
X50606Y-39465D01*
X49425Y-39545D02*
X50622Y-39545D01*
X49425Y-39625D02*
X50655Y-39625D01*
X51646Y-39625D02*
X51655Y-39625D01*
X52646Y-39625D02*
X52655Y-39625D01*
X49425Y-39705D02*
X50688Y-39705D01*
X51613Y-39705D02*
X51688Y-39705D01*
X52613Y-39705D02*
X52688Y-39705D01*
X49425Y-39785D02*
X50766Y-39785D01*
X51534Y-39785D02*
X51766Y-39785D01*
X52534Y-39785D02*
X52766Y-39785D01*
X49425Y-39865D02*
X50520Y-39865D01*
X50779Y-39865D02*
X50852Y-39865D01*
X51449Y-39865D02*
X51520Y-39865D01*
X51779Y-39865D02*
X51852Y-39865D01*
X52449Y-39865D02*
X52520Y-39865D01*
X49425Y-39945D02*
X50336Y-39945D01*
X50964Y-39945D02*
X51336Y-39945D01*
X51964Y-39945D02*
X52336Y-39945D01*
X49425Y-40025D02*
X50256Y-40025D01*
X51044Y-40025D02*
X51256Y-40025D01*
X52044Y-40025D02*
X52256Y-40025D01*
X49425Y-40105D02*
X50183Y-40105D01*
X51116Y-40105D02*
X51183Y-40105D01*
X52116Y-40105D02*
X52183Y-40105D01*
X49425Y-40185D02*
X50150Y-40185D01*
X49425Y-40265D02*
X50117Y-40265D01*
X49425Y-40345D02*
X50106Y-40345D01*
X49425Y-40425D02*
X50106Y-40425D01*
X49425Y-40505D02*
X50106Y-40505D01*
X49425Y-40585D02*
X50138Y-40585D01*
X49425Y-40665D02*
X50172Y-40665D01*
X51129Y-40665D02*
X51172Y-40665D01*
X52129Y-40665D02*
X52172Y-40665D01*
X53129Y-40665D02*
X53172Y-40665D01*
X49425Y-40745D02*
X50226Y-40745D01*
X51074Y-40745D02*
X51226Y-40745D01*
X52074Y-40745D02*
X52226Y-40745D01*
X53074Y-40745D02*
X53226Y-40745D01*
X49425Y-40825D02*
X50306Y-40825D01*
X50994Y-40825D02*
X51306Y-40825D01*
X51994Y-40825D02*
X52306Y-40825D01*
X52994Y-40825D02*
X53306Y-40825D01*
X49425Y-40905D02*
X50449Y-40905D01*
X50852Y-40905D02*
X51449Y-40905D01*
X51852Y-40905D02*
X52449Y-40905D01*
X52852Y-40905D02*
X53449Y-40905D01*
X49425Y-40985D02*
X53825Y-40985D01*
X49425Y-41065D02*
X53915Y-41065D01*
X49425Y-41145D02*
X57803Y-41145D01*
X49425Y-41225D02*
X54176Y-41225D01*
X56661Y-41225D02*
X57775Y-41225D01*
X49425Y-41305D02*
X54029Y-41305D01*
X56809Y-41305D02*
X57775Y-41305D01*
X49425Y-41385D02*
X53949Y-41385D01*
X56889Y-41385D02*
X57776Y-41385D01*
X49425Y-41465D02*
X53869Y-41465D01*
X56969Y-41465D02*
X57758Y-41465D01*
X49425Y-41545D02*
X53789Y-41545D01*
X57049Y-41545D02*
X57698Y-41545D01*
X49425Y-41625D02*
X53709Y-41625D01*
X57129Y-41625D02*
X57676Y-41625D01*
X49425Y-41705D02*
X53629Y-41705D01*
X57209Y-41705D02*
X57676Y-41705D01*
X49425Y-41785D02*
X53549Y-41785D01*
X57289Y-41785D02*
X57676Y-41785D01*
X49425Y-41865D02*
X53469Y-41865D01*
X57369Y-41865D02*
X57676Y-41865D01*
X49425Y-41945D02*
X53249Y-41945D01*
X57449Y-41945D02*
X57676Y-41945D01*
X49425Y-42025D02*
X53149Y-42025D01*
X49425Y-42105D02*
X50564Y-42105D01*
X51096Y-42105D02*
X53084Y-42105D01*
X49425Y-42185D02*
X50474Y-42185D01*
X51185Y-42185D02*
X53050Y-42185D01*
X49425Y-42265D02*
X50401Y-42265D01*
X51257Y-42265D02*
X53030Y-42265D01*
X49425Y-42345D02*
X50368Y-42345D01*
X51291Y-42345D02*
X53030Y-42345D01*
X49425Y-42425D02*
X50335Y-42425D01*
X51324Y-42425D02*
X53039Y-42425D01*
X49425Y-42505D02*
X50331Y-42505D01*
X51329Y-42505D02*
X53072Y-42505D01*
X49425Y-42585D02*
X50331Y-42585D01*
X51329Y-42585D02*
X53119Y-42585D01*
X49425Y-42665D02*
X50344Y-42665D01*
X51317Y-42665D02*
X51329Y-42665D01*
X51329Y-42665D02*
X53165Y-42665D01*
X49425Y-42745D02*
X50378Y-42745D01*
X51284Y-42745D02*
X51329Y-42745D01*
X51329Y-42745D02*
X53165Y-42745D01*
X49425Y-42825D02*
X50415Y-42825D01*
X51246Y-42825D02*
X51329Y-42825D01*
X51329Y-42825D02*
X53165Y-42825D01*
X49425Y-42905D02*
X50495Y-42905D01*
X51166Y-42905D02*
X51329Y-42905D01*
X51329Y-42905D02*
X53165Y-42905D01*
X49425Y-42985D02*
X50613Y-42985D01*
X51047Y-42985D02*
X51329Y-42985D01*
X51329Y-42985D02*
X53165Y-42985D01*
X49425Y-43065D02*
X51329Y-43065D01*
X51329Y-43065D02*
X53165Y-43065D01*
X49425Y-43145D02*
X51329Y-43145D01*
X51329Y-43145D02*
X53165Y-43145D01*
X49425Y-43225D02*
X51329Y-43225D01*
X51329Y-43225D02*
X53165Y-43225D01*
X49425Y-43305D02*
X51329Y-43305D01*
X51329Y-43305D02*
X53165Y-43305D01*
X49425Y-43385D02*
X51329Y-43385D01*
X51329Y-43385D02*
X52593Y-43385D01*
X49425Y-43465D02*
X51329Y-43465D01*
X51329Y-43465D02*
X52511Y-43465D01*
X49425Y-43545D02*
X51329Y-43545D01*
X51329Y-43545D02*
X51453Y-43545D01*
X49425Y-43625D02*
X51329Y-43625D01*
X51329Y-43625D02*
X51382Y-43625D01*
X49425Y-43705D02*
X51329Y-43705D01*
X51329Y-43705D02*
X51351Y-43705D01*
X49425Y-43785D02*
X50685Y-43785D01*
X50975Y-43785D02*
X51329Y-43785D01*
X51329Y-43785D02*
X51351Y-43785D01*
X49425Y-43865D02*
X50524Y-43865D01*
X51135Y-43865D02*
X51329Y-43865D01*
X51329Y-43865D02*
X51351Y-43865D01*
X49425Y-43945D02*
X50444Y-43945D01*
X51215Y-43945D02*
X51329Y-43945D01*
X51329Y-43945D02*
X51351Y-43945D01*
X49425Y-44025D02*
X49994Y-44025D01*
X51270Y-44025D02*
X51329Y-44025D01*
X51329Y-44025D02*
X51351Y-44025D01*
X49425Y-44105D02*
X49894Y-44105D01*
X51303Y-44105D02*
X51329Y-44105D01*
X51329Y-44105D02*
X51351Y-44105D01*
X49425Y-44185D02*
X49829Y-44185D01*
X51329Y-44185D02*
X51351Y-44185D01*
X49425Y-44265D02*
X49795Y-44265D01*
X51329Y-44265D02*
X51351Y-44265D01*
X49425Y-44345D02*
X49775Y-44345D01*
X49425Y-44425D02*
X49775Y-44425D01*
X49425Y-44505D02*
X49784Y-44505D01*
X49425Y-44585D02*
X49817Y-44585D01*
X49425Y-44665D02*
X49864Y-44665D01*
X49425Y-44745D02*
X49944Y-44745D01*
X49425Y-44825D02*
X50215Y-44825D01*
X49425Y-44905D02*
X50295Y-44905D01*
X49425Y-44985D02*
X50326Y-44985D01*
X49425Y-45065D02*
X50326Y-45065D01*
X49425Y-45145D02*
X50326Y-45145D01*
X49425Y-45225D02*
X50326Y-45225D01*
X49425Y-45305D02*
X50339Y-45305D01*
X58724Y-42547D02*
X59901Y-42547D01*
X60999Y-42547D02*
X61201Y-42547D01*
X58724Y-42627D02*
X59901Y-42627D01*
X60999Y-42627D02*
X61201Y-42627D01*
X58724Y-42707D02*
X59901Y-42707D01*
X60999Y-42707D02*
X61201Y-42707D01*
X58724Y-42787D02*
X59901Y-42787D01*
X60999Y-42787D02*
X61201Y-42787D01*
X58697Y-42867D02*
X59901Y-42867D01*
X60999Y-42867D02*
X61201Y-42867D01*
X58630Y-42947D02*
X59901Y-42947D01*
X60999Y-42947D02*
X61201Y-42947D01*
X58490Y-43027D02*
X59901Y-43027D01*
X60999Y-43027D02*
X61201Y-43027D01*
X58490Y-43107D02*
X59901Y-43107D01*
X60999Y-43107D02*
X61201Y-43107D01*
X58490Y-43187D02*
X59901Y-43187D01*
X60999Y-43187D02*
X61201Y-43187D01*
X58490Y-43267D02*
X59909Y-43267D01*
X60992Y-43267D02*
X61209Y-43267D01*
X58490Y-43347D02*
X59945Y-43347D01*
X60955Y-43347D02*
X61245Y-43347D01*
X62255Y-43347D02*
X62275Y-43347D01*
X58587Y-43427D02*
X60025Y-43427D01*
X60875Y-43427D02*
X61348Y-43427D01*
X62153Y-43427D02*
X62275Y-43427D01*
X58684Y-43507D02*
X60025Y-43507D01*
X60875Y-43507D02*
X62275Y-43507D01*
X58718Y-43587D02*
X60035Y-43587D01*
X60866Y-43587D02*
X62275Y-43587D01*
X58724Y-43667D02*
X60068Y-43667D01*
X60833Y-43667D02*
X62275Y-43667D01*
X58724Y-43747D02*
X60116Y-43747D01*
X60784Y-43747D02*
X62275Y-43747D01*
X58724Y-43827D02*
X60196Y-43827D01*
X60704Y-43827D02*
X62275Y-43827D01*
X58724Y-43907D02*
X62275Y-43907D01*
X58724Y-43987D02*
X62275Y-43987D01*
X58717Y-44067D02*
X62275Y-44067D01*
X58680Y-44147D02*
X62275Y-44147D01*
X58654Y-44227D02*
X62275Y-44227D01*
X58705Y-44307D02*
X62275Y-44307D01*
X58724Y-44387D02*
X62275Y-44387D01*
X58724Y-44467D02*
X62275Y-44467D01*
X58724Y-44547D02*
X59251Y-44547D01*
X60149Y-44547D02*
X62275Y-44547D01*
X58724Y-44627D02*
X59196Y-44627D01*
X60203Y-44627D02*
X62275Y-44627D01*
X58724Y-44707D02*
X59176Y-44707D01*
X60224Y-44707D02*
X62275Y-44707D01*
X58724Y-44787D02*
X59176Y-44787D01*
X60224Y-44787D02*
X62275Y-44787D01*
X58697Y-44867D02*
X59176Y-44867D01*
X60224Y-44867D02*
X62275Y-44867D01*
X58630Y-44947D02*
X59176Y-44947D01*
X60224Y-44947D02*
X62275Y-44947D01*
X58625Y-45027D02*
X59176Y-45027D01*
X60224Y-45027D02*
X62275Y-45027D01*
X58625Y-45107D02*
X59176Y-45107D01*
X60224Y-45107D02*
X62275Y-45107D01*
X58625Y-45187D02*
X59176Y-45187D01*
X60224Y-45187D02*
X62275Y-45187D01*
X58591Y-45267D02*
X59176Y-45267D01*
X60224Y-45267D02*
X62275Y-45267D01*
X58554Y-45347D02*
X59186Y-45347D01*
X60215Y-45347D02*
X62275Y-45347D01*
X62275Y-39421D02*
X62225Y-39401D01*
X62168Y-39401D01*
X62168Y-39396D01*
X62105Y-39302D01*
X62011Y-39239D01*
X61900Y-39217D01*
X61715Y-39217D01*
X61693Y-39195D01*
X61599Y-39132D01*
X61594Y-39131D01*
X61594Y-39056D01*
X61556Y-38964D01*
X61486Y-38894D01*
X61395Y-38856D01*
X61296Y-38856D01*
X60706Y-38856D01*
X60614Y-38894D01*
X60544Y-38964D01*
X60506Y-39055D01*
X60506Y-39087D01*
X60358Y-38939D01*
X60158Y-38856D01*
X59942Y-38856D01*
X59742Y-38939D01*
X59589Y-39092D01*
X59550Y-39185D01*
X59511Y-39092D01*
X59358Y-38939D01*
X59158Y-38856D01*
X58942Y-38856D01*
X58742Y-38939D01*
X58589Y-39092D01*
X58550Y-39185D01*
X58511Y-39092D01*
X58358Y-38939D01*
X58158Y-38856D01*
X57942Y-38856D01*
X57929Y-38860D01*
X57929Y-37093D01*
X57929Y-36708D01*
X57782Y-36353D01*
X57510Y-36080D01*
X57155Y-35933D01*
X56770Y-35933D01*
X56415Y-36080D01*
X56142Y-36352D01*
X55995Y-36707D01*
X55995Y-37092D01*
X56142Y-37447D01*
X56414Y-37720D01*
X56769Y-37867D01*
X57154Y-37867D01*
X57509Y-37720D01*
X57782Y-37448D01*
X57929Y-37093D01*
X57929Y-38860D01*
X57923Y-38863D01*
X57650Y-38590D01*
X57556Y-38527D01*
X57445Y-38505D01*
X55702Y-38505D01*
X55702Y-37093D01*
X55702Y-36708D01*
X55555Y-36353D01*
X55283Y-36080D01*
X54928Y-35933D01*
X54543Y-35933D01*
X54188Y-36080D01*
X53915Y-36352D01*
X53768Y-36707D01*
X53768Y-37092D01*
X53915Y-37447D01*
X54187Y-37720D01*
X54542Y-37867D01*
X54927Y-37867D01*
X55282Y-37720D01*
X55555Y-37448D01*
X55702Y-37093D01*
X55702Y-38505D01*
X51755Y-38505D01*
X51644Y-38527D01*
X51550Y-38590D01*
X51276Y-38863D01*
X51258Y-38856D01*
X51042Y-38856D01*
X50842Y-38939D01*
X50689Y-39092D01*
X50606Y-39292D01*
X50606Y-39508D01*
X50689Y-39708D01*
X50842Y-39861D01*
X51042Y-39944D01*
X51258Y-39944D01*
X51458Y-39861D01*
X51611Y-39708D01*
X51650Y-39614D01*
X51689Y-39708D01*
X51842Y-39861D01*
X52042Y-39944D01*
X52258Y-39944D01*
X52458Y-39861D01*
X52611Y-39708D01*
X52650Y-39614D01*
X52689Y-39708D01*
X52810Y-39829D01*
X52776Y-39863D01*
X52758Y-39856D01*
X52542Y-39856D01*
X52342Y-39939D01*
X52189Y-40092D01*
X52150Y-40185D01*
X52111Y-40092D01*
X51958Y-39939D01*
X51758Y-39856D01*
X51542Y-39856D01*
X51342Y-39939D01*
X51189Y-40092D01*
X51150Y-40185D01*
X51111Y-40092D01*
X50958Y-39939D01*
X50758Y-39856D01*
X50542Y-39856D01*
X50342Y-39939D01*
X50189Y-40092D01*
X50106Y-40292D01*
X50106Y-40508D01*
X50189Y-40708D01*
X50342Y-40861D01*
X50542Y-40944D01*
X50758Y-40944D01*
X50958Y-40861D01*
X51111Y-40708D01*
X51150Y-40614D01*
X51189Y-40708D01*
X51342Y-40861D01*
X51542Y-40944D01*
X51758Y-40944D01*
X51958Y-40861D01*
X52111Y-40708D01*
X52150Y-40614D01*
X52189Y-40708D01*
X52342Y-40861D01*
X52542Y-40944D01*
X52758Y-40944D01*
X52958Y-40861D01*
X53111Y-40708D01*
X53150Y-40614D01*
X53189Y-40708D01*
X53342Y-40861D01*
X53542Y-40944D01*
X53758Y-40944D01*
X53776Y-40936D01*
X53885Y-41045D01*
X53979Y-41108D01*
X54090Y-41130D01*
X57810Y-41130D01*
X57775Y-41215D01*
X57775Y-41384D01*
X57795Y-41434D01*
X57784Y-41439D01*
X57714Y-41509D01*
X57676Y-41600D01*
X57676Y-41699D01*
X57676Y-42023D01*
X57527Y-42023D01*
X56801Y-41297D01*
X56707Y-41234D01*
X56596Y-41212D01*
X54242Y-41212D01*
X54131Y-41234D01*
X54037Y-41297D01*
X54036Y-41297D01*
X54036Y-41298D01*
X53439Y-41895D01*
X53371Y-41895D01*
X53215Y-41959D01*
X53095Y-42079D01*
X53030Y-42235D01*
X53030Y-42404D01*
X53094Y-42560D01*
X53165Y-42631D01*
X53165Y-43351D01*
X52676Y-43351D01*
X52584Y-43389D01*
X52514Y-43459D01*
X52496Y-43502D01*
X52471Y-43507D01*
X52468Y-43508D01*
X52450Y-43501D01*
X52351Y-43501D01*
X51551Y-43501D01*
X51459Y-43539D01*
X51389Y-43609D01*
X51351Y-43700D01*
X51351Y-43799D01*
X51351Y-44289D01*
X51329Y-44311D01*
X51329Y-44166D01*
X51329Y-42634D01*
X51329Y-42436D01*
X51253Y-42253D01*
X51113Y-42112D01*
X50929Y-42036D01*
X50731Y-42036D01*
X50548Y-42112D01*
X50407Y-42252D01*
X50331Y-42436D01*
X50331Y-42634D01*
X50407Y-42817D01*
X50547Y-42958D01*
X50731Y-43034D01*
X50929Y-43034D01*
X51112Y-42958D01*
X51253Y-42818D01*
X51329Y-42634D01*
X51329Y-44166D01*
X51253Y-43983D01*
X51113Y-43842D01*
X50929Y-43766D01*
X50731Y-43766D01*
X50548Y-43842D01*
X50407Y-43982D01*
X50391Y-44019D01*
X50285Y-43975D01*
X50116Y-43975D01*
X49960Y-44039D01*
X49840Y-44159D01*
X49775Y-44315D01*
X49775Y-44484D01*
X49839Y-44640D01*
X49959Y-44760D01*
X50115Y-44825D01*
X50215Y-44825D01*
X50326Y-44936D01*
X50326Y-45274D01*
X50364Y-45366D01*
X50373Y-45375D01*
X49425Y-45375D01*
X49425Y-37630D01*
X49514Y-37720D01*
X49869Y-37867D01*
X50254Y-37867D01*
X50609Y-37720D01*
X50882Y-37448D01*
X51029Y-37093D01*
X51029Y-36708D01*
X50882Y-36353D01*
X50610Y-36080D01*
X50255Y-35933D01*
X49870Y-35933D01*
X49515Y-36080D01*
X49425Y-36169D01*
X49425Y-34025D01*
X62275Y-34025D01*
X62275Y-36172D01*
X62183Y-36080D01*
X61828Y-35933D01*
X61443Y-35933D01*
X61088Y-36080D01*
X60815Y-36352D01*
X60668Y-36707D01*
X60668Y-37092D01*
X60815Y-37447D01*
X61087Y-37720D01*
X61442Y-37867D01*
X61827Y-37867D01*
X62182Y-37720D01*
X62275Y-37627D01*
X62275Y-39421D01*
X55604Y-41792D02*
X56476Y-41792D01*
X55604Y-41872D02*
X56556Y-41872D01*
X55604Y-41952D02*
X56636Y-41952D01*
X55604Y-42032D02*
X56716Y-42032D01*
X55604Y-42112D02*
X56796Y-42112D01*
X55604Y-42192D02*
X56876Y-42192D01*
X55604Y-42272D02*
X56956Y-42272D01*
X55604Y-42352D02*
X57036Y-42352D01*
X55593Y-42432D02*
X57116Y-42432D01*
X55549Y-42512D02*
X57196Y-42512D01*
X55524Y-42592D02*
X57354Y-42592D01*
X55524Y-42672D02*
X57676Y-42672D01*
X55524Y-42752D02*
X57676Y-42752D01*
X55524Y-42832D02*
X57690Y-42832D01*
X55524Y-42912D02*
X57735Y-42912D01*
X55507Y-42992D02*
X57859Y-42992D01*
X55455Y-43072D02*
X57910Y-43072D01*
X55479Y-43152D02*
X57910Y-43152D01*
X55782Y-43232D02*
X57910Y-43232D01*
X55874Y-43312D02*
X57910Y-43312D01*
X55935Y-43392D02*
X57910Y-43392D01*
X55967Y-43472D02*
X57751Y-43472D01*
X55986Y-43552D02*
X57696Y-43552D01*
X55986Y-43632D02*
X57676Y-43632D01*
X55975Y-43712D02*
X57676Y-43712D01*
X55942Y-43792D02*
X57676Y-43792D01*
X54595Y-43872D02*
X54611Y-43872D01*
X55890Y-43872D02*
X57676Y-43872D01*
X54515Y-43952D02*
X55312Y-43952D01*
X55810Y-43952D02*
X57676Y-43952D01*
X54410Y-44032D02*
X55483Y-44032D01*
X55788Y-44032D02*
X57676Y-44032D01*
X53465Y-44112D02*
X55352Y-44112D01*
X55920Y-44112D02*
X57703Y-44112D01*
X53341Y-44192D02*
X55274Y-44192D01*
X56619Y-44192D02*
X57765Y-44192D01*
X52723Y-44272D02*
X55241Y-44272D01*
X56691Y-44272D02*
X57708Y-44272D01*
X52649Y-44352D02*
X55211Y-44352D01*
X56724Y-44352D02*
X57676Y-44352D01*
X52636Y-44432D02*
X55211Y-44432D01*
X56724Y-44432D02*
X57676Y-44432D01*
X52590Y-44512D02*
X55211Y-44512D01*
X56724Y-44512D02*
X57676Y-44512D01*
X52466Y-44592D02*
X55244Y-44592D01*
X56724Y-44592D02*
X57676Y-44592D01*
X51788Y-44672D02*
X55278Y-44672D01*
X56724Y-44672D02*
X57676Y-44672D01*
X51708Y-44752D02*
X55358Y-44752D01*
X56724Y-44752D02*
X57676Y-44752D01*
X51674Y-44832D02*
X55499Y-44832D01*
X56711Y-44832D02*
X57690Y-44832D01*
X51674Y-44912D02*
X55735Y-44912D01*
X56665Y-44912D02*
X57735Y-44912D01*
X51674Y-44992D02*
X55859Y-44992D01*
X56541Y-44992D02*
X57784Y-44992D01*
X51674Y-45072D02*
X57775Y-45072D01*
X51674Y-45152D02*
X57775Y-45152D01*
X51674Y-45232D02*
X57795Y-45232D01*
X51659Y-45312D02*
X57828Y-45312D01*
X49425Y-34025D02*
X62275Y-34025D01*
X49425Y-34105D02*
X62275Y-34105D01*
X49425Y-34185D02*
X62275Y-34185D01*
X49425Y-34265D02*
X62275Y-34265D01*
X49425Y-34345D02*
X62275Y-34345D01*
X49425Y-34425D02*
X62275Y-34425D01*
X49425Y-34505D02*
X62275Y-34505D01*
X49425Y-34585D02*
X62275Y-34585D01*
X49425Y-34665D02*
X62275Y-34665D01*
X49425Y-34745D02*
X62275Y-34745D01*
X49425Y-34825D02*
X62275Y-34825D01*
X49425Y-34905D02*
X62275Y-34905D01*
X49425Y-34985D02*
X62275Y-34985D01*
X49425Y-35065D02*
X62275Y-35065D01*
X49425Y-35145D02*
X62275Y-35145D01*
X49425Y-35225D02*
X62275Y-35225D01*
X49425Y-35305D02*
X62275Y-35305D01*
X49425Y-35385D02*
X62275Y-35385D01*
X49425Y-35465D02*
X62275Y-35465D01*
X49425Y-35545D02*
X62275Y-35545D01*
X49425Y-35625D02*
X62275Y-35625D01*
X49425Y-35705D02*
X62275Y-35705D01*
X49425Y-35785D02*
X62275Y-35785D01*
X49425Y-35865D02*
X62275Y-35865D01*
X49425Y-35945D02*
X49841Y-35945D01*
X50283Y-35945D02*
X54514Y-35945D01*
X54956Y-35945D02*
X56741Y-35945D01*
X57183Y-35945D02*
X61414Y-35945D01*
X61856Y-35945D02*
X62275Y-35945D01*
X49425Y-36025D02*
X49647Y-36025D01*
X50477Y-36025D02*
X54320Y-36025D01*
X55150Y-36025D02*
X56547Y-36025D01*
X57377Y-36025D02*
X61220Y-36025D01*
X62050Y-36025D02*
X62275Y-36025D01*
X49425Y-36105D02*
X49489Y-36105D01*
X50634Y-36105D02*
X54162Y-36105D01*
X55307Y-36105D02*
X56389Y-36105D01*
X57534Y-36105D02*
X61062Y-36105D01*
X62208Y-36105D02*
X62275Y-36105D01*
X50714Y-36185D02*
X54082Y-36185D01*
X55387Y-36185D02*
X56309Y-36185D01*
X57614Y-36185D02*
X60982Y-36185D01*
X50794Y-36265D02*
X54002Y-36265D01*
X55467Y-36265D02*
X56229Y-36265D01*
X57694Y-36265D02*
X60902Y-36265D01*
X50874Y-36345D02*
X53922Y-36345D01*
X55547Y-36345D02*
X56149Y-36345D01*
X57774Y-36345D02*
X60822Y-36345D01*
X50911Y-36425D02*
X53884Y-36425D01*
X55584Y-36425D02*
X56111Y-36425D01*
X57811Y-36425D02*
X60784Y-36425D01*
X50944Y-36505D02*
X53851Y-36505D01*
X55617Y-36505D02*
X56078Y-36505D01*
X57844Y-36505D02*
X60751Y-36505D01*
X50978Y-36585D02*
X53818Y-36585D01*
X55651Y-36585D02*
X56045Y-36585D01*
X57878Y-36585D02*
X60718Y-36585D01*
X51011Y-36665D02*
X53785Y-36665D01*
X55684Y-36665D02*
X56012Y-36665D01*
X57911Y-36665D02*
X60685Y-36665D01*
X51029Y-36745D02*
X53768Y-36745D01*
X55702Y-36745D02*
X55995Y-36745D01*
X57929Y-36745D02*
X60668Y-36745D01*
X51029Y-36825D02*
X53768Y-36825D01*
X55702Y-36825D02*
X55995Y-36825D01*
X57929Y-36825D02*
X60668Y-36825D01*
X51029Y-36905D02*
X53768Y-36905D01*
X55702Y-36905D02*
X55995Y-36905D01*
X57929Y-36905D02*
X60668Y-36905D01*
X51029Y-36985D02*
X53768Y-36985D01*
X55702Y-36985D02*
X55995Y-36985D01*
X57929Y-36985D02*
X60668Y-36985D01*
X51029Y-37065D02*
X53768Y-37065D01*
X55702Y-37065D02*
X55995Y-37065D01*
X57929Y-37065D02*
X60668Y-37065D01*
X51008Y-37145D02*
X53790Y-37145D01*
X55681Y-37145D02*
X55702Y-37145D01*
X55702Y-37145D02*
X56017Y-37145D01*
X57908Y-37145D02*
X57929Y-37145D01*
X57929Y-37145D02*
X60690Y-37145D01*
X50975Y-37225D02*
X53824Y-37225D01*
X55648Y-37225D02*
X55702Y-37225D01*
X55702Y-37225D02*
X56051Y-37225D01*
X57875Y-37225D02*
X57929Y-37225D01*
X57929Y-37225D02*
X60724Y-37225D01*
X50942Y-37305D02*
X53857Y-37305D01*
X55615Y-37305D02*
X55702Y-37305D01*
X55702Y-37305D02*
X56084Y-37305D01*
X57842Y-37305D02*
X57929Y-37305D01*
X57929Y-37305D02*
X60757Y-37305D01*
X50909Y-37385D02*
X53890Y-37385D01*
X55582Y-37385D02*
X55702Y-37385D01*
X55702Y-37385D02*
X56117Y-37385D01*
X57809Y-37385D02*
X57929Y-37385D01*
X57929Y-37385D02*
X60790Y-37385D01*
X50865Y-37465D02*
X53933Y-37465D01*
X55538Y-37465D02*
X55702Y-37465D01*
X55702Y-37465D02*
X56160Y-37465D01*
X57765Y-37465D02*
X57929Y-37465D01*
X57929Y-37465D02*
X60833Y-37465D01*
X50785Y-37545D02*
X54013Y-37545D01*
X55458Y-37545D02*
X55702Y-37545D01*
X55702Y-37545D02*
X56240Y-37545D01*
X57685Y-37545D02*
X57929Y-37545D01*
X57929Y-37545D02*
X60913Y-37545D01*
X50705Y-37625D02*
X54093Y-37625D01*
X55378Y-37625D02*
X55702Y-37625D01*
X55702Y-37625D02*
X56320Y-37625D01*
X57605Y-37625D02*
X57929Y-37625D01*
X57929Y-37625D02*
X60993Y-37625D01*
X49425Y-37705D02*
X49500Y-37705D01*
X50625Y-37705D02*
X54173Y-37705D01*
X55298Y-37705D02*
X55702Y-37705D01*
X55702Y-37705D02*
X56400Y-37705D01*
X57525Y-37705D02*
X57929Y-37705D01*
X57929Y-37705D02*
X61073Y-37705D01*
X62197Y-37705D02*
X62275Y-37705D01*
X49425Y-37785D02*
X49671Y-37785D01*
X50453Y-37785D02*
X54344Y-37785D01*
X55126Y-37785D02*
X55702Y-37785D01*
X55702Y-37785D02*
X56571Y-37785D01*
X57353Y-37785D02*
X57929Y-37785D01*
X57929Y-37785D02*
X61244Y-37785D01*
X62026Y-37785D02*
X62275Y-37785D01*
X49425Y-37865D02*
X49865Y-37865D01*
X50259Y-37865D02*
X54538Y-37865D01*
X54932Y-37865D02*
X55702Y-37865D01*
X55702Y-37865D02*
X56765Y-37865D01*
X57159Y-37865D02*
X57929Y-37865D01*
X57929Y-37865D02*
X61438Y-37865D01*
X61832Y-37865D02*
X62275Y-37865D01*
X49425Y-37945D02*
X55702Y-37945D01*
X55702Y-37945D02*
X57929Y-37945D01*
X57929Y-37945D02*
X62275Y-37945D01*
X49425Y-38025D02*
X55702Y-38025D01*
X55702Y-38025D02*
X57929Y-38025D01*
X57929Y-38025D02*
X62275Y-38025D01*
X49425Y-38105D02*
X55702Y-38105D01*
X55702Y-38105D02*
X57929Y-38105D01*
X57929Y-38105D02*
X62275Y-38105D01*
X49425Y-38185D02*
X55702Y-38185D01*
X55702Y-38185D02*
X57929Y-38185D01*
X57929Y-38185D02*
X62275Y-38185D01*
X49425Y-38265D02*
X55702Y-38265D01*
X55702Y-38265D02*
X57929Y-38265D01*
X57929Y-38265D02*
X62275Y-38265D01*
X49425Y-38345D02*
X55702Y-38345D01*
X55702Y-38345D02*
X57929Y-38345D01*
X57929Y-38345D02*
X62275Y-38345D01*
X49425Y-38425D02*
X55702Y-38425D01*
X55702Y-38425D02*
X57929Y-38425D01*
X57929Y-38425D02*
X62275Y-38425D01*
X49425Y-38505D02*
X51755Y-38505D01*
X57445Y-38505D02*
X57929Y-38505D01*
X57929Y-38505D02*
X62275Y-38505D01*
X49425Y-38585D02*
X51557Y-38585D01*
X57642Y-38585D02*
X57929Y-38585D01*
X57929Y-38585D02*
X62275Y-38585D01*
X49425Y-38665D02*
X51474Y-38665D01*
X57725Y-38665D02*
X57929Y-38665D01*
X57929Y-38665D02*
X62275Y-38665D01*
X49425Y-38745D02*
X51394Y-38745D01*
X57805Y-38745D02*
X57929Y-38745D01*
X57929Y-38745D02*
X62275Y-38745D01*
X49425Y-38825D02*
X51314Y-38825D01*
X57885Y-38825D02*
X57929Y-38825D01*
X57929Y-38825D02*
X62275Y-38825D01*
X49425Y-38905D02*
X50923Y-38905D01*
X58276Y-38905D02*
X58823Y-38905D01*
X59276Y-38905D02*
X59823Y-38905D01*
X60276Y-38905D02*
X60603Y-38905D01*
X61497Y-38905D02*
X62275Y-38905D01*
X49425Y-38985D02*
X50796Y-38985D01*
X58404Y-38985D02*
X58696Y-38985D01*
X59404Y-38985D02*
X59696Y-38985D01*
X60404Y-38985D02*
X60535Y-38985D01*
X61564Y-38985D02*
X62275Y-38985D01*
X49425Y-39065D02*
X50716Y-39065D01*
X58484Y-39065D02*
X58616Y-39065D01*
X59484Y-39065D02*
X59616Y-39065D01*
X60484Y-39065D02*
X60506Y-39065D01*
X61594Y-39065D02*
X62275Y-39065D01*
X49425Y-39145D02*
X50667Y-39145D01*
X58533Y-39145D02*
X58566Y-39145D01*
X59533Y-39145D02*
X59566Y-39145D01*
X61618Y-39145D02*
X62275Y-39145D01*
X49425Y-39225D02*
X50633Y-39225D01*
X61940Y-39225D02*
X62275Y-39225D01*
X49425Y-39305D02*
X50606Y-39305D01*
X62107Y-39305D02*
X62275Y-39305D01*
X49425Y-39385D02*
X50606Y-39385D01*
X62160Y-39385D02*
X62275Y-39385D01*
X49425Y-39465D02*
X50606Y-39465D01*
X49425Y-39545D02*
X50622Y-39545D01*
X49425Y-39625D02*
X50655Y-39625D01*
X51646Y-39625D02*
X51655Y-39625D01*
X52646Y-39625D02*
X52655Y-39625D01*
X49425Y-39705D02*
X50688Y-39705D01*
X51613Y-39705D02*
X51688Y-39705D01*
X52613Y-39705D02*
X52688Y-39705D01*
X49425Y-39785D02*
X50766Y-39785D01*
X51534Y-39785D02*
X51766Y-39785D01*
X52534Y-39785D02*
X52766Y-39785D01*
X49425Y-39865D02*
X50520Y-39865D01*
X50779Y-39865D02*
X50852Y-39865D01*
X51449Y-39865D02*
X51520Y-39865D01*
X51779Y-39865D02*
X51852Y-39865D01*
X52449Y-39865D02*
X52520Y-39865D01*
X49425Y-39945D02*
X50336Y-39945D01*
X50964Y-39945D02*
X51336Y-39945D01*
X51964Y-39945D02*
X52336Y-39945D01*
X49425Y-40025D02*
X50256Y-40025D01*
X51044Y-40025D02*
X51256Y-40025D01*
X52044Y-40025D02*
X52256Y-40025D01*
X49425Y-40105D02*
X50183Y-40105D01*
X51116Y-40105D02*
X51183Y-40105D01*
X52116Y-40105D02*
X52183Y-40105D01*
X49425Y-40185D02*
X50150Y-40185D01*
X49425Y-40265D02*
X50117Y-40265D01*
X49425Y-40345D02*
X50106Y-40345D01*
X49425Y-40425D02*
X50106Y-40425D01*
X49425Y-40505D02*
X50106Y-40505D01*
X49425Y-40585D02*
X50138Y-40585D01*
X49425Y-40665D02*
X50172Y-40665D01*
X51129Y-40665D02*
X51172Y-40665D01*
X52129Y-40665D02*
X52172Y-40665D01*
X53129Y-40665D02*
X53172Y-40665D01*
X49425Y-40745D02*
X50226Y-40745D01*
X51074Y-40745D02*
X51226Y-40745D01*
X52074Y-40745D02*
X52226Y-40745D01*
X53074Y-40745D02*
X53226Y-40745D01*
X49425Y-40825D02*
X50306Y-40825D01*
X50994Y-40825D02*
X51306Y-40825D01*
X51994Y-40825D02*
X52306Y-40825D01*
X52994Y-40825D02*
X53306Y-40825D01*
X49425Y-40905D02*
X50449Y-40905D01*
X50852Y-40905D02*
X51449Y-40905D01*
X51852Y-40905D02*
X52449Y-40905D01*
X52852Y-40905D02*
X53449Y-40905D01*
X49425Y-40985D02*
X53825Y-40985D01*
X49425Y-41065D02*
X53915Y-41065D01*
X49425Y-41145D02*
X57803Y-41145D01*
X49425Y-41225D02*
X54176Y-41225D01*
X56661Y-41225D02*
X57775Y-41225D01*
X49425Y-41305D02*
X54029Y-41305D01*
X56809Y-41305D02*
X57775Y-41305D01*
X49425Y-41385D02*
X53949Y-41385D01*
X56889Y-41385D02*
X57776Y-41385D01*
X49425Y-41465D02*
X53869Y-41465D01*
X56969Y-41465D02*
X57758Y-41465D01*
X49425Y-41545D02*
X53789Y-41545D01*
X57049Y-41545D02*
X57698Y-41545D01*
X49425Y-41625D02*
X53709Y-41625D01*
X57129Y-41625D02*
X57676Y-41625D01*
X49425Y-41705D02*
X53629Y-41705D01*
X57209Y-41705D02*
X57676Y-41705D01*
X49425Y-41785D02*
X53549Y-41785D01*
X57289Y-41785D02*
X57676Y-41785D01*
X49425Y-41865D02*
X53469Y-41865D01*
X57369Y-41865D02*
X57676Y-41865D01*
X49425Y-41945D02*
X53249Y-41945D01*
X57449Y-41945D02*
X57676Y-41945D01*
X49425Y-42025D02*
X53149Y-42025D01*
X49425Y-42105D02*
X50564Y-42105D01*
X51096Y-42105D02*
X53084Y-42105D01*
X49425Y-42185D02*
X50474Y-42185D01*
X51185Y-42185D02*
X53050Y-42185D01*
X49425Y-42265D02*
X50401Y-42265D01*
X51257Y-42265D02*
X53030Y-42265D01*
X49425Y-42345D02*
X50368Y-42345D01*
X51291Y-42345D02*
X53030Y-42345D01*
X49425Y-42425D02*
X50335Y-42425D01*
X51324Y-42425D02*
X53039Y-42425D01*
X49425Y-42505D02*
X50331Y-42505D01*
X51329Y-42505D02*
X53072Y-42505D01*
X49425Y-42585D02*
X50331Y-42585D01*
X51329Y-42585D02*
X53119Y-42585D01*
X49425Y-42665D02*
X50344Y-42665D01*
X51317Y-42665D02*
X51329Y-42665D01*
X51329Y-42665D02*
X53165Y-42665D01*
X49425Y-42745D02*
X50378Y-42745D01*
X51284Y-42745D02*
X51329Y-42745D01*
X51329Y-42745D02*
X53165Y-42745D01*
X49425Y-42825D02*
X50415Y-42825D01*
X51246Y-42825D02*
X51329Y-42825D01*
X51329Y-42825D02*
X53165Y-42825D01*
X49425Y-42905D02*
X50495Y-42905D01*
X51166Y-42905D02*
X51329Y-42905D01*
X51329Y-42905D02*
X53165Y-42905D01*
X49425Y-42985D02*
X50613Y-42985D01*
X51047Y-42985D02*
X51329Y-42985D01*
X51329Y-42985D02*
X53165Y-42985D01*
X49425Y-43065D02*
X51329Y-43065D01*
X51329Y-43065D02*
X53165Y-43065D01*
X49425Y-43145D02*
X51329Y-43145D01*
X51329Y-43145D02*
X53165Y-43145D01*
X49425Y-43225D02*
X51329Y-43225D01*
X51329Y-43225D02*
X53165Y-43225D01*
X49425Y-43305D02*
X51329Y-43305D01*
X51329Y-43305D02*
X53165Y-43305D01*
X49425Y-43385D02*
X51329Y-43385D01*
X51329Y-43385D02*
X52593Y-43385D01*
X49425Y-43465D02*
X51329Y-43465D01*
X51329Y-43465D02*
X52511Y-43465D01*
X49425Y-43545D02*
X51329Y-43545D01*
X51329Y-43545D02*
X51453Y-43545D01*
X49425Y-43625D02*
X51329Y-43625D01*
X51329Y-43625D02*
X51382Y-43625D01*
X49425Y-43705D02*
X51329Y-43705D01*
X51329Y-43705D02*
X51351Y-43705D01*
X49425Y-43785D02*
X50685Y-43785D01*
X50975Y-43785D02*
X51329Y-43785D01*
X51329Y-43785D02*
X51351Y-43785D01*
X49425Y-43865D02*
X50524Y-43865D01*
X51135Y-43865D02*
X51329Y-43865D01*
X51329Y-43865D02*
X51351Y-43865D01*
X49425Y-43945D02*
X50444Y-43945D01*
X51215Y-43945D02*
X51329Y-43945D01*
X51329Y-43945D02*
X51351Y-43945D01*
X49425Y-44025D02*
X49994Y-44025D01*
X51270Y-44025D02*
X51329Y-44025D01*
X51329Y-44025D02*
X51351Y-44025D01*
X49425Y-44105D02*
X49894Y-44105D01*
X51303Y-44105D02*
X51329Y-44105D01*
X51329Y-44105D02*
X51351Y-44105D01*
X49425Y-44185D02*
X49829Y-44185D01*
X51329Y-44185D02*
X51351Y-44185D01*
X49425Y-44265D02*
X49795Y-44265D01*
X51329Y-44265D02*
X51351Y-44265D01*
X49425Y-44345D02*
X49775Y-44345D01*
X49425Y-44425D02*
X49775Y-44425D01*
X49425Y-44505D02*
X49784Y-44505D01*
X49425Y-44585D02*
X49817Y-44585D01*
X49425Y-44665D02*
X49864Y-44665D01*
X49425Y-44745D02*
X49944Y-44745D01*
X49425Y-44825D02*
X50215Y-44825D01*
X49425Y-44905D02*
X50295Y-44905D01*
X49425Y-44985D02*
X50326Y-44985D01*
X49425Y-45065D02*
X50326Y-45065D01*
X49425Y-45145D02*
X50326Y-45145D01*
X49425Y-45225D02*
X50326Y-45225D01*
X49425Y-45305D02*
X50339Y-45305D01*
X58724Y-42547D02*
X59901Y-42547D01*
X60999Y-42547D02*
X61201Y-42547D01*
X58724Y-42627D02*
X59901Y-42627D01*
X60999Y-42627D02*
X61201Y-42627D01*
X58724Y-42707D02*
X59901Y-42707D01*
X60999Y-42707D02*
X61201Y-42707D01*
X58724Y-42787D02*
X59901Y-42787D01*
X60999Y-42787D02*
X61201Y-42787D01*
X58697Y-42867D02*
X59901Y-42867D01*
X60999Y-42867D02*
X61201Y-42867D01*
X58630Y-42947D02*
X59901Y-42947D01*
X60999Y-42947D02*
X61201Y-42947D01*
X58490Y-43027D02*
X59901Y-43027D01*
X60999Y-43027D02*
X61201Y-43027D01*
X58490Y-43107D02*
X59901Y-43107D01*
X60999Y-43107D02*
X61201Y-43107D01*
X58490Y-43187D02*
X59901Y-43187D01*
X60999Y-43187D02*
X61201Y-43187D01*
X58490Y-43267D02*
X59909Y-43267D01*
X60992Y-43267D02*
X61209Y-43267D01*
X58490Y-43347D02*
X59945Y-43347D01*
X60955Y-43347D02*
X61245Y-43347D01*
X62255Y-43347D02*
X62275Y-43347D01*
X58587Y-43427D02*
X60025Y-43427D01*
X60875Y-43427D02*
X61348Y-43427D01*
X62153Y-43427D02*
X62275Y-43427D01*
X58684Y-43507D02*
X60025Y-43507D01*
X60875Y-43507D02*
X62275Y-43507D01*
X58718Y-43587D02*
X60035Y-43587D01*
X60866Y-43587D02*
X62275Y-43587D01*
X58724Y-43667D02*
X60068Y-43667D01*
X60833Y-43667D02*
X62275Y-43667D01*
X58724Y-43747D02*
X60116Y-43747D01*
X60784Y-43747D02*
X62275Y-43747D01*
X58724Y-43827D02*
X60196Y-43827D01*
X60704Y-43827D02*
X62275Y-43827D01*
X58724Y-43907D02*
X62275Y-43907D01*
X58724Y-43987D02*
X62275Y-43987D01*
X58717Y-44067D02*
X62275Y-44067D01*
X58680Y-44147D02*
X62275Y-44147D01*
X58654Y-44227D02*
X62275Y-44227D01*
X58705Y-44307D02*
X62275Y-44307D01*
X58724Y-44387D02*
X62275Y-44387D01*
X58724Y-44467D02*
X62275Y-44467D01*
X58724Y-44547D02*
X59251Y-44547D01*
X60149Y-44547D02*
X62275Y-44547D01*
X58724Y-44627D02*
X59196Y-44627D01*
X60203Y-44627D02*
X62275Y-44627D01*
X58724Y-44707D02*
X59176Y-44707D01*
X60224Y-44707D02*
X62275Y-44707D01*
X58724Y-44787D02*
X59176Y-44787D01*
X60224Y-44787D02*
X62275Y-44787D01*
X58697Y-44867D02*
X59176Y-44867D01*
X60224Y-44867D02*
X62275Y-44867D01*
X58630Y-44947D02*
X59176Y-44947D01*
X60224Y-44947D02*
X62275Y-44947D01*
X58625Y-45027D02*
X59176Y-45027D01*
X60224Y-45027D02*
X62275Y-45027D01*
X58625Y-45107D02*
X59176Y-45107D01*
X60224Y-45107D02*
X62275Y-45107D01*
X58625Y-45187D02*
X59176Y-45187D01*
X60224Y-45187D02*
X62275Y-45187D01*
X58591Y-45267D02*
X59176Y-45267D01*
X60224Y-45267D02*
X62275Y-45267D01*
X58554Y-45347D02*
X59186Y-45347D01*
X60215Y-45347D02*
X62275Y-45347D01*
X62275Y-45375D02*
X60203Y-45375D01*
X60224Y-45325D01*
X60224Y-45226D01*
X60224Y-44676D01*
X60186Y-44584D01*
X60116Y-44514D01*
X60025Y-44476D01*
X59926Y-44476D01*
X59376Y-44476D01*
X59284Y-44514D01*
X59214Y-44584D01*
X59176Y-44675D01*
X59176Y-44774D01*
X59176Y-45324D01*
X59197Y-45375D01*
X58526Y-45375D01*
X58560Y-45341D01*
X58625Y-45185D01*
X58625Y-45016D01*
X58604Y-44965D01*
X58616Y-44961D01*
X58686Y-44891D01*
X58724Y-44800D01*
X58724Y-44701D01*
X58724Y-44351D01*
X58686Y-44259D01*
X58627Y-44200D01*
X58686Y-44141D01*
X58724Y-44050D01*
X58724Y-43951D01*
X58724Y-43601D01*
X58686Y-43509D01*
X58616Y-43439D01*
X58525Y-43401D01*
X58490Y-43401D01*
X58490Y-42999D01*
X58524Y-42999D01*
X58616Y-42961D01*
X58686Y-42891D01*
X58724Y-42800D01*
X58724Y-42701D01*
X58724Y-42547D01*
X59901Y-42547D01*
X59901Y-43249D01*
X59939Y-43341D01*
X60009Y-43411D01*
X60025Y-43417D01*
X60025Y-43564D01*
X60089Y-43720D01*
X60209Y-43840D01*
X60365Y-43905D01*
X60534Y-43905D01*
X60690Y-43841D01*
X60810Y-43721D01*
X60875Y-43565D01*
X60875Y-43417D01*
X60891Y-43411D01*
X60961Y-43341D01*
X60999Y-43250D01*
X60999Y-43151D01*
X60999Y-42547D01*
X61201Y-42547D01*
X61201Y-43249D01*
X61239Y-43341D01*
X61309Y-43411D01*
X61400Y-43449D01*
X61499Y-43449D01*
X62099Y-43449D01*
X62191Y-43411D01*
X62261Y-43341D01*
X62275Y-43307D01*
X62275Y-45375D01*
M02*
