M48
;DRILL file {PCBnew (2011-07-08)-stable} date Wed 10 Aug 2011 06:35:15 PM EDT
;FORMAT={-:-/ absolute / inch / decimal}
FMAT,2
INCH,TZ
T1C0.025
T2C0.032
T3C0.035
T4C0.036
T5C0.128
%
G90
G05
M72
T1
X5.020Y-4.440
X5.270Y-4.250
X5.346Y-4.232
X5.556Y-4.360
X5.564Y-4.443
X5.820Y-4.130
X5.820Y-4.510
X6.045Y-4.348
T2
X5.970Y-4.170
X5.970Y-4.500
X6.170Y-4.170
X6.170Y-4.500
T3
X5.065Y-4.040
X5.115Y-3.940
X5.165Y-4.040
X5.215Y-3.940
X5.265Y-4.040
X5.315Y-3.940
X5.365Y-4.040
X5.415Y-3.940
X5.755Y-4.040
X5.805Y-3.940
X5.855Y-4.040
X5.905Y-3.940
X5.955Y-4.040
X6.005Y-3.940
X6.055Y-4.040
X6.105Y-3.940
T4
X5.083Y-4.253
X5.083Y-4.426
T5
X5.006Y-3.690
X5.474Y-3.690
X5.696Y-3.690
X6.163Y-3.690
T0
M30
