G04 (created by PCBNEW-RS274X (2011-07-08)-stable) date Wed 10 Aug 2011 06:35:13 PM EDT*
G01*
G70*
G90*
%MOIN*%
G04 Gerber Fmt 3.4, Leading zero omitted, Abs format*
%FSLAX34Y34*%
G04 APERTURE LIST*
%ADD10C,0.006000*%
%ADD11C,0.002600*%
%ADD12C,0.004000*%
%ADD13C,0.005000*%
%ADD14C,0.003500*%
%ADD15C,0.004500*%
G04 APERTURE END LIST*
G54D10*
G54D11*
X55561Y-41961D02*
X55639Y-41961D01*
X55639Y-41961D02*
X55639Y-42039D01*
X55561Y-42039D02*
X55639Y-42039D01*
X55561Y-41961D02*
X55561Y-42039D01*
X55777Y-41725D02*
X55914Y-41725D01*
X55914Y-41725D02*
X55914Y-41823D01*
X55777Y-41823D02*
X55914Y-41823D01*
X55777Y-41725D02*
X55777Y-41823D01*
X55914Y-41725D02*
X55954Y-41725D01*
X55954Y-41725D02*
X55954Y-42196D01*
X55914Y-42196D02*
X55954Y-42196D01*
X55914Y-41725D02*
X55914Y-42196D01*
X55914Y-42216D02*
X55954Y-42216D01*
X55954Y-42216D02*
X55954Y-42275D01*
X55914Y-42275D02*
X55954Y-42275D01*
X55914Y-42216D02*
X55914Y-42275D01*
X55246Y-41725D02*
X55286Y-41725D01*
X55286Y-41725D02*
X55286Y-42196D01*
X55246Y-42196D02*
X55286Y-42196D01*
X55246Y-41725D02*
X55246Y-42196D01*
X55246Y-42216D02*
X55286Y-42216D01*
X55286Y-42216D02*
X55286Y-42275D01*
X55246Y-42275D02*
X55286Y-42275D01*
X55246Y-42216D02*
X55246Y-42275D01*
X55777Y-41725D02*
X55836Y-41725D01*
X55836Y-41725D02*
X55836Y-41823D01*
X55777Y-41823D02*
X55836Y-41823D01*
X55777Y-41725D02*
X55777Y-41823D01*
G54D12*
X56210Y-41705D02*
X54990Y-41705D01*
X54990Y-41705D02*
X54990Y-42295D01*
X54990Y-42295D02*
X56210Y-42295D01*
X56210Y-42295D02*
X56210Y-41705D01*
X55815Y-41805D02*
X55797Y-41787D01*
X55778Y-41771D01*
X55757Y-41756D01*
X55735Y-41743D01*
X55712Y-41732D01*
X55688Y-41723D01*
X55664Y-41717D01*
X55639Y-41712D01*
X55614Y-41710D01*
X55589Y-41710D01*
X55564Y-41712D01*
X55539Y-41716D01*
X55514Y-41723D01*
X55491Y-41731D01*
X55467Y-41742D01*
X55445Y-41754D01*
X55425Y-41769D01*
X55405Y-41785D01*
X55387Y-41803D01*
X55386Y-41804D01*
X55385Y-41805D02*
X55369Y-41825D01*
X55354Y-41845D01*
X55342Y-41867D01*
X55331Y-41891D01*
X55323Y-41914D01*
X55316Y-41939D01*
X55312Y-41964D01*
X55310Y-41989D01*
X55310Y-42014D01*
X55312Y-42039D01*
X55317Y-42064D01*
X55323Y-42088D01*
X55332Y-42112D01*
X55343Y-42135D01*
X55356Y-42157D01*
X55371Y-42178D01*
X55385Y-42195D01*
X55385Y-42195D02*
X55403Y-42213D01*
X55422Y-42229D01*
X55443Y-42244D01*
X55465Y-42257D01*
X55488Y-42268D01*
X55512Y-42277D01*
X55536Y-42283D01*
X55561Y-42288D01*
X55586Y-42290D01*
X55611Y-42290D01*
X55636Y-42288D01*
X55661Y-42284D01*
X55686Y-42277D01*
X55709Y-42269D01*
X55733Y-42258D01*
X55755Y-42246D01*
X55775Y-42231D01*
X55795Y-42215D01*
X55813Y-42197D01*
X55814Y-42196D01*
X55815Y-42195D02*
X55831Y-42175D01*
X55846Y-42155D01*
X55858Y-42133D01*
X55869Y-42109D01*
X55877Y-42086D01*
X55884Y-42061D01*
X55888Y-42036D01*
X55890Y-42011D01*
X55890Y-41986D01*
X55888Y-41961D01*
X55883Y-41936D01*
X55877Y-41912D01*
X55868Y-41888D01*
X55857Y-41865D01*
X55844Y-41843D01*
X55829Y-41822D01*
X55815Y-41805D01*
G54D13*
X58550Y-43550D02*
X58549Y-43559D01*
X58546Y-43569D01*
X58541Y-43577D01*
X58535Y-43585D01*
X58527Y-43591D01*
X58519Y-43596D01*
X58510Y-43598D01*
X58500Y-43599D01*
X58491Y-43599D01*
X58482Y-43596D01*
X58473Y-43591D01*
X58466Y-43585D01*
X58459Y-43578D01*
X58455Y-43569D01*
X58452Y-43560D01*
X58451Y-43550D01*
X58451Y-43541D01*
X58454Y-43532D01*
X58458Y-43523D01*
X58465Y-43516D01*
X58472Y-43509D01*
X58480Y-43505D01*
X58490Y-43502D01*
X58499Y-43501D01*
X58508Y-43501D01*
X58518Y-43504D01*
X58526Y-43508D01*
X58534Y-43514D01*
X58540Y-43522D01*
X58545Y-43530D01*
X58548Y-43539D01*
X58549Y-43549D01*
X58550Y-43550D01*
X58500Y-44000D02*
X58500Y-43600D01*
X58500Y-43600D02*
X57900Y-43600D01*
X57900Y-43600D02*
X57900Y-44000D01*
X57900Y-44400D02*
X57900Y-44800D01*
X57900Y-44800D02*
X58500Y-44800D01*
X58500Y-44800D02*
X58500Y-44400D01*
X57950Y-42850D02*
X57949Y-42859D01*
X57946Y-42869D01*
X57941Y-42877D01*
X57935Y-42885D01*
X57927Y-42891D01*
X57919Y-42896D01*
X57910Y-42898D01*
X57900Y-42899D01*
X57891Y-42899D01*
X57882Y-42896D01*
X57873Y-42891D01*
X57866Y-42885D01*
X57859Y-42878D01*
X57855Y-42869D01*
X57852Y-42860D01*
X57851Y-42850D01*
X57851Y-42841D01*
X57854Y-42832D01*
X57858Y-42823D01*
X57865Y-42816D01*
X57872Y-42809D01*
X57880Y-42805D01*
X57890Y-42802D01*
X57899Y-42801D01*
X57908Y-42801D01*
X57918Y-42804D01*
X57926Y-42808D01*
X57934Y-42814D01*
X57940Y-42822D01*
X57945Y-42830D01*
X57948Y-42839D01*
X57949Y-42849D01*
X57950Y-42850D01*
X57900Y-42400D02*
X57900Y-42800D01*
X57900Y-42800D02*
X58500Y-42800D01*
X58500Y-42800D02*
X58500Y-42400D01*
X58500Y-42000D02*
X58500Y-41600D01*
X58500Y-41600D02*
X57900Y-41600D01*
X57900Y-41600D02*
X57900Y-42000D01*
X55350Y-42450D02*
X55349Y-42459D01*
X55346Y-42469D01*
X55341Y-42477D01*
X55335Y-42485D01*
X55327Y-42491D01*
X55319Y-42496D01*
X55310Y-42498D01*
X55300Y-42499D01*
X55291Y-42499D01*
X55282Y-42496D01*
X55273Y-42491D01*
X55266Y-42485D01*
X55259Y-42478D01*
X55255Y-42469D01*
X55252Y-42460D01*
X55251Y-42450D01*
X55251Y-42441D01*
X55254Y-42432D01*
X55258Y-42423D01*
X55265Y-42416D01*
X55272Y-42409D01*
X55280Y-42405D01*
X55290Y-42402D01*
X55299Y-42401D01*
X55308Y-42401D01*
X55318Y-42404D01*
X55326Y-42408D01*
X55334Y-42414D01*
X55340Y-42422D01*
X55345Y-42430D01*
X55348Y-42439D01*
X55349Y-42449D01*
X55350Y-42450D01*
X55300Y-42900D02*
X55300Y-42500D01*
X55300Y-42500D02*
X54700Y-42500D01*
X54700Y-42500D02*
X54700Y-42900D01*
X54700Y-43300D02*
X54700Y-43700D01*
X54700Y-43700D02*
X55300Y-43700D01*
X55300Y-43700D02*
X55300Y-43300D01*
X55950Y-44850D02*
X55949Y-44859D01*
X55946Y-44869D01*
X55941Y-44877D01*
X55935Y-44885D01*
X55927Y-44891D01*
X55919Y-44896D01*
X55910Y-44898D01*
X55900Y-44899D01*
X55891Y-44899D01*
X55882Y-44896D01*
X55873Y-44891D01*
X55866Y-44885D01*
X55859Y-44878D01*
X55855Y-44869D01*
X55852Y-44860D01*
X55851Y-44850D01*
X55851Y-44841D01*
X55854Y-44832D01*
X55858Y-44823D01*
X55865Y-44816D01*
X55872Y-44809D01*
X55880Y-44805D01*
X55890Y-44802D01*
X55899Y-44801D01*
X55908Y-44801D01*
X55918Y-44804D01*
X55926Y-44808D01*
X55934Y-44814D01*
X55940Y-44822D01*
X55945Y-44830D01*
X55948Y-44839D01*
X55949Y-44849D01*
X55950Y-44850D01*
X55900Y-44400D02*
X55900Y-44800D01*
X55900Y-44800D02*
X56500Y-44800D01*
X56500Y-44800D02*
X56500Y-44400D01*
X56500Y-44000D02*
X56500Y-43600D01*
X56500Y-43600D02*
X55900Y-43600D01*
X55900Y-43600D02*
X55900Y-44000D01*
X52750Y-44050D02*
X52749Y-44059D01*
X52746Y-44069D01*
X52741Y-44077D01*
X52735Y-44085D01*
X52727Y-44091D01*
X52719Y-44096D01*
X52710Y-44098D01*
X52700Y-44099D01*
X52691Y-44099D01*
X52682Y-44096D01*
X52673Y-44091D01*
X52666Y-44085D01*
X52659Y-44078D01*
X52655Y-44069D01*
X52652Y-44060D01*
X52651Y-44050D01*
X52651Y-44041D01*
X52654Y-44032D01*
X52658Y-44023D01*
X52665Y-44016D01*
X52672Y-44009D01*
X52680Y-44005D01*
X52690Y-44002D01*
X52699Y-44001D01*
X52708Y-44001D01*
X52718Y-44004D01*
X52726Y-44008D01*
X52734Y-44014D01*
X52740Y-44022D01*
X52745Y-44030D01*
X52748Y-44039D01*
X52749Y-44049D01*
X52750Y-44050D01*
X52700Y-43600D02*
X52700Y-44000D01*
X52700Y-44000D02*
X53300Y-44000D01*
X53300Y-44000D02*
X53300Y-43600D01*
X53300Y-43200D02*
X53300Y-42800D01*
X53300Y-42800D02*
X52700Y-42800D01*
X52700Y-42800D02*
X52700Y-43200D01*
X62100Y-42350D02*
X62100Y-43250D01*
X62100Y-43250D02*
X61450Y-43250D01*
X60750Y-42350D02*
X60100Y-42350D01*
X60100Y-42350D02*
X60100Y-43250D01*
X60100Y-43250D02*
X60750Y-43250D01*
X61450Y-42350D02*
X62100Y-42350D01*
X52450Y-44400D02*
X52450Y-44500D01*
X52450Y-44500D02*
X51550Y-44500D01*
X51550Y-44500D02*
X51550Y-44400D01*
X52450Y-44400D02*
X51550Y-44400D01*
X51550Y-44400D02*
X51550Y-43750D01*
X52450Y-43050D02*
X52450Y-42400D01*
X52450Y-42400D02*
X51550Y-42400D01*
X51550Y-42400D02*
X51550Y-43050D01*
X52450Y-43750D02*
X52450Y-44400D01*
X61650Y-40850D02*
X61649Y-40859D01*
X61646Y-40869D01*
X61641Y-40877D01*
X61635Y-40885D01*
X61627Y-40891D01*
X61619Y-40896D01*
X61610Y-40898D01*
X61600Y-40899D01*
X61591Y-40899D01*
X61582Y-40896D01*
X61573Y-40891D01*
X61566Y-40885D01*
X61559Y-40878D01*
X61555Y-40869D01*
X61552Y-40860D01*
X61551Y-40850D01*
X61551Y-40841D01*
X61554Y-40832D01*
X61558Y-40823D01*
X61565Y-40816D01*
X61572Y-40809D01*
X61580Y-40805D01*
X61590Y-40802D01*
X61599Y-40801D01*
X61608Y-40801D01*
X61618Y-40804D01*
X61626Y-40808D01*
X61634Y-40814D01*
X61640Y-40822D01*
X61645Y-40830D01*
X61648Y-40839D01*
X61649Y-40849D01*
X61650Y-40850D01*
X61600Y-40400D02*
X61600Y-40800D01*
X61600Y-40800D02*
X62200Y-40800D01*
X62200Y-40800D02*
X62200Y-40400D01*
X62200Y-40000D02*
X62200Y-39600D01*
X62200Y-39600D02*
X61600Y-39600D01*
X61600Y-39600D02*
X61600Y-40000D01*
X50550Y-45250D02*
X51450Y-45250D01*
X51450Y-45250D02*
X51450Y-44750D01*
X51450Y-44750D02*
X50550Y-44750D01*
X50550Y-44750D02*
X50550Y-45250D01*
G54D14*
X55922Y-42721D02*
X55922Y-42421D01*
X55850Y-42421D01*
X55807Y-42436D01*
X55779Y-42464D01*
X55764Y-42493D01*
X55750Y-42550D01*
X55750Y-42593D01*
X55764Y-42650D01*
X55779Y-42679D01*
X55807Y-42707D01*
X55850Y-42721D01*
X55922Y-42721D01*
X55464Y-42721D02*
X55636Y-42721D01*
X55550Y-42721D02*
X55550Y-42421D01*
X55579Y-42464D01*
X55607Y-42493D01*
X55636Y-42507D01*
X55793Y-41521D02*
X55936Y-41521D01*
X55936Y-41221D01*
X55693Y-41364D02*
X55593Y-41364D01*
X55550Y-41521D02*
X55693Y-41521D01*
X55693Y-41221D01*
X55550Y-41221D01*
X55422Y-41521D02*
X55422Y-41221D01*
X55350Y-41221D01*
X55307Y-41236D01*
X55279Y-41264D01*
X55264Y-41293D01*
X55250Y-41350D01*
X55250Y-41393D01*
X55264Y-41450D01*
X55279Y-41479D01*
X55307Y-41507D01*
X55350Y-41521D01*
X55422Y-41521D01*
G54D13*
X58301Y-44158D02*
X58182Y-44075D01*
X58301Y-44016D02*
X58051Y-44016D01*
X58051Y-44111D01*
X58063Y-44135D01*
X58075Y-44146D01*
X58099Y-44158D01*
X58135Y-44158D01*
X58158Y-44146D01*
X58170Y-44135D01*
X58182Y-44111D01*
X58182Y-44016D01*
X58051Y-44242D02*
X58051Y-44396D01*
X58146Y-44313D01*
X58146Y-44349D01*
X58158Y-44373D01*
X58170Y-44385D01*
X58194Y-44396D01*
X58254Y-44396D01*
X58277Y-44385D01*
X58289Y-44373D01*
X58301Y-44349D01*
X58301Y-44277D01*
X58289Y-44254D01*
X58277Y-44242D01*
X58301Y-42158D02*
X58182Y-42075D01*
X58301Y-42016D02*
X58051Y-42016D01*
X58051Y-42111D01*
X58063Y-42135D01*
X58075Y-42146D01*
X58099Y-42158D01*
X58135Y-42158D01*
X58158Y-42146D01*
X58170Y-42135D01*
X58182Y-42111D01*
X58182Y-42016D01*
X58075Y-42254D02*
X58063Y-42266D01*
X58051Y-42289D01*
X58051Y-42349D01*
X58063Y-42373D01*
X58075Y-42385D01*
X58099Y-42396D01*
X58123Y-42396D01*
X58158Y-42385D01*
X58301Y-42242D01*
X58301Y-42396D01*
X55101Y-43058D02*
X54982Y-42975D01*
X55101Y-42916D02*
X54851Y-42916D01*
X54851Y-43011D01*
X54863Y-43035D01*
X54875Y-43046D01*
X54899Y-43058D01*
X54935Y-43058D01*
X54958Y-43046D01*
X54970Y-43035D01*
X54982Y-43011D01*
X54982Y-42916D01*
X55101Y-43296D02*
X55101Y-43154D01*
X55101Y-43225D02*
X54851Y-43225D01*
X54887Y-43201D01*
X54911Y-43177D01*
X54923Y-43154D01*
X56277Y-44158D02*
X56289Y-44146D01*
X56301Y-44111D01*
X56301Y-44087D01*
X56289Y-44051D01*
X56265Y-44027D01*
X56242Y-44016D01*
X56194Y-44004D01*
X56158Y-44004D01*
X56111Y-44016D01*
X56087Y-44027D01*
X56063Y-44051D01*
X56051Y-44087D01*
X56051Y-44111D01*
X56063Y-44146D01*
X56075Y-44158D01*
X56051Y-44242D02*
X56051Y-44396D01*
X56146Y-44313D01*
X56146Y-44349D01*
X56158Y-44373D01*
X56170Y-44385D01*
X56194Y-44396D01*
X56254Y-44396D01*
X56277Y-44385D01*
X56289Y-44373D01*
X56301Y-44349D01*
X56301Y-44277D01*
X56289Y-44254D01*
X56277Y-44242D01*
X53077Y-43358D02*
X53089Y-43346D01*
X53101Y-43311D01*
X53101Y-43287D01*
X53089Y-43251D01*
X53065Y-43227D01*
X53042Y-43216D01*
X52994Y-43204D01*
X52958Y-43204D01*
X52911Y-43216D01*
X52887Y-43227D01*
X52863Y-43251D01*
X52851Y-43287D01*
X52851Y-43311D01*
X52863Y-43346D01*
X52875Y-43358D01*
X53101Y-43596D02*
X53101Y-43454D01*
X53101Y-43525D02*
X52851Y-43525D01*
X52887Y-43501D01*
X52911Y-43477D01*
X52923Y-43454D01*
X61350Y-42621D02*
X61350Y-42836D01*
X61364Y-42879D01*
X61393Y-42907D01*
X61436Y-42921D01*
X61464Y-42921D01*
X61207Y-42921D02*
X61207Y-42621D01*
X61092Y-42621D01*
X61064Y-42636D01*
X61049Y-42650D01*
X61035Y-42679D01*
X61035Y-42721D01*
X61049Y-42750D01*
X61064Y-42764D01*
X61092Y-42779D01*
X61207Y-42779D01*
X60749Y-42921D02*
X60921Y-42921D01*
X60835Y-42921D02*
X60835Y-42621D01*
X60864Y-42664D01*
X60892Y-42693D01*
X60921Y-42707D01*
X52093Y-43350D02*
X52107Y-43336D01*
X52121Y-43293D01*
X52121Y-43264D01*
X52107Y-43221D01*
X52079Y-43193D01*
X52050Y-43178D01*
X51993Y-43164D01*
X51950Y-43164D01*
X51893Y-43178D01*
X51864Y-43193D01*
X51836Y-43221D01*
X51821Y-43264D01*
X51821Y-43293D01*
X51836Y-43336D01*
X51850Y-43350D01*
X51850Y-43464D02*
X51836Y-43478D01*
X51821Y-43507D01*
X51821Y-43578D01*
X51836Y-43607D01*
X51850Y-43621D01*
X51879Y-43636D01*
X51907Y-43636D01*
X51950Y-43621D01*
X52121Y-43450D01*
X52121Y-43636D01*
X62001Y-40158D02*
X61882Y-40075D01*
X62001Y-40016D02*
X61751Y-40016D01*
X61751Y-40111D01*
X61763Y-40135D01*
X61775Y-40146D01*
X61799Y-40158D01*
X61835Y-40158D01*
X61858Y-40146D01*
X61870Y-40135D01*
X61882Y-40111D01*
X61882Y-40016D01*
X61835Y-40373D02*
X62001Y-40373D01*
X61739Y-40313D02*
X61918Y-40254D01*
X61918Y-40408D01*
G54D15*
X51149Y-44967D02*
X51209Y-44967D01*
X51209Y-45113D02*
X51209Y-44833D01*
X51123Y-44833D01*
X50995Y-44967D02*
X50969Y-44980D01*
X50961Y-44993D01*
X50952Y-45020D01*
X50952Y-45060D01*
X50961Y-45087D01*
X50969Y-45100D01*
X50987Y-45113D01*
X51055Y-45113D01*
X51055Y-44833D01*
X50995Y-44833D01*
X50978Y-44847D01*
X50969Y-44860D01*
X50961Y-44887D01*
X50961Y-44913D01*
X50969Y-44940D01*
X50978Y-44953D01*
X50995Y-44967D01*
X51055Y-44967D01*
X50781Y-45113D02*
X50884Y-45113D01*
X50832Y-45113D02*
X50832Y-44833D01*
X50849Y-44873D01*
X50867Y-44900D01*
X50884Y-44913D01*
M02*
