G04 (created by PCBNEW-RS274X (2011-07-08)-stable) date Wed 23 Nov 2011 11:10:54 PM EST*
G01*
G70*
G90*
%MOIN*%
G04 Gerber Fmt 3.4, Leading zero omitted, Abs format*
%FSLAX34Y34*%
G04 APERTURE LIST*
%ADD10C,0.006000*%
%ADD11C,0.060000*%
%ADD12C,0.070000*%
%ADD13C,0.160000*%
%ADD14C,0.055000*%
%ADD15R,0.055000X0.055000*%
%ADD16C,0.059100*%
%ADD17C,0.189000*%
%ADD18R,0.189000X0.189000*%
%ADD19R,0.070000X0.070000*%
%ADD20C,0.143700*%
%ADD21R,0.059100X0.059100*%
%ADD22R,0.035000X0.055000*%
%ADD23R,0.055000X0.035000*%
%ADD24R,0.094500X0.086600*%
%ADD25C,0.010000*%
G04 APERTURE END LIST*
G54D10*
G54D11*
X39800Y-39000D03*
X39800Y-37000D03*
G54D12*
X40800Y-39600D03*
X40800Y-36400D03*
G54D13*
X44300Y-35700D03*
X42200Y-37500D03*
X42200Y-35400D03*
X40200Y-34600D03*
X48500Y-53600D03*
X48500Y-50600D03*
X48500Y-47600D03*
X48500Y-44600D03*
X48500Y-41600D03*
X55200Y-53600D03*
X55200Y-50600D03*
X55300Y-47600D03*
X55300Y-44600D03*
X55300Y-41600D03*
X61300Y-26000D03*
X61300Y-28400D03*
X61300Y-30800D03*
X61300Y-33800D03*
X61300Y-36800D03*
X42600Y-24000D03*
G54D14*
X45300Y-34300D03*
X45300Y-33300D03*
X49700Y-26800D03*
X49700Y-25800D03*
X48500Y-26800D03*
X48500Y-25800D03*
X46500Y-31100D03*
X46500Y-32100D03*
X46500Y-34300D03*
X46500Y-33300D03*
X46600Y-29600D03*
X46600Y-28600D03*
X45400Y-29600D03*
X45400Y-28600D03*
X50700Y-25800D03*
X50700Y-26800D03*
X50700Y-27800D03*
X50700Y-28800D03*
X50700Y-29800D03*
X50700Y-30800D03*
X50700Y-31800D03*
X50700Y-32800D03*
X50700Y-33800D03*
X50700Y-34800D03*
X50700Y-35800D03*
X50700Y-36800D03*
X50700Y-37800D03*
G54D15*
X50700Y-24800D03*
G54D14*
X53700Y-37800D03*
X53700Y-36800D03*
X53700Y-35800D03*
X53700Y-34800D03*
X53700Y-33800D03*
X53700Y-32800D03*
X53700Y-31800D03*
X53700Y-30800D03*
X53700Y-29800D03*
X53700Y-28800D03*
X53700Y-27800D03*
X53700Y-26800D03*
X53700Y-25800D03*
X53700Y-24800D03*
G54D16*
X48700Y-33300D03*
X48700Y-34300D03*
G54D17*
X42400Y-26900D03*
G54D18*
X44800Y-26900D03*
G54D17*
X43300Y-28900D03*
X42400Y-31600D03*
G54D18*
X44800Y-31600D03*
G54D17*
X43300Y-33600D03*
G54D12*
X46800Y-24800D03*
G54D19*
X46800Y-25800D03*
G54D12*
X46800Y-26800D03*
G54D20*
X42400Y-52238D03*
X42400Y-47565D03*
G54D21*
X44900Y-48150D03*
G54D16*
X45900Y-48650D03*
X44900Y-49150D03*
X45900Y-49650D03*
X44900Y-50150D03*
X45900Y-50650D03*
X44900Y-51150D03*
X45900Y-51650D03*
G54D20*
X42400Y-45738D03*
X42400Y-41065D03*
G54D21*
X44900Y-41650D03*
G54D16*
X45900Y-42150D03*
X44900Y-42650D03*
X45900Y-43150D03*
X44900Y-43650D03*
X45900Y-44150D03*
X44900Y-44650D03*
X45900Y-45150D03*
G54D15*
X54800Y-24800D03*
X54800Y-25800D03*
X54800Y-34800D03*
X51700Y-37800D03*
X49600Y-31600D03*
X58000Y-26400D03*
G54D22*
X46075Y-40800D03*
X45325Y-40800D03*
X54725Y-26800D03*
X55475Y-26800D03*
X54725Y-27900D03*
X55475Y-27900D03*
X54725Y-28900D03*
X55475Y-28900D03*
X54725Y-29800D03*
X55475Y-29800D03*
G54D23*
X57700Y-30025D03*
X57700Y-30775D03*
X59100Y-47875D03*
X59100Y-47125D03*
X52100Y-47975D03*
X52100Y-47225D03*
G54D22*
X39825Y-38100D03*
X40575Y-38100D03*
X51625Y-32600D03*
X52375Y-32600D03*
X51625Y-36800D03*
X52375Y-36800D03*
G54D15*
X48800Y-36600D03*
G54D14*
X47800Y-36600D03*
X46800Y-36600D03*
X45800Y-36600D03*
X45800Y-39600D03*
X46800Y-39600D03*
X47800Y-39600D03*
X48800Y-39600D03*
X50100Y-41600D03*
X50100Y-42600D03*
X50100Y-43600D03*
X50100Y-44600D03*
X50100Y-45600D03*
X50100Y-46600D03*
X50100Y-47600D03*
X50100Y-48600D03*
X50100Y-49600D03*
X50100Y-50600D03*
X50100Y-51600D03*
X50100Y-52600D03*
X50100Y-53600D03*
G54D15*
X50100Y-40600D03*
G54D14*
X53100Y-53600D03*
X53100Y-52600D03*
X53100Y-51600D03*
X53100Y-50600D03*
X53100Y-49600D03*
X53100Y-48600D03*
X53100Y-47600D03*
X53100Y-46600D03*
X53100Y-45600D03*
X53100Y-44600D03*
X53100Y-43600D03*
X53100Y-42600D03*
X53100Y-41600D03*
X53100Y-40600D03*
X56900Y-41600D03*
X56900Y-42600D03*
X56900Y-43600D03*
X56900Y-44600D03*
X56900Y-45600D03*
X56900Y-46600D03*
X56900Y-47600D03*
X56900Y-48600D03*
X56900Y-49600D03*
X56900Y-50600D03*
X56900Y-51600D03*
X56900Y-52600D03*
X56900Y-53600D03*
G54D15*
X56900Y-40600D03*
G54D14*
X59900Y-53600D03*
X59900Y-52600D03*
X59900Y-51600D03*
X59900Y-50600D03*
X59900Y-49600D03*
X59900Y-48600D03*
X59900Y-47600D03*
X59900Y-46600D03*
X59900Y-45600D03*
X59900Y-44600D03*
X59900Y-43600D03*
X59900Y-42600D03*
X59900Y-41600D03*
X59900Y-40600D03*
X59900Y-36800D03*
X59900Y-35800D03*
X59900Y-34800D03*
X59900Y-33800D03*
X59900Y-32800D03*
X59900Y-31800D03*
X59900Y-30800D03*
X59900Y-29800D03*
X59900Y-28800D03*
X59900Y-27800D03*
X59900Y-26800D03*
X59900Y-25800D03*
X59900Y-24800D03*
G54D15*
X59900Y-37800D03*
G54D14*
X56900Y-24800D03*
X56900Y-25800D03*
X56900Y-26800D03*
X56900Y-27800D03*
X56900Y-28800D03*
X56900Y-29800D03*
X56900Y-30800D03*
X56900Y-31800D03*
X56900Y-32800D03*
X56900Y-33800D03*
X56900Y-34800D03*
X56900Y-35800D03*
X56900Y-36800D03*
X56900Y-37800D03*
G54D24*
X52200Y-33460D03*
X52200Y-35940D03*
G54D23*
X45800Y-38475D03*
X45800Y-37725D03*
G54D13*
X61400Y-54100D03*
X40200Y-54100D03*
X61400Y-24000D03*
X40200Y-24000D03*
G54D14*
X56000Y-27900D03*
X56000Y-28900D03*
X56000Y-29800D03*
X56000Y-26800D03*
X60700Y-50600D03*
G54D25*
X54725Y-26800D02*
X54800Y-26800D01*
X54800Y-26800D02*
X55400Y-26200D01*
X45800Y-39600D02*
X45800Y-38475D01*
X56501Y-38199D02*
X54401Y-38199D01*
X56900Y-37800D02*
X56501Y-38199D01*
X54300Y-38300D02*
X53324Y-38300D01*
X54401Y-38199D02*
X54300Y-38300D01*
X53100Y-40600D02*
X53100Y-41600D01*
X54100Y-46600D02*
X54500Y-46600D01*
X58700Y-46600D02*
X59900Y-46600D01*
X58200Y-47100D02*
X58700Y-46600D01*
X56500Y-47100D02*
X58200Y-47100D01*
X55900Y-46500D02*
X56500Y-47100D01*
X54600Y-46500D02*
X55900Y-46500D01*
X54500Y-46600D02*
X54600Y-46500D01*
X58600Y-47125D02*
X58600Y-47400D01*
X54100Y-48200D02*
X54100Y-46600D01*
X54600Y-48700D02*
X54100Y-48200D01*
X55900Y-48700D02*
X54600Y-48700D01*
X56500Y-48100D02*
X55900Y-48700D01*
X57900Y-48100D02*
X56500Y-48100D01*
X58600Y-47400D02*
X57900Y-48100D01*
X53100Y-46600D02*
X54100Y-46600D01*
X58600Y-47125D02*
X59100Y-47125D01*
X59900Y-40600D02*
X59900Y-41600D01*
X56900Y-37800D02*
X56900Y-36800D01*
X51625Y-36800D02*
X51625Y-36925D01*
X51625Y-36925D02*
X52900Y-38200D01*
X52900Y-38200D02*
X53324Y-38200D01*
X51625Y-32600D02*
X51500Y-32600D01*
X51500Y-32600D02*
X50700Y-31800D01*
X59498Y-47002D02*
X59900Y-46600D01*
X59498Y-47125D02*
X59498Y-47002D01*
X59100Y-47125D02*
X59498Y-47125D01*
X57700Y-30775D02*
X57700Y-31073D01*
X54725Y-28900D02*
X54725Y-27900D01*
X54725Y-29800D02*
X54725Y-28900D01*
X45400Y-28600D02*
X46600Y-28600D01*
X57100Y-37800D02*
X56900Y-37800D01*
X59900Y-40600D02*
X57100Y-37800D01*
X53324Y-40376D02*
X53324Y-38300D01*
X53100Y-40600D02*
X53324Y-40376D01*
X53324Y-38300D02*
X53324Y-38200D01*
X53324Y-38200D02*
X53324Y-38199D01*
X52100Y-47225D02*
X52100Y-46927D01*
X52100Y-46927D02*
X52764Y-46263D01*
X52701Y-46201D02*
X52764Y-46263D01*
X53100Y-41600D02*
X52701Y-41999D01*
X52701Y-41999D02*
X52701Y-46201D01*
X52764Y-46263D02*
X53100Y-46600D01*
X50301Y-33300D02*
X48700Y-33300D01*
X50301Y-32199D02*
X50700Y-31800D01*
X50301Y-33300D02*
X50301Y-32199D01*
X54427Y-30073D02*
X54427Y-29800D01*
X53700Y-30800D02*
X54427Y-30073D01*
X54725Y-29800D02*
X54427Y-29800D01*
X54725Y-29800D02*
X55023Y-29800D01*
X56900Y-31555D02*
X56900Y-31800D01*
X57382Y-31073D02*
X56900Y-31555D01*
X57700Y-31073D02*
X57382Y-31073D01*
X55023Y-30098D02*
X55023Y-29800D01*
X56480Y-31555D02*
X55023Y-30098D01*
X56900Y-31555D02*
X56480Y-31555D01*
X46500Y-33300D02*
X45300Y-33300D01*
X39825Y-37025D02*
X39825Y-38100D01*
X39800Y-37000D02*
X39825Y-37025D01*
X46800Y-25800D02*
X48500Y-25800D01*
X48500Y-25800D02*
X49700Y-25800D01*
X56284Y-35216D02*
X53700Y-37800D01*
X57280Y-35216D02*
X56284Y-35216D01*
X57308Y-35188D02*
X57280Y-35216D01*
X57308Y-34208D02*
X57308Y-35188D01*
X56900Y-33800D02*
X57308Y-34208D01*
X59400Y-44100D02*
X59900Y-44600D01*
X53100Y-44600D02*
X54174Y-43526D01*
X54174Y-43526D02*
X55751Y-43526D01*
X55751Y-43526D02*
X56325Y-44100D01*
X56325Y-44100D02*
X59400Y-44100D01*
X47556Y-29944D02*
X50700Y-26800D01*
X47556Y-34844D02*
X47556Y-29944D01*
X45800Y-36600D02*
X47556Y-34844D01*
X55204Y-27221D02*
X55079Y-27221D01*
X53764Y-27300D02*
X52200Y-27300D01*
X56321Y-27221D02*
X55204Y-27221D01*
X56900Y-27800D02*
X56321Y-27221D01*
X52200Y-27300D02*
X50700Y-28800D01*
X55000Y-27300D02*
X53764Y-27300D01*
X55079Y-27221D02*
X55000Y-27300D01*
X59400Y-50100D02*
X59900Y-50600D01*
X56225Y-50100D02*
X59400Y-50100D01*
X55451Y-49326D02*
X56225Y-50100D01*
X54374Y-49326D02*
X55451Y-49326D01*
X53100Y-50600D02*
X54374Y-49326D01*
X49991Y-35509D02*
X50700Y-34800D01*
X49991Y-38332D02*
X49991Y-35509D01*
X50659Y-39000D02*
X49991Y-38332D01*
X50659Y-50159D02*
X50659Y-39000D01*
X53100Y-52600D02*
X50659Y-50159D01*
X52773Y-48273D02*
X53100Y-48600D01*
X52100Y-48273D02*
X52773Y-48273D01*
X52100Y-47975D02*
X52100Y-48273D01*
X55475Y-27900D02*
X56000Y-27900D01*
X55475Y-28900D02*
X56000Y-28900D01*
X55475Y-29800D02*
X56000Y-29800D01*
X49600Y-30900D02*
X50700Y-29800D01*
X49600Y-31600D02*
X49600Y-30900D01*
X54800Y-34800D02*
X53700Y-34800D01*
X56000Y-26800D02*
X55475Y-26800D01*
X53600Y-46100D02*
X53100Y-45600D01*
X59400Y-46100D02*
X53600Y-46100D01*
X59900Y-45600D02*
X59400Y-46100D01*
X50259Y-36241D02*
X50700Y-35800D01*
X50259Y-38234D02*
X50259Y-36241D01*
X50919Y-38894D02*
X50259Y-38234D01*
X50919Y-50008D02*
X50919Y-38894D01*
X52927Y-52016D02*
X50919Y-50008D01*
X59316Y-52016D02*
X52927Y-52016D01*
X59900Y-52600D02*
X59316Y-52016D01*
X44308Y-48558D02*
X44900Y-49150D01*
X44308Y-43242D02*
X44308Y-48558D01*
X44900Y-42650D02*
X44308Y-43242D01*
X45420Y-50630D02*
X44900Y-51150D01*
X45420Y-45170D02*
X45420Y-50630D01*
X44900Y-44650D02*
X45420Y-45170D01*
X48800Y-36600D02*
X48800Y-36202D01*
X51301Y-26401D02*
X50700Y-25800D01*
X51301Y-27946D02*
X51301Y-26401D01*
X50947Y-28300D02*
X51301Y-27946D01*
X50454Y-28300D02*
X50947Y-28300D01*
X48137Y-30617D02*
X50454Y-28300D01*
X48137Y-35539D02*
X48137Y-30617D01*
X48800Y-36202D02*
X48137Y-35539D01*
X59473Y-48173D02*
X59900Y-48600D01*
X59100Y-48173D02*
X59473Y-48173D01*
X59100Y-47875D02*
X59100Y-48173D01*
X50700Y-24800D02*
X50700Y-25198D01*
X40575Y-37480D02*
X40575Y-38100D01*
X41543Y-36512D02*
X40575Y-37480D01*
X42395Y-36512D02*
X41543Y-36512D01*
X43188Y-35719D02*
X42395Y-36512D01*
X43188Y-35225D02*
X43188Y-35719D01*
X44625Y-33788D02*
X43188Y-35225D01*
X44625Y-33385D02*
X44625Y-33788D01*
X45341Y-32669D02*
X44625Y-33385D01*
X45867Y-32669D02*
X45341Y-32669D01*
X45895Y-32641D02*
X45867Y-32669D01*
X45895Y-31101D02*
X45895Y-32641D01*
X46100Y-30600D02*
X45895Y-31101D01*
X46700Y-30500D02*
X46100Y-30600D01*
X50302Y-26945D02*
X46700Y-30500D01*
X50302Y-25596D02*
X50302Y-26945D01*
X50700Y-25198D02*
X50302Y-25596D01*
X40302Y-38498D02*
X39800Y-39000D01*
X40575Y-38498D02*
X40302Y-38498D01*
X40575Y-38100D02*
X40575Y-38498D01*
X57125Y-30025D02*
X56900Y-29800D01*
X57700Y-30025D02*
X57125Y-30025D01*
X50700Y-32800D02*
X50800Y-32800D01*
X50800Y-32800D02*
X51460Y-33460D01*
X51460Y-33460D02*
X52200Y-33460D01*
X52200Y-33460D02*
X52375Y-33285D01*
X52375Y-33285D02*
X52375Y-32600D01*
X52375Y-36800D02*
X52375Y-36115D01*
X52375Y-36115D02*
X52200Y-35940D01*
X50700Y-33800D02*
X51100Y-33800D01*
X51100Y-33800D02*
X51200Y-33900D01*
X51200Y-33900D02*
X51200Y-34940D01*
X51200Y-34940D02*
X52375Y-36115D01*
X55900Y-33800D02*
X53700Y-33800D01*
X56900Y-34800D02*
X55900Y-33800D01*
X53600Y-43100D02*
X53100Y-43600D01*
X59400Y-43100D02*
X53600Y-43100D01*
X59900Y-43600D02*
X59400Y-43100D01*
X46075Y-41975D02*
X45900Y-42150D01*
X46075Y-40800D02*
X46075Y-41975D01*
X46553Y-47997D02*
X45900Y-48650D01*
X46553Y-42803D02*
X46553Y-47997D01*
X45900Y-42150D02*
X46553Y-42803D01*
X56481Y-51116D02*
X60184Y-51116D01*
X56481Y-51116D02*
X55897Y-51700D01*
X53200Y-51700D02*
X55897Y-51700D01*
X60184Y-51116D02*
X60700Y-50600D01*
X53200Y-51700D02*
X53100Y-51600D01*
X45800Y-37725D02*
X45800Y-37600D01*
X45800Y-37600D02*
X46800Y-36600D01*
X46800Y-36600D02*
X47800Y-36600D01*
X47800Y-30700D02*
X50700Y-27800D01*
X47800Y-36600D02*
X47800Y-30700D01*
X44900Y-41650D02*
X44900Y-41900D01*
X44900Y-45420D02*
X44900Y-48150D01*
X44480Y-45000D02*
X44900Y-45420D01*
X44480Y-44338D02*
X44480Y-45000D01*
X44772Y-44155D02*
X44480Y-44338D01*
X45145Y-44155D02*
X44772Y-44155D01*
X45400Y-43900D02*
X45145Y-44155D01*
X45400Y-42400D02*
X45400Y-43900D01*
X44900Y-41900D02*
X45400Y-42400D01*
X45325Y-40800D02*
X45447Y-40800D01*
X44900Y-41700D02*
X44900Y-41700D01*
X45447Y-40800D02*
X44900Y-41700D01*
X44900Y-41650D02*
X44900Y-41700D01*
X46075Y-40172D02*
X45447Y-40800D01*
X47228Y-40172D02*
X46075Y-40172D01*
X47800Y-39600D02*
X47228Y-40172D01*
X53650Y-48150D02*
X53650Y-49050D01*
X53100Y-47600D02*
X53650Y-48150D01*
X59350Y-49050D02*
X53650Y-49050D01*
X59900Y-49600D02*
X59350Y-49050D01*
X53650Y-49050D02*
X53100Y-49600D01*
X51700Y-31800D02*
X53700Y-31800D01*
X50700Y-30800D02*
X51700Y-31800D01*
X40909Y-23225D02*
X60690Y-23225D01*
X40989Y-23305D02*
X60610Y-23305D01*
X41069Y-23385D02*
X60530Y-23385D01*
X41114Y-23465D02*
X60485Y-23465D01*
X41147Y-23545D02*
X60451Y-23545D01*
X41180Y-23625D02*
X60418Y-23625D01*
X41213Y-23705D02*
X60385Y-23705D01*
X41247Y-23785D02*
X60352Y-23785D01*
X41250Y-23865D02*
X60350Y-23865D01*
X41250Y-23945D02*
X60350Y-23945D01*
X41250Y-24025D02*
X60350Y-24025D01*
X41250Y-24105D02*
X60350Y-24105D01*
X41250Y-24185D02*
X60350Y-24185D01*
X41228Y-24265D02*
X46526Y-24265D01*
X47073Y-24265D02*
X60374Y-24265D01*
X41194Y-24345D02*
X46408Y-24345D01*
X47192Y-24345D02*
X50253Y-24345D01*
X51147Y-24345D02*
X53427Y-24345D01*
X53973Y-24345D02*
X54353Y-24345D01*
X55247Y-24345D02*
X56627Y-24345D01*
X57173Y-24345D02*
X59627Y-24345D01*
X60173Y-24345D02*
X60407Y-24345D01*
X41161Y-24425D02*
X46328Y-24425D01*
X47272Y-24425D02*
X50196Y-24425D01*
X51202Y-24425D02*
X53332Y-24425D01*
X54067Y-24425D02*
X54296Y-24425D01*
X55302Y-24425D02*
X56532Y-24425D01*
X57267Y-24425D02*
X59532Y-24425D01*
X60267Y-24425D02*
X60440Y-24425D01*
X41128Y-24505D02*
X46273Y-24505D01*
X47326Y-24505D02*
X50176Y-24505D01*
X51224Y-24505D02*
X53253Y-24505D01*
X54145Y-24505D02*
X54276Y-24505D01*
X55324Y-24505D02*
X56453Y-24505D01*
X57345Y-24505D02*
X59453Y-24505D01*
X60345Y-24505D02*
X60474Y-24505D01*
X41095Y-24585D02*
X46240Y-24585D01*
X47359Y-24585D02*
X50176Y-24585D01*
X51224Y-24585D02*
X53220Y-24585D01*
X54178Y-24585D02*
X54276Y-24585D01*
X55324Y-24585D02*
X56420Y-24585D01*
X57378Y-24585D02*
X59420Y-24585D01*
X60378Y-24585D02*
X60507Y-24585D01*
X41020Y-24665D02*
X46207Y-24665D01*
X47392Y-24665D02*
X50176Y-24665D01*
X51224Y-24665D02*
X53187Y-24665D01*
X54212Y-24665D02*
X54276Y-24665D01*
X55324Y-24665D02*
X56387Y-24665D01*
X57412Y-24665D02*
X59387Y-24665D01*
X60412Y-24665D02*
X60581Y-24665D01*
X39425Y-24745D02*
X39461Y-24745D01*
X40940Y-24745D02*
X46201Y-24745D01*
X47399Y-24745D02*
X50176Y-24745D01*
X51224Y-24745D02*
X53175Y-24745D01*
X54225Y-24745D02*
X54276Y-24745D01*
X55324Y-24745D02*
X56375Y-24745D01*
X57425Y-24745D02*
X59375Y-24745D01*
X60425Y-24745D02*
X60661Y-24745D01*
X39425Y-24825D02*
X39541Y-24825D01*
X40860Y-24825D02*
X46201Y-24825D01*
X47399Y-24825D02*
X50176Y-24825D01*
X51224Y-24825D02*
X53175Y-24825D01*
X54225Y-24825D02*
X54276Y-24825D01*
X55324Y-24825D02*
X56375Y-24825D01*
X57425Y-24825D02*
X59375Y-24825D01*
X60425Y-24825D02*
X60741Y-24825D01*
X39425Y-24905D02*
X39642Y-24905D01*
X40758Y-24905D02*
X46201Y-24905D01*
X47399Y-24905D02*
X50176Y-24905D01*
X51224Y-24905D02*
X53176Y-24905D01*
X54225Y-24905D02*
X54276Y-24905D01*
X55324Y-24905D02*
X56376Y-24905D01*
X57425Y-24905D02*
X59376Y-24905D01*
X60425Y-24905D02*
X60842Y-24905D01*
X39425Y-24985D02*
X39834Y-24985D01*
X40565Y-24985D02*
X46229Y-24985D01*
X47372Y-24985D02*
X47399Y-24985D01*
X47399Y-24985D02*
X50176Y-24985D01*
X51224Y-24985D02*
X53209Y-24985D01*
X54192Y-24985D02*
X54276Y-24985D01*
X55324Y-24985D02*
X56409Y-24985D01*
X57392Y-24985D02*
X59409Y-24985D01*
X60392Y-24985D02*
X61005Y-24985D01*
X39425Y-25065D02*
X46262Y-25065D01*
X47339Y-25065D02*
X47399Y-25065D01*
X47399Y-25065D02*
X50176Y-25065D01*
X51224Y-25065D02*
X53242Y-25065D01*
X54159Y-25065D02*
X54276Y-25065D01*
X55324Y-25065D02*
X56442Y-25065D01*
X57359Y-25065D02*
X59442Y-25065D01*
X60359Y-25065D02*
X60813Y-25065D01*
X39425Y-25145D02*
X46298Y-25145D01*
X47302Y-25145D02*
X47399Y-25145D01*
X47399Y-25145D02*
X50185Y-25145D01*
X51216Y-25145D02*
X53303Y-25145D01*
X54098Y-25145D02*
X54285Y-25145D01*
X55316Y-25145D02*
X56503Y-25145D01*
X57298Y-25145D02*
X59503Y-25145D01*
X60298Y-25145D02*
X60670Y-25145D01*
X39425Y-25225D02*
X46378Y-25225D01*
X47222Y-25225D02*
X47399Y-25225D01*
X47399Y-25225D02*
X50223Y-25225D01*
X51177Y-25225D02*
X53383Y-25225D01*
X54018Y-25225D02*
X54323Y-25225D01*
X55277Y-25225D02*
X56583Y-25225D01*
X57218Y-25225D02*
X59583Y-25225D01*
X60218Y-25225D02*
X60590Y-25225D01*
X39425Y-25305D02*
X46458Y-25305D01*
X47142Y-25305D02*
X47399Y-25305D01*
X47399Y-25305D02*
X50167Y-25305D01*
X51070Y-25305D02*
X53523Y-25305D01*
X53878Y-25305D02*
X54405Y-25305D01*
X55195Y-25305D02*
X56723Y-25305D01*
X57078Y-25305D02*
X59723Y-25305D01*
X60078Y-25305D02*
X60510Y-25305D01*
X39425Y-25385D02*
X46648Y-25385D01*
X46953Y-25385D02*
X47399Y-25385D01*
X47399Y-25385D02*
X50089Y-25385D01*
X51027Y-25385D02*
X53372Y-25385D01*
X54027Y-25385D02*
X54313Y-25385D01*
X55286Y-25385D02*
X56572Y-25385D01*
X57227Y-25385D02*
X59572Y-25385D01*
X60227Y-25385D02*
X60430Y-25385D01*
X39425Y-25465D02*
X47399Y-25465D01*
X47399Y-25465D02*
X50035Y-25465D01*
X51107Y-25465D02*
X53292Y-25465D01*
X54107Y-25465D02*
X54280Y-25465D01*
X55319Y-25465D02*
X56492Y-25465D01*
X57307Y-25465D02*
X59492Y-25465D01*
X60307Y-25465D02*
X60384Y-25465D01*
X39425Y-25545D02*
X47399Y-25545D01*
X47399Y-25545D02*
X50012Y-25545D01*
X51162Y-25545D02*
X53237Y-25545D01*
X54162Y-25545D02*
X54276Y-25545D01*
X55324Y-25545D02*
X56437Y-25545D01*
X57362Y-25545D02*
X59437Y-25545D01*
X39425Y-25625D02*
X47399Y-25625D01*
X47399Y-25625D02*
X50002Y-25625D01*
X51195Y-25625D02*
X53204Y-25625D01*
X54195Y-25625D02*
X54276Y-25625D01*
X55324Y-25625D02*
X56404Y-25625D01*
X57395Y-25625D02*
X59404Y-25625D01*
X39425Y-25705D02*
X47399Y-25705D01*
X47399Y-25705D02*
X50002Y-25705D01*
X51225Y-25705D02*
X53175Y-25705D01*
X54225Y-25705D02*
X54276Y-25705D01*
X55324Y-25705D02*
X56375Y-25705D01*
X57425Y-25705D02*
X59375Y-25705D01*
X39425Y-25785D02*
X43673Y-25785D01*
X45927Y-25785D02*
X47399Y-25785D01*
X47399Y-25785D02*
X50002Y-25785D01*
X51225Y-25785D02*
X53175Y-25785D01*
X54225Y-25785D02*
X54276Y-25785D01*
X55324Y-25785D02*
X56375Y-25785D01*
X57425Y-25785D02*
X59375Y-25785D01*
X39425Y-25865D02*
X43622Y-25865D01*
X45977Y-25865D02*
X47399Y-25865D01*
X47399Y-25865D02*
X50002Y-25865D01*
X51225Y-25865D02*
X53175Y-25865D01*
X54225Y-25865D02*
X54276Y-25865D01*
X55324Y-25865D02*
X56375Y-25865D01*
X57425Y-25865D02*
X59375Y-25865D01*
X39425Y-25945D02*
X43606Y-25945D01*
X45994Y-25945D02*
X47399Y-25945D01*
X47399Y-25945D02*
X50002Y-25945D01*
X51269Y-25945D02*
X53192Y-25945D01*
X54209Y-25945D02*
X54276Y-25945D01*
X55324Y-25945D02*
X56392Y-25945D01*
X57409Y-25945D02*
X57553Y-25945D01*
X58447Y-25945D02*
X59392Y-25945D01*
X39425Y-26025D02*
X43606Y-26025D01*
X45994Y-26025D02*
X47399Y-26025D01*
X47399Y-26025D02*
X50002Y-26025D01*
X51349Y-26025D02*
X53226Y-26025D01*
X54176Y-26025D02*
X54276Y-26025D01*
X55324Y-26025D02*
X56426Y-26025D01*
X57376Y-26025D02*
X57496Y-26025D01*
X58502Y-26025D02*
X59426Y-26025D01*
X39425Y-26105D02*
X43606Y-26105D01*
X45994Y-26105D02*
X47399Y-26105D01*
X47399Y-26105D02*
X50002Y-26105D01*
X51429Y-26105D02*
X53263Y-26105D01*
X54138Y-26105D02*
X54276Y-26105D01*
X55324Y-26105D02*
X56463Y-26105D01*
X57338Y-26105D02*
X57476Y-26105D01*
X58524Y-26105D02*
X59463Y-26105D01*
X39425Y-26185D02*
X43606Y-26185D01*
X45994Y-26185D02*
X47399Y-26185D01*
X47399Y-26185D02*
X50002Y-26185D01*
X51509Y-26185D02*
X53343Y-26185D01*
X54058Y-26185D02*
X54302Y-26185D01*
X55299Y-26185D02*
X55324Y-26185D01*
X55324Y-26185D02*
X56543Y-26185D01*
X57258Y-26185D02*
X57476Y-26185D01*
X58524Y-26185D02*
X59543Y-26185D01*
X39425Y-26265D02*
X43606Y-26265D01*
X45994Y-26265D02*
X46526Y-26265D01*
X47073Y-26265D02*
X47399Y-26265D01*
X47399Y-26265D02*
X50002Y-26265D01*
X51563Y-26265D02*
X53451Y-26265D01*
X53948Y-26265D02*
X54363Y-26265D01*
X55237Y-26265D02*
X55324Y-26265D01*
X55324Y-26265D02*
X56651Y-26265D01*
X57148Y-26265D02*
X57476Y-26265D01*
X58524Y-26265D02*
X59651Y-26265D01*
X39425Y-26345D02*
X43606Y-26345D01*
X45994Y-26345D02*
X46408Y-26345D01*
X47192Y-26345D02*
X47399Y-26345D01*
X47399Y-26345D02*
X48227Y-26345D01*
X48773Y-26345D02*
X49427Y-26345D01*
X49973Y-26345D02*
X50002Y-26345D01*
X51589Y-26345D02*
X53427Y-26345D01*
X53974Y-26345D02*
X55128Y-26345D01*
X56273Y-26345D02*
X56627Y-26345D01*
X57174Y-26345D02*
X57476Y-26345D01*
X58524Y-26345D02*
X59627Y-26345D01*
X39425Y-26425D02*
X43606Y-26425D01*
X45994Y-26425D02*
X46328Y-26425D01*
X47272Y-26425D02*
X47399Y-26425D01*
X47399Y-26425D02*
X48132Y-26425D01*
X48867Y-26425D02*
X49332Y-26425D01*
X51601Y-26425D02*
X53332Y-26425D01*
X54067Y-26425D02*
X55071Y-26425D01*
X56367Y-26425D02*
X56532Y-26425D01*
X57267Y-26425D02*
X57476Y-26425D01*
X58524Y-26425D02*
X59532Y-26425D01*
X39425Y-26505D02*
X43606Y-26505D01*
X45994Y-26505D02*
X46273Y-26505D01*
X47326Y-26505D02*
X47399Y-26505D01*
X47399Y-26505D02*
X48053Y-26505D01*
X48945Y-26505D02*
X49253Y-26505D01*
X51601Y-26505D02*
X53253Y-26505D01*
X54145Y-26505D02*
X55051Y-26505D01*
X56445Y-26505D02*
X56453Y-26505D01*
X57345Y-26505D02*
X57476Y-26505D01*
X58524Y-26505D02*
X59453Y-26505D01*
X39425Y-26585D02*
X43606Y-26585D01*
X45994Y-26585D02*
X46240Y-26585D01*
X47359Y-26585D02*
X47399Y-26585D01*
X47399Y-26585D02*
X48020Y-26585D01*
X48978Y-26585D02*
X49220Y-26585D01*
X51601Y-26585D02*
X53220Y-26585D01*
X54178Y-26585D02*
X55051Y-26585D01*
X57378Y-26585D02*
X57476Y-26585D01*
X58524Y-26585D02*
X59420Y-26585D01*
X39425Y-26665D02*
X43606Y-26665D01*
X45994Y-26665D02*
X46207Y-26665D01*
X47392Y-26665D02*
X47399Y-26665D01*
X47399Y-26665D02*
X47987Y-26665D01*
X49012Y-26665D02*
X49187Y-26665D01*
X51601Y-26665D02*
X53187Y-26665D01*
X54212Y-26665D02*
X55051Y-26665D01*
X57412Y-26665D02*
X57476Y-26665D01*
X58524Y-26665D02*
X59387Y-26665D01*
X39425Y-26745D02*
X43606Y-26745D01*
X45994Y-26745D02*
X46201Y-26745D01*
X47399Y-26745D02*
X47975Y-26745D01*
X49025Y-26745D02*
X49175Y-26745D01*
X51601Y-26745D02*
X53175Y-26745D01*
X54225Y-26745D02*
X55051Y-26745D01*
X57425Y-26745D02*
X57485Y-26745D01*
X58516Y-26745D02*
X58524Y-26745D01*
X58524Y-26745D02*
X59375Y-26745D01*
X39425Y-26825D02*
X43606Y-26825D01*
X45994Y-26825D02*
X46201Y-26825D01*
X47399Y-26825D02*
X47975Y-26825D01*
X49025Y-26825D02*
X49175Y-26825D01*
X51601Y-26825D02*
X53175Y-26825D01*
X54225Y-26825D02*
X55051Y-26825D01*
X57425Y-26825D02*
X57523Y-26825D01*
X58477Y-26825D02*
X58524Y-26825D01*
X58524Y-26825D02*
X59375Y-26825D01*
X39425Y-26905D02*
X43606Y-26905D01*
X45994Y-26905D02*
X46201Y-26905D01*
X47399Y-26905D02*
X47976Y-26905D01*
X49025Y-26905D02*
X49025Y-26905D01*
X49025Y-26905D02*
X49176Y-26905D01*
X51601Y-26905D02*
X53176Y-26905D01*
X54225Y-26905D02*
X55051Y-26905D01*
X57425Y-26905D02*
X57630Y-26905D01*
X58370Y-26905D02*
X58524Y-26905D01*
X58524Y-26905D02*
X59376Y-26905D01*
X39425Y-26985D02*
X43606Y-26985D01*
X45994Y-26985D02*
X46229Y-26985D01*
X47372Y-26985D02*
X47399Y-26985D01*
X47399Y-26985D02*
X48009Y-26985D01*
X48992Y-26985D02*
X49025Y-26985D01*
X49025Y-26985D02*
X49209Y-26985D01*
X51601Y-26985D02*
X53208Y-26985D01*
X54192Y-26985D02*
X54901Y-26985D01*
X57392Y-26985D02*
X58524Y-26985D01*
X58524Y-26985D02*
X59409Y-26985D01*
X39425Y-27065D02*
X43606Y-27065D01*
X45994Y-27065D02*
X46262Y-27065D01*
X47339Y-27065D02*
X47399Y-27065D01*
X47399Y-27065D02*
X48042Y-27065D01*
X48959Y-27065D02*
X49025Y-27065D01*
X49025Y-27065D02*
X49242Y-27065D01*
X51601Y-27065D02*
X52022Y-27065D01*
X57359Y-27065D02*
X58524Y-27065D01*
X58524Y-27065D02*
X59442Y-27065D01*
X39425Y-27145D02*
X43606Y-27145D01*
X45994Y-27145D02*
X46298Y-27145D01*
X47302Y-27145D02*
X47399Y-27145D01*
X47399Y-27145D02*
X48103Y-27145D01*
X48898Y-27145D02*
X49025Y-27145D01*
X49025Y-27145D02*
X49303Y-27145D01*
X51601Y-27145D02*
X51931Y-27145D01*
X57298Y-27145D02*
X58524Y-27145D01*
X58524Y-27145D02*
X59503Y-27145D01*
X39425Y-27225D02*
X43606Y-27225D01*
X45994Y-27225D02*
X46378Y-27225D01*
X47222Y-27225D02*
X47399Y-27225D01*
X47399Y-27225D02*
X48183Y-27225D01*
X48818Y-27225D02*
X49025Y-27225D01*
X49025Y-27225D02*
X49383Y-27225D01*
X51601Y-27225D02*
X51851Y-27225D01*
X57218Y-27225D02*
X58524Y-27225D01*
X58524Y-27225D02*
X59583Y-27225D01*
X39425Y-27305D02*
X43606Y-27305D01*
X45994Y-27305D02*
X46458Y-27305D01*
X47142Y-27305D02*
X47399Y-27305D01*
X47399Y-27305D02*
X48347Y-27305D01*
X48653Y-27305D02*
X49025Y-27305D01*
X49025Y-27305D02*
X49510Y-27305D01*
X51601Y-27305D02*
X51771Y-27305D01*
X57078Y-27305D02*
X58524Y-27305D01*
X58524Y-27305D02*
X59723Y-27305D01*
X39425Y-27385D02*
X43606Y-27385D01*
X45994Y-27385D02*
X46648Y-27385D01*
X46953Y-27385D02*
X47399Y-27385D01*
X47399Y-27385D02*
X49025Y-27385D01*
X49025Y-27385D02*
X49429Y-27385D01*
X51601Y-27385D02*
X51691Y-27385D01*
X57227Y-27385D02*
X58524Y-27385D01*
X58524Y-27385D02*
X59572Y-27385D01*
X39425Y-27465D02*
X43606Y-27465D01*
X45994Y-27465D02*
X47399Y-27465D01*
X47399Y-27465D02*
X49025Y-27465D01*
X49025Y-27465D02*
X49348Y-27465D01*
X51601Y-27465D02*
X51611Y-27465D01*
X57307Y-27465D02*
X58524Y-27465D01*
X58524Y-27465D02*
X59492Y-27465D01*
X39425Y-27545D02*
X43606Y-27545D01*
X45994Y-27545D02*
X47399Y-27545D01*
X47399Y-27545D02*
X49025Y-27545D01*
X49025Y-27545D02*
X49267Y-27545D01*
X57362Y-27545D02*
X58524Y-27545D01*
X58524Y-27545D02*
X59437Y-27545D01*
X39425Y-27625D02*
X43606Y-27625D01*
X45994Y-27625D02*
X47399Y-27625D01*
X47399Y-27625D02*
X49025Y-27625D01*
X49025Y-27625D02*
X49186Y-27625D01*
X52299Y-27625D02*
X53203Y-27625D01*
X54195Y-27625D02*
X55051Y-27625D01*
X57395Y-27625D02*
X58524Y-27625D01*
X58524Y-27625D02*
X59404Y-27625D01*
X39425Y-27705D02*
X43063Y-27705D01*
X43538Y-27705D02*
X43606Y-27705D01*
X45994Y-27705D02*
X47399Y-27705D01*
X47399Y-27705D02*
X49025Y-27705D01*
X49025Y-27705D02*
X49105Y-27705D01*
X52219Y-27705D02*
X53175Y-27705D01*
X54225Y-27705D02*
X55051Y-27705D01*
X57425Y-27705D02*
X58524Y-27705D01*
X58524Y-27705D02*
X59375Y-27705D01*
X39425Y-27785D02*
X42870Y-27785D01*
X45994Y-27785D02*
X47399Y-27785D01*
X47399Y-27785D02*
X49023Y-27785D01*
X52139Y-27785D02*
X53175Y-27785D01*
X54225Y-27785D02*
X55051Y-27785D01*
X57425Y-27785D02*
X58524Y-27785D01*
X58524Y-27785D02*
X59375Y-27785D01*
X39425Y-27865D02*
X42677Y-27865D01*
X45994Y-27865D02*
X47399Y-27865D01*
X47399Y-27865D02*
X48942Y-27865D01*
X52059Y-27865D02*
X53175Y-27865D01*
X54225Y-27865D02*
X55051Y-27865D01*
X57425Y-27865D02*
X58524Y-27865D01*
X58524Y-27865D02*
X59375Y-27865D01*
X39425Y-27945D02*
X42565Y-27945D01*
X45974Y-27945D02*
X45994Y-27945D01*
X45994Y-27945D02*
X47399Y-27945D01*
X47399Y-27945D02*
X48861Y-27945D01*
X51979Y-27945D02*
X53192Y-27945D01*
X54209Y-27945D02*
X55051Y-27945D01*
X57409Y-27945D02*
X58524Y-27945D01*
X58524Y-27945D02*
X59392Y-27945D01*
X39425Y-28025D02*
X42485Y-28025D01*
X45917Y-28025D02*
X45994Y-28025D01*
X45994Y-28025D02*
X47399Y-28025D01*
X47399Y-28025D02*
X48780Y-28025D01*
X51899Y-28025D02*
X53226Y-28025D01*
X54176Y-28025D02*
X55051Y-28025D01*
X57376Y-28025D02*
X58524Y-28025D01*
X58524Y-28025D02*
X59426Y-28025D01*
X39425Y-28105D02*
X42405Y-28105D01*
X44194Y-28105D02*
X45994Y-28105D01*
X45994Y-28105D02*
X47399Y-28105D01*
X47399Y-28105D02*
X48699Y-28105D01*
X51819Y-28105D02*
X53263Y-28105D01*
X54138Y-28105D02*
X55051Y-28105D01*
X57338Y-28105D02*
X58524Y-28105D01*
X58524Y-28105D02*
X59463Y-28105D01*
X39425Y-28185D02*
X42325Y-28185D01*
X44274Y-28185D02*
X45994Y-28185D01*
X45994Y-28185D02*
X47399Y-28185D01*
X47399Y-28185D02*
X48618Y-28185D01*
X51739Y-28185D02*
X53343Y-28185D01*
X54058Y-28185D02*
X55051Y-28185D01*
X57258Y-28185D02*
X58524Y-28185D01*
X58524Y-28185D02*
X59543Y-28185D01*
X39425Y-28265D02*
X42269Y-28265D01*
X44329Y-28265D02*
X45994Y-28265D01*
X45994Y-28265D02*
X47399Y-28265D01*
X47399Y-28265D02*
X48537Y-28265D01*
X51659Y-28265D02*
X53451Y-28265D01*
X53948Y-28265D02*
X55068Y-28265D01*
X57148Y-28265D02*
X58524Y-28265D01*
X58524Y-28265D02*
X59651Y-28265D01*
X39425Y-28345D02*
X42236Y-28345D01*
X44363Y-28345D02*
X45994Y-28345D01*
X45994Y-28345D02*
X47399Y-28345D01*
X47399Y-28345D02*
X48455Y-28345D01*
X51579Y-28345D02*
X53427Y-28345D01*
X53974Y-28345D02*
X55118Y-28345D01*
X57174Y-28345D02*
X58524Y-28345D01*
X58524Y-28345D02*
X59627Y-28345D01*
X39425Y-28425D02*
X42203Y-28425D01*
X44396Y-28425D02*
X45994Y-28425D01*
X45994Y-28425D02*
X47399Y-28425D01*
X47399Y-28425D02*
X48374Y-28425D01*
X51499Y-28425D02*
X53332Y-28425D01*
X54067Y-28425D02*
X55148Y-28425D01*
X57267Y-28425D02*
X58524Y-28425D01*
X58524Y-28425D02*
X59532Y-28425D01*
X39425Y-28505D02*
X42170Y-28505D01*
X44429Y-28505D02*
X45994Y-28505D01*
X45994Y-28505D02*
X47399Y-28505D01*
X47399Y-28505D02*
X48293Y-28505D01*
X51419Y-28505D02*
X53253Y-28505D01*
X54145Y-28505D02*
X55080Y-28505D01*
X57345Y-28505D02*
X58524Y-28505D01*
X58524Y-28505D02*
X59453Y-28505D01*
X39425Y-28585D02*
X42136Y-28585D01*
X44462Y-28585D02*
X45994Y-28585D01*
X45994Y-28585D02*
X47399Y-28585D01*
X47399Y-28585D02*
X48212Y-28585D01*
X51339Y-28585D02*
X53220Y-28585D01*
X54178Y-28585D02*
X55051Y-28585D01*
X57378Y-28585D02*
X58524Y-28585D01*
X58524Y-28585D02*
X59420Y-28585D01*
X39425Y-28665D02*
X42105Y-28665D01*
X44495Y-28665D02*
X45994Y-28665D01*
X45994Y-28665D02*
X47399Y-28665D01*
X47399Y-28665D02*
X48131Y-28665D01*
X51259Y-28665D02*
X53187Y-28665D01*
X54212Y-28665D02*
X55051Y-28665D01*
X57412Y-28665D02*
X58524Y-28665D01*
X58524Y-28665D02*
X59387Y-28665D01*
X39425Y-28745D02*
X42105Y-28745D01*
X44495Y-28745D02*
X45994Y-28745D01*
X45994Y-28745D02*
X47399Y-28745D01*
X47399Y-28745D02*
X48050Y-28745D01*
X51225Y-28745D02*
X53175Y-28745D01*
X54225Y-28745D02*
X55051Y-28745D01*
X57425Y-28745D02*
X58524Y-28745D01*
X58524Y-28745D02*
X59375Y-28745D01*
X39425Y-28825D02*
X42105Y-28825D01*
X44495Y-28825D02*
X45994Y-28825D01*
X45994Y-28825D02*
X47399Y-28825D01*
X47399Y-28825D02*
X47969Y-28825D01*
X51225Y-28825D02*
X53175Y-28825D01*
X54225Y-28825D02*
X55051Y-28825D01*
X57425Y-28825D02*
X58524Y-28825D01*
X58524Y-28825D02*
X59375Y-28825D01*
X39425Y-28905D02*
X42105Y-28905D01*
X44495Y-28905D02*
X45994Y-28905D01*
X45994Y-28905D02*
X47399Y-28905D01*
X47399Y-28905D02*
X47887Y-28905D01*
X51225Y-28905D02*
X53176Y-28905D01*
X54225Y-28905D02*
X55051Y-28905D01*
X57425Y-28905D02*
X58524Y-28905D01*
X58524Y-28905D02*
X59376Y-28905D01*
X39425Y-28985D02*
X42105Y-28985D01*
X44495Y-28985D02*
X45994Y-28985D01*
X45994Y-28985D02*
X47399Y-28985D01*
X47399Y-28985D02*
X47806Y-28985D01*
X50193Y-28985D02*
X50209Y-28985D01*
X51192Y-28985D02*
X53209Y-28985D01*
X54192Y-28985D02*
X55051Y-28985D01*
X57392Y-28985D02*
X58524Y-28985D01*
X58524Y-28985D02*
X59409Y-28985D01*
X39425Y-29065D02*
X42105Y-29065D01*
X44495Y-29065D02*
X45994Y-29065D01*
X45994Y-29065D02*
X47399Y-29065D01*
X47399Y-29065D02*
X47725Y-29065D01*
X50113Y-29065D02*
X50242Y-29065D01*
X51159Y-29065D02*
X53242Y-29065D01*
X54159Y-29065D02*
X55051Y-29065D01*
X57359Y-29065D02*
X58524Y-29065D01*
X58524Y-29065D02*
X59442Y-29065D01*
X39425Y-29145D02*
X42109Y-29145D01*
X44493Y-29145D02*
X45127Y-29145D01*
X45673Y-29145D02*
X45994Y-29145D01*
X45994Y-29145D02*
X46327Y-29145D01*
X46873Y-29145D02*
X47399Y-29145D01*
X47399Y-29145D02*
X47644Y-29145D01*
X50033Y-29145D02*
X50303Y-29145D01*
X51098Y-29145D02*
X53303Y-29145D01*
X54098Y-29145D02*
X55051Y-29145D01*
X57298Y-29145D02*
X58524Y-29145D01*
X58524Y-29145D02*
X59503Y-29145D01*
X39425Y-29225D02*
X42142Y-29225D01*
X44459Y-29225D02*
X45032Y-29225D01*
X45767Y-29225D02*
X45994Y-29225D01*
X45994Y-29225D02*
X46232Y-29225D01*
X46967Y-29225D02*
X47399Y-29225D01*
X47399Y-29225D02*
X47563Y-29225D01*
X49953Y-29225D02*
X50383Y-29225D01*
X51018Y-29225D02*
X53383Y-29225D01*
X54018Y-29225D02*
X55052Y-29225D01*
X57218Y-29225D02*
X58524Y-29225D01*
X58524Y-29225D02*
X59583Y-29225D01*
X39425Y-29305D02*
X42175Y-29305D01*
X44426Y-29305D02*
X44953Y-29305D01*
X45845Y-29305D02*
X45994Y-29305D01*
X45994Y-29305D02*
X46153Y-29305D01*
X47045Y-29305D02*
X47399Y-29305D01*
X47399Y-29305D02*
X47482Y-29305D01*
X49873Y-29305D02*
X50523Y-29305D01*
X50878Y-29305D02*
X53523Y-29305D01*
X53878Y-29305D02*
X55085Y-29305D01*
X57078Y-29305D02*
X58524Y-29305D01*
X58524Y-29305D02*
X59723Y-29305D01*
X39425Y-29385D02*
X42208Y-29385D01*
X44393Y-29385D02*
X44920Y-29385D01*
X45878Y-29385D02*
X45994Y-29385D01*
X45994Y-29385D02*
X46120Y-29385D01*
X47078Y-29385D02*
X47399Y-29385D01*
X47399Y-29385D02*
X47401Y-29385D01*
X49793Y-29385D02*
X50372Y-29385D01*
X51027Y-29385D02*
X53372Y-29385D01*
X54027Y-29385D02*
X55088Y-29385D01*
X57227Y-29385D02*
X58524Y-29385D01*
X58524Y-29385D02*
X59572Y-29385D01*
X39425Y-29465D02*
X42241Y-29465D01*
X44360Y-29465D02*
X44887Y-29465D01*
X45912Y-29465D02*
X45994Y-29465D01*
X45994Y-29465D02*
X46087Y-29465D01*
X47112Y-29465D02*
X47320Y-29465D01*
X49713Y-29465D02*
X50292Y-29465D01*
X51107Y-29465D02*
X53292Y-29465D01*
X54107Y-29465D02*
X55055Y-29465D01*
X57307Y-29465D02*
X58524Y-29465D01*
X58524Y-29465D02*
X59492Y-29465D01*
X39425Y-29545D02*
X42275Y-29545D01*
X44327Y-29545D02*
X44875Y-29545D01*
X45925Y-29545D02*
X45994Y-29545D01*
X45994Y-29545D02*
X46075Y-29545D01*
X47125Y-29545D02*
X47239Y-29545D01*
X49633Y-29545D02*
X50237Y-29545D01*
X51162Y-29545D02*
X53237Y-29545D01*
X54162Y-29545D02*
X55051Y-29545D01*
X57362Y-29545D02*
X58524Y-29545D01*
X58524Y-29545D02*
X59437Y-29545D01*
X39425Y-29625D02*
X42336Y-29625D01*
X44265Y-29625D02*
X44875Y-29625D01*
X45925Y-29625D02*
X45994Y-29625D01*
X45994Y-29625D02*
X46075Y-29625D01*
X47125Y-29625D02*
X47158Y-29625D01*
X49553Y-29625D02*
X50204Y-29625D01*
X51195Y-29625D02*
X53204Y-29625D01*
X54195Y-29625D02*
X55051Y-29625D01*
X58082Y-29625D02*
X58524Y-29625D01*
X58524Y-29625D02*
X59404Y-29625D01*
X39425Y-29705D02*
X42416Y-29705D01*
X44185Y-29705D02*
X44876Y-29705D01*
X45925Y-29705D02*
X45925Y-29705D01*
X45925Y-29705D02*
X45994Y-29705D01*
X45994Y-29705D02*
X46076Y-29705D01*
X49473Y-29705D02*
X50175Y-29705D01*
X51225Y-29705D02*
X53175Y-29705D01*
X54225Y-29705D02*
X55051Y-29705D01*
X58182Y-29705D02*
X58524Y-29705D01*
X58524Y-29705D02*
X59375Y-29705D01*
X39425Y-29785D02*
X42496Y-29785D01*
X44105Y-29785D02*
X44909Y-29785D01*
X45892Y-29785D02*
X45925Y-29785D01*
X45925Y-29785D02*
X45994Y-29785D01*
X45994Y-29785D02*
X46109Y-29785D01*
X49393Y-29785D02*
X50175Y-29785D01*
X51225Y-29785D02*
X53175Y-29785D01*
X54225Y-29785D02*
X55051Y-29785D01*
X58217Y-29785D02*
X58524Y-29785D01*
X58524Y-29785D02*
X59375Y-29785D01*
X39425Y-29865D02*
X42576Y-29865D01*
X44025Y-29865D02*
X44942Y-29865D01*
X45859Y-29865D02*
X45925Y-29865D01*
X45925Y-29865D02*
X45994Y-29865D01*
X45994Y-29865D02*
X46142Y-29865D01*
X49313Y-29865D02*
X50175Y-29865D01*
X51225Y-29865D02*
X53175Y-29865D01*
X54225Y-29865D02*
X55051Y-29865D01*
X58224Y-29865D02*
X58524Y-29865D01*
X58524Y-29865D02*
X59375Y-29865D01*
X39425Y-29945D02*
X42701Y-29945D01*
X43899Y-29945D02*
X45003Y-29945D01*
X45798Y-29945D02*
X45925Y-29945D01*
X45925Y-29945D02*
X45994Y-29945D01*
X45994Y-29945D02*
X46203Y-29945D01*
X49233Y-29945D02*
X50130Y-29945D01*
X51209Y-29945D02*
X53192Y-29945D01*
X54209Y-29945D02*
X55051Y-29945D01*
X58224Y-29945D02*
X58524Y-29945D01*
X58524Y-29945D02*
X59392Y-29945D01*
X39425Y-30025D02*
X42894Y-30025D01*
X43706Y-30025D02*
X45083Y-30025D01*
X45718Y-30025D02*
X45925Y-30025D01*
X45925Y-30025D02*
X45994Y-30025D01*
X45994Y-30025D02*
X46283Y-30025D01*
X49153Y-30025D02*
X50050Y-30025D01*
X51176Y-30025D02*
X53226Y-30025D01*
X54176Y-30025D02*
X55051Y-30025D01*
X58224Y-30025D02*
X58524Y-30025D01*
X58524Y-30025D02*
X59426Y-30025D01*
X39425Y-30105D02*
X45247Y-30105D01*
X45553Y-30105D02*
X45925Y-30105D01*
X45925Y-30105D02*
X45994Y-30105D01*
X45994Y-30105D02*
X46447Y-30105D01*
X49073Y-30105D02*
X49970Y-30105D01*
X51138Y-30105D02*
X53263Y-30105D01*
X54138Y-30105D02*
X55051Y-30105D01*
X56438Y-30105D02*
X56463Y-30105D01*
X58224Y-30105D02*
X58524Y-30105D01*
X58524Y-30105D02*
X59463Y-30105D01*
X39425Y-30185D02*
X45925Y-30185D01*
X45925Y-30185D02*
X45994Y-30185D01*
X45994Y-30185D02*
X46590Y-30185D01*
X48993Y-30185D02*
X49890Y-30185D01*
X51058Y-30185D02*
X53343Y-30185D01*
X54058Y-30185D02*
X55077Y-30185D01*
X56358Y-30185D02*
X56543Y-30185D01*
X58224Y-30185D02*
X58524Y-30185D01*
X58524Y-30185D02*
X59543Y-30185D01*
X39425Y-30265D02*
X45925Y-30265D01*
X45925Y-30265D02*
X45994Y-30265D01*
X45994Y-30265D02*
X46282Y-30265D01*
X48913Y-30265D02*
X49810Y-30265D01*
X50948Y-30265D02*
X53451Y-30265D01*
X53949Y-30265D02*
X55138Y-30265D01*
X56249Y-30265D02*
X56651Y-30265D01*
X58218Y-30265D02*
X58524Y-30265D01*
X58524Y-30265D02*
X59651Y-30265D01*
X39425Y-30345D02*
X45925Y-30345D01*
X45925Y-30345D02*
X45943Y-30345D01*
X48833Y-30345D02*
X49730Y-30345D01*
X50974Y-30345D02*
X56627Y-30345D01*
X57173Y-30345D02*
X57218Y-30345D01*
X58182Y-30345D02*
X58524Y-30345D01*
X58524Y-30345D02*
X59627Y-30345D01*
X39425Y-30425D02*
X43760Y-30425D01*
X45840Y-30425D02*
X45857Y-30425D01*
X47204Y-30425D02*
X47256Y-30425D01*
X48753Y-30425D02*
X49650Y-30425D01*
X51067Y-30425D02*
X56532Y-30425D01*
X57267Y-30425D02*
X57318Y-30425D01*
X58083Y-30425D02*
X58524Y-30425D01*
X58524Y-30425D02*
X59532Y-30425D01*
X39425Y-30505D02*
X43653Y-30505D01*
X47123Y-30505D02*
X47256Y-30505D01*
X48673Y-30505D02*
X49570Y-30505D01*
X51145Y-30505D02*
X56453Y-30505D01*
X57345Y-30505D02*
X58524Y-30505D01*
X58524Y-30505D02*
X59453Y-30505D01*
X39425Y-30585D02*
X43614Y-30585D01*
X47042Y-30585D02*
X47256Y-30585D01*
X48593Y-30585D02*
X49490Y-30585D01*
X51178Y-30585D02*
X56420Y-30585D01*
X57378Y-30585D02*
X58524Y-30585D01*
X58524Y-30585D02*
X59420Y-30585D01*
X39425Y-30665D02*
X43606Y-30665D01*
X46961Y-30665D02*
X47256Y-30665D01*
X48513Y-30665D02*
X49410Y-30665D01*
X51212Y-30665D02*
X56387Y-30665D01*
X57412Y-30665D02*
X58524Y-30665D01*
X58524Y-30665D02*
X59387Y-30665D01*
X39425Y-30745D02*
X43606Y-30745D01*
X46887Y-30745D02*
X47256Y-30745D01*
X48437Y-30745D02*
X49349Y-30745D01*
X51225Y-30745D02*
X56375Y-30745D01*
X57425Y-30745D02*
X58524Y-30745D01*
X58524Y-30745D02*
X59375Y-30745D01*
X39425Y-30825D02*
X43606Y-30825D01*
X46954Y-30825D02*
X47256Y-30825D01*
X48437Y-30825D02*
X49315Y-30825D01*
X50099Y-30825D02*
X50175Y-30825D01*
X51225Y-30825D02*
X56375Y-30825D01*
X57425Y-30825D02*
X58524Y-30825D01*
X58524Y-30825D02*
X59375Y-30825D01*
X39425Y-30905D02*
X43606Y-30905D01*
X46987Y-30905D02*
X47256Y-30905D01*
X48437Y-30905D02*
X49300Y-30905D01*
X50019Y-30905D02*
X50176Y-30905D01*
X51229Y-30905D02*
X56376Y-30905D01*
X57425Y-30905D02*
X58524Y-30905D01*
X58524Y-30905D02*
X59376Y-30905D01*
X39425Y-30985D02*
X43606Y-30985D01*
X47020Y-30985D02*
X47256Y-30985D01*
X48437Y-30985D02*
X49300Y-30985D01*
X49939Y-30985D02*
X50209Y-30985D01*
X51309Y-30985D02*
X56409Y-30985D01*
X57392Y-30985D02*
X58524Y-30985D01*
X58524Y-30985D02*
X59409Y-30985D01*
X39425Y-31065D02*
X43606Y-31065D01*
X47025Y-31065D02*
X47256Y-31065D01*
X48437Y-31065D02*
X49300Y-31065D01*
X49900Y-31065D02*
X50242Y-31065D01*
X51389Y-31065D02*
X56442Y-31065D01*
X57359Y-31065D02*
X58524Y-31065D01*
X58524Y-31065D02*
X59442Y-31065D01*
X39425Y-31145D02*
X43606Y-31145D01*
X47025Y-31145D02*
X47256Y-31145D01*
X48437Y-31145D02*
X49153Y-31145D01*
X50047Y-31145D02*
X50303Y-31145D01*
X51469Y-31145D02*
X56503Y-31145D01*
X57298Y-31145D02*
X58524Y-31145D01*
X58524Y-31145D02*
X59503Y-31145D01*
X39425Y-31225D02*
X43606Y-31225D01*
X47017Y-31225D02*
X47256Y-31225D01*
X48437Y-31225D02*
X49096Y-31225D01*
X50102Y-31225D02*
X50383Y-31225D01*
X51549Y-31225D02*
X56583Y-31225D01*
X57218Y-31225D02*
X58524Y-31225D01*
X58524Y-31225D02*
X59583Y-31225D01*
X39425Y-31305D02*
X43606Y-31305D01*
X46984Y-31305D02*
X47256Y-31305D01*
X48437Y-31305D02*
X49076Y-31305D01*
X50124Y-31305D02*
X50547Y-31305D01*
X51629Y-31305D02*
X53523Y-31305D01*
X53877Y-31305D02*
X56747Y-31305D01*
X57053Y-31305D02*
X58524Y-31305D01*
X58524Y-31305D02*
X59723Y-31305D01*
X39425Y-31385D02*
X43606Y-31385D01*
X46951Y-31385D02*
X47256Y-31385D01*
X48437Y-31385D02*
X49076Y-31385D01*
X50124Y-31385D02*
X50861Y-31385D01*
X51709Y-31385D02*
X53372Y-31385D01*
X54027Y-31385D02*
X58524Y-31385D01*
X58524Y-31385D02*
X59572Y-31385D01*
X39425Y-31465D02*
X43606Y-31465D01*
X46878Y-31465D02*
X47256Y-31465D01*
X48437Y-31465D02*
X49076Y-31465D01*
X50124Y-31465D02*
X50941Y-31465D01*
X51789Y-31465D02*
X53292Y-31465D01*
X54107Y-31465D02*
X58524Y-31465D01*
X58524Y-31465D02*
X59492Y-31465D01*
X39425Y-31545D02*
X43606Y-31545D01*
X46195Y-31545D02*
X46202Y-31545D01*
X46797Y-31545D02*
X47256Y-31545D01*
X48437Y-31545D02*
X49076Y-31545D01*
X50124Y-31545D02*
X51021Y-31545D01*
X54162Y-31545D02*
X58524Y-31545D01*
X58524Y-31545D02*
X59437Y-31545D01*
X39425Y-31625D02*
X43606Y-31625D01*
X46195Y-31625D02*
X47256Y-31625D01*
X48437Y-31625D02*
X49076Y-31625D01*
X50124Y-31625D02*
X51101Y-31625D01*
X54195Y-31625D02*
X58524Y-31625D01*
X58524Y-31625D02*
X59404Y-31625D01*
X39425Y-31705D02*
X43606Y-31705D01*
X46195Y-31705D02*
X47256Y-31705D01*
X48437Y-31705D02*
X49076Y-31705D01*
X50124Y-31705D02*
X51181Y-31705D01*
X54225Y-31705D02*
X58524Y-31705D01*
X58524Y-31705D02*
X59375Y-31705D01*
X39425Y-31785D02*
X43606Y-31785D01*
X46195Y-31785D02*
X47256Y-31785D01*
X48437Y-31785D02*
X49076Y-31785D01*
X50124Y-31785D02*
X51261Y-31785D01*
X54225Y-31785D02*
X58524Y-31785D01*
X58524Y-31785D02*
X59375Y-31785D01*
X39425Y-31865D02*
X43606Y-31865D01*
X46195Y-31865D02*
X47256Y-31865D01*
X48437Y-31865D02*
X49076Y-31865D01*
X50124Y-31865D02*
X51341Y-31865D01*
X54225Y-31865D02*
X58524Y-31865D01*
X58524Y-31865D02*
X59375Y-31865D01*
X39425Y-31945D02*
X43606Y-31945D01*
X46195Y-31945D02*
X47256Y-31945D01*
X48437Y-31945D02*
X49085Y-31945D01*
X50116Y-31945D02*
X51421Y-31945D01*
X54209Y-31945D02*
X58524Y-31945D01*
X58524Y-31945D02*
X59392Y-31945D01*
X39425Y-32025D02*
X43606Y-32025D01*
X46195Y-32025D02*
X47256Y-32025D01*
X48437Y-32025D02*
X49123Y-32025D01*
X50077Y-32025D02*
X51508Y-32025D01*
X54176Y-32025D02*
X58524Y-32025D01*
X58524Y-32025D02*
X59426Y-32025D01*
X39425Y-32105D02*
X43606Y-32105D01*
X46195Y-32105D02*
X47256Y-32105D01*
X48437Y-32105D02*
X49230Y-32105D01*
X49970Y-32105D02*
X52080Y-32105D01*
X52669Y-32105D02*
X53262Y-32105D01*
X54138Y-32105D02*
X58524Y-32105D01*
X58524Y-32105D02*
X59463Y-32105D01*
X39425Y-32185D02*
X43606Y-32185D01*
X46195Y-32185D02*
X47256Y-32185D01*
X48437Y-32185D02*
X51988Y-32185D01*
X52761Y-32185D02*
X53342Y-32185D01*
X54058Y-32185D02*
X58524Y-32185D01*
X58524Y-32185D02*
X59543Y-32185D01*
X39425Y-32265D02*
X43606Y-32265D01*
X46195Y-32265D02*
X47256Y-32265D01*
X48437Y-32265D02*
X51955Y-32265D01*
X52794Y-32265D02*
X53451Y-32265D01*
X53948Y-32265D02*
X58524Y-32265D01*
X58524Y-32265D02*
X59651Y-32265D01*
X39425Y-32345D02*
X43606Y-32345D01*
X46195Y-32345D02*
X47256Y-32345D01*
X48437Y-32345D02*
X50427Y-32345D01*
X50973Y-32345D02*
X51951Y-32345D01*
X52799Y-32345D02*
X53427Y-32345D01*
X53974Y-32345D02*
X56627Y-32345D01*
X57173Y-32345D02*
X58524Y-32345D01*
X58524Y-32345D02*
X59627Y-32345D01*
X39425Y-32425D02*
X43014Y-32425D01*
X43586Y-32425D02*
X43606Y-32425D01*
X46195Y-32425D02*
X47256Y-32425D01*
X48437Y-32425D02*
X50332Y-32425D01*
X51067Y-32425D02*
X51951Y-32425D01*
X52799Y-32425D02*
X53332Y-32425D01*
X54067Y-32425D02*
X56532Y-32425D01*
X57267Y-32425D02*
X58524Y-32425D01*
X58524Y-32425D02*
X59532Y-32425D01*
X39425Y-32505D02*
X42821Y-32505D01*
X46195Y-32505D02*
X47256Y-32505D01*
X48437Y-32505D02*
X50253Y-32505D01*
X51145Y-32505D02*
X51951Y-32505D01*
X52799Y-32505D02*
X53253Y-32505D01*
X54145Y-32505D02*
X56453Y-32505D01*
X57345Y-32505D02*
X58524Y-32505D01*
X58524Y-32505D02*
X59453Y-32505D01*
X39425Y-32585D02*
X42628Y-32585D01*
X46195Y-32585D02*
X47256Y-32585D01*
X48437Y-32585D02*
X50220Y-32585D01*
X51178Y-32585D02*
X51951Y-32585D01*
X52799Y-32585D02*
X53220Y-32585D01*
X54178Y-32585D02*
X56420Y-32585D01*
X57378Y-32585D02*
X58524Y-32585D01*
X58524Y-32585D02*
X59420Y-32585D01*
X39425Y-32665D02*
X42545Y-32665D01*
X46190Y-32665D02*
X47256Y-32665D01*
X48437Y-32665D02*
X50187Y-32665D01*
X51212Y-32665D02*
X51951Y-32665D01*
X52799Y-32665D02*
X53187Y-32665D01*
X54212Y-32665D02*
X56387Y-32665D01*
X57412Y-32665D02*
X58524Y-32665D01*
X58524Y-32665D02*
X59387Y-32665D01*
X39425Y-32745D02*
X42465Y-32745D01*
X46175Y-32745D02*
X47256Y-32745D01*
X48437Y-32745D02*
X50175Y-32745D01*
X51225Y-32745D02*
X51951Y-32745D01*
X52799Y-32745D02*
X53175Y-32745D01*
X54225Y-32745D02*
X56375Y-32745D01*
X57425Y-32745D02*
X58524Y-32745D01*
X58524Y-32745D02*
X59375Y-32745D01*
X39425Y-32825D02*
X42385Y-32825D01*
X46126Y-32825D02*
X47256Y-32825D01*
X48437Y-32825D02*
X50175Y-32825D01*
X51249Y-32825D02*
X51578Y-32825D01*
X52822Y-32825D02*
X53175Y-32825D01*
X54225Y-32825D02*
X56375Y-32825D01*
X57425Y-32825D02*
X58524Y-32825D01*
X58524Y-32825D02*
X59375Y-32825D01*
X39425Y-32905D02*
X42305Y-32905D01*
X46044Y-32905D02*
X47256Y-32905D01*
X48437Y-32905D02*
X50176Y-32905D01*
X51329Y-32905D02*
X51509Y-32905D01*
X52890Y-32905D02*
X53176Y-32905D01*
X54225Y-32905D02*
X56376Y-32905D01*
X57425Y-32905D02*
X58524Y-32905D01*
X58524Y-32905D02*
X59376Y-32905D01*
X39425Y-32985D02*
X42261Y-32985D01*
X45449Y-32985D02*
X47256Y-32985D01*
X48437Y-32985D02*
X50209Y-32985D01*
X51409Y-32985D02*
X51479Y-32985D01*
X52921Y-32985D02*
X53209Y-32985D01*
X54192Y-32985D02*
X56409Y-32985D01*
X57392Y-32985D02*
X58524Y-32985D01*
X58524Y-32985D02*
X59409Y-32985D01*
X39425Y-33065D02*
X42228Y-33065D01*
X45369Y-33065D02*
X47256Y-33065D01*
X48437Y-33065D02*
X50242Y-33065D01*
X52921Y-33065D02*
X53242Y-33065D01*
X54159Y-33065D02*
X56442Y-33065D01*
X57359Y-33065D02*
X58524Y-33065D01*
X58524Y-33065D02*
X59442Y-33065D01*
X39425Y-33145D02*
X42194Y-33145D01*
X45289Y-33145D02*
X47256Y-33145D01*
X48437Y-33145D02*
X50303Y-33145D01*
X52921Y-33145D02*
X53303Y-33145D01*
X54098Y-33145D02*
X56503Y-33145D01*
X57298Y-33145D02*
X58524Y-33145D01*
X58524Y-33145D02*
X59503Y-33145D01*
X39425Y-33225D02*
X42161Y-33225D01*
X45209Y-33225D02*
X47256Y-33225D01*
X48437Y-33225D02*
X50383Y-33225D01*
X52921Y-33225D02*
X53383Y-33225D01*
X54018Y-33225D02*
X56583Y-33225D01*
X57218Y-33225D02*
X58524Y-33225D01*
X58524Y-33225D02*
X59583Y-33225D01*
X39425Y-33305D02*
X42128Y-33305D01*
X45129Y-33305D02*
X47256Y-33305D01*
X48437Y-33305D02*
X50523Y-33305D01*
X52921Y-33305D02*
X53523Y-33305D01*
X53878Y-33305D02*
X56723Y-33305D01*
X57078Y-33305D02*
X58524Y-33305D01*
X58524Y-33305D02*
X59723Y-33305D01*
X39425Y-33385D02*
X42105Y-33385D01*
X45049Y-33385D02*
X47256Y-33385D01*
X48437Y-33385D02*
X50372Y-33385D01*
X52921Y-33385D02*
X53372Y-33385D01*
X54027Y-33385D02*
X56572Y-33385D01*
X57227Y-33385D02*
X58524Y-33385D01*
X58524Y-33385D02*
X59572Y-33385D01*
X39425Y-33465D02*
X42105Y-33465D01*
X44969Y-33465D02*
X47256Y-33465D01*
X48437Y-33465D02*
X50292Y-33465D01*
X52921Y-33465D02*
X53292Y-33465D01*
X54107Y-33465D02*
X56492Y-33465D01*
X57307Y-33465D02*
X58524Y-33465D01*
X58524Y-33465D02*
X59492Y-33465D01*
X39425Y-33545D02*
X42105Y-33545D01*
X44925Y-33545D02*
X47256Y-33545D01*
X48437Y-33545D02*
X50237Y-33545D01*
X52921Y-33545D02*
X53237Y-33545D01*
X56047Y-33545D02*
X56437Y-33545D01*
X57362Y-33545D02*
X58524Y-33545D01*
X58524Y-33545D02*
X59437Y-33545D01*
X39425Y-33625D02*
X39811Y-33625D01*
X40590Y-33625D02*
X42105Y-33625D01*
X44925Y-33625D02*
X47256Y-33625D01*
X48437Y-33625D02*
X50204Y-33625D01*
X52921Y-33625D02*
X53204Y-33625D01*
X56149Y-33625D02*
X56404Y-33625D01*
X57395Y-33625D02*
X58524Y-33625D01*
X58524Y-33625D02*
X59404Y-33625D01*
X39425Y-33705D02*
X39618Y-33705D01*
X40782Y-33705D02*
X42105Y-33705D01*
X44925Y-33705D02*
X47256Y-33705D01*
X48437Y-33705D02*
X50175Y-33705D01*
X52921Y-33705D02*
X53175Y-33705D01*
X56229Y-33705D02*
X56375Y-33705D01*
X57425Y-33705D02*
X58524Y-33705D01*
X58524Y-33705D02*
X59375Y-33705D01*
X39425Y-33785D02*
X39530Y-33785D01*
X40869Y-33785D02*
X42105Y-33785D01*
X44925Y-33785D02*
X45171Y-33785D01*
X45429Y-33785D02*
X46371Y-33785D01*
X46629Y-33785D02*
X47256Y-33785D01*
X48437Y-33785D02*
X48521Y-33785D01*
X48877Y-33785D02*
X50175Y-33785D01*
X52921Y-33785D02*
X53175Y-33785D01*
X56309Y-33785D02*
X56375Y-33785D01*
X57425Y-33785D02*
X58524Y-33785D01*
X58524Y-33785D02*
X59375Y-33785D01*
X39425Y-33865D02*
X39450Y-33865D01*
X40949Y-33865D02*
X42117Y-33865D01*
X44910Y-33865D02*
X44992Y-33865D01*
X45607Y-33865D02*
X46192Y-33865D01*
X46807Y-33865D02*
X47256Y-33865D01*
X49034Y-33865D02*
X50175Y-33865D01*
X52921Y-33865D02*
X53175Y-33865D01*
X57425Y-33865D02*
X58524Y-33865D01*
X58524Y-33865D02*
X59375Y-33865D01*
X41029Y-33945D02*
X42150Y-33945D01*
X44874Y-33945D02*
X44912Y-33945D01*
X45687Y-33945D02*
X46112Y-33945D01*
X46887Y-33945D02*
X47256Y-33945D01*
X49114Y-33945D02*
X50192Y-33945D01*
X52921Y-33945D02*
X53192Y-33945D01*
X57469Y-33945D02*
X58524Y-33945D01*
X58524Y-33945D02*
X59392Y-33945D01*
X41097Y-34025D02*
X42183Y-34025D01*
X44812Y-34025D02*
X44845Y-34025D01*
X45754Y-34025D02*
X46045Y-34025D01*
X46954Y-34025D02*
X47256Y-34025D01*
X49174Y-34025D02*
X50226Y-34025D01*
X51500Y-34025D02*
X51514Y-34025D01*
X52887Y-34025D02*
X53226Y-34025D01*
X57539Y-34025D02*
X58524Y-34025D01*
X58524Y-34025D02*
X59426Y-34025D01*
X41131Y-34105D02*
X42217Y-34105D01*
X44732Y-34105D02*
X44812Y-34105D01*
X45787Y-34105D02*
X46012Y-34105D01*
X46987Y-34105D02*
X47256Y-34105D01*
X49207Y-34105D02*
X50263Y-34105D01*
X51500Y-34105D02*
X51590Y-34105D01*
X52811Y-34105D02*
X53263Y-34105D01*
X57587Y-34105D02*
X58524Y-34105D01*
X58524Y-34105D02*
X59463Y-34105D01*
X41164Y-34185D02*
X42250Y-34185D01*
X44652Y-34185D02*
X44779Y-34185D01*
X45820Y-34185D02*
X45979Y-34185D01*
X47020Y-34185D02*
X47256Y-34185D01*
X49241Y-34185D02*
X50343Y-34185D01*
X51500Y-34185D02*
X53343Y-34185D01*
X57602Y-34185D02*
X58524Y-34185D01*
X58524Y-34185D02*
X59543Y-34185D01*
X41197Y-34265D02*
X42283Y-34265D01*
X44572Y-34265D02*
X44775Y-34265D01*
X45825Y-34265D02*
X45975Y-34265D01*
X47025Y-34265D02*
X47256Y-34265D01*
X49244Y-34265D02*
X50451Y-34265D01*
X51500Y-34265D02*
X53451Y-34265D01*
X57608Y-34265D02*
X58524Y-34265D01*
X58524Y-34265D02*
X59651Y-34265D01*
X41230Y-34345D02*
X42356Y-34345D01*
X44492Y-34345D02*
X44775Y-34345D01*
X45825Y-34345D02*
X45975Y-34345D01*
X47025Y-34345D02*
X47256Y-34345D01*
X49244Y-34345D02*
X50427Y-34345D01*
X51500Y-34345D02*
X53427Y-34345D01*
X57608Y-34345D02*
X58524Y-34345D01*
X58524Y-34345D02*
X59627Y-34345D01*
X41250Y-34425D02*
X41811Y-34425D01*
X44412Y-34425D02*
X44784Y-34425D01*
X45817Y-34425D02*
X45825Y-34425D01*
X45825Y-34425D02*
X45984Y-34425D01*
X47017Y-34425D02*
X47025Y-34425D01*
X47025Y-34425D02*
X47256Y-34425D01*
X49237Y-34425D02*
X50332Y-34425D01*
X51500Y-34425D02*
X53332Y-34425D01*
X57608Y-34425D02*
X58524Y-34425D01*
X58524Y-34425D02*
X59532Y-34425D01*
X41250Y-34505D02*
X41618Y-34505D01*
X44332Y-34505D02*
X44817Y-34505D01*
X45784Y-34505D02*
X45825Y-34505D01*
X45825Y-34505D02*
X46017Y-34505D01*
X46984Y-34505D02*
X47025Y-34505D01*
X47025Y-34505D02*
X47256Y-34505D01*
X49204Y-34505D02*
X50253Y-34505D01*
X51500Y-34505D02*
X53253Y-34505D01*
X57608Y-34505D02*
X58524Y-34505D01*
X58524Y-34505D02*
X59453Y-34505D01*
X41250Y-34585D02*
X41530Y-34585D01*
X44252Y-34585D02*
X44851Y-34585D01*
X45751Y-34585D02*
X45825Y-34585D01*
X45825Y-34585D02*
X46051Y-34585D01*
X46951Y-34585D02*
X47025Y-34585D01*
X47025Y-34585D02*
X47256Y-34585D01*
X49171Y-34585D02*
X50220Y-34585D01*
X51500Y-34585D02*
X53220Y-34585D01*
X57608Y-34585D02*
X58524Y-34585D01*
X58524Y-34585D02*
X59420Y-34585D01*
X41250Y-34665D02*
X41450Y-34665D01*
X44546Y-34665D02*
X44923Y-34665D01*
X45678Y-34665D02*
X45825Y-34665D01*
X45825Y-34665D02*
X46123Y-34665D01*
X46878Y-34665D02*
X47025Y-34665D01*
X47025Y-34665D02*
X47256Y-34665D01*
X49104Y-34665D02*
X50187Y-34665D01*
X51500Y-34665D02*
X53187Y-34665D01*
X57608Y-34665D02*
X58524Y-34665D01*
X58524Y-34665D02*
X59387Y-34665D01*
X41250Y-34745D02*
X41370Y-34745D01*
X44738Y-34745D02*
X45002Y-34745D01*
X45597Y-34745D02*
X45825Y-34745D01*
X45825Y-34745D02*
X46202Y-34745D01*
X46797Y-34745D02*
X47025Y-34745D01*
X47025Y-34745D02*
X47231Y-34745D01*
X49024Y-34745D02*
X50175Y-34745D01*
X51500Y-34745D02*
X53175Y-34745D01*
X57608Y-34745D02*
X58524Y-34745D01*
X58524Y-34745D02*
X59375Y-34745D01*
X41244Y-34825D02*
X41301Y-34825D01*
X44909Y-34825D02*
X45825Y-34825D01*
X45825Y-34825D02*
X47025Y-34825D01*
X47025Y-34825D02*
X47151Y-34825D01*
X48437Y-34825D02*
X48547Y-34825D01*
X48854Y-34825D02*
X50175Y-34825D01*
X51509Y-34825D02*
X53175Y-34825D01*
X57608Y-34825D02*
X58524Y-34825D01*
X58524Y-34825D02*
X59375Y-34825D01*
X41211Y-34905D02*
X41268Y-34905D01*
X44989Y-34905D02*
X45825Y-34905D01*
X45825Y-34905D02*
X47025Y-34905D01*
X47025Y-34905D02*
X47071Y-34905D01*
X48437Y-34905D02*
X50170Y-34905D01*
X51589Y-34905D02*
X53176Y-34905D01*
X57608Y-34905D02*
X58524Y-34905D01*
X58524Y-34905D02*
X59376Y-34905D01*
X41178Y-34985D02*
X41235Y-34985D01*
X45069Y-34985D02*
X45825Y-34985D01*
X45825Y-34985D02*
X46991Y-34985D01*
X48437Y-34985D02*
X50090Y-34985D01*
X51669Y-34985D02*
X53209Y-34985D01*
X57608Y-34985D02*
X58524Y-34985D01*
X58524Y-34985D02*
X59409Y-34985D01*
X41145Y-35065D02*
X41201Y-35065D01*
X45149Y-35065D02*
X45825Y-35065D01*
X45825Y-35065D02*
X46911Y-35065D01*
X48437Y-35065D02*
X50010Y-35065D01*
X51749Y-35065D02*
X53242Y-35065D01*
X57608Y-35065D02*
X58524Y-35065D01*
X58524Y-35065D02*
X59442Y-35065D01*
X41111Y-35145D02*
X41168Y-35145D01*
X45206Y-35145D02*
X45825Y-35145D01*
X45825Y-35145D02*
X46831Y-35145D01*
X48437Y-35145D02*
X49930Y-35145D01*
X51829Y-35145D02*
X53303Y-35145D01*
X57608Y-35145D02*
X58524Y-35145D01*
X58524Y-35145D02*
X59503Y-35145D01*
X41060Y-35225D02*
X41150Y-35225D01*
X45239Y-35225D02*
X45825Y-35225D01*
X45825Y-35225D02*
X46751Y-35225D01*
X48437Y-35225D02*
X49850Y-35225D01*
X51017Y-35225D02*
X51061Y-35225D01*
X51909Y-35225D02*
X53383Y-35225D01*
X57600Y-35225D02*
X58524Y-35225D01*
X58524Y-35225D02*
X59583Y-35225D01*
X40980Y-35305D02*
X41150Y-35305D01*
X45272Y-35305D02*
X45825Y-35305D01*
X45825Y-35305D02*
X46671Y-35305D01*
X48437Y-35305D02*
X49773Y-35305D01*
X50878Y-35305D02*
X51141Y-35305D01*
X52822Y-35305D02*
X53523Y-35305D01*
X57584Y-35305D02*
X58524Y-35305D01*
X58524Y-35305D02*
X59723Y-35305D01*
X39425Y-35385D02*
X39501Y-35385D01*
X40900Y-35385D02*
X41150Y-35385D01*
X45305Y-35385D02*
X45825Y-35385D01*
X45825Y-35385D02*
X46591Y-35385D01*
X48437Y-35385D02*
X49720Y-35385D01*
X51027Y-35385D02*
X51221Y-35385D01*
X52890Y-35385D02*
X53372Y-35385D01*
X57531Y-35385D02*
X58524Y-35385D01*
X58524Y-35385D02*
X59572Y-35385D01*
X39425Y-35465D02*
X39581Y-35465D01*
X40820Y-35465D02*
X41150Y-35465D01*
X45338Y-35465D02*
X45825Y-35465D01*
X45825Y-35465D02*
X46511Y-35465D01*
X48488Y-35465D02*
X49699Y-35465D01*
X51107Y-35465D02*
X51301Y-35465D01*
X52921Y-35465D02*
X53292Y-35465D01*
X57437Y-35465D02*
X58524Y-35465D01*
X58524Y-35465D02*
X59492Y-35465D01*
X39425Y-35545D02*
X39738Y-35545D01*
X40662Y-35545D02*
X41150Y-35545D01*
X45350Y-35545D02*
X45825Y-35545D01*
X45825Y-35545D02*
X46431Y-35545D01*
X48568Y-35545D02*
X49691Y-35545D01*
X51162Y-35545D02*
X51381Y-35545D01*
X52921Y-35545D02*
X53237Y-35545D01*
X56379Y-35545D02*
X56437Y-35545D01*
X57362Y-35545D02*
X58524Y-35545D01*
X58524Y-35545D02*
X59437Y-35545D01*
X39425Y-35625D02*
X39930Y-35625D01*
X40469Y-35625D02*
X41158Y-35625D01*
X45350Y-35625D02*
X45825Y-35625D01*
X45825Y-35625D02*
X46351Y-35625D01*
X48648Y-35625D02*
X49691Y-35625D01*
X51195Y-35625D02*
X51461Y-35625D01*
X52921Y-35625D02*
X53204Y-35625D01*
X56299Y-35625D02*
X56403Y-35625D01*
X57395Y-35625D02*
X58524Y-35625D01*
X58524Y-35625D02*
X59404Y-35625D01*
X39425Y-35705D02*
X41191Y-35705D01*
X45350Y-35705D02*
X45825Y-35705D01*
X45825Y-35705D02*
X46271Y-35705D01*
X48728Y-35705D02*
X49691Y-35705D01*
X51225Y-35705D02*
X51479Y-35705D01*
X52921Y-35705D02*
X53175Y-35705D01*
X56219Y-35705D02*
X56375Y-35705D01*
X57425Y-35705D02*
X58524Y-35705D01*
X58524Y-35705D02*
X59375Y-35705D01*
X39425Y-35785D02*
X41224Y-35785D01*
X45350Y-35785D02*
X45825Y-35785D01*
X45825Y-35785D02*
X46191Y-35785D01*
X48808Y-35785D02*
X49691Y-35785D01*
X51225Y-35785D02*
X51479Y-35785D01*
X52921Y-35785D02*
X53175Y-35785D01*
X56139Y-35785D02*
X56375Y-35785D01*
X57425Y-35785D02*
X58524Y-35785D01*
X58524Y-35785D02*
X59375Y-35785D01*
X39425Y-35865D02*
X40526Y-35865D01*
X41073Y-35865D02*
X41257Y-35865D01*
X45350Y-35865D02*
X45825Y-35865D01*
X45825Y-35865D02*
X46111Y-35865D01*
X48888Y-35865D02*
X49691Y-35865D01*
X51225Y-35865D02*
X51479Y-35865D01*
X52921Y-35865D02*
X53175Y-35865D01*
X56059Y-35865D02*
X56375Y-35865D01*
X57425Y-35865D02*
X58524Y-35865D01*
X58524Y-35865D02*
X59375Y-35865D01*
X39425Y-35945D02*
X40408Y-35945D01*
X41192Y-35945D02*
X41290Y-35945D01*
X45336Y-35945D02*
X45825Y-35945D01*
X45825Y-35945D02*
X46031Y-35945D01*
X48968Y-35945D02*
X49691Y-35945D01*
X51209Y-35945D02*
X51479Y-35945D01*
X52921Y-35945D02*
X53192Y-35945D01*
X55979Y-35945D02*
X56392Y-35945D01*
X57409Y-35945D02*
X58524Y-35945D01*
X58524Y-35945D02*
X59392Y-35945D01*
X39425Y-36025D02*
X40328Y-36025D01*
X41272Y-36025D02*
X41341Y-36025D01*
X45303Y-36025D02*
X45825Y-36025D01*
X45825Y-36025D02*
X45951Y-36025D01*
X49035Y-36025D02*
X49691Y-36025D01*
X51176Y-36025D02*
X51479Y-36025D01*
X52921Y-36025D02*
X53226Y-36025D01*
X55899Y-36025D02*
X56426Y-36025D01*
X57376Y-36025D02*
X58524Y-36025D01*
X58524Y-36025D02*
X59426Y-36025D01*
X39425Y-36105D02*
X40273Y-36105D01*
X41326Y-36105D02*
X41421Y-36105D01*
X43225Y-36105D02*
X43332Y-36105D01*
X45269Y-36105D02*
X45623Y-36105D01*
X49194Y-36105D02*
X49691Y-36105D01*
X51138Y-36105D02*
X51479Y-36105D01*
X52921Y-36105D02*
X53263Y-36105D01*
X55819Y-36105D02*
X56463Y-36105D01*
X57338Y-36105D02*
X58524Y-36105D01*
X58524Y-36105D02*
X59463Y-36105D01*
X39425Y-36185D02*
X40240Y-36185D01*
X41359Y-36185D02*
X41501Y-36185D01*
X43145Y-36185D02*
X43365Y-36185D01*
X45236Y-36185D02*
X45472Y-36185D01*
X49286Y-36185D02*
X49691Y-36185D01*
X51058Y-36185D02*
X51479Y-36185D01*
X52921Y-36185D02*
X53343Y-36185D01*
X55739Y-36185D02*
X56543Y-36185D01*
X57258Y-36185D02*
X58524Y-36185D01*
X58524Y-36185D02*
X59543Y-36185D01*
X39425Y-36265D02*
X40207Y-36265D01*
X43065Y-36265D02*
X43398Y-36265D01*
X45203Y-36265D02*
X45392Y-36265D01*
X49319Y-36265D02*
X49691Y-36265D01*
X50948Y-36265D02*
X51479Y-36265D01*
X52921Y-36265D02*
X53451Y-36265D01*
X55659Y-36265D02*
X56651Y-36265D01*
X57149Y-36265D02*
X58524Y-36265D01*
X58524Y-36265D02*
X59651Y-36265D01*
X39425Y-36345D02*
X40201Y-36345D01*
X42985Y-36345D02*
X43461Y-36345D01*
X45140Y-36345D02*
X45337Y-36345D01*
X49324Y-36345D02*
X49691Y-36345D01*
X50974Y-36345D02*
X51479Y-36345D01*
X52921Y-36345D02*
X53427Y-36345D01*
X55579Y-36345D02*
X58524Y-36345D01*
X58524Y-36345D02*
X59627Y-36345D01*
X39425Y-36425D02*
X40201Y-36425D01*
X42905Y-36425D02*
X43541Y-36425D01*
X45060Y-36425D02*
X45304Y-36425D01*
X49324Y-36425D02*
X49691Y-36425D01*
X51067Y-36425D02*
X51481Y-36425D01*
X52921Y-36425D02*
X53332Y-36425D01*
X55499Y-36425D02*
X58524Y-36425D01*
X58524Y-36425D02*
X59532Y-36425D01*
X39425Y-36505D02*
X40201Y-36505D01*
X42825Y-36505D02*
X43621Y-36505D01*
X44980Y-36505D02*
X45275Y-36505D01*
X49324Y-36505D02*
X49691Y-36505D01*
X51145Y-36505D02*
X51514Y-36505D01*
X52887Y-36505D02*
X53253Y-36505D01*
X55419Y-36505D02*
X58524Y-36505D01*
X58524Y-36505D02*
X59453Y-36505D01*
X39425Y-36585D02*
X40229Y-36585D01*
X42745Y-36585D02*
X43701Y-36585D01*
X44900Y-36585D02*
X45275Y-36585D01*
X49324Y-36585D02*
X49691Y-36585D01*
X51178Y-36585D02*
X51590Y-36585D01*
X52811Y-36585D02*
X53220Y-36585D01*
X55339Y-36585D02*
X58524Y-36585D01*
X58524Y-36585D02*
X59420Y-36585D01*
X39425Y-36665D02*
X40262Y-36665D01*
X42849Y-36665D02*
X43886Y-36665D01*
X44714Y-36665D02*
X45275Y-36665D01*
X49324Y-36665D02*
X49691Y-36665D01*
X51212Y-36665D02*
X51951Y-36665D01*
X52799Y-36665D02*
X53187Y-36665D01*
X55259Y-36665D02*
X58524Y-36665D01*
X58524Y-36665D02*
X59387Y-36665D01*
X39425Y-36745D02*
X40298Y-36745D01*
X42929Y-36745D02*
X44078Y-36745D01*
X44521Y-36745D02*
X45292Y-36745D01*
X49324Y-36745D02*
X49691Y-36745D01*
X51225Y-36745D02*
X51951Y-36745D01*
X52799Y-36745D02*
X53175Y-36745D01*
X55179Y-36745D02*
X58524Y-36745D01*
X58524Y-36745D02*
X59375Y-36745D01*
X39425Y-36825D02*
X40378Y-36825D01*
X43009Y-36825D02*
X45326Y-36825D01*
X48276Y-36825D02*
X48276Y-36825D01*
X49324Y-36825D02*
X49691Y-36825D01*
X51225Y-36825D02*
X51951Y-36825D01*
X52799Y-36825D02*
X53175Y-36825D01*
X55099Y-36825D02*
X58524Y-36825D01*
X58524Y-36825D02*
X59375Y-36825D01*
X39425Y-36905D02*
X40458Y-36905D01*
X43089Y-36905D02*
X45363Y-36905D01*
X47237Y-36905D02*
X47362Y-36905D01*
X48238Y-36905D02*
X48276Y-36905D01*
X49324Y-36905D02*
X49691Y-36905D01*
X51225Y-36905D02*
X51951Y-36905D01*
X52799Y-36905D02*
X53176Y-36905D01*
X55019Y-36905D02*
X58524Y-36905D01*
X58524Y-36905D02*
X59376Y-36905D01*
X39425Y-36985D02*
X40645Y-36985D01*
X43122Y-36985D02*
X45443Y-36985D01*
X47157Y-36985D02*
X47442Y-36985D01*
X48158Y-36985D02*
X48302Y-36985D01*
X49299Y-36985D02*
X49691Y-36985D01*
X51192Y-36985D02*
X51951Y-36985D01*
X52799Y-36985D02*
X53209Y-36985D01*
X54939Y-36985D02*
X58524Y-36985D01*
X58524Y-36985D02*
X59409Y-36985D01*
X39425Y-37065D02*
X40565Y-37065D01*
X43155Y-37065D02*
X45551Y-37065D01*
X47049Y-37065D02*
X47551Y-37065D01*
X48049Y-37065D02*
X48363Y-37065D01*
X49237Y-37065D02*
X49691Y-37065D01*
X51159Y-37065D02*
X51951Y-37065D01*
X52799Y-37065D02*
X53242Y-37065D01*
X54859Y-37065D02*
X58524Y-37065D01*
X58524Y-37065D02*
X59442Y-37065D01*
X39425Y-37145D02*
X40485Y-37145D01*
X43189Y-37145D02*
X45831Y-37145D01*
X46679Y-37145D02*
X49691Y-37145D01*
X51098Y-37145D02*
X51960Y-37145D01*
X52791Y-37145D02*
X53303Y-37145D01*
X54779Y-37145D02*
X58524Y-37145D01*
X58524Y-37145D02*
X59503Y-37145D01*
X60297Y-37145D02*
X60307Y-37145D01*
X39425Y-37225D02*
X40405Y-37225D01*
X43222Y-37225D02*
X45751Y-37225D01*
X46599Y-37225D02*
X49691Y-37225D01*
X51018Y-37225D02*
X51998Y-37225D01*
X52752Y-37225D02*
X53383Y-37225D01*
X54699Y-37225D02*
X58524Y-37225D01*
X58524Y-37225D02*
X59583Y-37225D01*
X60217Y-37225D02*
X60341Y-37225D01*
X39425Y-37305D02*
X40338Y-37305D01*
X43250Y-37305D02*
X45466Y-37305D01*
X46519Y-37305D02*
X49691Y-37305D01*
X50878Y-37305D02*
X51305Y-37305D01*
X52094Y-37305D02*
X52105Y-37305D01*
X52645Y-37305D02*
X53523Y-37305D01*
X54619Y-37305D02*
X58524Y-37305D01*
X58524Y-37305D02*
X59505Y-37305D01*
X60294Y-37305D02*
X60374Y-37305D01*
X39425Y-37385D02*
X40294Y-37385D01*
X41094Y-37385D02*
X41150Y-37385D01*
X43250Y-37385D02*
X45338Y-37385D01*
X46439Y-37385D02*
X49691Y-37385D01*
X51027Y-37385D02*
X51213Y-37385D01*
X52186Y-37385D02*
X53372Y-37385D01*
X54539Y-37385D02*
X58524Y-37385D01*
X58524Y-37385D02*
X59413Y-37385D01*
X60386Y-37385D02*
X60407Y-37385D01*
X39425Y-37465D02*
X40278Y-37465D01*
X41014Y-37465D02*
X41150Y-37465D01*
X43250Y-37465D02*
X45290Y-37465D01*
X46359Y-37465D02*
X49691Y-37465D01*
X51107Y-37465D02*
X51180Y-37465D01*
X52219Y-37465D02*
X53292Y-37465D01*
X54459Y-37465D02*
X58524Y-37465D01*
X58524Y-37465D02*
X59380Y-37465D01*
X60419Y-37465D02*
X60481Y-37465D01*
X62119Y-37465D02*
X62175Y-37465D01*
X39425Y-37545D02*
X40275Y-37545D01*
X40934Y-37545D02*
X41150Y-37545D01*
X43250Y-37545D02*
X45276Y-37545D01*
X46324Y-37545D02*
X49691Y-37545D01*
X51162Y-37545D02*
X51176Y-37545D01*
X52224Y-37545D02*
X53237Y-37545D01*
X54379Y-37545D02*
X58524Y-37545D01*
X58524Y-37545D02*
X59376Y-37545D01*
X60424Y-37545D02*
X60561Y-37545D01*
X62039Y-37545D02*
X62175Y-37545D01*
X39425Y-37625D02*
X40248Y-37625D01*
X40902Y-37625D02*
X41150Y-37625D01*
X43250Y-37625D02*
X45276Y-37625D01*
X46324Y-37625D02*
X49691Y-37625D01*
X52224Y-37625D02*
X53204Y-37625D01*
X54299Y-37625D02*
X58524Y-37625D01*
X58524Y-37625D02*
X59376Y-37625D01*
X60424Y-37625D02*
X60641Y-37625D01*
X61959Y-37625D02*
X62175Y-37625D01*
X39425Y-37705D02*
X40180Y-37705D01*
X40969Y-37705D02*
X41150Y-37705D01*
X43250Y-37705D02*
X45276Y-37705D01*
X46324Y-37705D02*
X49691Y-37705D01*
X52224Y-37705D02*
X53175Y-37705D01*
X54225Y-37705D02*
X58524Y-37705D01*
X58524Y-37705D02*
X59376Y-37705D01*
X60424Y-37705D02*
X60742Y-37705D01*
X61858Y-37705D02*
X62175Y-37705D01*
X39425Y-37785D02*
X40151Y-37785D01*
X40999Y-37785D02*
X41182Y-37785D01*
X43219Y-37785D02*
X45276Y-37785D01*
X46324Y-37785D02*
X49691Y-37785D01*
X52224Y-37785D02*
X53175Y-37785D01*
X54225Y-37785D02*
X58524Y-37785D01*
X58524Y-37785D02*
X59376Y-37785D01*
X60424Y-37785D02*
X60934Y-37785D01*
X61665Y-37785D02*
X62175Y-37785D01*
X39425Y-37865D02*
X40151Y-37865D01*
X40999Y-37865D02*
X41216Y-37865D01*
X43186Y-37865D02*
X45276Y-37865D01*
X46324Y-37865D02*
X49691Y-37865D01*
X52224Y-37865D02*
X53175Y-37865D01*
X54225Y-37865D02*
X58524Y-37865D01*
X58524Y-37865D02*
X59376Y-37865D01*
X60424Y-37865D02*
X62175Y-37865D01*
X39425Y-37945D02*
X40151Y-37945D01*
X40999Y-37945D02*
X41249Y-37945D01*
X43153Y-37945D02*
X45276Y-37945D01*
X46324Y-37945D02*
X49691Y-37945D01*
X52224Y-37945D02*
X53192Y-37945D01*
X54209Y-37945D02*
X58524Y-37945D01*
X58524Y-37945D02*
X59376Y-37945D01*
X60424Y-37945D02*
X62175Y-37945D01*
X39425Y-38025D02*
X40151Y-38025D01*
X40999Y-38025D02*
X41282Y-38025D01*
X43120Y-38025D02*
X45308Y-38025D01*
X46293Y-38025D02*
X49691Y-38025D01*
X51176Y-38025D02*
X51176Y-38025D01*
X52224Y-38025D02*
X53226Y-38025D01*
X54176Y-38025D02*
X58524Y-38025D01*
X58524Y-38025D02*
X59376Y-38025D01*
X60424Y-38025D02*
X62175Y-38025D01*
X39425Y-38105D02*
X40151Y-38105D01*
X40999Y-38105D02*
X41321Y-38105D01*
X43080Y-38105D02*
X45378Y-38105D01*
X46222Y-38105D02*
X49691Y-38105D01*
X51138Y-38105D02*
X51176Y-38105D01*
X52224Y-38105D02*
X53263Y-38105D01*
X54138Y-38105D02*
X58524Y-38105D01*
X58524Y-38105D02*
X59376Y-38105D01*
X60424Y-38105D02*
X62175Y-38105D01*
X39425Y-38185D02*
X40151Y-38185D01*
X40999Y-38185D02*
X41401Y-38185D01*
X43000Y-38185D02*
X49691Y-38185D01*
X51058Y-38185D02*
X51202Y-38185D01*
X52199Y-38185D02*
X53343Y-38185D01*
X54058Y-38185D02*
X58524Y-38185D01*
X58524Y-38185D02*
X59402Y-38185D01*
X60399Y-38185D02*
X62175Y-38185D01*
X39425Y-38265D02*
X40121Y-38265D01*
X40999Y-38265D02*
X41481Y-38265D01*
X42920Y-38265D02*
X49691Y-38265D01*
X50949Y-38265D02*
X51263Y-38265D01*
X52137Y-38265D02*
X53451Y-38265D01*
X53949Y-38265D02*
X58524Y-38265D01*
X58524Y-38265D02*
X59463Y-38265D01*
X60337Y-38265D02*
X62175Y-38265D01*
X39425Y-38345D02*
X40030Y-38345D01*
X40999Y-38345D02*
X41561Y-38345D01*
X42840Y-38345D02*
X49694Y-38345D01*
X50794Y-38345D02*
X58524Y-38345D01*
X58524Y-38345D02*
X62175Y-38345D01*
X39425Y-38425D02*
X39950Y-38425D01*
X40999Y-38425D02*
X41690Y-38425D01*
X42710Y-38425D02*
X49710Y-38425D01*
X50874Y-38425D02*
X58524Y-38425D01*
X58524Y-38425D02*
X62175Y-38425D01*
X39425Y-38505D02*
X39561Y-38505D01*
X40966Y-38505D02*
X41882Y-38505D01*
X42517Y-38505D02*
X49753Y-38505D01*
X50954Y-38505D02*
X58524Y-38505D01*
X58524Y-38505D02*
X62175Y-38505D01*
X39425Y-38585D02*
X39439Y-38585D01*
X40892Y-38585D02*
X49820Y-38585D01*
X51034Y-38585D02*
X58524Y-38585D01*
X58524Y-38585D02*
X62175Y-38585D01*
X40818Y-38665D02*
X49900Y-38665D01*
X51114Y-38665D02*
X58524Y-38665D01*
X58524Y-38665D02*
X62175Y-38665D01*
X40735Y-38745D02*
X49980Y-38745D01*
X51173Y-38745D02*
X58524Y-38745D01*
X58524Y-38745D02*
X62175Y-38745D01*
X40399Y-38825D02*
X50060Y-38825D01*
X51205Y-38825D02*
X58524Y-38825D01*
X58524Y-38825D02*
X62175Y-38825D01*
X40349Y-38905D02*
X50140Y-38905D01*
X51219Y-38905D02*
X58524Y-38905D01*
X58524Y-38905D02*
X62175Y-38905D01*
X40349Y-38985D02*
X50220Y-38985D01*
X51219Y-38985D02*
X58524Y-38985D01*
X58524Y-38985D02*
X62175Y-38985D01*
X40349Y-39065D02*
X40526Y-39065D01*
X41073Y-39065D02*
X50300Y-39065D01*
X51219Y-39065D02*
X58524Y-39065D01*
X58524Y-39065D02*
X62175Y-39065D01*
X40335Y-39145D02*
X40408Y-39145D01*
X41192Y-39145D02*
X46527Y-39145D01*
X47073Y-39145D02*
X47527Y-39145D01*
X48073Y-39145D02*
X48527Y-39145D01*
X49073Y-39145D02*
X50359Y-39145D01*
X51219Y-39145D02*
X58524Y-39145D01*
X58524Y-39145D02*
X62175Y-39145D01*
X40301Y-39225D02*
X40328Y-39225D01*
X41272Y-39225D02*
X46432Y-39225D01*
X47167Y-39225D02*
X47432Y-39225D01*
X48167Y-39225D02*
X48432Y-39225D01*
X49167Y-39225D02*
X50359Y-39225D01*
X51219Y-39225D02*
X58524Y-39225D01*
X58524Y-39225D02*
X62175Y-39225D01*
X40268Y-39305D02*
X40273Y-39305D01*
X41326Y-39305D02*
X46353Y-39305D01*
X47245Y-39305D02*
X47353Y-39305D01*
X48245Y-39305D02*
X48353Y-39305D01*
X49245Y-39305D02*
X50359Y-39305D01*
X51219Y-39305D02*
X58524Y-39305D01*
X58524Y-39305D02*
X62175Y-39305D01*
X40191Y-39385D02*
X40240Y-39385D01*
X41359Y-39385D02*
X46320Y-39385D01*
X47278Y-39385D02*
X47320Y-39385D01*
X48278Y-39385D02*
X48320Y-39385D01*
X49278Y-39385D02*
X50359Y-39385D01*
X51219Y-39385D02*
X58524Y-39385D01*
X58524Y-39385D02*
X62175Y-39385D01*
X39425Y-39465D02*
X39489Y-39465D01*
X40111Y-39465D02*
X40207Y-39465D01*
X41392Y-39465D02*
X46287Y-39465D01*
X49312Y-39465D02*
X50359Y-39465D01*
X51219Y-39465D02*
X58524Y-39465D01*
X58524Y-39465D02*
X62175Y-39465D01*
X39425Y-39545D02*
X39682Y-39545D01*
X39919Y-39545D02*
X40201Y-39545D01*
X41399Y-39545D02*
X46275Y-39545D01*
X49325Y-39545D02*
X50359Y-39545D01*
X51219Y-39545D02*
X58524Y-39545D01*
X58524Y-39545D02*
X62175Y-39545D01*
X39425Y-39625D02*
X40201Y-39625D01*
X41399Y-39625D02*
X46275Y-39625D01*
X49325Y-39625D02*
X50359Y-39625D01*
X51219Y-39625D02*
X58524Y-39625D01*
X58524Y-39625D02*
X62175Y-39625D01*
X39425Y-39705D02*
X40201Y-39705D01*
X41399Y-39705D02*
X46276Y-39705D01*
X49325Y-39705D02*
X49325Y-39705D01*
X49325Y-39705D02*
X50359Y-39705D01*
X51219Y-39705D02*
X58524Y-39705D01*
X58524Y-39705D02*
X62175Y-39705D01*
X39425Y-39785D02*
X40229Y-39785D01*
X41372Y-39785D02*
X41399Y-39785D01*
X41399Y-39785D02*
X46309Y-39785D01*
X48292Y-39785D02*
X48309Y-39785D01*
X49292Y-39785D02*
X49325Y-39785D01*
X49325Y-39785D02*
X50359Y-39785D01*
X51219Y-39785D02*
X58524Y-39785D01*
X58524Y-39785D02*
X62175Y-39785D01*
X39425Y-39865D02*
X40262Y-39865D01*
X41339Y-39865D02*
X41399Y-39865D01*
X41399Y-39865D02*
X46342Y-39865D01*
X48259Y-39865D02*
X48342Y-39865D01*
X49259Y-39865D02*
X49325Y-39865D01*
X49325Y-39865D02*
X50359Y-39865D01*
X51219Y-39865D02*
X58524Y-39865D01*
X58524Y-39865D02*
X62175Y-39865D01*
X39425Y-39945D02*
X40298Y-39945D01*
X41302Y-39945D02*
X41399Y-39945D01*
X41399Y-39945D02*
X45885Y-39945D01*
X48198Y-39945D02*
X48403Y-39945D01*
X49198Y-39945D02*
X49325Y-39945D01*
X49325Y-39945D02*
X50359Y-39945D01*
X51219Y-39945D02*
X58524Y-39945D01*
X58524Y-39945D02*
X62175Y-39945D01*
X39425Y-40025D02*
X40378Y-40025D01*
X41222Y-40025D02*
X41399Y-40025D01*
X41399Y-40025D02*
X45798Y-40025D01*
X48118Y-40025D02*
X48483Y-40025D01*
X49118Y-40025D02*
X49325Y-40025D01*
X49325Y-40025D02*
X50359Y-40025D01*
X51219Y-40025D02*
X58524Y-40025D01*
X58524Y-40025D02*
X62175Y-40025D01*
X39425Y-40105D02*
X40458Y-40105D01*
X41142Y-40105D02*
X41399Y-40105D01*
X41399Y-40105D02*
X42191Y-40105D01*
X42609Y-40105D02*
X45718Y-40105D01*
X47953Y-40105D02*
X48647Y-40105D01*
X48953Y-40105D02*
X49325Y-40105D01*
X49325Y-40105D02*
X49705Y-40105D01*
X51219Y-40105D02*
X56505Y-40105D01*
X57294Y-40105D02*
X58524Y-40105D01*
X58524Y-40105D02*
X62175Y-40105D01*
X39425Y-40185D02*
X40648Y-40185D01*
X40953Y-40185D02*
X41399Y-40185D01*
X41399Y-40185D02*
X41997Y-40185D01*
X42803Y-40185D02*
X45638Y-40185D01*
X47639Y-40185D02*
X49325Y-40185D01*
X49325Y-40185D02*
X49613Y-40185D01*
X51219Y-40185D02*
X56413Y-40185D01*
X57386Y-40185D02*
X58524Y-40185D01*
X58524Y-40185D02*
X62175Y-40185D01*
X39425Y-40265D02*
X41399Y-40265D01*
X41399Y-40265D02*
X41832Y-40265D01*
X42967Y-40265D02*
X45558Y-40265D01*
X47559Y-40265D02*
X49325Y-40265D01*
X49325Y-40265D02*
X49580Y-40265D01*
X51219Y-40265D02*
X56380Y-40265D01*
X57419Y-40265D02*
X58524Y-40265D01*
X58524Y-40265D02*
X62175Y-40265D01*
X39425Y-40345D02*
X41399Y-40345D01*
X41399Y-40345D02*
X41752Y-40345D01*
X43047Y-40345D02*
X44978Y-40345D01*
X47479Y-40345D02*
X49325Y-40345D01*
X49325Y-40345D02*
X49576Y-40345D01*
X51219Y-40345D02*
X56376Y-40345D01*
X57424Y-40345D02*
X58524Y-40345D01*
X58524Y-40345D02*
X62175Y-40345D01*
X39425Y-40425D02*
X41399Y-40425D01*
X41399Y-40425D02*
X41672Y-40425D01*
X43127Y-40425D02*
X44921Y-40425D01*
X47379Y-40425D02*
X49325Y-40425D01*
X49325Y-40425D02*
X49576Y-40425D01*
X51219Y-40425D02*
X56376Y-40425D01*
X57424Y-40425D02*
X58524Y-40425D01*
X58524Y-40425D02*
X62175Y-40425D01*
X39425Y-40505D02*
X41399Y-40505D01*
X41399Y-40505D02*
X41592Y-40505D01*
X43207Y-40505D02*
X44901Y-40505D01*
X46499Y-40505D02*
X49325Y-40505D01*
X49325Y-40505D02*
X49576Y-40505D01*
X51219Y-40505D02*
X56376Y-40505D01*
X57424Y-40505D02*
X58524Y-40505D01*
X58524Y-40505D02*
X62175Y-40505D01*
X39425Y-40585D02*
X41399Y-40585D01*
X41399Y-40585D02*
X41551Y-40585D01*
X43247Y-40585D02*
X44901Y-40585D01*
X46499Y-40585D02*
X48207Y-40585D01*
X48794Y-40585D02*
X49325Y-40585D01*
X49325Y-40585D02*
X49576Y-40585D01*
X51219Y-40585D02*
X55007Y-40585D01*
X55594Y-40585D02*
X56376Y-40585D01*
X57424Y-40585D02*
X58524Y-40585D01*
X58524Y-40585D02*
X62175Y-40585D01*
X39425Y-40665D02*
X41399Y-40665D01*
X41399Y-40665D02*
X41518Y-40665D01*
X43280Y-40665D02*
X44901Y-40665D01*
X46499Y-40665D02*
X48014Y-40665D01*
X48986Y-40665D02*
X49325Y-40665D01*
X49325Y-40665D02*
X49576Y-40665D01*
X51219Y-40665D02*
X54814Y-40665D01*
X55786Y-40665D02*
X56376Y-40665D01*
X57424Y-40665D02*
X58524Y-40665D01*
X58524Y-40665D02*
X62175Y-40665D01*
X39425Y-40745D02*
X41399Y-40745D01*
X41399Y-40745D02*
X41485Y-40745D01*
X43313Y-40745D02*
X44901Y-40745D01*
X46499Y-40745D02*
X47870Y-40745D01*
X49130Y-40745D02*
X49325Y-40745D01*
X49325Y-40745D02*
X49576Y-40745D01*
X51219Y-40745D02*
X54670Y-40745D01*
X55929Y-40745D02*
X56376Y-40745D01*
X57424Y-40745D02*
X58524Y-40745D01*
X58524Y-40745D02*
X62175Y-40745D01*
X39425Y-40825D02*
X41399Y-40825D01*
X41399Y-40825D02*
X41452Y-40825D01*
X43347Y-40825D02*
X44901Y-40825D01*
X46499Y-40825D02*
X47790Y-40825D01*
X49210Y-40825D02*
X49325Y-40825D01*
X49325Y-40825D02*
X49576Y-40825D01*
X51219Y-40825D02*
X54590Y-40825D01*
X56009Y-40825D02*
X56376Y-40825D01*
X57424Y-40825D02*
X58524Y-40825D01*
X58524Y-40825D02*
X62175Y-40825D01*
X39425Y-40905D02*
X41399Y-40905D01*
X41399Y-40905D02*
X41433Y-40905D01*
X43367Y-40905D02*
X44901Y-40905D01*
X46499Y-40905D02*
X47710Y-40905D01*
X49290Y-40905D02*
X49325Y-40905D01*
X49325Y-40905D02*
X49576Y-40905D01*
X51219Y-40905D02*
X54510Y-40905D01*
X56089Y-40905D02*
X56376Y-40905D01*
X57424Y-40905D02*
X58524Y-40905D01*
X58524Y-40905D02*
X62175Y-40905D01*
X39425Y-40985D02*
X41399Y-40985D01*
X41399Y-40985D02*
X41433Y-40985D01*
X43367Y-40985D02*
X44901Y-40985D01*
X46499Y-40985D02*
X47630Y-40985D01*
X49369Y-40985D02*
X49602Y-40985D01*
X51219Y-40985D02*
X54430Y-40985D01*
X56169Y-40985D02*
X56402Y-40985D01*
X57399Y-40985D02*
X58524Y-40985D01*
X58524Y-40985D02*
X62175Y-40985D01*
X39425Y-41065D02*
X41399Y-41065D01*
X41399Y-41065D02*
X41433Y-41065D01*
X43367Y-41065D02*
X44901Y-41065D01*
X46499Y-41065D02*
X47585Y-41065D01*
X49414Y-41065D02*
X49663Y-41065D01*
X51219Y-41065D02*
X54385Y-41065D01*
X56214Y-41065D02*
X56463Y-41065D01*
X57337Y-41065D02*
X58524Y-41065D01*
X58524Y-41065D02*
X62175Y-41065D01*
X39425Y-41145D02*
X41399Y-41145D01*
X41399Y-41145D02*
X41433Y-41145D01*
X43367Y-41145D02*
X44463Y-41145D01*
X46491Y-41145D02*
X47551Y-41145D01*
X49447Y-41145D02*
X49825Y-41145D01*
X51219Y-41145D02*
X54351Y-41145D01*
X56247Y-41145D02*
X56625Y-41145D01*
X57173Y-41145D02*
X58524Y-41145D01*
X58524Y-41145D02*
X62175Y-41145D01*
X39425Y-41225D02*
X41399Y-41225D01*
X41399Y-41225D02*
X41433Y-41225D01*
X43367Y-41225D02*
X44389Y-41225D01*
X46452Y-41225D02*
X47518Y-41225D01*
X49480Y-41225D02*
X49732Y-41225D01*
X51219Y-41225D02*
X54318Y-41225D01*
X56280Y-41225D02*
X56532Y-41225D01*
X57267Y-41225D02*
X58524Y-41225D01*
X58524Y-41225D02*
X62175Y-41225D01*
X39425Y-41305D02*
X41399Y-41305D01*
X41399Y-41305D02*
X41453Y-41305D01*
X43348Y-41305D02*
X43367Y-41305D01*
X43367Y-41305D02*
X44356Y-41305D01*
X46375Y-41305D02*
X47485Y-41305D01*
X49513Y-41305D02*
X49653Y-41305D01*
X51219Y-41305D02*
X54285Y-41305D01*
X56313Y-41305D02*
X56453Y-41305D01*
X57345Y-41305D02*
X58524Y-41305D01*
X58524Y-41305D02*
X62175Y-41305D01*
X39425Y-41385D02*
X41399Y-41385D01*
X41399Y-41385D02*
X41487Y-41385D01*
X43315Y-41385D02*
X43367Y-41385D01*
X43367Y-41385D02*
X44356Y-41385D01*
X46375Y-41385D02*
X47452Y-41385D01*
X49547Y-41385D02*
X49620Y-41385D01*
X51219Y-41385D02*
X54252Y-41385D01*
X56347Y-41385D02*
X56420Y-41385D01*
X57378Y-41385D02*
X58524Y-41385D01*
X58524Y-41385D02*
X62175Y-41385D01*
X39425Y-41465D02*
X41399Y-41465D01*
X41399Y-41465D02*
X41520Y-41465D01*
X43282Y-41465D02*
X43367Y-41465D01*
X43367Y-41465D02*
X44356Y-41465D01*
X46375Y-41465D02*
X47450Y-41465D01*
X49550Y-41465D02*
X49587Y-41465D01*
X51219Y-41465D02*
X54250Y-41465D01*
X56350Y-41465D02*
X56387Y-41465D01*
X57412Y-41465D02*
X58524Y-41465D01*
X58524Y-41465D02*
X62175Y-41465D01*
X39425Y-41545D02*
X41399Y-41545D01*
X41399Y-41545D02*
X41553Y-41545D01*
X43249Y-41545D02*
X43367Y-41545D01*
X43367Y-41545D02*
X44356Y-41545D01*
X46375Y-41545D02*
X47450Y-41545D01*
X49550Y-41545D02*
X49575Y-41545D01*
X51219Y-41545D02*
X54250Y-41545D01*
X56350Y-41545D02*
X56375Y-41545D01*
X57425Y-41545D02*
X58524Y-41545D01*
X58524Y-41545D02*
X62175Y-41545D01*
X39425Y-41625D02*
X41399Y-41625D01*
X41399Y-41625D02*
X41593Y-41625D01*
X43208Y-41625D02*
X43367Y-41625D01*
X43367Y-41625D02*
X44356Y-41625D01*
X46375Y-41625D02*
X47450Y-41625D01*
X49550Y-41625D02*
X49575Y-41625D01*
X51219Y-41625D02*
X54250Y-41625D01*
X56350Y-41625D02*
X56375Y-41625D01*
X57425Y-41625D02*
X58524Y-41625D01*
X58524Y-41625D02*
X62175Y-41625D01*
X39425Y-41705D02*
X41399Y-41705D01*
X41399Y-41705D02*
X41673Y-41705D01*
X43128Y-41705D02*
X43367Y-41705D01*
X43367Y-41705D02*
X44356Y-41705D01*
X46375Y-41705D02*
X47450Y-41705D01*
X49550Y-41705D02*
X49576Y-41705D01*
X51219Y-41705D02*
X54250Y-41705D01*
X56350Y-41705D02*
X56376Y-41705D01*
X57425Y-41705D02*
X58524Y-41705D01*
X58524Y-41705D02*
X62175Y-41705D01*
X39425Y-41785D02*
X41399Y-41785D01*
X41399Y-41785D02*
X41753Y-41785D01*
X43048Y-41785D02*
X43367Y-41785D01*
X43367Y-41785D02*
X44356Y-41785D01*
X46375Y-41785D02*
X47450Y-41785D01*
X49550Y-41785D02*
X49609Y-41785D01*
X51219Y-41785D02*
X54250Y-41785D01*
X56350Y-41785D02*
X56409Y-41785D01*
X57392Y-41785D02*
X58524Y-41785D01*
X58524Y-41785D02*
X62175Y-41785D01*
X39425Y-41865D02*
X41399Y-41865D01*
X41399Y-41865D02*
X41833Y-41865D01*
X42968Y-41865D02*
X43367Y-41865D01*
X43367Y-41865D02*
X44356Y-41865D01*
X46375Y-41865D02*
X47474Y-41865D01*
X49528Y-41865D02*
X49550Y-41865D01*
X49550Y-41865D02*
X49642Y-41865D01*
X51219Y-41865D02*
X54274Y-41865D01*
X56328Y-41865D02*
X56350Y-41865D01*
X56350Y-41865D02*
X56442Y-41865D01*
X57359Y-41865D02*
X58524Y-41865D01*
X58524Y-41865D02*
X62175Y-41865D01*
X39425Y-41945D02*
X41399Y-41945D01*
X41399Y-41945D02*
X41997Y-41945D01*
X42803Y-41945D02*
X43367Y-41945D01*
X43367Y-41945D02*
X44356Y-41945D01*
X46403Y-41945D02*
X47507Y-41945D01*
X49494Y-41945D02*
X49550Y-41945D01*
X49550Y-41945D02*
X49703Y-41945D01*
X51219Y-41945D02*
X54307Y-41945D01*
X56294Y-41945D02*
X56350Y-41945D01*
X56350Y-41945D02*
X56503Y-41945D01*
X57298Y-41945D02*
X58524Y-41945D01*
X58524Y-41945D02*
X62175Y-41945D01*
X39425Y-42025D02*
X41399Y-42025D01*
X41399Y-42025D02*
X42191Y-42025D01*
X42609Y-42025D02*
X43367Y-42025D01*
X43367Y-42025D02*
X44369Y-42025D01*
X46436Y-42025D02*
X47540Y-42025D01*
X49461Y-42025D02*
X49550Y-42025D01*
X49550Y-42025D02*
X49783Y-42025D01*
X51219Y-42025D02*
X54340Y-42025D01*
X56261Y-42025D02*
X56350Y-42025D01*
X56350Y-42025D02*
X56583Y-42025D01*
X57218Y-42025D02*
X58524Y-42025D01*
X58524Y-42025D02*
X62175Y-42025D01*
X39425Y-42105D02*
X41399Y-42105D01*
X41399Y-42105D02*
X43367Y-42105D01*
X43367Y-42105D02*
X44413Y-42105D01*
X46444Y-42105D02*
X47574Y-42105D01*
X49428Y-42105D02*
X49550Y-42105D01*
X49550Y-42105D02*
X49923Y-42105D01*
X51219Y-42105D02*
X52923Y-42105D01*
X53277Y-42105D02*
X54374Y-42105D01*
X56228Y-42105D02*
X56350Y-42105D01*
X56350Y-42105D02*
X56723Y-42105D01*
X57078Y-42105D02*
X58524Y-42105D01*
X58524Y-42105D02*
X59723Y-42105D01*
X60077Y-42105D02*
X62175Y-42105D01*
X39425Y-42185D02*
X41399Y-42185D01*
X41399Y-42185D02*
X43367Y-42185D01*
X43367Y-42185D02*
X44534Y-42185D01*
X46444Y-42185D02*
X47607Y-42185D01*
X49395Y-42185D02*
X49550Y-42185D01*
X49550Y-42185D02*
X49772Y-42185D01*
X51219Y-42185D02*
X52772Y-42185D01*
X53427Y-42185D02*
X54407Y-42185D01*
X56195Y-42185D02*
X56350Y-42185D01*
X56350Y-42185D02*
X56572Y-42185D01*
X57227Y-42185D02*
X58524Y-42185D01*
X58524Y-42185D02*
X59572Y-42185D01*
X60227Y-42185D02*
X62175Y-42185D01*
X39425Y-42265D02*
X41399Y-42265D01*
X41399Y-42265D02*
X43367Y-42265D01*
X43367Y-42265D02*
X44516Y-42265D01*
X46441Y-42265D02*
X47681Y-42265D01*
X49320Y-42265D02*
X49550Y-42265D01*
X49550Y-42265D02*
X49692Y-42265D01*
X51219Y-42265D02*
X52692Y-42265D01*
X53507Y-42265D02*
X54481Y-42265D01*
X56120Y-42265D02*
X56350Y-42265D01*
X56350Y-42265D02*
X56492Y-42265D01*
X57307Y-42265D02*
X58524Y-42265D01*
X58524Y-42265D02*
X59492Y-42265D01*
X60307Y-42265D02*
X62175Y-42265D01*
X39425Y-42345D02*
X41399Y-42345D01*
X41399Y-42345D02*
X43367Y-42345D01*
X43367Y-42345D02*
X44437Y-42345D01*
X46519Y-42345D02*
X47761Y-42345D01*
X49240Y-42345D02*
X49550Y-42345D01*
X49550Y-42345D02*
X49637Y-42345D01*
X51219Y-42345D02*
X52637Y-42345D01*
X53562Y-42345D02*
X54561Y-42345D01*
X56040Y-42345D02*
X56350Y-42345D01*
X56350Y-42345D02*
X56437Y-42345D01*
X57362Y-42345D02*
X58524Y-42345D01*
X58524Y-42345D02*
X59437Y-42345D01*
X60362Y-42345D02*
X62175Y-42345D01*
X39425Y-42425D02*
X41399Y-42425D01*
X41399Y-42425D02*
X43367Y-42425D01*
X43367Y-42425D02*
X44404Y-42425D01*
X46599Y-42425D02*
X47841Y-42425D01*
X49160Y-42425D02*
X49550Y-42425D01*
X49550Y-42425D02*
X49604Y-42425D01*
X51219Y-42425D02*
X52604Y-42425D01*
X53595Y-42425D02*
X54641Y-42425D01*
X55960Y-42425D02*
X56350Y-42425D01*
X56350Y-42425D02*
X56404Y-42425D01*
X57395Y-42425D02*
X58524Y-42425D01*
X58524Y-42425D02*
X59404Y-42425D01*
X60395Y-42425D02*
X62175Y-42425D01*
X39425Y-42505D02*
X41399Y-42505D01*
X41399Y-42505D02*
X43367Y-42505D01*
X43367Y-42505D02*
X44371Y-42505D01*
X46679Y-42505D02*
X47942Y-42505D01*
X49058Y-42505D02*
X49550Y-42505D01*
X49550Y-42505D02*
X49575Y-42505D01*
X51219Y-42505D02*
X52575Y-42505D01*
X53625Y-42505D02*
X54742Y-42505D01*
X55858Y-42505D02*
X56350Y-42505D01*
X56350Y-42505D02*
X56375Y-42505D01*
X57425Y-42505D02*
X58524Y-42505D01*
X58524Y-42505D02*
X59375Y-42505D01*
X60425Y-42505D02*
X62175Y-42505D01*
X39425Y-42585D02*
X41399Y-42585D01*
X41399Y-42585D02*
X43367Y-42585D01*
X43367Y-42585D02*
X44356Y-42585D01*
X46759Y-42585D02*
X48134Y-42585D01*
X48865Y-42585D02*
X49550Y-42585D01*
X49550Y-42585D02*
X49575Y-42585D01*
X51219Y-42585D02*
X52575Y-42585D01*
X53625Y-42585D02*
X54934Y-42585D01*
X55665Y-42585D02*
X56350Y-42585D01*
X56350Y-42585D02*
X56375Y-42585D01*
X57425Y-42585D02*
X58524Y-42585D01*
X58524Y-42585D02*
X59375Y-42585D01*
X60425Y-42585D02*
X62175Y-42585D01*
X39425Y-42665D02*
X41399Y-42665D01*
X41399Y-42665D02*
X43367Y-42665D01*
X43367Y-42665D02*
X44356Y-42665D01*
X46814Y-42665D02*
X49550Y-42665D01*
X49550Y-42665D02*
X49575Y-42665D01*
X51219Y-42665D02*
X52575Y-42665D01*
X53625Y-42665D02*
X56350Y-42665D01*
X56350Y-42665D02*
X56375Y-42665D01*
X57425Y-42665D02*
X58524Y-42665D01*
X58524Y-42665D02*
X59375Y-42665D01*
X60425Y-42665D02*
X62175Y-42665D01*
X39425Y-42745D02*
X41399Y-42745D01*
X41399Y-42745D02*
X43367Y-42745D01*
X43367Y-42745D02*
X44356Y-42745D01*
X46841Y-42745D02*
X49550Y-42745D01*
X49550Y-42745D02*
X49592Y-42745D01*
X51219Y-42745D02*
X52592Y-42745D01*
X53609Y-42745D02*
X56350Y-42745D01*
X56350Y-42745D02*
X56392Y-42745D01*
X57409Y-42745D02*
X58524Y-42745D01*
X58524Y-42745D02*
X59392Y-42745D01*
X60409Y-42745D02*
X62175Y-42745D01*
X39425Y-42825D02*
X41399Y-42825D01*
X41399Y-42825D02*
X43367Y-42825D01*
X43367Y-42825D02*
X44300Y-42825D01*
X46853Y-42825D02*
X49550Y-42825D01*
X49550Y-42825D02*
X49626Y-42825D01*
X51219Y-42825D02*
X52626Y-42825D01*
X60376Y-42825D02*
X62175Y-42825D01*
X39425Y-42905D02*
X41399Y-42905D01*
X41399Y-42905D02*
X43367Y-42905D01*
X43367Y-42905D02*
X44220Y-42905D01*
X46853Y-42905D02*
X49550Y-42905D01*
X49550Y-42905D02*
X49663Y-42905D01*
X51219Y-42905D02*
X52663Y-42905D01*
X60338Y-42905D02*
X62175Y-42905D01*
X39425Y-42985D02*
X41399Y-42985D01*
X41399Y-42985D02*
X43367Y-42985D01*
X43367Y-42985D02*
X44140Y-42985D01*
X46853Y-42985D02*
X49550Y-42985D01*
X49550Y-42985D02*
X49743Y-42985D01*
X51219Y-42985D02*
X52743Y-42985D01*
X60258Y-42985D02*
X62175Y-42985D01*
X39425Y-43065D02*
X41399Y-43065D01*
X41399Y-43065D02*
X43367Y-43065D01*
X43367Y-43065D02*
X44072Y-43065D01*
X46853Y-43065D02*
X49550Y-43065D01*
X49550Y-43065D02*
X49851Y-43065D01*
X51219Y-43065D02*
X52851Y-43065D01*
X60148Y-43065D02*
X62175Y-43065D01*
X39425Y-43145D02*
X41399Y-43145D01*
X41399Y-43145D02*
X43367Y-43145D01*
X43367Y-43145D02*
X44027Y-43145D01*
X46853Y-43145D02*
X49550Y-43145D01*
X49550Y-43145D02*
X49827Y-43145D01*
X51219Y-43145D02*
X52827Y-43145D01*
X60174Y-43145D02*
X62175Y-43145D01*
X39425Y-43225D02*
X41399Y-43225D01*
X41399Y-43225D02*
X43367Y-43225D01*
X43367Y-43225D02*
X44011Y-43225D01*
X46853Y-43225D02*
X49550Y-43225D01*
X49550Y-43225D02*
X49732Y-43225D01*
X51219Y-43225D02*
X52732Y-43225D01*
X60267Y-43225D02*
X62175Y-43225D01*
X39425Y-43305D02*
X41399Y-43305D01*
X41399Y-43305D02*
X43367Y-43305D01*
X43367Y-43305D02*
X44008Y-43305D01*
X46853Y-43305D02*
X49550Y-43305D01*
X49550Y-43305D02*
X49653Y-43305D01*
X51219Y-43305D02*
X52653Y-43305D01*
X60345Y-43305D02*
X62175Y-43305D01*
X39425Y-43385D02*
X41399Y-43385D01*
X41399Y-43385D02*
X43367Y-43385D01*
X43367Y-43385D02*
X44008Y-43385D01*
X46853Y-43385D02*
X49550Y-43385D01*
X49550Y-43385D02*
X49620Y-43385D01*
X51219Y-43385D02*
X52620Y-43385D01*
X60378Y-43385D02*
X62175Y-43385D01*
X39425Y-43465D02*
X41399Y-43465D01*
X41399Y-43465D02*
X43367Y-43465D01*
X43367Y-43465D02*
X44008Y-43465D01*
X46853Y-43465D02*
X49550Y-43465D01*
X49550Y-43465D02*
X49587Y-43465D01*
X51219Y-43465D02*
X52587Y-43465D01*
X60412Y-43465D02*
X62175Y-43465D01*
X39425Y-43545D02*
X41399Y-43545D01*
X41399Y-43545D02*
X43367Y-43545D01*
X43367Y-43545D02*
X44008Y-43545D01*
X46853Y-43545D02*
X49550Y-43545D01*
X49550Y-43545D02*
X49575Y-43545D01*
X51219Y-43545D02*
X52575Y-43545D01*
X60425Y-43545D02*
X62175Y-43545D01*
X39425Y-43625D02*
X41399Y-43625D01*
X41399Y-43625D02*
X43367Y-43625D01*
X43367Y-43625D02*
X44008Y-43625D01*
X46853Y-43625D02*
X48111Y-43625D01*
X48890Y-43625D02*
X49550Y-43625D01*
X49550Y-43625D02*
X49575Y-43625D01*
X51219Y-43625D02*
X52575Y-43625D01*
X60425Y-43625D02*
X62175Y-43625D01*
X39425Y-43705D02*
X41399Y-43705D01*
X41399Y-43705D02*
X43367Y-43705D01*
X43367Y-43705D02*
X44008Y-43705D01*
X46853Y-43705D02*
X47918Y-43705D01*
X49082Y-43705D02*
X49550Y-43705D01*
X49550Y-43705D02*
X49576Y-43705D01*
X51219Y-43705D02*
X52576Y-43705D01*
X60425Y-43705D02*
X62175Y-43705D01*
X39425Y-43785D02*
X41399Y-43785D01*
X41399Y-43785D02*
X43367Y-43785D01*
X43367Y-43785D02*
X44008Y-43785D01*
X46853Y-43785D02*
X47830Y-43785D01*
X49169Y-43785D02*
X49550Y-43785D01*
X49550Y-43785D02*
X49609Y-43785D01*
X51219Y-43785D02*
X52609Y-43785D01*
X60392Y-43785D02*
X62175Y-43785D01*
X39425Y-43865D02*
X41399Y-43865D01*
X41399Y-43865D02*
X43367Y-43865D01*
X43367Y-43865D02*
X44008Y-43865D01*
X46853Y-43865D02*
X47750Y-43865D01*
X49249Y-43865D02*
X49550Y-43865D01*
X49550Y-43865D02*
X49642Y-43865D01*
X51219Y-43865D02*
X52642Y-43865D01*
X60359Y-43865D02*
X62175Y-43865D01*
X39425Y-43945D02*
X41399Y-43945D01*
X41399Y-43945D02*
X43367Y-43945D01*
X43367Y-43945D02*
X44008Y-43945D01*
X46853Y-43945D02*
X47670Y-43945D01*
X49329Y-43945D02*
X49550Y-43945D01*
X49550Y-43945D02*
X49703Y-43945D01*
X51219Y-43945D02*
X52703Y-43945D01*
X60298Y-43945D02*
X62175Y-43945D01*
X39425Y-44025D02*
X41399Y-44025D01*
X41399Y-44025D02*
X43367Y-44025D01*
X43367Y-44025D02*
X44008Y-44025D01*
X46853Y-44025D02*
X47601Y-44025D01*
X49397Y-44025D02*
X49550Y-44025D01*
X49550Y-44025D02*
X49783Y-44025D01*
X51219Y-44025D02*
X52783Y-44025D01*
X60218Y-44025D02*
X62175Y-44025D01*
X39425Y-44105D02*
X41399Y-44105D01*
X41399Y-44105D02*
X43367Y-44105D01*
X43367Y-44105D02*
X44008Y-44105D01*
X46853Y-44105D02*
X47568Y-44105D01*
X49431Y-44105D02*
X49550Y-44105D01*
X49550Y-44105D02*
X49923Y-44105D01*
X51219Y-44105D02*
X52923Y-44105D01*
X60078Y-44105D02*
X62175Y-44105D01*
X39425Y-44185D02*
X41399Y-44185D01*
X41399Y-44185D02*
X43367Y-44185D01*
X43367Y-44185D02*
X44008Y-44185D01*
X46853Y-44185D02*
X47535Y-44185D01*
X49464Y-44185D02*
X49550Y-44185D01*
X49550Y-44185D02*
X49772Y-44185D01*
X51219Y-44185D02*
X52772Y-44185D01*
X60227Y-44185D02*
X62175Y-44185D01*
X39425Y-44265D02*
X41399Y-44265D01*
X41399Y-44265D02*
X43367Y-44265D01*
X43367Y-44265D02*
X44008Y-44265D01*
X46853Y-44265D02*
X47501Y-44265D01*
X49497Y-44265D02*
X49550Y-44265D01*
X49550Y-44265D02*
X49692Y-44265D01*
X51219Y-44265D02*
X52692Y-44265D01*
X60307Y-44265D02*
X62175Y-44265D01*
X39425Y-44345D02*
X41399Y-44345D01*
X41399Y-44345D02*
X43367Y-44345D01*
X43367Y-44345D02*
X44008Y-44345D01*
X46853Y-44345D02*
X47468Y-44345D01*
X49530Y-44345D02*
X49550Y-44345D01*
X49550Y-44345D02*
X49637Y-44345D01*
X51219Y-44345D02*
X52637Y-44345D01*
X60362Y-44345D02*
X62175Y-44345D01*
X39425Y-44425D02*
X41399Y-44425D01*
X41399Y-44425D02*
X43367Y-44425D01*
X43367Y-44425D02*
X44008Y-44425D01*
X46853Y-44425D02*
X47450Y-44425D01*
X49550Y-44425D02*
X49604Y-44425D01*
X51219Y-44425D02*
X52604Y-44425D01*
X60395Y-44425D02*
X62175Y-44425D01*
X39425Y-44505D02*
X41399Y-44505D01*
X41399Y-44505D02*
X43367Y-44505D01*
X43367Y-44505D02*
X44008Y-44505D01*
X46853Y-44505D02*
X47450Y-44505D01*
X49550Y-44505D02*
X49575Y-44505D01*
X51219Y-44505D02*
X52575Y-44505D01*
X60425Y-44505D02*
X62175Y-44505D01*
X39425Y-44585D02*
X41399Y-44585D01*
X41399Y-44585D02*
X43367Y-44585D01*
X43367Y-44585D02*
X44008Y-44585D01*
X46853Y-44585D02*
X47450Y-44585D01*
X49550Y-44585D02*
X49575Y-44585D01*
X51219Y-44585D02*
X52575Y-44585D01*
X60425Y-44585D02*
X62175Y-44585D01*
X39425Y-44665D02*
X41399Y-44665D01*
X41399Y-44665D02*
X43367Y-44665D01*
X43367Y-44665D02*
X44008Y-44665D01*
X46853Y-44665D02*
X47450Y-44665D01*
X49550Y-44665D02*
X49575Y-44665D01*
X51219Y-44665D02*
X52575Y-44665D01*
X60425Y-44665D02*
X62175Y-44665D01*
X39425Y-44745D02*
X41399Y-44745D01*
X41399Y-44745D02*
X43367Y-44745D01*
X43367Y-44745D02*
X44008Y-44745D01*
X46853Y-44745D02*
X47450Y-44745D01*
X49550Y-44745D02*
X49592Y-44745D01*
X51219Y-44745D02*
X52592Y-44745D01*
X60409Y-44745D02*
X62175Y-44745D01*
X39425Y-44825D02*
X41399Y-44825D01*
X41399Y-44825D02*
X42077Y-44825D01*
X42723Y-44825D02*
X43367Y-44825D01*
X43367Y-44825D02*
X44008Y-44825D01*
X46853Y-44825D02*
X47458Y-44825D01*
X49544Y-44825D02*
X49550Y-44825D01*
X49550Y-44825D02*
X49626Y-44825D01*
X51219Y-44825D02*
X52626Y-44825D01*
X60376Y-44825D02*
X62175Y-44825D01*
X39425Y-44905D02*
X41399Y-44905D01*
X41399Y-44905D02*
X41884Y-44905D01*
X42916Y-44905D02*
X43367Y-44905D01*
X43367Y-44905D02*
X44008Y-44905D01*
X46853Y-44905D02*
X47491Y-44905D01*
X49511Y-44905D02*
X49550Y-44905D01*
X49550Y-44905D02*
X49663Y-44905D01*
X51219Y-44905D02*
X52663Y-44905D01*
X60338Y-44905D02*
X62175Y-44905D01*
X39425Y-44985D02*
X41399Y-44985D01*
X41399Y-44985D02*
X41785Y-44985D01*
X43014Y-44985D02*
X43367Y-44985D01*
X43367Y-44985D02*
X44008Y-44985D01*
X46853Y-44985D02*
X47524Y-44985D01*
X49478Y-44985D02*
X49550Y-44985D01*
X49550Y-44985D02*
X49743Y-44985D01*
X51219Y-44985D02*
X52743Y-44985D01*
X60258Y-44985D02*
X62175Y-44985D01*
X39425Y-45065D02*
X41399Y-45065D01*
X41399Y-45065D02*
X41705Y-45065D01*
X43094Y-45065D02*
X43367Y-45065D01*
X43367Y-45065D02*
X44008Y-45065D01*
X46853Y-45065D02*
X47557Y-45065D01*
X49445Y-45065D02*
X49550Y-45065D01*
X49550Y-45065D02*
X49851Y-45065D01*
X51219Y-45065D02*
X52851Y-45065D01*
X60148Y-45065D02*
X62175Y-45065D01*
X39425Y-45145D02*
X41399Y-45145D01*
X41399Y-45145D02*
X41625Y-45145D01*
X43174Y-45145D02*
X43367Y-45145D01*
X43367Y-45145D02*
X44008Y-45145D01*
X46853Y-45145D02*
X47590Y-45145D01*
X49411Y-45145D02*
X49550Y-45145D01*
X49550Y-45145D02*
X49827Y-45145D01*
X51219Y-45145D02*
X52827Y-45145D01*
X60174Y-45145D02*
X62175Y-45145D01*
X39425Y-45225D02*
X41399Y-45225D01*
X41399Y-45225D02*
X41565Y-45225D01*
X43234Y-45225D02*
X43367Y-45225D01*
X43367Y-45225D02*
X44008Y-45225D01*
X46853Y-45225D02*
X47641Y-45225D01*
X49360Y-45225D02*
X49550Y-45225D01*
X49550Y-45225D02*
X49732Y-45225D01*
X51219Y-45225D02*
X52732Y-45225D01*
X60267Y-45225D02*
X62175Y-45225D01*
X39425Y-45305D02*
X41399Y-45305D01*
X41399Y-45305D02*
X41532Y-45305D01*
X43267Y-45305D02*
X43367Y-45305D01*
X43367Y-45305D02*
X44008Y-45305D01*
X46853Y-45305D02*
X47721Y-45305D01*
X49280Y-45305D02*
X49550Y-45305D01*
X49550Y-45305D02*
X49653Y-45305D01*
X51219Y-45305D02*
X52653Y-45305D01*
X60345Y-45305D02*
X62175Y-45305D01*
X39425Y-45385D02*
X41399Y-45385D01*
X41399Y-45385D02*
X41499Y-45385D01*
X43300Y-45385D02*
X43367Y-45385D01*
X43367Y-45385D02*
X44008Y-45385D01*
X46853Y-45385D02*
X47801Y-45385D01*
X49200Y-45385D02*
X49550Y-45385D01*
X49550Y-45385D02*
X49620Y-45385D01*
X51219Y-45385D02*
X52620Y-45385D01*
X60378Y-45385D02*
X62175Y-45385D01*
X39425Y-45465D02*
X41399Y-45465D01*
X41399Y-45465D02*
X41466Y-45465D01*
X43333Y-45465D02*
X43367Y-45465D01*
X43367Y-45465D02*
X44008Y-45465D01*
X46853Y-45465D02*
X47881Y-45465D01*
X49120Y-45465D02*
X49550Y-45465D01*
X49550Y-45465D02*
X49587Y-45465D01*
X51219Y-45465D02*
X52587Y-45465D01*
X60412Y-45465D02*
X62175Y-45465D01*
X39425Y-45545D02*
X41399Y-45545D01*
X41399Y-45545D02*
X41433Y-45545D01*
X43366Y-45545D02*
X43367Y-45545D01*
X43367Y-45545D02*
X44008Y-45545D01*
X46853Y-45545D02*
X48038Y-45545D01*
X48962Y-45545D02*
X49550Y-45545D01*
X49550Y-45545D02*
X49575Y-45545D01*
X51219Y-45545D02*
X52575Y-45545D01*
X60425Y-45545D02*
X62175Y-45545D01*
X39425Y-45625D02*
X41399Y-45625D01*
X41399Y-45625D02*
X41433Y-45625D01*
X43367Y-45625D02*
X44008Y-45625D01*
X46853Y-45625D02*
X48230Y-45625D01*
X48769Y-45625D02*
X49550Y-45625D01*
X49550Y-45625D02*
X49575Y-45625D01*
X51219Y-45625D02*
X52575Y-45625D01*
X60425Y-45625D02*
X62175Y-45625D01*
X39425Y-45705D02*
X41399Y-45705D01*
X41399Y-45705D02*
X41433Y-45705D01*
X43367Y-45705D02*
X44008Y-45705D01*
X46853Y-45705D02*
X49550Y-45705D01*
X49550Y-45705D02*
X49576Y-45705D01*
X51219Y-45705D02*
X52576Y-45705D01*
X60425Y-45705D02*
X62175Y-45705D01*
X39425Y-45785D02*
X41399Y-45785D01*
X41399Y-45785D02*
X41433Y-45785D01*
X43367Y-45785D02*
X44008Y-45785D01*
X46853Y-45785D02*
X49550Y-45785D01*
X49550Y-45785D02*
X49609Y-45785D01*
X51219Y-45785D02*
X52609Y-45785D01*
X60392Y-45785D02*
X62175Y-45785D01*
X39425Y-45865D02*
X41399Y-45865D01*
X41399Y-45865D02*
X41433Y-45865D01*
X43367Y-45865D02*
X44008Y-45865D01*
X46853Y-45865D02*
X49550Y-45865D01*
X49550Y-45865D02*
X49642Y-45865D01*
X51219Y-45865D02*
X52642Y-45865D01*
X60359Y-45865D02*
X62175Y-45865D01*
X39425Y-45945D02*
X41399Y-45945D01*
X41399Y-45945D02*
X41440Y-45945D01*
X43362Y-45945D02*
X44008Y-45945D01*
X46853Y-45945D02*
X49550Y-45945D01*
X49550Y-45945D02*
X49703Y-45945D01*
X51219Y-45945D02*
X52703Y-45945D01*
X60298Y-45945D02*
X62175Y-45945D01*
X39425Y-46025D02*
X41399Y-46025D01*
X41399Y-46025D02*
X41473Y-46025D01*
X43329Y-46025D02*
X44008Y-46025D01*
X46853Y-46025D02*
X49550Y-46025D01*
X49550Y-46025D02*
X49783Y-46025D01*
X51219Y-46025D02*
X52783Y-46025D01*
X60218Y-46025D02*
X62175Y-46025D01*
X39425Y-46105D02*
X41399Y-46105D01*
X41399Y-46105D02*
X41506Y-46105D01*
X43295Y-46105D02*
X44008Y-46105D01*
X46853Y-46105D02*
X49550Y-46105D01*
X49550Y-46105D02*
X49923Y-46105D01*
X51219Y-46105D02*
X52947Y-46105D01*
X60053Y-46105D02*
X62175Y-46105D01*
X39425Y-46185D02*
X41399Y-46185D01*
X41399Y-46185D02*
X41539Y-46185D01*
X43262Y-46185D02*
X44008Y-46185D01*
X46853Y-46185D02*
X49550Y-46185D01*
X49550Y-46185D02*
X49772Y-46185D01*
X51219Y-46185D02*
X53261Y-46185D01*
X59739Y-46185D02*
X62175Y-46185D01*
X39425Y-46265D02*
X41399Y-46265D01*
X41399Y-46265D02*
X41572Y-46265D01*
X43229Y-46265D02*
X44008Y-46265D01*
X46853Y-46265D02*
X49550Y-46265D01*
X49550Y-46265D02*
X49692Y-46265D01*
X51219Y-46265D02*
X53341Y-46265D01*
X59659Y-46265D02*
X62175Y-46265D01*
X39425Y-46345D02*
X41399Y-46345D01*
X41399Y-46345D02*
X41640Y-46345D01*
X43161Y-46345D02*
X44008Y-46345D01*
X46853Y-46345D02*
X49550Y-46345D01*
X49550Y-46345D02*
X49637Y-46345D01*
X51219Y-46345D02*
X53438Y-46345D01*
X59563Y-46345D02*
X62175Y-46345D01*
X39425Y-46425D02*
X41399Y-46425D01*
X41399Y-46425D02*
X41720Y-46425D01*
X43081Y-46425D02*
X44008Y-46425D01*
X46853Y-46425D02*
X49550Y-46425D01*
X49550Y-46425D02*
X49604Y-46425D01*
X51219Y-46425D02*
X56403Y-46425D01*
X57395Y-46425D02*
X62175Y-46425D01*
X39425Y-46505D02*
X41399Y-46505D01*
X41399Y-46505D02*
X41800Y-46505D01*
X43001Y-46505D02*
X44008Y-46505D01*
X46853Y-46505D02*
X49550Y-46505D01*
X49550Y-46505D02*
X49575Y-46505D01*
X51219Y-46505D02*
X56375Y-46505D01*
X57425Y-46505D02*
X62175Y-46505D01*
X39425Y-46585D02*
X41399Y-46585D01*
X41399Y-46585D02*
X41918Y-46585D01*
X42882Y-46585D02*
X44008Y-46585D01*
X46853Y-46585D02*
X48207Y-46585D01*
X48794Y-46585D02*
X49550Y-46585D01*
X49550Y-46585D02*
X49575Y-46585D01*
X51219Y-46585D02*
X55007Y-46585D01*
X55594Y-46585D02*
X56375Y-46585D01*
X57425Y-46585D02*
X62175Y-46585D01*
X39425Y-46665D02*
X41399Y-46665D01*
X41399Y-46665D02*
X42044Y-46665D01*
X42754Y-46665D02*
X44008Y-46665D01*
X46853Y-46665D02*
X48014Y-46665D01*
X48986Y-46665D02*
X49550Y-46665D01*
X49550Y-46665D02*
X49575Y-46665D01*
X51219Y-46665D02*
X54814Y-46665D01*
X55786Y-46665D02*
X56375Y-46665D01*
X57425Y-46665D02*
X62175Y-46665D01*
X39425Y-46745D02*
X41399Y-46745D01*
X41399Y-46745D02*
X41853Y-46745D01*
X42948Y-46745D02*
X44008Y-46745D01*
X46853Y-46745D02*
X47870Y-46745D01*
X49129Y-46745D02*
X49550Y-46745D01*
X49550Y-46745D02*
X49592Y-46745D01*
X51219Y-46745D02*
X54670Y-46745D01*
X55929Y-46745D02*
X56392Y-46745D01*
X57409Y-46745D02*
X62175Y-46745D01*
X39425Y-46825D02*
X41399Y-46825D01*
X41399Y-46825D02*
X41772Y-46825D01*
X43027Y-46825D02*
X44008Y-46825D01*
X46853Y-46825D02*
X47790Y-46825D01*
X49209Y-46825D02*
X49550Y-46825D01*
X49550Y-46825D02*
X49626Y-46825D01*
X51219Y-46825D02*
X54590Y-46825D01*
X56009Y-46825D02*
X56426Y-46825D01*
X57376Y-46825D02*
X62175Y-46825D01*
X39425Y-46905D02*
X41399Y-46905D01*
X41399Y-46905D02*
X41692Y-46905D01*
X43107Y-46905D02*
X44008Y-46905D01*
X46853Y-46905D02*
X47710Y-46905D01*
X49289Y-46905D02*
X49550Y-46905D01*
X49550Y-46905D02*
X49663Y-46905D01*
X51219Y-46905D02*
X54510Y-46905D01*
X56089Y-46905D02*
X56463Y-46905D01*
X57338Y-46905D02*
X62175Y-46905D01*
X39425Y-46985D02*
X41399Y-46985D01*
X41399Y-46985D02*
X41612Y-46985D01*
X43187Y-46985D02*
X44008Y-46985D01*
X46853Y-46985D02*
X47630Y-46985D01*
X49369Y-46985D02*
X49550Y-46985D01*
X49550Y-46985D02*
X49743Y-46985D01*
X51219Y-46985D02*
X54430Y-46985D01*
X56169Y-46985D02*
X56543Y-46985D01*
X57258Y-46985D02*
X62175Y-46985D01*
X39425Y-47065D02*
X41399Y-47065D01*
X41399Y-47065D02*
X41560Y-47065D01*
X43239Y-47065D02*
X44008Y-47065D01*
X46853Y-47065D02*
X47585Y-47065D01*
X49414Y-47065D02*
X49550Y-47065D01*
X49550Y-47065D02*
X49851Y-47065D01*
X51219Y-47065D02*
X54385Y-47065D01*
X56214Y-47065D02*
X56651Y-47065D01*
X57148Y-47065D02*
X62175Y-47065D01*
X39425Y-47145D02*
X41399Y-47145D01*
X41399Y-47145D02*
X41526Y-47145D01*
X43272Y-47145D02*
X44008Y-47145D01*
X46853Y-47145D02*
X47551Y-47145D01*
X49447Y-47145D02*
X49550Y-47145D01*
X49550Y-47145D02*
X49827Y-47145D01*
X51219Y-47145D02*
X52827Y-47145D01*
X53373Y-47145D02*
X54351Y-47145D01*
X56247Y-47145D02*
X56627Y-47145D01*
X57174Y-47145D02*
X59627Y-47145D01*
X60173Y-47145D02*
X62175Y-47145D01*
X39425Y-47225D02*
X41399Y-47225D01*
X41399Y-47225D02*
X41493Y-47225D01*
X43305Y-47225D02*
X44008Y-47225D01*
X46853Y-47225D02*
X47518Y-47225D01*
X49480Y-47225D02*
X49550Y-47225D01*
X49550Y-47225D02*
X49732Y-47225D01*
X51219Y-47225D02*
X52732Y-47225D01*
X53467Y-47225D02*
X54318Y-47225D01*
X56280Y-47225D02*
X56532Y-47225D01*
X57267Y-47225D02*
X59532Y-47225D01*
X60267Y-47225D02*
X62175Y-47225D01*
X39425Y-47305D02*
X41399Y-47305D01*
X41399Y-47305D02*
X41460Y-47305D01*
X43338Y-47305D02*
X44008Y-47305D01*
X46853Y-47305D02*
X47485Y-47305D01*
X49513Y-47305D02*
X49550Y-47305D01*
X49550Y-47305D02*
X49653Y-47305D01*
X51219Y-47305D02*
X52653Y-47305D01*
X53545Y-47305D02*
X54285Y-47305D01*
X56313Y-47305D02*
X56453Y-47305D01*
X57345Y-47305D02*
X59453Y-47305D01*
X60345Y-47305D02*
X62175Y-47305D01*
X39425Y-47385D02*
X41399Y-47385D01*
X41399Y-47385D02*
X41433Y-47385D01*
X43367Y-47385D02*
X44008Y-47385D01*
X46853Y-47385D02*
X47452Y-47385D01*
X49547Y-47385D02*
X49550Y-47385D01*
X49550Y-47385D02*
X49620Y-47385D01*
X51219Y-47385D02*
X52620Y-47385D01*
X53578Y-47385D02*
X54252Y-47385D01*
X56347Y-47385D02*
X56420Y-47385D01*
X57378Y-47385D02*
X59420Y-47385D01*
X60378Y-47385D02*
X62175Y-47385D01*
X39425Y-47465D02*
X41399Y-47465D01*
X41399Y-47465D02*
X41433Y-47465D01*
X43367Y-47465D02*
X44008Y-47465D01*
X46853Y-47465D02*
X47450Y-47465D01*
X49550Y-47465D02*
X49587Y-47465D01*
X51219Y-47465D02*
X52587Y-47465D01*
X53612Y-47465D02*
X54250Y-47465D01*
X56350Y-47465D02*
X56387Y-47465D01*
X57412Y-47465D02*
X58742Y-47465D01*
X60412Y-47465D02*
X62175Y-47465D01*
X39425Y-47545D02*
X41399Y-47545D01*
X41399Y-47545D02*
X41433Y-47545D01*
X43367Y-47545D02*
X44008Y-47545D01*
X46853Y-47545D02*
X47450Y-47545D01*
X49550Y-47545D02*
X49575Y-47545D01*
X51219Y-47545D02*
X52575Y-47545D01*
X53625Y-47545D02*
X54250Y-47545D01*
X56350Y-47545D02*
X56375Y-47545D01*
X57425Y-47545D02*
X58628Y-47545D01*
X60425Y-47545D02*
X62175Y-47545D01*
X39425Y-47625D02*
X41399Y-47625D01*
X41399Y-47625D02*
X41433Y-47625D01*
X43367Y-47625D02*
X44008Y-47625D01*
X46853Y-47625D02*
X47450Y-47625D01*
X49550Y-47625D02*
X49575Y-47625D01*
X51219Y-47625D02*
X51648Y-47625D01*
X52552Y-47625D02*
X52575Y-47625D01*
X53625Y-47625D02*
X54250Y-47625D01*
X56350Y-47625D02*
X56375Y-47625D01*
X57425Y-47625D02*
X58586Y-47625D01*
X60425Y-47625D02*
X62175Y-47625D01*
X39425Y-47705D02*
X41399Y-47705D01*
X41399Y-47705D02*
X41433Y-47705D01*
X43367Y-47705D02*
X44008Y-47705D01*
X46853Y-47705D02*
X47450Y-47705D01*
X49550Y-47705D02*
X49576Y-47705D01*
X51219Y-47705D02*
X51594Y-47705D01*
X53630Y-47705D02*
X54250Y-47705D01*
X56350Y-47705D02*
X56376Y-47705D01*
X57425Y-47705D02*
X58576Y-47705D01*
X60425Y-47705D02*
X62175Y-47705D01*
X39425Y-47785D02*
X41399Y-47785D01*
X41399Y-47785D02*
X41445Y-47785D01*
X43356Y-47785D02*
X43367Y-47785D01*
X43367Y-47785D02*
X44008Y-47785D01*
X46853Y-47785D02*
X47450Y-47785D01*
X49550Y-47785D02*
X49609Y-47785D01*
X51219Y-47785D02*
X51576Y-47785D01*
X53710Y-47785D02*
X54250Y-47785D01*
X56350Y-47785D02*
X56409Y-47785D01*
X57392Y-47785D02*
X58576Y-47785D01*
X60392Y-47785D02*
X62175Y-47785D01*
X39425Y-47865D02*
X41399Y-47865D01*
X41399Y-47865D02*
X41478Y-47865D01*
X43323Y-47865D02*
X43367Y-47865D01*
X43367Y-47865D02*
X44008Y-47865D01*
X46853Y-47865D02*
X47474Y-47865D01*
X49528Y-47865D02*
X49550Y-47865D01*
X49550Y-47865D02*
X49642Y-47865D01*
X51219Y-47865D02*
X51576Y-47865D01*
X53790Y-47865D02*
X54274Y-47865D01*
X56328Y-47865D02*
X56350Y-47865D01*
X56350Y-47865D02*
X56442Y-47865D01*
X57359Y-47865D02*
X58576Y-47865D01*
X60359Y-47865D02*
X62175Y-47865D01*
X39425Y-47945D02*
X41399Y-47945D01*
X41399Y-47945D02*
X41511Y-47945D01*
X43290Y-47945D02*
X43367Y-47945D01*
X43367Y-47945D02*
X44008Y-47945D01*
X46853Y-47945D02*
X47507Y-47945D01*
X49494Y-47945D02*
X49550Y-47945D01*
X49550Y-47945D02*
X49703Y-47945D01*
X51219Y-47945D02*
X51576Y-47945D01*
X53866Y-47945D02*
X54307Y-47945D01*
X56294Y-47945D02*
X56350Y-47945D01*
X56350Y-47945D02*
X56503Y-47945D01*
X57298Y-47945D02*
X58576Y-47945D01*
X60298Y-47945D02*
X62175Y-47945D01*
X39425Y-48025D02*
X41399Y-48025D01*
X41399Y-48025D02*
X41544Y-48025D01*
X43257Y-48025D02*
X43367Y-48025D01*
X43367Y-48025D02*
X44008Y-48025D01*
X46847Y-48025D02*
X47540Y-48025D01*
X49461Y-48025D02*
X49550Y-48025D01*
X49550Y-48025D02*
X49783Y-48025D01*
X51219Y-48025D02*
X51576Y-48025D01*
X53920Y-48025D02*
X54340Y-48025D01*
X56261Y-48025D02*
X56350Y-48025D01*
X56350Y-48025D02*
X56583Y-48025D01*
X57218Y-48025D02*
X58576Y-48025D01*
X60218Y-48025D02*
X62175Y-48025D01*
X39425Y-48105D02*
X41399Y-48105D01*
X41399Y-48105D02*
X41578Y-48105D01*
X43224Y-48105D02*
X43367Y-48105D01*
X43367Y-48105D02*
X44008Y-48105D01*
X46832Y-48105D02*
X47574Y-48105D01*
X49428Y-48105D02*
X49550Y-48105D01*
X49550Y-48105D02*
X49923Y-48105D01*
X51219Y-48105D02*
X51576Y-48105D01*
X53940Y-48105D02*
X54374Y-48105D01*
X56228Y-48105D02*
X56350Y-48105D01*
X56350Y-48105D02*
X56723Y-48105D01*
X57078Y-48105D02*
X58579Y-48105D01*
X60078Y-48105D02*
X62175Y-48105D01*
X39425Y-48185D02*
X41399Y-48185D01*
X41399Y-48185D02*
X41653Y-48185D01*
X43148Y-48185D02*
X43367Y-48185D01*
X43367Y-48185D02*
X44008Y-48185D01*
X46782Y-48185D02*
X47607Y-48185D01*
X49395Y-48185D02*
X49550Y-48185D01*
X49550Y-48185D02*
X49772Y-48185D01*
X51219Y-48185D02*
X51576Y-48185D01*
X53950Y-48185D02*
X54407Y-48185D01*
X56195Y-48185D02*
X56350Y-48185D01*
X56350Y-48185D02*
X56572Y-48185D01*
X57227Y-48185D02*
X58612Y-48185D01*
X60227Y-48185D02*
X62175Y-48185D01*
X39425Y-48265D02*
X41399Y-48265D01*
X41399Y-48265D02*
X41733Y-48265D01*
X43068Y-48265D02*
X43367Y-48265D01*
X43367Y-48265D02*
X44008Y-48265D01*
X46709Y-48265D02*
X47681Y-48265D01*
X49320Y-48265D02*
X49550Y-48265D01*
X49550Y-48265D02*
X49692Y-48265D01*
X51219Y-48265D02*
X51604Y-48265D01*
X53950Y-48265D02*
X54481Y-48265D01*
X56120Y-48265D02*
X56350Y-48265D01*
X56350Y-48265D02*
X56492Y-48265D01*
X57307Y-48265D02*
X58694Y-48265D01*
X60307Y-48265D02*
X62175Y-48265D01*
X39425Y-48345D02*
X41399Y-48345D01*
X41399Y-48345D02*
X41813Y-48345D01*
X42988Y-48345D02*
X43367Y-48345D01*
X43367Y-48345D02*
X44008Y-48345D01*
X46629Y-48345D02*
X47761Y-48345D01*
X49240Y-48345D02*
X49550Y-48345D01*
X49550Y-48345D02*
X49637Y-48345D01*
X51219Y-48345D02*
X51668Y-48345D01*
X53950Y-48345D02*
X54561Y-48345D01*
X56040Y-48345D02*
X56350Y-48345D01*
X56350Y-48345D02*
X56437Y-48345D01*
X57362Y-48345D02*
X58862Y-48345D01*
X60362Y-48345D02*
X62175Y-48345D01*
X39425Y-48425D02*
X41399Y-48425D01*
X41399Y-48425D02*
X41949Y-48425D01*
X42851Y-48425D02*
X43367Y-48425D01*
X43367Y-48425D02*
X44008Y-48425D01*
X46549Y-48425D02*
X47841Y-48425D01*
X49160Y-48425D02*
X49550Y-48425D01*
X49550Y-48425D02*
X49604Y-48425D01*
X51219Y-48425D02*
X51848Y-48425D01*
X53950Y-48425D02*
X54641Y-48425D01*
X55960Y-48425D02*
X56350Y-48425D01*
X56350Y-48425D02*
X56404Y-48425D01*
X57395Y-48425D02*
X58948Y-48425D01*
X60395Y-48425D02*
X62175Y-48425D01*
X39425Y-48505D02*
X41399Y-48505D01*
X41399Y-48505D02*
X42142Y-48505D01*
X42658Y-48505D02*
X43367Y-48505D01*
X43367Y-48505D02*
X44008Y-48505D01*
X46469Y-48505D02*
X47942Y-48505D01*
X49058Y-48505D02*
X49550Y-48505D01*
X49550Y-48505D02*
X49575Y-48505D01*
X51219Y-48505D02*
X51918Y-48505D01*
X53950Y-48505D02*
X54742Y-48505D01*
X55858Y-48505D02*
X56350Y-48505D01*
X56350Y-48505D02*
X56375Y-48505D01*
X57425Y-48505D02*
X59375Y-48505D01*
X60425Y-48505D02*
X62175Y-48505D01*
X39425Y-48585D02*
X41399Y-48585D01*
X41399Y-48585D02*
X43367Y-48585D01*
X43367Y-48585D02*
X44014Y-48585D01*
X46444Y-48585D02*
X48134Y-48585D01*
X48865Y-48585D02*
X49550Y-48585D01*
X49550Y-48585D02*
X49575Y-48585D01*
X51219Y-48585D02*
X52575Y-48585D01*
X53950Y-48585D02*
X54934Y-48585D01*
X55665Y-48585D02*
X56350Y-48585D01*
X56350Y-48585D02*
X56375Y-48585D01*
X57425Y-48585D02*
X59375Y-48585D01*
X60425Y-48585D02*
X62175Y-48585D01*
X39425Y-48665D02*
X41399Y-48665D01*
X41399Y-48665D02*
X43367Y-48665D01*
X43367Y-48665D02*
X44030Y-48665D01*
X46444Y-48665D02*
X49550Y-48665D01*
X49550Y-48665D02*
X49575Y-48665D01*
X51219Y-48665D02*
X52575Y-48665D01*
X53950Y-48665D02*
X56350Y-48665D01*
X56350Y-48665D02*
X56375Y-48665D01*
X57425Y-48665D02*
X59375Y-48665D01*
X60425Y-48665D02*
X62175Y-48665D01*
X39425Y-48745D02*
X41399Y-48745D01*
X41399Y-48745D02*
X43367Y-48745D01*
X43367Y-48745D02*
X44080Y-48745D01*
X46444Y-48745D02*
X49550Y-48745D01*
X49550Y-48745D02*
X49592Y-48745D01*
X51219Y-48745D02*
X52592Y-48745D01*
X53950Y-48745D02*
X56350Y-48745D01*
X56350Y-48745D02*
X56392Y-48745D01*
X57409Y-48745D02*
X59393Y-48745D01*
X60409Y-48745D02*
X62175Y-48745D01*
X39425Y-48825D02*
X41399Y-48825D01*
X41399Y-48825D02*
X43367Y-48825D01*
X43367Y-48825D02*
X44151Y-48825D01*
X46417Y-48825D02*
X49550Y-48825D01*
X49550Y-48825D02*
X49626Y-48825D01*
X51219Y-48825D02*
X52626Y-48825D01*
X60376Y-48825D02*
X62175Y-48825D01*
X39425Y-48905D02*
X41399Y-48905D01*
X41399Y-48905D02*
X43367Y-48905D01*
X43367Y-48905D02*
X44231Y-48905D01*
X46383Y-48905D02*
X49550Y-48905D01*
X49550Y-48905D02*
X49663Y-48905D01*
X51219Y-48905D02*
X52663Y-48905D01*
X60338Y-48905D02*
X62175Y-48905D01*
X39425Y-48985D02*
X41399Y-48985D01*
X41399Y-48985D02*
X43367Y-48985D01*
X43367Y-48985D02*
X44311Y-48985D01*
X46334Y-48985D02*
X49550Y-48985D01*
X49550Y-48985D02*
X49743Y-48985D01*
X51219Y-48985D02*
X52743Y-48985D01*
X60258Y-48985D02*
X62175Y-48985D01*
X39425Y-49065D02*
X41399Y-49065D01*
X41399Y-49065D02*
X43367Y-49065D01*
X43367Y-49065D02*
X44356Y-49065D01*
X46254Y-49065D02*
X49550Y-49065D01*
X49550Y-49065D02*
X49851Y-49065D01*
X51219Y-49065D02*
X52851Y-49065D01*
X60148Y-49065D02*
X62175Y-49065D01*
X39425Y-49145D02*
X41399Y-49145D01*
X41399Y-49145D02*
X43367Y-49145D01*
X43367Y-49145D02*
X44356Y-49145D01*
X46127Y-49145D02*
X49550Y-49145D01*
X49550Y-49145D02*
X49827Y-49145D01*
X51219Y-49145D02*
X52827Y-49145D01*
X60174Y-49145D02*
X62175Y-49145D01*
X39425Y-49225D02*
X41399Y-49225D01*
X41399Y-49225D02*
X43367Y-49225D01*
X43367Y-49225D02*
X44356Y-49225D01*
X46244Y-49225D02*
X49550Y-49225D01*
X49550Y-49225D02*
X49732Y-49225D01*
X51219Y-49225D02*
X52732Y-49225D01*
X60267Y-49225D02*
X62175Y-49225D01*
X39425Y-49305D02*
X41399Y-49305D01*
X41399Y-49305D02*
X43367Y-49305D01*
X43367Y-49305D02*
X44376Y-49305D01*
X46324Y-49305D02*
X49550Y-49305D01*
X49550Y-49305D02*
X49653Y-49305D01*
X51219Y-49305D02*
X52653Y-49305D01*
X60345Y-49305D02*
X62175Y-49305D01*
X39425Y-49385D02*
X41399Y-49385D01*
X41399Y-49385D02*
X43367Y-49385D01*
X43367Y-49385D02*
X44409Y-49385D01*
X46378Y-49385D02*
X49550Y-49385D01*
X49550Y-49385D02*
X49620Y-49385D01*
X51219Y-49385D02*
X52620Y-49385D01*
X60378Y-49385D02*
X62175Y-49385D01*
X39425Y-49465D02*
X41399Y-49465D01*
X41399Y-49465D02*
X43367Y-49465D01*
X43367Y-49465D02*
X44446Y-49465D01*
X46412Y-49465D02*
X49550Y-49465D01*
X49550Y-49465D02*
X49587Y-49465D01*
X51219Y-49465D02*
X52587Y-49465D01*
X60412Y-49465D02*
X62175Y-49465D01*
X39425Y-49545D02*
X41399Y-49545D01*
X41399Y-49545D02*
X43367Y-49545D01*
X43367Y-49545D02*
X44526Y-49545D01*
X46444Y-49545D02*
X49550Y-49545D01*
X49550Y-49545D02*
X49575Y-49545D01*
X51219Y-49545D02*
X52575Y-49545D01*
X60425Y-49545D02*
X62175Y-49545D01*
X39425Y-49625D02*
X41399Y-49625D01*
X41399Y-49625D02*
X43367Y-49625D01*
X43367Y-49625D02*
X44626Y-49625D01*
X46444Y-49625D02*
X48111Y-49625D01*
X48890Y-49625D02*
X49550Y-49625D01*
X49550Y-49625D02*
X49575Y-49625D01*
X51219Y-49625D02*
X52575Y-49625D01*
X60425Y-49625D02*
X62175Y-49625D01*
X39425Y-49705D02*
X41399Y-49705D01*
X41399Y-49705D02*
X43367Y-49705D01*
X43367Y-49705D02*
X44576Y-49705D01*
X46444Y-49705D02*
X47918Y-49705D01*
X49082Y-49705D02*
X49550Y-49705D01*
X49550Y-49705D02*
X49576Y-49705D01*
X51219Y-49705D02*
X52576Y-49705D01*
X60425Y-49705D02*
X62175Y-49705D01*
X39425Y-49785D02*
X41399Y-49785D01*
X41399Y-49785D02*
X43367Y-49785D01*
X43367Y-49785D02*
X44496Y-49785D01*
X46433Y-49785D02*
X47830Y-49785D01*
X49169Y-49785D02*
X49550Y-49785D01*
X49550Y-49785D02*
X49609Y-49785D01*
X51219Y-49785D02*
X52609Y-49785D01*
X60392Y-49785D02*
X62175Y-49785D01*
X39425Y-49865D02*
X41399Y-49865D01*
X41399Y-49865D02*
X43367Y-49865D01*
X43367Y-49865D02*
X44429Y-49865D01*
X46400Y-49865D02*
X47750Y-49865D01*
X49249Y-49865D02*
X49550Y-49865D01*
X49550Y-49865D02*
X49642Y-49865D01*
X51219Y-49865D02*
X52642Y-49865D01*
X60359Y-49865D02*
X62175Y-49865D01*
X39425Y-49945D02*
X41399Y-49945D01*
X41399Y-49945D02*
X43367Y-49945D01*
X43367Y-49945D02*
X44396Y-49945D01*
X46367Y-49945D02*
X47670Y-49945D01*
X49329Y-49945D02*
X49550Y-49945D01*
X49550Y-49945D02*
X49703Y-49945D01*
X51280Y-49945D02*
X52703Y-49945D01*
X60298Y-49945D02*
X62175Y-49945D01*
X39425Y-50025D02*
X41399Y-50025D01*
X41399Y-50025D02*
X43367Y-50025D01*
X43367Y-50025D02*
X44363Y-50025D01*
X46294Y-50025D02*
X47601Y-50025D01*
X49397Y-50025D02*
X49550Y-50025D01*
X49550Y-50025D02*
X49783Y-50025D01*
X51360Y-50025D02*
X52783Y-50025D01*
X60218Y-50025D02*
X62175Y-50025D01*
X39425Y-50105D02*
X41399Y-50105D01*
X41399Y-50105D02*
X43367Y-50105D01*
X43367Y-50105D02*
X44356Y-50105D01*
X46214Y-50105D02*
X47568Y-50105D01*
X49431Y-50105D02*
X49550Y-50105D01*
X49550Y-50105D02*
X49923Y-50105D01*
X51440Y-50105D02*
X52923Y-50105D01*
X60078Y-50105D02*
X60523Y-50105D01*
X60877Y-50105D02*
X62175Y-50105D01*
X39425Y-50185D02*
X41399Y-50185D01*
X41399Y-50185D02*
X43367Y-50185D01*
X43367Y-50185D02*
X44356Y-50185D01*
X46198Y-50185D02*
X47535Y-50185D01*
X49464Y-50185D02*
X49550Y-50185D01*
X49550Y-50185D02*
X49772Y-50185D01*
X51520Y-50185D02*
X52772Y-50185D01*
X60227Y-50185D02*
X60372Y-50185D01*
X61027Y-50185D02*
X62175Y-50185D01*
X39425Y-50265D02*
X41399Y-50265D01*
X41399Y-50265D02*
X43367Y-50265D01*
X43367Y-50265D02*
X44359Y-50265D01*
X46284Y-50265D02*
X47501Y-50265D01*
X49497Y-50265D02*
X49550Y-50265D01*
X49550Y-50265D02*
X49692Y-50265D01*
X51600Y-50265D02*
X52692Y-50265D01*
X61107Y-50265D02*
X62175Y-50265D01*
X39425Y-50345D02*
X41399Y-50345D01*
X41399Y-50345D02*
X43367Y-50345D01*
X43367Y-50345D02*
X44393Y-50345D01*
X46362Y-50345D02*
X47468Y-50345D01*
X49530Y-50345D02*
X49550Y-50345D01*
X49550Y-50345D02*
X49637Y-50345D01*
X51680Y-50345D02*
X52637Y-50345D01*
X61162Y-50345D02*
X62175Y-50345D01*
X39425Y-50425D02*
X41399Y-50425D01*
X41399Y-50425D02*
X43367Y-50425D01*
X43367Y-50425D02*
X44426Y-50425D01*
X46395Y-50425D02*
X47450Y-50425D01*
X49550Y-50425D02*
X49604Y-50425D01*
X51760Y-50425D02*
X52604Y-50425D01*
X61195Y-50425D02*
X62175Y-50425D01*
X39425Y-50505D02*
X41399Y-50505D01*
X41399Y-50505D02*
X43367Y-50505D01*
X43367Y-50505D02*
X44486Y-50505D01*
X46428Y-50505D02*
X47450Y-50505D01*
X49550Y-50505D02*
X49575Y-50505D01*
X51840Y-50505D02*
X52575Y-50505D01*
X61225Y-50505D02*
X62175Y-50505D01*
X39425Y-50585D02*
X41399Y-50585D01*
X41399Y-50585D02*
X43367Y-50585D01*
X43367Y-50585D02*
X44566Y-50585D01*
X46444Y-50585D02*
X47450Y-50585D01*
X49550Y-50585D02*
X49575Y-50585D01*
X50625Y-50585D02*
X50661Y-50585D01*
X51920Y-50585D02*
X52575Y-50585D01*
X61225Y-50585D02*
X62175Y-50585D01*
X39425Y-50665D02*
X41399Y-50665D01*
X41399Y-50665D02*
X43367Y-50665D01*
X43367Y-50665D02*
X44649Y-50665D01*
X46444Y-50665D02*
X47450Y-50665D01*
X49550Y-50665D02*
X49575Y-50665D01*
X50625Y-50665D02*
X50741Y-50665D01*
X52000Y-50665D02*
X52575Y-50665D01*
X61225Y-50665D02*
X62175Y-50665D01*
X39425Y-50745D02*
X41399Y-50745D01*
X41399Y-50745D02*
X43367Y-50745D01*
X43367Y-50745D02*
X44536Y-50745D01*
X46444Y-50745D02*
X47450Y-50745D01*
X49550Y-50745D02*
X49592Y-50745D01*
X50609Y-50745D02*
X50821Y-50745D01*
X52080Y-50745D02*
X52592Y-50745D01*
X61209Y-50745D02*
X62175Y-50745D01*
X39425Y-50825D02*
X41399Y-50825D01*
X41399Y-50825D02*
X43367Y-50825D01*
X43367Y-50825D02*
X44456Y-50825D01*
X46417Y-50825D02*
X47458Y-50825D01*
X49544Y-50825D02*
X49550Y-50825D01*
X49550Y-50825D02*
X49626Y-50825D01*
X50576Y-50825D02*
X50901Y-50825D01*
X52160Y-50825D02*
X52626Y-50825D01*
X61176Y-50825D02*
X62175Y-50825D01*
X39425Y-50905D02*
X41399Y-50905D01*
X41399Y-50905D02*
X43367Y-50905D01*
X43367Y-50905D02*
X44412Y-50905D01*
X46383Y-50905D02*
X47491Y-50905D01*
X49511Y-50905D02*
X49550Y-50905D01*
X49550Y-50905D02*
X49663Y-50905D01*
X50538Y-50905D02*
X50981Y-50905D01*
X52240Y-50905D02*
X52663Y-50905D01*
X61138Y-50905D02*
X62175Y-50905D01*
X39425Y-50985D02*
X41399Y-50985D01*
X41399Y-50985D02*
X43367Y-50985D01*
X43367Y-50985D02*
X44379Y-50985D01*
X46334Y-50985D02*
X47524Y-50985D01*
X49478Y-50985D02*
X49550Y-50985D01*
X49550Y-50985D02*
X49743Y-50985D01*
X50458Y-50985D02*
X51061Y-50985D01*
X52320Y-50985D02*
X52743Y-50985D01*
X61058Y-50985D02*
X62175Y-50985D01*
X39425Y-51065D02*
X41399Y-51065D01*
X41399Y-51065D02*
X43367Y-51065D01*
X43367Y-51065D02*
X44356Y-51065D01*
X45444Y-51065D02*
X45546Y-51065D01*
X46254Y-51065D02*
X47557Y-51065D01*
X49445Y-51065D02*
X49550Y-51065D01*
X49550Y-51065D02*
X49851Y-51065D01*
X50348Y-51065D02*
X51141Y-51065D01*
X52400Y-51065D02*
X52851Y-51065D01*
X60949Y-51065D02*
X62175Y-51065D01*
X39425Y-51145D02*
X41399Y-51145D01*
X41399Y-51145D02*
X43367Y-51145D01*
X43367Y-51145D02*
X44356Y-51145D01*
X45444Y-51145D02*
X45674Y-51145D01*
X46127Y-51145D02*
X47590Y-51145D01*
X49411Y-51145D02*
X49550Y-51145D01*
X49550Y-51145D02*
X49827Y-51145D01*
X50374Y-51145D02*
X51221Y-51145D01*
X52480Y-51145D02*
X52827Y-51145D01*
X60579Y-51145D02*
X62175Y-51145D01*
X39425Y-51225D02*
X41399Y-51225D01*
X41399Y-51225D02*
X43367Y-51225D01*
X43367Y-51225D02*
X44356Y-51225D01*
X45444Y-51225D02*
X45556Y-51225D01*
X46244Y-51225D02*
X47641Y-51225D01*
X49360Y-51225D02*
X49550Y-51225D01*
X49550Y-51225D02*
X49732Y-51225D01*
X50467Y-51225D02*
X51301Y-51225D01*
X52560Y-51225D02*
X52732Y-51225D01*
X60499Y-51225D02*
X62175Y-51225D01*
X39425Y-51305D02*
X41399Y-51305D01*
X41399Y-51305D02*
X42125Y-51305D01*
X42675Y-51305D02*
X43367Y-51305D01*
X43367Y-51305D02*
X44376Y-51305D01*
X45425Y-51305D02*
X45476Y-51305D01*
X46324Y-51305D02*
X47721Y-51305D01*
X49280Y-51305D02*
X49550Y-51305D01*
X49550Y-51305D02*
X49653Y-51305D01*
X50545Y-51305D02*
X51381Y-51305D01*
X52640Y-51305D02*
X52653Y-51305D01*
X60419Y-51305D02*
X62175Y-51305D01*
X39425Y-51385D02*
X41399Y-51385D01*
X41399Y-51385D02*
X41932Y-51385D01*
X42868Y-51385D02*
X43367Y-51385D01*
X43367Y-51385D02*
X44409Y-51385D01*
X45392Y-51385D02*
X45421Y-51385D01*
X46378Y-51385D02*
X47801Y-51385D01*
X49200Y-51385D02*
X49550Y-51385D01*
X49550Y-51385D02*
X49620Y-51385D01*
X50578Y-51385D02*
X51461Y-51385D01*
X60378Y-51385D02*
X62175Y-51385D01*
X39425Y-51465D02*
X41399Y-51465D01*
X41399Y-51465D02*
X41805Y-51465D01*
X42994Y-51465D02*
X43367Y-51465D01*
X43367Y-51465D02*
X44446Y-51465D01*
X45354Y-51465D02*
X45387Y-51465D01*
X46412Y-51465D02*
X47881Y-51465D01*
X49120Y-51465D02*
X49550Y-51465D01*
X49550Y-51465D02*
X49587Y-51465D01*
X50612Y-51465D02*
X51541Y-51465D01*
X60412Y-51465D02*
X62175Y-51465D01*
X39425Y-51545D02*
X41399Y-51545D01*
X41399Y-51545D02*
X41725Y-51545D01*
X43074Y-51545D02*
X43367Y-51545D01*
X43367Y-51545D02*
X44526Y-51545D01*
X45274Y-51545D02*
X45356Y-51545D01*
X46444Y-51545D02*
X48038Y-51545D01*
X48962Y-51545D02*
X49550Y-51545D01*
X49550Y-51545D02*
X49575Y-51545D01*
X50625Y-51545D02*
X51621Y-51545D01*
X60425Y-51545D02*
X62175Y-51545D01*
X39425Y-51625D02*
X41399Y-51625D01*
X41399Y-51625D02*
X41645Y-51625D01*
X43154Y-51625D02*
X43367Y-51625D01*
X43367Y-51625D02*
X44626Y-51625D01*
X45175Y-51625D02*
X45356Y-51625D01*
X46444Y-51625D02*
X48230Y-51625D01*
X48769Y-51625D02*
X49550Y-51625D01*
X49550Y-51625D02*
X49575Y-51625D01*
X50625Y-51625D02*
X51701Y-51625D01*
X60425Y-51625D02*
X62175Y-51625D01*
X39425Y-51705D02*
X41399Y-51705D01*
X41399Y-51705D02*
X41573Y-51705D01*
X43225Y-51705D02*
X43367Y-51705D01*
X43367Y-51705D02*
X45356Y-51705D01*
X46444Y-51705D02*
X49550Y-51705D01*
X49550Y-51705D02*
X49576Y-51705D01*
X50625Y-51705D02*
X51781Y-51705D01*
X60425Y-51705D02*
X62175Y-51705D01*
X39425Y-51785D02*
X41399Y-51785D01*
X41399Y-51785D02*
X41540Y-51785D01*
X43258Y-51785D02*
X43367Y-51785D01*
X43367Y-51785D02*
X45368Y-51785D01*
X46433Y-51785D02*
X49550Y-51785D01*
X49550Y-51785D02*
X49609Y-51785D01*
X50592Y-51785D02*
X51861Y-51785D01*
X60392Y-51785D02*
X62175Y-51785D01*
X39425Y-51865D02*
X41399Y-51865D01*
X41399Y-51865D02*
X41507Y-51865D01*
X43292Y-51865D02*
X43367Y-51865D01*
X43367Y-51865D02*
X45401Y-51865D01*
X46400Y-51865D02*
X49550Y-51865D01*
X49550Y-51865D02*
X49642Y-51865D01*
X50559Y-51865D02*
X51941Y-51865D01*
X60359Y-51865D02*
X62175Y-51865D01*
X39425Y-51945D02*
X41399Y-51945D01*
X41399Y-51945D02*
X41474Y-51945D01*
X43325Y-51945D02*
X43367Y-51945D01*
X43367Y-51945D02*
X45434Y-51945D01*
X46367Y-51945D02*
X49550Y-51945D01*
X49550Y-51945D02*
X49703Y-51945D01*
X50498Y-51945D02*
X52021Y-51945D01*
X60298Y-51945D02*
X62175Y-51945D01*
X39425Y-52025D02*
X41399Y-52025D01*
X41399Y-52025D02*
X41441Y-52025D01*
X43358Y-52025D02*
X43367Y-52025D01*
X43367Y-52025D02*
X45506Y-52025D01*
X46294Y-52025D02*
X49550Y-52025D01*
X49550Y-52025D02*
X49783Y-52025D01*
X50418Y-52025D02*
X52101Y-52025D01*
X60218Y-52025D02*
X62175Y-52025D01*
X39425Y-52105D02*
X41399Y-52105D01*
X41399Y-52105D02*
X41433Y-52105D01*
X43367Y-52105D02*
X45586Y-52105D01*
X46214Y-52105D02*
X49550Y-52105D01*
X49550Y-52105D02*
X49923Y-52105D01*
X50278Y-52105D02*
X52181Y-52105D01*
X60078Y-52105D02*
X62175Y-52105D01*
X39425Y-52185D02*
X41399Y-52185D01*
X41399Y-52185D02*
X41433Y-52185D01*
X43367Y-52185D02*
X45771Y-52185D01*
X46030Y-52185D02*
X49550Y-52185D01*
X49550Y-52185D02*
X49772Y-52185D01*
X50427Y-52185D02*
X52261Y-52185D01*
X60227Y-52185D02*
X62175Y-52185D01*
X39425Y-52265D02*
X41399Y-52265D01*
X41399Y-52265D02*
X41433Y-52265D01*
X43367Y-52265D02*
X49550Y-52265D01*
X49550Y-52265D02*
X49692Y-52265D01*
X50507Y-52265D02*
X52341Y-52265D01*
X60307Y-52265D02*
X62175Y-52265D01*
X39425Y-52345D02*
X41399Y-52345D01*
X41399Y-52345D02*
X41433Y-52345D01*
X43367Y-52345D02*
X49550Y-52345D01*
X49550Y-52345D02*
X49637Y-52345D01*
X50562Y-52345D02*
X52421Y-52345D01*
X53562Y-52345D02*
X56437Y-52345D01*
X57362Y-52345D02*
X59221Y-52345D01*
X60362Y-52345D02*
X62175Y-52345D01*
X39425Y-52425D02*
X41399Y-52425D01*
X41399Y-52425D02*
X41433Y-52425D01*
X43367Y-52425D02*
X49550Y-52425D01*
X49550Y-52425D02*
X49604Y-52425D01*
X50595Y-52425D02*
X52501Y-52425D01*
X53595Y-52425D02*
X56403Y-52425D01*
X57395Y-52425D02*
X59301Y-52425D01*
X60395Y-52425D02*
X62175Y-52425D01*
X39425Y-52505D02*
X41399Y-52505D01*
X41399Y-52505D02*
X41465Y-52505D01*
X43337Y-52505D02*
X43367Y-52505D01*
X43367Y-52505D02*
X49550Y-52505D01*
X49550Y-52505D02*
X49575Y-52505D01*
X50625Y-52505D02*
X52575Y-52505D01*
X53625Y-52505D02*
X56375Y-52505D01*
X57425Y-52505D02*
X59375Y-52505D01*
X60425Y-52505D02*
X62175Y-52505D01*
X39425Y-52585D02*
X41399Y-52585D01*
X41399Y-52585D02*
X41498Y-52585D01*
X43304Y-52585D02*
X43367Y-52585D01*
X43367Y-52585D02*
X48207Y-52585D01*
X48794Y-52585D02*
X49550Y-52585D01*
X49550Y-52585D02*
X49575Y-52585D01*
X50625Y-52585D02*
X52575Y-52585D01*
X53625Y-52585D02*
X54907Y-52585D01*
X55494Y-52585D02*
X56375Y-52585D01*
X57425Y-52585D02*
X59375Y-52585D01*
X60425Y-52585D02*
X62175Y-52585D01*
X39425Y-52665D02*
X41399Y-52665D01*
X41399Y-52665D02*
X41531Y-52665D01*
X43271Y-52665D02*
X43367Y-52665D01*
X43367Y-52665D02*
X48014Y-52665D01*
X48986Y-52665D02*
X49550Y-52665D01*
X49550Y-52665D02*
X49575Y-52665D01*
X50625Y-52665D02*
X52575Y-52665D01*
X53625Y-52665D02*
X54714Y-52665D01*
X55686Y-52665D02*
X56375Y-52665D01*
X57425Y-52665D02*
X59375Y-52665D01*
X60425Y-52665D02*
X62175Y-52665D01*
X39425Y-52745D02*
X41399Y-52745D01*
X41399Y-52745D02*
X41564Y-52745D01*
X43237Y-52745D02*
X43367Y-52745D01*
X43367Y-52745D02*
X47870Y-52745D01*
X49129Y-52745D02*
X49550Y-52745D01*
X49550Y-52745D02*
X49592Y-52745D01*
X50609Y-52745D02*
X52592Y-52745D01*
X53609Y-52745D02*
X54570Y-52745D01*
X55829Y-52745D02*
X56392Y-52745D01*
X57409Y-52745D02*
X59392Y-52745D01*
X60409Y-52745D02*
X62175Y-52745D01*
X39425Y-52825D02*
X41399Y-52825D01*
X41399Y-52825D02*
X41620Y-52825D01*
X43181Y-52825D02*
X43367Y-52825D01*
X43367Y-52825D02*
X47790Y-52825D01*
X49209Y-52825D02*
X49550Y-52825D01*
X49550Y-52825D02*
X49626Y-52825D01*
X50576Y-52825D02*
X52626Y-52825D01*
X53576Y-52825D02*
X54490Y-52825D01*
X55909Y-52825D02*
X56426Y-52825D01*
X57376Y-52825D02*
X59426Y-52825D01*
X60376Y-52825D02*
X62175Y-52825D01*
X39425Y-52905D02*
X41399Y-52905D01*
X41399Y-52905D02*
X41700Y-52905D01*
X43101Y-52905D02*
X43367Y-52905D01*
X43367Y-52905D02*
X47710Y-52905D01*
X49289Y-52905D02*
X49550Y-52905D01*
X49550Y-52905D02*
X49663Y-52905D01*
X50538Y-52905D02*
X52663Y-52905D01*
X53538Y-52905D02*
X54410Y-52905D01*
X55989Y-52905D02*
X56463Y-52905D01*
X57338Y-52905D02*
X59463Y-52905D01*
X60338Y-52905D02*
X62175Y-52905D01*
X39425Y-52985D02*
X41399Y-52985D01*
X41399Y-52985D02*
X41780Y-52985D01*
X43021Y-52985D02*
X43367Y-52985D01*
X43367Y-52985D02*
X47630Y-52985D01*
X49369Y-52985D02*
X49550Y-52985D01*
X49550Y-52985D02*
X49743Y-52985D01*
X50458Y-52985D02*
X52743Y-52985D01*
X53458Y-52985D02*
X54330Y-52985D01*
X56069Y-52985D02*
X56543Y-52985D01*
X57258Y-52985D02*
X59543Y-52985D01*
X60258Y-52985D02*
X62175Y-52985D01*
X39425Y-53065D02*
X39955Y-53065D01*
X40446Y-53065D02*
X41399Y-53065D01*
X41399Y-53065D02*
X41869Y-53065D01*
X42931Y-53065D02*
X43367Y-53065D01*
X43367Y-53065D02*
X47585Y-53065D01*
X49414Y-53065D02*
X49550Y-53065D01*
X49550Y-53065D02*
X49851Y-53065D01*
X50348Y-53065D02*
X52851Y-53065D01*
X53348Y-53065D02*
X54285Y-53065D01*
X56114Y-53065D02*
X56651Y-53065D01*
X57148Y-53065D02*
X59651Y-53065D01*
X60148Y-53065D02*
X61155Y-53065D01*
X61646Y-53065D02*
X62175Y-53065D01*
X39425Y-53145D02*
X39762Y-53145D01*
X40638Y-53145D02*
X41399Y-53145D01*
X41399Y-53145D02*
X42063Y-53145D01*
X42737Y-53145D02*
X43367Y-53145D01*
X43367Y-53145D02*
X47551Y-53145D01*
X49447Y-53145D02*
X49550Y-53145D01*
X49550Y-53145D02*
X49827Y-53145D01*
X50374Y-53145D02*
X52827Y-53145D01*
X53374Y-53145D02*
X54251Y-53145D01*
X56147Y-53145D02*
X56627Y-53145D01*
X57174Y-53145D02*
X59627Y-53145D01*
X60174Y-53145D02*
X60962Y-53145D01*
X61838Y-53145D02*
X62175Y-53145D01*
X39425Y-53225D02*
X39590Y-53225D01*
X40809Y-53225D02*
X41399Y-53225D01*
X41399Y-53225D02*
X43367Y-53225D01*
X43367Y-53225D02*
X47518Y-53225D01*
X49480Y-53225D02*
X49550Y-53225D01*
X49550Y-53225D02*
X49732Y-53225D01*
X50467Y-53225D02*
X52732Y-53225D01*
X53467Y-53225D02*
X54218Y-53225D01*
X56180Y-53225D02*
X56532Y-53225D01*
X57267Y-53225D02*
X59532Y-53225D01*
X60267Y-53225D02*
X60790Y-53225D01*
X62010Y-53225D02*
X62175Y-53225D01*
X39425Y-53305D02*
X39510Y-53305D01*
X40889Y-53305D02*
X41399Y-53305D01*
X41399Y-53305D02*
X43367Y-53305D01*
X43367Y-53305D02*
X47485Y-53305D01*
X49513Y-53305D02*
X49550Y-53305D01*
X49550Y-53305D02*
X49653Y-53305D01*
X50545Y-53305D02*
X52653Y-53305D01*
X53545Y-53305D02*
X54185Y-53305D01*
X56213Y-53305D02*
X56453Y-53305D01*
X57345Y-53305D02*
X59453Y-53305D01*
X60345Y-53305D02*
X60710Y-53305D01*
X62090Y-53305D02*
X62175Y-53305D01*
X39425Y-53385D02*
X39430Y-53385D01*
X40969Y-53385D02*
X41399Y-53385D01*
X41399Y-53385D02*
X43367Y-53385D01*
X43367Y-53385D02*
X47452Y-53385D01*
X49547Y-53385D02*
X49550Y-53385D01*
X49550Y-53385D02*
X49620Y-53385D01*
X50578Y-53385D02*
X52620Y-53385D01*
X53578Y-53385D02*
X54152Y-53385D01*
X56247Y-53385D02*
X56420Y-53385D01*
X57378Y-53385D02*
X59420Y-53385D01*
X60378Y-53385D02*
X60630Y-53385D01*
X62170Y-53385D02*
X62175Y-53385D01*
X41049Y-53465D02*
X41399Y-53465D01*
X41399Y-53465D02*
X43367Y-53465D01*
X43367Y-53465D02*
X47450Y-53465D01*
X49550Y-53465D02*
X49587Y-53465D01*
X50612Y-53465D02*
X52587Y-53465D01*
X53612Y-53465D02*
X54150Y-53465D01*
X56250Y-53465D02*
X56387Y-53465D01*
X57412Y-53465D02*
X59387Y-53465D01*
X60412Y-53465D02*
X60550Y-53465D01*
X41106Y-53545D02*
X41399Y-53545D01*
X41399Y-53545D02*
X43367Y-53545D01*
X43367Y-53545D02*
X47450Y-53545D01*
X49550Y-53545D02*
X49575Y-53545D01*
X50625Y-53545D02*
X52575Y-53545D01*
X53625Y-53545D02*
X54150Y-53545D01*
X56250Y-53545D02*
X56375Y-53545D01*
X57425Y-53545D02*
X59375Y-53545D01*
X60425Y-53545D02*
X60493Y-53545D01*
X41139Y-53625D02*
X41399Y-53625D01*
X41399Y-53625D02*
X43367Y-53625D01*
X43367Y-53625D02*
X47450Y-53625D01*
X49550Y-53625D02*
X49575Y-53625D01*
X50625Y-53625D02*
X52575Y-53625D01*
X53625Y-53625D02*
X54150Y-53625D01*
X56250Y-53625D02*
X56375Y-53625D01*
X57425Y-53625D02*
X59375Y-53625D01*
X60425Y-53625D02*
X60460Y-53625D01*
X41172Y-53705D02*
X41399Y-53705D01*
X41399Y-53705D02*
X43367Y-53705D01*
X43367Y-53705D02*
X47450Y-53705D01*
X49550Y-53705D02*
X49576Y-53705D01*
X50625Y-53705D02*
X52576Y-53705D01*
X53625Y-53705D02*
X54150Y-53705D01*
X56250Y-53705D02*
X56376Y-53705D01*
X57425Y-53705D02*
X59376Y-53705D01*
X60425Y-53705D02*
X60426Y-53705D01*
X41205Y-53785D02*
X41399Y-53785D01*
X41399Y-53785D02*
X43367Y-53785D01*
X43367Y-53785D02*
X47450Y-53785D01*
X49550Y-53785D02*
X49609Y-53785D01*
X50592Y-53785D02*
X52609Y-53785D01*
X53592Y-53785D02*
X54150Y-53785D01*
X56250Y-53785D02*
X56409Y-53785D01*
X57392Y-53785D02*
X59409Y-53785D01*
X60392Y-53785D02*
X60393Y-53785D01*
X41238Y-53865D02*
X41399Y-53865D01*
X41399Y-53865D02*
X43367Y-53865D01*
X43367Y-53865D02*
X47474Y-53865D01*
X49528Y-53865D02*
X49550Y-53865D01*
X49550Y-53865D02*
X49642Y-53865D01*
X50559Y-53865D02*
X52642Y-53865D01*
X53559Y-53865D02*
X54174Y-53865D01*
X56228Y-53865D02*
X56250Y-53865D01*
X56250Y-53865D02*
X56442Y-53865D01*
X57359Y-53865D02*
X59442Y-53865D01*
X60359Y-53865D02*
X60360Y-53865D01*
X41250Y-53945D02*
X41399Y-53945D01*
X41399Y-53945D02*
X43367Y-53945D01*
X43367Y-53945D02*
X47507Y-53945D01*
X49494Y-53945D02*
X49550Y-53945D01*
X49550Y-53945D02*
X49703Y-53945D01*
X50498Y-53945D02*
X52703Y-53945D01*
X53498Y-53945D02*
X54207Y-53945D01*
X56194Y-53945D02*
X56250Y-53945D01*
X56250Y-53945D02*
X56503Y-53945D01*
X57298Y-53945D02*
X59503Y-53945D01*
X60298Y-53945D02*
X60350Y-53945D01*
X41250Y-54025D02*
X41399Y-54025D01*
X41399Y-54025D02*
X43367Y-54025D01*
X43367Y-54025D02*
X47540Y-54025D01*
X49461Y-54025D02*
X49550Y-54025D01*
X49550Y-54025D02*
X49783Y-54025D01*
X50418Y-54025D02*
X52783Y-54025D01*
X53418Y-54025D02*
X54240Y-54025D01*
X56161Y-54025D02*
X56250Y-54025D01*
X56250Y-54025D02*
X56583Y-54025D01*
X57218Y-54025D02*
X59583Y-54025D01*
X60218Y-54025D02*
X60350Y-54025D01*
X41250Y-54105D02*
X41399Y-54105D01*
X41399Y-54105D02*
X43367Y-54105D01*
X43367Y-54105D02*
X47574Y-54105D01*
X49428Y-54105D02*
X49550Y-54105D01*
X49550Y-54105D02*
X49947Y-54105D01*
X50253Y-54105D02*
X52947Y-54105D01*
X53253Y-54105D02*
X54274Y-54105D01*
X56128Y-54105D02*
X56250Y-54105D01*
X56250Y-54105D02*
X56747Y-54105D01*
X57053Y-54105D02*
X59747Y-54105D01*
X60053Y-54105D02*
X60350Y-54105D01*
X41250Y-54185D02*
X41399Y-54185D01*
X41399Y-54185D02*
X43367Y-54185D01*
X43367Y-54185D02*
X47607Y-54185D01*
X49395Y-54185D02*
X49550Y-54185D01*
X49550Y-54185D02*
X54307Y-54185D01*
X56095Y-54185D02*
X56250Y-54185D01*
X56250Y-54185D02*
X60350Y-54185D01*
X41250Y-54265D02*
X41399Y-54265D01*
X41399Y-54265D02*
X43367Y-54265D01*
X43367Y-54265D02*
X47681Y-54265D01*
X49320Y-54265D02*
X49550Y-54265D01*
X49550Y-54265D02*
X54381Y-54265D01*
X56020Y-54265D02*
X56250Y-54265D01*
X56250Y-54265D02*
X60350Y-54265D01*
X41236Y-54345D02*
X41399Y-54345D01*
X41399Y-54345D02*
X43367Y-54345D01*
X43367Y-54345D02*
X47761Y-54345D01*
X49240Y-54345D02*
X49550Y-54345D01*
X49550Y-54345D02*
X54461Y-54345D01*
X55940Y-54345D02*
X56250Y-54345D01*
X56250Y-54345D02*
X60366Y-54345D01*
X41203Y-54425D02*
X41399Y-54425D01*
X41399Y-54425D02*
X43367Y-54425D01*
X43367Y-54425D02*
X47841Y-54425D01*
X49160Y-54425D02*
X49550Y-54425D01*
X49550Y-54425D02*
X54541Y-54425D01*
X55860Y-54425D02*
X56250Y-54425D01*
X56250Y-54425D02*
X60399Y-54425D01*
X41169Y-54505D02*
X41399Y-54505D01*
X41399Y-54505D02*
X43367Y-54505D01*
X43367Y-54505D02*
X47942Y-54505D01*
X49058Y-54505D02*
X49550Y-54505D01*
X49550Y-54505D02*
X54642Y-54505D01*
X55758Y-54505D02*
X56250Y-54505D01*
X56250Y-54505D02*
X60432Y-54505D01*
X41136Y-54585D02*
X41399Y-54585D01*
X41399Y-54585D02*
X43367Y-54585D01*
X43367Y-54585D02*
X48134Y-54585D01*
X48865Y-54585D02*
X49550Y-54585D01*
X49550Y-54585D02*
X54834Y-54585D01*
X55565Y-54585D02*
X56250Y-54585D01*
X56250Y-54585D02*
X60465Y-54585D01*
X41103Y-54665D02*
X41399Y-54665D01*
X41399Y-54665D02*
X43367Y-54665D01*
X43367Y-54665D02*
X49550Y-54665D01*
X49550Y-54665D02*
X56250Y-54665D01*
X56250Y-54665D02*
X60498Y-54665D01*
X41040Y-54745D02*
X41399Y-54745D01*
X41399Y-54745D02*
X43367Y-54745D01*
X43367Y-54745D02*
X49550Y-54745D01*
X49550Y-54745D02*
X56250Y-54745D01*
X56250Y-54745D02*
X60561Y-54745D01*
X40960Y-54825D02*
X41399Y-54825D01*
X41399Y-54825D02*
X43367Y-54825D01*
X43367Y-54825D02*
X49550Y-54825D01*
X49550Y-54825D02*
X56250Y-54825D01*
X56250Y-54825D02*
X60641Y-54825D01*
X62175Y-53390D02*
X61995Y-53210D01*
X61610Y-53050D01*
X61192Y-53050D01*
X60806Y-53210D01*
X60510Y-53505D01*
X60350Y-53890D01*
X60350Y-54308D01*
X60510Y-54694D01*
X60690Y-54875D01*
X56250Y-54875D01*
X56250Y-53810D01*
X56250Y-53392D01*
X56090Y-53006D01*
X55795Y-52710D01*
X55410Y-52550D01*
X54992Y-52550D01*
X54606Y-52710D01*
X54310Y-53005D01*
X54150Y-53390D01*
X54150Y-53808D01*
X54310Y-54194D01*
X54605Y-54490D01*
X54990Y-54650D01*
X55408Y-54650D01*
X55794Y-54490D01*
X56090Y-54195D01*
X56250Y-53810D01*
X56250Y-54875D01*
X49550Y-54875D01*
X49550Y-53810D01*
X49550Y-53392D01*
X49550Y-50810D01*
X49550Y-50392D01*
X49550Y-47810D01*
X49550Y-47392D01*
X49550Y-44810D01*
X49550Y-44392D01*
X49550Y-41810D01*
X49550Y-41392D01*
X49390Y-41006D01*
X49325Y-40940D01*
X49325Y-39705D01*
X49325Y-39496D01*
X49245Y-39303D01*
X49098Y-39155D01*
X48905Y-39075D01*
X48696Y-39075D01*
X48503Y-39155D01*
X48355Y-39302D01*
X48299Y-39435D01*
X48245Y-39303D01*
X48098Y-39155D01*
X47905Y-39075D01*
X47696Y-39075D01*
X47503Y-39155D01*
X47355Y-39302D01*
X47299Y-39435D01*
X47245Y-39303D01*
X47098Y-39155D01*
X46905Y-39075D01*
X46696Y-39075D01*
X46503Y-39155D01*
X46355Y-39302D01*
X46275Y-39495D01*
X46275Y-39704D01*
X46344Y-39872D01*
X46075Y-39872D01*
X45960Y-39895D01*
X45863Y-39960D01*
X45547Y-40276D01*
X45451Y-40276D01*
X45101Y-40276D01*
X45009Y-40314D01*
X44939Y-40384D01*
X44901Y-40475D01*
X44901Y-40574D01*
X44901Y-41106D01*
X44556Y-41106D01*
X44464Y-41144D01*
X44394Y-41214D01*
X44356Y-41305D01*
X44356Y-41404D01*
X44356Y-41994D01*
X44394Y-42086D01*
X44464Y-42156D01*
X44555Y-42194D01*
X44587Y-42194D01*
X44439Y-42342D01*
X44356Y-42542D01*
X44356Y-42758D01*
X44359Y-42766D01*
X44096Y-43030D01*
X44031Y-43127D01*
X44008Y-43242D01*
X44008Y-48558D01*
X44031Y-48673D01*
X44096Y-48770D01*
X44359Y-49033D01*
X44356Y-49042D01*
X44356Y-49258D01*
X44439Y-49458D01*
X44592Y-49611D01*
X44685Y-49650D01*
X44592Y-49689D01*
X44439Y-49842D01*
X44356Y-50042D01*
X44356Y-50258D01*
X44439Y-50458D01*
X44592Y-50611D01*
X44685Y-50650D01*
X44592Y-50689D01*
X44439Y-50842D01*
X44356Y-51042D01*
X44356Y-51258D01*
X44439Y-51458D01*
X44592Y-51611D01*
X44792Y-51694D01*
X45008Y-51694D01*
X45208Y-51611D01*
X45361Y-51458D01*
X45444Y-51258D01*
X45444Y-51042D01*
X45440Y-51033D01*
X45477Y-50996D01*
X45592Y-51111D01*
X45685Y-51150D01*
X45592Y-51189D01*
X45439Y-51342D01*
X45356Y-51542D01*
X45356Y-51758D01*
X45439Y-51958D01*
X45592Y-52111D01*
X45792Y-52194D01*
X46008Y-52194D01*
X46208Y-52111D01*
X46361Y-51958D01*
X46444Y-51758D01*
X46444Y-51542D01*
X46361Y-51342D01*
X46208Y-51189D01*
X46114Y-51150D01*
X46208Y-51111D01*
X46361Y-50958D01*
X46444Y-50758D01*
X46444Y-50542D01*
X46361Y-50342D01*
X46208Y-50189D01*
X46114Y-50150D01*
X46208Y-50111D01*
X46361Y-49958D01*
X46444Y-49758D01*
X46444Y-49542D01*
X46361Y-49342D01*
X46208Y-49189D01*
X46114Y-49150D01*
X46208Y-49111D01*
X46361Y-48958D01*
X46444Y-48758D01*
X46444Y-48542D01*
X46440Y-48533D01*
X46765Y-48209D01*
X46830Y-48112D01*
X46852Y-47997D01*
X46853Y-47997D01*
X46853Y-42803D01*
X46830Y-42688D01*
X46765Y-42591D01*
X46440Y-42266D01*
X46444Y-42258D01*
X46444Y-42042D01*
X46375Y-41875D01*
X46375Y-41292D01*
X46391Y-41286D01*
X46461Y-41216D01*
X46499Y-41125D01*
X46499Y-41026D01*
X46499Y-40476D01*
X46497Y-40472D01*
X47228Y-40472D01*
X47343Y-40449D01*
X47440Y-40384D01*
X47699Y-40125D01*
X47904Y-40125D01*
X48097Y-40045D01*
X48245Y-39898D01*
X48300Y-39764D01*
X48355Y-39897D01*
X48502Y-40045D01*
X48695Y-40125D01*
X48904Y-40125D01*
X49097Y-40045D01*
X49245Y-39898D01*
X49325Y-39705D01*
X49325Y-40940D01*
X49095Y-40710D01*
X48710Y-40550D01*
X48292Y-40550D01*
X47906Y-40710D01*
X47610Y-41005D01*
X47450Y-41390D01*
X47450Y-41808D01*
X47610Y-42194D01*
X47905Y-42490D01*
X48290Y-42650D01*
X48708Y-42650D01*
X49094Y-42490D01*
X49390Y-42195D01*
X49550Y-41810D01*
X49550Y-44392D01*
X49390Y-44006D01*
X49095Y-43710D01*
X48710Y-43550D01*
X48292Y-43550D01*
X47906Y-43710D01*
X47610Y-44005D01*
X47450Y-44390D01*
X47450Y-44808D01*
X47610Y-45194D01*
X47905Y-45490D01*
X48290Y-45650D01*
X48708Y-45650D01*
X49094Y-45490D01*
X49390Y-45195D01*
X49550Y-44810D01*
X49550Y-47392D01*
X49390Y-47006D01*
X49095Y-46710D01*
X48710Y-46550D01*
X48292Y-46550D01*
X47906Y-46710D01*
X47610Y-47005D01*
X47450Y-47390D01*
X47450Y-47808D01*
X47610Y-48194D01*
X47905Y-48490D01*
X48290Y-48650D01*
X48708Y-48650D01*
X49094Y-48490D01*
X49390Y-48195D01*
X49550Y-47810D01*
X49550Y-50392D01*
X49390Y-50006D01*
X49095Y-49710D01*
X48710Y-49550D01*
X48292Y-49550D01*
X47906Y-49710D01*
X47610Y-50005D01*
X47450Y-50390D01*
X47450Y-50808D01*
X47610Y-51194D01*
X47905Y-51490D01*
X48290Y-51650D01*
X48708Y-51650D01*
X49094Y-51490D01*
X49390Y-51195D01*
X49550Y-50810D01*
X49550Y-53392D01*
X49390Y-53006D01*
X49095Y-52710D01*
X48710Y-52550D01*
X48292Y-52550D01*
X47906Y-52710D01*
X47610Y-53005D01*
X47450Y-53390D01*
X47450Y-53808D01*
X47610Y-54194D01*
X47905Y-54490D01*
X48290Y-54650D01*
X48708Y-54650D01*
X49094Y-54490D01*
X49390Y-54195D01*
X49550Y-53810D01*
X49550Y-54875D01*
X43367Y-54875D01*
X43367Y-52431D01*
X43367Y-52046D01*
X43367Y-47758D01*
X43367Y-47373D01*
X43220Y-47018D01*
X42948Y-46745D01*
X42721Y-46651D01*
X42947Y-46558D01*
X43220Y-46286D01*
X43367Y-45931D01*
X43367Y-45546D01*
X43367Y-41258D01*
X43367Y-40873D01*
X43220Y-40518D01*
X42948Y-40245D01*
X42593Y-40098D01*
X42208Y-40098D01*
X41853Y-40245D01*
X41580Y-40517D01*
X41433Y-40872D01*
X41433Y-41257D01*
X41580Y-41612D01*
X41852Y-41885D01*
X42207Y-42032D01*
X42592Y-42032D01*
X42947Y-41885D01*
X43220Y-41613D01*
X43367Y-41258D01*
X43367Y-45546D01*
X43220Y-45191D01*
X42948Y-44918D01*
X42593Y-44771D01*
X42208Y-44771D01*
X41853Y-44918D01*
X41580Y-45190D01*
X41433Y-45545D01*
X41433Y-45930D01*
X41580Y-46285D01*
X41852Y-46558D01*
X42078Y-46651D01*
X41853Y-46745D01*
X41580Y-47017D01*
X41433Y-47372D01*
X41433Y-47757D01*
X41580Y-48112D01*
X41852Y-48385D01*
X42207Y-48532D01*
X42592Y-48532D01*
X42947Y-48385D01*
X43220Y-48113D01*
X43367Y-47758D01*
X43367Y-52046D01*
X43220Y-51691D01*
X42948Y-51418D01*
X42593Y-51271D01*
X42208Y-51271D01*
X41853Y-51418D01*
X41580Y-51690D01*
X41433Y-52045D01*
X41433Y-52430D01*
X41580Y-52785D01*
X41852Y-53058D01*
X42207Y-53205D01*
X42592Y-53205D01*
X42947Y-53058D01*
X43220Y-52786D01*
X43367Y-52431D01*
X43367Y-54875D01*
X41399Y-54875D01*
X41399Y-39719D01*
X41399Y-39481D01*
X41308Y-39261D01*
X41139Y-39092D01*
X40919Y-39001D01*
X40681Y-39001D01*
X40461Y-39092D01*
X40292Y-39261D01*
X40201Y-39481D01*
X40201Y-39719D01*
X40292Y-39939D01*
X40461Y-40108D01*
X40681Y-40199D01*
X40919Y-40199D01*
X41139Y-40108D01*
X41308Y-39939D01*
X41399Y-39719D01*
X41399Y-54875D01*
X40909Y-54875D01*
X41090Y-54695D01*
X41250Y-54310D01*
X41250Y-53892D01*
X41090Y-53506D01*
X40795Y-53210D01*
X40410Y-53050D01*
X39992Y-53050D01*
X39606Y-53210D01*
X39425Y-53390D01*
X39425Y-39401D01*
X39489Y-39465D01*
X39691Y-39549D01*
X39909Y-39549D01*
X40111Y-39465D01*
X40265Y-39311D01*
X40349Y-39109D01*
X40349Y-38891D01*
X40344Y-38879D01*
X40426Y-38798D01*
X40575Y-38798D01*
X40690Y-38775D01*
X40787Y-38710D01*
X40852Y-38613D01*
X40854Y-38601D01*
X40891Y-38586D01*
X40961Y-38516D01*
X40999Y-38425D01*
X40999Y-38326D01*
X40999Y-37776D01*
X40961Y-37684D01*
X40891Y-37614D01*
X40875Y-37607D01*
X40875Y-37604D01*
X41150Y-37329D01*
X41150Y-37708D01*
X41310Y-38094D01*
X41605Y-38390D01*
X41990Y-38550D01*
X42408Y-38550D01*
X42794Y-38390D01*
X43090Y-38095D01*
X43250Y-37710D01*
X43250Y-37292D01*
X43090Y-36906D01*
X42795Y-36610D01*
X42742Y-36588D01*
X43300Y-36030D01*
X43410Y-36294D01*
X43705Y-36590D01*
X44090Y-36750D01*
X44508Y-36750D01*
X44894Y-36590D01*
X45190Y-36295D01*
X45350Y-35910D01*
X45350Y-35492D01*
X45190Y-35106D01*
X44895Y-34810D01*
X44510Y-34650D01*
X44187Y-34650D01*
X44837Y-34000D01*
X44902Y-33903D01*
X44925Y-33788D01*
X44925Y-33509D01*
X45465Y-32969D01*
X45867Y-32969D01*
X45982Y-32946D01*
X46079Y-32881D01*
X46107Y-32854D01*
X46107Y-32853D01*
X46172Y-32756D01*
X46194Y-32641D01*
X46195Y-32641D01*
X46195Y-31537D01*
X46202Y-31545D01*
X46395Y-31625D01*
X46604Y-31625D01*
X46797Y-31545D01*
X46945Y-31398D01*
X47025Y-31205D01*
X47025Y-30996D01*
X46945Y-30803D01*
X46878Y-30735D01*
X46879Y-30734D01*
X46911Y-30714D01*
X47256Y-30373D01*
X47256Y-34720D01*
X47025Y-34951D01*
X47025Y-34405D01*
X47025Y-34196D01*
X46945Y-34003D01*
X46798Y-33855D01*
X46605Y-33775D01*
X46396Y-33775D01*
X46203Y-33855D01*
X46055Y-34002D01*
X45975Y-34195D01*
X45975Y-34404D01*
X46055Y-34597D01*
X46202Y-34745D01*
X46395Y-34825D01*
X46604Y-34825D01*
X46797Y-34745D01*
X46945Y-34598D01*
X47025Y-34405D01*
X47025Y-34951D01*
X45901Y-36075D01*
X45825Y-36075D01*
X45825Y-34405D01*
X45825Y-34196D01*
X45745Y-34003D01*
X45598Y-33855D01*
X45405Y-33775D01*
X45196Y-33775D01*
X45003Y-33855D01*
X44855Y-34002D01*
X44775Y-34195D01*
X44775Y-34404D01*
X44855Y-34597D01*
X45002Y-34745D01*
X45195Y-34825D01*
X45404Y-34825D01*
X45597Y-34745D01*
X45745Y-34598D01*
X45825Y-34405D01*
X45825Y-36075D01*
X45696Y-36075D01*
X45503Y-36155D01*
X45355Y-36302D01*
X45275Y-36495D01*
X45275Y-36704D01*
X45355Y-36897D01*
X45502Y-37045D01*
X45695Y-37125D01*
X45851Y-37125D01*
X45675Y-37301D01*
X45476Y-37301D01*
X45384Y-37339D01*
X45314Y-37409D01*
X45276Y-37500D01*
X45276Y-37599D01*
X45276Y-37949D01*
X45314Y-38041D01*
X45384Y-38111D01*
X45475Y-38149D01*
X45574Y-38149D01*
X46124Y-38149D01*
X46216Y-38111D01*
X46286Y-38041D01*
X46324Y-37950D01*
X46324Y-37851D01*
X46324Y-37501D01*
X46323Y-37500D01*
X46699Y-37125D01*
X46904Y-37125D01*
X47097Y-37045D01*
X47242Y-36900D01*
X47357Y-36900D01*
X47502Y-37045D01*
X47695Y-37125D01*
X47904Y-37125D01*
X48097Y-37045D01*
X48245Y-36898D01*
X48276Y-36823D01*
X48276Y-36924D01*
X48314Y-37016D01*
X48384Y-37086D01*
X48475Y-37124D01*
X48574Y-37124D01*
X49124Y-37124D01*
X49216Y-37086D01*
X49286Y-37016D01*
X49324Y-36925D01*
X49324Y-36826D01*
X49324Y-36276D01*
X49286Y-36184D01*
X49216Y-36114D01*
X49125Y-36076D01*
X49069Y-36076D01*
X49012Y-35990D01*
X49012Y-35989D01*
X48437Y-35414D01*
X48437Y-34779D01*
X48592Y-34844D01*
X48808Y-34844D01*
X49008Y-34761D01*
X49161Y-34608D01*
X49244Y-34408D01*
X49244Y-34192D01*
X49161Y-33992D01*
X49008Y-33839D01*
X48808Y-33756D01*
X48592Y-33756D01*
X48437Y-33820D01*
X48437Y-30741D01*
X50204Y-28974D01*
X50255Y-29097D01*
X50402Y-29245D01*
X50535Y-29300D01*
X50403Y-29355D01*
X50255Y-29502D01*
X50175Y-29695D01*
X50175Y-29900D01*
X49388Y-30688D01*
X49323Y-30785D01*
X49300Y-30900D01*
X49300Y-31076D01*
X49276Y-31076D01*
X49184Y-31114D01*
X49114Y-31184D01*
X49076Y-31275D01*
X49076Y-31374D01*
X49076Y-31924D01*
X49114Y-32016D01*
X49184Y-32086D01*
X49275Y-32124D01*
X49374Y-32124D01*
X49924Y-32124D01*
X50016Y-32086D01*
X50086Y-32016D01*
X50124Y-31925D01*
X50124Y-31826D01*
X50124Y-31276D01*
X50086Y-31184D01*
X50016Y-31114D01*
X49925Y-31076D01*
X49900Y-31076D01*
X49900Y-31024D01*
X50175Y-30749D01*
X50175Y-30904D01*
X50255Y-31097D01*
X50402Y-31245D01*
X50595Y-31325D01*
X50801Y-31325D01*
X51488Y-32012D01*
X51585Y-32077D01*
X51700Y-32100D01*
X52092Y-32100D01*
X52059Y-32114D01*
X51989Y-32184D01*
X51951Y-32275D01*
X51951Y-32374D01*
X51951Y-32778D01*
X51679Y-32778D01*
X51587Y-32816D01*
X51517Y-32886D01*
X51479Y-32977D01*
X51479Y-33055D01*
X51225Y-32801D01*
X51225Y-32696D01*
X51145Y-32503D01*
X50998Y-32355D01*
X50805Y-32275D01*
X50596Y-32275D01*
X50403Y-32355D01*
X50255Y-32502D01*
X50175Y-32695D01*
X50175Y-32904D01*
X50255Y-33097D01*
X50402Y-33245D01*
X50535Y-33300D01*
X50403Y-33355D01*
X50255Y-33502D01*
X50175Y-33695D01*
X50175Y-33904D01*
X50255Y-34097D01*
X50402Y-34245D01*
X50535Y-34300D01*
X50403Y-34355D01*
X50255Y-34502D01*
X50175Y-34695D01*
X50175Y-34900D01*
X49779Y-35297D01*
X49714Y-35394D01*
X49691Y-35509D01*
X49691Y-38332D01*
X49714Y-38447D01*
X49779Y-38544D01*
X50359Y-39124D01*
X50359Y-40076D01*
X50326Y-40076D01*
X49776Y-40076D01*
X49684Y-40114D01*
X49614Y-40184D01*
X49576Y-40275D01*
X49576Y-40374D01*
X49576Y-40924D01*
X49614Y-41016D01*
X49684Y-41086D01*
X49775Y-41124D01*
X49874Y-41124D01*
X49803Y-41155D01*
X49655Y-41302D01*
X49575Y-41495D01*
X49575Y-41704D01*
X49655Y-41897D01*
X49802Y-42045D01*
X49935Y-42100D01*
X49803Y-42155D01*
X49655Y-42302D01*
X49575Y-42495D01*
X49575Y-42704D01*
X49655Y-42897D01*
X49802Y-43045D01*
X49935Y-43100D01*
X49803Y-43155D01*
X49655Y-43302D01*
X49575Y-43495D01*
X49575Y-43704D01*
X49655Y-43897D01*
X49802Y-44045D01*
X49935Y-44100D01*
X49803Y-44155D01*
X49655Y-44302D01*
X49575Y-44495D01*
X49575Y-44704D01*
X49655Y-44897D01*
X49802Y-45045D01*
X49935Y-45100D01*
X49803Y-45155D01*
X49655Y-45302D01*
X49575Y-45495D01*
X49575Y-45704D01*
X49655Y-45897D01*
X49802Y-46045D01*
X49935Y-46100D01*
X49803Y-46155D01*
X49655Y-46302D01*
X49575Y-46495D01*
X49575Y-46704D01*
X49655Y-46897D01*
X49802Y-47045D01*
X49935Y-47100D01*
X49803Y-47155D01*
X49655Y-47302D01*
X49575Y-47495D01*
X49575Y-47704D01*
X49655Y-47897D01*
X49802Y-48045D01*
X49935Y-48100D01*
X49803Y-48155D01*
X49655Y-48302D01*
X49575Y-48495D01*
X49575Y-48704D01*
X49655Y-48897D01*
X49802Y-49045D01*
X49935Y-49100D01*
X49803Y-49155D01*
X49655Y-49302D01*
X49575Y-49495D01*
X49575Y-49704D01*
X49655Y-49897D01*
X49802Y-50045D01*
X49935Y-50100D01*
X49803Y-50155D01*
X49655Y-50302D01*
X49575Y-50495D01*
X49575Y-50704D01*
X49655Y-50897D01*
X49802Y-51045D01*
X49935Y-51100D01*
X49803Y-51155D01*
X49655Y-51302D01*
X49575Y-51495D01*
X49575Y-51704D01*
X49655Y-51897D01*
X49802Y-52045D01*
X49935Y-52100D01*
X49803Y-52155D01*
X49655Y-52302D01*
X49575Y-52495D01*
X49575Y-52704D01*
X49655Y-52897D01*
X49802Y-53045D01*
X49935Y-53100D01*
X49803Y-53155D01*
X49655Y-53302D01*
X49575Y-53495D01*
X49575Y-53704D01*
X49655Y-53897D01*
X49802Y-54045D01*
X49995Y-54125D01*
X50204Y-54125D01*
X50397Y-54045D01*
X50545Y-53898D01*
X50625Y-53705D01*
X50625Y-53496D01*
X50545Y-53303D01*
X50398Y-53155D01*
X50264Y-53099D01*
X50397Y-53045D01*
X50545Y-52898D01*
X50625Y-52705D01*
X50625Y-52496D01*
X50545Y-52303D01*
X50398Y-52155D01*
X50264Y-52099D01*
X50397Y-52045D01*
X50545Y-51898D01*
X50625Y-51705D01*
X50625Y-51496D01*
X50545Y-51303D01*
X50398Y-51155D01*
X50264Y-51099D01*
X50397Y-51045D01*
X50545Y-50898D01*
X50625Y-50705D01*
X50625Y-50549D01*
X52575Y-52499D01*
X52575Y-52704D01*
X52655Y-52897D01*
X52802Y-53045D01*
X52935Y-53100D01*
X52803Y-53155D01*
X52655Y-53302D01*
X52575Y-53495D01*
X52575Y-53704D01*
X52655Y-53897D01*
X52802Y-54045D01*
X52995Y-54125D01*
X53204Y-54125D01*
X53397Y-54045D01*
X53545Y-53898D01*
X53625Y-53705D01*
X53625Y-53496D01*
X53545Y-53303D01*
X53398Y-53155D01*
X53264Y-53099D01*
X53397Y-53045D01*
X53545Y-52898D01*
X53625Y-52705D01*
X53625Y-52496D01*
X53550Y-52316D01*
X56449Y-52316D01*
X56375Y-52495D01*
X56375Y-52704D01*
X56455Y-52897D01*
X56602Y-53045D01*
X56735Y-53100D01*
X56603Y-53155D01*
X56455Y-53302D01*
X56375Y-53495D01*
X56375Y-53704D01*
X56455Y-53897D01*
X56602Y-54045D01*
X56795Y-54125D01*
X57004Y-54125D01*
X57197Y-54045D01*
X57345Y-53898D01*
X57425Y-53705D01*
X57425Y-53496D01*
X57345Y-53303D01*
X57198Y-53155D01*
X57064Y-53099D01*
X57197Y-53045D01*
X57345Y-52898D01*
X57425Y-52705D01*
X57425Y-52496D01*
X57350Y-52316D01*
X59192Y-52316D01*
X59375Y-52499D01*
X59375Y-52704D01*
X59455Y-52897D01*
X59602Y-53045D01*
X59735Y-53100D01*
X59603Y-53155D01*
X59455Y-53302D01*
X59375Y-53495D01*
X59375Y-53704D01*
X59455Y-53897D01*
X59602Y-54045D01*
X59795Y-54125D01*
X60004Y-54125D01*
X60197Y-54045D01*
X60345Y-53898D01*
X60425Y-53705D01*
X60425Y-53496D01*
X60345Y-53303D01*
X60198Y-53155D01*
X60064Y-53099D01*
X60197Y-53045D01*
X60345Y-52898D01*
X60425Y-52705D01*
X60425Y-52496D01*
X60345Y-52303D01*
X60198Y-52155D01*
X60064Y-52099D01*
X60197Y-52045D01*
X60345Y-51898D01*
X60425Y-51705D01*
X60425Y-51496D01*
X60364Y-51349D01*
X60396Y-51328D01*
X60599Y-51125D01*
X60804Y-51125D01*
X60997Y-51045D01*
X61145Y-50898D01*
X61225Y-50705D01*
X61225Y-50496D01*
X61145Y-50303D01*
X60998Y-50155D01*
X60805Y-50075D01*
X60596Y-50075D01*
X60403Y-50155D01*
X60299Y-50257D01*
X60198Y-50155D01*
X60064Y-50099D01*
X60197Y-50045D01*
X60345Y-49898D01*
X60425Y-49705D01*
X60425Y-49496D01*
X60345Y-49303D01*
X60198Y-49155D01*
X60064Y-49099D01*
X60197Y-49045D01*
X60345Y-48898D01*
X60425Y-48705D01*
X60425Y-48496D01*
X60345Y-48303D01*
X60198Y-48155D01*
X60064Y-48099D01*
X60197Y-48045D01*
X60345Y-47898D01*
X60425Y-47705D01*
X60425Y-47496D01*
X60345Y-47303D01*
X60198Y-47155D01*
X60005Y-47075D01*
X59796Y-47075D01*
X59603Y-47155D01*
X59455Y-47302D01*
X59393Y-47451D01*
X59326Y-47451D01*
X58776Y-47451D01*
X58684Y-47489D01*
X58614Y-47559D01*
X58576Y-47650D01*
X58576Y-47749D01*
X58576Y-48099D01*
X58614Y-48191D01*
X58684Y-48261D01*
X58775Y-48299D01*
X58830Y-48299D01*
X58888Y-48385D01*
X58985Y-48450D01*
X59100Y-48473D01*
X59348Y-48473D01*
X59375Y-48499D01*
X59375Y-48704D01*
X59398Y-48759D01*
X59350Y-48750D01*
X57406Y-48750D01*
X57425Y-48705D01*
X57425Y-48496D01*
X57345Y-48303D01*
X57198Y-48155D01*
X57064Y-48099D01*
X57197Y-48045D01*
X57345Y-47898D01*
X57425Y-47705D01*
X57425Y-47496D01*
X57345Y-47303D01*
X57198Y-47155D01*
X57064Y-47099D01*
X57197Y-47045D01*
X57345Y-46898D01*
X57425Y-46705D01*
X57425Y-46496D01*
X57385Y-46400D01*
X59400Y-46400D01*
X59515Y-46377D01*
X59612Y-46312D01*
X59799Y-46125D01*
X60004Y-46125D01*
X60197Y-46045D01*
X60345Y-45898D01*
X60425Y-45705D01*
X60425Y-45496D01*
X60345Y-45303D01*
X60198Y-45155D01*
X60064Y-45099D01*
X60197Y-45045D01*
X60345Y-44898D01*
X60425Y-44705D01*
X60425Y-44496D01*
X60345Y-44303D01*
X60198Y-44155D01*
X60064Y-44099D01*
X60197Y-44045D01*
X60345Y-43898D01*
X60425Y-43705D01*
X60425Y-43496D01*
X60345Y-43303D01*
X60198Y-43155D01*
X60064Y-43099D01*
X60197Y-43045D01*
X60345Y-42898D01*
X60425Y-42705D01*
X60425Y-42496D01*
X60345Y-42303D01*
X60198Y-42155D01*
X60005Y-42075D01*
X59796Y-42075D01*
X59603Y-42155D01*
X59455Y-42302D01*
X59375Y-42495D01*
X59375Y-42704D01*
X59416Y-42803D01*
X59400Y-42800D01*
X58524Y-42800D01*
X58524Y-26725D01*
X58524Y-26626D01*
X58524Y-26076D01*
X58486Y-25984D01*
X58416Y-25914D01*
X58325Y-25876D01*
X58226Y-25876D01*
X57676Y-25876D01*
X57584Y-25914D01*
X57514Y-25984D01*
X57476Y-26075D01*
X57476Y-26174D01*
X57476Y-26724D01*
X57514Y-26816D01*
X57584Y-26886D01*
X57675Y-26924D01*
X57774Y-26924D01*
X58324Y-26924D01*
X58416Y-26886D01*
X58486Y-26816D01*
X58524Y-26725D01*
X58524Y-42800D01*
X57385Y-42800D01*
X57425Y-42705D01*
X57425Y-42496D01*
X57345Y-42303D01*
X57198Y-42155D01*
X57064Y-42099D01*
X57197Y-42045D01*
X57345Y-41898D01*
X57425Y-41705D01*
X57425Y-41496D01*
X57345Y-41303D01*
X57198Y-41155D01*
X57123Y-41124D01*
X57224Y-41124D01*
X57316Y-41086D01*
X57386Y-41016D01*
X57424Y-40925D01*
X57424Y-40826D01*
X57424Y-40276D01*
X57386Y-40184D01*
X57316Y-40114D01*
X57225Y-40076D01*
X57126Y-40076D01*
X56576Y-40076D01*
X56484Y-40114D01*
X56414Y-40184D01*
X56376Y-40275D01*
X56376Y-40374D01*
X56376Y-40924D01*
X56414Y-41016D01*
X56484Y-41086D01*
X56575Y-41124D01*
X56674Y-41124D01*
X56603Y-41155D01*
X56455Y-41302D01*
X56375Y-41495D01*
X56375Y-41704D01*
X56455Y-41897D01*
X56602Y-42045D01*
X56735Y-42100D01*
X56603Y-42155D01*
X56455Y-42302D01*
X56375Y-42495D01*
X56375Y-42704D01*
X56414Y-42800D01*
X56350Y-42800D01*
X56350Y-41810D01*
X56350Y-41392D01*
X56190Y-41006D01*
X55895Y-40710D01*
X55510Y-40550D01*
X55092Y-40550D01*
X54706Y-40710D01*
X54410Y-41005D01*
X54250Y-41390D01*
X54250Y-41808D01*
X54410Y-42194D01*
X54705Y-42490D01*
X55090Y-42650D01*
X55508Y-42650D01*
X55894Y-42490D01*
X56190Y-42195D01*
X56350Y-41810D01*
X56350Y-42800D01*
X53600Y-42800D01*
X53584Y-42803D01*
X53625Y-42705D01*
X53625Y-42496D01*
X53545Y-42303D01*
X53398Y-42155D01*
X53205Y-42075D01*
X52996Y-42075D01*
X52803Y-42155D01*
X52655Y-42302D01*
X52575Y-42495D01*
X52575Y-42704D01*
X52655Y-42897D01*
X52802Y-43045D01*
X52935Y-43100D01*
X52803Y-43155D01*
X52655Y-43302D01*
X52575Y-43495D01*
X52575Y-43704D01*
X52655Y-43897D01*
X52802Y-44045D01*
X52935Y-44100D01*
X52803Y-44155D01*
X52655Y-44302D01*
X52575Y-44495D01*
X52575Y-44704D01*
X52655Y-44897D01*
X52802Y-45045D01*
X52935Y-45100D01*
X52803Y-45155D01*
X52655Y-45302D01*
X52575Y-45495D01*
X52575Y-45704D01*
X52655Y-45897D01*
X52802Y-46045D01*
X52995Y-46125D01*
X53201Y-46125D01*
X53388Y-46312D01*
X53485Y-46377D01*
X53600Y-46400D01*
X56414Y-46400D01*
X56375Y-46495D01*
X56375Y-46704D01*
X56455Y-46897D01*
X56602Y-47045D01*
X56735Y-47100D01*
X56603Y-47155D01*
X56455Y-47302D01*
X56375Y-47495D01*
X56375Y-47704D01*
X56455Y-47897D01*
X56602Y-48045D01*
X56735Y-48100D01*
X56603Y-48155D01*
X56455Y-48302D01*
X56375Y-48495D01*
X56375Y-48704D01*
X56394Y-48750D01*
X56350Y-48750D01*
X56350Y-47810D01*
X56350Y-47392D01*
X56190Y-47006D01*
X55895Y-46710D01*
X55510Y-46550D01*
X55092Y-46550D01*
X54706Y-46710D01*
X54410Y-47005D01*
X54250Y-47390D01*
X54250Y-47808D01*
X54410Y-48194D01*
X54705Y-48490D01*
X55090Y-48650D01*
X55508Y-48650D01*
X55894Y-48490D01*
X56190Y-48195D01*
X56350Y-47810D01*
X56350Y-48750D01*
X53950Y-48750D01*
X53950Y-48150D01*
X53949Y-48149D01*
X53927Y-48035D01*
X53862Y-47938D01*
X53862Y-47937D01*
X53625Y-47700D01*
X53625Y-47496D01*
X53545Y-47303D01*
X53398Y-47155D01*
X53205Y-47075D01*
X52996Y-47075D01*
X52803Y-47155D01*
X52655Y-47302D01*
X52575Y-47495D01*
X52575Y-47648D01*
X52516Y-47589D01*
X52425Y-47551D01*
X52326Y-47551D01*
X51776Y-47551D01*
X51684Y-47589D01*
X51614Y-47659D01*
X51576Y-47750D01*
X51576Y-47849D01*
X51576Y-48199D01*
X51614Y-48291D01*
X51684Y-48361D01*
X51775Y-48399D01*
X51830Y-48399D01*
X51888Y-48485D01*
X51985Y-48550D01*
X52100Y-48573D01*
X52575Y-48573D01*
X52575Y-48704D01*
X52655Y-48897D01*
X52802Y-49045D01*
X52935Y-49100D01*
X52803Y-49155D01*
X52655Y-49302D01*
X52575Y-49495D01*
X52575Y-49704D01*
X52655Y-49897D01*
X52802Y-50045D01*
X52935Y-50100D01*
X52803Y-50155D01*
X52655Y-50302D01*
X52575Y-50495D01*
X52575Y-50704D01*
X52655Y-50897D01*
X52802Y-51045D01*
X52935Y-51100D01*
X52803Y-51155D01*
X52655Y-51302D01*
X52649Y-51314D01*
X51219Y-49883D01*
X51219Y-38894D01*
X51196Y-38779D01*
X51131Y-38682D01*
X50774Y-38325D01*
X50804Y-38325D01*
X50997Y-38245D01*
X51145Y-38098D01*
X51176Y-38023D01*
X51176Y-38124D01*
X51214Y-38216D01*
X51284Y-38286D01*
X51375Y-38324D01*
X51474Y-38324D01*
X52024Y-38324D01*
X52116Y-38286D01*
X52186Y-38216D01*
X52224Y-38125D01*
X52224Y-38026D01*
X52224Y-37476D01*
X52186Y-37384D01*
X52116Y-37314D01*
X52025Y-37276D01*
X51926Y-37276D01*
X51376Y-37276D01*
X51284Y-37314D01*
X51214Y-37384D01*
X51176Y-37475D01*
X51176Y-37574D01*
X51176Y-37577D01*
X51145Y-37503D01*
X50998Y-37355D01*
X50864Y-37299D01*
X50997Y-37245D01*
X51145Y-37098D01*
X51225Y-36905D01*
X51225Y-36696D01*
X51145Y-36503D01*
X50998Y-36355D01*
X50864Y-36299D01*
X50997Y-36245D01*
X51145Y-36098D01*
X51225Y-35905D01*
X51225Y-35696D01*
X51145Y-35503D01*
X50998Y-35355D01*
X50864Y-35299D01*
X50997Y-35245D01*
X51039Y-35203D01*
X51479Y-35643D01*
X51479Y-36422D01*
X51517Y-36514D01*
X51587Y-36584D01*
X51678Y-36622D01*
X51777Y-36622D01*
X51951Y-36622D01*
X51951Y-37124D01*
X51989Y-37216D01*
X52059Y-37286D01*
X52150Y-37324D01*
X52249Y-37324D01*
X52599Y-37324D01*
X52691Y-37286D01*
X52761Y-37216D01*
X52799Y-37125D01*
X52799Y-37026D01*
X52799Y-36589D01*
X52813Y-36584D01*
X52883Y-36514D01*
X52921Y-36423D01*
X52921Y-36324D01*
X52921Y-35458D01*
X52883Y-35366D01*
X52813Y-35296D01*
X52722Y-35258D01*
X52623Y-35258D01*
X51942Y-35258D01*
X51500Y-34815D01*
X51500Y-33992D01*
X51517Y-34034D01*
X51587Y-34104D01*
X51678Y-34142D01*
X51777Y-34142D01*
X52721Y-34142D01*
X52813Y-34104D01*
X52883Y-34034D01*
X52921Y-33943D01*
X52921Y-33844D01*
X52921Y-32978D01*
X52883Y-32886D01*
X52813Y-32816D01*
X52799Y-32810D01*
X52799Y-32276D01*
X52761Y-32184D01*
X52691Y-32114D01*
X52657Y-32100D01*
X53257Y-32100D01*
X53402Y-32245D01*
X53535Y-32300D01*
X53403Y-32355D01*
X53255Y-32502D01*
X53175Y-32695D01*
X53175Y-32904D01*
X53255Y-33097D01*
X53402Y-33245D01*
X53535Y-33300D01*
X53403Y-33355D01*
X53255Y-33502D01*
X53175Y-33695D01*
X53175Y-33904D01*
X53255Y-34097D01*
X53402Y-34245D01*
X53535Y-34300D01*
X53403Y-34355D01*
X53255Y-34502D01*
X53175Y-34695D01*
X53175Y-34904D01*
X53255Y-35097D01*
X53402Y-35245D01*
X53535Y-35300D01*
X53403Y-35355D01*
X53255Y-35502D01*
X53175Y-35695D01*
X53175Y-35904D01*
X53255Y-36097D01*
X53402Y-36245D01*
X53535Y-36300D01*
X53403Y-36355D01*
X53255Y-36502D01*
X53175Y-36695D01*
X53175Y-36904D01*
X53255Y-37097D01*
X53402Y-37245D01*
X53535Y-37300D01*
X53403Y-37355D01*
X53255Y-37502D01*
X53175Y-37695D01*
X53175Y-37904D01*
X53255Y-38097D01*
X53402Y-38245D01*
X53595Y-38325D01*
X53804Y-38325D01*
X53997Y-38245D01*
X54145Y-38098D01*
X54225Y-37905D01*
X54225Y-37699D01*
X56408Y-35516D01*
X56449Y-35516D01*
X56375Y-35695D01*
X56375Y-35904D01*
X56455Y-36097D01*
X56602Y-36245D01*
X56795Y-36325D01*
X57004Y-36325D01*
X57197Y-36245D01*
X57345Y-36098D01*
X57425Y-35905D01*
X57425Y-35696D01*
X57345Y-35503D01*
X57395Y-35493D01*
X57492Y-35428D01*
X57520Y-35401D01*
X57520Y-35400D01*
X57585Y-35303D01*
X57607Y-35188D01*
X57608Y-35188D01*
X57608Y-34208D01*
X57607Y-34207D01*
X57585Y-34093D01*
X57520Y-33996D01*
X57519Y-33995D01*
X57425Y-33901D01*
X57425Y-33696D01*
X57345Y-33503D01*
X57198Y-33355D01*
X57064Y-33299D01*
X57197Y-33245D01*
X57345Y-33098D01*
X57425Y-32905D01*
X57425Y-32696D01*
X57345Y-32503D01*
X57198Y-32355D01*
X57005Y-32275D01*
X56796Y-32275D01*
X56603Y-32355D01*
X56455Y-32502D01*
X56375Y-32695D01*
X56375Y-32904D01*
X56455Y-33097D01*
X56602Y-33245D01*
X56735Y-33300D01*
X56603Y-33355D01*
X56455Y-33502D01*
X56375Y-33695D01*
X56375Y-33851D01*
X56112Y-33588D01*
X56015Y-33523D01*
X55900Y-33500D01*
X54142Y-33500D01*
X53998Y-33355D01*
X53864Y-33299D01*
X53997Y-33245D01*
X54145Y-33098D01*
X54225Y-32905D01*
X54225Y-32696D01*
X54145Y-32503D01*
X53998Y-32355D01*
X53864Y-32299D01*
X53997Y-32245D01*
X54145Y-32098D01*
X54225Y-31905D01*
X54225Y-31696D01*
X54145Y-31503D01*
X53998Y-31355D01*
X53805Y-31275D01*
X53596Y-31275D01*
X53403Y-31355D01*
X53257Y-31500D01*
X51824Y-31500D01*
X51225Y-30901D01*
X51225Y-30696D01*
X51145Y-30503D01*
X50998Y-30355D01*
X50864Y-30299D01*
X50997Y-30245D01*
X51145Y-30098D01*
X51225Y-29905D01*
X51225Y-29696D01*
X51145Y-29503D01*
X50998Y-29355D01*
X50864Y-29299D01*
X50997Y-29245D01*
X51145Y-29098D01*
X51225Y-28905D01*
X51225Y-28699D01*
X52324Y-27600D01*
X53214Y-27600D01*
X53175Y-27695D01*
X53175Y-27904D01*
X53255Y-28097D01*
X53402Y-28245D01*
X53535Y-28300D01*
X53403Y-28355D01*
X53255Y-28502D01*
X53175Y-28695D01*
X53175Y-28904D01*
X53255Y-29097D01*
X53402Y-29245D01*
X53535Y-29300D01*
X53403Y-29355D01*
X53255Y-29502D01*
X53175Y-29695D01*
X53175Y-29904D01*
X53255Y-30097D01*
X53402Y-30245D01*
X53595Y-30325D01*
X53804Y-30325D01*
X53997Y-30245D01*
X54145Y-30098D01*
X54225Y-29905D01*
X54225Y-29696D01*
X54145Y-29503D01*
X53998Y-29355D01*
X53864Y-29299D01*
X53997Y-29245D01*
X54145Y-29098D01*
X54225Y-28905D01*
X54225Y-28696D01*
X54145Y-28503D01*
X53998Y-28355D01*
X53864Y-28299D01*
X53997Y-28245D01*
X54145Y-28098D01*
X54225Y-27905D01*
X54225Y-27696D01*
X54185Y-27600D01*
X55000Y-27600D01*
X55051Y-27589D01*
X55051Y-27674D01*
X55051Y-28224D01*
X55089Y-28316D01*
X55159Y-28386D01*
X55192Y-28400D01*
X55159Y-28414D01*
X55089Y-28484D01*
X55051Y-28575D01*
X55051Y-28674D01*
X55051Y-29224D01*
X55089Y-29316D01*
X55123Y-29350D01*
X55089Y-29384D01*
X55051Y-29475D01*
X55051Y-29574D01*
X55051Y-30124D01*
X55089Y-30216D01*
X55159Y-30286D01*
X55250Y-30324D01*
X55349Y-30324D01*
X55699Y-30324D01*
X55791Y-30286D01*
X55793Y-30283D01*
X55895Y-30325D01*
X56104Y-30325D01*
X56297Y-30245D01*
X56445Y-30098D01*
X56450Y-30085D01*
X56455Y-30097D01*
X56602Y-30245D01*
X56735Y-30300D01*
X56603Y-30355D01*
X56455Y-30502D01*
X56375Y-30695D01*
X56375Y-30904D01*
X56455Y-31097D01*
X56602Y-31245D01*
X56795Y-31325D01*
X57004Y-31325D01*
X57197Y-31245D01*
X57345Y-31098D01*
X57425Y-30905D01*
X57425Y-30696D01*
X57345Y-30503D01*
X57198Y-30355D01*
X57125Y-30325D01*
X57207Y-30325D01*
X57214Y-30341D01*
X57284Y-30411D01*
X57375Y-30449D01*
X57474Y-30449D01*
X58024Y-30449D01*
X58116Y-30411D01*
X58186Y-30341D01*
X58224Y-30250D01*
X58224Y-30151D01*
X58224Y-29801D01*
X58186Y-29709D01*
X58116Y-29639D01*
X58025Y-29601D01*
X57926Y-29601D01*
X57385Y-29601D01*
X57345Y-29503D01*
X57198Y-29355D01*
X57064Y-29299D01*
X57197Y-29245D01*
X57345Y-29098D01*
X57425Y-28905D01*
X57425Y-28696D01*
X57345Y-28503D01*
X57198Y-28355D01*
X57064Y-28299D01*
X57197Y-28245D01*
X57345Y-28098D01*
X57425Y-27905D01*
X57425Y-27696D01*
X57345Y-27503D01*
X57198Y-27355D01*
X57064Y-27299D01*
X57197Y-27245D01*
X57345Y-27098D01*
X57425Y-26905D01*
X57425Y-26696D01*
X57345Y-26503D01*
X57198Y-26355D01*
X57064Y-26299D01*
X57197Y-26245D01*
X57345Y-26098D01*
X57425Y-25905D01*
X57425Y-25696D01*
X57345Y-25503D01*
X57198Y-25355D01*
X57064Y-25299D01*
X57197Y-25245D01*
X57345Y-25098D01*
X57425Y-24905D01*
X57425Y-24696D01*
X57345Y-24503D01*
X57198Y-24355D01*
X57005Y-24275D01*
X56796Y-24275D01*
X56603Y-24355D01*
X56455Y-24502D01*
X56375Y-24695D01*
X56375Y-24904D01*
X56455Y-25097D01*
X56602Y-25245D01*
X56735Y-25300D01*
X56603Y-25355D01*
X56455Y-25502D01*
X56375Y-25695D01*
X56375Y-25904D01*
X56455Y-26097D01*
X56602Y-26245D01*
X56735Y-26300D01*
X56603Y-26355D01*
X56455Y-26502D01*
X56449Y-26514D01*
X56445Y-26503D01*
X56298Y-26355D01*
X56105Y-26275D01*
X55896Y-26275D01*
X55794Y-26317D01*
X55791Y-26314D01*
X55700Y-26276D01*
X55601Y-26276D01*
X55324Y-26276D01*
X55324Y-26125D01*
X55324Y-26026D01*
X55324Y-25476D01*
X55286Y-25384D01*
X55216Y-25314D01*
X55182Y-25299D01*
X55216Y-25286D01*
X55286Y-25216D01*
X55324Y-25125D01*
X55324Y-25026D01*
X55324Y-24476D01*
X55286Y-24384D01*
X55216Y-24314D01*
X55125Y-24276D01*
X55026Y-24276D01*
X54476Y-24276D01*
X54384Y-24314D01*
X54314Y-24384D01*
X54276Y-24475D01*
X54276Y-24574D01*
X54276Y-25124D01*
X54314Y-25216D01*
X54384Y-25286D01*
X54417Y-25300D01*
X54384Y-25314D01*
X54314Y-25384D01*
X54276Y-25475D01*
X54276Y-25574D01*
X54276Y-26124D01*
X54314Y-26216D01*
X54384Y-26286D01*
X54475Y-26324D01*
X54574Y-26324D01*
X55124Y-26324D01*
X55216Y-26286D01*
X55286Y-26216D01*
X55324Y-26125D01*
X55324Y-26276D01*
X55251Y-26276D01*
X55159Y-26314D01*
X55089Y-26384D01*
X55051Y-26475D01*
X55051Y-26574D01*
X55051Y-26926D01*
X54964Y-26944D01*
X54879Y-27000D01*
X54185Y-27000D01*
X54225Y-26905D01*
X54225Y-26696D01*
X54145Y-26503D01*
X53998Y-26355D01*
X53864Y-26299D01*
X53997Y-26245D01*
X54145Y-26098D01*
X54225Y-25905D01*
X54225Y-25696D01*
X54145Y-25503D01*
X53998Y-25355D01*
X53864Y-25299D01*
X53997Y-25245D01*
X54145Y-25098D01*
X54225Y-24905D01*
X54225Y-24696D01*
X54145Y-24503D01*
X53998Y-24355D01*
X53805Y-24275D01*
X53596Y-24275D01*
X53403Y-24355D01*
X53255Y-24502D01*
X53175Y-24695D01*
X53175Y-24904D01*
X53255Y-25097D01*
X53402Y-25245D01*
X53535Y-25300D01*
X53403Y-25355D01*
X53255Y-25502D01*
X53175Y-25695D01*
X53175Y-25904D01*
X53255Y-26097D01*
X53402Y-26245D01*
X53535Y-26300D01*
X53403Y-26355D01*
X53255Y-26502D01*
X53175Y-26695D01*
X53175Y-26904D01*
X53214Y-27000D01*
X52200Y-27000D01*
X52085Y-27023D01*
X51988Y-27088D01*
X51601Y-27475D01*
X51601Y-26401D01*
X51600Y-26400D01*
X51578Y-26286D01*
X51513Y-26189D01*
X51512Y-26188D01*
X51225Y-25901D01*
X51225Y-25696D01*
X51145Y-25503D01*
X50998Y-25355D01*
X50959Y-25339D01*
X50969Y-25324D01*
X51024Y-25324D01*
X51116Y-25286D01*
X51186Y-25216D01*
X51224Y-25125D01*
X51224Y-25026D01*
X51224Y-24476D01*
X51186Y-24384D01*
X51116Y-24314D01*
X51025Y-24276D01*
X50926Y-24276D01*
X50376Y-24276D01*
X50284Y-24314D01*
X50214Y-24384D01*
X50176Y-24475D01*
X50176Y-24574D01*
X50176Y-25124D01*
X50214Y-25216D01*
X50235Y-25237D01*
X50090Y-25384D01*
X50025Y-25481D01*
X50002Y-25596D01*
X50002Y-26359D01*
X49998Y-26355D01*
X49805Y-26275D01*
X49596Y-26275D01*
X49403Y-26355D01*
X49255Y-26502D01*
X49175Y-26695D01*
X49175Y-26904D01*
X49255Y-27097D01*
X49402Y-27245D01*
X49522Y-27294D01*
X49025Y-27784D01*
X49025Y-26905D01*
X49025Y-26696D01*
X48945Y-26503D01*
X48798Y-26355D01*
X48605Y-26275D01*
X48396Y-26275D01*
X48203Y-26355D01*
X48055Y-26502D01*
X47975Y-26695D01*
X47975Y-26904D01*
X48055Y-27097D01*
X48202Y-27245D01*
X48395Y-27325D01*
X48604Y-27325D01*
X48797Y-27245D01*
X48945Y-27098D01*
X49025Y-26905D01*
X49025Y-27784D01*
X47399Y-29387D01*
X47399Y-26919D01*
X47399Y-26681D01*
X47399Y-24919D01*
X47399Y-24681D01*
X47308Y-24461D01*
X47139Y-24292D01*
X46919Y-24201D01*
X46681Y-24201D01*
X46461Y-24292D01*
X46292Y-24461D01*
X46201Y-24681D01*
X46201Y-24919D01*
X46292Y-25139D01*
X46461Y-25308D01*
X46681Y-25399D01*
X46919Y-25399D01*
X47139Y-25308D01*
X47308Y-25139D01*
X47399Y-24919D01*
X47399Y-26681D01*
X47308Y-26461D01*
X47139Y-26292D01*
X46919Y-26201D01*
X46681Y-26201D01*
X46461Y-26292D01*
X46292Y-26461D01*
X46201Y-26681D01*
X46201Y-26919D01*
X46292Y-27139D01*
X46461Y-27308D01*
X46681Y-27399D01*
X46919Y-27399D01*
X47139Y-27308D01*
X47308Y-27139D01*
X47399Y-26919D01*
X47399Y-29387D01*
X47125Y-29658D01*
X47125Y-29496D01*
X47045Y-29303D01*
X46898Y-29155D01*
X46705Y-29075D01*
X46496Y-29075D01*
X46303Y-29155D01*
X46155Y-29302D01*
X46075Y-29495D01*
X46075Y-29704D01*
X46155Y-29897D01*
X46302Y-30045D01*
X46495Y-30125D01*
X46652Y-30125D01*
X46556Y-30219D01*
X46050Y-30304D01*
X46012Y-30318D01*
X45994Y-30322D01*
X45994Y-27895D01*
X45994Y-27796D01*
X45994Y-25906D01*
X45956Y-25814D01*
X45886Y-25744D01*
X45795Y-25706D01*
X45696Y-25706D01*
X43806Y-25706D01*
X43714Y-25744D01*
X43644Y-25814D01*
X43606Y-25905D01*
X43606Y-26004D01*
X43606Y-27733D01*
X43538Y-27705D01*
X43063Y-27705D01*
X42624Y-27887D01*
X42287Y-28223D01*
X42105Y-28662D01*
X42105Y-29137D01*
X42287Y-29576D01*
X42623Y-29913D01*
X43062Y-30095D01*
X43537Y-30095D01*
X43976Y-29913D01*
X44313Y-29577D01*
X44495Y-29138D01*
X44495Y-28663D01*
X44313Y-28224D01*
X44183Y-28094D01*
X45794Y-28094D01*
X45886Y-28056D01*
X45956Y-27986D01*
X45994Y-27895D01*
X45994Y-30322D01*
X45985Y-30324D01*
X45967Y-30335D01*
X45941Y-30346D01*
X45925Y-30360D01*
X45925Y-29705D01*
X45925Y-29496D01*
X45845Y-29303D01*
X45698Y-29155D01*
X45505Y-29075D01*
X45296Y-29075D01*
X45103Y-29155D01*
X44955Y-29302D01*
X44875Y-29495D01*
X44875Y-29704D01*
X44955Y-29897D01*
X45102Y-30045D01*
X45295Y-30125D01*
X45504Y-30125D01*
X45697Y-30045D01*
X45845Y-29898D01*
X45925Y-29705D01*
X45925Y-30360D01*
X45913Y-30371D01*
X45888Y-30389D01*
X45875Y-30407D01*
X45856Y-30426D01*
X45853Y-30430D01*
X45795Y-30406D01*
X45696Y-30406D01*
X43806Y-30406D01*
X43714Y-30444D01*
X43644Y-30514D01*
X43606Y-30605D01*
X43606Y-30704D01*
X43606Y-32433D01*
X43538Y-32405D01*
X43063Y-32405D01*
X42624Y-32587D01*
X42287Y-32923D01*
X42105Y-33362D01*
X42105Y-33837D01*
X42287Y-34276D01*
X42360Y-34350D01*
X41992Y-34350D01*
X41606Y-34510D01*
X41310Y-34805D01*
X41150Y-35190D01*
X41150Y-35608D01*
X41310Y-35994D01*
X41529Y-36214D01*
X41428Y-36235D01*
X41390Y-36260D01*
X41308Y-36061D01*
X41139Y-35892D01*
X40919Y-35801D01*
X40681Y-35801D01*
X40461Y-35892D01*
X40292Y-36061D01*
X40201Y-36281D01*
X40201Y-36519D01*
X40292Y-36739D01*
X40461Y-36908D01*
X40646Y-36984D01*
X40363Y-37268D01*
X40298Y-37365D01*
X40275Y-37480D01*
X40275Y-37607D01*
X40259Y-37614D01*
X40189Y-37684D01*
X40151Y-37775D01*
X40151Y-37874D01*
X40151Y-38245D01*
X40090Y-38286D01*
X40089Y-38286D01*
X40089Y-38287D01*
X39920Y-38455D01*
X39909Y-38451D01*
X39691Y-38451D01*
X39489Y-38535D01*
X39425Y-38599D01*
X39425Y-35309D01*
X39605Y-35490D01*
X39990Y-35650D01*
X40408Y-35650D01*
X40794Y-35490D01*
X41090Y-35195D01*
X41250Y-34810D01*
X41250Y-34392D01*
X41090Y-34006D01*
X40795Y-33710D01*
X40410Y-33550D01*
X39992Y-33550D01*
X39606Y-33710D01*
X39425Y-33890D01*
X39425Y-24709D01*
X39605Y-24890D01*
X39990Y-25050D01*
X40408Y-25050D01*
X40794Y-24890D01*
X41090Y-24595D01*
X41250Y-24210D01*
X41250Y-23792D01*
X41090Y-23406D01*
X40909Y-23225D01*
X60690Y-23225D01*
X60510Y-23405D01*
X60350Y-23790D01*
X60350Y-24208D01*
X60510Y-24594D01*
X60805Y-24890D01*
X61020Y-24979D01*
X60706Y-25110D01*
X60410Y-25405D01*
X60357Y-25532D01*
X60345Y-25503D01*
X60198Y-25355D01*
X60064Y-25299D01*
X60197Y-25245D01*
X60345Y-25098D01*
X60425Y-24905D01*
X60425Y-24696D01*
X60345Y-24503D01*
X60198Y-24355D01*
X60005Y-24275D01*
X59796Y-24275D01*
X59603Y-24355D01*
X59455Y-24502D01*
X59375Y-24695D01*
X59375Y-24904D01*
X59455Y-25097D01*
X59602Y-25245D01*
X59735Y-25300D01*
X59603Y-25355D01*
X59455Y-25502D01*
X59375Y-25695D01*
X59375Y-25904D01*
X59455Y-26097D01*
X59602Y-26245D01*
X59735Y-26300D01*
X59603Y-26355D01*
X59455Y-26502D01*
X59375Y-26695D01*
X59375Y-26904D01*
X59455Y-27097D01*
X59602Y-27245D01*
X59735Y-27300D01*
X59603Y-27355D01*
X59455Y-27502D01*
X59375Y-27695D01*
X59375Y-27904D01*
X59455Y-28097D01*
X59602Y-28245D01*
X59735Y-28300D01*
X59603Y-28355D01*
X59455Y-28502D01*
X59375Y-28695D01*
X59375Y-28904D01*
X59455Y-29097D01*
X59602Y-29245D01*
X59735Y-29300D01*
X59603Y-29355D01*
X59455Y-29502D01*
X59375Y-29695D01*
X59375Y-29904D01*
X59455Y-30097D01*
X59602Y-30245D01*
X59735Y-30300D01*
X59603Y-30355D01*
X59455Y-30502D01*
X59375Y-30695D01*
X59375Y-30904D01*
X59455Y-31097D01*
X59602Y-31245D01*
X59735Y-31300D01*
X59603Y-31355D01*
X59455Y-31502D01*
X59375Y-31695D01*
X59375Y-31904D01*
X59455Y-32097D01*
X59602Y-32245D01*
X59735Y-32300D01*
X59603Y-32355D01*
X59455Y-32502D01*
X59375Y-32695D01*
X59375Y-32904D01*
X59455Y-33097D01*
X59602Y-33245D01*
X59735Y-33300D01*
X59603Y-33355D01*
X59455Y-33502D01*
X59375Y-33695D01*
X59375Y-33904D01*
X59455Y-34097D01*
X59602Y-34245D01*
X59735Y-34300D01*
X59603Y-34355D01*
X59455Y-34502D01*
X59375Y-34695D01*
X59375Y-34904D01*
X59455Y-35097D01*
X59602Y-35245D01*
X59735Y-35300D01*
X59603Y-35355D01*
X59455Y-35502D01*
X59375Y-35695D01*
X59375Y-35904D01*
X59455Y-36097D01*
X59602Y-36245D01*
X59735Y-36300D01*
X59603Y-36355D01*
X59455Y-36502D01*
X59375Y-36695D01*
X59375Y-36904D01*
X59455Y-37097D01*
X59602Y-37245D01*
X59676Y-37276D01*
X59576Y-37276D01*
X59484Y-37314D01*
X59414Y-37384D01*
X59376Y-37475D01*
X59376Y-37574D01*
X59376Y-38124D01*
X59414Y-38216D01*
X59484Y-38286D01*
X59575Y-38324D01*
X59674Y-38324D01*
X60224Y-38324D01*
X60316Y-38286D01*
X60386Y-38216D01*
X60424Y-38125D01*
X60424Y-38026D01*
X60424Y-37476D01*
X60386Y-37384D01*
X60316Y-37314D01*
X60225Y-37276D01*
X60126Y-37276D01*
X60122Y-37276D01*
X60197Y-37245D01*
X60304Y-37138D01*
X60410Y-37394D01*
X60705Y-37690D01*
X61090Y-37850D01*
X61508Y-37850D01*
X61894Y-37690D01*
X62175Y-37409D01*
X62175Y-53390D01*
M02*
