G04 (created by PCBNEW-RS274X (2011-07-08)-stable) date Wed 23 Nov 2011 11:10:54 PM EST*
G01*
G70*
G90*
%MOIN*%
G04 Gerber Fmt 3.4, Leading zero omitted, Abs format*
%FSLAX34Y34*%
G04 APERTURE LIST*
%ADD10C,0.006000*%
%ADD11C,0.015000*%
%ADD12C,0.060000*%
%ADD13C,0.070000*%
%ADD14C,0.160000*%
%ADD15C,0.055000*%
%ADD16R,0.055000X0.055000*%
%ADD17C,0.059100*%
%ADD18C,0.189000*%
%ADD19R,0.189000X0.189000*%
%ADD20R,0.062900X0.070900*%
%ADD21R,0.070900X0.062900*%
%ADD22R,0.070000X0.070000*%
%ADD23C,0.143700*%
%ADD24R,0.059100X0.059100*%
%ADD25R,0.055000X0.035000*%
%ADD26R,0.060000X0.080000*%
%ADD27C,0.010000*%
%ADD28C,0.080000*%
%ADD29C,0.130000*%
G04 APERTURE END LIST*
G54D10*
G54D11*
X47700Y-34500D02*
X48200Y-34500D01*
X47950Y-34750D02*
X47950Y-34300D01*
G54D12*
X39800Y-39000D03*
X39800Y-37000D03*
G54D13*
X40800Y-39600D03*
X40800Y-36400D03*
G54D14*
X44300Y-35700D03*
X42200Y-37500D03*
X42200Y-35400D03*
X40200Y-34600D03*
X48500Y-53600D03*
X48500Y-50600D03*
X48500Y-47600D03*
X48500Y-44600D03*
X48500Y-41600D03*
X55200Y-53600D03*
X55200Y-50600D03*
X55300Y-47600D03*
X55300Y-44600D03*
X55300Y-41600D03*
X61300Y-26000D03*
X61300Y-28400D03*
X61300Y-30800D03*
X61300Y-33800D03*
X61300Y-36800D03*
X42600Y-24000D03*
G54D15*
X45300Y-34300D03*
X45300Y-33300D03*
X49700Y-26800D03*
X49700Y-25800D03*
X48500Y-26800D03*
X48500Y-25800D03*
X46500Y-31100D03*
X46500Y-32100D03*
X46500Y-34300D03*
X46500Y-33300D03*
X46600Y-29600D03*
X46600Y-28600D03*
X45400Y-29600D03*
X45400Y-28600D03*
X50700Y-25800D03*
X50700Y-26800D03*
X50700Y-27800D03*
X50700Y-28800D03*
X50700Y-29800D03*
X50700Y-30800D03*
X50700Y-31800D03*
X50700Y-32800D03*
X50700Y-33800D03*
X50700Y-34800D03*
X50700Y-35800D03*
X50700Y-36800D03*
X50700Y-37800D03*
G54D16*
X50700Y-24800D03*
G54D15*
X53700Y-37800D03*
X53700Y-36800D03*
X53700Y-35800D03*
X53700Y-34800D03*
X53700Y-33800D03*
X53700Y-32800D03*
X53700Y-31800D03*
X53700Y-30800D03*
X53700Y-29800D03*
X53700Y-28800D03*
X53700Y-27800D03*
X53700Y-26800D03*
X53700Y-25800D03*
X53700Y-24800D03*
G54D17*
X48700Y-33300D03*
X48700Y-34300D03*
G54D18*
X42400Y-26900D03*
G54D19*
X44800Y-26900D03*
G54D18*
X43300Y-28900D03*
X42400Y-31600D03*
G54D19*
X44800Y-31600D03*
G54D18*
X43300Y-33600D03*
G54D20*
X54541Y-26800D03*
X55659Y-26800D03*
X54541Y-27900D03*
X55659Y-27900D03*
X54541Y-28900D03*
X55659Y-28900D03*
X54541Y-29800D03*
X55659Y-29800D03*
G54D21*
X48900Y-28241D03*
X48900Y-29359D03*
G54D13*
X46800Y-24800D03*
G54D22*
X46800Y-25800D03*
G54D13*
X46800Y-26800D03*
G54D23*
X42400Y-52238D03*
X42400Y-47565D03*
G54D24*
X44900Y-48150D03*
G54D17*
X45900Y-48650D03*
X44900Y-49150D03*
X45900Y-49650D03*
X44900Y-50150D03*
X45900Y-50650D03*
X44900Y-51150D03*
X45900Y-51650D03*
G54D23*
X42400Y-45738D03*
X42400Y-41065D03*
G54D24*
X44900Y-41650D03*
G54D17*
X45900Y-42150D03*
X44900Y-42650D03*
X45900Y-43150D03*
X44900Y-43650D03*
X45900Y-44150D03*
X44900Y-44650D03*
X45900Y-45150D03*
G54D16*
X54800Y-24800D03*
X54800Y-25800D03*
X54800Y-34800D03*
X51700Y-37800D03*
X49600Y-31600D03*
X58000Y-26400D03*
G54D25*
X40800Y-38775D03*
X40800Y-38025D03*
X49700Y-29175D03*
X49700Y-28425D03*
G54D26*
X48950Y-30400D03*
X47650Y-30400D03*
G54D16*
X48800Y-36600D03*
G54D15*
X47800Y-36600D03*
X46800Y-36600D03*
X45800Y-36600D03*
X45800Y-39600D03*
X46800Y-39600D03*
X47800Y-39600D03*
X48800Y-39600D03*
X50100Y-41600D03*
X50100Y-42600D03*
X50100Y-43600D03*
X50100Y-44600D03*
X50100Y-45600D03*
X50100Y-46600D03*
X50100Y-47600D03*
X50100Y-48600D03*
X50100Y-49600D03*
X50100Y-50600D03*
X50100Y-51600D03*
X50100Y-52600D03*
X50100Y-53600D03*
G54D16*
X50100Y-40600D03*
G54D15*
X53100Y-53600D03*
X53100Y-52600D03*
X53100Y-51600D03*
X53100Y-50600D03*
X53100Y-49600D03*
X53100Y-48600D03*
X53100Y-47600D03*
X53100Y-46600D03*
X53100Y-45600D03*
X53100Y-44600D03*
X53100Y-43600D03*
X53100Y-42600D03*
X53100Y-41600D03*
X53100Y-40600D03*
X56900Y-41600D03*
X56900Y-42600D03*
X56900Y-43600D03*
X56900Y-44600D03*
X56900Y-45600D03*
X56900Y-46600D03*
X56900Y-47600D03*
X56900Y-48600D03*
X56900Y-49600D03*
X56900Y-50600D03*
X56900Y-51600D03*
X56900Y-52600D03*
X56900Y-53600D03*
G54D16*
X56900Y-40600D03*
G54D15*
X59900Y-53600D03*
X59900Y-52600D03*
X59900Y-51600D03*
X59900Y-50600D03*
X59900Y-49600D03*
X59900Y-48600D03*
X59900Y-47600D03*
X59900Y-46600D03*
X59900Y-45600D03*
X59900Y-44600D03*
X59900Y-43600D03*
X59900Y-42600D03*
X59900Y-41600D03*
X59900Y-40600D03*
X59900Y-36800D03*
X59900Y-35800D03*
X59900Y-34800D03*
X59900Y-33800D03*
X59900Y-32800D03*
X59900Y-31800D03*
X59900Y-30800D03*
X59900Y-29800D03*
X59900Y-28800D03*
X59900Y-27800D03*
X59900Y-26800D03*
X59900Y-25800D03*
X59900Y-24800D03*
G54D16*
X59900Y-37800D03*
G54D15*
X56900Y-24800D03*
X56900Y-25800D03*
X56900Y-26800D03*
X56900Y-27800D03*
X56900Y-28800D03*
X56900Y-29800D03*
X56900Y-30800D03*
X56900Y-31800D03*
X56900Y-32800D03*
X56900Y-33800D03*
X56900Y-34800D03*
X56900Y-35800D03*
X56900Y-36800D03*
X56900Y-37800D03*
G54D14*
X61400Y-54100D03*
X40200Y-54100D03*
X61400Y-24000D03*
X40200Y-24000D03*
G54D15*
X56000Y-27900D03*
X56000Y-28900D03*
X56000Y-29800D03*
X56000Y-26800D03*
X60700Y-50600D03*
G54D27*
X49700Y-28425D02*
X49975Y-28425D01*
X50200Y-26300D02*
X49700Y-25800D01*
X50200Y-28200D02*
X50200Y-26300D01*
X49975Y-28425D02*
X50200Y-28200D01*
X54541Y-29800D02*
X53700Y-29800D01*
X53700Y-37800D02*
X53700Y-38000D01*
X53700Y-38000D02*
X53800Y-38100D01*
X53800Y-38100D02*
X53800Y-43900D01*
X53800Y-43900D02*
X53100Y-44600D01*
X54541Y-26800D02*
X53700Y-26800D01*
X51301Y-36199D02*
X50700Y-36800D01*
X51301Y-33412D02*
X51301Y-36199D01*
X53329Y-31384D02*
X51301Y-33412D01*
X54513Y-31384D02*
X53329Y-31384D01*
X55121Y-30776D02*
X54513Y-31384D01*
X55121Y-27546D02*
X55121Y-30776D01*
X55249Y-27418D02*
X55121Y-27546D01*
X56254Y-27418D02*
X55249Y-27418D01*
X56422Y-27250D02*
X56254Y-27418D01*
X56422Y-26278D02*
X56422Y-27250D01*
X56900Y-25800D02*
X56422Y-26278D01*
X48900Y-29359D02*
X49516Y-29359D01*
X49516Y-29359D02*
X49700Y-29175D01*
X59200Y-49900D02*
X59900Y-50600D01*
X59200Y-30100D02*
X59200Y-49900D01*
X56900Y-27800D02*
X59200Y-30100D01*
X46600Y-29600D02*
X48200Y-29600D01*
X48950Y-30350D02*
X48950Y-30400D01*
X48200Y-29600D02*
X48950Y-30350D01*
X44800Y-26900D02*
X44800Y-29000D01*
X44800Y-29000D02*
X45400Y-29600D01*
X44800Y-26900D02*
X44800Y-26800D01*
X44800Y-26800D02*
X46800Y-24800D01*
X45400Y-29600D02*
X46600Y-29600D01*
G54D28*
X47650Y-30400D02*
X47650Y-30950D01*
X47650Y-30950D02*
X47600Y-31000D01*
G54D29*
X46500Y-31100D02*
X45300Y-31100D01*
X45300Y-31100D02*
X44800Y-31600D01*
X47600Y-34300D02*
X47600Y-31000D01*
X47500Y-31100D02*
X46500Y-31100D01*
X47600Y-31000D02*
X47500Y-31100D01*
X40200Y-34600D02*
X42200Y-35400D01*
X42200Y-35400D02*
X42200Y-37500D01*
X44300Y-35700D02*
X42500Y-35700D01*
X42500Y-35700D02*
X42200Y-35400D01*
G54D28*
X48700Y-34300D02*
X47600Y-34300D01*
X47600Y-34300D02*
X47434Y-34300D01*
G54D29*
X43600Y-36100D02*
X42200Y-37500D01*
X44300Y-35700D02*
X43600Y-36100D01*
X46500Y-34300D02*
X45300Y-34300D01*
X45300Y-34300D02*
X44300Y-35700D01*
X47434Y-34300D02*
X46500Y-34300D01*
G54D27*
X53800Y-27900D02*
X53700Y-27800D01*
X54541Y-27900D02*
X53800Y-27900D01*
X56000Y-27900D02*
X55659Y-27900D01*
X53800Y-28900D02*
X53700Y-28800D01*
X54541Y-28900D02*
X53800Y-28900D01*
X56000Y-28900D02*
X55659Y-28900D01*
X56000Y-29800D02*
X55659Y-29800D01*
X50700Y-37800D02*
X51700Y-37800D01*
X53700Y-24800D02*
X54800Y-24800D01*
X54800Y-25800D02*
X53700Y-25800D01*
X55659Y-26800D02*
X56000Y-26800D01*
X54120Y-36800D02*
X53700Y-36800D01*
X55736Y-35184D02*
X54120Y-36800D01*
X55736Y-33964D02*
X55736Y-35184D01*
X56900Y-32800D02*
X55736Y-33964D01*
X54120Y-44580D02*
X53100Y-45600D01*
X54120Y-36800D02*
X54120Y-44580D01*
X58933Y-50633D02*
X59900Y-51600D01*
X58933Y-37833D02*
X58933Y-50633D01*
X56900Y-35800D02*
X58933Y-37833D01*
X56900Y-26800D02*
X57300Y-26400D01*
X57300Y-26400D02*
X58000Y-26400D01*
X45900Y-43150D02*
X45900Y-43300D01*
X46400Y-49150D02*
X45900Y-49650D01*
X46400Y-44900D02*
X46400Y-49150D01*
X46200Y-44700D02*
X46400Y-44900D01*
X45700Y-44700D02*
X46200Y-44700D01*
X45400Y-44400D02*
X45700Y-44700D01*
X45400Y-43800D02*
X45400Y-44400D01*
X45900Y-43300D02*
X45400Y-43800D01*
X46001Y-44150D02*
X45900Y-44150D01*
X46653Y-44802D02*
X46001Y-44150D01*
X46653Y-49897D02*
X46653Y-44802D01*
X45900Y-50650D02*
X46653Y-49897D01*
X45400Y-51230D02*
X45900Y-51650D01*
X45400Y-45570D02*
X45400Y-51230D01*
X45900Y-45150D02*
X45400Y-45570D01*
G54D28*
X48500Y-41600D02*
X50100Y-41600D01*
X50100Y-41600D02*
X50100Y-42600D01*
X50100Y-41600D02*
X50100Y-40600D01*
X55200Y-50600D02*
X56900Y-50600D01*
X56900Y-49600D02*
X56900Y-50600D01*
X56900Y-50600D02*
X56900Y-51600D01*
X55300Y-47600D02*
X56900Y-47600D01*
X56900Y-48600D02*
X56900Y-47600D01*
X56900Y-47600D02*
X56900Y-46600D01*
X55300Y-44600D02*
X56900Y-44600D01*
X56900Y-43600D02*
X56900Y-44600D01*
X56900Y-44600D02*
X56900Y-45600D01*
X55300Y-41600D02*
X56900Y-41600D01*
X56900Y-40600D02*
X56900Y-41600D01*
X56900Y-41600D02*
X56900Y-42600D01*
X48500Y-50600D02*
X50100Y-50600D01*
X50100Y-49600D02*
X50100Y-50600D01*
X50100Y-50600D02*
X50100Y-51600D01*
X48500Y-47600D02*
X50100Y-47600D01*
X50100Y-46600D02*
X50100Y-47600D01*
X50100Y-47600D02*
X50100Y-48600D01*
X48500Y-44600D02*
X50100Y-44600D01*
X50100Y-43600D02*
X50100Y-44600D01*
X50100Y-44600D02*
X50100Y-45600D01*
G54D27*
X39800Y-39000D02*
X40575Y-39000D01*
X40575Y-39000D02*
X40800Y-38775D01*
G54D28*
X56900Y-53600D02*
X56900Y-52600D01*
X55200Y-53600D02*
X56900Y-53600D01*
X56900Y-53600D02*
X59900Y-53600D01*
X48500Y-53600D02*
X50100Y-53600D01*
X53100Y-53600D02*
X50100Y-53600D01*
X50100Y-53600D02*
X50100Y-52600D01*
X59900Y-36800D02*
X61300Y-36800D01*
X59900Y-35800D02*
X59900Y-36800D01*
X59900Y-36800D02*
X59900Y-37800D01*
X59900Y-33800D02*
X61300Y-33800D01*
X59900Y-32800D02*
X59900Y-33800D01*
X59900Y-33800D02*
X59900Y-34800D01*
X59900Y-30800D02*
X61300Y-30800D01*
X59900Y-29800D02*
X59900Y-30800D01*
X59900Y-30800D02*
X59900Y-31800D01*
X61300Y-28400D02*
X61300Y-28400D01*
X59900Y-27800D02*
X61300Y-28400D01*
X59900Y-27800D02*
X59900Y-28800D01*
X59900Y-27800D02*
X59900Y-26800D01*
X59900Y-24800D02*
X59900Y-25800D01*
X61100Y-25800D02*
X61300Y-26000D01*
X59900Y-25800D02*
X61100Y-25800D01*
X59900Y-24800D02*
X56900Y-24800D01*
G54D27*
X52677Y-34823D02*
X53700Y-33800D01*
X52677Y-43177D02*
X52677Y-34823D01*
X53100Y-43600D02*
X52677Y-43177D01*
X46800Y-41250D02*
X45900Y-42150D01*
X46800Y-39600D02*
X46800Y-41250D01*
X60700Y-43300D02*
X60700Y-50600D01*
X60000Y-42600D02*
X60700Y-43300D01*
X60000Y-42600D02*
X59900Y-42600D01*
X44400Y-49710D02*
X44900Y-50150D01*
X44400Y-44090D02*
X44400Y-49710D01*
X44900Y-43650D02*
X44400Y-44090D01*
X53282Y-36218D02*
X53700Y-35800D01*
X53282Y-39110D02*
X53282Y-36218D01*
X53513Y-39341D02*
X53282Y-39110D01*
X53513Y-42187D02*
X53513Y-39341D01*
X53100Y-42600D02*
X53513Y-42187D01*
X50200Y-28949D02*
X50200Y-28800D01*
X48900Y-28241D02*
X48900Y-28679D01*
X50200Y-30206D02*
X50700Y-30800D01*
X50200Y-30206D02*
X50200Y-28949D01*
X49097Y-28800D02*
X48900Y-28679D01*
X50100Y-28800D02*
X49097Y-28800D01*
X50200Y-28800D02*
X50100Y-28800D01*
X46800Y-26800D02*
X48500Y-26800D01*
X40800Y-38025D02*
X40800Y-38027D01*
X48385Y-39185D02*
X48800Y-39600D01*
X48385Y-39185D02*
X41958Y-39185D01*
X40800Y-38027D02*
X41958Y-39185D01*
X48500Y-26800D02*
X49700Y-26800D01*
X48577Y-27804D02*
X48500Y-27727D01*
X48900Y-27804D02*
X48577Y-27804D01*
X48500Y-27727D02*
X48500Y-26800D01*
X48900Y-28241D02*
X48900Y-27804D01*
X56900Y-30800D02*
X56403Y-30805D01*
X56400Y-29300D02*
X56900Y-28800D01*
X56403Y-30805D02*
X56400Y-29300D01*
X60398Y-48098D02*
X59900Y-47600D01*
X60398Y-49102D02*
X60398Y-48098D01*
X59900Y-49600D02*
X60398Y-49102D01*
X55000Y-31800D02*
X53700Y-31800D01*
X56403Y-30805D02*
X55000Y-31800D01*
X53700Y-31800D02*
X53700Y-32800D01*
X52476Y-34024D02*
X52476Y-39600D01*
X53700Y-32800D02*
X52476Y-34024D01*
X52476Y-46976D02*
X53100Y-47600D01*
X52476Y-39600D02*
X52476Y-46976D01*
X52476Y-39600D02*
X48800Y-39600D01*
M02*
