M48
INCH,TZ
T1C0.012
T2C0.032
T3C0.032
T4C0.035
T5C0.040
T6C0.045
T7C0.050
T8C0.053
T9C0.120
T10C0.128
%
G90
G05
T1
X1500Y-8800
X4975Y-2300
X5825Y-3000
X5825Y-4500
X8200Y-15500
X12675Y-12475
X12850Y-6100
X12850Y-7100
X15900Y-15550
X16100Y-7300
X17650Y-14825
X20000Y-800
X20000Y-1800
X20000Y-2800
X20000Y-3800
X20000Y-4800
X21600Y-5700
X22000Y-5700
X22400Y-5700
X22800Y-5700
X24700Y-10000
X27300Y-16300
X32275Y-15925
T2
X32000Y-1200
X32000Y-2200
T3
X3200Y-8700
X3200Y-11700
X3200Y-14500
X3200Y-17500
X3250Y-550
X4200Y-8700
X4200Y-11700
X4200Y-14500
X4200Y-17500
X5200Y-8700
X5200Y-11700
X5200Y-14500
X5200Y-17500
X5250Y-550
X6200Y-8700
X6200Y-11700
X6200Y-14500
X6200Y-17500
X7200Y-8700
X7200Y-11700
X7200Y-14500
X7200Y-17500
X8200Y-8700
X8200Y-11700
X8200Y-14500
X8200Y-17500
X9200Y-8700
X9200Y-11700
X9200Y-14500
X9200Y-17500
X10200Y-8700
X10200Y-11700
X10200Y-14500
X10200Y-17500
X11200Y-8700
X11200Y-11700
X11200Y-14500
X11200Y-17500
X12200Y-8700
X12200Y-11700
X12200Y-14500
X12200Y-17500
X13200Y-8700
X13200Y-11700
X13200Y-14500
X13200Y-17500
X14200Y-8700
X14200Y-11700
X14200Y-14500
X14200Y-17500
X15200Y-8700
X15200Y-11700
X15200Y-14500
X15200Y-17500
X16200Y-8700
X16200Y-11700
X16200Y-14500
X16200Y-17500
X23100Y-8700
X23100Y-11700
X23100Y-14500
X23100Y-17500
X24100Y-8700
X24100Y-11700
X24100Y-14500
X24100Y-17500
X25100Y-8700
X25100Y-11700
X25100Y-14500
X25100Y-17500
X26100Y-8700
X26100Y-11700
X26100Y-14500
X26100Y-17500
X27100Y-8700
X27100Y-11700
X27100Y-14500
X27100Y-17500
X28100Y-8700
X28100Y-11700
X28100Y-14500
X28100Y-17500
X29100Y-8700
X29100Y-11700
X29100Y-14500
X29100Y-17500
X30100Y-8700
X30100Y-11700
X30100Y-14500
X30100Y-17500
X31100Y-8700
X31100Y-11700
X31100Y-14500
X31100Y-17500
X32100Y-8700
X32100Y-11700
X32100Y-14500
X32100Y-17500
X33100Y-8700
X33100Y-11700
X33100Y-14500
X33100Y-17500
X34100Y-8700
X34100Y-11700
X34100Y-14500
X34100Y-17500
X35100Y-8700
X35100Y-11700
X35100Y-14500
X35100Y-17500
X36100Y-8700
X36100Y-11700
X36100Y-14500
X36100Y-17500
T4
X7850Y-6600
X8350Y-5600
X8850Y-6600
X9350Y-5600
X9850Y-6600
X10350Y-5600
X10850Y-6600
X11350Y-5600
X14350Y-6600
X14850Y-5600
X15350Y-6600
X15850Y-5600
X16350Y-6600
X16850Y-5600
X17350Y-6600
X17850Y-5600
T6
X23600Y-1200
X24600Y-1200
X25600Y-1200
T7
X2650Y-1550
X5850Y-1550
T8
X848Y-21900
X2816Y-21900
X4785Y-21900
X6754Y-21900
X8748Y-21900
X10716Y-21900
X12685Y-21900
X14654Y-21900
X16648Y-21900
X18616Y-21900
X20585Y-21900
X22554Y-21900
X24548Y-21900
X26516Y-21900
X28485Y-21900
X30454Y-21900
X32448Y-21900
X34416Y-21900
X36385Y-21900
X38354Y-21900
T9
X1000Y-1000
X1000Y-18500
X38300Y-1000
X38300Y-18500
T10
X7262Y-3100
X11935Y-3100
X13762Y-3100
X18435Y-3100
T5
X26400Y-3800G85X26400Y-4400
G05
X28700Y-3200G85X28100Y-3200
G05
X28700Y-5600G85X28100Y-5600
G05
X33500Y-3800G85X33500Y-4400
G05
X35800Y-3200G85X35200Y-3200
G05
X35800Y-5600G85X35200Y-5600
G05
T0
M30
