G04 (created by PCBNEW-RS274X (2011-07-08)-stable) date Wed 23 Nov 2011 11:10:54 PM EST*
G01*
G70*
G90*
%MOIN*%
G04 Gerber Fmt 3.4, Leading zero omitted, Abs format*
%FSLAX34Y34*%
G04 APERTURE LIST*
%ADD10C,0.006000*%
%ADD11C,0.005000*%
%ADD12C,0.015000*%
%ADD13C,0.006300*%
G04 APERTURE END LIST*
G54D10*
G54D11*
X46400Y-41100D02*
X46399Y-41109D01*
X46396Y-41119D01*
X46391Y-41127D01*
X46385Y-41135D01*
X46377Y-41141D01*
X46369Y-41146D01*
X46360Y-41148D01*
X46350Y-41149D01*
X46341Y-41149D01*
X46332Y-41146D01*
X46323Y-41141D01*
X46316Y-41135D01*
X46309Y-41128D01*
X46305Y-41119D01*
X46302Y-41110D01*
X46301Y-41100D01*
X46301Y-41091D01*
X46304Y-41082D01*
X46308Y-41073D01*
X46315Y-41066D01*
X46322Y-41059D01*
X46330Y-41055D01*
X46340Y-41052D01*
X46349Y-41051D01*
X46358Y-41051D01*
X46368Y-41054D01*
X46376Y-41058D01*
X46384Y-41064D01*
X46390Y-41072D01*
X46395Y-41080D01*
X46398Y-41089D01*
X46399Y-41099D01*
X46400Y-41100D01*
X45900Y-41100D02*
X46300Y-41100D01*
X46300Y-41100D02*
X46300Y-40500D01*
X46300Y-40500D02*
X45900Y-40500D01*
X45500Y-40500D02*
X45100Y-40500D01*
X45100Y-40500D02*
X45100Y-41100D01*
X45100Y-41100D02*
X45500Y-41100D01*
X54500Y-26500D02*
X54499Y-26509D01*
X54496Y-26519D01*
X54491Y-26527D01*
X54485Y-26535D01*
X54477Y-26541D01*
X54469Y-26546D01*
X54460Y-26548D01*
X54450Y-26549D01*
X54441Y-26549D01*
X54432Y-26546D01*
X54423Y-26541D01*
X54416Y-26535D01*
X54409Y-26528D01*
X54405Y-26519D01*
X54402Y-26510D01*
X54401Y-26500D01*
X54401Y-26491D01*
X54404Y-26482D01*
X54408Y-26473D01*
X54415Y-26466D01*
X54422Y-26459D01*
X54430Y-26455D01*
X54440Y-26452D01*
X54449Y-26451D01*
X54458Y-26451D01*
X54468Y-26454D01*
X54476Y-26458D01*
X54484Y-26464D01*
X54490Y-26472D01*
X54495Y-26480D01*
X54498Y-26489D01*
X54499Y-26499D01*
X54500Y-26500D01*
X54900Y-26500D02*
X54500Y-26500D01*
X54500Y-26500D02*
X54500Y-27100D01*
X54500Y-27100D02*
X54900Y-27100D01*
X55300Y-27100D02*
X55700Y-27100D01*
X55700Y-27100D02*
X55700Y-26500D01*
X55700Y-26500D02*
X55300Y-26500D01*
X54500Y-27600D02*
X54499Y-27609D01*
X54496Y-27619D01*
X54491Y-27627D01*
X54485Y-27635D01*
X54477Y-27641D01*
X54469Y-27646D01*
X54460Y-27648D01*
X54450Y-27649D01*
X54441Y-27649D01*
X54432Y-27646D01*
X54423Y-27641D01*
X54416Y-27635D01*
X54409Y-27628D01*
X54405Y-27619D01*
X54402Y-27610D01*
X54401Y-27600D01*
X54401Y-27591D01*
X54404Y-27582D01*
X54408Y-27573D01*
X54415Y-27566D01*
X54422Y-27559D01*
X54430Y-27555D01*
X54440Y-27552D01*
X54449Y-27551D01*
X54458Y-27551D01*
X54468Y-27554D01*
X54476Y-27558D01*
X54484Y-27564D01*
X54490Y-27572D01*
X54495Y-27580D01*
X54498Y-27589D01*
X54499Y-27599D01*
X54500Y-27600D01*
X54900Y-27600D02*
X54500Y-27600D01*
X54500Y-27600D02*
X54500Y-28200D01*
X54500Y-28200D02*
X54900Y-28200D01*
X55300Y-28200D02*
X55700Y-28200D01*
X55700Y-28200D02*
X55700Y-27600D01*
X55700Y-27600D02*
X55300Y-27600D01*
X54500Y-28600D02*
X54499Y-28609D01*
X54496Y-28619D01*
X54491Y-28627D01*
X54485Y-28635D01*
X54477Y-28641D01*
X54469Y-28646D01*
X54460Y-28648D01*
X54450Y-28649D01*
X54441Y-28649D01*
X54432Y-28646D01*
X54423Y-28641D01*
X54416Y-28635D01*
X54409Y-28628D01*
X54405Y-28619D01*
X54402Y-28610D01*
X54401Y-28600D01*
X54401Y-28591D01*
X54404Y-28582D01*
X54408Y-28573D01*
X54415Y-28566D01*
X54422Y-28559D01*
X54430Y-28555D01*
X54440Y-28552D01*
X54449Y-28551D01*
X54458Y-28551D01*
X54468Y-28554D01*
X54476Y-28558D01*
X54484Y-28564D01*
X54490Y-28572D01*
X54495Y-28580D01*
X54498Y-28589D01*
X54499Y-28599D01*
X54500Y-28600D01*
X54900Y-28600D02*
X54500Y-28600D01*
X54500Y-28600D02*
X54500Y-29200D01*
X54500Y-29200D02*
X54900Y-29200D01*
X55300Y-29200D02*
X55700Y-29200D01*
X55700Y-29200D02*
X55700Y-28600D01*
X55700Y-28600D02*
X55300Y-28600D01*
X54500Y-29500D02*
X54499Y-29509D01*
X54496Y-29519D01*
X54491Y-29527D01*
X54485Y-29535D01*
X54477Y-29541D01*
X54469Y-29546D01*
X54460Y-29548D01*
X54450Y-29549D01*
X54441Y-29549D01*
X54432Y-29546D01*
X54423Y-29541D01*
X54416Y-29535D01*
X54409Y-29528D01*
X54405Y-29519D01*
X54402Y-29510D01*
X54401Y-29500D01*
X54401Y-29491D01*
X54404Y-29482D01*
X54408Y-29473D01*
X54415Y-29466D01*
X54422Y-29459D01*
X54430Y-29455D01*
X54440Y-29452D01*
X54449Y-29451D01*
X54458Y-29451D01*
X54468Y-29454D01*
X54476Y-29458D01*
X54484Y-29464D01*
X54490Y-29472D01*
X54495Y-29480D01*
X54498Y-29489D01*
X54499Y-29499D01*
X54500Y-29500D01*
X54900Y-29500D02*
X54500Y-29500D01*
X54500Y-29500D02*
X54500Y-30100D01*
X54500Y-30100D02*
X54900Y-30100D01*
X55300Y-30100D02*
X55700Y-30100D01*
X55700Y-30100D02*
X55700Y-29500D01*
X55700Y-29500D02*
X55300Y-29500D01*
X58050Y-29750D02*
X58049Y-29759D01*
X58046Y-29769D01*
X58041Y-29777D01*
X58035Y-29785D01*
X58027Y-29791D01*
X58019Y-29796D01*
X58010Y-29798D01*
X58000Y-29799D01*
X57991Y-29799D01*
X57982Y-29796D01*
X57973Y-29791D01*
X57966Y-29785D01*
X57959Y-29778D01*
X57955Y-29769D01*
X57952Y-29760D01*
X57951Y-29750D01*
X57951Y-29741D01*
X57954Y-29732D01*
X57958Y-29723D01*
X57965Y-29716D01*
X57972Y-29709D01*
X57980Y-29705D01*
X57990Y-29702D01*
X57999Y-29701D01*
X58008Y-29701D01*
X58018Y-29704D01*
X58026Y-29708D01*
X58034Y-29714D01*
X58040Y-29722D01*
X58045Y-29730D01*
X58048Y-29739D01*
X58049Y-29749D01*
X58050Y-29750D01*
X58000Y-30200D02*
X58000Y-29800D01*
X58000Y-29800D02*
X57400Y-29800D01*
X57400Y-29800D02*
X57400Y-30200D01*
X57400Y-30600D02*
X57400Y-31000D01*
X57400Y-31000D02*
X58000Y-31000D01*
X58000Y-31000D02*
X58000Y-30600D01*
X58850Y-48150D02*
X58849Y-48159D01*
X58846Y-48169D01*
X58841Y-48177D01*
X58835Y-48185D01*
X58827Y-48191D01*
X58819Y-48196D01*
X58810Y-48198D01*
X58800Y-48199D01*
X58791Y-48199D01*
X58782Y-48196D01*
X58773Y-48191D01*
X58766Y-48185D01*
X58759Y-48178D01*
X58755Y-48169D01*
X58752Y-48160D01*
X58751Y-48150D01*
X58751Y-48141D01*
X58754Y-48132D01*
X58758Y-48123D01*
X58765Y-48116D01*
X58772Y-48109D01*
X58780Y-48105D01*
X58790Y-48102D01*
X58799Y-48101D01*
X58808Y-48101D01*
X58818Y-48104D01*
X58826Y-48108D01*
X58834Y-48114D01*
X58840Y-48122D01*
X58845Y-48130D01*
X58848Y-48139D01*
X58849Y-48149D01*
X58850Y-48150D01*
X58800Y-47700D02*
X58800Y-48100D01*
X58800Y-48100D02*
X59400Y-48100D01*
X59400Y-48100D02*
X59400Y-47700D01*
X59400Y-47300D02*
X59400Y-46900D01*
X59400Y-46900D02*
X58800Y-46900D01*
X58800Y-46900D02*
X58800Y-47300D01*
X51850Y-48250D02*
X51849Y-48259D01*
X51846Y-48269D01*
X51841Y-48277D01*
X51835Y-48285D01*
X51827Y-48291D01*
X51819Y-48296D01*
X51810Y-48298D01*
X51800Y-48299D01*
X51791Y-48299D01*
X51782Y-48296D01*
X51773Y-48291D01*
X51766Y-48285D01*
X51759Y-48278D01*
X51755Y-48269D01*
X51752Y-48260D01*
X51751Y-48250D01*
X51751Y-48241D01*
X51754Y-48232D01*
X51758Y-48223D01*
X51765Y-48216D01*
X51772Y-48209D01*
X51780Y-48205D01*
X51790Y-48202D01*
X51799Y-48201D01*
X51808Y-48201D01*
X51818Y-48204D01*
X51826Y-48208D01*
X51834Y-48214D01*
X51840Y-48222D01*
X51845Y-48230D01*
X51848Y-48239D01*
X51849Y-48249D01*
X51850Y-48250D01*
X51800Y-47800D02*
X51800Y-48200D01*
X51800Y-48200D02*
X52400Y-48200D01*
X52400Y-48200D02*
X52400Y-47800D01*
X52400Y-47400D02*
X52400Y-47000D01*
X52400Y-47000D02*
X51800Y-47000D01*
X51800Y-47000D02*
X51800Y-47400D01*
X39600Y-37800D02*
X39599Y-37809D01*
X39596Y-37819D01*
X39591Y-37827D01*
X39585Y-37835D01*
X39577Y-37841D01*
X39569Y-37846D01*
X39560Y-37848D01*
X39550Y-37849D01*
X39541Y-37849D01*
X39532Y-37846D01*
X39523Y-37841D01*
X39516Y-37835D01*
X39509Y-37828D01*
X39505Y-37819D01*
X39502Y-37810D01*
X39501Y-37800D01*
X39501Y-37791D01*
X39504Y-37782D01*
X39508Y-37773D01*
X39515Y-37766D01*
X39522Y-37759D01*
X39530Y-37755D01*
X39540Y-37752D01*
X39549Y-37751D01*
X39558Y-37751D01*
X39568Y-37754D01*
X39576Y-37758D01*
X39584Y-37764D01*
X39590Y-37772D01*
X39595Y-37780D01*
X39598Y-37789D01*
X39599Y-37799D01*
X39600Y-37800D01*
X40000Y-37800D02*
X39600Y-37800D01*
X39600Y-37800D02*
X39600Y-38400D01*
X39600Y-38400D02*
X40000Y-38400D01*
X40400Y-38400D02*
X40800Y-38400D01*
X40800Y-38400D02*
X40800Y-37800D01*
X40800Y-37800D02*
X40400Y-37800D01*
X51400Y-32300D02*
X51399Y-32309D01*
X51396Y-32319D01*
X51391Y-32327D01*
X51385Y-32335D01*
X51377Y-32341D01*
X51369Y-32346D01*
X51360Y-32348D01*
X51350Y-32349D01*
X51341Y-32349D01*
X51332Y-32346D01*
X51323Y-32341D01*
X51316Y-32335D01*
X51309Y-32328D01*
X51305Y-32319D01*
X51302Y-32310D01*
X51301Y-32300D01*
X51301Y-32291D01*
X51304Y-32282D01*
X51308Y-32273D01*
X51315Y-32266D01*
X51322Y-32259D01*
X51330Y-32255D01*
X51340Y-32252D01*
X51349Y-32251D01*
X51358Y-32251D01*
X51368Y-32254D01*
X51376Y-32258D01*
X51384Y-32264D01*
X51390Y-32272D01*
X51395Y-32280D01*
X51398Y-32289D01*
X51399Y-32299D01*
X51400Y-32300D01*
X51800Y-32300D02*
X51400Y-32300D01*
X51400Y-32300D02*
X51400Y-32900D01*
X51400Y-32900D02*
X51800Y-32900D01*
X52200Y-32900D02*
X52600Y-32900D01*
X52600Y-32900D02*
X52600Y-32300D01*
X52600Y-32300D02*
X52200Y-32300D01*
X51400Y-36500D02*
X51399Y-36509D01*
X51396Y-36519D01*
X51391Y-36527D01*
X51385Y-36535D01*
X51377Y-36541D01*
X51369Y-36546D01*
X51360Y-36548D01*
X51350Y-36549D01*
X51341Y-36549D01*
X51332Y-36546D01*
X51323Y-36541D01*
X51316Y-36535D01*
X51309Y-36528D01*
X51305Y-36519D01*
X51302Y-36510D01*
X51301Y-36500D01*
X51301Y-36491D01*
X51304Y-36482D01*
X51308Y-36473D01*
X51315Y-36466D01*
X51322Y-36459D01*
X51330Y-36455D01*
X51340Y-36452D01*
X51349Y-36451D01*
X51358Y-36451D01*
X51368Y-36454D01*
X51376Y-36458D01*
X51384Y-36464D01*
X51390Y-36472D01*
X51395Y-36480D01*
X51398Y-36489D01*
X51399Y-36499D01*
X51400Y-36500D01*
X51800Y-36500D02*
X51400Y-36500D01*
X51400Y-36500D02*
X51400Y-37100D01*
X51400Y-37100D02*
X51800Y-37100D01*
X52200Y-37100D02*
X52600Y-37100D01*
X52600Y-37100D02*
X52600Y-36500D01*
X52600Y-36500D02*
X52200Y-36500D01*
G54D12*
X53184Y-33224D02*
X52869Y-33224D01*
X51216Y-33224D02*
X51531Y-33224D01*
X51216Y-36176D02*
X51531Y-36176D01*
X53184Y-36176D02*
X52869Y-36176D01*
X53184Y-33224D02*
X53184Y-36176D01*
X51216Y-36176D02*
X51216Y-33224D01*
G54D11*
X45550Y-38750D02*
X45549Y-38759D01*
X45546Y-38769D01*
X45541Y-38777D01*
X45535Y-38785D01*
X45527Y-38791D01*
X45519Y-38796D01*
X45510Y-38798D01*
X45500Y-38799D01*
X45491Y-38799D01*
X45482Y-38796D01*
X45473Y-38791D01*
X45466Y-38785D01*
X45459Y-38778D01*
X45455Y-38769D01*
X45452Y-38760D01*
X45451Y-38750D01*
X45451Y-38741D01*
X45454Y-38732D01*
X45458Y-38723D01*
X45465Y-38716D01*
X45472Y-38709D01*
X45480Y-38705D01*
X45490Y-38702D01*
X45499Y-38701D01*
X45508Y-38701D01*
X45518Y-38704D01*
X45526Y-38708D01*
X45534Y-38714D01*
X45540Y-38722D01*
X45545Y-38730D01*
X45548Y-38739D01*
X45549Y-38749D01*
X45550Y-38750D01*
X45500Y-38300D02*
X45500Y-38700D01*
X45500Y-38700D02*
X46100Y-38700D01*
X46100Y-38700D02*
X46100Y-38300D01*
X46100Y-37900D02*
X46100Y-37500D01*
X46100Y-37500D02*
X45500Y-37500D01*
X45500Y-37500D02*
X45500Y-37900D01*
X45861Y-41401D02*
X45944Y-41282D01*
X46003Y-41401D02*
X46003Y-41151D01*
X45908Y-41151D01*
X45884Y-41163D01*
X45873Y-41175D01*
X45861Y-41199D01*
X45861Y-41235D01*
X45873Y-41258D01*
X45884Y-41270D01*
X45908Y-41282D01*
X46003Y-41282D01*
X45623Y-41401D02*
X45765Y-41401D01*
X45694Y-41401D02*
X45694Y-41151D01*
X45718Y-41187D01*
X45742Y-41211D01*
X45765Y-41223D01*
X45468Y-41151D02*
X45444Y-41151D01*
X45420Y-41163D01*
X45408Y-41175D01*
X45396Y-41199D01*
X45385Y-41246D01*
X45385Y-41306D01*
X45396Y-41354D01*
X45408Y-41377D01*
X45420Y-41389D01*
X45444Y-41401D01*
X45468Y-41401D01*
X45492Y-41389D01*
X45504Y-41377D01*
X45515Y-41354D01*
X45527Y-41306D01*
X45527Y-41246D01*
X45515Y-41199D01*
X45504Y-41175D01*
X45492Y-41163D01*
X45468Y-41151D01*
X55142Y-26901D02*
X55225Y-26782D01*
X55284Y-26901D02*
X55284Y-26651D01*
X55189Y-26651D01*
X55165Y-26663D01*
X55154Y-26675D01*
X55142Y-26699D01*
X55142Y-26735D01*
X55154Y-26758D01*
X55165Y-26770D01*
X55189Y-26782D01*
X55284Y-26782D01*
X55023Y-26901D02*
X54975Y-26901D01*
X54951Y-26889D01*
X54939Y-26877D01*
X54915Y-26842D01*
X54904Y-26794D01*
X54904Y-26699D01*
X54915Y-26675D01*
X54927Y-26663D01*
X54951Y-26651D01*
X54999Y-26651D01*
X55023Y-26663D01*
X55034Y-26675D01*
X55046Y-26699D01*
X55046Y-26758D01*
X55034Y-26782D01*
X55023Y-26794D01*
X54999Y-26806D01*
X54951Y-26806D01*
X54927Y-26794D01*
X54915Y-26782D01*
X54904Y-26758D01*
X55142Y-28001D02*
X55225Y-27882D01*
X55284Y-28001D02*
X55284Y-27751D01*
X55189Y-27751D01*
X55165Y-27763D01*
X55154Y-27775D01*
X55142Y-27799D01*
X55142Y-27835D01*
X55154Y-27858D01*
X55165Y-27870D01*
X55189Y-27882D01*
X55284Y-27882D01*
X54999Y-27858D02*
X55023Y-27846D01*
X55034Y-27835D01*
X55046Y-27811D01*
X55046Y-27799D01*
X55034Y-27775D01*
X55023Y-27763D01*
X54999Y-27751D01*
X54951Y-27751D01*
X54927Y-27763D01*
X54915Y-27775D01*
X54904Y-27799D01*
X54904Y-27811D01*
X54915Y-27835D01*
X54927Y-27846D01*
X54951Y-27858D01*
X54999Y-27858D01*
X55023Y-27870D01*
X55034Y-27882D01*
X55046Y-27906D01*
X55046Y-27954D01*
X55034Y-27977D01*
X55023Y-27989D01*
X54999Y-28001D01*
X54951Y-28001D01*
X54927Y-27989D01*
X54915Y-27977D01*
X54904Y-27954D01*
X54904Y-27906D01*
X54915Y-27882D01*
X54927Y-27870D01*
X54951Y-27858D01*
X55142Y-29001D02*
X55225Y-28882D01*
X55284Y-29001D02*
X55284Y-28751D01*
X55189Y-28751D01*
X55165Y-28763D01*
X55154Y-28775D01*
X55142Y-28799D01*
X55142Y-28835D01*
X55154Y-28858D01*
X55165Y-28870D01*
X55189Y-28882D01*
X55284Y-28882D01*
X55058Y-28751D02*
X54892Y-28751D01*
X54999Y-29001D01*
X55142Y-29901D02*
X55225Y-29782D01*
X55284Y-29901D02*
X55284Y-29651D01*
X55189Y-29651D01*
X55165Y-29663D01*
X55154Y-29675D01*
X55142Y-29699D01*
X55142Y-29735D01*
X55154Y-29758D01*
X55165Y-29770D01*
X55189Y-29782D01*
X55284Y-29782D01*
X54927Y-29651D02*
X54975Y-29651D01*
X54999Y-29663D01*
X55011Y-29675D01*
X55034Y-29711D01*
X55046Y-29758D01*
X55046Y-29854D01*
X55034Y-29877D01*
X55023Y-29889D01*
X54999Y-29901D01*
X54951Y-29901D01*
X54927Y-29889D01*
X54915Y-29877D01*
X54904Y-29854D01*
X54904Y-29794D01*
X54915Y-29770D01*
X54927Y-29758D01*
X54951Y-29746D01*
X54999Y-29746D01*
X55023Y-29758D01*
X55034Y-29770D01*
X55046Y-29794D01*
X58301Y-30358D02*
X58182Y-30275D01*
X58301Y-30216D02*
X58051Y-30216D01*
X58051Y-30311D01*
X58063Y-30335D01*
X58075Y-30346D01*
X58099Y-30358D01*
X58135Y-30358D01*
X58158Y-30346D01*
X58170Y-30335D01*
X58182Y-30311D01*
X58182Y-30216D01*
X58051Y-30585D02*
X58051Y-30466D01*
X58170Y-30454D01*
X58158Y-30466D01*
X58146Y-30489D01*
X58146Y-30549D01*
X58158Y-30573D01*
X58170Y-30585D01*
X58194Y-30596D01*
X58254Y-30596D01*
X58277Y-30585D01*
X58289Y-30573D01*
X58301Y-30549D01*
X58301Y-30489D01*
X58289Y-30466D01*
X58277Y-30454D01*
X58701Y-47458D02*
X58582Y-47375D01*
X58701Y-47316D02*
X58451Y-47316D01*
X58451Y-47411D01*
X58463Y-47435D01*
X58475Y-47446D01*
X58499Y-47458D01*
X58535Y-47458D01*
X58558Y-47446D01*
X58570Y-47435D01*
X58582Y-47411D01*
X58582Y-47316D01*
X58535Y-47673D02*
X58701Y-47673D01*
X58439Y-47613D02*
X58618Y-47554D01*
X58618Y-47708D01*
X51701Y-47558D02*
X51582Y-47475D01*
X51701Y-47416D02*
X51451Y-47416D01*
X51451Y-47511D01*
X51463Y-47535D01*
X51475Y-47546D01*
X51499Y-47558D01*
X51535Y-47558D01*
X51558Y-47546D01*
X51570Y-47535D01*
X51582Y-47511D01*
X51582Y-47416D01*
X51451Y-47642D02*
X51451Y-47796D01*
X51546Y-47713D01*
X51546Y-47749D01*
X51558Y-47773D01*
X51570Y-47785D01*
X51594Y-47796D01*
X51654Y-47796D01*
X51677Y-47785D01*
X51689Y-47773D01*
X51701Y-47749D01*
X51701Y-47677D01*
X51689Y-47654D01*
X51677Y-47642D01*
X40242Y-37677D02*
X40254Y-37689D01*
X40289Y-37701D01*
X40313Y-37701D01*
X40349Y-37689D01*
X40373Y-37665D01*
X40384Y-37642D01*
X40396Y-37594D01*
X40396Y-37558D01*
X40384Y-37511D01*
X40373Y-37487D01*
X40349Y-37463D01*
X40313Y-37451D01*
X40289Y-37451D01*
X40254Y-37463D01*
X40242Y-37475D01*
X40123Y-37701D02*
X40075Y-37701D01*
X40051Y-37689D01*
X40039Y-37677D01*
X40015Y-37642D01*
X40004Y-37594D01*
X40004Y-37499D01*
X40015Y-37475D01*
X40027Y-37463D01*
X40051Y-37451D01*
X40099Y-37451D01*
X40123Y-37463D01*
X40134Y-37475D01*
X40146Y-37499D01*
X40146Y-37558D01*
X40134Y-37582D01*
X40123Y-37594D01*
X40099Y-37606D01*
X40051Y-37606D01*
X40027Y-37594D01*
X40015Y-37582D01*
X40004Y-37558D01*
X52161Y-32177D02*
X52173Y-32189D01*
X52208Y-32201D01*
X52232Y-32201D01*
X52268Y-32189D01*
X52292Y-32165D01*
X52303Y-32142D01*
X52315Y-32094D01*
X52315Y-32058D01*
X52303Y-32011D01*
X52292Y-31987D01*
X52268Y-31963D01*
X52232Y-31951D01*
X52208Y-31951D01*
X52173Y-31963D01*
X52161Y-31975D01*
X51923Y-32201D02*
X52065Y-32201D01*
X51994Y-32201D02*
X51994Y-31951D01*
X52018Y-31987D01*
X52042Y-32011D01*
X52065Y-32023D01*
X51768Y-31951D02*
X51744Y-31951D01*
X51720Y-31963D01*
X51708Y-31975D01*
X51696Y-31999D01*
X51685Y-32046D01*
X51685Y-32106D01*
X51696Y-32154D01*
X51708Y-32177D01*
X51720Y-32189D01*
X51744Y-32201D01*
X51768Y-32201D01*
X51792Y-32189D01*
X51804Y-32177D01*
X51815Y-32154D01*
X51827Y-32106D01*
X51827Y-32046D01*
X51815Y-31999D01*
X51804Y-31975D01*
X51792Y-31963D01*
X51768Y-31951D01*
X52861Y-37477D02*
X52873Y-37489D01*
X52908Y-37501D01*
X52932Y-37501D01*
X52968Y-37489D01*
X52992Y-37465D01*
X53003Y-37442D01*
X53015Y-37394D01*
X53015Y-37358D01*
X53003Y-37311D01*
X52992Y-37287D01*
X52968Y-37263D01*
X52932Y-37251D01*
X52908Y-37251D01*
X52873Y-37263D01*
X52861Y-37275D01*
X52623Y-37501D02*
X52765Y-37501D01*
X52694Y-37501D02*
X52694Y-37251D01*
X52718Y-37287D01*
X52742Y-37311D01*
X52765Y-37323D01*
X52385Y-37501D02*
X52527Y-37501D01*
X52456Y-37501D02*
X52456Y-37251D01*
X52480Y-37287D01*
X52504Y-37311D01*
X52527Y-37323D01*
G54D13*
X51351Y-34498D02*
X51601Y-34664D01*
X51351Y-34664D02*
X51601Y-34498D01*
X51601Y-34890D02*
X51601Y-34748D01*
X51601Y-34819D02*
X51351Y-34819D01*
X51387Y-34795D01*
X51411Y-34771D01*
X51423Y-34748D01*
G54D11*
X46501Y-37939D02*
X46382Y-37856D01*
X46501Y-37797D02*
X46251Y-37797D01*
X46251Y-37892D01*
X46263Y-37916D01*
X46275Y-37927D01*
X46299Y-37939D01*
X46335Y-37939D01*
X46358Y-37927D01*
X46370Y-37916D01*
X46382Y-37892D01*
X46382Y-37797D01*
X46501Y-38177D02*
X46501Y-38035D01*
X46501Y-38106D02*
X46251Y-38106D01*
X46287Y-38082D01*
X46311Y-38058D01*
X46323Y-38035D01*
X46501Y-38415D02*
X46501Y-38273D01*
X46501Y-38344D02*
X46251Y-38344D01*
X46287Y-38320D01*
X46311Y-38296D01*
X46323Y-38273D01*
M02*
