G04 (created by PCBNEW-RS274X (2010-04-21 BZR 23xx)-stable) date Tue 14 Jun 2011 05:35:51 PM EDT*
G01*
G70*
G90*
%MOIN*%
G04 Gerber Fmt 3.4, Leading zero omitted, Abs format*
%FSLAX34Y34*%
G04 APERTURE LIST*
%ADD10C,0.006000*%
%ADD11C,0.012500*%
%ADD12C,0.012000*%
%ADD13C,0.005000*%
%ADD14C,0.007500*%
G04 APERTURE END LIST*
G54D10*
G54D11*
X68300Y-24100D02*
X69300Y-24100D01*
X68300Y-25100D02*
X69300Y-25100D01*
G54D12*
X68300Y-24100D02*
X68300Y-25100D01*
X69300Y-25100D02*
X69300Y-24100D01*
G54D13*
X57200Y-39300D02*
X57199Y-39309D01*
X57196Y-39319D01*
X57191Y-39327D01*
X57185Y-39335D01*
X57177Y-39341D01*
X57169Y-39346D01*
X57160Y-39348D01*
X57150Y-39349D01*
X57141Y-39349D01*
X57132Y-39346D01*
X57123Y-39341D01*
X57116Y-39335D01*
X57109Y-39328D01*
X57105Y-39319D01*
X57102Y-39310D01*
X57101Y-39300D01*
X57101Y-39291D01*
X57104Y-39282D01*
X57108Y-39273D01*
X57115Y-39266D01*
X57122Y-39259D01*
X57130Y-39255D01*
X57140Y-39252D01*
X57149Y-39251D01*
X57158Y-39251D01*
X57168Y-39254D01*
X57176Y-39258D01*
X57184Y-39264D01*
X57190Y-39272D01*
X57195Y-39280D01*
X57198Y-39289D01*
X57199Y-39299D01*
X57200Y-39300D01*
X56700Y-39300D02*
X57100Y-39300D01*
X57100Y-39300D02*
X57100Y-38700D01*
X57100Y-38700D02*
X56700Y-38700D01*
X56300Y-38700D02*
X55900Y-38700D01*
X55900Y-38700D02*
X55900Y-39300D01*
X55900Y-39300D02*
X56300Y-39300D01*
X65300Y-24700D02*
X65299Y-24709D01*
X65296Y-24719D01*
X65291Y-24727D01*
X65285Y-24735D01*
X65277Y-24741D01*
X65269Y-24746D01*
X65260Y-24748D01*
X65250Y-24749D01*
X65241Y-24749D01*
X65232Y-24746D01*
X65223Y-24741D01*
X65216Y-24735D01*
X65209Y-24728D01*
X65205Y-24719D01*
X65202Y-24710D01*
X65201Y-24700D01*
X65201Y-24691D01*
X65204Y-24682D01*
X65208Y-24673D01*
X65215Y-24666D01*
X65222Y-24659D01*
X65230Y-24655D01*
X65240Y-24652D01*
X65249Y-24651D01*
X65258Y-24651D01*
X65268Y-24654D01*
X65276Y-24658D01*
X65284Y-24664D01*
X65290Y-24672D01*
X65295Y-24680D01*
X65298Y-24689D01*
X65299Y-24699D01*
X65300Y-24700D01*
X65700Y-24700D02*
X65300Y-24700D01*
X65300Y-24700D02*
X65300Y-25300D01*
X65300Y-25300D02*
X65700Y-25300D01*
X66100Y-25300D02*
X66500Y-25300D01*
X66500Y-25300D02*
X66500Y-24700D01*
X66500Y-24700D02*
X66100Y-24700D01*
X65300Y-25800D02*
X65299Y-25809D01*
X65296Y-25819D01*
X65291Y-25827D01*
X65285Y-25835D01*
X65277Y-25841D01*
X65269Y-25846D01*
X65260Y-25848D01*
X65250Y-25849D01*
X65241Y-25849D01*
X65232Y-25846D01*
X65223Y-25841D01*
X65216Y-25835D01*
X65209Y-25828D01*
X65205Y-25819D01*
X65202Y-25810D01*
X65201Y-25800D01*
X65201Y-25791D01*
X65204Y-25782D01*
X65208Y-25773D01*
X65215Y-25766D01*
X65222Y-25759D01*
X65230Y-25755D01*
X65240Y-25752D01*
X65249Y-25751D01*
X65258Y-25751D01*
X65268Y-25754D01*
X65276Y-25758D01*
X65284Y-25764D01*
X65290Y-25772D01*
X65295Y-25780D01*
X65298Y-25789D01*
X65299Y-25799D01*
X65300Y-25800D01*
X65700Y-25800D02*
X65300Y-25800D01*
X65300Y-25800D02*
X65300Y-26400D01*
X65300Y-26400D02*
X65700Y-26400D01*
X66100Y-26400D02*
X66500Y-26400D01*
X66500Y-26400D02*
X66500Y-25800D01*
X66500Y-25800D02*
X66100Y-25800D01*
X65300Y-26800D02*
X65299Y-26809D01*
X65296Y-26819D01*
X65291Y-26827D01*
X65285Y-26835D01*
X65277Y-26841D01*
X65269Y-26846D01*
X65260Y-26848D01*
X65250Y-26849D01*
X65241Y-26849D01*
X65232Y-26846D01*
X65223Y-26841D01*
X65216Y-26835D01*
X65209Y-26828D01*
X65205Y-26819D01*
X65202Y-26810D01*
X65201Y-26800D01*
X65201Y-26791D01*
X65204Y-26782D01*
X65208Y-26773D01*
X65215Y-26766D01*
X65222Y-26759D01*
X65230Y-26755D01*
X65240Y-26752D01*
X65249Y-26751D01*
X65258Y-26751D01*
X65268Y-26754D01*
X65276Y-26758D01*
X65284Y-26764D01*
X65290Y-26772D01*
X65295Y-26780D01*
X65298Y-26789D01*
X65299Y-26799D01*
X65300Y-26800D01*
X65700Y-26800D02*
X65300Y-26800D01*
X65300Y-26800D02*
X65300Y-27400D01*
X65300Y-27400D02*
X65700Y-27400D01*
X66100Y-27400D02*
X66500Y-27400D01*
X66500Y-27400D02*
X66500Y-26800D01*
X66500Y-26800D02*
X66100Y-26800D01*
X65300Y-27700D02*
X65299Y-27709D01*
X65296Y-27719D01*
X65291Y-27727D01*
X65285Y-27735D01*
X65277Y-27741D01*
X65269Y-27746D01*
X65260Y-27748D01*
X65250Y-27749D01*
X65241Y-27749D01*
X65232Y-27746D01*
X65223Y-27741D01*
X65216Y-27735D01*
X65209Y-27728D01*
X65205Y-27719D01*
X65202Y-27710D01*
X65201Y-27700D01*
X65201Y-27691D01*
X65204Y-27682D01*
X65208Y-27673D01*
X65215Y-27666D01*
X65222Y-27659D01*
X65230Y-27655D01*
X65240Y-27652D01*
X65249Y-27651D01*
X65258Y-27651D01*
X65268Y-27654D01*
X65276Y-27658D01*
X65284Y-27664D01*
X65290Y-27672D01*
X65295Y-27680D01*
X65298Y-27689D01*
X65299Y-27699D01*
X65300Y-27700D01*
X65700Y-27700D02*
X65300Y-27700D01*
X65300Y-27700D02*
X65300Y-28300D01*
X65300Y-28300D02*
X65700Y-28300D01*
X66100Y-28300D02*
X66500Y-28300D01*
X66500Y-28300D02*
X66500Y-27700D01*
X66500Y-27700D02*
X66100Y-27700D01*
X68850Y-27950D02*
X68849Y-27959D01*
X68846Y-27969D01*
X68841Y-27977D01*
X68835Y-27985D01*
X68827Y-27991D01*
X68819Y-27996D01*
X68810Y-27998D01*
X68800Y-27999D01*
X68791Y-27999D01*
X68782Y-27996D01*
X68773Y-27991D01*
X68766Y-27985D01*
X68759Y-27978D01*
X68755Y-27969D01*
X68752Y-27960D01*
X68751Y-27950D01*
X68751Y-27941D01*
X68754Y-27932D01*
X68758Y-27923D01*
X68765Y-27916D01*
X68772Y-27909D01*
X68780Y-27905D01*
X68790Y-27902D01*
X68799Y-27901D01*
X68808Y-27901D01*
X68818Y-27904D01*
X68826Y-27908D01*
X68834Y-27914D01*
X68840Y-27922D01*
X68845Y-27930D01*
X68848Y-27939D01*
X68849Y-27949D01*
X68850Y-27950D01*
X68800Y-28400D02*
X68800Y-28000D01*
X68800Y-28000D02*
X68200Y-28000D01*
X68200Y-28000D02*
X68200Y-28400D01*
X68200Y-28800D02*
X68200Y-29200D01*
X68200Y-29200D02*
X68800Y-29200D01*
X68800Y-29200D02*
X68800Y-28800D01*
X69650Y-46350D02*
X69649Y-46359D01*
X69646Y-46369D01*
X69641Y-46377D01*
X69635Y-46385D01*
X69627Y-46391D01*
X69619Y-46396D01*
X69610Y-46398D01*
X69600Y-46399D01*
X69591Y-46399D01*
X69582Y-46396D01*
X69573Y-46391D01*
X69566Y-46385D01*
X69559Y-46378D01*
X69555Y-46369D01*
X69552Y-46360D01*
X69551Y-46350D01*
X69551Y-46341D01*
X69554Y-46332D01*
X69558Y-46323D01*
X69565Y-46316D01*
X69572Y-46309D01*
X69580Y-46305D01*
X69590Y-46302D01*
X69599Y-46301D01*
X69608Y-46301D01*
X69618Y-46304D01*
X69626Y-46308D01*
X69634Y-46314D01*
X69640Y-46322D01*
X69645Y-46330D01*
X69648Y-46339D01*
X69649Y-46349D01*
X69650Y-46350D01*
X69600Y-45900D02*
X69600Y-46300D01*
X69600Y-46300D02*
X70200Y-46300D01*
X70200Y-46300D02*
X70200Y-45900D01*
X70200Y-45500D02*
X70200Y-45100D01*
X70200Y-45100D02*
X69600Y-45100D01*
X69600Y-45100D02*
X69600Y-45500D01*
X62650Y-46450D02*
X62649Y-46459D01*
X62646Y-46469D01*
X62641Y-46477D01*
X62635Y-46485D01*
X62627Y-46491D01*
X62619Y-46496D01*
X62610Y-46498D01*
X62600Y-46499D01*
X62591Y-46499D01*
X62582Y-46496D01*
X62573Y-46491D01*
X62566Y-46485D01*
X62559Y-46478D01*
X62555Y-46469D01*
X62552Y-46460D01*
X62551Y-46450D01*
X62551Y-46441D01*
X62554Y-46432D01*
X62558Y-46423D01*
X62565Y-46416D01*
X62572Y-46409D01*
X62580Y-46405D01*
X62590Y-46402D01*
X62599Y-46401D01*
X62608Y-46401D01*
X62618Y-46404D01*
X62626Y-46408D01*
X62634Y-46414D01*
X62640Y-46422D01*
X62645Y-46430D01*
X62648Y-46439D01*
X62649Y-46449D01*
X62650Y-46450D01*
X62600Y-46000D02*
X62600Y-46400D01*
X62600Y-46400D02*
X63200Y-46400D01*
X63200Y-46400D02*
X63200Y-46000D01*
X63200Y-45600D02*
X63200Y-45200D01*
X63200Y-45200D02*
X62600Y-45200D01*
X62600Y-45200D02*
X62600Y-45600D01*
X50400Y-36000D02*
X50399Y-36009D01*
X50396Y-36019D01*
X50391Y-36027D01*
X50385Y-36035D01*
X50377Y-36041D01*
X50369Y-36046D01*
X50360Y-36048D01*
X50350Y-36049D01*
X50341Y-36049D01*
X50332Y-36046D01*
X50323Y-36041D01*
X50316Y-36035D01*
X50309Y-36028D01*
X50305Y-36019D01*
X50302Y-36010D01*
X50301Y-36000D01*
X50301Y-35991D01*
X50304Y-35982D01*
X50308Y-35973D01*
X50315Y-35966D01*
X50322Y-35959D01*
X50330Y-35955D01*
X50340Y-35952D01*
X50349Y-35951D01*
X50358Y-35951D01*
X50368Y-35954D01*
X50376Y-35958D01*
X50384Y-35964D01*
X50390Y-35972D01*
X50395Y-35980D01*
X50398Y-35989D01*
X50399Y-35999D01*
X50400Y-36000D01*
X50800Y-36000D02*
X50400Y-36000D01*
X50400Y-36000D02*
X50400Y-36600D01*
X50400Y-36600D02*
X50800Y-36600D01*
X51200Y-36600D02*
X51600Y-36600D01*
X51600Y-36600D02*
X51600Y-36000D01*
X51600Y-36000D02*
X51200Y-36000D01*
X62200Y-31200D02*
X62199Y-31209D01*
X62196Y-31219D01*
X62191Y-31227D01*
X62185Y-31235D01*
X62177Y-31241D01*
X62169Y-31246D01*
X62160Y-31248D01*
X62150Y-31249D01*
X62141Y-31249D01*
X62132Y-31246D01*
X62123Y-31241D01*
X62116Y-31235D01*
X62109Y-31228D01*
X62105Y-31219D01*
X62102Y-31210D01*
X62101Y-31200D01*
X62101Y-31191D01*
X62104Y-31182D01*
X62108Y-31173D01*
X62115Y-31166D01*
X62122Y-31159D01*
X62130Y-31155D01*
X62140Y-31152D01*
X62149Y-31151D01*
X62158Y-31151D01*
X62168Y-31154D01*
X62176Y-31158D01*
X62184Y-31164D01*
X62190Y-31172D01*
X62195Y-31180D01*
X62198Y-31189D01*
X62199Y-31199D01*
X62200Y-31200D01*
X62600Y-31200D02*
X62200Y-31200D01*
X62200Y-31200D02*
X62200Y-31800D01*
X62200Y-31800D02*
X62600Y-31800D01*
X63000Y-31800D02*
X63400Y-31800D01*
X63400Y-31800D02*
X63400Y-31200D01*
X63400Y-31200D02*
X63000Y-31200D01*
X62200Y-34000D02*
X62199Y-34009D01*
X62196Y-34019D01*
X62191Y-34027D01*
X62185Y-34035D01*
X62177Y-34041D01*
X62169Y-34046D01*
X62160Y-34048D01*
X62150Y-34049D01*
X62141Y-34049D01*
X62132Y-34046D01*
X62123Y-34041D01*
X62116Y-34035D01*
X62109Y-34028D01*
X62105Y-34019D01*
X62102Y-34010D01*
X62101Y-34000D01*
X62101Y-33991D01*
X62104Y-33982D01*
X62108Y-33973D01*
X62115Y-33966D01*
X62122Y-33959D01*
X62130Y-33955D01*
X62140Y-33952D01*
X62149Y-33951D01*
X62158Y-33951D01*
X62168Y-33954D01*
X62176Y-33958D01*
X62184Y-33964D01*
X62190Y-33972D01*
X62195Y-33980D01*
X62198Y-33989D01*
X62199Y-33999D01*
X62200Y-34000D01*
X62600Y-34000D02*
X62200Y-34000D01*
X62200Y-34000D02*
X62200Y-34600D01*
X62200Y-34600D02*
X62600Y-34600D01*
X63000Y-34600D02*
X63400Y-34600D01*
X63400Y-34600D02*
X63400Y-34000D01*
X63400Y-34000D02*
X63000Y-34000D01*
X62150Y-31900D02*
X63050Y-31900D01*
X63050Y-31900D02*
X63050Y-32550D01*
X62150Y-33250D02*
X62150Y-33900D01*
X62150Y-33900D02*
X63050Y-33900D01*
X63050Y-33900D02*
X63050Y-33250D01*
X62150Y-32550D02*
X62150Y-31900D01*
G54D14*
X69993Y-23921D02*
X69993Y-23621D01*
X69878Y-23621D01*
X69850Y-23636D01*
X69835Y-23650D01*
X69821Y-23679D01*
X69821Y-23721D01*
X69835Y-23750D01*
X69850Y-23764D01*
X69878Y-23779D01*
X69993Y-23779D01*
X69707Y-23907D02*
X69664Y-23921D01*
X69593Y-23921D01*
X69564Y-23907D01*
X69550Y-23893D01*
X69535Y-23864D01*
X69535Y-23836D01*
X69550Y-23807D01*
X69564Y-23793D01*
X69593Y-23779D01*
X69650Y-23764D01*
X69678Y-23750D01*
X69693Y-23736D01*
X69707Y-23707D01*
X69707Y-23679D01*
X69693Y-23650D01*
X69678Y-23636D01*
X69650Y-23621D01*
X69578Y-23621D01*
X69535Y-23636D01*
X69349Y-23621D02*
X69292Y-23621D01*
X69264Y-23636D01*
X69235Y-23664D01*
X69221Y-23721D01*
X69221Y-23821D01*
X69235Y-23879D01*
X69264Y-23907D01*
X69292Y-23921D01*
X69349Y-23921D01*
X69378Y-23907D01*
X69407Y-23879D01*
X69421Y-23821D01*
X69421Y-23721D01*
X69407Y-23664D01*
X69378Y-23636D01*
X69349Y-23621D01*
X69093Y-23621D02*
X69093Y-23864D01*
X69078Y-23893D01*
X69064Y-23907D01*
X69035Y-23921D01*
X68978Y-23921D01*
X68950Y-23907D01*
X68935Y-23893D01*
X68921Y-23864D01*
X68921Y-23621D01*
X68821Y-23621D02*
X68650Y-23621D01*
X68736Y-23921D02*
X68736Y-23621D01*
X68392Y-23921D02*
X68564Y-23921D01*
X68478Y-23921D02*
X68478Y-23621D01*
X68507Y-23664D01*
X68535Y-23693D01*
X68564Y-23707D01*
G54D13*
X56661Y-39101D02*
X56744Y-38982D01*
X56803Y-39101D02*
X56803Y-38851D01*
X56708Y-38851D01*
X56684Y-38863D01*
X56673Y-38875D01*
X56661Y-38899D01*
X56661Y-38935D01*
X56673Y-38958D01*
X56684Y-38970D01*
X56708Y-38982D01*
X56803Y-38982D01*
X56423Y-39101D02*
X56565Y-39101D01*
X56494Y-39101D02*
X56494Y-38851D01*
X56518Y-38887D01*
X56542Y-38911D01*
X56565Y-38923D01*
X56268Y-38851D02*
X56244Y-38851D01*
X56220Y-38863D01*
X56208Y-38875D01*
X56196Y-38899D01*
X56185Y-38946D01*
X56185Y-39006D01*
X56196Y-39054D01*
X56208Y-39077D01*
X56220Y-39089D01*
X56244Y-39101D01*
X56268Y-39101D01*
X56292Y-39089D01*
X56304Y-39077D01*
X56315Y-39054D01*
X56327Y-39006D01*
X56327Y-38946D01*
X56315Y-38899D01*
X56304Y-38875D01*
X56292Y-38863D01*
X56268Y-38851D01*
X65942Y-25101D02*
X66025Y-24982D01*
X66084Y-25101D02*
X66084Y-24851D01*
X65989Y-24851D01*
X65965Y-24863D01*
X65954Y-24875D01*
X65942Y-24899D01*
X65942Y-24935D01*
X65954Y-24958D01*
X65965Y-24970D01*
X65989Y-24982D01*
X66084Y-24982D01*
X65823Y-25101D02*
X65775Y-25101D01*
X65751Y-25089D01*
X65739Y-25077D01*
X65715Y-25042D01*
X65704Y-24994D01*
X65704Y-24899D01*
X65715Y-24875D01*
X65727Y-24863D01*
X65751Y-24851D01*
X65799Y-24851D01*
X65823Y-24863D01*
X65834Y-24875D01*
X65846Y-24899D01*
X65846Y-24958D01*
X65834Y-24982D01*
X65823Y-24994D01*
X65799Y-25006D01*
X65751Y-25006D01*
X65727Y-24994D01*
X65715Y-24982D01*
X65704Y-24958D01*
X65942Y-26201D02*
X66025Y-26082D01*
X66084Y-26201D02*
X66084Y-25951D01*
X65989Y-25951D01*
X65965Y-25963D01*
X65954Y-25975D01*
X65942Y-25999D01*
X65942Y-26035D01*
X65954Y-26058D01*
X65965Y-26070D01*
X65989Y-26082D01*
X66084Y-26082D01*
X65799Y-26058D02*
X65823Y-26046D01*
X65834Y-26035D01*
X65846Y-26011D01*
X65846Y-25999D01*
X65834Y-25975D01*
X65823Y-25963D01*
X65799Y-25951D01*
X65751Y-25951D01*
X65727Y-25963D01*
X65715Y-25975D01*
X65704Y-25999D01*
X65704Y-26011D01*
X65715Y-26035D01*
X65727Y-26046D01*
X65751Y-26058D01*
X65799Y-26058D01*
X65823Y-26070D01*
X65834Y-26082D01*
X65846Y-26106D01*
X65846Y-26154D01*
X65834Y-26177D01*
X65823Y-26189D01*
X65799Y-26201D01*
X65751Y-26201D01*
X65727Y-26189D01*
X65715Y-26177D01*
X65704Y-26154D01*
X65704Y-26106D01*
X65715Y-26082D01*
X65727Y-26070D01*
X65751Y-26058D01*
X65942Y-27201D02*
X66025Y-27082D01*
X66084Y-27201D02*
X66084Y-26951D01*
X65989Y-26951D01*
X65965Y-26963D01*
X65954Y-26975D01*
X65942Y-26999D01*
X65942Y-27035D01*
X65954Y-27058D01*
X65965Y-27070D01*
X65989Y-27082D01*
X66084Y-27082D01*
X65858Y-26951D02*
X65692Y-26951D01*
X65799Y-27201D01*
X65942Y-28101D02*
X66025Y-27982D01*
X66084Y-28101D02*
X66084Y-27851D01*
X65989Y-27851D01*
X65965Y-27863D01*
X65954Y-27875D01*
X65942Y-27899D01*
X65942Y-27935D01*
X65954Y-27958D01*
X65965Y-27970D01*
X65989Y-27982D01*
X66084Y-27982D01*
X65727Y-27851D02*
X65775Y-27851D01*
X65799Y-27863D01*
X65811Y-27875D01*
X65834Y-27911D01*
X65846Y-27958D01*
X65846Y-28054D01*
X65834Y-28077D01*
X65823Y-28089D01*
X65799Y-28101D01*
X65751Y-28101D01*
X65727Y-28089D01*
X65715Y-28077D01*
X65704Y-28054D01*
X65704Y-27994D01*
X65715Y-27970D01*
X65727Y-27958D01*
X65751Y-27946D01*
X65799Y-27946D01*
X65823Y-27958D01*
X65834Y-27970D01*
X65846Y-27994D01*
X68601Y-28558D02*
X68482Y-28475D01*
X68601Y-28416D02*
X68351Y-28416D01*
X68351Y-28511D01*
X68363Y-28535D01*
X68375Y-28546D01*
X68399Y-28558D01*
X68435Y-28558D01*
X68458Y-28546D01*
X68470Y-28535D01*
X68482Y-28511D01*
X68482Y-28416D01*
X68351Y-28785D02*
X68351Y-28666D01*
X68470Y-28654D01*
X68458Y-28666D01*
X68446Y-28689D01*
X68446Y-28749D01*
X68458Y-28773D01*
X68470Y-28785D01*
X68494Y-28796D01*
X68554Y-28796D01*
X68577Y-28785D01*
X68589Y-28773D01*
X68601Y-28749D01*
X68601Y-28689D01*
X68589Y-28666D01*
X68577Y-28654D01*
X70001Y-45658D02*
X69882Y-45575D01*
X70001Y-45516D02*
X69751Y-45516D01*
X69751Y-45611D01*
X69763Y-45635D01*
X69775Y-45646D01*
X69799Y-45658D01*
X69835Y-45658D01*
X69858Y-45646D01*
X69870Y-45635D01*
X69882Y-45611D01*
X69882Y-45516D01*
X69835Y-45873D02*
X70001Y-45873D01*
X69739Y-45813D02*
X69918Y-45754D01*
X69918Y-45908D01*
X63001Y-45758D02*
X62882Y-45675D01*
X63001Y-45616D02*
X62751Y-45616D01*
X62751Y-45711D01*
X62763Y-45735D01*
X62775Y-45746D01*
X62799Y-45758D01*
X62835Y-45758D01*
X62858Y-45746D01*
X62870Y-45735D01*
X62882Y-45711D01*
X62882Y-45616D01*
X62751Y-45842D02*
X62751Y-45996D01*
X62846Y-45913D01*
X62846Y-45949D01*
X62858Y-45973D01*
X62870Y-45985D01*
X62894Y-45996D01*
X62954Y-45996D01*
X62977Y-45985D01*
X62989Y-45973D01*
X63001Y-45949D01*
X63001Y-45877D01*
X62989Y-45854D01*
X62977Y-45842D01*
X51042Y-36377D02*
X51054Y-36389D01*
X51089Y-36401D01*
X51113Y-36401D01*
X51149Y-36389D01*
X51173Y-36365D01*
X51184Y-36342D01*
X51196Y-36294D01*
X51196Y-36258D01*
X51184Y-36211D01*
X51173Y-36187D01*
X51149Y-36163D01*
X51113Y-36151D01*
X51089Y-36151D01*
X51054Y-36163D01*
X51042Y-36175D01*
X50923Y-36401D02*
X50875Y-36401D01*
X50851Y-36389D01*
X50839Y-36377D01*
X50815Y-36342D01*
X50804Y-36294D01*
X50804Y-36199D01*
X50815Y-36175D01*
X50827Y-36163D01*
X50851Y-36151D01*
X50899Y-36151D01*
X50923Y-36163D01*
X50934Y-36175D01*
X50946Y-36199D01*
X50946Y-36258D01*
X50934Y-36282D01*
X50923Y-36294D01*
X50899Y-36306D01*
X50851Y-36306D01*
X50827Y-36294D01*
X50815Y-36282D01*
X50804Y-36258D01*
X62961Y-31577D02*
X62973Y-31589D01*
X63008Y-31601D01*
X63032Y-31601D01*
X63068Y-31589D01*
X63092Y-31565D01*
X63103Y-31542D01*
X63115Y-31494D01*
X63115Y-31458D01*
X63103Y-31411D01*
X63092Y-31387D01*
X63068Y-31363D01*
X63032Y-31351D01*
X63008Y-31351D01*
X62973Y-31363D01*
X62961Y-31375D01*
X62723Y-31601D02*
X62865Y-31601D01*
X62794Y-31601D02*
X62794Y-31351D01*
X62818Y-31387D01*
X62842Y-31411D01*
X62865Y-31423D01*
X62568Y-31351D02*
X62544Y-31351D01*
X62520Y-31363D01*
X62508Y-31375D01*
X62496Y-31399D01*
X62485Y-31446D01*
X62485Y-31506D01*
X62496Y-31554D01*
X62508Y-31577D01*
X62520Y-31589D01*
X62544Y-31601D01*
X62568Y-31601D01*
X62592Y-31589D01*
X62604Y-31577D01*
X62615Y-31554D01*
X62627Y-31506D01*
X62627Y-31446D01*
X62615Y-31399D01*
X62604Y-31375D01*
X62592Y-31363D01*
X62568Y-31351D01*
X62961Y-34377D02*
X62973Y-34389D01*
X63008Y-34401D01*
X63032Y-34401D01*
X63068Y-34389D01*
X63092Y-34365D01*
X63103Y-34342D01*
X63115Y-34294D01*
X63115Y-34258D01*
X63103Y-34211D01*
X63092Y-34187D01*
X63068Y-34163D01*
X63032Y-34151D01*
X63008Y-34151D01*
X62973Y-34163D01*
X62961Y-34175D01*
X62723Y-34401D02*
X62865Y-34401D01*
X62794Y-34401D02*
X62794Y-34151D01*
X62818Y-34187D01*
X62842Y-34211D01*
X62865Y-34223D01*
X62485Y-34401D02*
X62627Y-34401D01*
X62556Y-34401D02*
X62556Y-34151D01*
X62580Y-34187D01*
X62604Y-34211D01*
X62627Y-34223D01*
X62421Y-32657D02*
X62721Y-32857D01*
X62421Y-32857D02*
X62721Y-32657D01*
X62721Y-33129D02*
X62721Y-32957D01*
X62721Y-33043D02*
X62421Y-33043D01*
X62464Y-33014D01*
X62493Y-32986D01*
X62507Y-32957D01*
M02*
