M48
;DRILL file {Pcbnew (2012-03-17 BZR 3466)-stable} date Sat 17 Nov 2012 12:08:36 AM EST
;FORMAT={-:-/ absolute / inch / decimal}
FMAT,2
INCH,TZ
T1C0.012
T2C0.032
T3C0.032
T4C0.035
T5C0.040
T6C0.045
T7C0.050
T8C0.053
T9C0.120
T10C0.128
%
G90
G05
M72
T1
X2.400Y3.740
X2.748Y3.090
X2.833Y3.160
X2.833Y3.310
X3.070Y4.410
X3.518Y4.107
X3.535Y3.470
X3.535Y3.570
X3.840Y4.415
X3.860Y3.590
X4.015Y4.343
X4.250Y2.940
X4.250Y3.040
X4.250Y3.140
X4.250Y3.240
X4.250Y3.340
X4.410Y3.430
X4.450Y3.430
X4.490Y3.430
X4.530Y3.430
X4.720Y3.860
X4.980Y4.490
X5.478Y4.453
T2
X5.450Y2.980
X5.450Y3.080
T3
X2.570Y3.730
X2.570Y4.030
X2.570Y4.310
X2.570Y4.610
X2.575Y2.915
X2.670Y3.730
X2.670Y4.030
X2.670Y4.310
X2.670Y4.610
X2.770Y3.730
X2.770Y4.030
X2.770Y4.310
X2.770Y4.610
X2.775Y2.915
X2.870Y3.730
X2.870Y4.030
X2.870Y4.310
X2.870Y4.610
X2.970Y3.730
X2.970Y4.030
X2.970Y4.310
X2.970Y4.610
X3.070Y3.730
X3.070Y4.030
X3.070Y4.310
X3.070Y4.610
X3.170Y3.730
X3.170Y4.030
X3.170Y4.310
X3.170Y4.610
X3.270Y3.730
X3.270Y4.030
X3.270Y4.310
X3.270Y4.610
X3.370Y3.730
X3.370Y4.030
X3.370Y4.310
X3.370Y4.610
X3.470Y3.730
X3.470Y4.030
X3.470Y4.310
X3.470Y4.610
X3.570Y3.730
X3.570Y4.030
X3.570Y4.310
X3.570Y4.610
X3.670Y3.730
X3.670Y4.030
X3.670Y4.310
X3.670Y4.610
X3.770Y3.730
X3.770Y4.030
X3.770Y4.310
X3.770Y4.610
X3.870Y3.730
X3.870Y4.030
X3.870Y4.310
X3.870Y4.610
X4.560Y3.730
X4.560Y4.030
X4.560Y4.310
X4.560Y4.610
X4.660Y3.730
X4.660Y4.030
X4.660Y4.310
X4.660Y4.610
X4.760Y3.730
X4.760Y4.030
X4.760Y4.310
X4.760Y4.610
X4.860Y3.730
X4.860Y4.030
X4.860Y4.310
X4.860Y4.610
X4.960Y3.730
X4.960Y4.030
X4.960Y4.310
X4.960Y4.610
X5.060Y3.730
X5.060Y4.030
X5.060Y4.310
X5.060Y4.610
X5.160Y3.730
X5.160Y4.030
X5.160Y4.310
X5.160Y4.610
X5.260Y3.730
X5.260Y4.030
X5.260Y4.310
X5.260Y4.610
X5.360Y3.730
X5.360Y4.030
X5.360Y4.310
X5.360Y4.610
X5.460Y3.730
X5.460Y4.030
X5.460Y4.310
X5.460Y4.610
X5.560Y3.730
X5.560Y4.030
X5.560Y4.310
X5.560Y4.610
X5.660Y3.730
X5.660Y4.030
X5.660Y4.310
X5.660Y4.610
X5.760Y3.730
X5.760Y4.030
X5.760Y4.310
X5.760Y4.610
X5.860Y3.730
X5.860Y4.030
X5.860Y4.310
X5.860Y4.610
T4
X3.035Y3.520
X3.085Y3.420
X3.135Y3.520
X3.185Y3.420
X3.235Y3.520
X3.285Y3.420
X3.335Y3.520
X3.385Y3.420
X3.685Y3.520
X3.735Y3.420
X3.785Y3.520
X3.835Y3.420
X3.885Y3.520
X3.935Y3.420
X3.985Y3.520
X4.035Y3.420
T6
X4.610Y2.980
X4.710Y2.980
X4.810Y2.980
T7
X2.515Y3.015
X2.835Y3.015
T8
X2.335Y5.050
X2.532Y5.050
X2.728Y5.050
X2.925Y5.050
X3.125Y5.050
X3.322Y5.050
X3.518Y5.050
X3.715Y5.050
X3.915Y5.050
X4.112Y5.050
X4.309Y5.050
X4.505Y5.050
X4.705Y5.050
X4.902Y5.050
X5.099Y5.050
X5.295Y5.050
X5.495Y5.050
X5.692Y5.050
X5.889Y5.050
X6.085Y5.050
T9
X2.350Y2.960
X2.350Y4.710
X6.080Y2.960
X6.080Y4.710
T10
X2.976Y3.170
X3.444Y3.170
X3.626Y3.170
X4.094Y3.170
T5
X4.890Y3.240G85X4.890Y3.300
G05
X5.120Y3.180G85X5.060Y3.180
G05
X5.120Y3.420G85X5.060Y3.420
G05
X5.600Y3.240G85X5.600Y3.300
G05
X5.830Y3.180G85X5.770Y3.180
G05
X5.830Y3.420G85X5.770Y3.420
G05
T0
M30
