G04 (created by PCBNEW-RS274X (2010-04-21 BZR 23xx)-stable) date Tue 14 Jun 2011 01:41:51 AM EDT*
G01*
G70*
G90*
%MOIN*%
G04 Gerber Fmt 3.4, Leading zero omitted, Abs format*
%FSLAX34Y34*%
G04 APERTURE LIST*
%ADD10C,0.006000*%
%ADD11C,0.015000*%
%ADD12C,0.160000*%
%ADD13C,0.055000*%
%ADD14R,0.055000X0.055000*%
%ADD15C,0.059100*%
%ADD16C,0.189000*%
%ADD17R,0.189000X0.189000*%
%ADD18R,0.062900X0.070900*%
%ADD19R,0.070900X0.062900*%
%ADD20C,0.070000*%
%ADD21R,0.070000X0.070000*%
%ADD22C,0.060000*%
%ADD23C,0.143700*%
%ADD24R,0.059100X0.059100*%
%ADD25R,0.035000X0.055000*%
%ADD26R,0.055000X0.035000*%
%ADD27R,0.060000X0.080000*%
%ADD28R,0.080000X0.060000*%
%ADD29C,0.010000*%
%ADD30C,0.080000*%
G04 APERTURE END LIST*
G54D10*
G54D11*
X58500Y-32700D02*
X59000Y-32700D01*
X58750Y-32950D02*
X58750Y-32500D01*
G54D12*
X55100Y-33900D03*
X53000Y-35700D03*
X53000Y-33600D03*
X51000Y-32800D03*
X59300Y-51800D03*
X59300Y-48800D03*
X59300Y-45800D03*
X59300Y-42800D03*
X59300Y-39800D03*
X66000Y-51800D03*
X66000Y-48800D03*
X66100Y-45800D03*
X66100Y-42800D03*
X66100Y-39800D03*
X72100Y-24200D03*
X72100Y-26600D03*
X72100Y-29000D03*
X72100Y-32000D03*
X72100Y-35000D03*
X53400Y-22200D03*
G54D13*
X56100Y-32500D03*
X56100Y-31500D03*
X60500Y-25000D03*
X60500Y-24000D03*
X59300Y-25000D03*
X59300Y-24000D03*
X57300Y-29300D03*
X57300Y-30300D03*
X57300Y-32500D03*
X57300Y-31500D03*
X57400Y-27800D03*
X57400Y-26800D03*
X56200Y-27800D03*
X56200Y-26800D03*
X61500Y-24000D03*
X61500Y-25000D03*
X61500Y-26000D03*
X61500Y-27000D03*
X61500Y-28000D03*
X61500Y-29000D03*
X61500Y-30000D03*
X61500Y-31000D03*
X61500Y-32000D03*
X61500Y-33000D03*
X61500Y-34000D03*
X61500Y-35000D03*
X61500Y-36000D03*
G54D14*
X61500Y-23000D03*
G54D13*
X64500Y-36000D03*
X64500Y-35000D03*
X64500Y-34000D03*
X64500Y-33000D03*
X64500Y-32000D03*
X64500Y-31000D03*
X64500Y-30000D03*
X64500Y-29000D03*
X64500Y-28000D03*
X64500Y-27000D03*
X64500Y-26000D03*
X64500Y-25000D03*
X64500Y-24000D03*
X64500Y-23000D03*
G54D15*
X59500Y-31500D03*
X59500Y-32500D03*
G54D16*
X53200Y-25100D03*
G54D17*
X55600Y-25100D03*
G54D16*
X54100Y-27100D03*
X53200Y-29800D03*
G54D17*
X55600Y-29800D03*
G54D16*
X54100Y-31800D03*
G54D18*
X65341Y-25000D03*
X66459Y-25000D03*
X65341Y-26100D03*
X66459Y-26100D03*
X65341Y-27100D03*
X66459Y-27100D03*
X65341Y-28000D03*
X66459Y-28000D03*
G54D19*
X59700Y-26441D03*
X59700Y-27559D03*
G54D20*
X57600Y-23000D03*
G54D21*
X57600Y-24000D03*
G54D20*
X57600Y-25000D03*
G54D22*
X50600Y-37200D03*
X50600Y-35200D03*
X51600Y-37800D03*
X51600Y-34600D03*
G54D23*
X53200Y-50438D03*
X53200Y-45765D03*
G54D24*
X55700Y-46350D03*
G54D15*
X56700Y-46850D03*
X55700Y-47350D03*
X56700Y-47850D03*
X55700Y-48350D03*
X56700Y-48850D03*
X55700Y-49350D03*
X56700Y-49850D03*
G54D23*
X53200Y-43938D03*
X53200Y-39265D03*
G54D24*
X55700Y-39850D03*
G54D15*
X56700Y-40350D03*
X55700Y-40850D03*
X56700Y-41350D03*
X55700Y-41850D03*
X56700Y-42350D03*
X55700Y-42850D03*
X56700Y-43350D03*
G54D14*
X65600Y-23000D03*
X65600Y-24000D03*
X65600Y-33000D03*
X62500Y-36000D03*
X60400Y-29800D03*
X68800Y-24600D03*
G54D25*
X50625Y-36300D03*
X51375Y-36300D03*
G54D26*
X60500Y-27375D03*
X60500Y-26625D03*
G54D27*
X59750Y-28600D03*
X58450Y-28600D03*
G54D28*
X58600Y-27650D03*
X58600Y-26350D03*
G54D14*
X59600Y-34800D03*
G54D13*
X58600Y-34800D03*
X57600Y-34800D03*
X56600Y-34800D03*
X56600Y-37800D03*
X57600Y-37800D03*
X58600Y-37800D03*
X59600Y-37800D03*
X60900Y-39800D03*
X60900Y-40800D03*
X60900Y-41800D03*
X60900Y-42800D03*
X60900Y-43800D03*
X60900Y-44800D03*
X60900Y-45800D03*
X60900Y-46800D03*
X60900Y-47800D03*
X60900Y-48800D03*
X60900Y-49800D03*
X60900Y-50800D03*
X60900Y-51800D03*
G54D14*
X60900Y-38800D03*
G54D13*
X63900Y-51800D03*
X63900Y-50800D03*
X63900Y-49800D03*
X63900Y-48800D03*
X63900Y-47800D03*
X63900Y-46800D03*
X63900Y-45800D03*
X63900Y-44800D03*
X63900Y-43800D03*
X63900Y-42800D03*
X63900Y-41800D03*
X63900Y-40800D03*
X63900Y-39800D03*
X63900Y-38800D03*
X67700Y-39800D03*
X67700Y-40800D03*
X67700Y-41800D03*
X67700Y-42800D03*
X67700Y-43800D03*
X67700Y-44800D03*
X67700Y-45800D03*
X67700Y-46800D03*
X67700Y-47800D03*
X67700Y-48800D03*
X67700Y-49800D03*
X67700Y-50800D03*
X67700Y-51800D03*
G54D14*
X67700Y-38800D03*
G54D13*
X70700Y-51800D03*
X70700Y-50800D03*
X70700Y-49800D03*
X70700Y-48800D03*
X70700Y-47800D03*
X70700Y-46800D03*
X70700Y-45800D03*
X70700Y-44800D03*
X70700Y-43800D03*
X70700Y-42800D03*
X70700Y-41800D03*
X70700Y-40800D03*
X70700Y-39800D03*
X70700Y-38800D03*
X70700Y-35000D03*
X70700Y-34000D03*
X70700Y-33000D03*
X70700Y-32000D03*
X70700Y-31000D03*
X70700Y-30000D03*
X70700Y-29000D03*
X70700Y-28000D03*
X70700Y-27000D03*
X70700Y-26000D03*
X70700Y-25000D03*
X70700Y-24000D03*
X70700Y-23000D03*
G54D14*
X70700Y-36000D03*
G54D13*
X67700Y-23000D03*
X67700Y-24000D03*
X67700Y-25000D03*
X67700Y-26000D03*
X67700Y-27000D03*
X67700Y-28000D03*
X67700Y-29000D03*
X67700Y-30000D03*
X67700Y-31000D03*
X67700Y-32000D03*
X67700Y-33000D03*
X67700Y-34000D03*
X67700Y-35000D03*
X67700Y-36000D03*
G54D12*
X72200Y-52300D03*
X51000Y-52300D03*
X72200Y-22200D03*
X51000Y-22200D03*
G54D13*
X66800Y-25000D03*
X66800Y-26100D03*
X66800Y-27100D03*
X66800Y-28000D03*
G54D29*
X61899Y-29000D02*
X64500Y-29000D01*
X67700Y-36000D02*
X67700Y-35000D01*
X63900Y-38800D02*
X63900Y-39800D01*
X57300Y-31500D02*
X57300Y-30300D01*
X56200Y-26768D02*
X55600Y-26168D01*
X56200Y-26800D02*
X56200Y-26768D01*
X55600Y-25100D02*
X55600Y-26168D01*
X61899Y-29601D02*
X61500Y-30000D01*
X61899Y-29000D02*
X61899Y-29601D01*
X70700Y-38800D02*
X70700Y-39800D01*
X70274Y-44374D02*
X70700Y-44800D01*
X70274Y-40226D02*
X70274Y-44374D01*
X70700Y-39800D02*
X70274Y-40226D01*
X51169Y-35200D02*
X50600Y-35200D01*
X53769Y-37800D02*
X51169Y-35200D01*
X56600Y-37800D02*
X53769Y-37800D01*
X57168Y-30300D02*
X57300Y-30300D01*
X56668Y-29800D02*
X57168Y-30300D01*
X55600Y-29800D02*
X56668Y-29800D01*
X60500Y-26625D02*
X60898Y-26625D01*
X60898Y-24398D02*
X60898Y-26625D01*
X60500Y-24000D02*
X60898Y-24398D01*
X61899Y-28618D02*
X61899Y-29000D01*
X61871Y-28590D02*
X61899Y-28618D01*
X61406Y-28590D02*
X61871Y-28590D01*
X61080Y-28264D02*
X61406Y-28590D01*
X61080Y-26807D02*
X61080Y-28264D01*
X60898Y-26625D02*
X61080Y-26807D01*
X60362Y-27375D02*
X60178Y-27559D01*
X60500Y-27375D02*
X60362Y-27375D01*
X59700Y-27559D02*
X60178Y-27559D01*
G54D30*
X52200Y-32800D02*
X53000Y-33600D01*
X51000Y-32800D02*
X52200Y-32800D01*
X54100Y-32500D02*
X53000Y-33600D01*
X54100Y-31800D02*
X54100Y-32500D01*
X54400Y-34300D02*
X53000Y-35700D01*
X55100Y-33900D02*
X54400Y-34300D01*
X54100Y-33200D02*
X55100Y-33900D01*
X54100Y-31800D02*
X54100Y-33200D01*
X57300Y-32500D02*
X56100Y-32500D01*
X55200Y-33400D02*
X55100Y-33900D01*
X56100Y-32500D02*
X55200Y-33400D01*
X59500Y-32500D02*
X58234Y-32500D01*
X58234Y-32500D02*
X57300Y-32500D01*
X58234Y-32500D02*
X58234Y-29300D01*
X58450Y-29084D02*
X58234Y-29300D01*
X58450Y-28600D02*
X58450Y-29084D01*
X58234Y-29300D02*
X57300Y-29300D01*
G54D29*
X58800Y-28073D02*
X58600Y-28073D01*
X59327Y-28600D02*
X58800Y-28073D01*
X59750Y-28600D02*
X59327Y-28600D01*
X55500Y-27100D02*
X56200Y-27800D01*
X54100Y-27100D02*
X55500Y-27100D01*
X58600Y-27650D02*
X58600Y-27861D01*
X58600Y-27861D02*
X58600Y-28073D01*
X57461Y-27861D02*
X57400Y-27800D01*
X58600Y-27861D02*
X57461Y-27861D01*
X58076Y-26703D02*
X58600Y-27227D01*
X58076Y-23476D02*
X58076Y-26703D01*
X57600Y-23000D02*
X58076Y-23476D01*
X58600Y-27650D02*
X58600Y-27227D01*
X67700Y-25000D02*
X68100Y-24600D01*
X68100Y-24600D02*
X68800Y-24600D01*
X66459Y-25000D02*
X66800Y-25000D01*
X64600Y-26100D02*
X64500Y-26000D01*
X65341Y-26100D02*
X64600Y-26100D01*
X66800Y-26100D02*
X66459Y-26100D01*
X64600Y-27100D02*
X64500Y-27000D01*
X65341Y-27100D02*
X64600Y-27100D01*
X66800Y-27100D02*
X66459Y-27100D01*
X57600Y-39450D02*
X56700Y-40350D01*
X57600Y-37800D02*
X57600Y-39450D01*
X64500Y-23000D02*
X65600Y-23000D01*
X62101Y-34399D02*
X61500Y-35000D01*
X62101Y-31612D02*
X62101Y-34399D01*
X64129Y-29584D02*
X62101Y-31612D01*
X65313Y-29584D02*
X64129Y-29584D01*
X65921Y-28976D02*
X65313Y-29584D01*
X65921Y-25746D02*
X65921Y-28976D01*
X66049Y-25618D02*
X65921Y-25746D01*
X67054Y-25618D02*
X66049Y-25618D01*
X67222Y-25450D02*
X67054Y-25618D01*
X67222Y-24478D02*
X67222Y-25450D01*
X67700Y-24000D02*
X67222Y-24478D01*
X65341Y-28000D02*
X64500Y-28000D01*
X64500Y-42200D02*
X63900Y-42800D01*
X64500Y-36000D02*
X64500Y-42200D01*
X65600Y-24000D02*
X64500Y-24000D01*
X66800Y-28000D02*
X66459Y-28000D01*
G54D30*
X59300Y-39800D02*
X60900Y-39800D01*
X60900Y-39800D02*
X60900Y-40800D01*
X60900Y-39800D02*
X60900Y-38800D01*
X59300Y-42800D02*
X60900Y-42800D01*
X60900Y-41800D02*
X60900Y-42800D01*
X60900Y-42800D02*
X60900Y-43800D01*
X59300Y-45800D02*
X60900Y-45800D01*
X60900Y-44800D02*
X60900Y-45800D01*
X60900Y-45800D02*
X60900Y-46800D01*
X59300Y-48800D02*
X60900Y-48800D01*
X60900Y-47800D02*
X60900Y-48800D01*
X60900Y-48800D02*
X60900Y-49800D01*
X59300Y-51800D02*
X60900Y-51800D01*
X63900Y-51800D02*
X60900Y-51800D01*
X60900Y-51800D02*
X60900Y-50800D01*
G54D29*
X69733Y-48833D02*
X70700Y-49800D01*
X69733Y-36033D02*
X69733Y-48833D01*
X67700Y-34000D02*
X69733Y-36033D01*
X70000Y-48100D02*
X70700Y-48800D01*
X70000Y-28300D02*
X70000Y-48100D01*
X67700Y-26000D02*
X70000Y-28300D01*
X55260Y-47910D02*
X55700Y-48350D01*
X55260Y-42290D02*
X55260Y-47910D01*
X55700Y-41850D02*
X55260Y-42290D01*
X57140Y-47410D02*
X56700Y-47850D01*
X57140Y-42959D02*
X57140Y-47410D01*
X57112Y-42931D02*
X57140Y-42959D01*
X56454Y-42931D02*
X57112Y-42931D01*
X56117Y-42594D02*
X56454Y-42931D01*
X56117Y-42320D02*
X56117Y-42594D01*
X56700Y-41737D02*
X56117Y-42320D01*
X56700Y-41350D02*
X56700Y-41737D01*
X56801Y-42350D02*
X56700Y-42350D01*
X57453Y-43002D02*
X56801Y-42350D01*
X57453Y-48097D02*
X57453Y-43002D01*
X56700Y-48850D02*
X57453Y-48097D01*
X56280Y-49430D02*
X56700Y-49850D01*
X56280Y-43770D02*
X56280Y-49430D01*
X56700Y-43350D02*
X56280Y-43770D01*
G54D30*
X70700Y-35000D02*
X72100Y-35000D01*
X70700Y-34000D02*
X70700Y-35000D01*
X70700Y-35000D02*
X70700Y-36000D01*
X70700Y-32000D02*
X72100Y-32000D01*
X70700Y-31000D02*
X70700Y-32000D01*
X70700Y-32000D02*
X70700Y-33000D01*
X70700Y-29000D02*
X72100Y-29000D01*
X70700Y-28000D02*
X70700Y-29000D01*
X70700Y-29000D02*
X70700Y-30000D01*
G54D29*
X50625Y-37175D02*
X50600Y-37200D01*
X50625Y-36300D02*
X50625Y-37175D01*
G54D30*
X66100Y-39800D02*
X67700Y-39800D01*
X67700Y-38800D02*
X67700Y-39800D01*
X67700Y-39800D02*
X67700Y-40800D01*
X66100Y-42800D02*
X67700Y-42800D01*
X67700Y-41800D02*
X67700Y-42800D01*
X67700Y-42800D02*
X67700Y-43800D01*
X66100Y-45800D02*
X67700Y-45800D01*
X67700Y-46800D02*
X67700Y-45800D01*
X67700Y-45800D02*
X67700Y-44800D01*
X66000Y-48800D02*
X67700Y-48800D01*
X67700Y-47800D02*
X67700Y-48800D01*
X67700Y-48800D02*
X67700Y-49800D01*
G54D29*
X64920Y-35000D02*
X64500Y-35000D01*
X66536Y-33384D02*
X64920Y-35000D01*
X66536Y-32164D02*
X66536Y-33384D01*
X67700Y-31000D02*
X66536Y-32164D01*
X64920Y-42780D02*
X63900Y-43800D01*
X64920Y-35000D02*
X64920Y-42780D01*
G54D30*
X67700Y-51800D02*
X67700Y-50800D01*
X66000Y-51800D02*
X67700Y-51800D01*
X67700Y-51800D02*
X70700Y-51800D01*
X71500Y-26000D02*
X72100Y-26600D01*
X70700Y-26000D02*
X71500Y-26000D01*
X70700Y-26000D02*
X70700Y-27000D01*
X70700Y-26000D02*
X70700Y-25000D01*
X70700Y-23000D02*
X70700Y-24000D01*
X71900Y-24000D02*
X72100Y-24200D01*
X70700Y-24000D02*
X71900Y-24000D01*
X70700Y-23000D02*
X67700Y-23000D01*
G54D29*
X63477Y-33023D02*
X64500Y-32000D01*
X63477Y-41377D02*
X63477Y-33023D01*
X63900Y-41800D02*
X63477Y-41377D01*
X64082Y-34418D02*
X64500Y-34000D01*
X64082Y-37310D02*
X64082Y-34418D01*
X64313Y-37541D02*
X64082Y-37310D01*
X64313Y-40387D02*
X64313Y-37541D01*
X63900Y-40800D02*
X64313Y-40387D01*
X65341Y-25000D02*
X64500Y-25000D01*
X59300Y-25000D02*
X60500Y-25000D01*
X58600Y-26350D02*
X58600Y-25927D01*
X58600Y-25927D02*
X59300Y-25927D01*
X59377Y-26004D02*
X59300Y-25927D01*
X59700Y-26004D02*
X59377Y-26004D01*
X59300Y-25927D02*
X59300Y-25000D01*
X59700Y-26441D02*
X59700Y-26004D01*
X67700Y-29000D02*
X67250Y-28550D01*
X67250Y-27450D02*
X67700Y-27000D01*
X67250Y-28550D02*
X67250Y-27450D01*
X71198Y-46298D02*
X70700Y-45800D01*
X71198Y-47302D02*
X71198Y-46298D01*
X70700Y-47800D02*
X71198Y-47302D01*
X65800Y-30000D02*
X64500Y-30000D01*
X67250Y-28550D02*
X65800Y-30000D01*
X64500Y-30000D02*
X64500Y-31000D01*
X63276Y-32224D02*
X63276Y-37800D01*
X64500Y-31000D02*
X63276Y-32224D01*
X63276Y-45176D02*
X63900Y-45800D01*
X63276Y-37800D02*
X63276Y-45176D01*
X63276Y-37800D02*
X59600Y-37800D01*
X53795Y-38422D02*
X51673Y-36300D01*
X56877Y-38422D02*
X53795Y-38422D01*
X57184Y-38115D02*
X56877Y-38422D01*
X57184Y-37413D02*
X57184Y-38115D01*
X57212Y-37385D02*
X57184Y-37413D01*
X59185Y-37385D02*
X57212Y-37385D01*
X59600Y-37800D02*
X59185Y-37385D01*
X51375Y-36300D02*
X51673Y-36300D01*
X59897Y-27076D02*
X59700Y-26879D01*
X60833Y-27076D02*
X59897Y-27076D01*
X60906Y-27149D02*
X60833Y-27076D01*
X60906Y-28406D02*
X60906Y-27149D01*
X61500Y-29000D02*
X60906Y-28406D01*
X59700Y-26441D02*
X59700Y-26879D01*
X50750Y-31850D02*
X54957Y-31850D01*
X50750Y-31930D02*
X54970Y-31930D01*
X50750Y-32010D02*
X54983Y-32010D01*
X50750Y-32090D02*
X54997Y-32090D01*
X50750Y-32170D02*
X55010Y-32170D01*
X50750Y-32250D02*
X55023Y-32250D01*
X50750Y-32330D02*
X55037Y-32330D01*
X50750Y-32410D02*
X55050Y-32410D01*
X50750Y-32490D02*
X55063Y-32490D01*
X50750Y-32570D02*
X55077Y-32570D01*
X50750Y-32650D02*
X55090Y-32650D01*
X50750Y-32730D02*
X55103Y-32730D01*
X50750Y-32810D02*
X55117Y-32810D01*
X50750Y-32890D02*
X55130Y-32890D01*
X50750Y-32970D02*
X55143Y-32970D01*
X50750Y-33050D02*
X55157Y-33050D01*
X50750Y-33130D02*
X55170Y-33130D01*
X50750Y-33210D02*
X55183Y-33210D01*
X50750Y-33290D02*
X55197Y-33290D01*
X50760Y-33370D02*
X55210Y-33370D01*
X50950Y-33450D02*
X55223Y-33450D01*
X51140Y-33530D02*
X55237Y-33530D01*
X51330Y-33610D02*
X55244Y-33610D01*
X51520Y-33690D02*
X55217Y-33690D01*
X51710Y-33770D02*
X55190Y-33770D01*
X51900Y-33850D02*
X55164Y-33850D01*
X52090Y-33930D02*
X55137Y-33930D01*
X52280Y-34010D02*
X55110Y-34010D01*
X52470Y-34090D02*
X55084Y-34090D01*
X52650Y-34170D02*
X55057Y-34170D01*
X52650Y-34250D02*
X54978Y-34250D01*
X52650Y-34330D02*
X54898Y-34330D01*
X52650Y-34410D02*
X54818Y-34410D01*
X52650Y-34490D02*
X54738Y-34490D01*
X52650Y-34570D02*
X54658Y-34570D01*
X52650Y-34650D02*
X54578Y-34650D01*
X52650Y-34730D02*
X54498Y-34730D01*
X52650Y-34810D02*
X54418Y-34810D01*
X52650Y-34890D02*
X54338Y-34890D01*
X52650Y-34970D02*
X54258Y-34970D01*
X52650Y-35050D02*
X54178Y-35050D01*
X52650Y-35130D02*
X54098Y-35130D01*
X52650Y-35210D02*
X54018Y-35210D01*
X52650Y-35290D02*
X53938Y-35290D01*
X52650Y-35370D02*
X53858Y-35370D01*
X52650Y-35450D02*
X53838Y-35450D01*
X52650Y-35530D02*
X53820Y-35530D01*
X52650Y-35610D02*
X53802Y-35610D01*
X52650Y-35690D02*
X53784Y-35690D01*
X52650Y-35770D02*
X53766Y-35770D01*
X52650Y-35850D02*
X53749Y-35850D01*
X52650Y-35930D02*
X53731Y-35930D01*
X52650Y-36010D02*
X53713Y-36010D01*
X52650Y-36090D02*
X53695Y-36090D01*
X52650Y-36170D02*
X53677Y-36170D01*
X53659Y-36250D02*
X53854Y-35374D01*
X55056Y-34172D01*
X55248Y-33595D01*
X54957Y-31850D01*
X50750Y-31850D01*
X50750Y-33366D01*
X52650Y-34166D01*
X52650Y-36250D01*
X53659Y-36250D01*
M02*
