M48
;DRILL file {PCBnew (2011-07-08)-stable} date Wed 23 Nov 2011 11:10:57 PM EST
;FORMAT={-:-/ absolute / inch / decimal}
FMAT,2
INCH,TZ
T1C0.032
T2C0.032
T3C0.035
T4C0.040
T5C0.045
T6C0.050
T7C0.120
T8C0.128
%
G90
G05
M72
T1
X4.870Y-3.330
X4.870Y-3.430
T2
X3.980Y-3.700
X3.980Y-3.900
X4.530Y-3.330
X4.530Y-3.430
X4.540Y-2.860
X4.540Y-2.960
X4.580Y-3.660
X4.580Y-3.960
X4.650Y-3.110
X4.650Y-3.210
X4.650Y-3.330
X4.650Y-3.430
X4.660Y-2.860
X4.660Y-2.960
X4.680Y-3.660
X4.680Y-3.960
X4.780Y-3.660
X4.780Y-3.960
X4.850Y-2.580
X4.850Y-2.680
X4.880Y-3.660
X4.880Y-3.960
X4.960Y-3.160
X4.970Y-2.580
X4.970Y-2.680
X5.010Y-4.060
X5.010Y-4.160
X5.010Y-4.260
X5.010Y-4.360
X5.010Y-4.460
X5.010Y-4.560
X5.010Y-4.660
X5.010Y-4.760
X5.010Y-4.860
X5.010Y-4.960
X5.010Y-5.060
X5.010Y-5.160
X5.010Y-5.260
X5.010Y-5.360
X5.070Y-2.480
X5.070Y-2.580
X5.070Y-2.680
X5.070Y-2.780
X5.070Y-2.880
X5.070Y-2.980
X5.070Y-3.080
X5.070Y-3.180
X5.070Y-3.280
X5.070Y-3.380
X5.070Y-3.480
X5.070Y-3.580
X5.070Y-3.680
X5.070Y-3.780
X5.170Y-3.780
X5.310Y-4.060
X5.310Y-4.160
X5.310Y-4.260
X5.310Y-4.360
X5.310Y-4.460
X5.310Y-4.560
X5.310Y-4.660
X5.310Y-4.760
X5.310Y-4.860
X5.310Y-4.960
X5.310Y-5.060
X5.310Y-5.160
X5.310Y-5.260
X5.310Y-5.360
X5.370Y-2.480
X5.370Y-2.580
X5.370Y-2.680
X5.370Y-2.780
X5.370Y-2.880
X5.370Y-2.980
X5.370Y-3.080
X5.370Y-3.180
X5.370Y-3.280
X5.370Y-3.380
X5.370Y-3.480
X5.370Y-3.580
X5.370Y-3.680
X5.370Y-3.780
X5.480Y-2.480
X5.480Y-2.580
X5.480Y-3.480
X5.600Y-2.680
X5.600Y-2.790
X5.600Y-2.890
X5.600Y-2.980
X5.690Y-2.480
X5.690Y-2.580
X5.690Y-2.680
X5.690Y-2.780
X5.690Y-2.880
X5.690Y-2.980
X5.690Y-3.080
X5.690Y-3.180
X5.690Y-3.280
X5.690Y-3.380
X5.690Y-3.480
X5.690Y-3.580
X5.690Y-3.680
X5.690Y-3.780
X5.690Y-4.060
X5.690Y-4.160
X5.690Y-4.260
X5.690Y-4.360
X5.690Y-4.460
X5.690Y-4.560
X5.690Y-4.660
X5.690Y-4.760
X5.690Y-4.860
X5.690Y-4.960
X5.690Y-5.060
X5.690Y-5.160
X5.690Y-5.260
X5.690Y-5.360
X5.800Y-2.640
X5.990Y-2.480
X5.990Y-2.580
X5.990Y-2.680
X5.990Y-2.780
X5.990Y-2.880
X5.990Y-2.980
X5.990Y-3.080
X5.990Y-3.180
X5.990Y-3.280
X5.990Y-3.380
X5.990Y-3.480
X5.990Y-3.580
X5.990Y-3.680
X5.990Y-3.780
X5.990Y-4.060
X5.990Y-4.160
X5.990Y-4.260
X5.990Y-4.360
X5.990Y-4.460
X5.990Y-4.560
X5.990Y-4.660
X5.990Y-4.760
X5.990Y-4.860
X5.990Y-4.960
X5.990Y-5.060
X5.990Y-5.160
X5.990Y-5.260
X5.990Y-5.360
X6.070Y-5.060
T3
X4.490Y-4.165
X4.490Y-4.265
X4.490Y-4.365
X4.490Y-4.465
X4.490Y-4.815
X4.490Y-4.915
X4.490Y-5.015
X4.490Y-5.115
X4.590Y-4.215
X4.590Y-4.315
X4.590Y-4.415
X4.590Y-4.515
X4.590Y-4.865
X4.590Y-4.965
X4.590Y-5.065
X4.590Y-5.165
T5
X4.680Y-2.480
X4.680Y-2.580
X4.680Y-2.680
T6
X4.080Y-3.640
X4.080Y-3.960
T7
X4.020Y-2.400
X4.020Y-3.460
X4.020Y-5.410
X4.220Y-3.540
X4.220Y-3.750
X4.260Y-2.400
X4.430Y-3.570
X4.850Y-4.160
X4.850Y-4.460
X4.850Y-4.760
X4.850Y-5.060
X4.850Y-5.360
X5.520Y-5.060
X5.520Y-5.360
X5.530Y-4.160
X5.530Y-4.460
X5.530Y-4.760
X6.130Y-2.600
X6.130Y-2.840
X6.130Y-3.080
X6.130Y-3.380
X6.130Y-3.680
X6.140Y-2.400
X6.140Y-5.410
T8
X4.240Y-4.107
X4.240Y-4.574
X4.240Y-4.756
X4.240Y-5.224
T4
X4.240Y-2.660G85X4.240Y-2.720
G05
X4.240Y-3.130G85X4.240Y-3.190
G05
X4.300Y-2.890G85X4.360Y-2.890
G05
X4.300Y-3.360G85X4.360Y-3.360
G05
X4.480Y-2.660G85X4.480Y-2.720
G05
X4.480Y-3.130G85X4.480Y-3.190
G05
T0
M30
