G04 (created by PCBNEW-RS274X (2012-03-17 BZR 3466)-stable) date Wed 14 Nov 2012 04:06:22 PM EST*
G01*
G70*
G90*
%MOIN*%
G04 Gerber Fmt 3.4, Leading zero omitted, Abs format*
%FSLAX34Y34*%
G04 APERTURE LIST*
%ADD10C,0.006000*%
%ADD11C,0.015000*%
%ADD12C,0.010000*%
%ADD13C,0.007500*%
%ADD14C,0.005000*%
%ADD15C,0.012000*%
G04 APERTURE END LIST*
G54D10*
G54D11*
X22500Y-52100D02*
X61800Y-52100D01*
X22500Y-28600D02*
X61800Y-28600D01*
X22500Y-52100D02*
X22500Y-28600D01*
X61800Y-28600D02*
X61800Y-52100D01*
G54D12*
X59804Y-33162D02*
X59995Y-33162D01*
X59995Y-32762D01*
X59671Y-32952D02*
X59537Y-32952D01*
X59480Y-33162D02*
X59671Y-33162D01*
X59671Y-32762D01*
X59480Y-32762D01*
X59309Y-33162D02*
X59309Y-32762D01*
X59214Y-32762D01*
X59156Y-32781D01*
X59118Y-32819D01*
X59099Y-32857D01*
X59080Y-32933D01*
X59080Y-32990D01*
X59099Y-33067D01*
X59118Y-33105D01*
X59156Y-33143D01*
X59214Y-33162D01*
X59309Y-33162D01*
X58909Y-33010D02*
X58604Y-33010D01*
X58756Y-33162D02*
X58756Y-32857D01*
X57004Y-29881D02*
X57042Y-29862D01*
X57099Y-29862D01*
X57157Y-29881D01*
X57195Y-29919D01*
X57214Y-29957D01*
X57233Y-30033D01*
X57233Y-30090D01*
X57214Y-30167D01*
X57195Y-30205D01*
X57157Y-30243D01*
X57099Y-30262D01*
X57061Y-30262D01*
X57004Y-30243D01*
X56985Y-30224D01*
X56985Y-30090D01*
X57061Y-30090D01*
X56814Y-30262D02*
X56814Y-29862D01*
X56585Y-30262D01*
X56585Y-29862D01*
X56395Y-30262D02*
X56395Y-29862D01*
X56300Y-29862D01*
X56242Y-29881D01*
X56204Y-29919D01*
X56185Y-29957D01*
X56166Y-30033D01*
X56166Y-30090D01*
X56185Y-30167D01*
X56204Y-30205D01*
X56242Y-30243D01*
X56300Y-30262D01*
X56395Y-30262D01*
G54D13*
X46499Y-31021D02*
X46399Y-31321D01*
X46299Y-31021D01*
X46028Y-31293D02*
X46042Y-31307D01*
X46085Y-31321D01*
X46114Y-31321D01*
X46157Y-31307D01*
X46185Y-31279D01*
X46200Y-31250D01*
X46214Y-31193D01*
X46214Y-31150D01*
X46200Y-31093D01*
X46185Y-31064D01*
X46157Y-31036D01*
X46114Y-31021D01*
X46085Y-31021D01*
X46042Y-31036D01*
X46028Y-31050D01*
X45728Y-31293D02*
X45742Y-31307D01*
X45785Y-31321D01*
X45814Y-31321D01*
X45857Y-31307D01*
X45885Y-31279D01*
X45900Y-31250D01*
X45914Y-31193D01*
X45914Y-31150D01*
X45900Y-31093D01*
X45885Y-31064D01*
X45857Y-31036D01*
X45814Y-31021D01*
X45785Y-31021D01*
X45742Y-31036D01*
X45728Y-31050D01*
G54D14*
X42800Y-33100D02*
X42799Y-33109D01*
X42796Y-33119D01*
X42791Y-33127D01*
X42785Y-33135D01*
X42777Y-33141D01*
X42769Y-33146D01*
X42760Y-33148D01*
X42750Y-33149D01*
X42741Y-33149D01*
X42732Y-33146D01*
X42723Y-33141D01*
X42716Y-33135D01*
X42709Y-33128D01*
X42705Y-33119D01*
X42702Y-33110D01*
X42701Y-33100D01*
X42701Y-33091D01*
X42704Y-33082D01*
X42708Y-33073D01*
X42715Y-33066D01*
X42722Y-33059D01*
X42730Y-33055D01*
X42740Y-33052D01*
X42749Y-33051D01*
X42758Y-33051D01*
X42768Y-33054D01*
X42776Y-33058D01*
X42784Y-33064D01*
X42790Y-33072D01*
X42795Y-33080D01*
X42798Y-33089D01*
X42799Y-33099D01*
X42800Y-33100D01*
X43200Y-33100D02*
X42800Y-33100D01*
X42800Y-33100D02*
X42800Y-33700D01*
X42800Y-33700D02*
X43200Y-33700D01*
X43600Y-33700D02*
X44000Y-33700D01*
X44000Y-33700D02*
X44000Y-33100D01*
X44000Y-33100D02*
X43600Y-33100D01*
X42800Y-32100D02*
X42799Y-32109D01*
X42796Y-32119D01*
X42791Y-32127D01*
X42785Y-32135D01*
X42777Y-32141D01*
X42769Y-32146D01*
X42760Y-32148D01*
X42750Y-32149D01*
X42741Y-32149D01*
X42732Y-32146D01*
X42723Y-32141D01*
X42716Y-32135D01*
X42709Y-32128D01*
X42705Y-32119D01*
X42702Y-32110D01*
X42701Y-32100D01*
X42701Y-32091D01*
X42704Y-32082D01*
X42708Y-32073D01*
X42715Y-32066D01*
X42722Y-32059D01*
X42730Y-32055D01*
X42740Y-32052D01*
X42749Y-32051D01*
X42758Y-32051D01*
X42768Y-32054D01*
X42776Y-32058D01*
X42784Y-32064D01*
X42790Y-32072D01*
X42795Y-32080D01*
X42798Y-32089D01*
X42799Y-32099D01*
X42800Y-32100D01*
X43200Y-32100D02*
X42800Y-32100D01*
X42800Y-32100D02*
X42800Y-32700D01*
X42800Y-32700D02*
X43200Y-32700D01*
X43600Y-32700D02*
X44000Y-32700D01*
X44000Y-32700D02*
X44000Y-32100D01*
X44000Y-32100D02*
X43600Y-32100D01*
X42800Y-31100D02*
X42799Y-31109D01*
X42796Y-31119D01*
X42791Y-31127D01*
X42785Y-31135D01*
X42777Y-31141D01*
X42769Y-31146D01*
X42760Y-31148D01*
X42750Y-31149D01*
X42741Y-31149D01*
X42732Y-31146D01*
X42723Y-31141D01*
X42716Y-31135D01*
X42709Y-31128D01*
X42705Y-31119D01*
X42702Y-31110D01*
X42701Y-31100D01*
X42701Y-31091D01*
X42704Y-31082D01*
X42708Y-31073D01*
X42715Y-31066D01*
X42722Y-31059D01*
X42730Y-31055D01*
X42740Y-31052D01*
X42749Y-31051D01*
X42758Y-31051D01*
X42768Y-31054D01*
X42776Y-31058D01*
X42784Y-31064D01*
X42790Y-31072D01*
X42795Y-31080D01*
X42798Y-31089D01*
X42799Y-31099D01*
X42800Y-31100D01*
X43200Y-31100D02*
X42800Y-31100D01*
X42800Y-31100D02*
X42800Y-31700D01*
X42800Y-31700D02*
X43200Y-31700D01*
X43600Y-31700D02*
X44000Y-31700D01*
X44000Y-31700D02*
X44000Y-31100D01*
X44000Y-31100D02*
X43600Y-31100D01*
X42800Y-30100D02*
X42799Y-30109D01*
X42796Y-30119D01*
X42791Y-30127D01*
X42785Y-30135D01*
X42777Y-30141D01*
X42769Y-30146D01*
X42760Y-30148D01*
X42750Y-30149D01*
X42741Y-30149D01*
X42732Y-30146D01*
X42723Y-30141D01*
X42716Y-30135D01*
X42709Y-30128D01*
X42705Y-30119D01*
X42702Y-30110D01*
X42701Y-30100D01*
X42701Y-30091D01*
X42704Y-30082D01*
X42708Y-30073D01*
X42715Y-30066D01*
X42722Y-30059D01*
X42730Y-30055D01*
X42740Y-30052D01*
X42749Y-30051D01*
X42758Y-30051D01*
X42768Y-30054D01*
X42776Y-30058D01*
X42784Y-30064D01*
X42790Y-30072D01*
X42795Y-30080D01*
X42798Y-30089D01*
X42799Y-30099D01*
X42800Y-30100D01*
X43200Y-30100D02*
X42800Y-30100D01*
X42800Y-30100D02*
X42800Y-30700D01*
X42800Y-30700D02*
X43200Y-30700D01*
X43600Y-30700D02*
X44000Y-30700D01*
X44000Y-30700D02*
X44000Y-30100D01*
X44000Y-30100D02*
X43600Y-30100D01*
X53300Y-42400D02*
X53299Y-42409D01*
X53296Y-42419D01*
X53291Y-42427D01*
X53285Y-42435D01*
X53277Y-42441D01*
X53269Y-42446D01*
X53260Y-42448D01*
X53250Y-42449D01*
X53241Y-42449D01*
X53232Y-42446D01*
X53223Y-42441D01*
X53216Y-42435D01*
X53209Y-42428D01*
X53205Y-42419D01*
X53202Y-42410D01*
X53201Y-42400D01*
X53201Y-42391D01*
X53204Y-42382D01*
X53208Y-42373D01*
X53215Y-42366D01*
X53222Y-42359D01*
X53230Y-42355D01*
X53240Y-42352D01*
X53249Y-42351D01*
X53258Y-42351D01*
X53268Y-42354D01*
X53276Y-42358D01*
X53284Y-42364D01*
X53290Y-42372D01*
X53295Y-42380D01*
X53298Y-42389D01*
X53299Y-42399D01*
X53300Y-42400D01*
X52800Y-42400D02*
X53200Y-42400D01*
X53200Y-42400D02*
X53200Y-41800D01*
X53200Y-41800D02*
X52800Y-41800D01*
X52400Y-41800D02*
X52000Y-41800D01*
X52000Y-41800D02*
X52000Y-42400D01*
X52000Y-42400D02*
X52400Y-42400D01*
X53300Y-36700D02*
X53299Y-36709D01*
X53296Y-36719D01*
X53291Y-36727D01*
X53285Y-36735D01*
X53277Y-36741D01*
X53269Y-36746D01*
X53260Y-36748D01*
X53250Y-36749D01*
X53241Y-36749D01*
X53232Y-36746D01*
X53223Y-36741D01*
X53216Y-36735D01*
X53209Y-36728D01*
X53205Y-36719D01*
X53202Y-36710D01*
X53201Y-36700D01*
X53201Y-36691D01*
X53204Y-36682D01*
X53208Y-36673D01*
X53215Y-36666D01*
X53222Y-36659D01*
X53230Y-36655D01*
X53240Y-36652D01*
X53249Y-36651D01*
X53258Y-36651D01*
X53268Y-36654D01*
X53276Y-36658D01*
X53284Y-36664D01*
X53290Y-36672D01*
X53295Y-36680D01*
X53298Y-36689D01*
X53299Y-36699D01*
X53300Y-36700D01*
X52800Y-36700D02*
X53200Y-36700D01*
X53200Y-36700D02*
X53200Y-36100D01*
X53200Y-36100D02*
X52800Y-36100D01*
X52400Y-36100D02*
X52000Y-36100D01*
X52000Y-36100D02*
X52000Y-36700D01*
X52000Y-36700D02*
X52400Y-36700D01*
X42800Y-29099D02*
X42799Y-29108D01*
X42796Y-29118D01*
X42791Y-29126D01*
X42785Y-29134D01*
X42777Y-29140D01*
X42769Y-29145D01*
X42760Y-29147D01*
X42750Y-29148D01*
X42741Y-29148D01*
X42732Y-29145D01*
X42723Y-29140D01*
X42716Y-29134D01*
X42709Y-29127D01*
X42705Y-29118D01*
X42702Y-29109D01*
X42701Y-29099D01*
X42701Y-29090D01*
X42704Y-29081D01*
X42708Y-29072D01*
X42715Y-29065D01*
X42722Y-29058D01*
X42730Y-29054D01*
X42740Y-29051D01*
X42749Y-29050D01*
X42758Y-29050D01*
X42768Y-29053D01*
X42776Y-29057D01*
X42784Y-29063D01*
X42790Y-29071D01*
X42795Y-29079D01*
X42798Y-29088D01*
X42799Y-29098D01*
X42800Y-29099D01*
X43200Y-29099D02*
X42800Y-29099D01*
X42800Y-29099D02*
X42800Y-29699D01*
X42800Y-29699D02*
X43200Y-29699D01*
X43600Y-29699D02*
X44000Y-29699D01*
X44000Y-29699D02*
X44000Y-29099D01*
X44000Y-29099D02*
X43600Y-29099D01*
G54D11*
X32524Y-37816D02*
X32524Y-38131D01*
X32524Y-39784D02*
X32524Y-39469D01*
X35476Y-39784D02*
X35476Y-39469D01*
X35476Y-37816D02*
X35476Y-38131D01*
X32524Y-37816D02*
X35476Y-37816D01*
X35476Y-39784D02*
X32524Y-39784D01*
G54D14*
X36050Y-39550D02*
X36049Y-39559D01*
X36046Y-39569D01*
X36041Y-39577D01*
X36035Y-39585D01*
X36027Y-39591D01*
X36019Y-39596D01*
X36010Y-39598D01*
X36000Y-39599D01*
X35991Y-39599D01*
X35982Y-39596D01*
X35973Y-39591D01*
X35966Y-39585D01*
X35959Y-39578D01*
X35955Y-39569D01*
X35952Y-39560D01*
X35951Y-39550D01*
X35951Y-39541D01*
X35954Y-39532D01*
X35958Y-39523D01*
X35965Y-39516D01*
X35972Y-39509D01*
X35980Y-39505D01*
X35990Y-39502D01*
X35999Y-39501D01*
X36008Y-39501D01*
X36018Y-39504D01*
X36026Y-39508D01*
X36034Y-39514D01*
X36040Y-39522D01*
X36045Y-39530D01*
X36048Y-39539D01*
X36049Y-39549D01*
X36050Y-39550D01*
X36000Y-39100D02*
X36000Y-39500D01*
X36000Y-39500D02*
X36600Y-39500D01*
X36600Y-39500D02*
X36600Y-39100D01*
X36600Y-38700D02*
X36600Y-38300D01*
X36600Y-38300D02*
X36000Y-38300D01*
X36000Y-38300D02*
X36000Y-38700D01*
X31450Y-39550D02*
X31449Y-39559D01*
X31446Y-39569D01*
X31441Y-39577D01*
X31435Y-39585D01*
X31427Y-39591D01*
X31419Y-39596D01*
X31410Y-39598D01*
X31400Y-39599D01*
X31391Y-39599D01*
X31382Y-39596D01*
X31373Y-39591D01*
X31366Y-39585D01*
X31359Y-39578D01*
X31355Y-39569D01*
X31352Y-39560D01*
X31351Y-39550D01*
X31351Y-39541D01*
X31354Y-39532D01*
X31358Y-39523D01*
X31365Y-39516D01*
X31372Y-39509D01*
X31380Y-39505D01*
X31390Y-39502D01*
X31399Y-39501D01*
X31408Y-39501D01*
X31418Y-39504D01*
X31426Y-39508D01*
X31434Y-39514D01*
X31440Y-39522D01*
X31445Y-39530D01*
X31448Y-39539D01*
X31449Y-39549D01*
X31450Y-39550D01*
X31400Y-39100D02*
X31400Y-39500D01*
X31400Y-39500D02*
X32000Y-39500D01*
X32000Y-39500D02*
X32000Y-39100D01*
X32000Y-38700D02*
X32000Y-38300D01*
X32000Y-38300D02*
X31400Y-38300D01*
X31400Y-38300D02*
X31400Y-38700D01*
X26150Y-29850D02*
X26149Y-29859D01*
X26146Y-29869D01*
X26141Y-29877D01*
X26135Y-29885D01*
X26127Y-29891D01*
X26119Y-29896D01*
X26110Y-29898D01*
X26100Y-29899D01*
X26091Y-29899D01*
X26082Y-29896D01*
X26073Y-29891D01*
X26066Y-29885D01*
X26059Y-29878D01*
X26055Y-29869D01*
X26052Y-29860D01*
X26051Y-29850D01*
X26051Y-29841D01*
X26054Y-29832D01*
X26058Y-29823D01*
X26065Y-29816D01*
X26072Y-29809D01*
X26080Y-29805D01*
X26090Y-29802D01*
X26099Y-29801D01*
X26108Y-29801D01*
X26118Y-29804D01*
X26126Y-29808D01*
X26134Y-29814D01*
X26140Y-29822D01*
X26145Y-29830D01*
X26148Y-29839D01*
X26149Y-29849D01*
X26150Y-29850D01*
X26550Y-29850D02*
X26150Y-29850D01*
X26150Y-29850D02*
X26150Y-30450D01*
X26150Y-30450D02*
X26550Y-30450D01*
X26950Y-30450D02*
X27350Y-30450D01*
X27350Y-30450D02*
X27350Y-29850D01*
X27350Y-29850D02*
X26950Y-29850D01*
X42751Y-33358D02*
X42632Y-33275D01*
X42751Y-33216D02*
X42501Y-33216D01*
X42501Y-33311D01*
X42513Y-33335D01*
X42525Y-33346D01*
X42549Y-33358D01*
X42585Y-33358D01*
X42608Y-33346D01*
X42620Y-33335D01*
X42632Y-33311D01*
X42632Y-33216D01*
X42751Y-33477D02*
X42751Y-33525D01*
X42739Y-33549D01*
X42727Y-33561D01*
X42692Y-33585D01*
X42644Y-33596D01*
X42549Y-33596D01*
X42525Y-33585D01*
X42513Y-33573D01*
X42501Y-33549D01*
X42501Y-33501D01*
X42513Y-33477D01*
X42525Y-33466D01*
X42549Y-33454D01*
X42608Y-33454D01*
X42632Y-33466D01*
X42644Y-33477D01*
X42656Y-33501D01*
X42656Y-33549D01*
X42644Y-33573D01*
X42632Y-33585D01*
X42608Y-33596D01*
X42751Y-32358D02*
X42632Y-32275D01*
X42751Y-32216D02*
X42501Y-32216D01*
X42501Y-32311D01*
X42513Y-32335D01*
X42525Y-32346D01*
X42549Y-32358D01*
X42585Y-32358D01*
X42608Y-32346D01*
X42620Y-32335D01*
X42632Y-32311D01*
X42632Y-32216D01*
X42608Y-32501D02*
X42596Y-32477D01*
X42585Y-32466D01*
X42561Y-32454D01*
X42549Y-32454D01*
X42525Y-32466D01*
X42513Y-32477D01*
X42501Y-32501D01*
X42501Y-32549D01*
X42513Y-32573D01*
X42525Y-32585D01*
X42549Y-32596D01*
X42561Y-32596D01*
X42585Y-32585D01*
X42596Y-32573D01*
X42608Y-32549D01*
X42608Y-32501D01*
X42620Y-32477D01*
X42632Y-32466D01*
X42656Y-32454D01*
X42704Y-32454D01*
X42727Y-32466D01*
X42739Y-32477D01*
X42751Y-32501D01*
X42751Y-32549D01*
X42739Y-32573D01*
X42727Y-32585D01*
X42704Y-32596D01*
X42656Y-32596D01*
X42632Y-32585D01*
X42620Y-32573D01*
X42608Y-32549D01*
X42751Y-31358D02*
X42632Y-31275D01*
X42751Y-31216D02*
X42501Y-31216D01*
X42501Y-31311D01*
X42513Y-31335D01*
X42525Y-31346D01*
X42549Y-31358D01*
X42585Y-31358D01*
X42608Y-31346D01*
X42620Y-31335D01*
X42632Y-31311D01*
X42632Y-31216D01*
X42501Y-31442D02*
X42501Y-31608D01*
X42751Y-31501D01*
X42751Y-30358D02*
X42632Y-30275D01*
X42751Y-30216D02*
X42501Y-30216D01*
X42501Y-30311D01*
X42513Y-30335D01*
X42525Y-30346D01*
X42549Y-30358D01*
X42585Y-30358D01*
X42608Y-30346D01*
X42620Y-30335D01*
X42632Y-30311D01*
X42632Y-30216D01*
X42501Y-30573D02*
X42501Y-30525D01*
X42513Y-30501D01*
X42525Y-30489D01*
X42561Y-30466D01*
X42608Y-30454D01*
X42704Y-30454D01*
X42727Y-30466D01*
X42739Y-30477D01*
X42751Y-30501D01*
X42751Y-30549D01*
X42739Y-30573D01*
X42727Y-30585D01*
X42704Y-30596D01*
X42644Y-30596D01*
X42620Y-30585D01*
X42608Y-30573D01*
X42596Y-30549D01*
X42596Y-30501D01*
X42608Y-30477D01*
X42620Y-30466D01*
X42644Y-30454D01*
G54D10*
X52701Y-42058D02*
X52582Y-41975D01*
X52701Y-41916D02*
X52451Y-41916D01*
X52451Y-42011D01*
X52463Y-42035D01*
X52475Y-42046D01*
X52499Y-42058D01*
X52535Y-42058D01*
X52558Y-42046D01*
X52570Y-42035D01*
X52582Y-42011D01*
X52582Y-41916D01*
X52451Y-42285D02*
X52451Y-42166D01*
X52570Y-42154D01*
X52558Y-42166D01*
X52546Y-42189D01*
X52546Y-42249D01*
X52558Y-42273D01*
X52570Y-42285D01*
X52594Y-42296D01*
X52654Y-42296D01*
X52677Y-42285D01*
X52689Y-42273D01*
X52701Y-42249D01*
X52701Y-42189D01*
X52689Y-42166D01*
X52677Y-42154D01*
X52701Y-36358D02*
X52582Y-36275D01*
X52701Y-36216D02*
X52451Y-36216D01*
X52451Y-36311D01*
X52463Y-36335D01*
X52475Y-36346D01*
X52499Y-36358D01*
X52535Y-36358D01*
X52558Y-36346D01*
X52570Y-36335D01*
X52582Y-36311D01*
X52582Y-36216D01*
X52535Y-36573D02*
X52701Y-36573D01*
X52439Y-36513D02*
X52618Y-36454D01*
X52618Y-36608D01*
G54D14*
X42751Y-29358D02*
X42632Y-29275D01*
X42751Y-29216D02*
X42501Y-29216D01*
X42501Y-29311D01*
X42513Y-29335D01*
X42525Y-29346D01*
X42549Y-29358D01*
X42585Y-29358D01*
X42608Y-29346D01*
X42620Y-29335D01*
X42632Y-29311D01*
X42632Y-29216D01*
X42751Y-29596D02*
X42751Y-29454D01*
X42751Y-29525D02*
X42501Y-29525D01*
X42537Y-29501D01*
X42561Y-29477D01*
X42573Y-29454D01*
G54D15*
X34485Y-38543D02*
X34085Y-39143D01*
X34085Y-38543D02*
X34485Y-39143D01*
X33543Y-39143D02*
X33886Y-39143D01*
X33714Y-39143D02*
X33714Y-38543D01*
X33771Y-38629D01*
X33829Y-38686D01*
X33886Y-38714D01*
G54D10*
X36342Y-39027D02*
X36354Y-39039D01*
X36389Y-39051D01*
X36413Y-39051D01*
X36449Y-39039D01*
X36473Y-39015D01*
X36484Y-38992D01*
X36496Y-38944D01*
X36496Y-38908D01*
X36484Y-38861D01*
X36473Y-38837D01*
X36449Y-38813D01*
X36413Y-38801D01*
X36389Y-38801D01*
X36354Y-38813D01*
X36342Y-38825D01*
X36258Y-38801D02*
X36092Y-38801D01*
X36199Y-39051D01*
X31742Y-39027D02*
X31754Y-39039D01*
X31789Y-39051D01*
X31813Y-39051D01*
X31849Y-39039D01*
X31873Y-39015D01*
X31884Y-38992D01*
X31896Y-38944D01*
X31896Y-38908D01*
X31884Y-38861D01*
X31873Y-38837D01*
X31849Y-38813D01*
X31813Y-38801D01*
X31789Y-38801D01*
X31754Y-38813D01*
X31742Y-38825D01*
X31527Y-38801D02*
X31575Y-38801D01*
X31599Y-38813D01*
X31611Y-38825D01*
X31634Y-38861D01*
X31646Y-38908D01*
X31646Y-39004D01*
X31634Y-39027D01*
X31623Y-39039D01*
X31599Y-39051D01*
X31551Y-39051D01*
X31527Y-39039D01*
X31515Y-39027D01*
X31504Y-39004D01*
X31504Y-38944D01*
X31515Y-38920D01*
X31527Y-38908D01*
X31551Y-38896D01*
X31599Y-38896D01*
X31623Y-38908D01*
X31634Y-38920D01*
X31646Y-38944D01*
G54D14*
X26827Y-30108D02*
X26839Y-30096D01*
X26851Y-30061D01*
X26851Y-30037D01*
X26839Y-30001D01*
X26815Y-29977D01*
X26792Y-29966D01*
X26744Y-29954D01*
X26708Y-29954D01*
X26661Y-29966D01*
X26637Y-29977D01*
X26613Y-30001D01*
X26601Y-30037D01*
X26601Y-30061D01*
X26613Y-30096D01*
X26625Y-30108D01*
X26601Y-30335D02*
X26601Y-30216D01*
X26720Y-30204D01*
X26708Y-30216D01*
X26696Y-30239D01*
X26696Y-30299D01*
X26708Y-30323D01*
X26720Y-30335D01*
X26744Y-30346D01*
X26804Y-30346D01*
X26827Y-30335D01*
X26839Y-30323D01*
X26851Y-30299D01*
X26851Y-30239D01*
X26839Y-30216D01*
X26827Y-30204D01*
M02*
