G04 (created by PCBNEW-RS274X (2011-07-08)-stable) date Wed 23 Nov 2011 11:10:54 PM EST*
G01*
G70*
G90*
%MOIN*%
G04 Gerber Fmt 3.4, Leading zero omitted, Abs format*
%FSLAX34Y34*%
G04 APERTURE LIST*
%ADD10C,0.006000*%
%ADD11C,0.080000*%
%ADD12C,0.090000*%
%ADD13C,0.180000*%
%ADD14C,0.075000*%
%ADD15R,0.075000X0.075000*%
%ADD16C,0.079100*%
%ADD17C,0.209000*%
%ADD18R,0.209000X0.209000*%
%ADD19R,0.090000X0.090000*%
%ADD20C,0.163700*%
%ADD21R,0.079100X0.079100*%
%ADD22R,0.055000X0.075000*%
%ADD23R,0.075000X0.055000*%
%ADD24R,0.114500X0.106600*%
G04 APERTURE END LIST*
G54D10*
G54D11*
X39800Y-39000D03*
X39800Y-37000D03*
G54D12*
X40800Y-39600D03*
X40800Y-36400D03*
G54D13*
X44300Y-35700D03*
X42200Y-37500D03*
X42200Y-35400D03*
X40200Y-34600D03*
X48500Y-53600D03*
X48500Y-50600D03*
X48500Y-47600D03*
X48500Y-44600D03*
X48500Y-41600D03*
X55200Y-53600D03*
X55200Y-50600D03*
X55300Y-47600D03*
X55300Y-44600D03*
X55300Y-41600D03*
X61300Y-26000D03*
X61300Y-28400D03*
X61300Y-30800D03*
X61300Y-33800D03*
X61300Y-36800D03*
X42600Y-24000D03*
G54D14*
X45300Y-34300D03*
X45300Y-33300D03*
X49700Y-26800D03*
X49700Y-25800D03*
X48500Y-26800D03*
X48500Y-25800D03*
X46500Y-31100D03*
X46500Y-32100D03*
X46500Y-34300D03*
X46500Y-33300D03*
X46600Y-29600D03*
X46600Y-28600D03*
X45400Y-29600D03*
X45400Y-28600D03*
X50700Y-25800D03*
X50700Y-26800D03*
X50700Y-27800D03*
X50700Y-28800D03*
X50700Y-29800D03*
X50700Y-30800D03*
X50700Y-31800D03*
X50700Y-32800D03*
X50700Y-33800D03*
X50700Y-34800D03*
X50700Y-35800D03*
X50700Y-36800D03*
X50700Y-37800D03*
G54D15*
X50700Y-24800D03*
G54D14*
X53700Y-37800D03*
X53700Y-36800D03*
X53700Y-35800D03*
X53700Y-34800D03*
X53700Y-33800D03*
X53700Y-32800D03*
X53700Y-31800D03*
X53700Y-30800D03*
X53700Y-29800D03*
X53700Y-28800D03*
X53700Y-27800D03*
X53700Y-26800D03*
X53700Y-25800D03*
X53700Y-24800D03*
G54D16*
X48700Y-33300D03*
X48700Y-34300D03*
G54D17*
X42400Y-26900D03*
G54D18*
X44800Y-26900D03*
G54D17*
X43300Y-28900D03*
X42400Y-31600D03*
G54D18*
X44800Y-31600D03*
G54D17*
X43300Y-33600D03*
G54D12*
X46800Y-24800D03*
G54D19*
X46800Y-25800D03*
G54D12*
X46800Y-26800D03*
G54D20*
X42400Y-52238D03*
X42400Y-47565D03*
G54D21*
X44900Y-48150D03*
G54D16*
X45900Y-48650D03*
X44900Y-49150D03*
X45900Y-49650D03*
X44900Y-50150D03*
X45900Y-50650D03*
X44900Y-51150D03*
X45900Y-51650D03*
G54D20*
X42400Y-45738D03*
X42400Y-41065D03*
G54D21*
X44900Y-41650D03*
G54D16*
X45900Y-42150D03*
X44900Y-42650D03*
X45900Y-43150D03*
X44900Y-43650D03*
X45900Y-44150D03*
X44900Y-44650D03*
X45900Y-45150D03*
G54D15*
X54800Y-24800D03*
X54800Y-25800D03*
X54800Y-34800D03*
X51700Y-37800D03*
X49600Y-31600D03*
X58000Y-26400D03*
G54D22*
X46075Y-40800D03*
X45325Y-40800D03*
X54725Y-26800D03*
X55475Y-26800D03*
X54725Y-27900D03*
X55475Y-27900D03*
X54725Y-28900D03*
X55475Y-28900D03*
X54725Y-29800D03*
X55475Y-29800D03*
G54D23*
X57700Y-30025D03*
X57700Y-30775D03*
X59100Y-47875D03*
X59100Y-47125D03*
X52100Y-47975D03*
X52100Y-47225D03*
G54D22*
X39825Y-38100D03*
X40575Y-38100D03*
X51625Y-32600D03*
X52375Y-32600D03*
X51625Y-36800D03*
X52375Y-36800D03*
G54D15*
X48800Y-36600D03*
G54D14*
X47800Y-36600D03*
X46800Y-36600D03*
X45800Y-36600D03*
X45800Y-39600D03*
X46800Y-39600D03*
X47800Y-39600D03*
X48800Y-39600D03*
X50100Y-41600D03*
X50100Y-42600D03*
X50100Y-43600D03*
X50100Y-44600D03*
X50100Y-45600D03*
X50100Y-46600D03*
X50100Y-47600D03*
X50100Y-48600D03*
X50100Y-49600D03*
X50100Y-50600D03*
X50100Y-51600D03*
X50100Y-52600D03*
X50100Y-53600D03*
G54D15*
X50100Y-40600D03*
G54D14*
X53100Y-53600D03*
X53100Y-52600D03*
X53100Y-51600D03*
X53100Y-50600D03*
X53100Y-49600D03*
X53100Y-48600D03*
X53100Y-47600D03*
X53100Y-46600D03*
X53100Y-45600D03*
X53100Y-44600D03*
X53100Y-43600D03*
X53100Y-42600D03*
X53100Y-41600D03*
X53100Y-40600D03*
X56900Y-41600D03*
X56900Y-42600D03*
X56900Y-43600D03*
X56900Y-44600D03*
X56900Y-45600D03*
X56900Y-46600D03*
X56900Y-47600D03*
X56900Y-48600D03*
X56900Y-49600D03*
X56900Y-50600D03*
X56900Y-51600D03*
X56900Y-52600D03*
X56900Y-53600D03*
G54D15*
X56900Y-40600D03*
G54D14*
X59900Y-53600D03*
X59900Y-52600D03*
X59900Y-51600D03*
X59900Y-50600D03*
X59900Y-49600D03*
X59900Y-48600D03*
X59900Y-47600D03*
X59900Y-46600D03*
X59900Y-45600D03*
X59900Y-44600D03*
X59900Y-43600D03*
X59900Y-42600D03*
X59900Y-41600D03*
X59900Y-40600D03*
X59900Y-36800D03*
X59900Y-35800D03*
X59900Y-34800D03*
X59900Y-33800D03*
X59900Y-32800D03*
X59900Y-31800D03*
X59900Y-30800D03*
X59900Y-29800D03*
X59900Y-28800D03*
X59900Y-27800D03*
X59900Y-26800D03*
X59900Y-25800D03*
X59900Y-24800D03*
G54D15*
X59900Y-37800D03*
G54D14*
X56900Y-24800D03*
X56900Y-25800D03*
X56900Y-26800D03*
X56900Y-27800D03*
X56900Y-28800D03*
X56900Y-29800D03*
X56900Y-30800D03*
X56900Y-31800D03*
X56900Y-32800D03*
X56900Y-33800D03*
X56900Y-34800D03*
X56900Y-35800D03*
X56900Y-36800D03*
X56900Y-37800D03*
G54D24*
X52200Y-33460D03*
X52200Y-35940D03*
G54D23*
X45800Y-38475D03*
X45800Y-37725D03*
G54D13*
X61400Y-54100D03*
X40200Y-54100D03*
X61400Y-24000D03*
X40200Y-24000D03*
M02*
