M48
;DRILL file {PCBnew (2010-04-21 BZR 23xx)-stable} date Tue 14 Jun 2011 05:35:56 PM EDT
;FORMAT={-.-/ absolute / inch / decimal}
R,T
VER,1
FMAT,2
INCH,TZ
TCST,OFF
ICI,OFF
ATC,ON
T1C0.032
T2C0.032
T3C0.035
T4C0.040
T5C0.045
T6C0.120
T7C0.128
%
M47
G05
M72
T1
X5.950Y-3.150
X5.950Y-3.250
T2
X5.060Y-3.520
X5.060Y-3.720
X5.160Y-3.460
X5.160Y-3.780
X5.610Y-3.150
X5.610Y-3.250
X5.620Y-2.680
X5.620Y-2.780
X5.660Y-3.480
X5.660Y-3.780
X5.730Y-2.930
X5.730Y-3.030
X5.730Y-3.150
X5.730Y-3.250
X5.740Y-2.680
X5.740Y-2.780
X5.760Y-3.480
X5.760Y-3.780
X5.860Y-3.480
X5.860Y-3.780
X5.930Y-2.400
X5.930Y-2.500
X5.960Y-3.480
X5.960Y-3.780
X6.040Y-2.980
X6.050Y-2.400
X6.050Y-2.500
X6.090Y-3.880
X6.090Y-3.980
X6.090Y-4.080
X6.090Y-4.180
X6.090Y-4.280
X6.090Y-4.380
X6.090Y-4.480
X6.090Y-4.580
X6.090Y-4.680
X6.090Y-4.780
X6.090Y-4.880
X6.090Y-4.980
X6.090Y-5.080
X6.090Y-5.180
X6.150Y-2.300
X6.150Y-2.400
X6.150Y-2.500
X6.150Y-2.600
X6.150Y-2.700
X6.150Y-2.800
X6.150Y-2.900
X6.150Y-3.000
X6.150Y-3.100
X6.150Y-3.200
X6.150Y-3.300
X6.150Y-3.400
X6.150Y-3.500
X6.150Y-3.600
X6.250Y-3.600
X6.390Y-3.880
X6.390Y-3.980
X6.390Y-4.080
X6.390Y-4.180
X6.390Y-4.280
X6.390Y-4.380
X6.390Y-4.480
X6.390Y-4.580
X6.390Y-4.680
X6.390Y-4.780
X6.390Y-4.880
X6.390Y-4.980
X6.390Y-5.080
X6.390Y-5.180
X6.450Y-2.300
X6.450Y-2.400
X6.450Y-2.500
X6.450Y-2.600
X6.450Y-2.700
X6.450Y-2.800
X6.450Y-2.900
X6.450Y-3.000
X6.450Y-3.100
X6.450Y-3.200
X6.450Y-3.300
X6.450Y-3.400
X6.450Y-3.500
X6.450Y-3.600
X6.560Y-2.300
X6.560Y-2.400
X6.560Y-3.300
X6.680Y-2.500
X6.680Y-2.610
X6.680Y-2.710
X6.680Y-2.800
X6.770Y-2.300
X6.770Y-2.400
X6.770Y-2.500
X6.770Y-2.600
X6.770Y-2.700
X6.770Y-2.800
X6.770Y-2.900
X6.770Y-3.000
X6.770Y-3.100
X6.770Y-3.200
X6.770Y-3.300
X6.770Y-3.400
X6.770Y-3.500
X6.770Y-3.600
X6.770Y-3.880
X6.770Y-3.980
X6.770Y-4.080
X6.770Y-4.180
X6.770Y-4.280
X6.770Y-4.380
X6.770Y-4.480
X6.770Y-4.580
X6.770Y-4.680
X6.770Y-4.780
X6.770Y-4.880
X6.770Y-4.980
X6.770Y-5.080
X6.770Y-5.180
X6.880Y-2.460
X7.070Y-2.300
X7.070Y-2.400
X7.070Y-2.500
X7.070Y-2.600
X7.070Y-2.700
X7.070Y-2.800
X7.070Y-2.900
X7.070Y-3.000
X7.070Y-3.100
X7.070Y-3.200
X7.070Y-3.300
X7.070Y-3.400
X7.070Y-3.500
X7.070Y-3.600
X7.070Y-3.880
X7.070Y-3.980
X7.070Y-4.080
X7.070Y-4.180
X7.070Y-4.280
X7.070Y-4.380
X7.070Y-4.480
X7.070Y-4.580
X7.070Y-4.680
X7.070Y-4.780
X7.070Y-4.880
X7.070Y-4.980
X7.070Y-5.080
X7.070Y-5.180
T3
X5.570Y-3.985
X5.570Y-4.085
X5.570Y-4.185
X5.570Y-4.285
X5.570Y-4.635
X5.570Y-4.735
X5.570Y-4.835
X5.570Y-4.935
X5.670Y-4.035
X5.670Y-4.135
X5.670Y-4.235
X5.670Y-4.335
X5.670Y-4.685
X5.670Y-4.785
X5.670Y-4.885
X5.670Y-4.985
T5
X5.760Y-2.300
X5.760Y-2.400
X5.760Y-2.500
T6
X5.100Y-2.220
X5.100Y-3.280
X5.100Y-5.230
X5.300Y-3.360
X5.300Y-3.570
X5.340Y-2.220
X5.510Y-3.390
X5.930Y-3.980
X5.930Y-4.280
X5.930Y-4.580
X5.930Y-4.880
X5.930Y-5.180
X6.600Y-4.880
X6.600Y-5.180
X6.610Y-3.980
X6.610Y-4.280
X6.610Y-4.580
X7.210Y-2.420
X7.210Y-2.660
X7.210Y-2.900
X7.210Y-3.200
X7.210Y-3.500
X7.220Y-2.220
X7.220Y-5.230
T7
X5.320Y-3.926
X5.320Y-4.394
X5.320Y-4.576
X5.320Y-5.044
T4
X5.320Y-2.480G85X5.320Y-2.540
G05
X5.320Y-2.950G85X5.320Y-3.010
G05
X5.380Y-2.710G85X5.440Y-2.710
G05
X5.380Y-3.180G85X5.440Y-3.180
G05
X5.560Y-2.480G85X5.560Y-2.540
G05
X5.560Y-2.950G85X5.560Y-3.010
G05
T0
M30
