M48
;DRILL file {Pcbnew (2012-03-17 BZR 3466)-stable} date Mon 10 Dec 2012 10:26:31 PM EST
;FORMAT={2:3/ absolute / inch / suppress leading zeros}
FMAT,2
INCH,TZ
T1C0.012
T2C0.032
T3C0.032
T4C0.035
T5C0.040
T6C0.045
T7C0.050
T8C0.053
T9C0.120
T10C0.128
%
G90
G05
M72
T1
X2400Y-3740
X2748Y-3090
X2833Y-3160
X2833Y-3310
X3070Y-4410
X3518Y-4108
X3535Y-3470
X3535Y-3570
X3840Y-4415
X3860Y-3590
X4015Y-4343
X4250Y-2940
X4250Y-3040
X4250Y-3140
X4250Y-3240
X4250Y-3340
X4410Y-3430
X4450Y-3430
X4490Y-3430
X4530Y-3430
X4720Y-3860
X4980Y-4490
X5478Y-4453
T2
X5450Y-2980
X5450Y-3080
T3
X2570Y-3730
X2570Y-4030
X2570Y-4310
X2570Y-4610
X2575Y-2915
X2670Y-3730
X2670Y-4030
X2670Y-4310
X2670Y-4610
X2770Y-3730
X2770Y-4030
X2770Y-4310
X2770Y-4610
X2775Y-2915
X2870Y-3730
X2870Y-4030
X2870Y-4310
X2870Y-4610
X2970Y-3730
X2970Y-4030
X2970Y-4310
X2970Y-4610
X3070Y-3730
X3070Y-4030
X3070Y-4310
X3070Y-4610
X3170Y-3730
X3170Y-4030
X3170Y-4310
X3170Y-4610
X3270Y-3730
X3270Y-4030
X3270Y-4310
X3270Y-4610
X3370Y-3730
X3370Y-4030
X3370Y-4310
X3370Y-4610
X3470Y-3730
X3470Y-4030
X3470Y-4310
X3470Y-4610
X3570Y-3730
X3570Y-4030
X3570Y-4310
X3570Y-4610
X3670Y-3730
X3670Y-4030
X3670Y-4310
X3670Y-4610
X3770Y-3730
X3770Y-4030
X3770Y-4310
X3770Y-4610
X3870Y-3730
X3870Y-4030
X3870Y-4310
X3870Y-4610
X4560Y-3730
X4560Y-4030
X4560Y-4310
X4560Y-4610
X4660Y-3730
X4660Y-4030
X4660Y-4310
X4660Y-4610
X4760Y-3730
X4760Y-4030
X4760Y-4310
X4760Y-4610
X4860Y-3730
X4860Y-4030
X4860Y-4310
X4860Y-4610
X4960Y-3730
X4960Y-4030
X4960Y-4310
X4960Y-4610
X5060Y-3730
X5060Y-4030
X5060Y-4310
X5060Y-4610
X5160Y-3730
X5160Y-4030
X5160Y-4310
X5160Y-4610
X5260Y-3730
X5260Y-4030
X5260Y-4310
X5260Y-4610
X5360Y-3730
X5360Y-4030
X5360Y-4310
X5360Y-4610
X5460Y-3730
X5460Y-4030
X5460Y-4310
X5460Y-4610
X5560Y-3730
X5560Y-4030
X5560Y-4310
X5560Y-4610
X5660Y-3730
X5660Y-4030
X5660Y-4310
X5660Y-4610
X5760Y-3730
X5760Y-4030
X5760Y-4310
X5760Y-4610
X5860Y-3730
X5860Y-4030
X5860Y-4310
X5860Y-4610
T4
X3035Y-3520
X3085Y-3420
X3135Y-3520
X3185Y-3420
X3235Y-3520
X3285Y-3420
X3335Y-3520
X3385Y-3420
X3685Y-3520
X3735Y-3420
X3785Y-3520
X3835Y-3420
X3885Y-3520
X3935Y-3420
X3985Y-3520
X4035Y-3420
T6
X4610Y-2980
X4710Y-2980
X4810Y-2980
T7
X2515Y-3015
X2835Y-3015
T8
X2335Y-5050
X2532Y-5050
X2729Y-5050
X2925Y-5050
X3125Y-5050
X3322Y-5050
X3519Y-5050
X3715Y-5050
X3915Y-5050
X4112Y-5050
X4309Y-5050
X4505Y-5050
X4705Y-5050
X4902Y-5050
X5099Y-5050
X5295Y-5050
X5495Y-5050
X5692Y-5050
X5889Y-5050
X6085Y-5050
T9
X2350Y-2960
X2350Y-4710
X6080Y-2960
X6080Y-4710
T10
X2976Y-3170
X3444Y-3170
X3626Y-3170
X4094Y-3170
T5
X4890Y-3240G85X4890Y-3300
G05
X5120Y-3180G85X5060Y-3180
G05
X5120Y-3420G85X5060Y-3420
G05
X5600Y-3240G85X5600Y-3300
G05
X5830Y-3180G85X5770Y-3180
G05
X5830Y-3420G85X5770Y-3420
G05
T0
M30
