G04 (created by PCBNEW-RS274X (2012-03-17 BZR 3466)-stable) date Sat 03 Nov 2012 11:17:03 PM EDT*
G01*
G70*
G90*
%MOIN*%
G04 Gerber Fmt 3.4, Leading zero omitted, Abs format*
%FSLAX34Y34*%
G04 APERTURE LIST*
%ADD10C,0.006000*%
%ADD11C,0.010000*%
%ADD12C,0.015000*%
%ADD13C,0.005000*%
%ADD14C,0.007000*%
%ADD15C,0.002600*%
%ADD16C,0.004000*%
%ADD17C,0.007500*%
%ADD18C,0.011300*%
%ADD19C,0.012000*%
%ADD20C,0.008000*%
G04 APERTURE END LIST*
G54D10*
G54D11*
X57064Y-42443D02*
X57121Y-42462D01*
X57217Y-42462D01*
X57255Y-42443D01*
X57274Y-42424D01*
X57293Y-42386D01*
X57293Y-42348D01*
X57274Y-42310D01*
X57255Y-42290D01*
X57217Y-42271D01*
X57140Y-42252D01*
X57102Y-42233D01*
X57083Y-42214D01*
X57064Y-42176D01*
X57064Y-42138D01*
X57083Y-42100D01*
X57102Y-42081D01*
X57140Y-42062D01*
X57236Y-42062D01*
X57293Y-42081D01*
X57540Y-42062D02*
X57617Y-42062D01*
X57655Y-42081D01*
X57693Y-42119D01*
X57712Y-42195D01*
X57712Y-42329D01*
X57693Y-42405D01*
X57655Y-42443D01*
X57617Y-42462D01*
X57540Y-42462D01*
X57502Y-42443D01*
X57464Y-42405D01*
X57445Y-42329D01*
X57445Y-42195D01*
X57464Y-42119D01*
X57502Y-42081D01*
X57540Y-42062D01*
X57883Y-42062D02*
X57883Y-42386D01*
X57902Y-42424D01*
X57921Y-42443D01*
X57959Y-42462D01*
X58036Y-42462D01*
X58074Y-42443D01*
X58093Y-42424D01*
X58112Y-42386D01*
X58112Y-42062D01*
X58245Y-42062D02*
X58474Y-42062D01*
X58359Y-42462D02*
X58359Y-42062D01*
G54D12*
X43400Y-30200D02*
X43400Y-30600D01*
G54D10*
X44762Y-31285D02*
X44762Y-31514D01*
X44762Y-31400D02*
X44362Y-31400D01*
X44419Y-31438D01*
X44457Y-31476D01*
X44476Y-31514D01*
X44400Y-32514D02*
X44381Y-32495D01*
X44362Y-32457D01*
X44362Y-32361D01*
X44381Y-32323D01*
X44400Y-32304D01*
X44438Y-32285D01*
X44476Y-32285D01*
X44533Y-32304D01*
X44762Y-32533D01*
X44762Y-32285D01*
G54D12*
X43400Y-33400D02*
X43200Y-33400D01*
X43400Y-33200D02*
X43400Y-33600D01*
X43400Y-32400D02*
X43200Y-32400D01*
X43400Y-32200D02*
X43400Y-32600D01*
X43400Y-31400D02*
X43200Y-31400D01*
X43400Y-31600D02*
X43400Y-31200D01*
X43400Y-30400D02*
X43200Y-30400D01*
X43400Y-29400D02*
X43200Y-29400D01*
X43400Y-29200D02*
X43400Y-29400D01*
X43400Y-29600D02*
X43400Y-29200D01*
G54D10*
X44362Y-30419D02*
X44362Y-30380D01*
X44381Y-30342D01*
X44400Y-30323D01*
X44438Y-30304D01*
X44514Y-30285D01*
X44610Y-30285D01*
X44686Y-30304D01*
X44724Y-30323D01*
X44743Y-30342D01*
X44762Y-30380D01*
X44762Y-30419D01*
X44743Y-30457D01*
X44724Y-30476D01*
X44686Y-30495D01*
X44610Y-30514D01*
X44514Y-30514D01*
X44438Y-30495D01*
X44400Y-30476D01*
X44381Y-30457D01*
X44362Y-30419D01*
X44362Y-33533D02*
X44362Y-33285D01*
X44514Y-33419D01*
X44514Y-33361D01*
X44533Y-33323D01*
X44552Y-33304D01*
X44590Y-33285D01*
X44686Y-33285D01*
X44724Y-33304D01*
X44743Y-33323D01*
X44762Y-33361D01*
X44762Y-33476D01*
X44743Y-33514D01*
X44724Y-33533D01*
G54D12*
X25050Y-29450D02*
X25050Y-29650D01*
X25050Y-29650D02*
X28350Y-29650D01*
X28350Y-29650D02*
X28350Y-29450D01*
X25550Y-28650D02*
X24850Y-28650D01*
X24850Y-28650D02*
X24850Y-29750D01*
X25550Y-28650D02*
X27750Y-28650D01*
X27750Y-28650D02*
X28550Y-28650D01*
X28550Y-28650D02*
X28550Y-29650D01*
X24700Y-37800D02*
X39700Y-37800D01*
X39700Y-37800D02*
X39700Y-39800D01*
X39700Y-39800D02*
X24700Y-39800D01*
X24700Y-39800D02*
X24700Y-37800D01*
X24700Y-38300D02*
X25200Y-38300D01*
X25200Y-38300D02*
X25200Y-39300D01*
X25200Y-39300D02*
X24700Y-39300D01*
X52600Y-29000D02*
X52600Y-28700D01*
X52600Y-28700D02*
X49200Y-28700D01*
X49200Y-28700D02*
X49200Y-29000D01*
X52600Y-30200D02*
X49200Y-30200D01*
X52600Y-34000D02*
X49200Y-34000D01*
X49200Y-29000D02*
X49200Y-34000D01*
X52600Y-29000D02*
X52600Y-34000D01*
X59700Y-29000D02*
X59700Y-28700D01*
X59700Y-28700D02*
X56300Y-28700D01*
X56300Y-28700D02*
X56300Y-29000D01*
X59700Y-30200D02*
X56300Y-30200D01*
X59700Y-34000D02*
X56300Y-34000D01*
X56300Y-29000D02*
X56300Y-34000D01*
X59700Y-29000D02*
X59700Y-34000D01*
G54D13*
X41600Y-28600D02*
X35600Y-28600D01*
X35600Y-28600D02*
X35600Y-35700D01*
X35600Y-35700D02*
X41600Y-35700D01*
X41600Y-35700D02*
X41600Y-28600D01*
X35100Y-28600D02*
X29100Y-28600D01*
X29100Y-28600D02*
X29100Y-35700D01*
X29100Y-35700D02*
X35100Y-35700D01*
X35100Y-35700D02*
X35100Y-28600D01*
X41850Y-34400D02*
X41849Y-34409D01*
X41846Y-34419D01*
X41841Y-34427D01*
X41835Y-34435D01*
X41827Y-34441D01*
X41819Y-34446D01*
X41810Y-34448D01*
X41800Y-34449D01*
X41791Y-34449D01*
X41782Y-34446D01*
X41773Y-34441D01*
X41766Y-34435D01*
X41759Y-34428D01*
X41755Y-34419D01*
X41752Y-34410D01*
X41751Y-34400D01*
X41751Y-34391D01*
X41754Y-34382D01*
X41758Y-34373D01*
X41765Y-34366D01*
X41772Y-34359D01*
X41780Y-34355D01*
X41790Y-34352D01*
X41799Y-34351D01*
X41808Y-34351D01*
X41818Y-34354D01*
X41826Y-34358D01*
X41834Y-34364D01*
X41840Y-34372D01*
X41845Y-34380D01*
X41848Y-34389D01*
X41849Y-34399D01*
X41850Y-34400D01*
X41800Y-34850D02*
X41800Y-34450D01*
X41800Y-34450D02*
X42400Y-34450D01*
X42400Y-34450D02*
X42400Y-34850D01*
X42400Y-35250D02*
X42400Y-35650D01*
X42400Y-35650D02*
X41800Y-35650D01*
X41800Y-35650D02*
X41800Y-35250D01*
X27450Y-29850D02*
X27449Y-29859D01*
X27446Y-29869D01*
X27441Y-29877D01*
X27435Y-29885D01*
X27427Y-29891D01*
X27419Y-29896D01*
X27410Y-29898D01*
X27400Y-29899D01*
X27391Y-29899D01*
X27382Y-29896D01*
X27373Y-29891D01*
X27366Y-29885D01*
X27359Y-29878D01*
X27355Y-29869D01*
X27352Y-29860D01*
X27351Y-29850D01*
X27351Y-29841D01*
X27354Y-29832D01*
X27358Y-29823D01*
X27365Y-29816D01*
X27372Y-29809D01*
X27380Y-29805D01*
X27390Y-29802D01*
X27399Y-29801D01*
X27408Y-29801D01*
X27418Y-29804D01*
X27426Y-29808D01*
X27434Y-29814D01*
X27440Y-29822D01*
X27445Y-29830D01*
X27448Y-29839D01*
X27449Y-29849D01*
X27450Y-29850D01*
X26950Y-29850D02*
X27350Y-29850D01*
X27350Y-29850D02*
X27350Y-30450D01*
X27350Y-30450D02*
X26950Y-30450D01*
X26550Y-30450D02*
X26150Y-30450D01*
X26150Y-30450D02*
X26150Y-29850D01*
X26150Y-29850D02*
X26550Y-29850D01*
X52900Y-32950D02*
X52900Y-33850D01*
X52900Y-33850D02*
X53550Y-33850D01*
X54250Y-32950D02*
X54900Y-32950D01*
X54900Y-32950D02*
X54900Y-33850D01*
X54900Y-33850D02*
X54250Y-33850D01*
X53550Y-32950D02*
X52900Y-32950D01*
X26150Y-31200D02*
X26149Y-31209D01*
X26146Y-31219D01*
X26141Y-31227D01*
X26135Y-31235D01*
X26127Y-31241D01*
X26119Y-31246D01*
X26110Y-31248D01*
X26100Y-31249D01*
X26091Y-31249D01*
X26082Y-31246D01*
X26073Y-31241D01*
X26066Y-31235D01*
X26059Y-31228D01*
X26055Y-31219D01*
X26052Y-31210D01*
X26051Y-31200D01*
X26051Y-31191D01*
X26054Y-31182D01*
X26058Y-31173D01*
X26065Y-31166D01*
X26072Y-31159D01*
X26080Y-31155D01*
X26090Y-31152D01*
X26099Y-31151D01*
X26108Y-31151D01*
X26118Y-31154D01*
X26126Y-31158D01*
X26134Y-31164D01*
X26140Y-31172D01*
X26145Y-31180D01*
X26148Y-31189D01*
X26149Y-31199D01*
X26150Y-31200D01*
X26550Y-31200D02*
X26150Y-31200D01*
X26150Y-31200D02*
X26150Y-30600D01*
X26150Y-30600D02*
X26550Y-30600D01*
X26950Y-30600D02*
X27350Y-30600D01*
X27350Y-30600D02*
X27350Y-31200D01*
X27350Y-31200D02*
X26950Y-31200D01*
G54D14*
X25573Y-31270D02*
X25571Y-31280D01*
X25569Y-31290D01*
X25564Y-31299D01*
X25557Y-31307D01*
X25549Y-31313D01*
X25540Y-31318D01*
X25530Y-31321D01*
X25520Y-31322D01*
X25511Y-31322D01*
X25501Y-31319D01*
X25491Y-31314D01*
X25483Y-31307D01*
X25477Y-31299D01*
X25472Y-31290D01*
X25469Y-31281D01*
X25468Y-31270D01*
X25468Y-31261D01*
X25471Y-31251D01*
X25476Y-31242D01*
X25482Y-31234D01*
X25490Y-31227D01*
X25499Y-31222D01*
X25509Y-31219D01*
X25519Y-31218D01*
X25529Y-31218D01*
X25539Y-31221D01*
X25548Y-31226D01*
X25556Y-31232D01*
X25563Y-31240D01*
X25568Y-31249D01*
X25571Y-31259D01*
X25572Y-31269D01*
X25573Y-31270D01*
G54D10*
X27800Y-31450D02*
X27800Y-31350D01*
X27800Y-31350D02*
X25600Y-31350D01*
X25600Y-31350D02*
X25600Y-31450D01*
X25600Y-33350D02*
X27800Y-33350D01*
X27800Y-33350D02*
X27800Y-33250D01*
X25600Y-33350D02*
X25600Y-33250D01*
G54D15*
X43439Y-33361D02*
X43361Y-33361D01*
X43361Y-33361D02*
X43361Y-33439D01*
X43439Y-33439D02*
X43361Y-33439D01*
X43439Y-33361D02*
X43439Y-33439D01*
X43223Y-33125D02*
X43086Y-33125D01*
X43086Y-33125D02*
X43086Y-33223D01*
X43223Y-33223D02*
X43086Y-33223D01*
X43223Y-33125D02*
X43223Y-33223D01*
X43086Y-33125D02*
X43046Y-33125D01*
X43046Y-33125D02*
X43046Y-33596D01*
X43086Y-33596D02*
X43046Y-33596D01*
X43086Y-33125D02*
X43086Y-33596D01*
X43086Y-33616D02*
X43046Y-33616D01*
X43046Y-33616D02*
X43046Y-33675D01*
X43086Y-33675D02*
X43046Y-33675D01*
X43086Y-33616D02*
X43086Y-33675D01*
X43754Y-33125D02*
X43714Y-33125D01*
X43714Y-33125D02*
X43714Y-33596D01*
X43754Y-33596D02*
X43714Y-33596D01*
X43754Y-33125D02*
X43754Y-33596D01*
X43754Y-33616D02*
X43714Y-33616D01*
X43714Y-33616D02*
X43714Y-33675D01*
X43754Y-33675D02*
X43714Y-33675D01*
X43754Y-33616D02*
X43754Y-33675D01*
X43223Y-33125D02*
X43164Y-33125D01*
X43164Y-33125D02*
X43164Y-33223D01*
X43223Y-33223D02*
X43164Y-33223D01*
X43223Y-33125D02*
X43223Y-33223D01*
G54D16*
X42790Y-33105D02*
X44010Y-33105D01*
X44010Y-33105D02*
X44010Y-33695D01*
X44010Y-33695D02*
X42790Y-33695D01*
X42790Y-33695D02*
X42790Y-33105D01*
X43614Y-33204D02*
X43596Y-33186D01*
X43577Y-33170D01*
X43556Y-33155D01*
X43534Y-33143D01*
X43511Y-33132D01*
X43487Y-33123D01*
X43463Y-33117D01*
X43438Y-33112D01*
X43413Y-33110D01*
X43388Y-33110D01*
X43363Y-33112D01*
X43338Y-33116D01*
X43313Y-33123D01*
X43290Y-33131D01*
X43267Y-33142D01*
X43245Y-33155D01*
X43224Y-33169D01*
X43204Y-33186D01*
X43186Y-33204D01*
X43185Y-33205D01*
X43615Y-33595D02*
X43631Y-33576D01*
X43645Y-33555D01*
X43658Y-33533D01*
X43669Y-33510D01*
X43677Y-33486D01*
X43684Y-33461D01*
X43688Y-33436D01*
X43690Y-33411D01*
X43690Y-33387D01*
X43688Y-33362D01*
X43683Y-33337D01*
X43677Y-33312D01*
X43668Y-33288D01*
X43657Y-33265D01*
X43644Y-33243D01*
X43630Y-33223D01*
X43615Y-33205D01*
X43186Y-33596D02*
X43204Y-33614D01*
X43223Y-33630D01*
X43244Y-33645D01*
X43266Y-33657D01*
X43289Y-33668D01*
X43313Y-33677D01*
X43337Y-33683D01*
X43362Y-33688D01*
X43387Y-33690D01*
X43412Y-33690D01*
X43437Y-33688D01*
X43462Y-33684D01*
X43487Y-33677D01*
X43510Y-33669D01*
X43533Y-33658D01*
X43555Y-33645D01*
X43576Y-33631D01*
X43596Y-33614D01*
X43614Y-33596D01*
X43615Y-33595D01*
X43185Y-33205D02*
X43169Y-33224D01*
X43155Y-33245D01*
X43142Y-33267D01*
X43131Y-33290D01*
X43123Y-33314D01*
X43116Y-33339D01*
X43112Y-33364D01*
X43110Y-33389D01*
X43110Y-33413D01*
X43112Y-33438D01*
X43117Y-33463D01*
X43123Y-33488D01*
X43132Y-33512D01*
X43143Y-33535D01*
X43156Y-33557D01*
X43170Y-33577D01*
X43185Y-33595D01*
G54D15*
X43439Y-32361D02*
X43361Y-32361D01*
X43361Y-32361D02*
X43361Y-32439D01*
X43439Y-32439D02*
X43361Y-32439D01*
X43439Y-32361D02*
X43439Y-32439D01*
X43223Y-32125D02*
X43086Y-32125D01*
X43086Y-32125D02*
X43086Y-32223D01*
X43223Y-32223D02*
X43086Y-32223D01*
X43223Y-32125D02*
X43223Y-32223D01*
X43086Y-32125D02*
X43046Y-32125D01*
X43046Y-32125D02*
X43046Y-32596D01*
X43086Y-32596D02*
X43046Y-32596D01*
X43086Y-32125D02*
X43086Y-32596D01*
X43086Y-32616D02*
X43046Y-32616D01*
X43046Y-32616D02*
X43046Y-32675D01*
X43086Y-32675D02*
X43046Y-32675D01*
X43086Y-32616D02*
X43086Y-32675D01*
X43754Y-32125D02*
X43714Y-32125D01*
X43714Y-32125D02*
X43714Y-32596D01*
X43754Y-32596D02*
X43714Y-32596D01*
X43754Y-32125D02*
X43754Y-32596D01*
X43754Y-32616D02*
X43714Y-32616D01*
X43714Y-32616D02*
X43714Y-32675D01*
X43754Y-32675D02*
X43714Y-32675D01*
X43754Y-32616D02*
X43754Y-32675D01*
X43223Y-32125D02*
X43164Y-32125D01*
X43164Y-32125D02*
X43164Y-32223D01*
X43223Y-32223D02*
X43164Y-32223D01*
X43223Y-32125D02*
X43223Y-32223D01*
G54D16*
X42790Y-32105D02*
X44010Y-32105D01*
X44010Y-32105D02*
X44010Y-32695D01*
X44010Y-32695D02*
X42790Y-32695D01*
X42790Y-32695D02*
X42790Y-32105D01*
X43614Y-32204D02*
X43596Y-32186D01*
X43577Y-32170D01*
X43556Y-32155D01*
X43534Y-32143D01*
X43511Y-32132D01*
X43487Y-32123D01*
X43463Y-32117D01*
X43438Y-32112D01*
X43413Y-32110D01*
X43388Y-32110D01*
X43363Y-32112D01*
X43338Y-32116D01*
X43313Y-32123D01*
X43290Y-32131D01*
X43267Y-32142D01*
X43245Y-32155D01*
X43224Y-32169D01*
X43204Y-32186D01*
X43186Y-32204D01*
X43185Y-32205D01*
X43615Y-32595D02*
X43631Y-32576D01*
X43645Y-32555D01*
X43658Y-32533D01*
X43669Y-32510D01*
X43677Y-32486D01*
X43684Y-32461D01*
X43688Y-32436D01*
X43690Y-32411D01*
X43690Y-32387D01*
X43688Y-32362D01*
X43683Y-32337D01*
X43677Y-32312D01*
X43668Y-32288D01*
X43657Y-32265D01*
X43644Y-32243D01*
X43630Y-32223D01*
X43615Y-32205D01*
X43186Y-32596D02*
X43204Y-32614D01*
X43223Y-32630D01*
X43244Y-32645D01*
X43266Y-32657D01*
X43289Y-32668D01*
X43313Y-32677D01*
X43337Y-32683D01*
X43362Y-32688D01*
X43387Y-32690D01*
X43412Y-32690D01*
X43437Y-32688D01*
X43462Y-32684D01*
X43487Y-32677D01*
X43510Y-32669D01*
X43533Y-32658D01*
X43555Y-32645D01*
X43576Y-32631D01*
X43596Y-32614D01*
X43614Y-32596D01*
X43615Y-32595D01*
X43185Y-32205D02*
X43169Y-32224D01*
X43155Y-32245D01*
X43142Y-32267D01*
X43131Y-32290D01*
X43123Y-32314D01*
X43116Y-32339D01*
X43112Y-32364D01*
X43110Y-32389D01*
X43110Y-32413D01*
X43112Y-32438D01*
X43117Y-32463D01*
X43123Y-32488D01*
X43132Y-32512D01*
X43143Y-32535D01*
X43156Y-32557D01*
X43170Y-32577D01*
X43185Y-32595D01*
G54D15*
X43439Y-31361D02*
X43361Y-31361D01*
X43361Y-31361D02*
X43361Y-31439D01*
X43439Y-31439D02*
X43361Y-31439D01*
X43439Y-31361D02*
X43439Y-31439D01*
X43223Y-31125D02*
X43086Y-31125D01*
X43086Y-31125D02*
X43086Y-31223D01*
X43223Y-31223D02*
X43086Y-31223D01*
X43223Y-31125D02*
X43223Y-31223D01*
X43086Y-31125D02*
X43046Y-31125D01*
X43046Y-31125D02*
X43046Y-31596D01*
X43086Y-31596D02*
X43046Y-31596D01*
X43086Y-31125D02*
X43086Y-31596D01*
X43086Y-31616D02*
X43046Y-31616D01*
X43046Y-31616D02*
X43046Y-31675D01*
X43086Y-31675D02*
X43046Y-31675D01*
X43086Y-31616D02*
X43086Y-31675D01*
X43754Y-31125D02*
X43714Y-31125D01*
X43714Y-31125D02*
X43714Y-31596D01*
X43754Y-31596D02*
X43714Y-31596D01*
X43754Y-31125D02*
X43754Y-31596D01*
X43754Y-31616D02*
X43714Y-31616D01*
X43714Y-31616D02*
X43714Y-31675D01*
X43754Y-31675D02*
X43714Y-31675D01*
X43754Y-31616D02*
X43754Y-31675D01*
X43223Y-31125D02*
X43164Y-31125D01*
X43164Y-31125D02*
X43164Y-31223D01*
X43223Y-31223D02*
X43164Y-31223D01*
X43223Y-31125D02*
X43223Y-31223D01*
G54D16*
X42790Y-31105D02*
X44010Y-31105D01*
X44010Y-31105D02*
X44010Y-31695D01*
X44010Y-31695D02*
X42790Y-31695D01*
X42790Y-31695D02*
X42790Y-31105D01*
X43614Y-31204D02*
X43596Y-31186D01*
X43577Y-31170D01*
X43556Y-31155D01*
X43534Y-31143D01*
X43511Y-31132D01*
X43487Y-31123D01*
X43463Y-31117D01*
X43438Y-31112D01*
X43413Y-31110D01*
X43388Y-31110D01*
X43363Y-31112D01*
X43338Y-31116D01*
X43313Y-31123D01*
X43290Y-31131D01*
X43267Y-31142D01*
X43245Y-31155D01*
X43224Y-31169D01*
X43204Y-31186D01*
X43186Y-31204D01*
X43185Y-31205D01*
X43615Y-31595D02*
X43631Y-31576D01*
X43645Y-31555D01*
X43658Y-31533D01*
X43669Y-31510D01*
X43677Y-31486D01*
X43684Y-31461D01*
X43688Y-31436D01*
X43690Y-31411D01*
X43690Y-31387D01*
X43688Y-31362D01*
X43683Y-31337D01*
X43677Y-31312D01*
X43668Y-31288D01*
X43657Y-31265D01*
X43644Y-31243D01*
X43630Y-31223D01*
X43615Y-31205D01*
X43186Y-31596D02*
X43204Y-31614D01*
X43223Y-31630D01*
X43244Y-31645D01*
X43266Y-31657D01*
X43289Y-31668D01*
X43313Y-31677D01*
X43337Y-31683D01*
X43362Y-31688D01*
X43387Y-31690D01*
X43412Y-31690D01*
X43437Y-31688D01*
X43462Y-31684D01*
X43487Y-31677D01*
X43510Y-31669D01*
X43533Y-31658D01*
X43555Y-31645D01*
X43576Y-31631D01*
X43596Y-31614D01*
X43614Y-31596D01*
X43615Y-31595D01*
X43185Y-31205D02*
X43169Y-31224D01*
X43155Y-31245D01*
X43142Y-31267D01*
X43131Y-31290D01*
X43123Y-31314D01*
X43116Y-31339D01*
X43112Y-31364D01*
X43110Y-31389D01*
X43110Y-31413D01*
X43112Y-31438D01*
X43117Y-31463D01*
X43123Y-31488D01*
X43132Y-31512D01*
X43143Y-31535D01*
X43156Y-31557D01*
X43170Y-31577D01*
X43185Y-31595D01*
G54D15*
X43439Y-30361D02*
X43361Y-30361D01*
X43361Y-30361D02*
X43361Y-30439D01*
X43439Y-30439D02*
X43361Y-30439D01*
X43439Y-30361D02*
X43439Y-30439D01*
X43223Y-30125D02*
X43086Y-30125D01*
X43086Y-30125D02*
X43086Y-30223D01*
X43223Y-30223D02*
X43086Y-30223D01*
X43223Y-30125D02*
X43223Y-30223D01*
X43086Y-30125D02*
X43046Y-30125D01*
X43046Y-30125D02*
X43046Y-30596D01*
X43086Y-30596D02*
X43046Y-30596D01*
X43086Y-30125D02*
X43086Y-30596D01*
X43086Y-30616D02*
X43046Y-30616D01*
X43046Y-30616D02*
X43046Y-30675D01*
X43086Y-30675D02*
X43046Y-30675D01*
X43086Y-30616D02*
X43086Y-30675D01*
X43754Y-30125D02*
X43714Y-30125D01*
X43714Y-30125D02*
X43714Y-30596D01*
X43754Y-30596D02*
X43714Y-30596D01*
X43754Y-30125D02*
X43754Y-30596D01*
X43754Y-30616D02*
X43714Y-30616D01*
X43714Y-30616D02*
X43714Y-30675D01*
X43754Y-30675D02*
X43714Y-30675D01*
X43754Y-30616D02*
X43754Y-30675D01*
X43223Y-30125D02*
X43164Y-30125D01*
X43164Y-30125D02*
X43164Y-30223D01*
X43223Y-30223D02*
X43164Y-30223D01*
X43223Y-30125D02*
X43223Y-30223D01*
G54D16*
X42790Y-30105D02*
X44010Y-30105D01*
X44010Y-30105D02*
X44010Y-30695D01*
X44010Y-30695D02*
X42790Y-30695D01*
X42790Y-30695D02*
X42790Y-30105D01*
X43614Y-30204D02*
X43596Y-30186D01*
X43577Y-30170D01*
X43556Y-30155D01*
X43534Y-30143D01*
X43511Y-30132D01*
X43487Y-30123D01*
X43463Y-30117D01*
X43438Y-30112D01*
X43413Y-30110D01*
X43388Y-30110D01*
X43363Y-30112D01*
X43338Y-30116D01*
X43313Y-30123D01*
X43290Y-30131D01*
X43267Y-30142D01*
X43245Y-30155D01*
X43224Y-30169D01*
X43204Y-30186D01*
X43186Y-30204D01*
X43185Y-30205D01*
X43615Y-30595D02*
X43631Y-30576D01*
X43645Y-30555D01*
X43658Y-30533D01*
X43669Y-30510D01*
X43677Y-30486D01*
X43684Y-30461D01*
X43688Y-30436D01*
X43690Y-30411D01*
X43690Y-30387D01*
X43688Y-30362D01*
X43683Y-30337D01*
X43677Y-30312D01*
X43668Y-30288D01*
X43657Y-30265D01*
X43644Y-30243D01*
X43630Y-30223D01*
X43615Y-30205D01*
X43186Y-30596D02*
X43204Y-30614D01*
X43223Y-30630D01*
X43244Y-30645D01*
X43266Y-30657D01*
X43289Y-30668D01*
X43313Y-30677D01*
X43337Y-30683D01*
X43362Y-30688D01*
X43387Y-30690D01*
X43412Y-30690D01*
X43437Y-30688D01*
X43462Y-30684D01*
X43487Y-30677D01*
X43510Y-30669D01*
X43533Y-30658D01*
X43555Y-30645D01*
X43576Y-30631D01*
X43596Y-30614D01*
X43614Y-30596D01*
X43615Y-30595D01*
X43185Y-30205D02*
X43169Y-30224D01*
X43155Y-30245D01*
X43142Y-30267D01*
X43131Y-30290D01*
X43123Y-30314D01*
X43116Y-30339D01*
X43112Y-30364D01*
X43110Y-30389D01*
X43110Y-30413D01*
X43112Y-30438D01*
X43117Y-30463D01*
X43123Y-30488D01*
X43132Y-30512D01*
X43143Y-30535D01*
X43156Y-30557D01*
X43170Y-30577D01*
X43185Y-30595D01*
G54D12*
X22598Y-48999D02*
X22362Y-48999D01*
X22598Y-49196D02*
X22598Y-48999D01*
X22362Y-49196D02*
X22598Y-49196D01*
X30237Y-48531D02*
X30237Y-49004D01*
X30237Y-49201D02*
X30237Y-52075D01*
X22363Y-49201D02*
X22363Y-52075D01*
X22363Y-48531D02*
X22363Y-49004D01*
X22364Y-52075D02*
X30238Y-52075D01*
X22364Y-48531D02*
X30238Y-48531D01*
X30236Y-49196D02*
X30472Y-49196D01*
X30472Y-49196D02*
X30472Y-48999D01*
X30472Y-48999D02*
X30236Y-48999D01*
X54198Y-48999D02*
X53962Y-48999D01*
X54198Y-49196D02*
X54198Y-48999D01*
X53962Y-49196D02*
X54198Y-49196D01*
X61837Y-48531D02*
X61837Y-49004D01*
X61837Y-49201D02*
X61837Y-52075D01*
X53963Y-49201D02*
X53963Y-52075D01*
X53963Y-48531D02*
X53963Y-49004D01*
X53964Y-52075D02*
X61838Y-52075D01*
X53964Y-48531D02*
X61838Y-48531D01*
X61836Y-49196D02*
X62072Y-49196D01*
X62072Y-49196D02*
X62072Y-48999D01*
X62072Y-48999D02*
X61836Y-48999D01*
X46298Y-48999D02*
X46062Y-48999D01*
X46298Y-49196D02*
X46298Y-48999D01*
X46062Y-49196D02*
X46298Y-49196D01*
X53937Y-48531D02*
X53937Y-49004D01*
X53937Y-49201D02*
X53937Y-52075D01*
X46063Y-49201D02*
X46063Y-52075D01*
X46063Y-48531D02*
X46063Y-49004D01*
X46064Y-52075D02*
X53938Y-52075D01*
X46064Y-48531D02*
X53938Y-48531D01*
X53936Y-49196D02*
X54172Y-49196D01*
X54172Y-49196D02*
X54172Y-48999D01*
X54172Y-48999D02*
X53936Y-48999D01*
X38398Y-48999D02*
X38162Y-48999D01*
X38398Y-49196D02*
X38398Y-48999D01*
X38162Y-49196D02*
X38398Y-49196D01*
X46037Y-48531D02*
X46037Y-49004D01*
X46037Y-49201D02*
X46037Y-52075D01*
X38163Y-49201D02*
X38163Y-52075D01*
X38163Y-48531D02*
X38163Y-49004D01*
X38164Y-52075D02*
X46038Y-52075D01*
X38164Y-48531D02*
X46038Y-48531D01*
X46036Y-49196D02*
X46272Y-49196D01*
X46272Y-49196D02*
X46272Y-48999D01*
X46272Y-48999D02*
X46036Y-48999D01*
X30498Y-48999D02*
X30262Y-48999D01*
X30498Y-49196D02*
X30498Y-48999D01*
X30262Y-49196D02*
X30498Y-49196D01*
X38137Y-48531D02*
X38137Y-49004D01*
X38137Y-49201D02*
X38137Y-52075D01*
X30263Y-49201D02*
X30263Y-52075D01*
X30263Y-48531D02*
X30263Y-49004D01*
X30264Y-52075D02*
X38138Y-52075D01*
X30264Y-48531D02*
X38138Y-48531D01*
X38136Y-49196D02*
X38372Y-49196D01*
X38372Y-49196D02*
X38372Y-48999D01*
X38372Y-48999D02*
X38136Y-48999D01*
X53500Y-31000D02*
X54000Y-31000D01*
X53750Y-31250D02*
X53750Y-30800D01*
X56000Y-30300D02*
X55971Y-30591D01*
X55886Y-30871D01*
X55749Y-31130D01*
X55564Y-31356D01*
X55338Y-31543D01*
X55081Y-31682D01*
X54801Y-31769D01*
X54510Y-31799D01*
X54219Y-31773D01*
X53939Y-31690D01*
X53679Y-31555D01*
X53451Y-31371D01*
X53263Y-31147D01*
X53122Y-30890D01*
X53033Y-30611D01*
X53001Y-30320D01*
X53025Y-30030D01*
X53106Y-29748D01*
X53240Y-29488D01*
X53421Y-29259D01*
X53644Y-29069D01*
X53900Y-28926D01*
X54178Y-28835D01*
X54469Y-28801D01*
X54760Y-28823D01*
X55042Y-28902D01*
X55303Y-29034D01*
X55534Y-29214D01*
X55725Y-29436D01*
X55870Y-29690D01*
X55962Y-29968D01*
X55999Y-30259D01*
X56000Y-30300D01*
G54D11*
X48850Y-30550D02*
X48850Y-30800D01*
X48850Y-30800D02*
X45350Y-30800D01*
X45350Y-30800D02*
X45350Y-30550D01*
X48850Y-29050D02*
X48850Y-30550D01*
X48850Y-30550D02*
X45350Y-30550D01*
X45350Y-30550D02*
X45350Y-29050D01*
X45350Y-29050D02*
X48850Y-29050D01*
G54D15*
X43439Y-29360D02*
X43361Y-29360D01*
X43361Y-29360D02*
X43361Y-29438D01*
X43439Y-29438D02*
X43361Y-29438D01*
X43439Y-29360D02*
X43439Y-29438D01*
X43223Y-29124D02*
X43086Y-29124D01*
X43086Y-29124D02*
X43086Y-29222D01*
X43223Y-29222D02*
X43086Y-29222D01*
X43223Y-29124D02*
X43223Y-29222D01*
X43086Y-29124D02*
X43046Y-29124D01*
X43046Y-29124D02*
X43046Y-29595D01*
X43086Y-29595D02*
X43046Y-29595D01*
X43086Y-29124D02*
X43086Y-29595D01*
X43086Y-29615D02*
X43046Y-29615D01*
X43046Y-29615D02*
X43046Y-29674D01*
X43086Y-29674D02*
X43046Y-29674D01*
X43086Y-29615D02*
X43086Y-29674D01*
X43754Y-29124D02*
X43714Y-29124D01*
X43714Y-29124D02*
X43714Y-29595D01*
X43754Y-29595D02*
X43714Y-29595D01*
X43754Y-29124D02*
X43754Y-29595D01*
X43754Y-29615D02*
X43714Y-29615D01*
X43714Y-29615D02*
X43714Y-29674D01*
X43754Y-29674D02*
X43714Y-29674D01*
X43754Y-29615D02*
X43754Y-29674D01*
X43223Y-29124D02*
X43164Y-29124D01*
X43164Y-29124D02*
X43164Y-29222D01*
X43223Y-29222D02*
X43164Y-29222D01*
X43223Y-29124D02*
X43223Y-29222D01*
G54D16*
X42790Y-29104D02*
X44010Y-29104D01*
X44010Y-29104D02*
X44010Y-29694D01*
X44010Y-29694D02*
X42790Y-29694D01*
X42790Y-29694D02*
X42790Y-29104D01*
X43614Y-29203D02*
X43596Y-29185D01*
X43577Y-29169D01*
X43556Y-29154D01*
X43534Y-29142D01*
X43511Y-29131D01*
X43487Y-29122D01*
X43463Y-29116D01*
X43438Y-29111D01*
X43413Y-29109D01*
X43388Y-29109D01*
X43363Y-29111D01*
X43338Y-29115D01*
X43313Y-29122D01*
X43290Y-29130D01*
X43267Y-29141D01*
X43245Y-29154D01*
X43224Y-29168D01*
X43204Y-29185D01*
X43186Y-29203D01*
X43185Y-29204D01*
X43615Y-29594D02*
X43631Y-29575D01*
X43645Y-29554D01*
X43658Y-29532D01*
X43669Y-29509D01*
X43677Y-29485D01*
X43684Y-29460D01*
X43688Y-29435D01*
X43690Y-29410D01*
X43690Y-29386D01*
X43688Y-29361D01*
X43683Y-29336D01*
X43677Y-29311D01*
X43668Y-29287D01*
X43657Y-29264D01*
X43644Y-29242D01*
X43630Y-29222D01*
X43615Y-29204D01*
X43186Y-29595D02*
X43204Y-29613D01*
X43223Y-29629D01*
X43244Y-29644D01*
X43266Y-29656D01*
X43289Y-29667D01*
X43313Y-29676D01*
X43337Y-29682D01*
X43362Y-29687D01*
X43387Y-29689D01*
X43412Y-29689D01*
X43437Y-29687D01*
X43462Y-29683D01*
X43487Y-29676D01*
X43510Y-29668D01*
X43533Y-29657D01*
X43555Y-29644D01*
X43576Y-29630D01*
X43596Y-29613D01*
X43614Y-29595D01*
X43615Y-29594D01*
X43185Y-29204D02*
X43169Y-29223D01*
X43155Y-29244D01*
X43142Y-29266D01*
X43131Y-29289D01*
X43123Y-29313D01*
X43116Y-29338D01*
X43112Y-29363D01*
X43110Y-29388D01*
X43110Y-29412D01*
X43112Y-29437D01*
X43117Y-29462D01*
X43123Y-29487D01*
X43132Y-29511D01*
X43143Y-29534D01*
X43156Y-29556D01*
X43170Y-29576D01*
X43185Y-29594D01*
G54D13*
X45800Y-31100D02*
X45799Y-31109D01*
X45796Y-31119D01*
X45791Y-31127D01*
X45785Y-31135D01*
X45777Y-31141D01*
X45769Y-31146D01*
X45760Y-31148D01*
X45750Y-31149D01*
X45741Y-31149D01*
X45732Y-31146D01*
X45723Y-31141D01*
X45716Y-31135D01*
X45709Y-31128D01*
X45705Y-31119D01*
X45702Y-31110D01*
X45701Y-31100D01*
X45701Y-31091D01*
X45704Y-31082D01*
X45708Y-31073D01*
X45715Y-31066D01*
X45722Y-31059D01*
X45730Y-31055D01*
X45740Y-31052D01*
X45749Y-31051D01*
X45758Y-31051D01*
X45768Y-31054D01*
X45776Y-31058D01*
X45784Y-31064D01*
X45790Y-31072D01*
X45795Y-31080D01*
X45798Y-31089D01*
X45799Y-31099D01*
X45800Y-31100D01*
X46200Y-31100D02*
X45800Y-31100D01*
X45800Y-31100D02*
X45800Y-30500D01*
X45800Y-30500D02*
X46200Y-30500D01*
X46600Y-30500D02*
X47000Y-30500D01*
X47000Y-30500D02*
X47000Y-31100D01*
X47000Y-31100D02*
X46600Y-31100D01*
X54700Y-31900D02*
X54699Y-31909D01*
X54696Y-31919D01*
X54691Y-31927D01*
X54685Y-31935D01*
X54677Y-31941D01*
X54669Y-31946D01*
X54660Y-31948D01*
X54650Y-31949D01*
X54641Y-31949D01*
X54632Y-31946D01*
X54623Y-31941D01*
X54616Y-31935D01*
X54609Y-31928D01*
X54605Y-31919D01*
X54602Y-31910D01*
X54601Y-31900D01*
X54601Y-31891D01*
X54604Y-31882D01*
X54608Y-31873D01*
X54615Y-31866D01*
X54622Y-31859D01*
X54630Y-31855D01*
X54640Y-31852D01*
X54649Y-31851D01*
X54658Y-31851D01*
X54668Y-31854D01*
X54676Y-31858D01*
X54684Y-31864D01*
X54690Y-31872D01*
X54695Y-31880D01*
X54698Y-31889D01*
X54699Y-31899D01*
X54700Y-31900D01*
X54200Y-31900D02*
X54600Y-31900D01*
X54600Y-31900D02*
X54600Y-32500D01*
X54600Y-32500D02*
X54200Y-32500D01*
X53800Y-32500D02*
X53400Y-32500D01*
X53400Y-32500D02*
X53400Y-31900D01*
X53400Y-31900D02*
X53800Y-31900D01*
X48500Y-30500D02*
X48499Y-30509D01*
X48496Y-30519D01*
X48491Y-30527D01*
X48485Y-30535D01*
X48477Y-30541D01*
X48469Y-30546D01*
X48460Y-30548D01*
X48450Y-30549D01*
X48441Y-30549D01*
X48432Y-30546D01*
X48423Y-30541D01*
X48416Y-30535D01*
X48409Y-30528D01*
X48405Y-30519D01*
X48402Y-30510D01*
X48401Y-30500D01*
X48401Y-30491D01*
X48404Y-30482D01*
X48408Y-30473D01*
X48415Y-30466D01*
X48422Y-30459D01*
X48430Y-30455D01*
X48440Y-30452D01*
X48449Y-30451D01*
X48458Y-30451D01*
X48468Y-30454D01*
X48476Y-30458D01*
X48484Y-30464D01*
X48490Y-30472D01*
X48495Y-30480D01*
X48498Y-30489D01*
X48499Y-30499D01*
X48500Y-30500D01*
X48000Y-30500D02*
X48400Y-30500D01*
X48400Y-30500D02*
X48400Y-31100D01*
X48400Y-31100D02*
X48000Y-31100D01*
X47600Y-31100D02*
X47200Y-31100D01*
X47200Y-31100D02*
X47200Y-30500D01*
X47200Y-30500D02*
X47600Y-30500D01*
G54D12*
X62000Y-47100D02*
X61982Y-47274D01*
X61932Y-47442D01*
X61849Y-47598D01*
X61738Y-47734D01*
X61603Y-47846D01*
X61448Y-47929D01*
X61280Y-47981D01*
X61106Y-47999D01*
X60932Y-47984D01*
X60763Y-47934D01*
X60608Y-47853D01*
X60471Y-47743D01*
X60358Y-47608D01*
X60273Y-47454D01*
X60220Y-47287D01*
X60201Y-47112D01*
X60215Y-46938D01*
X60264Y-46769D01*
X60344Y-46613D01*
X60453Y-46475D01*
X60587Y-46361D01*
X60740Y-46276D01*
X60907Y-46221D01*
X61082Y-46201D01*
X61256Y-46214D01*
X61425Y-46261D01*
X61582Y-46341D01*
X61720Y-46449D01*
X61835Y-46582D01*
X61922Y-46734D01*
X61977Y-46901D01*
X61999Y-47075D01*
X62000Y-47100D01*
X24100Y-47100D02*
X24082Y-47274D01*
X24032Y-47442D01*
X23949Y-47598D01*
X23838Y-47734D01*
X23703Y-47846D01*
X23548Y-47929D01*
X23380Y-47981D01*
X23206Y-47999D01*
X23032Y-47984D01*
X22863Y-47934D01*
X22708Y-47853D01*
X22571Y-47743D01*
X22458Y-47608D01*
X22373Y-47454D01*
X22320Y-47287D01*
X22301Y-47112D01*
X22315Y-46938D01*
X22364Y-46769D01*
X22444Y-46613D01*
X22553Y-46475D01*
X22687Y-46361D01*
X22840Y-46276D01*
X23007Y-46221D01*
X23182Y-46201D01*
X23356Y-46214D01*
X23525Y-46261D01*
X23682Y-46341D01*
X23820Y-46449D01*
X23935Y-46582D01*
X24022Y-46734D01*
X24077Y-46901D01*
X24099Y-47075D01*
X24100Y-47100D01*
X62000Y-29600D02*
X61982Y-29774D01*
X61932Y-29942D01*
X61849Y-30098D01*
X61738Y-30234D01*
X61603Y-30346D01*
X61448Y-30429D01*
X61280Y-30481D01*
X61106Y-30499D01*
X60932Y-30484D01*
X60763Y-30434D01*
X60608Y-30353D01*
X60471Y-30243D01*
X60358Y-30108D01*
X60273Y-29954D01*
X60220Y-29787D01*
X60201Y-29612D01*
X60215Y-29438D01*
X60264Y-29269D01*
X60344Y-29113D01*
X60453Y-28975D01*
X60587Y-28861D01*
X60740Y-28776D01*
X60907Y-28721D01*
X61082Y-28701D01*
X61256Y-28714D01*
X61425Y-28761D01*
X61582Y-28841D01*
X61720Y-28949D01*
X61835Y-29082D01*
X61922Y-29234D01*
X61977Y-29401D01*
X61999Y-29575D01*
X62000Y-29600D01*
X24100Y-29600D02*
X24082Y-29774D01*
X24032Y-29942D01*
X23949Y-30098D01*
X23838Y-30234D01*
X23703Y-30346D01*
X23548Y-30429D01*
X23380Y-30481D01*
X23206Y-30499D01*
X23032Y-30484D01*
X22863Y-30434D01*
X22708Y-30353D01*
X22571Y-30243D01*
X22458Y-30108D01*
X22373Y-29954D01*
X22320Y-29787D01*
X22301Y-29612D01*
X22315Y-29438D01*
X22364Y-29269D01*
X22444Y-29113D01*
X22553Y-28975D01*
X22687Y-28861D01*
X22840Y-28776D01*
X23007Y-28721D01*
X23182Y-28701D01*
X23356Y-28714D01*
X23525Y-28761D01*
X23682Y-28841D01*
X23820Y-28949D01*
X23935Y-29082D01*
X24022Y-29234D01*
X24077Y-29401D01*
X24099Y-29575D01*
X24100Y-29600D01*
G54D13*
X51000Y-36700D02*
X50999Y-36709D01*
X50996Y-36719D01*
X50991Y-36727D01*
X50985Y-36735D01*
X50977Y-36741D01*
X50969Y-36746D01*
X50960Y-36748D01*
X50950Y-36749D01*
X50941Y-36749D01*
X50932Y-36746D01*
X50923Y-36741D01*
X50916Y-36735D01*
X50909Y-36728D01*
X50905Y-36719D01*
X50902Y-36710D01*
X50901Y-36700D01*
X50901Y-36691D01*
X50904Y-36682D01*
X50908Y-36673D01*
X50915Y-36666D01*
X50922Y-36659D01*
X50930Y-36655D01*
X50940Y-36652D01*
X50949Y-36651D01*
X50958Y-36651D01*
X50968Y-36654D01*
X50976Y-36658D01*
X50984Y-36664D01*
X50990Y-36672D01*
X50995Y-36680D01*
X50998Y-36689D01*
X50999Y-36699D01*
X51000Y-36700D01*
X51400Y-36700D02*
X51000Y-36700D01*
X51000Y-36700D02*
X51000Y-36100D01*
X51000Y-36100D02*
X51400Y-36100D01*
X51800Y-36100D02*
X52200Y-36100D01*
X52200Y-36100D02*
X52200Y-36700D01*
X52200Y-36700D02*
X51800Y-36700D01*
G54D12*
X44600Y-43600D02*
X59600Y-43600D01*
X59600Y-43600D02*
X59600Y-45600D01*
X59600Y-45600D02*
X44600Y-45600D01*
X44600Y-45600D02*
X44600Y-43600D01*
X44600Y-44100D02*
X45100Y-44100D01*
X45100Y-44100D02*
X45100Y-45100D01*
X45100Y-45100D02*
X44600Y-45100D01*
X44600Y-37800D02*
X59600Y-37800D01*
X59600Y-37800D02*
X59600Y-39800D01*
X59600Y-39800D02*
X44600Y-39800D01*
X44600Y-39800D02*
X44600Y-37800D01*
X44600Y-38300D02*
X45100Y-38300D01*
X45100Y-38300D02*
X45100Y-39300D01*
X45100Y-39300D02*
X44600Y-39300D01*
X24700Y-43600D02*
X39700Y-43600D01*
X39700Y-43600D02*
X39700Y-45600D01*
X39700Y-45600D02*
X24700Y-45600D01*
X24700Y-45600D02*
X24700Y-43600D01*
X24700Y-44100D02*
X25200Y-44100D01*
X25200Y-44100D02*
X25200Y-45100D01*
X25200Y-45100D02*
X24700Y-45100D01*
G54D17*
X26350Y-29257D02*
X26393Y-29271D01*
X26464Y-29271D01*
X26493Y-29257D01*
X26507Y-29243D01*
X26522Y-29214D01*
X26522Y-29186D01*
X26507Y-29157D01*
X26493Y-29143D01*
X26464Y-29129D01*
X26407Y-29114D01*
X26379Y-29100D01*
X26364Y-29086D01*
X26350Y-29057D01*
X26350Y-29029D01*
X26364Y-29000D01*
X26379Y-28986D01*
X26407Y-28971D01*
X26479Y-28971D01*
X26522Y-28986D01*
X26622Y-28971D02*
X26693Y-29271D01*
X26750Y-29057D01*
X26808Y-29271D01*
X26879Y-28971D01*
X27151Y-29271D02*
X26979Y-29271D01*
X27065Y-29271D02*
X27065Y-28971D01*
X27036Y-29014D01*
X27008Y-29043D01*
X26979Y-29057D01*
G54D18*
X25461Y-39043D02*
X25461Y-38443D01*
X25932Y-38986D02*
X25911Y-39014D01*
X25847Y-39043D01*
X25804Y-39043D01*
X25739Y-39014D01*
X25697Y-38957D01*
X25675Y-38900D01*
X25654Y-38786D01*
X25654Y-38700D01*
X25675Y-38586D01*
X25697Y-38529D01*
X25739Y-38471D01*
X25804Y-38443D01*
X25847Y-38443D01*
X25911Y-38471D01*
X25932Y-38500D01*
X26361Y-39043D02*
X26104Y-39043D01*
X26232Y-39043D02*
X26232Y-38443D01*
X26189Y-38529D01*
X26147Y-38586D01*
X26104Y-38614D01*
X26696Y-38871D02*
X26910Y-38871D01*
X26653Y-39043D02*
X26803Y-38443D01*
X26953Y-39043D01*
X27039Y-38443D02*
X27296Y-38443D01*
X27167Y-39043D02*
X27167Y-38443D01*
X27446Y-39043D02*
X27446Y-38443D01*
X27596Y-38871D01*
X27746Y-38443D01*
X27746Y-39043D01*
X27960Y-38729D02*
X28110Y-38729D01*
X28174Y-39043D02*
X27960Y-39043D01*
X27960Y-38443D01*
X28174Y-38443D01*
X28603Y-38471D02*
X28560Y-38443D01*
X28496Y-38443D01*
X28431Y-38471D01*
X28389Y-38529D01*
X28367Y-38586D01*
X28346Y-38700D01*
X28346Y-38786D01*
X28367Y-38900D01*
X28389Y-38957D01*
X28431Y-39014D01*
X28496Y-39043D01*
X28539Y-39043D01*
X28603Y-39014D01*
X28624Y-38986D01*
X28624Y-38786D01*
X28539Y-38786D01*
X28796Y-38871D02*
X29010Y-38871D01*
X28753Y-39043D02*
X28903Y-38443D01*
X29053Y-39043D01*
X29439Y-39043D02*
X29182Y-39043D01*
X29310Y-39043D02*
X29310Y-38443D01*
X29267Y-38529D01*
X29225Y-38586D01*
X29182Y-38614D01*
X29825Y-38443D02*
X29739Y-38443D01*
X29696Y-38471D01*
X29675Y-38500D01*
X29632Y-38586D01*
X29611Y-38700D01*
X29611Y-38929D01*
X29632Y-38986D01*
X29654Y-39014D01*
X29696Y-39043D01*
X29782Y-39043D01*
X29825Y-39014D01*
X29846Y-38986D01*
X29868Y-38929D01*
X29868Y-38786D01*
X29846Y-38729D01*
X29825Y-38700D01*
X29782Y-38671D01*
X29696Y-38671D01*
X29654Y-38700D01*
X29632Y-38729D01*
X29611Y-38786D01*
X30125Y-38700D02*
X30083Y-38671D01*
X30061Y-38643D01*
X30040Y-38586D01*
X30040Y-38557D01*
X30061Y-38500D01*
X30083Y-38471D01*
X30125Y-38443D01*
X30211Y-38443D01*
X30254Y-38471D01*
X30275Y-38500D01*
X30297Y-38557D01*
X30297Y-38586D01*
X30275Y-38643D01*
X30254Y-38671D01*
X30211Y-38700D01*
X30125Y-38700D01*
X30083Y-38729D01*
X30061Y-38757D01*
X30040Y-38814D01*
X30040Y-38929D01*
X30061Y-38986D01*
X30083Y-39014D01*
X30125Y-39043D01*
X30211Y-39043D01*
X30254Y-39014D01*
X30275Y-38986D01*
X30297Y-38929D01*
X30297Y-38814D01*
X30275Y-38757D01*
X30254Y-38729D01*
X30211Y-38700D01*
X30490Y-38814D02*
X30833Y-38814D01*
X31047Y-39043D02*
X31047Y-38443D01*
X31219Y-38443D01*
X31261Y-38471D01*
X31283Y-38500D01*
X31304Y-38557D01*
X31304Y-38643D01*
X31283Y-38700D01*
X31261Y-38729D01*
X31219Y-38757D01*
X31047Y-38757D01*
G54D17*
X49907Y-29721D02*
X49907Y-29936D01*
X49893Y-29979D01*
X49864Y-30007D01*
X49821Y-30021D01*
X49793Y-30021D01*
X50193Y-30021D02*
X50050Y-30021D01*
X50050Y-29721D01*
X50451Y-29736D02*
X50422Y-29721D01*
X50379Y-29721D01*
X50336Y-29736D01*
X50308Y-29764D01*
X50293Y-29793D01*
X50279Y-29850D01*
X50279Y-29893D01*
X50293Y-29950D01*
X50308Y-29979D01*
X50336Y-30007D01*
X50379Y-30021D01*
X50408Y-30021D01*
X50451Y-30007D01*
X50465Y-29993D01*
X50465Y-29893D01*
X50408Y-29893D01*
X50765Y-29993D02*
X50751Y-30007D01*
X50708Y-30021D01*
X50679Y-30021D01*
X50636Y-30007D01*
X50608Y-29979D01*
X50593Y-29950D01*
X50579Y-29893D01*
X50579Y-29850D01*
X50593Y-29793D01*
X50608Y-29764D01*
X50636Y-29736D01*
X50679Y-29721D01*
X50708Y-29721D01*
X50751Y-29736D01*
X50765Y-29750D01*
X50893Y-30021D02*
X50893Y-29721D01*
X51008Y-29721D01*
X51036Y-29736D01*
X51051Y-29750D01*
X51065Y-29779D01*
X51065Y-29821D01*
X51051Y-29850D01*
X51036Y-29864D01*
X51008Y-29879D01*
X50893Y-29879D01*
X51165Y-29721D02*
X51236Y-30021D01*
X51293Y-29807D01*
X51351Y-30021D01*
X51422Y-29721D01*
X51708Y-30021D02*
X51608Y-29879D01*
X51536Y-30021D02*
X51536Y-29721D01*
X51651Y-29721D01*
X51679Y-29736D01*
X51694Y-29750D01*
X51708Y-29779D01*
X51708Y-29821D01*
X51694Y-29850D01*
X51679Y-29864D01*
X51651Y-29879D01*
X51536Y-29879D01*
X51994Y-30021D02*
X51822Y-30021D01*
X51908Y-30021D02*
X51908Y-29721D01*
X51879Y-29764D01*
X51851Y-29793D01*
X51822Y-29807D01*
X57021Y-29721D02*
X57021Y-29936D01*
X57007Y-29979D01*
X56978Y-30007D01*
X56935Y-30021D01*
X56907Y-30021D01*
X57307Y-30021D02*
X57164Y-30021D01*
X57164Y-29721D01*
X57407Y-29864D02*
X57507Y-29864D01*
X57550Y-30021D02*
X57407Y-30021D01*
X57407Y-29721D01*
X57550Y-29721D01*
X57678Y-30021D02*
X57678Y-29721D01*
X57750Y-29721D01*
X57793Y-29736D01*
X57821Y-29764D01*
X57836Y-29793D01*
X57850Y-29850D01*
X57850Y-29893D01*
X57836Y-29950D01*
X57821Y-29979D01*
X57793Y-30007D01*
X57750Y-30021D01*
X57678Y-30021D01*
X57978Y-30021D02*
X57978Y-29721D01*
X58093Y-29721D01*
X58121Y-29736D01*
X58136Y-29750D01*
X58150Y-29779D01*
X58150Y-29821D01*
X58136Y-29850D01*
X58121Y-29864D01*
X58093Y-29879D01*
X57978Y-29879D01*
X58250Y-29721D02*
X58321Y-30021D01*
X58378Y-29807D01*
X58436Y-30021D01*
X58507Y-29721D01*
X58793Y-30021D02*
X58693Y-29879D01*
X58621Y-30021D02*
X58621Y-29721D01*
X58736Y-29721D01*
X58764Y-29736D01*
X58779Y-29750D01*
X58793Y-29779D01*
X58793Y-29821D01*
X58779Y-29850D01*
X58764Y-29864D01*
X58736Y-29879D01*
X58621Y-29879D01*
X58907Y-29750D02*
X58921Y-29736D01*
X58950Y-29721D01*
X59021Y-29721D01*
X59050Y-29736D01*
X59064Y-29750D01*
X59079Y-29779D01*
X59079Y-29807D01*
X59064Y-29850D01*
X58893Y-30021D01*
X59079Y-30021D01*
G54D19*
X38300Y-29443D02*
X38300Y-29871D01*
X38272Y-29957D01*
X38215Y-30014D01*
X38129Y-30043D01*
X38072Y-30043D01*
X38557Y-29500D02*
X38586Y-29471D01*
X38643Y-29443D01*
X38786Y-29443D01*
X38843Y-29471D01*
X38872Y-29500D01*
X38900Y-29557D01*
X38900Y-29614D01*
X38872Y-29700D01*
X38529Y-30043D01*
X38900Y-30043D01*
G54D20*
X38141Y-31899D02*
X38010Y-31712D01*
X37916Y-31899D02*
X37916Y-31505D01*
X38066Y-31505D01*
X38103Y-31524D01*
X38122Y-31543D01*
X38141Y-31581D01*
X38141Y-31637D01*
X38122Y-31674D01*
X38103Y-31693D01*
X38066Y-31712D01*
X37916Y-31712D01*
X38422Y-31505D02*
X38422Y-31787D01*
X38404Y-31843D01*
X38366Y-31881D01*
X38310Y-31899D01*
X38272Y-31899D01*
X38779Y-31637D02*
X38779Y-31899D01*
X38685Y-31487D02*
X38591Y-31768D01*
X38835Y-31768D01*
X39172Y-31505D02*
X38985Y-31505D01*
X38966Y-31693D01*
X38985Y-31674D01*
X39022Y-31656D01*
X39116Y-31656D01*
X39154Y-31674D01*
X39172Y-31693D01*
X39191Y-31731D01*
X39191Y-31824D01*
X39172Y-31862D01*
X39154Y-31881D01*
X39116Y-31899D01*
X39022Y-31899D01*
X38985Y-31881D01*
X38966Y-31862D01*
G54D19*
X31800Y-29443D02*
X31800Y-29871D01*
X31772Y-29957D01*
X31715Y-30014D01*
X31629Y-30043D01*
X31572Y-30043D01*
X32400Y-30043D02*
X32057Y-30043D01*
X32229Y-30043D02*
X32229Y-29443D01*
X32172Y-29529D01*
X32114Y-29586D01*
X32057Y-29614D01*
G54D20*
X31641Y-31899D02*
X31510Y-31712D01*
X31416Y-31899D02*
X31416Y-31505D01*
X31566Y-31505D01*
X31603Y-31524D01*
X31622Y-31543D01*
X31641Y-31581D01*
X31641Y-31637D01*
X31622Y-31674D01*
X31603Y-31693D01*
X31566Y-31712D01*
X31416Y-31712D01*
X31922Y-31505D02*
X31922Y-31787D01*
X31904Y-31843D01*
X31866Y-31881D01*
X31810Y-31899D01*
X31772Y-31899D01*
X32279Y-31637D02*
X32279Y-31899D01*
X32185Y-31487D02*
X32091Y-31768D01*
X32335Y-31768D01*
X32672Y-31505D02*
X32485Y-31505D01*
X32466Y-31693D01*
X32485Y-31674D01*
X32522Y-31656D01*
X32616Y-31656D01*
X32654Y-31674D01*
X32672Y-31693D01*
X32691Y-31731D01*
X32691Y-31824D01*
X32672Y-31862D01*
X32654Y-31881D01*
X32616Y-31899D01*
X32522Y-31899D01*
X32485Y-31881D01*
X32466Y-31862D01*
G54D13*
X42201Y-35211D02*
X42082Y-35294D01*
X42201Y-35353D02*
X41951Y-35353D01*
X41951Y-35258D01*
X41963Y-35234D01*
X41975Y-35223D01*
X41999Y-35211D01*
X42035Y-35211D01*
X42058Y-35223D01*
X42070Y-35234D01*
X42082Y-35258D01*
X42082Y-35353D01*
X42201Y-34973D02*
X42201Y-35115D01*
X42201Y-35044D02*
X41951Y-35044D01*
X41987Y-35068D01*
X42011Y-35092D01*
X42023Y-35115D01*
X41951Y-34818D02*
X41951Y-34794D01*
X41963Y-34770D01*
X41975Y-34758D01*
X41999Y-34746D01*
X42046Y-34735D01*
X42106Y-34735D01*
X42154Y-34746D01*
X42177Y-34758D01*
X42189Y-34770D01*
X42201Y-34794D01*
X42201Y-34818D01*
X42189Y-34842D01*
X42177Y-34854D01*
X42154Y-34865D01*
X42106Y-34877D01*
X42046Y-34877D01*
X41999Y-34865D01*
X41975Y-34854D01*
X41963Y-34842D01*
X41951Y-34818D01*
X26708Y-30251D02*
X26625Y-30132D01*
X26566Y-30251D02*
X26566Y-30001D01*
X26661Y-30001D01*
X26685Y-30013D01*
X26696Y-30025D01*
X26708Y-30049D01*
X26708Y-30085D01*
X26696Y-30108D01*
X26685Y-30120D01*
X26661Y-30132D01*
X26566Y-30132D01*
X26804Y-30025D02*
X26816Y-30013D01*
X26839Y-30001D01*
X26899Y-30001D01*
X26923Y-30013D01*
X26935Y-30025D01*
X26946Y-30049D01*
X26946Y-30073D01*
X26935Y-30108D01*
X26792Y-30251D01*
X26946Y-30251D01*
X53650Y-33221D02*
X53650Y-33436D01*
X53636Y-33479D01*
X53607Y-33507D01*
X53564Y-33521D01*
X53536Y-33521D01*
X53793Y-33521D02*
X53793Y-33221D01*
X53908Y-33221D01*
X53936Y-33236D01*
X53951Y-33250D01*
X53965Y-33279D01*
X53965Y-33321D01*
X53951Y-33350D01*
X53936Y-33364D01*
X53908Y-33379D01*
X53793Y-33379D01*
X54251Y-33521D02*
X54079Y-33521D01*
X54165Y-33521D02*
X54165Y-33221D01*
X54136Y-33264D01*
X54108Y-33293D01*
X54079Y-33307D01*
X26589Y-31001D02*
X26506Y-30882D01*
X26447Y-31001D02*
X26447Y-30751D01*
X26542Y-30751D01*
X26566Y-30763D01*
X26577Y-30775D01*
X26589Y-30799D01*
X26589Y-30835D01*
X26577Y-30858D01*
X26566Y-30870D01*
X26542Y-30882D01*
X26447Y-30882D01*
X26827Y-31001D02*
X26685Y-31001D01*
X26756Y-31001D02*
X26756Y-30751D01*
X26732Y-30787D01*
X26708Y-30811D01*
X26685Y-30823D01*
X27065Y-31001D02*
X26923Y-31001D01*
X26994Y-31001D02*
X26994Y-30751D01*
X26970Y-30787D01*
X26946Y-30811D01*
X26923Y-30823D01*
G54D10*
X26407Y-31792D02*
X26407Y-31442D01*
X26722Y-31758D02*
X26708Y-31775D01*
X26665Y-31792D01*
X26636Y-31792D01*
X26593Y-31775D01*
X26565Y-31742D01*
X26550Y-31708D01*
X26536Y-31642D01*
X26536Y-31592D01*
X26550Y-31525D01*
X26565Y-31492D01*
X26593Y-31458D01*
X26636Y-31442D01*
X26665Y-31442D01*
X26708Y-31458D01*
X26722Y-31475D01*
X26836Y-31475D02*
X26850Y-31458D01*
X26879Y-31442D01*
X26950Y-31442D01*
X26979Y-31458D01*
X26993Y-31475D01*
X27008Y-31508D01*
X27008Y-31542D01*
X26993Y-31592D01*
X26822Y-31792D01*
X27008Y-31792D01*
X25592Y-31275D02*
X25635Y-31292D01*
X25706Y-31292D01*
X25735Y-31275D01*
X25749Y-31258D01*
X25764Y-31225D01*
X25764Y-31192D01*
X25749Y-31158D01*
X25735Y-31142D01*
X25706Y-31125D01*
X25649Y-31108D01*
X25621Y-31092D01*
X25606Y-31075D01*
X25592Y-31042D01*
X25592Y-31008D01*
X25606Y-30975D01*
X25621Y-30958D01*
X25649Y-30942D01*
X25721Y-30942D01*
X25764Y-30958D01*
X25892Y-31292D02*
X25892Y-30942D01*
X26064Y-31292D01*
X26064Y-30942D01*
X26178Y-30942D02*
X26378Y-30942D01*
X26249Y-31292D01*
X26635Y-30942D02*
X26492Y-30942D01*
X26478Y-31108D01*
X26492Y-31092D01*
X26521Y-31075D01*
X26592Y-31075D01*
X26621Y-31092D01*
X26635Y-31108D01*
X26650Y-31142D01*
X26650Y-31225D01*
X26635Y-31258D01*
X26621Y-31275D01*
X26592Y-31292D01*
X26521Y-31292D01*
X26492Y-31275D01*
X26478Y-31258D01*
X26936Y-31292D02*
X26764Y-31292D01*
X26850Y-31292D02*
X26850Y-30942D01*
X26821Y-30992D01*
X26793Y-31025D01*
X26764Y-31042D01*
X27036Y-30942D02*
X27236Y-30942D01*
X27107Y-31292D01*
X27479Y-30942D02*
X27422Y-30942D01*
X27393Y-30958D01*
X27379Y-30975D01*
X27350Y-31025D01*
X27336Y-31092D01*
X27336Y-31225D01*
X27350Y-31258D01*
X27365Y-31275D01*
X27393Y-31292D01*
X27450Y-31292D01*
X27479Y-31275D01*
X27493Y-31258D01*
X27508Y-31225D01*
X27508Y-31142D01*
X27493Y-31108D01*
X27479Y-31092D01*
X27450Y-31075D01*
X27393Y-31075D01*
X27365Y-31092D01*
X27350Y-31108D01*
X27336Y-31142D01*
X27736Y-31108D02*
X27779Y-31125D01*
X27794Y-31142D01*
X27808Y-31175D01*
X27808Y-31225D01*
X27794Y-31258D01*
X27779Y-31275D01*
X27751Y-31292D01*
X27636Y-31292D01*
X27636Y-30942D01*
X27736Y-30942D01*
X27765Y-30958D01*
X27779Y-30975D01*
X27794Y-31008D01*
X27794Y-31042D01*
X27779Y-31075D01*
X27765Y-31092D01*
X27736Y-31108D01*
X27636Y-31108D01*
X42421Y-33622D02*
X42121Y-33622D01*
X42121Y-33550D01*
X42136Y-33507D01*
X42164Y-33479D01*
X42193Y-33464D01*
X42250Y-33450D01*
X42293Y-33450D01*
X42350Y-33464D01*
X42379Y-33479D01*
X42407Y-33507D01*
X42421Y-33550D01*
X42421Y-33622D01*
X42121Y-33179D02*
X42121Y-33322D01*
X42264Y-33336D01*
X42250Y-33322D01*
X42236Y-33293D01*
X42236Y-33222D01*
X42250Y-33193D01*
X42264Y-33179D01*
X42293Y-33164D01*
X42364Y-33164D01*
X42393Y-33179D01*
X42407Y-33193D01*
X42421Y-33222D01*
X42421Y-33293D01*
X42407Y-33322D01*
X42393Y-33336D01*
X42421Y-32622D02*
X42121Y-32622D01*
X42121Y-32550D01*
X42136Y-32507D01*
X42164Y-32479D01*
X42193Y-32464D01*
X42250Y-32450D01*
X42293Y-32450D01*
X42350Y-32464D01*
X42379Y-32479D01*
X42407Y-32507D01*
X42421Y-32550D01*
X42421Y-32622D01*
X42221Y-32193D02*
X42421Y-32193D01*
X42107Y-32264D02*
X42321Y-32336D01*
X42321Y-32150D01*
X42421Y-31622D02*
X42121Y-31622D01*
X42121Y-31550D01*
X42136Y-31507D01*
X42164Y-31479D01*
X42193Y-31464D01*
X42250Y-31450D01*
X42293Y-31450D01*
X42350Y-31464D01*
X42379Y-31479D01*
X42407Y-31507D01*
X42421Y-31550D01*
X42421Y-31622D01*
X42121Y-31350D02*
X42121Y-31164D01*
X42236Y-31264D01*
X42236Y-31222D01*
X42250Y-31193D01*
X42264Y-31179D01*
X42293Y-31164D01*
X42364Y-31164D01*
X42393Y-31179D01*
X42407Y-31193D01*
X42421Y-31222D01*
X42421Y-31307D01*
X42407Y-31336D01*
X42393Y-31350D01*
X42421Y-30622D02*
X42121Y-30622D01*
X42121Y-30550D01*
X42136Y-30507D01*
X42164Y-30479D01*
X42193Y-30464D01*
X42250Y-30450D01*
X42293Y-30450D01*
X42350Y-30464D01*
X42379Y-30479D01*
X42407Y-30507D01*
X42421Y-30550D01*
X42421Y-30622D01*
X42150Y-30336D02*
X42136Y-30322D01*
X42121Y-30293D01*
X42121Y-30222D01*
X42136Y-30193D01*
X42150Y-30179D01*
X42179Y-30164D01*
X42207Y-30164D01*
X42250Y-30179D01*
X42421Y-30350D01*
X42421Y-30164D01*
G54D19*
X27428Y-48307D02*
X27184Y-48307D01*
X27184Y-47795D01*
X27598Y-48039D02*
X27769Y-48039D01*
X27842Y-48307D02*
X27598Y-48307D01*
X27598Y-47795D01*
X27842Y-47795D01*
X28061Y-48307D02*
X28061Y-47795D01*
X28183Y-47795D01*
X28256Y-47820D01*
X28305Y-47868D01*
X28329Y-47917D01*
X28353Y-48015D01*
X28353Y-48088D01*
X28329Y-48185D01*
X28305Y-48234D01*
X28256Y-48283D01*
X28183Y-48307D01*
X28061Y-48307D01*
X28670Y-47795D02*
X28719Y-47795D01*
X28768Y-47820D01*
X28792Y-47844D01*
X28817Y-47893D01*
X28841Y-47990D01*
X28841Y-48112D01*
X28817Y-48210D01*
X28792Y-48258D01*
X28768Y-48283D01*
X28719Y-48307D01*
X28670Y-48307D01*
X28622Y-48283D01*
X28597Y-48258D01*
X28573Y-48210D01*
X28549Y-48112D01*
X28549Y-47990D01*
X28573Y-47893D01*
X28597Y-47844D01*
X28622Y-47820D01*
X28670Y-47795D01*
X57328Y-48282D02*
X57084Y-48282D01*
X57084Y-47770D01*
X57498Y-48014D02*
X57669Y-48014D01*
X57742Y-48282D02*
X57498Y-48282D01*
X57498Y-47770D01*
X57742Y-47770D01*
X57961Y-48282D02*
X57961Y-47770D01*
X58083Y-47770D01*
X58156Y-47795D01*
X58205Y-47843D01*
X58229Y-47892D01*
X58253Y-47990D01*
X58253Y-48063D01*
X58229Y-48160D01*
X58205Y-48209D01*
X58156Y-48258D01*
X58083Y-48282D01*
X57961Y-48282D01*
X58692Y-47941D02*
X58692Y-48282D01*
X58570Y-47746D02*
X58449Y-48112D01*
X58765Y-48112D01*
X49428Y-48282D02*
X49184Y-48282D01*
X49184Y-47770D01*
X49598Y-48014D02*
X49769Y-48014D01*
X49842Y-48282D02*
X49598Y-48282D01*
X49598Y-47770D01*
X49842Y-47770D01*
X50061Y-48282D02*
X50061Y-47770D01*
X50183Y-47770D01*
X50256Y-47795D01*
X50305Y-47843D01*
X50329Y-47892D01*
X50353Y-47990D01*
X50353Y-48063D01*
X50329Y-48160D01*
X50305Y-48209D01*
X50256Y-48258D01*
X50183Y-48282D01*
X50061Y-48282D01*
X50524Y-47770D02*
X50841Y-47770D01*
X50670Y-47965D01*
X50744Y-47965D01*
X50792Y-47990D01*
X50817Y-48014D01*
X50841Y-48063D01*
X50841Y-48185D01*
X50817Y-48233D01*
X50792Y-48258D01*
X50744Y-48282D01*
X50597Y-48282D01*
X50549Y-48258D01*
X50524Y-48233D01*
X41528Y-48307D02*
X41284Y-48307D01*
X41284Y-47795D01*
X41698Y-48039D02*
X41869Y-48039D01*
X41942Y-48307D02*
X41698Y-48307D01*
X41698Y-47795D01*
X41942Y-47795D01*
X42161Y-48307D02*
X42161Y-47795D01*
X42283Y-47795D01*
X42356Y-47820D01*
X42405Y-47868D01*
X42429Y-47917D01*
X42453Y-48015D01*
X42453Y-48088D01*
X42429Y-48185D01*
X42405Y-48234D01*
X42356Y-48283D01*
X42283Y-48307D01*
X42161Y-48307D01*
X42649Y-47844D02*
X42673Y-47820D01*
X42722Y-47795D01*
X42844Y-47795D01*
X42892Y-47820D01*
X42917Y-47844D01*
X42941Y-47893D01*
X42941Y-47942D01*
X42917Y-48015D01*
X42624Y-48307D01*
X42941Y-48307D01*
X33628Y-48307D02*
X33384Y-48307D01*
X33384Y-47795D01*
X33798Y-48039D02*
X33969Y-48039D01*
X34042Y-48307D02*
X33798Y-48307D01*
X33798Y-47795D01*
X34042Y-47795D01*
X34261Y-48307D02*
X34261Y-47795D01*
X34383Y-47795D01*
X34456Y-47820D01*
X34505Y-47868D01*
X34529Y-47917D01*
X34553Y-48015D01*
X34553Y-48088D01*
X34529Y-48185D01*
X34505Y-48234D01*
X34456Y-48283D01*
X34383Y-48307D01*
X34261Y-48307D01*
X35041Y-48307D02*
X34749Y-48307D01*
X34895Y-48307D02*
X34895Y-47795D01*
X34846Y-47868D01*
X34797Y-47917D01*
X34749Y-47942D01*
X55686Y-30399D02*
X55714Y-30428D01*
X55743Y-30514D01*
X55743Y-30571D01*
X55714Y-30656D01*
X55657Y-30714D01*
X55600Y-30742D01*
X55486Y-30771D01*
X55400Y-30771D01*
X55286Y-30742D01*
X55229Y-30714D01*
X55171Y-30656D01*
X55143Y-30571D01*
X55143Y-30514D01*
X55171Y-30428D01*
X55200Y-30399D01*
X55143Y-30199D02*
X55143Y-29828D01*
X55371Y-30028D01*
X55371Y-29942D01*
X55400Y-29885D01*
X55429Y-29856D01*
X55486Y-29828D01*
X55629Y-29828D01*
X55686Y-29856D01*
X55714Y-29885D01*
X55743Y-29942D01*
X55743Y-30114D01*
X55714Y-30171D01*
X55686Y-30199D01*
G54D17*
X48471Y-30921D02*
X48471Y-31164D01*
X48486Y-31193D01*
X48500Y-31207D01*
X48529Y-31221D01*
X48586Y-31221D01*
X48614Y-31207D01*
X48629Y-31193D01*
X48643Y-31164D01*
X48643Y-30921D01*
X48943Y-31221D02*
X48771Y-31221D01*
X48857Y-31221D02*
X48857Y-30921D01*
X48828Y-30964D01*
X48800Y-30993D01*
X48771Y-31007D01*
X45221Y-30651D02*
X45221Y-30794D01*
X44921Y-30794D01*
X45221Y-30551D02*
X44921Y-30551D01*
X45136Y-30451D01*
X44921Y-30351D01*
X45221Y-30351D01*
X44921Y-30236D02*
X44921Y-30036D01*
X45221Y-30165D01*
X45050Y-29879D02*
X45036Y-29907D01*
X45021Y-29922D01*
X44993Y-29936D01*
X44979Y-29936D01*
X44950Y-29922D01*
X44936Y-29907D01*
X44921Y-29879D01*
X44921Y-29822D01*
X44936Y-29793D01*
X44950Y-29779D01*
X44979Y-29764D01*
X44993Y-29764D01*
X45021Y-29779D01*
X45036Y-29793D01*
X45050Y-29822D01*
X45050Y-29879D01*
X45064Y-29907D01*
X45079Y-29922D01*
X45107Y-29936D01*
X45164Y-29936D01*
X45193Y-29922D01*
X45207Y-29907D01*
X45221Y-29879D01*
X45221Y-29822D01*
X45207Y-29793D01*
X45193Y-29779D01*
X45164Y-29764D01*
X45107Y-29764D01*
X45079Y-29779D01*
X45064Y-29793D01*
X45050Y-29822D01*
X44921Y-29578D02*
X44921Y-29550D01*
X44936Y-29521D01*
X44950Y-29507D01*
X44979Y-29493D01*
X45036Y-29478D01*
X45107Y-29478D01*
X45164Y-29493D01*
X45193Y-29507D01*
X45207Y-29521D01*
X45221Y-29550D01*
X45221Y-29578D01*
X45207Y-29607D01*
X45193Y-29621D01*
X45164Y-29636D01*
X45107Y-29650D01*
X45036Y-29650D01*
X44979Y-29636D01*
X44950Y-29621D01*
X44936Y-29607D01*
X44921Y-29578D01*
X44921Y-29207D02*
X44921Y-29350D01*
X45064Y-29364D01*
X45050Y-29350D01*
X45036Y-29321D01*
X45036Y-29250D01*
X45050Y-29221D01*
X45064Y-29207D01*
X45093Y-29192D01*
X45164Y-29192D01*
X45193Y-29207D01*
X45207Y-29221D01*
X45221Y-29250D01*
X45221Y-29321D01*
X45207Y-29350D01*
X45193Y-29364D01*
G54D10*
X42421Y-29622D02*
X42121Y-29622D01*
X42121Y-29550D01*
X42136Y-29507D01*
X42164Y-29479D01*
X42193Y-29464D01*
X42250Y-29450D01*
X42293Y-29450D01*
X42350Y-29464D01*
X42379Y-29479D01*
X42407Y-29507D01*
X42421Y-29550D01*
X42421Y-29622D01*
X42421Y-29164D02*
X42421Y-29336D01*
X42421Y-29250D02*
X42121Y-29250D01*
X42164Y-29279D01*
X42193Y-29307D01*
X42207Y-29336D01*
G54D13*
X46358Y-30877D02*
X46346Y-30889D01*
X46311Y-30901D01*
X46287Y-30901D01*
X46251Y-30889D01*
X46227Y-30865D01*
X46216Y-30842D01*
X46204Y-30794D01*
X46204Y-30758D01*
X46216Y-30711D01*
X46227Y-30687D01*
X46251Y-30663D01*
X46287Y-30651D01*
X46311Y-30651D01*
X46346Y-30663D01*
X46358Y-30675D01*
X46573Y-30735D02*
X46573Y-30901D01*
X46513Y-30639D02*
X46454Y-30818D01*
X46608Y-30818D01*
X53958Y-32277D02*
X53946Y-32289D01*
X53911Y-32301D01*
X53887Y-32301D01*
X53851Y-32289D01*
X53827Y-32265D01*
X53816Y-32242D01*
X53804Y-32194D01*
X53804Y-32158D01*
X53816Y-32111D01*
X53827Y-32087D01*
X53851Y-32063D01*
X53887Y-32051D01*
X53911Y-32051D01*
X53946Y-32063D01*
X53958Y-32075D01*
X54054Y-32075D02*
X54066Y-32063D01*
X54089Y-32051D01*
X54149Y-32051D01*
X54173Y-32063D01*
X54185Y-32075D01*
X54196Y-32099D01*
X54196Y-32123D01*
X54185Y-32158D01*
X54042Y-32301D01*
X54196Y-32301D01*
X47758Y-30877D02*
X47746Y-30889D01*
X47711Y-30901D01*
X47687Y-30901D01*
X47651Y-30889D01*
X47627Y-30865D01*
X47616Y-30842D01*
X47604Y-30794D01*
X47604Y-30758D01*
X47616Y-30711D01*
X47627Y-30687D01*
X47651Y-30663D01*
X47687Y-30651D01*
X47711Y-30651D01*
X47746Y-30663D01*
X47758Y-30675D01*
X47996Y-30901D02*
X47854Y-30901D01*
X47925Y-30901D02*
X47925Y-30651D01*
X47901Y-30687D01*
X47877Y-30711D01*
X47854Y-30723D01*
G54D11*
X59995Y-46062D02*
X59995Y-45662D01*
X60148Y-45662D01*
X60186Y-45681D01*
X60205Y-45700D01*
X60224Y-45738D01*
X60224Y-45795D01*
X60205Y-45833D01*
X60186Y-45852D01*
X60148Y-45871D01*
X59995Y-45871D01*
X60624Y-46024D02*
X60605Y-46043D01*
X60548Y-46062D01*
X60510Y-46062D01*
X60452Y-46043D01*
X60414Y-46005D01*
X60395Y-45967D01*
X60376Y-45890D01*
X60376Y-45833D01*
X60395Y-45757D01*
X60414Y-45719D01*
X60452Y-45681D01*
X60510Y-45662D01*
X60548Y-45662D01*
X60605Y-45681D01*
X60624Y-45700D01*
X61024Y-46062D02*
X60890Y-45871D01*
X60795Y-46062D02*
X60795Y-45662D01*
X60948Y-45662D01*
X60986Y-45681D01*
X61005Y-45700D01*
X61024Y-45738D01*
X61024Y-45795D01*
X61005Y-45833D01*
X60986Y-45852D01*
X60948Y-45871D01*
X60795Y-45871D01*
X61195Y-46062D02*
X61195Y-45662D01*
X61424Y-46062D01*
X61424Y-45662D01*
X61843Y-46062D02*
X61709Y-45871D01*
X61614Y-46062D02*
X61614Y-45662D01*
X61767Y-45662D01*
X61805Y-45681D01*
X61824Y-45700D01*
X61843Y-45738D01*
X61843Y-45795D01*
X61824Y-45833D01*
X61805Y-45852D01*
X61767Y-45871D01*
X61614Y-45871D01*
X62186Y-45795D02*
X62186Y-46062D01*
X62090Y-45643D02*
X61995Y-45929D01*
X62243Y-45929D01*
X22095Y-46062D02*
X22095Y-45662D01*
X22248Y-45662D01*
X22286Y-45681D01*
X22305Y-45700D01*
X22324Y-45738D01*
X22324Y-45795D01*
X22305Y-45833D01*
X22286Y-45852D01*
X22248Y-45871D01*
X22095Y-45871D01*
X22724Y-46024D02*
X22705Y-46043D01*
X22648Y-46062D01*
X22610Y-46062D01*
X22552Y-46043D01*
X22514Y-46005D01*
X22495Y-45967D01*
X22476Y-45890D01*
X22476Y-45833D01*
X22495Y-45757D01*
X22514Y-45719D01*
X22552Y-45681D01*
X22610Y-45662D01*
X22648Y-45662D01*
X22705Y-45681D01*
X22724Y-45700D01*
X23124Y-46062D02*
X22990Y-45871D01*
X22895Y-46062D02*
X22895Y-45662D01*
X23048Y-45662D01*
X23086Y-45681D01*
X23105Y-45700D01*
X23124Y-45738D01*
X23124Y-45795D01*
X23105Y-45833D01*
X23086Y-45852D01*
X23048Y-45871D01*
X22895Y-45871D01*
X23295Y-46062D02*
X23295Y-45662D01*
X23524Y-46062D01*
X23524Y-45662D01*
X23943Y-46062D02*
X23809Y-45871D01*
X23714Y-46062D02*
X23714Y-45662D01*
X23867Y-45662D01*
X23905Y-45681D01*
X23924Y-45700D01*
X23943Y-45738D01*
X23943Y-45795D01*
X23924Y-45833D01*
X23905Y-45852D01*
X23867Y-45871D01*
X23714Y-45871D01*
X24076Y-45662D02*
X24324Y-45662D01*
X24190Y-45814D01*
X24248Y-45814D01*
X24286Y-45833D01*
X24305Y-45852D01*
X24324Y-45890D01*
X24324Y-45986D01*
X24305Y-46024D01*
X24286Y-46043D01*
X24248Y-46062D01*
X24133Y-46062D01*
X24095Y-46043D01*
X24076Y-46024D01*
X59995Y-28562D02*
X59995Y-28162D01*
X60148Y-28162D01*
X60186Y-28181D01*
X60205Y-28200D01*
X60224Y-28238D01*
X60224Y-28295D01*
X60205Y-28333D01*
X60186Y-28352D01*
X60148Y-28371D01*
X59995Y-28371D01*
X60624Y-28524D02*
X60605Y-28543D01*
X60548Y-28562D01*
X60510Y-28562D01*
X60452Y-28543D01*
X60414Y-28505D01*
X60395Y-28467D01*
X60376Y-28390D01*
X60376Y-28333D01*
X60395Y-28257D01*
X60414Y-28219D01*
X60452Y-28181D01*
X60510Y-28162D01*
X60548Y-28162D01*
X60605Y-28181D01*
X60624Y-28200D01*
X61024Y-28562D02*
X60890Y-28371D01*
X60795Y-28562D02*
X60795Y-28162D01*
X60948Y-28162D01*
X60986Y-28181D01*
X61005Y-28200D01*
X61024Y-28238D01*
X61024Y-28295D01*
X61005Y-28333D01*
X60986Y-28352D01*
X60948Y-28371D01*
X60795Y-28371D01*
X61195Y-28562D02*
X61195Y-28162D01*
X61424Y-28562D01*
X61424Y-28162D01*
X61843Y-28562D02*
X61709Y-28371D01*
X61614Y-28562D02*
X61614Y-28162D01*
X61767Y-28162D01*
X61805Y-28181D01*
X61824Y-28200D01*
X61843Y-28238D01*
X61843Y-28295D01*
X61824Y-28333D01*
X61805Y-28352D01*
X61767Y-28371D01*
X61614Y-28371D01*
X61995Y-28200D02*
X62014Y-28181D01*
X62052Y-28162D01*
X62148Y-28162D01*
X62186Y-28181D01*
X62205Y-28200D01*
X62224Y-28238D01*
X62224Y-28276D01*
X62205Y-28333D01*
X61976Y-28562D01*
X62224Y-28562D01*
X22095Y-28562D02*
X22095Y-28162D01*
X22248Y-28162D01*
X22286Y-28181D01*
X22305Y-28200D01*
X22324Y-28238D01*
X22324Y-28295D01*
X22305Y-28333D01*
X22286Y-28352D01*
X22248Y-28371D01*
X22095Y-28371D01*
X22724Y-28524D02*
X22705Y-28543D01*
X22648Y-28562D01*
X22610Y-28562D01*
X22552Y-28543D01*
X22514Y-28505D01*
X22495Y-28467D01*
X22476Y-28390D01*
X22476Y-28333D01*
X22495Y-28257D01*
X22514Y-28219D01*
X22552Y-28181D01*
X22610Y-28162D01*
X22648Y-28162D01*
X22705Y-28181D01*
X22724Y-28200D01*
X23124Y-28562D02*
X22990Y-28371D01*
X22895Y-28562D02*
X22895Y-28162D01*
X23048Y-28162D01*
X23086Y-28181D01*
X23105Y-28200D01*
X23124Y-28238D01*
X23124Y-28295D01*
X23105Y-28333D01*
X23086Y-28352D01*
X23048Y-28371D01*
X22895Y-28371D01*
X23295Y-28562D02*
X23295Y-28162D01*
X23524Y-28562D01*
X23524Y-28162D01*
X23943Y-28562D02*
X23809Y-28371D01*
X23714Y-28562D02*
X23714Y-28162D01*
X23867Y-28162D01*
X23905Y-28181D01*
X23924Y-28200D01*
X23943Y-28238D01*
X23943Y-28295D01*
X23924Y-28333D01*
X23905Y-28352D01*
X23867Y-28371D01*
X23714Y-28371D01*
X24324Y-28562D02*
X24095Y-28562D01*
X24209Y-28562D02*
X24209Y-28162D01*
X24171Y-28219D01*
X24133Y-28257D01*
X24095Y-28276D01*
G54D13*
X51701Y-36561D02*
X51582Y-36644D01*
X51701Y-36703D02*
X51451Y-36703D01*
X51451Y-36608D01*
X51463Y-36584D01*
X51475Y-36573D01*
X51499Y-36561D01*
X51535Y-36561D01*
X51558Y-36573D01*
X51570Y-36584D01*
X51582Y-36608D01*
X51582Y-36703D01*
X51701Y-36323D02*
X51701Y-36465D01*
X51701Y-36394D02*
X51451Y-36394D01*
X51487Y-36418D01*
X51511Y-36442D01*
X51523Y-36465D01*
X51475Y-36227D02*
X51463Y-36215D01*
X51451Y-36192D01*
X51451Y-36132D01*
X51463Y-36108D01*
X51475Y-36096D01*
X51499Y-36085D01*
X51523Y-36085D01*
X51558Y-36096D01*
X51701Y-36239D01*
X51701Y-36085D01*
G54D18*
X46850Y-44243D02*
X47107Y-44243D01*
X46978Y-44843D02*
X46978Y-44243D01*
X47471Y-44843D02*
X47257Y-44843D01*
X47257Y-44243D01*
X47878Y-44786D02*
X47857Y-44814D01*
X47793Y-44843D01*
X47750Y-44843D01*
X47685Y-44814D01*
X47643Y-44757D01*
X47621Y-44700D01*
X47600Y-44586D01*
X47600Y-44500D01*
X47621Y-44386D01*
X47643Y-44329D01*
X47685Y-44271D01*
X47750Y-44243D01*
X47793Y-44243D01*
X47857Y-44271D01*
X47878Y-44300D01*
X48028Y-44243D02*
X48307Y-44243D01*
X48157Y-44471D01*
X48221Y-44471D01*
X48264Y-44500D01*
X48285Y-44529D01*
X48307Y-44586D01*
X48307Y-44729D01*
X48285Y-44786D01*
X48264Y-44814D01*
X48221Y-44843D01*
X48093Y-44843D01*
X48050Y-44814D01*
X48028Y-44786D01*
X54707Y-44243D02*
X54964Y-44243D01*
X54835Y-44843D02*
X54835Y-44243D01*
X55328Y-44843D02*
X55114Y-44843D01*
X55114Y-44243D01*
X55735Y-44786D02*
X55714Y-44814D01*
X55650Y-44843D01*
X55607Y-44843D01*
X55542Y-44814D01*
X55500Y-44757D01*
X55478Y-44700D01*
X55457Y-44586D01*
X55457Y-44500D01*
X55478Y-44386D01*
X55500Y-44329D01*
X55542Y-44271D01*
X55607Y-44243D01*
X55650Y-44243D01*
X55714Y-44271D01*
X55735Y-44300D01*
X56142Y-44243D02*
X55928Y-44243D01*
X55907Y-44529D01*
X55928Y-44500D01*
X55971Y-44471D01*
X56078Y-44471D01*
X56121Y-44500D01*
X56142Y-44529D01*
X56164Y-44586D01*
X56164Y-44729D01*
X56142Y-44786D01*
X56121Y-44814D01*
X56078Y-44843D01*
X55971Y-44843D01*
X55928Y-44814D01*
X55907Y-44786D01*
X56379Y-44843D02*
X56464Y-44843D01*
X56507Y-44814D01*
X56529Y-44786D01*
X56571Y-44700D01*
X56593Y-44586D01*
X56593Y-44357D01*
X56571Y-44300D01*
X56550Y-44271D01*
X56507Y-44243D01*
X56421Y-44243D01*
X56379Y-44271D01*
X56357Y-44300D01*
X56336Y-44357D01*
X56336Y-44500D01*
X56357Y-44557D01*
X56379Y-44586D01*
X56421Y-44614D01*
X56507Y-44614D01*
X56550Y-44586D01*
X56571Y-44557D01*
X56593Y-44500D01*
X56979Y-44443D02*
X56979Y-44843D01*
X56872Y-44214D02*
X56765Y-44643D01*
X57043Y-44643D01*
X57301Y-44243D02*
X57344Y-44243D01*
X57387Y-44271D01*
X57408Y-44300D01*
X57429Y-44357D01*
X57451Y-44471D01*
X57451Y-44614D01*
X57429Y-44729D01*
X57408Y-44786D01*
X57387Y-44814D01*
X57344Y-44843D01*
X57301Y-44843D01*
X57258Y-44814D01*
X57237Y-44786D01*
X57215Y-44729D01*
X57194Y-44614D01*
X57194Y-44471D01*
X57215Y-44357D01*
X57237Y-44300D01*
X57258Y-44271D01*
X57301Y-44243D01*
X46850Y-38443D02*
X47107Y-38443D01*
X46978Y-39043D02*
X46978Y-38443D01*
X47471Y-39043D02*
X47257Y-39043D01*
X47257Y-38443D01*
X47878Y-38986D02*
X47857Y-39014D01*
X47793Y-39043D01*
X47750Y-39043D01*
X47685Y-39014D01*
X47643Y-38957D01*
X47621Y-38900D01*
X47600Y-38786D01*
X47600Y-38700D01*
X47621Y-38586D01*
X47643Y-38529D01*
X47685Y-38471D01*
X47750Y-38443D01*
X47793Y-38443D01*
X47857Y-38471D01*
X47878Y-38500D01*
X48050Y-38500D02*
X48071Y-38471D01*
X48114Y-38443D01*
X48221Y-38443D01*
X48264Y-38471D01*
X48285Y-38500D01*
X48307Y-38557D01*
X48307Y-38614D01*
X48285Y-38700D01*
X48028Y-39043D01*
X48307Y-39043D01*
X54707Y-38443D02*
X54964Y-38443D01*
X54835Y-39043D02*
X54835Y-38443D01*
X55328Y-39043D02*
X55114Y-39043D01*
X55114Y-38443D01*
X55735Y-38986D02*
X55714Y-39014D01*
X55650Y-39043D01*
X55607Y-39043D01*
X55542Y-39014D01*
X55500Y-38957D01*
X55478Y-38900D01*
X55457Y-38786D01*
X55457Y-38700D01*
X55478Y-38586D01*
X55500Y-38529D01*
X55542Y-38471D01*
X55607Y-38443D01*
X55650Y-38443D01*
X55714Y-38471D01*
X55735Y-38500D01*
X56142Y-38443D02*
X55928Y-38443D01*
X55907Y-38729D01*
X55928Y-38700D01*
X55971Y-38671D01*
X56078Y-38671D01*
X56121Y-38700D01*
X56142Y-38729D01*
X56164Y-38786D01*
X56164Y-38929D01*
X56142Y-38986D01*
X56121Y-39014D01*
X56078Y-39043D01*
X55971Y-39043D01*
X55928Y-39014D01*
X55907Y-38986D01*
X56379Y-39043D02*
X56464Y-39043D01*
X56507Y-39014D01*
X56529Y-38986D01*
X56571Y-38900D01*
X56593Y-38786D01*
X56593Y-38557D01*
X56571Y-38500D01*
X56550Y-38471D01*
X56507Y-38443D01*
X56421Y-38443D01*
X56379Y-38471D01*
X56357Y-38500D01*
X56336Y-38557D01*
X56336Y-38700D01*
X56357Y-38757D01*
X56379Y-38786D01*
X56421Y-38814D01*
X56507Y-38814D01*
X56550Y-38786D01*
X56571Y-38757D01*
X56593Y-38700D01*
X56979Y-38643D02*
X56979Y-39043D01*
X56872Y-38414D02*
X56765Y-38843D01*
X57043Y-38843D01*
X57301Y-38443D02*
X57344Y-38443D01*
X57387Y-38471D01*
X57408Y-38500D01*
X57429Y-38557D01*
X57451Y-38671D01*
X57451Y-38814D01*
X57429Y-38929D01*
X57408Y-38986D01*
X57387Y-39014D01*
X57344Y-39043D01*
X57301Y-39043D01*
X57258Y-39014D01*
X57237Y-38986D01*
X57215Y-38929D01*
X57194Y-38814D01*
X57194Y-38671D01*
X57215Y-38557D01*
X57237Y-38500D01*
X57258Y-38471D01*
X57301Y-38443D01*
X26950Y-44243D02*
X27207Y-44243D01*
X27078Y-44843D02*
X27078Y-44243D01*
X27571Y-44843D02*
X27357Y-44843D01*
X27357Y-44243D01*
X27978Y-44786D02*
X27957Y-44814D01*
X27893Y-44843D01*
X27850Y-44843D01*
X27785Y-44814D01*
X27743Y-44757D01*
X27721Y-44700D01*
X27700Y-44586D01*
X27700Y-44500D01*
X27721Y-44386D01*
X27743Y-44329D01*
X27785Y-44271D01*
X27850Y-44243D01*
X27893Y-44243D01*
X27957Y-44271D01*
X27978Y-44300D01*
X28407Y-44843D02*
X28150Y-44843D01*
X28278Y-44843D02*
X28278Y-44243D01*
X28235Y-44329D01*
X28193Y-44386D01*
X28150Y-44414D01*
X34807Y-44243D02*
X35064Y-44243D01*
X34935Y-44843D02*
X34935Y-44243D01*
X35428Y-44843D02*
X35214Y-44843D01*
X35214Y-44243D01*
X35835Y-44786D02*
X35814Y-44814D01*
X35750Y-44843D01*
X35707Y-44843D01*
X35642Y-44814D01*
X35600Y-44757D01*
X35578Y-44700D01*
X35557Y-44586D01*
X35557Y-44500D01*
X35578Y-44386D01*
X35600Y-44329D01*
X35642Y-44271D01*
X35707Y-44243D01*
X35750Y-44243D01*
X35814Y-44271D01*
X35835Y-44300D01*
X36242Y-44243D02*
X36028Y-44243D01*
X36007Y-44529D01*
X36028Y-44500D01*
X36071Y-44471D01*
X36178Y-44471D01*
X36221Y-44500D01*
X36242Y-44529D01*
X36264Y-44586D01*
X36264Y-44729D01*
X36242Y-44786D01*
X36221Y-44814D01*
X36178Y-44843D01*
X36071Y-44843D01*
X36028Y-44814D01*
X36007Y-44786D01*
X36479Y-44843D02*
X36564Y-44843D01*
X36607Y-44814D01*
X36629Y-44786D01*
X36671Y-44700D01*
X36693Y-44586D01*
X36693Y-44357D01*
X36671Y-44300D01*
X36650Y-44271D01*
X36607Y-44243D01*
X36521Y-44243D01*
X36479Y-44271D01*
X36457Y-44300D01*
X36436Y-44357D01*
X36436Y-44500D01*
X36457Y-44557D01*
X36479Y-44586D01*
X36521Y-44614D01*
X36607Y-44614D01*
X36650Y-44586D01*
X36671Y-44557D01*
X36693Y-44500D01*
X37079Y-44443D02*
X37079Y-44843D01*
X36972Y-44214D02*
X36865Y-44643D01*
X37143Y-44643D01*
X37401Y-44243D02*
X37444Y-44243D01*
X37487Y-44271D01*
X37508Y-44300D01*
X37529Y-44357D01*
X37551Y-44471D01*
X37551Y-44614D01*
X37529Y-44729D01*
X37508Y-44786D01*
X37487Y-44814D01*
X37444Y-44843D01*
X37401Y-44843D01*
X37358Y-44814D01*
X37337Y-44786D01*
X37315Y-44729D01*
X37294Y-44614D01*
X37294Y-44471D01*
X37315Y-44357D01*
X37337Y-44300D01*
X37358Y-44271D01*
X37401Y-44243D01*
M02*
