G04 (created by PCBNEW-RS274X (2011-07-08)-stable) date Wed 10 Aug 2011 06:25:48 PM EDT*
G01*
G70*
G90*
%MOIN*%
G04 Gerber Fmt 3.4, Leading zero omitted, Abs format*
%FSLAX34Y34*%
G04 APERTURE LIST*
%ADD10C,0.006000*%
%ADD11C,0.007500*%
%ADD12C,0.012000*%
%ADD13C,0.015000*%
%ADD14C,0.002600*%
%ADD15C,0.004000*%
%ADD16C,0.010000*%
%ADD17C,0.005000*%
%ADD18C,0.012500*%
%ADD19C,0.011300*%
%ADD20C,0.003500*%
%ADD21C,0.008000*%
G04 APERTURE END LIST*
G54D10*
G54D11*
X52593Y-51762D02*
X52593Y-52048D01*
X52579Y-52105D01*
X52550Y-52143D01*
X52507Y-52162D01*
X52479Y-52162D01*
X53137Y-52124D02*
X53123Y-52143D01*
X53080Y-52162D01*
X53051Y-52162D01*
X53008Y-52143D01*
X52980Y-52105D01*
X52965Y-52067D01*
X52951Y-51990D01*
X52951Y-51933D01*
X52965Y-51857D01*
X52980Y-51819D01*
X53008Y-51781D01*
X53051Y-51762D01*
X53080Y-51762D01*
X53123Y-51781D01*
X53137Y-51800D01*
X53308Y-52162D02*
X53280Y-52143D01*
X53265Y-52124D01*
X53251Y-52086D01*
X53251Y-51971D01*
X53265Y-51933D01*
X53280Y-51914D01*
X53308Y-51895D01*
X53351Y-51895D01*
X53380Y-51914D01*
X53394Y-51933D01*
X53408Y-51971D01*
X53408Y-52086D01*
X53394Y-52124D01*
X53380Y-52143D01*
X53351Y-52162D01*
X53308Y-52162D01*
X53579Y-52162D02*
X53551Y-52143D01*
X53536Y-52105D01*
X53536Y-51762D01*
X53736Y-52162D02*
X53708Y-52143D01*
X53693Y-52124D01*
X53679Y-52086D01*
X53679Y-51971D01*
X53693Y-51933D01*
X53708Y-51914D01*
X53736Y-51895D01*
X53779Y-51895D01*
X53808Y-51914D01*
X53822Y-51933D01*
X53836Y-51971D01*
X53836Y-52086D01*
X53822Y-52124D01*
X53808Y-52143D01*
X53779Y-52162D01*
X53736Y-52162D01*
X53950Y-52143D02*
X53979Y-52162D01*
X54036Y-52162D01*
X54064Y-52143D01*
X54079Y-52105D01*
X54079Y-52086D01*
X54064Y-52048D01*
X54036Y-52029D01*
X53993Y-52029D01*
X53964Y-52010D01*
X53950Y-51971D01*
X53950Y-51952D01*
X53964Y-51914D01*
X53993Y-51895D01*
X54036Y-51895D01*
X54064Y-51914D01*
X54207Y-52162D02*
X54207Y-51895D01*
X54207Y-51762D02*
X54193Y-51781D01*
X54207Y-51800D01*
X54222Y-51781D01*
X54207Y-51762D01*
X54207Y-51800D01*
X54350Y-52162D02*
X54350Y-51895D01*
X54350Y-51933D02*
X54365Y-51914D01*
X54393Y-51895D01*
X54436Y-51895D01*
X54465Y-51914D01*
X54479Y-51952D01*
X54479Y-52162D01*
X54479Y-51952D02*
X54493Y-51914D01*
X54522Y-51895D01*
X54565Y-51895D01*
X54593Y-51914D01*
X54608Y-51952D01*
X54608Y-52162D01*
X54793Y-52162D02*
X54765Y-52143D01*
X54750Y-52124D01*
X54736Y-52086D01*
X54736Y-51971D01*
X54750Y-51933D01*
X54765Y-51914D01*
X54793Y-51895D01*
X54836Y-51895D01*
X54865Y-51914D01*
X54879Y-51933D01*
X54893Y-51971D01*
X54893Y-52086D01*
X54879Y-52124D01*
X54865Y-52143D01*
X54836Y-52162D01*
X54793Y-52162D01*
X55250Y-52124D02*
X55265Y-52143D01*
X55250Y-52162D01*
X55236Y-52143D01*
X55250Y-52124D01*
X55250Y-52162D01*
X55250Y-51914D02*
X55265Y-51933D01*
X55250Y-51952D01*
X55236Y-51933D01*
X55250Y-51914D01*
X55250Y-51952D01*
X55393Y-52124D02*
X55408Y-52143D01*
X55393Y-52162D01*
X55379Y-52143D01*
X55393Y-52124D01*
X55393Y-52162D01*
X55393Y-51914D02*
X55408Y-51933D01*
X55393Y-51952D01*
X55379Y-51933D01*
X55393Y-51914D01*
X55393Y-51952D01*
X55765Y-51895D02*
X55765Y-52238D01*
X55751Y-52276D01*
X55723Y-52295D01*
X55708Y-52295D01*
X55765Y-51762D02*
X55751Y-51781D01*
X55765Y-51800D01*
X55780Y-51781D01*
X55765Y-51762D01*
X55765Y-51800D01*
X55880Y-51895D02*
X55937Y-52162D01*
X55994Y-51971D01*
X56051Y-52162D01*
X56108Y-51895D01*
X56351Y-52143D02*
X56322Y-52162D01*
X56265Y-52162D01*
X56237Y-52143D01*
X56222Y-52124D01*
X56208Y-52086D01*
X56208Y-51971D01*
X56222Y-51933D01*
X56237Y-51914D01*
X56265Y-51895D01*
X56322Y-51895D01*
X56351Y-51914D01*
X56451Y-52162D02*
X56608Y-51895D01*
X56451Y-51895D02*
X56608Y-52162D01*
X56694Y-51895D02*
X56851Y-51895D01*
X56694Y-52162D01*
X56851Y-52162D01*
X56965Y-52124D02*
X56980Y-52143D01*
X56965Y-52162D01*
X56951Y-52143D01*
X56965Y-52124D01*
X56965Y-52162D01*
X57237Y-52143D02*
X57208Y-52162D01*
X57151Y-52162D01*
X57123Y-52143D01*
X57108Y-52124D01*
X57094Y-52086D01*
X57094Y-51971D01*
X57108Y-51933D01*
X57123Y-51914D01*
X57151Y-51895D01*
X57208Y-51895D01*
X57237Y-51914D01*
X57408Y-52162D02*
X57380Y-52143D01*
X57365Y-52124D01*
X57351Y-52086D01*
X57351Y-51971D01*
X57365Y-51933D01*
X57380Y-51914D01*
X57408Y-51895D01*
X57451Y-51895D01*
X57480Y-51914D01*
X57494Y-51933D01*
X57508Y-51971D01*
X57508Y-52086D01*
X57494Y-52124D01*
X57480Y-52143D01*
X57451Y-52162D01*
X57408Y-52162D01*
X57636Y-52162D02*
X57636Y-51895D01*
X57636Y-51933D02*
X57651Y-51914D01*
X57679Y-51895D01*
X57722Y-51895D01*
X57751Y-51914D01*
X57765Y-51952D01*
X57765Y-52162D01*
X57765Y-51952D02*
X57779Y-51914D01*
X57808Y-51895D01*
X57851Y-51895D01*
X57879Y-51914D01*
X57894Y-51952D01*
X57894Y-52162D01*
G54D12*
X72724Y-49470D02*
X72724Y-49756D01*
X71924Y-49756D01*
X72305Y-49270D02*
X72305Y-49070D01*
X72724Y-48984D02*
X72724Y-49270D01*
X71924Y-49270D01*
X71924Y-48984D01*
X72724Y-48727D02*
X71924Y-48727D01*
X71924Y-48584D01*
X71962Y-48499D01*
X72038Y-48441D01*
X72114Y-48413D01*
X72267Y-48384D01*
X72381Y-48384D01*
X72533Y-48413D01*
X72610Y-48441D01*
X72686Y-48499D01*
X72724Y-48584D01*
X72724Y-48727D01*
X72648Y-47327D02*
X72686Y-47356D01*
X72724Y-47442D01*
X72724Y-47499D01*
X72686Y-47584D01*
X72610Y-47642D01*
X72533Y-47670D01*
X72381Y-47699D01*
X72267Y-47699D01*
X72114Y-47670D01*
X72038Y-47642D01*
X71962Y-47584D01*
X71924Y-47499D01*
X71924Y-47442D01*
X71962Y-47356D01*
X72000Y-47327D01*
X72724Y-46984D02*
X72686Y-47042D01*
X72648Y-47070D01*
X72571Y-47099D01*
X72343Y-47099D01*
X72267Y-47070D01*
X72229Y-47042D01*
X72190Y-46984D01*
X72190Y-46899D01*
X72229Y-46842D01*
X72267Y-46813D01*
X72343Y-46784D01*
X72571Y-46784D01*
X72648Y-46813D01*
X72686Y-46842D01*
X72724Y-46899D01*
X72724Y-46984D01*
X72190Y-46527D02*
X72724Y-46527D01*
X72267Y-46527D02*
X72229Y-46499D01*
X72190Y-46441D01*
X72190Y-46356D01*
X72229Y-46299D01*
X72305Y-46270D01*
X72724Y-46270D01*
X72190Y-46070D02*
X72190Y-45841D01*
X71924Y-45984D02*
X72610Y-45984D01*
X72686Y-45956D01*
X72724Y-45898D01*
X72724Y-45841D01*
X72724Y-45641D02*
X72190Y-45641D01*
X72343Y-45641D02*
X72267Y-45613D01*
X72229Y-45584D01*
X72190Y-45527D01*
X72190Y-45470D01*
X72724Y-45184D02*
X72686Y-45242D01*
X72648Y-45270D01*
X72571Y-45299D01*
X72343Y-45299D01*
X72267Y-45270D01*
X72229Y-45242D01*
X72190Y-45184D01*
X72190Y-45099D01*
X72229Y-45042D01*
X72267Y-45013D01*
X72343Y-44984D01*
X72571Y-44984D01*
X72648Y-45013D01*
X72686Y-45042D01*
X72724Y-45099D01*
X72724Y-45184D01*
X72724Y-44641D02*
X72686Y-44699D01*
X72610Y-44727D01*
X71924Y-44727D01*
X72724Y-44327D02*
X72686Y-44385D01*
X72610Y-44413D01*
X71924Y-44413D01*
X72686Y-43871D02*
X72724Y-43928D01*
X72724Y-44042D01*
X72686Y-44099D01*
X72610Y-44128D01*
X72305Y-44128D01*
X72229Y-44099D01*
X72190Y-44042D01*
X72190Y-43928D01*
X72229Y-43871D01*
X72305Y-43842D01*
X72381Y-43842D01*
X72457Y-44128D01*
X72724Y-43585D02*
X72190Y-43585D01*
X72343Y-43585D02*
X72267Y-43557D01*
X72229Y-43528D01*
X72190Y-43471D01*
X72190Y-43414D01*
X72190Y-42814D02*
X72724Y-42671D01*
X72190Y-42529D01*
X72724Y-41986D02*
X72724Y-42329D01*
X72724Y-42157D02*
X71924Y-42157D01*
X72038Y-42214D01*
X72114Y-42272D01*
X72152Y-42329D01*
X72648Y-41729D02*
X72686Y-41701D01*
X72724Y-41729D01*
X72686Y-41758D01*
X72648Y-41729D01*
X72724Y-41729D01*
X71924Y-41157D02*
X71924Y-41443D01*
X72305Y-41472D01*
X72267Y-41443D01*
X72229Y-41386D01*
X72229Y-41243D01*
X72267Y-41186D01*
X72305Y-41157D01*
X72381Y-41129D01*
X72571Y-41129D01*
X72648Y-41157D01*
X72686Y-41186D01*
X72724Y-41243D01*
X72724Y-41386D01*
X72686Y-41443D01*
X72648Y-41472D01*
X71924Y-39330D02*
X72495Y-39330D01*
X72610Y-39358D01*
X72686Y-39415D01*
X72724Y-39501D01*
X72724Y-39558D01*
X71924Y-39101D02*
X72724Y-38958D01*
X72152Y-38844D01*
X72724Y-38730D01*
X71924Y-38587D01*
X72648Y-38015D02*
X72686Y-38044D01*
X72724Y-38130D01*
X72724Y-38187D01*
X72686Y-38272D01*
X72610Y-38330D01*
X72533Y-38358D01*
X72381Y-38387D01*
X72267Y-38387D01*
X72114Y-38358D01*
X72038Y-38330D01*
X71962Y-38272D01*
X71924Y-38187D01*
X71924Y-38130D01*
X71962Y-38044D01*
X72000Y-38015D01*
G54D13*
X56000Y-33900D02*
X55982Y-34074D01*
X55932Y-34242D01*
X55849Y-34398D01*
X55738Y-34534D01*
X55603Y-34646D01*
X55448Y-34729D01*
X55280Y-34781D01*
X55106Y-34799D01*
X54932Y-34784D01*
X54763Y-34734D01*
X54608Y-34653D01*
X54471Y-34543D01*
X54358Y-34408D01*
X54273Y-34254D01*
X54220Y-34087D01*
X54201Y-33912D01*
X54215Y-33738D01*
X54264Y-33569D01*
X54344Y-33413D01*
X54453Y-33275D01*
X54587Y-33161D01*
X54740Y-33076D01*
X54907Y-33021D01*
X55082Y-33001D01*
X55256Y-33014D01*
X55425Y-33061D01*
X55582Y-33141D01*
X55720Y-33249D01*
X55835Y-33382D01*
X55922Y-33534D01*
X55977Y-33701D01*
X55999Y-33875D01*
X56000Y-33900D01*
X53900Y-35700D02*
X53882Y-35874D01*
X53832Y-36042D01*
X53749Y-36198D01*
X53638Y-36334D01*
X53503Y-36446D01*
X53348Y-36529D01*
X53180Y-36581D01*
X53006Y-36599D01*
X52832Y-36584D01*
X52663Y-36534D01*
X52508Y-36453D01*
X52371Y-36343D01*
X52258Y-36208D01*
X52173Y-36054D01*
X52120Y-35887D01*
X52101Y-35712D01*
X52115Y-35538D01*
X52164Y-35369D01*
X52244Y-35213D01*
X52353Y-35075D01*
X52487Y-34961D01*
X52640Y-34876D01*
X52807Y-34821D01*
X52982Y-34801D01*
X53156Y-34814D01*
X53325Y-34861D01*
X53482Y-34941D01*
X53620Y-35049D01*
X53735Y-35182D01*
X53822Y-35334D01*
X53877Y-35501D01*
X53899Y-35675D01*
X53900Y-35700D01*
X53900Y-33600D02*
X53882Y-33774D01*
X53832Y-33942D01*
X53749Y-34098D01*
X53638Y-34234D01*
X53503Y-34346D01*
X53348Y-34429D01*
X53180Y-34481D01*
X53006Y-34499D01*
X52832Y-34484D01*
X52663Y-34434D01*
X52508Y-34353D01*
X52371Y-34243D01*
X52258Y-34108D01*
X52173Y-33954D01*
X52120Y-33787D01*
X52101Y-33612D01*
X52115Y-33438D01*
X52164Y-33269D01*
X52244Y-33113D01*
X52353Y-32975D01*
X52487Y-32861D01*
X52640Y-32776D01*
X52807Y-32721D01*
X52982Y-32701D01*
X53156Y-32714D01*
X53325Y-32761D01*
X53482Y-32841D01*
X53620Y-32949D01*
X53735Y-33082D01*
X53822Y-33234D01*
X53877Y-33401D01*
X53899Y-33575D01*
X53900Y-33600D01*
X51900Y-32800D02*
X51882Y-32974D01*
X51832Y-33142D01*
X51749Y-33298D01*
X51638Y-33434D01*
X51503Y-33546D01*
X51348Y-33629D01*
X51180Y-33681D01*
X51006Y-33699D01*
X50832Y-33684D01*
X50663Y-33634D01*
X50508Y-33553D01*
X50371Y-33443D01*
X50258Y-33308D01*
X50173Y-33154D01*
X50120Y-32987D01*
X50101Y-32812D01*
X50115Y-32638D01*
X50164Y-32469D01*
X50244Y-32313D01*
X50353Y-32175D01*
X50487Y-32061D01*
X50640Y-31976D01*
X50807Y-31921D01*
X50982Y-31901D01*
X51156Y-31914D01*
X51325Y-31961D01*
X51482Y-32041D01*
X51620Y-32149D01*
X51735Y-32282D01*
X51822Y-32434D01*
X51877Y-32601D01*
X51899Y-32775D01*
X51900Y-32800D01*
X60200Y-51800D02*
X60182Y-51974D01*
X60132Y-52142D01*
X60049Y-52298D01*
X59938Y-52434D01*
X59803Y-52546D01*
X59648Y-52629D01*
X59480Y-52681D01*
X59306Y-52699D01*
X59132Y-52684D01*
X58963Y-52634D01*
X58808Y-52553D01*
X58671Y-52443D01*
X58558Y-52308D01*
X58473Y-52154D01*
X58420Y-51987D01*
X58401Y-51812D01*
X58415Y-51638D01*
X58464Y-51469D01*
X58544Y-51313D01*
X58653Y-51175D01*
X58787Y-51061D01*
X58940Y-50976D01*
X59107Y-50921D01*
X59282Y-50901D01*
X59456Y-50914D01*
X59625Y-50961D01*
X59782Y-51041D01*
X59920Y-51149D01*
X60035Y-51282D01*
X60122Y-51434D01*
X60177Y-51601D01*
X60199Y-51775D01*
X60200Y-51800D01*
X60200Y-48800D02*
X60182Y-48974D01*
X60132Y-49142D01*
X60049Y-49298D01*
X59938Y-49434D01*
X59803Y-49546D01*
X59648Y-49629D01*
X59480Y-49681D01*
X59306Y-49699D01*
X59132Y-49684D01*
X58963Y-49634D01*
X58808Y-49553D01*
X58671Y-49443D01*
X58558Y-49308D01*
X58473Y-49154D01*
X58420Y-48987D01*
X58401Y-48812D01*
X58415Y-48638D01*
X58464Y-48469D01*
X58544Y-48313D01*
X58653Y-48175D01*
X58787Y-48061D01*
X58940Y-47976D01*
X59107Y-47921D01*
X59282Y-47901D01*
X59456Y-47914D01*
X59625Y-47961D01*
X59782Y-48041D01*
X59920Y-48149D01*
X60035Y-48282D01*
X60122Y-48434D01*
X60177Y-48601D01*
X60199Y-48775D01*
X60200Y-48800D01*
X60200Y-45800D02*
X60182Y-45974D01*
X60132Y-46142D01*
X60049Y-46298D01*
X59938Y-46434D01*
X59803Y-46546D01*
X59648Y-46629D01*
X59480Y-46681D01*
X59306Y-46699D01*
X59132Y-46684D01*
X58963Y-46634D01*
X58808Y-46553D01*
X58671Y-46443D01*
X58558Y-46308D01*
X58473Y-46154D01*
X58420Y-45987D01*
X58401Y-45812D01*
X58415Y-45638D01*
X58464Y-45469D01*
X58544Y-45313D01*
X58653Y-45175D01*
X58787Y-45061D01*
X58940Y-44976D01*
X59107Y-44921D01*
X59282Y-44901D01*
X59456Y-44914D01*
X59625Y-44961D01*
X59782Y-45041D01*
X59920Y-45149D01*
X60035Y-45282D01*
X60122Y-45434D01*
X60177Y-45601D01*
X60199Y-45775D01*
X60200Y-45800D01*
X60200Y-42800D02*
X60182Y-42974D01*
X60132Y-43142D01*
X60049Y-43298D01*
X59938Y-43434D01*
X59803Y-43546D01*
X59648Y-43629D01*
X59480Y-43681D01*
X59306Y-43699D01*
X59132Y-43684D01*
X58963Y-43634D01*
X58808Y-43553D01*
X58671Y-43443D01*
X58558Y-43308D01*
X58473Y-43154D01*
X58420Y-42987D01*
X58401Y-42812D01*
X58415Y-42638D01*
X58464Y-42469D01*
X58544Y-42313D01*
X58653Y-42175D01*
X58787Y-42061D01*
X58940Y-41976D01*
X59107Y-41921D01*
X59282Y-41901D01*
X59456Y-41914D01*
X59625Y-41961D01*
X59782Y-42041D01*
X59920Y-42149D01*
X60035Y-42282D01*
X60122Y-42434D01*
X60177Y-42601D01*
X60199Y-42775D01*
X60200Y-42800D01*
X60200Y-39800D02*
X60182Y-39974D01*
X60132Y-40142D01*
X60049Y-40298D01*
X59938Y-40434D01*
X59803Y-40546D01*
X59648Y-40629D01*
X59480Y-40681D01*
X59306Y-40699D01*
X59132Y-40684D01*
X58963Y-40634D01*
X58808Y-40553D01*
X58671Y-40443D01*
X58558Y-40308D01*
X58473Y-40154D01*
X58420Y-39987D01*
X58401Y-39812D01*
X58415Y-39638D01*
X58464Y-39469D01*
X58544Y-39313D01*
X58653Y-39175D01*
X58787Y-39061D01*
X58940Y-38976D01*
X59107Y-38921D01*
X59282Y-38901D01*
X59456Y-38914D01*
X59625Y-38961D01*
X59782Y-39041D01*
X59920Y-39149D01*
X60035Y-39282D01*
X60122Y-39434D01*
X60177Y-39601D01*
X60199Y-39775D01*
X60200Y-39800D01*
X66900Y-51800D02*
X66882Y-51974D01*
X66832Y-52142D01*
X66749Y-52298D01*
X66638Y-52434D01*
X66503Y-52546D01*
X66348Y-52629D01*
X66180Y-52681D01*
X66006Y-52699D01*
X65832Y-52684D01*
X65663Y-52634D01*
X65508Y-52553D01*
X65371Y-52443D01*
X65258Y-52308D01*
X65173Y-52154D01*
X65120Y-51987D01*
X65101Y-51812D01*
X65115Y-51638D01*
X65164Y-51469D01*
X65244Y-51313D01*
X65353Y-51175D01*
X65487Y-51061D01*
X65640Y-50976D01*
X65807Y-50921D01*
X65982Y-50901D01*
X66156Y-50914D01*
X66325Y-50961D01*
X66482Y-51041D01*
X66620Y-51149D01*
X66735Y-51282D01*
X66822Y-51434D01*
X66877Y-51601D01*
X66899Y-51775D01*
X66900Y-51800D01*
X66900Y-48800D02*
X66882Y-48974D01*
X66832Y-49142D01*
X66749Y-49298D01*
X66638Y-49434D01*
X66503Y-49546D01*
X66348Y-49629D01*
X66180Y-49681D01*
X66006Y-49699D01*
X65832Y-49684D01*
X65663Y-49634D01*
X65508Y-49553D01*
X65371Y-49443D01*
X65258Y-49308D01*
X65173Y-49154D01*
X65120Y-48987D01*
X65101Y-48812D01*
X65115Y-48638D01*
X65164Y-48469D01*
X65244Y-48313D01*
X65353Y-48175D01*
X65487Y-48061D01*
X65640Y-47976D01*
X65807Y-47921D01*
X65982Y-47901D01*
X66156Y-47914D01*
X66325Y-47961D01*
X66482Y-48041D01*
X66620Y-48149D01*
X66735Y-48282D01*
X66822Y-48434D01*
X66877Y-48601D01*
X66899Y-48775D01*
X66900Y-48800D01*
X67000Y-45800D02*
X66982Y-45974D01*
X66932Y-46142D01*
X66849Y-46298D01*
X66738Y-46434D01*
X66603Y-46546D01*
X66448Y-46629D01*
X66280Y-46681D01*
X66106Y-46699D01*
X65932Y-46684D01*
X65763Y-46634D01*
X65608Y-46553D01*
X65471Y-46443D01*
X65358Y-46308D01*
X65273Y-46154D01*
X65220Y-45987D01*
X65201Y-45812D01*
X65215Y-45638D01*
X65264Y-45469D01*
X65344Y-45313D01*
X65453Y-45175D01*
X65587Y-45061D01*
X65740Y-44976D01*
X65907Y-44921D01*
X66082Y-44901D01*
X66256Y-44914D01*
X66425Y-44961D01*
X66582Y-45041D01*
X66720Y-45149D01*
X66835Y-45282D01*
X66922Y-45434D01*
X66977Y-45601D01*
X66999Y-45775D01*
X67000Y-45800D01*
X67000Y-42800D02*
X66982Y-42974D01*
X66932Y-43142D01*
X66849Y-43298D01*
X66738Y-43434D01*
X66603Y-43546D01*
X66448Y-43629D01*
X66280Y-43681D01*
X66106Y-43699D01*
X65932Y-43684D01*
X65763Y-43634D01*
X65608Y-43553D01*
X65471Y-43443D01*
X65358Y-43308D01*
X65273Y-43154D01*
X65220Y-42987D01*
X65201Y-42812D01*
X65215Y-42638D01*
X65264Y-42469D01*
X65344Y-42313D01*
X65453Y-42175D01*
X65587Y-42061D01*
X65740Y-41976D01*
X65907Y-41921D01*
X66082Y-41901D01*
X66256Y-41914D01*
X66425Y-41961D01*
X66582Y-42041D01*
X66720Y-42149D01*
X66835Y-42282D01*
X66922Y-42434D01*
X66977Y-42601D01*
X66999Y-42775D01*
X67000Y-42800D01*
X67000Y-39800D02*
X66982Y-39974D01*
X66932Y-40142D01*
X66849Y-40298D01*
X66738Y-40434D01*
X66603Y-40546D01*
X66448Y-40629D01*
X66280Y-40681D01*
X66106Y-40699D01*
X65932Y-40684D01*
X65763Y-40634D01*
X65608Y-40553D01*
X65471Y-40443D01*
X65358Y-40308D01*
X65273Y-40154D01*
X65220Y-39987D01*
X65201Y-39812D01*
X65215Y-39638D01*
X65264Y-39469D01*
X65344Y-39313D01*
X65453Y-39175D01*
X65587Y-39061D01*
X65740Y-38976D01*
X65907Y-38921D01*
X66082Y-38901D01*
X66256Y-38914D01*
X66425Y-38961D01*
X66582Y-39041D01*
X66720Y-39149D01*
X66835Y-39282D01*
X66922Y-39434D01*
X66977Y-39601D01*
X66999Y-39775D01*
X67000Y-39800D01*
X73000Y-24200D02*
X72982Y-24374D01*
X72932Y-24542D01*
X72849Y-24698D01*
X72738Y-24834D01*
X72603Y-24946D01*
X72448Y-25029D01*
X72280Y-25081D01*
X72106Y-25099D01*
X71932Y-25084D01*
X71763Y-25034D01*
X71608Y-24953D01*
X71471Y-24843D01*
X71358Y-24708D01*
X71273Y-24554D01*
X71220Y-24387D01*
X71201Y-24212D01*
X71215Y-24038D01*
X71264Y-23869D01*
X71344Y-23713D01*
X71453Y-23575D01*
X71587Y-23461D01*
X71740Y-23376D01*
X71907Y-23321D01*
X72082Y-23301D01*
X72256Y-23314D01*
X72425Y-23361D01*
X72582Y-23441D01*
X72720Y-23549D01*
X72835Y-23682D01*
X72922Y-23834D01*
X72977Y-24001D01*
X72999Y-24175D01*
X73000Y-24200D01*
X73000Y-26600D02*
X72982Y-26774D01*
X72932Y-26942D01*
X72849Y-27098D01*
X72738Y-27234D01*
X72603Y-27346D01*
X72448Y-27429D01*
X72280Y-27481D01*
X72106Y-27499D01*
X71932Y-27484D01*
X71763Y-27434D01*
X71608Y-27353D01*
X71471Y-27243D01*
X71358Y-27108D01*
X71273Y-26954D01*
X71220Y-26787D01*
X71201Y-26612D01*
X71215Y-26438D01*
X71264Y-26269D01*
X71344Y-26113D01*
X71453Y-25975D01*
X71587Y-25861D01*
X71740Y-25776D01*
X71907Y-25721D01*
X72082Y-25701D01*
X72256Y-25714D01*
X72425Y-25761D01*
X72582Y-25841D01*
X72720Y-25949D01*
X72835Y-26082D01*
X72922Y-26234D01*
X72977Y-26401D01*
X72999Y-26575D01*
X73000Y-26600D01*
X73000Y-29000D02*
X72982Y-29174D01*
X72932Y-29342D01*
X72849Y-29498D01*
X72738Y-29634D01*
X72603Y-29746D01*
X72448Y-29829D01*
X72280Y-29881D01*
X72106Y-29899D01*
X71932Y-29884D01*
X71763Y-29834D01*
X71608Y-29753D01*
X71471Y-29643D01*
X71358Y-29508D01*
X71273Y-29354D01*
X71220Y-29187D01*
X71201Y-29012D01*
X71215Y-28838D01*
X71264Y-28669D01*
X71344Y-28513D01*
X71453Y-28375D01*
X71587Y-28261D01*
X71740Y-28176D01*
X71907Y-28121D01*
X72082Y-28101D01*
X72256Y-28114D01*
X72425Y-28161D01*
X72582Y-28241D01*
X72720Y-28349D01*
X72835Y-28482D01*
X72922Y-28634D01*
X72977Y-28801D01*
X72999Y-28975D01*
X73000Y-29000D01*
X73000Y-32000D02*
X72982Y-32174D01*
X72932Y-32342D01*
X72849Y-32498D01*
X72738Y-32634D01*
X72603Y-32746D01*
X72448Y-32829D01*
X72280Y-32881D01*
X72106Y-32899D01*
X71932Y-32884D01*
X71763Y-32834D01*
X71608Y-32753D01*
X71471Y-32643D01*
X71358Y-32508D01*
X71273Y-32354D01*
X71220Y-32187D01*
X71201Y-32012D01*
X71215Y-31838D01*
X71264Y-31669D01*
X71344Y-31513D01*
X71453Y-31375D01*
X71587Y-31261D01*
X71740Y-31176D01*
X71907Y-31121D01*
X72082Y-31101D01*
X72256Y-31114D01*
X72425Y-31161D01*
X72582Y-31241D01*
X72720Y-31349D01*
X72835Y-31482D01*
X72922Y-31634D01*
X72977Y-31801D01*
X72999Y-31975D01*
X73000Y-32000D01*
X73000Y-35000D02*
X72982Y-35174D01*
X72932Y-35342D01*
X72849Y-35498D01*
X72738Y-35634D01*
X72603Y-35746D01*
X72448Y-35829D01*
X72280Y-35881D01*
X72106Y-35899D01*
X71932Y-35884D01*
X71763Y-35834D01*
X71608Y-35753D01*
X71471Y-35643D01*
X71358Y-35508D01*
X71273Y-35354D01*
X71220Y-35187D01*
X71201Y-35012D01*
X71215Y-34838D01*
X71264Y-34669D01*
X71344Y-34513D01*
X71453Y-34375D01*
X71587Y-34261D01*
X71740Y-34176D01*
X71907Y-34121D01*
X72082Y-34101D01*
X72256Y-34114D01*
X72425Y-34161D01*
X72582Y-34241D01*
X72720Y-34349D01*
X72835Y-34482D01*
X72922Y-34634D01*
X72977Y-34801D01*
X72999Y-34975D01*
X73000Y-35000D01*
X54300Y-22200D02*
X54282Y-22374D01*
X54232Y-22542D01*
X54149Y-22698D01*
X54038Y-22834D01*
X53903Y-22946D01*
X53748Y-23029D01*
X53580Y-23081D01*
X53406Y-23099D01*
X53232Y-23084D01*
X53063Y-23034D01*
X52908Y-22953D01*
X52771Y-22843D01*
X52658Y-22708D01*
X52573Y-22554D01*
X52520Y-22387D01*
X52501Y-22212D01*
X52515Y-22038D01*
X52564Y-21869D01*
X52644Y-21713D01*
X52753Y-21575D01*
X52887Y-21461D01*
X53040Y-21376D01*
X53207Y-21321D01*
X53382Y-21301D01*
X53556Y-21314D01*
X53725Y-21361D01*
X53882Y-21441D01*
X54020Y-21549D01*
X54135Y-21682D01*
X54222Y-21834D01*
X54277Y-22001D01*
X54299Y-22175D01*
X54300Y-22200D01*
G54D12*
X55600Y-32980D02*
X55600Y-31000D01*
X55600Y-31000D02*
X56600Y-31000D01*
X56600Y-31000D02*
X56600Y-33000D01*
X56600Y-33000D02*
X55600Y-33000D01*
X55850Y-33000D02*
X55600Y-32750D01*
X60000Y-25480D02*
X60000Y-23500D01*
X60000Y-23500D02*
X61000Y-23500D01*
X61000Y-23500D02*
X61000Y-25500D01*
X61000Y-25500D02*
X60000Y-25500D01*
X60250Y-25500D02*
X60000Y-25250D01*
X58800Y-25480D02*
X58800Y-23500D01*
X58800Y-23500D02*
X59800Y-23500D01*
X59800Y-23500D02*
X59800Y-25500D01*
X59800Y-25500D02*
X58800Y-25500D01*
X59050Y-25500D02*
X58800Y-25250D01*
X57800Y-28820D02*
X57800Y-30800D01*
X57800Y-30800D02*
X56800Y-30800D01*
X56800Y-30800D02*
X56800Y-28800D01*
X56800Y-28800D02*
X57800Y-28800D01*
X57550Y-28800D02*
X57800Y-29050D01*
X56800Y-32980D02*
X56800Y-31000D01*
X56800Y-31000D02*
X57800Y-31000D01*
X57800Y-31000D02*
X57800Y-33000D01*
X57800Y-33000D02*
X56800Y-33000D01*
X57050Y-33000D02*
X56800Y-32750D01*
X56900Y-28280D02*
X56900Y-26300D01*
X56900Y-26300D02*
X57900Y-26300D01*
X57900Y-26300D02*
X57900Y-28300D01*
X57900Y-28300D02*
X56900Y-28300D01*
X57150Y-28300D02*
X56900Y-28050D01*
X55700Y-28280D02*
X55700Y-26300D01*
X55700Y-26300D02*
X56700Y-26300D01*
X56700Y-26300D02*
X56700Y-28300D01*
X56700Y-28300D02*
X55700Y-28300D01*
X55950Y-28300D02*
X55700Y-28050D01*
G54D13*
X64000Y-22000D02*
X64000Y-37000D01*
X64000Y-37000D02*
X62000Y-37000D01*
X62000Y-37000D02*
X62000Y-22000D01*
X62000Y-22000D02*
X64000Y-22000D01*
X63500Y-22000D02*
X63500Y-22500D01*
X63500Y-22500D02*
X62500Y-22500D01*
X62500Y-22500D02*
X62500Y-22000D01*
X58500Y-32700D02*
X59000Y-32700D01*
X58750Y-32950D02*
X58750Y-32500D01*
X61000Y-32000D02*
X60971Y-32291D01*
X60886Y-32571D01*
X60749Y-32830D01*
X60564Y-33056D01*
X60338Y-33243D01*
X60081Y-33382D01*
X59801Y-33469D01*
X59510Y-33499D01*
X59219Y-33473D01*
X58939Y-33390D01*
X58679Y-33255D01*
X58451Y-33071D01*
X58263Y-32847D01*
X58122Y-32590D01*
X58033Y-32311D01*
X58001Y-32020D01*
X58025Y-31730D01*
X58106Y-31448D01*
X58240Y-31188D01*
X58421Y-30959D01*
X58644Y-30769D01*
X58900Y-30626D01*
X59178Y-30535D01*
X59469Y-30501D01*
X59760Y-30523D01*
X60042Y-30602D01*
X60303Y-30734D01*
X60534Y-30914D01*
X60725Y-31136D01*
X60870Y-31390D01*
X60962Y-31668D01*
X60999Y-31959D01*
X61000Y-32000D01*
X50400Y-23400D02*
X50100Y-23400D01*
X50100Y-23400D02*
X50100Y-26800D01*
X50100Y-26800D02*
X50400Y-26800D01*
X51600Y-23400D02*
X51600Y-26800D01*
X55400Y-23400D02*
X55400Y-26800D01*
X50400Y-26800D02*
X55400Y-26800D01*
X50400Y-23400D02*
X55400Y-23400D01*
X50400Y-28100D02*
X50100Y-28100D01*
X50100Y-28100D02*
X50100Y-31500D01*
X50100Y-31500D02*
X50400Y-31500D01*
X51600Y-28100D02*
X51600Y-31500D01*
X55400Y-28100D02*
X55400Y-31500D01*
X50400Y-31500D02*
X55400Y-31500D01*
X50400Y-28100D02*
X55400Y-28100D01*
G54D14*
X65861Y-25039D02*
X65939Y-25039D01*
X65939Y-25039D02*
X65939Y-24961D01*
X65861Y-24961D02*
X65939Y-24961D01*
X65861Y-25039D02*
X65861Y-24961D01*
X66077Y-25275D02*
X66214Y-25275D01*
X66214Y-25275D02*
X66214Y-25177D01*
X66077Y-25177D02*
X66214Y-25177D01*
X66077Y-25275D02*
X66077Y-25177D01*
X66214Y-25275D02*
X66254Y-25275D01*
X66254Y-25275D02*
X66254Y-24804D01*
X66214Y-24804D02*
X66254Y-24804D01*
X66214Y-25275D02*
X66214Y-24804D01*
X66214Y-24784D02*
X66254Y-24784D01*
X66254Y-24784D02*
X66254Y-24725D01*
X66214Y-24725D02*
X66254Y-24725D01*
X66214Y-24784D02*
X66214Y-24725D01*
X65546Y-25275D02*
X65586Y-25275D01*
X65586Y-25275D02*
X65586Y-24804D01*
X65546Y-24804D02*
X65586Y-24804D01*
X65546Y-25275D02*
X65546Y-24804D01*
X65546Y-24784D02*
X65586Y-24784D01*
X65586Y-24784D02*
X65586Y-24725D01*
X65546Y-24725D02*
X65586Y-24725D01*
X65546Y-24784D02*
X65546Y-24725D01*
X66077Y-25275D02*
X66136Y-25275D01*
X66136Y-25275D02*
X66136Y-25177D01*
X66077Y-25177D02*
X66136Y-25177D01*
X66077Y-25275D02*
X66077Y-25177D01*
G54D15*
X66510Y-25295D02*
X65290Y-25295D01*
X65290Y-25295D02*
X65290Y-24705D01*
X65290Y-24705D02*
X66510Y-24705D01*
X66510Y-24705D02*
X66510Y-25295D01*
X65686Y-25196D02*
X65704Y-25214D01*
X65723Y-25230D01*
X65744Y-25245D01*
X65766Y-25257D01*
X65789Y-25268D01*
X65813Y-25277D01*
X65837Y-25283D01*
X65862Y-25288D01*
X65887Y-25290D01*
X65912Y-25290D01*
X65937Y-25288D01*
X65962Y-25284D01*
X65987Y-25277D01*
X66010Y-25269D01*
X66033Y-25258D01*
X66055Y-25245D01*
X66076Y-25231D01*
X66096Y-25214D01*
X66114Y-25196D01*
X66115Y-25195D01*
X65685Y-24805D02*
X65669Y-24824D01*
X65655Y-24845D01*
X65642Y-24867D01*
X65631Y-24890D01*
X65623Y-24914D01*
X65616Y-24939D01*
X65612Y-24964D01*
X65610Y-24989D01*
X65610Y-25013D01*
X65612Y-25038D01*
X65617Y-25063D01*
X65623Y-25088D01*
X65632Y-25112D01*
X65643Y-25135D01*
X65656Y-25157D01*
X65670Y-25177D01*
X65685Y-25195D01*
X66114Y-24804D02*
X66096Y-24786D01*
X66077Y-24770D01*
X66056Y-24755D01*
X66034Y-24743D01*
X66011Y-24732D01*
X65987Y-24723D01*
X65963Y-24717D01*
X65938Y-24712D01*
X65913Y-24710D01*
X65888Y-24710D01*
X65863Y-24712D01*
X65838Y-24716D01*
X65813Y-24723D01*
X65790Y-24731D01*
X65767Y-24742D01*
X65745Y-24755D01*
X65724Y-24769D01*
X65704Y-24786D01*
X65686Y-24804D01*
X65685Y-24805D01*
X66115Y-25195D02*
X66131Y-25176D01*
X66145Y-25155D01*
X66158Y-25133D01*
X66169Y-25110D01*
X66177Y-25086D01*
X66184Y-25061D01*
X66188Y-25036D01*
X66190Y-25011D01*
X66190Y-24987D01*
X66188Y-24962D01*
X66183Y-24937D01*
X66177Y-24912D01*
X66168Y-24888D01*
X66157Y-24865D01*
X66144Y-24843D01*
X66130Y-24823D01*
X66115Y-24805D01*
G54D14*
X65861Y-26139D02*
X65939Y-26139D01*
X65939Y-26139D02*
X65939Y-26061D01*
X65861Y-26061D02*
X65939Y-26061D01*
X65861Y-26139D02*
X65861Y-26061D01*
X66077Y-26375D02*
X66214Y-26375D01*
X66214Y-26375D02*
X66214Y-26277D01*
X66077Y-26277D02*
X66214Y-26277D01*
X66077Y-26375D02*
X66077Y-26277D01*
X66214Y-26375D02*
X66254Y-26375D01*
X66254Y-26375D02*
X66254Y-25904D01*
X66214Y-25904D02*
X66254Y-25904D01*
X66214Y-26375D02*
X66214Y-25904D01*
X66214Y-25884D02*
X66254Y-25884D01*
X66254Y-25884D02*
X66254Y-25825D01*
X66214Y-25825D02*
X66254Y-25825D01*
X66214Y-25884D02*
X66214Y-25825D01*
X65546Y-26375D02*
X65586Y-26375D01*
X65586Y-26375D02*
X65586Y-25904D01*
X65546Y-25904D02*
X65586Y-25904D01*
X65546Y-26375D02*
X65546Y-25904D01*
X65546Y-25884D02*
X65586Y-25884D01*
X65586Y-25884D02*
X65586Y-25825D01*
X65546Y-25825D02*
X65586Y-25825D01*
X65546Y-25884D02*
X65546Y-25825D01*
X66077Y-26375D02*
X66136Y-26375D01*
X66136Y-26375D02*
X66136Y-26277D01*
X66077Y-26277D02*
X66136Y-26277D01*
X66077Y-26375D02*
X66077Y-26277D01*
G54D15*
X66510Y-26395D02*
X65290Y-26395D01*
X65290Y-26395D02*
X65290Y-25805D01*
X65290Y-25805D02*
X66510Y-25805D01*
X66510Y-25805D02*
X66510Y-26395D01*
X65686Y-26296D02*
X65704Y-26314D01*
X65723Y-26330D01*
X65744Y-26345D01*
X65766Y-26357D01*
X65789Y-26368D01*
X65813Y-26377D01*
X65837Y-26383D01*
X65862Y-26388D01*
X65887Y-26390D01*
X65912Y-26390D01*
X65937Y-26388D01*
X65962Y-26384D01*
X65987Y-26377D01*
X66010Y-26369D01*
X66033Y-26358D01*
X66055Y-26345D01*
X66076Y-26331D01*
X66096Y-26314D01*
X66114Y-26296D01*
X66115Y-26295D01*
X65685Y-25905D02*
X65669Y-25924D01*
X65655Y-25945D01*
X65642Y-25967D01*
X65631Y-25990D01*
X65623Y-26014D01*
X65616Y-26039D01*
X65612Y-26064D01*
X65610Y-26089D01*
X65610Y-26113D01*
X65612Y-26138D01*
X65617Y-26163D01*
X65623Y-26188D01*
X65632Y-26212D01*
X65643Y-26235D01*
X65656Y-26257D01*
X65670Y-26277D01*
X65685Y-26295D01*
X66114Y-25904D02*
X66096Y-25886D01*
X66077Y-25870D01*
X66056Y-25855D01*
X66034Y-25843D01*
X66011Y-25832D01*
X65987Y-25823D01*
X65963Y-25817D01*
X65938Y-25812D01*
X65913Y-25810D01*
X65888Y-25810D01*
X65863Y-25812D01*
X65838Y-25816D01*
X65813Y-25823D01*
X65790Y-25831D01*
X65767Y-25842D01*
X65745Y-25855D01*
X65724Y-25869D01*
X65704Y-25886D01*
X65686Y-25904D01*
X65685Y-25905D01*
X66115Y-26295D02*
X66131Y-26276D01*
X66145Y-26255D01*
X66158Y-26233D01*
X66169Y-26210D01*
X66177Y-26186D01*
X66184Y-26161D01*
X66188Y-26136D01*
X66190Y-26111D01*
X66190Y-26087D01*
X66188Y-26062D01*
X66183Y-26037D01*
X66177Y-26012D01*
X66168Y-25988D01*
X66157Y-25965D01*
X66144Y-25943D01*
X66130Y-25923D01*
X66115Y-25905D01*
G54D14*
X65861Y-27139D02*
X65939Y-27139D01*
X65939Y-27139D02*
X65939Y-27061D01*
X65861Y-27061D02*
X65939Y-27061D01*
X65861Y-27139D02*
X65861Y-27061D01*
X66077Y-27375D02*
X66214Y-27375D01*
X66214Y-27375D02*
X66214Y-27277D01*
X66077Y-27277D02*
X66214Y-27277D01*
X66077Y-27375D02*
X66077Y-27277D01*
X66214Y-27375D02*
X66254Y-27375D01*
X66254Y-27375D02*
X66254Y-26904D01*
X66214Y-26904D02*
X66254Y-26904D01*
X66214Y-27375D02*
X66214Y-26904D01*
X66214Y-26884D02*
X66254Y-26884D01*
X66254Y-26884D02*
X66254Y-26825D01*
X66214Y-26825D02*
X66254Y-26825D01*
X66214Y-26884D02*
X66214Y-26825D01*
X65546Y-27375D02*
X65586Y-27375D01*
X65586Y-27375D02*
X65586Y-26904D01*
X65546Y-26904D02*
X65586Y-26904D01*
X65546Y-27375D02*
X65546Y-26904D01*
X65546Y-26884D02*
X65586Y-26884D01*
X65586Y-26884D02*
X65586Y-26825D01*
X65546Y-26825D02*
X65586Y-26825D01*
X65546Y-26884D02*
X65546Y-26825D01*
X66077Y-27375D02*
X66136Y-27375D01*
X66136Y-27375D02*
X66136Y-27277D01*
X66077Y-27277D02*
X66136Y-27277D01*
X66077Y-27375D02*
X66077Y-27277D01*
G54D15*
X66510Y-27395D02*
X65290Y-27395D01*
X65290Y-27395D02*
X65290Y-26805D01*
X65290Y-26805D02*
X66510Y-26805D01*
X66510Y-26805D02*
X66510Y-27395D01*
X65686Y-27296D02*
X65704Y-27314D01*
X65723Y-27330D01*
X65744Y-27345D01*
X65766Y-27357D01*
X65789Y-27368D01*
X65813Y-27377D01*
X65837Y-27383D01*
X65862Y-27388D01*
X65887Y-27390D01*
X65912Y-27390D01*
X65937Y-27388D01*
X65962Y-27384D01*
X65987Y-27377D01*
X66010Y-27369D01*
X66033Y-27358D01*
X66055Y-27345D01*
X66076Y-27331D01*
X66096Y-27314D01*
X66114Y-27296D01*
X66115Y-27295D01*
X65685Y-26905D02*
X65669Y-26924D01*
X65655Y-26945D01*
X65642Y-26967D01*
X65631Y-26990D01*
X65623Y-27014D01*
X65616Y-27039D01*
X65612Y-27064D01*
X65610Y-27089D01*
X65610Y-27113D01*
X65612Y-27138D01*
X65617Y-27163D01*
X65623Y-27188D01*
X65632Y-27212D01*
X65643Y-27235D01*
X65656Y-27257D01*
X65670Y-27277D01*
X65685Y-27295D01*
X66114Y-26904D02*
X66096Y-26886D01*
X66077Y-26870D01*
X66056Y-26855D01*
X66034Y-26843D01*
X66011Y-26832D01*
X65987Y-26823D01*
X65963Y-26817D01*
X65938Y-26812D01*
X65913Y-26810D01*
X65888Y-26810D01*
X65863Y-26812D01*
X65838Y-26816D01*
X65813Y-26823D01*
X65790Y-26831D01*
X65767Y-26842D01*
X65745Y-26855D01*
X65724Y-26869D01*
X65704Y-26886D01*
X65686Y-26904D01*
X65685Y-26905D01*
X66115Y-27295D02*
X66131Y-27276D01*
X66145Y-27255D01*
X66158Y-27233D01*
X66169Y-27210D01*
X66177Y-27186D01*
X66184Y-27161D01*
X66188Y-27136D01*
X66190Y-27111D01*
X66190Y-27087D01*
X66188Y-27062D01*
X66183Y-27037D01*
X66177Y-27012D01*
X66168Y-26988D01*
X66157Y-26965D01*
X66144Y-26943D01*
X66130Y-26923D01*
X66115Y-26905D01*
G54D14*
X65861Y-28039D02*
X65939Y-28039D01*
X65939Y-28039D02*
X65939Y-27961D01*
X65861Y-27961D02*
X65939Y-27961D01*
X65861Y-28039D02*
X65861Y-27961D01*
X66077Y-28275D02*
X66214Y-28275D01*
X66214Y-28275D02*
X66214Y-28177D01*
X66077Y-28177D02*
X66214Y-28177D01*
X66077Y-28275D02*
X66077Y-28177D01*
X66214Y-28275D02*
X66254Y-28275D01*
X66254Y-28275D02*
X66254Y-27804D01*
X66214Y-27804D02*
X66254Y-27804D01*
X66214Y-28275D02*
X66214Y-27804D01*
X66214Y-27784D02*
X66254Y-27784D01*
X66254Y-27784D02*
X66254Y-27725D01*
X66214Y-27725D02*
X66254Y-27725D01*
X66214Y-27784D02*
X66214Y-27725D01*
X65546Y-28275D02*
X65586Y-28275D01*
X65586Y-28275D02*
X65586Y-27804D01*
X65546Y-27804D02*
X65586Y-27804D01*
X65546Y-28275D02*
X65546Y-27804D01*
X65546Y-27784D02*
X65586Y-27784D01*
X65586Y-27784D02*
X65586Y-27725D01*
X65546Y-27725D02*
X65586Y-27725D01*
X65546Y-27784D02*
X65546Y-27725D01*
X66077Y-28275D02*
X66136Y-28275D01*
X66136Y-28275D02*
X66136Y-28177D01*
X66077Y-28177D02*
X66136Y-28177D01*
X66077Y-28275D02*
X66077Y-28177D01*
G54D15*
X66510Y-28295D02*
X65290Y-28295D01*
X65290Y-28295D02*
X65290Y-27705D01*
X65290Y-27705D02*
X66510Y-27705D01*
X66510Y-27705D02*
X66510Y-28295D01*
X65686Y-28196D02*
X65704Y-28214D01*
X65723Y-28230D01*
X65744Y-28245D01*
X65766Y-28257D01*
X65789Y-28268D01*
X65813Y-28277D01*
X65837Y-28283D01*
X65862Y-28288D01*
X65887Y-28290D01*
X65912Y-28290D01*
X65937Y-28288D01*
X65962Y-28284D01*
X65987Y-28277D01*
X66010Y-28269D01*
X66033Y-28258D01*
X66055Y-28245D01*
X66076Y-28231D01*
X66096Y-28214D01*
X66114Y-28196D01*
X66115Y-28195D01*
X65685Y-27805D02*
X65669Y-27824D01*
X65655Y-27845D01*
X65642Y-27867D01*
X65631Y-27890D01*
X65623Y-27914D01*
X65616Y-27939D01*
X65612Y-27964D01*
X65610Y-27989D01*
X65610Y-28013D01*
X65612Y-28038D01*
X65617Y-28063D01*
X65623Y-28088D01*
X65632Y-28112D01*
X65643Y-28135D01*
X65656Y-28157D01*
X65670Y-28177D01*
X65685Y-28195D01*
X66114Y-27804D02*
X66096Y-27786D01*
X66077Y-27770D01*
X66056Y-27755D01*
X66034Y-27743D01*
X66011Y-27732D01*
X65987Y-27723D01*
X65963Y-27717D01*
X65938Y-27712D01*
X65913Y-27710D01*
X65888Y-27710D01*
X65863Y-27712D01*
X65838Y-27716D01*
X65813Y-27723D01*
X65790Y-27731D01*
X65767Y-27742D01*
X65745Y-27755D01*
X65724Y-27769D01*
X65704Y-27786D01*
X65686Y-27804D01*
X65685Y-27805D01*
X66115Y-28195D02*
X66131Y-28176D01*
X66145Y-28155D01*
X66158Y-28133D01*
X66169Y-28110D01*
X66177Y-28086D01*
X66184Y-28061D01*
X66188Y-28036D01*
X66190Y-28011D01*
X66190Y-27987D01*
X66188Y-27962D01*
X66183Y-27937D01*
X66177Y-27912D01*
X66168Y-27888D01*
X66157Y-27865D01*
X66144Y-27843D01*
X66130Y-27823D01*
X66115Y-27805D01*
G54D14*
X59661Y-26961D02*
X59661Y-27039D01*
X59661Y-27039D02*
X59739Y-27039D01*
X59739Y-26961D02*
X59739Y-27039D01*
X59661Y-26961D02*
X59739Y-26961D01*
X59425Y-27177D02*
X59425Y-27314D01*
X59425Y-27314D02*
X59523Y-27314D01*
X59523Y-27177D02*
X59523Y-27314D01*
X59425Y-27177D02*
X59523Y-27177D01*
X59425Y-27314D02*
X59425Y-27354D01*
X59425Y-27354D02*
X59896Y-27354D01*
X59896Y-27314D02*
X59896Y-27354D01*
X59425Y-27314D02*
X59896Y-27314D01*
X59916Y-27314D02*
X59916Y-27354D01*
X59916Y-27354D02*
X59975Y-27354D01*
X59975Y-27314D02*
X59975Y-27354D01*
X59916Y-27314D02*
X59975Y-27314D01*
X59425Y-26646D02*
X59425Y-26686D01*
X59425Y-26686D02*
X59896Y-26686D01*
X59896Y-26646D02*
X59896Y-26686D01*
X59425Y-26646D02*
X59896Y-26646D01*
X59916Y-26646D02*
X59916Y-26686D01*
X59916Y-26686D02*
X59975Y-26686D01*
X59975Y-26646D02*
X59975Y-26686D01*
X59916Y-26646D02*
X59975Y-26646D01*
X59425Y-27177D02*
X59425Y-27236D01*
X59425Y-27236D02*
X59523Y-27236D01*
X59523Y-27177D02*
X59523Y-27236D01*
X59425Y-27177D02*
X59523Y-27177D01*
G54D15*
X59405Y-27610D02*
X59405Y-26390D01*
X59405Y-26390D02*
X59995Y-26390D01*
X59995Y-26390D02*
X59995Y-27610D01*
X59995Y-27610D02*
X59405Y-27610D01*
X59504Y-26786D02*
X59486Y-26804D01*
X59470Y-26823D01*
X59455Y-26844D01*
X59443Y-26866D01*
X59432Y-26889D01*
X59423Y-26913D01*
X59417Y-26937D01*
X59412Y-26962D01*
X59410Y-26987D01*
X59410Y-27012D01*
X59412Y-27037D01*
X59416Y-27062D01*
X59423Y-27087D01*
X59431Y-27110D01*
X59442Y-27133D01*
X59455Y-27155D01*
X59469Y-27176D01*
X59486Y-27196D01*
X59504Y-27214D01*
X59505Y-27215D01*
X59895Y-26785D02*
X59876Y-26769D01*
X59855Y-26755D01*
X59833Y-26742D01*
X59810Y-26731D01*
X59786Y-26723D01*
X59761Y-26716D01*
X59736Y-26712D01*
X59711Y-26710D01*
X59687Y-26710D01*
X59662Y-26712D01*
X59637Y-26717D01*
X59612Y-26723D01*
X59588Y-26732D01*
X59565Y-26743D01*
X59543Y-26756D01*
X59523Y-26770D01*
X59505Y-26785D01*
X59896Y-27214D02*
X59914Y-27196D01*
X59930Y-27177D01*
X59945Y-27156D01*
X59957Y-27134D01*
X59968Y-27111D01*
X59977Y-27087D01*
X59983Y-27063D01*
X59988Y-27038D01*
X59990Y-27013D01*
X59990Y-26988D01*
X59988Y-26963D01*
X59984Y-26938D01*
X59977Y-26913D01*
X59969Y-26890D01*
X59958Y-26867D01*
X59945Y-26845D01*
X59931Y-26824D01*
X59914Y-26804D01*
X59896Y-26786D01*
X59895Y-26785D01*
X59505Y-27215D02*
X59524Y-27231D01*
X59545Y-27245D01*
X59567Y-27258D01*
X59590Y-27269D01*
X59614Y-27277D01*
X59639Y-27284D01*
X59664Y-27288D01*
X59689Y-27290D01*
X59713Y-27290D01*
X59738Y-27288D01*
X59763Y-27283D01*
X59788Y-27277D01*
X59812Y-27268D01*
X59835Y-27257D01*
X59857Y-27244D01*
X59877Y-27230D01*
X59895Y-27215D01*
G54D16*
X58350Y-22250D02*
X58600Y-22250D01*
X58600Y-22250D02*
X58600Y-25750D01*
X58600Y-25750D02*
X58350Y-25750D01*
X56850Y-22250D02*
X58350Y-22250D01*
X58350Y-22250D02*
X58350Y-25750D01*
X58350Y-25750D02*
X56850Y-25750D01*
X56850Y-25750D02*
X56850Y-22250D01*
G54D17*
X50100Y-45100D02*
X50100Y-51100D01*
X50100Y-51100D02*
X57200Y-51100D01*
X57200Y-51100D02*
X57200Y-45100D01*
X57200Y-45100D02*
X50100Y-45100D01*
X50100Y-38600D02*
X50100Y-44600D01*
X50100Y-44600D02*
X57200Y-44600D01*
X57200Y-44600D02*
X57200Y-38600D01*
X57200Y-38600D02*
X50100Y-38600D01*
G54D18*
X65100Y-23500D02*
X66100Y-23500D01*
X65100Y-22500D02*
X66100Y-22500D01*
G54D12*
X65100Y-23500D02*
X65100Y-22500D01*
X66100Y-22500D02*
X66100Y-23500D01*
G54D18*
X65100Y-24500D02*
X66100Y-24500D01*
X65100Y-23500D02*
X66100Y-23500D01*
G54D12*
X65100Y-24500D02*
X65100Y-23500D01*
X66100Y-23500D02*
X66100Y-24500D01*
G54D18*
X65100Y-33500D02*
X66100Y-33500D01*
X65100Y-32500D02*
X66100Y-32500D01*
G54D12*
X65100Y-33500D02*
X65100Y-32500D01*
X66100Y-32500D02*
X66100Y-33500D01*
G54D18*
X62000Y-36500D02*
X63000Y-36500D01*
X62000Y-35500D02*
X63000Y-35500D01*
G54D12*
X62000Y-36500D02*
X62000Y-35500D01*
X63000Y-35500D02*
X63000Y-36500D01*
G54D18*
X59900Y-30300D02*
X60900Y-30300D01*
X59900Y-29300D02*
X60900Y-29300D01*
G54D12*
X59900Y-30300D02*
X59900Y-29300D01*
X60900Y-29300D02*
X60900Y-30300D01*
G54D18*
X68300Y-25100D02*
X69300Y-25100D01*
X68300Y-24100D02*
X69300Y-24100D01*
G54D12*
X68300Y-25100D02*
X68300Y-24100D01*
X69300Y-24100D02*
X69300Y-25100D01*
G54D17*
X51950Y-37250D02*
X51949Y-37259D01*
X51946Y-37269D01*
X51941Y-37277D01*
X51935Y-37285D01*
X51927Y-37291D01*
X51919Y-37296D01*
X51910Y-37298D01*
X51900Y-37299D01*
X51891Y-37299D01*
X51882Y-37296D01*
X51873Y-37291D01*
X51866Y-37285D01*
X51859Y-37278D01*
X51855Y-37269D01*
X51852Y-37260D01*
X51851Y-37250D01*
X51851Y-37241D01*
X51854Y-37232D01*
X51858Y-37223D01*
X51865Y-37216D01*
X51872Y-37209D01*
X51880Y-37205D01*
X51890Y-37202D01*
X51899Y-37201D01*
X51908Y-37201D01*
X51918Y-37204D01*
X51926Y-37208D01*
X51934Y-37214D01*
X51940Y-37222D01*
X51945Y-37230D01*
X51948Y-37239D01*
X51949Y-37249D01*
X51950Y-37250D01*
X51900Y-36800D02*
X51900Y-37200D01*
X51900Y-37200D02*
X51300Y-37200D01*
X51300Y-37200D02*
X51300Y-36800D01*
X51300Y-36400D02*
X51300Y-36000D01*
X51300Y-36000D02*
X51900Y-36000D01*
X51900Y-36000D02*
X51900Y-36400D01*
X60850Y-27650D02*
X60849Y-27659D01*
X60846Y-27669D01*
X60841Y-27677D01*
X60835Y-27685D01*
X60827Y-27691D01*
X60819Y-27696D01*
X60810Y-27698D01*
X60800Y-27699D01*
X60791Y-27699D01*
X60782Y-27696D01*
X60773Y-27691D01*
X60766Y-27685D01*
X60759Y-27678D01*
X60755Y-27669D01*
X60752Y-27660D01*
X60751Y-27650D01*
X60751Y-27641D01*
X60754Y-27632D01*
X60758Y-27623D01*
X60765Y-27616D01*
X60772Y-27609D01*
X60780Y-27605D01*
X60790Y-27602D01*
X60799Y-27601D01*
X60808Y-27601D01*
X60818Y-27604D01*
X60826Y-27608D01*
X60834Y-27614D01*
X60840Y-27622D01*
X60845Y-27630D01*
X60848Y-27639D01*
X60849Y-27649D01*
X60850Y-27650D01*
X60800Y-27200D02*
X60800Y-27600D01*
X60800Y-27600D02*
X60200Y-27600D01*
X60200Y-27600D02*
X60200Y-27200D01*
X60200Y-26800D02*
X60200Y-26400D01*
X60200Y-26400D02*
X60800Y-26400D01*
X60800Y-26400D02*
X60800Y-26800D01*
X60100Y-29050D02*
X60100Y-28150D01*
X60100Y-28150D02*
X59450Y-28150D01*
X58750Y-29050D02*
X58100Y-29050D01*
X58100Y-29050D02*
X58100Y-28150D01*
X58100Y-28150D02*
X58750Y-28150D01*
X59450Y-29050D02*
X60100Y-29050D01*
X58150Y-28000D02*
X59050Y-28000D01*
X59050Y-28000D02*
X59050Y-27350D01*
X58150Y-26650D02*
X58150Y-26000D01*
X58150Y-26000D02*
X59050Y-26000D01*
X59050Y-26000D02*
X59050Y-26650D01*
X58150Y-27350D02*
X58150Y-28000D01*
G54D16*
X60100Y-36800D02*
X59600Y-36800D01*
X59600Y-36800D02*
X59600Y-35800D01*
X59600Y-35800D02*
X60100Y-35800D01*
X60100Y-37300D02*
X56100Y-37300D01*
X56100Y-37300D02*
X56100Y-35300D01*
X56100Y-35300D02*
X60100Y-35300D01*
X60100Y-35300D02*
X60100Y-37300D01*
G54D13*
X63400Y-37800D02*
X63400Y-52800D01*
X63400Y-52800D02*
X61400Y-52800D01*
X61400Y-52800D02*
X61400Y-37800D01*
X61400Y-37800D02*
X63400Y-37800D01*
X62900Y-37800D02*
X62900Y-38300D01*
X62900Y-38300D02*
X61900Y-38300D01*
X61900Y-38300D02*
X61900Y-37800D01*
X70200Y-37800D02*
X70200Y-52800D01*
X70200Y-52800D02*
X68200Y-52800D01*
X68200Y-52800D02*
X68200Y-37800D01*
X68200Y-37800D02*
X70200Y-37800D01*
X69700Y-37800D02*
X69700Y-38300D01*
X69700Y-38300D02*
X68700Y-38300D01*
X68700Y-38300D02*
X68700Y-37800D01*
X68200Y-37000D02*
X68200Y-22000D01*
X68200Y-22000D02*
X70200Y-22000D01*
X70200Y-22000D02*
X70200Y-37000D01*
X70200Y-37000D02*
X68200Y-37000D01*
X68700Y-37000D02*
X68700Y-36500D01*
X68700Y-36500D02*
X69700Y-36500D01*
X69700Y-36500D02*
X69700Y-37000D01*
X73100Y-52300D02*
X73082Y-52474D01*
X73032Y-52642D01*
X72949Y-52798D01*
X72838Y-52934D01*
X72703Y-53046D01*
X72548Y-53129D01*
X72380Y-53181D01*
X72206Y-53199D01*
X72032Y-53184D01*
X71863Y-53134D01*
X71708Y-53053D01*
X71571Y-52943D01*
X71458Y-52808D01*
X71373Y-52654D01*
X71320Y-52487D01*
X71301Y-52312D01*
X71315Y-52138D01*
X71364Y-51969D01*
X71444Y-51813D01*
X71553Y-51675D01*
X71687Y-51561D01*
X71840Y-51476D01*
X72007Y-51421D01*
X72182Y-51401D01*
X72356Y-51414D01*
X72525Y-51461D01*
X72682Y-51541D01*
X72820Y-51649D01*
X72935Y-51782D01*
X73022Y-51934D01*
X73077Y-52101D01*
X73099Y-52275D01*
X73100Y-52300D01*
X51900Y-52300D02*
X51882Y-52474D01*
X51832Y-52642D01*
X51749Y-52798D01*
X51638Y-52934D01*
X51503Y-53046D01*
X51348Y-53129D01*
X51180Y-53181D01*
X51006Y-53199D01*
X50832Y-53184D01*
X50663Y-53134D01*
X50508Y-53053D01*
X50371Y-52943D01*
X50258Y-52808D01*
X50173Y-52654D01*
X50120Y-52487D01*
X50101Y-52312D01*
X50115Y-52138D01*
X50164Y-51969D01*
X50244Y-51813D01*
X50353Y-51675D01*
X50487Y-51561D01*
X50640Y-51476D01*
X50807Y-51421D01*
X50982Y-51401D01*
X51156Y-51414D01*
X51325Y-51461D01*
X51482Y-51541D01*
X51620Y-51649D01*
X51735Y-51782D01*
X51822Y-51934D01*
X51877Y-52101D01*
X51899Y-52275D01*
X51900Y-52300D01*
X73100Y-22200D02*
X73082Y-22374D01*
X73032Y-22542D01*
X72949Y-22698D01*
X72838Y-22834D01*
X72703Y-22946D01*
X72548Y-23029D01*
X72380Y-23081D01*
X72206Y-23099D01*
X72032Y-23084D01*
X71863Y-23034D01*
X71708Y-22953D01*
X71571Y-22843D01*
X71458Y-22708D01*
X71373Y-22554D01*
X71320Y-22387D01*
X71301Y-22212D01*
X71315Y-22038D01*
X71364Y-21869D01*
X71444Y-21713D01*
X71553Y-21575D01*
X71687Y-21461D01*
X71840Y-21376D01*
X72007Y-21321D01*
X72182Y-21301D01*
X72356Y-21314D01*
X72525Y-21361D01*
X72682Y-21441D01*
X72820Y-21549D01*
X72935Y-21682D01*
X73022Y-21834D01*
X73077Y-22001D01*
X73099Y-22175D01*
X73100Y-22200D01*
X51900Y-22200D02*
X51882Y-22374D01*
X51832Y-22542D01*
X51749Y-22698D01*
X51638Y-22834D01*
X51503Y-22946D01*
X51348Y-23029D01*
X51180Y-23081D01*
X51006Y-23099D01*
X50832Y-23084D01*
X50663Y-23034D01*
X50508Y-22953D01*
X50371Y-22843D01*
X50258Y-22708D01*
X50173Y-22554D01*
X50120Y-22387D01*
X50101Y-22212D01*
X50115Y-22038D01*
X50164Y-21869D01*
X50244Y-21713D01*
X50353Y-21575D01*
X50487Y-21461D01*
X50640Y-21376D01*
X50807Y-21321D01*
X50982Y-21301D01*
X51156Y-21314D01*
X51325Y-21361D01*
X51482Y-21441D01*
X51620Y-21549D01*
X51735Y-21682D01*
X51822Y-21834D01*
X51877Y-22001D01*
X51899Y-22175D01*
X51900Y-22200D01*
X50900Y-37900D02*
X51100Y-37900D01*
X51100Y-37900D02*
X51100Y-34600D01*
X51100Y-34600D02*
X50900Y-34600D01*
X50100Y-37400D02*
X50100Y-38100D01*
X50100Y-38100D02*
X51200Y-38100D01*
X50100Y-37400D02*
X50100Y-35200D01*
X50100Y-35200D02*
X50100Y-34400D01*
X50100Y-34400D02*
X51100Y-34400D01*
G54D11*
X54043Y-35121D02*
X54043Y-34821D01*
X54158Y-34821D01*
X54186Y-34836D01*
X54201Y-34850D01*
X54215Y-34879D01*
X54215Y-34921D01*
X54201Y-34950D01*
X54186Y-34964D01*
X54158Y-34979D01*
X54043Y-34979D01*
X54486Y-35121D02*
X54343Y-35121D01*
X54343Y-34821D01*
X54586Y-34964D02*
X54686Y-34964D01*
X54729Y-35121D02*
X54586Y-35121D01*
X54586Y-34821D01*
X54729Y-34821D01*
X54857Y-35121D02*
X54857Y-34821D01*
X54929Y-34821D01*
X54972Y-34836D01*
X55000Y-34864D01*
X55015Y-34893D01*
X55029Y-34950D01*
X55029Y-34993D01*
X55015Y-35050D01*
X55000Y-35079D01*
X54972Y-35107D01*
X54929Y-35121D01*
X54857Y-35121D01*
X55115Y-34821D02*
X55215Y-35121D01*
X55315Y-34821D01*
X55586Y-35093D02*
X55572Y-35107D01*
X55529Y-35121D01*
X55500Y-35121D01*
X55457Y-35107D01*
X55429Y-35079D01*
X55414Y-35050D01*
X55400Y-34993D01*
X55400Y-34950D01*
X55414Y-34893D01*
X55429Y-34864D01*
X55457Y-34836D01*
X55500Y-34821D01*
X55529Y-34821D01*
X55572Y-34836D01*
X55586Y-34850D01*
X55886Y-35093D02*
X55872Y-35107D01*
X55829Y-35121D01*
X55800Y-35121D01*
X55757Y-35107D01*
X55729Y-35079D01*
X55714Y-35050D01*
X55700Y-34993D01*
X55700Y-34950D01*
X55714Y-34893D01*
X55729Y-34864D01*
X55757Y-34836D01*
X55800Y-34821D01*
X55829Y-34821D01*
X55872Y-34836D01*
X55886Y-34850D01*
X56143Y-34921D02*
X56143Y-35121D01*
X56072Y-34807D02*
X56000Y-35021D01*
X56186Y-35021D01*
X51943Y-36921D02*
X51943Y-36621D01*
X52058Y-36621D01*
X52086Y-36636D01*
X52101Y-36650D01*
X52115Y-36679D01*
X52115Y-36721D01*
X52101Y-36750D01*
X52086Y-36764D01*
X52058Y-36779D01*
X51943Y-36779D01*
X52386Y-36921D02*
X52243Y-36921D01*
X52243Y-36621D01*
X52486Y-36764D02*
X52586Y-36764D01*
X52629Y-36921D02*
X52486Y-36921D01*
X52486Y-36621D01*
X52629Y-36621D01*
X52757Y-36921D02*
X52757Y-36621D01*
X52829Y-36621D01*
X52872Y-36636D01*
X52900Y-36664D01*
X52915Y-36693D01*
X52929Y-36750D01*
X52929Y-36793D01*
X52915Y-36850D01*
X52900Y-36879D01*
X52872Y-36907D01*
X52829Y-36921D01*
X52757Y-36921D01*
X53015Y-36621D02*
X53115Y-36921D01*
X53215Y-36621D01*
X53486Y-36893D02*
X53472Y-36907D01*
X53429Y-36921D01*
X53400Y-36921D01*
X53357Y-36907D01*
X53329Y-36879D01*
X53314Y-36850D01*
X53300Y-36793D01*
X53300Y-36750D01*
X53314Y-36693D01*
X53329Y-36664D01*
X53357Y-36636D01*
X53400Y-36621D01*
X53429Y-36621D01*
X53472Y-36636D01*
X53486Y-36650D01*
X53786Y-36893D02*
X53772Y-36907D01*
X53729Y-36921D01*
X53700Y-36921D01*
X53657Y-36907D01*
X53629Y-36879D01*
X53614Y-36850D01*
X53600Y-36793D01*
X53600Y-36750D01*
X53614Y-36693D01*
X53629Y-36664D01*
X53657Y-36636D01*
X53700Y-36621D01*
X53729Y-36621D01*
X53772Y-36636D01*
X53786Y-36650D01*
X53886Y-36621D02*
X54072Y-36621D01*
X53972Y-36736D01*
X54014Y-36736D01*
X54043Y-36750D01*
X54057Y-36764D01*
X54072Y-36793D01*
X54072Y-36864D01*
X54057Y-36893D01*
X54043Y-36907D01*
X54014Y-36921D01*
X53929Y-36921D01*
X53900Y-36907D01*
X53886Y-36893D01*
X51943Y-34821D02*
X51943Y-34521D01*
X52058Y-34521D01*
X52086Y-34536D01*
X52101Y-34550D01*
X52115Y-34579D01*
X52115Y-34621D01*
X52101Y-34650D01*
X52086Y-34664D01*
X52058Y-34679D01*
X51943Y-34679D01*
X52386Y-34821D02*
X52243Y-34821D01*
X52243Y-34521D01*
X52486Y-34664D02*
X52586Y-34664D01*
X52629Y-34821D02*
X52486Y-34821D01*
X52486Y-34521D01*
X52629Y-34521D01*
X52757Y-34821D02*
X52757Y-34521D01*
X52829Y-34521D01*
X52872Y-34536D01*
X52900Y-34564D01*
X52915Y-34593D01*
X52929Y-34650D01*
X52929Y-34693D01*
X52915Y-34750D01*
X52900Y-34779D01*
X52872Y-34807D01*
X52829Y-34821D01*
X52757Y-34821D01*
X53015Y-34521D02*
X53115Y-34821D01*
X53215Y-34521D01*
X53486Y-34793D02*
X53472Y-34807D01*
X53429Y-34821D01*
X53400Y-34821D01*
X53357Y-34807D01*
X53329Y-34779D01*
X53314Y-34750D01*
X53300Y-34693D01*
X53300Y-34650D01*
X53314Y-34593D01*
X53329Y-34564D01*
X53357Y-34536D01*
X53400Y-34521D01*
X53429Y-34521D01*
X53472Y-34536D01*
X53486Y-34550D01*
X53786Y-34793D02*
X53772Y-34807D01*
X53729Y-34821D01*
X53700Y-34821D01*
X53657Y-34807D01*
X53629Y-34779D01*
X53614Y-34750D01*
X53600Y-34693D01*
X53600Y-34650D01*
X53614Y-34593D01*
X53629Y-34564D01*
X53657Y-34536D01*
X53700Y-34521D01*
X53729Y-34521D01*
X53772Y-34536D01*
X53786Y-34550D01*
X53900Y-34550D02*
X53914Y-34536D01*
X53943Y-34521D01*
X54014Y-34521D01*
X54043Y-34536D01*
X54057Y-34550D01*
X54072Y-34579D01*
X54072Y-34607D01*
X54057Y-34650D01*
X53886Y-34821D01*
X54072Y-34821D01*
X50243Y-31921D02*
X50243Y-31621D01*
X50358Y-31621D01*
X50386Y-31636D01*
X50401Y-31650D01*
X50415Y-31679D01*
X50415Y-31721D01*
X50401Y-31750D01*
X50386Y-31764D01*
X50358Y-31779D01*
X50243Y-31779D01*
X50686Y-31921D02*
X50543Y-31921D01*
X50543Y-31621D01*
X50786Y-31764D02*
X50886Y-31764D01*
X50929Y-31921D02*
X50786Y-31921D01*
X50786Y-31621D01*
X50929Y-31621D01*
X51057Y-31921D02*
X51057Y-31621D01*
X51129Y-31621D01*
X51172Y-31636D01*
X51200Y-31664D01*
X51215Y-31693D01*
X51229Y-31750D01*
X51229Y-31793D01*
X51215Y-31850D01*
X51200Y-31879D01*
X51172Y-31907D01*
X51129Y-31921D01*
X51057Y-31921D01*
X51315Y-31621D02*
X51415Y-31921D01*
X51515Y-31621D01*
X51786Y-31893D02*
X51772Y-31907D01*
X51729Y-31921D01*
X51700Y-31921D01*
X51657Y-31907D01*
X51629Y-31879D01*
X51614Y-31850D01*
X51600Y-31793D01*
X51600Y-31750D01*
X51614Y-31693D01*
X51629Y-31664D01*
X51657Y-31636D01*
X51700Y-31621D01*
X51729Y-31621D01*
X51772Y-31636D01*
X51786Y-31650D01*
X52086Y-31893D02*
X52072Y-31907D01*
X52029Y-31921D01*
X52000Y-31921D01*
X51957Y-31907D01*
X51929Y-31879D01*
X51914Y-31850D01*
X51900Y-31793D01*
X51900Y-31750D01*
X51914Y-31693D01*
X51929Y-31664D01*
X51957Y-31636D01*
X52000Y-31621D01*
X52029Y-31621D01*
X52072Y-31636D01*
X52086Y-31650D01*
X52372Y-31921D02*
X52200Y-31921D01*
X52286Y-31921D02*
X52286Y-31621D01*
X52257Y-31664D01*
X52229Y-31693D01*
X52200Y-31707D01*
G54D16*
X58262Y-50762D02*
X58262Y-50362D01*
X58415Y-50362D01*
X58453Y-50381D01*
X58472Y-50400D01*
X58491Y-50438D01*
X58491Y-50495D01*
X58472Y-50533D01*
X58453Y-50552D01*
X58415Y-50571D01*
X58262Y-50571D01*
X58853Y-50762D02*
X58662Y-50762D01*
X58662Y-50362D01*
X58986Y-50552D02*
X59120Y-50552D01*
X59177Y-50762D02*
X58986Y-50762D01*
X58986Y-50362D01*
X59177Y-50362D01*
X59348Y-50762D02*
X59348Y-50362D01*
X59443Y-50362D01*
X59501Y-50381D01*
X59539Y-50419D01*
X59558Y-50457D01*
X59577Y-50533D01*
X59577Y-50590D01*
X59558Y-50667D01*
X59539Y-50705D01*
X59501Y-50743D01*
X59443Y-50762D01*
X59348Y-50762D01*
X59977Y-50762D02*
X59843Y-50571D01*
X59748Y-50762D02*
X59748Y-50362D01*
X59901Y-50362D01*
X59939Y-50381D01*
X59958Y-50400D01*
X59977Y-50438D01*
X59977Y-50495D01*
X59958Y-50533D01*
X59939Y-50552D01*
X59901Y-50571D01*
X59748Y-50571D01*
X60320Y-50495D02*
X60320Y-50762D01*
X60224Y-50343D02*
X60129Y-50629D01*
X60377Y-50629D01*
X58262Y-47762D02*
X58262Y-47362D01*
X58415Y-47362D01*
X58453Y-47381D01*
X58472Y-47400D01*
X58491Y-47438D01*
X58491Y-47495D01*
X58472Y-47533D01*
X58453Y-47552D01*
X58415Y-47571D01*
X58262Y-47571D01*
X58853Y-47762D02*
X58662Y-47762D01*
X58662Y-47362D01*
X58986Y-47552D02*
X59120Y-47552D01*
X59177Y-47762D02*
X58986Y-47762D01*
X58986Y-47362D01*
X59177Y-47362D01*
X59348Y-47762D02*
X59348Y-47362D01*
X59443Y-47362D01*
X59501Y-47381D01*
X59539Y-47419D01*
X59558Y-47457D01*
X59577Y-47533D01*
X59577Y-47590D01*
X59558Y-47667D01*
X59539Y-47705D01*
X59501Y-47743D01*
X59443Y-47762D01*
X59348Y-47762D01*
X59977Y-47762D02*
X59843Y-47571D01*
X59748Y-47762D02*
X59748Y-47362D01*
X59901Y-47362D01*
X59939Y-47381D01*
X59958Y-47400D01*
X59977Y-47438D01*
X59977Y-47495D01*
X59958Y-47533D01*
X59939Y-47552D01*
X59901Y-47571D01*
X59748Y-47571D01*
X60110Y-47362D02*
X60358Y-47362D01*
X60224Y-47514D01*
X60282Y-47514D01*
X60320Y-47533D01*
X60339Y-47552D01*
X60358Y-47590D01*
X60358Y-47686D01*
X60339Y-47724D01*
X60320Y-47743D01*
X60282Y-47762D01*
X60167Y-47762D01*
X60129Y-47743D01*
X60110Y-47724D01*
X58262Y-44762D02*
X58262Y-44362D01*
X58415Y-44362D01*
X58453Y-44381D01*
X58472Y-44400D01*
X58491Y-44438D01*
X58491Y-44495D01*
X58472Y-44533D01*
X58453Y-44552D01*
X58415Y-44571D01*
X58262Y-44571D01*
X58853Y-44762D02*
X58662Y-44762D01*
X58662Y-44362D01*
X58986Y-44552D02*
X59120Y-44552D01*
X59177Y-44762D02*
X58986Y-44762D01*
X58986Y-44362D01*
X59177Y-44362D01*
X59348Y-44762D02*
X59348Y-44362D01*
X59443Y-44362D01*
X59501Y-44381D01*
X59539Y-44419D01*
X59558Y-44457D01*
X59577Y-44533D01*
X59577Y-44590D01*
X59558Y-44667D01*
X59539Y-44705D01*
X59501Y-44743D01*
X59443Y-44762D01*
X59348Y-44762D01*
X59977Y-44762D02*
X59843Y-44571D01*
X59748Y-44762D02*
X59748Y-44362D01*
X59901Y-44362D01*
X59939Y-44381D01*
X59958Y-44400D01*
X59977Y-44438D01*
X59977Y-44495D01*
X59958Y-44533D01*
X59939Y-44552D01*
X59901Y-44571D01*
X59748Y-44571D01*
X60129Y-44400D02*
X60148Y-44381D01*
X60186Y-44362D01*
X60282Y-44362D01*
X60320Y-44381D01*
X60339Y-44400D01*
X60358Y-44438D01*
X60358Y-44476D01*
X60339Y-44533D01*
X60110Y-44762D01*
X60358Y-44762D01*
X58262Y-41762D02*
X58262Y-41362D01*
X58415Y-41362D01*
X58453Y-41381D01*
X58472Y-41400D01*
X58491Y-41438D01*
X58491Y-41495D01*
X58472Y-41533D01*
X58453Y-41552D01*
X58415Y-41571D01*
X58262Y-41571D01*
X58853Y-41762D02*
X58662Y-41762D01*
X58662Y-41362D01*
X58986Y-41552D02*
X59120Y-41552D01*
X59177Y-41762D02*
X58986Y-41762D01*
X58986Y-41362D01*
X59177Y-41362D01*
X59348Y-41762D02*
X59348Y-41362D01*
X59443Y-41362D01*
X59501Y-41381D01*
X59539Y-41419D01*
X59558Y-41457D01*
X59577Y-41533D01*
X59577Y-41590D01*
X59558Y-41667D01*
X59539Y-41705D01*
X59501Y-41743D01*
X59443Y-41762D01*
X59348Y-41762D01*
X59977Y-41762D02*
X59843Y-41571D01*
X59748Y-41762D02*
X59748Y-41362D01*
X59901Y-41362D01*
X59939Y-41381D01*
X59958Y-41400D01*
X59977Y-41438D01*
X59977Y-41495D01*
X59958Y-41533D01*
X59939Y-41552D01*
X59901Y-41571D01*
X59748Y-41571D01*
X60358Y-41762D02*
X60129Y-41762D01*
X60243Y-41762D02*
X60243Y-41362D01*
X60205Y-41419D01*
X60167Y-41457D01*
X60129Y-41476D01*
X58262Y-38762D02*
X58262Y-38362D01*
X58415Y-38362D01*
X58453Y-38381D01*
X58472Y-38400D01*
X58491Y-38438D01*
X58491Y-38495D01*
X58472Y-38533D01*
X58453Y-38552D01*
X58415Y-38571D01*
X58262Y-38571D01*
X58853Y-38762D02*
X58662Y-38762D01*
X58662Y-38362D01*
X58986Y-38552D02*
X59120Y-38552D01*
X59177Y-38762D02*
X58986Y-38762D01*
X58986Y-38362D01*
X59177Y-38362D01*
X59348Y-38762D02*
X59348Y-38362D01*
X59443Y-38362D01*
X59501Y-38381D01*
X59539Y-38419D01*
X59558Y-38457D01*
X59577Y-38533D01*
X59577Y-38590D01*
X59558Y-38667D01*
X59539Y-38705D01*
X59501Y-38743D01*
X59443Y-38762D01*
X59348Y-38762D01*
X59977Y-38762D02*
X59843Y-38571D01*
X59748Y-38762D02*
X59748Y-38362D01*
X59901Y-38362D01*
X59939Y-38381D01*
X59958Y-38400D01*
X59977Y-38438D01*
X59977Y-38495D01*
X59958Y-38533D01*
X59939Y-38552D01*
X59901Y-38571D01*
X59748Y-38571D01*
X60224Y-38362D02*
X60263Y-38362D01*
X60301Y-38381D01*
X60320Y-38400D01*
X60339Y-38438D01*
X60358Y-38514D01*
X60358Y-38610D01*
X60339Y-38686D01*
X60320Y-38724D01*
X60301Y-38743D01*
X60263Y-38762D01*
X60224Y-38762D01*
X60186Y-38743D01*
X60167Y-38724D01*
X60148Y-38686D01*
X60129Y-38610D01*
X60129Y-38514D01*
X60148Y-38438D01*
X60167Y-38400D01*
X60186Y-38381D01*
X60224Y-38362D01*
X64962Y-50762D02*
X64962Y-50362D01*
X65115Y-50362D01*
X65153Y-50381D01*
X65172Y-50400D01*
X65191Y-50438D01*
X65191Y-50495D01*
X65172Y-50533D01*
X65153Y-50552D01*
X65115Y-50571D01*
X64962Y-50571D01*
X65553Y-50762D02*
X65362Y-50762D01*
X65362Y-50362D01*
X65686Y-50552D02*
X65820Y-50552D01*
X65877Y-50762D02*
X65686Y-50762D01*
X65686Y-50362D01*
X65877Y-50362D01*
X66048Y-50762D02*
X66048Y-50362D01*
X66143Y-50362D01*
X66201Y-50381D01*
X66239Y-50419D01*
X66258Y-50457D01*
X66277Y-50533D01*
X66277Y-50590D01*
X66258Y-50667D01*
X66239Y-50705D01*
X66201Y-50743D01*
X66143Y-50762D01*
X66048Y-50762D01*
X66658Y-50381D02*
X66620Y-50362D01*
X66563Y-50362D01*
X66505Y-50381D01*
X66467Y-50419D01*
X66448Y-50457D01*
X66429Y-50533D01*
X66429Y-50590D01*
X66448Y-50667D01*
X66467Y-50705D01*
X66505Y-50743D01*
X66563Y-50762D01*
X66601Y-50762D01*
X66658Y-50743D01*
X66677Y-50724D01*
X66677Y-50590D01*
X66601Y-50590D01*
X67020Y-50495D02*
X67020Y-50762D01*
X66924Y-50343D02*
X66829Y-50629D01*
X67077Y-50629D01*
X64962Y-47762D02*
X64962Y-47362D01*
X65115Y-47362D01*
X65153Y-47381D01*
X65172Y-47400D01*
X65191Y-47438D01*
X65191Y-47495D01*
X65172Y-47533D01*
X65153Y-47552D01*
X65115Y-47571D01*
X64962Y-47571D01*
X65553Y-47762D02*
X65362Y-47762D01*
X65362Y-47362D01*
X65686Y-47552D02*
X65820Y-47552D01*
X65877Y-47762D02*
X65686Y-47762D01*
X65686Y-47362D01*
X65877Y-47362D01*
X66048Y-47762D02*
X66048Y-47362D01*
X66143Y-47362D01*
X66201Y-47381D01*
X66239Y-47419D01*
X66258Y-47457D01*
X66277Y-47533D01*
X66277Y-47590D01*
X66258Y-47667D01*
X66239Y-47705D01*
X66201Y-47743D01*
X66143Y-47762D01*
X66048Y-47762D01*
X66658Y-47381D02*
X66620Y-47362D01*
X66563Y-47362D01*
X66505Y-47381D01*
X66467Y-47419D01*
X66448Y-47457D01*
X66429Y-47533D01*
X66429Y-47590D01*
X66448Y-47667D01*
X66467Y-47705D01*
X66505Y-47743D01*
X66563Y-47762D01*
X66601Y-47762D01*
X66658Y-47743D01*
X66677Y-47724D01*
X66677Y-47590D01*
X66601Y-47590D01*
X66810Y-47362D02*
X67058Y-47362D01*
X66924Y-47514D01*
X66982Y-47514D01*
X67020Y-47533D01*
X67039Y-47552D01*
X67058Y-47590D01*
X67058Y-47686D01*
X67039Y-47724D01*
X67020Y-47743D01*
X66982Y-47762D01*
X66867Y-47762D01*
X66829Y-47743D01*
X66810Y-47724D01*
X65062Y-44762D02*
X65062Y-44362D01*
X65215Y-44362D01*
X65253Y-44381D01*
X65272Y-44400D01*
X65291Y-44438D01*
X65291Y-44495D01*
X65272Y-44533D01*
X65253Y-44552D01*
X65215Y-44571D01*
X65062Y-44571D01*
X65653Y-44762D02*
X65462Y-44762D01*
X65462Y-44362D01*
X65786Y-44552D02*
X65920Y-44552D01*
X65977Y-44762D02*
X65786Y-44762D01*
X65786Y-44362D01*
X65977Y-44362D01*
X66148Y-44762D02*
X66148Y-44362D01*
X66243Y-44362D01*
X66301Y-44381D01*
X66339Y-44419D01*
X66358Y-44457D01*
X66377Y-44533D01*
X66377Y-44590D01*
X66358Y-44667D01*
X66339Y-44705D01*
X66301Y-44743D01*
X66243Y-44762D01*
X66148Y-44762D01*
X66758Y-44381D02*
X66720Y-44362D01*
X66663Y-44362D01*
X66605Y-44381D01*
X66567Y-44419D01*
X66548Y-44457D01*
X66529Y-44533D01*
X66529Y-44590D01*
X66548Y-44667D01*
X66567Y-44705D01*
X66605Y-44743D01*
X66663Y-44762D01*
X66701Y-44762D01*
X66758Y-44743D01*
X66777Y-44724D01*
X66777Y-44590D01*
X66701Y-44590D01*
X66929Y-44400D02*
X66948Y-44381D01*
X66986Y-44362D01*
X67082Y-44362D01*
X67120Y-44381D01*
X67139Y-44400D01*
X67158Y-44438D01*
X67158Y-44476D01*
X67139Y-44533D01*
X66910Y-44762D01*
X67158Y-44762D01*
X65062Y-41762D02*
X65062Y-41362D01*
X65215Y-41362D01*
X65253Y-41381D01*
X65272Y-41400D01*
X65291Y-41438D01*
X65291Y-41495D01*
X65272Y-41533D01*
X65253Y-41552D01*
X65215Y-41571D01*
X65062Y-41571D01*
X65653Y-41762D02*
X65462Y-41762D01*
X65462Y-41362D01*
X65786Y-41552D02*
X65920Y-41552D01*
X65977Y-41762D02*
X65786Y-41762D01*
X65786Y-41362D01*
X65977Y-41362D01*
X66148Y-41762D02*
X66148Y-41362D01*
X66243Y-41362D01*
X66301Y-41381D01*
X66339Y-41419D01*
X66358Y-41457D01*
X66377Y-41533D01*
X66377Y-41590D01*
X66358Y-41667D01*
X66339Y-41705D01*
X66301Y-41743D01*
X66243Y-41762D01*
X66148Y-41762D01*
X66758Y-41381D02*
X66720Y-41362D01*
X66663Y-41362D01*
X66605Y-41381D01*
X66567Y-41419D01*
X66548Y-41457D01*
X66529Y-41533D01*
X66529Y-41590D01*
X66548Y-41667D01*
X66567Y-41705D01*
X66605Y-41743D01*
X66663Y-41762D01*
X66701Y-41762D01*
X66758Y-41743D01*
X66777Y-41724D01*
X66777Y-41590D01*
X66701Y-41590D01*
X67158Y-41762D02*
X66929Y-41762D01*
X67043Y-41762D02*
X67043Y-41362D01*
X67005Y-41419D01*
X66967Y-41457D01*
X66929Y-41476D01*
X65062Y-38762D02*
X65062Y-38362D01*
X65215Y-38362D01*
X65253Y-38381D01*
X65272Y-38400D01*
X65291Y-38438D01*
X65291Y-38495D01*
X65272Y-38533D01*
X65253Y-38552D01*
X65215Y-38571D01*
X65062Y-38571D01*
X65653Y-38762D02*
X65462Y-38762D01*
X65462Y-38362D01*
X65786Y-38552D02*
X65920Y-38552D01*
X65977Y-38762D02*
X65786Y-38762D01*
X65786Y-38362D01*
X65977Y-38362D01*
X66148Y-38762D02*
X66148Y-38362D01*
X66243Y-38362D01*
X66301Y-38381D01*
X66339Y-38419D01*
X66358Y-38457D01*
X66377Y-38533D01*
X66377Y-38590D01*
X66358Y-38667D01*
X66339Y-38705D01*
X66301Y-38743D01*
X66243Y-38762D01*
X66148Y-38762D01*
X66758Y-38381D02*
X66720Y-38362D01*
X66663Y-38362D01*
X66605Y-38381D01*
X66567Y-38419D01*
X66548Y-38457D01*
X66529Y-38533D01*
X66529Y-38590D01*
X66548Y-38667D01*
X66567Y-38705D01*
X66605Y-38743D01*
X66663Y-38762D01*
X66701Y-38762D01*
X66758Y-38743D01*
X66777Y-38724D01*
X66777Y-38590D01*
X66701Y-38590D01*
X67024Y-38362D02*
X67063Y-38362D01*
X67101Y-38381D01*
X67120Y-38400D01*
X67139Y-38438D01*
X67158Y-38514D01*
X67158Y-38610D01*
X67139Y-38686D01*
X67120Y-38724D01*
X67101Y-38743D01*
X67063Y-38762D01*
X67024Y-38762D01*
X66986Y-38743D01*
X66967Y-38724D01*
X66948Y-38686D01*
X66929Y-38610D01*
X66929Y-38514D01*
X66948Y-38438D01*
X66967Y-38400D01*
X66986Y-38381D01*
X67024Y-38362D01*
G54D11*
X71421Y-23321D02*
X71421Y-23021D01*
X71536Y-23021D01*
X71564Y-23036D01*
X71579Y-23050D01*
X71593Y-23079D01*
X71593Y-23121D01*
X71579Y-23150D01*
X71564Y-23164D01*
X71536Y-23179D01*
X71421Y-23179D01*
X71864Y-23321D02*
X71721Y-23321D01*
X71721Y-23021D01*
X71964Y-23164D02*
X72064Y-23164D01*
X72107Y-23321D02*
X71964Y-23321D01*
X71964Y-23021D01*
X72107Y-23021D01*
X72235Y-23321D02*
X72235Y-23021D01*
X72307Y-23021D01*
X72350Y-23036D01*
X72378Y-23064D01*
X72393Y-23093D01*
X72407Y-23150D01*
X72407Y-23193D01*
X72393Y-23250D01*
X72378Y-23279D01*
X72350Y-23307D01*
X72307Y-23321D01*
X72235Y-23321D01*
X72635Y-23164D02*
X72678Y-23179D01*
X72693Y-23193D01*
X72707Y-23221D01*
X72707Y-23264D01*
X72693Y-23293D01*
X72678Y-23307D01*
X72650Y-23321D01*
X72535Y-23321D01*
X72535Y-23021D01*
X72635Y-23021D01*
X72664Y-23036D01*
X72678Y-23050D01*
X72693Y-23079D01*
X72693Y-23107D01*
X72678Y-23136D01*
X72664Y-23150D01*
X72635Y-23164D01*
X72535Y-23164D01*
X72964Y-23121D02*
X72964Y-23321D01*
X72893Y-23007D02*
X72821Y-23221D01*
X73007Y-23221D01*
X71321Y-25621D02*
X71321Y-25321D01*
X71436Y-25321D01*
X71464Y-25336D01*
X71479Y-25350D01*
X71493Y-25379D01*
X71493Y-25421D01*
X71479Y-25450D01*
X71464Y-25464D01*
X71436Y-25479D01*
X71321Y-25479D01*
X71764Y-25621D02*
X71621Y-25621D01*
X71621Y-25321D01*
X71864Y-25464D02*
X71964Y-25464D01*
X72007Y-25621D02*
X71864Y-25621D01*
X71864Y-25321D01*
X72007Y-25321D01*
X72135Y-25621D02*
X72135Y-25321D01*
X72207Y-25321D01*
X72250Y-25336D01*
X72278Y-25364D01*
X72293Y-25393D01*
X72307Y-25450D01*
X72307Y-25493D01*
X72293Y-25550D01*
X72278Y-25579D01*
X72250Y-25607D01*
X72207Y-25621D01*
X72135Y-25621D01*
X72535Y-25464D02*
X72578Y-25479D01*
X72593Y-25493D01*
X72607Y-25521D01*
X72607Y-25564D01*
X72593Y-25593D01*
X72578Y-25607D01*
X72550Y-25621D01*
X72435Y-25621D01*
X72435Y-25321D01*
X72535Y-25321D01*
X72564Y-25336D01*
X72578Y-25350D01*
X72593Y-25379D01*
X72593Y-25407D01*
X72578Y-25436D01*
X72564Y-25450D01*
X72535Y-25464D01*
X72435Y-25464D01*
X72707Y-25321D02*
X72893Y-25321D01*
X72793Y-25436D01*
X72835Y-25436D01*
X72864Y-25450D01*
X72878Y-25464D01*
X72893Y-25493D01*
X72893Y-25564D01*
X72878Y-25593D01*
X72864Y-25607D01*
X72835Y-25621D01*
X72750Y-25621D01*
X72721Y-25607D01*
X72707Y-25593D01*
X71321Y-28021D02*
X71321Y-27721D01*
X71436Y-27721D01*
X71464Y-27736D01*
X71479Y-27750D01*
X71493Y-27779D01*
X71493Y-27821D01*
X71479Y-27850D01*
X71464Y-27864D01*
X71436Y-27879D01*
X71321Y-27879D01*
X71764Y-28021D02*
X71621Y-28021D01*
X71621Y-27721D01*
X71864Y-27864D02*
X71964Y-27864D01*
X72007Y-28021D02*
X71864Y-28021D01*
X71864Y-27721D01*
X72007Y-27721D01*
X72135Y-28021D02*
X72135Y-27721D01*
X72207Y-27721D01*
X72250Y-27736D01*
X72278Y-27764D01*
X72293Y-27793D01*
X72307Y-27850D01*
X72307Y-27893D01*
X72293Y-27950D01*
X72278Y-27979D01*
X72250Y-28007D01*
X72207Y-28021D01*
X72135Y-28021D01*
X72535Y-27864D02*
X72578Y-27879D01*
X72593Y-27893D01*
X72607Y-27921D01*
X72607Y-27964D01*
X72593Y-27993D01*
X72578Y-28007D01*
X72550Y-28021D01*
X72435Y-28021D01*
X72435Y-27721D01*
X72535Y-27721D01*
X72564Y-27736D01*
X72578Y-27750D01*
X72593Y-27779D01*
X72593Y-27807D01*
X72578Y-27836D01*
X72564Y-27850D01*
X72535Y-27864D01*
X72435Y-27864D01*
X72721Y-27750D02*
X72735Y-27736D01*
X72764Y-27721D01*
X72835Y-27721D01*
X72864Y-27736D01*
X72878Y-27750D01*
X72893Y-27779D01*
X72893Y-27807D01*
X72878Y-27850D01*
X72707Y-28021D01*
X72893Y-28021D01*
X71321Y-31021D02*
X71321Y-30721D01*
X71436Y-30721D01*
X71464Y-30736D01*
X71479Y-30750D01*
X71493Y-30779D01*
X71493Y-30821D01*
X71479Y-30850D01*
X71464Y-30864D01*
X71436Y-30879D01*
X71321Y-30879D01*
X71764Y-31021D02*
X71621Y-31021D01*
X71621Y-30721D01*
X71864Y-30864D02*
X71964Y-30864D01*
X72007Y-31021D02*
X71864Y-31021D01*
X71864Y-30721D01*
X72007Y-30721D01*
X72135Y-31021D02*
X72135Y-30721D01*
X72207Y-30721D01*
X72250Y-30736D01*
X72278Y-30764D01*
X72293Y-30793D01*
X72307Y-30850D01*
X72307Y-30893D01*
X72293Y-30950D01*
X72278Y-30979D01*
X72250Y-31007D01*
X72207Y-31021D01*
X72135Y-31021D01*
X72535Y-30864D02*
X72578Y-30879D01*
X72593Y-30893D01*
X72607Y-30921D01*
X72607Y-30964D01*
X72593Y-30993D01*
X72578Y-31007D01*
X72550Y-31021D01*
X72435Y-31021D01*
X72435Y-30721D01*
X72535Y-30721D01*
X72564Y-30736D01*
X72578Y-30750D01*
X72593Y-30779D01*
X72593Y-30807D01*
X72578Y-30836D01*
X72564Y-30850D01*
X72535Y-30864D01*
X72435Y-30864D01*
X72893Y-31021D02*
X72721Y-31021D01*
X72807Y-31021D02*
X72807Y-30721D01*
X72778Y-30764D01*
X72750Y-30793D01*
X72721Y-30807D01*
X71321Y-34021D02*
X71321Y-33721D01*
X71436Y-33721D01*
X71464Y-33736D01*
X71479Y-33750D01*
X71493Y-33779D01*
X71493Y-33821D01*
X71479Y-33850D01*
X71464Y-33864D01*
X71436Y-33879D01*
X71321Y-33879D01*
X71764Y-34021D02*
X71621Y-34021D01*
X71621Y-33721D01*
X71864Y-33864D02*
X71964Y-33864D01*
X72007Y-34021D02*
X71864Y-34021D01*
X71864Y-33721D01*
X72007Y-33721D01*
X72135Y-34021D02*
X72135Y-33721D01*
X72207Y-33721D01*
X72250Y-33736D01*
X72278Y-33764D01*
X72293Y-33793D01*
X72307Y-33850D01*
X72307Y-33893D01*
X72293Y-33950D01*
X72278Y-33979D01*
X72250Y-34007D01*
X72207Y-34021D01*
X72135Y-34021D01*
X72535Y-33864D02*
X72578Y-33879D01*
X72593Y-33893D01*
X72607Y-33921D01*
X72607Y-33964D01*
X72593Y-33993D01*
X72578Y-34007D01*
X72550Y-34021D01*
X72435Y-34021D01*
X72435Y-33721D01*
X72535Y-33721D01*
X72564Y-33736D01*
X72578Y-33750D01*
X72593Y-33779D01*
X72593Y-33807D01*
X72578Y-33836D01*
X72564Y-33850D01*
X72535Y-33864D01*
X72435Y-33864D01*
X72793Y-33721D02*
X72821Y-33721D01*
X72850Y-33736D01*
X72864Y-33750D01*
X72878Y-33779D01*
X72893Y-33836D01*
X72893Y-33907D01*
X72878Y-33964D01*
X72864Y-33993D01*
X72850Y-34007D01*
X72821Y-34021D01*
X72793Y-34021D01*
X72764Y-34007D01*
X72750Y-33993D01*
X72735Y-33964D01*
X72721Y-33907D01*
X72721Y-33836D01*
X72735Y-33779D01*
X72750Y-33750D01*
X72764Y-33736D01*
X72793Y-33721D01*
X52450Y-23321D02*
X52450Y-23021D01*
X52565Y-23021D01*
X52593Y-23036D01*
X52608Y-23050D01*
X52622Y-23079D01*
X52622Y-23121D01*
X52608Y-23150D01*
X52593Y-23164D01*
X52565Y-23179D01*
X52450Y-23179D01*
X52850Y-23164D02*
X52893Y-23179D01*
X52908Y-23193D01*
X52922Y-23221D01*
X52922Y-23264D01*
X52908Y-23293D01*
X52893Y-23307D01*
X52865Y-23321D01*
X52750Y-23321D01*
X52750Y-23021D01*
X52850Y-23021D01*
X52879Y-23036D01*
X52893Y-23050D01*
X52908Y-23079D01*
X52908Y-23107D01*
X52893Y-23136D01*
X52879Y-23150D01*
X52850Y-23164D01*
X52750Y-23164D01*
X53050Y-23321D02*
X53050Y-23021D01*
X53351Y-23036D02*
X53322Y-23021D01*
X53279Y-23021D01*
X53236Y-23036D01*
X53208Y-23064D01*
X53193Y-23093D01*
X53179Y-23150D01*
X53179Y-23193D01*
X53193Y-23250D01*
X53208Y-23279D01*
X53236Y-23307D01*
X53279Y-23321D01*
X53308Y-23321D01*
X53351Y-23307D01*
X53365Y-23293D01*
X53365Y-23193D01*
X53308Y-23193D01*
X53651Y-23036D02*
X53622Y-23021D01*
X53579Y-23021D01*
X53536Y-23036D01*
X53508Y-23064D01*
X53493Y-23093D01*
X53479Y-23150D01*
X53479Y-23193D01*
X53493Y-23250D01*
X53508Y-23279D01*
X53536Y-23307D01*
X53579Y-23321D01*
X53608Y-23321D01*
X53651Y-23307D01*
X53665Y-23293D01*
X53665Y-23193D01*
X53608Y-23193D01*
X53793Y-23321D02*
X53793Y-23021D01*
X53965Y-23321D01*
X53965Y-23021D01*
X54107Y-23321D02*
X54107Y-23021D01*
X54179Y-23021D01*
X54222Y-23036D01*
X54250Y-23064D01*
X54265Y-23093D01*
X54279Y-23150D01*
X54279Y-23193D01*
X54265Y-23250D01*
X54250Y-23279D01*
X54222Y-23307D01*
X54179Y-23321D01*
X54107Y-23321D01*
X54565Y-23321D02*
X54393Y-23321D01*
X54479Y-23321D02*
X54479Y-23021D01*
X54450Y-23064D01*
X54422Y-23093D01*
X54393Y-23107D01*
X55893Y-32050D02*
X55907Y-32064D01*
X55921Y-32107D01*
X55921Y-32136D01*
X55907Y-32179D01*
X55879Y-32207D01*
X55850Y-32222D01*
X55793Y-32236D01*
X55750Y-32236D01*
X55693Y-32222D01*
X55664Y-32207D01*
X55636Y-32179D01*
X55621Y-32136D01*
X55621Y-32107D01*
X55636Y-32064D01*
X55650Y-32050D01*
X55750Y-31879D02*
X55736Y-31907D01*
X55721Y-31922D01*
X55693Y-31936D01*
X55679Y-31936D01*
X55650Y-31922D01*
X55636Y-31907D01*
X55621Y-31879D01*
X55621Y-31822D01*
X55636Y-31793D01*
X55650Y-31779D01*
X55679Y-31764D01*
X55693Y-31764D01*
X55721Y-31779D01*
X55736Y-31793D01*
X55750Y-31822D01*
X55750Y-31879D01*
X55764Y-31907D01*
X55779Y-31922D01*
X55807Y-31936D01*
X55864Y-31936D01*
X55893Y-31922D01*
X55907Y-31907D01*
X55921Y-31879D01*
X55921Y-31822D01*
X55907Y-31793D01*
X55893Y-31779D01*
X55864Y-31764D01*
X55807Y-31764D01*
X55779Y-31779D01*
X55764Y-31793D01*
X55750Y-31822D01*
X60293Y-24550D02*
X60307Y-24564D01*
X60321Y-24607D01*
X60321Y-24636D01*
X60307Y-24679D01*
X60279Y-24707D01*
X60250Y-24722D01*
X60193Y-24736D01*
X60150Y-24736D01*
X60093Y-24722D01*
X60064Y-24707D01*
X60036Y-24679D01*
X60021Y-24636D01*
X60021Y-24607D01*
X60036Y-24564D01*
X60050Y-24550D01*
X60021Y-24450D02*
X60021Y-24250D01*
X60321Y-24379D01*
X59093Y-24550D02*
X59107Y-24564D01*
X59121Y-24607D01*
X59121Y-24636D01*
X59107Y-24679D01*
X59079Y-24707D01*
X59050Y-24722D01*
X58993Y-24736D01*
X58950Y-24736D01*
X58893Y-24722D01*
X58864Y-24707D01*
X58836Y-24679D01*
X58821Y-24636D01*
X58821Y-24607D01*
X58836Y-24564D01*
X58850Y-24550D01*
X58821Y-24293D02*
X58821Y-24350D01*
X58836Y-24379D01*
X58850Y-24393D01*
X58893Y-24422D01*
X58950Y-24436D01*
X59064Y-24436D01*
X59093Y-24422D01*
X59107Y-24407D01*
X59121Y-24379D01*
X59121Y-24322D01*
X59107Y-24293D01*
X59093Y-24279D01*
X59064Y-24264D01*
X58993Y-24264D01*
X58964Y-24279D01*
X58950Y-24293D01*
X58936Y-24322D01*
X58936Y-24379D01*
X58950Y-24407D01*
X58964Y-24422D01*
X58993Y-24436D01*
X57093Y-29850D02*
X57107Y-29864D01*
X57121Y-29907D01*
X57121Y-29936D01*
X57107Y-29979D01*
X57079Y-30007D01*
X57050Y-30022D01*
X56993Y-30036D01*
X56950Y-30036D01*
X56893Y-30022D01*
X56864Y-30007D01*
X56836Y-29979D01*
X56821Y-29936D01*
X56821Y-29907D01*
X56836Y-29864D01*
X56850Y-29850D01*
X56821Y-29579D02*
X56821Y-29722D01*
X56964Y-29736D01*
X56950Y-29722D01*
X56936Y-29693D01*
X56936Y-29622D01*
X56950Y-29593D01*
X56964Y-29579D01*
X56993Y-29564D01*
X57064Y-29564D01*
X57093Y-29579D01*
X57107Y-29593D01*
X57121Y-29622D01*
X57121Y-29693D01*
X57107Y-29722D01*
X57093Y-29736D01*
X57093Y-32050D02*
X57107Y-32064D01*
X57121Y-32107D01*
X57121Y-32136D01*
X57107Y-32179D01*
X57079Y-32207D01*
X57050Y-32222D01*
X56993Y-32236D01*
X56950Y-32236D01*
X56893Y-32222D01*
X56864Y-32207D01*
X56836Y-32179D01*
X56821Y-32136D01*
X56821Y-32107D01*
X56836Y-32064D01*
X56850Y-32050D01*
X56921Y-31793D02*
X57121Y-31793D01*
X56807Y-31864D02*
X57021Y-31936D01*
X57021Y-31750D01*
X57193Y-27350D02*
X57207Y-27364D01*
X57221Y-27407D01*
X57221Y-27436D01*
X57207Y-27479D01*
X57179Y-27507D01*
X57150Y-27522D01*
X57093Y-27536D01*
X57050Y-27536D01*
X56993Y-27522D01*
X56964Y-27507D01*
X56936Y-27479D01*
X56921Y-27436D01*
X56921Y-27407D01*
X56936Y-27364D01*
X56950Y-27350D01*
X56950Y-27236D02*
X56936Y-27222D01*
X56921Y-27193D01*
X56921Y-27122D01*
X56936Y-27093D01*
X56950Y-27079D01*
X56979Y-27064D01*
X57007Y-27064D01*
X57050Y-27079D01*
X57221Y-27250D01*
X57221Y-27064D01*
X55993Y-27350D02*
X56007Y-27364D01*
X56021Y-27407D01*
X56021Y-27436D01*
X56007Y-27479D01*
X55979Y-27507D01*
X55950Y-27522D01*
X55893Y-27536D01*
X55850Y-27536D01*
X55793Y-27522D01*
X55764Y-27507D01*
X55736Y-27479D01*
X55721Y-27436D01*
X55721Y-27407D01*
X55736Y-27364D01*
X55750Y-27350D01*
X56021Y-27064D02*
X56021Y-27236D01*
X56021Y-27150D02*
X55721Y-27150D01*
X55764Y-27179D01*
X55793Y-27207D01*
X55807Y-27236D01*
G54D19*
X63243Y-23639D02*
X62643Y-23639D01*
X63186Y-23168D02*
X63214Y-23189D01*
X63243Y-23253D01*
X63243Y-23296D01*
X63214Y-23361D01*
X63157Y-23403D01*
X63100Y-23425D01*
X62986Y-23446D01*
X62900Y-23446D01*
X62786Y-23425D01*
X62729Y-23403D01*
X62671Y-23361D01*
X62643Y-23296D01*
X62643Y-23253D01*
X62671Y-23189D01*
X62700Y-23168D01*
X63243Y-22739D02*
X63243Y-22996D01*
X63243Y-22868D02*
X62643Y-22868D01*
X62729Y-22911D01*
X62786Y-22953D01*
X62814Y-22996D01*
X63071Y-28604D02*
X63071Y-28390D01*
X63243Y-28647D02*
X62643Y-28497D01*
X63243Y-28347D01*
X62643Y-28261D02*
X62643Y-28004D01*
X63243Y-28133D02*
X62643Y-28133D01*
X63243Y-27854D02*
X62643Y-27854D01*
X63071Y-27704D01*
X62643Y-27554D01*
X63243Y-27554D01*
X62929Y-27340D02*
X62929Y-27190D01*
X63243Y-27126D02*
X63243Y-27340D01*
X62643Y-27340D01*
X62643Y-27126D01*
X62671Y-26697D02*
X62643Y-26740D01*
X62643Y-26804D01*
X62671Y-26869D01*
X62729Y-26911D01*
X62786Y-26933D01*
X62900Y-26954D01*
X62986Y-26954D01*
X63100Y-26933D01*
X63157Y-26911D01*
X63214Y-26869D01*
X63243Y-26804D01*
X63243Y-26761D01*
X63214Y-26697D01*
X63186Y-26676D01*
X62986Y-26676D01*
X62986Y-26761D01*
X63071Y-26504D02*
X63071Y-26290D01*
X63243Y-26547D02*
X62643Y-26397D01*
X63243Y-26247D01*
X63243Y-25861D02*
X63243Y-26118D01*
X63243Y-25990D02*
X62643Y-25990D01*
X62729Y-26033D01*
X62786Y-26075D01*
X62814Y-26118D01*
X62643Y-25475D02*
X62643Y-25561D01*
X62671Y-25604D01*
X62700Y-25625D01*
X62786Y-25668D01*
X62900Y-25689D01*
X63129Y-25689D01*
X63186Y-25668D01*
X63214Y-25646D01*
X63243Y-25604D01*
X63243Y-25518D01*
X63214Y-25475D01*
X63186Y-25454D01*
X63129Y-25432D01*
X62986Y-25432D01*
X62929Y-25454D01*
X62900Y-25475D01*
X62871Y-25518D01*
X62871Y-25604D01*
X62900Y-25646D01*
X62929Y-25668D01*
X62986Y-25689D01*
X62900Y-25175D02*
X62871Y-25217D01*
X62843Y-25239D01*
X62786Y-25260D01*
X62757Y-25260D01*
X62700Y-25239D01*
X62671Y-25217D01*
X62643Y-25175D01*
X62643Y-25089D01*
X62671Y-25046D01*
X62700Y-25025D01*
X62757Y-25003D01*
X62786Y-25003D01*
X62843Y-25025D01*
X62871Y-25046D01*
X62900Y-25089D01*
X62900Y-25175D01*
X62929Y-25217D01*
X62957Y-25239D01*
X63014Y-25260D01*
X63129Y-25260D01*
X63186Y-25239D01*
X63214Y-25217D01*
X63243Y-25175D01*
X63243Y-25089D01*
X63214Y-25046D01*
X63186Y-25025D01*
X63129Y-25003D01*
X63014Y-25003D01*
X62957Y-25025D01*
X62929Y-25046D01*
X62900Y-25089D01*
X63014Y-24810D02*
X63014Y-24467D01*
X63243Y-24253D02*
X62643Y-24253D01*
X62643Y-24081D01*
X62671Y-24039D01*
X62700Y-24017D01*
X62757Y-23996D01*
X62843Y-23996D01*
X62900Y-24017D01*
X62929Y-24039D01*
X62957Y-24081D01*
X62957Y-24253D01*
G54D12*
X58986Y-31999D02*
X59014Y-32028D01*
X59043Y-32114D01*
X59043Y-32171D01*
X59014Y-32256D01*
X58957Y-32314D01*
X58900Y-32342D01*
X58786Y-32371D01*
X58700Y-32371D01*
X58586Y-32342D01*
X58529Y-32314D01*
X58471Y-32256D01*
X58443Y-32171D01*
X58443Y-32114D01*
X58471Y-32028D01*
X58500Y-31999D01*
X58443Y-31799D02*
X58443Y-31428D01*
X58671Y-31628D01*
X58671Y-31542D01*
X58700Y-31485D01*
X58729Y-31456D01*
X58786Y-31428D01*
X58929Y-31428D01*
X58986Y-31456D01*
X59014Y-31485D01*
X59043Y-31542D01*
X59043Y-31714D01*
X59014Y-31771D01*
X58986Y-31799D01*
G54D11*
X50407Y-23521D02*
X50407Y-23736D01*
X50393Y-23779D01*
X50364Y-23807D01*
X50321Y-23821D01*
X50293Y-23821D01*
X50693Y-23821D02*
X50550Y-23821D01*
X50550Y-23521D01*
X50951Y-23536D02*
X50922Y-23521D01*
X50879Y-23521D01*
X50836Y-23536D01*
X50808Y-23564D01*
X50793Y-23593D01*
X50779Y-23650D01*
X50779Y-23693D01*
X50793Y-23750D01*
X50808Y-23779D01*
X50836Y-23807D01*
X50879Y-23821D01*
X50908Y-23821D01*
X50951Y-23807D01*
X50965Y-23793D01*
X50965Y-23693D01*
X50908Y-23693D01*
X51265Y-23793D02*
X51251Y-23807D01*
X51208Y-23821D01*
X51179Y-23821D01*
X51136Y-23807D01*
X51108Y-23779D01*
X51093Y-23750D01*
X51079Y-23693D01*
X51079Y-23650D01*
X51093Y-23593D01*
X51108Y-23564D01*
X51136Y-23536D01*
X51179Y-23521D01*
X51208Y-23521D01*
X51251Y-23536D01*
X51265Y-23550D01*
X51393Y-23821D02*
X51393Y-23521D01*
X51508Y-23521D01*
X51536Y-23536D01*
X51551Y-23550D01*
X51565Y-23579D01*
X51565Y-23621D01*
X51551Y-23650D01*
X51536Y-23664D01*
X51508Y-23679D01*
X51393Y-23679D01*
X51665Y-23521D02*
X51736Y-23821D01*
X51793Y-23607D01*
X51851Y-23821D01*
X51922Y-23521D01*
X52208Y-23821D02*
X52108Y-23679D01*
X52036Y-23821D02*
X52036Y-23521D01*
X52151Y-23521D01*
X52179Y-23536D01*
X52194Y-23550D01*
X52208Y-23579D01*
X52208Y-23621D01*
X52194Y-23650D01*
X52179Y-23664D01*
X52151Y-23679D01*
X52036Y-23679D01*
X52494Y-23821D02*
X52322Y-23821D01*
X52408Y-23821D02*
X52408Y-23521D01*
X52379Y-23564D01*
X52351Y-23593D01*
X52322Y-23607D01*
X50407Y-26321D02*
X50407Y-26536D01*
X50393Y-26579D01*
X50364Y-26607D01*
X50321Y-26621D01*
X50293Y-26621D01*
X50536Y-26536D02*
X50679Y-26536D01*
X50508Y-26621D02*
X50608Y-26321D01*
X50708Y-26621D01*
X50979Y-26593D02*
X50965Y-26607D01*
X50922Y-26621D01*
X50893Y-26621D01*
X50850Y-26607D01*
X50822Y-26579D01*
X50807Y-26550D01*
X50793Y-26493D01*
X50793Y-26450D01*
X50807Y-26393D01*
X50822Y-26364D01*
X50850Y-26336D01*
X50893Y-26321D01*
X50922Y-26321D01*
X50965Y-26336D01*
X50979Y-26350D01*
X51107Y-26621D02*
X51107Y-26321D01*
X51279Y-26621D02*
X51150Y-26450D01*
X51279Y-26321D02*
X51107Y-26493D01*
X51336Y-26650D02*
X51565Y-26650D01*
X51622Y-26350D02*
X51636Y-26336D01*
X51665Y-26321D01*
X51736Y-26321D01*
X51765Y-26336D01*
X51779Y-26350D01*
X51794Y-26379D01*
X51794Y-26407D01*
X51779Y-26450D01*
X51608Y-26621D01*
X51794Y-26621D01*
X51922Y-26621D02*
X51922Y-26321D01*
X52037Y-26321D01*
X52065Y-26336D01*
X52080Y-26350D01*
X52094Y-26379D01*
X52094Y-26421D01*
X52080Y-26450D01*
X52065Y-26464D01*
X52037Y-26479D01*
X51922Y-26479D01*
X50421Y-28221D02*
X50421Y-28436D01*
X50407Y-28479D01*
X50378Y-28507D01*
X50335Y-28521D01*
X50307Y-28521D01*
X50707Y-28521D02*
X50564Y-28521D01*
X50564Y-28221D01*
X50807Y-28364D02*
X50907Y-28364D01*
X50950Y-28521D02*
X50807Y-28521D01*
X50807Y-28221D01*
X50950Y-28221D01*
X51078Y-28521D02*
X51078Y-28221D01*
X51150Y-28221D01*
X51193Y-28236D01*
X51221Y-28264D01*
X51236Y-28293D01*
X51250Y-28350D01*
X51250Y-28393D01*
X51236Y-28450D01*
X51221Y-28479D01*
X51193Y-28507D01*
X51150Y-28521D01*
X51078Y-28521D01*
X51378Y-28521D02*
X51378Y-28221D01*
X51493Y-28221D01*
X51521Y-28236D01*
X51536Y-28250D01*
X51550Y-28279D01*
X51550Y-28321D01*
X51536Y-28350D01*
X51521Y-28364D01*
X51493Y-28379D01*
X51378Y-28379D01*
X51650Y-28221D02*
X51721Y-28521D01*
X51778Y-28307D01*
X51836Y-28521D01*
X51907Y-28221D01*
X52193Y-28521D02*
X52093Y-28379D01*
X52021Y-28521D02*
X52021Y-28221D01*
X52136Y-28221D01*
X52164Y-28236D01*
X52179Y-28250D01*
X52193Y-28279D01*
X52193Y-28321D01*
X52179Y-28350D01*
X52164Y-28364D01*
X52136Y-28379D01*
X52021Y-28379D01*
X52307Y-28250D02*
X52321Y-28236D01*
X52350Y-28221D01*
X52421Y-28221D01*
X52450Y-28236D01*
X52464Y-28250D01*
X52479Y-28279D01*
X52479Y-28307D01*
X52464Y-28350D01*
X52293Y-28521D01*
X52479Y-28521D01*
X50407Y-31021D02*
X50407Y-31236D01*
X50393Y-31279D01*
X50364Y-31307D01*
X50321Y-31321D01*
X50293Y-31321D01*
X50536Y-31236D02*
X50679Y-31236D01*
X50508Y-31321D02*
X50608Y-31021D01*
X50708Y-31321D01*
X50979Y-31293D02*
X50965Y-31307D01*
X50922Y-31321D01*
X50893Y-31321D01*
X50850Y-31307D01*
X50822Y-31279D01*
X50807Y-31250D01*
X50793Y-31193D01*
X50793Y-31150D01*
X50807Y-31093D01*
X50822Y-31064D01*
X50850Y-31036D01*
X50893Y-31021D01*
X50922Y-31021D01*
X50965Y-31036D01*
X50979Y-31050D01*
X51107Y-31321D02*
X51107Y-31021D01*
X51279Y-31321D02*
X51150Y-31150D01*
X51279Y-31021D02*
X51107Y-31193D01*
X51336Y-31350D02*
X51565Y-31350D01*
X51622Y-31050D02*
X51636Y-31036D01*
X51665Y-31021D01*
X51736Y-31021D01*
X51765Y-31036D01*
X51779Y-31050D01*
X51794Y-31079D01*
X51794Y-31107D01*
X51779Y-31150D01*
X51608Y-31321D01*
X51794Y-31321D01*
X51922Y-31321D02*
X51922Y-31021D01*
X52037Y-31021D01*
X52065Y-31036D01*
X52080Y-31050D01*
X52094Y-31079D01*
X52094Y-31121D01*
X52080Y-31150D01*
X52065Y-31164D01*
X52037Y-31179D01*
X51922Y-31179D01*
G54D20*
X66978Y-24721D02*
X66978Y-24421D01*
X67050Y-24421D01*
X67093Y-24436D01*
X67121Y-24464D01*
X67136Y-24493D01*
X67150Y-24550D01*
X67150Y-24593D01*
X67136Y-24650D01*
X67121Y-24679D01*
X67093Y-24707D01*
X67050Y-24721D01*
X66978Y-24721D01*
X67421Y-24421D02*
X67278Y-24421D01*
X67264Y-24564D01*
X67278Y-24550D01*
X67307Y-24536D01*
X67378Y-24536D01*
X67407Y-24550D01*
X67421Y-24564D01*
X67436Y-24593D01*
X67436Y-24664D01*
X67421Y-24693D01*
X67407Y-24707D01*
X67378Y-24721D01*
X67307Y-24721D01*
X67278Y-24707D01*
X67264Y-24693D01*
X66907Y-25221D02*
X66764Y-25221D01*
X66764Y-24921D01*
X67007Y-25064D02*
X67107Y-25064D01*
X67150Y-25221D02*
X67007Y-25221D01*
X67007Y-24921D01*
X67150Y-24921D01*
X67278Y-25221D02*
X67278Y-24921D01*
X67350Y-24921D01*
X67393Y-24936D01*
X67421Y-24964D01*
X67436Y-24993D01*
X67450Y-25050D01*
X67450Y-25093D01*
X67436Y-25150D01*
X67421Y-25179D01*
X67393Y-25207D01*
X67350Y-25221D01*
X67278Y-25221D01*
X66878Y-25821D02*
X66878Y-25521D01*
X66950Y-25521D01*
X66993Y-25536D01*
X67021Y-25564D01*
X67036Y-25593D01*
X67050Y-25650D01*
X67050Y-25693D01*
X67036Y-25750D01*
X67021Y-25779D01*
X66993Y-25807D01*
X66950Y-25821D01*
X66878Y-25821D01*
X67307Y-25621D02*
X67307Y-25821D01*
X67236Y-25507D02*
X67164Y-25721D01*
X67350Y-25721D01*
X66907Y-26221D02*
X66764Y-26221D01*
X66764Y-25921D01*
X67007Y-26064D02*
X67107Y-26064D01*
X67150Y-26221D02*
X67007Y-26221D01*
X67007Y-25921D01*
X67150Y-25921D01*
X67278Y-26221D02*
X67278Y-25921D01*
X67350Y-25921D01*
X67393Y-25936D01*
X67421Y-25964D01*
X67436Y-25993D01*
X67450Y-26050D01*
X67450Y-26093D01*
X67436Y-26150D01*
X67421Y-26179D01*
X67393Y-26207D01*
X67350Y-26221D01*
X67278Y-26221D01*
X66978Y-26821D02*
X66978Y-26521D01*
X67050Y-26521D01*
X67093Y-26536D01*
X67121Y-26564D01*
X67136Y-26593D01*
X67150Y-26650D01*
X67150Y-26693D01*
X67136Y-26750D01*
X67121Y-26779D01*
X67093Y-26807D01*
X67050Y-26821D01*
X66978Y-26821D01*
X67250Y-26521D02*
X67436Y-26521D01*
X67336Y-26636D01*
X67378Y-26636D01*
X67407Y-26650D01*
X67421Y-26664D01*
X67436Y-26693D01*
X67436Y-26764D01*
X67421Y-26793D01*
X67407Y-26807D01*
X67378Y-26821D01*
X67293Y-26821D01*
X67264Y-26807D01*
X67250Y-26793D01*
X66907Y-27221D02*
X66764Y-27221D01*
X66764Y-26921D01*
X67007Y-27064D02*
X67107Y-27064D01*
X67150Y-27221D02*
X67007Y-27221D01*
X67007Y-26921D01*
X67150Y-26921D01*
X67278Y-27221D02*
X67278Y-26921D01*
X67350Y-26921D01*
X67393Y-26936D01*
X67421Y-26964D01*
X67436Y-26993D01*
X67450Y-27050D01*
X67450Y-27093D01*
X67436Y-27150D01*
X67421Y-27179D01*
X67393Y-27207D01*
X67350Y-27221D01*
X67278Y-27221D01*
X66978Y-27721D02*
X66978Y-27421D01*
X67050Y-27421D01*
X67093Y-27436D01*
X67121Y-27464D01*
X67136Y-27493D01*
X67150Y-27550D01*
X67150Y-27593D01*
X67136Y-27650D01*
X67121Y-27679D01*
X67093Y-27707D01*
X67050Y-27721D01*
X66978Y-27721D01*
X67264Y-27450D02*
X67278Y-27436D01*
X67307Y-27421D01*
X67378Y-27421D01*
X67407Y-27436D01*
X67421Y-27450D01*
X67436Y-27479D01*
X67436Y-27507D01*
X67421Y-27550D01*
X67250Y-27721D01*
X67436Y-27721D01*
X66907Y-28221D02*
X66764Y-28221D01*
X66764Y-27921D01*
X67007Y-28064D02*
X67107Y-28064D01*
X67150Y-28221D02*
X67007Y-28221D01*
X67007Y-27921D01*
X67150Y-27921D01*
X67278Y-28221D02*
X67278Y-27921D01*
X67350Y-27921D01*
X67393Y-27936D01*
X67421Y-27964D01*
X67436Y-27993D01*
X67450Y-28050D01*
X67450Y-28093D01*
X67436Y-28150D01*
X67421Y-28179D01*
X67393Y-28207D01*
X67350Y-28221D01*
X67278Y-28221D01*
X59478Y-25721D02*
X59478Y-25421D01*
X59550Y-25421D01*
X59593Y-25436D01*
X59621Y-25464D01*
X59636Y-25493D01*
X59650Y-25550D01*
X59650Y-25593D01*
X59636Y-25650D01*
X59621Y-25679D01*
X59593Y-25707D01*
X59550Y-25721D01*
X59478Y-25721D01*
X59936Y-25721D02*
X59764Y-25721D01*
X59850Y-25721D02*
X59850Y-25421D01*
X59821Y-25464D01*
X59793Y-25493D01*
X59764Y-25507D01*
X59507Y-26121D02*
X59364Y-26121D01*
X59364Y-25821D01*
X59607Y-25964D02*
X59707Y-25964D01*
X59750Y-26121D02*
X59607Y-26121D01*
X59607Y-25821D01*
X59750Y-25821D01*
X59878Y-26121D02*
X59878Y-25821D01*
X59950Y-25821D01*
X59993Y-25836D01*
X60021Y-25864D01*
X60036Y-25893D01*
X60050Y-25950D01*
X60050Y-25993D01*
X60036Y-26050D01*
X60021Y-26079D01*
X59993Y-26107D01*
X59950Y-26121D01*
X59878Y-26121D01*
G54D11*
X58721Y-22629D02*
X58964Y-22629D01*
X58993Y-22614D01*
X59007Y-22600D01*
X59021Y-22571D01*
X59021Y-22514D01*
X59007Y-22486D01*
X58993Y-22471D01*
X58964Y-22457D01*
X58721Y-22457D01*
X59021Y-22157D02*
X59021Y-22329D01*
X59021Y-22243D02*
X58721Y-22243D01*
X58764Y-22272D01*
X58793Y-22300D01*
X58807Y-22329D01*
X57149Y-22121D02*
X57006Y-22121D01*
X57006Y-21821D01*
X57249Y-22121D02*
X57249Y-21821D01*
X57349Y-22036D01*
X57449Y-21821D01*
X57449Y-22121D01*
X57564Y-21821D02*
X57764Y-21821D01*
X57635Y-22121D01*
X57921Y-21950D02*
X57893Y-21936D01*
X57878Y-21921D01*
X57864Y-21893D01*
X57864Y-21879D01*
X57878Y-21850D01*
X57893Y-21836D01*
X57921Y-21821D01*
X57978Y-21821D01*
X58007Y-21836D01*
X58021Y-21850D01*
X58036Y-21879D01*
X58036Y-21893D01*
X58021Y-21921D01*
X58007Y-21936D01*
X57978Y-21950D01*
X57921Y-21950D01*
X57893Y-21964D01*
X57878Y-21979D01*
X57864Y-22007D01*
X57864Y-22064D01*
X57878Y-22093D01*
X57893Y-22107D01*
X57921Y-22121D01*
X57978Y-22121D01*
X58007Y-22107D01*
X58021Y-22093D01*
X58036Y-22064D01*
X58036Y-22007D01*
X58021Y-21979D01*
X58007Y-21964D01*
X57978Y-21950D01*
X58222Y-21821D02*
X58250Y-21821D01*
X58279Y-21836D01*
X58293Y-21850D01*
X58307Y-21879D01*
X58322Y-21936D01*
X58322Y-22007D01*
X58307Y-22064D01*
X58293Y-22093D01*
X58279Y-22107D01*
X58250Y-22121D01*
X58222Y-22121D01*
X58193Y-22107D01*
X58179Y-22093D01*
X58164Y-22064D01*
X58150Y-22007D01*
X58150Y-21936D01*
X58164Y-21879D01*
X58179Y-21850D01*
X58193Y-21836D01*
X58222Y-21821D01*
X58593Y-21821D02*
X58450Y-21821D01*
X58436Y-21964D01*
X58450Y-21950D01*
X58479Y-21936D01*
X58550Y-21936D01*
X58579Y-21950D01*
X58593Y-21964D01*
X58608Y-21993D01*
X58608Y-22064D01*
X58593Y-22093D01*
X58579Y-22107D01*
X58550Y-22121D01*
X58479Y-22121D01*
X58450Y-22107D01*
X58436Y-22093D01*
G54D12*
X50943Y-48400D02*
X51371Y-48400D01*
X51457Y-48428D01*
X51514Y-48485D01*
X51543Y-48571D01*
X51543Y-48628D01*
X51000Y-48143D02*
X50971Y-48114D01*
X50943Y-48057D01*
X50943Y-47914D01*
X50971Y-47857D01*
X51000Y-47828D01*
X51057Y-47800D01*
X51114Y-47800D01*
X51200Y-47828D01*
X51543Y-48171D01*
X51543Y-47800D01*
G54D21*
X53399Y-48559D02*
X53212Y-48690D01*
X53399Y-48784D02*
X53005Y-48784D01*
X53005Y-48634D01*
X53024Y-48597D01*
X53043Y-48578D01*
X53081Y-48559D01*
X53137Y-48559D01*
X53174Y-48578D01*
X53193Y-48597D01*
X53212Y-48634D01*
X53212Y-48784D01*
X53005Y-48278D02*
X53287Y-48278D01*
X53343Y-48296D01*
X53381Y-48334D01*
X53399Y-48390D01*
X53399Y-48428D01*
X53137Y-47921D02*
X53399Y-47921D01*
X52987Y-48015D02*
X53268Y-48109D01*
X53268Y-47865D01*
X53005Y-47528D02*
X53005Y-47715D01*
X53193Y-47734D01*
X53174Y-47715D01*
X53156Y-47678D01*
X53156Y-47584D01*
X53174Y-47546D01*
X53193Y-47528D01*
X53231Y-47509D01*
X53324Y-47509D01*
X53362Y-47528D01*
X53381Y-47546D01*
X53399Y-47584D01*
X53399Y-47678D01*
X53381Y-47715D01*
X53362Y-47734D01*
G54D12*
X50943Y-41900D02*
X51371Y-41900D01*
X51457Y-41928D01*
X51514Y-41985D01*
X51543Y-42071D01*
X51543Y-42128D01*
X51543Y-41300D02*
X51543Y-41643D01*
X51543Y-41471D02*
X50943Y-41471D01*
X51029Y-41528D01*
X51086Y-41586D01*
X51114Y-41643D01*
G54D21*
X53399Y-42059D02*
X53212Y-42190D01*
X53399Y-42284D02*
X53005Y-42284D01*
X53005Y-42134D01*
X53024Y-42097D01*
X53043Y-42078D01*
X53081Y-42059D01*
X53137Y-42059D01*
X53174Y-42078D01*
X53193Y-42097D01*
X53212Y-42134D01*
X53212Y-42284D01*
X53005Y-41778D02*
X53287Y-41778D01*
X53343Y-41796D01*
X53381Y-41834D01*
X53399Y-41890D01*
X53399Y-41928D01*
X53137Y-41421D02*
X53399Y-41421D01*
X52987Y-41515D02*
X53268Y-41609D01*
X53268Y-41365D01*
X53005Y-41028D02*
X53005Y-41215D01*
X53193Y-41234D01*
X53174Y-41215D01*
X53156Y-41178D01*
X53156Y-41084D01*
X53174Y-41046D01*
X53193Y-41028D01*
X53231Y-41009D01*
X53324Y-41009D01*
X53362Y-41028D01*
X53381Y-41046D01*
X53399Y-41084D01*
X53399Y-41178D01*
X53381Y-41215D01*
X53362Y-41234D01*
G54D11*
X66235Y-23121D02*
X66235Y-22821D01*
X66350Y-22821D01*
X66378Y-22836D01*
X66393Y-22850D01*
X66407Y-22879D01*
X66407Y-22921D01*
X66393Y-22950D01*
X66378Y-22964D01*
X66350Y-22979D01*
X66235Y-22979D01*
X66507Y-22821D02*
X66707Y-23121D01*
X66707Y-22821D02*
X66507Y-23121D01*
X66964Y-22821D02*
X66821Y-22821D01*
X66807Y-22964D01*
X66821Y-22950D01*
X66850Y-22936D01*
X66921Y-22936D01*
X66950Y-22950D01*
X66964Y-22964D01*
X66979Y-22993D01*
X66979Y-23064D01*
X66964Y-23093D01*
X66950Y-23107D01*
X66921Y-23121D01*
X66850Y-23121D01*
X66821Y-23107D01*
X66807Y-23093D01*
X66235Y-24121D02*
X66235Y-23821D01*
X66350Y-23821D01*
X66378Y-23836D01*
X66393Y-23850D01*
X66407Y-23879D01*
X66407Y-23921D01*
X66393Y-23950D01*
X66378Y-23964D01*
X66350Y-23979D01*
X66235Y-23979D01*
X66507Y-23821D02*
X66707Y-24121D01*
X66707Y-23821D02*
X66507Y-24121D01*
X66950Y-23921D02*
X66950Y-24121D01*
X66879Y-23807D02*
X66807Y-24021D01*
X66993Y-24021D01*
X65235Y-32421D02*
X65235Y-32121D01*
X65350Y-32121D01*
X65378Y-32136D01*
X65393Y-32150D01*
X65407Y-32179D01*
X65407Y-32221D01*
X65393Y-32250D01*
X65378Y-32264D01*
X65350Y-32279D01*
X65235Y-32279D01*
X65507Y-32121D02*
X65707Y-32421D01*
X65707Y-32121D02*
X65507Y-32421D01*
X65793Y-32121D02*
X65979Y-32121D01*
X65879Y-32236D01*
X65921Y-32236D01*
X65950Y-32250D01*
X65964Y-32264D01*
X65979Y-32293D01*
X65979Y-32364D01*
X65964Y-32393D01*
X65950Y-32407D01*
X65921Y-32421D01*
X65836Y-32421D01*
X65807Y-32407D01*
X65793Y-32393D01*
X62135Y-36821D02*
X62135Y-36521D01*
X62250Y-36521D01*
X62278Y-36536D01*
X62293Y-36550D01*
X62307Y-36579D01*
X62307Y-36621D01*
X62293Y-36650D01*
X62278Y-36664D01*
X62250Y-36679D01*
X62135Y-36679D01*
X62407Y-36521D02*
X62607Y-36821D01*
X62607Y-36521D02*
X62407Y-36821D01*
X62707Y-36550D02*
X62721Y-36536D01*
X62750Y-36521D01*
X62821Y-36521D01*
X62850Y-36536D01*
X62864Y-36550D01*
X62879Y-36579D01*
X62879Y-36607D01*
X62864Y-36650D01*
X62693Y-36821D01*
X62879Y-36821D01*
X60035Y-30521D02*
X60035Y-30221D01*
X60150Y-30221D01*
X60178Y-30236D01*
X60193Y-30250D01*
X60207Y-30279D01*
X60207Y-30321D01*
X60193Y-30350D01*
X60178Y-30364D01*
X60150Y-30379D01*
X60035Y-30379D01*
X60307Y-30221D02*
X60507Y-30521D01*
X60507Y-30221D02*
X60307Y-30521D01*
X60779Y-30521D02*
X60607Y-30521D01*
X60693Y-30521D02*
X60693Y-30221D01*
X60664Y-30264D01*
X60636Y-30293D01*
X60607Y-30307D01*
X68407Y-23921D02*
X68407Y-23621D01*
X68522Y-23621D01*
X68550Y-23636D01*
X68565Y-23650D01*
X68579Y-23679D01*
X68579Y-23721D01*
X68565Y-23750D01*
X68550Y-23764D01*
X68522Y-23779D01*
X68407Y-23779D01*
X68693Y-23907D02*
X68736Y-23921D01*
X68807Y-23921D01*
X68836Y-23907D01*
X68850Y-23893D01*
X68865Y-23864D01*
X68865Y-23836D01*
X68850Y-23807D01*
X68836Y-23793D01*
X68807Y-23779D01*
X68750Y-23764D01*
X68722Y-23750D01*
X68707Y-23736D01*
X68693Y-23707D01*
X68693Y-23679D01*
X68707Y-23650D01*
X68722Y-23636D01*
X68750Y-23621D01*
X68822Y-23621D01*
X68865Y-23636D01*
X69051Y-23621D02*
X69108Y-23621D01*
X69136Y-23636D01*
X69165Y-23664D01*
X69179Y-23721D01*
X69179Y-23821D01*
X69165Y-23879D01*
X69136Y-23907D01*
X69108Y-23921D01*
X69051Y-23921D01*
X69022Y-23907D01*
X68993Y-23879D01*
X68979Y-23821D01*
X68979Y-23721D01*
X68993Y-23664D01*
X69022Y-23636D01*
X69051Y-23621D01*
X69307Y-23621D02*
X69307Y-23864D01*
X69322Y-23893D01*
X69336Y-23907D01*
X69365Y-23921D01*
X69422Y-23921D01*
X69450Y-23907D01*
X69465Y-23893D01*
X69479Y-23864D01*
X69479Y-23621D01*
X69579Y-23621D02*
X69750Y-23621D01*
X69664Y-23921D02*
X69664Y-23621D01*
X70008Y-23921D02*
X69836Y-23921D01*
X69922Y-23921D02*
X69922Y-23621D01*
X69893Y-23664D01*
X69865Y-23693D01*
X69836Y-23707D01*
G54D17*
X51701Y-36642D02*
X51582Y-36725D01*
X51701Y-36784D02*
X51451Y-36784D01*
X51451Y-36689D01*
X51463Y-36665D01*
X51475Y-36654D01*
X51499Y-36642D01*
X51535Y-36642D01*
X51558Y-36654D01*
X51570Y-36665D01*
X51582Y-36689D01*
X51582Y-36784D01*
X51475Y-36546D02*
X51463Y-36534D01*
X51451Y-36511D01*
X51451Y-36451D01*
X51463Y-36427D01*
X51475Y-36415D01*
X51499Y-36404D01*
X51523Y-36404D01*
X51558Y-36415D01*
X51701Y-36558D01*
X51701Y-36404D01*
X60601Y-27042D02*
X60482Y-27125D01*
X60601Y-27184D02*
X60351Y-27184D01*
X60351Y-27089D01*
X60363Y-27065D01*
X60375Y-27054D01*
X60399Y-27042D01*
X60435Y-27042D01*
X60458Y-27054D01*
X60470Y-27065D01*
X60482Y-27089D01*
X60482Y-27184D01*
X60601Y-26804D02*
X60601Y-26946D01*
X60601Y-26875D02*
X60351Y-26875D01*
X60387Y-26899D01*
X60411Y-26923D01*
X60423Y-26946D01*
X58850Y-28421D02*
X58850Y-28636D01*
X58836Y-28679D01*
X58807Y-28707D01*
X58764Y-28721D01*
X58736Y-28721D01*
X58993Y-28721D02*
X58993Y-28421D01*
X59108Y-28421D01*
X59136Y-28436D01*
X59151Y-28450D01*
X59165Y-28479D01*
X59165Y-28521D01*
X59151Y-28550D01*
X59136Y-28564D01*
X59108Y-28579D01*
X58993Y-28579D01*
X59451Y-28721D02*
X59279Y-28721D01*
X59365Y-28721D02*
X59365Y-28421D01*
X59336Y-28464D01*
X59308Y-28493D01*
X59279Y-28507D01*
X58421Y-27250D02*
X58636Y-27250D01*
X58679Y-27264D01*
X58707Y-27293D01*
X58721Y-27336D01*
X58721Y-27364D01*
X58721Y-27107D02*
X58421Y-27107D01*
X58421Y-26992D01*
X58436Y-26964D01*
X58450Y-26949D01*
X58479Y-26935D01*
X58521Y-26935D01*
X58550Y-26949D01*
X58564Y-26964D01*
X58579Y-26992D01*
X58579Y-27107D01*
X58450Y-26821D02*
X58436Y-26807D01*
X58421Y-26778D01*
X58421Y-26707D01*
X58436Y-26678D01*
X58450Y-26664D01*
X58479Y-26649D01*
X58507Y-26649D01*
X58550Y-26664D01*
X58721Y-26835D01*
X58721Y-26649D01*
G54D21*
X57561Y-36902D02*
X57561Y-36402D01*
X58032Y-36855D02*
X58011Y-36879D01*
X57947Y-36902D01*
X57904Y-36902D01*
X57839Y-36879D01*
X57797Y-36831D01*
X57775Y-36783D01*
X57754Y-36688D01*
X57754Y-36617D01*
X57775Y-36521D01*
X57797Y-36474D01*
X57839Y-36426D01*
X57904Y-36402D01*
X57947Y-36402D01*
X58011Y-36426D01*
X58032Y-36450D01*
X58204Y-36450D02*
X58225Y-36426D01*
X58268Y-36402D01*
X58375Y-36402D01*
X58418Y-36426D01*
X58439Y-36450D01*
X58461Y-36498D01*
X58461Y-36545D01*
X58439Y-36617D01*
X58182Y-36902D01*
X58461Y-36902D01*
X56424Y-36179D02*
X56481Y-36202D01*
X56577Y-36202D01*
X56615Y-36179D01*
X56634Y-36155D01*
X56653Y-36107D01*
X56653Y-36060D01*
X56634Y-36012D01*
X56615Y-35988D01*
X56577Y-35964D01*
X56500Y-35940D01*
X56462Y-35917D01*
X56443Y-35893D01*
X56424Y-35845D01*
X56424Y-35798D01*
X56443Y-35750D01*
X56462Y-35726D01*
X56500Y-35702D01*
X56596Y-35702D01*
X56653Y-35726D01*
X56824Y-36202D02*
X56824Y-35702D01*
X57053Y-36202D01*
X57053Y-35702D01*
X57205Y-35702D02*
X57472Y-35702D01*
X57300Y-36202D01*
X57815Y-35702D02*
X57624Y-35702D01*
X57605Y-35940D01*
X57624Y-35917D01*
X57662Y-35893D01*
X57758Y-35893D01*
X57796Y-35917D01*
X57815Y-35940D01*
X57834Y-35988D01*
X57834Y-36107D01*
X57815Y-36155D01*
X57796Y-36179D01*
X57758Y-36202D01*
X57662Y-36202D01*
X57624Y-36179D01*
X57605Y-36155D01*
X58215Y-36202D02*
X57986Y-36202D01*
X58100Y-36202D02*
X58100Y-35702D01*
X58062Y-35774D01*
X58024Y-35821D01*
X57986Y-35845D01*
X58348Y-35702D02*
X58615Y-35702D01*
X58443Y-36202D01*
X58939Y-35702D02*
X58862Y-35702D01*
X58824Y-35726D01*
X58805Y-35750D01*
X58767Y-35821D01*
X58748Y-35917D01*
X58748Y-36107D01*
X58767Y-36155D01*
X58786Y-36179D01*
X58824Y-36202D01*
X58901Y-36202D01*
X58939Y-36179D01*
X58958Y-36155D01*
X58977Y-36107D01*
X58977Y-35988D01*
X58958Y-35940D01*
X58939Y-35917D01*
X58901Y-35893D01*
X58824Y-35893D01*
X58786Y-35917D01*
X58767Y-35940D01*
X58748Y-35988D01*
X59282Y-35940D02*
X59339Y-35964D01*
X59358Y-35988D01*
X59377Y-36036D01*
X59377Y-36107D01*
X59358Y-36155D01*
X59339Y-36179D01*
X59301Y-36202D01*
X59148Y-36202D01*
X59148Y-35702D01*
X59282Y-35702D01*
X59320Y-35726D01*
X59339Y-35750D01*
X59358Y-35798D01*
X59358Y-35845D01*
X59339Y-35893D01*
X59320Y-35917D01*
X59282Y-35940D01*
X59148Y-35940D01*
G54D19*
X62043Y-41550D02*
X62043Y-41293D01*
X62643Y-41422D02*
X62043Y-41422D01*
X62643Y-40929D02*
X62643Y-41143D01*
X62043Y-41143D01*
X62586Y-40522D02*
X62614Y-40543D01*
X62643Y-40607D01*
X62643Y-40650D01*
X62614Y-40715D01*
X62557Y-40757D01*
X62500Y-40779D01*
X62386Y-40800D01*
X62300Y-40800D01*
X62186Y-40779D01*
X62129Y-40757D01*
X62071Y-40715D01*
X62043Y-40650D01*
X62043Y-40607D01*
X62071Y-40543D01*
X62100Y-40522D01*
X62643Y-40093D02*
X62643Y-40350D01*
X62643Y-40222D02*
X62043Y-40222D01*
X62129Y-40265D01*
X62186Y-40307D01*
X62214Y-40350D01*
X62043Y-50693D02*
X62043Y-50436D01*
X62643Y-50565D02*
X62043Y-50565D01*
X62643Y-50072D02*
X62643Y-50286D01*
X62043Y-50286D01*
X62586Y-49665D02*
X62614Y-49686D01*
X62643Y-49750D01*
X62643Y-49793D01*
X62614Y-49858D01*
X62557Y-49900D01*
X62500Y-49922D01*
X62386Y-49943D01*
X62300Y-49943D01*
X62186Y-49922D01*
X62129Y-49900D01*
X62071Y-49858D01*
X62043Y-49793D01*
X62043Y-49750D01*
X62071Y-49686D01*
X62100Y-49665D01*
X62043Y-49258D02*
X62043Y-49472D01*
X62329Y-49493D01*
X62300Y-49472D01*
X62271Y-49429D01*
X62271Y-49322D01*
X62300Y-49279D01*
X62329Y-49258D01*
X62386Y-49236D01*
X62529Y-49236D01*
X62586Y-49258D01*
X62614Y-49279D01*
X62643Y-49322D01*
X62643Y-49429D01*
X62614Y-49472D01*
X62586Y-49493D01*
X62643Y-49021D02*
X62643Y-48936D01*
X62614Y-48893D01*
X62586Y-48871D01*
X62500Y-48829D01*
X62386Y-48807D01*
X62157Y-48807D01*
X62100Y-48829D01*
X62071Y-48850D01*
X62043Y-48893D01*
X62043Y-48979D01*
X62071Y-49021D01*
X62100Y-49043D01*
X62157Y-49064D01*
X62300Y-49064D01*
X62357Y-49043D01*
X62386Y-49021D01*
X62414Y-48979D01*
X62414Y-48893D01*
X62386Y-48850D01*
X62357Y-48829D01*
X62300Y-48807D01*
X62243Y-48421D02*
X62643Y-48421D01*
X62014Y-48528D02*
X62443Y-48635D01*
X62443Y-48357D01*
X62043Y-48099D02*
X62043Y-48056D01*
X62071Y-48013D01*
X62100Y-47992D01*
X62157Y-47971D01*
X62271Y-47949D01*
X62414Y-47949D01*
X62529Y-47971D01*
X62586Y-47992D01*
X62614Y-48013D01*
X62643Y-48056D01*
X62643Y-48099D01*
X62614Y-48142D01*
X62586Y-48163D01*
X62529Y-48185D01*
X62414Y-48206D01*
X62271Y-48206D01*
X62157Y-48185D01*
X62100Y-48163D01*
X62071Y-48142D01*
X62043Y-48099D01*
X68843Y-41550D02*
X68843Y-41293D01*
X69443Y-41422D02*
X68843Y-41422D01*
X69443Y-40929D02*
X69443Y-41143D01*
X68843Y-41143D01*
X69386Y-40522D02*
X69414Y-40543D01*
X69443Y-40607D01*
X69443Y-40650D01*
X69414Y-40715D01*
X69357Y-40757D01*
X69300Y-40779D01*
X69186Y-40800D01*
X69100Y-40800D01*
X68986Y-40779D01*
X68929Y-40757D01*
X68871Y-40715D01*
X68843Y-40650D01*
X68843Y-40607D01*
X68871Y-40543D01*
X68900Y-40522D01*
X68900Y-40350D02*
X68871Y-40329D01*
X68843Y-40286D01*
X68843Y-40179D01*
X68871Y-40136D01*
X68900Y-40115D01*
X68957Y-40093D01*
X69014Y-40093D01*
X69100Y-40115D01*
X69443Y-40372D01*
X69443Y-40093D01*
X68843Y-50693D02*
X68843Y-50436D01*
X69443Y-50565D02*
X68843Y-50565D01*
X69443Y-50072D02*
X69443Y-50286D01*
X68843Y-50286D01*
X69386Y-49665D02*
X69414Y-49686D01*
X69443Y-49750D01*
X69443Y-49793D01*
X69414Y-49858D01*
X69357Y-49900D01*
X69300Y-49922D01*
X69186Y-49943D01*
X69100Y-49943D01*
X68986Y-49922D01*
X68929Y-49900D01*
X68871Y-49858D01*
X68843Y-49793D01*
X68843Y-49750D01*
X68871Y-49686D01*
X68900Y-49665D01*
X68843Y-49258D02*
X68843Y-49472D01*
X69129Y-49493D01*
X69100Y-49472D01*
X69071Y-49429D01*
X69071Y-49322D01*
X69100Y-49279D01*
X69129Y-49258D01*
X69186Y-49236D01*
X69329Y-49236D01*
X69386Y-49258D01*
X69414Y-49279D01*
X69443Y-49322D01*
X69443Y-49429D01*
X69414Y-49472D01*
X69386Y-49493D01*
X69443Y-49021D02*
X69443Y-48936D01*
X69414Y-48893D01*
X69386Y-48871D01*
X69300Y-48829D01*
X69186Y-48807D01*
X68957Y-48807D01*
X68900Y-48829D01*
X68871Y-48850D01*
X68843Y-48893D01*
X68843Y-48979D01*
X68871Y-49021D01*
X68900Y-49043D01*
X68957Y-49064D01*
X69100Y-49064D01*
X69157Y-49043D01*
X69186Y-49021D01*
X69214Y-48979D01*
X69214Y-48893D01*
X69186Y-48850D01*
X69157Y-48829D01*
X69100Y-48807D01*
X69043Y-48421D02*
X69443Y-48421D01*
X68814Y-48528D02*
X69243Y-48635D01*
X69243Y-48357D01*
X68843Y-48099D02*
X68843Y-48056D01*
X68871Y-48013D01*
X68900Y-47992D01*
X68957Y-47971D01*
X69071Y-47949D01*
X69214Y-47949D01*
X69329Y-47971D01*
X69386Y-47992D01*
X69414Y-48013D01*
X69443Y-48056D01*
X69443Y-48099D01*
X69414Y-48142D01*
X69386Y-48163D01*
X69329Y-48185D01*
X69214Y-48206D01*
X69071Y-48206D01*
X68957Y-48185D01*
X68900Y-48163D01*
X68871Y-48142D01*
X68843Y-48099D01*
X68843Y-34750D02*
X68843Y-34493D01*
X69443Y-34622D02*
X68843Y-34622D01*
X69443Y-34129D02*
X69443Y-34343D01*
X68843Y-34343D01*
X69386Y-33722D02*
X69414Y-33743D01*
X69443Y-33807D01*
X69443Y-33850D01*
X69414Y-33915D01*
X69357Y-33957D01*
X69300Y-33979D01*
X69186Y-34000D01*
X69100Y-34000D01*
X68986Y-33979D01*
X68929Y-33957D01*
X68871Y-33915D01*
X68843Y-33850D01*
X68843Y-33807D01*
X68871Y-33743D01*
X68900Y-33722D01*
X68843Y-33572D02*
X68843Y-33293D01*
X69071Y-33443D01*
X69071Y-33379D01*
X69100Y-33336D01*
X69129Y-33315D01*
X69186Y-33293D01*
X69329Y-33293D01*
X69386Y-33315D01*
X69414Y-33336D01*
X69443Y-33379D01*
X69443Y-33507D01*
X69414Y-33550D01*
X69386Y-33572D01*
X68843Y-28093D02*
X68843Y-27836D01*
X69443Y-27965D02*
X68843Y-27965D01*
X69443Y-27472D02*
X69443Y-27686D01*
X68843Y-27686D01*
X69386Y-27065D02*
X69414Y-27086D01*
X69443Y-27150D01*
X69443Y-27193D01*
X69414Y-27258D01*
X69357Y-27300D01*
X69300Y-27322D01*
X69186Y-27343D01*
X69100Y-27343D01*
X68986Y-27322D01*
X68929Y-27300D01*
X68871Y-27258D01*
X68843Y-27193D01*
X68843Y-27150D01*
X68871Y-27086D01*
X68900Y-27065D01*
X68843Y-26658D02*
X68843Y-26872D01*
X69129Y-26893D01*
X69100Y-26872D01*
X69071Y-26829D01*
X69071Y-26722D01*
X69100Y-26679D01*
X69129Y-26658D01*
X69186Y-26636D01*
X69329Y-26636D01*
X69386Y-26658D01*
X69414Y-26679D01*
X69443Y-26722D01*
X69443Y-26829D01*
X69414Y-26872D01*
X69386Y-26893D01*
X69443Y-26421D02*
X69443Y-26336D01*
X69414Y-26293D01*
X69386Y-26271D01*
X69300Y-26229D01*
X69186Y-26207D01*
X68957Y-26207D01*
X68900Y-26229D01*
X68871Y-26250D01*
X68843Y-26293D01*
X68843Y-26379D01*
X68871Y-26421D01*
X68900Y-26443D01*
X68957Y-26464D01*
X69100Y-26464D01*
X69157Y-26443D01*
X69186Y-26421D01*
X69214Y-26379D01*
X69214Y-26293D01*
X69186Y-26250D01*
X69157Y-26229D01*
X69100Y-26207D01*
X69043Y-25821D02*
X69443Y-25821D01*
X68814Y-25928D02*
X69243Y-26035D01*
X69243Y-25757D01*
X68843Y-25499D02*
X68843Y-25456D01*
X68871Y-25413D01*
X68900Y-25392D01*
X68957Y-25371D01*
X69071Y-25349D01*
X69214Y-25349D01*
X69329Y-25371D01*
X69386Y-25392D01*
X69414Y-25413D01*
X69443Y-25456D01*
X69443Y-25499D01*
X69414Y-25542D01*
X69386Y-25563D01*
X69329Y-25585D01*
X69214Y-25606D01*
X69071Y-25606D01*
X68957Y-25585D01*
X68900Y-25563D01*
X68871Y-25542D01*
X68843Y-25499D01*
G54D11*
X50507Y-38700D02*
X50521Y-38657D01*
X50521Y-38586D01*
X50507Y-38557D01*
X50493Y-38543D01*
X50464Y-38528D01*
X50436Y-38528D01*
X50407Y-38543D01*
X50393Y-38557D01*
X50379Y-38586D01*
X50364Y-38643D01*
X50350Y-38671D01*
X50336Y-38686D01*
X50307Y-38700D01*
X50279Y-38700D01*
X50250Y-38686D01*
X50236Y-38671D01*
X50221Y-38643D01*
X50221Y-38571D01*
X50236Y-38528D01*
X50221Y-38428D02*
X50521Y-38357D01*
X50307Y-38300D01*
X50521Y-38242D01*
X50221Y-38171D01*
X50521Y-37899D02*
X50521Y-38071D01*
X50521Y-37985D02*
X50221Y-37985D01*
X50264Y-38014D01*
X50293Y-38042D01*
X50307Y-38071D01*
X50907Y-39879D02*
X50921Y-39836D01*
X50921Y-39765D01*
X50907Y-39736D01*
X50893Y-39722D01*
X50864Y-39707D01*
X50836Y-39707D01*
X50807Y-39722D01*
X50793Y-39736D01*
X50779Y-39765D01*
X50764Y-39822D01*
X50750Y-39850D01*
X50736Y-39865D01*
X50707Y-39879D01*
X50679Y-39879D01*
X50650Y-39865D01*
X50636Y-39850D01*
X50621Y-39822D01*
X50621Y-39750D01*
X50636Y-39707D01*
X50621Y-39607D02*
X50921Y-39536D01*
X50707Y-39479D01*
X50921Y-39421D01*
X50621Y-39350D01*
X50950Y-39307D02*
X50950Y-39078D01*
X50921Y-39007D02*
X50621Y-39007D01*
X50621Y-38892D01*
X50636Y-38864D01*
X50650Y-38849D01*
X50679Y-38835D01*
X50721Y-38835D01*
X50750Y-38849D01*
X50764Y-38864D01*
X50779Y-38892D01*
X50779Y-39007D01*
X50621Y-38707D02*
X50864Y-38707D01*
X50893Y-38692D01*
X50907Y-38678D01*
X50921Y-38649D01*
X50921Y-38592D01*
X50907Y-38564D01*
X50893Y-38549D01*
X50864Y-38535D01*
X50621Y-38535D01*
X50907Y-38407D02*
X50921Y-38364D01*
X50921Y-38293D01*
X50907Y-38264D01*
X50893Y-38250D01*
X50864Y-38235D01*
X50836Y-38235D01*
X50807Y-38250D01*
X50793Y-38264D01*
X50779Y-38293D01*
X50764Y-38350D01*
X50750Y-38378D01*
X50736Y-38393D01*
X50707Y-38407D01*
X50679Y-38407D01*
X50650Y-38393D01*
X50636Y-38378D01*
X50621Y-38350D01*
X50621Y-38278D01*
X50636Y-38235D01*
X50921Y-38107D02*
X50621Y-38107D01*
X50764Y-38107D02*
X50764Y-37935D01*
X50921Y-37935D02*
X50621Y-37935D01*
M02*
