G04 (created by PCBNEW-RS274X (2012-03-17 BZR 3466)-stable) date Wed 07 Nov 2012 07:11:43 AM EST*
G01*
G70*
G90*
%MOIN*%
G04 Gerber Fmt 3.4, Leading zero omitted, Abs format*
%FSLAX34Y34*%
G04 APERTURE LIST*
%ADD10C,0.006000*%
%ADD11C,0.015000*%
%ADD12C,0.060000*%
%ADD13C,0.070000*%
%ADD14C,0.055000*%
%ADD15R,0.055000X0.055000*%
%ADD16C,0.189000*%
%ADD17R,0.189000X0.189000*%
%ADD18C,0.143700*%
%ADD19R,0.059100X0.059100*%
%ADD20C,0.059100*%
%ADD21R,0.035000X0.055000*%
%ADD22R,0.086600X0.094500*%
%ADD23C,0.098400*%
%ADD24R,0.070000X0.070000*%
%ADD25R,0.055000X0.035000*%
%ADD26C,0.130000*%
%ADD27C,0.024000*%
%ADD28C,0.010000*%
%ADD29C,0.050000*%
G04 APERTURE END LIST*
G54D10*
G54D11*
X22500Y-52100D02*
X61800Y-52100D01*
X22500Y-28600D02*
X61800Y-28600D01*
X22500Y-52100D02*
X22500Y-28600D01*
X61800Y-28600D02*
X61800Y-52100D01*
G54D12*
X25750Y-29150D03*
X27750Y-29150D03*
G54D13*
X25150Y-30150D03*
X28350Y-30150D03*
G54D14*
X26700Y-40300D03*
X27700Y-40300D03*
X28700Y-40300D03*
X29700Y-40300D03*
X30700Y-40300D03*
X31700Y-40300D03*
X32700Y-40300D03*
X33700Y-40300D03*
X34700Y-40300D03*
X35700Y-40300D03*
X36700Y-40300D03*
X37700Y-40300D03*
X38700Y-40300D03*
G54D15*
X25700Y-40300D03*
G54D14*
X38700Y-37300D03*
X37700Y-37300D03*
X36700Y-37300D03*
X35700Y-37300D03*
X34700Y-37300D03*
X33700Y-37300D03*
X32700Y-37300D03*
X31700Y-37300D03*
X30700Y-37300D03*
X29700Y-37300D03*
X28700Y-37300D03*
X27700Y-37300D03*
X26700Y-37300D03*
X25700Y-37300D03*
G54D16*
X50900Y-31800D03*
G54D17*
X50900Y-34200D03*
G54D16*
X48900Y-32700D03*
X58000Y-31800D03*
G54D17*
X58000Y-34200D03*
G54D16*
X56000Y-32700D03*
G54D18*
X36262Y-31700D03*
X40935Y-31700D03*
G54D19*
X40350Y-34200D03*
G54D20*
X39850Y-35200D03*
X39350Y-34200D03*
X38850Y-35200D03*
X38350Y-34200D03*
X37850Y-35200D03*
X37350Y-34200D03*
X36850Y-35200D03*
G54D18*
X29762Y-31700D03*
X34435Y-31700D03*
G54D19*
X33850Y-34200D03*
G54D20*
X33350Y-35200D03*
X32850Y-34200D03*
X32350Y-35200D03*
X31850Y-34200D03*
X31350Y-35200D03*
X30850Y-34200D03*
X30350Y-35200D03*
G54D21*
X43025Y-33400D03*
X43775Y-33400D03*
X43025Y-32400D03*
X43775Y-32400D03*
X43025Y-31400D03*
X43775Y-31400D03*
X43025Y-30400D03*
X43775Y-30400D03*
X52975Y-42100D03*
X52225Y-42100D03*
X52975Y-36400D03*
X52225Y-36400D03*
X43025Y-29399D03*
X43775Y-29399D03*
G54D22*
X32760Y-38800D03*
X35240Y-38800D03*
G54D23*
X29254Y-50500D03*
X25316Y-50500D03*
X23348Y-50500D03*
X27285Y-50500D03*
X60854Y-50500D03*
X56916Y-50500D03*
X54948Y-50500D03*
X58885Y-50500D03*
X52954Y-50500D03*
X49016Y-50500D03*
X47048Y-50500D03*
X50985Y-50500D03*
X45054Y-50500D03*
X41116Y-50500D03*
X39148Y-50500D03*
X43085Y-50500D03*
X37154Y-50500D03*
X33216Y-50500D03*
X31248Y-50500D03*
X35185Y-50500D03*
G54D20*
X54500Y-29800D03*
X54500Y-30800D03*
G54D13*
X48100Y-29800D03*
G54D24*
X47100Y-29800D03*
G54D13*
X46100Y-29800D03*
G54D25*
X36300Y-39275D03*
X36300Y-38525D03*
X31700Y-39275D03*
X31700Y-38525D03*
G54D21*
X26375Y-30150D03*
X27125Y-30150D03*
G54D14*
X56700Y-30600D03*
X59400Y-33600D03*
X46100Y-30600D03*
G54D26*
X60800Y-47100D03*
X23500Y-47100D03*
X60800Y-29600D03*
X23500Y-29600D03*
G54D14*
X46600Y-46100D03*
X47600Y-46100D03*
X48600Y-46100D03*
X49600Y-46100D03*
X50600Y-46100D03*
X51600Y-46100D03*
X52600Y-46100D03*
X53600Y-46100D03*
X54600Y-46100D03*
X55600Y-46100D03*
X56600Y-46100D03*
X57600Y-46100D03*
X58600Y-46100D03*
G54D15*
X45600Y-46100D03*
G54D14*
X58600Y-43100D03*
X57600Y-43100D03*
X56600Y-43100D03*
X55600Y-43100D03*
X54600Y-43100D03*
X53600Y-43100D03*
X52600Y-43100D03*
X51600Y-43100D03*
X50600Y-43100D03*
X49600Y-43100D03*
X48600Y-43100D03*
X47600Y-43100D03*
X46600Y-43100D03*
X45600Y-43100D03*
X46600Y-40300D03*
X47600Y-40300D03*
X48600Y-40300D03*
X49600Y-40300D03*
X50600Y-40300D03*
X51600Y-40300D03*
X52600Y-40300D03*
X53600Y-40300D03*
X54600Y-40300D03*
X55600Y-40300D03*
X56600Y-40300D03*
X57600Y-40300D03*
X58600Y-40300D03*
G54D15*
X45600Y-40300D03*
G54D14*
X58600Y-37300D03*
X57600Y-37300D03*
X56600Y-37300D03*
X55600Y-37300D03*
X54600Y-37300D03*
X53600Y-37300D03*
X52600Y-37300D03*
X51600Y-37300D03*
X50600Y-37300D03*
X49600Y-37300D03*
X48600Y-37300D03*
X47600Y-37300D03*
X46600Y-37300D03*
X45600Y-37300D03*
X26700Y-46100D03*
X27700Y-46100D03*
X28700Y-46100D03*
X29700Y-46100D03*
X30700Y-46100D03*
X31700Y-46100D03*
X32700Y-46100D03*
X33700Y-46100D03*
X34700Y-46100D03*
X35700Y-46100D03*
X36700Y-46100D03*
X37700Y-46100D03*
X38700Y-46100D03*
G54D15*
X25700Y-46100D03*
G54D14*
X38700Y-43100D03*
X37700Y-43100D03*
X36700Y-43100D03*
X35700Y-43100D03*
X34700Y-43100D03*
X33700Y-43100D03*
X32700Y-43100D03*
X31700Y-43100D03*
X30700Y-43100D03*
X29700Y-43100D03*
X28700Y-43100D03*
X27700Y-43100D03*
X26700Y-43100D03*
X25700Y-43100D03*
G54D27*
X30700Y-44100D03*
X49800Y-44900D03*
X45300Y-34300D03*
X44900Y-34300D03*
X44500Y-34300D03*
X44100Y-34300D03*
X35175Y-41075D03*
X54775Y-44525D03*
X35350Y-34700D03*
X35350Y-35700D03*
X38600Y-35900D03*
X41100Y-42475D03*
X47200Y-38600D03*
X38400Y-44150D03*
X27475Y-30900D03*
X28325Y-33100D03*
X42500Y-30400D03*
X42500Y-29400D03*
X42500Y-31400D03*
X42500Y-32400D03*
X42500Y-33400D03*
X24000Y-37400D03*
X28325Y-31600D03*
G54D28*
X50100Y-41500D02*
X50600Y-42000D01*
X37200Y-37800D02*
X37200Y-40900D01*
X31500Y-41400D02*
X30700Y-42200D01*
X50600Y-42000D02*
X50600Y-43100D01*
X37200Y-40900D02*
X36700Y-41400D01*
X31500Y-44900D02*
X30700Y-44100D01*
X50100Y-39000D02*
X50100Y-41500D01*
X50600Y-38500D02*
X50100Y-39000D01*
X30700Y-42200D02*
X30700Y-43100D01*
X37700Y-37300D02*
X37200Y-37800D01*
X50600Y-37300D02*
X50600Y-38500D01*
X36700Y-41400D02*
X31500Y-41400D01*
X31500Y-44900D02*
X49800Y-44900D01*
X30700Y-36950D02*
X30900Y-36750D01*
X30700Y-36950D02*
X30700Y-37300D01*
X42850Y-36750D02*
X30900Y-36750D01*
X45300Y-34300D02*
X42850Y-36750D01*
X44900Y-34300D02*
X42650Y-36550D01*
X29700Y-37300D02*
X29700Y-36950D01*
X29700Y-36950D02*
X30100Y-36550D01*
X42650Y-36550D02*
X30100Y-36550D01*
X28700Y-36950D02*
X29300Y-36350D01*
X44500Y-34300D02*
X42450Y-36350D01*
X29300Y-36350D02*
X42450Y-36350D01*
X28700Y-37300D02*
X28700Y-36950D01*
X42250Y-36150D02*
X28850Y-36150D01*
X42250Y-36150D02*
X44100Y-34300D01*
X28850Y-36150D02*
X27700Y-37300D01*
X29700Y-40775D02*
X30000Y-41075D01*
X55100Y-41950D02*
X55600Y-42450D01*
X35700Y-43100D02*
X35700Y-43825D01*
X35700Y-43825D02*
X36400Y-44525D01*
X36400Y-44525D02*
X54775Y-44525D01*
X54775Y-44525D02*
X54775Y-44525D01*
X55600Y-42450D02*
X55600Y-43100D01*
X35700Y-43825D02*
X35700Y-43825D01*
X55100Y-39000D02*
X55100Y-41950D01*
X55600Y-37300D02*
X55600Y-38500D01*
X55600Y-38500D02*
X55100Y-39000D01*
X29700Y-40300D02*
X29700Y-40775D01*
X30000Y-41075D02*
X35175Y-41075D01*
X53600Y-37025D02*
X53600Y-37300D01*
X52975Y-36400D02*
X53600Y-37025D01*
X52975Y-42100D02*
X53600Y-42725D01*
X53600Y-42725D02*
X53600Y-43100D01*
X26375Y-30150D02*
X26375Y-29775D01*
X26375Y-29775D02*
X25750Y-29150D01*
X32850Y-34400D02*
X33150Y-34700D01*
X32850Y-34200D02*
X32850Y-34400D01*
X33150Y-34700D02*
X35350Y-34700D01*
X35350Y-35700D02*
X37000Y-35700D01*
X37000Y-35700D02*
X38350Y-35700D01*
X38350Y-35700D02*
X38850Y-35200D01*
X32450Y-33600D02*
X36000Y-33600D01*
X31850Y-34200D02*
X32450Y-33600D01*
X37100Y-34700D02*
X36000Y-33600D01*
X37850Y-34700D02*
X37100Y-34700D01*
X38350Y-34200D02*
X37850Y-34700D01*
X31650Y-35950D02*
X37100Y-35950D01*
X38600Y-35900D02*
X38550Y-35950D01*
X31350Y-35650D02*
X31350Y-35200D01*
X38550Y-35950D02*
X37100Y-35950D01*
X31350Y-35650D02*
X31650Y-35950D01*
X30850Y-34200D02*
X30850Y-34050D01*
X31628Y-33272D02*
X36422Y-33272D01*
X36422Y-33272D02*
X37350Y-34200D01*
X30850Y-34050D02*
X31628Y-33272D01*
X48600Y-38000D02*
X48600Y-37300D01*
X48600Y-42500D02*
X48100Y-42000D01*
X48100Y-42000D02*
X48100Y-38500D01*
X48100Y-38500D02*
X48600Y-38000D01*
X48600Y-43100D02*
X48600Y-42500D01*
X47200Y-38600D02*
X47600Y-38200D01*
X36900Y-43725D02*
X39850Y-43725D01*
X36700Y-43525D02*
X36900Y-43725D01*
X47600Y-38200D02*
X47600Y-37300D01*
X36700Y-43100D02*
X36700Y-43525D01*
X39850Y-43725D02*
X41100Y-42475D01*
X47600Y-38200D02*
X47600Y-37300D01*
X47200Y-38600D02*
X47600Y-38200D01*
X57100Y-43500D02*
X56700Y-43900D01*
X56700Y-43900D02*
X48050Y-43900D01*
X56600Y-38500D02*
X57100Y-39000D01*
X48050Y-43900D02*
X47600Y-43450D01*
X47600Y-43450D02*
X47600Y-43100D01*
X57100Y-39000D02*
X57100Y-43500D01*
X56600Y-37300D02*
X56600Y-38500D01*
X57600Y-43100D02*
X57600Y-43550D01*
X57600Y-43550D02*
X57000Y-44150D01*
X57000Y-44150D02*
X38750Y-44150D01*
X38750Y-44150D02*
X38400Y-44150D01*
X31200Y-43400D02*
X31200Y-42150D01*
X49100Y-42000D02*
X49600Y-42500D01*
X38200Y-40750D02*
X38200Y-37800D01*
X49100Y-38500D02*
X49100Y-42000D01*
X29700Y-43100D02*
X29700Y-43350D01*
X30050Y-43700D02*
X30900Y-43700D01*
X49600Y-37300D02*
X49600Y-38000D01*
X31200Y-42150D02*
X31700Y-41650D01*
X29700Y-43350D02*
X30050Y-43700D01*
X49600Y-42500D02*
X49600Y-43100D01*
X30900Y-43700D02*
X31200Y-43400D01*
X31700Y-41650D02*
X37300Y-41650D01*
X38200Y-37800D02*
X38700Y-37300D01*
X49600Y-38000D02*
X49100Y-38500D01*
X37300Y-41650D02*
X38200Y-40750D01*
X33700Y-39740D02*
X32760Y-38800D01*
X32285Y-39275D02*
X32760Y-38800D01*
X31700Y-39275D02*
X32285Y-39275D01*
X33700Y-40300D02*
X33700Y-39740D01*
X35715Y-39275D02*
X35240Y-38800D01*
X36300Y-39275D02*
X35715Y-39275D01*
X34700Y-40300D02*
X34700Y-39340D01*
X34700Y-39340D02*
X35240Y-38800D01*
X33000Y-40800D02*
X34875Y-40800D01*
X32275Y-42250D02*
X40650Y-42250D01*
X31700Y-42825D02*
X32275Y-42250D01*
X54500Y-29800D02*
X53600Y-30700D01*
X46250Y-36900D02*
X46250Y-36300D01*
X46300Y-29000D02*
X47100Y-29800D01*
X53600Y-30700D02*
X53600Y-32400D01*
X50900Y-29800D02*
X54500Y-29800D01*
X34875Y-40800D02*
X35050Y-40625D01*
X41650Y-34000D02*
X40750Y-33100D01*
X40650Y-42250D02*
X45600Y-37300D01*
X46600Y-37300D02*
X46600Y-37250D01*
X30850Y-39300D02*
X30850Y-38525D01*
X31700Y-38525D02*
X30850Y-38525D01*
X27125Y-30150D02*
X27125Y-30875D01*
X43550Y-34000D02*
X43775Y-33775D01*
X24350Y-36100D02*
X27350Y-33100D01*
X44174Y-29000D02*
X46300Y-29000D01*
X24350Y-37200D02*
X24350Y-36100D01*
X40750Y-33100D02*
X28325Y-33100D01*
X51600Y-37025D02*
X51600Y-37300D01*
X36725Y-38525D02*
X36900Y-38700D01*
X32700Y-40300D02*
X32700Y-40500D01*
X36300Y-38525D02*
X36725Y-38525D01*
X49950Y-36000D02*
X50350Y-36400D01*
X52600Y-39200D02*
X52100Y-39200D01*
X52100Y-37800D02*
X52100Y-38700D01*
X50350Y-36400D02*
X52225Y-36400D01*
X36600Y-39800D02*
X35400Y-39800D01*
X51688Y-42637D02*
X51688Y-41750D01*
X57100Y-32700D02*
X56000Y-32700D01*
X51100Y-39500D02*
X51750Y-38850D01*
X51688Y-42637D02*
X51600Y-42725D01*
X36900Y-39500D02*
X36600Y-39800D01*
X27125Y-30875D02*
X27475Y-30900D01*
X31700Y-43100D02*
X31700Y-42825D01*
X52225Y-36400D02*
X51600Y-37025D01*
X58000Y-31800D02*
X56800Y-30600D01*
X52225Y-42100D02*
X51688Y-42637D01*
X31250Y-39700D02*
X30850Y-39300D01*
X49800Y-31800D02*
X50900Y-31800D01*
X25700Y-43100D02*
X26700Y-43100D01*
X56700Y-30600D02*
X55900Y-29800D01*
X56800Y-30600D02*
X56700Y-30600D01*
X32700Y-40300D02*
X32700Y-40150D01*
X43775Y-33775D02*
X43775Y-33400D01*
X43775Y-31400D02*
X43775Y-32400D01*
X52100Y-39200D02*
X52100Y-41600D01*
X51750Y-38850D02*
X52100Y-38850D01*
X50100Y-29000D02*
X50900Y-29800D01*
X46550Y-36000D02*
X49950Y-36000D01*
X50900Y-29800D02*
X50900Y-31800D01*
X36900Y-38700D02*
X36900Y-39500D01*
X55900Y-29800D02*
X54500Y-29800D01*
X52100Y-41600D02*
X52100Y-41975D01*
X52100Y-41975D02*
X52225Y-42100D01*
X52100Y-38700D02*
X52100Y-38850D01*
X31700Y-38525D02*
X31700Y-37300D01*
X53100Y-40850D02*
X53100Y-39700D01*
X51688Y-41750D02*
X51688Y-41538D01*
X52238Y-41200D02*
X52750Y-41200D01*
X58000Y-31800D02*
X57100Y-32700D01*
X53100Y-39700D02*
X52600Y-39200D01*
X48900Y-32700D02*
X49800Y-31800D01*
X52750Y-41200D02*
X53100Y-40850D01*
X35400Y-39800D02*
X35200Y-40000D01*
X35200Y-40000D02*
X35200Y-40600D01*
X51100Y-40950D02*
X51100Y-39500D01*
X33150Y-40750D02*
X32700Y-40300D01*
X43775Y-32400D02*
X43775Y-33400D01*
X35200Y-40600D02*
X35050Y-40750D01*
X51600Y-42725D02*
X51600Y-43100D01*
X53600Y-32400D02*
X53600Y-33850D01*
X52225Y-35225D02*
X53600Y-33850D01*
X30850Y-38525D02*
X25675Y-38525D01*
X52225Y-35225D02*
X52225Y-36400D01*
X52100Y-38850D02*
X52100Y-39200D01*
X32700Y-40150D02*
X32250Y-39700D01*
X43775Y-29399D02*
X44174Y-29000D01*
X46300Y-29000D02*
X50100Y-29000D01*
X27125Y-30150D02*
X27125Y-29775D01*
X51688Y-41750D02*
X52238Y-41200D01*
X32250Y-39700D02*
X31250Y-39700D01*
X27125Y-29775D02*
X27750Y-29150D01*
X45600Y-43100D02*
X46600Y-43100D01*
X46250Y-36300D02*
X46550Y-36000D01*
X27350Y-33100D02*
X28325Y-33100D01*
X25675Y-38525D02*
X24350Y-37200D01*
X46600Y-37300D02*
X45600Y-37300D01*
X43775Y-30400D02*
X43775Y-31400D01*
X46600Y-37250D02*
X46250Y-36900D01*
X43775Y-29399D02*
X43775Y-30400D01*
X51688Y-41538D02*
X51100Y-40950D01*
X32700Y-40500D02*
X33000Y-40800D01*
X35050Y-40750D02*
X33150Y-40750D01*
X51600Y-37300D02*
X52100Y-37800D01*
X43550Y-34000D02*
X41650Y-34000D01*
X42500Y-30400D02*
X43025Y-30400D01*
X42500Y-29400D02*
X42501Y-29399D01*
X42501Y-29399D02*
X43025Y-29399D01*
X42500Y-31400D02*
X43025Y-31400D01*
X42500Y-32400D02*
X43025Y-32400D01*
X42500Y-33400D02*
X43025Y-33400D01*
G54D29*
X56550Y-49400D02*
X60350Y-45600D01*
X58800Y-34200D02*
X58000Y-34200D01*
X32648Y-49100D02*
X31248Y-50500D01*
X59400Y-33600D02*
X58800Y-34200D01*
X60350Y-45600D02*
X60350Y-36550D01*
X40548Y-49100D02*
X32648Y-49100D01*
X24748Y-49100D02*
X23348Y-50500D01*
X48424Y-49124D02*
X47048Y-50500D01*
X48424Y-49124D02*
X48448Y-49100D01*
X56250Y-49100D02*
X56550Y-49400D01*
X48400Y-49100D02*
X40548Y-49100D01*
X60350Y-36550D02*
X58000Y-34200D01*
X53548Y-49100D02*
X48448Y-49100D01*
X40548Y-49100D02*
X39148Y-50500D01*
X54948Y-50500D02*
X55450Y-50500D01*
X53548Y-49100D02*
X56250Y-49100D01*
X32648Y-49100D02*
X24748Y-49100D01*
X55450Y-50500D02*
X56550Y-49400D01*
X48424Y-49124D02*
X48400Y-49100D01*
G54D28*
X54600Y-43100D02*
X54100Y-42600D01*
X54100Y-38200D02*
X54500Y-37800D01*
X32975Y-43725D02*
X34475Y-43725D01*
X54500Y-37800D02*
X54600Y-37700D01*
X32700Y-37300D02*
X33700Y-37300D01*
X52600Y-37625D02*
X52775Y-37800D01*
X52775Y-37800D02*
X54500Y-37800D01*
X27000Y-31600D02*
X28325Y-31600D01*
X54100Y-42600D02*
X54100Y-38200D01*
X24000Y-35950D02*
X26800Y-33150D01*
X52600Y-43425D02*
X52775Y-43600D01*
X32700Y-43100D02*
X32700Y-43450D01*
X52600Y-37300D02*
X52600Y-37625D01*
X32700Y-43450D02*
X32975Y-43725D01*
X34700Y-43500D02*
X34700Y-43100D01*
X52775Y-43600D02*
X54425Y-43600D01*
X46100Y-30600D02*
X46100Y-29800D01*
X26800Y-32200D02*
X26800Y-31800D01*
X34475Y-43725D02*
X34700Y-43500D01*
X26800Y-31800D02*
X27000Y-31600D01*
X24000Y-37400D02*
X24000Y-35950D01*
X26800Y-33150D02*
X26800Y-32200D01*
X54425Y-43600D02*
X54600Y-43425D01*
X26400Y-39800D02*
X24000Y-37400D01*
X31425Y-40300D02*
X30925Y-39800D01*
X30925Y-39800D02*
X26400Y-39800D01*
X31700Y-40300D02*
X31425Y-40300D01*
X54600Y-43425D02*
X54600Y-43100D01*
X52600Y-43100D02*
X52600Y-43425D01*
X54600Y-37700D02*
X54600Y-37300D01*
G54D10*
G36*
X36903Y-40778D02*
X36577Y-41105D01*
X35540Y-41105D01*
X35540Y-41003D01*
X35485Y-40869D01*
X35382Y-40766D01*
X35248Y-40710D01*
X35103Y-40710D01*
X34969Y-40765D01*
X34954Y-40780D01*
X34899Y-40780D01*
X34994Y-40741D01*
X35141Y-40595D01*
X35200Y-40451D01*
X35259Y-40594D01*
X35405Y-40741D01*
X35596Y-40820D01*
X35803Y-40820D01*
X35994Y-40741D01*
X36141Y-40595D01*
X36200Y-40451D01*
X36259Y-40594D01*
X36405Y-40741D01*
X36596Y-40820D01*
X36803Y-40820D01*
X36903Y-40778D01*
X36903Y-40778D01*
G37*
G54D11*
X36903Y-40778D02*
X36577Y-41105D01*
X35540Y-41105D01*
X35540Y-41003D01*
X35485Y-40869D01*
X35382Y-40766D01*
X35248Y-40710D01*
X35103Y-40710D01*
X34969Y-40765D01*
X34954Y-40780D01*
X34899Y-40780D01*
X34994Y-40741D01*
X35141Y-40595D01*
X35200Y-40451D01*
X35259Y-40594D01*
X35405Y-40741D01*
X35596Y-40820D01*
X35803Y-40820D01*
X35994Y-40741D01*
X36141Y-40595D01*
X36200Y-40451D01*
X36259Y-40594D01*
X36405Y-40741D01*
X36596Y-40820D01*
X36803Y-40820D01*
X36903Y-40778D01*
G54D10*
G36*
X53805Y-42512D02*
X53394Y-42101D01*
X53394Y-41777D01*
X53357Y-41687D01*
X53289Y-41619D01*
X53199Y-41581D01*
X53102Y-41581D01*
X52752Y-41581D01*
X52662Y-41618D01*
X52594Y-41686D01*
X52556Y-41776D01*
X52556Y-41873D01*
X52556Y-42423D01*
X52593Y-42513D01*
X52660Y-42580D01*
X52497Y-42580D01*
X52306Y-42659D01*
X52159Y-42805D01*
X52080Y-42996D01*
X52080Y-43203D01*
X52159Y-43394D01*
X52305Y-43541D01*
X52338Y-43554D01*
X52371Y-43605D01*
X50739Y-43605D01*
X50894Y-43541D01*
X51041Y-43395D01*
X51120Y-43204D01*
X51120Y-42997D01*
X51041Y-42806D01*
X50895Y-42659D01*
X50895Y-42000D01*
X50873Y-41887D01*
X50809Y-41791D01*
X50395Y-41377D01*
X50395Y-40778D01*
X50496Y-40820D01*
X50703Y-40820D01*
X50894Y-40741D01*
X51041Y-40595D01*
X51100Y-40451D01*
X51159Y-40594D01*
X51305Y-40741D01*
X51496Y-40820D01*
X51703Y-40820D01*
X51894Y-40741D01*
X52041Y-40595D01*
X52100Y-40451D01*
X52159Y-40594D01*
X52305Y-40741D01*
X52496Y-40820D01*
X52703Y-40820D01*
X52894Y-40741D01*
X53041Y-40595D01*
X53100Y-40451D01*
X53159Y-40594D01*
X53305Y-40741D01*
X53496Y-40820D01*
X53703Y-40820D01*
X53805Y-40777D01*
X53805Y-42512D01*
X53805Y-42512D01*
G37*
G54D11*
X53805Y-42512D02*
X53394Y-42101D01*
X53394Y-41777D01*
X53357Y-41687D01*
X53289Y-41619D01*
X53199Y-41581D01*
X53102Y-41581D01*
X52752Y-41581D01*
X52662Y-41618D01*
X52594Y-41686D01*
X52556Y-41776D01*
X52556Y-41873D01*
X52556Y-42423D01*
X52593Y-42513D01*
X52660Y-42580D01*
X52497Y-42580D01*
X52306Y-42659D01*
X52159Y-42805D01*
X52080Y-42996D01*
X52080Y-43203D01*
X52159Y-43394D01*
X52305Y-43541D01*
X52338Y-43554D01*
X52371Y-43605D01*
X50739Y-43605D01*
X50894Y-43541D01*
X51041Y-43395D01*
X51120Y-43204D01*
X51120Y-42997D01*
X51041Y-42806D01*
X50895Y-42659D01*
X50895Y-42000D01*
X50873Y-41887D01*
X50809Y-41791D01*
X50395Y-41377D01*
X50395Y-40778D01*
X50496Y-40820D01*
X50703Y-40820D01*
X50894Y-40741D01*
X51041Y-40595D01*
X51100Y-40451D01*
X51159Y-40594D01*
X51305Y-40741D01*
X51496Y-40820D01*
X51703Y-40820D01*
X51894Y-40741D01*
X52041Y-40595D01*
X52100Y-40451D01*
X52159Y-40594D01*
X52305Y-40741D01*
X52496Y-40820D01*
X52703Y-40820D01*
X52894Y-40741D01*
X53041Y-40595D01*
X53100Y-40451D01*
X53159Y-40594D01*
X53305Y-40741D01*
X53496Y-40820D01*
X53703Y-40820D01*
X53805Y-40777D01*
X53805Y-42512D01*
G54D10*
G36*
X61480Y-46514D02*
X61308Y-46342D01*
X60979Y-46205D01*
X60623Y-46205D01*
X60319Y-46330D01*
X60700Y-45950D01*
X60807Y-45790D01*
X60807Y-45789D01*
X60845Y-45600D01*
X60845Y-36550D01*
X60807Y-36361D01*
X60807Y-36360D01*
X60700Y-36200D01*
X59189Y-34689D01*
X59189Y-34511D01*
X59634Y-34065D01*
X59694Y-34041D01*
X59841Y-33895D01*
X59920Y-33704D01*
X59920Y-33497D01*
X59841Y-33306D01*
X59695Y-33159D01*
X59504Y-33080D01*
X59297Y-33080D01*
X59160Y-33136D01*
X59152Y-33117D01*
X59084Y-33049D01*
X58994Y-33011D01*
X58897Y-33011D01*
X57007Y-33011D01*
X56917Y-33048D01*
X56849Y-33116D01*
X56811Y-33206D01*
X56811Y-33303D01*
X56811Y-35193D01*
X56848Y-35283D01*
X56916Y-35351D01*
X57006Y-35389D01*
X57103Y-35389D01*
X58489Y-35389D01*
X59855Y-36755D01*
X59855Y-45395D01*
X59120Y-46130D01*
X59120Y-45997D01*
X59120Y-43204D01*
X59120Y-42997D01*
X59041Y-42806D01*
X58895Y-42659D01*
X58704Y-42580D01*
X58497Y-42580D01*
X58306Y-42659D01*
X58159Y-42805D01*
X58099Y-42948D01*
X58041Y-42806D01*
X57895Y-42659D01*
X57704Y-42580D01*
X57497Y-42580D01*
X57395Y-42622D01*
X57395Y-40778D01*
X57496Y-40820D01*
X57703Y-40820D01*
X57894Y-40741D01*
X58041Y-40595D01*
X58100Y-40451D01*
X58159Y-40594D01*
X58305Y-40741D01*
X58496Y-40820D01*
X58703Y-40820D01*
X58894Y-40741D01*
X59041Y-40595D01*
X59120Y-40404D01*
X59120Y-40197D01*
X59041Y-40006D01*
X58895Y-39859D01*
X58704Y-39780D01*
X58497Y-39780D01*
X58306Y-39859D01*
X58159Y-40005D01*
X58099Y-40148D01*
X58041Y-40006D01*
X57895Y-39859D01*
X57704Y-39780D01*
X57497Y-39780D01*
X57395Y-39822D01*
X57395Y-39000D01*
X57373Y-38887D01*
X57309Y-38791D01*
X56895Y-38377D01*
X56895Y-37740D01*
X57041Y-37595D01*
X57100Y-37451D01*
X57159Y-37594D01*
X57305Y-37741D01*
X57496Y-37820D01*
X57703Y-37820D01*
X57894Y-37741D01*
X58041Y-37595D01*
X58100Y-37451D01*
X58159Y-37594D01*
X58305Y-37741D01*
X58496Y-37820D01*
X58703Y-37820D01*
X58894Y-37741D01*
X59041Y-37595D01*
X59120Y-37404D01*
X59120Y-37197D01*
X59041Y-37006D01*
X58895Y-36859D01*
X58704Y-36780D01*
X58497Y-36780D01*
X58306Y-36859D01*
X58159Y-37005D01*
X58099Y-37148D01*
X58041Y-37006D01*
X57895Y-36859D01*
X57704Y-36780D01*
X57497Y-36780D01*
X57306Y-36859D01*
X57159Y-37005D01*
X57099Y-37148D01*
X57041Y-37006D01*
X56895Y-36859D01*
X56704Y-36780D01*
X56497Y-36780D01*
X56306Y-36859D01*
X56159Y-37005D01*
X56099Y-37148D01*
X56041Y-37006D01*
X55895Y-36859D01*
X55704Y-36780D01*
X55497Y-36780D01*
X55306Y-36859D01*
X55159Y-37005D01*
X55099Y-37148D01*
X55041Y-37006D01*
X55040Y-37004D01*
X55040Y-30908D01*
X55040Y-30693D01*
X54958Y-30494D01*
X54806Y-30343D01*
X54608Y-30260D01*
X54393Y-30260D01*
X54194Y-30342D01*
X54043Y-30494D01*
X53960Y-30692D01*
X53960Y-30907D01*
X54042Y-31106D01*
X54194Y-31257D01*
X54392Y-31340D01*
X54607Y-31340D01*
X54806Y-31258D01*
X54957Y-31106D01*
X55040Y-30908D01*
X55040Y-37004D01*
X54895Y-36859D01*
X54704Y-36780D01*
X54497Y-36780D01*
X54306Y-36859D01*
X54159Y-37005D01*
X54099Y-37148D01*
X54041Y-37006D01*
X53895Y-36859D01*
X53815Y-36826D01*
X53809Y-36816D01*
X53806Y-36814D01*
X53394Y-36401D01*
X53394Y-36077D01*
X53357Y-35987D01*
X53289Y-35919D01*
X53199Y-35881D01*
X53102Y-35881D01*
X52752Y-35881D01*
X52662Y-35918D01*
X52594Y-35986D01*
X52556Y-36076D01*
X52556Y-36173D01*
X52556Y-36723D01*
X52579Y-36780D01*
X52497Y-36780D01*
X52306Y-36859D01*
X52159Y-37005D01*
X52089Y-37174D01*
X52089Y-35194D01*
X52089Y-35097D01*
X52089Y-33207D01*
X52052Y-33117D01*
X51984Y-33049D01*
X51894Y-33011D01*
X51797Y-33011D01*
X49907Y-33011D01*
X49817Y-33048D01*
X49749Y-33116D01*
X49711Y-33206D01*
X49711Y-33303D01*
X49711Y-35193D01*
X49748Y-35283D01*
X49816Y-35351D01*
X49906Y-35389D01*
X50003Y-35389D01*
X51893Y-35389D01*
X51983Y-35352D01*
X52051Y-35284D01*
X52089Y-35194D01*
X52089Y-37174D01*
X52080Y-37196D01*
X52080Y-37403D01*
X52159Y-37594D01*
X52305Y-37741D01*
X52338Y-37754D01*
X52391Y-37834D01*
X52564Y-38006D01*
X52566Y-38009D01*
X52662Y-38073D01*
X52775Y-38095D01*
X53825Y-38095D01*
X53804Y-38200D01*
X53805Y-38204D01*
X53805Y-39821D01*
X53704Y-39780D01*
X53497Y-39780D01*
X53306Y-39859D01*
X53159Y-40005D01*
X53099Y-40148D01*
X53041Y-40006D01*
X52895Y-39859D01*
X52704Y-39780D01*
X52497Y-39780D01*
X52306Y-39859D01*
X52159Y-40005D01*
X52099Y-40148D01*
X52041Y-40006D01*
X51895Y-39859D01*
X51704Y-39780D01*
X51497Y-39780D01*
X51306Y-39859D01*
X51159Y-40005D01*
X51099Y-40148D01*
X51041Y-40006D01*
X50895Y-39859D01*
X50704Y-39780D01*
X50497Y-39780D01*
X50395Y-39822D01*
X50395Y-39123D01*
X50809Y-38709D01*
X50873Y-38613D01*
X50895Y-38500D01*
X50895Y-37740D01*
X51041Y-37595D01*
X51120Y-37404D01*
X51120Y-37197D01*
X51041Y-37006D01*
X50895Y-36859D01*
X50704Y-36780D01*
X50497Y-36780D01*
X50306Y-36859D01*
X50159Y-37005D01*
X50099Y-37148D01*
X50041Y-37006D01*
X49895Y-36859D01*
X49704Y-36780D01*
X49497Y-36780D01*
X49306Y-36859D01*
X49159Y-37005D01*
X49099Y-37148D01*
X49041Y-37006D01*
X48895Y-36859D01*
X48704Y-36780D01*
X48694Y-36780D01*
X48694Y-29918D01*
X48694Y-29682D01*
X48604Y-29464D01*
X48437Y-29297D01*
X48218Y-29206D01*
X47982Y-29206D01*
X47764Y-29296D01*
X47597Y-29463D01*
X47506Y-29682D01*
X47506Y-29918D01*
X47596Y-30136D01*
X47763Y-30303D01*
X47982Y-30394D01*
X48218Y-30394D01*
X48436Y-30304D01*
X48603Y-30137D01*
X48694Y-29918D01*
X48694Y-36780D01*
X48497Y-36780D01*
X48306Y-36859D01*
X48159Y-37005D01*
X48099Y-37148D01*
X48041Y-37006D01*
X47895Y-36859D01*
X47704Y-36780D01*
X47497Y-36780D01*
X47306Y-36859D01*
X47159Y-37005D01*
X47080Y-37196D01*
X47080Y-37403D01*
X47159Y-37594D01*
X47305Y-37741D01*
X47305Y-38077D01*
X47147Y-38235D01*
X47128Y-38235D01*
X46994Y-38290D01*
X46891Y-38393D01*
X46835Y-38527D01*
X46835Y-38672D01*
X46890Y-38806D01*
X46993Y-38909D01*
X47127Y-38965D01*
X47272Y-38965D01*
X47406Y-38910D01*
X47509Y-38807D01*
X47565Y-38673D01*
X47565Y-38652D01*
X47806Y-38410D01*
X47808Y-38409D01*
X47809Y-38409D01*
X47872Y-38314D01*
X47873Y-38313D01*
X47895Y-38200D01*
X47895Y-37740D01*
X48041Y-37595D01*
X48100Y-37451D01*
X48159Y-37594D01*
X48305Y-37741D01*
X48305Y-37877D01*
X47891Y-38291D01*
X47827Y-38387D01*
X47804Y-38500D01*
X47805Y-38504D01*
X47805Y-39821D01*
X47704Y-39780D01*
X47497Y-39780D01*
X47306Y-39859D01*
X47159Y-40005D01*
X47099Y-40148D01*
X47041Y-40006D01*
X46895Y-39859D01*
X46704Y-39780D01*
X46694Y-39780D01*
X46694Y-29918D01*
X46694Y-29682D01*
X46604Y-29464D01*
X46437Y-29297D01*
X46218Y-29206D01*
X45982Y-29206D01*
X45764Y-29296D01*
X45597Y-29463D01*
X45506Y-29682D01*
X45506Y-29918D01*
X45596Y-30136D01*
X45712Y-30252D01*
X45659Y-30305D01*
X45580Y-30496D01*
X45580Y-30703D01*
X45659Y-30894D01*
X45805Y-31041D01*
X45996Y-31120D01*
X46203Y-31120D01*
X46394Y-31041D01*
X46541Y-30895D01*
X46620Y-30704D01*
X46620Y-30497D01*
X46541Y-30306D01*
X46487Y-30252D01*
X46603Y-30137D01*
X46694Y-29918D01*
X46694Y-39780D01*
X46497Y-39780D01*
X46306Y-39859D01*
X46159Y-40005D01*
X46119Y-40101D01*
X46119Y-39977D01*
X46082Y-39887D01*
X46014Y-39819D01*
X45924Y-39781D01*
X45827Y-39781D01*
X45277Y-39781D01*
X45187Y-39818D01*
X45119Y-39886D01*
X45081Y-39976D01*
X45081Y-40073D01*
X45081Y-40623D01*
X45118Y-40713D01*
X45186Y-40781D01*
X45276Y-40819D01*
X45373Y-40819D01*
X45923Y-40819D01*
X46013Y-40782D01*
X46081Y-40714D01*
X46119Y-40624D01*
X46119Y-40527D01*
X46119Y-40497D01*
X46159Y-40594D01*
X46305Y-40741D01*
X46496Y-40820D01*
X46703Y-40820D01*
X46894Y-40741D01*
X47041Y-40595D01*
X47100Y-40451D01*
X47159Y-40594D01*
X47305Y-40741D01*
X47496Y-40820D01*
X47703Y-40820D01*
X47805Y-40777D01*
X47805Y-41995D01*
X47804Y-42000D01*
X47827Y-42113D01*
X47891Y-42209D01*
X48305Y-42623D01*
X48305Y-42659D01*
X48159Y-42805D01*
X48099Y-42948D01*
X48041Y-42806D01*
X47895Y-42659D01*
X47704Y-42580D01*
X47497Y-42580D01*
X47306Y-42659D01*
X47159Y-42805D01*
X47080Y-42996D01*
X47080Y-43203D01*
X47159Y-43394D01*
X47305Y-43541D01*
X47324Y-43548D01*
X47327Y-43563D01*
X47391Y-43659D01*
X47587Y-43855D01*
X40137Y-43855D01*
X41152Y-42840D01*
X41172Y-42840D01*
X41306Y-42785D01*
X41409Y-42682D01*
X41465Y-42548D01*
X41465Y-42403D01*
X41410Y-42269D01*
X41307Y-42166D01*
X41173Y-42110D01*
X41028Y-42110D01*
X40894Y-42165D01*
X40791Y-42268D01*
X40735Y-42402D01*
X40735Y-42422D01*
X39727Y-43430D01*
X39105Y-43430D01*
X39141Y-43395D01*
X39220Y-43204D01*
X39220Y-42997D01*
X39141Y-42806D01*
X38995Y-42659D01*
X38804Y-42580D01*
X38597Y-42580D01*
X38406Y-42659D01*
X38259Y-42805D01*
X38199Y-42948D01*
X38141Y-42806D01*
X37995Y-42659D01*
X37804Y-42580D01*
X37597Y-42580D01*
X37406Y-42659D01*
X37259Y-42805D01*
X37199Y-42948D01*
X37141Y-42806D01*
X36995Y-42659D01*
X36804Y-42580D01*
X36597Y-42580D01*
X36406Y-42659D01*
X36259Y-42805D01*
X36199Y-42948D01*
X36141Y-42806D01*
X35995Y-42659D01*
X35804Y-42580D01*
X35597Y-42580D01*
X35406Y-42659D01*
X35259Y-42805D01*
X35199Y-42948D01*
X35141Y-42806D01*
X34995Y-42659D01*
X34804Y-42580D01*
X34597Y-42580D01*
X34406Y-42659D01*
X34259Y-42805D01*
X34199Y-42948D01*
X34141Y-42806D01*
X33995Y-42659D01*
X33804Y-42580D01*
X33597Y-42580D01*
X33406Y-42659D01*
X33259Y-42805D01*
X33199Y-42948D01*
X33141Y-42806D01*
X32995Y-42659D01*
X32804Y-42580D01*
X32597Y-42580D01*
X32406Y-42659D01*
X32259Y-42805D01*
X32180Y-42996D01*
X32180Y-43203D01*
X32259Y-43394D01*
X32405Y-43541D01*
X32424Y-43548D01*
X32427Y-43563D01*
X32491Y-43659D01*
X32764Y-43931D01*
X32766Y-43934D01*
X32861Y-43997D01*
X32862Y-43998D01*
X32952Y-44015D01*
X32974Y-44020D01*
X32974Y-44019D01*
X32975Y-44020D01*
X34470Y-44020D01*
X34475Y-44021D01*
X34475Y-44020D01*
X34588Y-43998D01*
X34684Y-43934D01*
X34906Y-43710D01*
X34908Y-43709D01*
X34909Y-43709D01*
X34973Y-43613D01*
X34986Y-43544D01*
X34994Y-43541D01*
X35141Y-43395D01*
X35200Y-43251D01*
X35259Y-43394D01*
X35405Y-43541D01*
X35405Y-43820D01*
X35404Y-43825D01*
X35427Y-43938D01*
X35491Y-44034D01*
X36062Y-44605D01*
X31622Y-44605D01*
X31065Y-44047D01*
X31065Y-44028D01*
X31036Y-43957D01*
X31109Y-43909D01*
X31406Y-43610D01*
X31408Y-43609D01*
X31409Y-43609D01*
X31473Y-43513D01*
X31495Y-43400D01*
X31495Y-42273D01*
X31823Y-41945D01*
X37295Y-41945D01*
X37300Y-41946D01*
X37300Y-41945D01*
X37413Y-41923D01*
X37509Y-41859D01*
X38406Y-40960D01*
X38408Y-40959D01*
X38409Y-40959D01*
X38472Y-40864D01*
X38473Y-40863D01*
X38489Y-40776D01*
X38596Y-40820D01*
X38803Y-40820D01*
X38994Y-40741D01*
X39141Y-40595D01*
X39220Y-40404D01*
X39220Y-40197D01*
X39141Y-40006D01*
X38995Y-39859D01*
X38804Y-39780D01*
X38597Y-39780D01*
X38495Y-39822D01*
X38495Y-37923D01*
X38598Y-37820D01*
X38803Y-37820D01*
X38994Y-37741D01*
X39141Y-37595D01*
X39220Y-37404D01*
X39220Y-37197D01*
X39157Y-37045D01*
X42845Y-37045D01*
X42850Y-37046D01*
X42850Y-37045D01*
X42963Y-37023D01*
X43059Y-36959D01*
X45352Y-34665D01*
X45372Y-34665D01*
X45506Y-34610D01*
X45609Y-34507D01*
X45665Y-34373D01*
X45665Y-34228D01*
X45610Y-34094D01*
X45507Y-33991D01*
X45373Y-33935D01*
X45228Y-33935D01*
X45099Y-33987D01*
X44973Y-33935D01*
X44828Y-33935D01*
X44699Y-33987D01*
X44573Y-33935D01*
X44428Y-33935D01*
X44299Y-33987D01*
X44173Y-33935D01*
X44028Y-33935D01*
X43894Y-33990D01*
X43791Y-34093D01*
X43735Y-34227D01*
X43735Y-34247D01*
X42127Y-35855D01*
X41897Y-35855D01*
X41897Y-31892D01*
X41897Y-31509D01*
X41751Y-31155D01*
X41480Y-30885D01*
X41127Y-30738D01*
X40744Y-30738D01*
X40390Y-30884D01*
X40120Y-31155D01*
X39973Y-31508D01*
X39973Y-31891D01*
X40119Y-32245D01*
X40390Y-32515D01*
X40743Y-32662D01*
X41126Y-32662D01*
X41480Y-32516D01*
X41750Y-32245D01*
X41897Y-31892D01*
X41897Y-35855D01*
X38965Y-35855D01*
X38965Y-35828D01*
X38928Y-35740D01*
X38957Y-35740D01*
X39156Y-35658D01*
X39307Y-35506D01*
X39349Y-35403D01*
X39392Y-35506D01*
X39544Y-35657D01*
X39742Y-35740D01*
X39957Y-35740D01*
X40156Y-35658D01*
X40307Y-35506D01*
X40390Y-35308D01*
X40390Y-35093D01*
X40308Y-34894D01*
X40156Y-34743D01*
X40146Y-34739D01*
X40693Y-34739D01*
X40783Y-34702D01*
X40851Y-34634D01*
X40889Y-34544D01*
X40889Y-34447D01*
X40889Y-33857D01*
X40852Y-33767D01*
X40784Y-33699D01*
X40694Y-33661D01*
X40597Y-33661D01*
X40007Y-33661D01*
X39917Y-33698D01*
X39849Y-33766D01*
X39811Y-33856D01*
X39811Y-33901D01*
X39808Y-33894D01*
X39656Y-33743D01*
X39458Y-33660D01*
X39243Y-33660D01*
X39044Y-33742D01*
X38893Y-33894D01*
X38850Y-33996D01*
X38808Y-33894D01*
X38656Y-33743D01*
X38458Y-33660D01*
X38243Y-33660D01*
X38044Y-33742D01*
X37893Y-33894D01*
X37850Y-33996D01*
X37808Y-33894D01*
X37656Y-33743D01*
X37458Y-33660D01*
X37243Y-33660D01*
X37231Y-33664D01*
X37224Y-33656D01*
X37224Y-31892D01*
X37224Y-31509D01*
X37078Y-31155D01*
X36807Y-30885D01*
X36454Y-30738D01*
X36071Y-30738D01*
X35717Y-30884D01*
X35447Y-31155D01*
X35348Y-31391D01*
X35251Y-31155D01*
X34980Y-30885D01*
X34627Y-30738D01*
X34244Y-30738D01*
X33890Y-30884D01*
X33620Y-31155D01*
X33473Y-31508D01*
X33473Y-31891D01*
X33619Y-32245D01*
X33890Y-32515D01*
X34243Y-32662D01*
X34626Y-32662D01*
X34980Y-32516D01*
X35250Y-32245D01*
X35348Y-32008D01*
X35446Y-32245D01*
X35717Y-32515D01*
X36070Y-32662D01*
X36453Y-32662D01*
X36807Y-32516D01*
X37077Y-32245D01*
X37224Y-31892D01*
X37224Y-33656D01*
X36631Y-33063D01*
X36535Y-32999D01*
X36422Y-32976D01*
X36417Y-32977D01*
X31628Y-32977D01*
X31515Y-32999D01*
X31419Y-33063D01*
X31417Y-33065D01*
X30822Y-33660D01*
X30743Y-33660D01*
X30724Y-33667D01*
X30724Y-31892D01*
X30724Y-31509D01*
X30578Y-31155D01*
X30307Y-30885D01*
X29954Y-30738D01*
X29571Y-30738D01*
X29217Y-30884D01*
X28947Y-31155D01*
X28944Y-31162D01*
X28944Y-30268D01*
X28944Y-30032D01*
X28854Y-29814D01*
X28687Y-29647D01*
X28468Y-29556D01*
X28232Y-29556D01*
X28014Y-29646D01*
X27847Y-29813D01*
X27756Y-30032D01*
X27756Y-30268D01*
X27846Y-30486D01*
X28013Y-30653D01*
X28232Y-30744D01*
X28468Y-30744D01*
X28686Y-30654D01*
X28853Y-30487D01*
X28944Y-30268D01*
X28944Y-31162D01*
X28800Y-31508D01*
X28800Y-31891D01*
X28946Y-32245D01*
X29217Y-32515D01*
X29570Y-32662D01*
X29953Y-32662D01*
X30307Y-32516D01*
X30577Y-32245D01*
X30724Y-31892D01*
X30724Y-33667D01*
X30544Y-33742D01*
X30393Y-33894D01*
X30310Y-34092D01*
X30310Y-34307D01*
X30392Y-34506D01*
X30544Y-34657D01*
X30742Y-34740D01*
X30957Y-34740D01*
X31156Y-34658D01*
X31307Y-34506D01*
X31349Y-34403D01*
X31392Y-34506D01*
X31544Y-34657D01*
X31742Y-34740D01*
X31957Y-34740D01*
X32156Y-34658D01*
X32307Y-34506D01*
X32349Y-34403D01*
X32392Y-34506D01*
X32544Y-34657D01*
X32742Y-34740D01*
X32772Y-34740D01*
X32909Y-34876D01*
X32893Y-34894D01*
X32850Y-34996D01*
X32808Y-34894D01*
X32656Y-34743D01*
X32458Y-34660D01*
X32243Y-34660D01*
X32044Y-34742D01*
X31893Y-34894D01*
X31850Y-34996D01*
X31808Y-34894D01*
X31656Y-34743D01*
X31458Y-34660D01*
X31243Y-34660D01*
X31044Y-34742D01*
X30893Y-34894D01*
X30850Y-34996D01*
X30808Y-34894D01*
X30656Y-34743D01*
X30458Y-34660D01*
X30243Y-34660D01*
X30044Y-34742D01*
X29893Y-34894D01*
X29810Y-35092D01*
X29810Y-35307D01*
X29892Y-35506D01*
X30044Y-35657D01*
X30242Y-35740D01*
X30457Y-35740D01*
X30656Y-35658D01*
X30807Y-35506D01*
X30849Y-35403D01*
X30892Y-35506D01*
X31044Y-35657D01*
X31056Y-35662D01*
X31077Y-35763D01*
X31138Y-35855D01*
X28850Y-35855D01*
X28737Y-35877D01*
X28641Y-35941D01*
X28639Y-35943D01*
X27802Y-36780D01*
X27597Y-36780D01*
X27406Y-36859D01*
X27259Y-37005D01*
X27199Y-37148D01*
X27141Y-37006D01*
X26995Y-36859D01*
X26804Y-36780D01*
X26597Y-36780D01*
X26406Y-36859D01*
X26259Y-37005D01*
X26199Y-37148D01*
X26141Y-37006D01*
X25995Y-36859D01*
X25804Y-36780D01*
X25597Y-36780D01*
X25406Y-36859D01*
X25259Y-37005D01*
X25180Y-37196D01*
X25180Y-37403D01*
X25259Y-37594D01*
X25405Y-37741D01*
X25596Y-37820D01*
X25803Y-37820D01*
X25994Y-37741D01*
X26141Y-37595D01*
X26200Y-37451D01*
X26259Y-37594D01*
X26405Y-37741D01*
X26596Y-37820D01*
X26803Y-37820D01*
X26994Y-37741D01*
X27141Y-37595D01*
X27200Y-37451D01*
X27259Y-37594D01*
X27405Y-37741D01*
X27596Y-37820D01*
X27803Y-37820D01*
X27994Y-37741D01*
X28141Y-37595D01*
X28200Y-37451D01*
X28259Y-37594D01*
X28405Y-37741D01*
X28596Y-37820D01*
X28803Y-37820D01*
X28994Y-37741D01*
X29141Y-37595D01*
X29200Y-37451D01*
X29259Y-37594D01*
X29405Y-37741D01*
X29596Y-37820D01*
X29803Y-37820D01*
X29994Y-37741D01*
X30141Y-37595D01*
X30200Y-37451D01*
X30259Y-37594D01*
X30405Y-37741D01*
X30596Y-37820D01*
X30803Y-37820D01*
X30994Y-37741D01*
X31141Y-37595D01*
X31220Y-37404D01*
X31220Y-37197D01*
X31157Y-37045D01*
X32242Y-37045D01*
X32180Y-37196D01*
X32180Y-37403D01*
X32259Y-37594D01*
X32405Y-37741D01*
X32596Y-37820D01*
X32803Y-37820D01*
X32994Y-37741D01*
X33141Y-37595D01*
X33259Y-37595D01*
X33405Y-37741D01*
X33596Y-37820D01*
X33803Y-37820D01*
X33994Y-37741D01*
X34141Y-37595D01*
X34200Y-37451D01*
X34259Y-37594D01*
X34405Y-37741D01*
X34596Y-37820D01*
X34803Y-37820D01*
X34994Y-37741D01*
X35141Y-37595D01*
X35200Y-37451D01*
X35259Y-37594D01*
X35405Y-37741D01*
X35596Y-37820D01*
X35803Y-37820D01*
X35994Y-37741D01*
X36141Y-37595D01*
X36200Y-37451D01*
X36259Y-37594D01*
X36405Y-37741D01*
X36596Y-37820D01*
X36803Y-37820D01*
X36908Y-37776D01*
X36904Y-37800D01*
X36905Y-37804D01*
X36905Y-39821D01*
X36804Y-39780D01*
X36597Y-39780D01*
X36406Y-39859D01*
X36259Y-40005D01*
X36199Y-40148D01*
X36141Y-40006D01*
X35995Y-39859D01*
X35804Y-39780D01*
X35597Y-39780D01*
X35406Y-39859D01*
X35259Y-40005D01*
X35199Y-40148D01*
X35141Y-40006D01*
X34995Y-39859D01*
X34995Y-39516D01*
X35554Y-39516D01*
X35601Y-39547D01*
X35602Y-39548D01*
X35692Y-39565D01*
X35714Y-39570D01*
X35714Y-39569D01*
X35715Y-39570D01*
X35810Y-39570D01*
X35818Y-39588D01*
X35886Y-39656D01*
X35976Y-39694D01*
X36073Y-39694D01*
X36623Y-39694D01*
X36713Y-39657D01*
X36781Y-39589D01*
X36819Y-39499D01*
X36819Y-39402D01*
X36819Y-39052D01*
X36782Y-38962D01*
X36714Y-38894D01*
X36624Y-38856D01*
X36527Y-38856D01*
X35977Y-38856D01*
X35917Y-38880D01*
X35917Y-38280D01*
X35880Y-38190D01*
X35812Y-38122D01*
X35722Y-38084D01*
X35625Y-38084D01*
X34759Y-38084D01*
X34669Y-38121D01*
X34601Y-38189D01*
X34563Y-38279D01*
X34563Y-38376D01*
X34563Y-39059D01*
X34491Y-39131D01*
X34427Y-39227D01*
X34404Y-39340D01*
X34405Y-39344D01*
X34405Y-39859D01*
X34259Y-40005D01*
X34199Y-40148D01*
X34141Y-40006D01*
X33995Y-39859D01*
X33995Y-39740D01*
X33973Y-39627D01*
X33909Y-39531D01*
X33906Y-39529D01*
X33437Y-39059D01*
X33437Y-38280D01*
X33400Y-38190D01*
X33332Y-38122D01*
X33242Y-38084D01*
X33145Y-38084D01*
X32279Y-38084D01*
X32189Y-38121D01*
X32121Y-38189D01*
X32083Y-38279D01*
X32083Y-38376D01*
X32083Y-38880D01*
X32024Y-38856D01*
X31927Y-38856D01*
X31377Y-38856D01*
X31287Y-38893D01*
X31219Y-38961D01*
X31181Y-39051D01*
X31181Y-39148D01*
X31181Y-39498D01*
X31218Y-39588D01*
X31286Y-39656D01*
X31376Y-39694D01*
X31473Y-39694D01*
X32023Y-39694D01*
X32113Y-39657D01*
X32181Y-39589D01*
X32189Y-39570D01*
X32280Y-39570D01*
X32285Y-39571D01*
X32285Y-39570D01*
X32398Y-39548D01*
X32446Y-39516D01*
X33058Y-39516D01*
X33403Y-39861D01*
X33259Y-40005D01*
X33180Y-40196D01*
X33180Y-40403D01*
X33259Y-40594D01*
X33405Y-40741D01*
X33499Y-40780D01*
X31899Y-40780D01*
X31994Y-40741D01*
X32141Y-40595D01*
X32220Y-40404D01*
X32220Y-40197D01*
X32141Y-40006D01*
X31995Y-39859D01*
X31804Y-39780D01*
X31597Y-39780D01*
X31406Y-39859D01*
X31403Y-39860D01*
X31134Y-39591D01*
X31038Y-39527D01*
X30925Y-39504D01*
X30920Y-39505D01*
X26523Y-39505D01*
X24365Y-37347D01*
X24365Y-37328D01*
X24310Y-37194D01*
X24295Y-37179D01*
X24295Y-36072D01*
X27006Y-33360D01*
X27008Y-33359D01*
X27009Y-33359D01*
X27072Y-33264D01*
X27073Y-33263D01*
X27090Y-33173D01*
X27095Y-33151D01*
X27094Y-33150D01*
X27095Y-33150D01*
X27095Y-32200D01*
X27095Y-31922D01*
X27122Y-31895D01*
X28104Y-31895D01*
X28118Y-31909D01*
X28252Y-31965D01*
X28397Y-31965D01*
X28531Y-31910D01*
X28634Y-31807D01*
X28690Y-31673D01*
X28690Y-31528D01*
X28635Y-31394D01*
X28532Y-31291D01*
X28398Y-31235D01*
X28253Y-31235D01*
X28119Y-31290D01*
X28104Y-31305D01*
X27000Y-31305D01*
X26999Y-31305D01*
X26977Y-31309D01*
X26887Y-31327D01*
X26791Y-31391D01*
X26789Y-31393D01*
X26591Y-31591D01*
X26527Y-31687D01*
X26504Y-31800D01*
X26505Y-31804D01*
X26505Y-32200D01*
X26505Y-33027D01*
X25744Y-33788D01*
X25744Y-30268D01*
X25744Y-30032D01*
X25654Y-29814D01*
X25487Y-29647D01*
X25268Y-29556D01*
X25032Y-29556D01*
X24814Y-29646D01*
X24647Y-29813D01*
X24556Y-30032D01*
X24556Y-30268D01*
X24646Y-30486D01*
X24813Y-30653D01*
X25032Y-30744D01*
X25268Y-30744D01*
X25486Y-30654D01*
X25653Y-30487D01*
X25744Y-30268D01*
X25744Y-33788D01*
X23791Y-35741D01*
X23727Y-35837D01*
X23704Y-35950D01*
X23705Y-35954D01*
X23705Y-37179D01*
X23691Y-37193D01*
X23635Y-37327D01*
X23635Y-37472D01*
X23690Y-37606D01*
X23793Y-37709D01*
X23927Y-37765D01*
X23947Y-37765D01*
X25963Y-39781D01*
X25927Y-39781D01*
X25377Y-39781D01*
X25287Y-39818D01*
X25219Y-39886D01*
X25181Y-39976D01*
X25181Y-40073D01*
X25181Y-40623D01*
X25218Y-40713D01*
X25286Y-40781D01*
X25376Y-40819D01*
X25473Y-40819D01*
X26023Y-40819D01*
X26113Y-40782D01*
X26181Y-40714D01*
X26219Y-40624D01*
X26219Y-40527D01*
X26219Y-40497D01*
X26259Y-40594D01*
X26405Y-40741D01*
X26596Y-40820D01*
X26803Y-40820D01*
X26994Y-40741D01*
X27141Y-40595D01*
X27200Y-40451D01*
X27259Y-40594D01*
X27405Y-40741D01*
X27596Y-40820D01*
X27803Y-40820D01*
X27994Y-40741D01*
X28141Y-40595D01*
X28200Y-40451D01*
X28259Y-40594D01*
X28405Y-40741D01*
X28596Y-40820D01*
X28803Y-40820D01*
X28994Y-40741D01*
X29141Y-40595D01*
X29200Y-40451D01*
X29259Y-40594D01*
X29405Y-40741D01*
X29405Y-40770D01*
X29404Y-40775D01*
X29427Y-40888D01*
X29491Y-40984D01*
X29789Y-41281D01*
X29791Y-41284D01*
X29887Y-41348D01*
X30000Y-41370D01*
X31112Y-41370D01*
X30491Y-41991D01*
X30427Y-42087D01*
X30404Y-42200D01*
X30405Y-42204D01*
X30405Y-42659D01*
X30259Y-42805D01*
X30199Y-42948D01*
X30141Y-42806D01*
X29995Y-42659D01*
X29804Y-42580D01*
X29597Y-42580D01*
X29406Y-42659D01*
X29259Y-42805D01*
X29199Y-42948D01*
X29141Y-42806D01*
X28995Y-42659D01*
X28804Y-42580D01*
X28597Y-42580D01*
X28406Y-42659D01*
X28259Y-42805D01*
X28199Y-42948D01*
X28141Y-42806D01*
X27995Y-42659D01*
X27804Y-42580D01*
X27597Y-42580D01*
X27406Y-42659D01*
X27259Y-42805D01*
X27180Y-42996D01*
X27180Y-43203D01*
X27259Y-43394D01*
X27405Y-43541D01*
X27596Y-43620D01*
X27803Y-43620D01*
X27994Y-43541D01*
X28141Y-43395D01*
X28200Y-43251D01*
X28259Y-43394D01*
X28405Y-43541D01*
X28596Y-43620D01*
X28803Y-43620D01*
X28994Y-43541D01*
X29141Y-43395D01*
X29200Y-43251D01*
X29259Y-43394D01*
X29405Y-43541D01*
X29521Y-43589D01*
X29839Y-43906D01*
X29841Y-43909D01*
X29936Y-43972D01*
X29937Y-43973D01*
X30027Y-43990D01*
X30049Y-43995D01*
X30049Y-43994D01*
X30050Y-43995D01*
X30348Y-43995D01*
X30335Y-44027D01*
X30335Y-44172D01*
X30390Y-44306D01*
X30493Y-44409D01*
X30627Y-44465D01*
X30647Y-44465D01*
X31289Y-45106D01*
X31291Y-45109D01*
X31387Y-45173D01*
X31500Y-45195D01*
X49579Y-45195D01*
X49593Y-45209D01*
X49727Y-45265D01*
X49872Y-45265D01*
X50006Y-45210D01*
X50109Y-45107D01*
X50165Y-44973D01*
X50165Y-44828D01*
X50161Y-44820D01*
X54554Y-44820D01*
X54568Y-44834D01*
X54702Y-44890D01*
X54847Y-44890D01*
X54981Y-44835D01*
X55084Y-44732D01*
X55140Y-44598D01*
X55140Y-44453D01*
X55136Y-44445D01*
X56995Y-44445D01*
X57000Y-44446D01*
X57000Y-44445D01*
X57113Y-44423D01*
X57209Y-44359D01*
X57806Y-43760D01*
X57808Y-43759D01*
X57809Y-43759D01*
X57847Y-43702D01*
X57873Y-43664D01*
X57873Y-43663D01*
X57895Y-43550D01*
X57895Y-43540D01*
X58041Y-43395D01*
X58100Y-43251D01*
X58159Y-43394D01*
X58305Y-43541D01*
X58496Y-43620D01*
X58703Y-43620D01*
X58894Y-43541D01*
X59041Y-43395D01*
X59120Y-43204D01*
X59120Y-45997D01*
X59041Y-45806D01*
X58895Y-45659D01*
X58704Y-45580D01*
X58497Y-45580D01*
X58306Y-45659D01*
X58159Y-45805D01*
X58099Y-45948D01*
X58041Y-45806D01*
X57895Y-45659D01*
X57704Y-45580D01*
X57497Y-45580D01*
X57306Y-45659D01*
X57159Y-45805D01*
X57099Y-45948D01*
X57041Y-45806D01*
X56895Y-45659D01*
X56704Y-45580D01*
X56497Y-45580D01*
X56306Y-45659D01*
X56159Y-45805D01*
X56099Y-45948D01*
X56041Y-45806D01*
X55895Y-45659D01*
X55704Y-45580D01*
X55497Y-45580D01*
X55306Y-45659D01*
X55159Y-45805D01*
X55099Y-45948D01*
X55041Y-45806D01*
X54895Y-45659D01*
X54704Y-45580D01*
X54497Y-45580D01*
X54306Y-45659D01*
X54159Y-45805D01*
X54099Y-45948D01*
X54041Y-45806D01*
X53895Y-45659D01*
X53704Y-45580D01*
X53497Y-45580D01*
X53306Y-45659D01*
X53159Y-45805D01*
X53099Y-45948D01*
X53041Y-45806D01*
X52895Y-45659D01*
X52704Y-45580D01*
X52497Y-45580D01*
X52306Y-45659D01*
X52159Y-45805D01*
X52099Y-45948D01*
X52041Y-45806D01*
X51895Y-45659D01*
X51704Y-45580D01*
X51497Y-45580D01*
X51306Y-45659D01*
X51159Y-45805D01*
X51099Y-45948D01*
X51041Y-45806D01*
X50895Y-45659D01*
X50704Y-45580D01*
X50497Y-45580D01*
X50306Y-45659D01*
X50159Y-45805D01*
X50099Y-45948D01*
X50041Y-45806D01*
X49895Y-45659D01*
X49704Y-45580D01*
X49497Y-45580D01*
X49306Y-45659D01*
X49159Y-45805D01*
X49099Y-45948D01*
X49041Y-45806D01*
X48895Y-45659D01*
X48704Y-45580D01*
X48497Y-45580D01*
X48306Y-45659D01*
X48159Y-45805D01*
X48099Y-45948D01*
X48041Y-45806D01*
X47895Y-45659D01*
X47704Y-45580D01*
X47497Y-45580D01*
X47306Y-45659D01*
X47159Y-45805D01*
X47099Y-45948D01*
X47041Y-45806D01*
X46895Y-45659D01*
X46704Y-45580D01*
X46497Y-45580D01*
X46306Y-45659D01*
X46159Y-45805D01*
X46119Y-45901D01*
X46119Y-45777D01*
X46082Y-45687D01*
X46014Y-45619D01*
X45924Y-45581D01*
X45827Y-45581D01*
X45277Y-45581D01*
X45187Y-45618D01*
X45119Y-45686D01*
X45081Y-45776D01*
X45081Y-45873D01*
X45081Y-46423D01*
X45118Y-46513D01*
X45186Y-46581D01*
X45276Y-46619D01*
X45373Y-46619D01*
X45923Y-46619D01*
X46013Y-46582D01*
X46081Y-46514D01*
X46119Y-46424D01*
X46119Y-46327D01*
X46119Y-46297D01*
X46159Y-46394D01*
X46305Y-46541D01*
X46496Y-46620D01*
X46703Y-46620D01*
X46894Y-46541D01*
X47041Y-46395D01*
X47100Y-46251D01*
X47159Y-46394D01*
X47305Y-46541D01*
X47496Y-46620D01*
X47703Y-46620D01*
X47894Y-46541D01*
X48041Y-46395D01*
X48100Y-46251D01*
X48159Y-46394D01*
X48305Y-46541D01*
X48496Y-46620D01*
X48703Y-46620D01*
X48894Y-46541D01*
X49041Y-46395D01*
X49100Y-46251D01*
X49159Y-46394D01*
X49305Y-46541D01*
X49496Y-46620D01*
X49703Y-46620D01*
X49894Y-46541D01*
X50041Y-46395D01*
X50100Y-46251D01*
X50159Y-46394D01*
X50305Y-46541D01*
X50496Y-46620D01*
X50703Y-46620D01*
X50894Y-46541D01*
X51041Y-46395D01*
X51100Y-46251D01*
X51159Y-46394D01*
X51305Y-46541D01*
X51496Y-46620D01*
X51703Y-46620D01*
X51894Y-46541D01*
X52041Y-46395D01*
X52100Y-46251D01*
X52159Y-46394D01*
X52305Y-46541D01*
X52496Y-46620D01*
X52703Y-46620D01*
X52894Y-46541D01*
X53041Y-46395D01*
X53100Y-46251D01*
X53159Y-46394D01*
X53305Y-46541D01*
X53496Y-46620D01*
X53703Y-46620D01*
X53894Y-46541D01*
X54041Y-46395D01*
X54100Y-46251D01*
X54159Y-46394D01*
X54305Y-46541D01*
X54496Y-46620D01*
X54703Y-46620D01*
X54894Y-46541D01*
X55041Y-46395D01*
X55100Y-46251D01*
X55159Y-46394D01*
X55305Y-46541D01*
X55496Y-46620D01*
X55703Y-46620D01*
X55894Y-46541D01*
X56041Y-46395D01*
X56100Y-46251D01*
X56159Y-46394D01*
X56305Y-46541D01*
X56496Y-46620D01*
X56703Y-46620D01*
X56894Y-46541D01*
X57041Y-46395D01*
X57100Y-46251D01*
X57159Y-46394D01*
X57305Y-46541D01*
X57496Y-46620D01*
X57703Y-46620D01*
X57894Y-46541D01*
X58041Y-46395D01*
X58100Y-46251D01*
X58159Y-46394D01*
X58305Y-46541D01*
X58496Y-46620D01*
X58630Y-46620D01*
X56540Y-48709D01*
X56440Y-48643D01*
X56250Y-48605D01*
X53548Y-48605D01*
X48448Y-48605D01*
X48424Y-48609D01*
X48400Y-48605D01*
X40548Y-48605D01*
X39220Y-48605D01*
X39220Y-46204D01*
X39220Y-45997D01*
X39141Y-45806D01*
X38995Y-45659D01*
X38804Y-45580D01*
X38597Y-45580D01*
X38406Y-45659D01*
X38259Y-45805D01*
X38199Y-45948D01*
X38141Y-45806D01*
X37995Y-45659D01*
X37804Y-45580D01*
X37597Y-45580D01*
X37406Y-45659D01*
X37259Y-45805D01*
X37199Y-45948D01*
X37141Y-45806D01*
X36995Y-45659D01*
X36804Y-45580D01*
X36597Y-45580D01*
X36406Y-45659D01*
X36259Y-45805D01*
X36199Y-45948D01*
X36141Y-45806D01*
X35995Y-45659D01*
X35804Y-45580D01*
X35597Y-45580D01*
X35406Y-45659D01*
X35259Y-45805D01*
X35199Y-45948D01*
X35141Y-45806D01*
X34995Y-45659D01*
X34804Y-45580D01*
X34597Y-45580D01*
X34406Y-45659D01*
X34259Y-45805D01*
X34199Y-45948D01*
X34141Y-45806D01*
X33995Y-45659D01*
X33804Y-45580D01*
X33597Y-45580D01*
X33406Y-45659D01*
X33259Y-45805D01*
X33199Y-45948D01*
X33141Y-45806D01*
X32995Y-45659D01*
X32804Y-45580D01*
X32597Y-45580D01*
X32406Y-45659D01*
X32259Y-45805D01*
X32199Y-45948D01*
X32141Y-45806D01*
X31995Y-45659D01*
X31804Y-45580D01*
X31597Y-45580D01*
X31406Y-45659D01*
X31259Y-45805D01*
X31199Y-45948D01*
X31141Y-45806D01*
X30995Y-45659D01*
X30804Y-45580D01*
X30597Y-45580D01*
X30406Y-45659D01*
X30259Y-45805D01*
X30199Y-45948D01*
X30141Y-45806D01*
X29995Y-45659D01*
X29804Y-45580D01*
X29597Y-45580D01*
X29406Y-45659D01*
X29259Y-45805D01*
X29199Y-45948D01*
X29141Y-45806D01*
X28995Y-45659D01*
X28804Y-45580D01*
X28597Y-45580D01*
X28406Y-45659D01*
X28259Y-45805D01*
X28199Y-45948D01*
X28141Y-45806D01*
X27995Y-45659D01*
X27804Y-45580D01*
X27597Y-45580D01*
X27406Y-45659D01*
X27259Y-45805D01*
X27199Y-45948D01*
X27141Y-45806D01*
X26995Y-45659D01*
X26804Y-45580D01*
X26597Y-45580D01*
X26406Y-45659D01*
X26259Y-45805D01*
X26219Y-45901D01*
X26219Y-45777D01*
X26182Y-45687D01*
X26114Y-45619D01*
X26024Y-45581D01*
X25927Y-45581D01*
X25377Y-45581D01*
X25287Y-45618D01*
X25219Y-45686D01*
X25181Y-45776D01*
X25181Y-45873D01*
X25181Y-46423D01*
X25218Y-46513D01*
X25286Y-46581D01*
X25376Y-46619D01*
X25473Y-46619D01*
X26023Y-46619D01*
X26113Y-46582D01*
X26181Y-46514D01*
X26219Y-46424D01*
X26219Y-46327D01*
X26219Y-46297D01*
X26259Y-46394D01*
X26405Y-46541D01*
X26596Y-46620D01*
X26803Y-46620D01*
X26994Y-46541D01*
X27141Y-46395D01*
X27200Y-46251D01*
X27259Y-46394D01*
X27405Y-46541D01*
X27596Y-46620D01*
X27803Y-46620D01*
X27994Y-46541D01*
X28141Y-46395D01*
X28200Y-46251D01*
X28259Y-46394D01*
X28405Y-46541D01*
X28596Y-46620D01*
X28803Y-46620D01*
X28994Y-46541D01*
X29141Y-46395D01*
X29200Y-46251D01*
X29259Y-46394D01*
X29405Y-46541D01*
X29596Y-46620D01*
X29803Y-46620D01*
X29994Y-46541D01*
X30141Y-46395D01*
X30200Y-46251D01*
X30259Y-46394D01*
X30405Y-46541D01*
X30596Y-46620D01*
X30803Y-46620D01*
X30994Y-46541D01*
X31141Y-46395D01*
X31200Y-46251D01*
X31259Y-46394D01*
X31405Y-46541D01*
X31596Y-46620D01*
X31803Y-46620D01*
X31994Y-46541D01*
X32141Y-46395D01*
X32200Y-46251D01*
X32259Y-46394D01*
X32405Y-46541D01*
X32596Y-46620D01*
X32803Y-46620D01*
X32994Y-46541D01*
X33141Y-46395D01*
X33200Y-46251D01*
X33259Y-46394D01*
X33405Y-46541D01*
X33596Y-46620D01*
X33803Y-46620D01*
X33994Y-46541D01*
X34141Y-46395D01*
X34200Y-46251D01*
X34259Y-46394D01*
X34405Y-46541D01*
X34596Y-46620D01*
X34803Y-46620D01*
X34994Y-46541D01*
X35141Y-46395D01*
X35200Y-46251D01*
X35259Y-46394D01*
X35405Y-46541D01*
X35596Y-46620D01*
X35803Y-46620D01*
X35994Y-46541D01*
X36141Y-46395D01*
X36200Y-46251D01*
X36259Y-46394D01*
X36405Y-46541D01*
X36596Y-46620D01*
X36803Y-46620D01*
X36994Y-46541D01*
X37141Y-46395D01*
X37200Y-46251D01*
X37259Y-46394D01*
X37405Y-46541D01*
X37596Y-46620D01*
X37803Y-46620D01*
X37994Y-46541D01*
X38141Y-46395D01*
X38200Y-46251D01*
X38259Y-46394D01*
X38405Y-46541D01*
X38596Y-46620D01*
X38803Y-46620D01*
X38994Y-46541D01*
X39141Y-46395D01*
X39220Y-46204D01*
X39220Y-48605D01*
X32648Y-48605D01*
X24748Y-48605D01*
X24559Y-48643D01*
X24398Y-48750D01*
X24397Y-48750D01*
X24397Y-48751D01*
X23385Y-49763D01*
X23202Y-49763D01*
X22931Y-49875D01*
X22820Y-49986D01*
X22820Y-47685D01*
X22992Y-47858D01*
X23321Y-47995D01*
X23677Y-47995D01*
X24006Y-47859D01*
X24258Y-47608D01*
X24395Y-47279D01*
X24395Y-46923D01*
X24259Y-46594D01*
X24008Y-46342D01*
X23679Y-46205D01*
X23323Y-46205D01*
X22994Y-46341D01*
X22820Y-46514D01*
X22820Y-30185D01*
X22992Y-30358D01*
X23321Y-30495D01*
X23677Y-30495D01*
X24006Y-30359D01*
X24258Y-30108D01*
X24395Y-29779D01*
X24395Y-29423D01*
X24259Y-29094D01*
X24085Y-28920D01*
X25256Y-28920D01*
X25206Y-29042D01*
X25206Y-29258D01*
X25289Y-29458D01*
X25442Y-29611D01*
X25642Y-29694D01*
X25858Y-29694D01*
X25871Y-29688D01*
X25971Y-29788D01*
X25956Y-29826D01*
X25956Y-29923D01*
X25956Y-30473D01*
X25993Y-30563D01*
X26061Y-30631D01*
X26151Y-30669D01*
X26248Y-30669D01*
X26598Y-30669D01*
X26688Y-30632D01*
X26756Y-30564D01*
X26794Y-30474D01*
X26794Y-30377D01*
X26794Y-29827D01*
X26757Y-29737D01*
X26689Y-29669D01*
X26638Y-29647D01*
X26584Y-29566D01*
X26581Y-29564D01*
X26288Y-29271D01*
X26294Y-29258D01*
X26294Y-29042D01*
X26243Y-28920D01*
X42709Y-28920D01*
X42644Y-28985D01*
X42615Y-29052D01*
X42573Y-29035D01*
X42428Y-29035D01*
X42294Y-29090D01*
X42191Y-29193D01*
X42135Y-29327D01*
X42135Y-29472D01*
X42190Y-29606D01*
X42293Y-29709D01*
X42427Y-29765D01*
X42572Y-29765D01*
X42616Y-29746D01*
X42643Y-29812D01*
X42711Y-29880D01*
X42757Y-29899D01*
X42712Y-29918D01*
X42644Y-29986D01*
X42615Y-30052D01*
X42573Y-30035D01*
X42428Y-30035D01*
X42294Y-30090D01*
X42191Y-30193D01*
X42135Y-30327D01*
X42135Y-30472D01*
X42190Y-30606D01*
X42293Y-30709D01*
X42427Y-30765D01*
X42572Y-30765D01*
X42615Y-30746D01*
X42643Y-30813D01*
X42711Y-30881D01*
X42755Y-30899D01*
X42712Y-30918D01*
X42644Y-30986D01*
X42615Y-31052D01*
X42573Y-31035D01*
X42428Y-31035D01*
X42294Y-31090D01*
X42191Y-31193D01*
X42135Y-31327D01*
X42135Y-31472D01*
X42190Y-31606D01*
X42293Y-31709D01*
X42427Y-31765D01*
X42572Y-31765D01*
X42615Y-31746D01*
X42643Y-31813D01*
X42711Y-31881D01*
X42755Y-31899D01*
X42712Y-31918D01*
X42644Y-31986D01*
X42615Y-32052D01*
X42573Y-32035D01*
X42428Y-32035D01*
X42294Y-32090D01*
X42191Y-32193D01*
X42135Y-32327D01*
X42135Y-32472D01*
X42190Y-32606D01*
X42293Y-32709D01*
X42427Y-32765D01*
X42572Y-32765D01*
X42615Y-32746D01*
X42643Y-32813D01*
X42711Y-32881D01*
X42755Y-32899D01*
X42712Y-32918D01*
X42644Y-32986D01*
X42615Y-33052D01*
X42573Y-33035D01*
X42428Y-33035D01*
X42294Y-33090D01*
X42191Y-33193D01*
X42135Y-33327D01*
X42135Y-33472D01*
X42190Y-33606D01*
X42293Y-33709D01*
X42427Y-33765D01*
X42572Y-33765D01*
X42615Y-33746D01*
X42643Y-33813D01*
X42711Y-33881D01*
X42801Y-33919D01*
X42898Y-33919D01*
X43248Y-33919D01*
X43338Y-33882D01*
X43406Y-33814D01*
X43444Y-33724D01*
X43444Y-33627D01*
X43444Y-33077D01*
X43407Y-32987D01*
X43339Y-32919D01*
X43294Y-32900D01*
X43338Y-32882D01*
X43406Y-32814D01*
X43444Y-32724D01*
X43444Y-32627D01*
X43444Y-32077D01*
X43407Y-31987D01*
X43339Y-31919D01*
X43294Y-31900D01*
X43338Y-31882D01*
X43406Y-31814D01*
X43444Y-31724D01*
X43444Y-31627D01*
X43444Y-31077D01*
X43407Y-30987D01*
X43339Y-30919D01*
X43294Y-30900D01*
X43338Y-30882D01*
X43406Y-30814D01*
X43444Y-30724D01*
X43444Y-30627D01*
X43444Y-30077D01*
X43407Y-29987D01*
X43339Y-29919D01*
X43292Y-29899D01*
X43338Y-29881D01*
X43406Y-29813D01*
X43444Y-29723D01*
X43444Y-29626D01*
X43444Y-29076D01*
X43407Y-28986D01*
X43341Y-28920D01*
X60214Y-28920D01*
X60042Y-29092D01*
X59905Y-29421D01*
X59905Y-29777D01*
X60041Y-30106D01*
X60292Y-30358D01*
X60621Y-30495D01*
X60977Y-30495D01*
X61306Y-30359D01*
X61480Y-30185D01*
X61480Y-46514D01*
X61480Y-46514D01*
G37*
G54D11*
X61480Y-46514D02*
X61308Y-46342D01*
X60979Y-46205D01*
X60623Y-46205D01*
X60319Y-46330D01*
X60700Y-45950D01*
X60807Y-45790D01*
X60807Y-45789D01*
X60845Y-45600D01*
X60845Y-36550D01*
X60807Y-36361D01*
X60807Y-36360D01*
X60700Y-36200D01*
X59189Y-34689D01*
X59189Y-34511D01*
X59634Y-34065D01*
X59694Y-34041D01*
X59841Y-33895D01*
X59920Y-33704D01*
X59920Y-33497D01*
X59841Y-33306D01*
X59695Y-33159D01*
X59504Y-33080D01*
X59297Y-33080D01*
X59160Y-33136D01*
X59152Y-33117D01*
X59084Y-33049D01*
X58994Y-33011D01*
X58897Y-33011D01*
X57007Y-33011D01*
X56917Y-33048D01*
X56849Y-33116D01*
X56811Y-33206D01*
X56811Y-33303D01*
X56811Y-35193D01*
X56848Y-35283D01*
X56916Y-35351D01*
X57006Y-35389D01*
X57103Y-35389D01*
X58489Y-35389D01*
X59855Y-36755D01*
X59855Y-45395D01*
X59120Y-46130D01*
X59120Y-45997D01*
X59120Y-43204D01*
X59120Y-42997D01*
X59041Y-42806D01*
X58895Y-42659D01*
X58704Y-42580D01*
X58497Y-42580D01*
X58306Y-42659D01*
X58159Y-42805D01*
X58099Y-42948D01*
X58041Y-42806D01*
X57895Y-42659D01*
X57704Y-42580D01*
X57497Y-42580D01*
X57395Y-42622D01*
X57395Y-40778D01*
X57496Y-40820D01*
X57703Y-40820D01*
X57894Y-40741D01*
X58041Y-40595D01*
X58100Y-40451D01*
X58159Y-40594D01*
X58305Y-40741D01*
X58496Y-40820D01*
X58703Y-40820D01*
X58894Y-40741D01*
X59041Y-40595D01*
X59120Y-40404D01*
X59120Y-40197D01*
X59041Y-40006D01*
X58895Y-39859D01*
X58704Y-39780D01*
X58497Y-39780D01*
X58306Y-39859D01*
X58159Y-40005D01*
X58099Y-40148D01*
X58041Y-40006D01*
X57895Y-39859D01*
X57704Y-39780D01*
X57497Y-39780D01*
X57395Y-39822D01*
X57395Y-39000D01*
X57373Y-38887D01*
X57309Y-38791D01*
X56895Y-38377D01*
X56895Y-37740D01*
X57041Y-37595D01*
X57100Y-37451D01*
X57159Y-37594D01*
X57305Y-37741D01*
X57496Y-37820D01*
X57703Y-37820D01*
X57894Y-37741D01*
X58041Y-37595D01*
X58100Y-37451D01*
X58159Y-37594D01*
X58305Y-37741D01*
X58496Y-37820D01*
X58703Y-37820D01*
X58894Y-37741D01*
X59041Y-37595D01*
X59120Y-37404D01*
X59120Y-37197D01*
X59041Y-37006D01*
X58895Y-36859D01*
X58704Y-36780D01*
X58497Y-36780D01*
X58306Y-36859D01*
X58159Y-37005D01*
X58099Y-37148D01*
X58041Y-37006D01*
X57895Y-36859D01*
X57704Y-36780D01*
X57497Y-36780D01*
X57306Y-36859D01*
X57159Y-37005D01*
X57099Y-37148D01*
X57041Y-37006D01*
X56895Y-36859D01*
X56704Y-36780D01*
X56497Y-36780D01*
X56306Y-36859D01*
X56159Y-37005D01*
X56099Y-37148D01*
X56041Y-37006D01*
X55895Y-36859D01*
X55704Y-36780D01*
X55497Y-36780D01*
X55306Y-36859D01*
X55159Y-37005D01*
X55099Y-37148D01*
X55041Y-37006D01*
X55040Y-37004D01*
X55040Y-30908D01*
X55040Y-30693D01*
X54958Y-30494D01*
X54806Y-30343D01*
X54608Y-30260D01*
X54393Y-30260D01*
X54194Y-30342D01*
X54043Y-30494D01*
X53960Y-30692D01*
X53960Y-30907D01*
X54042Y-31106D01*
X54194Y-31257D01*
X54392Y-31340D01*
X54607Y-31340D01*
X54806Y-31258D01*
X54957Y-31106D01*
X55040Y-30908D01*
X55040Y-37004D01*
X54895Y-36859D01*
X54704Y-36780D01*
X54497Y-36780D01*
X54306Y-36859D01*
X54159Y-37005D01*
X54099Y-37148D01*
X54041Y-37006D01*
X53895Y-36859D01*
X53815Y-36826D01*
X53809Y-36816D01*
X53806Y-36814D01*
X53394Y-36401D01*
X53394Y-36077D01*
X53357Y-35987D01*
X53289Y-35919D01*
X53199Y-35881D01*
X53102Y-35881D01*
X52752Y-35881D01*
X52662Y-35918D01*
X52594Y-35986D01*
X52556Y-36076D01*
X52556Y-36173D01*
X52556Y-36723D01*
X52579Y-36780D01*
X52497Y-36780D01*
X52306Y-36859D01*
X52159Y-37005D01*
X52089Y-37174D01*
X52089Y-35194D01*
X52089Y-35097D01*
X52089Y-33207D01*
X52052Y-33117D01*
X51984Y-33049D01*
X51894Y-33011D01*
X51797Y-33011D01*
X49907Y-33011D01*
X49817Y-33048D01*
X49749Y-33116D01*
X49711Y-33206D01*
X49711Y-33303D01*
X49711Y-35193D01*
X49748Y-35283D01*
X49816Y-35351D01*
X49906Y-35389D01*
X50003Y-35389D01*
X51893Y-35389D01*
X51983Y-35352D01*
X52051Y-35284D01*
X52089Y-35194D01*
X52089Y-37174D01*
X52080Y-37196D01*
X52080Y-37403D01*
X52159Y-37594D01*
X52305Y-37741D01*
X52338Y-37754D01*
X52391Y-37834D01*
X52564Y-38006D01*
X52566Y-38009D01*
X52662Y-38073D01*
X52775Y-38095D01*
X53825Y-38095D01*
X53804Y-38200D01*
X53805Y-38204D01*
X53805Y-39821D01*
X53704Y-39780D01*
X53497Y-39780D01*
X53306Y-39859D01*
X53159Y-40005D01*
X53099Y-40148D01*
X53041Y-40006D01*
X52895Y-39859D01*
X52704Y-39780D01*
X52497Y-39780D01*
X52306Y-39859D01*
X52159Y-40005D01*
X52099Y-40148D01*
X52041Y-40006D01*
X51895Y-39859D01*
X51704Y-39780D01*
X51497Y-39780D01*
X51306Y-39859D01*
X51159Y-40005D01*
X51099Y-40148D01*
X51041Y-40006D01*
X50895Y-39859D01*
X50704Y-39780D01*
X50497Y-39780D01*
X50395Y-39822D01*
X50395Y-39123D01*
X50809Y-38709D01*
X50873Y-38613D01*
X50895Y-38500D01*
X50895Y-37740D01*
X51041Y-37595D01*
X51120Y-37404D01*
X51120Y-37197D01*
X51041Y-37006D01*
X50895Y-36859D01*
X50704Y-36780D01*
X50497Y-36780D01*
X50306Y-36859D01*
X50159Y-37005D01*
X50099Y-37148D01*
X50041Y-37006D01*
X49895Y-36859D01*
X49704Y-36780D01*
X49497Y-36780D01*
X49306Y-36859D01*
X49159Y-37005D01*
X49099Y-37148D01*
X49041Y-37006D01*
X48895Y-36859D01*
X48704Y-36780D01*
X48694Y-36780D01*
X48694Y-29918D01*
X48694Y-29682D01*
X48604Y-29464D01*
X48437Y-29297D01*
X48218Y-29206D01*
X47982Y-29206D01*
X47764Y-29296D01*
X47597Y-29463D01*
X47506Y-29682D01*
X47506Y-29918D01*
X47596Y-30136D01*
X47763Y-30303D01*
X47982Y-30394D01*
X48218Y-30394D01*
X48436Y-30304D01*
X48603Y-30137D01*
X48694Y-29918D01*
X48694Y-36780D01*
X48497Y-36780D01*
X48306Y-36859D01*
X48159Y-37005D01*
X48099Y-37148D01*
X48041Y-37006D01*
X47895Y-36859D01*
X47704Y-36780D01*
X47497Y-36780D01*
X47306Y-36859D01*
X47159Y-37005D01*
X47080Y-37196D01*
X47080Y-37403D01*
X47159Y-37594D01*
X47305Y-37741D01*
X47305Y-38077D01*
X47147Y-38235D01*
X47128Y-38235D01*
X46994Y-38290D01*
X46891Y-38393D01*
X46835Y-38527D01*
X46835Y-38672D01*
X46890Y-38806D01*
X46993Y-38909D01*
X47127Y-38965D01*
X47272Y-38965D01*
X47406Y-38910D01*
X47509Y-38807D01*
X47565Y-38673D01*
X47565Y-38652D01*
X47806Y-38410D01*
X47808Y-38409D01*
X47809Y-38409D01*
X47872Y-38314D01*
X47873Y-38313D01*
X47895Y-38200D01*
X47895Y-37740D01*
X48041Y-37595D01*
X48100Y-37451D01*
X48159Y-37594D01*
X48305Y-37741D01*
X48305Y-37877D01*
X47891Y-38291D01*
X47827Y-38387D01*
X47804Y-38500D01*
X47805Y-38504D01*
X47805Y-39821D01*
X47704Y-39780D01*
X47497Y-39780D01*
X47306Y-39859D01*
X47159Y-40005D01*
X47099Y-40148D01*
X47041Y-40006D01*
X46895Y-39859D01*
X46704Y-39780D01*
X46694Y-39780D01*
X46694Y-29918D01*
X46694Y-29682D01*
X46604Y-29464D01*
X46437Y-29297D01*
X46218Y-29206D01*
X45982Y-29206D01*
X45764Y-29296D01*
X45597Y-29463D01*
X45506Y-29682D01*
X45506Y-29918D01*
X45596Y-30136D01*
X45712Y-30252D01*
X45659Y-30305D01*
X45580Y-30496D01*
X45580Y-30703D01*
X45659Y-30894D01*
X45805Y-31041D01*
X45996Y-31120D01*
X46203Y-31120D01*
X46394Y-31041D01*
X46541Y-30895D01*
X46620Y-30704D01*
X46620Y-30497D01*
X46541Y-30306D01*
X46487Y-30252D01*
X46603Y-30137D01*
X46694Y-29918D01*
X46694Y-39780D01*
X46497Y-39780D01*
X46306Y-39859D01*
X46159Y-40005D01*
X46119Y-40101D01*
X46119Y-39977D01*
X46082Y-39887D01*
X46014Y-39819D01*
X45924Y-39781D01*
X45827Y-39781D01*
X45277Y-39781D01*
X45187Y-39818D01*
X45119Y-39886D01*
X45081Y-39976D01*
X45081Y-40073D01*
X45081Y-40623D01*
X45118Y-40713D01*
X45186Y-40781D01*
X45276Y-40819D01*
X45373Y-40819D01*
X45923Y-40819D01*
X46013Y-40782D01*
X46081Y-40714D01*
X46119Y-40624D01*
X46119Y-40527D01*
X46119Y-40497D01*
X46159Y-40594D01*
X46305Y-40741D01*
X46496Y-40820D01*
X46703Y-40820D01*
X46894Y-40741D01*
X47041Y-40595D01*
X47100Y-40451D01*
X47159Y-40594D01*
X47305Y-40741D01*
X47496Y-40820D01*
X47703Y-40820D01*
X47805Y-40777D01*
X47805Y-41995D01*
X47804Y-42000D01*
X47827Y-42113D01*
X47891Y-42209D01*
X48305Y-42623D01*
X48305Y-42659D01*
X48159Y-42805D01*
X48099Y-42948D01*
X48041Y-42806D01*
X47895Y-42659D01*
X47704Y-42580D01*
X47497Y-42580D01*
X47306Y-42659D01*
X47159Y-42805D01*
X47080Y-42996D01*
X47080Y-43203D01*
X47159Y-43394D01*
X47305Y-43541D01*
X47324Y-43548D01*
X47327Y-43563D01*
X47391Y-43659D01*
X47587Y-43855D01*
X40137Y-43855D01*
X41152Y-42840D01*
X41172Y-42840D01*
X41306Y-42785D01*
X41409Y-42682D01*
X41465Y-42548D01*
X41465Y-42403D01*
X41410Y-42269D01*
X41307Y-42166D01*
X41173Y-42110D01*
X41028Y-42110D01*
X40894Y-42165D01*
X40791Y-42268D01*
X40735Y-42402D01*
X40735Y-42422D01*
X39727Y-43430D01*
X39105Y-43430D01*
X39141Y-43395D01*
X39220Y-43204D01*
X39220Y-42997D01*
X39141Y-42806D01*
X38995Y-42659D01*
X38804Y-42580D01*
X38597Y-42580D01*
X38406Y-42659D01*
X38259Y-42805D01*
X38199Y-42948D01*
X38141Y-42806D01*
X37995Y-42659D01*
X37804Y-42580D01*
X37597Y-42580D01*
X37406Y-42659D01*
X37259Y-42805D01*
X37199Y-42948D01*
X37141Y-42806D01*
X36995Y-42659D01*
X36804Y-42580D01*
X36597Y-42580D01*
X36406Y-42659D01*
X36259Y-42805D01*
X36199Y-42948D01*
X36141Y-42806D01*
X35995Y-42659D01*
X35804Y-42580D01*
X35597Y-42580D01*
X35406Y-42659D01*
X35259Y-42805D01*
X35199Y-42948D01*
X35141Y-42806D01*
X34995Y-42659D01*
X34804Y-42580D01*
X34597Y-42580D01*
X34406Y-42659D01*
X34259Y-42805D01*
X34199Y-42948D01*
X34141Y-42806D01*
X33995Y-42659D01*
X33804Y-42580D01*
X33597Y-42580D01*
X33406Y-42659D01*
X33259Y-42805D01*
X33199Y-42948D01*
X33141Y-42806D01*
X32995Y-42659D01*
X32804Y-42580D01*
X32597Y-42580D01*
X32406Y-42659D01*
X32259Y-42805D01*
X32180Y-42996D01*
X32180Y-43203D01*
X32259Y-43394D01*
X32405Y-43541D01*
X32424Y-43548D01*
X32427Y-43563D01*
X32491Y-43659D01*
X32764Y-43931D01*
X32766Y-43934D01*
X32861Y-43997D01*
X32862Y-43998D01*
X32952Y-44015D01*
X32974Y-44020D01*
X32974Y-44019D01*
X32975Y-44020D01*
X34470Y-44020D01*
X34475Y-44021D01*
X34475Y-44020D01*
X34588Y-43998D01*
X34684Y-43934D01*
X34906Y-43710D01*
X34908Y-43709D01*
X34909Y-43709D01*
X34973Y-43613D01*
X34986Y-43544D01*
X34994Y-43541D01*
X35141Y-43395D01*
X35200Y-43251D01*
X35259Y-43394D01*
X35405Y-43541D01*
X35405Y-43820D01*
X35404Y-43825D01*
X35427Y-43938D01*
X35491Y-44034D01*
X36062Y-44605D01*
X31622Y-44605D01*
X31065Y-44047D01*
X31065Y-44028D01*
X31036Y-43957D01*
X31109Y-43909D01*
X31406Y-43610D01*
X31408Y-43609D01*
X31409Y-43609D01*
X31473Y-43513D01*
X31495Y-43400D01*
X31495Y-42273D01*
X31823Y-41945D01*
X37295Y-41945D01*
X37300Y-41946D01*
X37300Y-41945D01*
X37413Y-41923D01*
X37509Y-41859D01*
X38406Y-40960D01*
X38408Y-40959D01*
X38409Y-40959D01*
X38472Y-40864D01*
X38473Y-40863D01*
X38489Y-40776D01*
X38596Y-40820D01*
X38803Y-40820D01*
X38994Y-40741D01*
X39141Y-40595D01*
X39220Y-40404D01*
X39220Y-40197D01*
X39141Y-40006D01*
X38995Y-39859D01*
X38804Y-39780D01*
X38597Y-39780D01*
X38495Y-39822D01*
X38495Y-37923D01*
X38598Y-37820D01*
X38803Y-37820D01*
X38994Y-37741D01*
X39141Y-37595D01*
X39220Y-37404D01*
X39220Y-37197D01*
X39157Y-37045D01*
X42845Y-37045D01*
X42850Y-37046D01*
X42850Y-37045D01*
X42963Y-37023D01*
X43059Y-36959D01*
X45352Y-34665D01*
X45372Y-34665D01*
X45506Y-34610D01*
X45609Y-34507D01*
X45665Y-34373D01*
X45665Y-34228D01*
X45610Y-34094D01*
X45507Y-33991D01*
X45373Y-33935D01*
X45228Y-33935D01*
X45099Y-33987D01*
X44973Y-33935D01*
X44828Y-33935D01*
X44699Y-33987D01*
X44573Y-33935D01*
X44428Y-33935D01*
X44299Y-33987D01*
X44173Y-33935D01*
X44028Y-33935D01*
X43894Y-33990D01*
X43791Y-34093D01*
X43735Y-34227D01*
X43735Y-34247D01*
X42127Y-35855D01*
X41897Y-35855D01*
X41897Y-31892D01*
X41897Y-31509D01*
X41751Y-31155D01*
X41480Y-30885D01*
X41127Y-30738D01*
X40744Y-30738D01*
X40390Y-30884D01*
X40120Y-31155D01*
X39973Y-31508D01*
X39973Y-31891D01*
X40119Y-32245D01*
X40390Y-32515D01*
X40743Y-32662D01*
X41126Y-32662D01*
X41480Y-32516D01*
X41750Y-32245D01*
X41897Y-31892D01*
X41897Y-35855D01*
X38965Y-35855D01*
X38965Y-35828D01*
X38928Y-35740D01*
X38957Y-35740D01*
X39156Y-35658D01*
X39307Y-35506D01*
X39349Y-35403D01*
X39392Y-35506D01*
X39544Y-35657D01*
X39742Y-35740D01*
X39957Y-35740D01*
X40156Y-35658D01*
X40307Y-35506D01*
X40390Y-35308D01*
X40390Y-35093D01*
X40308Y-34894D01*
X40156Y-34743D01*
X40146Y-34739D01*
X40693Y-34739D01*
X40783Y-34702D01*
X40851Y-34634D01*
X40889Y-34544D01*
X40889Y-34447D01*
X40889Y-33857D01*
X40852Y-33767D01*
X40784Y-33699D01*
X40694Y-33661D01*
X40597Y-33661D01*
X40007Y-33661D01*
X39917Y-33698D01*
X39849Y-33766D01*
X39811Y-33856D01*
X39811Y-33901D01*
X39808Y-33894D01*
X39656Y-33743D01*
X39458Y-33660D01*
X39243Y-33660D01*
X39044Y-33742D01*
X38893Y-33894D01*
X38850Y-33996D01*
X38808Y-33894D01*
X38656Y-33743D01*
X38458Y-33660D01*
X38243Y-33660D01*
X38044Y-33742D01*
X37893Y-33894D01*
X37850Y-33996D01*
X37808Y-33894D01*
X37656Y-33743D01*
X37458Y-33660D01*
X37243Y-33660D01*
X37231Y-33664D01*
X37224Y-33656D01*
X37224Y-31892D01*
X37224Y-31509D01*
X37078Y-31155D01*
X36807Y-30885D01*
X36454Y-30738D01*
X36071Y-30738D01*
X35717Y-30884D01*
X35447Y-31155D01*
X35348Y-31391D01*
X35251Y-31155D01*
X34980Y-30885D01*
X34627Y-30738D01*
X34244Y-30738D01*
X33890Y-30884D01*
X33620Y-31155D01*
X33473Y-31508D01*
X33473Y-31891D01*
X33619Y-32245D01*
X33890Y-32515D01*
X34243Y-32662D01*
X34626Y-32662D01*
X34980Y-32516D01*
X35250Y-32245D01*
X35348Y-32008D01*
X35446Y-32245D01*
X35717Y-32515D01*
X36070Y-32662D01*
X36453Y-32662D01*
X36807Y-32516D01*
X37077Y-32245D01*
X37224Y-31892D01*
X37224Y-33656D01*
X36631Y-33063D01*
X36535Y-32999D01*
X36422Y-32976D01*
X36417Y-32977D01*
X31628Y-32977D01*
X31515Y-32999D01*
X31419Y-33063D01*
X31417Y-33065D01*
X30822Y-33660D01*
X30743Y-33660D01*
X30724Y-33667D01*
X30724Y-31892D01*
X30724Y-31509D01*
X30578Y-31155D01*
X30307Y-30885D01*
X29954Y-30738D01*
X29571Y-30738D01*
X29217Y-30884D01*
X28947Y-31155D01*
X28944Y-31162D01*
X28944Y-30268D01*
X28944Y-30032D01*
X28854Y-29814D01*
X28687Y-29647D01*
X28468Y-29556D01*
X28232Y-29556D01*
X28014Y-29646D01*
X27847Y-29813D01*
X27756Y-30032D01*
X27756Y-30268D01*
X27846Y-30486D01*
X28013Y-30653D01*
X28232Y-30744D01*
X28468Y-30744D01*
X28686Y-30654D01*
X28853Y-30487D01*
X28944Y-30268D01*
X28944Y-31162D01*
X28800Y-31508D01*
X28800Y-31891D01*
X28946Y-32245D01*
X29217Y-32515D01*
X29570Y-32662D01*
X29953Y-32662D01*
X30307Y-32516D01*
X30577Y-32245D01*
X30724Y-31892D01*
X30724Y-33667D01*
X30544Y-33742D01*
X30393Y-33894D01*
X30310Y-34092D01*
X30310Y-34307D01*
X30392Y-34506D01*
X30544Y-34657D01*
X30742Y-34740D01*
X30957Y-34740D01*
X31156Y-34658D01*
X31307Y-34506D01*
X31349Y-34403D01*
X31392Y-34506D01*
X31544Y-34657D01*
X31742Y-34740D01*
X31957Y-34740D01*
X32156Y-34658D01*
X32307Y-34506D01*
X32349Y-34403D01*
X32392Y-34506D01*
X32544Y-34657D01*
X32742Y-34740D01*
X32772Y-34740D01*
X32909Y-34876D01*
X32893Y-34894D01*
X32850Y-34996D01*
X32808Y-34894D01*
X32656Y-34743D01*
X32458Y-34660D01*
X32243Y-34660D01*
X32044Y-34742D01*
X31893Y-34894D01*
X31850Y-34996D01*
X31808Y-34894D01*
X31656Y-34743D01*
X31458Y-34660D01*
X31243Y-34660D01*
X31044Y-34742D01*
X30893Y-34894D01*
X30850Y-34996D01*
X30808Y-34894D01*
X30656Y-34743D01*
X30458Y-34660D01*
X30243Y-34660D01*
X30044Y-34742D01*
X29893Y-34894D01*
X29810Y-35092D01*
X29810Y-35307D01*
X29892Y-35506D01*
X30044Y-35657D01*
X30242Y-35740D01*
X30457Y-35740D01*
X30656Y-35658D01*
X30807Y-35506D01*
X30849Y-35403D01*
X30892Y-35506D01*
X31044Y-35657D01*
X31056Y-35662D01*
X31077Y-35763D01*
X31138Y-35855D01*
X28850Y-35855D01*
X28737Y-35877D01*
X28641Y-35941D01*
X28639Y-35943D01*
X27802Y-36780D01*
X27597Y-36780D01*
X27406Y-36859D01*
X27259Y-37005D01*
X27199Y-37148D01*
X27141Y-37006D01*
X26995Y-36859D01*
X26804Y-36780D01*
X26597Y-36780D01*
X26406Y-36859D01*
X26259Y-37005D01*
X26199Y-37148D01*
X26141Y-37006D01*
X25995Y-36859D01*
X25804Y-36780D01*
X25597Y-36780D01*
X25406Y-36859D01*
X25259Y-37005D01*
X25180Y-37196D01*
X25180Y-37403D01*
X25259Y-37594D01*
X25405Y-37741D01*
X25596Y-37820D01*
X25803Y-37820D01*
X25994Y-37741D01*
X26141Y-37595D01*
X26200Y-37451D01*
X26259Y-37594D01*
X26405Y-37741D01*
X26596Y-37820D01*
X26803Y-37820D01*
X26994Y-37741D01*
X27141Y-37595D01*
X27200Y-37451D01*
X27259Y-37594D01*
X27405Y-37741D01*
X27596Y-37820D01*
X27803Y-37820D01*
X27994Y-37741D01*
X28141Y-37595D01*
X28200Y-37451D01*
X28259Y-37594D01*
X28405Y-37741D01*
X28596Y-37820D01*
X28803Y-37820D01*
X28994Y-37741D01*
X29141Y-37595D01*
X29200Y-37451D01*
X29259Y-37594D01*
X29405Y-37741D01*
X29596Y-37820D01*
X29803Y-37820D01*
X29994Y-37741D01*
X30141Y-37595D01*
X30200Y-37451D01*
X30259Y-37594D01*
X30405Y-37741D01*
X30596Y-37820D01*
X30803Y-37820D01*
X30994Y-37741D01*
X31141Y-37595D01*
X31220Y-37404D01*
X31220Y-37197D01*
X31157Y-37045D01*
X32242Y-37045D01*
X32180Y-37196D01*
X32180Y-37403D01*
X32259Y-37594D01*
X32405Y-37741D01*
X32596Y-37820D01*
X32803Y-37820D01*
X32994Y-37741D01*
X33141Y-37595D01*
X33259Y-37595D01*
X33405Y-37741D01*
X33596Y-37820D01*
X33803Y-37820D01*
X33994Y-37741D01*
X34141Y-37595D01*
X34200Y-37451D01*
X34259Y-37594D01*
X34405Y-37741D01*
X34596Y-37820D01*
X34803Y-37820D01*
X34994Y-37741D01*
X35141Y-37595D01*
X35200Y-37451D01*
X35259Y-37594D01*
X35405Y-37741D01*
X35596Y-37820D01*
X35803Y-37820D01*
X35994Y-37741D01*
X36141Y-37595D01*
X36200Y-37451D01*
X36259Y-37594D01*
X36405Y-37741D01*
X36596Y-37820D01*
X36803Y-37820D01*
X36908Y-37776D01*
X36904Y-37800D01*
X36905Y-37804D01*
X36905Y-39821D01*
X36804Y-39780D01*
X36597Y-39780D01*
X36406Y-39859D01*
X36259Y-40005D01*
X36199Y-40148D01*
X36141Y-40006D01*
X35995Y-39859D01*
X35804Y-39780D01*
X35597Y-39780D01*
X35406Y-39859D01*
X35259Y-40005D01*
X35199Y-40148D01*
X35141Y-40006D01*
X34995Y-39859D01*
X34995Y-39516D01*
X35554Y-39516D01*
X35601Y-39547D01*
X35602Y-39548D01*
X35692Y-39565D01*
X35714Y-39570D01*
X35714Y-39569D01*
X35715Y-39570D01*
X35810Y-39570D01*
X35818Y-39588D01*
X35886Y-39656D01*
X35976Y-39694D01*
X36073Y-39694D01*
X36623Y-39694D01*
X36713Y-39657D01*
X36781Y-39589D01*
X36819Y-39499D01*
X36819Y-39402D01*
X36819Y-39052D01*
X36782Y-38962D01*
X36714Y-38894D01*
X36624Y-38856D01*
X36527Y-38856D01*
X35977Y-38856D01*
X35917Y-38880D01*
X35917Y-38280D01*
X35880Y-38190D01*
X35812Y-38122D01*
X35722Y-38084D01*
X35625Y-38084D01*
X34759Y-38084D01*
X34669Y-38121D01*
X34601Y-38189D01*
X34563Y-38279D01*
X34563Y-38376D01*
X34563Y-39059D01*
X34491Y-39131D01*
X34427Y-39227D01*
X34404Y-39340D01*
X34405Y-39344D01*
X34405Y-39859D01*
X34259Y-40005D01*
X34199Y-40148D01*
X34141Y-40006D01*
X33995Y-39859D01*
X33995Y-39740D01*
X33973Y-39627D01*
X33909Y-39531D01*
X33906Y-39529D01*
X33437Y-39059D01*
X33437Y-38280D01*
X33400Y-38190D01*
X33332Y-38122D01*
X33242Y-38084D01*
X33145Y-38084D01*
X32279Y-38084D01*
X32189Y-38121D01*
X32121Y-38189D01*
X32083Y-38279D01*
X32083Y-38376D01*
X32083Y-38880D01*
X32024Y-38856D01*
X31927Y-38856D01*
X31377Y-38856D01*
X31287Y-38893D01*
X31219Y-38961D01*
X31181Y-39051D01*
X31181Y-39148D01*
X31181Y-39498D01*
X31218Y-39588D01*
X31286Y-39656D01*
X31376Y-39694D01*
X31473Y-39694D01*
X32023Y-39694D01*
X32113Y-39657D01*
X32181Y-39589D01*
X32189Y-39570D01*
X32280Y-39570D01*
X32285Y-39571D01*
X32285Y-39570D01*
X32398Y-39548D01*
X32446Y-39516D01*
X33058Y-39516D01*
X33403Y-39861D01*
X33259Y-40005D01*
X33180Y-40196D01*
X33180Y-40403D01*
X33259Y-40594D01*
X33405Y-40741D01*
X33499Y-40780D01*
X31899Y-40780D01*
X31994Y-40741D01*
X32141Y-40595D01*
X32220Y-40404D01*
X32220Y-40197D01*
X32141Y-40006D01*
X31995Y-39859D01*
X31804Y-39780D01*
X31597Y-39780D01*
X31406Y-39859D01*
X31403Y-39860D01*
X31134Y-39591D01*
X31038Y-39527D01*
X30925Y-39504D01*
X30920Y-39505D01*
X26523Y-39505D01*
X24365Y-37347D01*
X24365Y-37328D01*
X24310Y-37194D01*
X24295Y-37179D01*
X24295Y-36072D01*
X27006Y-33360D01*
X27008Y-33359D01*
X27009Y-33359D01*
X27072Y-33264D01*
X27073Y-33263D01*
X27090Y-33173D01*
X27095Y-33151D01*
X27094Y-33150D01*
X27095Y-33150D01*
X27095Y-32200D01*
X27095Y-31922D01*
X27122Y-31895D01*
X28104Y-31895D01*
X28118Y-31909D01*
X28252Y-31965D01*
X28397Y-31965D01*
X28531Y-31910D01*
X28634Y-31807D01*
X28690Y-31673D01*
X28690Y-31528D01*
X28635Y-31394D01*
X28532Y-31291D01*
X28398Y-31235D01*
X28253Y-31235D01*
X28119Y-31290D01*
X28104Y-31305D01*
X27000Y-31305D01*
X26999Y-31305D01*
X26977Y-31309D01*
X26887Y-31327D01*
X26791Y-31391D01*
X26789Y-31393D01*
X26591Y-31591D01*
X26527Y-31687D01*
X26504Y-31800D01*
X26505Y-31804D01*
X26505Y-32200D01*
X26505Y-33027D01*
X25744Y-33788D01*
X25744Y-30268D01*
X25744Y-30032D01*
X25654Y-29814D01*
X25487Y-29647D01*
X25268Y-29556D01*
X25032Y-29556D01*
X24814Y-29646D01*
X24647Y-29813D01*
X24556Y-30032D01*
X24556Y-30268D01*
X24646Y-30486D01*
X24813Y-30653D01*
X25032Y-30744D01*
X25268Y-30744D01*
X25486Y-30654D01*
X25653Y-30487D01*
X25744Y-30268D01*
X25744Y-33788D01*
X23791Y-35741D01*
X23727Y-35837D01*
X23704Y-35950D01*
X23705Y-35954D01*
X23705Y-37179D01*
X23691Y-37193D01*
X23635Y-37327D01*
X23635Y-37472D01*
X23690Y-37606D01*
X23793Y-37709D01*
X23927Y-37765D01*
X23947Y-37765D01*
X25963Y-39781D01*
X25927Y-39781D01*
X25377Y-39781D01*
X25287Y-39818D01*
X25219Y-39886D01*
X25181Y-39976D01*
X25181Y-40073D01*
X25181Y-40623D01*
X25218Y-40713D01*
X25286Y-40781D01*
X25376Y-40819D01*
X25473Y-40819D01*
X26023Y-40819D01*
X26113Y-40782D01*
X26181Y-40714D01*
X26219Y-40624D01*
X26219Y-40527D01*
X26219Y-40497D01*
X26259Y-40594D01*
X26405Y-40741D01*
X26596Y-40820D01*
X26803Y-40820D01*
X26994Y-40741D01*
X27141Y-40595D01*
X27200Y-40451D01*
X27259Y-40594D01*
X27405Y-40741D01*
X27596Y-40820D01*
X27803Y-40820D01*
X27994Y-40741D01*
X28141Y-40595D01*
X28200Y-40451D01*
X28259Y-40594D01*
X28405Y-40741D01*
X28596Y-40820D01*
X28803Y-40820D01*
X28994Y-40741D01*
X29141Y-40595D01*
X29200Y-40451D01*
X29259Y-40594D01*
X29405Y-40741D01*
X29405Y-40770D01*
X29404Y-40775D01*
X29427Y-40888D01*
X29491Y-40984D01*
X29789Y-41281D01*
X29791Y-41284D01*
X29887Y-41348D01*
X30000Y-41370D01*
X31112Y-41370D01*
X30491Y-41991D01*
X30427Y-42087D01*
X30404Y-42200D01*
X30405Y-42204D01*
X30405Y-42659D01*
X30259Y-42805D01*
X30199Y-42948D01*
X30141Y-42806D01*
X29995Y-42659D01*
X29804Y-42580D01*
X29597Y-42580D01*
X29406Y-42659D01*
X29259Y-42805D01*
X29199Y-42948D01*
X29141Y-42806D01*
X28995Y-42659D01*
X28804Y-42580D01*
X28597Y-42580D01*
X28406Y-42659D01*
X28259Y-42805D01*
X28199Y-42948D01*
X28141Y-42806D01*
X27995Y-42659D01*
X27804Y-42580D01*
X27597Y-42580D01*
X27406Y-42659D01*
X27259Y-42805D01*
X27180Y-42996D01*
X27180Y-43203D01*
X27259Y-43394D01*
X27405Y-43541D01*
X27596Y-43620D01*
X27803Y-43620D01*
X27994Y-43541D01*
X28141Y-43395D01*
X28200Y-43251D01*
X28259Y-43394D01*
X28405Y-43541D01*
X28596Y-43620D01*
X28803Y-43620D01*
X28994Y-43541D01*
X29141Y-43395D01*
X29200Y-43251D01*
X29259Y-43394D01*
X29405Y-43541D01*
X29521Y-43589D01*
X29839Y-43906D01*
X29841Y-43909D01*
X29936Y-43972D01*
X29937Y-43973D01*
X30027Y-43990D01*
X30049Y-43995D01*
X30049Y-43994D01*
X30050Y-43995D01*
X30348Y-43995D01*
X30335Y-44027D01*
X30335Y-44172D01*
X30390Y-44306D01*
X30493Y-44409D01*
X30627Y-44465D01*
X30647Y-44465D01*
X31289Y-45106D01*
X31291Y-45109D01*
X31387Y-45173D01*
X31500Y-45195D01*
X49579Y-45195D01*
X49593Y-45209D01*
X49727Y-45265D01*
X49872Y-45265D01*
X50006Y-45210D01*
X50109Y-45107D01*
X50165Y-44973D01*
X50165Y-44828D01*
X50161Y-44820D01*
X54554Y-44820D01*
X54568Y-44834D01*
X54702Y-44890D01*
X54847Y-44890D01*
X54981Y-44835D01*
X55084Y-44732D01*
X55140Y-44598D01*
X55140Y-44453D01*
X55136Y-44445D01*
X56995Y-44445D01*
X57000Y-44446D01*
X57000Y-44445D01*
X57113Y-44423D01*
X57209Y-44359D01*
X57806Y-43760D01*
X57808Y-43759D01*
X57809Y-43759D01*
X57847Y-43702D01*
X57873Y-43664D01*
X57873Y-43663D01*
X57895Y-43550D01*
X57895Y-43540D01*
X58041Y-43395D01*
X58100Y-43251D01*
X58159Y-43394D01*
X58305Y-43541D01*
X58496Y-43620D01*
X58703Y-43620D01*
X58894Y-43541D01*
X59041Y-43395D01*
X59120Y-43204D01*
X59120Y-45997D01*
X59041Y-45806D01*
X58895Y-45659D01*
X58704Y-45580D01*
X58497Y-45580D01*
X58306Y-45659D01*
X58159Y-45805D01*
X58099Y-45948D01*
X58041Y-45806D01*
X57895Y-45659D01*
X57704Y-45580D01*
X57497Y-45580D01*
X57306Y-45659D01*
X57159Y-45805D01*
X57099Y-45948D01*
X57041Y-45806D01*
X56895Y-45659D01*
X56704Y-45580D01*
X56497Y-45580D01*
X56306Y-45659D01*
X56159Y-45805D01*
X56099Y-45948D01*
X56041Y-45806D01*
X55895Y-45659D01*
X55704Y-45580D01*
X55497Y-45580D01*
X55306Y-45659D01*
X55159Y-45805D01*
X55099Y-45948D01*
X55041Y-45806D01*
X54895Y-45659D01*
X54704Y-45580D01*
X54497Y-45580D01*
X54306Y-45659D01*
X54159Y-45805D01*
X54099Y-45948D01*
X54041Y-45806D01*
X53895Y-45659D01*
X53704Y-45580D01*
X53497Y-45580D01*
X53306Y-45659D01*
X53159Y-45805D01*
X53099Y-45948D01*
X53041Y-45806D01*
X52895Y-45659D01*
X52704Y-45580D01*
X52497Y-45580D01*
X52306Y-45659D01*
X52159Y-45805D01*
X52099Y-45948D01*
X52041Y-45806D01*
X51895Y-45659D01*
X51704Y-45580D01*
X51497Y-45580D01*
X51306Y-45659D01*
X51159Y-45805D01*
X51099Y-45948D01*
X51041Y-45806D01*
X50895Y-45659D01*
X50704Y-45580D01*
X50497Y-45580D01*
X50306Y-45659D01*
X50159Y-45805D01*
X50099Y-45948D01*
X50041Y-45806D01*
X49895Y-45659D01*
X49704Y-45580D01*
X49497Y-45580D01*
X49306Y-45659D01*
X49159Y-45805D01*
X49099Y-45948D01*
X49041Y-45806D01*
X48895Y-45659D01*
X48704Y-45580D01*
X48497Y-45580D01*
X48306Y-45659D01*
X48159Y-45805D01*
X48099Y-45948D01*
X48041Y-45806D01*
X47895Y-45659D01*
X47704Y-45580D01*
X47497Y-45580D01*
X47306Y-45659D01*
X47159Y-45805D01*
X47099Y-45948D01*
X47041Y-45806D01*
X46895Y-45659D01*
X46704Y-45580D01*
X46497Y-45580D01*
X46306Y-45659D01*
X46159Y-45805D01*
X46119Y-45901D01*
X46119Y-45777D01*
X46082Y-45687D01*
X46014Y-45619D01*
X45924Y-45581D01*
X45827Y-45581D01*
X45277Y-45581D01*
X45187Y-45618D01*
X45119Y-45686D01*
X45081Y-45776D01*
X45081Y-45873D01*
X45081Y-46423D01*
X45118Y-46513D01*
X45186Y-46581D01*
X45276Y-46619D01*
X45373Y-46619D01*
X45923Y-46619D01*
X46013Y-46582D01*
X46081Y-46514D01*
X46119Y-46424D01*
X46119Y-46327D01*
X46119Y-46297D01*
X46159Y-46394D01*
X46305Y-46541D01*
X46496Y-46620D01*
X46703Y-46620D01*
X46894Y-46541D01*
X47041Y-46395D01*
X47100Y-46251D01*
X47159Y-46394D01*
X47305Y-46541D01*
X47496Y-46620D01*
X47703Y-46620D01*
X47894Y-46541D01*
X48041Y-46395D01*
X48100Y-46251D01*
X48159Y-46394D01*
X48305Y-46541D01*
X48496Y-46620D01*
X48703Y-46620D01*
X48894Y-46541D01*
X49041Y-46395D01*
X49100Y-46251D01*
X49159Y-46394D01*
X49305Y-46541D01*
X49496Y-46620D01*
X49703Y-46620D01*
X49894Y-46541D01*
X50041Y-46395D01*
X50100Y-46251D01*
X50159Y-46394D01*
X50305Y-46541D01*
X50496Y-46620D01*
X50703Y-46620D01*
X50894Y-46541D01*
X51041Y-46395D01*
X51100Y-46251D01*
X51159Y-46394D01*
X51305Y-46541D01*
X51496Y-46620D01*
X51703Y-46620D01*
X51894Y-46541D01*
X52041Y-46395D01*
X52100Y-46251D01*
X52159Y-46394D01*
X52305Y-46541D01*
X52496Y-46620D01*
X52703Y-46620D01*
X52894Y-46541D01*
X53041Y-46395D01*
X53100Y-46251D01*
X53159Y-46394D01*
X53305Y-46541D01*
X53496Y-46620D01*
X53703Y-46620D01*
X53894Y-46541D01*
X54041Y-46395D01*
X54100Y-46251D01*
X54159Y-46394D01*
X54305Y-46541D01*
X54496Y-46620D01*
X54703Y-46620D01*
X54894Y-46541D01*
X55041Y-46395D01*
X55100Y-46251D01*
X55159Y-46394D01*
X55305Y-46541D01*
X55496Y-46620D01*
X55703Y-46620D01*
X55894Y-46541D01*
X56041Y-46395D01*
X56100Y-46251D01*
X56159Y-46394D01*
X56305Y-46541D01*
X56496Y-46620D01*
X56703Y-46620D01*
X56894Y-46541D01*
X57041Y-46395D01*
X57100Y-46251D01*
X57159Y-46394D01*
X57305Y-46541D01*
X57496Y-46620D01*
X57703Y-46620D01*
X57894Y-46541D01*
X58041Y-46395D01*
X58100Y-46251D01*
X58159Y-46394D01*
X58305Y-46541D01*
X58496Y-46620D01*
X58630Y-46620D01*
X56540Y-48709D01*
X56440Y-48643D01*
X56250Y-48605D01*
X53548Y-48605D01*
X48448Y-48605D01*
X48424Y-48609D01*
X48400Y-48605D01*
X40548Y-48605D01*
X39220Y-48605D01*
X39220Y-46204D01*
X39220Y-45997D01*
X39141Y-45806D01*
X38995Y-45659D01*
X38804Y-45580D01*
X38597Y-45580D01*
X38406Y-45659D01*
X38259Y-45805D01*
X38199Y-45948D01*
X38141Y-45806D01*
X37995Y-45659D01*
X37804Y-45580D01*
X37597Y-45580D01*
X37406Y-45659D01*
X37259Y-45805D01*
X37199Y-45948D01*
X37141Y-45806D01*
X36995Y-45659D01*
X36804Y-45580D01*
X36597Y-45580D01*
X36406Y-45659D01*
X36259Y-45805D01*
X36199Y-45948D01*
X36141Y-45806D01*
X35995Y-45659D01*
X35804Y-45580D01*
X35597Y-45580D01*
X35406Y-45659D01*
X35259Y-45805D01*
X35199Y-45948D01*
X35141Y-45806D01*
X34995Y-45659D01*
X34804Y-45580D01*
X34597Y-45580D01*
X34406Y-45659D01*
X34259Y-45805D01*
X34199Y-45948D01*
X34141Y-45806D01*
X33995Y-45659D01*
X33804Y-45580D01*
X33597Y-45580D01*
X33406Y-45659D01*
X33259Y-45805D01*
X33199Y-45948D01*
X33141Y-45806D01*
X32995Y-45659D01*
X32804Y-45580D01*
X32597Y-45580D01*
X32406Y-45659D01*
X32259Y-45805D01*
X32199Y-45948D01*
X32141Y-45806D01*
X31995Y-45659D01*
X31804Y-45580D01*
X31597Y-45580D01*
X31406Y-45659D01*
X31259Y-45805D01*
X31199Y-45948D01*
X31141Y-45806D01*
X30995Y-45659D01*
X30804Y-45580D01*
X30597Y-45580D01*
X30406Y-45659D01*
X30259Y-45805D01*
X30199Y-45948D01*
X30141Y-45806D01*
X29995Y-45659D01*
X29804Y-45580D01*
X29597Y-45580D01*
X29406Y-45659D01*
X29259Y-45805D01*
X29199Y-45948D01*
X29141Y-45806D01*
X28995Y-45659D01*
X28804Y-45580D01*
X28597Y-45580D01*
X28406Y-45659D01*
X28259Y-45805D01*
X28199Y-45948D01*
X28141Y-45806D01*
X27995Y-45659D01*
X27804Y-45580D01*
X27597Y-45580D01*
X27406Y-45659D01*
X27259Y-45805D01*
X27199Y-45948D01*
X27141Y-45806D01*
X26995Y-45659D01*
X26804Y-45580D01*
X26597Y-45580D01*
X26406Y-45659D01*
X26259Y-45805D01*
X26219Y-45901D01*
X26219Y-45777D01*
X26182Y-45687D01*
X26114Y-45619D01*
X26024Y-45581D01*
X25927Y-45581D01*
X25377Y-45581D01*
X25287Y-45618D01*
X25219Y-45686D01*
X25181Y-45776D01*
X25181Y-45873D01*
X25181Y-46423D01*
X25218Y-46513D01*
X25286Y-46581D01*
X25376Y-46619D01*
X25473Y-46619D01*
X26023Y-46619D01*
X26113Y-46582D01*
X26181Y-46514D01*
X26219Y-46424D01*
X26219Y-46327D01*
X26219Y-46297D01*
X26259Y-46394D01*
X26405Y-46541D01*
X26596Y-46620D01*
X26803Y-46620D01*
X26994Y-46541D01*
X27141Y-46395D01*
X27200Y-46251D01*
X27259Y-46394D01*
X27405Y-46541D01*
X27596Y-46620D01*
X27803Y-46620D01*
X27994Y-46541D01*
X28141Y-46395D01*
X28200Y-46251D01*
X28259Y-46394D01*
X28405Y-46541D01*
X28596Y-46620D01*
X28803Y-46620D01*
X28994Y-46541D01*
X29141Y-46395D01*
X29200Y-46251D01*
X29259Y-46394D01*
X29405Y-46541D01*
X29596Y-46620D01*
X29803Y-46620D01*
X29994Y-46541D01*
X30141Y-46395D01*
X30200Y-46251D01*
X30259Y-46394D01*
X30405Y-46541D01*
X30596Y-46620D01*
X30803Y-46620D01*
X30994Y-46541D01*
X31141Y-46395D01*
X31200Y-46251D01*
X31259Y-46394D01*
X31405Y-46541D01*
X31596Y-46620D01*
X31803Y-46620D01*
X31994Y-46541D01*
X32141Y-46395D01*
X32200Y-46251D01*
X32259Y-46394D01*
X32405Y-46541D01*
X32596Y-46620D01*
X32803Y-46620D01*
X32994Y-46541D01*
X33141Y-46395D01*
X33200Y-46251D01*
X33259Y-46394D01*
X33405Y-46541D01*
X33596Y-46620D01*
X33803Y-46620D01*
X33994Y-46541D01*
X34141Y-46395D01*
X34200Y-46251D01*
X34259Y-46394D01*
X34405Y-46541D01*
X34596Y-46620D01*
X34803Y-46620D01*
X34994Y-46541D01*
X35141Y-46395D01*
X35200Y-46251D01*
X35259Y-46394D01*
X35405Y-46541D01*
X35596Y-46620D01*
X35803Y-46620D01*
X35994Y-46541D01*
X36141Y-46395D01*
X36200Y-46251D01*
X36259Y-46394D01*
X36405Y-46541D01*
X36596Y-46620D01*
X36803Y-46620D01*
X36994Y-46541D01*
X37141Y-46395D01*
X37200Y-46251D01*
X37259Y-46394D01*
X37405Y-46541D01*
X37596Y-46620D01*
X37803Y-46620D01*
X37994Y-46541D01*
X38141Y-46395D01*
X38200Y-46251D01*
X38259Y-46394D01*
X38405Y-46541D01*
X38596Y-46620D01*
X38803Y-46620D01*
X38994Y-46541D01*
X39141Y-46395D01*
X39220Y-46204D01*
X39220Y-48605D01*
X32648Y-48605D01*
X24748Y-48605D01*
X24559Y-48643D01*
X24398Y-48750D01*
X24397Y-48750D01*
X24397Y-48751D01*
X23385Y-49763D01*
X23202Y-49763D01*
X22931Y-49875D01*
X22820Y-49986D01*
X22820Y-47685D01*
X22992Y-47858D01*
X23321Y-47995D01*
X23677Y-47995D01*
X24006Y-47859D01*
X24258Y-47608D01*
X24395Y-47279D01*
X24395Y-46923D01*
X24259Y-46594D01*
X24008Y-46342D01*
X23679Y-46205D01*
X23323Y-46205D01*
X22994Y-46341D01*
X22820Y-46514D01*
X22820Y-30185D01*
X22992Y-30358D01*
X23321Y-30495D01*
X23677Y-30495D01*
X24006Y-30359D01*
X24258Y-30108D01*
X24395Y-29779D01*
X24395Y-29423D01*
X24259Y-29094D01*
X24085Y-28920D01*
X25256Y-28920D01*
X25206Y-29042D01*
X25206Y-29258D01*
X25289Y-29458D01*
X25442Y-29611D01*
X25642Y-29694D01*
X25858Y-29694D01*
X25871Y-29688D01*
X25971Y-29788D01*
X25956Y-29826D01*
X25956Y-29923D01*
X25956Y-30473D01*
X25993Y-30563D01*
X26061Y-30631D01*
X26151Y-30669D01*
X26248Y-30669D01*
X26598Y-30669D01*
X26688Y-30632D01*
X26756Y-30564D01*
X26794Y-30474D01*
X26794Y-30377D01*
X26794Y-29827D01*
X26757Y-29737D01*
X26689Y-29669D01*
X26638Y-29647D01*
X26584Y-29566D01*
X26581Y-29564D01*
X26288Y-29271D01*
X26294Y-29258D01*
X26294Y-29042D01*
X26243Y-28920D01*
X42709Y-28920D01*
X42644Y-28985D01*
X42615Y-29052D01*
X42573Y-29035D01*
X42428Y-29035D01*
X42294Y-29090D01*
X42191Y-29193D01*
X42135Y-29327D01*
X42135Y-29472D01*
X42190Y-29606D01*
X42293Y-29709D01*
X42427Y-29765D01*
X42572Y-29765D01*
X42616Y-29746D01*
X42643Y-29812D01*
X42711Y-29880D01*
X42757Y-29899D01*
X42712Y-29918D01*
X42644Y-29986D01*
X42615Y-30052D01*
X42573Y-30035D01*
X42428Y-30035D01*
X42294Y-30090D01*
X42191Y-30193D01*
X42135Y-30327D01*
X42135Y-30472D01*
X42190Y-30606D01*
X42293Y-30709D01*
X42427Y-30765D01*
X42572Y-30765D01*
X42615Y-30746D01*
X42643Y-30813D01*
X42711Y-30881D01*
X42755Y-30899D01*
X42712Y-30918D01*
X42644Y-30986D01*
X42615Y-31052D01*
X42573Y-31035D01*
X42428Y-31035D01*
X42294Y-31090D01*
X42191Y-31193D01*
X42135Y-31327D01*
X42135Y-31472D01*
X42190Y-31606D01*
X42293Y-31709D01*
X42427Y-31765D01*
X42572Y-31765D01*
X42615Y-31746D01*
X42643Y-31813D01*
X42711Y-31881D01*
X42755Y-31899D01*
X42712Y-31918D01*
X42644Y-31986D01*
X42615Y-32052D01*
X42573Y-32035D01*
X42428Y-32035D01*
X42294Y-32090D01*
X42191Y-32193D01*
X42135Y-32327D01*
X42135Y-32472D01*
X42190Y-32606D01*
X42293Y-32709D01*
X42427Y-32765D01*
X42572Y-32765D01*
X42615Y-32746D01*
X42643Y-32813D01*
X42711Y-32881D01*
X42755Y-32899D01*
X42712Y-32918D01*
X42644Y-32986D01*
X42615Y-33052D01*
X42573Y-33035D01*
X42428Y-33035D01*
X42294Y-33090D01*
X42191Y-33193D01*
X42135Y-33327D01*
X42135Y-33472D01*
X42190Y-33606D01*
X42293Y-33709D01*
X42427Y-33765D01*
X42572Y-33765D01*
X42615Y-33746D01*
X42643Y-33813D01*
X42711Y-33881D01*
X42801Y-33919D01*
X42898Y-33919D01*
X43248Y-33919D01*
X43338Y-33882D01*
X43406Y-33814D01*
X43444Y-33724D01*
X43444Y-33627D01*
X43444Y-33077D01*
X43407Y-32987D01*
X43339Y-32919D01*
X43294Y-32900D01*
X43338Y-32882D01*
X43406Y-32814D01*
X43444Y-32724D01*
X43444Y-32627D01*
X43444Y-32077D01*
X43407Y-31987D01*
X43339Y-31919D01*
X43294Y-31900D01*
X43338Y-31882D01*
X43406Y-31814D01*
X43444Y-31724D01*
X43444Y-31627D01*
X43444Y-31077D01*
X43407Y-30987D01*
X43339Y-30919D01*
X43294Y-30900D01*
X43338Y-30882D01*
X43406Y-30814D01*
X43444Y-30724D01*
X43444Y-30627D01*
X43444Y-30077D01*
X43407Y-29987D01*
X43339Y-29919D01*
X43292Y-29899D01*
X43338Y-29881D01*
X43406Y-29813D01*
X43444Y-29723D01*
X43444Y-29626D01*
X43444Y-29076D01*
X43407Y-28986D01*
X43341Y-28920D01*
X60214Y-28920D01*
X60042Y-29092D01*
X59905Y-29421D01*
X59905Y-29777D01*
X60041Y-30106D01*
X60292Y-30358D01*
X60621Y-30495D01*
X60977Y-30495D01*
X61306Y-30359D01*
X61480Y-30185D01*
X61480Y-46514D01*
M02*
