G04 (created by PCBNEW-RS274X (2011-07-08)-stable) date Wed 23 Nov 2011 11:10:54 PM EST*
G01*
G70*
G90*
%MOIN*%
G04 Gerber Fmt 3.4, Leading zero omitted, Abs format*
%FSLAX34Y34*%
G04 APERTURE LIST*
%ADD10C,0.006000*%
%ADD11C,0.007500*%
%ADD12C,0.012000*%
%ADD13C,0.015000*%
%ADD14C,0.002600*%
%ADD15C,0.004000*%
%ADD16C,0.010000*%
%ADD17C,0.005000*%
%ADD18C,0.012500*%
%ADD19C,0.011300*%
%ADD20C,0.003500*%
%ADD21C,0.008000*%
G04 APERTURE END LIST*
G54D10*
G54D11*
X45221Y-41036D02*
X45207Y-41021D01*
X45178Y-40979D01*
X45164Y-40950D01*
X45150Y-40907D01*
X45135Y-40836D01*
X45135Y-40779D01*
X45150Y-40707D01*
X45164Y-40664D01*
X45178Y-40636D01*
X45207Y-40593D01*
X45221Y-40579D01*
X45507Y-40921D02*
X45407Y-40779D01*
X45335Y-40921D02*
X45335Y-40621D01*
X45450Y-40621D01*
X45478Y-40636D01*
X45493Y-40650D01*
X45507Y-40679D01*
X45507Y-40721D01*
X45493Y-40750D01*
X45478Y-40764D01*
X45450Y-40779D01*
X45335Y-40779D01*
X45793Y-40921D02*
X45621Y-40921D01*
X45707Y-40921D02*
X45707Y-40621D01*
X45678Y-40664D01*
X45650Y-40693D01*
X45621Y-40707D01*
X45979Y-40621D02*
X46007Y-40621D01*
X46036Y-40636D01*
X46050Y-40650D01*
X46064Y-40679D01*
X46079Y-40736D01*
X46079Y-40807D01*
X46064Y-40864D01*
X46050Y-40893D01*
X46036Y-40907D01*
X46007Y-40921D01*
X45979Y-40921D01*
X45950Y-40907D01*
X45936Y-40893D01*
X45921Y-40864D01*
X45907Y-40807D01*
X45907Y-40736D01*
X45921Y-40679D01*
X45936Y-40650D01*
X45950Y-40636D01*
X45979Y-40621D01*
X46179Y-41036D02*
X46193Y-41021D01*
X46222Y-40979D01*
X46236Y-40950D01*
X46250Y-40907D01*
X46265Y-40836D01*
X46265Y-40779D01*
X46250Y-40707D01*
X46236Y-40664D01*
X46222Y-40636D01*
X46193Y-40593D01*
X46179Y-40579D01*
X46036Y-38579D02*
X46021Y-38593D01*
X45979Y-38622D01*
X45950Y-38636D01*
X45907Y-38650D01*
X45836Y-38665D01*
X45779Y-38665D01*
X45707Y-38650D01*
X45664Y-38636D01*
X45636Y-38622D01*
X45593Y-38593D01*
X45579Y-38579D01*
X45921Y-38293D02*
X45779Y-38393D01*
X45921Y-38465D02*
X45621Y-38465D01*
X45621Y-38350D01*
X45636Y-38322D01*
X45650Y-38307D01*
X45679Y-38293D01*
X45721Y-38293D01*
X45750Y-38307D01*
X45764Y-38322D01*
X45779Y-38350D01*
X45779Y-38465D01*
X45921Y-38007D02*
X45921Y-38179D01*
X45921Y-38093D02*
X45621Y-38093D01*
X45664Y-38122D01*
X45693Y-38150D01*
X45707Y-38179D01*
X45921Y-37721D02*
X45921Y-37893D01*
X45921Y-37807D02*
X45621Y-37807D01*
X45664Y-37836D01*
X45693Y-37864D01*
X45707Y-37893D01*
X46036Y-37621D02*
X46021Y-37607D01*
X45979Y-37578D01*
X45950Y-37564D01*
X45907Y-37550D01*
X45836Y-37535D01*
X45779Y-37535D01*
X45707Y-37550D01*
X45664Y-37564D01*
X45636Y-37578D01*
X45593Y-37607D01*
X45579Y-37621D01*
X57936Y-30736D02*
X57921Y-30750D01*
X57879Y-30779D01*
X57850Y-30793D01*
X57807Y-30807D01*
X57736Y-30822D01*
X57679Y-30822D01*
X57607Y-30807D01*
X57564Y-30793D01*
X57536Y-30779D01*
X57493Y-30750D01*
X57479Y-30736D01*
X57821Y-30450D02*
X57679Y-30550D01*
X57821Y-30622D02*
X57521Y-30622D01*
X57521Y-30507D01*
X57536Y-30479D01*
X57550Y-30464D01*
X57579Y-30450D01*
X57621Y-30450D01*
X57650Y-30464D01*
X57664Y-30479D01*
X57679Y-30507D01*
X57679Y-30622D01*
X57521Y-30179D02*
X57521Y-30322D01*
X57664Y-30336D01*
X57650Y-30322D01*
X57636Y-30293D01*
X57636Y-30222D01*
X57650Y-30193D01*
X57664Y-30179D01*
X57693Y-30164D01*
X57764Y-30164D01*
X57793Y-30179D01*
X57807Y-30193D01*
X57821Y-30222D01*
X57821Y-30293D01*
X57807Y-30322D01*
X57793Y-30336D01*
X57936Y-30064D02*
X57921Y-30050D01*
X57879Y-30021D01*
X57850Y-30007D01*
X57807Y-29993D01*
X57736Y-29978D01*
X57679Y-29978D01*
X57607Y-29993D01*
X57564Y-30007D01*
X57536Y-30021D01*
X57493Y-30050D01*
X57479Y-30064D01*
X59336Y-47836D02*
X59321Y-47850D01*
X59279Y-47879D01*
X59250Y-47893D01*
X59207Y-47907D01*
X59136Y-47922D01*
X59079Y-47922D01*
X59007Y-47907D01*
X58964Y-47893D01*
X58936Y-47879D01*
X58893Y-47850D01*
X58879Y-47836D01*
X59221Y-47550D02*
X59079Y-47650D01*
X59221Y-47722D02*
X58921Y-47722D01*
X58921Y-47607D01*
X58936Y-47579D01*
X58950Y-47564D01*
X58979Y-47550D01*
X59021Y-47550D01*
X59050Y-47564D01*
X59064Y-47579D01*
X59079Y-47607D01*
X59079Y-47722D01*
X59021Y-47293D02*
X59221Y-47293D01*
X58907Y-47364D02*
X59121Y-47436D01*
X59121Y-47250D01*
X59336Y-47164D02*
X59321Y-47150D01*
X59279Y-47121D01*
X59250Y-47107D01*
X59207Y-47093D01*
X59136Y-47078D01*
X59079Y-47078D01*
X59007Y-47093D01*
X58964Y-47107D01*
X58936Y-47121D01*
X58893Y-47150D01*
X58879Y-47164D01*
X52336Y-47936D02*
X52321Y-47950D01*
X52279Y-47979D01*
X52250Y-47993D01*
X52207Y-48007D01*
X52136Y-48022D01*
X52079Y-48022D01*
X52007Y-48007D01*
X51964Y-47993D01*
X51936Y-47979D01*
X51893Y-47950D01*
X51879Y-47936D01*
X52221Y-47650D02*
X52079Y-47750D01*
X52221Y-47822D02*
X51921Y-47822D01*
X51921Y-47707D01*
X51936Y-47679D01*
X51950Y-47664D01*
X51979Y-47650D01*
X52021Y-47650D01*
X52050Y-47664D01*
X52064Y-47679D01*
X52079Y-47707D01*
X52079Y-47822D01*
X51921Y-47550D02*
X51921Y-47364D01*
X52036Y-47464D01*
X52036Y-47422D01*
X52050Y-47393D01*
X52064Y-47379D01*
X52093Y-47364D01*
X52164Y-47364D01*
X52193Y-47379D01*
X52207Y-47393D01*
X52221Y-47422D01*
X52221Y-47507D01*
X52207Y-47536D01*
X52193Y-47550D01*
X52336Y-47264D02*
X52321Y-47250D01*
X52279Y-47221D01*
X52250Y-47207D01*
X52207Y-47193D01*
X52136Y-47178D01*
X52079Y-47178D01*
X52007Y-47193D01*
X51964Y-47207D01*
X51936Y-47221D01*
X51893Y-47250D01*
X51879Y-47264D01*
X39664Y-38336D02*
X39650Y-38321D01*
X39621Y-38279D01*
X39607Y-38250D01*
X39593Y-38207D01*
X39578Y-38136D01*
X39578Y-38079D01*
X39593Y-38007D01*
X39607Y-37964D01*
X39621Y-37936D01*
X39650Y-37893D01*
X39664Y-37879D01*
X39950Y-38193D02*
X39936Y-38207D01*
X39893Y-38221D01*
X39864Y-38221D01*
X39821Y-38207D01*
X39793Y-38179D01*
X39778Y-38150D01*
X39764Y-38093D01*
X39764Y-38050D01*
X39778Y-37993D01*
X39793Y-37964D01*
X39821Y-37936D01*
X39864Y-37921D01*
X39893Y-37921D01*
X39936Y-37936D01*
X39950Y-37950D01*
X40093Y-38221D02*
X40150Y-38221D01*
X40178Y-38207D01*
X40193Y-38193D01*
X40221Y-38150D01*
X40236Y-38093D01*
X40236Y-37979D01*
X40221Y-37950D01*
X40207Y-37936D01*
X40178Y-37921D01*
X40121Y-37921D01*
X40093Y-37936D01*
X40078Y-37950D01*
X40064Y-37979D01*
X40064Y-38050D01*
X40078Y-38079D01*
X40093Y-38093D01*
X40121Y-38107D01*
X40178Y-38107D01*
X40207Y-38093D01*
X40221Y-38079D01*
X40236Y-38050D01*
X40336Y-38336D02*
X40350Y-38321D01*
X40379Y-38279D01*
X40393Y-38250D01*
X40407Y-38207D01*
X40422Y-38136D01*
X40422Y-38079D01*
X40407Y-38007D01*
X40393Y-37964D01*
X40379Y-37936D01*
X40350Y-37893D01*
X40336Y-37879D01*
X51521Y-37036D02*
X51507Y-37021D01*
X51478Y-36979D01*
X51464Y-36950D01*
X51450Y-36907D01*
X51435Y-36836D01*
X51435Y-36779D01*
X51450Y-36707D01*
X51464Y-36664D01*
X51478Y-36636D01*
X51507Y-36593D01*
X51521Y-36579D01*
X51807Y-36893D02*
X51793Y-36907D01*
X51750Y-36921D01*
X51721Y-36921D01*
X51678Y-36907D01*
X51650Y-36879D01*
X51635Y-36850D01*
X51621Y-36793D01*
X51621Y-36750D01*
X51635Y-36693D01*
X51650Y-36664D01*
X51678Y-36636D01*
X51721Y-36621D01*
X51750Y-36621D01*
X51793Y-36636D01*
X51807Y-36650D01*
X52093Y-36921D02*
X51921Y-36921D01*
X52007Y-36921D02*
X52007Y-36621D01*
X51978Y-36664D01*
X51950Y-36693D01*
X51921Y-36707D01*
X52379Y-36921D02*
X52207Y-36921D01*
X52293Y-36921D02*
X52293Y-36621D01*
X52264Y-36664D01*
X52236Y-36693D01*
X52207Y-36707D01*
X52479Y-37036D02*
X52493Y-37021D01*
X52522Y-36979D01*
X52536Y-36950D01*
X52550Y-36907D01*
X52565Y-36836D01*
X52565Y-36779D01*
X52550Y-36707D01*
X52536Y-36664D01*
X52522Y-36636D01*
X52493Y-36593D01*
X52479Y-36579D01*
X51521Y-32836D02*
X51507Y-32821D01*
X51478Y-32779D01*
X51464Y-32750D01*
X51450Y-32707D01*
X51435Y-32636D01*
X51435Y-32579D01*
X51450Y-32507D01*
X51464Y-32464D01*
X51478Y-32436D01*
X51507Y-32393D01*
X51521Y-32379D01*
X51807Y-32693D02*
X51793Y-32707D01*
X51750Y-32721D01*
X51721Y-32721D01*
X51678Y-32707D01*
X51650Y-32679D01*
X51635Y-32650D01*
X51621Y-32593D01*
X51621Y-32550D01*
X51635Y-32493D01*
X51650Y-32464D01*
X51678Y-32436D01*
X51721Y-32421D01*
X51750Y-32421D01*
X51793Y-32436D01*
X51807Y-32450D01*
X52093Y-32721D02*
X51921Y-32721D01*
X52007Y-32721D02*
X52007Y-32421D01*
X51978Y-32464D01*
X51950Y-32493D01*
X51921Y-32507D01*
X52279Y-32421D02*
X52307Y-32421D01*
X52336Y-32436D01*
X52350Y-32450D01*
X52364Y-32479D01*
X52379Y-32536D01*
X52379Y-32607D01*
X52364Y-32664D01*
X52350Y-32693D01*
X52336Y-32707D01*
X52307Y-32721D01*
X52279Y-32721D01*
X52250Y-32707D01*
X52236Y-32693D01*
X52221Y-32664D01*
X52207Y-32607D01*
X52207Y-32536D01*
X52221Y-32479D01*
X52236Y-32450D01*
X52250Y-32436D01*
X52279Y-32421D01*
X52479Y-32836D02*
X52493Y-32821D01*
X52522Y-32779D01*
X52536Y-32750D01*
X52550Y-32707D01*
X52565Y-32636D01*
X52565Y-32579D01*
X52550Y-32507D01*
X52536Y-32464D01*
X52522Y-32436D01*
X52493Y-32393D01*
X52479Y-32379D01*
X52436Y-35029D02*
X52421Y-35043D01*
X52379Y-35072D01*
X52350Y-35086D01*
X52307Y-35100D01*
X52236Y-35115D01*
X52179Y-35115D01*
X52107Y-35100D01*
X52064Y-35086D01*
X52036Y-35072D01*
X51993Y-35043D01*
X51979Y-35029D01*
X52021Y-34943D02*
X52321Y-34743D01*
X52021Y-34743D02*
X52321Y-34943D01*
X52321Y-34471D02*
X52321Y-34643D01*
X52321Y-34557D02*
X52021Y-34557D01*
X52064Y-34586D01*
X52093Y-34614D01*
X52107Y-34643D01*
X52436Y-34371D02*
X52421Y-34357D01*
X52379Y-34328D01*
X52350Y-34314D01*
X52307Y-34300D01*
X52236Y-34285D01*
X52179Y-34285D01*
X52107Y-34300D01*
X52064Y-34314D01*
X52036Y-34328D01*
X51993Y-34357D01*
X51979Y-34371D01*
X55700Y-26021D02*
X55886Y-26021D01*
X55786Y-26136D01*
X55828Y-26136D01*
X55857Y-26150D01*
X55871Y-26164D01*
X55886Y-26193D01*
X55886Y-26264D01*
X55871Y-26293D01*
X55857Y-26307D01*
X55828Y-26321D01*
X55743Y-26321D01*
X55714Y-26307D01*
X55700Y-26293D01*
X41793Y-53562D02*
X41793Y-53848D01*
X41779Y-53905D01*
X41750Y-53943D01*
X41707Y-53962D01*
X41679Y-53962D01*
X42337Y-53924D02*
X42323Y-53943D01*
X42280Y-53962D01*
X42251Y-53962D01*
X42208Y-53943D01*
X42180Y-53905D01*
X42165Y-53867D01*
X42151Y-53790D01*
X42151Y-53733D01*
X42165Y-53657D01*
X42180Y-53619D01*
X42208Y-53581D01*
X42251Y-53562D01*
X42280Y-53562D01*
X42323Y-53581D01*
X42337Y-53600D01*
X42508Y-53962D02*
X42480Y-53943D01*
X42465Y-53924D01*
X42451Y-53886D01*
X42451Y-53771D01*
X42465Y-53733D01*
X42480Y-53714D01*
X42508Y-53695D01*
X42551Y-53695D01*
X42580Y-53714D01*
X42594Y-53733D01*
X42608Y-53771D01*
X42608Y-53886D01*
X42594Y-53924D01*
X42580Y-53943D01*
X42551Y-53962D01*
X42508Y-53962D01*
X42779Y-53962D02*
X42751Y-53943D01*
X42736Y-53905D01*
X42736Y-53562D01*
X42936Y-53962D02*
X42908Y-53943D01*
X42893Y-53924D01*
X42879Y-53886D01*
X42879Y-53771D01*
X42893Y-53733D01*
X42908Y-53714D01*
X42936Y-53695D01*
X42979Y-53695D01*
X43008Y-53714D01*
X43022Y-53733D01*
X43036Y-53771D01*
X43036Y-53886D01*
X43022Y-53924D01*
X43008Y-53943D01*
X42979Y-53962D01*
X42936Y-53962D01*
X43150Y-53943D02*
X43179Y-53962D01*
X43236Y-53962D01*
X43264Y-53943D01*
X43279Y-53905D01*
X43279Y-53886D01*
X43264Y-53848D01*
X43236Y-53829D01*
X43193Y-53829D01*
X43164Y-53810D01*
X43150Y-53771D01*
X43150Y-53752D01*
X43164Y-53714D01*
X43193Y-53695D01*
X43236Y-53695D01*
X43264Y-53714D01*
X43407Y-53962D02*
X43407Y-53695D01*
X43407Y-53562D02*
X43393Y-53581D01*
X43407Y-53600D01*
X43422Y-53581D01*
X43407Y-53562D01*
X43407Y-53600D01*
X43550Y-53962D02*
X43550Y-53695D01*
X43550Y-53733D02*
X43565Y-53714D01*
X43593Y-53695D01*
X43636Y-53695D01*
X43665Y-53714D01*
X43679Y-53752D01*
X43679Y-53962D01*
X43679Y-53752D02*
X43693Y-53714D01*
X43722Y-53695D01*
X43765Y-53695D01*
X43793Y-53714D01*
X43808Y-53752D01*
X43808Y-53962D01*
X43993Y-53962D02*
X43965Y-53943D01*
X43950Y-53924D01*
X43936Y-53886D01*
X43936Y-53771D01*
X43950Y-53733D01*
X43965Y-53714D01*
X43993Y-53695D01*
X44036Y-53695D01*
X44065Y-53714D01*
X44079Y-53733D01*
X44093Y-53771D01*
X44093Y-53886D01*
X44079Y-53924D01*
X44065Y-53943D01*
X44036Y-53962D01*
X43993Y-53962D01*
X44450Y-53924D02*
X44465Y-53943D01*
X44450Y-53962D01*
X44436Y-53943D01*
X44450Y-53924D01*
X44450Y-53962D01*
X44450Y-53714D02*
X44465Y-53733D01*
X44450Y-53752D01*
X44436Y-53733D01*
X44450Y-53714D01*
X44450Y-53752D01*
X44593Y-53924D02*
X44608Y-53943D01*
X44593Y-53962D01*
X44579Y-53943D01*
X44593Y-53924D01*
X44593Y-53962D01*
X44593Y-53714D02*
X44608Y-53733D01*
X44593Y-53752D01*
X44579Y-53733D01*
X44593Y-53714D01*
X44593Y-53752D01*
X44965Y-53695D02*
X44965Y-54038D01*
X44951Y-54076D01*
X44923Y-54095D01*
X44908Y-54095D01*
X44965Y-53562D02*
X44951Y-53581D01*
X44965Y-53600D01*
X44980Y-53581D01*
X44965Y-53562D01*
X44965Y-53600D01*
X45080Y-53695D02*
X45137Y-53962D01*
X45194Y-53771D01*
X45251Y-53962D01*
X45308Y-53695D01*
X45551Y-53943D02*
X45522Y-53962D01*
X45465Y-53962D01*
X45437Y-53943D01*
X45422Y-53924D01*
X45408Y-53886D01*
X45408Y-53771D01*
X45422Y-53733D01*
X45437Y-53714D01*
X45465Y-53695D01*
X45522Y-53695D01*
X45551Y-53714D01*
X45651Y-53962D02*
X45808Y-53695D01*
X45651Y-53695D02*
X45808Y-53962D01*
X45894Y-53695D02*
X46051Y-53695D01*
X45894Y-53962D01*
X46051Y-53962D01*
X46165Y-53924D02*
X46180Y-53943D01*
X46165Y-53962D01*
X46151Y-53943D01*
X46165Y-53924D01*
X46165Y-53962D01*
X46437Y-53943D02*
X46408Y-53962D01*
X46351Y-53962D01*
X46323Y-53943D01*
X46308Y-53924D01*
X46294Y-53886D01*
X46294Y-53771D01*
X46308Y-53733D01*
X46323Y-53714D01*
X46351Y-53695D01*
X46408Y-53695D01*
X46437Y-53714D01*
X46608Y-53962D02*
X46580Y-53943D01*
X46565Y-53924D01*
X46551Y-53886D01*
X46551Y-53771D01*
X46565Y-53733D01*
X46580Y-53714D01*
X46608Y-53695D01*
X46651Y-53695D01*
X46680Y-53714D01*
X46694Y-53733D01*
X46708Y-53771D01*
X46708Y-53886D01*
X46694Y-53924D01*
X46680Y-53943D01*
X46651Y-53962D01*
X46608Y-53962D01*
X46836Y-53962D02*
X46836Y-53695D01*
X46836Y-53733D02*
X46851Y-53714D01*
X46879Y-53695D01*
X46922Y-53695D01*
X46951Y-53714D01*
X46965Y-53752D01*
X46965Y-53962D01*
X46965Y-53752D02*
X46979Y-53714D01*
X47008Y-53695D01*
X47051Y-53695D01*
X47079Y-53714D01*
X47094Y-53752D01*
X47094Y-53962D01*
G54D12*
X61924Y-50170D02*
X61924Y-50456D01*
X61124Y-50456D01*
X61505Y-49970D02*
X61505Y-49770D01*
X61924Y-49684D02*
X61924Y-49970D01*
X61124Y-49970D01*
X61124Y-49684D01*
X61924Y-49427D02*
X61124Y-49427D01*
X61124Y-49284D01*
X61162Y-49199D01*
X61238Y-49141D01*
X61314Y-49113D01*
X61467Y-49084D01*
X61581Y-49084D01*
X61733Y-49113D01*
X61810Y-49141D01*
X61886Y-49199D01*
X61924Y-49284D01*
X61924Y-49427D01*
X61848Y-48027D02*
X61886Y-48056D01*
X61924Y-48142D01*
X61924Y-48199D01*
X61886Y-48284D01*
X61810Y-48342D01*
X61733Y-48370D01*
X61581Y-48399D01*
X61467Y-48399D01*
X61314Y-48370D01*
X61238Y-48342D01*
X61162Y-48284D01*
X61124Y-48199D01*
X61124Y-48142D01*
X61162Y-48056D01*
X61200Y-48027D01*
X61924Y-47684D02*
X61886Y-47742D01*
X61848Y-47770D01*
X61771Y-47799D01*
X61543Y-47799D01*
X61467Y-47770D01*
X61429Y-47742D01*
X61390Y-47684D01*
X61390Y-47599D01*
X61429Y-47542D01*
X61467Y-47513D01*
X61543Y-47484D01*
X61771Y-47484D01*
X61848Y-47513D01*
X61886Y-47542D01*
X61924Y-47599D01*
X61924Y-47684D01*
X61390Y-47227D02*
X61924Y-47227D01*
X61467Y-47227D02*
X61429Y-47199D01*
X61390Y-47141D01*
X61390Y-47056D01*
X61429Y-46999D01*
X61505Y-46970D01*
X61924Y-46970D01*
X61390Y-46770D02*
X61390Y-46541D01*
X61124Y-46684D02*
X61810Y-46684D01*
X61886Y-46656D01*
X61924Y-46598D01*
X61924Y-46541D01*
X61924Y-46341D02*
X61390Y-46341D01*
X61543Y-46341D02*
X61467Y-46313D01*
X61429Y-46284D01*
X61390Y-46227D01*
X61390Y-46170D01*
X61924Y-45884D02*
X61886Y-45942D01*
X61848Y-45970D01*
X61771Y-45999D01*
X61543Y-45999D01*
X61467Y-45970D01*
X61429Y-45942D01*
X61390Y-45884D01*
X61390Y-45799D01*
X61429Y-45742D01*
X61467Y-45713D01*
X61543Y-45684D01*
X61771Y-45684D01*
X61848Y-45713D01*
X61886Y-45742D01*
X61924Y-45799D01*
X61924Y-45884D01*
X61924Y-45341D02*
X61886Y-45399D01*
X61810Y-45427D01*
X61124Y-45427D01*
X61924Y-45027D02*
X61886Y-45085D01*
X61810Y-45113D01*
X61124Y-45113D01*
X61886Y-44571D02*
X61924Y-44628D01*
X61924Y-44742D01*
X61886Y-44799D01*
X61810Y-44828D01*
X61505Y-44828D01*
X61429Y-44799D01*
X61390Y-44742D01*
X61390Y-44628D01*
X61429Y-44571D01*
X61505Y-44542D01*
X61581Y-44542D01*
X61657Y-44828D01*
X61924Y-44285D02*
X61390Y-44285D01*
X61543Y-44285D02*
X61467Y-44257D01*
X61429Y-44228D01*
X61390Y-44171D01*
X61390Y-44114D01*
X61390Y-43514D02*
X61924Y-43371D01*
X61390Y-43229D01*
X61924Y-42686D02*
X61924Y-43029D01*
X61924Y-42857D02*
X61124Y-42857D01*
X61238Y-42914D01*
X61314Y-42972D01*
X61352Y-43029D01*
X61848Y-42429D02*
X61886Y-42401D01*
X61924Y-42429D01*
X61886Y-42458D01*
X61848Y-42429D01*
X61924Y-42429D01*
X61124Y-41886D02*
X61124Y-42000D01*
X61162Y-42057D01*
X61200Y-42086D01*
X61314Y-42143D01*
X61467Y-42172D01*
X61771Y-42172D01*
X61848Y-42143D01*
X61886Y-42115D01*
X61924Y-42057D01*
X61924Y-41943D01*
X61886Y-41886D01*
X61848Y-41857D01*
X61771Y-41829D01*
X61581Y-41829D01*
X61505Y-41857D01*
X61467Y-41886D01*
X61429Y-41943D01*
X61429Y-42057D01*
X61467Y-42115D01*
X61505Y-42143D01*
X61581Y-42172D01*
X61124Y-40030D02*
X61695Y-40030D01*
X61810Y-40058D01*
X61886Y-40115D01*
X61924Y-40201D01*
X61924Y-40258D01*
X61124Y-39801D02*
X61924Y-39658D01*
X61352Y-39544D01*
X61924Y-39430D01*
X61124Y-39287D01*
X61848Y-38715D02*
X61886Y-38744D01*
X61924Y-38830D01*
X61924Y-38887D01*
X61886Y-38972D01*
X61810Y-39030D01*
X61733Y-39058D01*
X61581Y-39087D01*
X61467Y-39087D01*
X61314Y-39058D01*
X61238Y-39030D01*
X61162Y-38972D01*
X61124Y-38887D01*
X61124Y-38830D01*
X61162Y-38744D01*
X61200Y-38715D01*
G54D13*
X40100Y-39700D02*
X40300Y-39700D01*
X40300Y-39700D02*
X40300Y-36400D01*
X40300Y-36400D02*
X40100Y-36400D01*
X39300Y-39200D02*
X39300Y-39900D01*
X39300Y-39900D02*
X40400Y-39900D01*
X39300Y-39200D02*
X39300Y-37000D01*
X39300Y-37000D02*
X39300Y-36200D01*
X39300Y-36200D02*
X40300Y-36200D01*
X45200Y-35700D02*
X45182Y-35874D01*
X45132Y-36042D01*
X45049Y-36198D01*
X44938Y-36334D01*
X44803Y-36446D01*
X44648Y-36529D01*
X44480Y-36581D01*
X44306Y-36599D01*
X44132Y-36584D01*
X43963Y-36534D01*
X43808Y-36453D01*
X43671Y-36343D01*
X43558Y-36208D01*
X43473Y-36054D01*
X43420Y-35887D01*
X43401Y-35712D01*
X43415Y-35538D01*
X43464Y-35369D01*
X43544Y-35213D01*
X43653Y-35075D01*
X43787Y-34961D01*
X43940Y-34876D01*
X44107Y-34821D01*
X44282Y-34801D01*
X44456Y-34814D01*
X44625Y-34861D01*
X44782Y-34941D01*
X44920Y-35049D01*
X45035Y-35182D01*
X45122Y-35334D01*
X45177Y-35501D01*
X45199Y-35675D01*
X45200Y-35700D01*
X43100Y-37500D02*
X43082Y-37674D01*
X43032Y-37842D01*
X42949Y-37998D01*
X42838Y-38134D01*
X42703Y-38246D01*
X42548Y-38329D01*
X42380Y-38381D01*
X42206Y-38399D01*
X42032Y-38384D01*
X41863Y-38334D01*
X41708Y-38253D01*
X41571Y-38143D01*
X41458Y-38008D01*
X41373Y-37854D01*
X41320Y-37687D01*
X41301Y-37512D01*
X41315Y-37338D01*
X41364Y-37169D01*
X41444Y-37013D01*
X41553Y-36875D01*
X41687Y-36761D01*
X41840Y-36676D01*
X42007Y-36621D01*
X42182Y-36601D01*
X42356Y-36614D01*
X42525Y-36661D01*
X42682Y-36741D01*
X42820Y-36849D01*
X42935Y-36982D01*
X43022Y-37134D01*
X43077Y-37301D01*
X43099Y-37475D01*
X43100Y-37500D01*
X43100Y-35400D02*
X43082Y-35574D01*
X43032Y-35742D01*
X42949Y-35898D01*
X42838Y-36034D01*
X42703Y-36146D01*
X42548Y-36229D01*
X42380Y-36281D01*
X42206Y-36299D01*
X42032Y-36284D01*
X41863Y-36234D01*
X41708Y-36153D01*
X41571Y-36043D01*
X41458Y-35908D01*
X41373Y-35754D01*
X41320Y-35587D01*
X41301Y-35412D01*
X41315Y-35238D01*
X41364Y-35069D01*
X41444Y-34913D01*
X41553Y-34775D01*
X41687Y-34661D01*
X41840Y-34576D01*
X42007Y-34521D01*
X42182Y-34501D01*
X42356Y-34514D01*
X42525Y-34561D01*
X42682Y-34641D01*
X42820Y-34749D01*
X42935Y-34882D01*
X43022Y-35034D01*
X43077Y-35201D01*
X43099Y-35375D01*
X43100Y-35400D01*
X41100Y-34600D02*
X41082Y-34774D01*
X41032Y-34942D01*
X40949Y-35098D01*
X40838Y-35234D01*
X40703Y-35346D01*
X40548Y-35429D01*
X40380Y-35481D01*
X40206Y-35499D01*
X40032Y-35484D01*
X39863Y-35434D01*
X39708Y-35353D01*
X39571Y-35243D01*
X39458Y-35108D01*
X39373Y-34954D01*
X39320Y-34787D01*
X39301Y-34612D01*
X39315Y-34438D01*
X39364Y-34269D01*
X39444Y-34113D01*
X39553Y-33975D01*
X39687Y-33861D01*
X39840Y-33776D01*
X40007Y-33721D01*
X40182Y-33701D01*
X40356Y-33714D01*
X40525Y-33761D01*
X40682Y-33841D01*
X40820Y-33949D01*
X40935Y-34082D01*
X41022Y-34234D01*
X41077Y-34401D01*
X41099Y-34575D01*
X41100Y-34600D01*
X49400Y-53600D02*
X49382Y-53774D01*
X49332Y-53942D01*
X49249Y-54098D01*
X49138Y-54234D01*
X49003Y-54346D01*
X48848Y-54429D01*
X48680Y-54481D01*
X48506Y-54499D01*
X48332Y-54484D01*
X48163Y-54434D01*
X48008Y-54353D01*
X47871Y-54243D01*
X47758Y-54108D01*
X47673Y-53954D01*
X47620Y-53787D01*
X47601Y-53612D01*
X47615Y-53438D01*
X47664Y-53269D01*
X47744Y-53113D01*
X47853Y-52975D01*
X47987Y-52861D01*
X48140Y-52776D01*
X48307Y-52721D01*
X48482Y-52701D01*
X48656Y-52714D01*
X48825Y-52761D01*
X48982Y-52841D01*
X49120Y-52949D01*
X49235Y-53082D01*
X49322Y-53234D01*
X49377Y-53401D01*
X49399Y-53575D01*
X49400Y-53600D01*
X49400Y-50600D02*
X49382Y-50774D01*
X49332Y-50942D01*
X49249Y-51098D01*
X49138Y-51234D01*
X49003Y-51346D01*
X48848Y-51429D01*
X48680Y-51481D01*
X48506Y-51499D01*
X48332Y-51484D01*
X48163Y-51434D01*
X48008Y-51353D01*
X47871Y-51243D01*
X47758Y-51108D01*
X47673Y-50954D01*
X47620Y-50787D01*
X47601Y-50612D01*
X47615Y-50438D01*
X47664Y-50269D01*
X47744Y-50113D01*
X47853Y-49975D01*
X47987Y-49861D01*
X48140Y-49776D01*
X48307Y-49721D01*
X48482Y-49701D01*
X48656Y-49714D01*
X48825Y-49761D01*
X48982Y-49841D01*
X49120Y-49949D01*
X49235Y-50082D01*
X49322Y-50234D01*
X49377Y-50401D01*
X49399Y-50575D01*
X49400Y-50600D01*
X49400Y-47600D02*
X49382Y-47774D01*
X49332Y-47942D01*
X49249Y-48098D01*
X49138Y-48234D01*
X49003Y-48346D01*
X48848Y-48429D01*
X48680Y-48481D01*
X48506Y-48499D01*
X48332Y-48484D01*
X48163Y-48434D01*
X48008Y-48353D01*
X47871Y-48243D01*
X47758Y-48108D01*
X47673Y-47954D01*
X47620Y-47787D01*
X47601Y-47612D01*
X47615Y-47438D01*
X47664Y-47269D01*
X47744Y-47113D01*
X47853Y-46975D01*
X47987Y-46861D01*
X48140Y-46776D01*
X48307Y-46721D01*
X48482Y-46701D01*
X48656Y-46714D01*
X48825Y-46761D01*
X48982Y-46841D01*
X49120Y-46949D01*
X49235Y-47082D01*
X49322Y-47234D01*
X49377Y-47401D01*
X49399Y-47575D01*
X49400Y-47600D01*
X49400Y-44600D02*
X49382Y-44774D01*
X49332Y-44942D01*
X49249Y-45098D01*
X49138Y-45234D01*
X49003Y-45346D01*
X48848Y-45429D01*
X48680Y-45481D01*
X48506Y-45499D01*
X48332Y-45484D01*
X48163Y-45434D01*
X48008Y-45353D01*
X47871Y-45243D01*
X47758Y-45108D01*
X47673Y-44954D01*
X47620Y-44787D01*
X47601Y-44612D01*
X47615Y-44438D01*
X47664Y-44269D01*
X47744Y-44113D01*
X47853Y-43975D01*
X47987Y-43861D01*
X48140Y-43776D01*
X48307Y-43721D01*
X48482Y-43701D01*
X48656Y-43714D01*
X48825Y-43761D01*
X48982Y-43841D01*
X49120Y-43949D01*
X49235Y-44082D01*
X49322Y-44234D01*
X49377Y-44401D01*
X49399Y-44575D01*
X49400Y-44600D01*
X49400Y-41600D02*
X49382Y-41774D01*
X49332Y-41942D01*
X49249Y-42098D01*
X49138Y-42234D01*
X49003Y-42346D01*
X48848Y-42429D01*
X48680Y-42481D01*
X48506Y-42499D01*
X48332Y-42484D01*
X48163Y-42434D01*
X48008Y-42353D01*
X47871Y-42243D01*
X47758Y-42108D01*
X47673Y-41954D01*
X47620Y-41787D01*
X47601Y-41612D01*
X47615Y-41438D01*
X47664Y-41269D01*
X47744Y-41113D01*
X47853Y-40975D01*
X47987Y-40861D01*
X48140Y-40776D01*
X48307Y-40721D01*
X48482Y-40701D01*
X48656Y-40714D01*
X48825Y-40761D01*
X48982Y-40841D01*
X49120Y-40949D01*
X49235Y-41082D01*
X49322Y-41234D01*
X49377Y-41401D01*
X49399Y-41575D01*
X49400Y-41600D01*
X56100Y-53600D02*
X56082Y-53774D01*
X56032Y-53942D01*
X55949Y-54098D01*
X55838Y-54234D01*
X55703Y-54346D01*
X55548Y-54429D01*
X55380Y-54481D01*
X55206Y-54499D01*
X55032Y-54484D01*
X54863Y-54434D01*
X54708Y-54353D01*
X54571Y-54243D01*
X54458Y-54108D01*
X54373Y-53954D01*
X54320Y-53787D01*
X54301Y-53612D01*
X54315Y-53438D01*
X54364Y-53269D01*
X54444Y-53113D01*
X54553Y-52975D01*
X54687Y-52861D01*
X54840Y-52776D01*
X55007Y-52721D01*
X55182Y-52701D01*
X55356Y-52714D01*
X55525Y-52761D01*
X55682Y-52841D01*
X55820Y-52949D01*
X55935Y-53082D01*
X56022Y-53234D01*
X56077Y-53401D01*
X56099Y-53575D01*
X56100Y-53600D01*
X56100Y-50600D02*
X56082Y-50774D01*
X56032Y-50942D01*
X55949Y-51098D01*
X55838Y-51234D01*
X55703Y-51346D01*
X55548Y-51429D01*
X55380Y-51481D01*
X55206Y-51499D01*
X55032Y-51484D01*
X54863Y-51434D01*
X54708Y-51353D01*
X54571Y-51243D01*
X54458Y-51108D01*
X54373Y-50954D01*
X54320Y-50787D01*
X54301Y-50612D01*
X54315Y-50438D01*
X54364Y-50269D01*
X54444Y-50113D01*
X54553Y-49975D01*
X54687Y-49861D01*
X54840Y-49776D01*
X55007Y-49721D01*
X55182Y-49701D01*
X55356Y-49714D01*
X55525Y-49761D01*
X55682Y-49841D01*
X55820Y-49949D01*
X55935Y-50082D01*
X56022Y-50234D01*
X56077Y-50401D01*
X56099Y-50575D01*
X56100Y-50600D01*
X56200Y-47600D02*
X56182Y-47774D01*
X56132Y-47942D01*
X56049Y-48098D01*
X55938Y-48234D01*
X55803Y-48346D01*
X55648Y-48429D01*
X55480Y-48481D01*
X55306Y-48499D01*
X55132Y-48484D01*
X54963Y-48434D01*
X54808Y-48353D01*
X54671Y-48243D01*
X54558Y-48108D01*
X54473Y-47954D01*
X54420Y-47787D01*
X54401Y-47612D01*
X54415Y-47438D01*
X54464Y-47269D01*
X54544Y-47113D01*
X54653Y-46975D01*
X54787Y-46861D01*
X54940Y-46776D01*
X55107Y-46721D01*
X55282Y-46701D01*
X55456Y-46714D01*
X55625Y-46761D01*
X55782Y-46841D01*
X55920Y-46949D01*
X56035Y-47082D01*
X56122Y-47234D01*
X56177Y-47401D01*
X56199Y-47575D01*
X56200Y-47600D01*
X56200Y-44600D02*
X56182Y-44774D01*
X56132Y-44942D01*
X56049Y-45098D01*
X55938Y-45234D01*
X55803Y-45346D01*
X55648Y-45429D01*
X55480Y-45481D01*
X55306Y-45499D01*
X55132Y-45484D01*
X54963Y-45434D01*
X54808Y-45353D01*
X54671Y-45243D01*
X54558Y-45108D01*
X54473Y-44954D01*
X54420Y-44787D01*
X54401Y-44612D01*
X54415Y-44438D01*
X54464Y-44269D01*
X54544Y-44113D01*
X54653Y-43975D01*
X54787Y-43861D01*
X54940Y-43776D01*
X55107Y-43721D01*
X55282Y-43701D01*
X55456Y-43714D01*
X55625Y-43761D01*
X55782Y-43841D01*
X55920Y-43949D01*
X56035Y-44082D01*
X56122Y-44234D01*
X56177Y-44401D01*
X56199Y-44575D01*
X56200Y-44600D01*
X56200Y-41600D02*
X56182Y-41774D01*
X56132Y-41942D01*
X56049Y-42098D01*
X55938Y-42234D01*
X55803Y-42346D01*
X55648Y-42429D01*
X55480Y-42481D01*
X55306Y-42499D01*
X55132Y-42484D01*
X54963Y-42434D01*
X54808Y-42353D01*
X54671Y-42243D01*
X54558Y-42108D01*
X54473Y-41954D01*
X54420Y-41787D01*
X54401Y-41612D01*
X54415Y-41438D01*
X54464Y-41269D01*
X54544Y-41113D01*
X54653Y-40975D01*
X54787Y-40861D01*
X54940Y-40776D01*
X55107Y-40721D01*
X55282Y-40701D01*
X55456Y-40714D01*
X55625Y-40761D01*
X55782Y-40841D01*
X55920Y-40949D01*
X56035Y-41082D01*
X56122Y-41234D01*
X56177Y-41401D01*
X56199Y-41575D01*
X56200Y-41600D01*
X62200Y-26000D02*
X62182Y-26174D01*
X62132Y-26342D01*
X62049Y-26498D01*
X61938Y-26634D01*
X61803Y-26746D01*
X61648Y-26829D01*
X61480Y-26881D01*
X61306Y-26899D01*
X61132Y-26884D01*
X60963Y-26834D01*
X60808Y-26753D01*
X60671Y-26643D01*
X60558Y-26508D01*
X60473Y-26354D01*
X60420Y-26187D01*
X60401Y-26012D01*
X60415Y-25838D01*
X60464Y-25669D01*
X60544Y-25513D01*
X60653Y-25375D01*
X60787Y-25261D01*
X60940Y-25176D01*
X61107Y-25121D01*
X61282Y-25101D01*
X61456Y-25114D01*
X61625Y-25161D01*
X61782Y-25241D01*
X61920Y-25349D01*
X62035Y-25482D01*
X62122Y-25634D01*
X62177Y-25801D01*
X62199Y-25975D01*
X62200Y-26000D01*
X62200Y-28400D02*
X62182Y-28574D01*
X62132Y-28742D01*
X62049Y-28898D01*
X61938Y-29034D01*
X61803Y-29146D01*
X61648Y-29229D01*
X61480Y-29281D01*
X61306Y-29299D01*
X61132Y-29284D01*
X60963Y-29234D01*
X60808Y-29153D01*
X60671Y-29043D01*
X60558Y-28908D01*
X60473Y-28754D01*
X60420Y-28587D01*
X60401Y-28412D01*
X60415Y-28238D01*
X60464Y-28069D01*
X60544Y-27913D01*
X60653Y-27775D01*
X60787Y-27661D01*
X60940Y-27576D01*
X61107Y-27521D01*
X61282Y-27501D01*
X61456Y-27514D01*
X61625Y-27561D01*
X61782Y-27641D01*
X61920Y-27749D01*
X62035Y-27882D01*
X62122Y-28034D01*
X62177Y-28201D01*
X62199Y-28375D01*
X62200Y-28400D01*
X62200Y-30800D02*
X62182Y-30974D01*
X62132Y-31142D01*
X62049Y-31298D01*
X61938Y-31434D01*
X61803Y-31546D01*
X61648Y-31629D01*
X61480Y-31681D01*
X61306Y-31699D01*
X61132Y-31684D01*
X60963Y-31634D01*
X60808Y-31553D01*
X60671Y-31443D01*
X60558Y-31308D01*
X60473Y-31154D01*
X60420Y-30987D01*
X60401Y-30812D01*
X60415Y-30638D01*
X60464Y-30469D01*
X60544Y-30313D01*
X60653Y-30175D01*
X60787Y-30061D01*
X60940Y-29976D01*
X61107Y-29921D01*
X61282Y-29901D01*
X61456Y-29914D01*
X61625Y-29961D01*
X61782Y-30041D01*
X61920Y-30149D01*
X62035Y-30282D01*
X62122Y-30434D01*
X62177Y-30601D01*
X62199Y-30775D01*
X62200Y-30800D01*
X62200Y-33800D02*
X62182Y-33974D01*
X62132Y-34142D01*
X62049Y-34298D01*
X61938Y-34434D01*
X61803Y-34546D01*
X61648Y-34629D01*
X61480Y-34681D01*
X61306Y-34699D01*
X61132Y-34684D01*
X60963Y-34634D01*
X60808Y-34553D01*
X60671Y-34443D01*
X60558Y-34308D01*
X60473Y-34154D01*
X60420Y-33987D01*
X60401Y-33812D01*
X60415Y-33638D01*
X60464Y-33469D01*
X60544Y-33313D01*
X60653Y-33175D01*
X60787Y-33061D01*
X60940Y-32976D01*
X61107Y-32921D01*
X61282Y-32901D01*
X61456Y-32914D01*
X61625Y-32961D01*
X61782Y-33041D01*
X61920Y-33149D01*
X62035Y-33282D01*
X62122Y-33434D01*
X62177Y-33601D01*
X62199Y-33775D01*
X62200Y-33800D01*
X62200Y-36800D02*
X62182Y-36974D01*
X62132Y-37142D01*
X62049Y-37298D01*
X61938Y-37434D01*
X61803Y-37546D01*
X61648Y-37629D01*
X61480Y-37681D01*
X61306Y-37699D01*
X61132Y-37684D01*
X60963Y-37634D01*
X60808Y-37553D01*
X60671Y-37443D01*
X60558Y-37308D01*
X60473Y-37154D01*
X60420Y-36987D01*
X60401Y-36812D01*
X60415Y-36638D01*
X60464Y-36469D01*
X60544Y-36313D01*
X60653Y-36175D01*
X60787Y-36061D01*
X60940Y-35976D01*
X61107Y-35921D01*
X61282Y-35901D01*
X61456Y-35914D01*
X61625Y-35961D01*
X61782Y-36041D01*
X61920Y-36149D01*
X62035Y-36282D01*
X62122Y-36434D01*
X62177Y-36601D01*
X62199Y-36775D01*
X62200Y-36800D01*
X43500Y-24000D02*
X43482Y-24174D01*
X43432Y-24342D01*
X43349Y-24498D01*
X43238Y-24634D01*
X43103Y-24746D01*
X42948Y-24829D01*
X42780Y-24881D01*
X42606Y-24899D01*
X42432Y-24884D01*
X42263Y-24834D01*
X42108Y-24753D01*
X41971Y-24643D01*
X41858Y-24508D01*
X41773Y-24354D01*
X41720Y-24187D01*
X41701Y-24012D01*
X41715Y-23838D01*
X41764Y-23669D01*
X41844Y-23513D01*
X41953Y-23375D01*
X42087Y-23261D01*
X42240Y-23176D01*
X42407Y-23121D01*
X42582Y-23101D01*
X42756Y-23114D01*
X42925Y-23161D01*
X43082Y-23241D01*
X43220Y-23349D01*
X43335Y-23482D01*
X43422Y-23634D01*
X43477Y-23801D01*
X43499Y-23975D01*
X43500Y-24000D01*
G54D12*
X44800Y-34780D02*
X44800Y-32800D01*
X44800Y-32800D02*
X45800Y-32800D01*
X45800Y-32800D02*
X45800Y-34800D01*
X45800Y-34800D02*
X44800Y-34800D01*
X45050Y-34800D02*
X44800Y-34550D01*
X49200Y-27280D02*
X49200Y-25300D01*
X49200Y-25300D02*
X50200Y-25300D01*
X50200Y-25300D02*
X50200Y-27300D01*
X50200Y-27300D02*
X49200Y-27300D01*
X49450Y-27300D02*
X49200Y-27050D01*
X48000Y-27280D02*
X48000Y-25300D01*
X48000Y-25300D02*
X49000Y-25300D01*
X49000Y-25300D02*
X49000Y-27300D01*
X49000Y-27300D02*
X48000Y-27300D01*
X48250Y-27300D02*
X48000Y-27050D01*
X47000Y-30620D02*
X47000Y-32600D01*
X47000Y-32600D02*
X46000Y-32600D01*
X46000Y-32600D02*
X46000Y-30600D01*
X46000Y-30600D02*
X47000Y-30600D01*
X46750Y-30600D02*
X47000Y-30850D01*
X46000Y-34780D02*
X46000Y-32800D01*
X46000Y-32800D02*
X47000Y-32800D01*
X47000Y-32800D02*
X47000Y-34800D01*
X47000Y-34800D02*
X46000Y-34800D01*
X46250Y-34800D02*
X46000Y-34550D01*
X46100Y-30080D02*
X46100Y-28100D01*
X46100Y-28100D02*
X47100Y-28100D01*
X47100Y-28100D02*
X47100Y-30100D01*
X47100Y-30100D02*
X46100Y-30100D01*
X46350Y-30100D02*
X46100Y-29850D01*
X44900Y-30080D02*
X44900Y-28100D01*
X44900Y-28100D02*
X45900Y-28100D01*
X45900Y-28100D02*
X45900Y-30100D01*
X45900Y-30100D02*
X44900Y-30100D01*
X45150Y-30100D02*
X44900Y-29850D01*
G54D13*
X53200Y-23800D02*
X53200Y-38800D01*
X53200Y-38800D02*
X51200Y-38800D01*
X51200Y-38800D02*
X51200Y-23800D01*
X51200Y-23800D02*
X53200Y-23800D01*
X52700Y-23800D02*
X52700Y-24300D01*
X52700Y-24300D02*
X51700Y-24300D01*
X51700Y-24300D02*
X51700Y-23800D01*
X47700Y-34500D02*
X48200Y-34500D01*
X47950Y-34750D02*
X47950Y-34300D01*
X50200Y-33800D02*
X50171Y-34091D01*
X50086Y-34371D01*
X49949Y-34630D01*
X49764Y-34856D01*
X49538Y-35043D01*
X49281Y-35182D01*
X49001Y-35269D01*
X48710Y-35299D01*
X48419Y-35273D01*
X48139Y-35190D01*
X47879Y-35055D01*
X47651Y-34871D01*
X47463Y-34647D01*
X47322Y-34390D01*
X47233Y-34111D01*
X47201Y-33820D01*
X47225Y-33530D01*
X47306Y-33248D01*
X47440Y-32988D01*
X47621Y-32759D01*
X47844Y-32569D01*
X48100Y-32426D01*
X48378Y-32335D01*
X48669Y-32301D01*
X48960Y-32323D01*
X49242Y-32402D01*
X49503Y-32534D01*
X49734Y-32714D01*
X49925Y-32936D01*
X50070Y-33190D01*
X50162Y-33468D01*
X50199Y-33759D01*
X50200Y-33800D01*
X39600Y-25200D02*
X39300Y-25200D01*
X39300Y-25200D02*
X39300Y-28600D01*
X39300Y-28600D02*
X39600Y-28600D01*
X40800Y-25200D02*
X40800Y-28600D01*
X44600Y-25200D02*
X44600Y-28600D01*
X39600Y-28600D02*
X44600Y-28600D01*
X39600Y-25200D02*
X44600Y-25200D01*
X39600Y-29900D02*
X39300Y-29900D01*
X39300Y-29900D02*
X39300Y-33300D01*
X39300Y-33300D02*
X39600Y-33300D01*
X40800Y-29900D02*
X40800Y-33300D01*
X44600Y-29900D02*
X44600Y-33300D01*
X39600Y-33300D02*
X44600Y-33300D01*
X39600Y-29900D02*
X44600Y-29900D01*
G54D14*
X55061Y-26839D02*
X55139Y-26839D01*
X55139Y-26839D02*
X55139Y-26761D01*
X55061Y-26761D02*
X55139Y-26761D01*
X55061Y-26839D02*
X55061Y-26761D01*
X55277Y-27075D02*
X55414Y-27075D01*
X55414Y-27075D02*
X55414Y-26977D01*
X55277Y-26977D02*
X55414Y-26977D01*
X55277Y-27075D02*
X55277Y-26977D01*
X55414Y-27075D02*
X55454Y-27075D01*
X55454Y-27075D02*
X55454Y-26604D01*
X55414Y-26604D02*
X55454Y-26604D01*
X55414Y-27075D02*
X55414Y-26604D01*
X55414Y-26584D02*
X55454Y-26584D01*
X55454Y-26584D02*
X55454Y-26525D01*
X55414Y-26525D02*
X55454Y-26525D01*
X55414Y-26584D02*
X55414Y-26525D01*
X54746Y-27075D02*
X54786Y-27075D01*
X54786Y-27075D02*
X54786Y-26604D01*
X54746Y-26604D02*
X54786Y-26604D01*
X54746Y-27075D02*
X54746Y-26604D01*
X54746Y-26584D02*
X54786Y-26584D01*
X54786Y-26584D02*
X54786Y-26525D01*
X54746Y-26525D02*
X54786Y-26525D01*
X54746Y-26584D02*
X54746Y-26525D01*
X55277Y-27075D02*
X55336Y-27075D01*
X55336Y-27075D02*
X55336Y-26977D01*
X55277Y-26977D02*
X55336Y-26977D01*
X55277Y-27075D02*
X55277Y-26977D01*
G54D15*
X55710Y-27095D02*
X54490Y-27095D01*
X54490Y-27095D02*
X54490Y-26505D01*
X54490Y-26505D02*
X55710Y-26505D01*
X55710Y-26505D02*
X55710Y-27095D01*
X54886Y-26996D02*
X54904Y-27014D01*
X54923Y-27030D01*
X54944Y-27045D01*
X54966Y-27057D01*
X54989Y-27068D01*
X55013Y-27077D01*
X55037Y-27083D01*
X55062Y-27088D01*
X55087Y-27090D01*
X55112Y-27090D01*
X55137Y-27088D01*
X55162Y-27084D01*
X55187Y-27077D01*
X55210Y-27069D01*
X55233Y-27058D01*
X55255Y-27045D01*
X55276Y-27031D01*
X55296Y-27014D01*
X55314Y-26996D01*
X55315Y-26995D01*
X54885Y-26605D02*
X54869Y-26624D01*
X54855Y-26645D01*
X54842Y-26667D01*
X54831Y-26690D01*
X54823Y-26714D01*
X54816Y-26739D01*
X54812Y-26764D01*
X54810Y-26789D01*
X54810Y-26813D01*
X54812Y-26838D01*
X54817Y-26863D01*
X54823Y-26888D01*
X54832Y-26912D01*
X54843Y-26935D01*
X54856Y-26957D01*
X54870Y-26977D01*
X54885Y-26995D01*
X55314Y-26604D02*
X55296Y-26586D01*
X55277Y-26570D01*
X55256Y-26555D01*
X55234Y-26543D01*
X55211Y-26532D01*
X55187Y-26523D01*
X55163Y-26517D01*
X55138Y-26512D01*
X55113Y-26510D01*
X55088Y-26510D01*
X55063Y-26512D01*
X55038Y-26516D01*
X55013Y-26523D01*
X54990Y-26531D01*
X54967Y-26542D01*
X54945Y-26555D01*
X54924Y-26569D01*
X54904Y-26586D01*
X54886Y-26604D01*
X54885Y-26605D01*
X55315Y-26995D02*
X55331Y-26976D01*
X55345Y-26955D01*
X55358Y-26933D01*
X55369Y-26910D01*
X55377Y-26886D01*
X55384Y-26861D01*
X55388Y-26836D01*
X55390Y-26811D01*
X55390Y-26787D01*
X55388Y-26762D01*
X55383Y-26737D01*
X55377Y-26712D01*
X55368Y-26688D01*
X55357Y-26665D01*
X55344Y-26643D01*
X55330Y-26623D01*
X55315Y-26605D01*
G54D14*
X55061Y-27939D02*
X55139Y-27939D01*
X55139Y-27939D02*
X55139Y-27861D01*
X55061Y-27861D02*
X55139Y-27861D01*
X55061Y-27939D02*
X55061Y-27861D01*
X55277Y-28175D02*
X55414Y-28175D01*
X55414Y-28175D02*
X55414Y-28077D01*
X55277Y-28077D02*
X55414Y-28077D01*
X55277Y-28175D02*
X55277Y-28077D01*
X55414Y-28175D02*
X55454Y-28175D01*
X55454Y-28175D02*
X55454Y-27704D01*
X55414Y-27704D02*
X55454Y-27704D01*
X55414Y-28175D02*
X55414Y-27704D01*
X55414Y-27684D02*
X55454Y-27684D01*
X55454Y-27684D02*
X55454Y-27625D01*
X55414Y-27625D02*
X55454Y-27625D01*
X55414Y-27684D02*
X55414Y-27625D01*
X54746Y-28175D02*
X54786Y-28175D01*
X54786Y-28175D02*
X54786Y-27704D01*
X54746Y-27704D02*
X54786Y-27704D01*
X54746Y-28175D02*
X54746Y-27704D01*
X54746Y-27684D02*
X54786Y-27684D01*
X54786Y-27684D02*
X54786Y-27625D01*
X54746Y-27625D02*
X54786Y-27625D01*
X54746Y-27684D02*
X54746Y-27625D01*
X55277Y-28175D02*
X55336Y-28175D01*
X55336Y-28175D02*
X55336Y-28077D01*
X55277Y-28077D02*
X55336Y-28077D01*
X55277Y-28175D02*
X55277Y-28077D01*
G54D15*
X55710Y-28195D02*
X54490Y-28195D01*
X54490Y-28195D02*
X54490Y-27605D01*
X54490Y-27605D02*
X55710Y-27605D01*
X55710Y-27605D02*
X55710Y-28195D01*
X54886Y-28096D02*
X54904Y-28114D01*
X54923Y-28130D01*
X54944Y-28145D01*
X54966Y-28157D01*
X54989Y-28168D01*
X55013Y-28177D01*
X55037Y-28183D01*
X55062Y-28188D01*
X55087Y-28190D01*
X55112Y-28190D01*
X55137Y-28188D01*
X55162Y-28184D01*
X55187Y-28177D01*
X55210Y-28169D01*
X55233Y-28158D01*
X55255Y-28145D01*
X55276Y-28131D01*
X55296Y-28114D01*
X55314Y-28096D01*
X55315Y-28095D01*
X54885Y-27705D02*
X54869Y-27724D01*
X54855Y-27745D01*
X54842Y-27767D01*
X54831Y-27790D01*
X54823Y-27814D01*
X54816Y-27839D01*
X54812Y-27864D01*
X54810Y-27889D01*
X54810Y-27913D01*
X54812Y-27938D01*
X54817Y-27963D01*
X54823Y-27988D01*
X54832Y-28012D01*
X54843Y-28035D01*
X54856Y-28057D01*
X54870Y-28077D01*
X54885Y-28095D01*
X55314Y-27704D02*
X55296Y-27686D01*
X55277Y-27670D01*
X55256Y-27655D01*
X55234Y-27643D01*
X55211Y-27632D01*
X55187Y-27623D01*
X55163Y-27617D01*
X55138Y-27612D01*
X55113Y-27610D01*
X55088Y-27610D01*
X55063Y-27612D01*
X55038Y-27616D01*
X55013Y-27623D01*
X54990Y-27631D01*
X54967Y-27642D01*
X54945Y-27655D01*
X54924Y-27669D01*
X54904Y-27686D01*
X54886Y-27704D01*
X54885Y-27705D01*
X55315Y-28095D02*
X55331Y-28076D01*
X55345Y-28055D01*
X55358Y-28033D01*
X55369Y-28010D01*
X55377Y-27986D01*
X55384Y-27961D01*
X55388Y-27936D01*
X55390Y-27911D01*
X55390Y-27887D01*
X55388Y-27862D01*
X55383Y-27837D01*
X55377Y-27812D01*
X55368Y-27788D01*
X55357Y-27765D01*
X55344Y-27743D01*
X55330Y-27723D01*
X55315Y-27705D01*
G54D14*
X55061Y-28939D02*
X55139Y-28939D01*
X55139Y-28939D02*
X55139Y-28861D01*
X55061Y-28861D02*
X55139Y-28861D01*
X55061Y-28939D02*
X55061Y-28861D01*
X55277Y-29175D02*
X55414Y-29175D01*
X55414Y-29175D02*
X55414Y-29077D01*
X55277Y-29077D02*
X55414Y-29077D01*
X55277Y-29175D02*
X55277Y-29077D01*
X55414Y-29175D02*
X55454Y-29175D01*
X55454Y-29175D02*
X55454Y-28704D01*
X55414Y-28704D02*
X55454Y-28704D01*
X55414Y-29175D02*
X55414Y-28704D01*
X55414Y-28684D02*
X55454Y-28684D01*
X55454Y-28684D02*
X55454Y-28625D01*
X55414Y-28625D02*
X55454Y-28625D01*
X55414Y-28684D02*
X55414Y-28625D01*
X54746Y-29175D02*
X54786Y-29175D01*
X54786Y-29175D02*
X54786Y-28704D01*
X54746Y-28704D02*
X54786Y-28704D01*
X54746Y-29175D02*
X54746Y-28704D01*
X54746Y-28684D02*
X54786Y-28684D01*
X54786Y-28684D02*
X54786Y-28625D01*
X54746Y-28625D02*
X54786Y-28625D01*
X54746Y-28684D02*
X54746Y-28625D01*
X55277Y-29175D02*
X55336Y-29175D01*
X55336Y-29175D02*
X55336Y-29077D01*
X55277Y-29077D02*
X55336Y-29077D01*
X55277Y-29175D02*
X55277Y-29077D01*
G54D15*
X55710Y-29195D02*
X54490Y-29195D01*
X54490Y-29195D02*
X54490Y-28605D01*
X54490Y-28605D02*
X55710Y-28605D01*
X55710Y-28605D02*
X55710Y-29195D01*
X54886Y-29096D02*
X54904Y-29114D01*
X54923Y-29130D01*
X54944Y-29145D01*
X54966Y-29157D01*
X54989Y-29168D01*
X55013Y-29177D01*
X55037Y-29183D01*
X55062Y-29188D01*
X55087Y-29190D01*
X55112Y-29190D01*
X55137Y-29188D01*
X55162Y-29184D01*
X55187Y-29177D01*
X55210Y-29169D01*
X55233Y-29158D01*
X55255Y-29145D01*
X55276Y-29131D01*
X55296Y-29114D01*
X55314Y-29096D01*
X55315Y-29095D01*
X54885Y-28705D02*
X54869Y-28724D01*
X54855Y-28745D01*
X54842Y-28767D01*
X54831Y-28790D01*
X54823Y-28814D01*
X54816Y-28839D01*
X54812Y-28864D01*
X54810Y-28889D01*
X54810Y-28913D01*
X54812Y-28938D01*
X54817Y-28963D01*
X54823Y-28988D01*
X54832Y-29012D01*
X54843Y-29035D01*
X54856Y-29057D01*
X54870Y-29077D01*
X54885Y-29095D01*
X55314Y-28704D02*
X55296Y-28686D01*
X55277Y-28670D01*
X55256Y-28655D01*
X55234Y-28643D01*
X55211Y-28632D01*
X55187Y-28623D01*
X55163Y-28617D01*
X55138Y-28612D01*
X55113Y-28610D01*
X55088Y-28610D01*
X55063Y-28612D01*
X55038Y-28616D01*
X55013Y-28623D01*
X54990Y-28631D01*
X54967Y-28642D01*
X54945Y-28655D01*
X54924Y-28669D01*
X54904Y-28686D01*
X54886Y-28704D01*
X54885Y-28705D01*
X55315Y-29095D02*
X55331Y-29076D01*
X55345Y-29055D01*
X55358Y-29033D01*
X55369Y-29010D01*
X55377Y-28986D01*
X55384Y-28961D01*
X55388Y-28936D01*
X55390Y-28911D01*
X55390Y-28887D01*
X55388Y-28862D01*
X55383Y-28837D01*
X55377Y-28812D01*
X55368Y-28788D01*
X55357Y-28765D01*
X55344Y-28743D01*
X55330Y-28723D01*
X55315Y-28705D01*
G54D14*
X55061Y-29839D02*
X55139Y-29839D01*
X55139Y-29839D02*
X55139Y-29761D01*
X55061Y-29761D02*
X55139Y-29761D01*
X55061Y-29839D02*
X55061Y-29761D01*
X55277Y-30075D02*
X55414Y-30075D01*
X55414Y-30075D02*
X55414Y-29977D01*
X55277Y-29977D02*
X55414Y-29977D01*
X55277Y-30075D02*
X55277Y-29977D01*
X55414Y-30075D02*
X55454Y-30075D01*
X55454Y-30075D02*
X55454Y-29604D01*
X55414Y-29604D02*
X55454Y-29604D01*
X55414Y-30075D02*
X55414Y-29604D01*
X55414Y-29584D02*
X55454Y-29584D01*
X55454Y-29584D02*
X55454Y-29525D01*
X55414Y-29525D02*
X55454Y-29525D01*
X55414Y-29584D02*
X55414Y-29525D01*
X54746Y-30075D02*
X54786Y-30075D01*
X54786Y-30075D02*
X54786Y-29604D01*
X54746Y-29604D02*
X54786Y-29604D01*
X54746Y-30075D02*
X54746Y-29604D01*
X54746Y-29584D02*
X54786Y-29584D01*
X54786Y-29584D02*
X54786Y-29525D01*
X54746Y-29525D02*
X54786Y-29525D01*
X54746Y-29584D02*
X54746Y-29525D01*
X55277Y-30075D02*
X55336Y-30075D01*
X55336Y-30075D02*
X55336Y-29977D01*
X55277Y-29977D02*
X55336Y-29977D01*
X55277Y-30075D02*
X55277Y-29977D01*
G54D15*
X55710Y-30095D02*
X54490Y-30095D01*
X54490Y-30095D02*
X54490Y-29505D01*
X54490Y-29505D02*
X55710Y-29505D01*
X55710Y-29505D02*
X55710Y-30095D01*
X54886Y-29996D02*
X54904Y-30014D01*
X54923Y-30030D01*
X54944Y-30045D01*
X54966Y-30057D01*
X54989Y-30068D01*
X55013Y-30077D01*
X55037Y-30083D01*
X55062Y-30088D01*
X55087Y-30090D01*
X55112Y-30090D01*
X55137Y-30088D01*
X55162Y-30084D01*
X55187Y-30077D01*
X55210Y-30069D01*
X55233Y-30058D01*
X55255Y-30045D01*
X55276Y-30031D01*
X55296Y-30014D01*
X55314Y-29996D01*
X55315Y-29995D01*
X54885Y-29605D02*
X54869Y-29624D01*
X54855Y-29645D01*
X54842Y-29667D01*
X54831Y-29690D01*
X54823Y-29714D01*
X54816Y-29739D01*
X54812Y-29764D01*
X54810Y-29789D01*
X54810Y-29813D01*
X54812Y-29838D01*
X54817Y-29863D01*
X54823Y-29888D01*
X54832Y-29912D01*
X54843Y-29935D01*
X54856Y-29957D01*
X54870Y-29977D01*
X54885Y-29995D01*
X55314Y-29604D02*
X55296Y-29586D01*
X55277Y-29570D01*
X55256Y-29555D01*
X55234Y-29543D01*
X55211Y-29532D01*
X55187Y-29523D01*
X55163Y-29517D01*
X55138Y-29512D01*
X55113Y-29510D01*
X55088Y-29510D01*
X55063Y-29512D01*
X55038Y-29516D01*
X55013Y-29523D01*
X54990Y-29531D01*
X54967Y-29542D01*
X54945Y-29555D01*
X54924Y-29569D01*
X54904Y-29586D01*
X54886Y-29604D01*
X54885Y-29605D01*
X55315Y-29995D02*
X55331Y-29976D01*
X55345Y-29955D01*
X55358Y-29933D01*
X55369Y-29910D01*
X55377Y-29886D01*
X55384Y-29861D01*
X55388Y-29836D01*
X55390Y-29811D01*
X55390Y-29787D01*
X55388Y-29762D01*
X55383Y-29737D01*
X55377Y-29712D01*
X55368Y-29688D01*
X55357Y-29665D01*
X55344Y-29643D01*
X55330Y-29623D01*
X55315Y-29605D01*
G54D14*
X48861Y-28761D02*
X48861Y-28839D01*
X48861Y-28839D02*
X48939Y-28839D01*
X48939Y-28761D02*
X48939Y-28839D01*
X48861Y-28761D02*
X48939Y-28761D01*
X48625Y-28977D02*
X48625Y-29114D01*
X48625Y-29114D02*
X48723Y-29114D01*
X48723Y-28977D02*
X48723Y-29114D01*
X48625Y-28977D02*
X48723Y-28977D01*
X48625Y-29114D02*
X48625Y-29154D01*
X48625Y-29154D02*
X49096Y-29154D01*
X49096Y-29114D02*
X49096Y-29154D01*
X48625Y-29114D02*
X49096Y-29114D01*
X49116Y-29114D02*
X49116Y-29154D01*
X49116Y-29154D02*
X49175Y-29154D01*
X49175Y-29114D02*
X49175Y-29154D01*
X49116Y-29114D02*
X49175Y-29114D01*
X48625Y-28446D02*
X48625Y-28486D01*
X48625Y-28486D02*
X49096Y-28486D01*
X49096Y-28446D02*
X49096Y-28486D01*
X48625Y-28446D02*
X49096Y-28446D01*
X49116Y-28446D02*
X49116Y-28486D01*
X49116Y-28486D02*
X49175Y-28486D01*
X49175Y-28446D02*
X49175Y-28486D01*
X49116Y-28446D02*
X49175Y-28446D01*
X48625Y-28977D02*
X48625Y-29036D01*
X48625Y-29036D02*
X48723Y-29036D01*
X48723Y-28977D02*
X48723Y-29036D01*
X48625Y-28977D02*
X48723Y-28977D01*
G54D15*
X48605Y-29410D02*
X48605Y-28190D01*
X48605Y-28190D02*
X49195Y-28190D01*
X49195Y-28190D02*
X49195Y-29410D01*
X49195Y-29410D02*
X48605Y-29410D01*
X48704Y-28586D02*
X48686Y-28604D01*
X48670Y-28623D01*
X48655Y-28644D01*
X48643Y-28666D01*
X48632Y-28689D01*
X48623Y-28713D01*
X48617Y-28737D01*
X48612Y-28762D01*
X48610Y-28787D01*
X48610Y-28812D01*
X48612Y-28837D01*
X48616Y-28862D01*
X48623Y-28887D01*
X48631Y-28910D01*
X48642Y-28933D01*
X48655Y-28955D01*
X48669Y-28976D01*
X48686Y-28996D01*
X48704Y-29014D01*
X48705Y-29015D01*
X49095Y-28585D02*
X49076Y-28569D01*
X49055Y-28555D01*
X49033Y-28542D01*
X49010Y-28531D01*
X48986Y-28523D01*
X48961Y-28516D01*
X48936Y-28512D01*
X48911Y-28510D01*
X48887Y-28510D01*
X48862Y-28512D01*
X48837Y-28517D01*
X48812Y-28523D01*
X48788Y-28532D01*
X48765Y-28543D01*
X48743Y-28556D01*
X48723Y-28570D01*
X48705Y-28585D01*
X49096Y-29014D02*
X49114Y-28996D01*
X49130Y-28977D01*
X49145Y-28956D01*
X49157Y-28934D01*
X49168Y-28911D01*
X49177Y-28887D01*
X49183Y-28863D01*
X49188Y-28838D01*
X49190Y-28813D01*
X49190Y-28788D01*
X49188Y-28763D01*
X49184Y-28738D01*
X49177Y-28713D01*
X49169Y-28690D01*
X49158Y-28667D01*
X49145Y-28645D01*
X49131Y-28624D01*
X49114Y-28604D01*
X49096Y-28586D01*
X49095Y-28585D01*
X48705Y-29015D02*
X48724Y-29031D01*
X48745Y-29045D01*
X48767Y-29058D01*
X48790Y-29069D01*
X48814Y-29077D01*
X48839Y-29084D01*
X48864Y-29088D01*
X48889Y-29090D01*
X48913Y-29090D01*
X48938Y-29088D01*
X48963Y-29083D01*
X48988Y-29077D01*
X49012Y-29068D01*
X49035Y-29057D01*
X49057Y-29044D01*
X49077Y-29030D01*
X49095Y-29015D01*
G54D16*
X47550Y-24050D02*
X47800Y-24050D01*
X47800Y-24050D02*
X47800Y-27550D01*
X47800Y-27550D02*
X47550Y-27550D01*
X46050Y-24050D02*
X47550Y-24050D01*
X47550Y-24050D02*
X47550Y-27550D01*
X47550Y-27550D02*
X46050Y-27550D01*
X46050Y-27550D02*
X46050Y-24050D01*
G54D17*
X39300Y-46900D02*
X39300Y-52900D01*
X39300Y-52900D02*
X46400Y-52900D01*
X46400Y-52900D02*
X46400Y-46900D01*
X46400Y-46900D02*
X39300Y-46900D01*
X39300Y-40400D02*
X39300Y-46400D01*
X39300Y-46400D02*
X46400Y-46400D01*
X46400Y-46400D02*
X46400Y-40400D01*
X46400Y-40400D02*
X39300Y-40400D01*
G54D18*
X54300Y-25300D02*
X55300Y-25300D01*
X54300Y-24300D02*
X55300Y-24300D01*
G54D12*
X54300Y-25300D02*
X54300Y-24300D01*
X55300Y-24300D02*
X55300Y-25300D01*
G54D18*
X54300Y-26300D02*
X55300Y-26300D01*
X54300Y-25300D02*
X55300Y-25300D01*
G54D12*
X54300Y-26300D02*
X54300Y-25300D01*
X55300Y-25300D02*
X55300Y-26300D01*
G54D18*
X54300Y-35300D02*
X55300Y-35300D01*
X54300Y-34300D02*
X55300Y-34300D01*
G54D12*
X54300Y-35300D02*
X54300Y-34300D01*
X55300Y-34300D02*
X55300Y-35300D01*
G54D18*
X51200Y-38300D02*
X52200Y-38300D01*
X51200Y-37300D02*
X52200Y-37300D01*
G54D12*
X51200Y-38300D02*
X51200Y-37300D01*
X52200Y-37300D02*
X52200Y-38300D01*
G54D18*
X49100Y-32100D02*
X50100Y-32100D01*
X49100Y-31100D02*
X50100Y-31100D01*
G54D12*
X49100Y-32100D02*
X49100Y-31100D01*
X50100Y-31100D02*
X50100Y-32100D01*
G54D18*
X57500Y-26900D02*
X58500Y-26900D01*
X57500Y-25900D02*
X58500Y-25900D01*
G54D12*
X57500Y-26900D02*
X57500Y-25900D01*
X58500Y-25900D02*
X58500Y-26900D01*
G54D17*
X41150Y-39050D02*
X41149Y-39059D01*
X41146Y-39069D01*
X41141Y-39077D01*
X41135Y-39085D01*
X41127Y-39091D01*
X41119Y-39096D01*
X41110Y-39098D01*
X41100Y-39099D01*
X41091Y-39099D01*
X41082Y-39096D01*
X41073Y-39091D01*
X41066Y-39085D01*
X41059Y-39078D01*
X41055Y-39069D01*
X41052Y-39060D01*
X41051Y-39050D01*
X41051Y-39041D01*
X41054Y-39032D01*
X41058Y-39023D01*
X41065Y-39016D01*
X41072Y-39009D01*
X41080Y-39005D01*
X41090Y-39002D01*
X41099Y-39001D01*
X41108Y-39001D01*
X41118Y-39004D01*
X41126Y-39008D01*
X41134Y-39014D01*
X41140Y-39022D01*
X41145Y-39030D01*
X41148Y-39039D01*
X41149Y-39049D01*
X41150Y-39050D01*
X41100Y-38600D02*
X41100Y-39000D01*
X41100Y-39000D02*
X40500Y-39000D01*
X40500Y-39000D02*
X40500Y-38600D01*
X40500Y-38200D02*
X40500Y-37800D01*
X40500Y-37800D02*
X41100Y-37800D01*
X41100Y-37800D02*
X41100Y-38200D01*
X50050Y-29450D02*
X50049Y-29459D01*
X50046Y-29469D01*
X50041Y-29477D01*
X50035Y-29485D01*
X50027Y-29491D01*
X50019Y-29496D01*
X50010Y-29498D01*
X50000Y-29499D01*
X49991Y-29499D01*
X49982Y-29496D01*
X49973Y-29491D01*
X49966Y-29485D01*
X49959Y-29478D01*
X49955Y-29469D01*
X49952Y-29460D01*
X49951Y-29450D01*
X49951Y-29441D01*
X49954Y-29432D01*
X49958Y-29423D01*
X49965Y-29416D01*
X49972Y-29409D01*
X49980Y-29405D01*
X49990Y-29402D01*
X49999Y-29401D01*
X50008Y-29401D01*
X50018Y-29404D01*
X50026Y-29408D01*
X50034Y-29414D01*
X50040Y-29422D01*
X50045Y-29430D01*
X50048Y-29439D01*
X50049Y-29449D01*
X50050Y-29450D01*
X50000Y-29000D02*
X50000Y-29400D01*
X50000Y-29400D02*
X49400Y-29400D01*
X49400Y-29400D02*
X49400Y-29000D01*
X49400Y-28600D02*
X49400Y-28200D01*
X49400Y-28200D02*
X50000Y-28200D01*
X50000Y-28200D02*
X50000Y-28600D01*
X49300Y-30850D02*
X49300Y-29950D01*
X49300Y-29950D02*
X48650Y-29950D01*
X47950Y-30850D02*
X47300Y-30850D01*
X47300Y-30850D02*
X47300Y-29950D01*
X47300Y-29950D02*
X47950Y-29950D01*
X48650Y-30850D02*
X49300Y-30850D01*
G54D16*
X49300Y-38600D02*
X48800Y-38600D01*
X48800Y-38600D02*
X48800Y-37600D01*
X48800Y-37600D02*
X49300Y-37600D01*
X49300Y-39100D02*
X45300Y-39100D01*
X45300Y-39100D02*
X45300Y-37100D01*
X45300Y-37100D02*
X49300Y-37100D01*
X49300Y-37100D02*
X49300Y-39100D01*
G54D13*
X52600Y-39600D02*
X52600Y-54600D01*
X52600Y-54600D02*
X50600Y-54600D01*
X50600Y-54600D02*
X50600Y-39600D01*
X50600Y-39600D02*
X52600Y-39600D01*
X52100Y-39600D02*
X52100Y-40100D01*
X52100Y-40100D02*
X51100Y-40100D01*
X51100Y-40100D02*
X51100Y-39600D01*
X59400Y-39600D02*
X59400Y-54600D01*
X59400Y-54600D02*
X57400Y-54600D01*
X57400Y-54600D02*
X57400Y-39600D01*
X57400Y-39600D02*
X59400Y-39600D01*
X58900Y-39600D02*
X58900Y-40100D01*
X58900Y-40100D02*
X57900Y-40100D01*
X57900Y-40100D02*
X57900Y-39600D01*
X57400Y-38800D02*
X57400Y-23800D01*
X57400Y-23800D02*
X59400Y-23800D01*
X59400Y-23800D02*
X59400Y-38800D01*
X59400Y-38800D02*
X57400Y-38800D01*
X57900Y-38800D02*
X57900Y-38300D01*
X57900Y-38300D02*
X58900Y-38300D01*
X58900Y-38300D02*
X58900Y-38800D01*
X62300Y-54100D02*
X62282Y-54274D01*
X62232Y-54442D01*
X62149Y-54598D01*
X62038Y-54734D01*
X61903Y-54846D01*
X61748Y-54929D01*
X61580Y-54981D01*
X61406Y-54999D01*
X61232Y-54984D01*
X61063Y-54934D01*
X60908Y-54853D01*
X60771Y-54743D01*
X60658Y-54608D01*
X60573Y-54454D01*
X60520Y-54287D01*
X60501Y-54112D01*
X60515Y-53938D01*
X60564Y-53769D01*
X60644Y-53613D01*
X60753Y-53475D01*
X60887Y-53361D01*
X61040Y-53276D01*
X61207Y-53221D01*
X61382Y-53201D01*
X61556Y-53214D01*
X61725Y-53261D01*
X61882Y-53341D01*
X62020Y-53449D01*
X62135Y-53582D01*
X62222Y-53734D01*
X62277Y-53901D01*
X62299Y-54075D01*
X62300Y-54100D01*
X41100Y-54100D02*
X41082Y-54274D01*
X41032Y-54442D01*
X40949Y-54598D01*
X40838Y-54734D01*
X40703Y-54846D01*
X40548Y-54929D01*
X40380Y-54981D01*
X40206Y-54999D01*
X40032Y-54984D01*
X39863Y-54934D01*
X39708Y-54853D01*
X39571Y-54743D01*
X39458Y-54608D01*
X39373Y-54454D01*
X39320Y-54287D01*
X39301Y-54112D01*
X39315Y-53938D01*
X39364Y-53769D01*
X39444Y-53613D01*
X39553Y-53475D01*
X39687Y-53361D01*
X39840Y-53276D01*
X40007Y-53221D01*
X40182Y-53201D01*
X40356Y-53214D01*
X40525Y-53261D01*
X40682Y-53341D01*
X40820Y-53449D01*
X40935Y-53582D01*
X41022Y-53734D01*
X41077Y-53901D01*
X41099Y-54075D01*
X41100Y-54100D01*
X62300Y-24000D02*
X62282Y-24174D01*
X62232Y-24342D01*
X62149Y-24498D01*
X62038Y-24634D01*
X61903Y-24746D01*
X61748Y-24829D01*
X61580Y-24881D01*
X61406Y-24899D01*
X61232Y-24884D01*
X61063Y-24834D01*
X60908Y-24753D01*
X60771Y-24643D01*
X60658Y-24508D01*
X60573Y-24354D01*
X60520Y-24187D01*
X60501Y-24012D01*
X60515Y-23838D01*
X60564Y-23669D01*
X60644Y-23513D01*
X60753Y-23375D01*
X60887Y-23261D01*
X61040Y-23176D01*
X61207Y-23121D01*
X61382Y-23101D01*
X61556Y-23114D01*
X61725Y-23161D01*
X61882Y-23241D01*
X62020Y-23349D01*
X62135Y-23482D01*
X62222Y-23634D01*
X62277Y-23801D01*
X62299Y-23975D01*
X62300Y-24000D01*
X41100Y-24000D02*
X41082Y-24174D01*
X41032Y-24342D01*
X40949Y-24498D01*
X40838Y-24634D01*
X40703Y-24746D01*
X40548Y-24829D01*
X40380Y-24881D01*
X40206Y-24899D01*
X40032Y-24884D01*
X39863Y-24834D01*
X39708Y-24753D01*
X39571Y-24643D01*
X39458Y-24508D01*
X39373Y-24354D01*
X39320Y-24187D01*
X39301Y-24012D01*
X39315Y-23838D01*
X39364Y-23669D01*
X39444Y-23513D01*
X39553Y-23375D01*
X39687Y-23261D01*
X39840Y-23176D01*
X40007Y-23121D01*
X40182Y-23101D01*
X40356Y-23114D01*
X40525Y-23161D01*
X40682Y-23241D01*
X40820Y-23349D01*
X40935Y-23482D01*
X41022Y-23634D01*
X41077Y-23801D01*
X41099Y-23975D01*
X41100Y-24000D01*
G54D11*
X39707Y-40500D02*
X39721Y-40457D01*
X39721Y-40386D01*
X39707Y-40357D01*
X39693Y-40343D01*
X39664Y-40328D01*
X39636Y-40328D01*
X39607Y-40343D01*
X39593Y-40357D01*
X39579Y-40386D01*
X39564Y-40443D01*
X39550Y-40471D01*
X39536Y-40486D01*
X39507Y-40500D01*
X39479Y-40500D01*
X39450Y-40486D01*
X39436Y-40471D01*
X39421Y-40443D01*
X39421Y-40371D01*
X39436Y-40328D01*
X39421Y-40228D02*
X39721Y-40157D01*
X39507Y-40100D01*
X39721Y-40042D01*
X39421Y-39971D01*
X39721Y-39699D02*
X39721Y-39871D01*
X39721Y-39785D02*
X39421Y-39785D01*
X39464Y-39814D01*
X39493Y-39842D01*
X39507Y-39871D01*
X40107Y-41679D02*
X40121Y-41636D01*
X40121Y-41565D01*
X40107Y-41536D01*
X40093Y-41522D01*
X40064Y-41507D01*
X40036Y-41507D01*
X40007Y-41522D01*
X39993Y-41536D01*
X39979Y-41565D01*
X39964Y-41622D01*
X39950Y-41650D01*
X39936Y-41665D01*
X39907Y-41679D01*
X39879Y-41679D01*
X39850Y-41665D01*
X39836Y-41650D01*
X39821Y-41622D01*
X39821Y-41550D01*
X39836Y-41507D01*
X39821Y-41407D02*
X40121Y-41336D01*
X39907Y-41279D01*
X40121Y-41221D01*
X39821Y-41150D01*
X40150Y-41107D02*
X40150Y-40878D01*
X40121Y-40807D02*
X39821Y-40807D01*
X39821Y-40692D01*
X39836Y-40664D01*
X39850Y-40649D01*
X39879Y-40635D01*
X39921Y-40635D01*
X39950Y-40649D01*
X39964Y-40664D01*
X39979Y-40692D01*
X39979Y-40807D01*
X39821Y-40507D02*
X40064Y-40507D01*
X40093Y-40492D01*
X40107Y-40478D01*
X40121Y-40449D01*
X40121Y-40392D01*
X40107Y-40364D01*
X40093Y-40349D01*
X40064Y-40335D01*
X39821Y-40335D01*
X40107Y-40207D02*
X40121Y-40164D01*
X40121Y-40093D01*
X40107Y-40064D01*
X40093Y-40050D01*
X40064Y-40035D01*
X40036Y-40035D01*
X40007Y-40050D01*
X39993Y-40064D01*
X39979Y-40093D01*
X39964Y-40150D01*
X39950Y-40178D01*
X39936Y-40193D01*
X39907Y-40207D01*
X39879Y-40207D01*
X39850Y-40193D01*
X39836Y-40178D01*
X39821Y-40150D01*
X39821Y-40078D01*
X39836Y-40035D01*
X40121Y-39907D02*
X39821Y-39907D01*
X39964Y-39907D02*
X39964Y-39735D01*
X40121Y-39735D02*
X39821Y-39735D01*
X43243Y-36921D02*
X43243Y-36621D01*
X43358Y-36621D01*
X43386Y-36636D01*
X43401Y-36650D01*
X43415Y-36679D01*
X43415Y-36721D01*
X43401Y-36750D01*
X43386Y-36764D01*
X43358Y-36779D01*
X43243Y-36779D01*
X43686Y-36921D02*
X43543Y-36921D01*
X43543Y-36621D01*
X43786Y-36764D02*
X43886Y-36764D01*
X43929Y-36921D02*
X43786Y-36921D01*
X43786Y-36621D01*
X43929Y-36621D01*
X44057Y-36921D02*
X44057Y-36621D01*
X44129Y-36621D01*
X44172Y-36636D01*
X44200Y-36664D01*
X44215Y-36693D01*
X44229Y-36750D01*
X44229Y-36793D01*
X44215Y-36850D01*
X44200Y-36879D01*
X44172Y-36907D01*
X44129Y-36921D01*
X44057Y-36921D01*
X44315Y-36621D02*
X44415Y-36921D01*
X44515Y-36621D01*
X44786Y-36893D02*
X44772Y-36907D01*
X44729Y-36921D01*
X44700Y-36921D01*
X44657Y-36907D01*
X44629Y-36879D01*
X44614Y-36850D01*
X44600Y-36793D01*
X44600Y-36750D01*
X44614Y-36693D01*
X44629Y-36664D01*
X44657Y-36636D01*
X44700Y-36621D01*
X44729Y-36621D01*
X44772Y-36636D01*
X44786Y-36650D01*
X45086Y-36893D02*
X45072Y-36907D01*
X45029Y-36921D01*
X45000Y-36921D01*
X44957Y-36907D01*
X44929Y-36879D01*
X44914Y-36850D01*
X44900Y-36793D01*
X44900Y-36750D01*
X44914Y-36693D01*
X44929Y-36664D01*
X44957Y-36636D01*
X45000Y-36621D01*
X45029Y-36621D01*
X45072Y-36636D01*
X45086Y-36650D01*
X45343Y-36721D02*
X45343Y-36921D01*
X45272Y-36607D02*
X45200Y-36821D01*
X45386Y-36821D01*
X41143Y-38721D02*
X41143Y-38421D01*
X41258Y-38421D01*
X41286Y-38436D01*
X41301Y-38450D01*
X41315Y-38479D01*
X41315Y-38521D01*
X41301Y-38550D01*
X41286Y-38564D01*
X41258Y-38579D01*
X41143Y-38579D01*
X41586Y-38721D02*
X41443Y-38721D01*
X41443Y-38421D01*
X41686Y-38564D02*
X41786Y-38564D01*
X41829Y-38721D02*
X41686Y-38721D01*
X41686Y-38421D01*
X41829Y-38421D01*
X41957Y-38721D02*
X41957Y-38421D01*
X42029Y-38421D01*
X42072Y-38436D01*
X42100Y-38464D01*
X42115Y-38493D01*
X42129Y-38550D01*
X42129Y-38593D01*
X42115Y-38650D01*
X42100Y-38679D01*
X42072Y-38707D01*
X42029Y-38721D01*
X41957Y-38721D01*
X42215Y-38421D02*
X42315Y-38721D01*
X42415Y-38421D01*
X42686Y-38693D02*
X42672Y-38707D01*
X42629Y-38721D01*
X42600Y-38721D01*
X42557Y-38707D01*
X42529Y-38679D01*
X42514Y-38650D01*
X42500Y-38593D01*
X42500Y-38550D01*
X42514Y-38493D01*
X42529Y-38464D01*
X42557Y-38436D01*
X42600Y-38421D01*
X42629Y-38421D01*
X42672Y-38436D01*
X42686Y-38450D01*
X42986Y-38693D02*
X42972Y-38707D01*
X42929Y-38721D01*
X42900Y-38721D01*
X42857Y-38707D01*
X42829Y-38679D01*
X42814Y-38650D01*
X42800Y-38593D01*
X42800Y-38550D01*
X42814Y-38493D01*
X42829Y-38464D01*
X42857Y-38436D01*
X42900Y-38421D01*
X42929Y-38421D01*
X42972Y-38436D01*
X42986Y-38450D01*
X43086Y-38421D02*
X43272Y-38421D01*
X43172Y-38536D01*
X43214Y-38536D01*
X43243Y-38550D01*
X43257Y-38564D01*
X43272Y-38593D01*
X43272Y-38664D01*
X43257Y-38693D01*
X43243Y-38707D01*
X43214Y-38721D01*
X43129Y-38721D01*
X43100Y-38707D01*
X43086Y-38693D01*
X41143Y-36621D02*
X41143Y-36321D01*
X41258Y-36321D01*
X41286Y-36336D01*
X41301Y-36350D01*
X41315Y-36379D01*
X41315Y-36421D01*
X41301Y-36450D01*
X41286Y-36464D01*
X41258Y-36479D01*
X41143Y-36479D01*
X41586Y-36621D02*
X41443Y-36621D01*
X41443Y-36321D01*
X41686Y-36464D02*
X41786Y-36464D01*
X41829Y-36621D02*
X41686Y-36621D01*
X41686Y-36321D01*
X41829Y-36321D01*
X41957Y-36621D02*
X41957Y-36321D01*
X42029Y-36321D01*
X42072Y-36336D01*
X42100Y-36364D01*
X42115Y-36393D01*
X42129Y-36450D01*
X42129Y-36493D01*
X42115Y-36550D01*
X42100Y-36579D01*
X42072Y-36607D01*
X42029Y-36621D01*
X41957Y-36621D01*
X42215Y-36321D02*
X42315Y-36621D01*
X42415Y-36321D01*
X42686Y-36593D02*
X42672Y-36607D01*
X42629Y-36621D01*
X42600Y-36621D01*
X42557Y-36607D01*
X42529Y-36579D01*
X42514Y-36550D01*
X42500Y-36493D01*
X42500Y-36450D01*
X42514Y-36393D01*
X42529Y-36364D01*
X42557Y-36336D01*
X42600Y-36321D01*
X42629Y-36321D01*
X42672Y-36336D01*
X42686Y-36350D01*
X42986Y-36593D02*
X42972Y-36607D01*
X42929Y-36621D01*
X42900Y-36621D01*
X42857Y-36607D01*
X42829Y-36579D01*
X42814Y-36550D01*
X42800Y-36493D01*
X42800Y-36450D01*
X42814Y-36393D01*
X42829Y-36364D01*
X42857Y-36336D01*
X42900Y-36321D01*
X42929Y-36321D01*
X42972Y-36336D01*
X42986Y-36350D01*
X43100Y-36350D02*
X43114Y-36336D01*
X43143Y-36321D01*
X43214Y-36321D01*
X43243Y-36336D01*
X43257Y-36350D01*
X43272Y-36379D01*
X43272Y-36407D01*
X43257Y-36450D01*
X43086Y-36621D01*
X43272Y-36621D01*
X39443Y-33721D02*
X39443Y-33421D01*
X39558Y-33421D01*
X39586Y-33436D01*
X39601Y-33450D01*
X39615Y-33479D01*
X39615Y-33521D01*
X39601Y-33550D01*
X39586Y-33564D01*
X39558Y-33579D01*
X39443Y-33579D01*
X39886Y-33721D02*
X39743Y-33721D01*
X39743Y-33421D01*
X39986Y-33564D02*
X40086Y-33564D01*
X40129Y-33721D02*
X39986Y-33721D01*
X39986Y-33421D01*
X40129Y-33421D01*
X40257Y-33721D02*
X40257Y-33421D01*
X40329Y-33421D01*
X40372Y-33436D01*
X40400Y-33464D01*
X40415Y-33493D01*
X40429Y-33550D01*
X40429Y-33593D01*
X40415Y-33650D01*
X40400Y-33679D01*
X40372Y-33707D01*
X40329Y-33721D01*
X40257Y-33721D01*
X40515Y-33421D02*
X40615Y-33721D01*
X40715Y-33421D01*
X40986Y-33693D02*
X40972Y-33707D01*
X40929Y-33721D01*
X40900Y-33721D01*
X40857Y-33707D01*
X40829Y-33679D01*
X40814Y-33650D01*
X40800Y-33593D01*
X40800Y-33550D01*
X40814Y-33493D01*
X40829Y-33464D01*
X40857Y-33436D01*
X40900Y-33421D01*
X40929Y-33421D01*
X40972Y-33436D01*
X40986Y-33450D01*
X41286Y-33693D02*
X41272Y-33707D01*
X41229Y-33721D01*
X41200Y-33721D01*
X41157Y-33707D01*
X41129Y-33679D01*
X41114Y-33650D01*
X41100Y-33593D01*
X41100Y-33550D01*
X41114Y-33493D01*
X41129Y-33464D01*
X41157Y-33436D01*
X41200Y-33421D01*
X41229Y-33421D01*
X41272Y-33436D01*
X41286Y-33450D01*
X41572Y-33721D02*
X41400Y-33721D01*
X41486Y-33721D02*
X41486Y-33421D01*
X41457Y-33464D01*
X41429Y-33493D01*
X41400Y-33507D01*
G54D16*
X47462Y-52562D02*
X47462Y-52162D01*
X47615Y-52162D01*
X47653Y-52181D01*
X47672Y-52200D01*
X47691Y-52238D01*
X47691Y-52295D01*
X47672Y-52333D01*
X47653Y-52352D01*
X47615Y-52371D01*
X47462Y-52371D01*
X48053Y-52562D02*
X47862Y-52562D01*
X47862Y-52162D01*
X48186Y-52352D02*
X48320Y-52352D01*
X48377Y-52562D02*
X48186Y-52562D01*
X48186Y-52162D01*
X48377Y-52162D01*
X48548Y-52562D02*
X48548Y-52162D01*
X48643Y-52162D01*
X48701Y-52181D01*
X48739Y-52219D01*
X48758Y-52257D01*
X48777Y-52333D01*
X48777Y-52390D01*
X48758Y-52467D01*
X48739Y-52505D01*
X48701Y-52543D01*
X48643Y-52562D01*
X48548Y-52562D01*
X49177Y-52562D02*
X49043Y-52371D01*
X48948Y-52562D02*
X48948Y-52162D01*
X49101Y-52162D01*
X49139Y-52181D01*
X49158Y-52200D01*
X49177Y-52238D01*
X49177Y-52295D01*
X49158Y-52333D01*
X49139Y-52352D01*
X49101Y-52371D01*
X48948Y-52371D01*
X49520Y-52295D02*
X49520Y-52562D01*
X49424Y-52143D02*
X49329Y-52429D01*
X49577Y-52429D01*
X47462Y-49562D02*
X47462Y-49162D01*
X47615Y-49162D01*
X47653Y-49181D01*
X47672Y-49200D01*
X47691Y-49238D01*
X47691Y-49295D01*
X47672Y-49333D01*
X47653Y-49352D01*
X47615Y-49371D01*
X47462Y-49371D01*
X48053Y-49562D02*
X47862Y-49562D01*
X47862Y-49162D01*
X48186Y-49352D02*
X48320Y-49352D01*
X48377Y-49562D02*
X48186Y-49562D01*
X48186Y-49162D01*
X48377Y-49162D01*
X48548Y-49562D02*
X48548Y-49162D01*
X48643Y-49162D01*
X48701Y-49181D01*
X48739Y-49219D01*
X48758Y-49257D01*
X48777Y-49333D01*
X48777Y-49390D01*
X48758Y-49467D01*
X48739Y-49505D01*
X48701Y-49543D01*
X48643Y-49562D01*
X48548Y-49562D01*
X49177Y-49562D02*
X49043Y-49371D01*
X48948Y-49562D02*
X48948Y-49162D01*
X49101Y-49162D01*
X49139Y-49181D01*
X49158Y-49200D01*
X49177Y-49238D01*
X49177Y-49295D01*
X49158Y-49333D01*
X49139Y-49352D01*
X49101Y-49371D01*
X48948Y-49371D01*
X49310Y-49162D02*
X49558Y-49162D01*
X49424Y-49314D01*
X49482Y-49314D01*
X49520Y-49333D01*
X49539Y-49352D01*
X49558Y-49390D01*
X49558Y-49486D01*
X49539Y-49524D01*
X49520Y-49543D01*
X49482Y-49562D01*
X49367Y-49562D01*
X49329Y-49543D01*
X49310Y-49524D01*
X47462Y-46562D02*
X47462Y-46162D01*
X47615Y-46162D01*
X47653Y-46181D01*
X47672Y-46200D01*
X47691Y-46238D01*
X47691Y-46295D01*
X47672Y-46333D01*
X47653Y-46352D01*
X47615Y-46371D01*
X47462Y-46371D01*
X48053Y-46562D02*
X47862Y-46562D01*
X47862Y-46162D01*
X48186Y-46352D02*
X48320Y-46352D01*
X48377Y-46562D02*
X48186Y-46562D01*
X48186Y-46162D01*
X48377Y-46162D01*
X48548Y-46562D02*
X48548Y-46162D01*
X48643Y-46162D01*
X48701Y-46181D01*
X48739Y-46219D01*
X48758Y-46257D01*
X48777Y-46333D01*
X48777Y-46390D01*
X48758Y-46467D01*
X48739Y-46505D01*
X48701Y-46543D01*
X48643Y-46562D01*
X48548Y-46562D01*
X49177Y-46562D02*
X49043Y-46371D01*
X48948Y-46562D02*
X48948Y-46162D01*
X49101Y-46162D01*
X49139Y-46181D01*
X49158Y-46200D01*
X49177Y-46238D01*
X49177Y-46295D01*
X49158Y-46333D01*
X49139Y-46352D01*
X49101Y-46371D01*
X48948Y-46371D01*
X49329Y-46200D02*
X49348Y-46181D01*
X49386Y-46162D01*
X49482Y-46162D01*
X49520Y-46181D01*
X49539Y-46200D01*
X49558Y-46238D01*
X49558Y-46276D01*
X49539Y-46333D01*
X49310Y-46562D01*
X49558Y-46562D01*
X47462Y-43562D02*
X47462Y-43162D01*
X47615Y-43162D01*
X47653Y-43181D01*
X47672Y-43200D01*
X47691Y-43238D01*
X47691Y-43295D01*
X47672Y-43333D01*
X47653Y-43352D01*
X47615Y-43371D01*
X47462Y-43371D01*
X48053Y-43562D02*
X47862Y-43562D01*
X47862Y-43162D01*
X48186Y-43352D02*
X48320Y-43352D01*
X48377Y-43562D02*
X48186Y-43562D01*
X48186Y-43162D01*
X48377Y-43162D01*
X48548Y-43562D02*
X48548Y-43162D01*
X48643Y-43162D01*
X48701Y-43181D01*
X48739Y-43219D01*
X48758Y-43257D01*
X48777Y-43333D01*
X48777Y-43390D01*
X48758Y-43467D01*
X48739Y-43505D01*
X48701Y-43543D01*
X48643Y-43562D01*
X48548Y-43562D01*
X49177Y-43562D02*
X49043Y-43371D01*
X48948Y-43562D02*
X48948Y-43162D01*
X49101Y-43162D01*
X49139Y-43181D01*
X49158Y-43200D01*
X49177Y-43238D01*
X49177Y-43295D01*
X49158Y-43333D01*
X49139Y-43352D01*
X49101Y-43371D01*
X48948Y-43371D01*
X49558Y-43562D02*
X49329Y-43562D01*
X49443Y-43562D02*
X49443Y-43162D01*
X49405Y-43219D01*
X49367Y-43257D01*
X49329Y-43276D01*
X47462Y-40562D02*
X47462Y-40162D01*
X47615Y-40162D01*
X47653Y-40181D01*
X47672Y-40200D01*
X47691Y-40238D01*
X47691Y-40295D01*
X47672Y-40333D01*
X47653Y-40352D01*
X47615Y-40371D01*
X47462Y-40371D01*
X48053Y-40562D02*
X47862Y-40562D01*
X47862Y-40162D01*
X48186Y-40352D02*
X48320Y-40352D01*
X48377Y-40562D02*
X48186Y-40562D01*
X48186Y-40162D01*
X48377Y-40162D01*
X48548Y-40562D02*
X48548Y-40162D01*
X48643Y-40162D01*
X48701Y-40181D01*
X48739Y-40219D01*
X48758Y-40257D01*
X48777Y-40333D01*
X48777Y-40390D01*
X48758Y-40467D01*
X48739Y-40505D01*
X48701Y-40543D01*
X48643Y-40562D01*
X48548Y-40562D01*
X49177Y-40562D02*
X49043Y-40371D01*
X48948Y-40562D02*
X48948Y-40162D01*
X49101Y-40162D01*
X49139Y-40181D01*
X49158Y-40200D01*
X49177Y-40238D01*
X49177Y-40295D01*
X49158Y-40333D01*
X49139Y-40352D01*
X49101Y-40371D01*
X48948Y-40371D01*
X49424Y-40162D02*
X49463Y-40162D01*
X49501Y-40181D01*
X49520Y-40200D01*
X49539Y-40238D01*
X49558Y-40314D01*
X49558Y-40410D01*
X49539Y-40486D01*
X49520Y-40524D01*
X49501Y-40543D01*
X49463Y-40562D01*
X49424Y-40562D01*
X49386Y-40543D01*
X49367Y-40524D01*
X49348Y-40486D01*
X49329Y-40410D01*
X49329Y-40314D01*
X49348Y-40238D01*
X49367Y-40200D01*
X49386Y-40181D01*
X49424Y-40162D01*
X54162Y-52562D02*
X54162Y-52162D01*
X54315Y-52162D01*
X54353Y-52181D01*
X54372Y-52200D01*
X54391Y-52238D01*
X54391Y-52295D01*
X54372Y-52333D01*
X54353Y-52352D01*
X54315Y-52371D01*
X54162Y-52371D01*
X54753Y-52562D02*
X54562Y-52562D01*
X54562Y-52162D01*
X54886Y-52352D02*
X55020Y-52352D01*
X55077Y-52562D02*
X54886Y-52562D01*
X54886Y-52162D01*
X55077Y-52162D01*
X55248Y-52562D02*
X55248Y-52162D01*
X55343Y-52162D01*
X55401Y-52181D01*
X55439Y-52219D01*
X55458Y-52257D01*
X55477Y-52333D01*
X55477Y-52390D01*
X55458Y-52467D01*
X55439Y-52505D01*
X55401Y-52543D01*
X55343Y-52562D01*
X55248Y-52562D01*
X55858Y-52181D02*
X55820Y-52162D01*
X55763Y-52162D01*
X55705Y-52181D01*
X55667Y-52219D01*
X55648Y-52257D01*
X55629Y-52333D01*
X55629Y-52390D01*
X55648Y-52467D01*
X55667Y-52505D01*
X55705Y-52543D01*
X55763Y-52562D01*
X55801Y-52562D01*
X55858Y-52543D01*
X55877Y-52524D01*
X55877Y-52390D01*
X55801Y-52390D01*
X56220Y-52295D02*
X56220Y-52562D01*
X56124Y-52143D02*
X56029Y-52429D01*
X56277Y-52429D01*
X54162Y-49562D02*
X54162Y-49162D01*
X54315Y-49162D01*
X54353Y-49181D01*
X54372Y-49200D01*
X54391Y-49238D01*
X54391Y-49295D01*
X54372Y-49333D01*
X54353Y-49352D01*
X54315Y-49371D01*
X54162Y-49371D01*
X54753Y-49562D02*
X54562Y-49562D01*
X54562Y-49162D01*
X54886Y-49352D02*
X55020Y-49352D01*
X55077Y-49562D02*
X54886Y-49562D01*
X54886Y-49162D01*
X55077Y-49162D01*
X55248Y-49562D02*
X55248Y-49162D01*
X55343Y-49162D01*
X55401Y-49181D01*
X55439Y-49219D01*
X55458Y-49257D01*
X55477Y-49333D01*
X55477Y-49390D01*
X55458Y-49467D01*
X55439Y-49505D01*
X55401Y-49543D01*
X55343Y-49562D01*
X55248Y-49562D01*
X55858Y-49181D02*
X55820Y-49162D01*
X55763Y-49162D01*
X55705Y-49181D01*
X55667Y-49219D01*
X55648Y-49257D01*
X55629Y-49333D01*
X55629Y-49390D01*
X55648Y-49467D01*
X55667Y-49505D01*
X55705Y-49543D01*
X55763Y-49562D01*
X55801Y-49562D01*
X55858Y-49543D01*
X55877Y-49524D01*
X55877Y-49390D01*
X55801Y-49390D01*
X56010Y-49162D02*
X56258Y-49162D01*
X56124Y-49314D01*
X56182Y-49314D01*
X56220Y-49333D01*
X56239Y-49352D01*
X56258Y-49390D01*
X56258Y-49486D01*
X56239Y-49524D01*
X56220Y-49543D01*
X56182Y-49562D01*
X56067Y-49562D01*
X56029Y-49543D01*
X56010Y-49524D01*
X54262Y-46562D02*
X54262Y-46162D01*
X54415Y-46162D01*
X54453Y-46181D01*
X54472Y-46200D01*
X54491Y-46238D01*
X54491Y-46295D01*
X54472Y-46333D01*
X54453Y-46352D01*
X54415Y-46371D01*
X54262Y-46371D01*
X54853Y-46562D02*
X54662Y-46562D01*
X54662Y-46162D01*
X54986Y-46352D02*
X55120Y-46352D01*
X55177Y-46562D02*
X54986Y-46562D01*
X54986Y-46162D01*
X55177Y-46162D01*
X55348Y-46562D02*
X55348Y-46162D01*
X55443Y-46162D01*
X55501Y-46181D01*
X55539Y-46219D01*
X55558Y-46257D01*
X55577Y-46333D01*
X55577Y-46390D01*
X55558Y-46467D01*
X55539Y-46505D01*
X55501Y-46543D01*
X55443Y-46562D01*
X55348Y-46562D01*
X55958Y-46181D02*
X55920Y-46162D01*
X55863Y-46162D01*
X55805Y-46181D01*
X55767Y-46219D01*
X55748Y-46257D01*
X55729Y-46333D01*
X55729Y-46390D01*
X55748Y-46467D01*
X55767Y-46505D01*
X55805Y-46543D01*
X55863Y-46562D01*
X55901Y-46562D01*
X55958Y-46543D01*
X55977Y-46524D01*
X55977Y-46390D01*
X55901Y-46390D01*
X56129Y-46200D02*
X56148Y-46181D01*
X56186Y-46162D01*
X56282Y-46162D01*
X56320Y-46181D01*
X56339Y-46200D01*
X56358Y-46238D01*
X56358Y-46276D01*
X56339Y-46333D01*
X56110Y-46562D01*
X56358Y-46562D01*
X54262Y-43562D02*
X54262Y-43162D01*
X54415Y-43162D01*
X54453Y-43181D01*
X54472Y-43200D01*
X54491Y-43238D01*
X54491Y-43295D01*
X54472Y-43333D01*
X54453Y-43352D01*
X54415Y-43371D01*
X54262Y-43371D01*
X54853Y-43562D02*
X54662Y-43562D01*
X54662Y-43162D01*
X54986Y-43352D02*
X55120Y-43352D01*
X55177Y-43562D02*
X54986Y-43562D01*
X54986Y-43162D01*
X55177Y-43162D01*
X55348Y-43562D02*
X55348Y-43162D01*
X55443Y-43162D01*
X55501Y-43181D01*
X55539Y-43219D01*
X55558Y-43257D01*
X55577Y-43333D01*
X55577Y-43390D01*
X55558Y-43467D01*
X55539Y-43505D01*
X55501Y-43543D01*
X55443Y-43562D01*
X55348Y-43562D01*
X55958Y-43181D02*
X55920Y-43162D01*
X55863Y-43162D01*
X55805Y-43181D01*
X55767Y-43219D01*
X55748Y-43257D01*
X55729Y-43333D01*
X55729Y-43390D01*
X55748Y-43467D01*
X55767Y-43505D01*
X55805Y-43543D01*
X55863Y-43562D01*
X55901Y-43562D01*
X55958Y-43543D01*
X55977Y-43524D01*
X55977Y-43390D01*
X55901Y-43390D01*
X56358Y-43562D02*
X56129Y-43562D01*
X56243Y-43562D02*
X56243Y-43162D01*
X56205Y-43219D01*
X56167Y-43257D01*
X56129Y-43276D01*
X54262Y-40562D02*
X54262Y-40162D01*
X54415Y-40162D01*
X54453Y-40181D01*
X54472Y-40200D01*
X54491Y-40238D01*
X54491Y-40295D01*
X54472Y-40333D01*
X54453Y-40352D01*
X54415Y-40371D01*
X54262Y-40371D01*
X54853Y-40562D02*
X54662Y-40562D01*
X54662Y-40162D01*
X54986Y-40352D02*
X55120Y-40352D01*
X55177Y-40562D02*
X54986Y-40562D01*
X54986Y-40162D01*
X55177Y-40162D01*
X55348Y-40562D02*
X55348Y-40162D01*
X55443Y-40162D01*
X55501Y-40181D01*
X55539Y-40219D01*
X55558Y-40257D01*
X55577Y-40333D01*
X55577Y-40390D01*
X55558Y-40467D01*
X55539Y-40505D01*
X55501Y-40543D01*
X55443Y-40562D01*
X55348Y-40562D01*
X55958Y-40181D02*
X55920Y-40162D01*
X55863Y-40162D01*
X55805Y-40181D01*
X55767Y-40219D01*
X55748Y-40257D01*
X55729Y-40333D01*
X55729Y-40390D01*
X55748Y-40467D01*
X55767Y-40505D01*
X55805Y-40543D01*
X55863Y-40562D01*
X55901Y-40562D01*
X55958Y-40543D01*
X55977Y-40524D01*
X55977Y-40390D01*
X55901Y-40390D01*
X56224Y-40162D02*
X56263Y-40162D01*
X56301Y-40181D01*
X56320Y-40200D01*
X56339Y-40238D01*
X56358Y-40314D01*
X56358Y-40410D01*
X56339Y-40486D01*
X56320Y-40524D01*
X56301Y-40543D01*
X56263Y-40562D01*
X56224Y-40562D01*
X56186Y-40543D01*
X56167Y-40524D01*
X56148Y-40486D01*
X56129Y-40410D01*
X56129Y-40314D01*
X56148Y-40238D01*
X56167Y-40200D01*
X56186Y-40181D01*
X56224Y-40162D01*
G54D11*
X60621Y-25121D02*
X60621Y-24821D01*
X60736Y-24821D01*
X60764Y-24836D01*
X60779Y-24850D01*
X60793Y-24879D01*
X60793Y-24921D01*
X60779Y-24950D01*
X60764Y-24964D01*
X60736Y-24979D01*
X60621Y-24979D01*
X61064Y-25121D02*
X60921Y-25121D01*
X60921Y-24821D01*
X61164Y-24964D02*
X61264Y-24964D01*
X61307Y-25121D02*
X61164Y-25121D01*
X61164Y-24821D01*
X61307Y-24821D01*
X61435Y-25121D02*
X61435Y-24821D01*
X61507Y-24821D01*
X61550Y-24836D01*
X61578Y-24864D01*
X61593Y-24893D01*
X61607Y-24950D01*
X61607Y-24993D01*
X61593Y-25050D01*
X61578Y-25079D01*
X61550Y-25107D01*
X61507Y-25121D01*
X61435Y-25121D01*
X61835Y-24964D02*
X61878Y-24979D01*
X61893Y-24993D01*
X61907Y-25021D01*
X61907Y-25064D01*
X61893Y-25093D01*
X61878Y-25107D01*
X61850Y-25121D01*
X61735Y-25121D01*
X61735Y-24821D01*
X61835Y-24821D01*
X61864Y-24836D01*
X61878Y-24850D01*
X61893Y-24879D01*
X61893Y-24907D01*
X61878Y-24936D01*
X61864Y-24950D01*
X61835Y-24964D01*
X61735Y-24964D01*
X62164Y-24921D02*
X62164Y-25121D01*
X62093Y-24807D02*
X62021Y-25021D01*
X62207Y-25021D01*
X60521Y-27421D02*
X60521Y-27121D01*
X60636Y-27121D01*
X60664Y-27136D01*
X60679Y-27150D01*
X60693Y-27179D01*
X60693Y-27221D01*
X60679Y-27250D01*
X60664Y-27264D01*
X60636Y-27279D01*
X60521Y-27279D01*
X60964Y-27421D02*
X60821Y-27421D01*
X60821Y-27121D01*
X61064Y-27264D02*
X61164Y-27264D01*
X61207Y-27421D02*
X61064Y-27421D01*
X61064Y-27121D01*
X61207Y-27121D01*
X61335Y-27421D02*
X61335Y-27121D01*
X61407Y-27121D01*
X61450Y-27136D01*
X61478Y-27164D01*
X61493Y-27193D01*
X61507Y-27250D01*
X61507Y-27293D01*
X61493Y-27350D01*
X61478Y-27379D01*
X61450Y-27407D01*
X61407Y-27421D01*
X61335Y-27421D01*
X61735Y-27264D02*
X61778Y-27279D01*
X61793Y-27293D01*
X61807Y-27321D01*
X61807Y-27364D01*
X61793Y-27393D01*
X61778Y-27407D01*
X61750Y-27421D01*
X61635Y-27421D01*
X61635Y-27121D01*
X61735Y-27121D01*
X61764Y-27136D01*
X61778Y-27150D01*
X61793Y-27179D01*
X61793Y-27207D01*
X61778Y-27236D01*
X61764Y-27250D01*
X61735Y-27264D01*
X61635Y-27264D01*
X61907Y-27121D02*
X62093Y-27121D01*
X61993Y-27236D01*
X62035Y-27236D01*
X62064Y-27250D01*
X62078Y-27264D01*
X62093Y-27293D01*
X62093Y-27364D01*
X62078Y-27393D01*
X62064Y-27407D01*
X62035Y-27421D01*
X61950Y-27421D01*
X61921Y-27407D01*
X61907Y-27393D01*
X60521Y-29821D02*
X60521Y-29521D01*
X60636Y-29521D01*
X60664Y-29536D01*
X60679Y-29550D01*
X60693Y-29579D01*
X60693Y-29621D01*
X60679Y-29650D01*
X60664Y-29664D01*
X60636Y-29679D01*
X60521Y-29679D01*
X60964Y-29821D02*
X60821Y-29821D01*
X60821Y-29521D01*
X61064Y-29664D02*
X61164Y-29664D01*
X61207Y-29821D02*
X61064Y-29821D01*
X61064Y-29521D01*
X61207Y-29521D01*
X61335Y-29821D02*
X61335Y-29521D01*
X61407Y-29521D01*
X61450Y-29536D01*
X61478Y-29564D01*
X61493Y-29593D01*
X61507Y-29650D01*
X61507Y-29693D01*
X61493Y-29750D01*
X61478Y-29779D01*
X61450Y-29807D01*
X61407Y-29821D01*
X61335Y-29821D01*
X61735Y-29664D02*
X61778Y-29679D01*
X61793Y-29693D01*
X61807Y-29721D01*
X61807Y-29764D01*
X61793Y-29793D01*
X61778Y-29807D01*
X61750Y-29821D01*
X61635Y-29821D01*
X61635Y-29521D01*
X61735Y-29521D01*
X61764Y-29536D01*
X61778Y-29550D01*
X61793Y-29579D01*
X61793Y-29607D01*
X61778Y-29636D01*
X61764Y-29650D01*
X61735Y-29664D01*
X61635Y-29664D01*
X61921Y-29550D02*
X61935Y-29536D01*
X61964Y-29521D01*
X62035Y-29521D01*
X62064Y-29536D01*
X62078Y-29550D01*
X62093Y-29579D01*
X62093Y-29607D01*
X62078Y-29650D01*
X61907Y-29821D01*
X62093Y-29821D01*
X60521Y-32821D02*
X60521Y-32521D01*
X60636Y-32521D01*
X60664Y-32536D01*
X60679Y-32550D01*
X60693Y-32579D01*
X60693Y-32621D01*
X60679Y-32650D01*
X60664Y-32664D01*
X60636Y-32679D01*
X60521Y-32679D01*
X60964Y-32821D02*
X60821Y-32821D01*
X60821Y-32521D01*
X61064Y-32664D02*
X61164Y-32664D01*
X61207Y-32821D02*
X61064Y-32821D01*
X61064Y-32521D01*
X61207Y-32521D01*
X61335Y-32821D02*
X61335Y-32521D01*
X61407Y-32521D01*
X61450Y-32536D01*
X61478Y-32564D01*
X61493Y-32593D01*
X61507Y-32650D01*
X61507Y-32693D01*
X61493Y-32750D01*
X61478Y-32779D01*
X61450Y-32807D01*
X61407Y-32821D01*
X61335Y-32821D01*
X61735Y-32664D02*
X61778Y-32679D01*
X61793Y-32693D01*
X61807Y-32721D01*
X61807Y-32764D01*
X61793Y-32793D01*
X61778Y-32807D01*
X61750Y-32821D01*
X61635Y-32821D01*
X61635Y-32521D01*
X61735Y-32521D01*
X61764Y-32536D01*
X61778Y-32550D01*
X61793Y-32579D01*
X61793Y-32607D01*
X61778Y-32636D01*
X61764Y-32650D01*
X61735Y-32664D01*
X61635Y-32664D01*
X62093Y-32821D02*
X61921Y-32821D01*
X62007Y-32821D02*
X62007Y-32521D01*
X61978Y-32564D01*
X61950Y-32593D01*
X61921Y-32607D01*
X60521Y-35821D02*
X60521Y-35521D01*
X60636Y-35521D01*
X60664Y-35536D01*
X60679Y-35550D01*
X60693Y-35579D01*
X60693Y-35621D01*
X60679Y-35650D01*
X60664Y-35664D01*
X60636Y-35679D01*
X60521Y-35679D01*
X60964Y-35821D02*
X60821Y-35821D01*
X60821Y-35521D01*
X61064Y-35664D02*
X61164Y-35664D01*
X61207Y-35821D02*
X61064Y-35821D01*
X61064Y-35521D01*
X61207Y-35521D01*
X61335Y-35821D02*
X61335Y-35521D01*
X61407Y-35521D01*
X61450Y-35536D01*
X61478Y-35564D01*
X61493Y-35593D01*
X61507Y-35650D01*
X61507Y-35693D01*
X61493Y-35750D01*
X61478Y-35779D01*
X61450Y-35807D01*
X61407Y-35821D01*
X61335Y-35821D01*
X61735Y-35664D02*
X61778Y-35679D01*
X61793Y-35693D01*
X61807Y-35721D01*
X61807Y-35764D01*
X61793Y-35793D01*
X61778Y-35807D01*
X61750Y-35821D01*
X61635Y-35821D01*
X61635Y-35521D01*
X61735Y-35521D01*
X61764Y-35536D01*
X61778Y-35550D01*
X61793Y-35579D01*
X61793Y-35607D01*
X61778Y-35636D01*
X61764Y-35650D01*
X61735Y-35664D01*
X61635Y-35664D01*
X61993Y-35521D02*
X62021Y-35521D01*
X62050Y-35536D01*
X62064Y-35550D01*
X62078Y-35579D01*
X62093Y-35636D01*
X62093Y-35707D01*
X62078Y-35764D01*
X62064Y-35793D01*
X62050Y-35807D01*
X62021Y-35821D01*
X61993Y-35821D01*
X61964Y-35807D01*
X61950Y-35793D01*
X61935Y-35764D01*
X61921Y-35707D01*
X61921Y-35636D01*
X61935Y-35579D01*
X61950Y-35550D01*
X61964Y-35536D01*
X61993Y-35521D01*
X41650Y-25121D02*
X41650Y-24821D01*
X41765Y-24821D01*
X41793Y-24836D01*
X41808Y-24850D01*
X41822Y-24879D01*
X41822Y-24921D01*
X41808Y-24950D01*
X41793Y-24964D01*
X41765Y-24979D01*
X41650Y-24979D01*
X42050Y-24964D02*
X42093Y-24979D01*
X42108Y-24993D01*
X42122Y-25021D01*
X42122Y-25064D01*
X42108Y-25093D01*
X42093Y-25107D01*
X42065Y-25121D01*
X41950Y-25121D01*
X41950Y-24821D01*
X42050Y-24821D01*
X42079Y-24836D01*
X42093Y-24850D01*
X42108Y-24879D01*
X42108Y-24907D01*
X42093Y-24936D01*
X42079Y-24950D01*
X42050Y-24964D01*
X41950Y-24964D01*
X42250Y-25121D02*
X42250Y-24821D01*
X42551Y-24836D02*
X42522Y-24821D01*
X42479Y-24821D01*
X42436Y-24836D01*
X42408Y-24864D01*
X42393Y-24893D01*
X42379Y-24950D01*
X42379Y-24993D01*
X42393Y-25050D01*
X42408Y-25079D01*
X42436Y-25107D01*
X42479Y-25121D01*
X42508Y-25121D01*
X42551Y-25107D01*
X42565Y-25093D01*
X42565Y-24993D01*
X42508Y-24993D01*
X42851Y-24836D02*
X42822Y-24821D01*
X42779Y-24821D01*
X42736Y-24836D01*
X42708Y-24864D01*
X42693Y-24893D01*
X42679Y-24950D01*
X42679Y-24993D01*
X42693Y-25050D01*
X42708Y-25079D01*
X42736Y-25107D01*
X42779Y-25121D01*
X42808Y-25121D01*
X42851Y-25107D01*
X42865Y-25093D01*
X42865Y-24993D01*
X42808Y-24993D01*
X42993Y-25121D02*
X42993Y-24821D01*
X43165Y-25121D01*
X43165Y-24821D01*
X43307Y-25121D02*
X43307Y-24821D01*
X43379Y-24821D01*
X43422Y-24836D01*
X43450Y-24864D01*
X43465Y-24893D01*
X43479Y-24950D01*
X43479Y-24993D01*
X43465Y-25050D01*
X43450Y-25079D01*
X43422Y-25107D01*
X43379Y-25121D01*
X43307Y-25121D01*
X43765Y-25121D02*
X43593Y-25121D01*
X43679Y-25121D02*
X43679Y-24821D01*
X43650Y-24864D01*
X43622Y-24893D01*
X43593Y-24907D01*
X45093Y-33850D02*
X45107Y-33864D01*
X45121Y-33907D01*
X45121Y-33936D01*
X45107Y-33979D01*
X45079Y-34007D01*
X45050Y-34022D01*
X44993Y-34036D01*
X44950Y-34036D01*
X44893Y-34022D01*
X44864Y-34007D01*
X44836Y-33979D01*
X44821Y-33936D01*
X44821Y-33907D01*
X44836Y-33864D01*
X44850Y-33850D01*
X44950Y-33679D02*
X44936Y-33707D01*
X44921Y-33722D01*
X44893Y-33736D01*
X44879Y-33736D01*
X44850Y-33722D01*
X44836Y-33707D01*
X44821Y-33679D01*
X44821Y-33622D01*
X44836Y-33593D01*
X44850Y-33579D01*
X44879Y-33564D01*
X44893Y-33564D01*
X44921Y-33579D01*
X44936Y-33593D01*
X44950Y-33622D01*
X44950Y-33679D01*
X44964Y-33707D01*
X44979Y-33722D01*
X45007Y-33736D01*
X45064Y-33736D01*
X45093Y-33722D01*
X45107Y-33707D01*
X45121Y-33679D01*
X45121Y-33622D01*
X45107Y-33593D01*
X45093Y-33579D01*
X45064Y-33564D01*
X45007Y-33564D01*
X44979Y-33579D01*
X44964Y-33593D01*
X44950Y-33622D01*
X49493Y-26350D02*
X49507Y-26364D01*
X49521Y-26407D01*
X49521Y-26436D01*
X49507Y-26479D01*
X49479Y-26507D01*
X49450Y-26522D01*
X49393Y-26536D01*
X49350Y-26536D01*
X49293Y-26522D01*
X49264Y-26507D01*
X49236Y-26479D01*
X49221Y-26436D01*
X49221Y-26407D01*
X49236Y-26364D01*
X49250Y-26350D01*
X49221Y-26250D02*
X49221Y-26050D01*
X49521Y-26179D01*
X48293Y-26350D02*
X48307Y-26364D01*
X48321Y-26407D01*
X48321Y-26436D01*
X48307Y-26479D01*
X48279Y-26507D01*
X48250Y-26522D01*
X48193Y-26536D01*
X48150Y-26536D01*
X48093Y-26522D01*
X48064Y-26507D01*
X48036Y-26479D01*
X48021Y-26436D01*
X48021Y-26407D01*
X48036Y-26364D01*
X48050Y-26350D01*
X48021Y-26093D02*
X48021Y-26150D01*
X48036Y-26179D01*
X48050Y-26193D01*
X48093Y-26222D01*
X48150Y-26236D01*
X48264Y-26236D01*
X48293Y-26222D01*
X48307Y-26207D01*
X48321Y-26179D01*
X48321Y-26122D01*
X48307Y-26093D01*
X48293Y-26079D01*
X48264Y-26064D01*
X48193Y-26064D01*
X48164Y-26079D01*
X48150Y-26093D01*
X48136Y-26122D01*
X48136Y-26179D01*
X48150Y-26207D01*
X48164Y-26222D01*
X48193Y-26236D01*
X46293Y-31650D02*
X46307Y-31664D01*
X46321Y-31707D01*
X46321Y-31736D01*
X46307Y-31779D01*
X46279Y-31807D01*
X46250Y-31822D01*
X46193Y-31836D01*
X46150Y-31836D01*
X46093Y-31822D01*
X46064Y-31807D01*
X46036Y-31779D01*
X46021Y-31736D01*
X46021Y-31707D01*
X46036Y-31664D01*
X46050Y-31650D01*
X46021Y-31379D02*
X46021Y-31522D01*
X46164Y-31536D01*
X46150Y-31522D01*
X46136Y-31493D01*
X46136Y-31422D01*
X46150Y-31393D01*
X46164Y-31379D01*
X46193Y-31364D01*
X46264Y-31364D01*
X46293Y-31379D01*
X46307Y-31393D01*
X46321Y-31422D01*
X46321Y-31493D01*
X46307Y-31522D01*
X46293Y-31536D01*
X46293Y-33850D02*
X46307Y-33864D01*
X46321Y-33907D01*
X46321Y-33936D01*
X46307Y-33979D01*
X46279Y-34007D01*
X46250Y-34022D01*
X46193Y-34036D01*
X46150Y-34036D01*
X46093Y-34022D01*
X46064Y-34007D01*
X46036Y-33979D01*
X46021Y-33936D01*
X46021Y-33907D01*
X46036Y-33864D01*
X46050Y-33850D01*
X46121Y-33593D02*
X46321Y-33593D01*
X46007Y-33664D02*
X46221Y-33736D01*
X46221Y-33550D01*
X46393Y-29150D02*
X46407Y-29164D01*
X46421Y-29207D01*
X46421Y-29236D01*
X46407Y-29279D01*
X46379Y-29307D01*
X46350Y-29322D01*
X46293Y-29336D01*
X46250Y-29336D01*
X46193Y-29322D01*
X46164Y-29307D01*
X46136Y-29279D01*
X46121Y-29236D01*
X46121Y-29207D01*
X46136Y-29164D01*
X46150Y-29150D01*
X46150Y-29036D02*
X46136Y-29022D01*
X46121Y-28993D01*
X46121Y-28922D01*
X46136Y-28893D01*
X46150Y-28879D01*
X46179Y-28864D01*
X46207Y-28864D01*
X46250Y-28879D01*
X46421Y-29050D01*
X46421Y-28864D01*
X45193Y-29150D02*
X45207Y-29164D01*
X45221Y-29207D01*
X45221Y-29236D01*
X45207Y-29279D01*
X45179Y-29307D01*
X45150Y-29322D01*
X45093Y-29336D01*
X45050Y-29336D01*
X44993Y-29322D01*
X44964Y-29307D01*
X44936Y-29279D01*
X44921Y-29236D01*
X44921Y-29207D01*
X44936Y-29164D01*
X44950Y-29150D01*
X45221Y-28864D02*
X45221Y-29036D01*
X45221Y-28950D02*
X44921Y-28950D01*
X44964Y-28979D01*
X44993Y-29007D01*
X45007Y-29036D01*
G54D19*
X52443Y-25439D02*
X51843Y-25439D01*
X52386Y-24968D02*
X52414Y-24989D01*
X52443Y-25053D01*
X52443Y-25096D01*
X52414Y-25161D01*
X52357Y-25203D01*
X52300Y-25225D01*
X52186Y-25246D01*
X52100Y-25246D01*
X51986Y-25225D01*
X51929Y-25203D01*
X51871Y-25161D01*
X51843Y-25096D01*
X51843Y-25053D01*
X51871Y-24989D01*
X51900Y-24968D01*
X52443Y-24539D02*
X52443Y-24796D01*
X52443Y-24668D02*
X51843Y-24668D01*
X51929Y-24711D01*
X51986Y-24753D01*
X52014Y-24796D01*
X52271Y-30404D02*
X52271Y-30190D01*
X52443Y-30447D02*
X51843Y-30297D01*
X52443Y-30147D01*
X51843Y-30061D02*
X51843Y-29804D01*
X52443Y-29933D02*
X51843Y-29933D01*
X52443Y-29654D02*
X51843Y-29654D01*
X52271Y-29504D01*
X51843Y-29354D01*
X52443Y-29354D01*
X52129Y-29140D02*
X52129Y-28990D01*
X52443Y-28926D02*
X52443Y-29140D01*
X51843Y-29140D01*
X51843Y-28926D01*
X51871Y-28497D02*
X51843Y-28540D01*
X51843Y-28604D01*
X51871Y-28669D01*
X51929Y-28711D01*
X51986Y-28733D01*
X52100Y-28754D01*
X52186Y-28754D01*
X52300Y-28733D01*
X52357Y-28711D01*
X52414Y-28669D01*
X52443Y-28604D01*
X52443Y-28561D01*
X52414Y-28497D01*
X52386Y-28476D01*
X52186Y-28476D01*
X52186Y-28561D01*
X52271Y-28304D02*
X52271Y-28090D01*
X52443Y-28347D02*
X51843Y-28197D01*
X52443Y-28047D01*
X52443Y-27661D02*
X52443Y-27918D01*
X52443Y-27790D02*
X51843Y-27790D01*
X51929Y-27833D01*
X51986Y-27875D01*
X52014Y-27918D01*
X51843Y-27275D02*
X51843Y-27361D01*
X51871Y-27404D01*
X51900Y-27425D01*
X51986Y-27468D01*
X52100Y-27489D01*
X52329Y-27489D01*
X52386Y-27468D01*
X52414Y-27446D01*
X52443Y-27404D01*
X52443Y-27318D01*
X52414Y-27275D01*
X52386Y-27254D01*
X52329Y-27232D01*
X52186Y-27232D01*
X52129Y-27254D01*
X52100Y-27275D01*
X52071Y-27318D01*
X52071Y-27404D01*
X52100Y-27446D01*
X52129Y-27468D01*
X52186Y-27489D01*
X52100Y-26975D02*
X52071Y-27017D01*
X52043Y-27039D01*
X51986Y-27060D01*
X51957Y-27060D01*
X51900Y-27039D01*
X51871Y-27017D01*
X51843Y-26975D01*
X51843Y-26889D01*
X51871Y-26846D01*
X51900Y-26825D01*
X51957Y-26803D01*
X51986Y-26803D01*
X52043Y-26825D01*
X52071Y-26846D01*
X52100Y-26889D01*
X52100Y-26975D01*
X52129Y-27017D01*
X52157Y-27039D01*
X52214Y-27060D01*
X52329Y-27060D01*
X52386Y-27039D01*
X52414Y-27017D01*
X52443Y-26975D01*
X52443Y-26889D01*
X52414Y-26846D01*
X52386Y-26825D01*
X52329Y-26803D01*
X52214Y-26803D01*
X52157Y-26825D01*
X52129Y-26846D01*
X52100Y-26889D01*
X52214Y-26610D02*
X52214Y-26267D01*
X52443Y-26053D02*
X51843Y-26053D01*
X51843Y-25881D01*
X51871Y-25839D01*
X51900Y-25817D01*
X51957Y-25796D01*
X52043Y-25796D01*
X52100Y-25817D01*
X52129Y-25839D01*
X52157Y-25881D01*
X52157Y-26053D01*
G54D12*
X48186Y-33799D02*
X48214Y-33828D01*
X48243Y-33914D01*
X48243Y-33971D01*
X48214Y-34056D01*
X48157Y-34114D01*
X48100Y-34142D01*
X47986Y-34171D01*
X47900Y-34171D01*
X47786Y-34142D01*
X47729Y-34114D01*
X47671Y-34056D01*
X47643Y-33971D01*
X47643Y-33914D01*
X47671Y-33828D01*
X47700Y-33799D01*
X47643Y-33599D02*
X47643Y-33228D01*
X47871Y-33428D01*
X47871Y-33342D01*
X47900Y-33285D01*
X47929Y-33256D01*
X47986Y-33228D01*
X48129Y-33228D01*
X48186Y-33256D01*
X48214Y-33285D01*
X48243Y-33342D01*
X48243Y-33514D01*
X48214Y-33571D01*
X48186Y-33599D01*
G54D11*
X39607Y-25321D02*
X39607Y-25536D01*
X39593Y-25579D01*
X39564Y-25607D01*
X39521Y-25621D01*
X39493Y-25621D01*
X39893Y-25621D02*
X39750Y-25621D01*
X39750Y-25321D01*
X40151Y-25336D02*
X40122Y-25321D01*
X40079Y-25321D01*
X40036Y-25336D01*
X40008Y-25364D01*
X39993Y-25393D01*
X39979Y-25450D01*
X39979Y-25493D01*
X39993Y-25550D01*
X40008Y-25579D01*
X40036Y-25607D01*
X40079Y-25621D01*
X40108Y-25621D01*
X40151Y-25607D01*
X40165Y-25593D01*
X40165Y-25493D01*
X40108Y-25493D01*
X40465Y-25593D02*
X40451Y-25607D01*
X40408Y-25621D01*
X40379Y-25621D01*
X40336Y-25607D01*
X40308Y-25579D01*
X40293Y-25550D01*
X40279Y-25493D01*
X40279Y-25450D01*
X40293Y-25393D01*
X40308Y-25364D01*
X40336Y-25336D01*
X40379Y-25321D01*
X40408Y-25321D01*
X40451Y-25336D01*
X40465Y-25350D01*
X40593Y-25621D02*
X40593Y-25321D01*
X40708Y-25321D01*
X40736Y-25336D01*
X40751Y-25350D01*
X40765Y-25379D01*
X40765Y-25421D01*
X40751Y-25450D01*
X40736Y-25464D01*
X40708Y-25479D01*
X40593Y-25479D01*
X40865Y-25321D02*
X40936Y-25621D01*
X40993Y-25407D01*
X41051Y-25621D01*
X41122Y-25321D01*
X41408Y-25621D02*
X41308Y-25479D01*
X41236Y-25621D02*
X41236Y-25321D01*
X41351Y-25321D01*
X41379Y-25336D01*
X41394Y-25350D01*
X41408Y-25379D01*
X41408Y-25421D01*
X41394Y-25450D01*
X41379Y-25464D01*
X41351Y-25479D01*
X41236Y-25479D01*
X41694Y-25621D02*
X41522Y-25621D01*
X41608Y-25621D02*
X41608Y-25321D01*
X41579Y-25364D01*
X41551Y-25393D01*
X41522Y-25407D01*
X39607Y-28121D02*
X39607Y-28336D01*
X39593Y-28379D01*
X39564Y-28407D01*
X39521Y-28421D01*
X39493Y-28421D01*
X39736Y-28336D02*
X39879Y-28336D01*
X39708Y-28421D02*
X39808Y-28121D01*
X39908Y-28421D01*
X40179Y-28393D02*
X40165Y-28407D01*
X40122Y-28421D01*
X40093Y-28421D01*
X40050Y-28407D01*
X40022Y-28379D01*
X40007Y-28350D01*
X39993Y-28293D01*
X39993Y-28250D01*
X40007Y-28193D01*
X40022Y-28164D01*
X40050Y-28136D01*
X40093Y-28121D01*
X40122Y-28121D01*
X40165Y-28136D01*
X40179Y-28150D01*
X40307Y-28421D02*
X40307Y-28121D01*
X40479Y-28421D02*
X40350Y-28250D01*
X40479Y-28121D02*
X40307Y-28293D01*
X40536Y-28450D02*
X40765Y-28450D01*
X40822Y-28150D02*
X40836Y-28136D01*
X40865Y-28121D01*
X40936Y-28121D01*
X40965Y-28136D01*
X40979Y-28150D01*
X40994Y-28179D01*
X40994Y-28207D01*
X40979Y-28250D01*
X40808Y-28421D01*
X40994Y-28421D01*
X41122Y-28421D02*
X41122Y-28121D01*
X41237Y-28121D01*
X41265Y-28136D01*
X41280Y-28150D01*
X41294Y-28179D01*
X41294Y-28221D01*
X41280Y-28250D01*
X41265Y-28264D01*
X41237Y-28279D01*
X41122Y-28279D01*
X39621Y-30021D02*
X39621Y-30236D01*
X39607Y-30279D01*
X39578Y-30307D01*
X39535Y-30321D01*
X39507Y-30321D01*
X39907Y-30321D02*
X39764Y-30321D01*
X39764Y-30021D01*
X40007Y-30164D02*
X40107Y-30164D01*
X40150Y-30321D02*
X40007Y-30321D01*
X40007Y-30021D01*
X40150Y-30021D01*
X40278Y-30321D02*
X40278Y-30021D01*
X40350Y-30021D01*
X40393Y-30036D01*
X40421Y-30064D01*
X40436Y-30093D01*
X40450Y-30150D01*
X40450Y-30193D01*
X40436Y-30250D01*
X40421Y-30279D01*
X40393Y-30307D01*
X40350Y-30321D01*
X40278Y-30321D01*
X40578Y-30321D02*
X40578Y-30021D01*
X40693Y-30021D01*
X40721Y-30036D01*
X40736Y-30050D01*
X40750Y-30079D01*
X40750Y-30121D01*
X40736Y-30150D01*
X40721Y-30164D01*
X40693Y-30179D01*
X40578Y-30179D01*
X40850Y-30021D02*
X40921Y-30321D01*
X40978Y-30107D01*
X41036Y-30321D01*
X41107Y-30021D01*
X41393Y-30321D02*
X41293Y-30179D01*
X41221Y-30321D02*
X41221Y-30021D01*
X41336Y-30021D01*
X41364Y-30036D01*
X41379Y-30050D01*
X41393Y-30079D01*
X41393Y-30121D01*
X41379Y-30150D01*
X41364Y-30164D01*
X41336Y-30179D01*
X41221Y-30179D01*
X41507Y-30050D02*
X41521Y-30036D01*
X41550Y-30021D01*
X41621Y-30021D01*
X41650Y-30036D01*
X41664Y-30050D01*
X41679Y-30079D01*
X41679Y-30107D01*
X41664Y-30150D01*
X41493Y-30321D01*
X41679Y-30321D01*
X39607Y-32821D02*
X39607Y-33036D01*
X39593Y-33079D01*
X39564Y-33107D01*
X39521Y-33121D01*
X39493Y-33121D01*
X39736Y-33036D02*
X39879Y-33036D01*
X39708Y-33121D02*
X39808Y-32821D01*
X39908Y-33121D01*
X40179Y-33093D02*
X40165Y-33107D01*
X40122Y-33121D01*
X40093Y-33121D01*
X40050Y-33107D01*
X40022Y-33079D01*
X40007Y-33050D01*
X39993Y-32993D01*
X39993Y-32950D01*
X40007Y-32893D01*
X40022Y-32864D01*
X40050Y-32836D01*
X40093Y-32821D01*
X40122Y-32821D01*
X40165Y-32836D01*
X40179Y-32850D01*
X40307Y-33121D02*
X40307Y-32821D01*
X40479Y-33121D02*
X40350Y-32950D01*
X40479Y-32821D02*
X40307Y-32993D01*
X40536Y-33150D02*
X40765Y-33150D01*
X40822Y-32850D02*
X40836Y-32836D01*
X40865Y-32821D01*
X40936Y-32821D01*
X40965Y-32836D01*
X40979Y-32850D01*
X40994Y-32879D01*
X40994Y-32907D01*
X40979Y-32950D01*
X40808Y-33121D01*
X40994Y-33121D01*
X41122Y-33121D02*
X41122Y-32821D01*
X41237Y-32821D01*
X41265Y-32836D01*
X41280Y-32850D01*
X41294Y-32879D01*
X41294Y-32921D01*
X41280Y-32950D01*
X41265Y-32964D01*
X41237Y-32979D01*
X41122Y-32979D01*
G54D20*
X56178Y-26521D02*
X56178Y-26221D01*
X56250Y-26221D01*
X56293Y-26236D01*
X56321Y-26264D01*
X56336Y-26293D01*
X56350Y-26350D01*
X56350Y-26393D01*
X56336Y-26450D01*
X56321Y-26479D01*
X56293Y-26507D01*
X56250Y-26521D01*
X56178Y-26521D01*
X56621Y-26221D02*
X56478Y-26221D01*
X56464Y-26364D01*
X56478Y-26350D01*
X56507Y-26336D01*
X56578Y-26336D01*
X56607Y-26350D01*
X56621Y-26364D01*
X56636Y-26393D01*
X56636Y-26464D01*
X56621Y-26493D01*
X56607Y-26507D01*
X56578Y-26521D01*
X56507Y-26521D01*
X56478Y-26507D01*
X56464Y-26493D01*
X56107Y-27021D02*
X55964Y-27021D01*
X55964Y-26721D01*
X56207Y-26864D02*
X56307Y-26864D01*
X56350Y-27021D02*
X56207Y-27021D01*
X56207Y-26721D01*
X56350Y-26721D01*
X56478Y-27021D02*
X56478Y-26721D01*
X56550Y-26721D01*
X56593Y-26736D01*
X56621Y-26764D01*
X56636Y-26793D01*
X56650Y-26850D01*
X56650Y-26893D01*
X56636Y-26950D01*
X56621Y-26979D01*
X56593Y-27007D01*
X56550Y-27021D01*
X56478Y-27021D01*
X56078Y-27621D02*
X56078Y-27321D01*
X56150Y-27321D01*
X56193Y-27336D01*
X56221Y-27364D01*
X56236Y-27393D01*
X56250Y-27450D01*
X56250Y-27493D01*
X56236Y-27550D01*
X56221Y-27579D01*
X56193Y-27607D01*
X56150Y-27621D01*
X56078Y-27621D01*
X56507Y-27421D02*
X56507Y-27621D01*
X56436Y-27307D02*
X56364Y-27521D01*
X56550Y-27521D01*
X56107Y-28021D02*
X55964Y-28021D01*
X55964Y-27721D01*
X56207Y-27864D02*
X56307Y-27864D01*
X56350Y-28021D02*
X56207Y-28021D01*
X56207Y-27721D01*
X56350Y-27721D01*
X56478Y-28021D02*
X56478Y-27721D01*
X56550Y-27721D01*
X56593Y-27736D01*
X56621Y-27764D01*
X56636Y-27793D01*
X56650Y-27850D01*
X56650Y-27893D01*
X56636Y-27950D01*
X56621Y-27979D01*
X56593Y-28007D01*
X56550Y-28021D01*
X56478Y-28021D01*
X56178Y-28621D02*
X56178Y-28321D01*
X56250Y-28321D01*
X56293Y-28336D01*
X56321Y-28364D01*
X56336Y-28393D01*
X56350Y-28450D01*
X56350Y-28493D01*
X56336Y-28550D01*
X56321Y-28579D01*
X56293Y-28607D01*
X56250Y-28621D01*
X56178Y-28621D01*
X56450Y-28321D02*
X56636Y-28321D01*
X56536Y-28436D01*
X56578Y-28436D01*
X56607Y-28450D01*
X56621Y-28464D01*
X56636Y-28493D01*
X56636Y-28564D01*
X56621Y-28593D01*
X56607Y-28607D01*
X56578Y-28621D01*
X56493Y-28621D01*
X56464Y-28607D01*
X56450Y-28593D01*
X56107Y-29021D02*
X55964Y-29021D01*
X55964Y-28721D01*
X56207Y-28864D02*
X56307Y-28864D01*
X56350Y-29021D02*
X56207Y-29021D01*
X56207Y-28721D01*
X56350Y-28721D01*
X56478Y-29021D02*
X56478Y-28721D01*
X56550Y-28721D01*
X56593Y-28736D01*
X56621Y-28764D01*
X56636Y-28793D01*
X56650Y-28850D01*
X56650Y-28893D01*
X56636Y-28950D01*
X56621Y-28979D01*
X56593Y-29007D01*
X56550Y-29021D01*
X56478Y-29021D01*
X56178Y-29521D02*
X56178Y-29221D01*
X56250Y-29221D01*
X56293Y-29236D01*
X56321Y-29264D01*
X56336Y-29293D01*
X56350Y-29350D01*
X56350Y-29393D01*
X56336Y-29450D01*
X56321Y-29479D01*
X56293Y-29507D01*
X56250Y-29521D01*
X56178Y-29521D01*
X56464Y-29250D02*
X56478Y-29236D01*
X56507Y-29221D01*
X56578Y-29221D01*
X56607Y-29236D01*
X56621Y-29250D01*
X56636Y-29279D01*
X56636Y-29307D01*
X56621Y-29350D01*
X56450Y-29521D01*
X56636Y-29521D01*
X56107Y-30021D02*
X55964Y-30021D01*
X55964Y-29721D01*
X56207Y-29864D02*
X56307Y-29864D01*
X56350Y-30021D02*
X56207Y-30021D01*
X56207Y-29721D01*
X56350Y-29721D01*
X56478Y-30021D02*
X56478Y-29721D01*
X56550Y-29721D01*
X56593Y-29736D01*
X56621Y-29764D01*
X56636Y-29793D01*
X56650Y-29850D01*
X56650Y-29893D01*
X56636Y-29950D01*
X56621Y-29979D01*
X56593Y-30007D01*
X56550Y-30021D01*
X56478Y-30021D01*
X48678Y-27521D02*
X48678Y-27221D01*
X48750Y-27221D01*
X48793Y-27236D01*
X48821Y-27264D01*
X48836Y-27293D01*
X48850Y-27350D01*
X48850Y-27393D01*
X48836Y-27450D01*
X48821Y-27479D01*
X48793Y-27507D01*
X48750Y-27521D01*
X48678Y-27521D01*
X49136Y-27521D02*
X48964Y-27521D01*
X49050Y-27521D02*
X49050Y-27221D01*
X49021Y-27264D01*
X48993Y-27293D01*
X48964Y-27307D01*
X48707Y-27921D02*
X48564Y-27921D01*
X48564Y-27621D01*
X48807Y-27764D02*
X48907Y-27764D01*
X48950Y-27921D02*
X48807Y-27921D01*
X48807Y-27621D01*
X48950Y-27621D01*
X49078Y-27921D02*
X49078Y-27621D01*
X49150Y-27621D01*
X49193Y-27636D01*
X49221Y-27664D01*
X49236Y-27693D01*
X49250Y-27750D01*
X49250Y-27793D01*
X49236Y-27850D01*
X49221Y-27879D01*
X49193Y-27907D01*
X49150Y-27921D01*
X49078Y-27921D01*
G54D11*
X47921Y-24429D02*
X48164Y-24429D01*
X48193Y-24414D01*
X48207Y-24400D01*
X48221Y-24371D01*
X48221Y-24314D01*
X48207Y-24286D01*
X48193Y-24271D01*
X48164Y-24257D01*
X47921Y-24257D01*
X48221Y-23957D02*
X48221Y-24129D01*
X48221Y-24043D02*
X47921Y-24043D01*
X47964Y-24072D01*
X47993Y-24100D01*
X48007Y-24129D01*
X46349Y-23921D02*
X46206Y-23921D01*
X46206Y-23621D01*
X46449Y-23921D02*
X46449Y-23621D01*
X46549Y-23836D01*
X46649Y-23621D01*
X46649Y-23921D01*
X46764Y-23621D02*
X46964Y-23621D01*
X46835Y-23921D01*
X47121Y-23750D02*
X47093Y-23736D01*
X47078Y-23721D01*
X47064Y-23693D01*
X47064Y-23679D01*
X47078Y-23650D01*
X47093Y-23636D01*
X47121Y-23621D01*
X47178Y-23621D01*
X47207Y-23636D01*
X47221Y-23650D01*
X47236Y-23679D01*
X47236Y-23693D01*
X47221Y-23721D01*
X47207Y-23736D01*
X47178Y-23750D01*
X47121Y-23750D01*
X47093Y-23764D01*
X47078Y-23779D01*
X47064Y-23807D01*
X47064Y-23864D01*
X47078Y-23893D01*
X47093Y-23907D01*
X47121Y-23921D01*
X47178Y-23921D01*
X47207Y-23907D01*
X47221Y-23893D01*
X47236Y-23864D01*
X47236Y-23807D01*
X47221Y-23779D01*
X47207Y-23764D01*
X47178Y-23750D01*
X47422Y-23621D02*
X47450Y-23621D01*
X47479Y-23636D01*
X47493Y-23650D01*
X47507Y-23679D01*
X47522Y-23736D01*
X47522Y-23807D01*
X47507Y-23864D01*
X47493Y-23893D01*
X47479Y-23907D01*
X47450Y-23921D01*
X47422Y-23921D01*
X47393Y-23907D01*
X47379Y-23893D01*
X47364Y-23864D01*
X47350Y-23807D01*
X47350Y-23736D01*
X47364Y-23679D01*
X47379Y-23650D01*
X47393Y-23636D01*
X47422Y-23621D01*
X47793Y-23621D02*
X47650Y-23621D01*
X47636Y-23764D01*
X47650Y-23750D01*
X47679Y-23736D01*
X47750Y-23736D01*
X47779Y-23750D01*
X47793Y-23764D01*
X47808Y-23793D01*
X47808Y-23864D01*
X47793Y-23893D01*
X47779Y-23907D01*
X47750Y-23921D01*
X47679Y-23921D01*
X47650Y-23907D01*
X47636Y-23893D01*
G54D12*
X40143Y-50200D02*
X40571Y-50200D01*
X40657Y-50228D01*
X40714Y-50285D01*
X40743Y-50371D01*
X40743Y-50428D01*
X40200Y-49943D02*
X40171Y-49914D01*
X40143Y-49857D01*
X40143Y-49714D01*
X40171Y-49657D01*
X40200Y-49628D01*
X40257Y-49600D01*
X40314Y-49600D01*
X40400Y-49628D01*
X40743Y-49971D01*
X40743Y-49600D01*
G54D21*
X42599Y-50359D02*
X42412Y-50490D01*
X42599Y-50584D02*
X42205Y-50584D01*
X42205Y-50434D01*
X42224Y-50397D01*
X42243Y-50378D01*
X42281Y-50359D01*
X42337Y-50359D01*
X42374Y-50378D01*
X42393Y-50397D01*
X42412Y-50434D01*
X42412Y-50584D01*
X42205Y-50078D02*
X42487Y-50078D01*
X42543Y-50096D01*
X42581Y-50134D01*
X42599Y-50190D01*
X42599Y-50228D01*
X42337Y-49721D02*
X42599Y-49721D01*
X42187Y-49815D02*
X42468Y-49909D01*
X42468Y-49665D01*
X42205Y-49328D02*
X42205Y-49515D01*
X42393Y-49534D01*
X42374Y-49515D01*
X42356Y-49478D01*
X42356Y-49384D01*
X42374Y-49346D01*
X42393Y-49328D01*
X42431Y-49309D01*
X42524Y-49309D01*
X42562Y-49328D01*
X42581Y-49346D01*
X42599Y-49384D01*
X42599Y-49478D01*
X42581Y-49515D01*
X42562Y-49534D01*
G54D12*
X40143Y-43700D02*
X40571Y-43700D01*
X40657Y-43728D01*
X40714Y-43785D01*
X40743Y-43871D01*
X40743Y-43928D01*
X40743Y-43100D02*
X40743Y-43443D01*
X40743Y-43271D02*
X40143Y-43271D01*
X40229Y-43328D01*
X40286Y-43386D01*
X40314Y-43443D01*
G54D21*
X42599Y-43859D02*
X42412Y-43990D01*
X42599Y-44084D02*
X42205Y-44084D01*
X42205Y-43934D01*
X42224Y-43897D01*
X42243Y-43878D01*
X42281Y-43859D01*
X42337Y-43859D01*
X42374Y-43878D01*
X42393Y-43897D01*
X42412Y-43934D01*
X42412Y-44084D01*
X42205Y-43578D02*
X42487Y-43578D01*
X42543Y-43596D01*
X42581Y-43634D01*
X42599Y-43690D01*
X42599Y-43728D01*
X42337Y-43221D02*
X42599Y-43221D01*
X42187Y-43315D02*
X42468Y-43409D01*
X42468Y-43165D01*
X42205Y-42828D02*
X42205Y-43015D01*
X42393Y-43034D01*
X42374Y-43015D01*
X42356Y-42978D01*
X42356Y-42884D01*
X42374Y-42846D01*
X42393Y-42828D01*
X42431Y-42809D01*
X42524Y-42809D01*
X42562Y-42828D01*
X42581Y-42846D01*
X42599Y-42884D01*
X42599Y-42978D01*
X42581Y-43015D01*
X42562Y-43034D01*
G54D11*
X55435Y-24921D02*
X55435Y-24621D01*
X55550Y-24621D01*
X55578Y-24636D01*
X55593Y-24650D01*
X55607Y-24679D01*
X55607Y-24721D01*
X55593Y-24750D01*
X55578Y-24764D01*
X55550Y-24779D01*
X55435Y-24779D01*
X55707Y-24621D02*
X55907Y-24921D01*
X55907Y-24621D02*
X55707Y-24921D01*
X56164Y-24621D02*
X56021Y-24621D01*
X56007Y-24764D01*
X56021Y-24750D01*
X56050Y-24736D01*
X56121Y-24736D01*
X56150Y-24750D01*
X56164Y-24764D01*
X56179Y-24793D01*
X56179Y-24864D01*
X56164Y-24893D01*
X56150Y-24907D01*
X56121Y-24921D01*
X56050Y-24921D01*
X56021Y-24907D01*
X56007Y-24893D01*
X55435Y-25921D02*
X55435Y-25621D01*
X55550Y-25621D01*
X55578Y-25636D01*
X55593Y-25650D01*
X55607Y-25679D01*
X55607Y-25721D01*
X55593Y-25750D01*
X55578Y-25764D01*
X55550Y-25779D01*
X55435Y-25779D01*
X55707Y-25621D02*
X55907Y-25921D01*
X55907Y-25621D02*
X55707Y-25921D01*
X56150Y-25721D02*
X56150Y-25921D01*
X56079Y-25607D02*
X56007Y-25821D01*
X56193Y-25821D01*
X54435Y-34221D02*
X54435Y-33921D01*
X54550Y-33921D01*
X54578Y-33936D01*
X54593Y-33950D01*
X54607Y-33979D01*
X54607Y-34021D01*
X54593Y-34050D01*
X54578Y-34064D01*
X54550Y-34079D01*
X54435Y-34079D01*
X54707Y-33921D02*
X54907Y-34221D01*
X54907Y-33921D02*
X54707Y-34221D01*
X54993Y-33921D02*
X55179Y-33921D01*
X55079Y-34036D01*
X55121Y-34036D01*
X55150Y-34050D01*
X55164Y-34064D01*
X55179Y-34093D01*
X55179Y-34164D01*
X55164Y-34193D01*
X55150Y-34207D01*
X55121Y-34221D01*
X55036Y-34221D01*
X55007Y-34207D01*
X54993Y-34193D01*
X51335Y-38621D02*
X51335Y-38321D01*
X51450Y-38321D01*
X51478Y-38336D01*
X51493Y-38350D01*
X51507Y-38379D01*
X51507Y-38421D01*
X51493Y-38450D01*
X51478Y-38464D01*
X51450Y-38479D01*
X51335Y-38479D01*
X51607Y-38321D02*
X51807Y-38621D01*
X51807Y-38321D02*
X51607Y-38621D01*
X51907Y-38350D02*
X51921Y-38336D01*
X51950Y-38321D01*
X52021Y-38321D01*
X52050Y-38336D01*
X52064Y-38350D01*
X52079Y-38379D01*
X52079Y-38407D01*
X52064Y-38450D01*
X51893Y-38621D01*
X52079Y-38621D01*
X49235Y-32321D02*
X49235Y-32021D01*
X49350Y-32021D01*
X49378Y-32036D01*
X49393Y-32050D01*
X49407Y-32079D01*
X49407Y-32121D01*
X49393Y-32150D01*
X49378Y-32164D01*
X49350Y-32179D01*
X49235Y-32179D01*
X49507Y-32021D02*
X49707Y-32321D01*
X49707Y-32021D02*
X49507Y-32321D01*
X49979Y-32321D02*
X49807Y-32321D01*
X49893Y-32321D02*
X49893Y-32021D01*
X49864Y-32064D01*
X49836Y-32093D01*
X49807Y-32107D01*
X57607Y-25721D02*
X57607Y-25421D01*
X57722Y-25421D01*
X57750Y-25436D01*
X57765Y-25450D01*
X57779Y-25479D01*
X57779Y-25521D01*
X57765Y-25550D01*
X57750Y-25564D01*
X57722Y-25579D01*
X57607Y-25579D01*
X57893Y-25707D02*
X57936Y-25721D01*
X58007Y-25721D01*
X58036Y-25707D01*
X58050Y-25693D01*
X58065Y-25664D01*
X58065Y-25636D01*
X58050Y-25607D01*
X58036Y-25593D01*
X58007Y-25579D01*
X57950Y-25564D01*
X57922Y-25550D01*
X57907Y-25536D01*
X57893Y-25507D01*
X57893Y-25479D01*
X57907Y-25450D01*
X57922Y-25436D01*
X57950Y-25421D01*
X58022Y-25421D01*
X58065Y-25436D01*
X58251Y-25421D02*
X58308Y-25421D01*
X58336Y-25436D01*
X58365Y-25464D01*
X58379Y-25521D01*
X58379Y-25621D01*
X58365Y-25679D01*
X58336Y-25707D01*
X58308Y-25721D01*
X58251Y-25721D01*
X58222Y-25707D01*
X58193Y-25679D01*
X58179Y-25621D01*
X58179Y-25521D01*
X58193Y-25464D01*
X58222Y-25436D01*
X58251Y-25421D01*
X58507Y-25421D02*
X58507Y-25664D01*
X58522Y-25693D01*
X58536Y-25707D01*
X58565Y-25721D01*
X58622Y-25721D01*
X58650Y-25707D01*
X58665Y-25693D01*
X58679Y-25664D01*
X58679Y-25421D01*
X58779Y-25421D02*
X58950Y-25421D01*
X58864Y-25721D02*
X58864Y-25421D01*
X59208Y-25721D02*
X59036Y-25721D01*
X59122Y-25721D02*
X59122Y-25421D01*
X59093Y-25464D01*
X59065Y-25493D01*
X59036Y-25507D01*
G54D17*
X40901Y-38442D02*
X40782Y-38525D01*
X40901Y-38584D02*
X40651Y-38584D01*
X40651Y-38489D01*
X40663Y-38465D01*
X40675Y-38454D01*
X40699Y-38442D01*
X40735Y-38442D01*
X40758Y-38454D01*
X40770Y-38465D01*
X40782Y-38489D01*
X40782Y-38584D01*
X40675Y-38346D02*
X40663Y-38334D01*
X40651Y-38311D01*
X40651Y-38251D01*
X40663Y-38227D01*
X40675Y-38215D01*
X40699Y-38204D01*
X40723Y-38204D01*
X40758Y-38215D01*
X40901Y-38358D01*
X40901Y-38204D01*
X49801Y-28842D02*
X49682Y-28925D01*
X49801Y-28984D02*
X49551Y-28984D01*
X49551Y-28889D01*
X49563Y-28865D01*
X49575Y-28854D01*
X49599Y-28842D01*
X49635Y-28842D01*
X49658Y-28854D01*
X49670Y-28865D01*
X49682Y-28889D01*
X49682Y-28984D01*
X49801Y-28604D02*
X49801Y-28746D01*
X49801Y-28675D02*
X49551Y-28675D01*
X49587Y-28699D01*
X49611Y-28723D01*
X49623Y-28746D01*
X48050Y-30221D02*
X48050Y-30436D01*
X48036Y-30479D01*
X48007Y-30507D01*
X47964Y-30521D01*
X47936Y-30521D01*
X48193Y-30521D02*
X48193Y-30221D01*
X48308Y-30221D01*
X48336Y-30236D01*
X48351Y-30250D01*
X48365Y-30279D01*
X48365Y-30321D01*
X48351Y-30350D01*
X48336Y-30364D01*
X48308Y-30379D01*
X48193Y-30379D01*
X48651Y-30521D02*
X48479Y-30521D01*
X48565Y-30521D02*
X48565Y-30221D01*
X48536Y-30264D01*
X48508Y-30293D01*
X48479Y-30307D01*
G54D21*
X46761Y-38702D02*
X46761Y-38202D01*
X47232Y-38655D02*
X47211Y-38679D01*
X47147Y-38702D01*
X47104Y-38702D01*
X47039Y-38679D01*
X46997Y-38631D01*
X46975Y-38583D01*
X46954Y-38488D01*
X46954Y-38417D01*
X46975Y-38321D01*
X46997Y-38274D01*
X47039Y-38226D01*
X47104Y-38202D01*
X47147Y-38202D01*
X47211Y-38226D01*
X47232Y-38250D01*
X47404Y-38250D02*
X47425Y-38226D01*
X47468Y-38202D01*
X47575Y-38202D01*
X47618Y-38226D01*
X47639Y-38250D01*
X47661Y-38298D01*
X47661Y-38345D01*
X47639Y-38417D01*
X47382Y-38702D01*
X47661Y-38702D01*
X45624Y-37979D02*
X45681Y-38002D01*
X45777Y-38002D01*
X45815Y-37979D01*
X45834Y-37955D01*
X45853Y-37907D01*
X45853Y-37860D01*
X45834Y-37812D01*
X45815Y-37788D01*
X45777Y-37764D01*
X45700Y-37740D01*
X45662Y-37717D01*
X45643Y-37693D01*
X45624Y-37645D01*
X45624Y-37598D01*
X45643Y-37550D01*
X45662Y-37526D01*
X45700Y-37502D01*
X45796Y-37502D01*
X45853Y-37526D01*
X46024Y-38002D02*
X46024Y-37502D01*
X46253Y-38002D01*
X46253Y-37502D01*
X46405Y-37502D02*
X46672Y-37502D01*
X46500Y-38002D01*
X47015Y-37502D02*
X46824Y-37502D01*
X46805Y-37740D01*
X46824Y-37717D01*
X46862Y-37693D01*
X46958Y-37693D01*
X46996Y-37717D01*
X47015Y-37740D01*
X47034Y-37788D01*
X47034Y-37907D01*
X47015Y-37955D01*
X46996Y-37979D01*
X46958Y-38002D01*
X46862Y-38002D01*
X46824Y-37979D01*
X46805Y-37955D01*
X47415Y-38002D02*
X47186Y-38002D01*
X47300Y-38002D02*
X47300Y-37502D01*
X47262Y-37574D01*
X47224Y-37621D01*
X47186Y-37645D01*
X47548Y-37502D02*
X47815Y-37502D01*
X47643Y-38002D01*
X48139Y-37502D02*
X48062Y-37502D01*
X48024Y-37526D01*
X48005Y-37550D01*
X47967Y-37621D01*
X47948Y-37717D01*
X47948Y-37907D01*
X47967Y-37955D01*
X47986Y-37979D01*
X48024Y-38002D01*
X48101Y-38002D01*
X48139Y-37979D01*
X48158Y-37955D01*
X48177Y-37907D01*
X48177Y-37788D01*
X48158Y-37740D01*
X48139Y-37717D01*
X48101Y-37693D01*
X48024Y-37693D01*
X47986Y-37717D01*
X47967Y-37740D01*
X47948Y-37788D01*
X48482Y-37740D02*
X48539Y-37764D01*
X48558Y-37788D01*
X48577Y-37836D01*
X48577Y-37907D01*
X48558Y-37955D01*
X48539Y-37979D01*
X48501Y-38002D01*
X48348Y-38002D01*
X48348Y-37502D01*
X48482Y-37502D01*
X48520Y-37526D01*
X48539Y-37550D01*
X48558Y-37598D01*
X48558Y-37645D01*
X48539Y-37693D01*
X48520Y-37717D01*
X48482Y-37740D01*
X48348Y-37740D01*
G54D19*
X51243Y-43350D02*
X51243Y-43093D01*
X51843Y-43222D02*
X51243Y-43222D01*
X51843Y-42729D02*
X51843Y-42943D01*
X51243Y-42943D01*
X51786Y-42322D02*
X51814Y-42343D01*
X51843Y-42407D01*
X51843Y-42450D01*
X51814Y-42515D01*
X51757Y-42557D01*
X51700Y-42579D01*
X51586Y-42600D01*
X51500Y-42600D01*
X51386Y-42579D01*
X51329Y-42557D01*
X51271Y-42515D01*
X51243Y-42450D01*
X51243Y-42407D01*
X51271Y-42343D01*
X51300Y-42322D01*
X51843Y-41893D02*
X51843Y-42150D01*
X51843Y-42022D02*
X51243Y-42022D01*
X51329Y-42065D01*
X51386Y-42107D01*
X51414Y-42150D01*
X51243Y-52493D02*
X51243Y-52236D01*
X51843Y-52365D02*
X51243Y-52365D01*
X51843Y-51872D02*
X51843Y-52086D01*
X51243Y-52086D01*
X51786Y-51465D02*
X51814Y-51486D01*
X51843Y-51550D01*
X51843Y-51593D01*
X51814Y-51658D01*
X51757Y-51700D01*
X51700Y-51722D01*
X51586Y-51743D01*
X51500Y-51743D01*
X51386Y-51722D01*
X51329Y-51700D01*
X51271Y-51658D01*
X51243Y-51593D01*
X51243Y-51550D01*
X51271Y-51486D01*
X51300Y-51465D01*
X51243Y-51058D02*
X51243Y-51272D01*
X51529Y-51293D01*
X51500Y-51272D01*
X51471Y-51229D01*
X51471Y-51122D01*
X51500Y-51079D01*
X51529Y-51058D01*
X51586Y-51036D01*
X51729Y-51036D01*
X51786Y-51058D01*
X51814Y-51079D01*
X51843Y-51122D01*
X51843Y-51229D01*
X51814Y-51272D01*
X51786Y-51293D01*
X51843Y-50821D02*
X51843Y-50736D01*
X51814Y-50693D01*
X51786Y-50671D01*
X51700Y-50629D01*
X51586Y-50607D01*
X51357Y-50607D01*
X51300Y-50629D01*
X51271Y-50650D01*
X51243Y-50693D01*
X51243Y-50779D01*
X51271Y-50821D01*
X51300Y-50843D01*
X51357Y-50864D01*
X51500Y-50864D01*
X51557Y-50843D01*
X51586Y-50821D01*
X51614Y-50779D01*
X51614Y-50693D01*
X51586Y-50650D01*
X51557Y-50629D01*
X51500Y-50607D01*
X51443Y-50221D02*
X51843Y-50221D01*
X51214Y-50328D02*
X51643Y-50435D01*
X51643Y-50157D01*
X51243Y-49899D02*
X51243Y-49856D01*
X51271Y-49813D01*
X51300Y-49792D01*
X51357Y-49771D01*
X51471Y-49749D01*
X51614Y-49749D01*
X51729Y-49771D01*
X51786Y-49792D01*
X51814Y-49813D01*
X51843Y-49856D01*
X51843Y-49899D01*
X51814Y-49942D01*
X51786Y-49963D01*
X51729Y-49985D01*
X51614Y-50006D01*
X51471Y-50006D01*
X51357Y-49985D01*
X51300Y-49963D01*
X51271Y-49942D01*
X51243Y-49899D01*
X58043Y-43350D02*
X58043Y-43093D01*
X58643Y-43222D02*
X58043Y-43222D01*
X58643Y-42729D02*
X58643Y-42943D01*
X58043Y-42943D01*
X58586Y-42322D02*
X58614Y-42343D01*
X58643Y-42407D01*
X58643Y-42450D01*
X58614Y-42515D01*
X58557Y-42557D01*
X58500Y-42579D01*
X58386Y-42600D01*
X58300Y-42600D01*
X58186Y-42579D01*
X58129Y-42557D01*
X58071Y-42515D01*
X58043Y-42450D01*
X58043Y-42407D01*
X58071Y-42343D01*
X58100Y-42322D01*
X58100Y-42150D02*
X58071Y-42129D01*
X58043Y-42086D01*
X58043Y-41979D01*
X58071Y-41936D01*
X58100Y-41915D01*
X58157Y-41893D01*
X58214Y-41893D01*
X58300Y-41915D01*
X58643Y-42172D01*
X58643Y-41893D01*
X58043Y-52493D02*
X58043Y-52236D01*
X58643Y-52365D02*
X58043Y-52365D01*
X58643Y-51872D02*
X58643Y-52086D01*
X58043Y-52086D01*
X58586Y-51465D02*
X58614Y-51486D01*
X58643Y-51550D01*
X58643Y-51593D01*
X58614Y-51658D01*
X58557Y-51700D01*
X58500Y-51722D01*
X58386Y-51743D01*
X58300Y-51743D01*
X58186Y-51722D01*
X58129Y-51700D01*
X58071Y-51658D01*
X58043Y-51593D01*
X58043Y-51550D01*
X58071Y-51486D01*
X58100Y-51465D01*
X58043Y-51058D02*
X58043Y-51272D01*
X58329Y-51293D01*
X58300Y-51272D01*
X58271Y-51229D01*
X58271Y-51122D01*
X58300Y-51079D01*
X58329Y-51058D01*
X58386Y-51036D01*
X58529Y-51036D01*
X58586Y-51058D01*
X58614Y-51079D01*
X58643Y-51122D01*
X58643Y-51229D01*
X58614Y-51272D01*
X58586Y-51293D01*
X58643Y-50821D02*
X58643Y-50736D01*
X58614Y-50693D01*
X58586Y-50671D01*
X58500Y-50629D01*
X58386Y-50607D01*
X58157Y-50607D01*
X58100Y-50629D01*
X58071Y-50650D01*
X58043Y-50693D01*
X58043Y-50779D01*
X58071Y-50821D01*
X58100Y-50843D01*
X58157Y-50864D01*
X58300Y-50864D01*
X58357Y-50843D01*
X58386Y-50821D01*
X58414Y-50779D01*
X58414Y-50693D01*
X58386Y-50650D01*
X58357Y-50629D01*
X58300Y-50607D01*
X58243Y-50221D02*
X58643Y-50221D01*
X58014Y-50328D02*
X58443Y-50435D01*
X58443Y-50157D01*
X58043Y-49899D02*
X58043Y-49856D01*
X58071Y-49813D01*
X58100Y-49792D01*
X58157Y-49771D01*
X58271Y-49749D01*
X58414Y-49749D01*
X58529Y-49771D01*
X58586Y-49792D01*
X58614Y-49813D01*
X58643Y-49856D01*
X58643Y-49899D01*
X58614Y-49942D01*
X58586Y-49963D01*
X58529Y-49985D01*
X58414Y-50006D01*
X58271Y-50006D01*
X58157Y-49985D01*
X58100Y-49963D01*
X58071Y-49942D01*
X58043Y-49899D01*
X58043Y-36550D02*
X58043Y-36293D01*
X58643Y-36422D02*
X58043Y-36422D01*
X58643Y-35929D02*
X58643Y-36143D01*
X58043Y-36143D01*
X58586Y-35522D02*
X58614Y-35543D01*
X58643Y-35607D01*
X58643Y-35650D01*
X58614Y-35715D01*
X58557Y-35757D01*
X58500Y-35779D01*
X58386Y-35800D01*
X58300Y-35800D01*
X58186Y-35779D01*
X58129Y-35757D01*
X58071Y-35715D01*
X58043Y-35650D01*
X58043Y-35607D01*
X58071Y-35543D01*
X58100Y-35522D01*
X58043Y-35372D02*
X58043Y-35093D01*
X58271Y-35243D01*
X58271Y-35179D01*
X58300Y-35136D01*
X58329Y-35115D01*
X58386Y-35093D01*
X58529Y-35093D01*
X58586Y-35115D01*
X58614Y-35136D01*
X58643Y-35179D01*
X58643Y-35307D01*
X58614Y-35350D01*
X58586Y-35372D01*
X58043Y-29893D02*
X58043Y-29636D01*
X58643Y-29765D02*
X58043Y-29765D01*
X58643Y-29272D02*
X58643Y-29486D01*
X58043Y-29486D01*
X58586Y-28865D02*
X58614Y-28886D01*
X58643Y-28950D01*
X58643Y-28993D01*
X58614Y-29058D01*
X58557Y-29100D01*
X58500Y-29122D01*
X58386Y-29143D01*
X58300Y-29143D01*
X58186Y-29122D01*
X58129Y-29100D01*
X58071Y-29058D01*
X58043Y-28993D01*
X58043Y-28950D01*
X58071Y-28886D01*
X58100Y-28865D01*
X58043Y-28458D02*
X58043Y-28672D01*
X58329Y-28693D01*
X58300Y-28672D01*
X58271Y-28629D01*
X58271Y-28522D01*
X58300Y-28479D01*
X58329Y-28458D01*
X58386Y-28436D01*
X58529Y-28436D01*
X58586Y-28458D01*
X58614Y-28479D01*
X58643Y-28522D01*
X58643Y-28629D01*
X58614Y-28672D01*
X58586Y-28693D01*
X58643Y-28221D02*
X58643Y-28136D01*
X58614Y-28093D01*
X58586Y-28071D01*
X58500Y-28029D01*
X58386Y-28007D01*
X58157Y-28007D01*
X58100Y-28029D01*
X58071Y-28050D01*
X58043Y-28093D01*
X58043Y-28179D01*
X58071Y-28221D01*
X58100Y-28243D01*
X58157Y-28264D01*
X58300Y-28264D01*
X58357Y-28243D01*
X58386Y-28221D01*
X58414Y-28179D01*
X58414Y-28093D01*
X58386Y-28050D01*
X58357Y-28029D01*
X58300Y-28007D01*
X58243Y-27621D02*
X58643Y-27621D01*
X58014Y-27728D02*
X58443Y-27835D01*
X58443Y-27557D01*
X58043Y-27299D02*
X58043Y-27256D01*
X58071Y-27213D01*
X58100Y-27192D01*
X58157Y-27171D01*
X58271Y-27149D01*
X58414Y-27149D01*
X58529Y-27171D01*
X58586Y-27192D01*
X58614Y-27213D01*
X58643Y-27256D01*
X58643Y-27299D01*
X58614Y-27342D01*
X58586Y-27363D01*
X58529Y-27385D01*
X58414Y-27406D01*
X58271Y-27406D01*
X58157Y-27385D01*
X58100Y-27363D01*
X58071Y-27342D01*
X58043Y-27299D01*
M02*
