M48
;DRILL file {Pcbnew (2012-03-17 BZR 3466)-stable} date Sat 03 Nov 2012 11:17:11 PM EDT
;FORMAT={-:-/ absolute / inch / decimal}
FMAT,2
INCH,TZ
T1C0.012
T2C0.032
T3C0.032
T4C0.035
T5C0.040
T6C0.045
T7C0.050
T8C0.053
T9C0.120
%
G90
G05
M72
T1
X2.715Y-3.090
X2.740Y-3.160
X2.775Y-3.310
X3.065Y-4.465
X3.125Y-4.420
X3.270Y-4.115
X3.580Y-3.470
X3.580Y-3.570
X3.820Y-4.395
X3.860Y-3.590
X4.250Y-2.940
X4.250Y-3.040
X4.250Y-3.140
X4.250Y-3.240
X4.250Y-3.340
X4.410Y-3.430
X4.450Y-3.430
X4.490Y-3.430
X4.530Y-3.430
X4.980Y-4.490
X5.360Y-3.225
X5.490Y-4.440
T2
X5.450Y-2.980
X5.450Y-3.080
T3
X2.570Y-3.730
X2.570Y-4.030
X2.570Y-4.310
X2.570Y-4.610
X2.575Y-2.915
X2.670Y-3.730
X2.670Y-4.030
X2.670Y-4.310
X2.670Y-4.610
X2.770Y-3.730
X2.770Y-4.030
X2.770Y-4.310
X2.770Y-4.610
X2.775Y-2.915
X2.870Y-3.730
X2.870Y-4.030
X2.870Y-4.310
X2.870Y-4.610
X2.970Y-3.730
X2.970Y-4.030
X2.970Y-4.310
X2.970Y-4.610
X3.070Y-3.730
X3.070Y-4.030
X3.070Y-4.310
X3.070Y-4.610
X3.170Y-3.730
X3.170Y-4.030
X3.170Y-4.310
X3.170Y-4.610
X3.270Y-3.730
X3.270Y-4.030
X3.270Y-4.310
X3.270Y-4.610
X3.370Y-3.730
X3.370Y-4.030
X3.370Y-4.310
X3.370Y-4.610
X3.470Y-3.730
X3.470Y-4.030
X3.470Y-4.310
X3.470Y-4.610
X3.570Y-3.730
X3.570Y-4.030
X3.570Y-4.310
X3.570Y-4.610
X3.670Y-3.730
X3.670Y-4.030
X3.670Y-4.310
X3.670Y-4.610
X3.770Y-3.730
X3.770Y-4.030
X3.770Y-4.310
X3.770Y-4.610
X3.870Y-3.730
X3.870Y-4.030
X3.870Y-4.310
X3.870Y-4.610
X4.560Y-3.730
X4.560Y-4.030
X4.560Y-4.310
X4.560Y-4.610
X4.660Y-3.730
X4.660Y-4.030
X4.660Y-4.310
X4.660Y-4.610
X4.760Y-3.730
X4.760Y-4.030
X4.760Y-4.310
X4.760Y-4.610
X4.860Y-3.730
X4.860Y-4.030
X4.860Y-4.310
X4.860Y-4.610
X4.960Y-3.730
X4.960Y-4.030
X4.960Y-4.310
X4.960Y-4.610
X5.060Y-3.730
X5.060Y-4.030
X5.060Y-4.310
X5.060Y-4.610
X5.160Y-3.730
X5.160Y-4.030
X5.160Y-4.310
X5.160Y-4.610
X5.260Y-3.730
X5.260Y-4.030
X5.260Y-4.310
X5.260Y-4.610
X5.360Y-3.730
X5.360Y-4.030
X5.360Y-4.310
X5.360Y-4.610
X5.460Y-3.730
X5.460Y-4.030
X5.460Y-4.310
X5.460Y-4.610
X5.560Y-3.730
X5.560Y-4.030
X5.560Y-4.310
X5.560Y-4.610
X5.660Y-3.730
X5.660Y-4.030
X5.660Y-4.310
X5.660Y-4.610
X5.760Y-3.730
X5.760Y-4.030
X5.760Y-4.310
X5.760Y-4.610
X5.860Y-3.730
X5.860Y-4.030
X5.860Y-4.310
X5.860Y-4.610
T4
X3.035Y-3.520
X3.085Y-3.420
X3.135Y-3.520
X3.185Y-3.420
X3.235Y-3.520
X3.285Y-3.420
X3.335Y-3.520
X3.385Y-3.420
X3.685Y-3.520
X3.735Y-3.420
X3.785Y-3.520
X3.835Y-3.420
X3.885Y-3.520
X3.935Y-3.420
X3.985Y-3.520
X4.035Y-3.420
T6
X4.610Y-2.980
X4.710Y-2.980
X4.810Y-2.980
T7
X2.515Y-3.015
X2.835Y-3.015
T8
X2.335Y-5.050
X2.532Y-5.050
X2.728Y-5.050
X2.925Y-5.050
X3.125Y-5.050
X3.322Y-5.050
X3.518Y-5.050
X3.715Y-5.050
X3.915Y-5.050
X4.112Y-5.050
X4.309Y-5.050
X4.505Y-5.050
X4.705Y-5.050
X4.902Y-5.050
X5.099Y-5.050
X5.295Y-5.050
X5.495Y-5.050
X5.692Y-5.050
X5.889Y-5.050
X6.085Y-5.050
T9
X2.320Y-2.960
X2.320Y-4.710
X6.110Y-2.960
X6.110Y-4.710
T5
X4.890Y-3.240G85X4.890Y-3.300
G05
X5.120Y-3.180G85X5.060Y-3.180
G05
X5.120Y-3.420G85X5.060Y-3.420
G05
X5.600Y-3.240G85X5.600Y-3.300
G05
X5.830Y-3.180G85X5.770Y-3.180
G05
X5.830Y-3.420G85X5.770Y-3.420
G05
T0
M30
