G04 (created by PCBNEW-RS274X (2011-07-08)-stable) date Sun 14 Aug 2011 04:05:59 PM EDT*
G01*
G70*
G90*
%MOIN*%
G04 Gerber Fmt 3.4, Leading zero omitted, Abs format*
%FSLAX34Y34*%
G04 APERTURE LIST*
%ADD10C,0.006000*%
%ADD11C,0.005000*%
%ADD12C,0.002600*%
%ADD13C,0.004000*%
%ADD14C,0.004500*%
%ADD15C,0.003500*%
G04 APERTURE END LIST*
G54D10*
G54D11*
X75750Y-56050D02*
X76650Y-56050D01*
X76650Y-56050D02*
X76650Y-55550D01*
X76650Y-55550D02*
X75750Y-55550D01*
X75750Y-55550D02*
X75750Y-56050D01*
X86850Y-51650D02*
X86849Y-51659D01*
X86846Y-51669D01*
X86841Y-51677D01*
X86835Y-51685D01*
X86827Y-51691D01*
X86819Y-51696D01*
X86810Y-51698D01*
X86800Y-51699D01*
X86791Y-51699D01*
X86782Y-51696D01*
X86773Y-51691D01*
X86766Y-51685D01*
X86759Y-51678D01*
X86755Y-51669D01*
X86752Y-51660D01*
X86751Y-51650D01*
X86751Y-51641D01*
X86754Y-51632D01*
X86758Y-51623D01*
X86765Y-51616D01*
X86772Y-51609D01*
X86780Y-51605D01*
X86790Y-51602D01*
X86799Y-51601D01*
X86808Y-51601D01*
X86818Y-51604D01*
X86826Y-51608D01*
X86834Y-51614D01*
X86840Y-51622D01*
X86845Y-51630D01*
X86848Y-51639D01*
X86849Y-51649D01*
X86850Y-51650D01*
X86800Y-51200D02*
X86800Y-51600D01*
X86800Y-51600D02*
X87400Y-51600D01*
X87400Y-51600D02*
X87400Y-51200D01*
X87400Y-50800D02*
X87400Y-50400D01*
X87400Y-50400D02*
X86800Y-50400D01*
X86800Y-50400D02*
X86800Y-50800D01*
X77650Y-55200D02*
X77650Y-55300D01*
X77650Y-55300D02*
X76750Y-55300D01*
X76750Y-55300D02*
X76750Y-55200D01*
X77650Y-55200D02*
X76750Y-55200D01*
X76750Y-55200D02*
X76750Y-54550D01*
X77650Y-53850D02*
X77650Y-53200D01*
X77650Y-53200D02*
X76750Y-53200D01*
X76750Y-53200D02*
X76750Y-53850D01*
X77650Y-54550D02*
X77650Y-55200D01*
X87300Y-53150D02*
X87300Y-54050D01*
X87300Y-54050D02*
X86650Y-54050D01*
X85950Y-53150D02*
X85300Y-53150D01*
X85300Y-53150D02*
X85300Y-54050D01*
X85300Y-54050D02*
X85950Y-54050D01*
X86650Y-53150D02*
X87300Y-53150D01*
X77950Y-54850D02*
X77949Y-54859D01*
X77946Y-54869D01*
X77941Y-54877D01*
X77935Y-54885D01*
X77927Y-54891D01*
X77919Y-54896D01*
X77910Y-54898D01*
X77900Y-54899D01*
X77891Y-54899D01*
X77882Y-54896D01*
X77873Y-54891D01*
X77866Y-54885D01*
X77859Y-54878D01*
X77855Y-54869D01*
X77852Y-54860D01*
X77851Y-54850D01*
X77851Y-54841D01*
X77854Y-54832D01*
X77858Y-54823D01*
X77865Y-54816D01*
X77872Y-54809D01*
X77880Y-54805D01*
X77890Y-54802D01*
X77899Y-54801D01*
X77908Y-54801D01*
X77918Y-54804D01*
X77926Y-54808D01*
X77934Y-54814D01*
X77940Y-54822D01*
X77945Y-54830D01*
X77948Y-54839D01*
X77949Y-54849D01*
X77950Y-54850D01*
X77900Y-54400D02*
X77900Y-54800D01*
X77900Y-54800D02*
X78500Y-54800D01*
X78500Y-54800D02*
X78500Y-54400D01*
X78500Y-54000D02*
X78500Y-53600D01*
X78500Y-53600D02*
X77900Y-53600D01*
X77900Y-53600D02*
X77900Y-54000D01*
X81150Y-55650D02*
X81149Y-55659D01*
X81146Y-55669D01*
X81141Y-55677D01*
X81135Y-55685D01*
X81127Y-55691D01*
X81119Y-55696D01*
X81110Y-55698D01*
X81100Y-55699D01*
X81091Y-55699D01*
X81082Y-55696D01*
X81073Y-55691D01*
X81066Y-55685D01*
X81059Y-55678D01*
X81055Y-55669D01*
X81052Y-55660D01*
X81051Y-55650D01*
X81051Y-55641D01*
X81054Y-55632D01*
X81058Y-55623D01*
X81065Y-55616D01*
X81072Y-55609D01*
X81080Y-55605D01*
X81090Y-55602D01*
X81099Y-55601D01*
X81108Y-55601D01*
X81118Y-55604D01*
X81126Y-55608D01*
X81134Y-55614D01*
X81140Y-55622D01*
X81145Y-55630D01*
X81148Y-55639D01*
X81149Y-55649D01*
X81150Y-55650D01*
X81100Y-55200D02*
X81100Y-55600D01*
X81100Y-55600D02*
X81700Y-55600D01*
X81700Y-55600D02*
X81700Y-55200D01*
X81700Y-54800D02*
X81700Y-54400D01*
X81700Y-54400D02*
X81100Y-54400D01*
X81100Y-54400D02*
X81100Y-54800D01*
X80550Y-53250D02*
X80549Y-53259D01*
X80546Y-53269D01*
X80541Y-53277D01*
X80535Y-53285D01*
X80527Y-53291D01*
X80519Y-53296D01*
X80510Y-53298D01*
X80500Y-53299D01*
X80491Y-53299D01*
X80482Y-53296D01*
X80473Y-53291D01*
X80466Y-53285D01*
X80459Y-53278D01*
X80455Y-53269D01*
X80452Y-53260D01*
X80451Y-53250D01*
X80451Y-53241D01*
X80454Y-53232D01*
X80458Y-53223D01*
X80465Y-53216D01*
X80472Y-53209D01*
X80480Y-53205D01*
X80490Y-53202D01*
X80499Y-53201D01*
X80508Y-53201D01*
X80518Y-53204D01*
X80526Y-53208D01*
X80534Y-53214D01*
X80540Y-53222D01*
X80545Y-53230D01*
X80548Y-53239D01*
X80549Y-53249D01*
X80550Y-53250D01*
X80500Y-53700D02*
X80500Y-53300D01*
X80500Y-53300D02*
X79900Y-53300D01*
X79900Y-53300D02*
X79900Y-53700D01*
X79900Y-54100D02*
X79900Y-54500D01*
X79900Y-54500D02*
X80500Y-54500D01*
X80500Y-54500D02*
X80500Y-54100D01*
X83150Y-53650D02*
X83149Y-53659D01*
X83146Y-53669D01*
X83141Y-53677D01*
X83135Y-53685D01*
X83127Y-53691D01*
X83119Y-53696D01*
X83110Y-53698D01*
X83100Y-53699D01*
X83091Y-53699D01*
X83082Y-53696D01*
X83073Y-53691D01*
X83066Y-53685D01*
X83059Y-53678D01*
X83055Y-53669D01*
X83052Y-53660D01*
X83051Y-53650D01*
X83051Y-53641D01*
X83054Y-53632D01*
X83058Y-53623D01*
X83065Y-53616D01*
X83072Y-53609D01*
X83080Y-53605D01*
X83090Y-53602D01*
X83099Y-53601D01*
X83108Y-53601D01*
X83118Y-53604D01*
X83126Y-53608D01*
X83134Y-53614D01*
X83140Y-53622D01*
X83145Y-53630D01*
X83148Y-53639D01*
X83149Y-53649D01*
X83150Y-53650D01*
X83100Y-53200D02*
X83100Y-53600D01*
X83100Y-53600D02*
X83700Y-53600D01*
X83700Y-53600D02*
X83700Y-53200D01*
X83700Y-52800D02*
X83700Y-52400D01*
X83700Y-52400D02*
X83100Y-52400D01*
X83100Y-52400D02*
X83100Y-52800D01*
X83750Y-54350D02*
X83749Y-54359D01*
X83746Y-54369D01*
X83741Y-54377D01*
X83735Y-54385D01*
X83727Y-54391D01*
X83719Y-54396D01*
X83710Y-54398D01*
X83700Y-54399D01*
X83691Y-54399D01*
X83682Y-54396D01*
X83673Y-54391D01*
X83666Y-54385D01*
X83659Y-54378D01*
X83655Y-54369D01*
X83652Y-54360D01*
X83651Y-54350D01*
X83651Y-54341D01*
X83654Y-54332D01*
X83658Y-54323D01*
X83665Y-54316D01*
X83672Y-54309D01*
X83680Y-54305D01*
X83690Y-54302D01*
X83699Y-54301D01*
X83708Y-54301D01*
X83718Y-54304D01*
X83726Y-54308D01*
X83734Y-54314D01*
X83740Y-54322D01*
X83745Y-54330D01*
X83748Y-54339D01*
X83749Y-54349D01*
X83750Y-54350D01*
X83700Y-54800D02*
X83700Y-54400D01*
X83700Y-54400D02*
X83100Y-54400D01*
X83100Y-54400D02*
X83100Y-54800D01*
X83100Y-55200D02*
X83100Y-55600D01*
X83100Y-55600D02*
X83700Y-55600D01*
X83700Y-55600D02*
X83700Y-55200D01*
G54D12*
X80761Y-52761D02*
X80839Y-52761D01*
X80839Y-52761D02*
X80839Y-52839D01*
X80761Y-52839D02*
X80839Y-52839D01*
X80761Y-52761D02*
X80761Y-52839D01*
X80977Y-52525D02*
X81114Y-52525D01*
X81114Y-52525D02*
X81114Y-52623D01*
X80977Y-52623D02*
X81114Y-52623D01*
X80977Y-52525D02*
X80977Y-52623D01*
X81114Y-52525D02*
X81154Y-52525D01*
X81154Y-52525D02*
X81154Y-52996D01*
X81114Y-52996D02*
X81154Y-52996D01*
X81114Y-52525D02*
X81114Y-52996D01*
X81114Y-53016D02*
X81154Y-53016D01*
X81154Y-53016D02*
X81154Y-53075D01*
X81114Y-53075D02*
X81154Y-53075D01*
X81114Y-53016D02*
X81114Y-53075D01*
X80446Y-52525D02*
X80486Y-52525D01*
X80486Y-52525D02*
X80486Y-52996D01*
X80446Y-52996D02*
X80486Y-52996D01*
X80446Y-52525D02*
X80446Y-52996D01*
X80446Y-53016D02*
X80486Y-53016D01*
X80486Y-53016D02*
X80486Y-53075D01*
X80446Y-53075D02*
X80486Y-53075D01*
X80446Y-53016D02*
X80446Y-53075D01*
X80977Y-52525D02*
X81036Y-52525D01*
X81036Y-52525D02*
X81036Y-52623D01*
X80977Y-52623D02*
X81036Y-52623D01*
X80977Y-52525D02*
X80977Y-52623D01*
G54D13*
X81410Y-52505D02*
X80190Y-52505D01*
X80190Y-52505D02*
X80190Y-53095D01*
X80190Y-53095D02*
X81410Y-53095D01*
X81410Y-53095D02*
X81410Y-52505D01*
X81015Y-52605D02*
X80997Y-52587D01*
X80978Y-52571D01*
X80957Y-52556D01*
X80935Y-52543D01*
X80912Y-52532D01*
X80888Y-52523D01*
X80864Y-52517D01*
X80839Y-52512D01*
X80814Y-52510D01*
X80789Y-52510D01*
X80764Y-52512D01*
X80739Y-52516D01*
X80714Y-52523D01*
X80691Y-52531D01*
X80667Y-52542D01*
X80645Y-52554D01*
X80625Y-52569D01*
X80605Y-52585D01*
X80587Y-52603D01*
X80586Y-52604D01*
X80585Y-52605D02*
X80569Y-52625D01*
X80554Y-52645D01*
X80542Y-52667D01*
X80531Y-52691D01*
X80523Y-52714D01*
X80516Y-52739D01*
X80512Y-52764D01*
X80510Y-52789D01*
X80510Y-52814D01*
X80512Y-52839D01*
X80517Y-52864D01*
X80523Y-52888D01*
X80532Y-52912D01*
X80543Y-52935D01*
X80556Y-52957D01*
X80571Y-52978D01*
X80585Y-52995D01*
X80585Y-52995D02*
X80603Y-53013D01*
X80622Y-53029D01*
X80643Y-53044D01*
X80665Y-53057D01*
X80688Y-53068D01*
X80712Y-53077D01*
X80736Y-53083D01*
X80761Y-53088D01*
X80786Y-53090D01*
X80811Y-53090D01*
X80836Y-53088D01*
X80861Y-53084D01*
X80886Y-53077D01*
X80909Y-53069D01*
X80933Y-53058D01*
X80955Y-53046D01*
X80975Y-53031D01*
X80995Y-53015D01*
X81013Y-52997D01*
X81014Y-52996D01*
X81015Y-52995D02*
X81031Y-52975D01*
X81046Y-52955D01*
X81058Y-52933D01*
X81069Y-52909D01*
X81077Y-52886D01*
X81084Y-52861D01*
X81088Y-52836D01*
X81090Y-52811D01*
X81090Y-52786D01*
X81088Y-52761D01*
X81083Y-52736D01*
X81077Y-52712D01*
X81068Y-52688D01*
X81057Y-52665D01*
X81044Y-52643D01*
X81029Y-52622D01*
X81015Y-52605D01*
G54D11*
X46750Y-56050D02*
X47650Y-56050D01*
X47650Y-56050D02*
X47650Y-55550D01*
X47650Y-55550D02*
X46750Y-55550D01*
X46750Y-55550D02*
X46750Y-56050D01*
X57850Y-51650D02*
X57849Y-51659D01*
X57846Y-51669D01*
X57841Y-51677D01*
X57835Y-51685D01*
X57827Y-51691D01*
X57819Y-51696D01*
X57810Y-51698D01*
X57800Y-51699D01*
X57791Y-51699D01*
X57782Y-51696D01*
X57773Y-51691D01*
X57766Y-51685D01*
X57759Y-51678D01*
X57755Y-51669D01*
X57752Y-51660D01*
X57751Y-51650D01*
X57751Y-51641D01*
X57754Y-51632D01*
X57758Y-51623D01*
X57765Y-51616D01*
X57772Y-51609D01*
X57780Y-51605D01*
X57790Y-51602D01*
X57799Y-51601D01*
X57808Y-51601D01*
X57818Y-51604D01*
X57826Y-51608D01*
X57834Y-51614D01*
X57840Y-51622D01*
X57845Y-51630D01*
X57848Y-51639D01*
X57849Y-51649D01*
X57850Y-51650D01*
X57800Y-51200D02*
X57800Y-51600D01*
X57800Y-51600D02*
X58400Y-51600D01*
X58400Y-51600D02*
X58400Y-51200D01*
X58400Y-50800D02*
X58400Y-50400D01*
X58400Y-50400D02*
X57800Y-50400D01*
X57800Y-50400D02*
X57800Y-50800D01*
X48650Y-55200D02*
X48650Y-55300D01*
X48650Y-55300D02*
X47750Y-55300D01*
X47750Y-55300D02*
X47750Y-55200D01*
X48650Y-55200D02*
X47750Y-55200D01*
X47750Y-55200D02*
X47750Y-54550D01*
X48650Y-53850D02*
X48650Y-53200D01*
X48650Y-53200D02*
X47750Y-53200D01*
X47750Y-53200D02*
X47750Y-53850D01*
X48650Y-54550D02*
X48650Y-55200D01*
X58300Y-53150D02*
X58300Y-54050D01*
X58300Y-54050D02*
X57650Y-54050D01*
X56950Y-53150D02*
X56300Y-53150D01*
X56300Y-53150D02*
X56300Y-54050D01*
X56300Y-54050D02*
X56950Y-54050D01*
X57650Y-53150D02*
X58300Y-53150D01*
X48950Y-54850D02*
X48949Y-54859D01*
X48946Y-54869D01*
X48941Y-54877D01*
X48935Y-54885D01*
X48927Y-54891D01*
X48919Y-54896D01*
X48910Y-54898D01*
X48900Y-54899D01*
X48891Y-54899D01*
X48882Y-54896D01*
X48873Y-54891D01*
X48866Y-54885D01*
X48859Y-54878D01*
X48855Y-54869D01*
X48852Y-54860D01*
X48851Y-54850D01*
X48851Y-54841D01*
X48854Y-54832D01*
X48858Y-54823D01*
X48865Y-54816D01*
X48872Y-54809D01*
X48880Y-54805D01*
X48890Y-54802D01*
X48899Y-54801D01*
X48908Y-54801D01*
X48918Y-54804D01*
X48926Y-54808D01*
X48934Y-54814D01*
X48940Y-54822D01*
X48945Y-54830D01*
X48948Y-54839D01*
X48949Y-54849D01*
X48950Y-54850D01*
X48900Y-54400D02*
X48900Y-54800D01*
X48900Y-54800D02*
X49500Y-54800D01*
X49500Y-54800D02*
X49500Y-54400D01*
X49500Y-54000D02*
X49500Y-53600D01*
X49500Y-53600D02*
X48900Y-53600D01*
X48900Y-53600D02*
X48900Y-54000D01*
X52150Y-55650D02*
X52149Y-55659D01*
X52146Y-55669D01*
X52141Y-55677D01*
X52135Y-55685D01*
X52127Y-55691D01*
X52119Y-55696D01*
X52110Y-55698D01*
X52100Y-55699D01*
X52091Y-55699D01*
X52082Y-55696D01*
X52073Y-55691D01*
X52066Y-55685D01*
X52059Y-55678D01*
X52055Y-55669D01*
X52052Y-55660D01*
X52051Y-55650D01*
X52051Y-55641D01*
X52054Y-55632D01*
X52058Y-55623D01*
X52065Y-55616D01*
X52072Y-55609D01*
X52080Y-55605D01*
X52090Y-55602D01*
X52099Y-55601D01*
X52108Y-55601D01*
X52118Y-55604D01*
X52126Y-55608D01*
X52134Y-55614D01*
X52140Y-55622D01*
X52145Y-55630D01*
X52148Y-55639D01*
X52149Y-55649D01*
X52150Y-55650D01*
X52100Y-55200D02*
X52100Y-55600D01*
X52100Y-55600D02*
X52700Y-55600D01*
X52700Y-55600D02*
X52700Y-55200D01*
X52700Y-54800D02*
X52700Y-54400D01*
X52700Y-54400D02*
X52100Y-54400D01*
X52100Y-54400D02*
X52100Y-54800D01*
X51550Y-53250D02*
X51549Y-53259D01*
X51546Y-53269D01*
X51541Y-53277D01*
X51535Y-53285D01*
X51527Y-53291D01*
X51519Y-53296D01*
X51510Y-53298D01*
X51500Y-53299D01*
X51491Y-53299D01*
X51482Y-53296D01*
X51473Y-53291D01*
X51466Y-53285D01*
X51459Y-53278D01*
X51455Y-53269D01*
X51452Y-53260D01*
X51451Y-53250D01*
X51451Y-53241D01*
X51454Y-53232D01*
X51458Y-53223D01*
X51465Y-53216D01*
X51472Y-53209D01*
X51480Y-53205D01*
X51490Y-53202D01*
X51499Y-53201D01*
X51508Y-53201D01*
X51518Y-53204D01*
X51526Y-53208D01*
X51534Y-53214D01*
X51540Y-53222D01*
X51545Y-53230D01*
X51548Y-53239D01*
X51549Y-53249D01*
X51550Y-53250D01*
X51500Y-53700D02*
X51500Y-53300D01*
X51500Y-53300D02*
X50900Y-53300D01*
X50900Y-53300D02*
X50900Y-53700D01*
X50900Y-54100D02*
X50900Y-54500D01*
X50900Y-54500D02*
X51500Y-54500D01*
X51500Y-54500D02*
X51500Y-54100D01*
X54150Y-53650D02*
X54149Y-53659D01*
X54146Y-53669D01*
X54141Y-53677D01*
X54135Y-53685D01*
X54127Y-53691D01*
X54119Y-53696D01*
X54110Y-53698D01*
X54100Y-53699D01*
X54091Y-53699D01*
X54082Y-53696D01*
X54073Y-53691D01*
X54066Y-53685D01*
X54059Y-53678D01*
X54055Y-53669D01*
X54052Y-53660D01*
X54051Y-53650D01*
X54051Y-53641D01*
X54054Y-53632D01*
X54058Y-53623D01*
X54065Y-53616D01*
X54072Y-53609D01*
X54080Y-53605D01*
X54090Y-53602D01*
X54099Y-53601D01*
X54108Y-53601D01*
X54118Y-53604D01*
X54126Y-53608D01*
X54134Y-53614D01*
X54140Y-53622D01*
X54145Y-53630D01*
X54148Y-53639D01*
X54149Y-53649D01*
X54150Y-53650D01*
X54100Y-53200D02*
X54100Y-53600D01*
X54100Y-53600D02*
X54700Y-53600D01*
X54700Y-53600D02*
X54700Y-53200D01*
X54700Y-52800D02*
X54700Y-52400D01*
X54700Y-52400D02*
X54100Y-52400D01*
X54100Y-52400D02*
X54100Y-52800D01*
X54750Y-54350D02*
X54749Y-54359D01*
X54746Y-54369D01*
X54741Y-54377D01*
X54735Y-54385D01*
X54727Y-54391D01*
X54719Y-54396D01*
X54710Y-54398D01*
X54700Y-54399D01*
X54691Y-54399D01*
X54682Y-54396D01*
X54673Y-54391D01*
X54666Y-54385D01*
X54659Y-54378D01*
X54655Y-54369D01*
X54652Y-54360D01*
X54651Y-54350D01*
X54651Y-54341D01*
X54654Y-54332D01*
X54658Y-54323D01*
X54665Y-54316D01*
X54672Y-54309D01*
X54680Y-54305D01*
X54690Y-54302D01*
X54699Y-54301D01*
X54708Y-54301D01*
X54718Y-54304D01*
X54726Y-54308D01*
X54734Y-54314D01*
X54740Y-54322D01*
X54745Y-54330D01*
X54748Y-54339D01*
X54749Y-54349D01*
X54750Y-54350D01*
X54700Y-54800D02*
X54700Y-54400D01*
X54700Y-54400D02*
X54100Y-54400D01*
X54100Y-54400D02*
X54100Y-54800D01*
X54100Y-55200D02*
X54100Y-55600D01*
X54100Y-55600D02*
X54700Y-55600D01*
X54700Y-55600D02*
X54700Y-55200D01*
G54D12*
X51761Y-52761D02*
X51839Y-52761D01*
X51839Y-52761D02*
X51839Y-52839D01*
X51761Y-52839D02*
X51839Y-52839D01*
X51761Y-52761D02*
X51761Y-52839D01*
X51977Y-52525D02*
X52114Y-52525D01*
X52114Y-52525D02*
X52114Y-52623D01*
X51977Y-52623D02*
X52114Y-52623D01*
X51977Y-52525D02*
X51977Y-52623D01*
X52114Y-52525D02*
X52154Y-52525D01*
X52154Y-52525D02*
X52154Y-52996D01*
X52114Y-52996D02*
X52154Y-52996D01*
X52114Y-52525D02*
X52114Y-52996D01*
X52114Y-53016D02*
X52154Y-53016D01*
X52154Y-53016D02*
X52154Y-53075D01*
X52114Y-53075D02*
X52154Y-53075D01*
X52114Y-53016D02*
X52114Y-53075D01*
X51446Y-52525D02*
X51486Y-52525D01*
X51486Y-52525D02*
X51486Y-52996D01*
X51446Y-52996D02*
X51486Y-52996D01*
X51446Y-52525D02*
X51446Y-52996D01*
X51446Y-53016D02*
X51486Y-53016D01*
X51486Y-53016D02*
X51486Y-53075D01*
X51446Y-53075D02*
X51486Y-53075D01*
X51446Y-53016D02*
X51446Y-53075D01*
X51977Y-52525D02*
X52036Y-52525D01*
X52036Y-52525D02*
X52036Y-52623D01*
X51977Y-52623D02*
X52036Y-52623D01*
X51977Y-52525D02*
X51977Y-52623D01*
G54D13*
X52410Y-52505D02*
X51190Y-52505D01*
X51190Y-52505D02*
X51190Y-53095D01*
X51190Y-53095D02*
X52410Y-53095D01*
X52410Y-53095D02*
X52410Y-52505D01*
X52015Y-52605D02*
X51997Y-52587D01*
X51978Y-52571D01*
X51957Y-52556D01*
X51935Y-52543D01*
X51912Y-52532D01*
X51888Y-52523D01*
X51864Y-52517D01*
X51839Y-52512D01*
X51814Y-52510D01*
X51789Y-52510D01*
X51764Y-52512D01*
X51739Y-52516D01*
X51714Y-52523D01*
X51691Y-52531D01*
X51667Y-52542D01*
X51645Y-52554D01*
X51625Y-52569D01*
X51605Y-52585D01*
X51587Y-52603D01*
X51586Y-52604D01*
X51585Y-52605D02*
X51569Y-52625D01*
X51554Y-52645D01*
X51542Y-52667D01*
X51531Y-52691D01*
X51523Y-52714D01*
X51516Y-52739D01*
X51512Y-52764D01*
X51510Y-52789D01*
X51510Y-52814D01*
X51512Y-52839D01*
X51517Y-52864D01*
X51523Y-52888D01*
X51532Y-52912D01*
X51543Y-52935D01*
X51556Y-52957D01*
X51571Y-52978D01*
X51585Y-52995D01*
X51585Y-52995D02*
X51603Y-53013D01*
X51622Y-53029D01*
X51643Y-53044D01*
X51665Y-53057D01*
X51688Y-53068D01*
X51712Y-53077D01*
X51736Y-53083D01*
X51761Y-53088D01*
X51786Y-53090D01*
X51811Y-53090D01*
X51836Y-53088D01*
X51861Y-53084D01*
X51886Y-53077D01*
X51909Y-53069D01*
X51933Y-53058D01*
X51955Y-53046D01*
X51975Y-53031D01*
X51995Y-53015D01*
X52013Y-52997D01*
X52014Y-52996D01*
X52015Y-52995D02*
X52031Y-52975D01*
X52046Y-52955D01*
X52058Y-52933D01*
X52069Y-52909D01*
X52077Y-52886D01*
X52084Y-52861D01*
X52088Y-52836D01*
X52090Y-52811D01*
X52090Y-52786D01*
X52088Y-52761D01*
X52083Y-52736D01*
X52077Y-52712D01*
X52068Y-52688D01*
X52057Y-52665D01*
X52044Y-52643D01*
X52029Y-52622D01*
X52015Y-52605D01*
G54D12*
X66261Y-52761D02*
X66339Y-52761D01*
X66339Y-52761D02*
X66339Y-52839D01*
X66261Y-52839D02*
X66339Y-52839D01*
X66261Y-52761D02*
X66261Y-52839D01*
X66477Y-52525D02*
X66614Y-52525D01*
X66614Y-52525D02*
X66614Y-52623D01*
X66477Y-52623D02*
X66614Y-52623D01*
X66477Y-52525D02*
X66477Y-52623D01*
X66614Y-52525D02*
X66654Y-52525D01*
X66654Y-52525D02*
X66654Y-52996D01*
X66614Y-52996D02*
X66654Y-52996D01*
X66614Y-52525D02*
X66614Y-52996D01*
X66614Y-53016D02*
X66654Y-53016D01*
X66654Y-53016D02*
X66654Y-53075D01*
X66614Y-53075D02*
X66654Y-53075D01*
X66614Y-53016D02*
X66614Y-53075D01*
X65946Y-52525D02*
X65986Y-52525D01*
X65986Y-52525D02*
X65986Y-52996D01*
X65946Y-52996D02*
X65986Y-52996D01*
X65946Y-52525D02*
X65946Y-52996D01*
X65946Y-53016D02*
X65986Y-53016D01*
X65986Y-53016D02*
X65986Y-53075D01*
X65946Y-53075D02*
X65986Y-53075D01*
X65946Y-53016D02*
X65946Y-53075D01*
X66477Y-52525D02*
X66536Y-52525D01*
X66536Y-52525D02*
X66536Y-52623D01*
X66477Y-52623D02*
X66536Y-52623D01*
X66477Y-52525D02*
X66477Y-52623D01*
G54D13*
X66910Y-52505D02*
X65690Y-52505D01*
X65690Y-52505D02*
X65690Y-53095D01*
X65690Y-53095D02*
X66910Y-53095D01*
X66910Y-53095D02*
X66910Y-52505D01*
X66515Y-52605D02*
X66497Y-52587D01*
X66478Y-52571D01*
X66457Y-52556D01*
X66435Y-52543D01*
X66412Y-52532D01*
X66388Y-52523D01*
X66364Y-52517D01*
X66339Y-52512D01*
X66314Y-52510D01*
X66289Y-52510D01*
X66264Y-52512D01*
X66239Y-52516D01*
X66214Y-52523D01*
X66191Y-52531D01*
X66167Y-52542D01*
X66145Y-52554D01*
X66125Y-52569D01*
X66105Y-52585D01*
X66087Y-52603D01*
X66086Y-52604D01*
X66085Y-52605D02*
X66069Y-52625D01*
X66054Y-52645D01*
X66042Y-52667D01*
X66031Y-52691D01*
X66023Y-52714D01*
X66016Y-52739D01*
X66012Y-52764D01*
X66010Y-52789D01*
X66010Y-52814D01*
X66012Y-52839D01*
X66017Y-52864D01*
X66023Y-52888D01*
X66032Y-52912D01*
X66043Y-52935D01*
X66056Y-52957D01*
X66071Y-52978D01*
X66085Y-52995D01*
X66085Y-52995D02*
X66103Y-53013D01*
X66122Y-53029D01*
X66143Y-53044D01*
X66165Y-53057D01*
X66188Y-53068D01*
X66212Y-53077D01*
X66236Y-53083D01*
X66261Y-53088D01*
X66286Y-53090D01*
X66311Y-53090D01*
X66336Y-53088D01*
X66361Y-53084D01*
X66386Y-53077D01*
X66409Y-53069D01*
X66433Y-53058D01*
X66455Y-53046D01*
X66475Y-53031D01*
X66495Y-53015D01*
X66513Y-52997D01*
X66514Y-52996D01*
X66515Y-52995D02*
X66531Y-52975D01*
X66546Y-52955D01*
X66558Y-52933D01*
X66569Y-52909D01*
X66577Y-52886D01*
X66584Y-52861D01*
X66588Y-52836D01*
X66590Y-52811D01*
X66590Y-52786D01*
X66588Y-52761D01*
X66583Y-52736D01*
X66577Y-52712D01*
X66568Y-52688D01*
X66557Y-52665D01*
X66544Y-52643D01*
X66529Y-52622D01*
X66515Y-52605D01*
G54D11*
X69250Y-54350D02*
X69249Y-54359D01*
X69246Y-54369D01*
X69241Y-54377D01*
X69235Y-54385D01*
X69227Y-54391D01*
X69219Y-54396D01*
X69210Y-54398D01*
X69200Y-54399D01*
X69191Y-54399D01*
X69182Y-54396D01*
X69173Y-54391D01*
X69166Y-54385D01*
X69159Y-54378D01*
X69155Y-54369D01*
X69152Y-54360D01*
X69151Y-54350D01*
X69151Y-54341D01*
X69154Y-54332D01*
X69158Y-54323D01*
X69165Y-54316D01*
X69172Y-54309D01*
X69180Y-54305D01*
X69190Y-54302D01*
X69199Y-54301D01*
X69208Y-54301D01*
X69218Y-54304D01*
X69226Y-54308D01*
X69234Y-54314D01*
X69240Y-54322D01*
X69245Y-54330D01*
X69248Y-54339D01*
X69249Y-54349D01*
X69250Y-54350D01*
X69200Y-54800D02*
X69200Y-54400D01*
X69200Y-54400D02*
X68600Y-54400D01*
X68600Y-54400D02*
X68600Y-54800D01*
X68600Y-55200D02*
X68600Y-55600D01*
X68600Y-55600D02*
X69200Y-55600D01*
X69200Y-55600D02*
X69200Y-55200D01*
X68650Y-53650D02*
X68649Y-53659D01*
X68646Y-53669D01*
X68641Y-53677D01*
X68635Y-53685D01*
X68627Y-53691D01*
X68619Y-53696D01*
X68610Y-53698D01*
X68600Y-53699D01*
X68591Y-53699D01*
X68582Y-53696D01*
X68573Y-53691D01*
X68566Y-53685D01*
X68559Y-53678D01*
X68555Y-53669D01*
X68552Y-53660D01*
X68551Y-53650D01*
X68551Y-53641D01*
X68554Y-53632D01*
X68558Y-53623D01*
X68565Y-53616D01*
X68572Y-53609D01*
X68580Y-53605D01*
X68590Y-53602D01*
X68599Y-53601D01*
X68608Y-53601D01*
X68618Y-53604D01*
X68626Y-53608D01*
X68634Y-53614D01*
X68640Y-53622D01*
X68645Y-53630D01*
X68648Y-53639D01*
X68649Y-53649D01*
X68650Y-53650D01*
X68600Y-53200D02*
X68600Y-53600D01*
X68600Y-53600D02*
X69200Y-53600D01*
X69200Y-53600D02*
X69200Y-53200D01*
X69200Y-52800D02*
X69200Y-52400D01*
X69200Y-52400D02*
X68600Y-52400D01*
X68600Y-52400D02*
X68600Y-52800D01*
X66050Y-53250D02*
X66049Y-53259D01*
X66046Y-53269D01*
X66041Y-53277D01*
X66035Y-53285D01*
X66027Y-53291D01*
X66019Y-53296D01*
X66010Y-53298D01*
X66000Y-53299D01*
X65991Y-53299D01*
X65982Y-53296D01*
X65973Y-53291D01*
X65966Y-53285D01*
X65959Y-53278D01*
X65955Y-53269D01*
X65952Y-53260D01*
X65951Y-53250D01*
X65951Y-53241D01*
X65954Y-53232D01*
X65958Y-53223D01*
X65965Y-53216D01*
X65972Y-53209D01*
X65980Y-53205D01*
X65990Y-53202D01*
X65999Y-53201D01*
X66008Y-53201D01*
X66018Y-53204D01*
X66026Y-53208D01*
X66034Y-53214D01*
X66040Y-53222D01*
X66045Y-53230D01*
X66048Y-53239D01*
X66049Y-53249D01*
X66050Y-53250D01*
X66000Y-53700D02*
X66000Y-53300D01*
X66000Y-53300D02*
X65400Y-53300D01*
X65400Y-53300D02*
X65400Y-53700D01*
X65400Y-54100D02*
X65400Y-54500D01*
X65400Y-54500D02*
X66000Y-54500D01*
X66000Y-54500D02*
X66000Y-54100D01*
X66650Y-55650D02*
X66649Y-55659D01*
X66646Y-55669D01*
X66641Y-55677D01*
X66635Y-55685D01*
X66627Y-55691D01*
X66619Y-55696D01*
X66610Y-55698D01*
X66600Y-55699D01*
X66591Y-55699D01*
X66582Y-55696D01*
X66573Y-55691D01*
X66566Y-55685D01*
X66559Y-55678D01*
X66555Y-55669D01*
X66552Y-55660D01*
X66551Y-55650D01*
X66551Y-55641D01*
X66554Y-55632D01*
X66558Y-55623D01*
X66565Y-55616D01*
X66572Y-55609D01*
X66580Y-55605D01*
X66590Y-55602D01*
X66599Y-55601D01*
X66608Y-55601D01*
X66618Y-55604D01*
X66626Y-55608D01*
X66634Y-55614D01*
X66640Y-55622D01*
X66645Y-55630D01*
X66648Y-55639D01*
X66649Y-55649D01*
X66650Y-55650D01*
X66600Y-55200D02*
X66600Y-55600D01*
X66600Y-55600D02*
X67200Y-55600D01*
X67200Y-55600D02*
X67200Y-55200D01*
X67200Y-54800D02*
X67200Y-54400D01*
X67200Y-54400D02*
X66600Y-54400D01*
X66600Y-54400D02*
X66600Y-54800D01*
X63450Y-54850D02*
X63449Y-54859D01*
X63446Y-54869D01*
X63441Y-54877D01*
X63435Y-54885D01*
X63427Y-54891D01*
X63419Y-54896D01*
X63410Y-54898D01*
X63400Y-54899D01*
X63391Y-54899D01*
X63382Y-54896D01*
X63373Y-54891D01*
X63366Y-54885D01*
X63359Y-54878D01*
X63355Y-54869D01*
X63352Y-54860D01*
X63351Y-54850D01*
X63351Y-54841D01*
X63354Y-54832D01*
X63358Y-54823D01*
X63365Y-54816D01*
X63372Y-54809D01*
X63380Y-54805D01*
X63390Y-54802D01*
X63399Y-54801D01*
X63408Y-54801D01*
X63418Y-54804D01*
X63426Y-54808D01*
X63434Y-54814D01*
X63440Y-54822D01*
X63445Y-54830D01*
X63448Y-54839D01*
X63449Y-54849D01*
X63450Y-54850D01*
X63400Y-54400D02*
X63400Y-54800D01*
X63400Y-54800D02*
X64000Y-54800D01*
X64000Y-54800D02*
X64000Y-54400D01*
X64000Y-54000D02*
X64000Y-53600D01*
X64000Y-53600D02*
X63400Y-53600D01*
X63400Y-53600D02*
X63400Y-54000D01*
X72800Y-53150D02*
X72800Y-54050D01*
X72800Y-54050D02*
X72150Y-54050D01*
X71450Y-53150D02*
X70800Y-53150D01*
X70800Y-53150D02*
X70800Y-54050D01*
X70800Y-54050D02*
X71450Y-54050D01*
X72150Y-53150D02*
X72800Y-53150D01*
X63150Y-55200D02*
X63150Y-55300D01*
X63150Y-55300D02*
X62250Y-55300D01*
X62250Y-55300D02*
X62250Y-55200D01*
X63150Y-55200D02*
X62250Y-55200D01*
X62250Y-55200D02*
X62250Y-54550D01*
X63150Y-53850D02*
X63150Y-53200D01*
X63150Y-53200D02*
X62250Y-53200D01*
X62250Y-53200D02*
X62250Y-53850D01*
X63150Y-54550D02*
X63150Y-55200D01*
X72350Y-51650D02*
X72349Y-51659D01*
X72346Y-51669D01*
X72341Y-51677D01*
X72335Y-51685D01*
X72327Y-51691D01*
X72319Y-51696D01*
X72310Y-51698D01*
X72300Y-51699D01*
X72291Y-51699D01*
X72282Y-51696D01*
X72273Y-51691D01*
X72266Y-51685D01*
X72259Y-51678D01*
X72255Y-51669D01*
X72252Y-51660D01*
X72251Y-51650D01*
X72251Y-51641D01*
X72254Y-51632D01*
X72258Y-51623D01*
X72265Y-51616D01*
X72272Y-51609D01*
X72280Y-51605D01*
X72290Y-51602D01*
X72299Y-51601D01*
X72308Y-51601D01*
X72318Y-51604D01*
X72326Y-51608D01*
X72334Y-51614D01*
X72340Y-51622D01*
X72345Y-51630D01*
X72348Y-51639D01*
X72349Y-51649D01*
X72350Y-51650D01*
X72300Y-51200D02*
X72300Y-51600D01*
X72300Y-51600D02*
X72900Y-51600D01*
X72900Y-51600D02*
X72900Y-51200D01*
X72900Y-50800D02*
X72900Y-50400D01*
X72900Y-50400D02*
X72300Y-50400D01*
X72300Y-50400D02*
X72300Y-50800D01*
X61250Y-56050D02*
X62150Y-56050D01*
X62150Y-56050D02*
X62150Y-55550D01*
X62150Y-55550D02*
X61250Y-55550D01*
X61250Y-55550D02*
X61250Y-56050D01*
X32350Y-56050D02*
X33250Y-56050D01*
X33250Y-56050D02*
X33250Y-55550D01*
X33250Y-55550D02*
X32350Y-55550D01*
X32350Y-55550D02*
X32350Y-56050D01*
X43450Y-51650D02*
X43449Y-51659D01*
X43446Y-51669D01*
X43441Y-51677D01*
X43435Y-51685D01*
X43427Y-51691D01*
X43419Y-51696D01*
X43410Y-51698D01*
X43400Y-51699D01*
X43391Y-51699D01*
X43382Y-51696D01*
X43373Y-51691D01*
X43366Y-51685D01*
X43359Y-51678D01*
X43355Y-51669D01*
X43352Y-51660D01*
X43351Y-51650D01*
X43351Y-51641D01*
X43354Y-51632D01*
X43358Y-51623D01*
X43365Y-51616D01*
X43372Y-51609D01*
X43380Y-51605D01*
X43390Y-51602D01*
X43399Y-51601D01*
X43408Y-51601D01*
X43418Y-51604D01*
X43426Y-51608D01*
X43434Y-51614D01*
X43440Y-51622D01*
X43445Y-51630D01*
X43448Y-51639D01*
X43449Y-51649D01*
X43450Y-51650D01*
X43400Y-51200D02*
X43400Y-51600D01*
X43400Y-51600D02*
X44000Y-51600D01*
X44000Y-51600D02*
X44000Y-51200D01*
X44000Y-50800D02*
X44000Y-50400D01*
X44000Y-50400D02*
X43400Y-50400D01*
X43400Y-50400D02*
X43400Y-50800D01*
X34250Y-55200D02*
X34250Y-55300D01*
X34250Y-55300D02*
X33350Y-55300D01*
X33350Y-55300D02*
X33350Y-55200D01*
X34250Y-55200D02*
X33350Y-55200D01*
X33350Y-55200D02*
X33350Y-54550D01*
X34250Y-53850D02*
X34250Y-53200D01*
X34250Y-53200D02*
X33350Y-53200D01*
X33350Y-53200D02*
X33350Y-53850D01*
X34250Y-54550D02*
X34250Y-55200D01*
X43900Y-53150D02*
X43900Y-54050D01*
X43900Y-54050D02*
X43250Y-54050D01*
X42550Y-53150D02*
X41900Y-53150D01*
X41900Y-53150D02*
X41900Y-54050D01*
X41900Y-54050D02*
X42550Y-54050D01*
X43250Y-53150D02*
X43900Y-53150D01*
X34550Y-54850D02*
X34549Y-54859D01*
X34546Y-54869D01*
X34541Y-54877D01*
X34535Y-54885D01*
X34527Y-54891D01*
X34519Y-54896D01*
X34510Y-54898D01*
X34500Y-54899D01*
X34491Y-54899D01*
X34482Y-54896D01*
X34473Y-54891D01*
X34466Y-54885D01*
X34459Y-54878D01*
X34455Y-54869D01*
X34452Y-54860D01*
X34451Y-54850D01*
X34451Y-54841D01*
X34454Y-54832D01*
X34458Y-54823D01*
X34465Y-54816D01*
X34472Y-54809D01*
X34480Y-54805D01*
X34490Y-54802D01*
X34499Y-54801D01*
X34508Y-54801D01*
X34518Y-54804D01*
X34526Y-54808D01*
X34534Y-54814D01*
X34540Y-54822D01*
X34545Y-54830D01*
X34548Y-54839D01*
X34549Y-54849D01*
X34550Y-54850D01*
X34500Y-54400D02*
X34500Y-54800D01*
X34500Y-54800D02*
X35100Y-54800D01*
X35100Y-54800D02*
X35100Y-54400D01*
X35100Y-54000D02*
X35100Y-53600D01*
X35100Y-53600D02*
X34500Y-53600D01*
X34500Y-53600D02*
X34500Y-54000D01*
X37750Y-55650D02*
X37749Y-55659D01*
X37746Y-55669D01*
X37741Y-55677D01*
X37735Y-55685D01*
X37727Y-55691D01*
X37719Y-55696D01*
X37710Y-55698D01*
X37700Y-55699D01*
X37691Y-55699D01*
X37682Y-55696D01*
X37673Y-55691D01*
X37666Y-55685D01*
X37659Y-55678D01*
X37655Y-55669D01*
X37652Y-55660D01*
X37651Y-55650D01*
X37651Y-55641D01*
X37654Y-55632D01*
X37658Y-55623D01*
X37665Y-55616D01*
X37672Y-55609D01*
X37680Y-55605D01*
X37690Y-55602D01*
X37699Y-55601D01*
X37708Y-55601D01*
X37718Y-55604D01*
X37726Y-55608D01*
X37734Y-55614D01*
X37740Y-55622D01*
X37745Y-55630D01*
X37748Y-55639D01*
X37749Y-55649D01*
X37750Y-55650D01*
X37700Y-55200D02*
X37700Y-55600D01*
X37700Y-55600D02*
X38300Y-55600D01*
X38300Y-55600D02*
X38300Y-55200D01*
X38300Y-54800D02*
X38300Y-54400D01*
X38300Y-54400D02*
X37700Y-54400D01*
X37700Y-54400D02*
X37700Y-54800D01*
X37150Y-53250D02*
X37149Y-53259D01*
X37146Y-53269D01*
X37141Y-53277D01*
X37135Y-53285D01*
X37127Y-53291D01*
X37119Y-53296D01*
X37110Y-53298D01*
X37100Y-53299D01*
X37091Y-53299D01*
X37082Y-53296D01*
X37073Y-53291D01*
X37066Y-53285D01*
X37059Y-53278D01*
X37055Y-53269D01*
X37052Y-53260D01*
X37051Y-53250D01*
X37051Y-53241D01*
X37054Y-53232D01*
X37058Y-53223D01*
X37065Y-53216D01*
X37072Y-53209D01*
X37080Y-53205D01*
X37090Y-53202D01*
X37099Y-53201D01*
X37108Y-53201D01*
X37118Y-53204D01*
X37126Y-53208D01*
X37134Y-53214D01*
X37140Y-53222D01*
X37145Y-53230D01*
X37148Y-53239D01*
X37149Y-53249D01*
X37150Y-53250D01*
X37100Y-53700D02*
X37100Y-53300D01*
X37100Y-53300D02*
X36500Y-53300D01*
X36500Y-53300D02*
X36500Y-53700D01*
X36500Y-54100D02*
X36500Y-54500D01*
X36500Y-54500D02*
X37100Y-54500D01*
X37100Y-54500D02*
X37100Y-54100D01*
X39750Y-53650D02*
X39749Y-53659D01*
X39746Y-53669D01*
X39741Y-53677D01*
X39735Y-53685D01*
X39727Y-53691D01*
X39719Y-53696D01*
X39710Y-53698D01*
X39700Y-53699D01*
X39691Y-53699D01*
X39682Y-53696D01*
X39673Y-53691D01*
X39666Y-53685D01*
X39659Y-53678D01*
X39655Y-53669D01*
X39652Y-53660D01*
X39651Y-53650D01*
X39651Y-53641D01*
X39654Y-53632D01*
X39658Y-53623D01*
X39665Y-53616D01*
X39672Y-53609D01*
X39680Y-53605D01*
X39690Y-53602D01*
X39699Y-53601D01*
X39708Y-53601D01*
X39718Y-53604D01*
X39726Y-53608D01*
X39734Y-53614D01*
X39740Y-53622D01*
X39745Y-53630D01*
X39748Y-53639D01*
X39749Y-53649D01*
X39750Y-53650D01*
X39700Y-53200D02*
X39700Y-53600D01*
X39700Y-53600D02*
X40300Y-53600D01*
X40300Y-53600D02*
X40300Y-53200D01*
X40300Y-52800D02*
X40300Y-52400D01*
X40300Y-52400D02*
X39700Y-52400D01*
X39700Y-52400D02*
X39700Y-52800D01*
X40350Y-54350D02*
X40349Y-54359D01*
X40346Y-54369D01*
X40341Y-54377D01*
X40335Y-54385D01*
X40327Y-54391D01*
X40319Y-54396D01*
X40310Y-54398D01*
X40300Y-54399D01*
X40291Y-54399D01*
X40282Y-54396D01*
X40273Y-54391D01*
X40266Y-54385D01*
X40259Y-54378D01*
X40255Y-54369D01*
X40252Y-54360D01*
X40251Y-54350D01*
X40251Y-54341D01*
X40254Y-54332D01*
X40258Y-54323D01*
X40265Y-54316D01*
X40272Y-54309D01*
X40280Y-54305D01*
X40290Y-54302D01*
X40299Y-54301D01*
X40308Y-54301D01*
X40318Y-54304D01*
X40326Y-54308D01*
X40334Y-54314D01*
X40340Y-54322D01*
X40345Y-54330D01*
X40348Y-54339D01*
X40349Y-54349D01*
X40350Y-54350D01*
X40300Y-54800D02*
X40300Y-54400D01*
X40300Y-54400D02*
X39700Y-54400D01*
X39700Y-54400D02*
X39700Y-54800D01*
X39700Y-55200D02*
X39700Y-55600D01*
X39700Y-55600D02*
X40300Y-55600D01*
X40300Y-55600D02*
X40300Y-55200D01*
G54D12*
X37361Y-52761D02*
X37439Y-52761D01*
X37439Y-52761D02*
X37439Y-52839D01*
X37361Y-52839D02*
X37439Y-52839D01*
X37361Y-52761D02*
X37361Y-52839D01*
X37577Y-52525D02*
X37714Y-52525D01*
X37714Y-52525D02*
X37714Y-52623D01*
X37577Y-52623D02*
X37714Y-52623D01*
X37577Y-52525D02*
X37577Y-52623D01*
X37714Y-52525D02*
X37754Y-52525D01*
X37754Y-52525D02*
X37754Y-52996D01*
X37714Y-52996D02*
X37754Y-52996D01*
X37714Y-52525D02*
X37714Y-52996D01*
X37714Y-53016D02*
X37754Y-53016D01*
X37754Y-53016D02*
X37754Y-53075D01*
X37714Y-53075D02*
X37754Y-53075D01*
X37714Y-53016D02*
X37714Y-53075D01*
X37046Y-52525D02*
X37086Y-52525D01*
X37086Y-52525D02*
X37086Y-52996D01*
X37046Y-52996D02*
X37086Y-52996D01*
X37046Y-52525D02*
X37046Y-52996D01*
X37046Y-53016D02*
X37086Y-53016D01*
X37086Y-53016D02*
X37086Y-53075D01*
X37046Y-53075D02*
X37086Y-53075D01*
X37046Y-53016D02*
X37046Y-53075D01*
X37577Y-52525D02*
X37636Y-52525D01*
X37636Y-52525D02*
X37636Y-52623D01*
X37577Y-52623D02*
X37636Y-52623D01*
X37577Y-52525D02*
X37577Y-52623D01*
G54D13*
X38010Y-52505D02*
X36790Y-52505D01*
X36790Y-52505D02*
X36790Y-53095D01*
X36790Y-53095D02*
X38010Y-53095D01*
X38010Y-53095D02*
X38010Y-52505D01*
X37615Y-52605D02*
X37597Y-52587D01*
X37578Y-52571D01*
X37557Y-52556D01*
X37535Y-52543D01*
X37512Y-52532D01*
X37488Y-52523D01*
X37464Y-52517D01*
X37439Y-52512D01*
X37414Y-52510D01*
X37389Y-52510D01*
X37364Y-52512D01*
X37339Y-52516D01*
X37314Y-52523D01*
X37291Y-52531D01*
X37267Y-52542D01*
X37245Y-52554D01*
X37225Y-52569D01*
X37205Y-52585D01*
X37187Y-52603D01*
X37186Y-52604D01*
X37185Y-52605D02*
X37169Y-52625D01*
X37154Y-52645D01*
X37142Y-52667D01*
X37131Y-52691D01*
X37123Y-52714D01*
X37116Y-52739D01*
X37112Y-52764D01*
X37110Y-52789D01*
X37110Y-52814D01*
X37112Y-52839D01*
X37117Y-52864D01*
X37123Y-52888D01*
X37132Y-52912D01*
X37143Y-52935D01*
X37156Y-52957D01*
X37171Y-52978D01*
X37185Y-52995D01*
X37185Y-52995D02*
X37203Y-53013D01*
X37222Y-53029D01*
X37243Y-53044D01*
X37265Y-53057D01*
X37288Y-53068D01*
X37312Y-53077D01*
X37336Y-53083D01*
X37361Y-53088D01*
X37386Y-53090D01*
X37411Y-53090D01*
X37436Y-53088D01*
X37461Y-53084D01*
X37486Y-53077D01*
X37509Y-53069D01*
X37533Y-53058D01*
X37555Y-53046D01*
X37575Y-53031D01*
X37595Y-53015D01*
X37613Y-52997D01*
X37614Y-52996D01*
X37615Y-52995D02*
X37631Y-52975D01*
X37646Y-52955D01*
X37658Y-52933D01*
X37669Y-52909D01*
X37677Y-52886D01*
X37684Y-52861D01*
X37688Y-52836D01*
X37690Y-52811D01*
X37690Y-52786D01*
X37688Y-52761D01*
X37683Y-52736D01*
X37677Y-52712D01*
X37668Y-52688D01*
X37657Y-52665D01*
X37644Y-52643D01*
X37629Y-52622D01*
X37615Y-52605D01*
G54D12*
X22861Y-52761D02*
X22939Y-52761D01*
X22939Y-52761D02*
X22939Y-52839D01*
X22861Y-52839D02*
X22939Y-52839D01*
X22861Y-52761D02*
X22861Y-52839D01*
X23077Y-52525D02*
X23214Y-52525D01*
X23214Y-52525D02*
X23214Y-52623D01*
X23077Y-52623D02*
X23214Y-52623D01*
X23077Y-52525D02*
X23077Y-52623D01*
X23214Y-52525D02*
X23254Y-52525D01*
X23254Y-52525D02*
X23254Y-52996D01*
X23214Y-52996D02*
X23254Y-52996D01*
X23214Y-52525D02*
X23214Y-52996D01*
X23214Y-53016D02*
X23254Y-53016D01*
X23254Y-53016D02*
X23254Y-53075D01*
X23214Y-53075D02*
X23254Y-53075D01*
X23214Y-53016D02*
X23214Y-53075D01*
X22546Y-52525D02*
X22586Y-52525D01*
X22586Y-52525D02*
X22586Y-52996D01*
X22546Y-52996D02*
X22586Y-52996D01*
X22546Y-52525D02*
X22546Y-52996D01*
X22546Y-53016D02*
X22586Y-53016D01*
X22586Y-53016D02*
X22586Y-53075D01*
X22546Y-53075D02*
X22586Y-53075D01*
X22546Y-53016D02*
X22546Y-53075D01*
X23077Y-52525D02*
X23136Y-52525D01*
X23136Y-52525D02*
X23136Y-52623D01*
X23077Y-52623D02*
X23136Y-52623D01*
X23077Y-52525D02*
X23077Y-52623D01*
G54D13*
X23510Y-52505D02*
X22290Y-52505D01*
X22290Y-52505D02*
X22290Y-53095D01*
X22290Y-53095D02*
X23510Y-53095D01*
X23510Y-53095D02*
X23510Y-52505D01*
X23115Y-52605D02*
X23097Y-52587D01*
X23078Y-52571D01*
X23057Y-52556D01*
X23035Y-52543D01*
X23012Y-52532D01*
X22988Y-52523D01*
X22964Y-52517D01*
X22939Y-52512D01*
X22914Y-52510D01*
X22889Y-52510D01*
X22864Y-52512D01*
X22839Y-52516D01*
X22814Y-52523D01*
X22791Y-52531D01*
X22767Y-52542D01*
X22745Y-52554D01*
X22725Y-52569D01*
X22705Y-52585D01*
X22687Y-52603D01*
X22686Y-52604D01*
X22685Y-52605D02*
X22669Y-52625D01*
X22654Y-52645D01*
X22642Y-52667D01*
X22631Y-52691D01*
X22623Y-52714D01*
X22616Y-52739D01*
X22612Y-52764D01*
X22610Y-52789D01*
X22610Y-52814D01*
X22612Y-52839D01*
X22617Y-52864D01*
X22623Y-52888D01*
X22632Y-52912D01*
X22643Y-52935D01*
X22656Y-52957D01*
X22671Y-52978D01*
X22685Y-52995D01*
X22685Y-52995D02*
X22703Y-53013D01*
X22722Y-53029D01*
X22743Y-53044D01*
X22765Y-53057D01*
X22788Y-53068D01*
X22812Y-53077D01*
X22836Y-53083D01*
X22861Y-53088D01*
X22886Y-53090D01*
X22911Y-53090D01*
X22936Y-53088D01*
X22961Y-53084D01*
X22986Y-53077D01*
X23009Y-53069D01*
X23033Y-53058D01*
X23055Y-53046D01*
X23075Y-53031D01*
X23095Y-53015D01*
X23113Y-52997D01*
X23114Y-52996D01*
X23115Y-52995D02*
X23131Y-52975D01*
X23146Y-52955D01*
X23158Y-52933D01*
X23169Y-52909D01*
X23177Y-52886D01*
X23184Y-52861D01*
X23188Y-52836D01*
X23190Y-52811D01*
X23190Y-52786D01*
X23188Y-52761D01*
X23183Y-52736D01*
X23177Y-52712D01*
X23168Y-52688D01*
X23157Y-52665D01*
X23144Y-52643D01*
X23129Y-52622D01*
X23115Y-52605D01*
G54D11*
X25850Y-54350D02*
X25849Y-54359D01*
X25846Y-54369D01*
X25841Y-54377D01*
X25835Y-54385D01*
X25827Y-54391D01*
X25819Y-54396D01*
X25810Y-54398D01*
X25800Y-54399D01*
X25791Y-54399D01*
X25782Y-54396D01*
X25773Y-54391D01*
X25766Y-54385D01*
X25759Y-54378D01*
X25755Y-54369D01*
X25752Y-54360D01*
X25751Y-54350D01*
X25751Y-54341D01*
X25754Y-54332D01*
X25758Y-54323D01*
X25765Y-54316D01*
X25772Y-54309D01*
X25780Y-54305D01*
X25790Y-54302D01*
X25799Y-54301D01*
X25808Y-54301D01*
X25818Y-54304D01*
X25826Y-54308D01*
X25834Y-54314D01*
X25840Y-54322D01*
X25845Y-54330D01*
X25848Y-54339D01*
X25849Y-54349D01*
X25850Y-54350D01*
X25800Y-54800D02*
X25800Y-54400D01*
X25800Y-54400D02*
X25200Y-54400D01*
X25200Y-54400D02*
X25200Y-54800D01*
X25200Y-55200D02*
X25200Y-55600D01*
X25200Y-55600D02*
X25800Y-55600D01*
X25800Y-55600D02*
X25800Y-55200D01*
X25250Y-53650D02*
X25249Y-53659D01*
X25246Y-53669D01*
X25241Y-53677D01*
X25235Y-53685D01*
X25227Y-53691D01*
X25219Y-53696D01*
X25210Y-53698D01*
X25200Y-53699D01*
X25191Y-53699D01*
X25182Y-53696D01*
X25173Y-53691D01*
X25166Y-53685D01*
X25159Y-53678D01*
X25155Y-53669D01*
X25152Y-53660D01*
X25151Y-53650D01*
X25151Y-53641D01*
X25154Y-53632D01*
X25158Y-53623D01*
X25165Y-53616D01*
X25172Y-53609D01*
X25180Y-53605D01*
X25190Y-53602D01*
X25199Y-53601D01*
X25208Y-53601D01*
X25218Y-53604D01*
X25226Y-53608D01*
X25234Y-53614D01*
X25240Y-53622D01*
X25245Y-53630D01*
X25248Y-53639D01*
X25249Y-53649D01*
X25250Y-53650D01*
X25200Y-53200D02*
X25200Y-53600D01*
X25200Y-53600D02*
X25800Y-53600D01*
X25800Y-53600D02*
X25800Y-53200D01*
X25800Y-52800D02*
X25800Y-52400D01*
X25800Y-52400D02*
X25200Y-52400D01*
X25200Y-52400D02*
X25200Y-52800D01*
X22650Y-53250D02*
X22649Y-53259D01*
X22646Y-53269D01*
X22641Y-53277D01*
X22635Y-53285D01*
X22627Y-53291D01*
X22619Y-53296D01*
X22610Y-53298D01*
X22600Y-53299D01*
X22591Y-53299D01*
X22582Y-53296D01*
X22573Y-53291D01*
X22566Y-53285D01*
X22559Y-53278D01*
X22555Y-53269D01*
X22552Y-53260D01*
X22551Y-53250D01*
X22551Y-53241D01*
X22554Y-53232D01*
X22558Y-53223D01*
X22565Y-53216D01*
X22572Y-53209D01*
X22580Y-53205D01*
X22590Y-53202D01*
X22599Y-53201D01*
X22608Y-53201D01*
X22618Y-53204D01*
X22626Y-53208D01*
X22634Y-53214D01*
X22640Y-53222D01*
X22645Y-53230D01*
X22648Y-53239D01*
X22649Y-53249D01*
X22650Y-53250D01*
X22600Y-53700D02*
X22600Y-53300D01*
X22600Y-53300D02*
X22000Y-53300D01*
X22000Y-53300D02*
X22000Y-53700D01*
X22000Y-54100D02*
X22000Y-54500D01*
X22000Y-54500D02*
X22600Y-54500D01*
X22600Y-54500D02*
X22600Y-54100D01*
X23250Y-55650D02*
X23249Y-55659D01*
X23246Y-55669D01*
X23241Y-55677D01*
X23235Y-55685D01*
X23227Y-55691D01*
X23219Y-55696D01*
X23210Y-55698D01*
X23200Y-55699D01*
X23191Y-55699D01*
X23182Y-55696D01*
X23173Y-55691D01*
X23166Y-55685D01*
X23159Y-55678D01*
X23155Y-55669D01*
X23152Y-55660D01*
X23151Y-55650D01*
X23151Y-55641D01*
X23154Y-55632D01*
X23158Y-55623D01*
X23165Y-55616D01*
X23172Y-55609D01*
X23180Y-55605D01*
X23190Y-55602D01*
X23199Y-55601D01*
X23208Y-55601D01*
X23218Y-55604D01*
X23226Y-55608D01*
X23234Y-55614D01*
X23240Y-55622D01*
X23245Y-55630D01*
X23248Y-55639D01*
X23249Y-55649D01*
X23250Y-55650D01*
X23200Y-55200D02*
X23200Y-55600D01*
X23200Y-55600D02*
X23800Y-55600D01*
X23800Y-55600D02*
X23800Y-55200D01*
X23800Y-54800D02*
X23800Y-54400D01*
X23800Y-54400D02*
X23200Y-54400D01*
X23200Y-54400D02*
X23200Y-54800D01*
X20050Y-54850D02*
X20049Y-54859D01*
X20046Y-54869D01*
X20041Y-54877D01*
X20035Y-54885D01*
X20027Y-54891D01*
X20019Y-54896D01*
X20010Y-54898D01*
X20000Y-54899D01*
X19991Y-54899D01*
X19982Y-54896D01*
X19973Y-54891D01*
X19966Y-54885D01*
X19959Y-54878D01*
X19955Y-54869D01*
X19952Y-54860D01*
X19951Y-54850D01*
X19951Y-54841D01*
X19954Y-54832D01*
X19958Y-54823D01*
X19965Y-54816D01*
X19972Y-54809D01*
X19980Y-54805D01*
X19990Y-54802D01*
X19999Y-54801D01*
X20008Y-54801D01*
X20018Y-54804D01*
X20026Y-54808D01*
X20034Y-54814D01*
X20040Y-54822D01*
X20045Y-54830D01*
X20048Y-54839D01*
X20049Y-54849D01*
X20050Y-54850D01*
X20000Y-54400D02*
X20000Y-54800D01*
X20000Y-54800D02*
X20600Y-54800D01*
X20600Y-54800D02*
X20600Y-54400D01*
X20600Y-54000D02*
X20600Y-53600D01*
X20600Y-53600D02*
X20000Y-53600D01*
X20000Y-53600D02*
X20000Y-54000D01*
X29400Y-53150D02*
X29400Y-54050D01*
X29400Y-54050D02*
X28750Y-54050D01*
X28050Y-53150D02*
X27400Y-53150D01*
X27400Y-53150D02*
X27400Y-54050D01*
X27400Y-54050D02*
X28050Y-54050D01*
X28750Y-53150D02*
X29400Y-53150D01*
X19750Y-55200D02*
X19750Y-55300D01*
X19750Y-55300D02*
X18850Y-55300D01*
X18850Y-55300D02*
X18850Y-55200D01*
X19750Y-55200D02*
X18850Y-55200D01*
X18850Y-55200D02*
X18850Y-54550D01*
X19750Y-53850D02*
X19750Y-53200D01*
X19750Y-53200D02*
X18850Y-53200D01*
X18850Y-53200D02*
X18850Y-53850D01*
X19750Y-54550D02*
X19750Y-55200D01*
X28950Y-51650D02*
X28949Y-51659D01*
X28946Y-51669D01*
X28941Y-51677D01*
X28935Y-51685D01*
X28927Y-51691D01*
X28919Y-51696D01*
X28910Y-51698D01*
X28900Y-51699D01*
X28891Y-51699D01*
X28882Y-51696D01*
X28873Y-51691D01*
X28866Y-51685D01*
X28859Y-51678D01*
X28855Y-51669D01*
X28852Y-51660D01*
X28851Y-51650D01*
X28851Y-51641D01*
X28854Y-51632D01*
X28858Y-51623D01*
X28865Y-51616D01*
X28872Y-51609D01*
X28880Y-51605D01*
X28890Y-51602D01*
X28899Y-51601D01*
X28908Y-51601D01*
X28918Y-51604D01*
X28926Y-51608D01*
X28934Y-51614D01*
X28940Y-51622D01*
X28945Y-51630D01*
X28948Y-51639D01*
X28949Y-51649D01*
X28950Y-51650D01*
X28900Y-51200D02*
X28900Y-51600D01*
X28900Y-51600D02*
X29500Y-51600D01*
X29500Y-51600D02*
X29500Y-51200D01*
X29500Y-50800D02*
X29500Y-50400D01*
X29500Y-50400D02*
X28900Y-50400D01*
X28900Y-50400D02*
X28900Y-50800D01*
X17850Y-56050D02*
X18750Y-56050D01*
X18750Y-56050D02*
X18750Y-55550D01*
X18750Y-55550D02*
X17850Y-55550D01*
X17850Y-55550D02*
X17850Y-56050D01*
X17850Y-43050D02*
X18750Y-43050D01*
X18750Y-43050D02*
X18750Y-42550D01*
X18750Y-42550D02*
X17850Y-42550D01*
X17850Y-42550D02*
X17850Y-43050D01*
X28950Y-38650D02*
X28949Y-38659D01*
X28946Y-38669D01*
X28941Y-38677D01*
X28935Y-38685D01*
X28927Y-38691D01*
X28919Y-38696D01*
X28910Y-38698D01*
X28900Y-38699D01*
X28891Y-38699D01*
X28882Y-38696D01*
X28873Y-38691D01*
X28866Y-38685D01*
X28859Y-38678D01*
X28855Y-38669D01*
X28852Y-38660D01*
X28851Y-38650D01*
X28851Y-38641D01*
X28854Y-38632D01*
X28858Y-38623D01*
X28865Y-38616D01*
X28872Y-38609D01*
X28880Y-38605D01*
X28890Y-38602D01*
X28899Y-38601D01*
X28908Y-38601D01*
X28918Y-38604D01*
X28926Y-38608D01*
X28934Y-38614D01*
X28940Y-38622D01*
X28945Y-38630D01*
X28948Y-38639D01*
X28949Y-38649D01*
X28950Y-38650D01*
X28900Y-38200D02*
X28900Y-38600D01*
X28900Y-38600D02*
X29500Y-38600D01*
X29500Y-38600D02*
X29500Y-38200D01*
X29500Y-37800D02*
X29500Y-37400D01*
X29500Y-37400D02*
X28900Y-37400D01*
X28900Y-37400D02*
X28900Y-37800D01*
X19750Y-42200D02*
X19750Y-42300D01*
X19750Y-42300D02*
X18850Y-42300D01*
X18850Y-42300D02*
X18850Y-42200D01*
X19750Y-42200D02*
X18850Y-42200D01*
X18850Y-42200D02*
X18850Y-41550D01*
X19750Y-40850D02*
X19750Y-40200D01*
X19750Y-40200D02*
X18850Y-40200D01*
X18850Y-40200D02*
X18850Y-40850D01*
X19750Y-41550D02*
X19750Y-42200D01*
X29400Y-40150D02*
X29400Y-41050D01*
X29400Y-41050D02*
X28750Y-41050D01*
X28050Y-40150D02*
X27400Y-40150D01*
X27400Y-40150D02*
X27400Y-41050D01*
X27400Y-41050D02*
X28050Y-41050D01*
X28750Y-40150D02*
X29400Y-40150D01*
X20050Y-41850D02*
X20049Y-41859D01*
X20046Y-41869D01*
X20041Y-41877D01*
X20035Y-41885D01*
X20027Y-41891D01*
X20019Y-41896D01*
X20010Y-41898D01*
X20000Y-41899D01*
X19991Y-41899D01*
X19982Y-41896D01*
X19973Y-41891D01*
X19966Y-41885D01*
X19959Y-41878D01*
X19955Y-41869D01*
X19952Y-41860D01*
X19951Y-41850D01*
X19951Y-41841D01*
X19954Y-41832D01*
X19958Y-41823D01*
X19965Y-41816D01*
X19972Y-41809D01*
X19980Y-41805D01*
X19990Y-41802D01*
X19999Y-41801D01*
X20008Y-41801D01*
X20018Y-41804D01*
X20026Y-41808D01*
X20034Y-41814D01*
X20040Y-41822D01*
X20045Y-41830D01*
X20048Y-41839D01*
X20049Y-41849D01*
X20050Y-41850D01*
X20000Y-41400D02*
X20000Y-41800D01*
X20000Y-41800D02*
X20600Y-41800D01*
X20600Y-41800D02*
X20600Y-41400D01*
X20600Y-41000D02*
X20600Y-40600D01*
X20600Y-40600D02*
X20000Y-40600D01*
X20000Y-40600D02*
X20000Y-41000D01*
X23250Y-42650D02*
X23249Y-42659D01*
X23246Y-42669D01*
X23241Y-42677D01*
X23235Y-42685D01*
X23227Y-42691D01*
X23219Y-42696D01*
X23210Y-42698D01*
X23200Y-42699D01*
X23191Y-42699D01*
X23182Y-42696D01*
X23173Y-42691D01*
X23166Y-42685D01*
X23159Y-42678D01*
X23155Y-42669D01*
X23152Y-42660D01*
X23151Y-42650D01*
X23151Y-42641D01*
X23154Y-42632D01*
X23158Y-42623D01*
X23165Y-42616D01*
X23172Y-42609D01*
X23180Y-42605D01*
X23190Y-42602D01*
X23199Y-42601D01*
X23208Y-42601D01*
X23218Y-42604D01*
X23226Y-42608D01*
X23234Y-42614D01*
X23240Y-42622D01*
X23245Y-42630D01*
X23248Y-42639D01*
X23249Y-42649D01*
X23250Y-42650D01*
X23200Y-42200D02*
X23200Y-42600D01*
X23200Y-42600D02*
X23800Y-42600D01*
X23800Y-42600D02*
X23800Y-42200D01*
X23800Y-41800D02*
X23800Y-41400D01*
X23800Y-41400D02*
X23200Y-41400D01*
X23200Y-41400D02*
X23200Y-41800D01*
X22650Y-40250D02*
X22649Y-40259D01*
X22646Y-40269D01*
X22641Y-40277D01*
X22635Y-40285D01*
X22627Y-40291D01*
X22619Y-40296D01*
X22610Y-40298D01*
X22600Y-40299D01*
X22591Y-40299D01*
X22582Y-40296D01*
X22573Y-40291D01*
X22566Y-40285D01*
X22559Y-40278D01*
X22555Y-40269D01*
X22552Y-40260D01*
X22551Y-40250D01*
X22551Y-40241D01*
X22554Y-40232D01*
X22558Y-40223D01*
X22565Y-40216D01*
X22572Y-40209D01*
X22580Y-40205D01*
X22590Y-40202D01*
X22599Y-40201D01*
X22608Y-40201D01*
X22618Y-40204D01*
X22626Y-40208D01*
X22634Y-40214D01*
X22640Y-40222D01*
X22645Y-40230D01*
X22648Y-40239D01*
X22649Y-40249D01*
X22650Y-40250D01*
X22600Y-40700D02*
X22600Y-40300D01*
X22600Y-40300D02*
X22000Y-40300D01*
X22000Y-40300D02*
X22000Y-40700D01*
X22000Y-41100D02*
X22000Y-41500D01*
X22000Y-41500D02*
X22600Y-41500D01*
X22600Y-41500D02*
X22600Y-41100D01*
X25250Y-40650D02*
X25249Y-40659D01*
X25246Y-40669D01*
X25241Y-40677D01*
X25235Y-40685D01*
X25227Y-40691D01*
X25219Y-40696D01*
X25210Y-40698D01*
X25200Y-40699D01*
X25191Y-40699D01*
X25182Y-40696D01*
X25173Y-40691D01*
X25166Y-40685D01*
X25159Y-40678D01*
X25155Y-40669D01*
X25152Y-40660D01*
X25151Y-40650D01*
X25151Y-40641D01*
X25154Y-40632D01*
X25158Y-40623D01*
X25165Y-40616D01*
X25172Y-40609D01*
X25180Y-40605D01*
X25190Y-40602D01*
X25199Y-40601D01*
X25208Y-40601D01*
X25218Y-40604D01*
X25226Y-40608D01*
X25234Y-40614D01*
X25240Y-40622D01*
X25245Y-40630D01*
X25248Y-40639D01*
X25249Y-40649D01*
X25250Y-40650D01*
X25200Y-40200D02*
X25200Y-40600D01*
X25200Y-40600D02*
X25800Y-40600D01*
X25800Y-40600D02*
X25800Y-40200D01*
X25800Y-39800D02*
X25800Y-39400D01*
X25800Y-39400D02*
X25200Y-39400D01*
X25200Y-39400D02*
X25200Y-39800D01*
X25850Y-41350D02*
X25849Y-41359D01*
X25846Y-41369D01*
X25841Y-41377D01*
X25835Y-41385D01*
X25827Y-41391D01*
X25819Y-41396D01*
X25810Y-41398D01*
X25800Y-41399D01*
X25791Y-41399D01*
X25782Y-41396D01*
X25773Y-41391D01*
X25766Y-41385D01*
X25759Y-41378D01*
X25755Y-41369D01*
X25752Y-41360D01*
X25751Y-41350D01*
X25751Y-41341D01*
X25754Y-41332D01*
X25758Y-41323D01*
X25765Y-41316D01*
X25772Y-41309D01*
X25780Y-41305D01*
X25790Y-41302D01*
X25799Y-41301D01*
X25808Y-41301D01*
X25818Y-41304D01*
X25826Y-41308D01*
X25834Y-41314D01*
X25840Y-41322D01*
X25845Y-41330D01*
X25848Y-41339D01*
X25849Y-41349D01*
X25850Y-41350D01*
X25800Y-41800D02*
X25800Y-41400D01*
X25800Y-41400D02*
X25200Y-41400D01*
X25200Y-41400D02*
X25200Y-41800D01*
X25200Y-42200D02*
X25200Y-42600D01*
X25200Y-42600D02*
X25800Y-42600D01*
X25800Y-42600D02*
X25800Y-42200D01*
G54D12*
X22861Y-39761D02*
X22939Y-39761D01*
X22939Y-39761D02*
X22939Y-39839D01*
X22861Y-39839D02*
X22939Y-39839D01*
X22861Y-39761D02*
X22861Y-39839D01*
X23077Y-39525D02*
X23214Y-39525D01*
X23214Y-39525D02*
X23214Y-39623D01*
X23077Y-39623D02*
X23214Y-39623D01*
X23077Y-39525D02*
X23077Y-39623D01*
X23214Y-39525D02*
X23254Y-39525D01*
X23254Y-39525D02*
X23254Y-39996D01*
X23214Y-39996D02*
X23254Y-39996D01*
X23214Y-39525D02*
X23214Y-39996D01*
X23214Y-40016D02*
X23254Y-40016D01*
X23254Y-40016D02*
X23254Y-40075D01*
X23214Y-40075D02*
X23254Y-40075D01*
X23214Y-40016D02*
X23214Y-40075D01*
X22546Y-39525D02*
X22586Y-39525D01*
X22586Y-39525D02*
X22586Y-39996D01*
X22546Y-39996D02*
X22586Y-39996D01*
X22546Y-39525D02*
X22546Y-39996D01*
X22546Y-40016D02*
X22586Y-40016D01*
X22586Y-40016D02*
X22586Y-40075D01*
X22546Y-40075D02*
X22586Y-40075D01*
X22546Y-40016D02*
X22546Y-40075D01*
X23077Y-39525D02*
X23136Y-39525D01*
X23136Y-39525D02*
X23136Y-39623D01*
X23077Y-39623D02*
X23136Y-39623D01*
X23077Y-39525D02*
X23077Y-39623D01*
G54D13*
X23510Y-39505D02*
X22290Y-39505D01*
X22290Y-39505D02*
X22290Y-40095D01*
X22290Y-40095D02*
X23510Y-40095D01*
X23510Y-40095D02*
X23510Y-39505D01*
X23115Y-39605D02*
X23097Y-39587D01*
X23078Y-39571D01*
X23057Y-39556D01*
X23035Y-39543D01*
X23012Y-39532D01*
X22988Y-39523D01*
X22964Y-39517D01*
X22939Y-39512D01*
X22914Y-39510D01*
X22889Y-39510D01*
X22864Y-39512D01*
X22839Y-39516D01*
X22814Y-39523D01*
X22791Y-39531D01*
X22767Y-39542D01*
X22745Y-39554D01*
X22725Y-39569D01*
X22705Y-39585D01*
X22687Y-39603D01*
X22686Y-39604D01*
X22685Y-39605D02*
X22669Y-39625D01*
X22654Y-39645D01*
X22642Y-39667D01*
X22631Y-39691D01*
X22623Y-39714D01*
X22616Y-39739D01*
X22612Y-39764D01*
X22610Y-39789D01*
X22610Y-39814D01*
X22612Y-39839D01*
X22617Y-39864D01*
X22623Y-39888D01*
X22632Y-39912D01*
X22643Y-39935D01*
X22656Y-39957D01*
X22671Y-39978D01*
X22685Y-39995D01*
X22685Y-39995D02*
X22703Y-40013D01*
X22722Y-40029D01*
X22743Y-40044D01*
X22765Y-40057D01*
X22788Y-40068D01*
X22812Y-40077D01*
X22836Y-40083D01*
X22861Y-40088D01*
X22886Y-40090D01*
X22911Y-40090D01*
X22936Y-40088D01*
X22961Y-40084D01*
X22986Y-40077D01*
X23009Y-40069D01*
X23033Y-40058D01*
X23055Y-40046D01*
X23075Y-40031D01*
X23095Y-40015D01*
X23113Y-39997D01*
X23114Y-39996D01*
X23115Y-39995D02*
X23131Y-39975D01*
X23146Y-39955D01*
X23158Y-39933D01*
X23169Y-39909D01*
X23177Y-39886D01*
X23184Y-39861D01*
X23188Y-39836D01*
X23190Y-39811D01*
X23190Y-39786D01*
X23188Y-39761D01*
X23183Y-39736D01*
X23177Y-39712D01*
X23168Y-39688D01*
X23157Y-39665D01*
X23144Y-39643D01*
X23129Y-39622D01*
X23115Y-39605D01*
G54D12*
X37361Y-39761D02*
X37439Y-39761D01*
X37439Y-39761D02*
X37439Y-39839D01*
X37361Y-39839D02*
X37439Y-39839D01*
X37361Y-39761D02*
X37361Y-39839D01*
X37577Y-39525D02*
X37714Y-39525D01*
X37714Y-39525D02*
X37714Y-39623D01*
X37577Y-39623D02*
X37714Y-39623D01*
X37577Y-39525D02*
X37577Y-39623D01*
X37714Y-39525D02*
X37754Y-39525D01*
X37754Y-39525D02*
X37754Y-39996D01*
X37714Y-39996D02*
X37754Y-39996D01*
X37714Y-39525D02*
X37714Y-39996D01*
X37714Y-40016D02*
X37754Y-40016D01*
X37754Y-40016D02*
X37754Y-40075D01*
X37714Y-40075D02*
X37754Y-40075D01*
X37714Y-40016D02*
X37714Y-40075D01*
X37046Y-39525D02*
X37086Y-39525D01*
X37086Y-39525D02*
X37086Y-39996D01*
X37046Y-39996D02*
X37086Y-39996D01*
X37046Y-39525D02*
X37046Y-39996D01*
X37046Y-40016D02*
X37086Y-40016D01*
X37086Y-40016D02*
X37086Y-40075D01*
X37046Y-40075D02*
X37086Y-40075D01*
X37046Y-40016D02*
X37046Y-40075D01*
X37577Y-39525D02*
X37636Y-39525D01*
X37636Y-39525D02*
X37636Y-39623D01*
X37577Y-39623D02*
X37636Y-39623D01*
X37577Y-39525D02*
X37577Y-39623D01*
G54D13*
X38010Y-39505D02*
X36790Y-39505D01*
X36790Y-39505D02*
X36790Y-40095D01*
X36790Y-40095D02*
X38010Y-40095D01*
X38010Y-40095D02*
X38010Y-39505D01*
X37615Y-39605D02*
X37597Y-39587D01*
X37578Y-39571D01*
X37557Y-39556D01*
X37535Y-39543D01*
X37512Y-39532D01*
X37488Y-39523D01*
X37464Y-39517D01*
X37439Y-39512D01*
X37414Y-39510D01*
X37389Y-39510D01*
X37364Y-39512D01*
X37339Y-39516D01*
X37314Y-39523D01*
X37291Y-39531D01*
X37267Y-39542D01*
X37245Y-39554D01*
X37225Y-39569D01*
X37205Y-39585D01*
X37187Y-39603D01*
X37186Y-39604D01*
X37185Y-39605D02*
X37169Y-39625D01*
X37154Y-39645D01*
X37142Y-39667D01*
X37131Y-39691D01*
X37123Y-39714D01*
X37116Y-39739D01*
X37112Y-39764D01*
X37110Y-39789D01*
X37110Y-39814D01*
X37112Y-39839D01*
X37117Y-39864D01*
X37123Y-39888D01*
X37132Y-39912D01*
X37143Y-39935D01*
X37156Y-39957D01*
X37171Y-39978D01*
X37185Y-39995D01*
X37185Y-39995D02*
X37203Y-40013D01*
X37222Y-40029D01*
X37243Y-40044D01*
X37265Y-40057D01*
X37288Y-40068D01*
X37312Y-40077D01*
X37336Y-40083D01*
X37361Y-40088D01*
X37386Y-40090D01*
X37411Y-40090D01*
X37436Y-40088D01*
X37461Y-40084D01*
X37486Y-40077D01*
X37509Y-40069D01*
X37533Y-40058D01*
X37555Y-40046D01*
X37575Y-40031D01*
X37595Y-40015D01*
X37613Y-39997D01*
X37614Y-39996D01*
X37615Y-39995D02*
X37631Y-39975D01*
X37646Y-39955D01*
X37658Y-39933D01*
X37669Y-39909D01*
X37677Y-39886D01*
X37684Y-39861D01*
X37688Y-39836D01*
X37690Y-39811D01*
X37690Y-39786D01*
X37688Y-39761D01*
X37683Y-39736D01*
X37677Y-39712D01*
X37668Y-39688D01*
X37657Y-39665D01*
X37644Y-39643D01*
X37629Y-39622D01*
X37615Y-39605D01*
G54D11*
X40350Y-41350D02*
X40349Y-41359D01*
X40346Y-41369D01*
X40341Y-41377D01*
X40335Y-41385D01*
X40327Y-41391D01*
X40319Y-41396D01*
X40310Y-41398D01*
X40300Y-41399D01*
X40291Y-41399D01*
X40282Y-41396D01*
X40273Y-41391D01*
X40266Y-41385D01*
X40259Y-41378D01*
X40255Y-41369D01*
X40252Y-41360D01*
X40251Y-41350D01*
X40251Y-41341D01*
X40254Y-41332D01*
X40258Y-41323D01*
X40265Y-41316D01*
X40272Y-41309D01*
X40280Y-41305D01*
X40290Y-41302D01*
X40299Y-41301D01*
X40308Y-41301D01*
X40318Y-41304D01*
X40326Y-41308D01*
X40334Y-41314D01*
X40340Y-41322D01*
X40345Y-41330D01*
X40348Y-41339D01*
X40349Y-41349D01*
X40350Y-41350D01*
X40300Y-41800D02*
X40300Y-41400D01*
X40300Y-41400D02*
X39700Y-41400D01*
X39700Y-41400D02*
X39700Y-41800D01*
X39700Y-42200D02*
X39700Y-42600D01*
X39700Y-42600D02*
X40300Y-42600D01*
X40300Y-42600D02*
X40300Y-42200D01*
X39750Y-40650D02*
X39749Y-40659D01*
X39746Y-40669D01*
X39741Y-40677D01*
X39735Y-40685D01*
X39727Y-40691D01*
X39719Y-40696D01*
X39710Y-40698D01*
X39700Y-40699D01*
X39691Y-40699D01*
X39682Y-40696D01*
X39673Y-40691D01*
X39666Y-40685D01*
X39659Y-40678D01*
X39655Y-40669D01*
X39652Y-40660D01*
X39651Y-40650D01*
X39651Y-40641D01*
X39654Y-40632D01*
X39658Y-40623D01*
X39665Y-40616D01*
X39672Y-40609D01*
X39680Y-40605D01*
X39690Y-40602D01*
X39699Y-40601D01*
X39708Y-40601D01*
X39718Y-40604D01*
X39726Y-40608D01*
X39734Y-40614D01*
X39740Y-40622D01*
X39745Y-40630D01*
X39748Y-40639D01*
X39749Y-40649D01*
X39750Y-40650D01*
X39700Y-40200D02*
X39700Y-40600D01*
X39700Y-40600D02*
X40300Y-40600D01*
X40300Y-40600D02*
X40300Y-40200D01*
X40300Y-39800D02*
X40300Y-39400D01*
X40300Y-39400D02*
X39700Y-39400D01*
X39700Y-39400D02*
X39700Y-39800D01*
X37150Y-40250D02*
X37149Y-40259D01*
X37146Y-40269D01*
X37141Y-40277D01*
X37135Y-40285D01*
X37127Y-40291D01*
X37119Y-40296D01*
X37110Y-40298D01*
X37100Y-40299D01*
X37091Y-40299D01*
X37082Y-40296D01*
X37073Y-40291D01*
X37066Y-40285D01*
X37059Y-40278D01*
X37055Y-40269D01*
X37052Y-40260D01*
X37051Y-40250D01*
X37051Y-40241D01*
X37054Y-40232D01*
X37058Y-40223D01*
X37065Y-40216D01*
X37072Y-40209D01*
X37080Y-40205D01*
X37090Y-40202D01*
X37099Y-40201D01*
X37108Y-40201D01*
X37118Y-40204D01*
X37126Y-40208D01*
X37134Y-40214D01*
X37140Y-40222D01*
X37145Y-40230D01*
X37148Y-40239D01*
X37149Y-40249D01*
X37150Y-40250D01*
X37100Y-40700D02*
X37100Y-40300D01*
X37100Y-40300D02*
X36500Y-40300D01*
X36500Y-40300D02*
X36500Y-40700D01*
X36500Y-41100D02*
X36500Y-41500D01*
X36500Y-41500D02*
X37100Y-41500D01*
X37100Y-41500D02*
X37100Y-41100D01*
X37750Y-42650D02*
X37749Y-42659D01*
X37746Y-42669D01*
X37741Y-42677D01*
X37735Y-42685D01*
X37727Y-42691D01*
X37719Y-42696D01*
X37710Y-42698D01*
X37700Y-42699D01*
X37691Y-42699D01*
X37682Y-42696D01*
X37673Y-42691D01*
X37666Y-42685D01*
X37659Y-42678D01*
X37655Y-42669D01*
X37652Y-42660D01*
X37651Y-42650D01*
X37651Y-42641D01*
X37654Y-42632D01*
X37658Y-42623D01*
X37665Y-42616D01*
X37672Y-42609D01*
X37680Y-42605D01*
X37690Y-42602D01*
X37699Y-42601D01*
X37708Y-42601D01*
X37718Y-42604D01*
X37726Y-42608D01*
X37734Y-42614D01*
X37740Y-42622D01*
X37745Y-42630D01*
X37748Y-42639D01*
X37749Y-42649D01*
X37750Y-42650D01*
X37700Y-42200D02*
X37700Y-42600D01*
X37700Y-42600D02*
X38300Y-42600D01*
X38300Y-42600D02*
X38300Y-42200D01*
X38300Y-41800D02*
X38300Y-41400D01*
X38300Y-41400D02*
X37700Y-41400D01*
X37700Y-41400D02*
X37700Y-41800D01*
X34550Y-41850D02*
X34549Y-41859D01*
X34546Y-41869D01*
X34541Y-41877D01*
X34535Y-41885D01*
X34527Y-41891D01*
X34519Y-41896D01*
X34510Y-41898D01*
X34500Y-41899D01*
X34491Y-41899D01*
X34482Y-41896D01*
X34473Y-41891D01*
X34466Y-41885D01*
X34459Y-41878D01*
X34455Y-41869D01*
X34452Y-41860D01*
X34451Y-41850D01*
X34451Y-41841D01*
X34454Y-41832D01*
X34458Y-41823D01*
X34465Y-41816D01*
X34472Y-41809D01*
X34480Y-41805D01*
X34490Y-41802D01*
X34499Y-41801D01*
X34508Y-41801D01*
X34518Y-41804D01*
X34526Y-41808D01*
X34534Y-41814D01*
X34540Y-41822D01*
X34545Y-41830D01*
X34548Y-41839D01*
X34549Y-41849D01*
X34550Y-41850D01*
X34500Y-41400D02*
X34500Y-41800D01*
X34500Y-41800D02*
X35100Y-41800D01*
X35100Y-41800D02*
X35100Y-41400D01*
X35100Y-41000D02*
X35100Y-40600D01*
X35100Y-40600D02*
X34500Y-40600D01*
X34500Y-40600D02*
X34500Y-41000D01*
X43900Y-40150D02*
X43900Y-41050D01*
X43900Y-41050D02*
X43250Y-41050D01*
X42550Y-40150D02*
X41900Y-40150D01*
X41900Y-40150D02*
X41900Y-41050D01*
X41900Y-41050D02*
X42550Y-41050D01*
X43250Y-40150D02*
X43900Y-40150D01*
X34250Y-42200D02*
X34250Y-42300D01*
X34250Y-42300D02*
X33350Y-42300D01*
X33350Y-42300D02*
X33350Y-42200D01*
X34250Y-42200D02*
X33350Y-42200D01*
X33350Y-42200D02*
X33350Y-41550D01*
X34250Y-40850D02*
X34250Y-40200D01*
X34250Y-40200D02*
X33350Y-40200D01*
X33350Y-40200D02*
X33350Y-40850D01*
X34250Y-41550D02*
X34250Y-42200D01*
X43450Y-38650D02*
X43449Y-38659D01*
X43446Y-38669D01*
X43441Y-38677D01*
X43435Y-38685D01*
X43427Y-38691D01*
X43419Y-38696D01*
X43410Y-38698D01*
X43400Y-38699D01*
X43391Y-38699D01*
X43382Y-38696D01*
X43373Y-38691D01*
X43366Y-38685D01*
X43359Y-38678D01*
X43355Y-38669D01*
X43352Y-38660D01*
X43351Y-38650D01*
X43351Y-38641D01*
X43354Y-38632D01*
X43358Y-38623D01*
X43365Y-38616D01*
X43372Y-38609D01*
X43380Y-38605D01*
X43390Y-38602D01*
X43399Y-38601D01*
X43408Y-38601D01*
X43418Y-38604D01*
X43426Y-38608D01*
X43434Y-38614D01*
X43440Y-38622D01*
X43445Y-38630D01*
X43448Y-38639D01*
X43449Y-38649D01*
X43450Y-38650D01*
X43400Y-38200D02*
X43400Y-38600D01*
X43400Y-38600D02*
X44000Y-38600D01*
X44000Y-38600D02*
X44000Y-38200D01*
X44000Y-37800D02*
X44000Y-37400D01*
X44000Y-37400D02*
X43400Y-37400D01*
X43400Y-37400D02*
X43400Y-37800D01*
X32350Y-43050D02*
X33250Y-43050D01*
X33250Y-43050D02*
X33250Y-42550D01*
X33250Y-42550D02*
X32350Y-42550D01*
X32350Y-42550D02*
X32350Y-43050D01*
X61250Y-43050D02*
X62150Y-43050D01*
X62150Y-43050D02*
X62150Y-42550D01*
X62150Y-42550D02*
X61250Y-42550D01*
X61250Y-42550D02*
X61250Y-43050D01*
X72350Y-38650D02*
X72349Y-38659D01*
X72346Y-38669D01*
X72341Y-38677D01*
X72335Y-38685D01*
X72327Y-38691D01*
X72319Y-38696D01*
X72310Y-38698D01*
X72300Y-38699D01*
X72291Y-38699D01*
X72282Y-38696D01*
X72273Y-38691D01*
X72266Y-38685D01*
X72259Y-38678D01*
X72255Y-38669D01*
X72252Y-38660D01*
X72251Y-38650D01*
X72251Y-38641D01*
X72254Y-38632D01*
X72258Y-38623D01*
X72265Y-38616D01*
X72272Y-38609D01*
X72280Y-38605D01*
X72290Y-38602D01*
X72299Y-38601D01*
X72308Y-38601D01*
X72318Y-38604D01*
X72326Y-38608D01*
X72334Y-38614D01*
X72340Y-38622D01*
X72345Y-38630D01*
X72348Y-38639D01*
X72349Y-38649D01*
X72350Y-38650D01*
X72300Y-38200D02*
X72300Y-38600D01*
X72300Y-38600D02*
X72900Y-38600D01*
X72900Y-38600D02*
X72900Y-38200D01*
X72900Y-37800D02*
X72900Y-37400D01*
X72900Y-37400D02*
X72300Y-37400D01*
X72300Y-37400D02*
X72300Y-37800D01*
X63150Y-42200D02*
X63150Y-42300D01*
X63150Y-42300D02*
X62250Y-42300D01*
X62250Y-42300D02*
X62250Y-42200D01*
X63150Y-42200D02*
X62250Y-42200D01*
X62250Y-42200D02*
X62250Y-41550D01*
X63150Y-40850D02*
X63150Y-40200D01*
X63150Y-40200D02*
X62250Y-40200D01*
X62250Y-40200D02*
X62250Y-40850D01*
X63150Y-41550D02*
X63150Y-42200D01*
X72800Y-40150D02*
X72800Y-41050D01*
X72800Y-41050D02*
X72150Y-41050D01*
X71450Y-40150D02*
X70800Y-40150D01*
X70800Y-40150D02*
X70800Y-41050D01*
X70800Y-41050D02*
X71450Y-41050D01*
X72150Y-40150D02*
X72800Y-40150D01*
X63450Y-41850D02*
X63449Y-41859D01*
X63446Y-41869D01*
X63441Y-41877D01*
X63435Y-41885D01*
X63427Y-41891D01*
X63419Y-41896D01*
X63410Y-41898D01*
X63400Y-41899D01*
X63391Y-41899D01*
X63382Y-41896D01*
X63373Y-41891D01*
X63366Y-41885D01*
X63359Y-41878D01*
X63355Y-41869D01*
X63352Y-41860D01*
X63351Y-41850D01*
X63351Y-41841D01*
X63354Y-41832D01*
X63358Y-41823D01*
X63365Y-41816D01*
X63372Y-41809D01*
X63380Y-41805D01*
X63390Y-41802D01*
X63399Y-41801D01*
X63408Y-41801D01*
X63418Y-41804D01*
X63426Y-41808D01*
X63434Y-41814D01*
X63440Y-41822D01*
X63445Y-41830D01*
X63448Y-41839D01*
X63449Y-41849D01*
X63450Y-41850D01*
X63400Y-41400D02*
X63400Y-41800D01*
X63400Y-41800D02*
X64000Y-41800D01*
X64000Y-41800D02*
X64000Y-41400D01*
X64000Y-41000D02*
X64000Y-40600D01*
X64000Y-40600D02*
X63400Y-40600D01*
X63400Y-40600D02*
X63400Y-41000D01*
X66650Y-42650D02*
X66649Y-42659D01*
X66646Y-42669D01*
X66641Y-42677D01*
X66635Y-42685D01*
X66627Y-42691D01*
X66619Y-42696D01*
X66610Y-42698D01*
X66600Y-42699D01*
X66591Y-42699D01*
X66582Y-42696D01*
X66573Y-42691D01*
X66566Y-42685D01*
X66559Y-42678D01*
X66555Y-42669D01*
X66552Y-42660D01*
X66551Y-42650D01*
X66551Y-42641D01*
X66554Y-42632D01*
X66558Y-42623D01*
X66565Y-42616D01*
X66572Y-42609D01*
X66580Y-42605D01*
X66590Y-42602D01*
X66599Y-42601D01*
X66608Y-42601D01*
X66618Y-42604D01*
X66626Y-42608D01*
X66634Y-42614D01*
X66640Y-42622D01*
X66645Y-42630D01*
X66648Y-42639D01*
X66649Y-42649D01*
X66650Y-42650D01*
X66600Y-42200D02*
X66600Y-42600D01*
X66600Y-42600D02*
X67200Y-42600D01*
X67200Y-42600D02*
X67200Y-42200D01*
X67200Y-41800D02*
X67200Y-41400D01*
X67200Y-41400D02*
X66600Y-41400D01*
X66600Y-41400D02*
X66600Y-41800D01*
X66050Y-40250D02*
X66049Y-40259D01*
X66046Y-40269D01*
X66041Y-40277D01*
X66035Y-40285D01*
X66027Y-40291D01*
X66019Y-40296D01*
X66010Y-40298D01*
X66000Y-40299D01*
X65991Y-40299D01*
X65982Y-40296D01*
X65973Y-40291D01*
X65966Y-40285D01*
X65959Y-40278D01*
X65955Y-40269D01*
X65952Y-40260D01*
X65951Y-40250D01*
X65951Y-40241D01*
X65954Y-40232D01*
X65958Y-40223D01*
X65965Y-40216D01*
X65972Y-40209D01*
X65980Y-40205D01*
X65990Y-40202D01*
X65999Y-40201D01*
X66008Y-40201D01*
X66018Y-40204D01*
X66026Y-40208D01*
X66034Y-40214D01*
X66040Y-40222D01*
X66045Y-40230D01*
X66048Y-40239D01*
X66049Y-40249D01*
X66050Y-40250D01*
X66000Y-40700D02*
X66000Y-40300D01*
X66000Y-40300D02*
X65400Y-40300D01*
X65400Y-40300D02*
X65400Y-40700D01*
X65400Y-41100D02*
X65400Y-41500D01*
X65400Y-41500D02*
X66000Y-41500D01*
X66000Y-41500D02*
X66000Y-41100D01*
X68650Y-40650D02*
X68649Y-40659D01*
X68646Y-40669D01*
X68641Y-40677D01*
X68635Y-40685D01*
X68627Y-40691D01*
X68619Y-40696D01*
X68610Y-40698D01*
X68600Y-40699D01*
X68591Y-40699D01*
X68582Y-40696D01*
X68573Y-40691D01*
X68566Y-40685D01*
X68559Y-40678D01*
X68555Y-40669D01*
X68552Y-40660D01*
X68551Y-40650D01*
X68551Y-40641D01*
X68554Y-40632D01*
X68558Y-40623D01*
X68565Y-40616D01*
X68572Y-40609D01*
X68580Y-40605D01*
X68590Y-40602D01*
X68599Y-40601D01*
X68608Y-40601D01*
X68618Y-40604D01*
X68626Y-40608D01*
X68634Y-40614D01*
X68640Y-40622D01*
X68645Y-40630D01*
X68648Y-40639D01*
X68649Y-40649D01*
X68650Y-40650D01*
X68600Y-40200D02*
X68600Y-40600D01*
X68600Y-40600D02*
X69200Y-40600D01*
X69200Y-40600D02*
X69200Y-40200D01*
X69200Y-39800D02*
X69200Y-39400D01*
X69200Y-39400D02*
X68600Y-39400D01*
X68600Y-39400D02*
X68600Y-39800D01*
X69250Y-41350D02*
X69249Y-41359D01*
X69246Y-41369D01*
X69241Y-41377D01*
X69235Y-41385D01*
X69227Y-41391D01*
X69219Y-41396D01*
X69210Y-41398D01*
X69200Y-41399D01*
X69191Y-41399D01*
X69182Y-41396D01*
X69173Y-41391D01*
X69166Y-41385D01*
X69159Y-41378D01*
X69155Y-41369D01*
X69152Y-41360D01*
X69151Y-41350D01*
X69151Y-41341D01*
X69154Y-41332D01*
X69158Y-41323D01*
X69165Y-41316D01*
X69172Y-41309D01*
X69180Y-41305D01*
X69190Y-41302D01*
X69199Y-41301D01*
X69208Y-41301D01*
X69218Y-41304D01*
X69226Y-41308D01*
X69234Y-41314D01*
X69240Y-41322D01*
X69245Y-41330D01*
X69248Y-41339D01*
X69249Y-41349D01*
X69250Y-41350D01*
X69200Y-41800D02*
X69200Y-41400D01*
X69200Y-41400D02*
X68600Y-41400D01*
X68600Y-41400D02*
X68600Y-41800D01*
X68600Y-42200D02*
X68600Y-42600D01*
X68600Y-42600D02*
X69200Y-42600D01*
X69200Y-42600D02*
X69200Y-42200D01*
G54D12*
X66261Y-39761D02*
X66339Y-39761D01*
X66339Y-39761D02*
X66339Y-39839D01*
X66261Y-39839D02*
X66339Y-39839D01*
X66261Y-39761D02*
X66261Y-39839D01*
X66477Y-39525D02*
X66614Y-39525D01*
X66614Y-39525D02*
X66614Y-39623D01*
X66477Y-39623D02*
X66614Y-39623D01*
X66477Y-39525D02*
X66477Y-39623D01*
X66614Y-39525D02*
X66654Y-39525D01*
X66654Y-39525D02*
X66654Y-39996D01*
X66614Y-39996D02*
X66654Y-39996D01*
X66614Y-39525D02*
X66614Y-39996D01*
X66614Y-40016D02*
X66654Y-40016D01*
X66654Y-40016D02*
X66654Y-40075D01*
X66614Y-40075D02*
X66654Y-40075D01*
X66614Y-40016D02*
X66614Y-40075D01*
X65946Y-39525D02*
X65986Y-39525D01*
X65986Y-39525D02*
X65986Y-39996D01*
X65946Y-39996D02*
X65986Y-39996D01*
X65946Y-39525D02*
X65946Y-39996D01*
X65946Y-40016D02*
X65986Y-40016D01*
X65986Y-40016D02*
X65986Y-40075D01*
X65946Y-40075D02*
X65986Y-40075D01*
X65946Y-40016D02*
X65946Y-40075D01*
X66477Y-39525D02*
X66536Y-39525D01*
X66536Y-39525D02*
X66536Y-39623D01*
X66477Y-39623D02*
X66536Y-39623D01*
X66477Y-39525D02*
X66477Y-39623D01*
G54D13*
X66910Y-39505D02*
X65690Y-39505D01*
X65690Y-39505D02*
X65690Y-40095D01*
X65690Y-40095D02*
X66910Y-40095D01*
X66910Y-40095D02*
X66910Y-39505D01*
X66515Y-39605D02*
X66497Y-39587D01*
X66478Y-39571D01*
X66457Y-39556D01*
X66435Y-39543D01*
X66412Y-39532D01*
X66388Y-39523D01*
X66364Y-39517D01*
X66339Y-39512D01*
X66314Y-39510D01*
X66289Y-39510D01*
X66264Y-39512D01*
X66239Y-39516D01*
X66214Y-39523D01*
X66191Y-39531D01*
X66167Y-39542D01*
X66145Y-39554D01*
X66125Y-39569D01*
X66105Y-39585D01*
X66087Y-39603D01*
X66086Y-39604D01*
X66085Y-39605D02*
X66069Y-39625D01*
X66054Y-39645D01*
X66042Y-39667D01*
X66031Y-39691D01*
X66023Y-39714D01*
X66016Y-39739D01*
X66012Y-39764D01*
X66010Y-39789D01*
X66010Y-39814D01*
X66012Y-39839D01*
X66017Y-39864D01*
X66023Y-39888D01*
X66032Y-39912D01*
X66043Y-39935D01*
X66056Y-39957D01*
X66071Y-39978D01*
X66085Y-39995D01*
X66085Y-39995D02*
X66103Y-40013D01*
X66122Y-40029D01*
X66143Y-40044D01*
X66165Y-40057D01*
X66188Y-40068D01*
X66212Y-40077D01*
X66236Y-40083D01*
X66261Y-40088D01*
X66286Y-40090D01*
X66311Y-40090D01*
X66336Y-40088D01*
X66361Y-40084D01*
X66386Y-40077D01*
X66409Y-40069D01*
X66433Y-40058D01*
X66455Y-40046D01*
X66475Y-40031D01*
X66495Y-40015D01*
X66513Y-39997D01*
X66514Y-39996D01*
X66515Y-39995D02*
X66531Y-39975D01*
X66546Y-39955D01*
X66558Y-39933D01*
X66569Y-39909D01*
X66577Y-39886D01*
X66584Y-39861D01*
X66588Y-39836D01*
X66590Y-39811D01*
X66590Y-39786D01*
X66588Y-39761D01*
X66583Y-39736D01*
X66577Y-39712D01*
X66568Y-39688D01*
X66557Y-39665D01*
X66544Y-39643D01*
X66529Y-39622D01*
X66515Y-39605D01*
G54D12*
X51761Y-39761D02*
X51839Y-39761D01*
X51839Y-39761D02*
X51839Y-39839D01*
X51761Y-39839D02*
X51839Y-39839D01*
X51761Y-39761D02*
X51761Y-39839D01*
X51977Y-39525D02*
X52114Y-39525D01*
X52114Y-39525D02*
X52114Y-39623D01*
X51977Y-39623D02*
X52114Y-39623D01*
X51977Y-39525D02*
X51977Y-39623D01*
X52114Y-39525D02*
X52154Y-39525D01*
X52154Y-39525D02*
X52154Y-39996D01*
X52114Y-39996D02*
X52154Y-39996D01*
X52114Y-39525D02*
X52114Y-39996D01*
X52114Y-40016D02*
X52154Y-40016D01*
X52154Y-40016D02*
X52154Y-40075D01*
X52114Y-40075D02*
X52154Y-40075D01*
X52114Y-40016D02*
X52114Y-40075D01*
X51446Y-39525D02*
X51486Y-39525D01*
X51486Y-39525D02*
X51486Y-39996D01*
X51446Y-39996D02*
X51486Y-39996D01*
X51446Y-39525D02*
X51446Y-39996D01*
X51446Y-40016D02*
X51486Y-40016D01*
X51486Y-40016D02*
X51486Y-40075D01*
X51446Y-40075D02*
X51486Y-40075D01*
X51446Y-40016D02*
X51446Y-40075D01*
X51977Y-39525D02*
X52036Y-39525D01*
X52036Y-39525D02*
X52036Y-39623D01*
X51977Y-39623D02*
X52036Y-39623D01*
X51977Y-39525D02*
X51977Y-39623D01*
G54D13*
X52410Y-39505D02*
X51190Y-39505D01*
X51190Y-39505D02*
X51190Y-40095D01*
X51190Y-40095D02*
X52410Y-40095D01*
X52410Y-40095D02*
X52410Y-39505D01*
X52015Y-39605D02*
X51997Y-39587D01*
X51978Y-39571D01*
X51957Y-39556D01*
X51935Y-39543D01*
X51912Y-39532D01*
X51888Y-39523D01*
X51864Y-39517D01*
X51839Y-39512D01*
X51814Y-39510D01*
X51789Y-39510D01*
X51764Y-39512D01*
X51739Y-39516D01*
X51714Y-39523D01*
X51691Y-39531D01*
X51667Y-39542D01*
X51645Y-39554D01*
X51625Y-39569D01*
X51605Y-39585D01*
X51587Y-39603D01*
X51586Y-39604D01*
X51585Y-39605D02*
X51569Y-39625D01*
X51554Y-39645D01*
X51542Y-39667D01*
X51531Y-39691D01*
X51523Y-39714D01*
X51516Y-39739D01*
X51512Y-39764D01*
X51510Y-39789D01*
X51510Y-39814D01*
X51512Y-39839D01*
X51517Y-39864D01*
X51523Y-39888D01*
X51532Y-39912D01*
X51543Y-39935D01*
X51556Y-39957D01*
X51571Y-39978D01*
X51585Y-39995D01*
X51585Y-39995D02*
X51603Y-40013D01*
X51622Y-40029D01*
X51643Y-40044D01*
X51665Y-40057D01*
X51688Y-40068D01*
X51712Y-40077D01*
X51736Y-40083D01*
X51761Y-40088D01*
X51786Y-40090D01*
X51811Y-40090D01*
X51836Y-40088D01*
X51861Y-40084D01*
X51886Y-40077D01*
X51909Y-40069D01*
X51933Y-40058D01*
X51955Y-40046D01*
X51975Y-40031D01*
X51995Y-40015D01*
X52013Y-39997D01*
X52014Y-39996D01*
X52015Y-39995D02*
X52031Y-39975D01*
X52046Y-39955D01*
X52058Y-39933D01*
X52069Y-39909D01*
X52077Y-39886D01*
X52084Y-39861D01*
X52088Y-39836D01*
X52090Y-39811D01*
X52090Y-39786D01*
X52088Y-39761D01*
X52083Y-39736D01*
X52077Y-39712D01*
X52068Y-39688D01*
X52057Y-39665D01*
X52044Y-39643D01*
X52029Y-39622D01*
X52015Y-39605D01*
G54D11*
X54750Y-41350D02*
X54749Y-41359D01*
X54746Y-41369D01*
X54741Y-41377D01*
X54735Y-41385D01*
X54727Y-41391D01*
X54719Y-41396D01*
X54710Y-41398D01*
X54700Y-41399D01*
X54691Y-41399D01*
X54682Y-41396D01*
X54673Y-41391D01*
X54666Y-41385D01*
X54659Y-41378D01*
X54655Y-41369D01*
X54652Y-41360D01*
X54651Y-41350D01*
X54651Y-41341D01*
X54654Y-41332D01*
X54658Y-41323D01*
X54665Y-41316D01*
X54672Y-41309D01*
X54680Y-41305D01*
X54690Y-41302D01*
X54699Y-41301D01*
X54708Y-41301D01*
X54718Y-41304D01*
X54726Y-41308D01*
X54734Y-41314D01*
X54740Y-41322D01*
X54745Y-41330D01*
X54748Y-41339D01*
X54749Y-41349D01*
X54750Y-41350D01*
X54700Y-41800D02*
X54700Y-41400D01*
X54700Y-41400D02*
X54100Y-41400D01*
X54100Y-41400D02*
X54100Y-41800D01*
X54100Y-42200D02*
X54100Y-42600D01*
X54100Y-42600D02*
X54700Y-42600D01*
X54700Y-42600D02*
X54700Y-42200D01*
X54150Y-40650D02*
X54149Y-40659D01*
X54146Y-40669D01*
X54141Y-40677D01*
X54135Y-40685D01*
X54127Y-40691D01*
X54119Y-40696D01*
X54110Y-40698D01*
X54100Y-40699D01*
X54091Y-40699D01*
X54082Y-40696D01*
X54073Y-40691D01*
X54066Y-40685D01*
X54059Y-40678D01*
X54055Y-40669D01*
X54052Y-40660D01*
X54051Y-40650D01*
X54051Y-40641D01*
X54054Y-40632D01*
X54058Y-40623D01*
X54065Y-40616D01*
X54072Y-40609D01*
X54080Y-40605D01*
X54090Y-40602D01*
X54099Y-40601D01*
X54108Y-40601D01*
X54118Y-40604D01*
X54126Y-40608D01*
X54134Y-40614D01*
X54140Y-40622D01*
X54145Y-40630D01*
X54148Y-40639D01*
X54149Y-40649D01*
X54150Y-40650D01*
X54100Y-40200D02*
X54100Y-40600D01*
X54100Y-40600D02*
X54700Y-40600D01*
X54700Y-40600D02*
X54700Y-40200D01*
X54700Y-39800D02*
X54700Y-39400D01*
X54700Y-39400D02*
X54100Y-39400D01*
X54100Y-39400D02*
X54100Y-39800D01*
X51550Y-40250D02*
X51549Y-40259D01*
X51546Y-40269D01*
X51541Y-40277D01*
X51535Y-40285D01*
X51527Y-40291D01*
X51519Y-40296D01*
X51510Y-40298D01*
X51500Y-40299D01*
X51491Y-40299D01*
X51482Y-40296D01*
X51473Y-40291D01*
X51466Y-40285D01*
X51459Y-40278D01*
X51455Y-40269D01*
X51452Y-40260D01*
X51451Y-40250D01*
X51451Y-40241D01*
X51454Y-40232D01*
X51458Y-40223D01*
X51465Y-40216D01*
X51472Y-40209D01*
X51480Y-40205D01*
X51490Y-40202D01*
X51499Y-40201D01*
X51508Y-40201D01*
X51518Y-40204D01*
X51526Y-40208D01*
X51534Y-40214D01*
X51540Y-40222D01*
X51545Y-40230D01*
X51548Y-40239D01*
X51549Y-40249D01*
X51550Y-40250D01*
X51500Y-40700D02*
X51500Y-40300D01*
X51500Y-40300D02*
X50900Y-40300D01*
X50900Y-40300D02*
X50900Y-40700D01*
X50900Y-41100D02*
X50900Y-41500D01*
X50900Y-41500D02*
X51500Y-41500D01*
X51500Y-41500D02*
X51500Y-41100D01*
X52150Y-42650D02*
X52149Y-42659D01*
X52146Y-42669D01*
X52141Y-42677D01*
X52135Y-42685D01*
X52127Y-42691D01*
X52119Y-42696D01*
X52110Y-42698D01*
X52100Y-42699D01*
X52091Y-42699D01*
X52082Y-42696D01*
X52073Y-42691D01*
X52066Y-42685D01*
X52059Y-42678D01*
X52055Y-42669D01*
X52052Y-42660D01*
X52051Y-42650D01*
X52051Y-42641D01*
X52054Y-42632D01*
X52058Y-42623D01*
X52065Y-42616D01*
X52072Y-42609D01*
X52080Y-42605D01*
X52090Y-42602D01*
X52099Y-42601D01*
X52108Y-42601D01*
X52118Y-42604D01*
X52126Y-42608D01*
X52134Y-42614D01*
X52140Y-42622D01*
X52145Y-42630D01*
X52148Y-42639D01*
X52149Y-42649D01*
X52150Y-42650D01*
X52100Y-42200D02*
X52100Y-42600D01*
X52100Y-42600D02*
X52700Y-42600D01*
X52700Y-42600D02*
X52700Y-42200D01*
X52700Y-41800D02*
X52700Y-41400D01*
X52700Y-41400D02*
X52100Y-41400D01*
X52100Y-41400D02*
X52100Y-41800D01*
X48950Y-41850D02*
X48949Y-41859D01*
X48946Y-41869D01*
X48941Y-41877D01*
X48935Y-41885D01*
X48927Y-41891D01*
X48919Y-41896D01*
X48910Y-41898D01*
X48900Y-41899D01*
X48891Y-41899D01*
X48882Y-41896D01*
X48873Y-41891D01*
X48866Y-41885D01*
X48859Y-41878D01*
X48855Y-41869D01*
X48852Y-41860D01*
X48851Y-41850D01*
X48851Y-41841D01*
X48854Y-41832D01*
X48858Y-41823D01*
X48865Y-41816D01*
X48872Y-41809D01*
X48880Y-41805D01*
X48890Y-41802D01*
X48899Y-41801D01*
X48908Y-41801D01*
X48918Y-41804D01*
X48926Y-41808D01*
X48934Y-41814D01*
X48940Y-41822D01*
X48945Y-41830D01*
X48948Y-41839D01*
X48949Y-41849D01*
X48950Y-41850D01*
X48900Y-41400D02*
X48900Y-41800D01*
X48900Y-41800D02*
X49500Y-41800D01*
X49500Y-41800D02*
X49500Y-41400D01*
X49500Y-41000D02*
X49500Y-40600D01*
X49500Y-40600D02*
X48900Y-40600D01*
X48900Y-40600D02*
X48900Y-41000D01*
X58300Y-40150D02*
X58300Y-41050D01*
X58300Y-41050D02*
X57650Y-41050D01*
X56950Y-40150D02*
X56300Y-40150D01*
X56300Y-40150D02*
X56300Y-41050D01*
X56300Y-41050D02*
X56950Y-41050D01*
X57650Y-40150D02*
X58300Y-40150D01*
X48650Y-42200D02*
X48650Y-42300D01*
X48650Y-42300D02*
X47750Y-42300D01*
X47750Y-42300D02*
X47750Y-42200D01*
X48650Y-42200D02*
X47750Y-42200D01*
X47750Y-42200D02*
X47750Y-41550D01*
X48650Y-40850D02*
X48650Y-40200D01*
X48650Y-40200D02*
X47750Y-40200D01*
X47750Y-40200D02*
X47750Y-40850D01*
X48650Y-41550D02*
X48650Y-42200D01*
X57850Y-38650D02*
X57849Y-38659D01*
X57846Y-38669D01*
X57841Y-38677D01*
X57835Y-38685D01*
X57827Y-38691D01*
X57819Y-38696D01*
X57810Y-38698D01*
X57800Y-38699D01*
X57791Y-38699D01*
X57782Y-38696D01*
X57773Y-38691D01*
X57766Y-38685D01*
X57759Y-38678D01*
X57755Y-38669D01*
X57752Y-38660D01*
X57751Y-38650D01*
X57751Y-38641D01*
X57754Y-38632D01*
X57758Y-38623D01*
X57765Y-38616D01*
X57772Y-38609D01*
X57780Y-38605D01*
X57790Y-38602D01*
X57799Y-38601D01*
X57808Y-38601D01*
X57818Y-38604D01*
X57826Y-38608D01*
X57834Y-38614D01*
X57840Y-38622D01*
X57845Y-38630D01*
X57848Y-38639D01*
X57849Y-38649D01*
X57850Y-38650D01*
X57800Y-38200D02*
X57800Y-38600D01*
X57800Y-38600D02*
X58400Y-38600D01*
X58400Y-38600D02*
X58400Y-38200D01*
X58400Y-37800D02*
X58400Y-37400D01*
X58400Y-37400D02*
X57800Y-37400D01*
X57800Y-37400D02*
X57800Y-37800D01*
X46750Y-43050D02*
X47650Y-43050D01*
X47650Y-43050D02*
X47650Y-42550D01*
X47650Y-42550D02*
X46750Y-42550D01*
X46750Y-42550D02*
X46750Y-43050D01*
G54D12*
X80761Y-39761D02*
X80839Y-39761D01*
X80839Y-39761D02*
X80839Y-39839D01*
X80761Y-39839D02*
X80839Y-39839D01*
X80761Y-39761D02*
X80761Y-39839D01*
X80977Y-39525D02*
X81114Y-39525D01*
X81114Y-39525D02*
X81114Y-39623D01*
X80977Y-39623D02*
X81114Y-39623D01*
X80977Y-39525D02*
X80977Y-39623D01*
X81114Y-39525D02*
X81154Y-39525D01*
X81154Y-39525D02*
X81154Y-39996D01*
X81114Y-39996D02*
X81154Y-39996D01*
X81114Y-39525D02*
X81114Y-39996D01*
X81114Y-40016D02*
X81154Y-40016D01*
X81154Y-40016D02*
X81154Y-40075D01*
X81114Y-40075D02*
X81154Y-40075D01*
X81114Y-40016D02*
X81114Y-40075D01*
X80446Y-39525D02*
X80486Y-39525D01*
X80486Y-39525D02*
X80486Y-39996D01*
X80446Y-39996D02*
X80486Y-39996D01*
X80446Y-39525D02*
X80446Y-39996D01*
X80446Y-40016D02*
X80486Y-40016D01*
X80486Y-40016D02*
X80486Y-40075D01*
X80446Y-40075D02*
X80486Y-40075D01*
X80446Y-40016D02*
X80446Y-40075D01*
X80977Y-39525D02*
X81036Y-39525D01*
X81036Y-39525D02*
X81036Y-39623D01*
X80977Y-39623D02*
X81036Y-39623D01*
X80977Y-39525D02*
X80977Y-39623D01*
G54D13*
X81410Y-39505D02*
X80190Y-39505D01*
X80190Y-39505D02*
X80190Y-40095D01*
X80190Y-40095D02*
X81410Y-40095D01*
X81410Y-40095D02*
X81410Y-39505D01*
X81015Y-39605D02*
X80997Y-39587D01*
X80978Y-39571D01*
X80957Y-39556D01*
X80935Y-39543D01*
X80912Y-39532D01*
X80888Y-39523D01*
X80864Y-39517D01*
X80839Y-39512D01*
X80814Y-39510D01*
X80789Y-39510D01*
X80764Y-39512D01*
X80739Y-39516D01*
X80714Y-39523D01*
X80691Y-39531D01*
X80667Y-39542D01*
X80645Y-39554D01*
X80625Y-39569D01*
X80605Y-39585D01*
X80587Y-39603D01*
X80586Y-39604D01*
X80585Y-39605D02*
X80569Y-39625D01*
X80554Y-39645D01*
X80542Y-39667D01*
X80531Y-39691D01*
X80523Y-39714D01*
X80516Y-39739D01*
X80512Y-39764D01*
X80510Y-39789D01*
X80510Y-39814D01*
X80512Y-39839D01*
X80517Y-39864D01*
X80523Y-39888D01*
X80532Y-39912D01*
X80543Y-39935D01*
X80556Y-39957D01*
X80571Y-39978D01*
X80585Y-39995D01*
X80585Y-39995D02*
X80603Y-40013D01*
X80622Y-40029D01*
X80643Y-40044D01*
X80665Y-40057D01*
X80688Y-40068D01*
X80712Y-40077D01*
X80736Y-40083D01*
X80761Y-40088D01*
X80786Y-40090D01*
X80811Y-40090D01*
X80836Y-40088D01*
X80861Y-40084D01*
X80886Y-40077D01*
X80909Y-40069D01*
X80933Y-40058D01*
X80955Y-40046D01*
X80975Y-40031D01*
X80995Y-40015D01*
X81013Y-39997D01*
X81014Y-39996D01*
X81015Y-39995D02*
X81031Y-39975D01*
X81046Y-39955D01*
X81058Y-39933D01*
X81069Y-39909D01*
X81077Y-39886D01*
X81084Y-39861D01*
X81088Y-39836D01*
X81090Y-39811D01*
X81090Y-39786D01*
X81088Y-39761D01*
X81083Y-39736D01*
X81077Y-39712D01*
X81068Y-39688D01*
X81057Y-39665D01*
X81044Y-39643D01*
X81029Y-39622D01*
X81015Y-39605D01*
G54D11*
X83750Y-41350D02*
X83749Y-41359D01*
X83746Y-41369D01*
X83741Y-41377D01*
X83735Y-41385D01*
X83727Y-41391D01*
X83719Y-41396D01*
X83710Y-41398D01*
X83700Y-41399D01*
X83691Y-41399D01*
X83682Y-41396D01*
X83673Y-41391D01*
X83666Y-41385D01*
X83659Y-41378D01*
X83655Y-41369D01*
X83652Y-41360D01*
X83651Y-41350D01*
X83651Y-41341D01*
X83654Y-41332D01*
X83658Y-41323D01*
X83665Y-41316D01*
X83672Y-41309D01*
X83680Y-41305D01*
X83690Y-41302D01*
X83699Y-41301D01*
X83708Y-41301D01*
X83718Y-41304D01*
X83726Y-41308D01*
X83734Y-41314D01*
X83740Y-41322D01*
X83745Y-41330D01*
X83748Y-41339D01*
X83749Y-41349D01*
X83750Y-41350D01*
X83700Y-41800D02*
X83700Y-41400D01*
X83700Y-41400D02*
X83100Y-41400D01*
X83100Y-41400D02*
X83100Y-41800D01*
X83100Y-42200D02*
X83100Y-42600D01*
X83100Y-42600D02*
X83700Y-42600D01*
X83700Y-42600D02*
X83700Y-42200D01*
X83150Y-40650D02*
X83149Y-40659D01*
X83146Y-40669D01*
X83141Y-40677D01*
X83135Y-40685D01*
X83127Y-40691D01*
X83119Y-40696D01*
X83110Y-40698D01*
X83100Y-40699D01*
X83091Y-40699D01*
X83082Y-40696D01*
X83073Y-40691D01*
X83066Y-40685D01*
X83059Y-40678D01*
X83055Y-40669D01*
X83052Y-40660D01*
X83051Y-40650D01*
X83051Y-40641D01*
X83054Y-40632D01*
X83058Y-40623D01*
X83065Y-40616D01*
X83072Y-40609D01*
X83080Y-40605D01*
X83090Y-40602D01*
X83099Y-40601D01*
X83108Y-40601D01*
X83118Y-40604D01*
X83126Y-40608D01*
X83134Y-40614D01*
X83140Y-40622D01*
X83145Y-40630D01*
X83148Y-40639D01*
X83149Y-40649D01*
X83150Y-40650D01*
X83100Y-40200D02*
X83100Y-40600D01*
X83100Y-40600D02*
X83700Y-40600D01*
X83700Y-40600D02*
X83700Y-40200D01*
X83700Y-39800D02*
X83700Y-39400D01*
X83700Y-39400D02*
X83100Y-39400D01*
X83100Y-39400D02*
X83100Y-39800D01*
X80550Y-40250D02*
X80549Y-40259D01*
X80546Y-40269D01*
X80541Y-40277D01*
X80535Y-40285D01*
X80527Y-40291D01*
X80519Y-40296D01*
X80510Y-40298D01*
X80500Y-40299D01*
X80491Y-40299D01*
X80482Y-40296D01*
X80473Y-40291D01*
X80466Y-40285D01*
X80459Y-40278D01*
X80455Y-40269D01*
X80452Y-40260D01*
X80451Y-40250D01*
X80451Y-40241D01*
X80454Y-40232D01*
X80458Y-40223D01*
X80465Y-40216D01*
X80472Y-40209D01*
X80480Y-40205D01*
X80490Y-40202D01*
X80499Y-40201D01*
X80508Y-40201D01*
X80518Y-40204D01*
X80526Y-40208D01*
X80534Y-40214D01*
X80540Y-40222D01*
X80545Y-40230D01*
X80548Y-40239D01*
X80549Y-40249D01*
X80550Y-40250D01*
X80500Y-40700D02*
X80500Y-40300D01*
X80500Y-40300D02*
X79900Y-40300D01*
X79900Y-40300D02*
X79900Y-40700D01*
X79900Y-41100D02*
X79900Y-41500D01*
X79900Y-41500D02*
X80500Y-41500D01*
X80500Y-41500D02*
X80500Y-41100D01*
X81150Y-42650D02*
X81149Y-42659D01*
X81146Y-42669D01*
X81141Y-42677D01*
X81135Y-42685D01*
X81127Y-42691D01*
X81119Y-42696D01*
X81110Y-42698D01*
X81100Y-42699D01*
X81091Y-42699D01*
X81082Y-42696D01*
X81073Y-42691D01*
X81066Y-42685D01*
X81059Y-42678D01*
X81055Y-42669D01*
X81052Y-42660D01*
X81051Y-42650D01*
X81051Y-42641D01*
X81054Y-42632D01*
X81058Y-42623D01*
X81065Y-42616D01*
X81072Y-42609D01*
X81080Y-42605D01*
X81090Y-42602D01*
X81099Y-42601D01*
X81108Y-42601D01*
X81118Y-42604D01*
X81126Y-42608D01*
X81134Y-42614D01*
X81140Y-42622D01*
X81145Y-42630D01*
X81148Y-42639D01*
X81149Y-42649D01*
X81150Y-42650D01*
X81100Y-42200D02*
X81100Y-42600D01*
X81100Y-42600D02*
X81700Y-42600D01*
X81700Y-42600D02*
X81700Y-42200D01*
X81700Y-41800D02*
X81700Y-41400D01*
X81700Y-41400D02*
X81100Y-41400D01*
X81100Y-41400D02*
X81100Y-41800D01*
X77950Y-41850D02*
X77949Y-41859D01*
X77946Y-41869D01*
X77941Y-41877D01*
X77935Y-41885D01*
X77927Y-41891D01*
X77919Y-41896D01*
X77910Y-41898D01*
X77900Y-41899D01*
X77891Y-41899D01*
X77882Y-41896D01*
X77873Y-41891D01*
X77866Y-41885D01*
X77859Y-41878D01*
X77855Y-41869D01*
X77852Y-41860D01*
X77851Y-41850D01*
X77851Y-41841D01*
X77854Y-41832D01*
X77858Y-41823D01*
X77865Y-41816D01*
X77872Y-41809D01*
X77880Y-41805D01*
X77890Y-41802D01*
X77899Y-41801D01*
X77908Y-41801D01*
X77918Y-41804D01*
X77926Y-41808D01*
X77934Y-41814D01*
X77940Y-41822D01*
X77945Y-41830D01*
X77948Y-41839D01*
X77949Y-41849D01*
X77950Y-41850D01*
X77900Y-41400D02*
X77900Y-41800D01*
X77900Y-41800D02*
X78500Y-41800D01*
X78500Y-41800D02*
X78500Y-41400D01*
X78500Y-41000D02*
X78500Y-40600D01*
X78500Y-40600D02*
X77900Y-40600D01*
X77900Y-40600D02*
X77900Y-41000D01*
X87300Y-40150D02*
X87300Y-41050D01*
X87300Y-41050D02*
X86650Y-41050D01*
X85950Y-40150D02*
X85300Y-40150D01*
X85300Y-40150D02*
X85300Y-41050D01*
X85300Y-41050D02*
X85950Y-41050D01*
X86650Y-40150D02*
X87300Y-40150D01*
X77650Y-42200D02*
X77650Y-42300D01*
X77650Y-42300D02*
X76750Y-42300D01*
X76750Y-42300D02*
X76750Y-42200D01*
X77650Y-42200D02*
X76750Y-42200D01*
X76750Y-42200D02*
X76750Y-41550D01*
X77650Y-40850D02*
X77650Y-40200D01*
X77650Y-40200D02*
X76750Y-40200D01*
X76750Y-40200D02*
X76750Y-40850D01*
X77650Y-41550D02*
X77650Y-42200D01*
X86850Y-38650D02*
X86849Y-38659D01*
X86846Y-38669D01*
X86841Y-38677D01*
X86835Y-38685D01*
X86827Y-38691D01*
X86819Y-38696D01*
X86810Y-38698D01*
X86800Y-38699D01*
X86791Y-38699D01*
X86782Y-38696D01*
X86773Y-38691D01*
X86766Y-38685D01*
X86759Y-38678D01*
X86755Y-38669D01*
X86752Y-38660D01*
X86751Y-38650D01*
X86751Y-38641D01*
X86754Y-38632D01*
X86758Y-38623D01*
X86765Y-38616D01*
X86772Y-38609D01*
X86780Y-38605D01*
X86790Y-38602D01*
X86799Y-38601D01*
X86808Y-38601D01*
X86818Y-38604D01*
X86826Y-38608D01*
X86834Y-38614D01*
X86840Y-38622D01*
X86845Y-38630D01*
X86848Y-38639D01*
X86849Y-38649D01*
X86850Y-38650D01*
X86800Y-38200D02*
X86800Y-38600D01*
X86800Y-38600D02*
X87400Y-38600D01*
X87400Y-38600D02*
X87400Y-38200D01*
X87400Y-37800D02*
X87400Y-37400D01*
X87400Y-37400D02*
X86800Y-37400D01*
X86800Y-37400D02*
X86800Y-37800D01*
X75750Y-43050D02*
X76650Y-43050D01*
X76650Y-43050D02*
X76650Y-42550D01*
X76650Y-42550D02*
X75750Y-42550D01*
X75750Y-42550D02*
X75750Y-43050D01*
X75750Y-30050D02*
X76650Y-30050D01*
X76650Y-30050D02*
X76650Y-29550D01*
X76650Y-29550D02*
X75750Y-29550D01*
X75750Y-29550D02*
X75750Y-30050D01*
X86850Y-25650D02*
X86849Y-25659D01*
X86846Y-25669D01*
X86841Y-25677D01*
X86835Y-25685D01*
X86827Y-25691D01*
X86819Y-25696D01*
X86810Y-25698D01*
X86800Y-25699D01*
X86791Y-25699D01*
X86782Y-25696D01*
X86773Y-25691D01*
X86766Y-25685D01*
X86759Y-25678D01*
X86755Y-25669D01*
X86752Y-25660D01*
X86751Y-25650D01*
X86751Y-25641D01*
X86754Y-25632D01*
X86758Y-25623D01*
X86765Y-25616D01*
X86772Y-25609D01*
X86780Y-25605D01*
X86790Y-25602D01*
X86799Y-25601D01*
X86808Y-25601D01*
X86818Y-25604D01*
X86826Y-25608D01*
X86834Y-25614D01*
X86840Y-25622D01*
X86845Y-25630D01*
X86848Y-25639D01*
X86849Y-25649D01*
X86850Y-25650D01*
X86800Y-25200D02*
X86800Y-25600D01*
X86800Y-25600D02*
X87400Y-25600D01*
X87400Y-25600D02*
X87400Y-25200D01*
X87400Y-24800D02*
X87400Y-24400D01*
X87400Y-24400D02*
X86800Y-24400D01*
X86800Y-24400D02*
X86800Y-24800D01*
X77650Y-29200D02*
X77650Y-29300D01*
X77650Y-29300D02*
X76750Y-29300D01*
X76750Y-29300D02*
X76750Y-29200D01*
X77650Y-29200D02*
X76750Y-29200D01*
X76750Y-29200D02*
X76750Y-28550D01*
X77650Y-27850D02*
X77650Y-27200D01*
X77650Y-27200D02*
X76750Y-27200D01*
X76750Y-27200D02*
X76750Y-27850D01*
X77650Y-28550D02*
X77650Y-29200D01*
X87300Y-27150D02*
X87300Y-28050D01*
X87300Y-28050D02*
X86650Y-28050D01*
X85950Y-27150D02*
X85300Y-27150D01*
X85300Y-27150D02*
X85300Y-28050D01*
X85300Y-28050D02*
X85950Y-28050D01*
X86650Y-27150D02*
X87300Y-27150D01*
X77950Y-28850D02*
X77949Y-28859D01*
X77946Y-28869D01*
X77941Y-28877D01*
X77935Y-28885D01*
X77927Y-28891D01*
X77919Y-28896D01*
X77910Y-28898D01*
X77900Y-28899D01*
X77891Y-28899D01*
X77882Y-28896D01*
X77873Y-28891D01*
X77866Y-28885D01*
X77859Y-28878D01*
X77855Y-28869D01*
X77852Y-28860D01*
X77851Y-28850D01*
X77851Y-28841D01*
X77854Y-28832D01*
X77858Y-28823D01*
X77865Y-28816D01*
X77872Y-28809D01*
X77880Y-28805D01*
X77890Y-28802D01*
X77899Y-28801D01*
X77908Y-28801D01*
X77918Y-28804D01*
X77926Y-28808D01*
X77934Y-28814D01*
X77940Y-28822D01*
X77945Y-28830D01*
X77948Y-28839D01*
X77949Y-28849D01*
X77950Y-28850D01*
X77900Y-28400D02*
X77900Y-28800D01*
X77900Y-28800D02*
X78500Y-28800D01*
X78500Y-28800D02*
X78500Y-28400D01*
X78500Y-28000D02*
X78500Y-27600D01*
X78500Y-27600D02*
X77900Y-27600D01*
X77900Y-27600D02*
X77900Y-28000D01*
X81150Y-29650D02*
X81149Y-29659D01*
X81146Y-29669D01*
X81141Y-29677D01*
X81135Y-29685D01*
X81127Y-29691D01*
X81119Y-29696D01*
X81110Y-29698D01*
X81100Y-29699D01*
X81091Y-29699D01*
X81082Y-29696D01*
X81073Y-29691D01*
X81066Y-29685D01*
X81059Y-29678D01*
X81055Y-29669D01*
X81052Y-29660D01*
X81051Y-29650D01*
X81051Y-29641D01*
X81054Y-29632D01*
X81058Y-29623D01*
X81065Y-29616D01*
X81072Y-29609D01*
X81080Y-29605D01*
X81090Y-29602D01*
X81099Y-29601D01*
X81108Y-29601D01*
X81118Y-29604D01*
X81126Y-29608D01*
X81134Y-29614D01*
X81140Y-29622D01*
X81145Y-29630D01*
X81148Y-29639D01*
X81149Y-29649D01*
X81150Y-29650D01*
X81100Y-29200D02*
X81100Y-29600D01*
X81100Y-29600D02*
X81700Y-29600D01*
X81700Y-29600D02*
X81700Y-29200D01*
X81700Y-28800D02*
X81700Y-28400D01*
X81700Y-28400D02*
X81100Y-28400D01*
X81100Y-28400D02*
X81100Y-28800D01*
X80550Y-27250D02*
X80549Y-27259D01*
X80546Y-27269D01*
X80541Y-27277D01*
X80535Y-27285D01*
X80527Y-27291D01*
X80519Y-27296D01*
X80510Y-27298D01*
X80500Y-27299D01*
X80491Y-27299D01*
X80482Y-27296D01*
X80473Y-27291D01*
X80466Y-27285D01*
X80459Y-27278D01*
X80455Y-27269D01*
X80452Y-27260D01*
X80451Y-27250D01*
X80451Y-27241D01*
X80454Y-27232D01*
X80458Y-27223D01*
X80465Y-27216D01*
X80472Y-27209D01*
X80480Y-27205D01*
X80490Y-27202D01*
X80499Y-27201D01*
X80508Y-27201D01*
X80518Y-27204D01*
X80526Y-27208D01*
X80534Y-27214D01*
X80540Y-27222D01*
X80545Y-27230D01*
X80548Y-27239D01*
X80549Y-27249D01*
X80550Y-27250D01*
X80500Y-27700D02*
X80500Y-27300D01*
X80500Y-27300D02*
X79900Y-27300D01*
X79900Y-27300D02*
X79900Y-27700D01*
X79900Y-28100D02*
X79900Y-28500D01*
X79900Y-28500D02*
X80500Y-28500D01*
X80500Y-28500D02*
X80500Y-28100D01*
X83150Y-27650D02*
X83149Y-27659D01*
X83146Y-27669D01*
X83141Y-27677D01*
X83135Y-27685D01*
X83127Y-27691D01*
X83119Y-27696D01*
X83110Y-27698D01*
X83100Y-27699D01*
X83091Y-27699D01*
X83082Y-27696D01*
X83073Y-27691D01*
X83066Y-27685D01*
X83059Y-27678D01*
X83055Y-27669D01*
X83052Y-27660D01*
X83051Y-27650D01*
X83051Y-27641D01*
X83054Y-27632D01*
X83058Y-27623D01*
X83065Y-27616D01*
X83072Y-27609D01*
X83080Y-27605D01*
X83090Y-27602D01*
X83099Y-27601D01*
X83108Y-27601D01*
X83118Y-27604D01*
X83126Y-27608D01*
X83134Y-27614D01*
X83140Y-27622D01*
X83145Y-27630D01*
X83148Y-27639D01*
X83149Y-27649D01*
X83150Y-27650D01*
X83100Y-27200D02*
X83100Y-27600D01*
X83100Y-27600D02*
X83700Y-27600D01*
X83700Y-27600D02*
X83700Y-27200D01*
X83700Y-26800D02*
X83700Y-26400D01*
X83700Y-26400D02*
X83100Y-26400D01*
X83100Y-26400D02*
X83100Y-26800D01*
X83750Y-28350D02*
X83749Y-28359D01*
X83746Y-28369D01*
X83741Y-28377D01*
X83735Y-28385D01*
X83727Y-28391D01*
X83719Y-28396D01*
X83710Y-28398D01*
X83700Y-28399D01*
X83691Y-28399D01*
X83682Y-28396D01*
X83673Y-28391D01*
X83666Y-28385D01*
X83659Y-28378D01*
X83655Y-28369D01*
X83652Y-28360D01*
X83651Y-28350D01*
X83651Y-28341D01*
X83654Y-28332D01*
X83658Y-28323D01*
X83665Y-28316D01*
X83672Y-28309D01*
X83680Y-28305D01*
X83690Y-28302D01*
X83699Y-28301D01*
X83708Y-28301D01*
X83718Y-28304D01*
X83726Y-28308D01*
X83734Y-28314D01*
X83740Y-28322D01*
X83745Y-28330D01*
X83748Y-28339D01*
X83749Y-28349D01*
X83750Y-28350D01*
X83700Y-28800D02*
X83700Y-28400D01*
X83700Y-28400D02*
X83100Y-28400D01*
X83100Y-28400D02*
X83100Y-28800D01*
X83100Y-29200D02*
X83100Y-29600D01*
X83100Y-29600D02*
X83700Y-29600D01*
X83700Y-29600D02*
X83700Y-29200D01*
G54D12*
X80761Y-26761D02*
X80839Y-26761D01*
X80839Y-26761D02*
X80839Y-26839D01*
X80761Y-26839D02*
X80839Y-26839D01*
X80761Y-26761D02*
X80761Y-26839D01*
X80977Y-26525D02*
X81114Y-26525D01*
X81114Y-26525D02*
X81114Y-26623D01*
X80977Y-26623D02*
X81114Y-26623D01*
X80977Y-26525D02*
X80977Y-26623D01*
X81114Y-26525D02*
X81154Y-26525D01*
X81154Y-26525D02*
X81154Y-26996D01*
X81114Y-26996D02*
X81154Y-26996D01*
X81114Y-26525D02*
X81114Y-26996D01*
X81114Y-27016D02*
X81154Y-27016D01*
X81154Y-27016D02*
X81154Y-27075D01*
X81114Y-27075D02*
X81154Y-27075D01*
X81114Y-27016D02*
X81114Y-27075D01*
X80446Y-26525D02*
X80486Y-26525D01*
X80486Y-26525D02*
X80486Y-26996D01*
X80446Y-26996D02*
X80486Y-26996D01*
X80446Y-26525D02*
X80446Y-26996D01*
X80446Y-27016D02*
X80486Y-27016D01*
X80486Y-27016D02*
X80486Y-27075D01*
X80446Y-27075D02*
X80486Y-27075D01*
X80446Y-27016D02*
X80446Y-27075D01*
X80977Y-26525D02*
X81036Y-26525D01*
X81036Y-26525D02*
X81036Y-26623D01*
X80977Y-26623D02*
X81036Y-26623D01*
X80977Y-26525D02*
X80977Y-26623D01*
G54D13*
X81410Y-26505D02*
X80190Y-26505D01*
X80190Y-26505D02*
X80190Y-27095D01*
X80190Y-27095D02*
X81410Y-27095D01*
X81410Y-27095D02*
X81410Y-26505D01*
X81015Y-26605D02*
X80997Y-26587D01*
X80978Y-26571D01*
X80957Y-26556D01*
X80935Y-26543D01*
X80912Y-26532D01*
X80888Y-26523D01*
X80864Y-26517D01*
X80839Y-26512D01*
X80814Y-26510D01*
X80789Y-26510D01*
X80764Y-26512D01*
X80739Y-26516D01*
X80714Y-26523D01*
X80691Y-26531D01*
X80667Y-26542D01*
X80645Y-26554D01*
X80625Y-26569D01*
X80605Y-26585D01*
X80587Y-26603D01*
X80586Y-26604D01*
X80585Y-26605D02*
X80569Y-26625D01*
X80554Y-26645D01*
X80542Y-26667D01*
X80531Y-26691D01*
X80523Y-26714D01*
X80516Y-26739D01*
X80512Y-26764D01*
X80510Y-26789D01*
X80510Y-26814D01*
X80512Y-26839D01*
X80517Y-26864D01*
X80523Y-26888D01*
X80532Y-26912D01*
X80543Y-26935D01*
X80556Y-26957D01*
X80571Y-26978D01*
X80585Y-26995D01*
X80585Y-26995D02*
X80603Y-27013D01*
X80622Y-27029D01*
X80643Y-27044D01*
X80665Y-27057D01*
X80688Y-27068D01*
X80712Y-27077D01*
X80736Y-27083D01*
X80761Y-27088D01*
X80786Y-27090D01*
X80811Y-27090D01*
X80836Y-27088D01*
X80861Y-27084D01*
X80886Y-27077D01*
X80909Y-27069D01*
X80933Y-27058D01*
X80955Y-27046D01*
X80975Y-27031D01*
X80995Y-27015D01*
X81013Y-26997D01*
X81014Y-26996D01*
X81015Y-26995D02*
X81031Y-26975D01*
X81046Y-26955D01*
X81058Y-26933D01*
X81069Y-26909D01*
X81077Y-26886D01*
X81084Y-26861D01*
X81088Y-26836D01*
X81090Y-26811D01*
X81090Y-26786D01*
X81088Y-26761D01*
X81083Y-26736D01*
X81077Y-26712D01*
X81068Y-26688D01*
X81057Y-26665D01*
X81044Y-26643D01*
X81029Y-26622D01*
X81015Y-26605D01*
G54D11*
X46750Y-30050D02*
X47650Y-30050D01*
X47650Y-30050D02*
X47650Y-29550D01*
X47650Y-29550D02*
X46750Y-29550D01*
X46750Y-29550D02*
X46750Y-30050D01*
X57850Y-25650D02*
X57849Y-25659D01*
X57846Y-25669D01*
X57841Y-25677D01*
X57835Y-25685D01*
X57827Y-25691D01*
X57819Y-25696D01*
X57810Y-25698D01*
X57800Y-25699D01*
X57791Y-25699D01*
X57782Y-25696D01*
X57773Y-25691D01*
X57766Y-25685D01*
X57759Y-25678D01*
X57755Y-25669D01*
X57752Y-25660D01*
X57751Y-25650D01*
X57751Y-25641D01*
X57754Y-25632D01*
X57758Y-25623D01*
X57765Y-25616D01*
X57772Y-25609D01*
X57780Y-25605D01*
X57790Y-25602D01*
X57799Y-25601D01*
X57808Y-25601D01*
X57818Y-25604D01*
X57826Y-25608D01*
X57834Y-25614D01*
X57840Y-25622D01*
X57845Y-25630D01*
X57848Y-25639D01*
X57849Y-25649D01*
X57850Y-25650D01*
X57800Y-25200D02*
X57800Y-25600D01*
X57800Y-25600D02*
X58400Y-25600D01*
X58400Y-25600D02*
X58400Y-25200D01*
X58400Y-24800D02*
X58400Y-24400D01*
X58400Y-24400D02*
X57800Y-24400D01*
X57800Y-24400D02*
X57800Y-24800D01*
X48650Y-29200D02*
X48650Y-29300D01*
X48650Y-29300D02*
X47750Y-29300D01*
X47750Y-29300D02*
X47750Y-29200D01*
X48650Y-29200D02*
X47750Y-29200D01*
X47750Y-29200D02*
X47750Y-28550D01*
X48650Y-27850D02*
X48650Y-27200D01*
X48650Y-27200D02*
X47750Y-27200D01*
X47750Y-27200D02*
X47750Y-27850D01*
X48650Y-28550D02*
X48650Y-29200D01*
X58300Y-27150D02*
X58300Y-28050D01*
X58300Y-28050D02*
X57650Y-28050D01*
X56950Y-27150D02*
X56300Y-27150D01*
X56300Y-27150D02*
X56300Y-28050D01*
X56300Y-28050D02*
X56950Y-28050D01*
X57650Y-27150D02*
X58300Y-27150D01*
X48950Y-28850D02*
X48949Y-28859D01*
X48946Y-28869D01*
X48941Y-28877D01*
X48935Y-28885D01*
X48927Y-28891D01*
X48919Y-28896D01*
X48910Y-28898D01*
X48900Y-28899D01*
X48891Y-28899D01*
X48882Y-28896D01*
X48873Y-28891D01*
X48866Y-28885D01*
X48859Y-28878D01*
X48855Y-28869D01*
X48852Y-28860D01*
X48851Y-28850D01*
X48851Y-28841D01*
X48854Y-28832D01*
X48858Y-28823D01*
X48865Y-28816D01*
X48872Y-28809D01*
X48880Y-28805D01*
X48890Y-28802D01*
X48899Y-28801D01*
X48908Y-28801D01*
X48918Y-28804D01*
X48926Y-28808D01*
X48934Y-28814D01*
X48940Y-28822D01*
X48945Y-28830D01*
X48948Y-28839D01*
X48949Y-28849D01*
X48950Y-28850D01*
X48900Y-28400D02*
X48900Y-28800D01*
X48900Y-28800D02*
X49500Y-28800D01*
X49500Y-28800D02*
X49500Y-28400D01*
X49500Y-28000D02*
X49500Y-27600D01*
X49500Y-27600D02*
X48900Y-27600D01*
X48900Y-27600D02*
X48900Y-28000D01*
X52150Y-29650D02*
X52149Y-29659D01*
X52146Y-29669D01*
X52141Y-29677D01*
X52135Y-29685D01*
X52127Y-29691D01*
X52119Y-29696D01*
X52110Y-29698D01*
X52100Y-29699D01*
X52091Y-29699D01*
X52082Y-29696D01*
X52073Y-29691D01*
X52066Y-29685D01*
X52059Y-29678D01*
X52055Y-29669D01*
X52052Y-29660D01*
X52051Y-29650D01*
X52051Y-29641D01*
X52054Y-29632D01*
X52058Y-29623D01*
X52065Y-29616D01*
X52072Y-29609D01*
X52080Y-29605D01*
X52090Y-29602D01*
X52099Y-29601D01*
X52108Y-29601D01*
X52118Y-29604D01*
X52126Y-29608D01*
X52134Y-29614D01*
X52140Y-29622D01*
X52145Y-29630D01*
X52148Y-29639D01*
X52149Y-29649D01*
X52150Y-29650D01*
X52100Y-29200D02*
X52100Y-29600D01*
X52100Y-29600D02*
X52700Y-29600D01*
X52700Y-29600D02*
X52700Y-29200D01*
X52700Y-28800D02*
X52700Y-28400D01*
X52700Y-28400D02*
X52100Y-28400D01*
X52100Y-28400D02*
X52100Y-28800D01*
X51550Y-27250D02*
X51549Y-27259D01*
X51546Y-27269D01*
X51541Y-27277D01*
X51535Y-27285D01*
X51527Y-27291D01*
X51519Y-27296D01*
X51510Y-27298D01*
X51500Y-27299D01*
X51491Y-27299D01*
X51482Y-27296D01*
X51473Y-27291D01*
X51466Y-27285D01*
X51459Y-27278D01*
X51455Y-27269D01*
X51452Y-27260D01*
X51451Y-27250D01*
X51451Y-27241D01*
X51454Y-27232D01*
X51458Y-27223D01*
X51465Y-27216D01*
X51472Y-27209D01*
X51480Y-27205D01*
X51490Y-27202D01*
X51499Y-27201D01*
X51508Y-27201D01*
X51518Y-27204D01*
X51526Y-27208D01*
X51534Y-27214D01*
X51540Y-27222D01*
X51545Y-27230D01*
X51548Y-27239D01*
X51549Y-27249D01*
X51550Y-27250D01*
X51500Y-27700D02*
X51500Y-27300D01*
X51500Y-27300D02*
X50900Y-27300D01*
X50900Y-27300D02*
X50900Y-27700D01*
X50900Y-28100D02*
X50900Y-28500D01*
X50900Y-28500D02*
X51500Y-28500D01*
X51500Y-28500D02*
X51500Y-28100D01*
X54150Y-27650D02*
X54149Y-27659D01*
X54146Y-27669D01*
X54141Y-27677D01*
X54135Y-27685D01*
X54127Y-27691D01*
X54119Y-27696D01*
X54110Y-27698D01*
X54100Y-27699D01*
X54091Y-27699D01*
X54082Y-27696D01*
X54073Y-27691D01*
X54066Y-27685D01*
X54059Y-27678D01*
X54055Y-27669D01*
X54052Y-27660D01*
X54051Y-27650D01*
X54051Y-27641D01*
X54054Y-27632D01*
X54058Y-27623D01*
X54065Y-27616D01*
X54072Y-27609D01*
X54080Y-27605D01*
X54090Y-27602D01*
X54099Y-27601D01*
X54108Y-27601D01*
X54118Y-27604D01*
X54126Y-27608D01*
X54134Y-27614D01*
X54140Y-27622D01*
X54145Y-27630D01*
X54148Y-27639D01*
X54149Y-27649D01*
X54150Y-27650D01*
X54100Y-27200D02*
X54100Y-27600D01*
X54100Y-27600D02*
X54700Y-27600D01*
X54700Y-27600D02*
X54700Y-27200D01*
X54700Y-26800D02*
X54700Y-26400D01*
X54700Y-26400D02*
X54100Y-26400D01*
X54100Y-26400D02*
X54100Y-26800D01*
X54750Y-28350D02*
X54749Y-28359D01*
X54746Y-28369D01*
X54741Y-28377D01*
X54735Y-28385D01*
X54727Y-28391D01*
X54719Y-28396D01*
X54710Y-28398D01*
X54700Y-28399D01*
X54691Y-28399D01*
X54682Y-28396D01*
X54673Y-28391D01*
X54666Y-28385D01*
X54659Y-28378D01*
X54655Y-28369D01*
X54652Y-28360D01*
X54651Y-28350D01*
X54651Y-28341D01*
X54654Y-28332D01*
X54658Y-28323D01*
X54665Y-28316D01*
X54672Y-28309D01*
X54680Y-28305D01*
X54690Y-28302D01*
X54699Y-28301D01*
X54708Y-28301D01*
X54718Y-28304D01*
X54726Y-28308D01*
X54734Y-28314D01*
X54740Y-28322D01*
X54745Y-28330D01*
X54748Y-28339D01*
X54749Y-28349D01*
X54750Y-28350D01*
X54700Y-28800D02*
X54700Y-28400D01*
X54700Y-28400D02*
X54100Y-28400D01*
X54100Y-28400D02*
X54100Y-28800D01*
X54100Y-29200D02*
X54100Y-29600D01*
X54100Y-29600D02*
X54700Y-29600D01*
X54700Y-29600D02*
X54700Y-29200D01*
G54D12*
X51761Y-26761D02*
X51839Y-26761D01*
X51839Y-26761D02*
X51839Y-26839D01*
X51761Y-26839D02*
X51839Y-26839D01*
X51761Y-26761D02*
X51761Y-26839D01*
X51977Y-26525D02*
X52114Y-26525D01*
X52114Y-26525D02*
X52114Y-26623D01*
X51977Y-26623D02*
X52114Y-26623D01*
X51977Y-26525D02*
X51977Y-26623D01*
X52114Y-26525D02*
X52154Y-26525D01*
X52154Y-26525D02*
X52154Y-26996D01*
X52114Y-26996D02*
X52154Y-26996D01*
X52114Y-26525D02*
X52114Y-26996D01*
X52114Y-27016D02*
X52154Y-27016D01*
X52154Y-27016D02*
X52154Y-27075D01*
X52114Y-27075D02*
X52154Y-27075D01*
X52114Y-27016D02*
X52114Y-27075D01*
X51446Y-26525D02*
X51486Y-26525D01*
X51486Y-26525D02*
X51486Y-26996D01*
X51446Y-26996D02*
X51486Y-26996D01*
X51446Y-26525D02*
X51446Y-26996D01*
X51446Y-27016D02*
X51486Y-27016D01*
X51486Y-27016D02*
X51486Y-27075D01*
X51446Y-27075D02*
X51486Y-27075D01*
X51446Y-27016D02*
X51446Y-27075D01*
X51977Y-26525D02*
X52036Y-26525D01*
X52036Y-26525D02*
X52036Y-26623D01*
X51977Y-26623D02*
X52036Y-26623D01*
X51977Y-26525D02*
X51977Y-26623D01*
G54D13*
X52410Y-26505D02*
X51190Y-26505D01*
X51190Y-26505D02*
X51190Y-27095D01*
X51190Y-27095D02*
X52410Y-27095D01*
X52410Y-27095D02*
X52410Y-26505D01*
X52015Y-26605D02*
X51997Y-26587D01*
X51978Y-26571D01*
X51957Y-26556D01*
X51935Y-26543D01*
X51912Y-26532D01*
X51888Y-26523D01*
X51864Y-26517D01*
X51839Y-26512D01*
X51814Y-26510D01*
X51789Y-26510D01*
X51764Y-26512D01*
X51739Y-26516D01*
X51714Y-26523D01*
X51691Y-26531D01*
X51667Y-26542D01*
X51645Y-26554D01*
X51625Y-26569D01*
X51605Y-26585D01*
X51587Y-26603D01*
X51586Y-26604D01*
X51585Y-26605D02*
X51569Y-26625D01*
X51554Y-26645D01*
X51542Y-26667D01*
X51531Y-26691D01*
X51523Y-26714D01*
X51516Y-26739D01*
X51512Y-26764D01*
X51510Y-26789D01*
X51510Y-26814D01*
X51512Y-26839D01*
X51517Y-26864D01*
X51523Y-26888D01*
X51532Y-26912D01*
X51543Y-26935D01*
X51556Y-26957D01*
X51571Y-26978D01*
X51585Y-26995D01*
X51585Y-26995D02*
X51603Y-27013D01*
X51622Y-27029D01*
X51643Y-27044D01*
X51665Y-27057D01*
X51688Y-27068D01*
X51712Y-27077D01*
X51736Y-27083D01*
X51761Y-27088D01*
X51786Y-27090D01*
X51811Y-27090D01*
X51836Y-27088D01*
X51861Y-27084D01*
X51886Y-27077D01*
X51909Y-27069D01*
X51933Y-27058D01*
X51955Y-27046D01*
X51975Y-27031D01*
X51995Y-27015D01*
X52013Y-26997D01*
X52014Y-26996D01*
X52015Y-26995D02*
X52031Y-26975D01*
X52046Y-26955D01*
X52058Y-26933D01*
X52069Y-26909D01*
X52077Y-26886D01*
X52084Y-26861D01*
X52088Y-26836D01*
X52090Y-26811D01*
X52090Y-26786D01*
X52088Y-26761D01*
X52083Y-26736D01*
X52077Y-26712D01*
X52068Y-26688D01*
X52057Y-26665D01*
X52044Y-26643D01*
X52029Y-26622D01*
X52015Y-26605D01*
G54D12*
X66261Y-26761D02*
X66339Y-26761D01*
X66339Y-26761D02*
X66339Y-26839D01*
X66261Y-26839D02*
X66339Y-26839D01*
X66261Y-26761D02*
X66261Y-26839D01*
X66477Y-26525D02*
X66614Y-26525D01*
X66614Y-26525D02*
X66614Y-26623D01*
X66477Y-26623D02*
X66614Y-26623D01*
X66477Y-26525D02*
X66477Y-26623D01*
X66614Y-26525D02*
X66654Y-26525D01*
X66654Y-26525D02*
X66654Y-26996D01*
X66614Y-26996D02*
X66654Y-26996D01*
X66614Y-26525D02*
X66614Y-26996D01*
X66614Y-27016D02*
X66654Y-27016D01*
X66654Y-27016D02*
X66654Y-27075D01*
X66614Y-27075D02*
X66654Y-27075D01*
X66614Y-27016D02*
X66614Y-27075D01*
X65946Y-26525D02*
X65986Y-26525D01*
X65986Y-26525D02*
X65986Y-26996D01*
X65946Y-26996D02*
X65986Y-26996D01*
X65946Y-26525D02*
X65946Y-26996D01*
X65946Y-27016D02*
X65986Y-27016D01*
X65986Y-27016D02*
X65986Y-27075D01*
X65946Y-27075D02*
X65986Y-27075D01*
X65946Y-27016D02*
X65946Y-27075D01*
X66477Y-26525D02*
X66536Y-26525D01*
X66536Y-26525D02*
X66536Y-26623D01*
X66477Y-26623D02*
X66536Y-26623D01*
X66477Y-26525D02*
X66477Y-26623D01*
G54D13*
X66910Y-26505D02*
X65690Y-26505D01*
X65690Y-26505D02*
X65690Y-27095D01*
X65690Y-27095D02*
X66910Y-27095D01*
X66910Y-27095D02*
X66910Y-26505D01*
X66515Y-26605D02*
X66497Y-26587D01*
X66478Y-26571D01*
X66457Y-26556D01*
X66435Y-26543D01*
X66412Y-26532D01*
X66388Y-26523D01*
X66364Y-26517D01*
X66339Y-26512D01*
X66314Y-26510D01*
X66289Y-26510D01*
X66264Y-26512D01*
X66239Y-26516D01*
X66214Y-26523D01*
X66191Y-26531D01*
X66167Y-26542D01*
X66145Y-26554D01*
X66125Y-26569D01*
X66105Y-26585D01*
X66087Y-26603D01*
X66086Y-26604D01*
X66085Y-26605D02*
X66069Y-26625D01*
X66054Y-26645D01*
X66042Y-26667D01*
X66031Y-26691D01*
X66023Y-26714D01*
X66016Y-26739D01*
X66012Y-26764D01*
X66010Y-26789D01*
X66010Y-26814D01*
X66012Y-26839D01*
X66017Y-26864D01*
X66023Y-26888D01*
X66032Y-26912D01*
X66043Y-26935D01*
X66056Y-26957D01*
X66071Y-26978D01*
X66085Y-26995D01*
X66085Y-26995D02*
X66103Y-27013D01*
X66122Y-27029D01*
X66143Y-27044D01*
X66165Y-27057D01*
X66188Y-27068D01*
X66212Y-27077D01*
X66236Y-27083D01*
X66261Y-27088D01*
X66286Y-27090D01*
X66311Y-27090D01*
X66336Y-27088D01*
X66361Y-27084D01*
X66386Y-27077D01*
X66409Y-27069D01*
X66433Y-27058D01*
X66455Y-27046D01*
X66475Y-27031D01*
X66495Y-27015D01*
X66513Y-26997D01*
X66514Y-26996D01*
X66515Y-26995D02*
X66531Y-26975D01*
X66546Y-26955D01*
X66558Y-26933D01*
X66569Y-26909D01*
X66577Y-26886D01*
X66584Y-26861D01*
X66588Y-26836D01*
X66590Y-26811D01*
X66590Y-26786D01*
X66588Y-26761D01*
X66583Y-26736D01*
X66577Y-26712D01*
X66568Y-26688D01*
X66557Y-26665D01*
X66544Y-26643D01*
X66529Y-26622D01*
X66515Y-26605D01*
G54D11*
X69250Y-28350D02*
X69249Y-28359D01*
X69246Y-28369D01*
X69241Y-28377D01*
X69235Y-28385D01*
X69227Y-28391D01*
X69219Y-28396D01*
X69210Y-28398D01*
X69200Y-28399D01*
X69191Y-28399D01*
X69182Y-28396D01*
X69173Y-28391D01*
X69166Y-28385D01*
X69159Y-28378D01*
X69155Y-28369D01*
X69152Y-28360D01*
X69151Y-28350D01*
X69151Y-28341D01*
X69154Y-28332D01*
X69158Y-28323D01*
X69165Y-28316D01*
X69172Y-28309D01*
X69180Y-28305D01*
X69190Y-28302D01*
X69199Y-28301D01*
X69208Y-28301D01*
X69218Y-28304D01*
X69226Y-28308D01*
X69234Y-28314D01*
X69240Y-28322D01*
X69245Y-28330D01*
X69248Y-28339D01*
X69249Y-28349D01*
X69250Y-28350D01*
X69200Y-28800D02*
X69200Y-28400D01*
X69200Y-28400D02*
X68600Y-28400D01*
X68600Y-28400D02*
X68600Y-28800D01*
X68600Y-29200D02*
X68600Y-29600D01*
X68600Y-29600D02*
X69200Y-29600D01*
X69200Y-29600D02*
X69200Y-29200D01*
X68650Y-27650D02*
X68649Y-27659D01*
X68646Y-27669D01*
X68641Y-27677D01*
X68635Y-27685D01*
X68627Y-27691D01*
X68619Y-27696D01*
X68610Y-27698D01*
X68600Y-27699D01*
X68591Y-27699D01*
X68582Y-27696D01*
X68573Y-27691D01*
X68566Y-27685D01*
X68559Y-27678D01*
X68555Y-27669D01*
X68552Y-27660D01*
X68551Y-27650D01*
X68551Y-27641D01*
X68554Y-27632D01*
X68558Y-27623D01*
X68565Y-27616D01*
X68572Y-27609D01*
X68580Y-27605D01*
X68590Y-27602D01*
X68599Y-27601D01*
X68608Y-27601D01*
X68618Y-27604D01*
X68626Y-27608D01*
X68634Y-27614D01*
X68640Y-27622D01*
X68645Y-27630D01*
X68648Y-27639D01*
X68649Y-27649D01*
X68650Y-27650D01*
X68600Y-27200D02*
X68600Y-27600D01*
X68600Y-27600D02*
X69200Y-27600D01*
X69200Y-27600D02*
X69200Y-27200D01*
X69200Y-26800D02*
X69200Y-26400D01*
X69200Y-26400D02*
X68600Y-26400D01*
X68600Y-26400D02*
X68600Y-26800D01*
X66050Y-27250D02*
X66049Y-27259D01*
X66046Y-27269D01*
X66041Y-27277D01*
X66035Y-27285D01*
X66027Y-27291D01*
X66019Y-27296D01*
X66010Y-27298D01*
X66000Y-27299D01*
X65991Y-27299D01*
X65982Y-27296D01*
X65973Y-27291D01*
X65966Y-27285D01*
X65959Y-27278D01*
X65955Y-27269D01*
X65952Y-27260D01*
X65951Y-27250D01*
X65951Y-27241D01*
X65954Y-27232D01*
X65958Y-27223D01*
X65965Y-27216D01*
X65972Y-27209D01*
X65980Y-27205D01*
X65990Y-27202D01*
X65999Y-27201D01*
X66008Y-27201D01*
X66018Y-27204D01*
X66026Y-27208D01*
X66034Y-27214D01*
X66040Y-27222D01*
X66045Y-27230D01*
X66048Y-27239D01*
X66049Y-27249D01*
X66050Y-27250D01*
X66000Y-27700D02*
X66000Y-27300D01*
X66000Y-27300D02*
X65400Y-27300D01*
X65400Y-27300D02*
X65400Y-27700D01*
X65400Y-28100D02*
X65400Y-28500D01*
X65400Y-28500D02*
X66000Y-28500D01*
X66000Y-28500D02*
X66000Y-28100D01*
X66650Y-29650D02*
X66649Y-29659D01*
X66646Y-29669D01*
X66641Y-29677D01*
X66635Y-29685D01*
X66627Y-29691D01*
X66619Y-29696D01*
X66610Y-29698D01*
X66600Y-29699D01*
X66591Y-29699D01*
X66582Y-29696D01*
X66573Y-29691D01*
X66566Y-29685D01*
X66559Y-29678D01*
X66555Y-29669D01*
X66552Y-29660D01*
X66551Y-29650D01*
X66551Y-29641D01*
X66554Y-29632D01*
X66558Y-29623D01*
X66565Y-29616D01*
X66572Y-29609D01*
X66580Y-29605D01*
X66590Y-29602D01*
X66599Y-29601D01*
X66608Y-29601D01*
X66618Y-29604D01*
X66626Y-29608D01*
X66634Y-29614D01*
X66640Y-29622D01*
X66645Y-29630D01*
X66648Y-29639D01*
X66649Y-29649D01*
X66650Y-29650D01*
X66600Y-29200D02*
X66600Y-29600D01*
X66600Y-29600D02*
X67200Y-29600D01*
X67200Y-29600D02*
X67200Y-29200D01*
X67200Y-28800D02*
X67200Y-28400D01*
X67200Y-28400D02*
X66600Y-28400D01*
X66600Y-28400D02*
X66600Y-28800D01*
X63450Y-28850D02*
X63449Y-28859D01*
X63446Y-28869D01*
X63441Y-28877D01*
X63435Y-28885D01*
X63427Y-28891D01*
X63419Y-28896D01*
X63410Y-28898D01*
X63400Y-28899D01*
X63391Y-28899D01*
X63382Y-28896D01*
X63373Y-28891D01*
X63366Y-28885D01*
X63359Y-28878D01*
X63355Y-28869D01*
X63352Y-28860D01*
X63351Y-28850D01*
X63351Y-28841D01*
X63354Y-28832D01*
X63358Y-28823D01*
X63365Y-28816D01*
X63372Y-28809D01*
X63380Y-28805D01*
X63390Y-28802D01*
X63399Y-28801D01*
X63408Y-28801D01*
X63418Y-28804D01*
X63426Y-28808D01*
X63434Y-28814D01*
X63440Y-28822D01*
X63445Y-28830D01*
X63448Y-28839D01*
X63449Y-28849D01*
X63450Y-28850D01*
X63400Y-28400D02*
X63400Y-28800D01*
X63400Y-28800D02*
X64000Y-28800D01*
X64000Y-28800D02*
X64000Y-28400D01*
X64000Y-28000D02*
X64000Y-27600D01*
X64000Y-27600D02*
X63400Y-27600D01*
X63400Y-27600D02*
X63400Y-28000D01*
X72800Y-27150D02*
X72800Y-28050D01*
X72800Y-28050D02*
X72150Y-28050D01*
X71450Y-27150D02*
X70800Y-27150D01*
X70800Y-27150D02*
X70800Y-28050D01*
X70800Y-28050D02*
X71450Y-28050D01*
X72150Y-27150D02*
X72800Y-27150D01*
X63150Y-29200D02*
X63150Y-29300D01*
X63150Y-29300D02*
X62250Y-29300D01*
X62250Y-29300D02*
X62250Y-29200D01*
X63150Y-29200D02*
X62250Y-29200D01*
X62250Y-29200D02*
X62250Y-28550D01*
X63150Y-27850D02*
X63150Y-27200D01*
X63150Y-27200D02*
X62250Y-27200D01*
X62250Y-27200D02*
X62250Y-27850D01*
X63150Y-28550D02*
X63150Y-29200D01*
X72350Y-25650D02*
X72349Y-25659D01*
X72346Y-25669D01*
X72341Y-25677D01*
X72335Y-25685D01*
X72327Y-25691D01*
X72319Y-25696D01*
X72310Y-25698D01*
X72300Y-25699D01*
X72291Y-25699D01*
X72282Y-25696D01*
X72273Y-25691D01*
X72266Y-25685D01*
X72259Y-25678D01*
X72255Y-25669D01*
X72252Y-25660D01*
X72251Y-25650D01*
X72251Y-25641D01*
X72254Y-25632D01*
X72258Y-25623D01*
X72265Y-25616D01*
X72272Y-25609D01*
X72280Y-25605D01*
X72290Y-25602D01*
X72299Y-25601D01*
X72308Y-25601D01*
X72318Y-25604D01*
X72326Y-25608D01*
X72334Y-25614D01*
X72340Y-25622D01*
X72345Y-25630D01*
X72348Y-25639D01*
X72349Y-25649D01*
X72350Y-25650D01*
X72300Y-25200D02*
X72300Y-25600D01*
X72300Y-25600D02*
X72900Y-25600D01*
X72900Y-25600D02*
X72900Y-25200D01*
X72900Y-24800D02*
X72900Y-24400D01*
X72900Y-24400D02*
X72300Y-24400D01*
X72300Y-24400D02*
X72300Y-24800D01*
X61250Y-30050D02*
X62150Y-30050D01*
X62150Y-30050D02*
X62150Y-29550D01*
X62150Y-29550D02*
X61250Y-29550D01*
X61250Y-29550D02*
X61250Y-30050D01*
X32350Y-30050D02*
X33250Y-30050D01*
X33250Y-30050D02*
X33250Y-29550D01*
X33250Y-29550D02*
X32350Y-29550D01*
X32350Y-29550D02*
X32350Y-30050D01*
X43450Y-25650D02*
X43449Y-25659D01*
X43446Y-25669D01*
X43441Y-25677D01*
X43435Y-25685D01*
X43427Y-25691D01*
X43419Y-25696D01*
X43410Y-25698D01*
X43400Y-25699D01*
X43391Y-25699D01*
X43382Y-25696D01*
X43373Y-25691D01*
X43366Y-25685D01*
X43359Y-25678D01*
X43355Y-25669D01*
X43352Y-25660D01*
X43351Y-25650D01*
X43351Y-25641D01*
X43354Y-25632D01*
X43358Y-25623D01*
X43365Y-25616D01*
X43372Y-25609D01*
X43380Y-25605D01*
X43390Y-25602D01*
X43399Y-25601D01*
X43408Y-25601D01*
X43418Y-25604D01*
X43426Y-25608D01*
X43434Y-25614D01*
X43440Y-25622D01*
X43445Y-25630D01*
X43448Y-25639D01*
X43449Y-25649D01*
X43450Y-25650D01*
X43400Y-25200D02*
X43400Y-25600D01*
X43400Y-25600D02*
X44000Y-25600D01*
X44000Y-25600D02*
X44000Y-25200D01*
X44000Y-24800D02*
X44000Y-24400D01*
X44000Y-24400D02*
X43400Y-24400D01*
X43400Y-24400D02*
X43400Y-24800D01*
X34250Y-29200D02*
X34250Y-29300D01*
X34250Y-29300D02*
X33350Y-29300D01*
X33350Y-29300D02*
X33350Y-29200D01*
X34250Y-29200D02*
X33350Y-29200D01*
X33350Y-29200D02*
X33350Y-28550D01*
X34250Y-27850D02*
X34250Y-27200D01*
X34250Y-27200D02*
X33350Y-27200D01*
X33350Y-27200D02*
X33350Y-27850D01*
X34250Y-28550D02*
X34250Y-29200D01*
X43900Y-27150D02*
X43900Y-28050D01*
X43900Y-28050D02*
X43250Y-28050D01*
X42550Y-27150D02*
X41900Y-27150D01*
X41900Y-27150D02*
X41900Y-28050D01*
X41900Y-28050D02*
X42550Y-28050D01*
X43250Y-27150D02*
X43900Y-27150D01*
X34550Y-28850D02*
X34549Y-28859D01*
X34546Y-28869D01*
X34541Y-28877D01*
X34535Y-28885D01*
X34527Y-28891D01*
X34519Y-28896D01*
X34510Y-28898D01*
X34500Y-28899D01*
X34491Y-28899D01*
X34482Y-28896D01*
X34473Y-28891D01*
X34466Y-28885D01*
X34459Y-28878D01*
X34455Y-28869D01*
X34452Y-28860D01*
X34451Y-28850D01*
X34451Y-28841D01*
X34454Y-28832D01*
X34458Y-28823D01*
X34465Y-28816D01*
X34472Y-28809D01*
X34480Y-28805D01*
X34490Y-28802D01*
X34499Y-28801D01*
X34508Y-28801D01*
X34518Y-28804D01*
X34526Y-28808D01*
X34534Y-28814D01*
X34540Y-28822D01*
X34545Y-28830D01*
X34548Y-28839D01*
X34549Y-28849D01*
X34550Y-28850D01*
X34500Y-28400D02*
X34500Y-28800D01*
X34500Y-28800D02*
X35100Y-28800D01*
X35100Y-28800D02*
X35100Y-28400D01*
X35100Y-28000D02*
X35100Y-27600D01*
X35100Y-27600D02*
X34500Y-27600D01*
X34500Y-27600D02*
X34500Y-28000D01*
X37750Y-29650D02*
X37749Y-29659D01*
X37746Y-29669D01*
X37741Y-29677D01*
X37735Y-29685D01*
X37727Y-29691D01*
X37719Y-29696D01*
X37710Y-29698D01*
X37700Y-29699D01*
X37691Y-29699D01*
X37682Y-29696D01*
X37673Y-29691D01*
X37666Y-29685D01*
X37659Y-29678D01*
X37655Y-29669D01*
X37652Y-29660D01*
X37651Y-29650D01*
X37651Y-29641D01*
X37654Y-29632D01*
X37658Y-29623D01*
X37665Y-29616D01*
X37672Y-29609D01*
X37680Y-29605D01*
X37690Y-29602D01*
X37699Y-29601D01*
X37708Y-29601D01*
X37718Y-29604D01*
X37726Y-29608D01*
X37734Y-29614D01*
X37740Y-29622D01*
X37745Y-29630D01*
X37748Y-29639D01*
X37749Y-29649D01*
X37750Y-29650D01*
X37700Y-29200D02*
X37700Y-29600D01*
X37700Y-29600D02*
X38300Y-29600D01*
X38300Y-29600D02*
X38300Y-29200D01*
X38300Y-28800D02*
X38300Y-28400D01*
X38300Y-28400D02*
X37700Y-28400D01*
X37700Y-28400D02*
X37700Y-28800D01*
X37150Y-27250D02*
X37149Y-27259D01*
X37146Y-27269D01*
X37141Y-27277D01*
X37135Y-27285D01*
X37127Y-27291D01*
X37119Y-27296D01*
X37110Y-27298D01*
X37100Y-27299D01*
X37091Y-27299D01*
X37082Y-27296D01*
X37073Y-27291D01*
X37066Y-27285D01*
X37059Y-27278D01*
X37055Y-27269D01*
X37052Y-27260D01*
X37051Y-27250D01*
X37051Y-27241D01*
X37054Y-27232D01*
X37058Y-27223D01*
X37065Y-27216D01*
X37072Y-27209D01*
X37080Y-27205D01*
X37090Y-27202D01*
X37099Y-27201D01*
X37108Y-27201D01*
X37118Y-27204D01*
X37126Y-27208D01*
X37134Y-27214D01*
X37140Y-27222D01*
X37145Y-27230D01*
X37148Y-27239D01*
X37149Y-27249D01*
X37150Y-27250D01*
X37100Y-27700D02*
X37100Y-27300D01*
X37100Y-27300D02*
X36500Y-27300D01*
X36500Y-27300D02*
X36500Y-27700D01*
X36500Y-28100D02*
X36500Y-28500D01*
X36500Y-28500D02*
X37100Y-28500D01*
X37100Y-28500D02*
X37100Y-28100D01*
X39750Y-27650D02*
X39749Y-27659D01*
X39746Y-27669D01*
X39741Y-27677D01*
X39735Y-27685D01*
X39727Y-27691D01*
X39719Y-27696D01*
X39710Y-27698D01*
X39700Y-27699D01*
X39691Y-27699D01*
X39682Y-27696D01*
X39673Y-27691D01*
X39666Y-27685D01*
X39659Y-27678D01*
X39655Y-27669D01*
X39652Y-27660D01*
X39651Y-27650D01*
X39651Y-27641D01*
X39654Y-27632D01*
X39658Y-27623D01*
X39665Y-27616D01*
X39672Y-27609D01*
X39680Y-27605D01*
X39690Y-27602D01*
X39699Y-27601D01*
X39708Y-27601D01*
X39718Y-27604D01*
X39726Y-27608D01*
X39734Y-27614D01*
X39740Y-27622D01*
X39745Y-27630D01*
X39748Y-27639D01*
X39749Y-27649D01*
X39750Y-27650D01*
X39700Y-27200D02*
X39700Y-27600D01*
X39700Y-27600D02*
X40300Y-27600D01*
X40300Y-27600D02*
X40300Y-27200D01*
X40300Y-26800D02*
X40300Y-26400D01*
X40300Y-26400D02*
X39700Y-26400D01*
X39700Y-26400D02*
X39700Y-26800D01*
X40350Y-28350D02*
X40349Y-28359D01*
X40346Y-28369D01*
X40341Y-28377D01*
X40335Y-28385D01*
X40327Y-28391D01*
X40319Y-28396D01*
X40310Y-28398D01*
X40300Y-28399D01*
X40291Y-28399D01*
X40282Y-28396D01*
X40273Y-28391D01*
X40266Y-28385D01*
X40259Y-28378D01*
X40255Y-28369D01*
X40252Y-28360D01*
X40251Y-28350D01*
X40251Y-28341D01*
X40254Y-28332D01*
X40258Y-28323D01*
X40265Y-28316D01*
X40272Y-28309D01*
X40280Y-28305D01*
X40290Y-28302D01*
X40299Y-28301D01*
X40308Y-28301D01*
X40318Y-28304D01*
X40326Y-28308D01*
X40334Y-28314D01*
X40340Y-28322D01*
X40345Y-28330D01*
X40348Y-28339D01*
X40349Y-28349D01*
X40350Y-28350D01*
X40300Y-28800D02*
X40300Y-28400D01*
X40300Y-28400D02*
X39700Y-28400D01*
X39700Y-28400D02*
X39700Y-28800D01*
X39700Y-29200D02*
X39700Y-29600D01*
X39700Y-29600D02*
X40300Y-29600D01*
X40300Y-29600D02*
X40300Y-29200D01*
G54D12*
X37361Y-26761D02*
X37439Y-26761D01*
X37439Y-26761D02*
X37439Y-26839D01*
X37361Y-26839D02*
X37439Y-26839D01*
X37361Y-26761D02*
X37361Y-26839D01*
X37577Y-26525D02*
X37714Y-26525D01*
X37714Y-26525D02*
X37714Y-26623D01*
X37577Y-26623D02*
X37714Y-26623D01*
X37577Y-26525D02*
X37577Y-26623D01*
X37714Y-26525D02*
X37754Y-26525D01*
X37754Y-26525D02*
X37754Y-26996D01*
X37714Y-26996D02*
X37754Y-26996D01*
X37714Y-26525D02*
X37714Y-26996D01*
X37714Y-27016D02*
X37754Y-27016D01*
X37754Y-27016D02*
X37754Y-27075D01*
X37714Y-27075D02*
X37754Y-27075D01*
X37714Y-27016D02*
X37714Y-27075D01*
X37046Y-26525D02*
X37086Y-26525D01*
X37086Y-26525D02*
X37086Y-26996D01*
X37046Y-26996D02*
X37086Y-26996D01*
X37046Y-26525D02*
X37046Y-26996D01*
X37046Y-27016D02*
X37086Y-27016D01*
X37086Y-27016D02*
X37086Y-27075D01*
X37046Y-27075D02*
X37086Y-27075D01*
X37046Y-27016D02*
X37046Y-27075D01*
X37577Y-26525D02*
X37636Y-26525D01*
X37636Y-26525D02*
X37636Y-26623D01*
X37577Y-26623D02*
X37636Y-26623D01*
X37577Y-26525D02*
X37577Y-26623D01*
G54D13*
X38010Y-26505D02*
X36790Y-26505D01*
X36790Y-26505D02*
X36790Y-27095D01*
X36790Y-27095D02*
X38010Y-27095D01*
X38010Y-27095D02*
X38010Y-26505D01*
X37615Y-26605D02*
X37597Y-26587D01*
X37578Y-26571D01*
X37557Y-26556D01*
X37535Y-26543D01*
X37512Y-26532D01*
X37488Y-26523D01*
X37464Y-26517D01*
X37439Y-26512D01*
X37414Y-26510D01*
X37389Y-26510D01*
X37364Y-26512D01*
X37339Y-26516D01*
X37314Y-26523D01*
X37291Y-26531D01*
X37267Y-26542D01*
X37245Y-26554D01*
X37225Y-26569D01*
X37205Y-26585D01*
X37187Y-26603D01*
X37186Y-26604D01*
X37185Y-26605D02*
X37169Y-26625D01*
X37154Y-26645D01*
X37142Y-26667D01*
X37131Y-26691D01*
X37123Y-26714D01*
X37116Y-26739D01*
X37112Y-26764D01*
X37110Y-26789D01*
X37110Y-26814D01*
X37112Y-26839D01*
X37117Y-26864D01*
X37123Y-26888D01*
X37132Y-26912D01*
X37143Y-26935D01*
X37156Y-26957D01*
X37171Y-26978D01*
X37185Y-26995D01*
X37185Y-26995D02*
X37203Y-27013D01*
X37222Y-27029D01*
X37243Y-27044D01*
X37265Y-27057D01*
X37288Y-27068D01*
X37312Y-27077D01*
X37336Y-27083D01*
X37361Y-27088D01*
X37386Y-27090D01*
X37411Y-27090D01*
X37436Y-27088D01*
X37461Y-27084D01*
X37486Y-27077D01*
X37509Y-27069D01*
X37533Y-27058D01*
X37555Y-27046D01*
X37575Y-27031D01*
X37595Y-27015D01*
X37613Y-26997D01*
X37614Y-26996D01*
X37615Y-26995D02*
X37631Y-26975D01*
X37646Y-26955D01*
X37658Y-26933D01*
X37669Y-26909D01*
X37677Y-26886D01*
X37684Y-26861D01*
X37688Y-26836D01*
X37690Y-26811D01*
X37690Y-26786D01*
X37688Y-26761D01*
X37683Y-26736D01*
X37677Y-26712D01*
X37668Y-26688D01*
X37657Y-26665D01*
X37644Y-26643D01*
X37629Y-26622D01*
X37615Y-26605D01*
G54D12*
X22861Y-26761D02*
X22939Y-26761D01*
X22939Y-26761D02*
X22939Y-26839D01*
X22861Y-26839D02*
X22939Y-26839D01*
X22861Y-26761D02*
X22861Y-26839D01*
X23077Y-26525D02*
X23214Y-26525D01*
X23214Y-26525D02*
X23214Y-26623D01*
X23077Y-26623D02*
X23214Y-26623D01*
X23077Y-26525D02*
X23077Y-26623D01*
X23214Y-26525D02*
X23254Y-26525D01*
X23254Y-26525D02*
X23254Y-26996D01*
X23214Y-26996D02*
X23254Y-26996D01*
X23214Y-26525D02*
X23214Y-26996D01*
X23214Y-27016D02*
X23254Y-27016D01*
X23254Y-27016D02*
X23254Y-27075D01*
X23214Y-27075D02*
X23254Y-27075D01*
X23214Y-27016D02*
X23214Y-27075D01*
X22546Y-26525D02*
X22586Y-26525D01*
X22586Y-26525D02*
X22586Y-26996D01*
X22546Y-26996D02*
X22586Y-26996D01*
X22546Y-26525D02*
X22546Y-26996D01*
X22546Y-27016D02*
X22586Y-27016D01*
X22586Y-27016D02*
X22586Y-27075D01*
X22546Y-27075D02*
X22586Y-27075D01*
X22546Y-27016D02*
X22546Y-27075D01*
X23077Y-26525D02*
X23136Y-26525D01*
X23136Y-26525D02*
X23136Y-26623D01*
X23077Y-26623D02*
X23136Y-26623D01*
X23077Y-26525D02*
X23077Y-26623D01*
G54D13*
X23510Y-26505D02*
X22290Y-26505D01*
X22290Y-26505D02*
X22290Y-27095D01*
X22290Y-27095D02*
X23510Y-27095D01*
X23510Y-27095D02*
X23510Y-26505D01*
X23115Y-26605D02*
X23097Y-26587D01*
X23078Y-26571D01*
X23057Y-26556D01*
X23035Y-26543D01*
X23012Y-26532D01*
X22988Y-26523D01*
X22964Y-26517D01*
X22939Y-26512D01*
X22914Y-26510D01*
X22889Y-26510D01*
X22864Y-26512D01*
X22839Y-26516D01*
X22814Y-26523D01*
X22791Y-26531D01*
X22767Y-26542D01*
X22745Y-26554D01*
X22725Y-26569D01*
X22705Y-26585D01*
X22687Y-26603D01*
X22686Y-26604D01*
X22685Y-26605D02*
X22669Y-26625D01*
X22654Y-26645D01*
X22642Y-26667D01*
X22631Y-26691D01*
X22623Y-26714D01*
X22616Y-26739D01*
X22612Y-26764D01*
X22610Y-26789D01*
X22610Y-26814D01*
X22612Y-26839D01*
X22617Y-26864D01*
X22623Y-26888D01*
X22632Y-26912D01*
X22643Y-26935D01*
X22656Y-26957D01*
X22671Y-26978D01*
X22685Y-26995D01*
X22685Y-26995D02*
X22703Y-27013D01*
X22722Y-27029D01*
X22743Y-27044D01*
X22765Y-27057D01*
X22788Y-27068D01*
X22812Y-27077D01*
X22836Y-27083D01*
X22861Y-27088D01*
X22886Y-27090D01*
X22911Y-27090D01*
X22936Y-27088D01*
X22961Y-27084D01*
X22986Y-27077D01*
X23009Y-27069D01*
X23033Y-27058D01*
X23055Y-27046D01*
X23075Y-27031D01*
X23095Y-27015D01*
X23113Y-26997D01*
X23114Y-26996D01*
X23115Y-26995D02*
X23131Y-26975D01*
X23146Y-26955D01*
X23158Y-26933D01*
X23169Y-26909D01*
X23177Y-26886D01*
X23184Y-26861D01*
X23188Y-26836D01*
X23190Y-26811D01*
X23190Y-26786D01*
X23188Y-26761D01*
X23183Y-26736D01*
X23177Y-26712D01*
X23168Y-26688D01*
X23157Y-26665D01*
X23144Y-26643D01*
X23129Y-26622D01*
X23115Y-26605D01*
G54D11*
X25850Y-28350D02*
X25849Y-28359D01*
X25846Y-28369D01*
X25841Y-28377D01*
X25835Y-28385D01*
X25827Y-28391D01*
X25819Y-28396D01*
X25810Y-28398D01*
X25800Y-28399D01*
X25791Y-28399D01*
X25782Y-28396D01*
X25773Y-28391D01*
X25766Y-28385D01*
X25759Y-28378D01*
X25755Y-28369D01*
X25752Y-28360D01*
X25751Y-28350D01*
X25751Y-28341D01*
X25754Y-28332D01*
X25758Y-28323D01*
X25765Y-28316D01*
X25772Y-28309D01*
X25780Y-28305D01*
X25790Y-28302D01*
X25799Y-28301D01*
X25808Y-28301D01*
X25818Y-28304D01*
X25826Y-28308D01*
X25834Y-28314D01*
X25840Y-28322D01*
X25845Y-28330D01*
X25848Y-28339D01*
X25849Y-28349D01*
X25850Y-28350D01*
X25800Y-28800D02*
X25800Y-28400D01*
X25800Y-28400D02*
X25200Y-28400D01*
X25200Y-28400D02*
X25200Y-28800D01*
X25200Y-29200D02*
X25200Y-29600D01*
X25200Y-29600D02*
X25800Y-29600D01*
X25800Y-29600D02*
X25800Y-29200D01*
X25250Y-27650D02*
X25249Y-27659D01*
X25246Y-27669D01*
X25241Y-27677D01*
X25235Y-27685D01*
X25227Y-27691D01*
X25219Y-27696D01*
X25210Y-27698D01*
X25200Y-27699D01*
X25191Y-27699D01*
X25182Y-27696D01*
X25173Y-27691D01*
X25166Y-27685D01*
X25159Y-27678D01*
X25155Y-27669D01*
X25152Y-27660D01*
X25151Y-27650D01*
X25151Y-27641D01*
X25154Y-27632D01*
X25158Y-27623D01*
X25165Y-27616D01*
X25172Y-27609D01*
X25180Y-27605D01*
X25190Y-27602D01*
X25199Y-27601D01*
X25208Y-27601D01*
X25218Y-27604D01*
X25226Y-27608D01*
X25234Y-27614D01*
X25240Y-27622D01*
X25245Y-27630D01*
X25248Y-27639D01*
X25249Y-27649D01*
X25250Y-27650D01*
X25200Y-27200D02*
X25200Y-27600D01*
X25200Y-27600D02*
X25800Y-27600D01*
X25800Y-27600D02*
X25800Y-27200D01*
X25800Y-26800D02*
X25800Y-26400D01*
X25800Y-26400D02*
X25200Y-26400D01*
X25200Y-26400D02*
X25200Y-26800D01*
X22650Y-27250D02*
X22649Y-27259D01*
X22646Y-27269D01*
X22641Y-27277D01*
X22635Y-27285D01*
X22627Y-27291D01*
X22619Y-27296D01*
X22610Y-27298D01*
X22600Y-27299D01*
X22591Y-27299D01*
X22582Y-27296D01*
X22573Y-27291D01*
X22566Y-27285D01*
X22559Y-27278D01*
X22555Y-27269D01*
X22552Y-27260D01*
X22551Y-27250D01*
X22551Y-27241D01*
X22554Y-27232D01*
X22558Y-27223D01*
X22565Y-27216D01*
X22572Y-27209D01*
X22580Y-27205D01*
X22590Y-27202D01*
X22599Y-27201D01*
X22608Y-27201D01*
X22618Y-27204D01*
X22626Y-27208D01*
X22634Y-27214D01*
X22640Y-27222D01*
X22645Y-27230D01*
X22648Y-27239D01*
X22649Y-27249D01*
X22650Y-27250D01*
X22600Y-27700D02*
X22600Y-27300D01*
X22600Y-27300D02*
X22000Y-27300D01*
X22000Y-27300D02*
X22000Y-27700D01*
X22000Y-28100D02*
X22000Y-28500D01*
X22000Y-28500D02*
X22600Y-28500D01*
X22600Y-28500D02*
X22600Y-28100D01*
X23250Y-29650D02*
X23249Y-29659D01*
X23246Y-29669D01*
X23241Y-29677D01*
X23235Y-29685D01*
X23227Y-29691D01*
X23219Y-29696D01*
X23210Y-29698D01*
X23200Y-29699D01*
X23191Y-29699D01*
X23182Y-29696D01*
X23173Y-29691D01*
X23166Y-29685D01*
X23159Y-29678D01*
X23155Y-29669D01*
X23152Y-29660D01*
X23151Y-29650D01*
X23151Y-29641D01*
X23154Y-29632D01*
X23158Y-29623D01*
X23165Y-29616D01*
X23172Y-29609D01*
X23180Y-29605D01*
X23190Y-29602D01*
X23199Y-29601D01*
X23208Y-29601D01*
X23218Y-29604D01*
X23226Y-29608D01*
X23234Y-29614D01*
X23240Y-29622D01*
X23245Y-29630D01*
X23248Y-29639D01*
X23249Y-29649D01*
X23250Y-29650D01*
X23200Y-29200D02*
X23200Y-29600D01*
X23200Y-29600D02*
X23800Y-29600D01*
X23800Y-29600D02*
X23800Y-29200D01*
X23800Y-28800D02*
X23800Y-28400D01*
X23800Y-28400D02*
X23200Y-28400D01*
X23200Y-28400D02*
X23200Y-28800D01*
X20050Y-28850D02*
X20049Y-28859D01*
X20046Y-28869D01*
X20041Y-28877D01*
X20035Y-28885D01*
X20027Y-28891D01*
X20019Y-28896D01*
X20010Y-28898D01*
X20000Y-28899D01*
X19991Y-28899D01*
X19982Y-28896D01*
X19973Y-28891D01*
X19966Y-28885D01*
X19959Y-28878D01*
X19955Y-28869D01*
X19952Y-28860D01*
X19951Y-28850D01*
X19951Y-28841D01*
X19954Y-28832D01*
X19958Y-28823D01*
X19965Y-28816D01*
X19972Y-28809D01*
X19980Y-28805D01*
X19990Y-28802D01*
X19999Y-28801D01*
X20008Y-28801D01*
X20018Y-28804D01*
X20026Y-28808D01*
X20034Y-28814D01*
X20040Y-28822D01*
X20045Y-28830D01*
X20048Y-28839D01*
X20049Y-28849D01*
X20050Y-28850D01*
X20000Y-28400D02*
X20000Y-28800D01*
X20000Y-28800D02*
X20600Y-28800D01*
X20600Y-28800D02*
X20600Y-28400D01*
X20600Y-28000D02*
X20600Y-27600D01*
X20600Y-27600D02*
X20000Y-27600D01*
X20000Y-27600D02*
X20000Y-28000D01*
X29400Y-27150D02*
X29400Y-28050D01*
X29400Y-28050D02*
X28750Y-28050D01*
X28050Y-27150D02*
X27400Y-27150D01*
X27400Y-27150D02*
X27400Y-28050D01*
X27400Y-28050D02*
X28050Y-28050D01*
X28750Y-27150D02*
X29400Y-27150D01*
X19750Y-29200D02*
X19750Y-29300D01*
X19750Y-29300D02*
X18850Y-29300D01*
X18850Y-29300D02*
X18850Y-29200D01*
X19750Y-29200D02*
X18850Y-29200D01*
X18850Y-29200D02*
X18850Y-28550D01*
X19750Y-27850D02*
X19750Y-27200D01*
X19750Y-27200D02*
X18850Y-27200D01*
X18850Y-27200D02*
X18850Y-27850D01*
X19750Y-28550D02*
X19750Y-29200D01*
X28950Y-25650D02*
X28949Y-25659D01*
X28946Y-25669D01*
X28941Y-25677D01*
X28935Y-25685D01*
X28927Y-25691D01*
X28919Y-25696D01*
X28910Y-25698D01*
X28900Y-25699D01*
X28891Y-25699D01*
X28882Y-25696D01*
X28873Y-25691D01*
X28866Y-25685D01*
X28859Y-25678D01*
X28855Y-25669D01*
X28852Y-25660D01*
X28851Y-25650D01*
X28851Y-25641D01*
X28854Y-25632D01*
X28858Y-25623D01*
X28865Y-25616D01*
X28872Y-25609D01*
X28880Y-25605D01*
X28890Y-25602D01*
X28899Y-25601D01*
X28908Y-25601D01*
X28918Y-25604D01*
X28926Y-25608D01*
X28934Y-25614D01*
X28940Y-25622D01*
X28945Y-25630D01*
X28948Y-25639D01*
X28949Y-25649D01*
X28950Y-25650D01*
X28900Y-25200D02*
X28900Y-25600D01*
X28900Y-25600D02*
X29500Y-25600D01*
X29500Y-25600D02*
X29500Y-25200D01*
X29500Y-24800D02*
X29500Y-24400D01*
X29500Y-24400D02*
X28900Y-24400D01*
X28900Y-24400D02*
X28900Y-24800D01*
X17850Y-30050D02*
X18750Y-30050D01*
X18750Y-30050D02*
X18750Y-29550D01*
X18750Y-29550D02*
X17850Y-29550D01*
X17850Y-29550D02*
X17850Y-30050D01*
G54D14*
X76349Y-55767D02*
X76409Y-55767D01*
X76409Y-55913D02*
X76409Y-55633D01*
X76323Y-55633D01*
X76195Y-55767D02*
X76169Y-55780D01*
X76161Y-55793D01*
X76152Y-55820D01*
X76152Y-55860D01*
X76161Y-55887D01*
X76169Y-55900D01*
X76187Y-55913D01*
X76255Y-55913D01*
X76255Y-55633D01*
X76195Y-55633D01*
X76178Y-55647D01*
X76169Y-55660D01*
X76161Y-55687D01*
X76161Y-55713D01*
X76169Y-55740D01*
X76178Y-55753D01*
X76195Y-55767D01*
X76255Y-55767D01*
X75981Y-55913D02*
X76084Y-55913D01*
X76032Y-55913D02*
X76032Y-55633D01*
X76049Y-55673D01*
X76067Y-55700D01*
X76084Y-55713D01*
G54D11*
X87201Y-50958D02*
X87082Y-50875D01*
X87201Y-50816D02*
X86951Y-50816D01*
X86951Y-50911D01*
X86963Y-50935D01*
X86975Y-50946D01*
X86999Y-50958D01*
X87035Y-50958D01*
X87058Y-50946D01*
X87070Y-50935D01*
X87082Y-50911D01*
X87082Y-50816D01*
X87035Y-51173D02*
X87201Y-51173D01*
X86939Y-51113D02*
X87118Y-51054D01*
X87118Y-51208D01*
X77293Y-54150D02*
X77307Y-54136D01*
X77321Y-54093D01*
X77321Y-54064D01*
X77307Y-54021D01*
X77279Y-53993D01*
X77250Y-53978D01*
X77193Y-53964D01*
X77150Y-53964D01*
X77093Y-53978D01*
X77064Y-53993D01*
X77036Y-54021D01*
X77021Y-54064D01*
X77021Y-54093D01*
X77036Y-54136D01*
X77050Y-54150D01*
X77050Y-54264D02*
X77036Y-54278D01*
X77021Y-54307D01*
X77021Y-54378D01*
X77036Y-54407D01*
X77050Y-54421D01*
X77079Y-54436D01*
X77107Y-54436D01*
X77150Y-54421D01*
X77321Y-54250D01*
X77321Y-54436D01*
X86550Y-53421D02*
X86550Y-53636D01*
X86564Y-53679D01*
X86593Y-53707D01*
X86636Y-53721D01*
X86664Y-53721D01*
X86407Y-53721D02*
X86407Y-53421D01*
X86292Y-53421D01*
X86264Y-53436D01*
X86249Y-53450D01*
X86235Y-53479D01*
X86235Y-53521D01*
X86249Y-53550D01*
X86264Y-53564D01*
X86292Y-53579D01*
X86407Y-53579D01*
X85949Y-53721D02*
X86121Y-53721D01*
X86035Y-53721D02*
X86035Y-53421D01*
X86064Y-53464D01*
X86092Y-53493D01*
X86121Y-53507D01*
X78277Y-54158D02*
X78289Y-54146D01*
X78301Y-54111D01*
X78301Y-54087D01*
X78289Y-54051D01*
X78265Y-54027D01*
X78242Y-54016D01*
X78194Y-54004D01*
X78158Y-54004D01*
X78111Y-54016D01*
X78087Y-54027D01*
X78063Y-54051D01*
X78051Y-54087D01*
X78051Y-54111D01*
X78063Y-54146D01*
X78075Y-54158D01*
X78301Y-54396D02*
X78301Y-54254D01*
X78301Y-54325D02*
X78051Y-54325D01*
X78087Y-54301D01*
X78111Y-54277D01*
X78123Y-54254D01*
X81477Y-54958D02*
X81489Y-54946D01*
X81501Y-54911D01*
X81501Y-54887D01*
X81489Y-54851D01*
X81465Y-54827D01*
X81442Y-54816D01*
X81394Y-54804D01*
X81358Y-54804D01*
X81311Y-54816D01*
X81287Y-54827D01*
X81263Y-54851D01*
X81251Y-54887D01*
X81251Y-54911D01*
X81263Y-54946D01*
X81275Y-54958D01*
X81251Y-55042D02*
X81251Y-55196D01*
X81346Y-55113D01*
X81346Y-55149D01*
X81358Y-55173D01*
X81370Y-55185D01*
X81394Y-55196D01*
X81454Y-55196D01*
X81477Y-55185D01*
X81489Y-55173D01*
X81501Y-55149D01*
X81501Y-55077D01*
X81489Y-55054D01*
X81477Y-55042D01*
X80301Y-53858D02*
X80182Y-53775D01*
X80301Y-53716D02*
X80051Y-53716D01*
X80051Y-53811D01*
X80063Y-53835D01*
X80075Y-53846D01*
X80099Y-53858D01*
X80135Y-53858D01*
X80158Y-53846D01*
X80170Y-53835D01*
X80182Y-53811D01*
X80182Y-53716D01*
X80301Y-54096D02*
X80301Y-53954D01*
X80301Y-54025D02*
X80051Y-54025D01*
X80087Y-54001D01*
X80111Y-53977D01*
X80123Y-53954D01*
X83501Y-52958D02*
X83382Y-52875D01*
X83501Y-52816D02*
X83251Y-52816D01*
X83251Y-52911D01*
X83263Y-52935D01*
X83275Y-52946D01*
X83299Y-52958D01*
X83335Y-52958D01*
X83358Y-52946D01*
X83370Y-52935D01*
X83382Y-52911D01*
X83382Y-52816D01*
X83275Y-53054D02*
X83263Y-53066D01*
X83251Y-53089D01*
X83251Y-53149D01*
X83263Y-53173D01*
X83275Y-53185D01*
X83299Y-53196D01*
X83323Y-53196D01*
X83358Y-53185D01*
X83501Y-53042D01*
X83501Y-53196D01*
X83501Y-54958D02*
X83382Y-54875D01*
X83501Y-54816D02*
X83251Y-54816D01*
X83251Y-54911D01*
X83263Y-54935D01*
X83275Y-54946D01*
X83299Y-54958D01*
X83335Y-54958D01*
X83358Y-54946D01*
X83370Y-54935D01*
X83382Y-54911D01*
X83382Y-54816D01*
X83251Y-55042D02*
X83251Y-55196D01*
X83346Y-55113D01*
X83346Y-55149D01*
X83358Y-55173D01*
X83370Y-55185D01*
X83394Y-55196D01*
X83454Y-55196D01*
X83477Y-55185D01*
X83489Y-55173D01*
X83501Y-55149D01*
X83501Y-55077D01*
X83489Y-55054D01*
X83477Y-55042D01*
G54D15*
X81122Y-53521D02*
X81122Y-53221D01*
X81050Y-53221D01*
X81007Y-53236D01*
X80979Y-53264D01*
X80964Y-53293D01*
X80950Y-53350D01*
X80950Y-53393D01*
X80964Y-53450D01*
X80979Y-53479D01*
X81007Y-53507D01*
X81050Y-53521D01*
X81122Y-53521D01*
X80664Y-53521D02*
X80836Y-53521D01*
X80750Y-53521D02*
X80750Y-53221D01*
X80779Y-53264D01*
X80807Y-53293D01*
X80836Y-53307D01*
X80993Y-52321D02*
X81136Y-52321D01*
X81136Y-52021D01*
X80893Y-52164D02*
X80793Y-52164D01*
X80750Y-52321D02*
X80893Y-52321D01*
X80893Y-52021D01*
X80750Y-52021D01*
X80622Y-52321D02*
X80622Y-52021D01*
X80550Y-52021D01*
X80507Y-52036D01*
X80479Y-52064D01*
X80464Y-52093D01*
X80450Y-52150D01*
X80450Y-52193D01*
X80464Y-52250D01*
X80479Y-52279D01*
X80507Y-52307D01*
X80550Y-52321D01*
X80622Y-52321D01*
G54D14*
X47349Y-55767D02*
X47409Y-55767D01*
X47409Y-55913D02*
X47409Y-55633D01*
X47323Y-55633D01*
X47195Y-55767D02*
X47169Y-55780D01*
X47161Y-55793D01*
X47152Y-55820D01*
X47152Y-55860D01*
X47161Y-55887D01*
X47169Y-55900D01*
X47187Y-55913D01*
X47255Y-55913D01*
X47255Y-55633D01*
X47195Y-55633D01*
X47178Y-55647D01*
X47169Y-55660D01*
X47161Y-55687D01*
X47161Y-55713D01*
X47169Y-55740D01*
X47178Y-55753D01*
X47195Y-55767D01*
X47255Y-55767D01*
X46981Y-55913D02*
X47084Y-55913D01*
X47032Y-55913D02*
X47032Y-55633D01*
X47049Y-55673D01*
X47067Y-55700D01*
X47084Y-55713D01*
G54D11*
X58201Y-50958D02*
X58082Y-50875D01*
X58201Y-50816D02*
X57951Y-50816D01*
X57951Y-50911D01*
X57963Y-50935D01*
X57975Y-50946D01*
X57999Y-50958D01*
X58035Y-50958D01*
X58058Y-50946D01*
X58070Y-50935D01*
X58082Y-50911D01*
X58082Y-50816D01*
X58035Y-51173D02*
X58201Y-51173D01*
X57939Y-51113D02*
X58118Y-51054D01*
X58118Y-51208D01*
X48293Y-54150D02*
X48307Y-54136D01*
X48321Y-54093D01*
X48321Y-54064D01*
X48307Y-54021D01*
X48279Y-53993D01*
X48250Y-53978D01*
X48193Y-53964D01*
X48150Y-53964D01*
X48093Y-53978D01*
X48064Y-53993D01*
X48036Y-54021D01*
X48021Y-54064D01*
X48021Y-54093D01*
X48036Y-54136D01*
X48050Y-54150D01*
X48050Y-54264D02*
X48036Y-54278D01*
X48021Y-54307D01*
X48021Y-54378D01*
X48036Y-54407D01*
X48050Y-54421D01*
X48079Y-54436D01*
X48107Y-54436D01*
X48150Y-54421D01*
X48321Y-54250D01*
X48321Y-54436D01*
X57550Y-53421D02*
X57550Y-53636D01*
X57564Y-53679D01*
X57593Y-53707D01*
X57636Y-53721D01*
X57664Y-53721D01*
X57407Y-53721D02*
X57407Y-53421D01*
X57292Y-53421D01*
X57264Y-53436D01*
X57249Y-53450D01*
X57235Y-53479D01*
X57235Y-53521D01*
X57249Y-53550D01*
X57264Y-53564D01*
X57292Y-53579D01*
X57407Y-53579D01*
X56949Y-53721D02*
X57121Y-53721D01*
X57035Y-53721D02*
X57035Y-53421D01*
X57064Y-53464D01*
X57092Y-53493D01*
X57121Y-53507D01*
X49277Y-54158D02*
X49289Y-54146D01*
X49301Y-54111D01*
X49301Y-54087D01*
X49289Y-54051D01*
X49265Y-54027D01*
X49242Y-54016D01*
X49194Y-54004D01*
X49158Y-54004D01*
X49111Y-54016D01*
X49087Y-54027D01*
X49063Y-54051D01*
X49051Y-54087D01*
X49051Y-54111D01*
X49063Y-54146D01*
X49075Y-54158D01*
X49301Y-54396D02*
X49301Y-54254D01*
X49301Y-54325D02*
X49051Y-54325D01*
X49087Y-54301D01*
X49111Y-54277D01*
X49123Y-54254D01*
X52477Y-54958D02*
X52489Y-54946D01*
X52501Y-54911D01*
X52501Y-54887D01*
X52489Y-54851D01*
X52465Y-54827D01*
X52442Y-54816D01*
X52394Y-54804D01*
X52358Y-54804D01*
X52311Y-54816D01*
X52287Y-54827D01*
X52263Y-54851D01*
X52251Y-54887D01*
X52251Y-54911D01*
X52263Y-54946D01*
X52275Y-54958D01*
X52251Y-55042D02*
X52251Y-55196D01*
X52346Y-55113D01*
X52346Y-55149D01*
X52358Y-55173D01*
X52370Y-55185D01*
X52394Y-55196D01*
X52454Y-55196D01*
X52477Y-55185D01*
X52489Y-55173D01*
X52501Y-55149D01*
X52501Y-55077D01*
X52489Y-55054D01*
X52477Y-55042D01*
X51301Y-53858D02*
X51182Y-53775D01*
X51301Y-53716D02*
X51051Y-53716D01*
X51051Y-53811D01*
X51063Y-53835D01*
X51075Y-53846D01*
X51099Y-53858D01*
X51135Y-53858D01*
X51158Y-53846D01*
X51170Y-53835D01*
X51182Y-53811D01*
X51182Y-53716D01*
X51301Y-54096D02*
X51301Y-53954D01*
X51301Y-54025D02*
X51051Y-54025D01*
X51087Y-54001D01*
X51111Y-53977D01*
X51123Y-53954D01*
X54501Y-52958D02*
X54382Y-52875D01*
X54501Y-52816D02*
X54251Y-52816D01*
X54251Y-52911D01*
X54263Y-52935D01*
X54275Y-52946D01*
X54299Y-52958D01*
X54335Y-52958D01*
X54358Y-52946D01*
X54370Y-52935D01*
X54382Y-52911D01*
X54382Y-52816D01*
X54275Y-53054D02*
X54263Y-53066D01*
X54251Y-53089D01*
X54251Y-53149D01*
X54263Y-53173D01*
X54275Y-53185D01*
X54299Y-53196D01*
X54323Y-53196D01*
X54358Y-53185D01*
X54501Y-53042D01*
X54501Y-53196D01*
X54501Y-54958D02*
X54382Y-54875D01*
X54501Y-54816D02*
X54251Y-54816D01*
X54251Y-54911D01*
X54263Y-54935D01*
X54275Y-54946D01*
X54299Y-54958D01*
X54335Y-54958D01*
X54358Y-54946D01*
X54370Y-54935D01*
X54382Y-54911D01*
X54382Y-54816D01*
X54251Y-55042D02*
X54251Y-55196D01*
X54346Y-55113D01*
X54346Y-55149D01*
X54358Y-55173D01*
X54370Y-55185D01*
X54394Y-55196D01*
X54454Y-55196D01*
X54477Y-55185D01*
X54489Y-55173D01*
X54501Y-55149D01*
X54501Y-55077D01*
X54489Y-55054D01*
X54477Y-55042D01*
G54D15*
X52122Y-53521D02*
X52122Y-53221D01*
X52050Y-53221D01*
X52007Y-53236D01*
X51979Y-53264D01*
X51964Y-53293D01*
X51950Y-53350D01*
X51950Y-53393D01*
X51964Y-53450D01*
X51979Y-53479D01*
X52007Y-53507D01*
X52050Y-53521D01*
X52122Y-53521D01*
X51664Y-53521D02*
X51836Y-53521D01*
X51750Y-53521D02*
X51750Y-53221D01*
X51779Y-53264D01*
X51807Y-53293D01*
X51836Y-53307D01*
X51993Y-52321D02*
X52136Y-52321D01*
X52136Y-52021D01*
X51893Y-52164D02*
X51793Y-52164D01*
X51750Y-52321D02*
X51893Y-52321D01*
X51893Y-52021D01*
X51750Y-52021D01*
X51622Y-52321D02*
X51622Y-52021D01*
X51550Y-52021D01*
X51507Y-52036D01*
X51479Y-52064D01*
X51464Y-52093D01*
X51450Y-52150D01*
X51450Y-52193D01*
X51464Y-52250D01*
X51479Y-52279D01*
X51507Y-52307D01*
X51550Y-52321D01*
X51622Y-52321D01*
X66622Y-53521D02*
X66622Y-53221D01*
X66550Y-53221D01*
X66507Y-53236D01*
X66479Y-53264D01*
X66464Y-53293D01*
X66450Y-53350D01*
X66450Y-53393D01*
X66464Y-53450D01*
X66479Y-53479D01*
X66507Y-53507D01*
X66550Y-53521D01*
X66622Y-53521D01*
X66164Y-53521D02*
X66336Y-53521D01*
X66250Y-53521D02*
X66250Y-53221D01*
X66279Y-53264D01*
X66307Y-53293D01*
X66336Y-53307D01*
X66493Y-52321D02*
X66636Y-52321D01*
X66636Y-52021D01*
X66393Y-52164D02*
X66293Y-52164D01*
X66250Y-52321D02*
X66393Y-52321D01*
X66393Y-52021D01*
X66250Y-52021D01*
X66122Y-52321D02*
X66122Y-52021D01*
X66050Y-52021D01*
X66007Y-52036D01*
X65979Y-52064D01*
X65964Y-52093D01*
X65950Y-52150D01*
X65950Y-52193D01*
X65964Y-52250D01*
X65979Y-52279D01*
X66007Y-52307D01*
X66050Y-52321D01*
X66122Y-52321D01*
G54D11*
X69001Y-54958D02*
X68882Y-54875D01*
X69001Y-54816D02*
X68751Y-54816D01*
X68751Y-54911D01*
X68763Y-54935D01*
X68775Y-54946D01*
X68799Y-54958D01*
X68835Y-54958D01*
X68858Y-54946D01*
X68870Y-54935D01*
X68882Y-54911D01*
X68882Y-54816D01*
X68751Y-55042D02*
X68751Y-55196D01*
X68846Y-55113D01*
X68846Y-55149D01*
X68858Y-55173D01*
X68870Y-55185D01*
X68894Y-55196D01*
X68954Y-55196D01*
X68977Y-55185D01*
X68989Y-55173D01*
X69001Y-55149D01*
X69001Y-55077D01*
X68989Y-55054D01*
X68977Y-55042D01*
X69001Y-52958D02*
X68882Y-52875D01*
X69001Y-52816D02*
X68751Y-52816D01*
X68751Y-52911D01*
X68763Y-52935D01*
X68775Y-52946D01*
X68799Y-52958D01*
X68835Y-52958D01*
X68858Y-52946D01*
X68870Y-52935D01*
X68882Y-52911D01*
X68882Y-52816D01*
X68775Y-53054D02*
X68763Y-53066D01*
X68751Y-53089D01*
X68751Y-53149D01*
X68763Y-53173D01*
X68775Y-53185D01*
X68799Y-53196D01*
X68823Y-53196D01*
X68858Y-53185D01*
X69001Y-53042D01*
X69001Y-53196D01*
X65801Y-53858D02*
X65682Y-53775D01*
X65801Y-53716D02*
X65551Y-53716D01*
X65551Y-53811D01*
X65563Y-53835D01*
X65575Y-53846D01*
X65599Y-53858D01*
X65635Y-53858D01*
X65658Y-53846D01*
X65670Y-53835D01*
X65682Y-53811D01*
X65682Y-53716D01*
X65801Y-54096D02*
X65801Y-53954D01*
X65801Y-54025D02*
X65551Y-54025D01*
X65587Y-54001D01*
X65611Y-53977D01*
X65623Y-53954D01*
X66977Y-54958D02*
X66989Y-54946D01*
X67001Y-54911D01*
X67001Y-54887D01*
X66989Y-54851D01*
X66965Y-54827D01*
X66942Y-54816D01*
X66894Y-54804D01*
X66858Y-54804D01*
X66811Y-54816D01*
X66787Y-54827D01*
X66763Y-54851D01*
X66751Y-54887D01*
X66751Y-54911D01*
X66763Y-54946D01*
X66775Y-54958D01*
X66751Y-55042D02*
X66751Y-55196D01*
X66846Y-55113D01*
X66846Y-55149D01*
X66858Y-55173D01*
X66870Y-55185D01*
X66894Y-55196D01*
X66954Y-55196D01*
X66977Y-55185D01*
X66989Y-55173D01*
X67001Y-55149D01*
X67001Y-55077D01*
X66989Y-55054D01*
X66977Y-55042D01*
X63777Y-54158D02*
X63789Y-54146D01*
X63801Y-54111D01*
X63801Y-54087D01*
X63789Y-54051D01*
X63765Y-54027D01*
X63742Y-54016D01*
X63694Y-54004D01*
X63658Y-54004D01*
X63611Y-54016D01*
X63587Y-54027D01*
X63563Y-54051D01*
X63551Y-54087D01*
X63551Y-54111D01*
X63563Y-54146D01*
X63575Y-54158D01*
X63801Y-54396D02*
X63801Y-54254D01*
X63801Y-54325D02*
X63551Y-54325D01*
X63587Y-54301D01*
X63611Y-54277D01*
X63623Y-54254D01*
X72050Y-53421D02*
X72050Y-53636D01*
X72064Y-53679D01*
X72093Y-53707D01*
X72136Y-53721D01*
X72164Y-53721D01*
X71907Y-53721D02*
X71907Y-53421D01*
X71792Y-53421D01*
X71764Y-53436D01*
X71749Y-53450D01*
X71735Y-53479D01*
X71735Y-53521D01*
X71749Y-53550D01*
X71764Y-53564D01*
X71792Y-53579D01*
X71907Y-53579D01*
X71449Y-53721D02*
X71621Y-53721D01*
X71535Y-53721D02*
X71535Y-53421D01*
X71564Y-53464D01*
X71592Y-53493D01*
X71621Y-53507D01*
X62793Y-54150D02*
X62807Y-54136D01*
X62821Y-54093D01*
X62821Y-54064D01*
X62807Y-54021D01*
X62779Y-53993D01*
X62750Y-53978D01*
X62693Y-53964D01*
X62650Y-53964D01*
X62593Y-53978D01*
X62564Y-53993D01*
X62536Y-54021D01*
X62521Y-54064D01*
X62521Y-54093D01*
X62536Y-54136D01*
X62550Y-54150D01*
X62550Y-54264D02*
X62536Y-54278D01*
X62521Y-54307D01*
X62521Y-54378D01*
X62536Y-54407D01*
X62550Y-54421D01*
X62579Y-54436D01*
X62607Y-54436D01*
X62650Y-54421D01*
X62821Y-54250D01*
X62821Y-54436D01*
X72701Y-50958D02*
X72582Y-50875D01*
X72701Y-50816D02*
X72451Y-50816D01*
X72451Y-50911D01*
X72463Y-50935D01*
X72475Y-50946D01*
X72499Y-50958D01*
X72535Y-50958D01*
X72558Y-50946D01*
X72570Y-50935D01*
X72582Y-50911D01*
X72582Y-50816D01*
X72535Y-51173D02*
X72701Y-51173D01*
X72439Y-51113D02*
X72618Y-51054D01*
X72618Y-51208D01*
G54D14*
X61849Y-55767D02*
X61909Y-55767D01*
X61909Y-55913D02*
X61909Y-55633D01*
X61823Y-55633D01*
X61695Y-55767D02*
X61669Y-55780D01*
X61661Y-55793D01*
X61652Y-55820D01*
X61652Y-55860D01*
X61661Y-55887D01*
X61669Y-55900D01*
X61687Y-55913D01*
X61755Y-55913D01*
X61755Y-55633D01*
X61695Y-55633D01*
X61678Y-55647D01*
X61669Y-55660D01*
X61661Y-55687D01*
X61661Y-55713D01*
X61669Y-55740D01*
X61678Y-55753D01*
X61695Y-55767D01*
X61755Y-55767D01*
X61481Y-55913D02*
X61584Y-55913D01*
X61532Y-55913D02*
X61532Y-55633D01*
X61549Y-55673D01*
X61567Y-55700D01*
X61584Y-55713D01*
X32949Y-55767D02*
X33009Y-55767D01*
X33009Y-55913D02*
X33009Y-55633D01*
X32923Y-55633D01*
X32795Y-55767D02*
X32769Y-55780D01*
X32761Y-55793D01*
X32752Y-55820D01*
X32752Y-55860D01*
X32761Y-55887D01*
X32769Y-55900D01*
X32787Y-55913D01*
X32855Y-55913D01*
X32855Y-55633D01*
X32795Y-55633D01*
X32778Y-55647D01*
X32769Y-55660D01*
X32761Y-55687D01*
X32761Y-55713D01*
X32769Y-55740D01*
X32778Y-55753D01*
X32795Y-55767D01*
X32855Y-55767D01*
X32581Y-55913D02*
X32684Y-55913D01*
X32632Y-55913D02*
X32632Y-55633D01*
X32649Y-55673D01*
X32667Y-55700D01*
X32684Y-55713D01*
G54D11*
X43801Y-50958D02*
X43682Y-50875D01*
X43801Y-50816D02*
X43551Y-50816D01*
X43551Y-50911D01*
X43563Y-50935D01*
X43575Y-50946D01*
X43599Y-50958D01*
X43635Y-50958D01*
X43658Y-50946D01*
X43670Y-50935D01*
X43682Y-50911D01*
X43682Y-50816D01*
X43635Y-51173D02*
X43801Y-51173D01*
X43539Y-51113D02*
X43718Y-51054D01*
X43718Y-51208D01*
X33893Y-54150D02*
X33907Y-54136D01*
X33921Y-54093D01*
X33921Y-54064D01*
X33907Y-54021D01*
X33879Y-53993D01*
X33850Y-53978D01*
X33793Y-53964D01*
X33750Y-53964D01*
X33693Y-53978D01*
X33664Y-53993D01*
X33636Y-54021D01*
X33621Y-54064D01*
X33621Y-54093D01*
X33636Y-54136D01*
X33650Y-54150D01*
X33650Y-54264D02*
X33636Y-54278D01*
X33621Y-54307D01*
X33621Y-54378D01*
X33636Y-54407D01*
X33650Y-54421D01*
X33679Y-54436D01*
X33707Y-54436D01*
X33750Y-54421D01*
X33921Y-54250D01*
X33921Y-54436D01*
X43150Y-53421D02*
X43150Y-53636D01*
X43164Y-53679D01*
X43193Y-53707D01*
X43236Y-53721D01*
X43264Y-53721D01*
X43007Y-53721D02*
X43007Y-53421D01*
X42892Y-53421D01*
X42864Y-53436D01*
X42849Y-53450D01*
X42835Y-53479D01*
X42835Y-53521D01*
X42849Y-53550D01*
X42864Y-53564D01*
X42892Y-53579D01*
X43007Y-53579D01*
X42549Y-53721D02*
X42721Y-53721D01*
X42635Y-53721D02*
X42635Y-53421D01*
X42664Y-53464D01*
X42692Y-53493D01*
X42721Y-53507D01*
X34877Y-54158D02*
X34889Y-54146D01*
X34901Y-54111D01*
X34901Y-54087D01*
X34889Y-54051D01*
X34865Y-54027D01*
X34842Y-54016D01*
X34794Y-54004D01*
X34758Y-54004D01*
X34711Y-54016D01*
X34687Y-54027D01*
X34663Y-54051D01*
X34651Y-54087D01*
X34651Y-54111D01*
X34663Y-54146D01*
X34675Y-54158D01*
X34901Y-54396D02*
X34901Y-54254D01*
X34901Y-54325D02*
X34651Y-54325D01*
X34687Y-54301D01*
X34711Y-54277D01*
X34723Y-54254D01*
X38077Y-54958D02*
X38089Y-54946D01*
X38101Y-54911D01*
X38101Y-54887D01*
X38089Y-54851D01*
X38065Y-54827D01*
X38042Y-54816D01*
X37994Y-54804D01*
X37958Y-54804D01*
X37911Y-54816D01*
X37887Y-54827D01*
X37863Y-54851D01*
X37851Y-54887D01*
X37851Y-54911D01*
X37863Y-54946D01*
X37875Y-54958D01*
X37851Y-55042D02*
X37851Y-55196D01*
X37946Y-55113D01*
X37946Y-55149D01*
X37958Y-55173D01*
X37970Y-55185D01*
X37994Y-55196D01*
X38054Y-55196D01*
X38077Y-55185D01*
X38089Y-55173D01*
X38101Y-55149D01*
X38101Y-55077D01*
X38089Y-55054D01*
X38077Y-55042D01*
X36901Y-53858D02*
X36782Y-53775D01*
X36901Y-53716D02*
X36651Y-53716D01*
X36651Y-53811D01*
X36663Y-53835D01*
X36675Y-53846D01*
X36699Y-53858D01*
X36735Y-53858D01*
X36758Y-53846D01*
X36770Y-53835D01*
X36782Y-53811D01*
X36782Y-53716D01*
X36901Y-54096D02*
X36901Y-53954D01*
X36901Y-54025D02*
X36651Y-54025D01*
X36687Y-54001D01*
X36711Y-53977D01*
X36723Y-53954D01*
X40101Y-52958D02*
X39982Y-52875D01*
X40101Y-52816D02*
X39851Y-52816D01*
X39851Y-52911D01*
X39863Y-52935D01*
X39875Y-52946D01*
X39899Y-52958D01*
X39935Y-52958D01*
X39958Y-52946D01*
X39970Y-52935D01*
X39982Y-52911D01*
X39982Y-52816D01*
X39875Y-53054D02*
X39863Y-53066D01*
X39851Y-53089D01*
X39851Y-53149D01*
X39863Y-53173D01*
X39875Y-53185D01*
X39899Y-53196D01*
X39923Y-53196D01*
X39958Y-53185D01*
X40101Y-53042D01*
X40101Y-53196D01*
X40101Y-54958D02*
X39982Y-54875D01*
X40101Y-54816D02*
X39851Y-54816D01*
X39851Y-54911D01*
X39863Y-54935D01*
X39875Y-54946D01*
X39899Y-54958D01*
X39935Y-54958D01*
X39958Y-54946D01*
X39970Y-54935D01*
X39982Y-54911D01*
X39982Y-54816D01*
X39851Y-55042D02*
X39851Y-55196D01*
X39946Y-55113D01*
X39946Y-55149D01*
X39958Y-55173D01*
X39970Y-55185D01*
X39994Y-55196D01*
X40054Y-55196D01*
X40077Y-55185D01*
X40089Y-55173D01*
X40101Y-55149D01*
X40101Y-55077D01*
X40089Y-55054D01*
X40077Y-55042D01*
G54D15*
X37722Y-53521D02*
X37722Y-53221D01*
X37650Y-53221D01*
X37607Y-53236D01*
X37579Y-53264D01*
X37564Y-53293D01*
X37550Y-53350D01*
X37550Y-53393D01*
X37564Y-53450D01*
X37579Y-53479D01*
X37607Y-53507D01*
X37650Y-53521D01*
X37722Y-53521D01*
X37264Y-53521D02*
X37436Y-53521D01*
X37350Y-53521D02*
X37350Y-53221D01*
X37379Y-53264D01*
X37407Y-53293D01*
X37436Y-53307D01*
X37593Y-52321D02*
X37736Y-52321D01*
X37736Y-52021D01*
X37493Y-52164D02*
X37393Y-52164D01*
X37350Y-52321D02*
X37493Y-52321D01*
X37493Y-52021D01*
X37350Y-52021D01*
X37222Y-52321D02*
X37222Y-52021D01*
X37150Y-52021D01*
X37107Y-52036D01*
X37079Y-52064D01*
X37064Y-52093D01*
X37050Y-52150D01*
X37050Y-52193D01*
X37064Y-52250D01*
X37079Y-52279D01*
X37107Y-52307D01*
X37150Y-52321D01*
X37222Y-52321D01*
X23222Y-53521D02*
X23222Y-53221D01*
X23150Y-53221D01*
X23107Y-53236D01*
X23079Y-53264D01*
X23064Y-53293D01*
X23050Y-53350D01*
X23050Y-53393D01*
X23064Y-53450D01*
X23079Y-53479D01*
X23107Y-53507D01*
X23150Y-53521D01*
X23222Y-53521D01*
X22764Y-53521D02*
X22936Y-53521D01*
X22850Y-53521D02*
X22850Y-53221D01*
X22879Y-53264D01*
X22907Y-53293D01*
X22936Y-53307D01*
X23093Y-52321D02*
X23236Y-52321D01*
X23236Y-52021D01*
X22993Y-52164D02*
X22893Y-52164D01*
X22850Y-52321D02*
X22993Y-52321D01*
X22993Y-52021D01*
X22850Y-52021D01*
X22722Y-52321D02*
X22722Y-52021D01*
X22650Y-52021D01*
X22607Y-52036D01*
X22579Y-52064D01*
X22564Y-52093D01*
X22550Y-52150D01*
X22550Y-52193D01*
X22564Y-52250D01*
X22579Y-52279D01*
X22607Y-52307D01*
X22650Y-52321D01*
X22722Y-52321D01*
G54D11*
X25601Y-54958D02*
X25482Y-54875D01*
X25601Y-54816D02*
X25351Y-54816D01*
X25351Y-54911D01*
X25363Y-54935D01*
X25375Y-54946D01*
X25399Y-54958D01*
X25435Y-54958D01*
X25458Y-54946D01*
X25470Y-54935D01*
X25482Y-54911D01*
X25482Y-54816D01*
X25351Y-55042D02*
X25351Y-55196D01*
X25446Y-55113D01*
X25446Y-55149D01*
X25458Y-55173D01*
X25470Y-55185D01*
X25494Y-55196D01*
X25554Y-55196D01*
X25577Y-55185D01*
X25589Y-55173D01*
X25601Y-55149D01*
X25601Y-55077D01*
X25589Y-55054D01*
X25577Y-55042D01*
X25601Y-52958D02*
X25482Y-52875D01*
X25601Y-52816D02*
X25351Y-52816D01*
X25351Y-52911D01*
X25363Y-52935D01*
X25375Y-52946D01*
X25399Y-52958D01*
X25435Y-52958D01*
X25458Y-52946D01*
X25470Y-52935D01*
X25482Y-52911D01*
X25482Y-52816D01*
X25375Y-53054D02*
X25363Y-53066D01*
X25351Y-53089D01*
X25351Y-53149D01*
X25363Y-53173D01*
X25375Y-53185D01*
X25399Y-53196D01*
X25423Y-53196D01*
X25458Y-53185D01*
X25601Y-53042D01*
X25601Y-53196D01*
X22401Y-53858D02*
X22282Y-53775D01*
X22401Y-53716D02*
X22151Y-53716D01*
X22151Y-53811D01*
X22163Y-53835D01*
X22175Y-53846D01*
X22199Y-53858D01*
X22235Y-53858D01*
X22258Y-53846D01*
X22270Y-53835D01*
X22282Y-53811D01*
X22282Y-53716D01*
X22401Y-54096D02*
X22401Y-53954D01*
X22401Y-54025D02*
X22151Y-54025D01*
X22187Y-54001D01*
X22211Y-53977D01*
X22223Y-53954D01*
X23577Y-54958D02*
X23589Y-54946D01*
X23601Y-54911D01*
X23601Y-54887D01*
X23589Y-54851D01*
X23565Y-54827D01*
X23542Y-54816D01*
X23494Y-54804D01*
X23458Y-54804D01*
X23411Y-54816D01*
X23387Y-54827D01*
X23363Y-54851D01*
X23351Y-54887D01*
X23351Y-54911D01*
X23363Y-54946D01*
X23375Y-54958D01*
X23351Y-55042D02*
X23351Y-55196D01*
X23446Y-55113D01*
X23446Y-55149D01*
X23458Y-55173D01*
X23470Y-55185D01*
X23494Y-55196D01*
X23554Y-55196D01*
X23577Y-55185D01*
X23589Y-55173D01*
X23601Y-55149D01*
X23601Y-55077D01*
X23589Y-55054D01*
X23577Y-55042D01*
X20377Y-54158D02*
X20389Y-54146D01*
X20401Y-54111D01*
X20401Y-54087D01*
X20389Y-54051D01*
X20365Y-54027D01*
X20342Y-54016D01*
X20294Y-54004D01*
X20258Y-54004D01*
X20211Y-54016D01*
X20187Y-54027D01*
X20163Y-54051D01*
X20151Y-54087D01*
X20151Y-54111D01*
X20163Y-54146D01*
X20175Y-54158D01*
X20401Y-54396D02*
X20401Y-54254D01*
X20401Y-54325D02*
X20151Y-54325D01*
X20187Y-54301D01*
X20211Y-54277D01*
X20223Y-54254D01*
X28650Y-53421D02*
X28650Y-53636D01*
X28664Y-53679D01*
X28693Y-53707D01*
X28736Y-53721D01*
X28764Y-53721D01*
X28507Y-53721D02*
X28507Y-53421D01*
X28392Y-53421D01*
X28364Y-53436D01*
X28349Y-53450D01*
X28335Y-53479D01*
X28335Y-53521D01*
X28349Y-53550D01*
X28364Y-53564D01*
X28392Y-53579D01*
X28507Y-53579D01*
X28049Y-53721D02*
X28221Y-53721D01*
X28135Y-53721D02*
X28135Y-53421D01*
X28164Y-53464D01*
X28192Y-53493D01*
X28221Y-53507D01*
X19393Y-54150D02*
X19407Y-54136D01*
X19421Y-54093D01*
X19421Y-54064D01*
X19407Y-54021D01*
X19379Y-53993D01*
X19350Y-53978D01*
X19293Y-53964D01*
X19250Y-53964D01*
X19193Y-53978D01*
X19164Y-53993D01*
X19136Y-54021D01*
X19121Y-54064D01*
X19121Y-54093D01*
X19136Y-54136D01*
X19150Y-54150D01*
X19150Y-54264D02*
X19136Y-54278D01*
X19121Y-54307D01*
X19121Y-54378D01*
X19136Y-54407D01*
X19150Y-54421D01*
X19179Y-54436D01*
X19207Y-54436D01*
X19250Y-54421D01*
X19421Y-54250D01*
X19421Y-54436D01*
X29301Y-50958D02*
X29182Y-50875D01*
X29301Y-50816D02*
X29051Y-50816D01*
X29051Y-50911D01*
X29063Y-50935D01*
X29075Y-50946D01*
X29099Y-50958D01*
X29135Y-50958D01*
X29158Y-50946D01*
X29170Y-50935D01*
X29182Y-50911D01*
X29182Y-50816D01*
X29135Y-51173D02*
X29301Y-51173D01*
X29039Y-51113D02*
X29218Y-51054D01*
X29218Y-51208D01*
G54D14*
X18449Y-55767D02*
X18509Y-55767D01*
X18509Y-55913D02*
X18509Y-55633D01*
X18423Y-55633D01*
X18295Y-55767D02*
X18269Y-55780D01*
X18261Y-55793D01*
X18252Y-55820D01*
X18252Y-55860D01*
X18261Y-55887D01*
X18269Y-55900D01*
X18287Y-55913D01*
X18355Y-55913D01*
X18355Y-55633D01*
X18295Y-55633D01*
X18278Y-55647D01*
X18269Y-55660D01*
X18261Y-55687D01*
X18261Y-55713D01*
X18269Y-55740D01*
X18278Y-55753D01*
X18295Y-55767D01*
X18355Y-55767D01*
X18081Y-55913D02*
X18184Y-55913D01*
X18132Y-55913D02*
X18132Y-55633D01*
X18149Y-55673D01*
X18167Y-55700D01*
X18184Y-55713D01*
X18449Y-42767D02*
X18509Y-42767D01*
X18509Y-42913D02*
X18509Y-42633D01*
X18423Y-42633D01*
X18295Y-42767D02*
X18269Y-42780D01*
X18261Y-42793D01*
X18252Y-42820D01*
X18252Y-42860D01*
X18261Y-42887D01*
X18269Y-42900D01*
X18287Y-42913D01*
X18355Y-42913D01*
X18355Y-42633D01*
X18295Y-42633D01*
X18278Y-42647D01*
X18269Y-42660D01*
X18261Y-42687D01*
X18261Y-42713D01*
X18269Y-42740D01*
X18278Y-42753D01*
X18295Y-42767D01*
X18355Y-42767D01*
X18081Y-42913D02*
X18184Y-42913D01*
X18132Y-42913D02*
X18132Y-42633D01*
X18149Y-42673D01*
X18167Y-42700D01*
X18184Y-42713D01*
G54D11*
X29301Y-37958D02*
X29182Y-37875D01*
X29301Y-37816D02*
X29051Y-37816D01*
X29051Y-37911D01*
X29063Y-37935D01*
X29075Y-37946D01*
X29099Y-37958D01*
X29135Y-37958D01*
X29158Y-37946D01*
X29170Y-37935D01*
X29182Y-37911D01*
X29182Y-37816D01*
X29135Y-38173D02*
X29301Y-38173D01*
X29039Y-38113D02*
X29218Y-38054D01*
X29218Y-38208D01*
X19393Y-41150D02*
X19407Y-41136D01*
X19421Y-41093D01*
X19421Y-41064D01*
X19407Y-41021D01*
X19379Y-40993D01*
X19350Y-40978D01*
X19293Y-40964D01*
X19250Y-40964D01*
X19193Y-40978D01*
X19164Y-40993D01*
X19136Y-41021D01*
X19121Y-41064D01*
X19121Y-41093D01*
X19136Y-41136D01*
X19150Y-41150D01*
X19150Y-41264D02*
X19136Y-41278D01*
X19121Y-41307D01*
X19121Y-41378D01*
X19136Y-41407D01*
X19150Y-41421D01*
X19179Y-41436D01*
X19207Y-41436D01*
X19250Y-41421D01*
X19421Y-41250D01*
X19421Y-41436D01*
X28650Y-40421D02*
X28650Y-40636D01*
X28664Y-40679D01*
X28693Y-40707D01*
X28736Y-40721D01*
X28764Y-40721D01*
X28507Y-40721D02*
X28507Y-40421D01*
X28392Y-40421D01*
X28364Y-40436D01*
X28349Y-40450D01*
X28335Y-40479D01*
X28335Y-40521D01*
X28349Y-40550D01*
X28364Y-40564D01*
X28392Y-40579D01*
X28507Y-40579D01*
X28049Y-40721D02*
X28221Y-40721D01*
X28135Y-40721D02*
X28135Y-40421D01*
X28164Y-40464D01*
X28192Y-40493D01*
X28221Y-40507D01*
X20377Y-41158D02*
X20389Y-41146D01*
X20401Y-41111D01*
X20401Y-41087D01*
X20389Y-41051D01*
X20365Y-41027D01*
X20342Y-41016D01*
X20294Y-41004D01*
X20258Y-41004D01*
X20211Y-41016D01*
X20187Y-41027D01*
X20163Y-41051D01*
X20151Y-41087D01*
X20151Y-41111D01*
X20163Y-41146D01*
X20175Y-41158D01*
X20401Y-41396D02*
X20401Y-41254D01*
X20401Y-41325D02*
X20151Y-41325D01*
X20187Y-41301D01*
X20211Y-41277D01*
X20223Y-41254D01*
X23577Y-41958D02*
X23589Y-41946D01*
X23601Y-41911D01*
X23601Y-41887D01*
X23589Y-41851D01*
X23565Y-41827D01*
X23542Y-41816D01*
X23494Y-41804D01*
X23458Y-41804D01*
X23411Y-41816D01*
X23387Y-41827D01*
X23363Y-41851D01*
X23351Y-41887D01*
X23351Y-41911D01*
X23363Y-41946D01*
X23375Y-41958D01*
X23351Y-42042D02*
X23351Y-42196D01*
X23446Y-42113D01*
X23446Y-42149D01*
X23458Y-42173D01*
X23470Y-42185D01*
X23494Y-42196D01*
X23554Y-42196D01*
X23577Y-42185D01*
X23589Y-42173D01*
X23601Y-42149D01*
X23601Y-42077D01*
X23589Y-42054D01*
X23577Y-42042D01*
X22401Y-40858D02*
X22282Y-40775D01*
X22401Y-40716D02*
X22151Y-40716D01*
X22151Y-40811D01*
X22163Y-40835D01*
X22175Y-40846D01*
X22199Y-40858D01*
X22235Y-40858D01*
X22258Y-40846D01*
X22270Y-40835D01*
X22282Y-40811D01*
X22282Y-40716D01*
X22401Y-41096D02*
X22401Y-40954D01*
X22401Y-41025D02*
X22151Y-41025D01*
X22187Y-41001D01*
X22211Y-40977D01*
X22223Y-40954D01*
X25601Y-39958D02*
X25482Y-39875D01*
X25601Y-39816D02*
X25351Y-39816D01*
X25351Y-39911D01*
X25363Y-39935D01*
X25375Y-39946D01*
X25399Y-39958D01*
X25435Y-39958D01*
X25458Y-39946D01*
X25470Y-39935D01*
X25482Y-39911D01*
X25482Y-39816D01*
X25375Y-40054D02*
X25363Y-40066D01*
X25351Y-40089D01*
X25351Y-40149D01*
X25363Y-40173D01*
X25375Y-40185D01*
X25399Y-40196D01*
X25423Y-40196D01*
X25458Y-40185D01*
X25601Y-40042D01*
X25601Y-40196D01*
X25601Y-41958D02*
X25482Y-41875D01*
X25601Y-41816D02*
X25351Y-41816D01*
X25351Y-41911D01*
X25363Y-41935D01*
X25375Y-41946D01*
X25399Y-41958D01*
X25435Y-41958D01*
X25458Y-41946D01*
X25470Y-41935D01*
X25482Y-41911D01*
X25482Y-41816D01*
X25351Y-42042D02*
X25351Y-42196D01*
X25446Y-42113D01*
X25446Y-42149D01*
X25458Y-42173D01*
X25470Y-42185D01*
X25494Y-42196D01*
X25554Y-42196D01*
X25577Y-42185D01*
X25589Y-42173D01*
X25601Y-42149D01*
X25601Y-42077D01*
X25589Y-42054D01*
X25577Y-42042D01*
G54D15*
X23222Y-40521D02*
X23222Y-40221D01*
X23150Y-40221D01*
X23107Y-40236D01*
X23079Y-40264D01*
X23064Y-40293D01*
X23050Y-40350D01*
X23050Y-40393D01*
X23064Y-40450D01*
X23079Y-40479D01*
X23107Y-40507D01*
X23150Y-40521D01*
X23222Y-40521D01*
X22764Y-40521D02*
X22936Y-40521D01*
X22850Y-40521D02*
X22850Y-40221D01*
X22879Y-40264D01*
X22907Y-40293D01*
X22936Y-40307D01*
X23093Y-39321D02*
X23236Y-39321D01*
X23236Y-39021D01*
X22993Y-39164D02*
X22893Y-39164D01*
X22850Y-39321D02*
X22993Y-39321D01*
X22993Y-39021D01*
X22850Y-39021D01*
X22722Y-39321D02*
X22722Y-39021D01*
X22650Y-39021D01*
X22607Y-39036D01*
X22579Y-39064D01*
X22564Y-39093D01*
X22550Y-39150D01*
X22550Y-39193D01*
X22564Y-39250D01*
X22579Y-39279D01*
X22607Y-39307D01*
X22650Y-39321D01*
X22722Y-39321D01*
X37722Y-40521D02*
X37722Y-40221D01*
X37650Y-40221D01*
X37607Y-40236D01*
X37579Y-40264D01*
X37564Y-40293D01*
X37550Y-40350D01*
X37550Y-40393D01*
X37564Y-40450D01*
X37579Y-40479D01*
X37607Y-40507D01*
X37650Y-40521D01*
X37722Y-40521D01*
X37264Y-40521D02*
X37436Y-40521D01*
X37350Y-40521D02*
X37350Y-40221D01*
X37379Y-40264D01*
X37407Y-40293D01*
X37436Y-40307D01*
X37593Y-39321D02*
X37736Y-39321D01*
X37736Y-39021D01*
X37493Y-39164D02*
X37393Y-39164D01*
X37350Y-39321D02*
X37493Y-39321D01*
X37493Y-39021D01*
X37350Y-39021D01*
X37222Y-39321D02*
X37222Y-39021D01*
X37150Y-39021D01*
X37107Y-39036D01*
X37079Y-39064D01*
X37064Y-39093D01*
X37050Y-39150D01*
X37050Y-39193D01*
X37064Y-39250D01*
X37079Y-39279D01*
X37107Y-39307D01*
X37150Y-39321D01*
X37222Y-39321D01*
G54D11*
X40101Y-41958D02*
X39982Y-41875D01*
X40101Y-41816D02*
X39851Y-41816D01*
X39851Y-41911D01*
X39863Y-41935D01*
X39875Y-41946D01*
X39899Y-41958D01*
X39935Y-41958D01*
X39958Y-41946D01*
X39970Y-41935D01*
X39982Y-41911D01*
X39982Y-41816D01*
X39851Y-42042D02*
X39851Y-42196D01*
X39946Y-42113D01*
X39946Y-42149D01*
X39958Y-42173D01*
X39970Y-42185D01*
X39994Y-42196D01*
X40054Y-42196D01*
X40077Y-42185D01*
X40089Y-42173D01*
X40101Y-42149D01*
X40101Y-42077D01*
X40089Y-42054D01*
X40077Y-42042D01*
X40101Y-39958D02*
X39982Y-39875D01*
X40101Y-39816D02*
X39851Y-39816D01*
X39851Y-39911D01*
X39863Y-39935D01*
X39875Y-39946D01*
X39899Y-39958D01*
X39935Y-39958D01*
X39958Y-39946D01*
X39970Y-39935D01*
X39982Y-39911D01*
X39982Y-39816D01*
X39875Y-40054D02*
X39863Y-40066D01*
X39851Y-40089D01*
X39851Y-40149D01*
X39863Y-40173D01*
X39875Y-40185D01*
X39899Y-40196D01*
X39923Y-40196D01*
X39958Y-40185D01*
X40101Y-40042D01*
X40101Y-40196D01*
X36901Y-40858D02*
X36782Y-40775D01*
X36901Y-40716D02*
X36651Y-40716D01*
X36651Y-40811D01*
X36663Y-40835D01*
X36675Y-40846D01*
X36699Y-40858D01*
X36735Y-40858D01*
X36758Y-40846D01*
X36770Y-40835D01*
X36782Y-40811D01*
X36782Y-40716D01*
X36901Y-41096D02*
X36901Y-40954D01*
X36901Y-41025D02*
X36651Y-41025D01*
X36687Y-41001D01*
X36711Y-40977D01*
X36723Y-40954D01*
X38077Y-41958D02*
X38089Y-41946D01*
X38101Y-41911D01*
X38101Y-41887D01*
X38089Y-41851D01*
X38065Y-41827D01*
X38042Y-41816D01*
X37994Y-41804D01*
X37958Y-41804D01*
X37911Y-41816D01*
X37887Y-41827D01*
X37863Y-41851D01*
X37851Y-41887D01*
X37851Y-41911D01*
X37863Y-41946D01*
X37875Y-41958D01*
X37851Y-42042D02*
X37851Y-42196D01*
X37946Y-42113D01*
X37946Y-42149D01*
X37958Y-42173D01*
X37970Y-42185D01*
X37994Y-42196D01*
X38054Y-42196D01*
X38077Y-42185D01*
X38089Y-42173D01*
X38101Y-42149D01*
X38101Y-42077D01*
X38089Y-42054D01*
X38077Y-42042D01*
X34877Y-41158D02*
X34889Y-41146D01*
X34901Y-41111D01*
X34901Y-41087D01*
X34889Y-41051D01*
X34865Y-41027D01*
X34842Y-41016D01*
X34794Y-41004D01*
X34758Y-41004D01*
X34711Y-41016D01*
X34687Y-41027D01*
X34663Y-41051D01*
X34651Y-41087D01*
X34651Y-41111D01*
X34663Y-41146D01*
X34675Y-41158D01*
X34901Y-41396D02*
X34901Y-41254D01*
X34901Y-41325D02*
X34651Y-41325D01*
X34687Y-41301D01*
X34711Y-41277D01*
X34723Y-41254D01*
X43150Y-40421D02*
X43150Y-40636D01*
X43164Y-40679D01*
X43193Y-40707D01*
X43236Y-40721D01*
X43264Y-40721D01*
X43007Y-40721D02*
X43007Y-40421D01*
X42892Y-40421D01*
X42864Y-40436D01*
X42849Y-40450D01*
X42835Y-40479D01*
X42835Y-40521D01*
X42849Y-40550D01*
X42864Y-40564D01*
X42892Y-40579D01*
X43007Y-40579D01*
X42549Y-40721D02*
X42721Y-40721D01*
X42635Y-40721D02*
X42635Y-40421D01*
X42664Y-40464D01*
X42692Y-40493D01*
X42721Y-40507D01*
X33893Y-41150D02*
X33907Y-41136D01*
X33921Y-41093D01*
X33921Y-41064D01*
X33907Y-41021D01*
X33879Y-40993D01*
X33850Y-40978D01*
X33793Y-40964D01*
X33750Y-40964D01*
X33693Y-40978D01*
X33664Y-40993D01*
X33636Y-41021D01*
X33621Y-41064D01*
X33621Y-41093D01*
X33636Y-41136D01*
X33650Y-41150D01*
X33650Y-41264D02*
X33636Y-41278D01*
X33621Y-41307D01*
X33621Y-41378D01*
X33636Y-41407D01*
X33650Y-41421D01*
X33679Y-41436D01*
X33707Y-41436D01*
X33750Y-41421D01*
X33921Y-41250D01*
X33921Y-41436D01*
X43801Y-37958D02*
X43682Y-37875D01*
X43801Y-37816D02*
X43551Y-37816D01*
X43551Y-37911D01*
X43563Y-37935D01*
X43575Y-37946D01*
X43599Y-37958D01*
X43635Y-37958D01*
X43658Y-37946D01*
X43670Y-37935D01*
X43682Y-37911D01*
X43682Y-37816D01*
X43635Y-38173D02*
X43801Y-38173D01*
X43539Y-38113D02*
X43718Y-38054D01*
X43718Y-38208D01*
G54D14*
X32949Y-42767D02*
X33009Y-42767D01*
X33009Y-42913D02*
X33009Y-42633D01*
X32923Y-42633D01*
X32795Y-42767D02*
X32769Y-42780D01*
X32761Y-42793D01*
X32752Y-42820D01*
X32752Y-42860D01*
X32761Y-42887D01*
X32769Y-42900D01*
X32787Y-42913D01*
X32855Y-42913D01*
X32855Y-42633D01*
X32795Y-42633D01*
X32778Y-42647D01*
X32769Y-42660D01*
X32761Y-42687D01*
X32761Y-42713D01*
X32769Y-42740D01*
X32778Y-42753D01*
X32795Y-42767D01*
X32855Y-42767D01*
X32581Y-42913D02*
X32684Y-42913D01*
X32632Y-42913D02*
X32632Y-42633D01*
X32649Y-42673D01*
X32667Y-42700D01*
X32684Y-42713D01*
X61849Y-42767D02*
X61909Y-42767D01*
X61909Y-42913D02*
X61909Y-42633D01*
X61823Y-42633D01*
X61695Y-42767D02*
X61669Y-42780D01*
X61661Y-42793D01*
X61652Y-42820D01*
X61652Y-42860D01*
X61661Y-42887D01*
X61669Y-42900D01*
X61687Y-42913D01*
X61755Y-42913D01*
X61755Y-42633D01*
X61695Y-42633D01*
X61678Y-42647D01*
X61669Y-42660D01*
X61661Y-42687D01*
X61661Y-42713D01*
X61669Y-42740D01*
X61678Y-42753D01*
X61695Y-42767D01*
X61755Y-42767D01*
X61481Y-42913D02*
X61584Y-42913D01*
X61532Y-42913D02*
X61532Y-42633D01*
X61549Y-42673D01*
X61567Y-42700D01*
X61584Y-42713D01*
G54D11*
X72701Y-37958D02*
X72582Y-37875D01*
X72701Y-37816D02*
X72451Y-37816D01*
X72451Y-37911D01*
X72463Y-37935D01*
X72475Y-37946D01*
X72499Y-37958D01*
X72535Y-37958D01*
X72558Y-37946D01*
X72570Y-37935D01*
X72582Y-37911D01*
X72582Y-37816D01*
X72535Y-38173D02*
X72701Y-38173D01*
X72439Y-38113D02*
X72618Y-38054D01*
X72618Y-38208D01*
X62793Y-41150D02*
X62807Y-41136D01*
X62821Y-41093D01*
X62821Y-41064D01*
X62807Y-41021D01*
X62779Y-40993D01*
X62750Y-40978D01*
X62693Y-40964D01*
X62650Y-40964D01*
X62593Y-40978D01*
X62564Y-40993D01*
X62536Y-41021D01*
X62521Y-41064D01*
X62521Y-41093D01*
X62536Y-41136D01*
X62550Y-41150D01*
X62550Y-41264D02*
X62536Y-41278D01*
X62521Y-41307D01*
X62521Y-41378D01*
X62536Y-41407D01*
X62550Y-41421D01*
X62579Y-41436D01*
X62607Y-41436D01*
X62650Y-41421D01*
X62821Y-41250D01*
X62821Y-41436D01*
X72050Y-40421D02*
X72050Y-40636D01*
X72064Y-40679D01*
X72093Y-40707D01*
X72136Y-40721D01*
X72164Y-40721D01*
X71907Y-40721D02*
X71907Y-40421D01*
X71792Y-40421D01*
X71764Y-40436D01*
X71749Y-40450D01*
X71735Y-40479D01*
X71735Y-40521D01*
X71749Y-40550D01*
X71764Y-40564D01*
X71792Y-40579D01*
X71907Y-40579D01*
X71449Y-40721D02*
X71621Y-40721D01*
X71535Y-40721D02*
X71535Y-40421D01*
X71564Y-40464D01*
X71592Y-40493D01*
X71621Y-40507D01*
X63777Y-41158D02*
X63789Y-41146D01*
X63801Y-41111D01*
X63801Y-41087D01*
X63789Y-41051D01*
X63765Y-41027D01*
X63742Y-41016D01*
X63694Y-41004D01*
X63658Y-41004D01*
X63611Y-41016D01*
X63587Y-41027D01*
X63563Y-41051D01*
X63551Y-41087D01*
X63551Y-41111D01*
X63563Y-41146D01*
X63575Y-41158D01*
X63801Y-41396D02*
X63801Y-41254D01*
X63801Y-41325D02*
X63551Y-41325D01*
X63587Y-41301D01*
X63611Y-41277D01*
X63623Y-41254D01*
X66977Y-41958D02*
X66989Y-41946D01*
X67001Y-41911D01*
X67001Y-41887D01*
X66989Y-41851D01*
X66965Y-41827D01*
X66942Y-41816D01*
X66894Y-41804D01*
X66858Y-41804D01*
X66811Y-41816D01*
X66787Y-41827D01*
X66763Y-41851D01*
X66751Y-41887D01*
X66751Y-41911D01*
X66763Y-41946D01*
X66775Y-41958D01*
X66751Y-42042D02*
X66751Y-42196D01*
X66846Y-42113D01*
X66846Y-42149D01*
X66858Y-42173D01*
X66870Y-42185D01*
X66894Y-42196D01*
X66954Y-42196D01*
X66977Y-42185D01*
X66989Y-42173D01*
X67001Y-42149D01*
X67001Y-42077D01*
X66989Y-42054D01*
X66977Y-42042D01*
X65801Y-40858D02*
X65682Y-40775D01*
X65801Y-40716D02*
X65551Y-40716D01*
X65551Y-40811D01*
X65563Y-40835D01*
X65575Y-40846D01*
X65599Y-40858D01*
X65635Y-40858D01*
X65658Y-40846D01*
X65670Y-40835D01*
X65682Y-40811D01*
X65682Y-40716D01*
X65801Y-41096D02*
X65801Y-40954D01*
X65801Y-41025D02*
X65551Y-41025D01*
X65587Y-41001D01*
X65611Y-40977D01*
X65623Y-40954D01*
X69001Y-39958D02*
X68882Y-39875D01*
X69001Y-39816D02*
X68751Y-39816D01*
X68751Y-39911D01*
X68763Y-39935D01*
X68775Y-39946D01*
X68799Y-39958D01*
X68835Y-39958D01*
X68858Y-39946D01*
X68870Y-39935D01*
X68882Y-39911D01*
X68882Y-39816D01*
X68775Y-40054D02*
X68763Y-40066D01*
X68751Y-40089D01*
X68751Y-40149D01*
X68763Y-40173D01*
X68775Y-40185D01*
X68799Y-40196D01*
X68823Y-40196D01*
X68858Y-40185D01*
X69001Y-40042D01*
X69001Y-40196D01*
X69001Y-41958D02*
X68882Y-41875D01*
X69001Y-41816D02*
X68751Y-41816D01*
X68751Y-41911D01*
X68763Y-41935D01*
X68775Y-41946D01*
X68799Y-41958D01*
X68835Y-41958D01*
X68858Y-41946D01*
X68870Y-41935D01*
X68882Y-41911D01*
X68882Y-41816D01*
X68751Y-42042D02*
X68751Y-42196D01*
X68846Y-42113D01*
X68846Y-42149D01*
X68858Y-42173D01*
X68870Y-42185D01*
X68894Y-42196D01*
X68954Y-42196D01*
X68977Y-42185D01*
X68989Y-42173D01*
X69001Y-42149D01*
X69001Y-42077D01*
X68989Y-42054D01*
X68977Y-42042D01*
G54D15*
X66622Y-40521D02*
X66622Y-40221D01*
X66550Y-40221D01*
X66507Y-40236D01*
X66479Y-40264D01*
X66464Y-40293D01*
X66450Y-40350D01*
X66450Y-40393D01*
X66464Y-40450D01*
X66479Y-40479D01*
X66507Y-40507D01*
X66550Y-40521D01*
X66622Y-40521D01*
X66164Y-40521D02*
X66336Y-40521D01*
X66250Y-40521D02*
X66250Y-40221D01*
X66279Y-40264D01*
X66307Y-40293D01*
X66336Y-40307D01*
X66493Y-39321D02*
X66636Y-39321D01*
X66636Y-39021D01*
X66393Y-39164D02*
X66293Y-39164D01*
X66250Y-39321D02*
X66393Y-39321D01*
X66393Y-39021D01*
X66250Y-39021D01*
X66122Y-39321D02*
X66122Y-39021D01*
X66050Y-39021D01*
X66007Y-39036D01*
X65979Y-39064D01*
X65964Y-39093D01*
X65950Y-39150D01*
X65950Y-39193D01*
X65964Y-39250D01*
X65979Y-39279D01*
X66007Y-39307D01*
X66050Y-39321D01*
X66122Y-39321D01*
X52122Y-40521D02*
X52122Y-40221D01*
X52050Y-40221D01*
X52007Y-40236D01*
X51979Y-40264D01*
X51964Y-40293D01*
X51950Y-40350D01*
X51950Y-40393D01*
X51964Y-40450D01*
X51979Y-40479D01*
X52007Y-40507D01*
X52050Y-40521D01*
X52122Y-40521D01*
X51664Y-40521D02*
X51836Y-40521D01*
X51750Y-40521D02*
X51750Y-40221D01*
X51779Y-40264D01*
X51807Y-40293D01*
X51836Y-40307D01*
X51993Y-39321D02*
X52136Y-39321D01*
X52136Y-39021D01*
X51893Y-39164D02*
X51793Y-39164D01*
X51750Y-39321D02*
X51893Y-39321D01*
X51893Y-39021D01*
X51750Y-39021D01*
X51622Y-39321D02*
X51622Y-39021D01*
X51550Y-39021D01*
X51507Y-39036D01*
X51479Y-39064D01*
X51464Y-39093D01*
X51450Y-39150D01*
X51450Y-39193D01*
X51464Y-39250D01*
X51479Y-39279D01*
X51507Y-39307D01*
X51550Y-39321D01*
X51622Y-39321D01*
G54D11*
X54501Y-41958D02*
X54382Y-41875D01*
X54501Y-41816D02*
X54251Y-41816D01*
X54251Y-41911D01*
X54263Y-41935D01*
X54275Y-41946D01*
X54299Y-41958D01*
X54335Y-41958D01*
X54358Y-41946D01*
X54370Y-41935D01*
X54382Y-41911D01*
X54382Y-41816D01*
X54251Y-42042D02*
X54251Y-42196D01*
X54346Y-42113D01*
X54346Y-42149D01*
X54358Y-42173D01*
X54370Y-42185D01*
X54394Y-42196D01*
X54454Y-42196D01*
X54477Y-42185D01*
X54489Y-42173D01*
X54501Y-42149D01*
X54501Y-42077D01*
X54489Y-42054D01*
X54477Y-42042D01*
X54501Y-39958D02*
X54382Y-39875D01*
X54501Y-39816D02*
X54251Y-39816D01*
X54251Y-39911D01*
X54263Y-39935D01*
X54275Y-39946D01*
X54299Y-39958D01*
X54335Y-39958D01*
X54358Y-39946D01*
X54370Y-39935D01*
X54382Y-39911D01*
X54382Y-39816D01*
X54275Y-40054D02*
X54263Y-40066D01*
X54251Y-40089D01*
X54251Y-40149D01*
X54263Y-40173D01*
X54275Y-40185D01*
X54299Y-40196D01*
X54323Y-40196D01*
X54358Y-40185D01*
X54501Y-40042D01*
X54501Y-40196D01*
X51301Y-40858D02*
X51182Y-40775D01*
X51301Y-40716D02*
X51051Y-40716D01*
X51051Y-40811D01*
X51063Y-40835D01*
X51075Y-40846D01*
X51099Y-40858D01*
X51135Y-40858D01*
X51158Y-40846D01*
X51170Y-40835D01*
X51182Y-40811D01*
X51182Y-40716D01*
X51301Y-41096D02*
X51301Y-40954D01*
X51301Y-41025D02*
X51051Y-41025D01*
X51087Y-41001D01*
X51111Y-40977D01*
X51123Y-40954D01*
X52477Y-41958D02*
X52489Y-41946D01*
X52501Y-41911D01*
X52501Y-41887D01*
X52489Y-41851D01*
X52465Y-41827D01*
X52442Y-41816D01*
X52394Y-41804D01*
X52358Y-41804D01*
X52311Y-41816D01*
X52287Y-41827D01*
X52263Y-41851D01*
X52251Y-41887D01*
X52251Y-41911D01*
X52263Y-41946D01*
X52275Y-41958D01*
X52251Y-42042D02*
X52251Y-42196D01*
X52346Y-42113D01*
X52346Y-42149D01*
X52358Y-42173D01*
X52370Y-42185D01*
X52394Y-42196D01*
X52454Y-42196D01*
X52477Y-42185D01*
X52489Y-42173D01*
X52501Y-42149D01*
X52501Y-42077D01*
X52489Y-42054D01*
X52477Y-42042D01*
X49277Y-41158D02*
X49289Y-41146D01*
X49301Y-41111D01*
X49301Y-41087D01*
X49289Y-41051D01*
X49265Y-41027D01*
X49242Y-41016D01*
X49194Y-41004D01*
X49158Y-41004D01*
X49111Y-41016D01*
X49087Y-41027D01*
X49063Y-41051D01*
X49051Y-41087D01*
X49051Y-41111D01*
X49063Y-41146D01*
X49075Y-41158D01*
X49301Y-41396D02*
X49301Y-41254D01*
X49301Y-41325D02*
X49051Y-41325D01*
X49087Y-41301D01*
X49111Y-41277D01*
X49123Y-41254D01*
X57550Y-40421D02*
X57550Y-40636D01*
X57564Y-40679D01*
X57593Y-40707D01*
X57636Y-40721D01*
X57664Y-40721D01*
X57407Y-40721D02*
X57407Y-40421D01*
X57292Y-40421D01*
X57264Y-40436D01*
X57249Y-40450D01*
X57235Y-40479D01*
X57235Y-40521D01*
X57249Y-40550D01*
X57264Y-40564D01*
X57292Y-40579D01*
X57407Y-40579D01*
X56949Y-40721D02*
X57121Y-40721D01*
X57035Y-40721D02*
X57035Y-40421D01*
X57064Y-40464D01*
X57092Y-40493D01*
X57121Y-40507D01*
X48293Y-41150D02*
X48307Y-41136D01*
X48321Y-41093D01*
X48321Y-41064D01*
X48307Y-41021D01*
X48279Y-40993D01*
X48250Y-40978D01*
X48193Y-40964D01*
X48150Y-40964D01*
X48093Y-40978D01*
X48064Y-40993D01*
X48036Y-41021D01*
X48021Y-41064D01*
X48021Y-41093D01*
X48036Y-41136D01*
X48050Y-41150D01*
X48050Y-41264D02*
X48036Y-41278D01*
X48021Y-41307D01*
X48021Y-41378D01*
X48036Y-41407D01*
X48050Y-41421D01*
X48079Y-41436D01*
X48107Y-41436D01*
X48150Y-41421D01*
X48321Y-41250D01*
X48321Y-41436D01*
X58201Y-37958D02*
X58082Y-37875D01*
X58201Y-37816D02*
X57951Y-37816D01*
X57951Y-37911D01*
X57963Y-37935D01*
X57975Y-37946D01*
X57999Y-37958D01*
X58035Y-37958D01*
X58058Y-37946D01*
X58070Y-37935D01*
X58082Y-37911D01*
X58082Y-37816D01*
X58035Y-38173D02*
X58201Y-38173D01*
X57939Y-38113D02*
X58118Y-38054D01*
X58118Y-38208D01*
G54D14*
X47349Y-42767D02*
X47409Y-42767D01*
X47409Y-42913D02*
X47409Y-42633D01*
X47323Y-42633D01*
X47195Y-42767D02*
X47169Y-42780D01*
X47161Y-42793D01*
X47152Y-42820D01*
X47152Y-42860D01*
X47161Y-42887D01*
X47169Y-42900D01*
X47187Y-42913D01*
X47255Y-42913D01*
X47255Y-42633D01*
X47195Y-42633D01*
X47178Y-42647D01*
X47169Y-42660D01*
X47161Y-42687D01*
X47161Y-42713D01*
X47169Y-42740D01*
X47178Y-42753D01*
X47195Y-42767D01*
X47255Y-42767D01*
X46981Y-42913D02*
X47084Y-42913D01*
X47032Y-42913D02*
X47032Y-42633D01*
X47049Y-42673D01*
X47067Y-42700D01*
X47084Y-42713D01*
G54D15*
X81122Y-40521D02*
X81122Y-40221D01*
X81050Y-40221D01*
X81007Y-40236D01*
X80979Y-40264D01*
X80964Y-40293D01*
X80950Y-40350D01*
X80950Y-40393D01*
X80964Y-40450D01*
X80979Y-40479D01*
X81007Y-40507D01*
X81050Y-40521D01*
X81122Y-40521D01*
X80664Y-40521D02*
X80836Y-40521D01*
X80750Y-40521D02*
X80750Y-40221D01*
X80779Y-40264D01*
X80807Y-40293D01*
X80836Y-40307D01*
X80993Y-39321D02*
X81136Y-39321D01*
X81136Y-39021D01*
X80893Y-39164D02*
X80793Y-39164D01*
X80750Y-39321D02*
X80893Y-39321D01*
X80893Y-39021D01*
X80750Y-39021D01*
X80622Y-39321D02*
X80622Y-39021D01*
X80550Y-39021D01*
X80507Y-39036D01*
X80479Y-39064D01*
X80464Y-39093D01*
X80450Y-39150D01*
X80450Y-39193D01*
X80464Y-39250D01*
X80479Y-39279D01*
X80507Y-39307D01*
X80550Y-39321D01*
X80622Y-39321D01*
G54D11*
X83501Y-41958D02*
X83382Y-41875D01*
X83501Y-41816D02*
X83251Y-41816D01*
X83251Y-41911D01*
X83263Y-41935D01*
X83275Y-41946D01*
X83299Y-41958D01*
X83335Y-41958D01*
X83358Y-41946D01*
X83370Y-41935D01*
X83382Y-41911D01*
X83382Y-41816D01*
X83251Y-42042D02*
X83251Y-42196D01*
X83346Y-42113D01*
X83346Y-42149D01*
X83358Y-42173D01*
X83370Y-42185D01*
X83394Y-42196D01*
X83454Y-42196D01*
X83477Y-42185D01*
X83489Y-42173D01*
X83501Y-42149D01*
X83501Y-42077D01*
X83489Y-42054D01*
X83477Y-42042D01*
X83501Y-39958D02*
X83382Y-39875D01*
X83501Y-39816D02*
X83251Y-39816D01*
X83251Y-39911D01*
X83263Y-39935D01*
X83275Y-39946D01*
X83299Y-39958D01*
X83335Y-39958D01*
X83358Y-39946D01*
X83370Y-39935D01*
X83382Y-39911D01*
X83382Y-39816D01*
X83275Y-40054D02*
X83263Y-40066D01*
X83251Y-40089D01*
X83251Y-40149D01*
X83263Y-40173D01*
X83275Y-40185D01*
X83299Y-40196D01*
X83323Y-40196D01*
X83358Y-40185D01*
X83501Y-40042D01*
X83501Y-40196D01*
X80301Y-40858D02*
X80182Y-40775D01*
X80301Y-40716D02*
X80051Y-40716D01*
X80051Y-40811D01*
X80063Y-40835D01*
X80075Y-40846D01*
X80099Y-40858D01*
X80135Y-40858D01*
X80158Y-40846D01*
X80170Y-40835D01*
X80182Y-40811D01*
X80182Y-40716D01*
X80301Y-41096D02*
X80301Y-40954D01*
X80301Y-41025D02*
X80051Y-41025D01*
X80087Y-41001D01*
X80111Y-40977D01*
X80123Y-40954D01*
X81477Y-41958D02*
X81489Y-41946D01*
X81501Y-41911D01*
X81501Y-41887D01*
X81489Y-41851D01*
X81465Y-41827D01*
X81442Y-41816D01*
X81394Y-41804D01*
X81358Y-41804D01*
X81311Y-41816D01*
X81287Y-41827D01*
X81263Y-41851D01*
X81251Y-41887D01*
X81251Y-41911D01*
X81263Y-41946D01*
X81275Y-41958D01*
X81251Y-42042D02*
X81251Y-42196D01*
X81346Y-42113D01*
X81346Y-42149D01*
X81358Y-42173D01*
X81370Y-42185D01*
X81394Y-42196D01*
X81454Y-42196D01*
X81477Y-42185D01*
X81489Y-42173D01*
X81501Y-42149D01*
X81501Y-42077D01*
X81489Y-42054D01*
X81477Y-42042D01*
X78277Y-41158D02*
X78289Y-41146D01*
X78301Y-41111D01*
X78301Y-41087D01*
X78289Y-41051D01*
X78265Y-41027D01*
X78242Y-41016D01*
X78194Y-41004D01*
X78158Y-41004D01*
X78111Y-41016D01*
X78087Y-41027D01*
X78063Y-41051D01*
X78051Y-41087D01*
X78051Y-41111D01*
X78063Y-41146D01*
X78075Y-41158D01*
X78301Y-41396D02*
X78301Y-41254D01*
X78301Y-41325D02*
X78051Y-41325D01*
X78087Y-41301D01*
X78111Y-41277D01*
X78123Y-41254D01*
X86550Y-40421D02*
X86550Y-40636D01*
X86564Y-40679D01*
X86593Y-40707D01*
X86636Y-40721D01*
X86664Y-40721D01*
X86407Y-40721D02*
X86407Y-40421D01*
X86292Y-40421D01*
X86264Y-40436D01*
X86249Y-40450D01*
X86235Y-40479D01*
X86235Y-40521D01*
X86249Y-40550D01*
X86264Y-40564D01*
X86292Y-40579D01*
X86407Y-40579D01*
X85949Y-40721D02*
X86121Y-40721D01*
X86035Y-40721D02*
X86035Y-40421D01*
X86064Y-40464D01*
X86092Y-40493D01*
X86121Y-40507D01*
X77293Y-41150D02*
X77307Y-41136D01*
X77321Y-41093D01*
X77321Y-41064D01*
X77307Y-41021D01*
X77279Y-40993D01*
X77250Y-40978D01*
X77193Y-40964D01*
X77150Y-40964D01*
X77093Y-40978D01*
X77064Y-40993D01*
X77036Y-41021D01*
X77021Y-41064D01*
X77021Y-41093D01*
X77036Y-41136D01*
X77050Y-41150D01*
X77050Y-41264D02*
X77036Y-41278D01*
X77021Y-41307D01*
X77021Y-41378D01*
X77036Y-41407D01*
X77050Y-41421D01*
X77079Y-41436D01*
X77107Y-41436D01*
X77150Y-41421D01*
X77321Y-41250D01*
X77321Y-41436D01*
X87201Y-37958D02*
X87082Y-37875D01*
X87201Y-37816D02*
X86951Y-37816D01*
X86951Y-37911D01*
X86963Y-37935D01*
X86975Y-37946D01*
X86999Y-37958D01*
X87035Y-37958D01*
X87058Y-37946D01*
X87070Y-37935D01*
X87082Y-37911D01*
X87082Y-37816D01*
X87035Y-38173D02*
X87201Y-38173D01*
X86939Y-38113D02*
X87118Y-38054D01*
X87118Y-38208D01*
G54D14*
X76349Y-42767D02*
X76409Y-42767D01*
X76409Y-42913D02*
X76409Y-42633D01*
X76323Y-42633D01*
X76195Y-42767D02*
X76169Y-42780D01*
X76161Y-42793D01*
X76152Y-42820D01*
X76152Y-42860D01*
X76161Y-42887D01*
X76169Y-42900D01*
X76187Y-42913D01*
X76255Y-42913D01*
X76255Y-42633D01*
X76195Y-42633D01*
X76178Y-42647D01*
X76169Y-42660D01*
X76161Y-42687D01*
X76161Y-42713D01*
X76169Y-42740D01*
X76178Y-42753D01*
X76195Y-42767D01*
X76255Y-42767D01*
X75981Y-42913D02*
X76084Y-42913D01*
X76032Y-42913D02*
X76032Y-42633D01*
X76049Y-42673D01*
X76067Y-42700D01*
X76084Y-42713D01*
X76349Y-29767D02*
X76409Y-29767D01*
X76409Y-29913D02*
X76409Y-29633D01*
X76323Y-29633D01*
X76195Y-29767D02*
X76169Y-29780D01*
X76161Y-29793D01*
X76152Y-29820D01*
X76152Y-29860D01*
X76161Y-29887D01*
X76169Y-29900D01*
X76187Y-29913D01*
X76255Y-29913D01*
X76255Y-29633D01*
X76195Y-29633D01*
X76178Y-29647D01*
X76169Y-29660D01*
X76161Y-29687D01*
X76161Y-29713D01*
X76169Y-29740D01*
X76178Y-29753D01*
X76195Y-29767D01*
X76255Y-29767D01*
X75981Y-29913D02*
X76084Y-29913D01*
X76032Y-29913D02*
X76032Y-29633D01*
X76049Y-29673D01*
X76067Y-29700D01*
X76084Y-29713D01*
G54D11*
X87201Y-24958D02*
X87082Y-24875D01*
X87201Y-24816D02*
X86951Y-24816D01*
X86951Y-24911D01*
X86963Y-24935D01*
X86975Y-24946D01*
X86999Y-24958D01*
X87035Y-24958D01*
X87058Y-24946D01*
X87070Y-24935D01*
X87082Y-24911D01*
X87082Y-24816D01*
X87035Y-25173D02*
X87201Y-25173D01*
X86939Y-25113D02*
X87118Y-25054D01*
X87118Y-25208D01*
X77293Y-28150D02*
X77307Y-28136D01*
X77321Y-28093D01*
X77321Y-28064D01*
X77307Y-28021D01*
X77279Y-27993D01*
X77250Y-27978D01*
X77193Y-27964D01*
X77150Y-27964D01*
X77093Y-27978D01*
X77064Y-27993D01*
X77036Y-28021D01*
X77021Y-28064D01*
X77021Y-28093D01*
X77036Y-28136D01*
X77050Y-28150D01*
X77050Y-28264D02*
X77036Y-28278D01*
X77021Y-28307D01*
X77021Y-28378D01*
X77036Y-28407D01*
X77050Y-28421D01*
X77079Y-28436D01*
X77107Y-28436D01*
X77150Y-28421D01*
X77321Y-28250D01*
X77321Y-28436D01*
X86550Y-27421D02*
X86550Y-27636D01*
X86564Y-27679D01*
X86593Y-27707D01*
X86636Y-27721D01*
X86664Y-27721D01*
X86407Y-27721D02*
X86407Y-27421D01*
X86292Y-27421D01*
X86264Y-27436D01*
X86249Y-27450D01*
X86235Y-27479D01*
X86235Y-27521D01*
X86249Y-27550D01*
X86264Y-27564D01*
X86292Y-27579D01*
X86407Y-27579D01*
X85949Y-27721D02*
X86121Y-27721D01*
X86035Y-27721D02*
X86035Y-27421D01*
X86064Y-27464D01*
X86092Y-27493D01*
X86121Y-27507D01*
X78277Y-28158D02*
X78289Y-28146D01*
X78301Y-28111D01*
X78301Y-28087D01*
X78289Y-28051D01*
X78265Y-28027D01*
X78242Y-28016D01*
X78194Y-28004D01*
X78158Y-28004D01*
X78111Y-28016D01*
X78087Y-28027D01*
X78063Y-28051D01*
X78051Y-28087D01*
X78051Y-28111D01*
X78063Y-28146D01*
X78075Y-28158D01*
X78301Y-28396D02*
X78301Y-28254D01*
X78301Y-28325D02*
X78051Y-28325D01*
X78087Y-28301D01*
X78111Y-28277D01*
X78123Y-28254D01*
X81477Y-28958D02*
X81489Y-28946D01*
X81501Y-28911D01*
X81501Y-28887D01*
X81489Y-28851D01*
X81465Y-28827D01*
X81442Y-28816D01*
X81394Y-28804D01*
X81358Y-28804D01*
X81311Y-28816D01*
X81287Y-28827D01*
X81263Y-28851D01*
X81251Y-28887D01*
X81251Y-28911D01*
X81263Y-28946D01*
X81275Y-28958D01*
X81251Y-29042D02*
X81251Y-29196D01*
X81346Y-29113D01*
X81346Y-29149D01*
X81358Y-29173D01*
X81370Y-29185D01*
X81394Y-29196D01*
X81454Y-29196D01*
X81477Y-29185D01*
X81489Y-29173D01*
X81501Y-29149D01*
X81501Y-29077D01*
X81489Y-29054D01*
X81477Y-29042D01*
X80301Y-27858D02*
X80182Y-27775D01*
X80301Y-27716D02*
X80051Y-27716D01*
X80051Y-27811D01*
X80063Y-27835D01*
X80075Y-27846D01*
X80099Y-27858D01*
X80135Y-27858D01*
X80158Y-27846D01*
X80170Y-27835D01*
X80182Y-27811D01*
X80182Y-27716D01*
X80301Y-28096D02*
X80301Y-27954D01*
X80301Y-28025D02*
X80051Y-28025D01*
X80087Y-28001D01*
X80111Y-27977D01*
X80123Y-27954D01*
X83501Y-26958D02*
X83382Y-26875D01*
X83501Y-26816D02*
X83251Y-26816D01*
X83251Y-26911D01*
X83263Y-26935D01*
X83275Y-26946D01*
X83299Y-26958D01*
X83335Y-26958D01*
X83358Y-26946D01*
X83370Y-26935D01*
X83382Y-26911D01*
X83382Y-26816D01*
X83275Y-27054D02*
X83263Y-27066D01*
X83251Y-27089D01*
X83251Y-27149D01*
X83263Y-27173D01*
X83275Y-27185D01*
X83299Y-27196D01*
X83323Y-27196D01*
X83358Y-27185D01*
X83501Y-27042D01*
X83501Y-27196D01*
X83501Y-28958D02*
X83382Y-28875D01*
X83501Y-28816D02*
X83251Y-28816D01*
X83251Y-28911D01*
X83263Y-28935D01*
X83275Y-28946D01*
X83299Y-28958D01*
X83335Y-28958D01*
X83358Y-28946D01*
X83370Y-28935D01*
X83382Y-28911D01*
X83382Y-28816D01*
X83251Y-29042D02*
X83251Y-29196D01*
X83346Y-29113D01*
X83346Y-29149D01*
X83358Y-29173D01*
X83370Y-29185D01*
X83394Y-29196D01*
X83454Y-29196D01*
X83477Y-29185D01*
X83489Y-29173D01*
X83501Y-29149D01*
X83501Y-29077D01*
X83489Y-29054D01*
X83477Y-29042D01*
G54D15*
X81122Y-27521D02*
X81122Y-27221D01*
X81050Y-27221D01*
X81007Y-27236D01*
X80979Y-27264D01*
X80964Y-27293D01*
X80950Y-27350D01*
X80950Y-27393D01*
X80964Y-27450D01*
X80979Y-27479D01*
X81007Y-27507D01*
X81050Y-27521D01*
X81122Y-27521D01*
X80664Y-27521D02*
X80836Y-27521D01*
X80750Y-27521D02*
X80750Y-27221D01*
X80779Y-27264D01*
X80807Y-27293D01*
X80836Y-27307D01*
X80993Y-26321D02*
X81136Y-26321D01*
X81136Y-26021D01*
X80893Y-26164D02*
X80793Y-26164D01*
X80750Y-26321D02*
X80893Y-26321D01*
X80893Y-26021D01*
X80750Y-26021D01*
X80622Y-26321D02*
X80622Y-26021D01*
X80550Y-26021D01*
X80507Y-26036D01*
X80479Y-26064D01*
X80464Y-26093D01*
X80450Y-26150D01*
X80450Y-26193D01*
X80464Y-26250D01*
X80479Y-26279D01*
X80507Y-26307D01*
X80550Y-26321D01*
X80622Y-26321D01*
G54D14*
X47349Y-29767D02*
X47409Y-29767D01*
X47409Y-29913D02*
X47409Y-29633D01*
X47323Y-29633D01*
X47195Y-29767D02*
X47169Y-29780D01*
X47161Y-29793D01*
X47152Y-29820D01*
X47152Y-29860D01*
X47161Y-29887D01*
X47169Y-29900D01*
X47187Y-29913D01*
X47255Y-29913D01*
X47255Y-29633D01*
X47195Y-29633D01*
X47178Y-29647D01*
X47169Y-29660D01*
X47161Y-29687D01*
X47161Y-29713D01*
X47169Y-29740D01*
X47178Y-29753D01*
X47195Y-29767D01*
X47255Y-29767D01*
X46981Y-29913D02*
X47084Y-29913D01*
X47032Y-29913D02*
X47032Y-29633D01*
X47049Y-29673D01*
X47067Y-29700D01*
X47084Y-29713D01*
G54D11*
X58201Y-24958D02*
X58082Y-24875D01*
X58201Y-24816D02*
X57951Y-24816D01*
X57951Y-24911D01*
X57963Y-24935D01*
X57975Y-24946D01*
X57999Y-24958D01*
X58035Y-24958D01*
X58058Y-24946D01*
X58070Y-24935D01*
X58082Y-24911D01*
X58082Y-24816D01*
X58035Y-25173D02*
X58201Y-25173D01*
X57939Y-25113D02*
X58118Y-25054D01*
X58118Y-25208D01*
X48293Y-28150D02*
X48307Y-28136D01*
X48321Y-28093D01*
X48321Y-28064D01*
X48307Y-28021D01*
X48279Y-27993D01*
X48250Y-27978D01*
X48193Y-27964D01*
X48150Y-27964D01*
X48093Y-27978D01*
X48064Y-27993D01*
X48036Y-28021D01*
X48021Y-28064D01*
X48021Y-28093D01*
X48036Y-28136D01*
X48050Y-28150D01*
X48050Y-28264D02*
X48036Y-28278D01*
X48021Y-28307D01*
X48021Y-28378D01*
X48036Y-28407D01*
X48050Y-28421D01*
X48079Y-28436D01*
X48107Y-28436D01*
X48150Y-28421D01*
X48321Y-28250D01*
X48321Y-28436D01*
X57550Y-27421D02*
X57550Y-27636D01*
X57564Y-27679D01*
X57593Y-27707D01*
X57636Y-27721D01*
X57664Y-27721D01*
X57407Y-27721D02*
X57407Y-27421D01*
X57292Y-27421D01*
X57264Y-27436D01*
X57249Y-27450D01*
X57235Y-27479D01*
X57235Y-27521D01*
X57249Y-27550D01*
X57264Y-27564D01*
X57292Y-27579D01*
X57407Y-27579D01*
X56949Y-27721D02*
X57121Y-27721D01*
X57035Y-27721D02*
X57035Y-27421D01*
X57064Y-27464D01*
X57092Y-27493D01*
X57121Y-27507D01*
X49277Y-28158D02*
X49289Y-28146D01*
X49301Y-28111D01*
X49301Y-28087D01*
X49289Y-28051D01*
X49265Y-28027D01*
X49242Y-28016D01*
X49194Y-28004D01*
X49158Y-28004D01*
X49111Y-28016D01*
X49087Y-28027D01*
X49063Y-28051D01*
X49051Y-28087D01*
X49051Y-28111D01*
X49063Y-28146D01*
X49075Y-28158D01*
X49301Y-28396D02*
X49301Y-28254D01*
X49301Y-28325D02*
X49051Y-28325D01*
X49087Y-28301D01*
X49111Y-28277D01*
X49123Y-28254D01*
X52477Y-28958D02*
X52489Y-28946D01*
X52501Y-28911D01*
X52501Y-28887D01*
X52489Y-28851D01*
X52465Y-28827D01*
X52442Y-28816D01*
X52394Y-28804D01*
X52358Y-28804D01*
X52311Y-28816D01*
X52287Y-28827D01*
X52263Y-28851D01*
X52251Y-28887D01*
X52251Y-28911D01*
X52263Y-28946D01*
X52275Y-28958D01*
X52251Y-29042D02*
X52251Y-29196D01*
X52346Y-29113D01*
X52346Y-29149D01*
X52358Y-29173D01*
X52370Y-29185D01*
X52394Y-29196D01*
X52454Y-29196D01*
X52477Y-29185D01*
X52489Y-29173D01*
X52501Y-29149D01*
X52501Y-29077D01*
X52489Y-29054D01*
X52477Y-29042D01*
X51301Y-27858D02*
X51182Y-27775D01*
X51301Y-27716D02*
X51051Y-27716D01*
X51051Y-27811D01*
X51063Y-27835D01*
X51075Y-27846D01*
X51099Y-27858D01*
X51135Y-27858D01*
X51158Y-27846D01*
X51170Y-27835D01*
X51182Y-27811D01*
X51182Y-27716D01*
X51301Y-28096D02*
X51301Y-27954D01*
X51301Y-28025D02*
X51051Y-28025D01*
X51087Y-28001D01*
X51111Y-27977D01*
X51123Y-27954D01*
X54501Y-26958D02*
X54382Y-26875D01*
X54501Y-26816D02*
X54251Y-26816D01*
X54251Y-26911D01*
X54263Y-26935D01*
X54275Y-26946D01*
X54299Y-26958D01*
X54335Y-26958D01*
X54358Y-26946D01*
X54370Y-26935D01*
X54382Y-26911D01*
X54382Y-26816D01*
X54275Y-27054D02*
X54263Y-27066D01*
X54251Y-27089D01*
X54251Y-27149D01*
X54263Y-27173D01*
X54275Y-27185D01*
X54299Y-27196D01*
X54323Y-27196D01*
X54358Y-27185D01*
X54501Y-27042D01*
X54501Y-27196D01*
X54501Y-28958D02*
X54382Y-28875D01*
X54501Y-28816D02*
X54251Y-28816D01*
X54251Y-28911D01*
X54263Y-28935D01*
X54275Y-28946D01*
X54299Y-28958D01*
X54335Y-28958D01*
X54358Y-28946D01*
X54370Y-28935D01*
X54382Y-28911D01*
X54382Y-28816D01*
X54251Y-29042D02*
X54251Y-29196D01*
X54346Y-29113D01*
X54346Y-29149D01*
X54358Y-29173D01*
X54370Y-29185D01*
X54394Y-29196D01*
X54454Y-29196D01*
X54477Y-29185D01*
X54489Y-29173D01*
X54501Y-29149D01*
X54501Y-29077D01*
X54489Y-29054D01*
X54477Y-29042D01*
G54D15*
X52122Y-27521D02*
X52122Y-27221D01*
X52050Y-27221D01*
X52007Y-27236D01*
X51979Y-27264D01*
X51964Y-27293D01*
X51950Y-27350D01*
X51950Y-27393D01*
X51964Y-27450D01*
X51979Y-27479D01*
X52007Y-27507D01*
X52050Y-27521D01*
X52122Y-27521D01*
X51664Y-27521D02*
X51836Y-27521D01*
X51750Y-27521D02*
X51750Y-27221D01*
X51779Y-27264D01*
X51807Y-27293D01*
X51836Y-27307D01*
X51993Y-26321D02*
X52136Y-26321D01*
X52136Y-26021D01*
X51893Y-26164D02*
X51793Y-26164D01*
X51750Y-26321D02*
X51893Y-26321D01*
X51893Y-26021D01*
X51750Y-26021D01*
X51622Y-26321D02*
X51622Y-26021D01*
X51550Y-26021D01*
X51507Y-26036D01*
X51479Y-26064D01*
X51464Y-26093D01*
X51450Y-26150D01*
X51450Y-26193D01*
X51464Y-26250D01*
X51479Y-26279D01*
X51507Y-26307D01*
X51550Y-26321D01*
X51622Y-26321D01*
X66622Y-27521D02*
X66622Y-27221D01*
X66550Y-27221D01*
X66507Y-27236D01*
X66479Y-27264D01*
X66464Y-27293D01*
X66450Y-27350D01*
X66450Y-27393D01*
X66464Y-27450D01*
X66479Y-27479D01*
X66507Y-27507D01*
X66550Y-27521D01*
X66622Y-27521D01*
X66164Y-27521D02*
X66336Y-27521D01*
X66250Y-27521D02*
X66250Y-27221D01*
X66279Y-27264D01*
X66307Y-27293D01*
X66336Y-27307D01*
X66493Y-26321D02*
X66636Y-26321D01*
X66636Y-26021D01*
X66393Y-26164D02*
X66293Y-26164D01*
X66250Y-26321D02*
X66393Y-26321D01*
X66393Y-26021D01*
X66250Y-26021D01*
X66122Y-26321D02*
X66122Y-26021D01*
X66050Y-26021D01*
X66007Y-26036D01*
X65979Y-26064D01*
X65964Y-26093D01*
X65950Y-26150D01*
X65950Y-26193D01*
X65964Y-26250D01*
X65979Y-26279D01*
X66007Y-26307D01*
X66050Y-26321D01*
X66122Y-26321D01*
G54D11*
X69001Y-28958D02*
X68882Y-28875D01*
X69001Y-28816D02*
X68751Y-28816D01*
X68751Y-28911D01*
X68763Y-28935D01*
X68775Y-28946D01*
X68799Y-28958D01*
X68835Y-28958D01*
X68858Y-28946D01*
X68870Y-28935D01*
X68882Y-28911D01*
X68882Y-28816D01*
X68751Y-29042D02*
X68751Y-29196D01*
X68846Y-29113D01*
X68846Y-29149D01*
X68858Y-29173D01*
X68870Y-29185D01*
X68894Y-29196D01*
X68954Y-29196D01*
X68977Y-29185D01*
X68989Y-29173D01*
X69001Y-29149D01*
X69001Y-29077D01*
X68989Y-29054D01*
X68977Y-29042D01*
X69001Y-26958D02*
X68882Y-26875D01*
X69001Y-26816D02*
X68751Y-26816D01*
X68751Y-26911D01*
X68763Y-26935D01*
X68775Y-26946D01*
X68799Y-26958D01*
X68835Y-26958D01*
X68858Y-26946D01*
X68870Y-26935D01*
X68882Y-26911D01*
X68882Y-26816D01*
X68775Y-27054D02*
X68763Y-27066D01*
X68751Y-27089D01*
X68751Y-27149D01*
X68763Y-27173D01*
X68775Y-27185D01*
X68799Y-27196D01*
X68823Y-27196D01*
X68858Y-27185D01*
X69001Y-27042D01*
X69001Y-27196D01*
X65801Y-27858D02*
X65682Y-27775D01*
X65801Y-27716D02*
X65551Y-27716D01*
X65551Y-27811D01*
X65563Y-27835D01*
X65575Y-27846D01*
X65599Y-27858D01*
X65635Y-27858D01*
X65658Y-27846D01*
X65670Y-27835D01*
X65682Y-27811D01*
X65682Y-27716D01*
X65801Y-28096D02*
X65801Y-27954D01*
X65801Y-28025D02*
X65551Y-28025D01*
X65587Y-28001D01*
X65611Y-27977D01*
X65623Y-27954D01*
X66977Y-28958D02*
X66989Y-28946D01*
X67001Y-28911D01*
X67001Y-28887D01*
X66989Y-28851D01*
X66965Y-28827D01*
X66942Y-28816D01*
X66894Y-28804D01*
X66858Y-28804D01*
X66811Y-28816D01*
X66787Y-28827D01*
X66763Y-28851D01*
X66751Y-28887D01*
X66751Y-28911D01*
X66763Y-28946D01*
X66775Y-28958D01*
X66751Y-29042D02*
X66751Y-29196D01*
X66846Y-29113D01*
X66846Y-29149D01*
X66858Y-29173D01*
X66870Y-29185D01*
X66894Y-29196D01*
X66954Y-29196D01*
X66977Y-29185D01*
X66989Y-29173D01*
X67001Y-29149D01*
X67001Y-29077D01*
X66989Y-29054D01*
X66977Y-29042D01*
X63777Y-28158D02*
X63789Y-28146D01*
X63801Y-28111D01*
X63801Y-28087D01*
X63789Y-28051D01*
X63765Y-28027D01*
X63742Y-28016D01*
X63694Y-28004D01*
X63658Y-28004D01*
X63611Y-28016D01*
X63587Y-28027D01*
X63563Y-28051D01*
X63551Y-28087D01*
X63551Y-28111D01*
X63563Y-28146D01*
X63575Y-28158D01*
X63801Y-28396D02*
X63801Y-28254D01*
X63801Y-28325D02*
X63551Y-28325D01*
X63587Y-28301D01*
X63611Y-28277D01*
X63623Y-28254D01*
X72050Y-27421D02*
X72050Y-27636D01*
X72064Y-27679D01*
X72093Y-27707D01*
X72136Y-27721D01*
X72164Y-27721D01*
X71907Y-27721D02*
X71907Y-27421D01*
X71792Y-27421D01*
X71764Y-27436D01*
X71749Y-27450D01*
X71735Y-27479D01*
X71735Y-27521D01*
X71749Y-27550D01*
X71764Y-27564D01*
X71792Y-27579D01*
X71907Y-27579D01*
X71449Y-27721D02*
X71621Y-27721D01*
X71535Y-27721D02*
X71535Y-27421D01*
X71564Y-27464D01*
X71592Y-27493D01*
X71621Y-27507D01*
X62793Y-28150D02*
X62807Y-28136D01*
X62821Y-28093D01*
X62821Y-28064D01*
X62807Y-28021D01*
X62779Y-27993D01*
X62750Y-27978D01*
X62693Y-27964D01*
X62650Y-27964D01*
X62593Y-27978D01*
X62564Y-27993D01*
X62536Y-28021D01*
X62521Y-28064D01*
X62521Y-28093D01*
X62536Y-28136D01*
X62550Y-28150D01*
X62550Y-28264D02*
X62536Y-28278D01*
X62521Y-28307D01*
X62521Y-28378D01*
X62536Y-28407D01*
X62550Y-28421D01*
X62579Y-28436D01*
X62607Y-28436D01*
X62650Y-28421D01*
X62821Y-28250D01*
X62821Y-28436D01*
X72701Y-24958D02*
X72582Y-24875D01*
X72701Y-24816D02*
X72451Y-24816D01*
X72451Y-24911D01*
X72463Y-24935D01*
X72475Y-24946D01*
X72499Y-24958D01*
X72535Y-24958D01*
X72558Y-24946D01*
X72570Y-24935D01*
X72582Y-24911D01*
X72582Y-24816D01*
X72535Y-25173D02*
X72701Y-25173D01*
X72439Y-25113D02*
X72618Y-25054D01*
X72618Y-25208D01*
G54D14*
X61849Y-29767D02*
X61909Y-29767D01*
X61909Y-29913D02*
X61909Y-29633D01*
X61823Y-29633D01*
X61695Y-29767D02*
X61669Y-29780D01*
X61661Y-29793D01*
X61652Y-29820D01*
X61652Y-29860D01*
X61661Y-29887D01*
X61669Y-29900D01*
X61687Y-29913D01*
X61755Y-29913D01*
X61755Y-29633D01*
X61695Y-29633D01*
X61678Y-29647D01*
X61669Y-29660D01*
X61661Y-29687D01*
X61661Y-29713D01*
X61669Y-29740D01*
X61678Y-29753D01*
X61695Y-29767D01*
X61755Y-29767D01*
X61481Y-29913D02*
X61584Y-29913D01*
X61532Y-29913D02*
X61532Y-29633D01*
X61549Y-29673D01*
X61567Y-29700D01*
X61584Y-29713D01*
X32949Y-29767D02*
X33009Y-29767D01*
X33009Y-29913D02*
X33009Y-29633D01*
X32923Y-29633D01*
X32795Y-29767D02*
X32769Y-29780D01*
X32761Y-29793D01*
X32752Y-29820D01*
X32752Y-29860D01*
X32761Y-29887D01*
X32769Y-29900D01*
X32787Y-29913D01*
X32855Y-29913D01*
X32855Y-29633D01*
X32795Y-29633D01*
X32778Y-29647D01*
X32769Y-29660D01*
X32761Y-29687D01*
X32761Y-29713D01*
X32769Y-29740D01*
X32778Y-29753D01*
X32795Y-29767D01*
X32855Y-29767D01*
X32581Y-29913D02*
X32684Y-29913D01*
X32632Y-29913D02*
X32632Y-29633D01*
X32649Y-29673D01*
X32667Y-29700D01*
X32684Y-29713D01*
G54D11*
X43801Y-24958D02*
X43682Y-24875D01*
X43801Y-24816D02*
X43551Y-24816D01*
X43551Y-24911D01*
X43563Y-24935D01*
X43575Y-24946D01*
X43599Y-24958D01*
X43635Y-24958D01*
X43658Y-24946D01*
X43670Y-24935D01*
X43682Y-24911D01*
X43682Y-24816D01*
X43635Y-25173D02*
X43801Y-25173D01*
X43539Y-25113D02*
X43718Y-25054D01*
X43718Y-25208D01*
X33893Y-28150D02*
X33907Y-28136D01*
X33921Y-28093D01*
X33921Y-28064D01*
X33907Y-28021D01*
X33879Y-27993D01*
X33850Y-27978D01*
X33793Y-27964D01*
X33750Y-27964D01*
X33693Y-27978D01*
X33664Y-27993D01*
X33636Y-28021D01*
X33621Y-28064D01*
X33621Y-28093D01*
X33636Y-28136D01*
X33650Y-28150D01*
X33650Y-28264D02*
X33636Y-28278D01*
X33621Y-28307D01*
X33621Y-28378D01*
X33636Y-28407D01*
X33650Y-28421D01*
X33679Y-28436D01*
X33707Y-28436D01*
X33750Y-28421D01*
X33921Y-28250D01*
X33921Y-28436D01*
X43150Y-27421D02*
X43150Y-27636D01*
X43164Y-27679D01*
X43193Y-27707D01*
X43236Y-27721D01*
X43264Y-27721D01*
X43007Y-27721D02*
X43007Y-27421D01*
X42892Y-27421D01*
X42864Y-27436D01*
X42849Y-27450D01*
X42835Y-27479D01*
X42835Y-27521D01*
X42849Y-27550D01*
X42864Y-27564D01*
X42892Y-27579D01*
X43007Y-27579D01*
X42549Y-27721D02*
X42721Y-27721D01*
X42635Y-27721D02*
X42635Y-27421D01*
X42664Y-27464D01*
X42692Y-27493D01*
X42721Y-27507D01*
X34877Y-28158D02*
X34889Y-28146D01*
X34901Y-28111D01*
X34901Y-28087D01*
X34889Y-28051D01*
X34865Y-28027D01*
X34842Y-28016D01*
X34794Y-28004D01*
X34758Y-28004D01*
X34711Y-28016D01*
X34687Y-28027D01*
X34663Y-28051D01*
X34651Y-28087D01*
X34651Y-28111D01*
X34663Y-28146D01*
X34675Y-28158D01*
X34901Y-28396D02*
X34901Y-28254D01*
X34901Y-28325D02*
X34651Y-28325D01*
X34687Y-28301D01*
X34711Y-28277D01*
X34723Y-28254D01*
X38077Y-28958D02*
X38089Y-28946D01*
X38101Y-28911D01*
X38101Y-28887D01*
X38089Y-28851D01*
X38065Y-28827D01*
X38042Y-28816D01*
X37994Y-28804D01*
X37958Y-28804D01*
X37911Y-28816D01*
X37887Y-28827D01*
X37863Y-28851D01*
X37851Y-28887D01*
X37851Y-28911D01*
X37863Y-28946D01*
X37875Y-28958D01*
X37851Y-29042D02*
X37851Y-29196D01*
X37946Y-29113D01*
X37946Y-29149D01*
X37958Y-29173D01*
X37970Y-29185D01*
X37994Y-29196D01*
X38054Y-29196D01*
X38077Y-29185D01*
X38089Y-29173D01*
X38101Y-29149D01*
X38101Y-29077D01*
X38089Y-29054D01*
X38077Y-29042D01*
X36901Y-27858D02*
X36782Y-27775D01*
X36901Y-27716D02*
X36651Y-27716D01*
X36651Y-27811D01*
X36663Y-27835D01*
X36675Y-27846D01*
X36699Y-27858D01*
X36735Y-27858D01*
X36758Y-27846D01*
X36770Y-27835D01*
X36782Y-27811D01*
X36782Y-27716D01*
X36901Y-28096D02*
X36901Y-27954D01*
X36901Y-28025D02*
X36651Y-28025D01*
X36687Y-28001D01*
X36711Y-27977D01*
X36723Y-27954D01*
X40101Y-26958D02*
X39982Y-26875D01*
X40101Y-26816D02*
X39851Y-26816D01*
X39851Y-26911D01*
X39863Y-26935D01*
X39875Y-26946D01*
X39899Y-26958D01*
X39935Y-26958D01*
X39958Y-26946D01*
X39970Y-26935D01*
X39982Y-26911D01*
X39982Y-26816D01*
X39875Y-27054D02*
X39863Y-27066D01*
X39851Y-27089D01*
X39851Y-27149D01*
X39863Y-27173D01*
X39875Y-27185D01*
X39899Y-27196D01*
X39923Y-27196D01*
X39958Y-27185D01*
X40101Y-27042D01*
X40101Y-27196D01*
X40101Y-28958D02*
X39982Y-28875D01*
X40101Y-28816D02*
X39851Y-28816D01*
X39851Y-28911D01*
X39863Y-28935D01*
X39875Y-28946D01*
X39899Y-28958D01*
X39935Y-28958D01*
X39958Y-28946D01*
X39970Y-28935D01*
X39982Y-28911D01*
X39982Y-28816D01*
X39851Y-29042D02*
X39851Y-29196D01*
X39946Y-29113D01*
X39946Y-29149D01*
X39958Y-29173D01*
X39970Y-29185D01*
X39994Y-29196D01*
X40054Y-29196D01*
X40077Y-29185D01*
X40089Y-29173D01*
X40101Y-29149D01*
X40101Y-29077D01*
X40089Y-29054D01*
X40077Y-29042D01*
G54D15*
X37722Y-27521D02*
X37722Y-27221D01*
X37650Y-27221D01*
X37607Y-27236D01*
X37579Y-27264D01*
X37564Y-27293D01*
X37550Y-27350D01*
X37550Y-27393D01*
X37564Y-27450D01*
X37579Y-27479D01*
X37607Y-27507D01*
X37650Y-27521D01*
X37722Y-27521D01*
X37264Y-27521D02*
X37436Y-27521D01*
X37350Y-27521D02*
X37350Y-27221D01*
X37379Y-27264D01*
X37407Y-27293D01*
X37436Y-27307D01*
X37593Y-26321D02*
X37736Y-26321D01*
X37736Y-26021D01*
X37493Y-26164D02*
X37393Y-26164D01*
X37350Y-26321D02*
X37493Y-26321D01*
X37493Y-26021D01*
X37350Y-26021D01*
X37222Y-26321D02*
X37222Y-26021D01*
X37150Y-26021D01*
X37107Y-26036D01*
X37079Y-26064D01*
X37064Y-26093D01*
X37050Y-26150D01*
X37050Y-26193D01*
X37064Y-26250D01*
X37079Y-26279D01*
X37107Y-26307D01*
X37150Y-26321D01*
X37222Y-26321D01*
X23222Y-27521D02*
X23222Y-27221D01*
X23150Y-27221D01*
X23107Y-27236D01*
X23079Y-27264D01*
X23064Y-27293D01*
X23050Y-27350D01*
X23050Y-27393D01*
X23064Y-27450D01*
X23079Y-27479D01*
X23107Y-27507D01*
X23150Y-27521D01*
X23222Y-27521D01*
X22764Y-27521D02*
X22936Y-27521D01*
X22850Y-27521D02*
X22850Y-27221D01*
X22879Y-27264D01*
X22907Y-27293D01*
X22936Y-27307D01*
X23093Y-26321D02*
X23236Y-26321D01*
X23236Y-26021D01*
X22993Y-26164D02*
X22893Y-26164D01*
X22850Y-26321D02*
X22993Y-26321D01*
X22993Y-26021D01*
X22850Y-26021D01*
X22722Y-26321D02*
X22722Y-26021D01*
X22650Y-26021D01*
X22607Y-26036D01*
X22579Y-26064D01*
X22564Y-26093D01*
X22550Y-26150D01*
X22550Y-26193D01*
X22564Y-26250D01*
X22579Y-26279D01*
X22607Y-26307D01*
X22650Y-26321D01*
X22722Y-26321D01*
G54D11*
X25601Y-28958D02*
X25482Y-28875D01*
X25601Y-28816D02*
X25351Y-28816D01*
X25351Y-28911D01*
X25363Y-28935D01*
X25375Y-28946D01*
X25399Y-28958D01*
X25435Y-28958D01*
X25458Y-28946D01*
X25470Y-28935D01*
X25482Y-28911D01*
X25482Y-28816D01*
X25351Y-29042D02*
X25351Y-29196D01*
X25446Y-29113D01*
X25446Y-29149D01*
X25458Y-29173D01*
X25470Y-29185D01*
X25494Y-29196D01*
X25554Y-29196D01*
X25577Y-29185D01*
X25589Y-29173D01*
X25601Y-29149D01*
X25601Y-29077D01*
X25589Y-29054D01*
X25577Y-29042D01*
X25601Y-26958D02*
X25482Y-26875D01*
X25601Y-26816D02*
X25351Y-26816D01*
X25351Y-26911D01*
X25363Y-26935D01*
X25375Y-26946D01*
X25399Y-26958D01*
X25435Y-26958D01*
X25458Y-26946D01*
X25470Y-26935D01*
X25482Y-26911D01*
X25482Y-26816D01*
X25375Y-27054D02*
X25363Y-27066D01*
X25351Y-27089D01*
X25351Y-27149D01*
X25363Y-27173D01*
X25375Y-27185D01*
X25399Y-27196D01*
X25423Y-27196D01*
X25458Y-27185D01*
X25601Y-27042D01*
X25601Y-27196D01*
X22401Y-27858D02*
X22282Y-27775D01*
X22401Y-27716D02*
X22151Y-27716D01*
X22151Y-27811D01*
X22163Y-27835D01*
X22175Y-27846D01*
X22199Y-27858D01*
X22235Y-27858D01*
X22258Y-27846D01*
X22270Y-27835D01*
X22282Y-27811D01*
X22282Y-27716D01*
X22401Y-28096D02*
X22401Y-27954D01*
X22401Y-28025D02*
X22151Y-28025D01*
X22187Y-28001D01*
X22211Y-27977D01*
X22223Y-27954D01*
X23577Y-28958D02*
X23589Y-28946D01*
X23601Y-28911D01*
X23601Y-28887D01*
X23589Y-28851D01*
X23565Y-28827D01*
X23542Y-28816D01*
X23494Y-28804D01*
X23458Y-28804D01*
X23411Y-28816D01*
X23387Y-28827D01*
X23363Y-28851D01*
X23351Y-28887D01*
X23351Y-28911D01*
X23363Y-28946D01*
X23375Y-28958D01*
X23351Y-29042D02*
X23351Y-29196D01*
X23446Y-29113D01*
X23446Y-29149D01*
X23458Y-29173D01*
X23470Y-29185D01*
X23494Y-29196D01*
X23554Y-29196D01*
X23577Y-29185D01*
X23589Y-29173D01*
X23601Y-29149D01*
X23601Y-29077D01*
X23589Y-29054D01*
X23577Y-29042D01*
X20377Y-28158D02*
X20389Y-28146D01*
X20401Y-28111D01*
X20401Y-28087D01*
X20389Y-28051D01*
X20365Y-28027D01*
X20342Y-28016D01*
X20294Y-28004D01*
X20258Y-28004D01*
X20211Y-28016D01*
X20187Y-28027D01*
X20163Y-28051D01*
X20151Y-28087D01*
X20151Y-28111D01*
X20163Y-28146D01*
X20175Y-28158D01*
X20401Y-28396D02*
X20401Y-28254D01*
X20401Y-28325D02*
X20151Y-28325D01*
X20187Y-28301D01*
X20211Y-28277D01*
X20223Y-28254D01*
X28650Y-27421D02*
X28650Y-27636D01*
X28664Y-27679D01*
X28693Y-27707D01*
X28736Y-27721D01*
X28764Y-27721D01*
X28507Y-27721D02*
X28507Y-27421D01*
X28392Y-27421D01*
X28364Y-27436D01*
X28349Y-27450D01*
X28335Y-27479D01*
X28335Y-27521D01*
X28349Y-27550D01*
X28364Y-27564D01*
X28392Y-27579D01*
X28507Y-27579D01*
X28049Y-27721D02*
X28221Y-27721D01*
X28135Y-27721D02*
X28135Y-27421D01*
X28164Y-27464D01*
X28192Y-27493D01*
X28221Y-27507D01*
X19393Y-28150D02*
X19407Y-28136D01*
X19421Y-28093D01*
X19421Y-28064D01*
X19407Y-28021D01*
X19379Y-27993D01*
X19350Y-27978D01*
X19293Y-27964D01*
X19250Y-27964D01*
X19193Y-27978D01*
X19164Y-27993D01*
X19136Y-28021D01*
X19121Y-28064D01*
X19121Y-28093D01*
X19136Y-28136D01*
X19150Y-28150D01*
X19150Y-28264D02*
X19136Y-28278D01*
X19121Y-28307D01*
X19121Y-28378D01*
X19136Y-28407D01*
X19150Y-28421D01*
X19179Y-28436D01*
X19207Y-28436D01*
X19250Y-28421D01*
X19421Y-28250D01*
X19421Y-28436D01*
X29301Y-24958D02*
X29182Y-24875D01*
X29301Y-24816D02*
X29051Y-24816D01*
X29051Y-24911D01*
X29063Y-24935D01*
X29075Y-24946D01*
X29099Y-24958D01*
X29135Y-24958D01*
X29158Y-24946D01*
X29170Y-24935D01*
X29182Y-24911D01*
X29182Y-24816D01*
X29135Y-25173D02*
X29301Y-25173D01*
X29039Y-25113D02*
X29218Y-25054D01*
X29218Y-25208D01*
G54D14*
X18449Y-29767D02*
X18509Y-29767D01*
X18509Y-29913D02*
X18509Y-29633D01*
X18423Y-29633D01*
X18295Y-29767D02*
X18269Y-29780D01*
X18261Y-29793D01*
X18252Y-29820D01*
X18252Y-29860D01*
X18261Y-29887D01*
X18269Y-29900D01*
X18287Y-29913D01*
X18355Y-29913D01*
X18355Y-29633D01*
X18295Y-29633D01*
X18278Y-29647D01*
X18269Y-29660D01*
X18261Y-29687D01*
X18261Y-29713D01*
X18269Y-29740D01*
X18278Y-29753D01*
X18295Y-29767D01*
X18355Y-29767D01*
X18081Y-29913D02*
X18184Y-29913D01*
X18132Y-29913D02*
X18132Y-29633D01*
X18149Y-29673D01*
X18167Y-29700D01*
X18184Y-29713D01*
M02*
