M48
;DRILL file {PCBnew (2011-07-08)-stable} date Sun 14 Aug 2011 03:51:05 PM EDT
;FORMAT={-:-/ absolute / inch / decimal}
FMAT,2
INCH,TZ
T1C0.014
T2C0.032
T3C0.032
T4C0.035
T5C0.040
T6C0.045
T7C0.120
T8C0.128
%
G90
G05
M72
T1
X2.691Y-5.356
X2.738Y-5.561
X2.801Y-5.340
X2.887Y-5.364
X2.900Y-4.970
X2.944Y-4.906
X3.053Y-5.129
X3.060Y-5.070
X3.063Y-5.158
X3.140Y-5.410
X3.200Y-5.199
X3.216Y-5.299
X3.440Y-5.110
X3.440Y-5.010
X3.440Y-5.210
X3.440Y-5.310
X3.840Y-1.920
X3.840Y-2.030
X3.840Y-2.130
X3.840Y-2.220
X4.310Y-4.300
X4.561Y-5.356
X4.608Y-5.561
X4.671Y-5.340
X4.757Y-5.364
X4.770Y-4.970
X4.814Y-4.906
X4.923Y-5.129
X4.930Y-5.070
X4.933Y-5.158
X5.010Y-5.410
X5.070Y-5.199
X5.086Y-5.299
X5.310Y-5.110
X5.310Y-5.010
X5.310Y-5.210
X5.310Y-5.310
X6.270Y-1.920
X6.270Y-2.030
X6.270Y-2.130
X6.270Y-2.220
X6.601Y-5.356
X6.648Y-5.561
X6.711Y-5.340
X6.740Y-4.300
X6.797Y-5.364
X6.810Y-4.970
X6.854Y-4.906
X6.963Y-5.129
X6.970Y-5.070
X6.973Y-5.158
X7.050Y-5.410
X7.110Y-5.199
X7.126Y-5.299
X7.350Y-5.110
X7.350Y-5.010
X7.350Y-5.210
X7.350Y-5.310
X8.491Y-5.356
X8.538Y-5.561
X8.601Y-5.340
X8.687Y-5.364
X8.700Y-1.920
X8.700Y-2.030
X8.700Y-2.130
X8.700Y-2.220
X8.700Y-4.970
X8.744Y-4.906
X8.853Y-5.129
X8.860Y-5.070
X8.863Y-5.158
X8.940Y-5.410
X9.000Y-5.199
X9.016Y-5.299
X9.170Y-4.300
X9.240Y-5.110
X9.240Y-5.010
X9.240Y-5.210
X9.240Y-5.310
T2
X2.660Y-5.130
X2.660Y-5.230
X3.110Y-2.570
X3.110Y-2.670
X4.530Y-5.130
X4.530Y-5.230
X5.540Y-2.570
X5.540Y-2.670
X6.570Y-5.130
X6.570Y-5.230
X7.970Y-2.570
X7.970Y-2.670
X8.460Y-5.130
X8.460Y-5.230
T3
X2.220Y-2.940
X2.220Y-3.140
X2.220Y-4.940
X2.220Y-5.120
X2.220Y-5.240
X2.220Y-5.370
X2.220Y-5.490
X2.220Y-5.610
X2.320Y-2.880
X2.320Y-3.200
X2.340Y-4.940
X2.340Y-5.480
X2.460Y-4.940
X2.460Y-5.480
X2.460Y-5.610
X2.580Y-4.940
X2.580Y-5.480
X2.580Y-5.610
X2.680Y-4.940
X2.770Y-2.570
X2.770Y-2.670
X2.780Y-2.100
X2.780Y-2.200
X2.790Y-4.940
X2.820Y-2.900
X2.820Y-3.200
X2.890Y-2.350
X2.890Y-2.450
X2.890Y-2.570
X2.890Y-2.670
X2.900Y-2.100
X2.900Y-2.200
X2.920Y-2.900
X2.920Y-3.200
X2.930Y-5.620
X3.020Y-2.900
X3.020Y-3.200
X3.050Y-5.620
X3.090Y-1.820
X3.090Y-1.920
X3.120Y-2.900
X3.120Y-3.200
X3.170Y-5.620
X3.200Y-2.400
X3.210Y-1.820
X3.210Y-1.920
X3.250Y-3.300
X3.250Y-3.400
X3.250Y-3.500
X3.250Y-3.600
X3.250Y-3.700
X3.250Y-3.800
X3.250Y-3.900
X3.250Y-4.000
X3.250Y-4.100
X3.250Y-4.200
X3.250Y-4.300
X3.250Y-4.400
X3.250Y-4.500
X3.250Y-4.600
X3.290Y-5.620
X3.300Y-4.940
X3.310Y-1.720
X3.310Y-1.820
X3.310Y-1.920
X3.310Y-2.020
X3.310Y-2.120
X3.310Y-2.220
X3.310Y-2.320
X3.310Y-2.420
X3.310Y-2.520
X3.310Y-2.620
X3.310Y-2.720
X3.310Y-2.820
X3.310Y-2.920
X3.310Y-3.020
X3.410Y-3.020
X3.410Y-5.620
X3.550Y-3.300
X3.550Y-3.400
X3.550Y-3.500
X3.550Y-3.600
X3.550Y-3.700
X3.550Y-3.800
X3.550Y-3.900
X3.550Y-4.000
X3.550Y-4.100
X3.550Y-4.200
X3.550Y-4.300
X3.550Y-4.400
X3.550Y-4.500
X3.550Y-4.600
X3.610Y-1.720
X3.610Y-1.820
X3.610Y-1.920
X3.610Y-2.020
X3.610Y-2.120
X3.610Y-2.220
X3.610Y-2.320
X3.610Y-2.420
X3.610Y-2.520
X3.610Y-2.620
X3.610Y-2.720
X3.610Y-2.820
X3.610Y-2.920
X3.610Y-3.020
X3.720Y-1.720
X3.720Y-1.820
X3.720Y-2.720
X3.930Y-1.720
X3.930Y-1.820
X3.930Y-1.920
X3.930Y-2.020
X3.930Y-2.120
X3.930Y-2.220
X3.930Y-2.320
X3.930Y-2.420
X3.930Y-2.520
X3.930Y-2.620
X3.930Y-2.720
X3.930Y-2.820
X3.930Y-2.920
X3.930Y-3.020
X3.930Y-3.300
X3.930Y-3.400
X3.930Y-3.500
X3.930Y-3.600
X3.930Y-3.700
X3.930Y-3.800
X3.930Y-3.900
X3.930Y-4.000
X3.930Y-4.100
X3.930Y-4.200
X3.930Y-4.300
X3.930Y-4.400
X3.930Y-4.500
X3.930Y-4.600
X4.040Y-1.880
X4.090Y-4.940
X4.090Y-5.120
X4.090Y-5.240
X4.090Y-5.370
X4.090Y-5.490
X4.090Y-5.610
X4.210Y-4.940
X4.210Y-5.480
X4.230Y-1.720
X4.230Y-1.820
X4.230Y-1.920
X4.230Y-2.020
X4.230Y-2.120
X4.230Y-2.220
X4.230Y-2.320
X4.230Y-2.420
X4.230Y-2.520
X4.230Y-2.620
X4.230Y-2.720
X4.230Y-2.820
X4.230Y-2.920
X4.230Y-3.020
X4.230Y-3.300
X4.230Y-3.400
X4.230Y-3.500
X4.230Y-3.600
X4.230Y-3.700
X4.230Y-3.800
X4.230Y-3.900
X4.230Y-4.000
X4.230Y-4.100
X4.230Y-4.200
X4.230Y-4.300
X4.230Y-4.400
X4.230Y-4.500
X4.230Y-4.600
X4.330Y-4.940
X4.330Y-5.480
X4.330Y-5.610
X4.450Y-4.940
X4.450Y-5.480
X4.450Y-5.610
X4.550Y-4.940
X4.650Y-2.940
X4.650Y-3.140
X4.660Y-4.940
X4.750Y-2.880
X4.750Y-3.200
X4.800Y-5.620
X4.920Y-5.620
X5.040Y-5.620
X5.160Y-5.620
X5.170Y-4.940
X5.200Y-2.570
X5.200Y-2.670
X5.210Y-2.100
X5.210Y-2.200
X5.250Y-2.900
X5.250Y-3.200
X5.280Y-5.620
X5.320Y-2.350
X5.320Y-2.450
X5.320Y-2.570
X5.320Y-2.670
X5.330Y-2.100
X5.330Y-2.200
X5.350Y-2.900
X5.350Y-3.200
X5.450Y-2.900
X5.450Y-3.200
X5.520Y-1.820
X5.520Y-1.920
X5.550Y-2.900
X5.550Y-3.200
X5.630Y-2.400
X5.640Y-1.820
X5.640Y-1.920
X5.680Y-3.300
X5.680Y-3.400
X5.680Y-3.500
X5.680Y-3.600
X5.680Y-3.700
X5.680Y-3.800
X5.680Y-3.900
X5.680Y-4.000
X5.680Y-4.100
X5.680Y-4.200
X5.680Y-4.300
X5.680Y-4.400
X5.680Y-4.500
X5.680Y-4.600
X5.740Y-1.720
X5.740Y-1.820
X5.740Y-1.920
X5.740Y-2.020
X5.740Y-2.120
X5.740Y-2.220
X5.740Y-2.320
X5.740Y-2.420
X5.740Y-2.520
X5.740Y-2.620
X5.740Y-2.720
X5.740Y-2.820
X5.740Y-2.920
X5.740Y-3.020
X5.840Y-3.020
X5.980Y-3.300
X5.980Y-3.400
X5.980Y-3.500
X5.980Y-3.600
X5.980Y-3.700
X5.980Y-3.800
X5.980Y-3.900
X5.980Y-4.000
X5.980Y-4.100
X5.980Y-4.200
X5.980Y-4.300
X5.980Y-4.400
X5.980Y-4.500
X5.980Y-4.600
X6.040Y-1.720
X6.040Y-1.820
X6.040Y-1.920
X6.040Y-2.020
X6.040Y-2.120
X6.040Y-2.220
X6.040Y-2.320
X6.040Y-2.420
X6.040Y-2.520
X6.040Y-2.620
X6.040Y-2.720
X6.040Y-2.820
X6.040Y-2.920
X6.040Y-3.020
X6.130Y-4.940
X6.130Y-5.120
X6.130Y-5.240
X6.130Y-5.370
X6.130Y-5.490
X6.130Y-5.610
X6.150Y-1.720
X6.150Y-1.820
X6.150Y-2.720
X6.250Y-4.940
X6.250Y-5.480
X6.360Y-1.720
X6.360Y-1.820
X6.360Y-1.920
X6.360Y-2.020
X6.360Y-2.120
X6.360Y-2.220
X6.360Y-2.320
X6.360Y-2.420
X6.360Y-2.520
X6.360Y-2.620
X6.360Y-2.720
X6.360Y-2.820
X6.360Y-2.920
X6.360Y-3.020
X6.360Y-3.300
X6.360Y-3.400
X6.360Y-3.500
X6.360Y-3.600
X6.360Y-3.700
X6.360Y-3.800
X6.360Y-3.900
X6.360Y-4.000
X6.360Y-4.100
X6.360Y-4.200
X6.360Y-4.300
X6.360Y-4.400
X6.360Y-4.500
X6.360Y-4.600
X6.370Y-4.940
X6.370Y-5.480
X6.370Y-5.610
X6.470Y-1.880
X6.490Y-4.940
X6.490Y-5.480
X6.490Y-5.610
X6.590Y-4.940
X6.660Y-1.720
X6.660Y-1.820
X6.660Y-1.920
X6.660Y-2.020
X6.660Y-2.120
X6.660Y-2.220
X6.660Y-2.320
X6.660Y-2.420
X6.660Y-2.520
X6.660Y-2.620
X6.660Y-2.720
X6.660Y-2.820
X6.660Y-2.920
X6.660Y-3.020
X6.660Y-3.300
X6.660Y-3.400
X6.660Y-3.500
X6.660Y-3.600
X6.660Y-3.700
X6.660Y-3.800
X6.660Y-3.900
X6.660Y-4.000
X6.660Y-4.100
X6.660Y-4.200
X6.660Y-4.300
X6.660Y-4.400
X6.660Y-4.500
X6.660Y-4.600
X6.700Y-4.940
X6.840Y-5.620
X6.960Y-5.620
X7.080Y-2.940
X7.080Y-3.140
X7.080Y-5.620
X7.180Y-2.880
X7.180Y-3.200
X7.200Y-5.620
X7.210Y-4.940
X7.320Y-5.620
X7.630Y-2.570
X7.630Y-2.670
X7.640Y-2.100
X7.640Y-2.200
X7.680Y-2.900
X7.680Y-3.200
X7.750Y-2.350
X7.750Y-2.450
X7.750Y-2.570
X7.750Y-2.670
X7.760Y-2.100
X7.760Y-2.200
X7.780Y-2.900
X7.780Y-3.200
X7.880Y-2.900
X7.880Y-3.200
X7.950Y-1.820
X7.950Y-1.920
X7.980Y-2.900
X7.980Y-3.200
X8.020Y-4.940
X8.020Y-5.120
X8.020Y-5.240
X8.020Y-5.370
X8.020Y-5.490
X8.020Y-5.610
X8.060Y-2.400
X8.070Y-1.820
X8.070Y-1.920
X8.110Y-3.300
X8.110Y-3.400
X8.110Y-3.500
X8.110Y-3.600
X8.110Y-3.700
X8.110Y-3.800
X8.110Y-3.900
X8.110Y-4.000
X8.110Y-4.100
X8.110Y-4.200
X8.110Y-4.300
X8.110Y-4.400
X8.110Y-4.500
X8.110Y-4.600
X8.140Y-4.940
X8.140Y-5.480
X8.170Y-1.720
X8.170Y-1.820
X8.170Y-1.920
X8.170Y-2.020
X8.170Y-2.120
X8.170Y-2.220
X8.170Y-2.320
X8.170Y-2.420
X8.170Y-2.520
X8.170Y-2.620
X8.170Y-2.720
X8.170Y-2.820
X8.170Y-2.920
X8.170Y-3.020
X8.260Y-4.940
X8.260Y-5.480
X8.260Y-5.610
X8.270Y-3.020
X8.380Y-4.940
X8.380Y-5.480
X8.380Y-5.610
X8.410Y-3.300
X8.410Y-3.400
X8.410Y-3.500
X8.410Y-3.600
X8.410Y-3.700
X8.410Y-3.800
X8.410Y-3.900
X8.410Y-4.000
X8.410Y-4.100
X8.410Y-4.200
X8.410Y-4.300
X8.410Y-4.400
X8.410Y-4.500
X8.410Y-4.600
X8.470Y-1.720
X8.470Y-1.820
X8.470Y-1.920
X8.470Y-2.020
X8.470Y-2.120
X8.470Y-2.220
X8.470Y-2.320
X8.470Y-2.420
X8.470Y-2.520
X8.470Y-2.620
X8.470Y-2.720
X8.470Y-2.820
X8.470Y-2.920
X8.470Y-3.020
X8.480Y-4.940
X8.580Y-1.720
X8.580Y-1.820
X8.580Y-2.720
X8.590Y-4.940
X8.730Y-5.620
X8.790Y-1.720
X8.790Y-1.820
X8.790Y-1.920
X8.790Y-2.020
X8.790Y-2.120
X8.790Y-2.220
X8.790Y-2.320
X8.790Y-2.420
X8.790Y-2.520
X8.790Y-2.620
X8.790Y-2.720
X8.790Y-2.820
X8.790Y-2.920
X8.790Y-3.020
X8.790Y-3.300
X8.790Y-3.400
X8.790Y-3.500
X8.790Y-3.600
X8.790Y-3.700
X8.790Y-3.800
X8.790Y-3.900
X8.790Y-4.000
X8.790Y-4.100
X8.790Y-4.200
X8.790Y-4.300
X8.790Y-4.400
X8.790Y-4.500
X8.790Y-4.600
X8.850Y-5.620
X8.900Y-1.880
X8.970Y-5.620
X9.090Y-1.720
X9.090Y-1.820
X9.090Y-1.920
X9.090Y-2.020
X9.090Y-2.120
X9.090Y-2.220
X9.090Y-2.320
X9.090Y-2.420
X9.090Y-2.520
X9.090Y-2.620
X9.090Y-2.720
X9.090Y-2.820
X9.090Y-2.920
X9.090Y-3.020
X9.090Y-3.300
X9.090Y-3.400
X9.090Y-3.500
X9.090Y-3.600
X9.090Y-3.700
X9.090Y-3.800
X9.090Y-3.900
X9.090Y-4.000
X9.090Y-4.100
X9.090Y-4.200
X9.090Y-4.300
X9.090Y-4.400
X9.090Y-4.500
X9.090Y-4.600
X9.090Y-5.620
X9.100Y-4.940
X9.210Y-5.620
T4
X2.730Y-3.405
X2.730Y-3.505
X2.730Y-3.605
X2.730Y-3.705
X2.730Y-4.055
X2.730Y-4.155
X2.730Y-4.255
X2.730Y-4.355
X2.830Y-3.455
X2.830Y-3.555
X2.830Y-3.655
X2.830Y-3.755
X2.830Y-4.105
X2.830Y-4.205
X2.830Y-4.305
X2.830Y-4.405
X5.160Y-3.405
X5.160Y-3.505
X5.160Y-3.605
X5.160Y-3.705
X5.160Y-4.055
X5.160Y-4.155
X5.160Y-4.255
X5.160Y-4.355
X5.260Y-3.455
X5.260Y-3.555
X5.260Y-3.655
X5.260Y-3.755
X5.260Y-4.105
X5.260Y-4.205
X5.260Y-4.305
X5.260Y-4.405
X7.590Y-3.405
X7.590Y-3.505
X7.590Y-3.605
X7.590Y-3.705
X7.590Y-4.055
X7.590Y-4.155
X7.590Y-4.255
X7.590Y-4.355
X7.690Y-3.455
X7.690Y-3.555
X7.690Y-3.655
X7.690Y-3.755
X7.690Y-4.105
X7.690Y-4.205
X7.690Y-4.305
X7.690Y-4.405
T6
X2.380Y-5.100
X2.380Y-5.200
X2.380Y-5.300
X2.920Y-1.720
X2.920Y-1.820
X2.920Y-1.920
X4.250Y-5.100
X4.250Y-5.200
X4.250Y-5.300
X5.350Y-1.720
X5.350Y-1.820
X5.350Y-1.920
X6.290Y-5.100
X6.290Y-5.200
X6.290Y-5.300
X7.780Y-1.720
X7.780Y-1.820
X7.780Y-1.920
X8.180Y-5.100
X8.180Y-5.200
X8.180Y-5.300
T7
X2.260Y-1.640
X2.260Y-2.700
X2.260Y-4.650
X2.460Y-2.780
X2.460Y-2.990
X2.500Y-1.640
X2.670Y-2.810
X3.090Y-3.400
X3.090Y-3.700
X3.090Y-4.000
X3.090Y-4.300
X3.090Y-4.600
X3.760Y-4.300
X3.760Y-4.600
X3.770Y-3.400
X3.770Y-3.700
X3.770Y-4.000
X4.370Y-1.840
X4.370Y-2.080
X4.370Y-2.320
X4.370Y-2.620
X4.370Y-2.920
X4.380Y-1.640
X4.380Y-4.650
X4.690Y-1.640
X4.690Y-2.700
X4.690Y-4.650
X4.890Y-2.780
X4.890Y-2.990
X4.930Y-1.640
X5.100Y-2.810
X5.520Y-3.400
X5.520Y-3.700
X5.520Y-4.000
X5.520Y-4.300
X5.520Y-4.600
X6.190Y-4.300
X6.190Y-4.600
X6.200Y-3.400
X6.200Y-3.700
X6.200Y-4.000
X6.800Y-1.840
X6.800Y-2.080
X6.800Y-2.320
X6.800Y-2.620
X6.800Y-2.920
X6.810Y-1.640
X6.810Y-4.650
X7.120Y-1.640
X7.120Y-2.700
X7.120Y-4.650
X7.320Y-2.780
X7.320Y-2.990
X7.360Y-1.640
X7.530Y-2.810
X7.950Y-3.400
X7.950Y-3.700
X7.950Y-4.000
X7.950Y-4.300
X7.950Y-4.600
X8.620Y-4.300
X8.620Y-4.600
X8.630Y-3.400
X8.630Y-3.700
X8.630Y-4.000
X9.230Y-1.840
X9.230Y-2.080
X9.230Y-2.320
X9.230Y-2.620
X9.230Y-2.920
X9.240Y-1.640
X9.240Y-4.650
T8
X2.480Y-3.347
X2.480Y-3.814
X2.480Y-3.997
X2.480Y-4.464
X4.910Y-3.347
X4.910Y-3.814
X4.910Y-3.997
X4.910Y-4.464
X7.340Y-3.347
X7.340Y-3.814
X7.340Y-3.997
X7.340Y-4.464
T5
X2.480Y-1.900G85X2.480Y-1.960
G05
X2.480Y-2.370G85X2.480Y-2.430
G05
X2.540Y-2.130G85X2.600Y-2.130
G05
X2.540Y-2.600G85X2.600Y-2.600
G05
X2.720Y-1.900G85X2.720Y-1.960
G05
X2.720Y-2.370G85X2.720Y-2.430
G05
X4.910Y-1.900G85X4.910Y-1.960
G05
X4.910Y-2.370G85X4.910Y-2.430
G05
X4.970Y-2.130G85X5.030Y-2.130
G05
X4.970Y-2.600G85X5.030Y-2.600
G05
X5.150Y-1.900G85X5.150Y-1.960
G05
X5.150Y-2.370G85X5.150Y-2.430
G05
X7.340Y-1.900G85X7.340Y-1.960
G05
X7.340Y-2.370G85X7.340Y-2.430
G05
X7.400Y-2.130G85X7.460Y-2.130
G05
X7.400Y-2.600G85X7.460Y-2.600
G05
X7.580Y-1.900G85X7.580Y-1.960
G05
X7.580Y-2.370G85X7.580Y-2.430
G05
T0
M30
