G04 (created by PCBNEW-RS274X (2011-07-08)-stable) date Sun 14 Aug 2011 04:05:59 PM EDT*
G01*
G70*
G90*
%MOIN*%
G04 Gerber Fmt 3.4, Leading zero omitted, Abs format*
%FSLAX34Y34*%
G04 APERTURE LIST*
%ADD10C,0.006000*%
%ADD11R,0.075000X0.075000*%
%ADD12R,0.090900X0.082900*%
%ADD13R,0.111000X0.039000*%
%ADD14R,0.118000X0.099000*%
%ADD15C,0.070000*%
%ADD16R,0.070000X0.036000*%
%ADD17R,0.106600X0.043600*%
%ADD18C,0.163700*%
%ADD19R,0.079100X0.079100*%
%ADD20C,0.079100*%
G04 APERTURE END LIST*
G54D10*
G54D11*
X84900Y-55800D03*
X84900Y-52500D03*
G54D12*
X83400Y-55559D03*
X83400Y-54441D03*
G54D13*
X75015Y-53890D03*
X75015Y-53580D03*
X75015Y-54200D03*
X75015Y-54510D03*
G54D14*
X77220Y-55950D03*
X75050Y-55950D03*
X75050Y-52450D03*
X77220Y-52450D03*
G54D13*
X75015Y-54820D03*
G54D15*
X76030Y-55065D03*
X76030Y-53335D03*
G54D16*
X79400Y-52350D03*
X79400Y-52600D03*
X79400Y-52860D03*
X79400Y-53120D03*
X79400Y-53370D03*
X79400Y-53630D03*
X79400Y-53890D03*
X79400Y-54140D03*
X79400Y-54400D03*
X79400Y-54650D03*
X79400Y-54910D03*
X79400Y-55170D03*
X79400Y-55420D03*
X79400Y-55680D03*
X82200Y-55680D03*
X82200Y-55420D03*
X82200Y-55180D03*
X82200Y-54910D03*
X82200Y-54650D03*
X82200Y-54400D03*
X82200Y-54140D03*
X82200Y-53890D03*
X82200Y-53630D03*
X82200Y-53370D03*
X82200Y-53120D03*
X82200Y-52860D03*
X82200Y-52600D03*
X82200Y-52350D03*
G54D17*
X84876Y-53450D03*
X84876Y-53950D03*
X84876Y-54450D03*
X84876Y-54950D03*
X86923Y-54950D03*
X86923Y-54450D03*
X86923Y-53950D03*
X86923Y-53450D03*
G54D11*
X86900Y-55800D03*
X86900Y-52500D03*
G54D18*
X75262Y-47700D03*
X79935Y-47700D03*
G54D19*
X79350Y-50200D03*
G54D20*
X78850Y-51200D03*
X78350Y-50200D03*
X77850Y-51200D03*
X77350Y-50200D03*
X76850Y-51200D03*
X76350Y-50200D03*
X75850Y-51200D03*
G54D18*
X82162Y-47700D03*
X86835Y-47700D03*
G54D19*
X86250Y-50200D03*
G54D20*
X85750Y-51200D03*
X85250Y-50200D03*
X84750Y-51200D03*
X84250Y-50200D03*
X83750Y-51200D03*
X83250Y-50200D03*
X82750Y-51200D03*
G54D12*
X83400Y-52441D03*
X83400Y-53559D03*
G54D11*
X55900Y-55800D03*
X55900Y-52500D03*
G54D12*
X54400Y-55559D03*
X54400Y-54441D03*
G54D13*
X46015Y-53890D03*
X46015Y-53580D03*
X46015Y-54200D03*
X46015Y-54510D03*
G54D14*
X48220Y-55950D03*
X46050Y-55950D03*
X46050Y-52450D03*
X48220Y-52450D03*
G54D13*
X46015Y-54820D03*
G54D15*
X47030Y-55065D03*
X47030Y-53335D03*
G54D16*
X50400Y-52350D03*
X50400Y-52600D03*
X50400Y-52860D03*
X50400Y-53120D03*
X50400Y-53370D03*
X50400Y-53630D03*
X50400Y-53890D03*
X50400Y-54140D03*
X50400Y-54400D03*
X50400Y-54650D03*
X50400Y-54910D03*
X50400Y-55170D03*
X50400Y-55420D03*
X50400Y-55680D03*
X53200Y-55680D03*
X53200Y-55420D03*
X53200Y-55180D03*
X53200Y-54910D03*
X53200Y-54650D03*
X53200Y-54400D03*
X53200Y-54140D03*
X53200Y-53890D03*
X53200Y-53630D03*
X53200Y-53370D03*
X53200Y-53120D03*
X53200Y-52860D03*
X53200Y-52600D03*
X53200Y-52350D03*
G54D17*
X55876Y-53450D03*
X55876Y-53950D03*
X55876Y-54450D03*
X55876Y-54950D03*
X57923Y-54950D03*
X57923Y-54450D03*
X57923Y-53950D03*
X57923Y-53450D03*
G54D11*
X57900Y-55800D03*
X57900Y-52500D03*
G54D18*
X46262Y-47700D03*
X50935Y-47700D03*
G54D19*
X50350Y-50200D03*
G54D20*
X49850Y-51200D03*
X49350Y-50200D03*
X48850Y-51200D03*
X48350Y-50200D03*
X47850Y-51200D03*
X47350Y-50200D03*
X46850Y-51200D03*
G54D18*
X53162Y-47700D03*
X57835Y-47700D03*
G54D19*
X57250Y-50200D03*
G54D20*
X56750Y-51200D03*
X56250Y-50200D03*
X55750Y-51200D03*
X55250Y-50200D03*
X54750Y-51200D03*
X54250Y-50200D03*
X53750Y-51200D03*
G54D12*
X54400Y-52441D03*
X54400Y-53559D03*
X68900Y-52441D03*
X68900Y-53559D03*
G54D18*
X67662Y-47700D03*
X72335Y-47700D03*
G54D19*
X71750Y-50200D03*
G54D20*
X71250Y-51200D03*
X70750Y-50200D03*
X70250Y-51200D03*
X69750Y-50200D03*
X69250Y-51200D03*
X68750Y-50200D03*
X68250Y-51200D03*
G54D18*
X60762Y-47700D03*
X65435Y-47700D03*
G54D19*
X64850Y-50200D03*
G54D20*
X64350Y-51200D03*
X63850Y-50200D03*
X63350Y-51200D03*
X62850Y-50200D03*
X62350Y-51200D03*
X61850Y-50200D03*
X61350Y-51200D03*
G54D11*
X72400Y-52500D03*
X72400Y-55800D03*
G54D17*
X70376Y-53450D03*
X70376Y-53950D03*
X70376Y-54450D03*
X70376Y-54950D03*
X72423Y-54950D03*
X72423Y-54450D03*
X72423Y-53950D03*
X72423Y-53450D03*
G54D16*
X64900Y-52350D03*
X64900Y-52600D03*
X64900Y-52860D03*
X64900Y-53120D03*
X64900Y-53370D03*
X64900Y-53630D03*
X64900Y-53890D03*
X64900Y-54140D03*
X64900Y-54400D03*
X64900Y-54650D03*
X64900Y-54910D03*
X64900Y-55170D03*
X64900Y-55420D03*
X64900Y-55680D03*
X67700Y-55680D03*
X67700Y-55420D03*
X67700Y-55180D03*
X67700Y-54910D03*
X67700Y-54650D03*
X67700Y-54400D03*
X67700Y-54140D03*
X67700Y-53890D03*
X67700Y-53630D03*
X67700Y-53370D03*
X67700Y-53120D03*
X67700Y-52860D03*
X67700Y-52600D03*
X67700Y-52350D03*
G54D13*
X60515Y-53890D03*
X60515Y-53580D03*
X60515Y-54200D03*
X60515Y-54510D03*
G54D14*
X62720Y-55950D03*
X60550Y-55950D03*
X60550Y-52450D03*
X62720Y-52450D03*
G54D13*
X60515Y-54820D03*
G54D15*
X61530Y-55065D03*
X61530Y-53335D03*
G54D12*
X68900Y-55559D03*
X68900Y-54441D03*
G54D11*
X70400Y-52500D03*
X70400Y-55800D03*
X41500Y-55800D03*
X41500Y-52500D03*
G54D12*
X40000Y-55559D03*
X40000Y-54441D03*
G54D13*
X31615Y-53890D03*
X31615Y-53580D03*
X31615Y-54200D03*
X31615Y-54510D03*
G54D14*
X33820Y-55950D03*
X31650Y-55950D03*
X31650Y-52450D03*
X33820Y-52450D03*
G54D13*
X31615Y-54820D03*
G54D15*
X32630Y-55065D03*
X32630Y-53335D03*
G54D16*
X36000Y-52350D03*
X36000Y-52600D03*
X36000Y-52860D03*
X36000Y-53120D03*
X36000Y-53370D03*
X36000Y-53630D03*
X36000Y-53890D03*
X36000Y-54140D03*
X36000Y-54400D03*
X36000Y-54650D03*
X36000Y-54910D03*
X36000Y-55170D03*
X36000Y-55420D03*
X36000Y-55680D03*
X38800Y-55680D03*
X38800Y-55420D03*
X38800Y-55180D03*
X38800Y-54910D03*
X38800Y-54650D03*
X38800Y-54400D03*
X38800Y-54140D03*
X38800Y-53890D03*
X38800Y-53630D03*
X38800Y-53370D03*
X38800Y-53120D03*
X38800Y-52860D03*
X38800Y-52600D03*
X38800Y-52350D03*
G54D17*
X41476Y-53450D03*
X41476Y-53950D03*
X41476Y-54450D03*
X41476Y-54950D03*
X43523Y-54950D03*
X43523Y-54450D03*
X43523Y-53950D03*
X43523Y-53450D03*
G54D11*
X43500Y-55800D03*
X43500Y-52500D03*
G54D18*
X31862Y-47700D03*
X36535Y-47700D03*
G54D19*
X35950Y-50200D03*
G54D20*
X35450Y-51200D03*
X34950Y-50200D03*
X34450Y-51200D03*
X33950Y-50200D03*
X33450Y-51200D03*
X32950Y-50200D03*
X32450Y-51200D03*
G54D18*
X38762Y-47700D03*
X43435Y-47700D03*
G54D19*
X42850Y-50200D03*
G54D20*
X42350Y-51200D03*
X41850Y-50200D03*
X41350Y-51200D03*
X40850Y-50200D03*
X40350Y-51200D03*
X39850Y-50200D03*
X39350Y-51200D03*
G54D12*
X40000Y-52441D03*
X40000Y-53559D03*
X25500Y-52441D03*
X25500Y-53559D03*
G54D18*
X24262Y-47700D03*
X28935Y-47700D03*
G54D19*
X28350Y-50200D03*
G54D20*
X27850Y-51200D03*
X27350Y-50200D03*
X26850Y-51200D03*
X26350Y-50200D03*
X25850Y-51200D03*
X25350Y-50200D03*
X24850Y-51200D03*
G54D18*
X17362Y-47700D03*
X22035Y-47700D03*
G54D19*
X21450Y-50200D03*
G54D20*
X20950Y-51200D03*
X20450Y-50200D03*
X19950Y-51200D03*
X19450Y-50200D03*
X18950Y-51200D03*
X18450Y-50200D03*
X17950Y-51200D03*
G54D11*
X29000Y-52500D03*
X29000Y-55800D03*
G54D17*
X26976Y-53450D03*
X26976Y-53950D03*
X26976Y-54450D03*
X26976Y-54950D03*
X29023Y-54950D03*
X29023Y-54450D03*
X29023Y-53950D03*
X29023Y-53450D03*
G54D16*
X21500Y-52350D03*
X21500Y-52600D03*
X21500Y-52860D03*
X21500Y-53120D03*
X21500Y-53370D03*
X21500Y-53630D03*
X21500Y-53890D03*
X21500Y-54140D03*
X21500Y-54400D03*
X21500Y-54650D03*
X21500Y-54910D03*
X21500Y-55170D03*
X21500Y-55420D03*
X21500Y-55680D03*
X24300Y-55680D03*
X24300Y-55420D03*
X24300Y-55180D03*
X24300Y-54910D03*
X24300Y-54650D03*
X24300Y-54400D03*
X24300Y-54140D03*
X24300Y-53890D03*
X24300Y-53630D03*
X24300Y-53370D03*
X24300Y-53120D03*
X24300Y-52860D03*
X24300Y-52600D03*
X24300Y-52350D03*
G54D13*
X17115Y-53890D03*
X17115Y-53580D03*
X17115Y-54200D03*
X17115Y-54510D03*
G54D14*
X19320Y-55950D03*
X17150Y-55950D03*
X17150Y-52450D03*
X19320Y-52450D03*
G54D13*
X17115Y-54820D03*
G54D15*
X18130Y-55065D03*
X18130Y-53335D03*
G54D12*
X25500Y-55559D03*
X25500Y-54441D03*
G54D11*
X27000Y-52500D03*
X27000Y-55800D03*
X27000Y-42800D03*
X27000Y-39500D03*
G54D12*
X25500Y-42559D03*
X25500Y-41441D03*
G54D13*
X17115Y-40890D03*
X17115Y-40580D03*
X17115Y-41200D03*
X17115Y-41510D03*
G54D14*
X19320Y-42950D03*
X17150Y-42950D03*
X17150Y-39450D03*
X19320Y-39450D03*
G54D13*
X17115Y-41820D03*
G54D15*
X18130Y-42065D03*
X18130Y-40335D03*
G54D16*
X21500Y-39350D03*
X21500Y-39600D03*
X21500Y-39860D03*
X21500Y-40120D03*
X21500Y-40370D03*
X21500Y-40630D03*
X21500Y-40890D03*
X21500Y-41140D03*
X21500Y-41400D03*
X21500Y-41650D03*
X21500Y-41910D03*
X21500Y-42170D03*
X21500Y-42420D03*
X21500Y-42680D03*
X24300Y-42680D03*
X24300Y-42420D03*
X24300Y-42180D03*
X24300Y-41910D03*
X24300Y-41650D03*
X24300Y-41400D03*
X24300Y-41140D03*
X24300Y-40890D03*
X24300Y-40630D03*
X24300Y-40370D03*
X24300Y-40120D03*
X24300Y-39860D03*
X24300Y-39600D03*
X24300Y-39350D03*
G54D17*
X26976Y-40450D03*
X26976Y-40950D03*
X26976Y-41450D03*
X26976Y-41950D03*
X29023Y-41950D03*
X29023Y-41450D03*
X29023Y-40950D03*
X29023Y-40450D03*
G54D11*
X29000Y-42800D03*
X29000Y-39500D03*
G54D18*
X17362Y-34700D03*
X22035Y-34700D03*
G54D19*
X21450Y-37200D03*
G54D20*
X20950Y-38200D03*
X20450Y-37200D03*
X19950Y-38200D03*
X19450Y-37200D03*
X18950Y-38200D03*
X18450Y-37200D03*
X17950Y-38200D03*
G54D18*
X24262Y-34700D03*
X28935Y-34700D03*
G54D19*
X28350Y-37200D03*
G54D20*
X27850Y-38200D03*
X27350Y-37200D03*
X26850Y-38200D03*
X26350Y-37200D03*
X25850Y-38200D03*
X25350Y-37200D03*
X24850Y-38200D03*
G54D12*
X25500Y-39441D03*
X25500Y-40559D03*
X40000Y-39441D03*
X40000Y-40559D03*
G54D18*
X38762Y-34700D03*
X43435Y-34700D03*
G54D19*
X42850Y-37200D03*
G54D20*
X42350Y-38200D03*
X41850Y-37200D03*
X41350Y-38200D03*
X40850Y-37200D03*
X40350Y-38200D03*
X39850Y-37200D03*
X39350Y-38200D03*
G54D18*
X31862Y-34700D03*
X36535Y-34700D03*
G54D19*
X35950Y-37200D03*
G54D20*
X35450Y-38200D03*
X34950Y-37200D03*
X34450Y-38200D03*
X33950Y-37200D03*
X33450Y-38200D03*
X32950Y-37200D03*
X32450Y-38200D03*
G54D11*
X43500Y-39500D03*
X43500Y-42800D03*
G54D17*
X41476Y-40450D03*
X41476Y-40950D03*
X41476Y-41450D03*
X41476Y-41950D03*
X43523Y-41950D03*
X43523Y-41450D03*
X43523Y-40950D03*
X43523Y-40450D03*
G54D16*
X36000Y-39350D03*
X36000Y-39600D03*
X36000Y-39860D03*
X36000Y-40120D03*
X36000Y-40370D03*
X36000Y-40630D03*
X36000Y-40890D03*
X36000Y-41140D03*
X36000Y-41400D03*
X36000Y-41650D03*
X36000Y-41910D03*
X36000Y-42170D03*
X36000Y-42420D03*
X36000Y-42680D03*
X38800Y-42680D03*
X38800Y-42420D03*
X38800Y-42180D03*
X38800Y-41910D03*
X38800Y-41650D03*
X38800Y-41400D03*
X38800Y-41140D03*
X38800Y-40890D03*
X38800Y-40630D03*
X38800Y-40370D03*
X38800Y-40120D03*
X38800Y-39860D03*
X38800Y-39600D03*
X38800Y-39350D03*
G54D13*
X31615Y-40890D03*
X31615Y-40580D03*
X31615Y-41200D03*
X31615Y-41510D03*
G54D14*
X33820Y-42950D03*
X31650Y-42950D03*
X31650Y-39450D03*
X33820Y-39450D03*
G54D13*
X31615Y-41820D03*
G54D15*
X32630Y-42065D03*
X32630Y-40335D03*
G54D12*
X40000Y-42559D03*
X40000Y-41441D03*
G54D11*
X41500Y-39500D03*
X41500Y-42800D03*
X70400Y-42800D03*
X70400Y-39500D03*
G54D12*
X68900Y-42559D03*
X68900Y-41441D03*
G54D13*
X60515Y-40890D03*
X60515Y-40580D03*
X60515Y-41200D03*
X60515Y-41510D03*
G54D14*
X62720Y-42950D03*
X60550Y-42950D03*
X60550Y-39450D03*
X62720Y-39450D03*
G54D13*
X60515Y-41820D03*
G54D15*
X61530Y-42065D03*
X61530Y-40335D03*
G54D16*
X64900Y-39350D03*
X64900Y-39600D03*
X64900Y-39860D03*
X64900Y-40120D03*
X64900Y-40370D03*
X64900Y-40630D03*
X64900Y-40890D03*
X64900Y-41140D03*
X64900Y-41400D03*
X64900Y-41650D03*
X64900Y-41910D03*
X64900Y-42170D03*
X64900Y-42420D03*
X64900Y-42680D03*
X67700Y-42680D03*
X67700Y-42420D03*
X67700Y-42180D03*
X67700Y-41910D03*
X67700Y-41650D03*
X67700Y-41400D03*
X67700Y-41140D03*
X67700Y-40890D03*
X67700Y-40630D03*
X67700Y-40370D03*
X67700Y-40120D03*
X67700Y-39860D03*
X67700Y-39600D03*
X67700Y-39350D03*
G54D17*
X70376Y-40450D03*
X70376Y-40950D03*
X70376Y-41450D03*
X70376Y-41950D03*
X72423Y-41950D03*
X72423Y-41450D03*
X72423Y-40950D03*
X72423Y-40450D03*
G54D11*
X72400Y-42800D03*
X72400Y-39500D03*
G54D18*
X60762Y-34700D03*
X65435Y-34700D03*
G54D19*
X64850Y-37200D03*
G54D20*
X64350Y-38200D03*
X63850Y-37200D03*
X63350Y-38200D03*
X62850Y-37200D03*
X62350Y-38200D03*
X61850Y-37200D03*
X61350Y-38200D03*
G54D18*
X67662Y-34700D03*
X72335Y-34700D03*
G54D19*
X71750Y-37200D03*
G54D20*
X71250Y-38200D03*
X70750Y-37200D03*
X70250Y-38200D03*
X69750Y-37200D03*
X69250Y-38200D03*
X68750Y-37200D03*
X68250Y-38200D03*
G54D12*
X68900Y-39441D03*
X68900Y-40559D03*
X54400Y-39441D03*
X54400Y-40559D03*
G54D18*
X53162Y-34700D03*
X57835Y-34700D03*
G54D19*
X57250Y-37200D03*
G54D20*
X56750Y-38200D03*
X56250Y-37200D03*
X55750Y-38200D03*
X55250Y-37200D03*
X54750Y-38200D03*
X54250Y-37200D03*
X53750Y-38200D03*
G54D18*
X46262Y-34700D03*
X50935Y-34700D03*
G54D19*
X50350Y-37200D03*
G54D20*
X49850Y-38200D03*
X49350Y-37200D03*
X48850Y-38200D03*
X48350Y-37200D03*
X47850Y-38200D03*
X47350Y-37200D03*
X46850Y-38200D03*
G54D11*
X57900Y-39500D03*
X57900Y-42800D03*
G54D17*
X55876Y-40450D03*
X55876Y-40950D03*
X55876Y-41450D03*
X55876Y-41950D03*
X57923Y-41950D03*
X57923Y-41450D03*
X57923Y-40950D03*
X57923Y-40450D03*
G54D16*
X50400Y-39350D03*
X50400Y-39600D03*
X50400Y-39860D03*
X50400Y-40120D03*
X50400Y-40370D03*
X50400Y-40630D03*
X50400Y-40890D03*
X50400Y-41140D03*
X50400Y-41400D03*
X50400Y-41650D03*
X50400Y-41910D03*
X50400Y-42170D03*
X50400Y-42420D03*
X50400Y-42680D03*
X53200Y-42680D03*
X53200Y-42420D03*
X53200Y-42180D03*
X53200Y-41910D03*
X53200Y-41650D03*
X53200Y-41400D03*
X53200Y-41140D03*
X53200Y-40890D03*
X53200Y-40630D03*
X53200Y-40370D03*
X53200Y-40120D03*
X53200Y-39860D03*
X53200Y-39600D03*
X53200Y-39350D03*
G54D13*
X46015Y-40890D03*
X46015Y-40580D03*
X46015Y-41200D03*
X46015Y-41510D03*
G54D14*
X48220Y-42950D03*
X46050Y-42950D03*
X46050Y-39450D03*
X48220Y-39450D03*
G54D13*
X46015Y-41820D03*
G54D15*
X47030Y-42065D03*
X47030Y-40335D03*
G54D12*
X54400Y-42559D03*
X54400Y-41441D03*
G54D11*
X55900Y-39500D03*
X55900Y-42800D03*
G54D12*
X83400Y-39441D03*
X83400Y-40559D03*
G54D18*
X82162Y-34700D03*
X86835Y-34700D03*
G54D19*
X86250Y-37200D03*
G54D20*
X85750Y-38200D03*
X85250Y-37200D03*
X84750Y-38200D03*
X84250Y-37200D03*
X83750Y-38200D03*
X83250Y-37200D03*
X82750Y-38200D03*
G54D18*
X75262Y-34700D03*
X79935Y-34700D03*
G54D19*
X79350Y-37200D03*
G54D20*
X78850Y-38200D03*
X78350Y-37200D03*
X77850Y-38200D03*
X77350Y-37200D03*
X76850Y-38200D03*
X76350Y-37200D03*
X75850Y-38200D03*
G54D11*
X86900Y-39500D03*
X86900Y-42800D03*
G54D17*
X84876Y-40450D03*
X84876Y-40950D03*
X84876Y-41450D03*
X84876Y-41950D03*
X86923Y-41950D03*
X86923Y-41450D03*
X86923Y-40950D03*
X86923Y-40450D03*
G54D16*
X79400Y-39350D03*
X79400Y-39600D03*
X79400Y-39860D03*
X79400Y-40120D03*
X79400Y-40370D03*
X79400Y-40630D03*
X79400Y-40890D03*
X79400Y-41140D03*
X79400Y-41400D03*
X79400Y-41650D03*
X79400Y-41910D03*
X79400Y-42170D03*
X79400Y-42420D03*
X79400Y-42680D03*
X82200Y-42680D03*
X82200Y-42420D03*
X82200Y-42180D03*
X82200Y-41910D03*
X82200Y-41650D03*
X82200Y-41400D03*
X82200Y-41140D03*
X82200Y-40890D03*
X82200Y-40630D03*
X82200Y-40370D03*
X82200Y-40120D03*
X82200Y-39860D03*
X82200Y-39600D03*
X82200Y-39350D03*
G54D13*
X75015Y-40890D03*
X75015Y-40580D03*
X75015Y-41200D03*
X75015Y-41510D03*
G54D14*
X77220Y-42950D03*
X75050Y-42950D03*
X75050Y-39450D03*
X77220Y-39450D03*
G54D13*
X75015Y-41820D03*
G54D15*
X76030Y-42065D03*
X76030Y-40335D03*
G54D12*
X83400Y-42559D03*
X83400Y-41441D03*
G54D11*
X84900Y-39500D03*
X84900Y-42800D03*
X84900Y-29800D03*
X84900Y-26500D03*
G54D12*
X83400Y-29559D03*
X83400Y-28441D03*
G54D13*
X75015Y-27890D03*
X75015Y-27580D03*
X75015Y-28200D03*
X75015Y-28510D03*
G54D14*
X77220Y-29950D03*
X75050Y-29950D03*
X75050Y-26450D03*
X77220Y-26450D03*
G54D13*
X75015Y-28820D03*
G54D15*
X76030Y-29065D03*
X76030Y-27335D03*
G54D16*
X79400Y-26350D03*
X79400Y-26600D03*
X79400Y-26860D03*
X79400Y-27120D03*
X79400Y-27370D03*
X79400Y-27630D03*
X79400Y-27890D03*
X79400Y-28140D03*
X79400Y-28400D03*
X79400Y-28650D03*
X79400Y-28910D03*
X79400Y-29170D03*
X79400Y-29420D03*
X79400Y-29680D03*
X82200Y-29680D03*
X82200Y-29420D03*
X82200Y-29180D03*
X82200Y-28910D03*
X82200Y-28650D03*
X82200Y-28400D03*
X82200Y-28140D03*
X82200Y-27890D03*
X82200Y-27630D03*
X82200Y-27370D03*
X82200Y-27120D03*
X82200Y-26860D03*
X82200Y-26600D03*
X82200Y-26350D03*
G54D17*
X84876Y-27450D03*
X84876Y-27950D03*
X84876Y-28450D03*
X84876Y-28950D03*
X86923Y-28950D03*
X86923Y-28450D03*
X86923Y-27950D03*
X86923Y-27450D03*
G54D11*
X86900Y-29800D03*
X86900Y-26500D03*
G54D18*
X75262Y-21700D03*
X79935Y-21700D03*
G54D19*
X79350Y-24200D03*
G54D20*
X78850Y-25200D03*
X78350Y-24200D03*
X77850Y-25200D03*
X77350Y-24200D03*
X76850Y-25200D03*
X76350Y-24200D03*
X75850Y-25200D03*
G54D18*
X82162Y-21700D03*
X86835Y-21700D03*
G54D19*
X86250Y-24200D03*
G54D20*
X85750Y-25200D03*
X85250Y-24200D03*
X84750Y-25200D03*
X84250Y-24200D03*
X83750Y-25200D03*
X83250Y-24200D03*
X82750Y-25200D03*
G54D12*
X83400Y-26441D03*
X83400Y-27559D03*
G54D11*
X55900Y-29800D03*
X55900Y-26500D03*
G54D12*
X54400Y-29559D03*
X54400Y-28441D03*
G54D13*
X46015Y-27890D03*
X46015Y-27580D03*
X46015Y-28200D03*
X46015Y-28510D03*
G54D14*
X48220Y-29950D03*
X46050Y-29950D03*
X46050Y-26450D03*
X48220Y-26450D03*
G54D13*
X46015Y-28820D03*
G54D15*
X47030Y-29065D03*
X47030Y-27335D03*
G54D16*
X50400Y-26350D03*
X50400Y-26600D03*
X50400Y-26860D03*
X50400Y-27120D03*
X50400Y-27370D03*
X50400Y-27630D03*
X50400Y-27890D03*
X50400Y-28140D03*
X50400Y-28400D03*
X50400Y-28650D03*
X50400Y-28910D03*
X50400Y-29170D03*
X50400Y-29420D03*
X50400Y-29680D03*
X53200Y-29680D03*
X53200Y-29420D03*
X53200Y-29180D03*
X53200Y-28910D03*
X53200Y-28650D03*
X53200Y-28400D03*
X53200Y-28140D03*
X53200Y-27890D03*
X53200Y-27630D03*
X53200Y-27370D03*
X53200Y-27120D03*
X53200Y-26860D03*
X53200Y-26600D03*
X53200Y-26350D03*
G54D17*
X55876Y-27450D03*
X55876Y-27950D03*
X55876Y-28450D03*
X55876Y-28950D03*
X57923Y-28950D03*
X57923Y-28450D03*
X57923Y-27950D03*
X57923Y-27450D03*
G54D11*
X57900Y-29800D03*
X57900Y-26500D03*
G54D18*
X46262Y-21700D03*
X50935Y-21700D03*
G54D19*
X50350Y-24200D03*
G54D20*
X49850Y-25200D03*
X49350Y-24200D03*
X48850Y-25200D03*
X48350Y-24200D03*
X47850Y-25200D03*
X47350Y-24200D03*
X46850Y-25200D03*
G54D18*
X53162Y-21700D03*
X57835Y-21700D03*
G54D19*
X57250Y-24200D03*
G54D20*
X56750Y-25200D03*
X56250Y-24200D03*
X55750Y-25200D03*
X55250Y-24200D03*
X54750Y-25200D03*
X54250Y-24200D03*
X53750Y-25200D03*
G54D12*
X54400Y-26441D03*
X54400Y-27559D03*
X68900Y-26441D03*
X68900Y-27559D03*
G54D18*
X67662Y-21700D03*
X72335Y-21700D03*
G54D19*
X71750Y-24200D03*
G54D20*
X71250Y-25200D03*
X70750Y-24200D03*
X70250Y-25200D03*
X69750Y-24200D03*
X69250Y-25200D03*
X68750Y-24200D03*
X68250Y-25200D03*
G54D18*
X60762Y-21700D03*
X65435Y-21700D03*
G54D19*
X64850Y-24200D03*
G54D20*
X64350Y-25200D03*
X63850Y-24200D03*
X63350Y-25200D03*
X62850Y-24200D03*
X62350Y-25200D03*
X61850Y-24200D03*
X61350Y-25200D03*
G54D11*
X72400Y-26500D03*
X72400Y-29800D03*
G54D17*
X70376Y-27450D03*
X70376Y-27950D03*
X70376Y-28450D03*
X70376Y-28950D03*
X72423Y-28950D03*
X72423Y-28450D03*
X72423Y-27950D03*
X72423Y-27450D03*
G54D16*
X64900Y-26350D03*
X64900Y-26600D03*
X64900Y-26860D03*
X64900Y-27120D03*
X64900Y-27370D03*
X64900Y-27630D03*
X64900Y-27890D03*
X64900Y-28140D03*
X64900Y-28400D03*
X64900Y-28650D03*
X64900Y-28910D03*
X64900Y-29170D03*
X64900Y-29420D03*
X64900Y-29680D03*
X67700Y-29680D03*
X67700Y-29420D03*
X67700Y-29180D03*
X67700Y-28910D03*
X67700Y-28650D03*
X67700Y-28400D03*
X67700Y-28140D03*
X67700Y-27890D03*
X67700Y-27630D03*
X67700Y-27370D03*
X67700Y-27120D03*
X67700Y-26860D03*
X67700Y-26600D03*
X67700Y-26350D03*
G54D13*
X60515Y-27890D03*
X60515Y-27580D03*
X60515Y-28200D03*
X60515Y-28510D03*
G54D14*
X62720Y-29950D03*
X60550Y-29950D03*
X60550Y-26450D03*
X62720Y-26450D03*
G54D13*
X60515Y-28820D03*
G54D15*
X61530Y-29065D03*
X61530Y-27335D03*
G54D12*
X68900Y-29559D03*
X68900Y-28441D03*
G54D11*
X70400Y-26500D03*
X70400Y-29800D03*
X41500Y-29800D03*
X41500Y-26500D03*
G54D12*
X40000Y-29559D03*
X40000Y-28441D03*
G54D13*
X31615Y-27890D03*
X31615Y-27580D03*
X31615Y-28200D03*
X31615Y-28510D03*
G54D14*
X33820Y-29950D03*
X31650Y-29950D03*
X31650Y-26450D03*
X33820Y-26450D03*
G54D13*
X31615Y-28820D03*
G54D15*
X32630Y-29065D03*
X32630Y-27335D03*
G54D16*
X36000Y-26350D03*
X36000Y-26600D03*
X36000Y-26860D03*
X36000Y-27120D03*
X36000Y-27370D03*
X36000Y-27630D03*
X36000Y-27890D03*
X36000Y-28140D03*
X36000Y-28400D03*
X36000Y-28650D03*
X36000Y-28910D03*
X36000Y-29170D03*
X36000Y-29420D03*
X36000Y-29680D03*
X38800Y-29680D03*
X38800Y-29420D03*
X38800Y-29180D03*
X38800Y-28910D03*
X38800Y-28650D03*
X38800Y-28400D03*
X38800Y-28140D03*
X38800Y-27890D03*
X38800Y-27630D03*
X38800Y-27370D03*
X38800Y-27120D03*
X38800Y-26860D03*
X38800Y-26600D03*
X38800Y-26350D03*
G54D17*
X41476Y-27450D03*
X41476Y-27950D03*
X41476Y-28450D03*
X41476Y-28950D03*
X43523Y-28950D03*
X43523Y-28450D03*
X43523Y-27950D03*
X43523Y-27450D03*
G54D11*
X43500Y-29800D03*
X43500Y-26500D03*
G54D18*
X31862Y-21700D03*
X36535Y-21700D03*
G54D19*
X35950Y-24200D03*
G54D20*
X35450Y-25200D03*
X34950Y-24200D03*
X34450Y-25200D03*
X33950Y-24200D03*
X33450Y-25200D03*
X32950Y-24200D03*
X32450Y-25200D03*
G54D18*
X38762Y-21700D03*
X43435Y-21700D03*
G54D19*
X42850Y-24200D03*
G54D20*
X42350Y-25200D03*
X41850Y-24200D03*
X41350Y-25200D03*
X40850Y-24200D03*
X40350Y-25200D03*
X39850Y-24200D03*
X39350Y-25200D03*
G54D12*
X40000Y-26441D03*
X40000Y-27559D03*
X25500Y-26441D03*
X25500Y-27559D03*
G54D18*
X24262Y-21700D03*
X28935Y-21700D03*
G54D19*
X28350Y-24200D03*
G54D20*
X27850Y-25200D03*
X27350Y-24200D03*
X26850Y-25200D03*
X26350Y-24200D03*
X25850Y-25200D03*
X25350Y-24200D03*
X24850Y-25200D03*
G54D18*
X17362Y-21700D03*
X22035Y-21700D03*
G54D19*
X21450Y-24200D03*
G54D20*
X20950Y-25200D03*
X20450Y-24200D03*
X19950Y-25200D03*
X19450Y-24200D03*
X18950Y-25200D03*
X18450Y-24200D03*
X17950Y-25200D03*
G54D11*
X29000Y-26500D03*
X29000Y-29800D03*
G54D17*
X26976Y-27450D03*
X26976Y-27950D03*
X26976Y-28450D03*
X26976Y-28950D03*
X29023Y-28950D03*
X29023Y-28450D03*
X29023Y-27950D03*
X29023Y-27450D03*
G54D16*
X21500Y-26350D03*
X21500Y-26600D03*
X21500Y-26860D03*
X21500Y-27120D03*
X21500Y-27370D03*
X21500Y-27630D03*
X21500Y-27890D03*
X21500Y-28140D03*
X21500Y-28400D03*
X21500Y-28650D03*
X21500Y-28910D03*
X21500Y-29170D03*
X21500Y-29420D03*
X21500Y-29680D03*
X24300Y-29680D03*
X24300Y-29420D03*
X24300Y-29180D03*
X24300Y-28910D03*
X24300Y-28650D03*
X24300Y-28400D03*
X24300Y-28140D03*
X24300Y-27890D03*
X24300Y-27630D03*
X24300Y-27370D03*
X24300Y-27120D03*
X24300Y-26860D03*
X24300Y-26600D03*
X24300Y-26350D03*
G54D13*
X17115Y-27890D03*
X17115Y-27580D03*
X17115Y-28200D03*
X17115Y-28510D03*
G54D14*
X19320Y-29950D03*
X17150Y-29950D03*
X17150Y-26450D03*
X19320Y-26450D03*
G54D13*
X17115Y-28820D03*
G54D15*
X18130Y-29065D03*
X18130Y-27335D03*
G54D12*
X25500Y-29559D03*
X25500Y-28441D03*
G54D11*
X27000Y-26500D03*
X27000Y-29800D03*
M02*
