G04 (created by PCBNEW-RS274X (2011-07-08)-stable) date Sun 14 Aug 2011 04:05:59 PM EDT*
G01*
G70*
G90*
%MOIN*%
G04 Gerber Fmt 3.4, Leading zero omitted, Abs format*
%FSLAX34Y34*%
G04 APERTURE LIST*
%ADD10C,0.006000*%
%ADD11R,0.025000X0.045000*%
%ADD12R,0.055000X0.035000*%
%ADD13R,0.080000X0.060000*%
%ADD14R,0.060000X0.080000*%
%ADD15R,0.062900X0.070900*%
G04 APERTURE END LIST*
G54D10*
G54D11*
X75900Y-55800D03*
X76500Y-55800D03*
G54D12*
X87100Y-51375D03*
X87100Y-50625D03*
G54D13*
X77200Y-54850D03*
X77200Y-53550D03*
G54D14*
X86950Y-53600D03*
X85650Y-53600D03*
G54D12*
X78200Y-54575D03*
X78200Y-53825D03*
X81400Y-55375D03*
X81400Y-54625D03*
X80200Y-53525D03*
X80200Y-54275D03*
X83400Y-53375D03*
X83400Y-52625D03*
X83400Y-54625D03*
X83400Y-55375D03*
G54D15*
X80241Y-52800D03*
X81359Y-52800D03*
G54D11*
X46900Y-55800D03*
X47500Y-55800D03*
G54D12*
X58100Y-51375D03*
X58100Y-50625D03*
G54D13*
X48200Y-54850D03*
X48200Y-53550D03*
G54D14*
X57950Y-53600D03*
X56650Y-53600D03*
G54D12*
X49200Y-54575D03*
X49200Y-53825D03*
X52400Y-55375D03*
X52400Y-54625D03*
X51200Y-53525D03*
X51200Y-54275D03*
X54400Y-53375D03*
X54400Y-52625D03*
X54400Y-54625D03*
X54400Y-55375D03*
G54D15*
X51241Y-52800D03*
X52359Y-52800D03*
X65741Y-52800D03*
X66859Y-52800D03*
G54D12*
X68900Y-54625D03*
X68900Y-55375D03*
X68900Y-53375D03*
X68900Y-52625D03*
X65700Y-53525D03*
X65700Y-54275D03*
X66900Y-55375D03*
X66900Y-54625D03*
X63700Y-54575D03*
X63700Y-53825D03*
G54D14*
X72450Y-53600D03*
X71150Y-53600D03*
G54D13*
X62700Y-54850D03*
X62700Y-53550D03*
G54D12*
X72600Y-51375D03*
X72600Y-50625D03*
G54D11*
X61400Y-55800D03*
X62000Y-55800D03*
X32500Y-55800D03*
X33100Y-55800D03*
G54D12*
X43700Y-51375D03*
X43700Y-50625D03*
G54D13*
X33800Y-54850D03*
X33800Y-53550D03*
G54D14*
X43550Y-53600D03*
X42250Y-53600D03*
G54D12*
X34800Y-54575D03*
X34800Y-53825D03*
X38000Y-55375D03*
X38000Y-54625D03*
X36800Y-53525D03*
X36800Y-54275D03*
X40000Y-53375D03*
X40000Y-52625D03*
X40000Y-54625D03*
X40000Y-55375D03*
G54D15*
X36841Y-52800D03*
X37959Y-52800D03*
X22341Y-52800D03*
X23459Y-52800D03*
G54D12*
X25500Y-54625D03*
X25500Y-55375D03*
X25500Y-53375D03*
X25500Y-52625D03*
X22300Y-53525D03*
X22300Y-54275D03*
X23500Y-55375D03*
X23500Y-54625D03*
X20300Y-54575D03*
X20300Y-53825D03*
G54D14*
X29050Y-53600D03*
X27750Y-53600D03*
G54D13*
X19300Y-54850D03*
X19300Y-53550D03*
G54D12*
X29200Y-51375D03*
X29200Y-50625D03*
G54D11*
X18000Y-55800D03*
X18600Y-55800D03*
X18000Y-42800D03*
X18600Y-42800D03*
G54D12*
X29200Y-38375D03*
X29200Y-37625D03*
G54D13*
X19300Y-41850D03*
X19300Y-40550D03*
G54D14*
X29050Y-40600D03*
X27750Y-40600D03*
G54D12*
X20300Y-41575D03*
X20300Y-40825D03*
X23500Y-42375D03*
X23500Y-41625D03*
X22300Y-40525D03*
X22300Y-41275D03*
X25500Y-40375D03*
X25500Y-39625D03*
X25500Y-41625D03*
X25500Y-42375D03*
G54D15*
X22341Y-39800D03*
X23459Y-39800D03*
X36841Y-39800D03*
X37959Y-39800D03*
G54D12*
X40000Y-41625D03*
X40000Y-42375D03*
X40000Y-40375D03*
X40000Y-39625D03*
X36800Y-40525D03*
X36800Y-41275D03*
X38000Y-42375D03*
X38000Y-41625D03*
X34800Y-41575D03*
X34800Y-40825D03*
G54D14*
X43550Y-40600D03*
X42250Y-40600D03*
G54D13*
X33800Y-41850D03*
X33800Y-40550D03*
G54D12*
X43700Y-38375D03*
X43700Y-37625D03*
G54D11*
X32500Y-42800D03*
X33100Y-42800D03*
X61400Y-42800D03*
X62000Y-42800D03*
G54D12*
X72600Y-38375D03*
X72600Y-37625D03*
G54D13*
X62700Y-41850D03*
X62700Y-40550D03*
G54D14*
X72450Y-40600D03*
X71150Y-40600D03*
G54D12*
X63700Y-41575D03*
X63700Y-40825D03*
X66900Y-42375D03*
X66900Y-41625D03*
X65700Y-40525D03*
X65700Y-41275D03*
X68900Y-40375D03*
X68900Y-39625D03*
X68900Y-41625D03*
X68900Y-42375D03*
G54D15*
X65741Y-39800D03*
X66859Y-39800D03*
X51241Y-39800D03*
X52359Y-39800D03*
G54D12*
X54400Y-41625D03*
X54400Y-42375D03*
X54400Y-40375D03*
X54400Y-39625D03*
X51200Y-40525D03*
X51200Y-41275D03*
X52400Y-42375D03*
X52400Y-41625D03*
X49200Y-41575D03*
X49200Y-40825D03*
G54D14*
X57950Y-40600D03*
X56650Y-40600D03*
G54D13*
X48200Y-41850D03*
X48200Y-40550D03*
G54D12*
X58100Y-38375D03*
X58100Y-37625D03*
G54D11*
X46900Y-42800D03*
X47500Y-42800D03*
G54D15*
X80241Y-39800D03*
X81359Y-39800D03*
G54D12*
X83400Y-41625D03*
X83400Y-42375D03*
X83400Y-40375D03*
X83400Y-39625D03*
X80200Y-40525D03*
X80200Y-41275D03*
X81400Y-42375D03*
X81400Y-41625D03*
X78200Y-41575D03*
X78200Y-40825D03*
G54D14*
X86950Y-40600D03*
X85650Y-40600D03*
G54D13*
X77200Y-41850D03*
X77200Y-40550D03*
G54D12*
X87100Y-38375D03*
X87100Y-37625D03*
G54D11*
X75900Y-42800D03*
X76500Y-42800D03*
X75900Y-29800D03*
X76500Y-29800D03*
G54D12*
X87100Y-25375D03*
X87100Y-24625D03*
G54D13*
X77200Y-28850D03*
X77200Y-27550D03*
G54D14*
X86950Y-27600D03*
X85650Y-27600D03*
G54D12*
X78200Y-28575D03*
X78200Y-27825D03*
X81400Y-29375D03*
X81400Y-28625D03*
X80200Y-27525D03*
X80200Y-28275D03*
X83400Y-27375D03*
X83400Y-26625D03*
X83400Y-28625D03*
X83400Y-29375D03*
G54D15*
X80241Y-26800D03*
X81359Y-26800D03*
G54D11*
X46900Y-29800D03*
X47500Y-29800D03*
G54D12*
X58100Y-25375D03*
X58100Y-24625D03*
G54D13*
X48200Y-28850D03*
X48200Y-27550D03*
G54D14*
X57950Y-27600D03*
X56650Y-27600D03*
G54D12*
X49200Y-28575D03*
X49200Y-27825D03*
X52400Y-29375D03*
X52400Y-28625D03*
X51200Y-27525D03*
X51200Y-28275D03*
X54400Y-27375D03*
X54400Y-26625D03*
X54400Y-28625D03*
X54400Y-29375D03*
G54D15*
X51241Y-26800D03*
X52359Y-26800D03*
X65741Y-26800D03*
X66859Y-26800D03*
G54D12*
X68900Y-28625D03*
X68900Y-29375D03*
X68900Y-27375D03*
X68900Y-26625D03*
X65700Y-27525D03*
X65700Y-28275D03*
X66900Y-29375D03*
X66900Y-28625D03*
X63700Y-28575D03*
X63700Y-27825D03*
G54D14*
X72450Y-27600D03*
X71150Y-27600D03*
G54D13*
X62700Y-28850D03*
X62700Y-27550D03*
G54D12*
X72600Y-25375D03*
X72600Y-24625D03*
G54D11*
X61400Y-29800D03*
X62000Y-29800D03*
X32500Y-29800D03*
X33100Y-29800D03*
G54D12*
X43700Y-25375D03*
X43700Y-24625D03*
G54D13*
X33800Y-28850D03*
X33800Y-27550D03*
G54D14*
X43550Y-27600D03*
X42250Y-27600D03*
G54D12*
X34800Y-28575D03*
X34800Y-27825D03*
X38000Y-29375D03*
X38000Y-28625D03*
X36800Y-27525D03*
X36800Y-28275D03*
X40000Y-27375D03*
X40000Y-26625D03*
X40000Y-28625D03*
X40000Y-29375D03*
G54D15*
X36841Y-26800D03*
X37959Y-26800D03*
X22341Y-26800D03*
X23459Y-26800D03*
G54D12*
X25500Y-28625D03*
X25500Y-29375D03*
X25500Y-27375D03*
X25500Y-26625D03*
X22300Y-27525D03*
X22300Y-28275D03*
X23500Y-29375D03*
X23500Y-28625D03*
X20300Y-28575D03*
X20300Y-27825D03*
G54D14*
X29050Y-27600D03*
X27750Y-27600D03*
G54D13*
X19300Y-28850D03*
X19300Y-27550D03*
G54D12*
X29200Y-25375D03*
X29200Y-24625D03*
G54D11*
X18000Y-29800D03*
X18600Y-29800D03*
M02*
