G04 (created by PCBNEW-RS274X (2011-07-08)-stable) date Thu 21 Jul 2011 05:41:28 PM EDT*
G01*
G70*
G90*
%MOIN*%
G04 Gerber Fmt 3.4, Leading zero omitted, Abs format*
%FSLAX34Y34*%
G04 APERTURE LIST*
%ADD10C,0.006000*%
%ADD11C,0.180000*%
%ADD12C,0.075000*%
%ADD13R,0.075000X0.075000*%
%ADD14C,0.079100*%
%ADD15C,0.209000*%
%ADD16R,0.209000X0.209000*%
%ADD17C,0.090000*%
%ADD18R,0.090000X0.090000*%
%ADD19C,0.163700*%
%ADD20R,0.079100X0.079100*%
%ADD21R,0.055000X0.075000*%
%ADD22R,0.075000X0.055000*%
%ADD23C,0.080000*%
%ADD24R,0.114500X0.106600*%
%ADD25R,0.082900X0.090900*%
%ADD26R,0.039700X0.039700*%
%ADD27R,0.098700X0.037700*%
%ADD28R,0.037700X0.098700*%
G04 APERTURE END LIST*
G54D10*
G54D11*
X26700Y-28100D03*
X24600Y-29900D03*
X24600Y-27800D03*
X22600Y-27000D03*
X30900Y-46000D03*
X30900Y-43000D03*
X30900Y-40000D03*
X30900Y-37000D03*
X30900Y-34000D03*
X37600Y-46000D03*
X37600Y-43000D03*
X37700Y-40000D03*
X37700Y-37000D03*
X37700Y-34000D03*
X43700Y-18400D03*
X43700Y-20800D03*
X43700Y-23200D03*
X43700Y-26200D03*
X43700Y-29200D03*
X25000Y-16400D03*
G54D12*
X27700Y-26700D03*
X27700Y-25700D03*
X32100Y-19200D03*
X32100Y-18200D03*
X30900Y-19200D03*
X30900Y-18200D03*
X28900Y-23500D03*
X28900Y-24500D03*
X28900Y-26700D03*
X28900Y-25700D03*
X29000Y-22000D03*
X29000Y-21000D03*
X27800Y-22000D03*
X27800Y-21000D03*
X33100Y-18200D03*
X33100Y-19200D03*
X33100Y-20200D03*
X33100Y-21200D03*
X33100Y-22200D03*
X33100Y-23200D03*
X33100Y-24200D03*
X33100Y-25200D03*
X33100Y-26200D03*
X33100Y-27200D03*
X33100Y-28200D03*
X33100Y-29200D03*
X33100Y-30200D03*
G54D13*
X33100Y-17200D03*
G54D12*
X36100Y-30200D03*
X36100Y-29200D03*
X36100Y-28200D03*
X36100Y-27200D03*
X36100Y-26200D03*
X36100Y-25200D03*
X36100Y-24200D03*
X36100Y-23200D03*
X36100Y-22200D03*
X36100Y-21200D03*
X36100Y-20200D03*
X36100Y-19200D03*
X36100Y-18200D03*
X36100Y-17200D03*
G54D14*
X31100Y-25700D03*
X31100Y-26700D03*
G54D15*
X24800Y-19300D03*
G54D16*
X27200Y-19300D03*
G54D15*
X25700Y-21300D03*
X24800Y-24000D03*
G54D16*
X27200Y-24000D03*
G54D15*
X25700Y-26000D03*
G54D17*
X29200Y-17200D03*
G54D18*
X29200Y-18200D03*
G54D17*
X29200Y-19200D03*
G54D19*
X24800Y-44638D03*
X24800Y-39965D03*
G54D20*
X27300Y-40550D03*
G54D14*
X28300Y-41050D03*
X27300Y-41550D03*
X28300Y-42050D03*
X27300Y-42550D03*
X28300Y-43050D03*
X27300Y-43550D03*
X28300Y-44050D03*
G54D19*
X24800Y-38138D03*
X24800Y-33465D03*
G54D20*
X27300Y-34050D03*
G54D14*
X28300Y-34550D03*
X27300Y-35050D03*
X28300Y-35550D03*
X27300Y-36050D03*
X28300Y-36550D03*
X27300Y-37050D03*
X28300Y-37550D03*
G54D13*
X37200Y-17200D03*
X37200Y-18200D03*
X37200Y-27200D03*
X34100Y-30200D03*
X32000Y-24000D03*
X40400Y-18800D03*
G54D21*
X28475Y-33200D03*
X27725Y-33200D03*
X37125Y-19200D03*
X37875Y-19200D03*
X37125Y-20300D03*
X37875Y-20300D03*
X37125Y-21300D03*
X37875Y-21300D03*
X37125Y-22200D03*
X37875Y-22200D03*
G54D22*
X40100Y-22425D03*
X40100Y-23175D03*
X41500Y-40275D03*
X41500Y-39525D03*
X34500Y-40375D03*
X34500Y-39625D03*
G54D21*
X22225Y-30500D03*
X22975Y-30500D03*
X34025Y-25000D03*
X34775Y-25000D03*
X34025Y-29200D03*
X34775Y-29200D03*
G54D13*
X31200Y-29000D03*
G54D12*
X30200Y-29000D03*
X29200Y-29000D03*
X28200Y-29000D03*
X28200Y-32000D03*
X29200Y-32000D03*
X30200Y-32000D03*
X31200Y-32000D03*
X32500Y-34000D03*
X32500Y-35000D03*
X32500Y-36000D03*
X32500Y-37000D03*
X32500Y-38000D03*
X32500Y-39000D03*
X32500Y-40000D03*
X32500Y-41000D03*
X32500Y-42000D03*
X32500Y-43000D03*
X32500Y-44000D03*
X32500Y-45000D03*
X32500Y-46000D03*
G54D13*
X32500Y-33000D03*
G54D12*
X35500Y-46000D03*
X35500Y-45000D03*
X35500Y-44000D03*
X35500Y-43000D03*
X35500Y-42000D03*
X35500Y-41000D03*
X35500Y-40000D03*
X35500Y-39000D03*
X35500Y-38000D03*
X35500Y-37000D03*
X35500Y-36000D03*
X35500Y-35000D03*
X35500Y-34000D03*
X35500Y-33000D03*
X39300Y-34000D03*
X39300Y-35000D03*
X39300Y-36000D03*
X39300Y-37000D03*
X39300Y-38000D03*
X39300Y-39000D03*
X39300Y-40000D03*
X39300Y-41000D03*
X39300Y-42000D03*
X39300Y-43000D03*
X39300Y-44000D03*
X39300Y-45000D03*
X39300Y-46000D03*
G54D13*
X39300Y-33000D03*
G54D12*
X42300Y-46000D03*
X42300Y-45000D03*
X42300Y-44000D03*
X42300Y-43000D03*
X42300Y-42000D03*
X42300Y-41000D03*
X42300Y-40000D03*
X42300Y-39000D03*
X42300Y-38000D03*
X42300Y-37000D03*
X42300Y-36000D03*
X42300Y-35000D03*
X42300Y-34000D03*
X42300Y-33000D03*
X42300Y-29200D03*
X42300Y-28200D03*
X42300Y-27200D03*
X42300Y-26200D03*
X42300Y-25200D03*
X42300Y-24200D03*
X42300Y-23200D03*
X42300Y-22200D03*
X42300Y-21200D03*
X42300Y-20200D03*
X42300Y-19200D03*
X42300Y-18200D03*
X42300Y-17200D03*
G54D13*
X42300Y-30200D03*
G54D12*
X39300Y-17200D03*
X39300Y-18200D03*
X39300Y-19200D03*
X39300Y-20200D03*
X39300Y-21200D03*
X39300Y-22200D03*
X39300Y-23200D03*
X39300Y-24200D03*
X39300Y-25200D03*
X39300Y-26200D03*
X39300Y-27200D03*
X39300Y-28200D03*
X39300Y-29200D03*
X39300Y-30200D03*
G54D11*
X43800Y-46500D03*
X22600Y-46500D03*
X43800Y-16400D03*
X22600Y-16400D03*
G54D23*
X22200Y-31400D03*
X22200Y-29400D03*
X23200Y-32000D03*
X23200Y-28800D03*
G54D24*
X34600Y-25860D03*
X34600Y-28340D03*
G54D11*
X75300Y-28100D03*
X73200Y-29900D03*
X73200Y-27800D03*
X71200Y-27000D03*
X79500Y-46000D03*
X79500Y-43000D03*
X79500Y-40000D03*
X79500Y-37000D03*
X79500Y-34000D03*
X86200Y-46000D03*
X86200Y-43000D03*
X86300Y-40000D03*
X86300Y-37000D03*
X86300Y-34000D03*
X92300Y-18400D03*
X92300Y-20800D03*
X92300Y-23200D03*
X92300Y-26200D03*
X92300Y-29200D03*
X73600Y-16400D03*
G54D12*
X76300Y-26700D03*
X76300Y-25700D03*
X80700Y-19200D03*
X80700Y-18200D03*
X79500Y-19200D03*
X79500Y-18200D03*
X77500Y-23500D03*
X77500Y-24500D03*
X77500Y-26700D03*
X77500Y-25700D03*
X77600Y-22000D03*
X77600Y-21000D03*
X76400Y-22000D03*
X76400Y-21000D03*
X81700Y-18200D03*
X81700Y-19200D03*
X81700Y-20200D03*
X81700Y-21200D03*
X81700Y-22200D03*
X81700Y-23200D03*
X81700Y-24200D03*
X81700Y-25200D03*
X81700Y-26200D03*
X81700Y-27200D03*
X81700Y-28200D03*
X81700Y-29200D03*
X81700Y-30200D03*
G54D13*
X81700Y-17200D03*
G54D12*
X84700Y-30200D03*
X84700Y-29200D03*
X84700Y-28200D03*
X84700Y-27200D03*
X84700Y-26200D03*
X84700Y-25200D03*
X84700Y-24200D03*
X84700Y-23200D03*
X84700Y-22200D03*
X84700Y-21200D03*
X84700Y-20200D03*
X84700Y-19200D03*
X84700Y-18200D03*
X84700Y-17200D03*
G54D14*
X79700Y-25700D03*
X79700Y-26700D03*
G54D15*
X73400Y-19300D03*
G54D16*
X75800Y-19300D03*
G54D15*
X74300Y-21300D03*
X73400Y-24000D03*
G54D16*
X75800Y-24000D03*
G54D15*
X74300Y-26000D03*
G54D17*
X77800Y-17200D03*
G54D18*
X77800Y-18200D03*
G54D17*
X77800Y-19200D03*
G54D19*
X73400Y-44638D03*
X73400Y-39965D03*
G54D20*
X75900Y-40550D03*
G54D14*
X76900Y-41050D03*
X75900Y-41550D03*
X76900Y-42050D03*
X75900Y-42550D03*
X76900Y-43050D03*
X75900Y-43550D03*
X76900Y-44050D03*
G54D19*
X73400Y-38138D03*
X73400Y-33465D03*
G54D20*
X75900Y-34050D03*
G54D14*
X76900Y-34550D03*
X75900Y-35050D03*
X76900Y-35550D03*
X75900Y-36050D03*
X76900Y-36550D03*
X75900Y-37050D03*
X76900Y-37550D03*
G54D13*
X85800Y-17200D03*
X85800Y-18200D03*
X85800Y-27200D03*
X82700Y-30200D03*
X80600Y-24000D03*
X89000Y-18800D03*
G54D21*
X77075Y-33200D03*
X76325Y-33200D03*
X85725Y-19200D03*
X86475Y-19200D03*
X85725Y-20300D03*
X86475Y-20300D03*
X85725Y-21300D03*
X86475Y-21300D03*
X85725Y-22200D03*
X86475Y-22200D03*
G54D22*
X88700Y-22425D03*
X88700Y-23175D03*
X90100Y-40275D03*
X90100Y-39525D03*
X83100Y-40375D03*
X83100Y-39625D03*
G54D21*
X70825Y-30500D03*
X71575Y-30500D03*
X82625Y-25000D03*
X83375Y-25000D03*
X82625Y-29200D03*
X83375Y-29200D03*
G54D13*
X79800Y-29000D03*
G54D12*
X78800Y-29000D03*
X77800Y-29000D03*
X76800Y-29000D03*
X76800Y-32000D03*
X77800Y-32000D03*
X78800Y-32000D03*
X79800Y-32000D03*
X81100Y-34000D03*
X81100Y-35000D03*
X81100Y-36000D03*
X81100Y-37000D03*
X81100Y-38000D03*
X81100Y-39000D03*
X81100Y-40000D03*
X81100Y-41000D03*
X81100Y-42000D03*
X81100Y-43000D03*
X81100Y-44000D03*
X81100Y-45000D03*
X81100Y-46000D03*
G54D13*
X81100Y-33000D03*
G54D12*
X84100Y-46000D03*
X84100Y-45000D03*
X84100Y-44000D03*
X84100Y-43000D03*
X84100Y-42000D03*
X84100Y-41000D03*
X84100Y-40000D03*
X84100Y-39000D03*
X84100Y-38000D03*
X84100Y-37000D03*
X84100Y-36000D03*
X84100Y-35000D03*
X84100Y-34000D03*
X84100Y-33000D03*
X87900Y-34000D03*
X87900Y-35000D03*
X87900Y-36000D03*
X87900Y-37000D03*
X87900Y-38000D03*
X87900Y-39000D03*
X87900Y-40000D03*
X87900Y-41000D03*
X87900Y-42000D03*
X87900Y-43000D03*
X87900Y-44000D03*
X87900Y-45000D03*
X87900Y-46000D03*
G54D13*
X87900Y-33000D03*
G54D12*
X90900Y-46000D03*
X90900Y-45000D03*
X90900Y-44000D03*
X90900Y-43000D03*
X90900Y-42000D03*
X90900Y-41000D03*
X90900Y-40000D03*
X90900Y-39000D03*
X90900Y-38000D03*
X90900Y-37000D03*
X90900Y-36000D03*
X90900Y-35000D03*
X90900Y-34000D03*
X90900Y-33000D03*
X90900Y-29200D03*
X90900Y-28200D03*
X90900Y-27200D03*
X90900Y-26200D03*
X90900Y-25200D03*
X90900Y-24200D03*
X90900Y-23200D03*
X90900Y-22200D03*
X90900Y-21200D03*
X90900Y-20200D03*
X90900Y-19200D03*
X90900Y-18200D03*
X90900Y-17200D03*
G54D13*
X90900Y-30200D03*
G54D12*
X87900Y-17200D03*
X87900Y-18200D03*
X87900Y-19200D03*
X87900Y-20200D03*
X87900Y-21200D03*
X87900Y-22200D03*
X87900Y-23200D03*
X87900Y-24200D03*
X87900Y-25200D03*
X87900Y-26200D03*
X87900Y-27200D03*
X87900Y-28200D03*
X87900Y-29200D03*
X87900Y-30200D03*
G54D11*
X92400Y-46500D03*
X71200Y-46500D03*
X92400Y-16400D03*
X71200Y-16400D03*
G54D23*
X70800Y-31400D03*
X70800Y-29400D03*
X71800Y-32000D03*
X71800Y-28800D03*
G54D24*
X83200Y-25860D03*
X83200Y-28340D03*
G54D11*
X51000Y-28100D03*
X48900Y-29900D03*
X48900Y-27800D03*
X46900Y-27000D03*
X55200Y-46000D03*
X55200Y-43000D03*
X55200Y-40000D03*
X55200Y-37000D03*
X55200Y-34000D03*
X61900Y-46000D03*
X61900Y-43000D03*
X62000Y-40000D03*
X62000Y-37000D03*
X62000Y-34000D03*
X68000Y-18400D03*
X68000Y-20800D03*
X68000Y-23200D03*
X68000Y-26200D03*
X68000Y-29200D03*
X49300Y-16400D03*
G54D12*
X52000Y-26700D03*
X52000Y-25700D03*
X56400Y-19200D03*
X56400Y-18200D03*
X55200Y-19200D03*
X55200Y-18200D03*
X53200Y-23500D03*
X53200Y-24500D03*
X53200Y-26700D03*
X53200Y-25700D03*
X53300Y-22000D03*
X53300Y-21000D03*
X52100Y-22000D03*
X52100Y-21000D03*
X57400Y-18200D03*
X57400Y-19200D03*
X57400Y-20200D03*
X57400Y-21200D03*
X57400Y-22200D03*
X57400Y-23200D03*
X57400Y-24200D03*
X57400Y-25200D03*
X57400Y-26200D03*
X57400Y-27200D03*
X57400Y-28200D03*
X57400Y-29200D03*
X57400Y-30200D03*
G54D13*
X57400Y-17200D03*
G54D12*
X60400Y-30200D03*
X60400Y-29200D03*
X60400Y-28200D03*
X60400Y-27200D03*
X60400Y-26200D03*
X60400Y-25200D03*
X60400Y-24200D03*
X60400Y-23200D03*
X60400Y-22200D03*
X60400Y-21200D03*
X60400Y-20200D03*
X60400Y-19200D03*
X60400Y-18200D03*
X60400Y-17200D03*
G54D14*
X55400Y-25700D03*
X55400Y-26700D03*
G54D15*
X49100Y-19300D03*
G54D16*
X51500Y-19300D03*
G54D15*
X50000Y-21300D03*
X49100Y-24000D03*
G54D16*
X51500Y-24000D03*
G54D15*
X50000Y-26000D03*
G54D17*
X53500Y-17200D03*
G54D18*
X53500Y-18200D03*
G54D17*
X53500Y-19200D03*
G54D19*
X49100Y-44638D03*
X49100Y-39965D03*
G54D20*
X51600Y-40550D03*
G54D14*
X52600Y-41050D03*
X51600Y-41550D03*
X52600Y-42050D03*
X51600Y-42550D03*
X52600Y-43050D03*
X51600Y-43550D03*
X52600Y-44050D03*
G54D19*
X49100Y-38138D03*
X49100Y-33465D03*
G54D20*
X51600Y-34050D03*
G54D14*
X52600Y-34550D03*
X51600Y-35050D03*
X52600Y-35550D03*
X51600Y-36050D03*
X52600Y-36550D03*
X51600Y-37050D03*
X52600Y-37550D03*
G54D13*
X61500Y-17200D03*
X61500Y-18200D03*
X61500Y-27200D03*
X58400Y-30200D03*
X56300Y-24000D03*
X64700Y-18800D03*
G54D21*
X52775Y-33200D03*
X52025Y-33200D03*
X61425Y-19200D03*
X62175Y-19200D03*
X61425Y-20300D03*
X62175Y-20300D03*
X61425Y-21300D03*
X62175Y-21300D03*
X61425Y-22200D03*
X62175Y-22200D03*
G54D22*
X64400Y-22425D03*
X64400Y-23175D03*
X65800Y-40275D03*
X65800Y-39525D03*
X58800Y-40375D03*
X58800Y-39625D03*
G54D21*
X46525Y-30500D03*
X47275Y-30500D03*
X58325Y-25000D03*
X59075Y-25000D03*
X58325Y-29200D03*
X59075Y-29200D03*
G54D13*
X55500Y-29000D03*
G54D12*
X54500Y-29000D03*
X53500Y-29000D03*
X52500Y-29000D03*
X52500Y-32000D03*
X53500Y-32000D03*
X54500Y-32000D03*
X55500Y-32000D03*
X56800Y-34000D03*
X56800Y-35000D03*
X56800Y-36000D03*
X56800Y-37000D03*
X56800Y-38000D03*
X56800Y-39000D03*
X56800Y-40000D03*
X56800Y-41000D03*
X56800Y-42000D03*
X56800Y-43000D03*
X56800Y-44000D03*
X56800Y-45000D03*
X56800Y-46000D03*
G54D13*
X56800Y-33000D03*
G54D12*
X59800Y-46000D03*
X59800Y-45000D03*
X59800Y-44000D03*
X59800Y-43000D03*
X59800Y-42000D03*
X59800Y-41000D03*
X59800Y-40000D03*
X59800Y-39000D03*
X59800Y-38000D03*
X59800Y-37000D03*
X59800Y-36000D03*
X59800Y-35000D03*
X59800Y-34000D03*
X59800Y-33000D03*
X63600Y-34000D03*
X63600Y-35000D03*
X63600Y-36000D03*
X63600Y-37000D03*
X63600Y-38000D03*
X63600Y-39000D03*
X63600Y-40000D03*
X63600Y-41000D03*
X63600Y-42000D03*
X63600Y-43000D03*
X63600Y-44000D03*
X63600Y-45000D03*
X63600Y-46000D03*
G54D13*
X63600Y-33000D03*
G54D12*
X66600Y-46000D03*
X66600Y-45000D03*
X66600Y-44000D03*
X66600Y-43000D03*
X66600Y-42000D03*
X66600Y-41000D03*
X66600Y-40000D03*
X66600Y-39000D03*
X66600Y-38000D03*
X66600Y-37000D03*
X66600Y-36000D03*
X66600Y-35000D03*
X66600Y-34000D03*
X66600Y-33000D03*
X66600Y-29200D03*
X66600Y-28200D03*
X66600Y-27200D03*
X66600Y-26200D03*
X66600Y-25200D03*
X66600Y-24200D03*
X66600Y-23200D03*
X66600Y-22200D03*
X66600Y-21200D03*
X66600Y-20200D03*
X66600Y-19200D03*
X66600Y-18200D03*
X66600Y-17200D03*
G54D13*
X66600Y-30200D03*
G54D12*
X63600Y-17200D03*
X63600Y-18200D03*
X63600Y-19200D03*
X63600Y-20200D03*
X63600Y-21200D03*
X63600Y-22200D03*
X63600Y-23200D03*
X63600Y-24200D03*
X63600Y-25200D03*
X63600Y-26200D03*
X63600Y-27200D03*
X63600Y-28200D03*
X63600Y-29200D03*
X63600Y-30200D03*
G54D11*
X68100Y-46500D03*
X46900Y-46500D03*
X68100Y-16400D03*
X46900Y-16400D03*
G54D23*
X46500Y-31400D03*
X46500Y-29400D03*
X47500Y-32000D03*
X47500Y-28800D03*
G54D24*
X58900Y-25860D03*
X58900Y-28340D03*
G54D14*
X26600Y-51300D03*
X26600Y-52300D03*
G54D25*
X33841Y-53500D03*
X34959Y-53500D03*
X33841Y-52500D03*
X34959Y-52500D03*
X33841Y-51500D03*
X34959Y-51500D03*
X33841Y-50500D03*
X34959Y-50500D03*
X25541Y-50500D03*
X26659Y-50500D03*
G54D17*
X23800Y-51000D03*
G54D18*
X23800Y-52000D03*
G54D17*
X23800Y-53000D03*
G54D13*
X33000Y-49400D03*
X22200Y-49400D03*
X23400Y-49400D03*
X24600Y-49400D03*
X25800Y-54800D03*
X25800Y-56100D03*
X24600Y-54800D03*
X23400Y-54800D03*
X24600Y-56100D03*
X22200Y-51200D03*
X22200Y-53700D03*
X22200Y-52400D03*
X22200Y-56100D03*
X22200Y-54900D03*
X25800Y-49400D03*
G54D12*
X26800Y-49400D03*
G54D26*
X27901Y-56000D03*
X27499Y-56000D03*
X31401Y-54400D03*
X30999Y-54400D03*
X27299Y-50500D03*
X27701Y-50500D03*
X26000Y-52001D03*
X26000Y-51599D03*
X24500Y-52701D03*
X24500Y-52299D03*
X24900Y-52701D03*
X24900Y-52299D03*
X27800Y-52001D03*
X27800Y-51599D03*
X27300Y-52001D03*
X27300Y-51599D03*
X24900Y-50799D03*
X24900Y-51201D03*
X24500Y-50799D03*
X24500Y-51201D03*
G54D27*
X28904Y-50407D03*
X28904Y-50722D03*
X28904Y-51037D03*
X28904Y-51352D03*
X28904Y-51667D03*
X28904Y-51982D03*
X28904Y-52297D03*
X28904Y-52612D03*
X32670Y-52610D03*
X32670Y-50400D03*
X32670Y-50720D03*
X32670Y-51040D03*
X32670Y-51350D03*
X32670Y-51670D03*
X32670Y-51980D03*
X32670Y-52300D03*
G54D28*
X29688Y-53400D03*
X30002Y-53400D03*
X30318Y-53400D03*
X30632Y-53400D03*
X30948Y-53400D03*
X31262Y-53400D03*
X31578Y-53400D03*
X31892Y-53400D03*
X29690Y-49620D03*
X30000Y-49620D03*
X30320Y-49620D03*
X30630Y-49620D03*
X30940Y-49620D03*
X31260Y-49620D03*
X31580Y-49620D03*
X31900Y-49620D03*
G54D13*
X27900Y-49400D03*
X31700Y-56200D03*
X30500Y-56200D03*
X29300Y-56200D03*
X32900Y-56200D03*
X34100Y-56200D03*
G54D14*
X84600Y-51300D03*
X84600Y-52300D03*
G54D25*
X91841Y-53500D03*
X92959Y-53500D03*
X91841Y-52500D03*
X92959Y-52500D03*
X91841Y-51500D03*
X92959Y-51500D03*
X91841Y-50500D03*
X92959Y-50500D03*
X83541Y-50500D03*
X84659Y-50500D03*
G54D17*
X81800Y-51000D03*
G54D18*
X81800Y-52000D03*
G54D17*
X81800Y-53000D03*
G54D13*
X91000Y-49400D03*
X80200Y-49400D03*
X81400Y-49400D03*
X82600Y-49400D03*
X83800Y-54800D03*
X83800Y-56100D03*
X82600Y-54800D03*
X81400Y-54800D03*
X82600Y-56100D03*
X80200Y-51200D03*
X80200Y-53700D03*
X80200Y-52400D03*
X80200Y-56100D03*
X80200Y-54900D03*
X83800Y-49400D03*
G54D12*
X84800Y-49400D03*
G54D26*
X85901Y-56000D03*
X85499Y-56000D03*
X89401Y-54400D03*
X88999Y-54400D03*
X85299Y-50500D03*
X85701Y-50500D03*
X84000Y-52001D03*
X84000Y-51599D03*
X82500Y-52701D03*
X82500Y-52299D03*
X82900Y-52701D03*
X82900Y-52299D03*
X85800Y-52001D03*
X85800Y-51599D03*
X85300Y-52001D03*
X85300Y-51599D03*
X82900Y-50799D03*
X82900Y-51201D03*
X82500Y-50799D03*
X82500Y-51201D03*
G54D27*
X86904Y-50407D03*
X86904Y-50722D03*
X86904Y-51037D03*
X86904Y-51352D03*
X86904Y-51667D03*
X86904Y-51982D03*
X86904Y-52297D03*
X86904Y-52612D03*
X90670Y-52610D03*
X90670Y-50400D03*
X90670Y-50720D03*
X90670Y-51040D03*
X90670Y-51350D03*
X90670Y-51670D03*
X90670Y-51980D03*
X90670Y-52300D03*
G54D28*
X87688Y-53400D03*
X88002Y-53400D03*
X88318Y-53400D03*
X88632Y-53400D03*
X88948Y-53400D03*
X89262Y-53400D03*
X89578Y-53400D03*
X89892Y-53400D03*
X87690Y-49620D03*
X88000Y-49620D03*
X88320Y-49620D03*
X88630Y-49620D03*
X88940Y-49620D03*
X89260Y-49620D03*
X89580Y-49620D03*
X89900Y-49620D03*
G54D13*
X85900Y-49400D03*
X89700Y-56200D03*
X88500Y-56200D03*
X87300Y-56200D03*
X90900Y-56200D03*
X92100Y-56200D03*
G54D14*
X65700Y-51300D03*
X65700Y-52300D03*
G54D25*
X72941Y-53500D03*
X74059Y-53500D03*
X72941Y-52500D03*
X74059Y-52500D03*
X72941Y-51500D03*
X74059Y-51500D03*
X72941Y-50500D03*
X74059Y-50500D03*
X64641Y-50500D03*
X65759Y-50500D03*
G54D17*
X62900Y-51000D03*
G54D18*
X62900Y-52000D03*
G54D17*
X62900Y-53000D03*
G54D13*
X72100Y-49400D03*
X61300Y-49400D03*
X62500Y-49400D03*
X63700Y-49400D03*
X64900Y-54800D03*
X64900Y-56100D03*
X63700Y-54800D03*
X62500Y-54800D03*
X63700Y-56100D03*
X61300Y-51200D03*
X61300Y-53700D03*
X61300Y-52400D03*
X61300Y-56100D03*
X61300Y-54900D03*
X64900Y-49400D03*
G54D12*
X65900Y-49400D03*
G54D26*
X67001Y-56000D03*
X66599Y-56000D03*
X70501Y-54400D03*
X70099Y-54400D03*
X66399Y-50500D03*
X66801Y-50500D03*
X65100Y-52001D03*
X65100Y-51599D03*
X63600Y-52701D03*
X63600Y-52299D03*
X64000Y-52701D03*
X64000Y-52299D03*
X66900Y-52001D03*
X66900Y-51599D03*
X66400Y-52001D03*
X66400Y-51599D03*
X64000Y-50799D03*
X64000Y-51201D03*
X63600Y-50799D03*
X63600Y-51201D03*
G54D27*
X68004Y-50407D03*
X68004Y-50722D03*
X68004Y-51037D03*
X68004Y-51352D03*
X68004Y-51667D03*
X68004Y-51982D03*
X68004Y-52297D03*
X68004Y-52612D03*
X71770Y-52610D03*
X71770Y-50400D03*
X71770Y-50720D03*
X71770Y-51040D03*
X71770Y-51350D03*
X71770Y-51670D03*
X71770Y-51980D03*
X71770Y-52300D03*
G54D28*
X68788Y-53400D03*
X69102Y-53400D03*
X69418Y-53400D03*
X69732Y-53400D03*
X70048Y-53400D03*
X70362Y-53400D03*
X70678Y-53400D03*
X70992Y-53400D03*
X68790Y-49620D03*
X69100Y-49620D03*
X69420Y-49620D03*
X69730Y-49620D03*
X70040Y-49620D03*
X70360Y-49620D03*
X70680Y-49620D03*
X71000Y-49620D03*
G54D13*
X67000Y-49400D03*
X70800Y-56200D03*
X69600Y-56200D03*
X68400Y-56200D03*
X72000Y-56200D03*
X73200Y-56200D03*
G54D14*
X45300Y-51300D03*
X45300Y-52300D03*
G54D25*
X52541Y-53500D03*
X53659Y-53500D03*
X52541Y-52500D03*
X53659Y-52500D03*
X52541Y-51500D03*
X53659Y-51500D03*
X52541Y-50500D03*
X53659Y-50500D03*
X44241Y-50500D03*
X45359Y-50500D03*
G54D17*
X42500Y-51000D03*
G54D18*
X42500Y-52000D03*
G54D17*
X42500Y-53000D03*
G54D13*
X51700Y-49400D03*
X40900Y-49400D03*
X42100Y-49400D03*
X43300Y-49400D03*
X44500Y-54800D03*
X44500Y-56100D03*
X43300Y-54800D03*
X42100Y-54800D03*
X43300Y-56100D03*
X40900Y-51200D03*
X40900Y-53700D03*
X40900Y-52400D03*
X40900Y-56100D03*
X40900Y-54900D03*
X44500Y-49400D03*
G54D12*
X45500Y-49400D03*
G54D26*
X46601Y-56000D03*
X46199Y-56000D03*
X50101Y-54400D03*
X49699Y-54400D03*
X45999Y-50500D03*
X46401Y-50500D03*
X44700Y-52001D03*
X44700Y-51599D03*
X43200Y-52701D03*
X43200Y-52299D03*
X43600Y-52701D03*
X43600Y-52299D03*
X46500Y-52001D03*
X46500Y-51599D03*
X46000Y-52001D03*
X46000Y-51599D03*
X43600Y-50799D03*
X43600Y-51201D03*
X43200Y-50799D03*
X43200Y-51201D03*
G54D27*
X47604Y-50407D03*
X47604Y-50722D03*
X47604Y-51037D03*
X47604Y-51352D03*
X47604Y-51667D03*
X47604Y-51982D03*
X47604Y-52297D03*
X47604Y-52612D03*
X51370Y-52610D03*
X51370Y-50400D03*
X51370Y-50720D03*
X51370Y-51040D03*
X51370Y-51350D03*
X51370Y-51670D03*
X51370Y-51980D03*
X51370Y-52300D03*
G54D28*
X48388Y-53400D03*
X48702Y-53400D03*
X49018Y-53400D03*
X49332Y-53400D03*
X49648Y-53400D03*
X49962Y-53400D03*
X50278Y-53400D03*
X50592Y-53400D03*
X48390Y-49620D03*
X48700Y-49620D03*
X49020Y-49620D03*
X49330Y-49620D03*
X49640Y-49620D03*
X49960Y-49620D03*
X50280Y-49620D03*
X50600Y-49620D03*
G54D13*
X46600Y-49400D03*
X50400Y-56200D03*
X49200Y-56200D03*
X48000Y-56200D03*
X51600Y-56200D03*
X52800Y-56200D03*
M02*
