M48
;DRILL file {PCBnew (2011-07-08)-stable} date Sun 14 Aug 2011 04:05:58 PM EDT
;FORMAT={-:-/ absolute / inch / decimal}
FMAT,2
INCH,TZ
T1C0.025
T2C0.032
T3C0.035
T4C0.036
T5C0.128
%
G90
G05
M72
T1
X1.750Y-2.920
X1.750Y-4.220
X1.750Y-5.520
X2.000Y-2.730
X2.000Y-4.030
X2.000Y-5.330
X2.075Y-2.712
X2.075Y-4.012
X2.075Y-5.312
X2.286Y-2.840
X2.286Y-4.140
X2.286Y-5.440
X2.294Y-2.923
X2.294Y-4.223
X2.294Y-5.523
X2.550Y-2.610
X2.550Y-2.990
X2.550Y-3.910
X2.550Y-4.290
X2.550Y-5.210
X2.550Y-5.590
X2.775Y-2.828
X2.775Y-4.128
X2.775Y-5.428
X3.200Y-2.920
X3.200Y-4.220
X3.200Y-5.520
X3.450Y-2.730
X3.450Y-4.030
X3.450Y-5.330
X3.526Y-2.712
X3.526Y-4.012
X3.526Y-5.312
X3.736Y-2.840
X3.736Y-4.140
X3.736Y-5.440
X3.744Y-2.923
X3.744Y-4.223
X3.744Y-5.523
X4.000Y-2.610
X4.000Y-2.990
X4.000Y-3.910
X4.000Y-4.290
X4.000Y-5.210
X4.000Y-5.590
X4.225Y-2.828
X4.225Y-4.128
X4.225Y-5.428
X4.640Y-2.920
X4.640Y-4.220
X4.640Y-5.520
X4.890Y-2.730
X4.890Y-4.030
X4.890Y-5.330
X4.966Y-2.712
X4.966Y-4.012
X4.966Y-5.312
X5.176Y-2.840
X5.176Y-4.140
X5.176Y-5.440
X5.184Y-2.923
X5.184Y-4.223
X5.184Y-5.523
X5.440Y-2.610
X5.440Y-2.990
X5.440Y-3.910
X5.440Y-4.290
X5.440Y-5.210
X5.440Y-5.590
X5.665Y-2.828
X5.665Y-4.128
X5.665Y-5.428
X6.090Y-2.920
X6.090Y-4.220
X6.090Y-5.520
X6.340Y-2.730
X6.340Y-4.030
X6.340Y-5.330
X6.416Y-2.712
X6.416Y-4.012
X6.416Y-5.312
X6.626Y-2.840
X6.626Y-4.140
X6.626Y-5.440
X6.634Y-2.923
X6.634Y-4.223
X6.634Y-5.523
X6.890Y-2.610
X6.890Y-2.990
X6.890Y-3.910
X6.890Y-4.290
X6.890Y-5.210
X6.890Y-5.590
X7.115Y-2.828
X7.115Y-4.128
X7.115Y-5.428
X7.540Y-2.920
X7.540Y-4.220
X7.540Y-5.520
X7.790Y-2.730
X7.790Y-4.030
X7.790Y-5.330
X7.865Y-2.712
X7.865Y-4.012
X7.865Y-5.312
X8.076Y-2.840
X8.076Y-4.140
X8.076Y-5.440
X8.084Y-2.923
X8.084Y-4.223
X8.084Y-5.523
X8.340Y-2.610
X8.340Y-2.990
X8.340Y-3.910
X8.340Y-4.290
X8.340Y-5.210
X8.340Y-5.590
X8.565Y-2.828
X8.565Y-4.128
X8.565Y-5.428
T2
X2.700Y-2.650
X2.700Y-2.980
X2.700Y-3.950
X2.700Y-4.280
X2.700Y-5.250
X2.700Y-5.580
X2.900Y-2.650
X2.900Y-2.980
X2.900Y-3.950
X2.900Y-4.280
X2.900Y-5.250
X2.900Y-5.580
X4.150Y-2.650
X4.150Y-2.980
X4.150Y-3.950
X4.150Y-4.280
X4.150Y-5.250
X4.150Y-5.580
X4.350Y-2.650
X4.350Y-2.980
X4.350Y-3.950
X4.350Y-4.280
X4.350Y-5.250
X4.350Y-5.580
X5.590Y-2.650
X5.590Y-2.980
X5.590Y-3.950
X5.590Y-4.280
X5.590Y-5.250
X5.590Y-5.580
X5.790Y-2.650
X5.790Y-2.980
X5.790Y-3.950
X5.790Y-4.280
X5.790Y-5.250
X5.790Y-5.580
X7.040Y-2.650
X7.040Y-2.980
X7.040Y-3.950
X7.040Y-4.280
X7.040Y-5.250
X7.040Y-5.580
X7.240Y-2.650
X7.240Y-2.980
X7.240Y-3.950
X7.240Y-4.280
X7.240Y-5.250
X7.240Y-5.580
X8.490Y-2.650
X8.490Y-2.980
X8.490Y-3.950
X8.490Y-4.280
X8.490Y-5.250
X8.490Y-5.580
X8.690Y-2.650
X8.690Y-2.980
X8.690Y-3.950
X8.690Y-4.280
X8.690Y-5.250
X8.690Y-5.580
T3
X1.795Y-2.520
X1.795Y-3.820
X1.795Y-5.120
X1.845Y-2.420
X1.845Y-3.720
X1.845Y-5.020
X1.895Y-2.520
X1.895Y-3.820
X1.895Y-5.120
X1.945Y-2.420
X1.945Y-3.720
X1.945Y-5.020
X1.995Y-2.520
X1.995Y-3.820
X1.995Y-5.120
X2.045Y-2.420
X2.045Y-3.720
X2.045Y-5.020
X2.095Y-2.520
X2.095Y-3.820
X2.095Y-5.120
X2.145Y-2.420
X2.145Y-3.720
X2.145Y-5.020
X2.485Y-2.520
X2.485Y-3.820
X2.485Y-5.120
X2.535Y-2.420
X2.535Y-3.720
X2.535Y-5.020
X2.585Y-2.520
X2.585Y-3.820
X2.585Y-5.120
X2.635Y-2.420
X2.635Y-3.720
X2.635Y-5.020
X2.685Y-2.520
X2.685Y-3.820
X2.685Y-5.120
X2.735Y-2.420
X2.735Y-3.720
X2.735Y-5.020
X2.785Y-2.520
X2.785Y-3.820
X2.785Y-5.120
X2.835Y-2.420
X2.835Y-3.720
X2.835Y-5.020
X3.245Y-2.520
X3.245Y-3.820
X3.245Y-5.120
X3.295Y-2.420
X3.295Y-3.720
X3.295Y-5.020
X3.345Y-2.520
X3.345Y-3.820
X3.345Y-5.120
X3.395Y-2.420
X3.395Y-3.720
X3.395Y-5.020
X3.445Y-2.520
X3.445Y-3.820
X3.445Y-5.120
X3.495Y-2.420
X3.495Y-3.720
X3.495Y-5.020
X3.545Y-2.520
X3.545Y-3.820
X3.545Y-5.120
X3.595Y-2.420
X3.595Y-3.720
X3.595Y-5.020
X3.935Y-2.520
X3.935Y-3.820
X3.935Y-5.120
X3.985Y-2.420
X3.985Y-3.720
X3.985Y-5.020
X4.035Y-2.520
X4.035Y-3.820
X4.035Y-5.120
X4.085Y-2.420
X4.085Y-3.720
X4.085Y-5.020
X4.135Y-2.520
X4.135Y-3.820
X4.135Y-5.120
X4.185Y-2.420
X4.185Y-3.720
X4.185Y-5.020
X4.235Y-2.520
X4.235Y-3.820
X4.235Y-5.120
X4.285Y-2.420
X4.285Y-3.720
X4.285Y-5.020
X4.685Y-2.520
X4.685Y-3.820
X4.685Y-5.120
X4.735Y-2.420
X4.735Y-3.720
X4.735Y-5.020
X4.785Y-2.520
X4.785Y-3.820
X4.785Y-5.120
X4.835Y-2.420
X4.835Y-3.720
X4.835Y-5.020
X4.885Y-2.520
X4.885Y-3.820
X4.885Y-5.120
X4.935Y-2.420
X4.935Y-3.720
X4.935Y-5.020
X4.985Y-2.520
X4.985Y-3.820
X4.985Y-5.120
X5.035Y-2.420
X5.035Y-3.720
X5.035Y-5.020
X5.375Y-2.520
X5.375Y-3.820
X5.375Y-5.120
X5.425Y-2.420
X5.425Y-3.720
X5.425Y-5.020
X5.475Y-2.520
X5.475Y-3.820
X5.475Y-5.120
X5.525Y-2.420
X5.525Y-3.720
X5.525Y-5.020
X5.575Y-2.520
X5.575Y-3.820
X5.575Y-5.120
X5.625Y-2.420
X5.625Y-3.720
X5.625Y-5.020
X5.675Y-2.520
X5.675Y-3.820
X5.675Y-5.120
X5.725Y-2.420
X5.725Y-3.720
X5.725Y-5.020
X6.135Y-2.520
X6.135Y-3.820
X6.135Y-5.120
X6.185Y-2.420
X6.185Y-3.720
X6.185Y-5.020
X6.235Y-2.520
X6.235Y-3.820
X6.235Y-5.120
X6.285Y-2.420
X6.285Y-3.720
X6.285Y-5.020
X6.335Y-2.520
X6.335Y-3.820
X6.335Y-5.120
X6.385Y-2.420
X6.385Y-3.720
X6.385Y-5.020
X6.435Y-2.520
X6.435Y-3.820
X6.435Y-5.120
X6.485Y-2.420
X6.485Y-3.720
X6.485Y-5.020
X6.825Y-2.520
X6.825Y-3.820
X6.825Y-5.120
X6.875Y-2.420
X6.875Y-3.720
X6.875Y-5.020
X6.925Y-2.520
X6.925Y-3.820
X6.925Y-5.120
X6.975Y-2.420
X6.975Y-3.720
X6.975Y-5.020
X7.025Y-2.520
X7.025Y-3.820
X7.025Y-5.120
X7.075Y-2.420
X7.075Y-3.720
X7.075Y-5.020
X7.125Y-2.520
X7.125Y-3.820
X7.125Y-5.120
X7.175Y-2.420
X7.175Y-3.720
X7.175Y-5.020
X7.585Y-2.520
X7.585Y-3.820
X7.585Y-5.120
X7.635Y-2.420
X7.635Y-3.720
X7.635Y-5.020
X7.685Y-2.520
X7.685Y-3.820
X7.685Y-5.120
X7.735Y-2.420
X7.735Y-3.720
X7.735Y-5.020
X7.785Y-2.520
X7.785Y-3.820
X7.785Y-5.120
X7.835Y-2.420
X7.835Y-3.720
X7.835Y-5.020
X7.885Y-2.520
X7.885Y-3.820
X7.885Y-5.120
X7.935Y-2.420
X7.935Y-3.720
X7.935Y-5.020
X8.275Y-2.520
X8.275Y-3.820
X8.275Y-5.120
X8.325Y-2.420
X8.325Y-3.720
X8.325Y-5.020
X8.375Y-2.520
X8.375Y-3.820
X8.375Y-5.120
X8.425Y-2.420
X8.425Y-3.720
X8.425Y-5.020
X8.475Y-2.520
X8.475Y-3.820
X8.475Y-5.120
X8.525Y-2.420
X8.525Y-3.720
X8.525Y-5.020
X8.575Y-2.520
X8.575Y-3.820
X8.575Y-5.120
X8.625Y-2.420
X8.625Y-3.720
X8.625Y-5.020
T4
X1.813Y-2.734
X1.813Y-2.907
X1.813Y-4.034
X1.813Y-4.207
X1.813Y-5.333
X1.813Y-5.506
X3.263Y-2.734
X3.263Y-2.907
X3.263Y-4.034
X3.263Y-4.207
X3.263Y-5.333
X3.263Y-5.506
X4.703Y-2.734
X4.703Y-2.907
X4.703Y-4.034
X4.703Y-4.207
X4.703Y-5.333
X4.703Y-5.506
X6.153Y-2.734
X6.153Y-2.907
X6.153Y-4.034
X6.153Y-4.207
X6.153Y-5.333
X6.153Y-5.506
X7.603Y-2.734
X7.603Y-2.907
X7.603Y-4.034
X7.603Y-4.207
X7.603Y-5.333
X7.603Y-5.506
T5
X1.736Y-2.170
X1.736Y-3.470
X1.736Y-4.770
X2.204Y-2.170
X2.204Y-3.470
X2.204Y-4.770
X2.426Y-2.170
X2.426Y-3.470
X2.426Y-4.770
X2.893Y-2.170
X2.893Y-3.470
X2.893Y-4.770
X3.186Y-2.170
X3.186Y-3.470
X3.186Y-4.770
X3.654Y-2.170
X3.654Y-3.470
X3.654Y-4.770
X3.876Y-2.170
X3.876Y-3.470
X3.876Y-4.770
X4.344Y-2.170
X4.344Y-3.470
X4.344Y-4.770
X4.626Y-2.170
X4.626Y-3.470
X4.626Y-4.770
X5.094Y-2.170
X5.094Y-3.470
X5.094Y-4.770
X5.316Y-2.170
X5.316Y-3.470
X5.316Y-4.770
X5.784Y-2.170
X5.784Y-3.470
X5.784Y-4.770
X6.076Y-2.170
X6.076Y-3.470
X6.076Y-4.770
X6.543Y-2.170
X6.543Y-3.470
X6.543Y-4.770
X6.766Y-2.170
X6.766Y-3.470
X6.766Y-4.770
X7.234Y-2.170
X7.234Y-3.470
X7.234Y-4.770
X7.526Y-2.170
X7.526Y-3.470
X7.526Y-4.770
X7.994Y-2.170
X7.994Y-3.470
X7.994Y-4.770
X8.216Y-2.170
X8.216Y-3.470
X8.216Y-4.770
X8.684Y-2.170
X8.684Y-3.470
X8.684Y-4.770
T0
M30
