G04 (created by PCBNEW-RS274X (2011-07-08)-stable) date Sun 14 Aug 2011 03:50:59 PM EDT*
G01*
G70*
G90*
%MOIN*%
G04 Gerber Fmt 3.4, Leading zero omitted, Abs format*
%FSLAX34Y34*%
G04 APERTURE LIST*
%ADD10C,0.006000*%
%ADD11R,0.035000X0.055000*%
%ADD12R,0.055000X0.035000*%
%ADD13R,0.094500X0.086600*%
%ADD14R,0.078700X0.017700*%
%ADD15R,0.017700X0.078700*%
%ADD16R,0.019700X0.019700*%
%ADD17R,0.062900X0.070900*%
G04 APERTURE END LIST*
G54D10*
G54D11*
X77075Y-33200D03*
X76325Y-33200D03*
X85725Y-19200D03*
X86475Y-19200D03*
X85725Y-20300D03*
X86475Y-20300D03*
X85725Y-21300D03*
X86475Y-21300D03*
X85725Y-22200D03*
X86475Y-22200D03*
G54D12*
X88700Y-22425D03*
X88700Y-23175D03*
X90100Y-40275D03*
X90100Y-39525D03*
X83100Y-40375D03*
X83100Y-39625D03*
G54D11*
X70825Y-30500D03*
X71575Y-30500D03*
X82625Y-25000D03*
X83375Y-25000D03*
X82625Y-29200D03*
X83375Y-29200D03*
G54D13*
X83200Y-25860D03*
X83200Y-28340D03*
X58900Y-25860D03*
X58900Y-28340D03*
G54D11*
X58325Y-29200D03*
X59075Y-29200D03*
X58325Y-25000D03*
X59075Y-25000D03*
X46525Y-30500D03*
X47275Y-30500D03*
G54D12*
X58800Y-40375D03*
X58800Y-39625D03*
X65800Y-40275D03*
X65800Y-39525D03*
X64400Y-22425D03*
X64400Y-23175D03*
G54D11*
X61425Y-22200D03*
X62175Y-22200D03*
X61425Y-21300D03*
X62175Y-21300D03*
X61425Y-20300D03*
X62175Y-20300D03*
X61425Y-19200D03*
X62175Y-19200D03*
X52775Y-33200D03*
X52025Y-33200D03*
G54D14*
X86904Y-50407D03*
X86904Y-50722D03*
X86904Y-51037D03*
X86904Y-51352D03*
X86904Y-51667D03*
X86904Y-51982D03*
X86904Y-52297D03*
X86904Y-52612D03*
X90670Y-52610D03*
X90670Y-50400D03*
X90670Y-50720D03*
X90670Y-51040D03*
X90670Y-51350D03*
X90670Y-51670D03*
X90670Y-51980D03*
X90670Y-52300D03*
G54D15*
X87688Y-53400D03*
X88002Y-53400D03*
X88318Y-53400D03*
X88632Y-53400D03*
X88948Y-53400D03*
X89262Y-53400D03*
X89578Y-53400D03*
X89892Y-53400D03*
X87690Y-49620D03*
X88000Y-49620D03*
X88320Y-49620D03*
X88630Y-49620D03*
X88940Y-49620D03*
X89260Y-49620D03*
X89580Y-49620D03*
X89900Y-49620D03*
G54D16*
X82500Y-50799D03*
X82500Y-51201D03*
X82900Y-50799D03*
X82900Y-51201D03*
X85300Y-52001D03*
X85300Y-51599D03*
X85800Y-52001D03*
X85800Y-51599D03*
X82900Y-52701D03*
X82900Y-52299D03*
X82500Y-52701D03*
X82500Y-52299D03*
X84000Y-52001D03*
X84000Y-51599D03*
X85299Y-50500D03*
X85701Y-50500D03*
X89401Y-54400D03*
X88999Y-54400D03*
X85901Y-56000D03*
X85499Y-56000D03*
G54D17*
X83541Y-50500D03*
X84659Y-50500D03*
X91841Y-50500D03*
X92959Y-50500D03*
X91841Y-51500D03*
X92959Y-51500D03*
X91841Y-52500D03*
X92959Y-52500D03*
X91841Y-53500D03*
X92959Y-53500D03*
X72941Y-53500D03*
X74059Y-53500D03*
X72941Y-52500D03*
X74059Y-52500D03*
X72941Y-51500D03*
X74059Y-51500D03*
X72941Y-50500D03*
X74059Y-50500D03*
X64641Y-50500D03*
X65759Y-50500D03*
G54D16*
X67001Y-56000D03*
X66599Y-56000D03*
X70501Y-54400D03*
X70099Y-54400D03*
X66399Y-50500D03*
X66801Y-50500D03*
X65100Y-52001D03*
X65100Y-51599D03*
X63600Y-52701D03*
X63600Y-52299D03*
X64000Y-52701D03*
X64000Y-52299D03*
X66900Y-52001D03*
X66900Y-51599D03*
X66400Y-52001D03*
X66400Y-51599D03*
X64000Y-50799D03*
X64000Y-51201D03*
X63600Y-50799D03*
X63600Y-51201D03*
G54D14*
X68004Y-50407D03*
X68004Y-50722D03*
X68004Y-51037D03*
X68004Y-51352D03*
X68004Y-51667D03*
X68004Y-51982D03*
X68004Y-52297D03*
X68004Y-52612D03*
X71770Y-52610D03*
X71770Y-50400D03*
X71770Y-50720D03*
X71770Y-51040D03*
X71770Y-51350D03*
X71770Y-51670D03*
X71770Y-51980D03*
X71770Y-52300D03*
G54D15*
X68788Y-53400D03*
X69102Y-53400D03*
X69418Y-53400D03*
X69732Y-53400D03*
X70048Y-53400D03*
X70362Y-53400D03*
X70678Y-53400D03*
X70992Y-53400D03*
X68790Y-49620D03*
X69100Y-49620D03*
X69420Y-49620D03*
X69730Y-49620D03*
X70040Y-49620D03*
X70360Y-49620D03*
X70680Y-49620D03*
X71000Y-49620D03*
G54D14*
X47604Y-50407D03*
X47604Y-50722D03*
X47604Y-51037D03*
X47604Y-51352D03*
X47604Y-51667D03*
X47604Y-51982D03*
X47604Y-52297D03*
X47604Y-52612D03*
X51370Y-52610D03*
X51370Y-50400D03*
X51370Y-50720D03*
X51370Y-51040D03*
X51370Y-51350D03*
X51370Y-51670D03*
X51370Y-51980D03*
X51370Y-52300D03*
G54D15*
X48388Y-53400D03*
X48702Y-53400D03*
X49018Y-53400D03*
X49332Y-53400D03*
X49648Y-53400D03*
X49962Y-53400D03*
X50278Y-53400D03*
X50592Y-53400D03*
X48390Y-49620D03*
X48700Y-49620D03*
X49020Y-49620D03*
X49330Y-49620D03*
X49640Y-49620D03*
X49960Y-49620D03*
X50280Y-49620D03*
X50600Y-49620D03*
G54D16*
X43200Y-50799D03*
X43200Y-51201D03*
X43600Y-50799D03*
X43600Y-51201D03*
X46000Y-52001D03*
X46000Y-51599D03*
X46500Y-52001D03*
X46500Y-51599D03*
X43600Y-52701D03*
X43600Y-52299D03*
X43200Y-52701D03*
X43200Y-52299D03*
X44700Y-52001D03*
X44700Y-51599D03*
X45999Y-50500D03*
X46401Y-50500D03*
X50101Y-54400D03*
X49699Y-54400D03*
X46601Y-56000D03*
X46199Y-56000D03*
G54D17*
X44241Y-50500D03*
X45359Y-50500D03*
X52541Y-50500D03*
X53659Y-50500D03*
X52541Y-51500D03*
X53659Y-51500D03*
X52541Y-52500D03*
X53659Y-52500D03*
X52541Y-53500D03*
X53659Y-53500D03*
G54D11*
X28475Y-33200D03*
X27725Y-33200D03*
X37125Y-19200D03*
X37875Y-19200D03*
X37125Y-20300D03*
X37875Y-20300D03*
X37125Y-21300D03*
X37875Y-21300D03*
X37125Y-22200D03*
X37875Y-22200D03*
G54D12*
X40100Y-22425D03*
X40100Y-23175D03*
X41500Y-40275D03*
X41500Y-39525D03*
X34500Y-40375D03*
X34500Y-39625D03*
G54D11*
X22225Y-30500D03*
X22975Y-30500D03*
X34025Y-25000D03*
X34775Y-25000D03*
X34025Y-29200D03*
X34775Y-29200D03*
G54D13*
X34600Y-25860D03*
X34600Y-28340D03*
G54D17*
X33841Y-53500D03*
X34959Y-53500D03*
X33841Y-52500D03*
X34959Y-52500D03*
X33841Y-51500D03*
X34959Y-51500D03*
X33841Y-50500D03*
X34959Y-50500D03*
X25541Y-50500D03*
X26659Y-50500D03*
G54D16*
X27901Y-56000D03*
X27499Y-56000D03*
X31401Y-54400D03*
X30999Y-54400D03*
X27299Y-50500D03*
X27701Y-50500D03*
X26000Y-52001D03*
X26000Y-51599D03*
X24500Y-52701D03*
X24500Y-52299D03*
X24900Y-52701D03*
X24900Y-52299D03*
X27800Y-52001D03*
X27800Y-51599D03*
X27300Y-52001D03*
X27300Y-51599D03*
X24900Y-50799D03*
X24900Y-51201D03*
X24500Y-50799D03*
X24500Y-51201D03*
G54D14*
X28904Y-50407D03*
X28904Y-50722D03*
X28904Y-51037D03*
X28904Y-51352D03*
X28904Y-51667D03*
X28904Y-51982D03*
X28904Y-52297D03*
X28904Y-52612D03*
X32670Y-52610D03*
X32670Y-50400D03*
X32670Y-50720D03*
X32670Y-51040D03*
X32670Y-51350D03*
X32670Y-51670D03*
X32670Y-51980D03*
X32670Y-52300D03*
G54D15*
X29688Y-53400D03*
X30002Y-53400D03*
X30318Y-53400D03*
X30632Y-53400D03*
X30948Y-53400D03*
X31262Y-53400D03*
X31578Y-53400D03*
X31892Y-53400D03*
X29690Y-49620D03*
X30000Y-49620D03*
X30320Y-49620D03*
X30630Y-49620D03*
X30940Y-49620D03*
X31260Y-49620D03*
X31580Y-49620D03*
X31900Y-49620D03*
M02*
