G04 (created by PCBNEW-RS274X (2011-07-08)-stable) date Thu 21 Jul 2011 06:08:38 PM EDT*
G01*
G70*
G90*
%MOIN*%
G04 Gerber Fmt 3.4, Leading zero omitted, Abs format*
%FSLAX34Y34*%
G04 APERTURE LIST*
%ADD10C,0.006000*%
%ADD11C,0.015000*%
G04 APERTURE END LIST*
G54D10*
G54D11*
X23500Y-46200D02*
X23500Y-50500D01*
X23500Y-12500D02*
X23500Y-46200D01*
X94900Y-12500D02*
X23500Y-12500D01*
X94900Y-50500D02*
X94900Y-12500D01*
X23500Y-50500D02*
X94900Y-50500D01*
X80200Y-38500D02*
X67100Y-38500D01*
X67100Y-38500D02*
X66900Y-38500D01*
X66900Y-38500D02*
X66900Y-50500D01*
X66900Y-50500D02*
X80300Y-50500D01*
X80400Y-38500D02*
X80200Y-38500D01*
X80300Y-50500D02*
X80400Y-50500D01*
X80400Y-50500D02*
X80400Y-38500D01*
X65700Y-38500D02*
X52600Y-38500D01*
X52600Y-38500D02*
X52400Y-38500D01*
X52400Y-38500D02*
X52400Y-50500D01*
X52400Y-50500D02*
X65800Y-50500D01*
X65900Y-38500D02*
X65700Y-38500D01*
X65800Y-50500D02*
X65900Y-50500D01*
X65900Y-50500D02*
X65900Y-38500D01*
X51300Y-38500D02*
X38200Y-38500D01*
X38200Y-38500D02*
X38000Y-38500D01*
X38000Y-38500D02*
X38000Y-50500D01*
X38000Y-50500D02*
X51400Y-50500D01*
X51500Y-38500D02*
X51300Y-38500D01*
X51400Y-50500D02*
X51500Y-50500D01*
X51500Y-50500D02*
X51500Y-38500D01*
X37000Y-50500D02*
X37000Y-38500D01*
X36900Y-50500D02*
X37000Y-50500D01*
X37000Y-38500D02*
X36800Y-38500D01*
X23500Y-50500D02*
X36900Y-50500D01*
X23500Y-38500D02*
X23500Y-50500D01*
X23700Y-38500D02*
X23500Y-38500D01*
X36800Y-38500D02*
X23700Y-38500D01*
X94900Y-50500D02*
X94900Y-38500D01*
X94800Y-50500D02*
X94900Y-50500D01*
X94900Y-38500D02*
X94700Y-38500D01*
X81400Y-50500D02*
X94800Y-50500D01*
X81400Y-38500D02*
X81400Y-50500D01*
X81600Y-38500D02*
X81400Y-38500D01*
X94700Y-38500D02*
X81600Y-38500D01*
X94700Y-25500D02*
X81600Y-25500D01*
X81600Y-25500D02*
X81400Y-25500D01*
X81400Y-25500D02*
X81400Y-37500D01*
X81400Y-37500D02*
X94800Y-37500D01*
X94900Y-25500D02*
X94700Y-25500D01*
X94800Y-37500D02*
X94900Y-37500D01*
X94900Y-37500D02*
X94900Y-25500D01*
X36800Y-25500D02*
X23700Y-25500D01*
X23700Y-25500D02*
X23500Y-25500D01*
X23500Y-25500D02*
X23500Y-37500D01*
X23500Y-37500D02*
X36900Y-37500D01*
X37000Y-25500D02*
X36800Y-25500D01*
X36900Y-37500D02*
X37000Y-37500D01*
X37000Y-37500D02*
X37000Y-25500D01*
X51500Y-37500D02*
X51500Y-25500D01*
X51400Y-37500D02*
X51500Y-37500D01*
X51500Y-25500D02*
X51300Y-25500D01*
X38000Y-37500D02*
X51400Y-37500D01*
X38000Y-25500D02*
X38000Y-37500D01*
X38200Y-25500D02*
X38000Y-25500D01*
X51300Y-25500D02*
X38200Y-25500D01*
X65900Y-37500D02*
X65900Y-25500D01*
X65800Y-37500D02*
X65900Y-37500D01*
X65900Y-25500D02*
X65700Y-25500D01*
X52400Y-37500D02*
X65800Y-37500D01*
X52400Y-25500D02*
X52400Y-37500D01*
X52600Y-25500D02*
X52400Y-25500D01*
X65700Y-25500D02*
X52600Y-25500D01*
X80400Y-37500D02*
X80400Y-25500D01*
X80300Y-37500D02*
X80400Y-37500D01*
X80400Y-25500D02*
X80200Y-25500D01*
X66900Y-37500D02*
X80300Y-37500D01*
X66900Y-25500D02*
X66900Y-37500D01*
X67100Y-25500D02*
X66900Y-25500D01*
X80200Y-25500D02*
X67100Y-25500D01*
X80200Y-12500D02*
X67100Y-12500D01*
X67100Y-12500D02*
X66900Y-12500D01*
X66900Y-12500D02*
X66900Y-24500D01*
X66900Y-24500D02*
X80300Y-24500D01*
X80400Y-12500D02*
X80200Y-12500D01*
X80300Y-24500D02*
X80400Y-24500D01*
X80400Y-24500D02*
X80400Y-12500D01*
X65700Y-12500D02*
X52600Y-12500D01*
X52600Y-12500D02*
X52400Y-12500D01*
X52400Y-12500D02*
X52400Y-24500D01*
X52400Y-24500D02*
X65800Y-24500D01*
X65900Y-12500D02*
X65700Y-12500D01*
X65800Y-24500D02*
X65900Y-24500D01*
X65900Y-24500D02*
X65900Y-12500D01*
X51300Y-12500D02*
X38200Y-12500D01*
X38200Y-12500D02*
X38000Y-12500D01*
X38000Y-12500D02*
X38000Y-24500D01*
X38000Y-24500D02*
X51400Y-24500D01*
X51500Y-12500D02*
X51300Y-12500D01*
X51400Y-24500D02*
X51500Y-24500D01*
X51500Y-24500D02*
X51500Y-12500D01*
X37000Y-24500D02*
X37000Y-12500D01*
X36900Y-24500D02*
X37000Y-24500D01*
X37000Y-12500D02*
X36800Y-12500D01*
X23500Y-24500D02*
X36900Y-24500D01*
X23500Y-12500D02*
X23500Y-24500D01*
X23700Y-12500D02*
X23500Y-12500D01*
X36800Y-12500D02*
X23700Y-12500D01*
X94900Y-24500D02*
X94900Y-12500D01*
X94800Y-24500D02*
X94900Y-24500D01*
X94900Y-12500D02*
X94700Y-12500D01*
X81400Y-24500D02*
X94800Y-24500D01*
X81400Y-12500D02*
X81400Y-24500D01*
X81600Y-12500D02*
X81400Y-12500D01*
X94700Y-12500D02*
X81600Y-12500D01*
M02*
