G04 (created by PCBNEW-RS274X (2011-07-08)-stable) date Sun 14 Aug 2011 03:50:59 PM EDT*
G01*
G70*
G90*
%MOIN*%
G04 Gerber Fmt 3.4, Leading zero omitted, Abs format*
%FSLAX34Y34*%
G04 APERTURE LIST*
%ADD10C,0.006000*%
%ADD11R,0.062900X0.070900*%
%ADD12R,0.070900X0.062900*%
%ADD13R,0.055000X0.035000*%
%ADD14R,0.060000X0.080000*%
%ADD15R,0.080000X0.060000*%
%ADD16R,0.016000X0.050000*%
%ADD17R,0.023600X0.086600*%
%ADD18R,0.019700X0.019700*%
%ADD19R,0.086600X0.094500*%
G04 APERTURE END LIST*
G54D10*
G54D11*
X85541Y-19200D03*
X86659Y-19200D03*
X85541Y-20300D03*
X86659Y-20300D03*
X85541Y-21300D03*
X86659Y-21300D03*
X85541Y-22200D03*
X86659Y-22200D03*
G54D12*
X79900Y-20641D03*
X79900Y-21759D03*
G54D13*
X71800Y-31175D03*
X71800Y-30425D03*
X80700Y-21575D03*
X80700Y-20825D03*
G54D14*
X79950Y-22800D03*
X78650Y-22800D03*
G54D15*
X78800Y-21850D03*
X78800Y-20550D03*
X54500Y-21850D03*
X54500Y-20550D03*
G54D14*
X55650Y-22800D03*
X54350Y-22800D03*
G54D13*
X56400Y-21575D03*
X56400Y-20825D03*
X47500Y-31175D03*
X47500Y-30425D03*
G54D12*
X55600Y-20641D03*
X55600Y-21759D03*
G54D11*
X61241Y-22200D03*
X62359Y-22200D03*
X61241Y-21300D03*
X62359Y-21300D03*
X61241Y-20300D03*
X62359Y-20300D03*
X61241Y-19200D03*
X62359Y-19200D03*
G54D16*
X87350Y-55300D03*
X87600Y-55300D03*
X87860Y-55300D03*
X88120Y-55300D03*
X88370Y-55300D03*
X88630Y-55300D03*
X88890Y-55300D03*
X89140Y-55300D03*
X89400Y-55300D03*
X89650Y-55300D03*
X89910Y-55300D03*
X90170Y-55300D03*
X90420Y-55300D03*
X90680Y-55300D03*
X90680Y-52500D03*
X90420Y-52500D03*
X90180Y-52500D03*
X89910Y-52500D03*
X89650Y-52500D03*
X89400Y-52500D03*
X89140Y-52500D03*
X88890Y-52500D03*
X88630Y-52500D03*
X88370Y-52500D03*
X88120Y-52500D03*
X87860Y-52500D03*
X87600Y-52500D03*
X87350Y-52500D03*
G54D17*
X86250Y-54176D03*
X85750Y-54176D03*
X85250Y-54176D03*
X84750Y-54176D03*
X84750Y-56223D03*
X85250Y-56223D03*
X85750Y-56223D03*
X86250Y-56223D03*
G54D18*
X84701Y-50000D03*
X84299Y-50000D03*
X89699Y-49700D03*
X90101Y-49700D03*
X87901Y-49700D03*
X87499Y-49700D03*
X83901Y-50000D03*
X83499Y-50000D03*
X91999Y-50500D03*
X92401Y-50500D03*
X91999Y-51500D03*
X92401Y-51500D03*
X91999Y-52500D03*
X92401Y-52500D03*
X91999Y-53500D03*
X92401Y-53500D03*
G54D19*
X90040Y-51000D03*
X87560Y-51000D03*
X71140Y-51000D03*
X68660Y-51000D03*
G54D18*
X73099Y-53500D03*
X73501Y-53500D03*
X73099Y-52500D03*
X73501Y-52500D03*
X73099Y-51500D03*
X73501Y-51500D03*
X73099Y-50500D03*
X73501Y-50500D03*
X65001Y-50000D03*
X64599Y-50000D03*
X69001Y-49700D03*
X68599Y-49700D03*
X70799Y-49700D03*
X71201Y-49700D03*
X65801Y-50000D03*
X65399Y-50000D03*
G54D17*
X67350Y-54176D03*
X66850Y-54176D03*
X66350Y-54176D03*
X65850Y-54176D03*
X65850Y-56223D03*
X66350Y-56223D03*
X66850Y-56223D03*
X67350Y-56223D03*
G54D16*
X68450Y-55300D03*
X68700Y-55300D03*
X68960Y-55300D03*
X69220Y-55300D03*
X69470Y-55300D03*
X69730Y-55300D03*
X69990Y-55300D03*
X70240Y-55300D03*
X70500Y-55300D03*
X70750Y-55300D03*
X71010Y-55300D03*
X71270Y-55300D03*
X71520Y-55300D03*
X71780Y-55300D03*
X71780Y-52500D03*
X71520Y-52500D03*
X71280Y-52500D03*
X71010Y-52500D03*
X70750Y-52500D03*
X70500Y-52500D03*
X70240Y-52500D03*
X69990Y-52500D03*
X69730Y-52500D03*
X69470Y-52500D03*
X69220Y-52500D03*
X68960Y-52500D03*
X68700Y-52500D03*
X68450Y-52500D03*
X48050Y-55300D03*
X48300Y-55300D03*
X48560Y-55300D03*
X48820Y-55300D03*
X49070Y-55300D03*
X49330Y-55300D03*
X49590Y-55300D03*
X49840Y-55300D03*
X50100Y-55300D03*
X50350Y-55300D03*
X50610Y-55300D03*
X50870Y-55300D03*
X51120Y-55300D03*
X51380Y-55300D03*
X51380Y-52500D03*
X51120Y-52500D03*
X50880Y-52500D03*
X50610Y-52500D03*
X50350Y-52500D03*
X50100Y-52500D03*
X49840Y-52500D03*
X49590Y-52500D03*
X49330Y-52500D03*
X49070Y-52500D03*
X48820Y-52500D03*
X48560Y-52500D03*
X48300Y-52500D03*
X48050Y-52500D03*
G54D17*
X46950Y-54176D03*
X46450Y-54176D03*
X45950Y-54176D03*
X45450Y-54176D03*
X45450Y-56223D03*
X45950Y-56223D03*
X46450Y-56223D03*
X46950Y-56223D03*
G54D18*
X45401Y-50000D03*
X44999Y-50000D03*
X50399Y-49700D03*
X50801Y-49700D03*
X48601Y-49700D03*
X48199Y-49700D03*
X44601Y-50000D03*
X44199Y-50000D03*
X52699Y-50500D03*
X53101Y-50500D03*
X52699Y-51500D03*
X53101Y-51500D03*
X52699Y-52500D03*
X53101Y-52500D03*
X52699Y-53500D03*
X53101Y-53500D03*
G54D19*
X50740Y-51000D03*
X48260Y-51000D03*
G54D11*
X36941Y-19200D03*
X38059Y-19200D03*
X36941Y-20300D03*
X38059Y-20300D03*
X36941Y-21300D03*
X38059Y-21300D03*
X36941Y-22200D03*
X38059Y-22200D03*
G54D12*
X31300Y-20641D03*
X31300Y-21759D03*
G54D13*
X23200Y-31175D03*
X23200Y-30425D03*
X32100Y-21575D03*
X32100Y-20825D03*
G54D14*
X31350Y-22800D03*
X30050Y-22800D03*
G54D15*
X30200Y-21850D03*
X30200Y-20550D03*
G54D19*
X32040Y-51000D03*
X29560Y-51000D03*
G54D18*
X33999Y-53500D03*
X34401Y-53500D03*
X33999Y-52500D03*
X34401Y-52500D03*
X33999Y-51500D03*
X34401Y-51500D03*
X33999Y-50500D03*
X34401Y-50500D03*
X25901Y-50000D03*
X25499Y-50000D03*
X29901Y-49700D03*
X29499Y-49700D03*
X31699Y-49700D03*
X32101Y-49700D03*
X26701Y-50000D03*
X26299Y-50000D03*
G54D17*
X28250Y-54176D03*
X27750Y-54176D03*
X27250Y-54176D03*
X26750Y-54176D03*
X26750Y-56223D03*
X27250Y-56223D03*
X27750Y-56223D03*
X28250Y-56223D03*
G54D16*
X29350Y-55300D03*
X29600Y-55300D03*
X29860Y-55300D03*
X30120Y-55300D03*
X30370Y-55300D03*
X30630Y-55300D03*
X30890Y-55300D03*
X31140Y-55300D03*
X31400Y-55300D03*
X31650Y-55300D03*
X31910Y-55300D03*
X32170Y-55300D03*
X32420Y-55300D03*
X32680Y-55300D03*
X32680Y-52500D03*
X32420Y-52500D03*
X32180Y-52500D03*
X31910Y-52500D03*
X31650Y-52500D03*
X31400Y-52500D03*
X31140Y-52500D03*
X30890Y-52500D03*
X30630Y-52500D03*
X30370Y-52500D03*
X30120Y-52500D03*
X29860Y-52500D03*
X29600Y-52500D03*
X29350Y-52500D03*
M02*
