G04 (created by PCBNEW-RS274X (2011-07-08)-stable) date Thu 21 Jul 2011 06:08:38 PM EDT*
G01*
G70*
G90*
%MOIN*%
G04 Gerber Fmt 3.4, Leading zero omitted, Abs format*
%FSLAX34Y34*%
G04 APERTURE LIST*
%ADD10C,0.006000*%
%ADD11R,0.055000X0.055000*%
%ADD12R,0.070900X0.062900*%
%ADD13R,0.091000X0.019000*%
%ADD14R,0.098000X0.079000*%
%ADD15C,0.050000*%
%ADD16R,0.050000X0.016000*%
%ADD17R,0.086600X0.023600*%
%ADD18C,0.143700*%
%ADD19R,0.059100X0.059100*%
%ADD20C,0.059100*%
%ADD21C,0.035000*%
%ADD22C,0.008000*%
G04 APERTURE END LIST*
G54D10*
G54D11*
X77500Y-49800D03*
X77500Y-46500D03*
G54D12*
X76000Y-49559D03*
X76000Y-48441D03*
G54D13*
X67615Y-47890D03*
X67615Y-47580D03*
X67615Y-48200D03*
X67615Y-48510D03*
G54D14*
X69820Y-49950D03*
X67650Y-49950D03*
X67650Y-46450D03*
X69820Y-46450D03*
G54D13*
X67615Y-48820D03*
G54D15*
X68630Y-49065D03*
X68630Y-47335D03*
G54D16*
X72000Y-46350D03*
X72000Y-46600D03*
X72000Y-46860D03*
X72000Y-47120D03*
X72000Y-47370D03*
X72000Y-47630D03*
X72000Y-47890D03*
X72000Y-48140D03*
X72000Y-48400D03*
X72000Y-48650D03*
X72000Y-48910D03*
X72000Y-49170D03*
X72000Y-49420D03*
X72000Y-49680D03*
X74800Y-49680D03*
X74800Y-49420D03*
X74800Y-49180D03*
X74800Y-48910D03*
X74800Y-48650D03*
X74800Y-48400D03*
X74800Y-48140D03*
X74800Y-47890D03*
X74800Y-47630D03*
X74800Y-47370D03*
X74800Y-47120D03*
X74800Y-46860D03*
X74800Y-46600D03*
X74800Y-46350D03*
G54D17*
X77476Y-47450D03*
X77476Y-47950D03*
X77476Y-48450D03*
X77476Y-48950D03*
X79523Y-48950D03*
X79523Y-48450D03*
X79523Y-47950D03*
X79523Y-47450D03*
G54D11*
X79500Y-49800D03*
X79500Y-46500D03*
G54D18*
X67862Y-41700D03*
X72535Y-41700D03*
G54D19*
X71950Y-44200D03*
G54D20*
X71450Y-45200D03*
X70950Y-44200D03*
X70450Y-45200D03*
X69950Y-44200D03*
X69450Y-45200D03*
X68950Y-44200D03*
X68450Y-45200D03*
G54D18*
X74762Y-41700D03*
X79435Y-41700D03*
G54D19*
X78850Y-44200D03*
G54D20*
X78350Y-45200D03*
X77850Y-44200D03*
X77350Y-45200D03*
X76850Y-44200D03*
X76350Y-45200D03*
X75850Y-44200D03*
X75350Y-45200D03*
G54D12*
X76000Y-46441D03*
X76000Y-47559D03*
G54D11*
X63000Y-49800D03*
X63000Y-46500D03*
G54D12*
X61500Y-49559D03*
X61500Y-48441D03*
G54D13*
X53115Y-47890D03*
X53115Y-47580D03*
X53115Y-48200D03*
X53115Y-48510D03*
G54D14*
X55320Y-49950D03*
X53150Y-49950D03*
X53150Y-46450D03*
X55320Y-46450D03*
G54D13*
X53115Y-48820D03*
G54D15*
X54130Y-49065D03*
X54130Y-47335D03*
G54D16*
X57500Y-46350D03*
X57500Y-46600D03*
X57500Y-46860D03*
X57500Y-47120D03*
X57500Y-47370D03*
X57500Y-47630D03*
X57500Y-47890D03*
X57500Y-48140D03*
X57500Y-48400D03*
X57500Y-48650D03*
X57500Y-48910D03*
X57500Y-49170D03*
X57500Y-49420D03*
X57500Y-49680D03*
X60300Y-49680D03*
X60300Y-49420D03*
X60300Y-49180D03*
X60300Y-48910D03*
X60300Y-48650D03*
X60300Y-48400D03*
X60300Y-48140D03*
X60300Y-47890D03*
X60300Y-47630D03*
X60300Y-47370D03*
X60300Y-47120D03*
X60300Y-46860D03*
X60300Y-46600D03*
X60300Y-46350D03*
G54D17*
X62976Y-47450D03*
X62976Y-47950D03*
X62976Y-48450D03*
X62976Y-48950D03*
X65023Y-48950D03*
X65023Y-48450D03*
X65023Y-47950D03*
X65023Y-47450D03*
G54D11*
X65000Y-49800D03*
X65000Y-46500D03*
G54D18*
X53362Y-41700D03*
X58035Y-41700D03*
G54D19*
X57450Y-44200D03*
G54D20*
X56950Y-45200D03*
X56450Y-44200D03*
X55950Y-45200D03*
X55450Y-44200D03*
X54950Y-45200D03*
X54450Y-44200D03*
X53950Y-45200D03*
G54D18*
X60262Y-41700D03*
X64935Y-41700D03*
G54D19*
X64350Y-44200D03*
G54D20*
X63850Y-45200D03*
X63350Y-44200D03*
X62850Y-45200D03*
X62350Y-44200D03*
X61850Y-45200D03*
X61350Y-44200D03*
X60850Y-45200D03*
G54D12*
X61500Y-46441D03*
X61500Y-47559D03*
G54D11*
X48600Y-49800D03*
X48600Y-46500D03*
G54D12*
X47100Y-49559D03*
X47100Y-48441D03*
G54D13*
X38715Y-47890D03*
X38715Y-47580D03*
X38715Y-48200D03*
X38715Y-48510D03*
G54D14*
X40920Y-49950D03*
X38750Y-49950D03*
X38750Y-46450D03*
X40920Y-46450D03*
G54D13*
X38715Y-48820D03*
G54D15*
X39730Y-49065D03*
X39730Y-47335D03*
G54D16*
X43100Y-46350D03*
X43100Y-46600D03*
X43100Y-46860D03*
X43100Y-47120D03*
X43100Y-47370D03*
X43100Y-47630D03*
X43100Y-47890D03*
X43100Y-48140D03*
X43100Y-48400D03*
X43100Y-48650D03*
X43100Y-48910D03*
X43100Y-49170D03*
X43100Y-49420D03*
X43100Y-49680D03*
X45900Y-49680D03*
X45900Y-49420D03*
X45900Y-49180D03*
X45900Y-48910D03*
X45900Y-48650D03*
X45900Y-48400D03*
X45900Y-48140D03*
X45900Y-47890D03*
X45900Y-47630D03*
X45900Y-47370D03*
X45900Y-47120D03*
X45900Y-46860D03*
X45900Y-46600D03*
X45900Y-46350D03*
G54D17*
X48576Y-47450D03*
X48576Y-47950D03*
X48576Y-48450D03*
X48576Y-48950D03*
X50623Y-48950D03*
X50623Y-48450D03*
X50623Y-47950D03*
X50623Y-47450D03*
G54D11*
X50600Y-49800D03*
X50600Y-46500D03*
G54D18*
X38962Y-41700D03*
X43635Y-41700D03*
G54D19*
X43050Y-44200D03*
G54D20*
X42550Y-45200D03*
X42050Y-44200D03*
X41550Y-45200D03*
X41050Y-44200D03*
X40550Y-45200D03*
X40050Y-44200D03*
X39550Y-45200D03*
G54D18*
X45862Y-41700D03*
X50535Y-41700D03*
G54D19*
X49950Y-44200D03*
G54D20*
X49450Y-45200D03*
X48950Y-44200D03*
X48450Y-45200D03*
X47950Y-44200D03*
X47450Y-45200D03*
X46950Y-44200D03*
X46450Y-45200D03*
G54D12*
X47100Y-46441D03*
X47100Y-47559D03*
X32600Y-46441D03*
X32600Y-47559D03*
G54D18*
X31362Y-41700D03*
X36035Y-41700D03*
G54D19*
X35450Y-44200D03*
G54D20*
X34950Y-45200D03*
X34450Y-44200D03*
X33950Y-45200D03*
X33450Y-44200D03*
X32950Y-45200D03*
X32450Y-44200D03*
X31950Y-45200D03*
G54D18*
X24462Y-41700D03*
X29135Y-41700D03*
G54D19*
X28550Y-44200D03*
G54D20*
X28050Y-45200D03*
X27550Y-44200D03*
X27050Y-45200D03*
X26550Y-44200D03*
X26050Y-45200D03*
X25550Y-44200D03*
X25050Y-45200D03*
G54D11*
X36100Y-46500D03*
X36100Y-49800D03*
G54D17*
X34076Y-47450D03*
X34076Y-47950D03*
X34076Y-48450D03*
X34076Y-48950D03*
X36123Y-48950D03*
X36123Y-48450D03*
X36123Y-47950D03*
X36123Y-47450D03*
G54D16*
X28600Y-46350D03*
X28600Y-46600D03*
X28600Y-46860D03*
X28600Y-47120D03*
X28600Y-47370D03*
X28600Y-47630D03*
X28600Y-47890D03*
X28600Y-48140D03*
X28600Y-48400D03*
X28600Y-48650D03*
X28600Y-48910D03*
X28600Y-49170D03*
X28600Y-49420D03*
X28600Y-49680D03*
X31400Y-49680D03*
X31400Y-49420D03*
X31400Y-49180D03*
X31400Y-48910D03*
X31400Y-48650D03*
X31400Y-48400D03*
X31400Y-48140D03*
X31400Y-47890D03*
X31400Y-47630D03*
X31400Y-47370D03*
X31400Y-47120D03*
X31400Y-46860D03*
X31400Y-46600D03*
X31400Y-46350D03*
G54D13*
X24215Y-47890D03*
X24215Y-47580D03*
X24215Y-48200D03*
X24215Y-48510D03*
G54D14*
X26420Y-49950D03*
X24250Y-49950D03*
X24250Y-46450D03*
X26420Y-46450D03*
G54D13*
X24215Y-48820D03*
G54D15*
X25230Y-49065D03*
X25230Y-47335D03*
G54D12*
X32600Y-49559D03*
X32600Y-48441D03*
G54D11*
X34100Y-46500D03*
X34100Y-49800D03*
G54D12*
X90500Y-46441D03*
X90500Y-47559D03*
G54D18*
X89262Y-41700D03*
X93935Y-41700D03*
G54D19*
X93350Y-44200D03*
G54D20*
X92850Y-45200D03*
X92350Y-44200D03*
X91850Y-45200D03*
X91350Y-44200D03*
X90850Y-45200D03*
X90350Y-44200D03*
X89850Y-45200D03*
G54D18*
X82362Y-41700D03*
X87035Y-41700D03*
G54D19*
X86450Y-44200D03*
G54D20*
X85950Y-45200D03*
X85450Y-44200D03*
X84950Y-45200D03*
X84450Y-44200D03*
X83950Y-45200D03*
X83450Y-44200D03*
X82950Y-45200D03*
G54D11*
X94000Y-46500D03*
X94000Y-49800D03*
G54D17*
X91976Y-47450D03*
X91976Y-47950D03*
X91976Y-48450D03*
X91976Y-48950D03*
X94023Y-48950D03*
X94023Y-48450D03*
X94023Y-47950D03*
X94023Y-47450D03*
G54D16*
X86500Y-46350D03*
X86500Y-46600D03*
X86500Y-46860D03*
X86500Y-47120D03*
X86500Y-47370D03*
X86500Y-47630D03*
X86500Y-47890D03*
X86500Y-48140D03*
X86500Y-48400D03*
X86500Y-48650D03*
X86500Y-48910D03*
X86500Y-49170D03*
X86500Y-49420D03*
X86500Y-49680D03*
X89300Y-49680D03*
X89300Y-49420D03*
X89300Y-49180D03*
X89300Y-48910D03*
X89300Y-48650D03*
X89300Y-48400D03*
X89300Y-48140D03*
X89300Y-47890D03*
X89300Y-47630D03*
X89300Y-47370D03*
X89300Y-47120D03*
X89300Y-46860D03*
X89300Y-46600D03*
X89300Y-46350D03*
G54D13*
X82115Y-47890D03*
X82115Y-47580D03*
X82115Y-48200D03*
X82115Y-48510D03*
G54D14*
X84320Y-49950D03*
X82150Y-49950D03*
X82150Y-46450D03*
X84320Y-46450D03*
G54D13*
X82115Y-48820D03*
G54D15*
X83130Y-49065D03*
X83130Y-47335D03*
G54D12*
X90500Y-49559D03*
X90500Y-48441D03*
G54D11*
X92000Y-46500D03*
X92000Y-49800D03*
X92000Y-36800D03*
X92000Y-33500D03*
G54D12*
X90500Y-36559D03*
X90500Y-35441D03*
G54D13*
X82115Y-34890D03*
X82115Y-34580D03*
X82115Y-35200D03*
X82115Y-35510D03*
G54D14*
X84320Y-36950D03*
X82150Y-36950D03*
X82150Y-33450D03*
X84320Y-33450D03*
G54D13*
X82115Y-35820D03*
G54D15*
X83130Y-36065D03*
X83130Y-34335D03*
G54D16*
X86500Y-33350D03*
X86500Y-33600D03*
X86500Y-33860D03*
X86500Y-34120D03*
X86500Y-34370D03*
X86500Y-34630D03*
X86500Y-34890D03*
X86500Y-35140D03*
X86500Y-35400D03*
X86500Y-35650D03*
X86500Y-35910D03*
X86500Y-36170D03*
X86500Y-36420D03*
X86500Y-36680D03*
X89300Y-36680D03*
X89300Y-36420D03*
X89300Y-36180D03*
X89300Y-35910D03*
X89300Y-35650D03*
X89300Y-35400D03*
X89300Y-35140D03*
X89300Y-34890D03*
X89300Y-34630D03*
X89300Y-34370D03*
X89300Y-34120D03*
X89300Y-33860D03*
X89300Y-33600D03*
X89300Y-33350D03*
G54D17*
X91976Y-34450D03*
X91976Y-34950D03*
X91976Y-35450D03*
X91976Y-35950D03*
X94023Y-35950D03*
X94023Y-35450D03*
X94023Y-34950D03*
X94023Y-34450D03*
G54D11*
X94000Y-36800D03*
X94000Y-33500D03*
G54D18*
X82362Y-28700D03*
X87035Y-28700D03*
G54D19*
X86450Y-31200D03*
G54D20*
X85950Y-32200D03*
X85450Y-31200D03*
X84950Y-32200D03*
X84450Y-31200D03*
X83950Y-32200D03*
X83450Y-31200D03*
X82950Y-32200D03*
G54D18*
X89262Y-28700D03*
X93935Y-28700D03*
G54D19*
X93350Y-31200D03*
G54D20*
X92850Y-32200D03*
X92350Y-31200D03*
X91850Y-32200D03*
X91350Y-31200D03*
X90850Y-32200D03*
X90350Y-31200D03*
X89850Y-32200D03*
G54D12*
X90500Y-33441D03*
X90500Y-34559D03*
G54D11*
X34100Y-36800D03*
X34100Y-33500D03*
G54D12*
X32600Y-36559D03*
X32600Y-35441D03*
G54D13*
X24215Y-34890D03*
X24215Y-34580D03*
X24215Y-35200D03*
X24215Y-35510D03*
G54D14*
X26420Y-36950D03*
X24250Y-36950D03*
X24250Y-33450D03*
X26420Y-33450D03*
G54D13*
X24215Y-35820D03*
G54D15*
X25230Y-36065D03*
X25230Y-34335D03*
G54D16*
X28600Y-33350D03*
X28600Y-33600D03*
X28600Y-33860D03*
X28600Y-34120D03*
X28600Y-34370D03*
X28600Y-34630D03*
X28600Y-34890D03*
X28600Y-35140D03*
X28600Y-35400D03*
X28600Y-35650D03*
X28600Y-35910D03*
X28600Y-36170D03*
X28600Y-36420D03*
X28600Y-36680D03*
X31400Y-36680D03*
X31400Y-36420D03*
X31400Y-36180D03*
X31400Y-35910D03*
X31400Y-35650D03*
X31400Y-35400D03*
X31400Y-35140D03*
X31400Y-34890D03*
X31400Y-34630D03*
X31400Y-34370D03*
X31400Y-34120D03*
X31400Y-33860D03*
X31400Y-33600D03*
X31400Y-33350D03*
G54D17*
X34076Y-34450D03*
X34076Y-34950D03*
X34076Y-35450D03*
X34076Y-35950D03*
X36123Y-35950D03*
X36123Y-35450D03*
X36123Y-34950D03*
X36123Y-34450D03*
G54D11*
X36100Y-36800D03*
X36100Y-33500D03*
G54D18*
X24462Y-28700D03*
X29135Y-28700D03*
G54D19*
X28550Y-31200D03*
G54D20*
X28050Y-32200D03*
X27550Y-31200D03*
X27050Y-32200D03*
X26550Y-31200D03*
X26050Y-32200D03*
X25550Y-31200D03*
X25050Y-32200D03*
G54D18*
X31362Y-28700D03*
X36035Y-28700D03*
G54D19*
X35450Y-31200D03*
G54D20*
X34950Y-32200D03*
X34450Y-31200D03*
X33950Y-32200D03*
X33450Y-31200D03*
X32950Y-32200D03*
X32450Y-31200D03*
X31950Y-32200D03*
G54D12*
X32600Y-33441D03*
X32600Y-34559D03*
X47100Y-33441D03*
X47100Y-34559D03*
G54D18*
X45862Y-28700D03*
X50535Y-28700D03*
G54D19*
X49950Y-31200D03*
G54D20*
X49450Y-32200D03*
X48950Y-31200D03*
X48450Y-32200D03*
X47950Y-31200D03*
X47450Y-32200D03*
X46950Y-31200D03*
X46450Y-32200D03*
G54D18*
X38962Y-28700D03*
X43635Y-28700D03*
G54D19*
X43050Y-31200D03*
G54D20*
X42550Y-32200D03*
X42050Y-31200D03*
X41550Y-32200D03*
X41050Y-31200D03*
X40550Y-32200D03*
X40050Y-31200D03*
X39550Y-32200D03*
G54D11*
X50600Y-33500D03*
X50600Y-36800D03*
G54D17*
X48576Y-34450D03*
X48576Y-34950D03*
X48576Y-35450D03*
X48576Y-35950D03*
X50623Y-35950D03*
X50623Y-35450D03*
X50623Y-34950D03*
X50623Y-34450D03*
G54D16*
X43100Y-33350D03*
X43100Y-33600D03*
X43100Y-33860D03*
X43100Y-34120D03*
X43100Y-34370D03*
X43100Y-34630D03*
X43100Y-34890D03*
X43100Y-35140D03*
X43100Y-35400D03*
X43100Y-35650D03*
X43100Y-35910D03*
X43100Y-36170D03*
X43100Y-36420D03*
X43100Y-36680D03*
X45900Y-36680D03*
X45900Y-36420D03*
X45900Y-36180D03*
X45900Y-35910D03*
X45900Y-35650D03*
X45900Y-35400D03*
X45900Y-35140D03*
X45900Y-34890D03*
X45900Y-34630D03*
X45900Y-34370D03*
X45900Y-34120D03*
X45900Y-33860D03*
X45900Y-33600D03*
X45900Y-33350D03*
G54D13*
X38715Y-34890D03*
X38715Y-34580D03*
X38715Y-35200D03*
X38715Y-35510D03*
G54D14*
X40920Y-36950D03*
X38750Y-36950D03*
X38750Y-33450D03*
X40920Y-33450D03*
G54D13*
X38715Y-35820D03*
G54D15*
X39730Y-36065D03*
X39730Y-34335D03*
G54D12*
X47100Y-36559D03*
X47100Y-35441D03*
G54D11*
X48600Y-33500D03*
X48600Y-36800D03*
G54D12*
X61500Y-33441D03*
X61500Y-34559D03*
G54D18*
X60262Y-28700D03*
X64935Y-28700D03*
G54D19*
X64350Y-31200D03*
G54D20*
X63850Y-32200D03*
X63350Y-31200D03*
X62850Y-32200D03*
X62350Y-31200D03*
X61850Y-32200D03*
X61350Y-31200D03*
X60850Y-32200D03*
G54D18*
X53362Y-28700D03*
X58035Y-28700D03*
G54D19*
X57450Y-31200D03*
G54D20*
X56950Y-32200D03*
X56450Y-31200D03*
X55950Y-32200D03*
X55450Y-31200D03*
X54950Y-32200D03*
X54450Y-31200D03*
X53950Y-32200D03*
G54D11*
X65000Y-33500D03*
X65000Y-36800D03*
G54D17*
X62976Y-34450D03*
X62976Y-34950D03*
X62976Y-35450D03*
X62976Y-35950D03*
X65023Y-35950D03*
X65023Y-35450D03*
X65023Y-34950D03*
X65023Y-34450D03*
G54D16*
X57500Y-33350D03*
X57500Y-33600D03*
X57500Y-33860D03*
X57500Y-34120D03*
X57500Y-34370D03*
X57500Y-34630D03*
X57500Y-34890D03*
X57500Y-35140D03*
X57500Y-35400D03*
X57500Y-35650D03*
X57500Y-35910D03*
X57500Y-36170D03*
X57500Y-36420D03*
X57500Y-36680D03*
X60300Y-36680D03*
X60300Y-36420D03*
X60300Y-36180D03*
X60300Y-35910D03*
X60300Y-35650D03*
X60300Y-35400D03*
X60300Y-35140D03*
X60300Y-34890D03*
X60300Y-34630D03*
X60300Y-34370D03*
X60300Y-34120D03*
X60300Y-33860D03*
X60300Y-33600D03*
X60300Y-33350D03*
G54D13*
X53115Y-34890D03*
X53115Y-34580D03*
X53115Y-35200D03*
X53115Y-35510D03*
G54D14*
X55320Y-36950D03*
X53150Y-36950D03*
X53150Y-33450D03*
X55320Y-33450D03*
G54D13*
X53115Y-35820D03*
G54D15*
X54130Y-36065D03*
X54130Y-34335D03*
G54D12*
X61500Y-36559D03*
X61500Y-35441D03*
G54D11*
X63000Y-33500D03*
X63000Y-36800D03*
G54D12*
X76000Y-33441D03*
X76000Y-34559D03*
G54D18*
X74762Y-28700D03*
X79435Y-28700D03*
G54D19*
X78850Y-31200D03*
G54D20*
X78350Y-32200D03*
X77850Y-31200D03*
X77350Y-32200D03*
X76850Y-31200D03*
X76350Y-32200D03*
X75850Y-31200D03*
X75350Y-32200D03*
G54D18*
X67862Y-28700D03*
X72535Y-28700D03*
G54D19*
X71950Y-31200D03*
G54D20*
X71450Y-32200D03*
X70950Y-31200D03*
X70450Y-32200D03*
X69950Y-31200D03*
X69450Y-32200D03*
X68950Y-31200D03*
X68450Y-32200D03*
G54D11*
X79500Y-33500D03*
X79500Y-36800D03*
G54D17*
X77476Y-34450D03*
X77476Y-34950D03*
X77476Y-35450D03*
X77476Y-35950D03*
X79523Y-35950D03*
X79523Y-35450D03*
X79523Y-34950D03*
X79523Y-34450D03*
G54D16*
X72000Y-33350D03*
X72000Y-33600D03*
X72000Y-33860D03*
X72000Y-34120D03*
X72000Y-34370D03*
X72000Y-34630D03*
X72000Y-34890D03*
X72000Y-35140D03*
X72000Y-35400D03*
X72000Y-35650D03*
X72000Y-35910D03*
X72000Y-36170D03*
X72000Y-36420D03*
X72000Y-36680D03*
X74800Y-36680D03*
X74800Y-36420D03*
X74800Y-36180D03*
X74800Y-35910D03*
X74800Y-35650D03*
X74800Y-35400D03*
X74800Y-35140D03*
X74800Y-34890D03*
X74800Y-34630D03*
X74800Y-34370D03*
X74800Y-34120D03*
X74800Y-33860D03*
X74800Y-33600D03*
X74800Y-33350D03*
G54D13*
X67615Y-34890D03*
X67615Y-34580D03*
X67615Y-35200D03*
X67615Y-35510D03*
G54D14*
X69820Y-36950D03*
X67650Y-36950D03*
X67650Y-33450D03*
X69820Y-33450D03*
G54D13*
X67615Y-35820D03*
G54D15*
X68630Y-36065D03*
X68630Y-34335D03*
G54D12*
X76000Y-36559D03*
X76000Y-35441D03*
G54D11*
X77500Y-33500D03*
X77500Y-36800D03*
X77500Y-23800D03*
X77500Y-20500D03*
G54D12*
X76000Y-23559D03*
X76000Y-22441D03*
G54D13*
X67615Y-21890D03*
X67615Y-21580D03*
X67615Y-22200D03*
X67615Y-22510D03*
G54D14*
X69820Y-23950D03*
X67650Y-23950D03*
X67650Y-20450D03*
X69820Y-20450D03*
G54D13*
X67615Y-22820D03*
G54D15*
X68630Y-23065D03*
X68630Y-21335D03*
G54D16*
X72000Y-20350D03*
X72000Y-20600D03*
X72000Y-20860D03*
X72000Y-21120D03*
X72000Y-21370D03*
X72000Y-21630D03*
X72000Y-21890D03*
X72000Y-22140D03*
X72000Y-22400D03*
X72000Y-22650D03*
X72000Y-22910D03*
X72000Y-23170D03*
X72000Y-23420D03*
X72000Y-23680D03*
X74800Y-23680D03*
X74800Y-23420D03*
X74800Y-23180D03*
X74800Y-22910D03*
X74800Y-22650D03*
X74800Y-22400D03*
X74800Y-22140D03*
X74800Y-21890D03*
X74800Y-21630D03*
X74800Y-21370D03*
X74800Y-21120D03*
X74800Y-20860D03*
X74800Y-20600D03*
X74800Y-20350D03*
G54D17*
X77476Y-21450D03*
X77476Y-21950D03*
X77476Y-22450D03*
X77476Y-22950D03*
X79523Y-22950D03*
X79523Y-22450D03*
X79523Y-21950D03*
X79523Y-21450D03*
G54D11*
X79500Y-23800D03*
X79500Y-20500D03*
G54D18*
X67862Y-15700D03*
X72535Y-15700D03*
G54D19*
X71950Y-18200D03*
G54D20*
X71450Y-19200D03*
X70950Y-18200D03*
X70450Y-19200D03*
X69950Y-18200D03*
X69450Y-19200D03*
X68950Y-18200D03*
X68450Y-19200D03*
G54D18*
X74762Y-15700D03*
X79435Y-15700D03*
G54D19*
X78850Y-18200D03*
G54D20*
X78350Y-19200D03*
X77850Y-18200D03*
X77350Y-19200D03*
X76850Y-18200D03*
X76350Y-19200D03*
X75850Y-18200D03*
X75350Y-19200D03*
G54D12*
X76000Y-20441D03*
X76000Y-21559D03*
G54D11*
X63000Y-23800D03*
X63000Y-20500D03*
G54D12*
X61500Y-23559D03*
X61500Y-22441D03*
G54D13*
X53115Y-21890D03*
X53115Y-21580D03*
X53115Y-22200D03*
X53115Y-22510D03*
G54D14*
X55320Y-23950D03*
X53150Y-23950D03*
X53150Y-20450D03*
X55320Y-20450D03*
G54D13*
X53115Y-22820D03*
G54D15*
X54130Y-23065D03*
X54130Y-21335D03*
G54D16*
X57500Y-20350D03*
X57500Y-20600D03*
X57500Y-20860D03*
X57500Y-21120D03*
X57500Y-21370D03*
X57500Y-21630D03*
X57500Y-21890D03*
X57500Y-22140D03*
X57500Y-22400D03*
X57500Y-22650D03*
X57500Y-22910D03*
X57500Y-23170D03*
X57500Y-23420D03*
X57500Y-23680D03*
X60300Y-23680D03*
X60300Y-23420D03*
X60300Y-23180D03*
X60300Y-22910D03*
X60300Y-22650D03*
X60300Y-22400D03*
X60300Y-22140D03*
X60300Y-21890D03*
X60300Y-21630D03*
X60300Y-21370D03*
X60300Y-21120D03*
X60300Y-20860D03*
X60300Y-20600D03*
X60300Y-20350D03*
G54D17*
X62976Y-21450D03*
X62976Y-21950D03*
X62976Y-22450D03*
X62976Y-22950D03*
X65023Y-22950D03*
X65023Y-22450D03*
X65023Y-21950D03*
X65023Y-21450D03*
G54D11*
X65000Y-23800D03*
X65000Y-20500D03*
G54D18*
X53362Y-15700D03*
X58035Y-15700D03*
G54D19*
X57450Y-18200D03*
G54D20*
X56950Y-19200D03*
X56450Y-18200D03*
X55950Y-19200D03*
X55450Y-18200D03*
X54950Y-19200D03*
X54450Y-18200D03*
X53950Y-19200D03*
G54D18*
X60262Y-15700D03*
X64935Y-15700D03*
G54D19*
X64350Y-18200D03*
G54D20*
X63850Y-19200D03*
X63350Y-18200D03*
X62850Y-19200D03*
X62350Y-18200D03*
X61850Y-19200D03*
X61350Y-18200D03*
X60850Y-19200D03*
G54D12*
X61500Y-20441D03*
X61500Y-21559D03*
G54D11*
X48600Y-23800D03*
X48600Y-20500D03*
G54D12*
X47100Y-23559D03*
X47100Y-22441D03*
G54D13*
X38715Y-21890D03*
X38715Y-21580D03*
X38715Y-22200D03*
X38715Y-22510D03*
G54D14*
X40920Y-23950D03*
X38750Y-23950D03*
X38750Y-20450D03*
X40920Y-20450D03*
G54D13*
X38715Y-22820D03*
G54D15*
X39730Y-23065D03*
X39730Y-21335D03*
G54D16*
X43100Y-20350D03*
X43100Y-20600D03*
X43100Y-20860D03*
X43100Y-21120D03*
X43100Y-21370D03*
X43100Y-21630D03*
X43100Y-21890D03*
X43100Y-22140D03*
X43100Y-22400D03*
X43100Y-22650D03*
X43100Y-22910D03*
X43100Y-23170D03*
X43100Y-23420D03*
X43100Y-23680D03*
X45900Y-23680D03*
X45900Y-23420D03*
X45900Y-23180D03*
X45900Y-22910D03*
X45900Y-22650D03*
X45900Y-22400D03*
X45900Y-22140D03*
X45900Y-21890D03*
X45900Y-21630D03*
X45900Y-21370D03*
X45900Y-21120D03*
X45900Y-20860D03*
X45900Y-20600D03*
X45900Y-20350D03*
G54D17*
X48576Y-21450D03*
X48576Y-21950D03*
X48576Y-22450D03*
X48576Y-22950D03*
X50623Y-22950D03*
X50623Y-22450D03*
X50623Y-21950D03*
X50623Y-21450D03*
G54D11*
X50600Y-23800D03*
X50600Y-20500D03*
G54D18*
X38962Y-15700D03*
X43635Y-15700D03*
G54D19*
X43050Y-18200D03*
G54D20*
X42550Y-19200D03*
X42050Y-18200D03*
X41550Y-19200D03*
X41050Y-18200D03*
X40550Y-19200D03*
X40050Y-18200D03*
X39550Y-19200D03*
G54D18*
X45862Y-15700D03*
X50535Y-15700D03*
G54D19*
X49950Y-18200D03*
G54D20*
X49450Y-19200D03*
X48950Y-18200D03*
X48450Y-19200D03*
X47950Y-18200D03*
X47450Y-19200D03*
X46950Y-18200D03*
X46450Y-19200D03*
G54D12*
X47100Y-20441D03*
X47100Y-21559D03*
X32600Y-20441D03*
X32600Y-21559D03*
G54D18*
X31362Y-15700D03*
X36035Y-15700D03*
G54D19*
X35450Y-18200D03*
G54D20*
X34950Y-19200D03*
X34450Y-18200D03*
X33950Y-19200D03*
X33450Y-18200D03*
X32950Y-19200D03*
X32450Y-18200D03*
X31950Y-19200D03*
G54D18*
X24462Y-15700D03*
X29135Y-15700D03*
G54D19*
X28550Y-18200D03*
G54D20*
X28050Y-19200D03*
X27550Y-18200D03*
X27050Y-19200D03*
X26550Y-18200D03*
X26050Y-19200D03*
X25550Y-18200D03*
X25050Y-19200D03*
G54D11*
X36100Y-20500D03*
X36100Y-23800D03*
G54D17*
X34076Y-21450D03*
X34076Y-21950D03*
X34076Y-22450D03*
X34076Y-22950D03*
X36123Y-22950D03*
X36123Y-22450D03*
X36123Y-21950D03*
X36123Y-21450D03*
G54D16*
X28600Y-20350D03*
X28600Y-20600D03*
X28600Y-20860D03*
X28600Y-21120D03*
X28600Y-21370D03*
X28600Y-21630D03*
X28600Y-21890D03*
X28600Y-22140D03*
X28600Y-22400D03*
X28600Y-22650D03*
X28600Y-22910D03*
X28600Y-23170D03*
X28600Y-23420D03*
X28600Y-23680D03*
X31400Y-23680D03*
X31400Y-23420D03*
X31400Y-23180D03*
X31400Y-22910D03*
X31400Y-22650D03*
X31400Y-22400D03*
X31400Y-22140D03*
X31400Y-21890D03*
X31400Y-21630D03*
X31400Y-21370D03*
X31400Y-21120D03*
X31400Y-20860D03*
X31400Y-20600D03*
X31400Y-20350D03*
G54D13*
X24215Y-21890D03*
X24215Y-21580D03*
X24215Y-22200D03*
X24215Y-22510D03*
G54D14*
X26420Y-23950D03*
X24250Y-23950D03*
X24250Y-20450D03*
X26420Y-20450D03*
G54D13*
X24215Y-22820D03*
G54D15*
X25230Y-23065D03*
X25230Y-21335D03*
G54D12*
X32600Y-23559D03*
X32600Y-22441D03*
G54D11*
X34100Y-20500D03*
X34100Y-23800D03*
G54D12*
X90500Y-20441D03*
X90500Y-21559D03*
G54D18*
X89262Y-15700D03*
X93935Y-15700D03*
G54D19*
X93350Y-18200D03*
G54D20*
X92850Y-19200D03*
X92350Y-18200D03*
X91850Y-19200D03*
X91350Y-18200D03*
X90850Y-19200D03*
X90350Y-18200D03*
X89850Y-19200D03*
G54D18*
X82362Y-15700D03*
X87035Y-15700D03*
G54D19*
X86450Y-18200D03*
G54D20*
X85950Y-19200D03*
X85450Y-18200D03*
X84950Y-19200D03*
X84450Y-18200D03*
X83950Y-19200D03*
X83450Y-18200D03*
X82950Y-19200D03*
G54D11*
X94000Y-20500D03*
X94000Y-23800D03*
G54D17*
X91976Y-21450D03*
X91976Y-21950D03*
X91976Y-22450D03*
X91976Y-22950D03*
X94023Y-22950D03*
X94023Y-22450D03*
X94023Y-21950D03*
X94023Y-21450D03*
G54D16*
X86500Y-20350D03*
X86500Y-20600D03*
X86500Y-20860D03*
X86500Y-21120D03*
X86500Y-21370D03*
X86500Y-21630D03*
X86500Y-21890D03*
X86500Y-22140D03*
X86500Y-22400D03*
X86500Y-22650D03*
X86500Y-22910D03*
X86500Y-23170D03*
X86500Y-23420D03*
X86500Y-23680D03*
X89300Y-23680D03*
X89300Y-23420D03*
X89300Y-23180D03*
X89300Y-22910D03*
X89300Y-22650D03*
X89300Y-22400D03*
X89300Y-22140D03*
X89300Y-21890D03*
X89300Y-21630D03*
X89300Y-21370D03*
X89300Y-21120D03*
X89300Y-20860D03*
X89300Y-20600D03*
X89300Y-20350D03*
G54D13*
X82115Y-21890D03*
X82115Y-21580D03*
X82115Y-22200D03*
X82115Y-22510D03*
G54D14*
X84320Y-23950D03*
X82150Y-23950D03*
X82150Y-20450D03*
X84320Y-20450D03*
G54D13*
X82115Y-22820D03*
G54D15*
X83130Y-23065D03*
X83130Y-21335D03*
G54D12*
X90500Y-23559D03*
X90500Y-22441D03*
G54D11*
X92000Y-20500D03*
X92000Y-23800D03*
G54D21*
X76000Y-49900D03*
X61500Y-49900D03*
X47100Y-49900D03*
X32600Y-49900D03*
X90500Y-49900D03*
X90500Y-36900D03*
X32600Y-36900D03*
X47100Y-36900D03*
X61500Y-36900D03*
X76000Y-36900D03*
X76000Y-23900D03*
X61500Y-23900D03*
X47100Y-23900D03*
X32600Y-23900D03*
X90500Y-23900D03*
X76000Y-46100D03*
X61500Y-46100D03*
X47100Y-46100D03*
X32600Y-46100D03*
X90500Y-46100D03*
X90500Y-33100D03*
X32600Y-33100D03*
X47100Y-33100D03*
X61500Y-33100D03*
X76000Y-33100D03*
X76000Y-20100D03*
X61500Y-20100D03*
X47100Y-20100D03*
X32600Y-20100D03*
X90500Y-20100D03*
X73436Y-49229D03*
X58936Y-49229D03*
X44536Y-49229D03*
X30036Y-49229D03*
X87936Y-49229D03*
X87936Y-36229D03*
X30036Y-36229D03*
X44536Y-36229D03*
X58936Y-36229D03*
X73436Y-36229D03*
X73436Y-23229D03*
X58936Y-23229D03*
X44536Y-23229D03*
X30036Y-23229D03*
X87936Y-23229D03*
X78250Y-48280D03*
X63750Y-48280D03*
X49350Y-48280D03*
X34850Y-48280D03*
X92750Y-48280D03*
X92750Y-35280D03*
X34850Y-35280D03*
X49350Y-35280D03*
X63750Y-35280D03*
X78250Y-35280D03*
X78250Y-22280D03*
X63750Y-22280D03*
X49350Y-22280D03*
X34850Y-22280D03*
X92750Y-22280D03*
X71255Y-47120D03*
X68095Y-49193D03*
X73361Y-48400D03*
X56755Y-47120D03*
X53595Y-49193D03*
X58861Y-48400D03*
X42355Y-47120D03*
X39195Y-49193D03*
X44461Y-48400D03*
X29961Y-48400D03*
X24695Y-49193D03*
X27855Y-47120D03*
X87861Y-48400D03*
X82595Y-49193D03*
X85755Y-47120D03*
X85755Y-34120D03*
X82595Y-36193D03*
X87861Y-35400D03*
X27855Y-34120D03*
X24695Y-36193D03*
X29961Y-35400D03*
X44461Y-35400D03*
X39195Y-36193D03*
X42355Y-34120D03*
X58861Y-35400D03*
X53595Y-36193D03*
X56755Y-34120D03*
X73361Y-35400D03*
X68095Y-36193D03*
X71255Y-34120D03*
X71255Y-21120D03*
X68095Y-23193D03*
X73361Y-22400D03*
X56755Y-21120D03*
X53595Y-23193D03*
X58861Y-22400D03*
X42355Y-21120D03*
X39195Y-23193D03*
X44461Y-22400D03*
X29961Y-22400D03*
X24695Y-23193D03*
X27855Y-21120D03*
X87861Y-22400D03*
X82595Y-23193D03*
X85755Y-21120D03*
G54D22*
X78947Y-49195D02*
X78947Y-48950D01*
X79500Y-49636D02*
X79388Y-49636D01*
X79388Y-49636D02*
X78947Y-49195D01*
X75193Y-48910D02*
X76387Y-48910D01*
X76387Y-48910D02*
X77063Y-49586D01*
X77063Y-49586D02*
X77063Y-50197D01*
X77063Y-50197D02*
X77085Y-50219D01*
X77085Y-50219D02*
X77923Y-50219D01*
X77923Y-50219D02*
X78947Y-49195D01*
X74997Y-48910D02*
X75193Y-48910D01*
X74800Y-48910D02*
X74997Y-48910D01*
X74800Y-48140D02*
X75193Y-48140D01*
X75193Y-48140D02*
X75193Y-48910D01*
X74604Y-48140D02*
X74800Y-48140D01*
X74407Y-47890D02*
X74407Y-47120D01*
X74407Y-48140D02*
X74407Y-47890D01*
X72000Y-47890D02*
X74407Y-47890D01*
X67615Y-47890D02*
X72000Y-47890D01*
X79523Y-48950D02*
X78947Y-48950D01*
X74466Y-47120D02*
X74407Y-47061D01*
X74407Y-47061D02*
X74407Y-46860D01*
X74604Y-47120D02*
X74466Y-47120D01*
X74466Y-47120D02*
X74407Y-47120D01*
X74800Y-46860D02*
X74407Y-46860D01*
X74800Y-47120D02*
X74604Y-47120D01*
X74604Y-48140D02*
X74407Y-48140D01*
X79500Y-49800D02*
X79500Y-49636D01*
X64447Y-49195D02*
X64447Y-48950D01*
X65000Y-49636D02*
X64888Y-49636D01*
X64888Y-49636D02*
X64447Y-49195D01*
X60693Y-48910D02*
X61887Y-48910D01*
X61887Y-48910D02*
X62563Y-49586D01*
X62563Y-49586D02*
X62563Y-50197D01*
X62563Y-50197D02*
X62585Y-50219D01*
X62585Y-50219D02*
X63423Y-50219D01*
X63423Y-50219D02*
X64447Y-49195D01*
X60497Y-48910D02*
X60693Y-48910D01*
X60300Y-48910D02*
X60497Y-48910D01*
X60300Y-48140D02*
X60693Y-48140D01*
X60693Y-48140D02*
X60693Y-48910D01*
X60104Y-48140D02*
X60300Y-48140D01*
X59907Y-47890D02*
X59907Y-47120D01*
X59907Y-48140D02*
X59907Y-47890D01*
X57500Y-47890D02*
X59907Y-47890D01*
X53115Y-47890D02*
X57500Y-47890D01*
X65023Y-48950D02*
X64447Y-48950D01*
X59966Y-47120D02*
X59907Y-47061D01*
X59907Y-47061D02*
X59907Y-46860D01*
X60104Y-47120D02*
X59966Y-47120D01*
X59966Y-47120D02*
X59907Y-47120D01*
X60300Y-46860D02*
X59907Y-46860D01*
X60300Y-47120D02*
X60104Y-47120D01*
X60104Y-48140D02*
X59907Y-48140D01*
X65000Y-49800D02*
X65000Y-49636D01*
X50047Y-49195D02*
X50047Y-48950D01*
X50600Y-49636D02*
X50488Y-49636D01*
X50488Y-49636D02*
X50047Y-49195D01*
X46293Y-48910D02*
X47487Y-48910D01*
X47487Y-48910D02*
X48163Y-49586D01*
X48163Y-49586D02*
X48163Y-50197D01*
X48163Y-50197D02*
X48185Y-50219D01*
X48185Y-50219D02*
X49023Y-50219D01*
X49023Y-50219D02*
X50047Y-49195D01*
X46097Y-48910D02*
X46293Y-48910D01*
X45900Y-48910D02*
X46097Y-48910D01*
X45900Y-48140D02*
X46293Y-48140D01*
X46293Y-48140D02*
X46293Y-48910D01*
X45704Y-48140D02*
X45900Y-48140D01*
X45507Y-47890D02*
X45507Y-47120D01*
X45507Y-48140D02*
X45507Y-47890D01*
X43100Y-47890D02*
X45507Y-47890D01*
X38715Y-47890D02*
X43100Y-47890D01*
X50623Y-48950D02*
X50047Y-48950D01*
X45566Y-47120D02*
X45507Y-47061D01*
X45507Y-47061D02*
X45507Y-46860D01*
X45704Y-47120D02*
X45566Y-47120D01*
X45566Y-47120D02*
X45507Y-47120D01*
X45900Y-46860D02*
X45507Y-46860D01*
X45900Y-47120D02*
X45704Y-47120D01*
X45704Y-48140D02*
X45507Y-48140D01*
X50600Y-49800D02*
X50600Y-49636D01*
X36100Y-49800D02*
X36100Y-49636D01*
X31204Y-48140D02*
X31007Y-48140D01*
X31400Y-47120D02*
X31204Y-47120D01*
X31400Y-46860D02*
X31007Y-46860D01*
X31066Y-47120D02*
X31007Y-47120D01*
X31204Y-47120D02*
X31066Y-47120D01*
X31007Y-47061D02*
X31007Y-46860D01*
X31066Y-47120D02*
X31007Y-47061D01*
X36123Y-48950D02*
X35547Y-48950D01*
X24215Y-47890D02*
X28600Y-47890D01*
X28600Y-47890D02*
X31007Y-47890D01*
X31007Y-48140D02*
X31007Y-47890D01*
X31007Y-47890D02*
X31007Y-47120D01*
X31204Y-48140D02*
X31400Y-48140D01*
X31793Y-48140D02*
X31793Y-48910D01*
X31400Y-48140D02*
X31793Y-48140D01*
X31400Y-48910D02*
X31597Y-48910D01*
X31597Y-48910D02*
X31793Y-48910D01*
X34523Y-50219D02*
X35547Y-49195D01*
X33685Y-50219D02*
X34523Y-50219D01*
X33663Y-50197D02*
X33685Y-50219D01*
X33663Y-49586D02*
X33663Y-50197D01*
X32987Y-48910D02*
X33663Y-49586D01*
X31793Y-48910D02*
X32987Y-48910D01*
X35988Y-49636D02*
X35547Y-49195D01*
X36100Y-49636D02*
X35988Y-49636D01*
X35547Y-49195D02*
X35547Y-48950D01*
X94000Y-49800D02*
X94000Y-49636D01*
X89104Y-48140D02*
X88907Y-48140D01*
X89300Y-47120D02*
X89104Y-47120D01*
X89300Y-46860D02*
X88907Y-46860D01*
X88966Y-47120D02*
X88907Y-47120D01*
X89104Y-47120D02*
X88966Y-47120D01*
X88907Y-47061D02*
X88907Y-46860D01*
X88966Y-47120D02*
X88907Y-47061D01*
X94023Y-48950D02*
X93447Y-48950D01*
X82115Y-47890D02*
X86500Y-47890D01*
X86500Y-47890D02*
X88907Y-47890D01*
X88907Y-48140D02*
X88907Y-47890D01*
X88907Y-47890D02*
X88907Y-47120D01*
X89104Y-48140D02*
X89300Y-48140D01*
X89693Y-48140D02*
X89693Y-48910D01*
X89300Y-48140D02*
X89693Y-48140D01*
X89300Y-48910D02*
X89497Y-48910D01*
X89497Y-48910D02*
X89693Y-48910D01*
X92423Y-50219D02*
X93447Y-49195D01*
X91585Y-50219D02*
X92423Y-50219D01*
X91563Y-50197D02*
X91585Y-50219D01*
X91563Y-49586D02*
X91563Y-50197D01*
X90887Y-48910D02*
X91563Y-49586D01*
X89693Y-48910D02*
X90887Y-48910D01*
X93888Y-49636D02*
X93447Y-49195D01*
X94000Y-49636D02*
X93888Y-49636D01*
X93447Y-49195D02*
X93447Y-48950D01*
X93447Y-36195D02*
X93447Y-35950D01*
X94000Y-36636D02*
X93888Y-36636D01*
X93888Y-36636D02*
X93447Y-36195D01*
X89693Y-35910D02*
X90887Y-35910D01*
X90887Y-35910D02*
X91563Y-36586D01*
X91563Y-36586D02*
X91563Y-37197D01*
X91563Y-37197D02*
X91585Y-37219D01*
X91585Y-37219D02*
X92423Y-37219D01*
X92423Y-37219D02*
X93447Y-36195D01*
X89497Y-35910D02*
X89693Y-35910D01*
X89300Y-35910D02*
X89497Y-35910D01*
X89300Y-35140D02*
X89693Y-35140D01*
X89693Y-35140D02*
X89693Y-35910D01*
X89104Y-35140D02*
X89300Y-35140D01*
X88907Y-34890D02*
X88907Y-34120D01*
X88907Y-35140D02*
X88907Y-34890D01*
X86500Y-34890D02*
X88907Y-34890D01*
X82115Y-34890D02*
X86500Y-34890D01*
X94023Y-35950D02*
X93447Y-35950D01*
X88966Y-34120D02*
X88907Y-34061D01*
X88907Y-34061D02*
X88907Y-33860D01*
X89104Y-34120D02*
X88966Y-34120D01*
X88966Y-34120D02*
X88907Y-34120D01*
X89300Y-33860D02*
X88907Y-33860D01*
X89300Y-34120D02*
X89104Y-34120D01*
X89104Y-35140D02*
X88907Y-35140D01*
X94000Y-36800D02*
X94000Y-36636D01*
X35547Y-36195D02*
X35547Y-35950D01*
X36100Y-36636D02*
X35988Y-36636D01*
X35988Y-36636D02*
X35547Y-36195D01*
X31793Y-35910D02*
X32987Y-35910D01*
X32987Y-35910D02*
X33663Y-36586D01*
X33663Y-36586D02*
X33663Y-37197D01*
X33663Y-37197D02*
X33685Y-37219D01*
X33685Y-37219D02*
X34523Y-37219D01*
X34523Y-37219D02*
X35547Y-36195D01*
X31597Y-35910D02*
X31793Y-35910D01*
X31400Y-35910D02*
X31597Y-35910D01*
X31400Y-35140D02*
X31793Y-35140D01*
X31793Y-35140D02*
X31793Y-35910D01*
X31204Y-35140D02*
X31400Y-35140D01*
X31007Y-34890D02*
X31007Y-34120D01*
X31007Y-35140D02*
X31007Y-34890D01*
X28600Y-34890D02*
X31007Y-34890D01*
X24215Y-34890D02*
X28600Y-34890D01*
X36123Y-35950D02*
X35547Y-35950D01*
X31066Y-34120D02*
X31007Y-34061D01*
X31007Y-34061D02*
X31007Y-33860D01*
X31204Y-34120D02*
X31066Y-34120D01*
X31066Y-34120D02*
X31007Y-34120D01*
X31400Y-33860D02*
X31007Y-33860D01*
X31400Y-34120D02*
X31204Y-34120D01*
X31204Y-35140D02*
X31007Y-35140D01*
X36100Y-36800D02*
X36100Y-36636D01*
X50600Y-36800D02*
X50600Y-36636D01*
X45704Y-35140D02*
X45507Y-35140D01*
X45900Y-34120D02*
X45704Y-34120D01*
X45900Y-33860D02*
X45507Y-33860D01*
X45566Y-34120D02*
X45507Y-34120D01*
X45704Y-34120D02*
X45566Y-34120D01*
X45507Y-34061D02*
X45507Y-33860D01*
X45566Y-34120D02*
X45507Y-34061D01*
X50623Y-35950D02*
X50047Y-35950D01*
X38715Y-34890D02*
X43100Y-34890D01*
X43100Y-34890D02*
X45507Y-34890D01*
X45507Y-35140D02*
X45507Y-34890D01*
X45507Y-34890D02*
X45507Y-34120D01*
X45704Y-35140D02*
X45900Y-35140D01*
X46293Y-35140D02*
X46293Y-35910D01*
X45900Y-35140D02*
X46293Y-35140D01*
X45900Y-35910D02*
X46097Y-35910D01*
X46097Y-35910D02*
X46293Y-35910D01*
X49023Y-37219D02*
X50047Y-36195D01*
X48185Y-37219D02*
X49023Y-37219D01*
X48163Y-37197D02*
X48185Y-37219D01*
X48163Y-36586D02*
X48163Y-37197D01*
X47487Y-35910D02*
X48163Y-36586D01*
X46293Y-35910D02*
X47487Y-35910D01*
X50488Y-36636D02*
X50047Y-36195D01*
X50600Y-36636D02*
X50488Y-36636D01*
X50047Y-36195D02*
X50047Y-35950D01*
X65000Y-36800D02*
X65000Y-36636D01*
X60104Y-35140D02*
X59907Y-35140D01*
X60300Y-34120D02*
X60104Y-34120D01*
X60300Y-33860D02*
X59907Y-33860D01*
X59966Y-34120D02*
X59907Y-34120D01*
X60104Y-34120D02*
X59966Y-34120D01*
X59907Y-34061D02*
X59907Y-33860D01*
X59966Y-34120D02*
X59907Y-34061D01*
X65023Y-35950D02*
X64447Y-35950D01*
X53115Y-34890D02*
X57500Y-34890D01*
X57500Y-34890D02*
X59907Y-34890D01*
X59907Y-35140D02*
X59907Y-34890D01*
X59907Y-34890D02*
X59907Y-34120D01*
X60104Y-35140D02*
X60300Y-35140D01*
X60693Y-35140D02*
X60693Y-35910D01*
X60300Y-35140D02*
X60693Y-35140D01*
X60300Y-35910D02*
X60497Y-35910D01*
X60497Y-35910D02*
X60693Y-35910D01*
X63423Y-37219D02*
X64447Y-36195D01*
X62585Y-37219D02*
X63423Y-37219D01*
X62563Y-37197D02*
X62585Y-37219D01*
X62563Y-36586D02*
X62563Y-37197D01*
X61887Y-35910D02*
X62563Y-36586D01*
X60693Y-35910D02*
X61887Y-35910D01*
X64888Y-36636D02*
X64447Y-36195D01*
X65000Y-36636D02*
X64888Y-36636D01*
X64447Y-36195D02*
X64447Y-35950D01*
X79500Y-36800D02*
X79500Y-36636D01*
X74604Y-35140D02*
X74407Y-35140D01*
X74800Y-34120D02*
X74604Y-34120D01*
X74800Y-33860D02*
X74407Y-33860D01*
X74466Y-34120D02*
X74407Y-34120D01*
X74604Y-34120D02*
X74466Y-34120D01*
X74407Y-34061D02*
X74407Y-33860D01*
X74466Y-34120D02*
X74407Y-34061D01*
X79523Y-35950D02*
X78947Y-35950D01*
X67615Y-34890D02*
X72000Y-34890D01*
X72000Y-34890D02*
X74407Y-34890D01*
X74407Y-35140D02*
X74407Y-34890D01*
X74407Y-34890D02*
X74407Y-34120D01*
X74604Y-35140D02*
X74800Y-35140D01*
X75193Y-35140D02*
X75193Y-35910D01*
X74800Y-35140D02*
X75193Y-35140D01*
X74800Y-35910D02*
X74997Y-35910D01*
X74997Y-35910D02*
X75193Y-35910D01*
X77923Y-37219D02*
X78947Y-36195D01*
X77085Y-37219D02*
X77923Y-37219D01*
X77063Y-37197D02*
X77085Y-37219D01*
X77063Y-36586D02*
X77063Y-37197D01*
X76387Y-35910D02*
X77063Y-36586D01*
X75193Y-35910D02*
X76387Y-35910D01*
X79388Y-36636D02*
X78947Y-36195D01*
X79500Y-36636D02*
X79388Y-36636D01*
X78947Y-36195D02*
X78947Y-35950D01*
X78947Y-23195D02*
X78947Y-22950D01*
X79500Y-23636D02*
X79388Y-23636D01*
X79388Y-23636D02*
X78947Y-23195D01*
X75193Y-22910D02*
X76387Y-22910D01*
X76387Y-22910D02*
X77063Y-23586D01*
X77063Y-23586D02*
X77063Y-24197D01*
X77063Y-24197D02*
X77085Y-24219D01*
X77085Y-24219D02*
X77923Y-24219D01*
X77923Y-24219D02*
X78947Y-23195D01*
X74997Y-22910D02*
X75193Y-22910D01*
X74800Y-22910D02*
X74997Y-22910D01*
X74800Y-22140D02*
X75193Y-22140D01*
X75193Y-22140D02*
X75193Y-22910D01*
X74604Y-22140D02*
X74800Y-22140D01*
X74407Y-21890D02*
X74407Y-21120D01*
X74407Y-22140D02*
X74407Y-21890D01*
X72000Y-21890D02*
X74407Y-21890D01*
X67615Y-21890D02*
X72000Y-21890D01*
X79523Y-22950D02*
X78947Y-22950D01*
X74466Y-21120D02*
X74407Y-21061D01*
X74407Y-21061D02*
X74407Y-20860D01*
X74604Y-21120D02*
X74466Y-21120D01*
X74466Y-21120D02*
X74407Y-21120D01*
X74800Y-20860D02*
X74407Y-20860D01*
X74800Y-21120D02*
X74604Y-21120D01*
X74604Y-22140D02*
X74407Y-22140D01*
X79500Y-23800D02*
X79500Y-23636D01*
X64447Y-23195D02*
X64447Y-22950D01*
X65000Y-23636D02*
X64888Y-23636D01*
X64888Y-23636D02*
X64447Y-23195D01*
X60693Y-22910D02*
X61887Y-22910D01*
X61887Y-22910D02*
X62563Y-23586D01*
X62563Y-23586D02*
X62563Y-24197D01*
X62563Y-24197D02*
X62585Y-24219D01*
X62585Y-24219D02*
X63423Y-24219D01*
X63423Y-24219D02*
X64447Y-23195D01*
X60497Y-22910D02*
X60693Y-22910D01*
X60300Y-22910D02*
X60497Y-22910D01*
X60300Y-22140D02*
X60693Y-22140D01*
X60693Y-22140D02*
X60693Y-22910D01*
X60104Y-22140D02*
X60300Y-22140D01*
X59907Y-21890D02*
X59907Y-21120D01*
X59907Y-22140D02*
X59907Y-21890D01*
X57500Y-21890D02*
X59907Y-21890D01*
X53115Y-21890D02*
X57500Y-21890D01*
X65023Y-22950D02*
X64447Y-22950D01*
X59966Y-21120D02*
X59907Y-21061D01*
X59907Y-21061D02*
X59907Y-20860D01*
X60104Y-21120D02*
X59966Y-21120D01*
X59966Y-21120D02*
X59907Y-21120D01*
X60300Y-20860D02*
X59907Y-20860D01*
X60300Y-21120D02*
X60104Y-21120D01*
X60104Y-22140D02*
X59907Y-22140D01*
X65000Y-23800D02*
X65000Y-23636D01*
X50047Y-23195D02*
X50047Y-22950D01*
X50600Y-23636D02*
X50488Y-23636D01*
X50488Y-23636D02*
X50047Y-23195D01*
X46293Y-22910D02*
X47487Y-22910D01*
X47487Y-22910D02*
X48163Y-23586D01*
X48163Y-23586D02*
X48163Y-24197D01*
X48163Y-24197D02*
X48185Y-24219D01*
X48185Y-24219D02*
X49023Y-24219D01*
X49023Y-24219D02*
X50047Y-23195D01*
X46097Y-22910D02*
X46293Y-22910D01*
X45900Y-22910D02*
X46097Y-22910D01*
X45900Y-22140D02*
X46293Y-22140D01*
X46293Y-22140D02*
X46293Y-22910D01*
X45704Y-22140D02*
X45900Y-22140D01*
X45507Y-21890D02*
X45507Y-21120D01*
X45507Y-22140D02*
X45507Y-21890D01*
X43100Y-21890D02*
X45507Y-21890D01*
X38715Y-21890D02*
X43100Y-21890D01*
X50623Y-22950D02*
X50047Y-22950D01*
X45566Y-21120D02*
X45507Y-21061D01*
X45507Y-21061D02*
X45507Y-20860D01*
X45704Y-21120D02*
X45566Y-21120D01*
X45566Y-21120D02*
X45507Y-21120D01*
X45900Y-20860D02*
X45507Y-20860D01*
X45900Y-21120D02*
X45704Y-21120D01*
X45704Y-22140D02*
X45507Y-22140D01*
X50600Y-23800D02*
X50600Y-23636D01*
X36100Y-23800D02*
X36100Y-23636D01*
X31204Y-22140D02*
X31007Y-22140D01*
X31400Y-21120D02*
X31204Y-21120D01*
X31400Y-20860D02*
X31007Y-20860D01*
X31066Y-21120D02*
X31007Y-21120D01*
X31204Y-21120D02*
X31066Y-21120D01*
X31007Y-21061D02*
X31007Y-20860D01*
X31066Y-21120D02*
X31007Y-21061D01*
X36123Y-22950D02*
X35547Y-22950D01*
X24215Y-21890D02*
X28600Y-21890D01*
X28600Y-21890D02*
X31007Y-21890D01*
X31007Y-22140D02*
X31007Y-21890D01*
X31007Y-21890D02*
X31007Y-21120D01*
X31204Y-22140D02*
X31400Y-22140D01*
X31793Y-22140D02*
X31793Y-22910D01*
X31400Y-22140D02*
X31793Y-22140D01*
X31400Y-22910D02*
X31597Y-22910D01*
X31597Y-22910D02*
X31793Y-22910D01*
X34523Y-24219D02*
X35547Y-23195D01*
X33685Y-24219D02*
X34523Y-24219D01*
X33663Y-24197D02*
X33685Y-24219D01*
X33663Y-23586D02*
X33663Y-24197D01*
X32987Y-22910D02*
X33663Y-23586D01*
X31793Y-22910D02*
X32987Y-22910D01*
X35988Y-23636D02*
X35547Y-23195D01*
X36100Y-23636D02*
X35988Y-23636D01*
X35547Y-23195D02*
X35547Y-22950D01*
X94000Y-23800D02*
X94000Y-23636D01*
X89104Y-22140D02*
X88907Y-22140D01*
X89300Y-21120D02*
X89104Y-21120D01*
X89300Y-20860D02*
X88907Y-20860D01*
X88966Y-21120D02*
X88907Y-21120D01*
X89104Y-21120D02*
X88966Y-21120D01*
X88907Y-21061D02*
X88907Y-20860D01*
X88966Y-21120D02*
X88907Y-21061D01*
X94023Y-22950D02*
X93447Y-22950D01*
X82115Y-21890D02*
X86500Y-21890D01*
X86500Y-21890D02*
X88907Y-21890D01*
X88907Y-22140D02*
X88907Y-21890D01*
X88907Y-21890D02*
X88907Y-21120D01*
X89104Y-22140D02*
X89300Y-22140D01*
X89693Y-22140D02*
X89693Y-22910D01*
X89300Y-22140D02*
X89693Y-22140D01*
X89300Y-22910D02*
X89497Y-22910D01*
X89497Y-22910D02*
X89693Y-22910D01*
X92423Y-24219D02*
X93447Y-23195D01*
X91585Y-24219D02*
X92423Y-24219D01*
X91563Y-24197D02*
X91585Y-24219D01*
X91563Y-23586D02*
X91563Y-24197D01*
X90887Y-22910D02*
X91563Y-23586D01*
X89693Y-22910D02*
X90887Y-22910D01*
X93888Y-23636D02*
X93447Y-23195D01*
X94000Y-23636D02*
X93888Y-23636D01*
X93447Y-23195D02*
X93447Y-22950D01*
X74800Y-47890D02*
X75449Y-47890D01*
X75449Y-47890D02*
X76000Y-48441D01*
X60300Y-47890D02*
X60949Y-47890D01*
X60949Y-47890D02*
X61500Y-48441D01*
X45900Y-47890D02*
X46549Y-47890D01*
X46549Y-47890D02*
X47100Y-48441D01*
X32049Y-47890D02*
X32600Y-48441D01*
X31400Y-47890D02*
X32049Y-47890D01*
X89949Y-47890D02*
X90500Y-48441D01*
X89300Y-47890D02*
X89949Y-47890D01*
X89300Y-34890D02*
X89949Y-34890D01*
X89949Y-34890D02*
X90500Y-35441D01*
X31400Y-34890D02*
X32049Y-34890D01*
X32049Y-34890D02*
X32600Y-35441D01*
X46549Y-34890D02*
X47100Y-35441D01*
X45900Y-34890D02*
X46549Y-34890D01*
X60949Y-34890D02*
X61500Y-35441D01*
X60300Y-34890D02*
X60949Y-34890D01*
X75449Y-34890D02*
X76000Y-35441D01*
X74800Y-34890D02*
X75449Y-34890D01*
X74800Y-21890D02*
X75449Y-21890D01*
X75449Y-21890D02*
X76000Y-22441D01*
X60300Y-21890D02*
X60949Y-21890D01*
X60949Y-21890D02*
X61500Y-22441D01*
X45900Y-21890D02*
X46549Y-21890D01*
X46549Y-21890D02*
X47100Y-22441D01*
X32049Y-21890D02*
X32600Y-22441D01*
X31400Y-21890D02*
X32049Y-21890D01*
X89949Y-21890D02*
X90500Y-22441D01*
X89300Y-21890D02*
X89949Y-21890D01*
X76000Y-47559D02*
X75503Y-47559D01*
X74800Y-47630D02*
X75432Y-47630D01*
X75432Y-47630D02*
X75503Y-47559D01*
X61500Y-47559D02*
X61003Y-47559D01*
X60300Y-47630D02*
X60932Y-47630D01*
X60932Y-47630D02*
X61003Y-47559D01*
X47100Y-47559D02*
X46603Y-47559D01*
X45900Y-47630D02*
X46532Y-47630D01*
X46532Y-47630D02*
X46603Y-47559D01*
X32032Y-47630D02*
X32103Y-47559D01*
X31400Y-47630D02*
X32032Y-47630D01*
X32600Y-47559D02*
X32103Y-47559D01*
X89932Y-47630D02*
X90003Y-47559D01*
X89300Y-47630D02*
X89932Y-47630D01*
X90500Y-47559D02*
X90003Y-47559D01*
X90500Y-34559D02*
X90003Y-34559D01*
X89300Y-34630D02*
X89932Y-34630D01*
X89932Y-34630D02*
X90003Y-34559D01*
X32600Y-34559D02*
X32103Y-34559D01*
X31400Y-34630D02*
X32032Y-34630D01*
X32032Y-34630D02*
X32103Y-34559D01*
X46532Y-34630D02*
X46603Y-34559D01*
X45900Y-34630D02*
X46532Y-34630D01*
X47100Y-34559D02*
X46603Y-34559D01*
X60932Y-34630D02*
X61003Y-34559D01*
X60300Y-34630D02*
X60932Y-34630D01*
X61500Y-34559D02*
X61003Y-34559D01*
X75432Y-34630D02*
X75503Y-34559D01*
X74800Y-34630D02*
X75432Y-34630D01*
X76000Y-34559D02*
X75503Y-34559D01*
X76000Y-21559D02*
X75503Y-21559D01*
X74800Y-21630D02*
X75432Y-21630D01*
X75432Y-21630D02*
X75503Y-21559D01*
X61500Y-21559D02*
X61003Y-21559D01*
X60300Y-21630D02*
X60932Y-21630D01*
X60932Y-21630D02*
X61003Y-21559D01*
X47100Y-21559D02*
X46603Y-21559D01*
X45900Y-21630D02*
X46532Y-21630D01*
X46532Y-21630D02*
X46603Y-21559D01*
X32032Y-21630D02*
X32103Y-21559D01*
X31400Y-21630D02*
X32032Y-21630D01*
X32600Y-21559D02*
X32103Y-21559D01*
X89932Y-21630D02*
X90003Y-21559D01*
X89300Y-21630D02*
X89932Y-21630D01*
X90500Y-21559D02*
X90003Y-21559D01*
X76350Y-45200D02*
X75903Y-44753D01*
X75903Y-44753D02*
X74302Y-44753D01*
X74302Y-44753D02*
X73946Y-45109D01*
X73946Y-45109D02*
X72162Y-45109D01*
X72162Y-45109D02*
X71632Y-45639D01*
X71632Y-45639D02*
X69889Y-45639D01*
X69889Y-45639D02*
X69450Y-45200D01*
X61850Y-45200D02*
X61403Y-44753D01*
X61403Y-44753D02*
X59802Y-44753D01*
X59802Y-44753D02*
X59446Y-45109D01*
X59446Y-45109D02*
X57662Y-45109D01*
X57662Y-45109D02*
X57132Y-45639D01*
X57132Y-45639D02*
X55389Y-45639D01*
X55389Y-45639D02*
X54950Y-45200D01*
X47450Y-45200D02*
X47003Y-44753D01*
X47003Y-44753D02*
X45402Y-44753D01*
X45402Y-44753D02*
X45046Y-45109D01*
X45046Y-45109D02*
X43262Y-45109D01*
X43262Y-45109D02*
X42732Y-45639D01*
X42732Y-45639D02*
X40989Y-45639D01*
X40989Y-45639D02*
X40550Y-45200D01*
X26489Y-45639D02*
X26050Y-45200D01*
X28232Y-45639D02*
X26489Y-45639D01*
X28762Y-45109D02*
X28232Y-45639D01*
X30546Y-45109D02*
X28762Y-45109D01*
X30902Y-44753D02*
X30546Y-45109D01*
X32503Y-44753D02*
X30902Y-44753D01*
X32950Y-45200D02*
X32503Y-44753D01*
X84389Y-45639D02*
X83950Y-45200D01*
X86132Y-45639D02*
X84389Y-45639D01*
X86662Y-45109D02*
X86132Y-45639D01*
X88446Y-45109D02*
X86662Y-45109D01*
X88802Y-44753D02*
X88446Y-45109D01*
X90403Y-44753D02*
X88802Y-44753D01*
X90850Y-45200D02*
X90403Y-44753D01*
X90850Y-32200D02*
X90403Y-31753D01*
X90403Y-31753D02*
X88802Y-31753D01*
X88802Y-31753D02*
X88446Y-32109D01*
X88446Y-32109D02*
X86662Y-32109D01*
X86662Y-32109D02*
X86132Y-32639D01*
X86132Y-32639D02*
X84389Y-32639D01*
X84389Y-32639D02*
X83950Y-32200D01*
X32950Y-32200D02*
X32503Y-31753D01*
X32503Y-31753D02*
X30902Y-31753D01*
X30902Y-31753D02*
X30546Y-32109D01*
X30546Y-32109D02*
X28762Y-32109D01*
X28762Y-32109D02*
X28232Y-32639D01*
X28232Y-32639D02*
X26489Y-32639D01*
X26489Y-32639D02*
X26050Y-32200D01*
X40989Y-32639D02*
X40550Y-32200D01*
X42732Y-32639D02*
X40989Y-32639D01*
X43262Y-32109D02*
X42732Y-32639D01*
X45046Y-32109D02*
X43262Y-32109D01*
X45402Y-31753D02*
X45046Y-32109D01*
X47003Y-31753D02*
X45402Y-31753D01*
X47450Y-32200D02*
X47003Y-31753D01*
X55389Y-32639D02*
X54950Y-32200D01*
X57132Y-32639D02*
X55389Y-32639D01*
X57662Y-32109D02*
X57132Y-32639D01*
X59446Y-32109D02*
X57662Y-32109D01*
X59802Y-31753D02*
X59446Y-32109D01*
X61403Y-31753D02*
X59802Y-31753D01*
X61850Y-32200D02*
X61403Y-31753D01*
X69889Y-32639D02*
X69450Y-32200D01*
X71632Y-32639D02*
X69889Y-32639D01*
X72162Y-32109D02*
X71632Y-32639D01*
X73946Y-32109D02*
X72162Y-32109D01*
X74302Y-31753D02*
X73946Y-32109D01*
X75903Y-31753D02*
X74302Y-31753D01*
X76350Y-32200D02*
X75903Y-31753D01*
X76350Y-19200D02*
X75903Y-18753D01*
X75903Y-18753D02*
X74302Y-18753D01*
X74302Y-18753D02*
X73946Y-19109D01*
X73946Y-19109D02*
X72162Y-19109D01*
X72162Y-19109D02*
X71632Y-19639D01*
X71632Y-19639D02*
X69889Y-19639D01*
X69889Y-19639D02*
X69450Y-19200D01*
X61850Y-19200D02*
X61403Y-18753D01*
X61403Y-18753D02*
X59802Y-18753D01*
X59802Y-18753D02*
X59446Y-19109D01*
X59446Y-19109D02*
X57662Y-19109D01*
X57662Y-19109D02*
X57132Y-19639D01*
X57132Y-19639D02*
X55389Y-19639D01*
X55389Y-19639D02*
X54950Y-19200D01*
X47450Y-19200D02*
X47003Y-18753D01*
X47003Y-18753D02*
X45402Y-18753D01*
X45402Y-18753D02*
X45046Y-19109D01*
X45046Y-19109D02*
X43262Y-19109D01*
X43262Y-19109D02*
X42732Y-19639D01*
X42732Y-19639D02*
X40989Y-19639D01*
X40989Y-19639D02*
X40550Y-19200D01*
X26489Y-19639D02*
X26050Y-19200D01*
X28232Y-19639D02*
X26489Y-19639D01*
X28762Y-19109D02*
X28232Y-19639D01*
X30546Y-19109D02*
X28762Y-19109D01*
X30902Y-18753D02*
X30546Y-19109D01*
X32503Y-18753D02*
X30902Y-18753D01*
X32950Y-19200D02*
X32503Y-18753D01*
X84389Y-19639D02*
X83950Y-19200D01*
X86132Y-19639D02*
X84389Y-19639D01*
X86662Y-19109D02*
X86132Y-19639D01*
X88446Y-19109D02*
X86662Y-19109D01*
X88802Y-18753D02*
X88446Y-19109D01*
X90403Y-18753D02*
X88802Y-18753D01*
X90850Y-19200D02*
X90403Y-18753D01*
X76000Y-49900D02*
X76000Y-49559D01*
X61500Y-49900D02*
X61500Y-49559D01*
X47100Y-49900D02*
X47100Y-49559D01*
X32600Y-49900D02*
X32600Y-49559D01*
X90500Y-49900D02*
X90500Y-49559D01*
X90500Y-36900D02*
X90500Y-36559D01*
X32600Y-36900D02*
X32600Y-36559D01*
X47100Y-36900D02*
X47100Y-36559D01*
X61500Y-36900D02*
X61500Y-36559D01*
X76000Y-36900D02*
X76000Y-36559D01*
X76000Y-23900D02*
X76000Y-23559D01*
X61500Y-23900D02*
X61500Y-23559D01*
X47100Y-23900D02*
X47100Y-23559D01*
X32600Y-23900D02*
X32600Y-23559D01*
X90500Y-23900D02*
X90500Y-23559D01*
X77850Y-44200D02*
X76982Y-43332D01*
X76982Y-43332D02*
X71818Y-43332D01*
X71818Y-43332D02*
X70950Y-44200D01*
X63350Y-44200D02*
X62482Y-43332D01*
X62482Y-43332D02*
X57318Y-43332D01*
X57318Y-43332D02*
X56450Y-44200D01*
X48950Y-44200D02*
X48082Y-43332D01*
X48082Y-43332D02*
X42918Y-43332D01*
X42918Y-43332D02*
X42050Y-44200D01*
X28418Y-43332D02*
X27550Y-44200D01*
X33582Y-43332D02*
X28418Y-43332D01*
X34450Y-44200D02*
X33582Y-43332D01*
X86318Y-43332D02*
X85450Y-44200D01*
X91482Y-43332D02*
X86318Y-43332D01*
X92350Y-44200D02*
X91482Y-43332D01*
X92350Y-31200D02*
X91482Y-30332D01*
X91482Y-30332D02*
X86318Y-30332D01*
X86318Y-30332D02*
X85450Y-31200D01*
X34450Y-31200D02*
X33582Y-30332D01*
X33582Y-30332D02*
X28418Y-30332D01*
X28418Y-30332D02*
X27550Y-31200D01*
X42918Y-30332D02*
X42050Y-31200D01*
X48082Y-30332D02*
X42918Y-30332D01*
X48950Y-31200D02*
X48082Y-30332D01*
X57318Y-30332D02*
X56450Y-31200D01*
X62482Y-30332D02*
X57318Y-30332D01*
X63350Y-31200D02*
X62482Y-30332D01*
X71818Y-30332D02*
X70950Y-31200D01*
X76982Y-30332D02*
X71818Y-30332D01*
X77850Y-31200D02*
X76982Y-30332D01*
X77850Y-18200D02*
X76982Y-17332D01*
X76982Y-17332D02*
X71818Y-17332D01*
X71818Y-17332D02*
X70950Y-18200D01*
X63350Y-18200D02*
X62482Y-17332D01*
X62482Y-17332D02*
X57318Y-17332D01*
X57318Y-17332D02*
X56450Y-18200D01*
X48950Y-18200D02*
X48082Y-17332D01*
X48082Y-17332D02*
X42918Y-17332D01*
X42918Y-17332D02*
X42050Y-18200D01*
X28418Y-17332D02*
X27550Y-18200D01*
X33582Y-17332D02*
X28418Y-17332D01*
X34450Y-18200D02*
X33582Y-17332D01*
X86318Y-17332D02*
X85450Y-18200D01*
X91482Y-17332D02*
X86318Y-17332D01*
X92350Y-18200D02*
X91482Y-17332D01*
X69950Y-44200D02*
X70390Y-44640D01*
X70390Y-44640D02*
X74070Y-44640D01*
X74070Y-44640D02*
X74966Y-43744D01*
X74966Y-43744D02*
X76394Y-43744D01*
X76394Y-43744D02*
X76850Y-44200D01*
X55450Y-44200D02*
X55890Y-44640D01*
X55890Y-44640D02*
X59570Y-44640D01*
X59570Y-44640D02*
X60466Y-43744D01*
X60466Y-43744D02*
X61894Y-43744D01*
X61894Y-43744D02*
X62350Y-44200D01*
X41050Y-44200D02*
X41490Y-44640D01*
X41490Y-44640D02*
X45170Y-44640D01*
X45170Y-44640D02*
X46066Y-43744D01*
X46066Y-43744D02*
X47494Y-43744D01*
X47494Y-43744D02*
X47950Y-44200D01*
X32994Y-43744D02*
X33450Y-44200D01*
X31566Y-43744D02*
X32994Y-43744D01*
X30670Y-44640D02*
X31566Y-43744D01*
X26990Y-44640D02*
X30670Y-44640D01*
X26550Y-44200D02*
X26990Y-44640D01*
X90894Y-43744D02*
X91350Y-44200D01*
X89466Y-43744D02*
X90894Y-43744D01*
X88570Y-44640D02*
X89466Y-43744D01*
X84890Y-44640D02*
X88570Y-44640D01*
X84450Y-44200D02*
X84890Y-44640D01*
X84450Y-31200D02*
X84890Y-31640D01*
X84890Y-31640D02*
X88570Y-31640D01*
X88570Y-31640D02*
X89466Y-30744D01*
X89466Y-30744D02*
X90894Y-30744D01*
X90894Y-30744D02*
X91350Y-31200D01*
X26550Y-31200D02*
X26990Y-31640D01*
X26990Y-31640D02*
X30670Y-31640D01*
X30670Y-31640D02*
X31566Y-30744D01*
X31566Y-30744D02*
X32994Y-30744D01*
X32994Y-30744D02*
X33450Y-31200D01*
X47494Y-30744D02*
X47950Y-31200D01*
X46066Y-30744D02*
X47494Y-30744D01*
X45170Y-31640D02*
X46066Y-30744D01*
X41490Y-31640D02*
X45170Y-31640D01*
X41050Y-31200D02*
X41490Y-31640D01*
X61894Y-30744D02*
X62350Y-31200D01*
X60466Y-30744D02*
X61894Y-30744D01*
X59570Y-31640D02*
X60466Y-30744D01*
X55890Y-31640D02*
X59570Y-31640D01*
X55450Y-31200D02*
X55890Y-31640D01*
X76394Y-30744D02*
X76850Y-31200D01*
X74966Y-30744D02*
X76394Y-30744D01*
X74070Y-31640D02*
X74966Y-30744D01*
X70390Y-31640D02*
X74070Y-31640D01*
X69950Y-31200D02*
X70390Y-31640D01*
X69950Y-18200D02*
X70390Y-18640D01*
X70390Y-18640D02*
X74070Y-18640D01*
X74070Y-18640D02*
X74966Y-17744D01*
X74966Y-17744D02*
X76394Y-17744D01*
X76394Y-17744D02*
X76850Y-18200D01*
X55450Y-18200D02*
X55890Y-18640D01*
X55890Y-18640D02*
X59570Y-18640D01*
X59570Y-18640D02*
X60466Y-17744D01*
X60466Y-17744D02*
X61894Y-17744D01*
X61894Y-17744D02*
X62350Y-18200D01*
X41050Y-18200D02*
X41490Y-18640D01*
X41490Y-18640D02*
X45170Y-18640D01*
X45170Y-18640D02*
X46066Y-17744D01*
X46066Y-17744D02*
X47494Y-17744D01*
X47494Y-17744D02*
X47950Y-18200D01*
X32994Y-17744D02*
X33450Y-18200D01*
X31566Y-17744D02*
X32994Y-17744D01*
X30670Y-18640D02*
X31566Y-17744D01*
X26990Y-18640D02*
X30670Y-18640D01*
X26550Y-18200D02*
X26990Y-18640D01*
X90894Y-17744D02*
X91350Y-18200D01*
X89466Y-17744D02*
X90894Y-17744D01*
X88570Y-18640D02*
X89466Y-17744D01*
X84890Y-18640D02*
X88570Y-18640D01*
X84450Y-18200D02*
X84890Y-18640D01*
X68450Y-45200D02*
X69073Y-45823D01*
X69073Y-45823D02*
X72431Y-45823D01*
X72431Y-45823D02*
X72871Y-45383D01*
X72871Y-45383D02*
X75167Y-45383D01*
X75167Y-45383D02*
X75350Y-45200D01*
X53950Y-45200D02*
X54573Y-45823D01*
X54573Y-45823D02*
X57931Y-45823D01*
X57931Y-45823D02*
X58371Y-45383D01*
X58371Y-45383D02*
X60667Y-45383D01*
X60667Y-45383D02*
X60850Y-45200D01*
X39550Y-45200D02*
X40173Y-45823D01*
X40173Y-45823D02*
X43531Y-45823D01*
X43531Y-45823D02*
X43971Y-45383D01*
X43971Y-45383D02*
X46267Y-45383D01*
X46267Y-45383D02*
X46450Y-45200D01*
X31767Y-45383D02*
X31950Y-45200D01*
X29471Y-45383D02*
X31767Y-45383D01*
X29031Y-45823D02*
X29471Y-45383D01*
X25673Y-45823D02*
X29031Y-45823D01*
X25050Y-45200D02*
X25673Y-45823D01*
X89667Y-45383D02*
X89850Y-45200D01*
X87371Y-45383D02*
X89667Y-45383D01*
X86931Y-45823D02*
X87371Y-45383D01*
X83573Y-45823D02*
X86931Y-45823D01*
X82950Y-45200D02*
X83573Y-45823D01*
X82950Y-32200D02*
X83573Y-32823D01*
X83573Y-32823D02*
X86931Y-32823D01*
X86931Y-32823D02*
X87371Y-32383D01*
X87371Y-32383D02*
X89667Y-32383D01*
X89667Y-32383D02*
X89850Y-32200D01*
X25050Y-32200D02*
X25673Y-32823D01*
X25673Y-32823D02*
X29031Y-32823D01*
X29031Y-32823D02*
X29471Y-32383D01*
X29471Y-32383D02*
X31767Y-32383D01*
X31767Y-32383D02*
X31950Y-32200D01*
X46267Y-32383D02*
X46450Y-32200D01*
X43971Y-32383D02*
X46267Y-32383D01*
X43531Y-32823D02*
X43971Y-32383D01*
X40173Y-32823D02*
X43531Y-32823D01*
X39550Y-32200D02*
X40173Y-32823D01*
X60667Y-32383D02*
X60850Y-32200D01*
X58371Y-32383D02*
X60667Y-32383D01*
X57931Y-32823D02*
X58371Y-32383D01*
X54573Y-32823D02*
X57931Y-32823D01*
X53950Y-32200D02*
X54573Y-32823D01*
X75167Y-32383D02*
X75350Y-32200D01*
X72871Y-32383D02*
X75167Y-32383D01*
X72431Y-32823D02*
X72871Y-32383D01*
X69073Y-32823D02*
X72431Y-32823D01*
X68450Y-32200D02*
X69073Y-32823D01*
X68450Y-19200D02*
X69073Y-19823D01*
X69073Y-19823D02*
X72431Y-19823D01*
X72431Y-19823D02*
X72871Y-19383D01*
X72871Y-19383D02*
X75167Y-19383D01*
X75167Y-19383D02*
X75350Y-19200D01*
X53950Y-19200D02*
X54573Y-19823D01*
X54573Y-19823D02*
X57931Y-19823D01*
X57931Y-19823D02*
X58371Y-19383D01*
X58371Y-19383D02*
X60667Y-19383D01*
X60667Y-19383D02*
X60850Y-19200D01*
X39550Y-19200D02*
X40173Y-19823D01*
X40173Y-19823D02*
X43531Y-19823D01*
X43531Y-19823D02*
X43971Y-19383D01*
X43971Y-19383D02*
X46267Y-19383D01*
X46267Y-19383D02*
X46450Y-19200D01*
X31767Y-19383D02*
X31950Y-19200D01*
X29471Y-19383D02*
X31767Y-19383D01*
X29031Y-19823D02*
X29471Y-19383D01*
X25673Y-19823D02*
X29031Y-19823D01*
X25050Y-19200D02*
X25673Y-19823D01*
X89667Y-19383D02*
X89850Y-19200D01*
X87371Y-19383D02*
X89667Y-19383D01*
X86931Y-19823D02*
X87371Y-19383D01*
X83573Y-19823D02*
X86931Y-19823D01*
X82950Y-19200D02*
X83573Y-19823D01*
X77315Y-48950D02*
X77500Y-49135D01*
X77500Y-49135D02*
X77500Y-49800D01*
X77315Y-48950D02*
X76900Y-48950D01*
X77476Y-48950D02*
X77315Y-48950D01*
X72000Y-47370D02*
X72393Y-47370D01*
X72393Y-47370D02*
X73637Y-46126D01*
X73637Y-46126D02*
X75172Y-46126D01*
X75172Y-46126D02*
X75502Y-46456D01*
X75502Y-46456D02*
X75502Y-46878D01*
X75502Y-46878D02*
X75722Y-47098D01*
X75722Y-47098D02*
X76477Y-47098D01*
X76477Y-47098D02*
X76900Y-47521D01*
X76900Y-47521D02*
X76900Y-48950D01*
X62815Y-48950D02*
X63000Y-49135D01*
X63000Y-49135D02*
X63000Y-49800D01*
X62815Y-48950D02*
X62400Y-48950D01*
X62976Y-48950D02*
X62815Y-48950D01*
X57500Y-47370D02*
X57893Y-47370D01*
X57893Y-47370D02*
X59137Y-46126D01*
X59137Y-46126D02*
X60672Y-46126D01*
X60672Y-46126D02*
X61002Y-46456D01*
X61002Y-46456D02*
X61002Y-46878D01*
X61002Y-46878D02*
X61222Y-47098D01*
X61222Y-47098D02*
X61977Y-47098D01*
X61977Y-47098D02*
X62400Y-47521D01*
X62400Y-47521D02*
X62400Y-48950D01*
X48415Y-48950D02*
X48600Y-49135D01*
X48600Y-49135D02*
X48600Y-49800D01*
X48415Y-48950D02*
X48000Y-48950D01*
X48576Y-48950D02*
X48415Y-48950D01*
X43100Y-47370D02*
X43493Y-47370D01*
X43493Y-47370D02*
X44737Y-46126D01*
X44737Y-46126D02*
X46272Y-46126D01*
X46272Y-46126D02*
X46602Y-46456D01*
X46602Y-46456D02*
X46602Y-46878D01*
X46602Y-46878D02*
X46822Y-47098D01*
X46822Y-47098D02*
X47577Y-47098D01*
X47577Y-47098D02*
X48000Y-47521D01*
X48000Y-47521D02*
X48000Y-48950D01*
X33500Y-47521D02*
X33500Y-48950D01*
X33077Y-47098D02*
X33500Y-47521D01*
X32322Y-47098D02*
X33077Y-47098D01*
X32102Y-46878D02*
X32322Y-47098D01*
X32102Y-46456D02*
X32102Y-46878D01*
X31772Y-46126D02*
X32102Y-46456D01*
X30237Y-46126D02*
X31772Y-46126D01*
X28993Y-47370D02*
X30237Y-46126D01*
X28600Y-47370D02*
X28993Y-47370D01*
X34076Y-48950D02*
X33915Y-48950D01*
X33915Y-48950D02*
X33500Y-48950D01*
X34100Y-49135D02*
X34100Y-49800D01*
X33915Y-48950D02*
X34100Y-49135D01*
X91400Y-47521D02*
X91400Y-48950D01*
X90977Y-47098D02*
X91400Y-47521D01*
X90222Y-47098D02*
X90977Y-47098D01*
X90002Y-46878D02*
X90222Y-47098D01*
X90002Y-46456D02*
X90002Y-46878D01*
X89672Y-46126D02*
X90002Y-46456D01*
X88137Y-46126D02*
X89672Y-46126D01*
X86893Y-47370D02*
X88137Y-46126D01*
X86500Y-47370D02*
X86893Y-47370D01*
X91976Y-48950D02*
X91815Y-48950D01*
X91815Y-48950D02*
X91400Y-48950D01*
X92000Y-49135D02*
X92000Y-49800D01*
X91815Y-48950D02*
X92000Y-49135D01*
X91815Y-35950D02*
X92000Y-36135D01*
X92000Y-36135D02*
X92000Y-36800D01*
X91815Y-35950D02*
X91400Y-35950D01*
X91976Y-35950D02*
X91815Y-35950D01*
X86500Y-34370D02*
X86893Y-34370D01*
X86893Y-34370D02*
X88137Y-33126D01*
X88137Y-33126D02*
X89672Y-33126D01*
X89672Y-33126D02*
X90002Y-33456D01*
X90002Y-33456D02*
X90002Y-33878D01*
X90002Y-33878D02*
X90222Y-34098D01*
X90222Y-34098D02*
X90977Y-34098D01*
X90977Y-34098D02*
X91400Y-34521D01*
X91400Y-34521D02*
X91400Y-35950D01*
X33915Y-35950D02*
X34100Y-36135D01*
X34100Y-36135D02*
X34100Y-36800D01*
X33915Y-35950D02*
X33500Y-35950D01*
X34076Y-35950D02*
X33915Y-35950D01*
X28600Y-34370D02*
X28993Y-34370D01*
X28993Y-34370D02*
X30237Y-33126D01*
X30237Y-33126D02*
X31772Y-33126D01*
X31772Y-33126D02*
X32102Y-33456D01*
X32102Y-33456D02*
X32102Y-33878D01*
X32102Y-33878D02*
X32322Y-34098D01*
X32322Y-34098D02*
X33077Y-34098D01*
X33077Y-34098D02*
X33500Y-34521D01*
X33500Y-34521D02*
X33500Y-35950D01*
X48000Y-34521D02*
X48000Y-35950D01*
X47577Y-34098D02*
X48000Y-34521D01*
X46822Y-34098D02*
X47577Y-34098D01*
X46602Y-33878D02*
X46822Y-34098D01*
X46602Y-33456D02*
X46602Y-33878D01*
X46272Y-33126D02*
X46602Y-33456D01*
X44737Y-33126D02*
X46272Y-33126D01*
X43493Y-34370D02*
X44737Y-33126D01*
X43100Y-34370D02*
X43493Y-34370D01*
X48576Y-35950D02*
X48415Y-35950D01*
X48415Y-35950D02*
X48000Y-35950D01*
X48600Y-36135D02*
X48600Y-36800D01*
X48415Y-35950D02*
X48600Y-36135D01*
X62400Y-34521D02*
X62400Y-35950D01*
X61977Y-34098D02*
X62400Y-34521D01*
X61222Y-34098D02*
X61977Y-34098D01*
X61002Y-33878D02*
X61222Y-34098D01*
X61002Y-33456D02*
X61002Y-33878D01*
X60672Y-33126D02*
X61002Y-33456D01*
X59137Y-33126D02*
X60672Y-33126D01*
X57893Y-34370D02*
X59137Y-33126D01*
X57500Y-34370D02*
X57893Y-34370D01*
X62976Y-35950D02*
X62815Y-35950D01*
X62815Y-35950D02*
X62400Y-35950D01*
X63000Y-36135D02*
X63000Y-36800D01*
X62815Y-35950D02*
X63000Y-36135D01*
X76900Y-34521D02*
X76900Y-35950D01*
X76477Y-34098D02*
X76900Y-34521D01*
X75722Y-34098D02*
X76477Y-34098D01*
X75502Y-33878D02*
X75722Y-34098D01*
X75502Y-33456D02*
X75502Y-33878D01*
X75172Y-33126D02*
X75502Y-33456D01*
X73637Y-33126D02*
X75172Y-33126D01*
X72393Y-34370D02*
X73637Y-33126D01*
X72000Y-34370D02*
X72393Y-34370D01*
X77476Y-35950D02*
X77315Y-35950D01*
X77315Y-35950D02*
X76900Y-35950D01*
X77500Y-36135D02*
X77500Y-36800D01*
X77315Y-35950D02*
X77500Y-36135D01*
X77315Y-22950D02*
X77500Y-23135D01*
X77500Y-23135D02*
X77500Y-23800D01*
X77315Y-22950D02*
X76900Y-22950D01*
X77476Y-22950D02*
X77315Y-22950D01*
X72000Y-21370D02*
X72393Y-21370D01*
X72393Y-21370D02*
X73637Y-20126D01*
X73637Y-20126D02*
X75172Y-20126D01*
X75172Y-20126D02*
X75502Y-20456D01*
X75502Y-20456D02*
X75502Y-20878D01*
X75502Y-20878D02*
X75722Y-21098D01*
X75722Y-21098D02*
X76477Y-21098D01*
X76477Y-21098D02*
X76900Y-21521D01*
X76900Y-21521D02*
X76900Y-22950D01*
X62815Y-22950D02*
X63000Y-23135D01*
X63000Y-23135D02*
X63000Y-23800D01*
X62815Y-22950D02*
X62400Y-22950D01*
X62976Y-22950D02*
X62815Y-22950D01*
X57500Y-21370D02*
X57893Y-21370D01*
X57893Y-21370D02*
X59137Y-20126D01*
X59137Y-20126D02*
X60672Y-20126D01*
X60672Y-20126D02*
X61002Y-20456D01*
X61002Y-20456D02*
X61002Y-20878D01*
X61002Y-20878D02*
X61222Y-21098D01*
X61222Y-21098D02*
X61977Y-21098D01*
X61977Y-21098D02*
X62400Y-21521D01*
X62400Y-21521D02*
X62400Y-22950D01*
X48415Y-22950D02*
X48600Y-23135D01*
X48600Y-23135D02*
X48600Y-23800D01*
X48415Y-22950D02*
X48000Y-22950D01*
X48576Y-22950D02*
X48415Y-22950D01*
X43100Y-21370D02*
X43493Y-21370D01*
X43493Y-21370D02*
X44737Y-20126D01*
X44737Y-20126D02*
X46272Y-20126D01*
X46272Y-20126D02*
X46602Y-20456D01*
X46602Y-20456D02*
X46602Y-20878D01*
X46602Y-20878D02*
X46822Y-21098D01*
X46822Y-21098D02*
X47577Y-21098D01*
X47577Y-21098D02*
X48000Y-21521D01*
X48000Y-21521D02*
X48000Y-22950D01*
X33500Y-21521D02*
X33500Y-22950D01*
X33077Y-21098D02*
X33500Y-21521D01*
X32322Y-21098D02*
X33077Y-21098D01*
X32102Y-20878D02*
X32322Y-21098D01*
X32102Y-20456D02*
X32102Y-20878D01*
X31772Y-20126D02*
X32102Y-20456D01*
X30237Y-20126D02*
X31772Y-20126D01*
X28993Y-21370D02*
X30237Y-20126D01*
X28600Y-21370D02*
X28993Y-21370D01*
X34076Y-22950D02*
X33915Y-22950D01*
X33915Y-22950D02*
X33500Y-22950D01*
X34100Y-23135D02*
X34100Y-23800D01*
X33915Y-22950D02*
X34100Y-23135D01*
X91400Y-21521D02*
X91400Y-22950D01*
X90977Y-21098D02*
X91400Y-21521D01*
X90222Y-21098D02*
X90977Y-21098D01*
X90002Y-20878D02*
X90222Y-21098D01*
X90002Y-20456D02*
X90002Y-20878D01*
X89672Y-20126D02*
X90002Y-20456D01*
X88137Y-20126D02*
X89672Y-20126D01*
X86893Y-21370D02*
X88137Y-20126D01*
X86500Y-21370D02*
X86893Y-21370D01*
X91976Y-22950D02*
X91815Y-22950D01*
X91815Y-22950D02*
X91400Y-22950D01*
X92000Y-23135D02*
X92000Y-23800D01*
X91815Y-22950D02*
X92000Y-23135D01*
X74800Y-49420D02*
X75193Y-49420D01*
X67615Y-48510D02*
X69761Y-48510D01*
X69761Y-48510D02*
X71338Y-50087D01*
X71338Y-50087D02*
X75172Y-50087D01*
X75172Y-50087D02*
X75193Y-50066D01*
X75193Y-50066D02*
X75193Y-49420D01*
X60300Y-49420D02*
X60693Y-49420D01*
X53115Y-48510D02*
X55261Y-48510D01*
X55261Y-48510D02*
X56838Y-50087D01*
X56838Y-50087D02*
X60672Y-50087D01*
X60672Y-50087D02*
X60693Y-50066D01*
X60693Y-50066D02*
X60693Y-49420D01*
X45900Y-49420D02*
X46293Y-49420D01*
X38715Y-48510D02*
X40861Y-48510D01*
X40861Y-48510D02*
X42438Y-50087D01*
X42438Y-50087D02*
X46272Y-50087D01*
X46272Y-50087D02*
X46293Y-50066D01*
X46293Y-50066D02*
X46293Y-49420D01*
X31793Y-50066D02*
X31793Y-49420D01*
X31772Y-50087D02*
X31793Y-50066D01*
X27938Y-50087D02*
X31772Y-50087D01*
X26361Y-48510D02*
X27938Y-50087D01*
X24215Y-48510D02*
X26361Y-48510D01*
X31400Y-49420D02*
X31793Y-49420D01*
X89693Y-50066D02*
X89693Y-49420D01*
X89672Y-50087D02*
X89693Y-50066D01*
X85838Y-50087D02*
X89672Y-50087D01*
X84261Y-48510D02*
X85838Y-50087D01*
X82115Y-48510D02*
X84261Y-48510D01*
X89300Y-49420D02*
X89693Y-49420D01*
X89300Y-36420D02*
X89693Y-36420D01*
X82115Y-35510D02*
X84261Y-35510D01*
X84261Y-35510D02*
X85838Y-37087D01*
X85838Y-37087D02*
X89672Y-37087D01*
X89672Y-37087D02*
X89693Y-37066D01*
X89693Y-37066D02*
X89693Y-36420D01*
X31400Y-36420D02*
X31793Y-36420D01*
X24215Y-35510D02*
X26361Y-35510D01*
X26361Y-35510D02*
X27938Y-37087D01*
X27938Y-37087D02*
X31772Y-37087D01*
X31772Y-37087D02*
X31793Y-37066D01*
X31793Y-37066D02*
X31793Y-36420D01*
X46293Y-37066D02*
X46293Y-36420D01*
X46272Y-37087D02*
X46293Y-37066D01*
X42438Y-37087D02*
X46272Y-37087D01*
X40861Y-35510D02*
X42438Y-37087D01*
X38715Y-35510D02*
X40861Y-35510D01*
X45900Y-36420D02*
X46293Y-36420D01*
X60693Y-37066D02*
X60693Y-36420D01*
X60672Y-37087D02*
X60693Y-37066D01*
X56838Y-37087D02*
X60672Y-37087D01*
X55261Y-35510D02*
X56838Y-37087D01*
X53115Y-35510D02*
X55261Y-35510D01*
X60300Y-36420D02*
X60693Y-36420D01*
X75193Y-37066D02*
X75193Y-36420D01*
X75172Y-37087D02*
X75193Y-37066D01*
X71338Y-37087D02*
X75172Y-37087D01*
X69761Y-35510D02*
X71338Y-37087D01*
X67615Y-35510D02*
X69761Y-35510D01*
X74800Y-36420D02*
X75193Y-36420D01*
X74800Y-23420D02*
X75193Y-23420D01*
X67615Y-22510D02*
X69761Y-22510D01*
X69761Y-22510D02*
X71338Y-24087D01*
X71338Y-24087D02*
X75172Y-24087D01*
X75172Y-24087D02*
X75193Y-24066D01*
X75193Y-24066D02*
X75193Y-23420D01*
X60300Y-23420D02*
X60693Y-23420D01*
X53115Y-22510D02*
X55261Y-22510D01*
X55261Y-22510D02*
X56838Y-24087D01*
X56838Y-24087D02*
X60672Y-24087D01*
X60672Y-24087D02*
X60693Y-24066D01*
X60693Y-24066D02*
X60693Y-23420D01*
X45900Y-23420D02*
X46293Y-23420D01*
X38715Y-22510D02*
X40861Y-22510D01*
X40861Y-22510D02*
X42438Y-24087D01*
X42438Y-24087D02*
X46272Y-24087D01*
X46272Y-24087D02*
X46293Y-24066D01*
X46293Y-24066D02*
X46293Y-23420D01*
X31793Y-24066D02*
X31793Y-23420D01*
X31772Y-24087D02*
X31793Y-24066D01*
X27938Y-24087D02*
X31772Y-24087D01*
X26361Y-22510D02*
X27938Y-24087D01*
X24215Y-22510D02*
X26361Y-22510D01*
X31400Y-23420D02*
X31793Y-23420D01*
X89693Y-24066D02*
X89693Y-23420D01*
X89672Y-24087D02*
X89693Y-24066D01*
X85838Y-24087D02*
X89672Y-24087D01*
X84261Y-22510D02*
X85838Y-24087D01*
X82115Y-22510D02*
X84261Y-22510D01*
X89300Y-23420D02*
X89693Y-23420D01*
X76000Y-46100D02*
X76000Y-46441D01*
X61500Y-46100D02*
X61500Y-46441D01*
X47100Y-46100D02*
X47100Y-46441D01*
X32600Y-46100D02*
X32600Y-46441D01*
X90500Y-46100D02*
X90500Y-46441D01*
X90500Y-33100D02*
X90500Y-33441D01*
X32600Y-33100D02*
X32600Y-33441D01*
X47100Y-33100D02*
X47100Y-33441D01*
X61500Y-33100D02*
X61500Y-33441D01*
X76000Y-33100D02*
X76000Y-33441D01*
X76000Y-20100D02*
X76000Y-20441D01*
X61500Y-20100D02*
X61500Y-20441D01*
X47100Y-20100D02*
X47100Y-20441D01*
X32600Y-20100D02*
X32600Y-20441D01*
X90500Y-20100D02*
X90500Y-20441D01*
X74800Y-49180D02*
X73485Y-49180D01*
X73485Y-49180D02*
X73436Y-49229D01*
X60300Y-49180D02*
X58985Y-49180D01*
X58985Y-49180D02*
X58936Y-49229D01*
X45900Y-49180D02*
X44585Y-49180D01*
X44585Y-49180D02*
X44536Y-49229D01*
X30085Y-49180D02*
X30036Y-49229D01*
X31400Y-49180D02*
X30085Y-49180D01*
X87985Y-49180D02*
X87936Y-49229D01*
X89300Y-49180D02*
X87985Y-49180D01*
X89300Y-36180D02*
X87985Y-36180D01*
X87985Y-36180D02*
X87936Y-36229D01*
X31400Y-36180D02*
X30085Y-36180D01*
X30085Y-36180D02*
X30036Y-36229D01*
X44585Y-36180D02*
X44536Y-36229D01*
X45900Y-36180D02*
X44585Y-36180D01*
X58985Y-36180D02*
X58936Y-36229D01*
X60300Y-36180D02*
X58985Y-36180D01*
X73485Y-36180D02*
X73436Y-36229D01*
X74800Y-36180D02*
X73485Y-36180D01*
X74800Y-23180D02*
X73485Y-23180D01*
X73485Y-23180D02*
X73436Y-23229D01*
X60300Y-23180D02*
X58985Y-23180D01*
X58985Y-23180D02*
X58936Y-23229D01*
X45900Y-23180D02*
X44585Y-23180D01*
X44585Y-23180D02*
X44536Y-23229D01*
X30085Y-23180D02*
X30036Y-23229D01*
X31400Y-23180D02*
X30085Y-23180D01*
X87985Y-23180D02*
X87936Y-23229D01*
X89300Y-23180D02*
X87985Y-23180D01*
X78052Y-48280D02*
X78250Y-48280D01*
X78052Y-48280D02*
X78052Y-47950D01*
X78052Y-48450D02*
X78052Y-48280D01*
X77476Y-47950D02*
X78052Y-47950D01*
X77476Y-48450D02*
X78052Y-48450D01*
X63552Y-48280D02*
X63750Y-48280D01*
X63552Y-48280D02*
X63552Y-47950D01*
X63552Y-48450D02*
X63552Y-48280D01*
X62976Y-47950D02*
X63552Y-47950D01*
X62976Y-48450D02*
X63552Y-48450D01*
X49152Y-48280D02*
X49350Y-48280D01*
X49152Y-48280D02*
X49152Y-47950D01*
X49152Y-48450D02*
X49152Y-48280D01*
X48576Y-47950D02*
X49152Y-47950D01*
X48576Y-48450D02*
X49152Y-48450D01*
X34076Y-48450D02*
X34652Y-48450D01*
X34076Y-47950D02*
X34652Y-47950D01*
X34652Y-48450D02*
X34652Y-48280D01*
X34652Y-48280D02*
X34652Y-47950D01*
X34652Y-48280D02*
X34850Y-48280D01*
X91976Y-48450D02*
X92552Y-48450D01*
X91976Y-47950D02*
X92552Y-47950D01*
X92552Y-48450D02*
X92552Y-48280D01*
X92552Y-48280D02*
X92552Y-47950D01*
X92552Y-48280D02*
X92750Y-48280D01*
X92552Y-35280D02*
X92750Y-35280D01*
X92552Y-35280D02*
X92552Y-34950D01*
X92552Y-35450D02*
X92552Y-35280D01*
X91976Y-34950D02*
X92552Y-34950D01*
X91976Y-35450D02*
X92552Y-35450D01*
X34652Y-35280D02*
X34850Y-35280D01*
X34652Y-35280D02*
X34652Y-34950D01*
X34652Y-35450D02*
X34652Y-35280D01*
X34076Y-34950D02*
X34652Y-34950D01*
X34076Y-35450D02*
X34652Y-35450D01*
X48576Y-35450D02*
X49152Y-35450D01*
X48576Y-34950D02*
X49152Y-34950D01*
X49152Y-35450D02*
X49152Y-35280D01*
X49152Y-35280D02*
X49152Y-34950D01*
X49152Y-35280D02*
X49350Y-35280D01*
X62976Y-35450D02*
X63552Y-35450D01*
X62976Y-34950D02*
X63552Y-34950D01*
X63552Y-35450D02*
X63552Y-35280D01*
X63552Y-35280D02*
X63552Y-34950D01*
X63552Y-35280D02*
X63750Y-35280D01*
X77476Y-35450D02*
X78052Y-35450D01*
X77476Y-34950D02*
X78052Y-34950D01*
X78052Y-35450D02*
X78052Y-35280D01*
X78052Y-35280D02*
X78052Y-34950D01*
X78052Y-35280D02*
X78250Y-35280D01*
X78052Y-22280D02*
X78250Y-22280D01*
X78052Y-22280D02*
X78052Y-21950D01*
X78052Y-22450D02*
X78052Y-22280D01*
X77476Y-21950D02*
X78052Y-21950D01*
X77476Y-22450D02*
X78052Y-22450D01*
X63552Y-22280D02*
X63750Y-22280D01*
X63552Y-22280D02*
X63552Y-21950D01*
X63552Y-22450D02*
X63552Y-22280D01*
X62976Y-21950D02*
X63552Y-21950D01*
X62976Y-22450D02*
X63552Y-22450D01*
X49152Y-22280D02*
X49350Y-22280D01*
X49152Y-22280D02*
X49152Y-21950D01*
X49152Y-22450D02*
X49152Y-22280D01*
X48576Y-21950D02*
X49152Y-21950D01*
X48576Y-22450D02*
X49152Y-22450D01*
X34076Y-22450D02*
X34652Y-22450D01*
X34076Y-21950D02*
X34652Y-21950D01*
X34652Y-22450D02*
X34652Y-22280D01*
X34652Y-22280D02*
X34652Y-21950D01*
X34652Y-22280D02*
X34850Y-22280D01*
X91976Y-22450D02*
X92552Y-22450D01*
X91976Y-21950D02*
X92552Y-21950D01*
X92552Y-22450D02*
X92552Y-22280D01*
X92552Y-22280D02*
X92552Y-21950D01*
X92552Y-22280D02*
X92750Y-22280D01*
X79523Y-47950D02*
X78947Y-47950D01*
X78947Y-47950D02*
X78583Y-47586D01*
X78583Y-47586D02*
X78583Y-45592D01*
X78583Y-45592D02*
X78850Y-45325D01*
X78850Y-45325D02*
X78850Y-44760D01*
X78850Y-44760D02*
X78850Y-44200D01*
X72388Y-44200D02*
X73028Y-43560D01*
X73028Y-43560D02*
X76949Y-43560D01*
X76949Y-43560D02*
X77350Y-43961D01*
X77350Y-43961D02*
X77350Y-44577D01*
X77350Y-44577D02*
X77533Y-44760D01*
X77533Y-44760D02*
X78850Y-44760D01*
X71950Y-44200D02*
X72388Y-44200D01*
X65023Y-47950D02*
X64447Y-47950D01*
X64447Y-47950D02*
X64083Y-47586D01*
X64083Y-47586D02*
X64083Y-45592D01*
X64083Y-45592D02*
X64350Y-45325D01*
X64350Y-45325D02*
X64350Y-44760D01*
X64350Y-44760D02*
X64350Y-44200D01*
X57888Y-44200D02*
X58528Y-43560D01*
X58528Y-43560D02*
X62449Y-43560D01*
X62449Y-43560D02*
X62850Y-43961D01*
X62850Y-43961D02*
X62850Y-44577D01*
X62850Y-44577D02*
X63033Y-44760D01*
X63033Y-44760D02*
X64350Y-44760D01*
X57450Y-44200D02*
X57888Y-44200D01*
X50623Y-47950D02*
X50047Y-47950D01*
X50047Y-47950D02*
X49683Y-47586D01*
X49683Y-47586D02*
X49683Y-45592D01*
X49683Y-45592D02*
X49950Y-45325D01*
X49950Y-45325D02*
X49950Y-44760D01*
X49950Y-44760D02*
X49950Y-44200D01*
X43488Y-44200D02*
X44128Y-43560D01*
X44128Y-43560D02*
X48049Y-43560D01*
X48049Y-43560D02*
X48450Y-43961D01*
X48450Y-43961D02*
X48450Y-44577D01*
X48450Y-44577D02*
X48633Y-44760D01*
X48633Y-44760D02*
X49950Y-44760D01*
X43050Y-44200D02*
X43488Y-44200D01*
X28550Y-44200D02*
X28988Y-44200D01*
X34133Y-44760D02*
X35450Y-44760D01*
X33950Y-44577D02*
X34133Y-44760D01*
X33950Y-43961D02*
X33950Y-44577D01*
X33549Y-43560D02*
X33950Y-43961D01*
X29628Y-43560D02*
X33549Y-43560D01*
X28988Y-44200D02*
X29628Y-43560D01*
X35450Y-44760D02*
X35450Y-44200D01*
X35450Y-45325D02*
X35450Y-44760D01*
X35183Y-45592D02*
X35450Y-45325D01*
X35183Y-47586D02*
X35183Y-45592D01*
X35547Y-47950D02*
X35183Y-47586D01*
X36123Y-47950D02*
X35547Y-47950D01*
X86450Y-44200D02*
X86888Y-44200D01*
X92033Y-44760D02*
X93350Y-44760D01*
X91850Y-44577D02*
X92033Y-44760D01*
X91850Y-43961D02*
X91850Y-44577D01*
X91449Y-43560D02*
X91850Y-43961D01*
X87528Y-43560D02*
X91449Y-43560D01*
X86888Y-44200D02*
X87528Y-43560D01*
X93350Y-44760D02*
X93350Y-44200D01*
X93350Y-45325D02*
X93350Y-44760D01*
X93083Y-45592D02*
X93350Y-45325D01*
X93083Y-47586D02*
X93083Y-45592D01*
X93447Y-47950D02*
X93083Y-47586D01*
X94023Y-47950D02*
X93447Y-47950D01*
X94023Y-34950D02*
X93447Y-34950D01*
X93447Y-34950D02*
X93083Y-34586D01*
X93083Y-34586D02*
X93083Y-32592D01*
X93083Y-32592D02*
X93350Y-32325D01*
X93350Y-32325D02*
X93350Y-31760D01*
X93350Y-31760D02*
X93350Y-31200D01*
X86888Y-31200D02*
X87528Y-30560D01*
X87528Y-30560D02*
X91449Y-30560D01*
X91449Y-30560D02*
X91850Y-30961D01*
X91850Y-30961D02*
X91850Y-31577D01*
X91850Y-31577D02*
X92033Y-31760D01*
X92033Y-31760D02*
X93350Y-31760D01*
X86450Y-31200D02*
X86888Y-31200D01*
X36123Y-34950D02*
X35547Y-34950D01*
X35547Y-34950D02*
X35183Y-34586D01*
X35183Y-34586D02*
X35183Y-32592D01*
X35183Y-32592D02*
X35450Y-32325D01*
X35450Y-32325D02*
X35450Y-31760D01*
X35450Y-31760D02*
X35450Y-31200D01*
X28988Y-31200D02*
X29628Y-30560D01*
X29628Y-30560D02*
X33549Y-30560D01*
X33549Y-30560D02*
X33950Y-30961D01*
X33950Y-30961D02*
X33950Y-31577D01*
X33950Y-31577D02*
X34133Y-31760D01*
X34133Y-31760D02*
X35450Y-31760D01*
X28550Y-31200D02*
X28988Y-31200D01*
X43050Y-31200D02*
X43488Y-31200D01*
X48633Y-31760D02*
X49950Y-31760D01*
X48450Y-31577D02*
X48633Y-31760D01*
X48450Y-30961D02*
X48450Y-31577D01*
X48049Y-30560D02*
X48450Y-30961D01*
X44128Y-30560D02*
X48049Y-30560D01*
X43488Y-31200D02*
X44128Y-30560D01*
X49950Y-31760D02*
X49950Y-31200D01*
X49950Y-32325D02*
X49950Y-31760D01*
X49683Y-32592D02*
X49950Y-32325D01*
X49683Y-34586D02*
X49683Y-32592D01*
X50047Y-34950D02*
X49683Y-34586D01*
X50623Y-34950D02*
X50047Y-34950D01*
X57450Y-31200D02*
X57888Y-31200D01*
X63033Y-31760D02*
X64350Y-31760D01*
X62850Y-31577D02*
X63033Y-31760D01*
X62850Y-30961D02*
X62850Y-31577D01*
X62449Y-30560D02*
X62850Y-30961D01*
X58528Y-30560D02*
X62449Y-30560D01*
X57888Y-31200D02*
X58528Y-30560D01*
X64350Y-31760D02*
X64350Y-31200D01*
X64350Y-32325D02*
X64350Y-31760D01*
X64083Y-32592D02*
X64350Y-32325D01*
X64083Y-34586D02*
X64083Y-32592D01*
X64447Y-34950D02*
X64083Y-34586D01*
X65023Y-34950D02*
X64447Y-34950D01*
X71950Y-31200D02*
X72388Y-31200D01*
X77533Y-31760D02*
X78850Y-31760D01*
X77350Y-31577D02*
X77533Y-31760D01*
X77350Y-30961D02*
X77350Y-31577D01*
X76949Y-30560D02*
X77350Y-30961D01*
X73028Y-30560D02*
X76949Y-30560D01*
X72388Y-31200D02*
X73028Y-30560D01*
X78850Y-31760D02*
X78850Y-31200D01*
X78850Y-32325D02*
X78850Y-31760D01*
X78583Y-32592D02*
X78850Y-32325D01*
X78583Y-34586D02*
X78583Y-32592D01*
X78947Y-34950D02*
X78583Y-34586D01*
X79523Y-34950D02*
X78947Y-34950D01*
X79523Y-21950D02*
X78947Y-21950D01*
X78947Y-21950D02*
X78583Y-21586D01*
X78583Y-21586D02*
X78583Y-19592D01*
X78583Y-19592D02*
X78850Y-19325D01*
X78850Y-19325D02*
X78850Y-18760D01*
X78850Y-18760D02*
X78850Y-18200D01*
X72388Y-18200D02*
X73028Y-17560D01*
X73028Y-17560D02*
X76949Y-17560D01*
X76949Y-17560D02*
X77350Y-17961D01*
X77350Y-17961D02*
X77350Y-18577D01*
X77350Y-18577D02*
X77533Y-18760D01*
X77533Y-18760D02*
X78850Y-18760D01*
X71950Y-18200D02*
X72388Y-18200D01*
X65023Y-21950D02*
X64447Y-21950D01*
X64447Y-21950D02*
X64083Y-21586D01*
X64083Y-21586D02*
X64083Y-19592D01*
X64083Y-19592D02*
X64350Y-19325D01*
X64350Y-19325D02*
X64350Y-18760D01*
X64350Y-18760D02*
X64350Y-18200D01*
X57888Y-18200D02*
X58528Y-17560D01*
X58528Y-17560D02*
X62449Y-17560D01*
X62449Y-17560D02*
X62850Y-17961D01*
X62850Y-17961D02*
X62850Y-18577D01*
X62850Y-18577D02*
X63033Y-18760D01*
X63033Y-18760D02*
X64350Y-18760D01*
X57450Y-18200D02*
X57888Y-18200D01*
X50623Y-21950D02*
X50047Y-21950D01*
X50047Y-21950D02*
X49683Y-21586D01*
X49683Y-21586D02*
X49683Y-19592D01*
X49683Y-19592D02*
X49950Y-19325D01*
X49950Y-19325D02*
X49950Y-18760D01*
X49950Y-18760D02*
X49950Y-18200D01*
X43488Y-18200D02*
X44128Y-17560D01*
X44128Y-17560D02*
X48049Y-17560D01*
X48049Y-17560D02*
X48450Y-17961D01*
X48450Y-17961D02*
X48450Y-18577D01*
X48450Y-18577D02*
X48633Y-18760D01*
X48633Y-18760D02*
X49950Y-18760D01*
X43050Y-18200D02*
X43488Y-18200D01*
X28550Y-18200D02*
X28988Y-18200D01*
X34133Y-18760D02*
X35450Y-18760D01*
X33950Y-18577D02*
X34133Y-18760D01*
X33950Y-17961D02*
X33950Y-18577D01*
X33549Y-17560D02*
X33950Y-17961D01*
X29628Y-17560D02*
X33549Y-17560D01*
X28988Y-18200D02*
X29628Y-17560D01*
X35450Y-18760D02*
X35450Y-18200D01*
X35450Y-19325D02*
X35450Y-18760D01*
X35183Y-19592D02*
X35450Y-19325D01*
X35183Y-21586D02*
X35183Y-19592D01*
X35547Y-21950D02*
X35183Y-21586D01*
X36123Y-21950D02*
X35547Y-21950D01*
X86450Y-18200D02*
X86888Y-18200D01*
X92033Y-18760D02*
X93350Y-18760D01*
X91850Y-18577D02*
X92033Y-18760D01*
X91850Y-17961D02*
X91850Y-18577D01*
X91449Y-17560D02*
X91850Y-17961D01*
X87528Y-17560D02*
X91449Y-17560D01*
X86888Y-18200D02*
X87528Y-17560D01*
X93350Y-18760D02*
X93350Y-18200D01*
X93350Y-19325D02*
X93350Y-18760D01*
X93083Y-19592D02*
X93350Y-19325D01*
X93083Y-21586D02*
X93083Y-19592D01*
X93447Y-21950D02*
X93083Y-21586D01*
X94023Y-21950D02*
X93447Y-21950D01*
X79523Y-48450D02*
X78947Y-48450D01*
X78947Y-48450D02*
X78350Y-47853D01*
X78350Y-47853D02*
X78350Y-45200D01*
X65023Y-48450D02*
X64447Y-48450D01*
X64447Y-48450D02*
X63850Y-47853D01*
X63850Y-47853D02*
X63850Y-45200D01*
X50623Y-48450D02*
X50047Y-48450D01*
X50047Y-48450D02*
X49450Y-47853D01*
X49450Y-47853D02*
X49450Y-45200D01*
X34950Y-47853D02*
X34950Y-45200D01*
X35547Y-48450D02*
X34950Y-47853D01*
X36123Y-48450D02*
X35547Y-48450D01*
X92850Y-47853D02*
X92850Y-45200D01*
X93447Y-48450D02*
X92850Y-47853D01*
X94023Y-48450D02*
X93447Y-48450D01*
X94023Y-35450D02*
X93447Y-35450D01*
X93447Y-35450D02*
X92850Y-34853D01*
X92850Y-34853D02*
X92850Y-32200D01*
X36123Y-35450D02*
X35547Y-35450D01*
X35547Y-35450D02*
X34950Y-34853D01*
X34950Y-34853D02*
X34950Y-32200D01*
X49450Y-34853D02*
X49450Y-32200D01*
X50047Y-35450D02*
X49450Y-34853D01*
X50623Y-35450D02*
X50047Y-35450D01*
X63850Y-34853D02*
X63850Y-32200D01*
X64447Y-35450D02*
X63850Y-34853D01*
X65023Y-35450D02*
X64447Y-35450D01*
X78350Y-34853D02*
X78350Y-32200D01*
X78947Y-35450D02*
X78350Y-34853D01*
X79523Y-35450D02*
X78947Y-35450D01*
X79523Y-22450D02*
X78947Y-22450D01*
X78947Y-22450D02*
X78350Y-21853D01*
X78350Y-21853D02*
X78350Y-19200D01*
X65023Y-22450D02*
X64447Y-22450D01*
X64447Y-22450D02*
X63850Y-21853D01*
X63850Y-21853D02*
X63850Y-19200D01*
X50623Y-22450D02*
X50047Y-22450D01*
X50047Y-22450D02*
X49450Y-21853D01*
X49450Y-21853D02*
X49450Y-19200D01*
X34950Y-21853D02*
X34950Y-19200D01*
X35547Y-22450D02*
X34950Y-21853D01*
X36123Y-22450D02*
X35547Y-22450D01*
X92850Y-21853D02*
X92850Y-19200D01*
X93447Y-22450D02*
X92850Y-21853D01*
X94023Y-22450D02*
X93447Y-22450D01*
X77291Y-46500D02*
X77476Y-46685D01*
X77476Y-46685D02*
X77476Y-47450D01*
X77291Y-46500D02*
X77082Y-46500D01*
X77500Y-46500D02*
X77291Y-46500D01*
X77082Y-46500D02*
X76297Y-45715D01*
X76297Y-45715D02*
X73028Y-45715D01*
X73028Y-45715D02*
X72393Y-46350D01*
X72000Y-46350D02*
X72393Y-46350D01*
X62791Y-46500D02*
X62976Y-46685D01*
X62976Y-46685D02*
X62976Y-47450D01*
X62791Y-46500D02*
X62582Y-46500D01*
X63000Y-46500D02*
X62791Y-46500D01*
X62582Y-46500D02*
X61797Y-45715D01*
X61797Y-45715D02*
X58528Y-45715D01*
X58528Y-45715D02*
X57893Y-46350D01*
X57500Y-46350D02*
X57893Y-46350D01*
X48391Y-46500D02*
X48576Y-46685D01*
X48576Y-46685D02*
X48576Y-47450D01*
X48391Y-46500D02*
X48182Y-46500D01*
X48600Y-46500D02*
X48391Y-46500D01*
X48182Y-46500D02*
X47397Y-45715D01*
X47397Y-45715D02*
X44128Y-45715D01*
X44128Y-45715D02*
X43493Y-46350D01*
X43100Y-46350D02*
X43493Y-46350D01*
X28600Y-46350D02*
X28993Y-46350D01*
X29628Y-45715D02*
X28993Y-46350D01*
X32897Y-45715D02*
X29628Y-45715D01*
X33682Y-46500D02*
X32897Y-45715D01*
X34100Y-46500D02*
X33891Y-46500D01*
X33891Y-46500D02*
X33682Y-46500D01*
X34076Y-46685D02*
X34076Y-47450D01*
X33891Y-46500D02*
X34076Y-46685D01*
X86500Y-46350D02*
X86893Y-46350D01*
X87528Y-45715D02*
X86893Y-46350D01*
X90797Y-45715D02*
X87528Y-45715D01*
X91582Y-46500D02*
X90797Y-45715D01*
X92000Y-46500D02*
X91791Y-46500D01*
X91791Y-46500D02*
X91582Y-46500D01*
X91976Y-46685D02*
X91976Y-47450D01*
X91791Y-46500D02*
X91976Y-46685D01*
X91791Y-33500D02*
X91976Y-33685D01*
X91976Y-33685D02*
X91976Y-34450D01*
X91791Y-33500D02*
X91582Y-33500D01*
X92000Y-33500D02*
X91791Y-33500D01*
X91582Y-33500D02*
X90797Y-32715D01*
X90797Y-32715D02*
X87528Y-32715D01*
X87528Y-32715D02*
X86893Y-33350D01*
X86500Y-33350D02*
X86893Y-33350D01*
X33891Y-33500D02*
X34076Y-33685D01*
X34076Y-33685D02*
X34076Y-34450D01*
X33891Y-33500D02*
X33682Y-33500D01*
X34100Y-33500D02*
X33891Y-33500D01*
X33682Y-33500D02*
X32897Y-32715D01*
X32897Y-32715D02*
X29628Y-32715D01*
X29628Y-32715D02*
X28993Y-33350D01*
X28600Y-33350D02*
X28993Y-33350D01*
X43100Y-33350D02*
X43493Y-33350D01*
X44128Y-32715D02*
X43493Y-33350D01*
X47397Y-32715D02*
X44128Y-32715D01*
X48182Y-33500D02*
X47397Y-32715D01*
X48600Y-33500D02*
X48391Y-33500D01*
X48391Y-33500D02*
X48182Y-33500D01*
X48576Y-33685D02*
X48576Y-34450D01*
X48391Y-33500D02*
X48576Y-33685D01*
X57500Y-33350D02*
X57893Y-33350D01*
X58528Y-32715D02*
X57893Y-33350D01*
X61797Y-32715D02*
X58528Y-32715D01*
X62582Y-33500D02*
X61797Y-32715D01*
X63000Y-33500D02*
X62791Y-33500D01*
X62791Y-33500D02*
X62582Y-33500D01*
X62976Y-33685D02*
X62976Y-34450D01*
X62791Y-33500D02*
X62976Y-33685D01*
X72000Y-33350D02*
X72393Y-33350D01*
X73028Y-32715D02*
X72393Y-33350D01*
X76297Y-32715D02*
X73028Y-32715D01*
X77082Y-33500D02*
X76297Y-32715D01*
X77500Y-33500D02*
X77291Y-33500D01*
X77291Y-33500D02*
X77082Y-33500D01*
X77476Y-33685D02*
X77476Y-34450D01*
X77291Y-33500D02*
X77476Y-33685D01*
X77291Y-20500D02*
X77476Y-20685D01*
X77476Y-20685D02*
X77476Y-21450D01*
X77291Y-20500D02*
X77082Y-20500D01*
X77500Y-20500D02*
X77291Y-20500D01*
X77082Y-20500D02*
X76297Y-19715D01*
X76297Y-19715D02*
X73028Y-19715D01*
X73028Y-19715D02*
X72393Y-20350D01*
X72000Y-20350D02*
X72393Y-20350D01*
X62791Y-20500D02*
X62976Y-20685D01*
X62976Y-20685D02*
X62976Y-21450D01*
X62791Y-20500D02*
X62582Y-20500D01*
X63000Y-20500D02*
X62791Y-20500D01*
X62582Y-20500D02*
X61797Y-19715D01*
X61797Y-19715D02*
X58528Y-19715D01*
X58528Y-19715D02*
X57893Y-20350D01*
X57500Y-20350D02*
X57893Y-20350D01*
X48391Y-20500D02*
X48576Y-20685D01*
X48576Y-20685D02*
X48576Y-21450D01*
X48391Y-20500D02*
X48182Y-20500D01*
X48600Y-20500D02*
X48391Y-20500D01*
X48182Y-20500D02*
X47397Y-19715D01*
X47397Y-19715D02*
X44128Y-19715D01*
X44128Y-19715D02*
X43493Y-20350D01*
X43100Y-20350D02*
X43493Y-20350D01*
X28600Y-20350D02*
X28993Y-20350D01*
X29628Y-19715D02*
X28993Y-20350D01*
X32897Y-19715D02*
X29628Y-19715D01*
X33682Y-20500D02*
X32897Y-19715D01*
X34100Y-20500D02*
X33891Y-20500D01*
X33891Y-20500D02*
X33682Y-20500D01*
X34076Y-20685D02*
X34076Y-21450D01*
X33891Y-20500D02*
X34076Y-20685D01*
X86500Y-20350D02*
X86893Y-20350D01*
X87528Y-19715D02*
X86893Y-20350D01*
X90797Y-19715D02*
X87528Y-19715D01*
X91582Y-20500D02*
X90797Y-19715D01*
X92000Y-20500D02*
X91791Y-20500D01*
X91791Y-20500D02*
X91582Y-20500D01*
X91976Y-20685D02*
X91976Y-21450D01*
X91791Y-20500D02*
X91976Y-20685D01*
X74800Y-49680D02*
X74407Y-49680D01*
X67615Y-48200D02*
X69788Y-48200D01*
X69788Y-48200D02*
X71491Y-49903D01*
X71491Y-49903D02*
X74184Y-49903D01*
X74184Y-49903D02*
X74407Y-49680D01*
X60300Y-49680D02*
X59907Y-49680D01*
X53115Y-48200D02*
X55288Y-48200D01*
X55288Y-48200D02*
X56991Y-49903D01*
X56991Y-49903D02*
X59684Y-49903D01*
X59684Y-49903D02*
X59907Y-49680D01*
X45900Y-49680D02*
X45507Y-49680D01*
X38715Y-48200D02*
X40888Y-48200D01*
X40888Y-48200D02*
X42591Y-49903D01*
X42591Y-49903D02*
X45284Y-49903D01*
X45284Y-49903D02*
X45507Y-49680D01*
X30784Y-49903D02*
X31007Y-49680D01*
X28091Y-49903D02*
X30784Y-49903D01*
X26388Y-48200D02*
X28091Y-49903D01*
X24215Y-48200D02*
X26388Y-48200D01*
X31400Y-49680D02*
X31007Y-49680D01*
X88684Y-49903D02*
X88907Y-49680D01*
X85991Y-49903D02*
X88684Y-49903D01*
X84288Y-48200D02*
X85991Y-49903D01*
X82115Y-48200D02*
X84288Y-48200D01*
X89300Y-49680D02*
X88907Y-49680D01*
X89300Y-36680D02*
X88907Y-36680D01*
X82115Y-35200D02*
X84288Y-35200D01*
X84288Y-35200D02*
X85991Y-36903D01*
X85991Y-36903D02*
X88684Y-36903D01*
X88684Y-36903D02*
X88907Y-36680D01*
X31400Y-36680D02*
X31007Y-36680D01*
X24215Y-35200D02*
X26388Y-35200D01*
X26388Y-35200D02*
X28091Y-36903D01*
X28091Y-36903D02*
X30784Y-36903D01*
X30784Y-36903D02*
X31007Y-36680D01*
X45284Y-36903D02*
X45507Y-36680D01*
X42591Y-36903D02*
X45284Y-36903D01*
X40888Y-35200D02*
X42591Y-36903D01*
X38715Y-35200D02*
X40888Y-35200D01*
X45900Y-36680D02*
X45507Y-36680D01*
X59684Y-36903D02*
X59907Y-36680D01*
X56991Y-36903D02*
X59684Y-36903D01*
X55288Y-35200D02*
X56991Y-36903D01*
X53115Y-35200D02*
X55288Y-35200D01*
X60300Y-36680D02*
X59907Y-36680D01*
X74184Y-36903D02*
X74407Y-36680D01*
X71491Y-36903D02*
X74184Y-36903D01*
X69788Y-35200D02*
X71491Y-36903D01*
X67615Y-35200D02*
X69788Y-35200D01*
X74800Y-36680D02*
X74407Y-36680D01*
X74800Y-23680D02*
X74407Y-23680D01*
X67615Y-22200D02*
X69788Y-22200D01*
X69788Y-22200D02*
X71491Y-23903D01*
X71491Y-23903D02*
X74184Y-23903D01*
X74184Y-23903D02*
X74407Y-23680D01*
X60300Y-23680D02*
X59907Y-23680D01*
X53115Y-22200D02*
X55288Y-22200D01*
X55288Y-22200D02*
X56991Y-23903D01*
X56991Y-23903D02*
X59684Y-23903D01*
X59684Y-23903D02*
X59907Y-23680D01*
X45900Y-23680D02*
X45507Y-23680D01*
X38715Y-22200D02*
X40888Y-22200D01*
X40888Y-22200D02*
X42591Y-23903D01*
X42591Y-23903D02*
X45284Y-23903D01*
X45284Y-23903D02*
X45507Y-23680D01*
X30784Y-23903D02*
X31007Y-23680D01*
X28091Y-23903D02*
X30784Y-23903D01*
X26388Y-22200D02*
X28091Y-23903D01*
X24215Y-22200D02*
X26388Y-22200D01*
X31400Y-23680D02*
X31007Y-23680D01*
X88684Y-23903D02*
X88907Y-23680D01*
X85991Y-23903D02*
X88684Y-23903D01*
X84288Y-22200D02*
X85991Y-23903D01*
X82115Y-22200D02*
X84288Y-22200D01*
X89300Y-23680D02*
X88907Y-23680D01*
X71607Y-47120D02*
X71255Y-47120D01*
X72000Y-47120D02*
X71607Y-47120D01*
X68213Y-48820D02*
X68213Y-49075D01*
X68213Y-49075D02*
X68095Y-49193D01*
X67615Y-48820D02*
X68213Y-48820D01*
X79523Y-47450D02*
X78947Y-47450D01*
X79500Y-46500D02*
X79500Y-46918D01*
X79500Y-46918D02*
X79234Y-46918D01*
X79234Y-46918D02*
X78947Y-47205D01*
X78947Y-47205D02*
X78947Y-47450D01*
X74800Y-48400D02*
X73361Y-48400D01*
X57107Y-47120D02*
X56755Y-47120D01*
X57500Y-47120D02*
X57107Y-47120D01*
X53713Y-48820D02*
X53713Y-49075D01*
X53713Y-49075D02*
X53595Y-49193D01*
X53115Y-48820D02*
X53713Y-48820D01*
X65023Y-47450D02*
X64447Y-47450D01*
X65000Y-46500D02*
X65000Y-46918D01*
X65000Y-46918D02*
X64734Y-46918D01*
X64734Y-46918D02*
X64447Y-47205D01*
X64447Y-47205D02*
X64447Y-47450D01*
X60300Y-48400D02*
X58861Y-48400D01*
X42707Y-47120D02*
X42355Y-47120D01*
X43100Y-47120D02*
X42707Y-47120D01*
X39313Y-48820D02*
X39313Y-49075D01*
X39313Y-49075D02*
X39195Y-49193D01*
X38715Y-48820D02*
X39313Y-48820D01*
X50623Y-47450D02*
X50047Y-47450D01*
X50600Y-46500D02*
X50600Y-46918D01*
X50600Y-46918D02*
X50334Y-46918D01*
X50334Y-46918D02*
X50047Y-47205D01*
X50047Y-47205D02*
X50047Y-47450D01*
X45900Y-48400D02*
X44461Y-48400D01*
X31400Y-48400D02*
X29961Y-48400D01*
X35547Y-47205D02*
X35547Y-47450D01*
X35834Y-46918D02*
X35547Y-47205D01*
X36100Y-46918D02*
X35834Y-46918D01*
X36100Y-46500D02*
X36100Y-46918D01*
X36123Y-47450D02*
X35547Y-47450D01*
X24215Y-48820D02*
X24813Y-48820D01*
X24813Y-49075D02*
X24695Y-49193D01*
X24813Y-48820D02*
X24813Y-49075D01*
X28600Y-47120D02*
X28207Y-47120D01*
X28207Y-47120D02*
X27855Y-47120D01*
X89300Y-48400D02*
X87861Y-48400D01*
X93447Y-47205D02*
X93447Y-47450D01*
X93734Y-46918D02*
X93447Y-47205D01*
X94000Y-46918D02*
X93734Y-46918D01*
X94000Y-46500D02*
X94000Y-46918D01*
X94023Y-47450D02*
X93447Y-47450D01*
X82115Y-48820D02*
X82713Y-48820D01*
X82713Y-49075D02*
X82595Y-49193D01*
X82713Y-48820D02*
X82713Y-49075D01*
X86500Y-47120D02*
X86107Y-47120D01*
X86107Y-47120D02*
X85755Y-47120D01*
X86107Y-34120D02*
X85755Y-34120D01*
X86500Y-34120D02*
X86107Y-34120D01*
X82713Y-35820D02*
X82713Y-36075D01*
X82713Y-36075D02*
X82595Y-36193D01*
X82115Y-35820D02*
X82713Y-35820D01*
X94023Y-34450D02*
X93447Y-34450D01*
X94000Y-33500D02*
X94000Y-33918D01*
X94000Y-33918D02*
X93734Y-33918D01*
X93734Y-33918D02*
X93447Y-34205D01*
X93447Y-34205D02*
X93447Y-34450D01*
X89300Y-35400D02*
X87861Y-35400D01*
X28207Y-34120D02*
X27855Y-34120D01*
X28600Y-34120D02*
X28207Y-34120D01*
X24813Y-35820D02*
X24813Y-36075D01*
X24813Y-36075D02*
X24695Y-36193D01*
X24215Y-35820D02*
X24813Y-35820D01*
X36123Y-34450D02*
X35547Y-34450D01*
X36100Y-33500D02*
X36100Y-33918D01*
X36100Y-33918D02*
X35834Y-33918D01*
X35834Y-33918D02*
X35547Y-34205D01*
X35547Y-34205D02*
X35547Y-34450D01*
X31400Y-35400D02*
X29961Y-35400D01*
X45900Y-35400D02*
X44461Y-35400D01*
X50047Y-34205D02*
X50047Y-34450D01*
X50334Y-33918D02*
X50047Y-34205D01*
X50600Y-33918D02*
X50334Y-33918D01*
X50600Y-33500D02*
X50600Y-33918D01*
X50623Y-34450D02*
X50047Y-34450D01*
X38715Y-35820D02*
X39313Y-35820D01*
X39313Y-36075D02*
X39195Y-36193D01*
X39313Y-35820D02*
X39313Y-36075D01*
X43100Y-34120D02*
X42707Y-34120D01*
X42707Y-34120D02*
X42355Y-34120D01*
X60300Y-35400D02*
X58861Y-35400D01*
X64447Y-34205D02*
X64447Y-34450D01*
X64734Y-33918D02*
X64447Y-34205D01*
X65000Y-33918D02*
X64734Y-33918D01*
X65000Y-33500D02*
X65000Y-33918D01*
X65023Y-34450D02*
X64447Y-34450D01*
X53115Y-35820D02*
X53713Y-35820D01*
X53713Y-36075D02*
X53595Y-36193D01*
X53713Y-35820D02*
X53713Y-36075D01*
X57500Y-34120D02*
X57107Y-34120D01*
X57107Y-34120D02*
X56755Y-34120D01*
X74800Y-35400D02*
X73361Y-35400D01*
X78947Y-34205D02*
X78947Y-34450D01*
X79234Y-33918D02*
X78947Y-34205D01*
X79500Y-33918D02*
X79234Y-33918D01*
X79500Y-33500D02*
X79500Y-33918D01*
X79523Y-34450D02*
X78947Y-34450D01*
X67615Y-35820D02*
X68213Y-35820D01*
X68213Y-36075D02*
X68095Y-36193D01*
X68213Y-35820D02*
X68213Y-36075D01*
X72000Y-34120D02*
X71607Y-34120D01*
X71607Y-34120D02*
X71255Y-34120D01*
X71607Y-21120D02*
X71255Y-21120D01*
X72000Y-21120D02*
X71607Y-21120D01*
X68213Y-22820D02*
X68213Y-23075D01*
X68213Y-23075D02*
X68095Y-23193D01*
X67615Y-22820D02*
X68213Y-22820D01*
X79523Y-21450D02*
X78947Y-21450D01*
X79500Y-20500D02*
X79500Y-20918D01*
X79500Y-20918D02*
X79234Y-20918D01*
X79234Y-20918D02*
X78947Y-21205D01*
X78947Y-21205D02*
X78947Y-21450D01*
X74800Y-22400D02*
X73361Y-22400D01*
X57107Y-21120D02*
X56755Y-21120D01*
X57500Y-21120D02*
X57107Y-21120D01*
X53713Y-22820D02*
X53713Y-23075D01*
X53713Y-23075D02*
X53595Y-23193D01*
X53115Y-22820D02*
X53713Y-22820D01*
X65023Y-21450D02*
X64447Y-21450D01*
X65000Y-20500D02*
X65000Y-20918D01*
X65000Y-20918D02*
X64734Y-20918D01*
X64734Y-20918D02*
X64447Y-21205D01*
X64447Y-21205D02*
X64447Y-21450D01*
X60300Y-22400D02*
X58861Y-22400D01*
X42707Y-21120D02*
X42355Y-21120D01*
X43100Y-21120D02*
X42707Y-21120D01*
X39313Y-22820D02*
X39313Y-23075D01*
X39313Y-23075D02*
X39195Y-23193D01*
X38715Y-22820D02*
X39313Y-22820D01*
X50623Y-21450D02*
X50047Y-21450D01*
X50600Y-20500D02*
X50600Y-20918D01*
X50600Y-20918D02*
X50334Y-20918D01*
X50334Y-20918D02*
X50047Y-21205D01*
X50047Y-21205D02*
X50047Y-21450D01*
X45900Y-22400D02*
X44461Y-22400D01*
X31400Y-22400D02*
X29961Y-22400D01*
X35547Y-21205D02*
X35547Y-21450D01*
X35834Y-20918D02*
X35547Y-21205D01*
X36100Y-20918D02*
X35834Y-20918D01*
X36100Y-20500D02*
X36100Y-20918D01*
X36123Y-21450D02*
X35547Y-21450D01*
X24215Y-22820D02*
X24813Y-22820D01*
X24813Y-23075D02*
X24695Y-23193D01*
X24813Y-22820D02*
X24813Y-23075D01*
X28600Y-21120D02*
X28207Y-21120D01*
X28207Y-21120D02*
X27855Y-21120D01*
X89300Y-22400D02*
X87861Y-22400D01*
X93447Y-21205D02*
X93447Y-21450D01*
X93734Y-20918D02*
X93447Y-21205D01*
X94000Y-20918D02*
X93734Y-20918D01*
X94000Y-20500D02*
X94000Y-20918D01*
X94023Y-21450D02*
X93447Y-21450D01*
X82115Y-22820D02*
X82713Y-22820D01*
X82713Y-23075D02*
X82595Y-23193D01*
X82713Y-22820D02*
X82713Y-23075D01*
X86500Y-21120D02*
X86107Y-21120D01*
X86107Y-21120D02*
X85755Y-21120D01*
M02*
