G04 (created by PCBNEW-RS274X (2011-07-08)-stable) date Thu 21 Jul 2011 06:08:38 PM EDT*
G01*
G70*
G90*
%MOIN*%
G04 Gerber Fmt 3.4, Leading zero omitted, Abs format*
%FSLAX34Y34*%
G04 APERTURE LIST*
%ADD10C,0.006000*%
%ADD11R,0.055000X0.035000*%
%ADD12R,0.080000X0.060000*%
%ADD13R,0.060000X0.080000*%
%ADD14R,0.062900X0.070900*%
G04 APERTURE END LIST*
G54D10*
G54D11*
X79700Y-45375D03*
X79700Y-44625D03*
G54D12*
X69800Y-48850D03*
X69800Y-47550D03*
G54D13*
X79550Y-47600D03*
X78250Y-47600D03*
G54D11*
X70800Y-48575D03*
X70800Y-47825D03*
X74000Y-49375D03*
X74000Y-48625D03*
X72800Y-47525D03*
X72800Y-48275D03*
X76000Y-47375D03*
X76000Y-46625D03*
X76000Y-48625D03*
X76000Y-49375D03*
G54D14*
X72841Y-46800D03*
X73959Y-46800D03*
G54D11*
X65200Y-45375D03*
X65200Y-44625D03*
G54D12*
X55300Y-48850D03*
X55300Y-47550D03*
G54D13*
X65050Y-47600D03*
X63750Y-47600D03*
G54D11*
X56300Y-48575D03*
X56300Y-47825D03*
X59500Y-49375D03*
X59500Y-48625D03*
X58300Y-47525D03*
X58300Y-48275D03*
X61500Y-47375D03*
X61500Y-46625D03*
X61500Y-48625D03*
X61500Y-49375D03*
G54D14*
X58341Y-46800D03*
X59459Y-46800D03*
G54D11*
X50800Y-45375D03*
X50800Y-44625D03*
G54D12*
X40900Y-48850D03*
X40900Y-47550D03*
G54D13*
X50650Y-47600D03*
X49350Y-47600D03*
G54D11*
X41900Y-48575D03*
X41900Y-47825D03*
X45100Y-49375D03*
X45100Y-48625D03*
X43900Y-47525D03*
X43900Y-48275D03*
X47100Y-47375D03*
X47100Y-46625D03*
X47100Y-48625D03*
X47100Y-49375D03*
G54D14*
X43941Y-46800D03*
X45059Y-46800D03*
X29441Y-46800D03*
X30559Y-46800D03*
G54D11*
X32600Y-48625D03*
X32600Y-49375D03*
X32600Y-47375D03*
X32600Y-46625D03*
X29400Y-47525D03*
X29400Y-48275D03*
X30600Y-49375D03*
X30600Y-48625D03*
X27400Y-48575D03*
X27400Y-47825D03*
G54D13*
X36150Y-47600D03*
X34850Y-47600D03*
G54D12*
X26400Y-48850D03*
X26400Y-47550D03*
G54D11*
X36300Y-45375D03*
X36300Y-44625D03*
G54D14*
X87341Y-46800D03*
X88459Y-46800D03*
G54D11*
X90500Y-48625D03*
X90500Y-49375D03*
X90500Y-47375D03*
X90500Y-46625D03*
X87300Y-47525D03*
X87300Y-48275D03*
X88500Y-49375D03*
X88500Y-48625D03*
X85300Y-48575D03*
X85300Y-47825D03*
G54D13*
X94050Y-47600D03*
X92750Y-47600D03*
G54D12*
X84300Y-48850D03*
X84300Y-47550D03*
G54D11*
X94200Y-45375D03*
X94200Y-44625D03*
X94200Y-32375D03*
X94200Y-31625D03*
G54D12*
X84300Y-35850D03*
X84300Y-34550D03*
G54D13*
X94050Y-34600D03*
X92750Y-34600D03*
G54D11*
X85300Y-35575D03*
X85300Y-34825D03*
X88500Y-36375D03*
X88500Y-35625D03*
X87300Y-34525D03*
X87300Y-35275D03*
X90500Y-34375D03*
X90500Y-33625D03*
X90500Y-35625D03*
X90500Y-36375D03*
G54D14*
X87341Y-33800D03*
X88459Y-33800D03*
G54D11*
X36300Y-32375D03*
X36300Y-31625D03*
G54D12*
X26400Y-35850D03*
X26400Y-34550D03*
G54D13*
X36150Y-34600D03*
X34850Y-34600D03*
G54D11*
X27400Y-35575D03*
X27400Y-34825D03*
X30600Y-36375D03*
X30600Y-35625D03*
X29400Y-34525D03*
X29400Y-35275D03*
X32600Y-34375D03*
X32600Y-33625D03*
X32600Y-35625D03*
X32600Y-36375D03*
G54D14*
X29441Y-33800D03*
X30559Y-33800D03*
X43941Y-33800D03*
X45059Y-33800D03*
G54D11*
X47100Y-35625D03*
X47100Y-36375D03*
X47100Y-34375D03*
X47100Y-33625D03*
X43900Y-34525D03*
X43900Y-35275D03*
X45100Y-36375D03*
X45100Y-35625D03*
X41900Y-35575D03*
X41900Y-34825D03*
G54D13*
X50650Y-34600D03*
X49350Y-34600D03*
G54D12*
X40900Y-35850D03*
X40900Y-34550D03*
G54D11*
X50800Y-32375D03*
X50800Y-31625D03*
G54D14*
X58341Y-33800D03*
X59459Y-33800D03*
G54D11*
X61500Y-35625D03*
X61500Y-36375D03*
X61500Y-34375D03*
X61500Y-33625D03*
X58300Y-34525D03*
X58300Y-35275D03*
X59500Y-36375D03*
X59500Y-35625D03*
X56300Y-35575D03*
X56300Y-34825D03*
G54D13*
X65050Y-34600D03*
X63750Y-34600D03*
G54D12*
X55300Y-35850D03*
X55300Y-34550D03*
G54D11*
X65200Y-32375D03*
X65200Y-31625D03*
G54D14*
X72841Y-33800D03*
X73959Y-33800D03*
G54D11*
X76000Y-35625D03*
X76000Y-36375D03*
X76000Y-34375D03*
X76000Y-33625D03*
X72800Y-34525D03*
X72800Y-35275D03*
X74000Y-36375D03*
X74000Y-35625D03*
X70800Y-35575D03*
X70800Y-34825D03*
G54D13*
X79550Y-34600D03*
X78250Y-34600D03*
G54D12*
X69800Y-35850D03*
X69800Y-34550D03*
G54D11*
X79700Y-32375D03*
X79700Y-31625D03*
X79700Y-19375D03*
X79700Y-18625D03*
G54D12*
X69800Y-22850D03*
X69800Y-21550D03*
G54D13*
X79550Y-21600D03*
X78250Y-21600D03*
G54D11*
X70800Y-22575D03*
X70800Y-21825D03*
X74000Y-23375D03*
X74000Y-22625D03*
X72800Y-21525D03*
X72800Y-22275D03*
X76000Y-21375D03*
X76000Y-20625D03*
X76000Y-22625D03*
X76000Y-23375D03*
G54D14*
X72841Y-20800D03*
X73959Y-20800D03*
G54D11*
X65200Y-19375D03*
X65200Y-18625D03*
G54D12*
X55300Y-22850D03*
X55300Y-21550D03*
G54D13*
X65050Y-21600D03*
X63750Y-21600D03*
G54D11*
X56300Y-22575D03*
X56300Y-21825D03*
X59500Y-23375D03*
X59500Y-22625D03*
X58300Y-21525D03*
X58300Y-22275D03*
X61500Y-21375D03*
X61500Y-20625D03*
X61500Y-22625D03*
X61500Y-23375D03*
G54D14*
X58341Y-20800D03*
X59459Y-20800D03*
G54D11*
X50800Y-19375D03*
X50800Y-18625D03*
G54D12*
X40900Y-22850D03*
X40900Y-21550D03*
G54D13*
X50650Y-21600D03*
X49350Y-21600D03*
G54D11*
X41900Y-22575D03*
X41900Y-21825D03*
X45100Y-23375D03*
X45100Y-22625D03*
X43900Y-21525D03*
X43900Y-22275D03*
X47100Y-21375D03*
X47100Y-20625D03*
X47100Y-22625D03*
X47100Y-23375D03*
G54D14*
X43941Y-20800D03*
X45059Y-20800D03*
X29441Y-20800D03*
X30559Y-20800D03*
G54D11*
X32600Y-22625D03*
X32600Y-23375D03*
X32600Y-21375D03*
X32600Y-20625D03*
X29400Y-21525D03*
X29400Y-22275D03*
X30600Y-23375D03*
X30600Y-22625D03*
X27400Y-22575D03*
X27400Y-21825D03*
G54D13*
X36150Y-21600D03*
X34850Y-21600D03*
G54D12*
X26400Y-22850D03*
X26400Y-21550D03*
G54D11*
X36300Y-19375D03*
X36300Y-18625D03*
G54D14*
X87341Y-20800D03*
X88459Y-20800D03*
G54D11*
X90500Y-22625D03*
X90500Y-23375D03*
X90500Y-21375D03*
X90500Y-20625D03*
X87300Y-21525D03*
X87300Y-22275D03*
X88500Y-23375D03*
X88500Y-22625D03*
X85300Y-22575D03*
X85300Y-21825D03*
G54D13*
X94050Y-21600D03*
X92750Y-21600D03*
G54D12*
X84300Y-22850D03*
X84300Y-21550D03*
G54D11*
X94200Y-19375D03*
X94200Y-18625D03*
M02*
