G04 (created by PCBNEW-RS274X (2011-07-08)-stable) date Sun 14 Aug 2011 03:50:59 PM EDT*
G01*
G70*
G90*
%MOIN*%
G04 Gerber Fmt 3.4, Leading zero omitted, Abs format*
%FSLAX34Y34*%
G04 APERTURE LIST*
%ADD10C,0.006000*%
%ADD11C,0.180000*%
%ADD12C,0.075000*%
%ADD13R,0.075000X0.075000*%
%ADD14C,0.079100*%
%ADD15C,0.209000*%
%ADD16R,0.209000X0.209000*%
%ADD17R,0.082900X0.090900*%
%ADD18R,0.090900X0.082900*%
%ADD19C,0.090000*%
%ADD20R,0.090000X0.090000*%
%ADD21C,0.163700*%
%ADD22R,0.079100X0.079100*%
%ADD23R,0.075000X0.055000*%
%ADD24R,0.080000X0.100000*%
%ADD25R,0.100000X0.080000*%
%ADD26C,0.080000*%
%ADD27R,0.036000X0.070000*%
%ADD28R,0.043600X0.106600*%
%ADD29R,0.039700X0.039700*%
%ADD30R,0.106600X0.114500*%
G04 APERTURE END LIST*
G54D10*
G54D11*
X75300Y-28100D03*
X73200Y-29900D03*
X73200Y-27800D03*
X71200Y-27000D03*
X79500Y-46000D03*
X79500Y-43000D03*
X79500Y-40000D03*
X79500Y-37000D03*
X79500Y-34000D03*
X86200Y-46000D03*
X86200Y-43000D03*
X86300Y-40000D03*
X86300Y-37000D03*
X86300Y-34000D03*
X92300Y-18400D03*
X92300Y-20800D03*
X92300Y-23200D03*
X92300Y-26200D03*
X92300Y-29200D03*
X73600Y-16400D03*
G54D12*
X76300Y-26700D03*
X76300Y-25700D03*
X80700Y-19200D03*
X80700Y-18200D03*
X79500Y-19200D03*
X79500Y-18200D03*
X77500Y-23500D03*
X77500Y-24500D03*
X77500Y-26700D03*
X77500Y-25700D03*
X77600Y-22000D03*
X77600Y-21000D03*
X76400Y-22000D03*
X76400Y-21000D03*
X81700Y-18200D03*
X81700Y-19200D03*
X81700Y-20200D03*
X81700Y-21200D03*
X81700Y-22200D03*
X81700Y-23200D03*
X81700Y-24200D03*
X81700Y-25200D03*
X81700Y-26200D03*
X81700Y-27200D03*
X81700Y-28200D03*
X81700Y-29200D03*
X81700Y-30200D03*
G54D13*
X81700Y-17200D03*
G54D12*
X84700Y-30200D03*
X84700Y-29200D03*
X84700Y-28200D03*
X84700Y-27200D03*
X84700Y-26200D03*
X84700Y-25200D03*
X84700Y-24200D03*
X84700Y-23200D03*
X84700Y-22200D03*
X84700Y-21200D03*
X84700Y-20200D03*
X84700Y-19200D03*
X84700Y-18200D03*
X84700Y-17200D03*
G54D14*
X79700Y-25700D03*
X79700Y-26700D03*
G54D15*
X73400Y-19300D03*
G54D16*
X75800Y-19300D03*
G54D15*
X74300Y-21300D03*
X73400Y-24000D03*
G54D16*
X75800Y-24000D03*
G54D15*
X74300Y-26000D03*
G54D17*
X85541Y-19200D03*
X86659Y-19200D03*
X85541Y-20300D03*
X86659Y-20300D03*
X85541Y-21300D03*
X86659Y-21300D03*
X85541Y-22200D03*
X86659Y-22200D03*
G54D18*
X79900Y-20641D03*
X79900Y-21759D03*
G54D19*
X77800Y-17200D03*
G54D20*
X77800Y-18200D03*
G54D19*
X77800Y-19200D03*
G54D21*
X73400Y-44638D03*
X73400Y-39965D03*
G54D22*
X75900Y-40550D03*
G54D14*
X76900Y-41050D03*
X75900Y-41550D03*
X76900Y-42050D03*
X75900Y-42550D03*
X76900Y-43050D03*
X75900Y-43550D03*
X76900Y-44050D03*
G54D21*
X73400Y-38138D03*
X73400Y-33465D03*
G54D22*
X75900Y-34050D03*
G54D14*
X76900Y-34550D03*
X75900Y-35050D03*
X76900Y-35550D03*
X75900Y-36050D03*
X76900Y-36550D03*
X75900Y-37050D03*
X76900Y-37550D03*
G54D13*
X85800Y-17200D03*
X85800Y-18200D03*
X85800Y-27200D03*
X82700Y-30200D03*
X80600Y-24000D03*
X89000Y-18800D03*
G54D23*
X71800Y-31175D03*
X71800Y-30425D03*
X80700Y-21575D03*
X80700Y-20825D03*
G54D24*
X79950Y-22800D03*
X78650Y-22800D03*
G54D25*
X78800Y-21850D03*
X78800Y-20550D03*
G54D13*
X79800Y-29000D03*
G54D12*
X78800Y-29000D03*
X77800Y-29000D03*
X76800Y-29000D03*
X76800Y-32000D03*
X77800Y-32000D03*
X78800Y-32000D03*
X79800Y-32000D03*
X81100Y-34000D03*
X81100Y-35000D03*
X81100Y-36000D03*
X81100Y-37000D03*
X81100Y-38000D03*
X81100Y-39000D03*
X81100Y-40000D03*
X81100Y-41000D03*
X81100Y-42000D03*
X81100Y-43000D03*
X81100Y-44000D03*
X81100Y-45000D03*
X81100Y-46000D03*
G54D13*
X81100Y-33000D03*
G54D12*
X84100Y-46000D03*
X84100Y-45000D03*
X84100Y-44000D03*
X84100Y-43000D03*
X84100Y-42000D03*
X84100Y-41000D03*
X84100Y-40000D03*
X84100Y-39000D03*
X84100Y-38000D03*
X84100Y-37000D03*
X84100Y-36000D03*
X84100Y-35000D03*
X84100Y-34000D03*
X84100Y-33000D03*
X87900Y-34000D03*
X87900Y-35000D03*
X87900Y-36000D03*
X87900Y-37000D03*
X87900Y-38000D03*
X87900Y-39000D03*
X87900Y-40000D03*
X87900Y-41000D03*
X87900Y-42000D03*
X87900Y-43000D03*
X87900Y-44000D03*
X87900Y-45000D03*
X87900Y-46000D03*
G54D13*
X87900Y-33000D03*
G54D12*
X90900Y-46000D03*
X90900Y-45000D03*
X90900Y-44000D03*
X90900Y-43000D03*
X90900Y-42000D03*
X90900Y-41000D03*
X90900Y-40000D03*
X90900Y-39000D03*
X90900Y-38000D03*
X90900Y-37000D03*
X90900Y-36000D03*
X90900Y-35000D03*
X90900Y-34000D03*
X90900Y-33000D03*
X90900Y-29200D03*
X90900Y-28200D03*
X90900Y-27200D03*
X90900Y-26200D03*
X90900Y-25200D03*
X90900Y-24200D03*
X90900Y-23200D03*
X90900Y-22200D03*
X90900Y-21200D03*
X90900Y-20200D03*
X90900Y-19200D03*
X90900Y-18200D03*
X90900Y-17200D03*
G54D13*
X90900Y-30200D03*
G54D12*
X87900Y-17200D03*
X87900Y-18200D03*
X87900Y-19200D03*
X87900Y-20200D03*
X87900Y-21200D03*
X87900Y-22200D03*
X87900Y-23200D03*
X87900Y-24200D03*
X87900Y-25200D03*
X87900Y-26200D03*
X87900Y-27200D03*
X87900Y-28200D03*
X87900Y-29200D03*
X87900Y-30200D03*
G54D11*
X92400Y-46500D03*
X71200Y-46500D03*
X92400Y-16400D03*
X71200Y-16400D03*
G54D26*
X70800Y-31400D03*
X70800Y-29400D03*
X71800Y-32000D03*
X71800Y-28800D03*
X46500Y-31400D03*
X46500Y-29400D03*
X47500Y-32000D03*
X47500Y-28800D03*
G54D11*
X46900Y-16400D03*
X68100Y-16400D03*
X46900Y-46500D03*
X68100Y-46500D03*
G54D12*
X66600Y-29200D03*
X66600Y-28200D03*
X66600Y-27200D03*
X66600Y-26200D03*
X66600Y-25200D03*
X66600Y-24200D03*
X66600Y-23200D03*
X66600Y-22200D03*
X66600Y-21200D03*
X66600Y-20200D03*
X66600Y-19200D03*
X66600Y-18200D03*
X66600Y-17200D03*
G54D13*
X66600Y-30200D03*
G54D12*
X63600Y-17200D03*
X63600Y-18200D03*
X63600Y-19200D03*
X63600Y-20200D03*
X63600Y-21200D03*
X63600Y-22200D03*
X63600Y-23200D03*
X63600Y-24200D03*
X63600Y-25200D03*
X63600Y-26200D03*
X63600Y-27200D03*
X63600Y-28200D03*
X63600Y-29200D03*
X63600Y-30200D03*
X63600Y-34000D03*
X63600Y-35000D03*
X63600Y-36000D03*
X63600Y-37000D03*
X63600Y-38000D03*
X63600Y-39000D03*
X63600Y-40000D03*
X63600Y-41000D03*
X63600Y-42000D03*
X63600Y-43000D03*
X63600Y-44000D03*
X63600Y-45000D03*
X63600Y-46000D03*
G54D13*
X63600Y-33000D03*
G54D12*
X66600Y-46000D03*
X66600Y-45000D03*
X66600Y-44000D03*
X66600Y-43000D03*
X66600Y-42000D03*
X66600Y-41000D03*
X66600Y-40000D03*
X66600Y-39000D03*
X66600Y-38000D03*
X66600Y-37000D03*
X66600Y-36000D03*
X66600Y-35000D03*
X66600Y-34000D03*
X66600Y-33000D03*
X56800Y-34000D03*
X56800Y-35000D03*
X56800Y-36000D03*
X56800Y-37000D03*
X56800Y-38000D03*
X56800Y-39000D03*
X56800Y-40000D03*
X56800Y-41000D03*
X56800Y-42000D03*
X56800Y-43000D03*
X56800Y-44000D03*
X56800Y-45000D03*
X56800Y-46000D03*
G54D13*
X56800Y-33000D03*
G54D12*
X59800Y-46000D03*
X59800Y-45000D03*
X59800Y-44000D03*
X59800Y-43000D03*
X59800Y-42000D03*
X59800Y-41000D03*
X59800Y-40000D03*
X59800Y-39000D03*
X59800Y-38000D03*
X59800Y-37000D03*
X59800Y-36000D03*
X59800Y-35000D03*
X59800Y-34000D03*
X59800Y-33000D03*
G54D13*
X55500Y-29000D03*
G54D12*
X54500Y-29000D03*
X53500Y-29000D03*
X52500Y-29000D03*
X52500Y-32000D03*
X53500Y-32000D03*
X54500Y-32000D03*
X55500Y-32000D03*
G54D25*
X54500Y-21850D03*
X54500Y-20550D03*
G54D24*
X55650Y-22800D03*
X54350Y-22800D03*
G54D23*
X56400Y-21575D03*
X56400Y-20825D03*
X47500Y-31175D03*
X47500Y-30425D03*
G54D13*
X64700Y-18800D03*
X56300Y-24000D03*
X58400Y-30200D03*
X61500Y-27200D03*
X61500Y-18200D03*
X61500Y-17200D03*
G54D21*
X49100Y-38138D03*
X49100Y-33465D03*
G54D22*
X51600Y-34050D03*
G54D14*
X52600Y-34550D03*
X51600Y-35050D03*
X52600Y-35550D03*
X51600Y-36050D03*
X52600Y-36550D03*
X51600Y-37050D03*
X52600Y-37550D03*
G54D21*
X49100Y-44638D03*
X49100Y-39965D03*
G54D22*
X51600Y-40550D03*
G54D14*
X52600Y-41050D03*
X51600Y-41550D03*
X52600Y-42050D03*
X51600Y-42550D03*
X52600Y-43050D03*
X51600Y-43550D03*
X52600Y-44050D03*
G54D19*
X53500Y-17200D03*
G54D20*
X53500Y-18200D03*
G54D19*
X53500Y-19200D03*
G54D18*
X55600Y-20641D03*
X55600Y-21759D03*
G54D17*
X61241Y-22200D03*
X62359Y-22200D03*
X61241Y-21300D03*
X62359Y-21300D03*
X61241Y-20300D03*
X62359Y-20300D03*
X61241Y-19200D03*
X62359Y-19200D03*
G54D15*
X49100Y-24000D03*
G54D16*
X51500Y-24000D03*
G54D15*
X50000Y-26000D03*
X49100Y-19300D03*
G54D16*
X51500Y-19300D03*
G54D15*
X50000Y-21300D03*
G54D14*
X55400Y-25700D03*
X55400Y-26700D03*
G54D12*
X57400Y-18200D03*
X57400Y-19200D03*
X57400Y-20200D03*
X57400Y-21200D03*
X57400Y-22200D03*
X57400Y-23200D03*
X57400Y-24200D03*
X57400Y-25200D03*
X57400Y-26200D03*
X57400Y-27200D03*
X57400Y-28200D03*
X57400Y-29200D03*
X57400Y-30200D03*
G54D13*
X57400Y-17200D03*
G54D12*
X60400Y-30200D03*
X60400Y-29200D03*
X60400Y-28200D03*
X60400Y-27200D03*
X60400Y-26200D03*
X60400Y-25200D03*
X60400Y-24200D03*
X60400Y-23200D03*
X60400Y-22200D03*
X60400Y-21200D03*
X60400Y-20200D03*
X60400Y-19200D03*
X60400Y-18200D03*
X60400Y-17200D03*
X52100Y-22000D03*
X52100Y-21000D03*
X53300Y-22000D03*
X53300Y-21000D03*
X53200Y-26700D03*
X53200Y-25700D03*
X53200Y-23500D03*
X53200Y-24500D03*
X55200Y-19200D03*
X55200Y-18200D03*
X56400Y-19200D03*
X56400Y-18200D03*
X52000Y-26700D03*
X52000Y-25700D03*
G54D11*
X49300Y-16400D03*
X68000Y-29200D03*
X68000Y-26200D03*
X68000Y-23200D03*
X68000Y-20800D03*
X68000Y-18400D03*
X62000Y-34000D03*
X62000Y-37000D03*
X62000Y-40000D03*
X61900Y-43000D03*
X61900Y-46000D03*
X55200Y-34000D03*
X55200Y-37000D03*
X55200Y-40000D03*
X55200Y-43000D03*
X55200Y-46000D03*
X46900Y-27000D03*
X48900Y-27800D03*
X48900Y-29900D03*
X51000Y-28100D03*
G54D13*
X92100Y-56200D03*
X90900Y-56200D03*
X87300Y-56200D03*
X88500Y-56200D03*
X89700Y-56200D03*
X85900Y-49400D03*
G54D27*
X87350Y-55300D03*
X87600Y-55300D03*
X87860Y-55300D03*
X88120Y-55300D03*
X88370Y-55300D03*
X88630Y-55300D03*
X88890Y-55300D03*
X89140Y-55300D03*
X89400Y-55300D03*
X89650Y-55300D03*
X89910Y-55300D03*
X90170Y-55300D03*
X90420Y-55300D03*
X90680Y-55300D03*
X90680Y-52500D03*
X90420Y-52500D03*
X90180Y-52500D03*
X89910Y-52500D03*
X89650Y-52500D03*
X89400Y-52500D03*
X89140Y-52500D03*
X88890Y-52500D03*
X88630Y-52500D03*
X88370Y-52500D03*
X88120Y-52500D03*
X87860Y-52500D03*
X87600Y-52500D03*
X87350Y-52500D03*
G54D28*
X86250Y-54176D03*
X85750Y-54176D03*
X85250Y-54176D03*
X84750Y-54176D03*
X84750Y-56223D03*
X85250Y-56223D03*
X85750Y-56223D03*
X86250Y-56223D03*
G54D29*
X84701Y-50000D03*
X84299Y-50000D03*
X89699Y-49700D03*
X90101Y-49700D03*
X87901Y-49700D03*
X87499Y-49700D03*
X83901Y-50000D03*
X83499Y-50000D03*
X91999Y-50500D03*
X92401Y-50500D03*
X91999Y-51500D03*
X92401Y-51500D03*
X91999Y-52500D03*
X92401Y-52500D03*
X91999Y-53500D03*
X92401Y-53500D03*
G54D13*
X83800Y-49400D03*
G54D12*
X84800Y-49400D03*
G54D13*
X80200Y-54900D03*
X80200Y-56100D03*
X80200Y-52400D03*
X80200Y-53700D03*
X80200Y-51200D03*
X82600Y-56100D03*
X81400Y-54800D03*
X82600Y-54800D03*
X83800Y-56100D03*
X83800Y-54800D03*
X82600Y-49400D03*
X81400Y-49400D03*
X80200Y-49400D03*
X91000Y-49400D03*
G54D19*
X81800Y-51000D03*
G54D20*
X81800Y-52000D03*
G54D19*
X81800Y-53000D03*
G54D14*
X84600Y-51300D03*
X84600Y-52300D03*
G54D30*
X90040Y-51000D03*
X87560Y-51000D03*
X71140Y-51000D03*
X68660Y-51000D03*
G54D14*
X65700Y-51300D03*
X65700Y-52300D03*
G54D19*
X62900Y-51000D03*
G54D20*
X62900Y-52000D03*
G54D19*
X62900Y-53000D03*
G54D13*
X72100Y-49400D03*
X61300Y-49400D03*
X62500Y-49400D03*
X63700Y-49400D03*
X64900Y-54800D03*
X64900Y-56100D03*
X63700Y-54800D03*
X62500Y-54800D03*
X63700Y-56100D03*
X61300Y-51200D03*
X61300Y-53700D03*
X61300Y-52400D03*
X61300Y-56100D03*
X61300Y-54900D03*
X64900Y-49400D03*
G54D12*
X65900Y-49400D03*
G54D29*
X73099Y-53500D03*
X73501Y-53500D03*
X73099Y-52500D03*
X73501Y-52500D03*
X73099Y-51500D03*
X73501Y-51500D03*
X73099Y-50500D03*
X73501Y-50500D03*
X65001Y-50000D03*
X64599Y-50000D03*
X69001Y-49700D03*
X68599Y-49700D03*
X70799Y-49700D03*
X71201Y-49700D03*
X65801Y-50000D03*
X65399Y-50000D03*
G54D28*
X67350Y-54176D03*
X66850Y-54176D03*
X66350Y-54176D03*
X65850Y-54176D03*
X65850Y-56223D03*
X66350Y-56223D03*
X66850Y-56223D03*
X67350Y-56223D03*
G54D27*
X68450Y-55300D03*
X68700Y-55300D03*
X68960Y-55300D03*
X69220Y-55300D03*
X69470Y-55300D03*
X69730Y-55300D03*
X69990Y-55300D03*
X70240Y-55300D03*
X70500Y-55300D03*
X70750Y-55300D03*
X71010Y-55300D03*
X71270Y-55300D03*
X71520Y-55300D03*
X71780Y-55300D03*
X71780Y-52500D03*
X71520Y-52500D03*
X71280Y-52500D03*
X71010Y-52500D03*
X70750Y-52500D03*
X70500Y-52500D03*
X70240Y-52500D03*
X69990Y-52500D03*
X69730Y-52500D03*
X69470Y-52500D03*
X69220Y-52500D03*
X68960Y-52500D03*
X68700Y-52500D03*
X68450Y-52500D03*
G54D13*
X67000Y-49400D03*
X70800Y-56200D03*
X69600Y-56200D03*
X68400Y-56200D03*
X72000Y-56200D03*
X73200Y-56200D03*
X52800Y-56200D03*
X51600Y-56200D03*
X48000Y-56200D03*
X49200Y-56200D03*
X50400Y-56200D03*
X46600Y-49400D03*
G54D27*
X48050Y-55300D03*
X48300Y-55300D03*
X48560Y-55300D03*
X48820Y-55300D03*
X49070Y-55300D03*
X49330Y-55300D03*
X49590Y-55300D03*
X49840Y-55300D03*
X50100Y-55300D03*
X50350Y-55300D03*
X50610Y-55300D03*
X50870Y-55300D03*
X51120Y-55300D03*
X51380Y-55300D03*
X51380Y-52500D03*
X51120Y-52500D03*
X50880Y-52500D03*
X50610Y-52500D03*
X50350Y-52500D03*
X50100Y-52500D03*
X49840Y-52500D03*
X49590Y-52500D03*
X49330Y-52500D03*
X49070Y-52500D03*
X48820Y-52500D03*
X48560Y-52500D03*
X48300Y-52500D03*
X48050Y-52500D03*
G54D28*
X46950Y-54176D03*
X46450Y-54176D03*
X45950Y-54176D03*
X45450Y-54176D03*
X45450Y-56223D03*
X45950Y-56223D03*
X46450Y-56223D03*
X46950Y-56223D03*
G54D29*
X45401Y-50000D03*
X44999Y-50000D03*
X50399Y-49700D03*
X50801Y-49700D03*
X48601Y-49700D03*
X48199Y-49700D03*
X44601Y-50000D03*
X44199Y-50000D03*
X52699Y-50500D03*
X53101Y-50500D03*
X52699Y-51500D03*
X53101Y-51500D03*
X52699Y-52500D03*
X53101Y-52500D03*
X52699Y-53500D03*
X53101Y-53500D03*
G54D13*
X44500Y-49400D03*
G54D12*
X45500Y-49400D03*
G54D13*
X40900Y-54900D03*
X40900Y-56100D03*
X40900Y-52400D03*
X40900Y-53700D03*
X40900Y-51200D03*
X43300Y-56100D03*
X42100Y-54800D03*
X43300Y-54800D03*
X44500Y-56100D03*
X44500Y-54800D03*
X43300Y-49400D03*
X42100Y-49400D03*
X40900Y-49400D03*
X51700Y-49400D03*
G54D19*
X42500Y-51000D03*
G54D20*
X42500Y-52000D03*
G54D19*
X42500Y-53000D03*
G54D14*
X45300Y-51300D03*
X45300Y-52300D03*
G54D30*
X50740Y-51000D03*
X48260Y-51000D03*
G54D11*
X26700Y-28100D03*
X24600Y-29900D03*
X24600Y-27800D03*
X22600Y-27000D03*
X30900Y-46000D03*
X30900Y-43000D03*
X30900Y-40000D03*
X30900Y-37000D03*
X30900Y-34000D03*
X37600Y-46000D03*
X37600Y-43000D03*
X37700Y-40000D03*
X37700Y-37000D03*
X37700Y-34000D03*
X43700Y-18400D03*
X43700Y-20800D03*
X43700Y-23200D03*
X43700Y-26200D03*
X43700Y-29200D03*
X25000Y-16400D03*
G54D12*
X27700Y-26700D03*
X27700Y-25700D03*
X32100Y-19200D03*
X32100Y-18200D03*
X30900Y-19200D03*
X30900Y-18200D03*
X28900Y-23500D03*
X28900Y-24500D03*
X28900Y-26700D03*
X28900Y-25700D03*
X29000Y-22000D03*
X29000Y-21000D03*
X27800Y-22000D03*
X27800Y-21000D03*
X33100Y-18200D03*
X33100Y-19200D03*
X33100Y-20200D03*
X33100Y-21200D03*
X33100Y-22200D03*
X33100Y-23200D03*
X33100Y-24200D03*
X33100Y-25200D03*
X33100Y-26200D03*
X33100Y-27200D03*
X33100Y-28200D03*
X33100Y-29200D03*
X33100Y-30200D03*
G54D13*
X33100Y-17200D03*
G54D12*
X36100Y-30200D03*
X36100Y-29200D03*
X36100Y-28200D03*
X36100Y-27200D03*
X36100Y-26200D03*
X36100Y-25200D03*
X36100Y-24200D03*
X36100Y-23200D03*
X36100Y-22200D03*
X36100Y-21200D03*
X36100Y-20200D03*
X36100Y-19200D03*
X36100Y-18200D03*
X36100Y-17200D03*
G54D14*
X31100Y-25700D03*
X31100Y-26700D03*
G54D15*
X24800Y-19300D03*
G54D16*
X27200Y-19300D03*
G54D15*
X25700Y-21300D03*
X24800Y-24000D03*
G54D16*
X27200Y-24000D03*
G54D15*
X25700Y-26000D03*
G54D17*
X36941Y-19200D03*
X38059Y-19200D03*
X36941Y-20300D03*
X38059Y-20300D03*
X36941Y-21300D03*
X38059Y-21300D03*
X36941Y-22200D03*
X38059Y-22200D03*
G54D18*
X31300Y-20641D03*
X31300Y-21759D03*
G54D19*
X29200Y-17200D03*
G54D20*
X29200Y-18200D03*
G54D19*
X29200Y-19200D03*
G54D21*
X24800Y-44638D03*
X24800Y-39965D03*
G54D22*
X27300Y-40550D03*
G54D14*
X28300Y-41050D03*
X27300Y-41550D03*
X28300Y-42050D03*
X27300Y-42550D03*
X28300Y-43050D03*
X27300Y-43550D03*
X28300Y-44050D03*
G54D21*
X24800Y-38138D03*
X24800Y-33465D03*
G54D22*
X27300Y-34050D03*
G54D14*
X28300Y-34550D03*
X27300Y-35050D03*
X28300Y-35550D03*
X27300Y-36050D03*
X28300Y-36550D03*
X27300Y-37050D03*
X28300Y-37550D03*
G54D13*
X37200Y-17200D03*
X37200Y-18200D03*
X37200Y-27200D03*
X34100Y-30200D03*
X32000Y-24000D03*
X40400Y-18800D03*
G54D23*
X23200Y-31175D03*
X23200Y-30425D03*
X32100Y-21575D03*
X32100Y-20825D03*
G54D24*
X31350Y-22800D03*
X30050Y-22800D03*
G54D25*
X30200Y-21850D03*
X30200Y-20550D03*
G54D13*
X31200Y-29000D03*
G54D12*
X30200Y-29000D03*
X29200Y-29000D03*
X28200Y-29000D03*
X28200Y-32000D03*
X29200Y-32000D03*
X30200Y-32000D03*
X31200Y-32000D03*
X32500Y-34000D03*
X32500Y-35000D03*
X32500Y-36000D03*
X32500Y-37000D03*
X32500Y-38000D03*
X32500Y-39000D03*
X32500Y-40000D03*
X32500Y-41000D03*
X32500Y-42000D03*
X32500Y-43000D03*
X32500Y-44000D03*
X32500Y-45000D03*
X32500Y-46000D03*
G54D13*
X32500Y-33000D03*
G54D12*
X35500Y-46000D03*
X35500Y-45000D03*
X35500Y-44000D03*
X35500Y-43000D03*
X35500Y-42000D03*
X35500Y-41000D03*
X35500Y-40000D03*
X35500Y-39000D03*
X35500Y-38000D03*
X35500Y-37000D03*
X35500Y-36000D03*
X35500Y-35000D03*
X35500Y-34000D03*
X35500Y-33000D03*
X39300Y-34000D03*
X39300Y-35000D03*
X39300Y-36000D03*
X39300Y-37000D03*
X39300Y-38000D03*
X39300Y-39000D03*
X39300Y-40000D03*
X39300Y-41000D03*
X39300Y-42000D03*
X39300Y-43000D03*
X39300Y-44000D03*
X39300Y-45000D03*
X39300Y-46000D03*
G54D13*
X39300Y-33000D03*
G54D12*
X42300Y-46000D03*
X42300Y-45000D03*
X42300Y-44000D03*
X42300Y-43000D03*
X42300Y-42000D03*
X42300Y-41000D03*
X42300Y-40000D03*
X42300Y-39000D03*
X42300Y-38000D03*
X42300Y-37000D03*
X42300Y-36000D03*
X42300Y-35000D03*
X42300Y-34000D03*
X42300Y-33000D03*
X42300Y-29200D03*
X42300Y-28200D03*
X42300Y-27200D03*
X42300Y-26200D03*
X42300Y-25200D03*
X42300Y-24200D03*
X42300Y-23200D03*
X42300Y-22200D03*
X42300Y-21200D03*
X42300Y-20200D03*
X42300Y-19200D03*
X42300Y-18200D03*
X42300Y-17200D03*
G54D13*
X42300Y-30200D03*
G54D12*
X39300Y-17200D03*
X39300Y-18200D03*
X39300Y-19200D03*
X39300Y-20200D03*
X39300Y-21200D03*
X39300Y-22200D03*
X39300Y-23200D03*
X39300Y-24200D03*
X39300Y-25200D03*
X39300Y-26200D03*
X39300Y-27200D03*
X39300Y-28200D03*
X39300Y-29200D03*
X39300Y-30200D03*
G54D11*
X43800Y-46500D03*
X22600Y-46500D03*
X43800Y-16400D03*
X22600Y-16400D03*
G54D26*
X22200Y-31400D03*
X22200Y-29400D03*
X23200Y-32000D03*
X23200Y-28800D03*
G54D30*
X32040Y-51000D03*
X29560Y-51000D03*
G54D14*
X26600Y-51300D03*
X26600Y-52300D03*
G54D19*
X23800Y-51000D03*
G54D20*
X23800Y-52000D03*
G54D19*
X23800Y-53000D03*
G54D13*
X33000Y-49400D03*
X22200Y-49400D03*
X23400Y-49400D03*
X24600Y-49400D03*
X25800Y-54800D03*
X25800Y-56100D03*
X24600Y-54800D03*
X23400Y-54800D03*
X24600Y-56100D03*
X22200Y-51200D03*
X22200Y-53700D03*
X22200Y-52400D03*
X22200Y-56100D03*
X22200Y-54900D03*
X25800Y-49400D03*
G54D12*
X26800Y-49400D03*
G54D29*
X33999Y-53500D03*
X34401Y-53500D03*
X33999Y-52500D03*
X34401Y-52500D03*
X33999Y-51500D03*
X34401Y-51500D03*
X33999Y-50500D03*
X34401Y-50500D03*
X25901Y-50000D03*
X25499Y-50000D03*
X29901Y-49700D03*
X29499Y-49700D03*
X31699Y-49700D03*
X32101Y-49700D03*
X26701Y-50000D03*
X26299Y-50000D03*
G54D28*
X28250Y-54176D03*
X27750Y-54176D03*
X27250Y-54176D03*
X26750Y-54176D03*
X26750Y-56223D03*
X27250Y-56223D03*
X27750Y-56223D03*
X28250Y-56223D03*
G54D27*
X29350Y-55300D03*
X29600Y-55300D03*
X29860Y-55300D03*
X30120Y-55300D03*
X30370Y-55300D03*
X30630Y-55300D03*
X30890Y-55300D03*
X31140Y-55300D03*
X31400Y-55300D03*
X31650Y-55300D03*
X31910Y-55300D03*
X32170Y-55300D03*
X32420Y-55300D03*
X32680Y-55300D03*
X32680Y-52500D03*
X32420Y-52500D03*
X32180Y-52500D03*
X31910Y-52500D03*
X31650Y-52500D03*
X31400Y-52500D03*
X31140Y-52500D03*
X30890Y-52500D03*
X30630Y-52500D03*
X30370Y-52500D03*
X30120Y-52500D03*
X29860Y-52500D03*
X29600Y-52500D03*
X29350Y-52500D03*
G54D13*
X27900Y-49400D03*
X31700Y-56200D03*
X30500Y-56200D03*
X29300Y-56200D03*
X32900Y-56200D03*
X34100Y-56200D03*
M02*
