G04 (created by PCBNEW-RS274X (2011-07-08)-stable) date Thu 21 Jul 2011 06:08:38 PM EDT*
G01*
G70*
G90*
%MOIN*%
G04 Gerber Fmt 3.4, Leading zero omitted, Abs format*
%FSLAX34Y34*%
G04 APERTURE LIST*
%ADD10C,0.006000*%
%ADD11R,0.070900X0.062900*%
%ADD12R,0.091000X0.019000*%
%ADD13R,0.098000X0.079000*%
%ADD14R,0.050000X0.016000*%
%ADD15R,0.086600X0.023600*%
G04 APERTURE END LIST*
G54D10*
G54D11*
X76000Y-49559D03*
X76000Y-48441D03*
G54D12*
X67615Y-47890D03*
X67615Y-47580D03*
X67615Y-48200D03*
X67615Y-48510D03*
G54D13*
X69820Y-49950D03*
X67650Y-49950D03*
X67650Y-46450D03*
X69820Y-46450D03*
G54D12*
X67615Y-48820D03*
G54D14*
X72000Y-46350D03*
X72000Y-46600D03*
X72000Y-46860D03*
X72000Y-47120D03*
X72000Y-47370D03*
X72000Y-47630D03*
X72000Y-47890D03*
X72000Y-48140D03*
X72000Y-48400D03*
X72000Y-48650D03*
X72000Y-48910D03*
X72000Y-49170D03*
X72000Y-49420D03*
X72000Y-49680D03*
X74800Y-49680D03*
X74800Y-49420D03*
X74800Y-49180D03*
X74800Y-48910D03*
X74800Y-48650D03*
X74800Y-48400D03*
X74800Y-48140D03*
X74800Y-47890D03*
X74800Y-47630D03*
X74800Y-47370D03*
X74800Y-47120D03*
X74800Y-46860D03*
X74800Y-46600D03*
X74800Y-46350D03*
G54D15*
X77476Y-47450D03*
X77476Y-47950D03*
X77476Y-48450D03*
X77476Y-48950D03*
X79523Y-48950D03*
X79523Y-48450D03*
X79523Y-47950D03*
X79523Y-47450D03*
G54D11*
X76000Y-46441D03*
X76000Y-47559D03*
X61500Y-49559D03*
X61500Y-48441D03*
G54D12*
X53115Y-47890D03*
X53115Y-47580D03*
X53115Y-48200D03*
X53115Y-48510D03*
G54D13*
X55320Y-49950D03*
X53150Y-49950D03*
X53150Y-46450D03*
X55320Y-46450D03*
G54D12*
X53115Y-48820D03*
G54D14*
X57500Y-46350D03*
X57500Y-46600D03*
X57500Y-46860D03*
X57500Y-47120D03*
X57500Y-47370D03*
X57500Y-47630D03*
X57500Y-47890D03*
X57500Y-48140D03*
X57500Y-48400D03*
X57500Y-48650D03*
X57500Y-48910D03*
X57500Y-49170D03*
X57500Y-49420D03*
X57500Y-49680D03*
X60300Y-49680D03*
X60300Y-49420D03*
X60300Y-49180D03*
X60300Y-48910D03*
X60300Y-48650D03*
X60300Y-48400D03*
X60300Y-48140D03*
X60300Y-47890D03*
X60300Y-47630D03*
X60300Y-47370D03*
X60300Y-47120D03*
X60300Y-46860D03*
X60300Y-46600D03*
X60300Y-46350D03*
G54D15*
X62976Y-47450D03*
X62976Y-47950D03*
X62976Y-48450D03*
X62976Y-48950D03*
X65023Y-48950D03*
X65023Y-48450D03*
X65023Y-47950D03*
X65023Y-47450D03*
G54D11*
X61500Y-46441D03*
X61500Y-47559D03*
X47100Y-49559D03*
X47100Y-48441D03*
G54D12*
X38715Y-47890D03*
X38715Y-47580D03*
X38715Y-48200D03*
X38715Y-48510D03*
G54D13*
X40920Y-49950D03*
X38750Y-49950D03*
X38750Y-46450D03*
X40920Y-46450D03*
G54D12*
X38715Y-48820D03*
G54D14*
X43100Y-46350D03*
X43100Y-46600D03*
X43100Y-46860D03*
X43100Y-47120D03*
X43100Y-47370D03*
X43100Y-47630D03*
X43100Y-47890D03*
X43100Y-48140D03*
X43100Y-48400D03*
X43100Y-48650D03*
X43100Y-48910D03*
X43100Y-49170D03*
X43100Y-49420D03*
X43100Y-49680D03*
X45900Y-49680D03*
X45900Y-49420D03*
X45900Y-49180D03*
X45900Y-48910D03*
X45900Y-48650D03*
X45900Y-48400D03*
X45900Y-48140D03*
X45900Y-47890D03*
X45900Y-47630D03*
X45900Y-47370D03*
X45900Y-47120D03*
X45900Y-46860D03*
X45900Y-46600D03*
X45900Y-46350D03*
G54D15*
X48576Y-47450D03*
X48576Y-47950D03*
X48576Y-48450D03*
X48576Y-48950D03*
X50623Y-48950D03*
X50623Y-48450D03*
X50623Y-47950D03*
X50623Y-47450D03*
G54D11*
X47100Y-46441D03*
X47100Y-47559D03*
X32600Y-46441D03*
X32600Y-47559D03*
G54D15*
X34076Y-47450D03*
X34076Y-47950D03*
X34076Y-48450D03*
X34076Y-48950D03*
X36123Y-48950D03*
X36123Y-48450D03*
X36123Y-47950D03*
X36123Y-47450D03*
G54D14*
X28600Y-46350D03*
X28600Y-46600D03*
X28600Y-46860D03*
X28600Y-47120D03*
X28600Y-47370D03*
X28600Y-47630D03*
X28600Y-47890D03*
X28600Y-48140D03*
X28600Y-48400D03*
X28600Y-48650D03*
X28600Y-48910D03*
X28600Y-49170D03*
X28600Y-49420D03*
X28600Y-49680D03*
X31400Y-49680D03*
X31400Y-49420D03*
X31400Y-49180D03*
X31400Y-48910D03*
X31400Y-48650D03*
X31400Y-48400D03*
X31400Y-48140D03*
X31400Y-47890D03*
X31400Y-47630D03*
X31400Y-47370D03*
X31400Y-47120D03*
X31400Y-46860D03*
X31400Y-46600D03*
X31400Y-46350D03*
G54D12*
X24215Y-47890D03*
X24215Y-47580D03*
X24215Y-48200D03*
X24215Y-48510D03*
G54D13*
X26420Y-49950D03*
X24250Y-49950D03*
X24250Y-46450D03*
X26420Y-46450D03*
G54D12*
X24215Y-48820D03*
G54D11*
X32600Y-49559D03*
X32600Y-48441D03*
X90500Y-46441D03*
X90500Y-47559D03*
G54D15*
X91976Y-47450D03*
X91976Y-47950D03*
X91976Y-48450D03*
X91976Y-48950D03*
X94023Y-48950D03*
X94023Y-48450D03*
X94023Y-47950D03*
X94023Y-47450D03*
G54D14*
X86500Y-46350D03*
X86500Y-46600D03*
X86500Y-46860D03*
X86500Y-47120D03*
X86500Y-47370D03*
X86500Y-47630D03*
X86500Y-47890D03*
X86500Y-48140D03*
X86500Y-48400D03*
X86500Y-48650D03*
X86500Y-48910D03*
X86500Y-49170D03*
X86500Y-49420D03*
X86500Y-49680D03*
X89300Y-49680D03*
X89300Y-49420D03*
X89300Y-49180D03*
X89300Y-48910D03*
X89300Y-48650D03*
X89300Y-48400D03*
X89300Y-48140D03*
X89300Y-47890D03*
X89300Y-47630D03*
X89300Y-47370D03*
X89300Y-47120D03*
X89300Y-46860D03*
X89300Y-46600D03*
X89300Y-46350D03*
G54D12*
X82115Y-47890D03*
X82115Y-47580D03*
X82115Y-48200D03*
X82115Y-48510D03*
G54D13*
X84320Y-49950D03*
X82150Y-49950D03*
X82150Y-46450D03*
X84320Y-46450D03*
G54D12*
X82115Y-48820D03*
G54D11*
X90500Y-49559D03*
X90500Y-48441D03*
X90500Y-36559D03*
X90500Y-35441D03*
G54D12*
X82115Y-34890D03*
X82115Y-34580D03*
X82115Y-35200D03*
X82115Y-35510D03*
G54D13*
X84320Y-36950D03*
X82150Y-36950D03*
X82150Y-33450D03*
X84320Y-33450D03*
G54D12*
X82115Y-35820D03*
G54D14*
X86500Y-33350D03*
X86500Y-33600D03*
X86500Y-33860D03*
X86500Y-34120D03*
X86500Y-34370D03*
X86500Y-34630D03*
X86500Y-34890D03*
X86500Y-35140D03*
X86500Y-35400D03*
X86500Y-35650D03*
X86500Y-35910D03*
X86500Y-36170D03*
X86500Y-36420D03*
X86500Y-36680D03*
X89300Y-36680D03*
X89300Y-36420D03*
X89300Y-36180D03*
X89300Y-35910D03*
X89300Y-35650D03*
X89300Y-35400D03*
X89300Y-35140D03*
X89300Y-34890D03*
X89300Y-34630D03*
X89300Y-34370D03*
X89300Y-34120D03*
X89300Y-33860D03*
X89300Y-33600D03*
X89300Y-33350D03*
G54D15*
X91976Y-34450D03*
X91976Y-34950D03*
X91976Y-35450D03*
X91976Y-35950D03*
X94023Y-35950D03*
X94023Y-35450D03*
X94023Y-34950D03*
X94023Y-34450D03*
G54D11*
X90500Y-33441D03*
X90500Y-34559D03*
X32600Y-36559D03*
X32600Y-35441D03*
G54D12*
X24215Y-34890D03*
X24215Y-34580D03*
X24215Y-35200D03*
X24215Y-35510D03*
G54D13*
X26420Y-36950D03*
X24250Y-36950D03*
X24250Y-33450D03*
X26420Y-33450D03*
G54D12*
X24215Y-35820D03*
G54D14*
X28600Y-33350D03*
X28600Y-33600D03*
X28600Y-33860D03*
X28600Y-34120D03*
X28600Y-34370D03*
X28600Y-34630D03*
X28600Y-34890D03*
X28600Y-35140D03*
X28600Y-35400D03*
X28600Y-35650D03*
X28600Y-35910D03*
X28600Y-36170D03*
X28600Y-36420D03*
X28600Y-36680D03*
X31400Y-36680D03*
X31400Y-36420D03*
X31400Y-36180D03*
X31400Y-35910D03*
X31400Y-35650D03*
X31400Y-35400D03*
X31400Y-35140D03*
X31400Y-34890D03*
X31400Y-34630D03*
X31400Y-34370D03*
X31400Y-34120D03*
X31400Y-33860D03*
X31400Y-33600D03*
X31400Y-33350D03*
G54D15*
X34076Y-34450D03*
X34076Y-34950D03*
X34076Y-35450D03*
X34076Y-35950D03*
X36123Y-35950D03*
X36123Y-35450D03*
X36123Y-34950D03*
X36123Y-34450D03*
G54D11*
X32600Y-33441D03*
X32600Y-34559D03*
X47100Y-33441D03*
X47100Y-34559D03*
G54D15*
X48576Y-34450D03*
X48576Y-34950D03*
X48576Y-35450D03*
X48576Y-35950D03*
X50623Y-35950D03*
X50623Y-35450D03*
X50623Y-34950D03*
X50623Y-34450D03*
G54D14*
X43100Y-33350D03*
X43100Y-33600D03*
X43100Y-33860D03*
X43100Y-34120D03*
X43100Y-34370D03*
X43100Y-34630D03*
X43100Y-34890D03*
X43100Y-35140D03*
X43100Y-35400D03*
X43100Y-35650D03*
X43100Y-35910D03*
X43100Y-36170D03*
X43100Y-36420D03*
X43100Y-36680D03*
X45900Y-36680D03*
X45900Y-36420D03*
X45900Y-36180D03*
X45900Y-35910D03*
X45900Y-35650D03*
X45900Y-35400D03*
X45900Y-35140D03*
X45900Y-34890D03*
X45900Y-34630D03*
X45900Y-34370D03*
X45900Y-34120D03*
X45900Y-33860D03*
X45900Y-33600D03*
X45900Y-33350D03*
G54D12*
X38715Y-34890D03*
X38715Y-34580D03*
X38715Y-35200D03*
X38715Y-35510D03*
G54D13*
X40920Y-36950D03*
X38750Y-36950D03*
X38750Y-33450D03*
X40920Y-33450D03*
G54D12*
X38715Y-35820D03*
G54D11*
X47100Y-36559D03*
X47100Y-35441D03*
X61500Y-33441D03*
X61500Y-34559D03*
G54D15*
X62976Y-34450D03*
X62976Y-34950D03*
X62976Y-35450D03*
X62976Y-35950D03*
X65023Y-35950D03*
X65023Y-35450D03*
X65023Y-34950D03*
X65023Y-34450D03*
G54D14*
X57500Y-33350D03*
X57500Y-33600D03*
X57500Y-33860D03*
X57500Y-34120D03*
X57500Y-34370D03*
X57500Y-34630D03*
X57500Y-34890D03*
X57500Y-35140D03*
X57500Y-35400D03*
X57500Y-35650D03*
X57500Y-35910D03*
X57500Y-36170D03*
X57500Y-36420D03*
X57500Y-36680D03*
X60300Y-36680D03*
X60300Y-36420D03*
X60300Y-36180D03*
X60300Y-35910D03*
X60300Y-35650D03*
X60300Y-35400D03*
X60300Y-35140D03*
X60300Y-34890D03*
X60300Y-34630D03*
X60300Y-34370D03*
X60300Y-34120D03*
X60300Y-33860D03*
X60300Y-33600D03*
X60300Y-33350D03*
G54D12*
X53115Y-34890D03*
X53115Y-34580D03*
X53115Y-35200D03*
X53115Y-35510D03*
G54D13*
X55320Y-36950D03*
X53150Y-36950D03*
X53150Y-33450D03*
X55320Y-33450D03*
G54D12*
X53115Y-35820D03*
G54D11*
X61500Y-36559D03*
X61500Y-35441D03*
X76000Y-33441D03*
X76000Y-34559D03*
G54D15*
X77476Y-34450D03*
X77476Y-34950D03*
X77476Y-35450D03*
X77476Y-35950D03*
X79523Y-35950D03*
X79523Y-35450D03*
X79523Y-34950D03*
X79523Y-34450D03*
G54D14*
X72000Y-33350D03*
X72000Y-33600D03*
X72000Y-33860D03*
X72000Y-34120D03*
X72000Y-34370D03*
X72000Y-34630D03*
X72000Y-34890D03*
X72000Y-35140D03*
X72000Y-35400D03*
X72000Y-35650D03*
X72000Y-35910D03*
X72000Y-36170D03*
X72000Y-36420D03*
X72000Y-36680D03*
X74800Y-36680D03*
X74800Y-36420D03*
X74800Y-36180D03*
X74800Y-35910D03*
X74800Y-35650D03*
X74800Y-35400D03*
X74800Y-35140D03*
X74800Y-34890D03*
X74800Y-34630D03*
X74800Y-34370D03*
X74800Y-34120D03*
X74800Y-33860D03*
X74800Y-33600D03*
X74800Y-33350D03*
G54D12*
X67615Y-34890D03*
X67615Y-34580D03*
X67615Y-35200D03*
X67615Y-35510D03*
G54D13*
X69820Y-36950D03*
X67650Y-36950D03*
X67650Y-33450D03*
X69820Y-33450D03*
G54D12*
X67615Y-35820D03*
G54D11*
X76000Y-36559D03*
X76000Y-35441D03*
X76000Y-23559D03*
X76000Y-22441D03*
G54D12*
X67615Y-21890D03*
X67615Y-21580D03*
X67615Y-22200D03*
X67615Y-22510D03*
G54D13*
X69820Y-23950D03*
X67650Y-23950D03*
X67650Y-20450D03*
X69820Y-20450D03*
G54D12*
X67615Y-22820D03*
G54D14*
X72000Y-20350D03*
X72000Y-20600D03*
X72000Y-20860D03*
X72000Y-21120D03*
X72000Y-21370D03*
X72000Y-21630D03*
X72000Y-21890D03*
X72000Y-22140D03*
X72000Y-22400D03*
X72000Y-22650D03*
X72000Y-22910D03*
X72000Y-23170D03*
X72000Y-23420D03*
X72000Y-23680D03*
X74800Y-23680D03*
X74800Y-23420D03*
X74800Y-23180D03*
X74800Y-22910D03*
X74800Y-22650D03*
X74800Y-22400D03*
X74800Y-22140D03*
X74800Y-21890D03*
X74800Y-21630D03*
X74800Y-21370D03*
X74800Y-21120D03*
X74800Y-20860D03*
X74800Y-20600D03*
X74800Y-20350D03*
G54D15*
X77476Y-21450D03*
X77476Y-21950D03*
X77476Y-22450D03*
X77476Y-22950D03*
X79523Y-22950D03*
X79523Y-22450D03*
X79523Y-21950D03*
X79523Y-21450D03*
G54D11*
X76000Y-20441D03*
X76000Y-21559D03*
X61500Y-23559D03*
X61500Y-22441D03*
G54D12*
X53115Y-21890D03*
X53115Y-21580D03*
X53115Y-22200D03*
X53115Y-22510D03*
G54D13*
X55320Y-23950D03*
X53150Y-23950D03*
X53150Y-20450D03*
X55320Y-20450D03*
G54D12*
X53115Y-22820D03*
G54D14*
X57500Y-20350D03*
X57500Y-20600D03*
X57500Y-20860D03*
X57500Y-21120D03*
X57500Y-21370D03*
X57500Y-21630D03*
X57500Y-21890D03*
X57500Y-22140D03*
X57500Y-22400D03*
X57500Y-22650D03*
X57500Y-22910D03*
X57500Y-23170D03*
X57500Y-23420D03*
X57500Y-23680D03*
X60300Y-23680D03*
X60300Y-23420D03*
X60300Y-23180D03*
X60300Y-22910D03*
X60300Y-22650D03*
X60300Y-22400D03*
X60300Y-22140D03*
X60300Y-21890D03*
X60300Y-21630D03*
X60300Y-21370D03*
X60300Y-21120D03*
X60300Y-20860D03*
X60300Y-20600D03*
X60300Y-20350D03*
G54D15*
X62976Y-21450D03*
X62976Y-21950D03*
X62976Y-22450D03*
X62976Y-22950D03*
X65023Y-22950D03*
X65023Y-22450D03*
X65023Y-21950D03*
X65023Y-21450D03*
G54D11*
X61500Y-20441D03*
X61500Y-21559D03*
X47100Y-23559D03*
X47100Y-22441D03*
G54D12*
X38715Y-21890D03*
X38715Y-21580D03*
X38715Y-22200D03*
X38715Y-22510D03*
G54D13*
X40920Y-23950D03*
X38750Y-23950D03*
X38750Y-20450D03*
X40920Y-20450D03*
G54D12*
X38715Y-22820D03*
G54D14*
X43100Y-20350D03*
X43100Y-20600D03*
X43100Y-20860D03*
X43100Y-21120D03*
X43100Y-21370D03*
X43100Y-21630D03*
X43100Y-21890D03*
X43100Y-22140D03*
X43100Y-22400D03*
X43100Y-22650D03*
X43100Y-22910D03*
X43100Y-23170D03*
X43100Y-23420D03*
X43100Y-23680D03*
X45900Y-23680D03*
X45900Y-23420D03*
X45900Y-23180D03*
X45900Y-22910D03*
X45900Y-22650D03*
X45900Y-22400D03*
X45900Y-22140D03*
X45900Y-21890D03*
X45900Y-21630D03*
X45900Y-21370D03*
X45900Y-21120D03*
X45900Y-20860D03*
X45900Y-20600D03*
X45900Y-20350D03*
G54D15*
X48576Y-21450D03*
X48576Y-21950D03*
X48576Y-22450D03*
X48576Y-22950D03*
X50623Y-22950D03*
X50623Y-22450D03*
X50623Y-21950D03*
X50623Y-21450D03*
G54D11*
X47100Y-20441D03*
X47100Y-21559D03*
X32600Y-20441D03*
X32600Y-21559D03*
G54D15*
X34076Y-21450D03*
X34076Y-21950D03*
X34076Y-22450D03*
X34076Y-22950D03*
X36123Y-22950D03*
X36123Y-22450D03*
X36123Y-21950D03*
X36123Y-21450D03*
G54D14*
X28600Y-20350D03*
X28600Y-20600D03*
X28600Y-20860D03*
X28600Y-21120D03*
X28600Y-21370D03*
X28600Y-21630D03*
X28600Y-21890D03*
X28600Y-22140D03*
X28600Y-22400D03*
X28600Y-22650D03*
X28600Y-22910D03*
X28600Y-23170D03*
X28600Y-23420D03*
X28600Y-23680D03*
X31400Y-23680D03*
X31400Y-23420D03*
X31400Y-23180D03*
X31400Y-22910D03*
X31400Y-22650D03*
X31400Y-22400D03*
X31400Y-22140D03*
X31400Y-21890D03*
X31400Y-21630D03*
X31400Y-21370D03*
X31400Y-21120D03*
X31400Y-20860D03*
X31400Y-20600D03*
X31400Y-20350D03*
G54D12*
X24215Y-21890D03*
X24215Y-21580D03*
X24215Y-22200D03*
X24215Y-22510D03*
G54D13*
X26420Y-23950D03*
X24250Y-23950D03*
X24250Y-20450D03*
X26420Y-20450D03*
G54D12*
X24215Y-22820D03*
G54D11*
X32600Y-23559D03*
X32600Y-22441D03*
X90500Y-20441D03*
X90500Y-21559D03*
G54D15*
X91976Y-21450D03*
X91976Y-21950D03*
X91976Y-22450D03*
X91976Y-22950D03*
X94023Y-22950D03*
X94023Y-22450D03*
X94023Y-21950D03*
X94023Y-21450D03*
G54D14*
X86500Y-20350D03*
X86500Y-20600D03*
X86500Y-20860D03*
X86500Y-21120D03*
X86500Y-21370D03*
X86500Y-21630D03*
X86500Y-21890D03*
X86500Y-22140D03*
X86500Y-22400D03*
X86500Y-22650D03*
X86500Y-22910D03*
X86500Y-23170D03*
X86500Y-23420D03*
X86500Y-23680D03*
X89300Y-23680D03*
X89300Y-23420D03*
X89300Y-23180D03*
X89300Y-22910D03*
X89300Y-22650D03*
X89300Y-22400D03*
X89300Y-22140D03*
X89300Y-21890D03*
X89300Y-21630D03*
X89300Y-21370D03*
X89300Y-21120D03*
X89300Y-20860D03*
X89300Y-20600D03*
X89300Y-20350D03*
G54D12*
X82115Y-21890D03*
X82115Y-21580D03*
X82115Y-22200D03*
X82115Y-22510D03*
G54D13*
X84320Y-23950D03*
X82150Y-23950D03*
X82150Y-20450D03*
X84320Y-20450D03*
G54D12*
X82115Y-22820D03*
G54D11*
X90500Y-23559D03*
X90500Y-22441D03*
M02*
