G04 (created by PCBNEW-RS274X (2011-07-08)-stable) date Thu 21 Jul 2011 05:41:28 PM EDT*
G01*
G70*
G90*
%MOIN*%
G04 Gerber Fmt 3.4, Leading zero omitted, Abs format*
%FSLAX34Y34*%
G04 APERTURE LIST*
%ADD10C,0.006000*%
%ADD11C,0.012500*%
%ADD12C,0.012000*%
%ADD13C,0.005000*%
%ADD14C,0.015000*%
%ADD15C,0.002600*%
%ADD16C,0.004000*%
%ADD17C,0.003000*%
%ADD18C,0.007500*%
%ADD19C,0.003500*%
%ADD20C,0.008000*%
G04 APERTURE END LIST*
G54D10*
G54D11*
X39900Y-18300D02*
X40900Y-18300D01*
X39900Y-19300D02*
X40900Y-19300D01*
G54D12*
X39900Y-18300D02*
X39900Y-19300D01*
X40900Y-19300D02*
X40900Y-18300D01*
G54D13*
X28800Y-33500D02*
X28799Y-33509D01*
X28796Y-33519D01*
X28791Y-33527D01*
X28785Y-33535D01*
X28777Y-33541D01*
X28769Y-33546D01*
X28760Y-33548D01*
X28750Y-33549D01*
X28741Y-33549D01*
X28732Y-33546D01*
X28723Y-33541D01*
X28716Y-33535D01*
X28709Y-33528D01*
X28705Y-33519D01*
X28702Y-33510D01*
X28701Y-33500D01*
X28701Y-33491D01*
X28704Y-33482D01*
X28708Y-33473D01*
X28715Y-33466D01*
X28722Y-33459D01*
X28730Y-33455D01*
X28740Y-33452D01*
X28749Y-33451D01*
X28758Y-33451D01*
X28768Y-33454D01*
X28776Y-33458D01*
X28784Y-33464D01*
X28790Y-33472D01*
X28795Y-33480D01*
X28798Y-33489D01*
X28799Y-33499D01*
X28800Y-33500D01*
X28300Y-33500D02*
X28700Y-33500D01*
X28700Y-33500D02*
X28700Y-32900D01*
X28700Y-32900D02*
X28300Y-32900D01*
X27900Y-32900D02*
X27500Y-32900D01*
X27500Y-32900D02*
X27500Y-33500D01*
X27500Y-33500D02*
X27900Y-33500D01*
X36900Y-18900D02*
X36899Y-18909D01*
X36896Y-18919D01*
X36891Y-18927D01*
X36885Y-18935D01*
X36877Y-18941D01*
X36869Y-18946D01*
X36860Y-18948D01*
X36850Y-18949D01*
X36841Y-18949D01*
X36832Y-18946D01*
X36823Y-18941D01*
X36816Y-18935D01*
X36809Y-18928D01*
X36805Y-18919D01*
X36802Y-18910D01*
X36801Y-18900D01*
X36801Y-18891D01*
X36804Y-18882D01*
X36808Y-18873D01*
X36815Y-18866D01*
X36822Y-18859D01*
X36830Y-18855D01*
X36840Y-18852D01*
X36849Y-18851D01*
X36858Y-18851D01*
X36868Y-18854D01*
X36876Y-18858D01*
X36884Y-18864D01*
X36890Y-18872D01*
X36895Y-18880D01*
X36898Y-18889D01*
X36899Y-18899D01*
X36900Y-18900D01*
X37300Y-18900D02*
X36900Y-18900D01*
X36900Y-18900D02*
X36900Y-19500D01*
X36900Y-19500D02*
X37300Y-19500D01*
X37700Y-19500D02*
X38100Y-19500D01*
X38100Y-19500D02*
X38100Y-18900D01*
X38100Y-18900D02*
X37700Y-18900D01*
X36900Y-20000D02*
X36899Y-20009D01*
X36896Y-20019D01*
X36891Y-20027D01*
X36885Y-20035D01*
X36877Y-20041D01*
X36869Y-20046D01*
X36860Y-20048D01*
X36850Y-20049D01*
X36841Y-20049D01*
X36832Y-20046D01*
X36823Y-20041D01*
X36816Y-20035D01*
X36809Y-20028D01*
X36805Y-20019D01*
X36802Y-20010D01*
X36801Y-20000D01*
X36801Y-19991D01*
X36804Y-19982D01*
X36808Y-19973D01*
X36815Y-19966D01*
X36822Y-19959D01*
X36830Y-19955D01*
X36840Y-19952D01*
X36849Y-19951D01*
X36858Y-19951D01*
X36868Y-19954D01*
X36876Y-19958D01*
X36884Y-19964D01*
X36890Y-19972D01*
X36895Y-19980D01*
X36898Y-19989D01*
X36899Y-19999D01*
X36900Y-20000D01*
X37300Y-20000D02*
X36900Y-20000D01*
X36900Y-20000D02*
X36900Y-20600D01*
X36900Y-20600D02*
X37300Y-20600D01*
X37700Y-20600D02*
X38100Y-20600D01*
X38100Y-20600D02*
X38100Y-20000D01*
X38100Y-20000D02*
X37700Y-20000D01*
X36900Y-21000D02*
X36899Y-21009D01*
X36896Y-21019D01*
X36891Y-21027D01*
X36885Y-21035D01*
X36877Y-21041D01*
X36869Y-21046D01*
X36860Y-21048D01*
X36850Y-21049D01*
X36841Y-21049D01*
X36832Y-21046D01*
X36823Y-21041D01*
X36816Y-21035D01*
X36809Y-21028D01*
X36805Y-21019D01*
X36802Y-21010D01*
X36801Y-21000D01*
X36801Y-20991D01*
X36804Y-20982D01*
X36808Y-20973D01*
X36815Y-20966D01*
X36822Y-20959D01*
X36830Y-20955D01*
X36840Y-20952D01*
X36849Y-20951D01*
X36858Y-20951D01*
X36868Y-20954D01*
X36876Y-20958D01*
X36884Y-20964D01*
X36890Y-20972D01*
X36895Y-20980D01*
X36898Y-20989D01*
X36899Y-20999D01*
X36900Y-21000D01*
X37300Y-21000D02*
X36900Y-21000D01*
X36900Y-21000D02*
X36900Y-21600D01*
X36900Y-21600D02*
X37300Y-21600D01*
X37700Y-21600D02*
X38100Y-21600D01*
X38100Y-21600D02*
X38100Y-21000D01*
X38100Y-21000D02*
X37700Y-21000D01*
X36900Y-21900D02*
X36899Y-21909D01*
X36896Y-21919D01*
X36891Y-21927D01*
X36885Y-21935D01*
X36877Y-21941D01*
X36869Y-21946D01*
X36860Y-21948D01*
X36850Y-21949D01*
X36841Y-21949D01*
X36832Y-21946D01*
X36823Y-21941D01*
X36816Y-21935D01*
X36809Y-21928D01*
X36805Y-21919D01*
X36802Y-21910D01*
X36801Y-21900D01*
X36801Y-21891D01*
X36804Y-21882D01*
X36808Y-21873D01*
X36815Y-21866D01*
X36822Y-21859D01*
X36830Y-21855D01*
X36840Y-21852D01*
X36849Y-21851D01*
X36858Y-21851D01*
X36868Y-21854D01*
X36876Y-21858D01*
X36884Y-21864D01*
X36890Y-21872D01*
X36895Y-21880D01*
X36898Y-21889D01*
X36899Y-21899D01*
X36900Y-21900D01*
X37300Y-21900D02*
X36900Y-21900D01*
X36900Y-21900D02*
X36900Y-22500D01*
X36900Y-22500D02*
X37300Y-22500D01*
X37700Y-22500D02*
X38100Y-22500D01*
X38100Y-22500D02*
X38100Y-21900D01*
X38100Y-21900D02*
X37700Y-21900D01*
X40450Y-22150D02*
X40449Y-22159D01*
X40446Y-22169D01*
X40441Y-22177D01*
X40435Y-22185D01*
X40427Y-22191D01*
X40419Y-22196D01*
X40410Y-22198D01*
X40400Y-22199D01*
X40391Y-22199D01*
X40382Y-22196D01*
X40373Y-22191D01*
X40366Y-22185D01*
X40359Y-22178D01*
X40355Y-22169D01*
X40352Y-22160D01*
X40351Y-22150D01*
X40351Y-22141D01*
X40354Y-22132D01*
X40358Y-22123D01*
X40365Y-22116D01*
X40372Y-22109D01*
X40380Y-22105D01*
X40390Y-22102D01*
X40399Y-22101D01*
X40408Y-22101D01*
X40418Y-22104D01*
X40426Y-22108D01*
X40434Y-22114D01*
X40440Y-22122D01*
X40445Y-22130D01*
X40448Y-22139D01*
X40449Y-22149D01*
X40450Y-22150D01*
X40400Y-22600D02*
X40400Y-22200D01*
X40400Y-22200D02*
X39800Y-22200D01*
X39800Y-22200D02*
X39800Y-22600D01*
X39800Y-23000D02*
X39800Y-23400D01*
X39800Y-23400D02*
X40400Y-23400D01*
X40400Y-23400D02*
X40400Y-23000D01*
X41250Y-40550D02*
X41249Y-40559D01*
X41246Y-40569D01*
X41241Y-40577D01*
X41235Y-40585D01*
X41227Y-40591D01*
X41219Y-40596D01*
X41210Y-40598D01*
X41200Y-40599D01*
X41191Y-40599D01*
X41182Y-40596D01*
X41173Y-40591D01*
X41166Y-40585D01*
X41159Y-40578D01*
X41155Y-40569D01*
X41152Y-40560D01*
X41151Y-40550D01*
X41151Y-40541D01*
X41154Y-40532D01*
X41158Y-40523D01*
X41165Y-40516D01*
X41172Y-40509D01*
X41180Y-40505D01*
X41190Y-40502D01*
X41199Y-40501D01*
X41208Y-40501D01*
X41218Y-40504D01*
X41226Y-40508D01*
X41234Y-40514D01*
X41240Y-40522D01*
X41245Y-40530D01*
X41248Y-40539D01*
X41249Y-40549D01*
X41250Y-40550D01*
X41200Y-40100D02*
X41200Y-40500D01*
X41200Y-40500D02*
X41800Y-40500D01*
X41800Y-40500D02*
X41800Y-40100D01*
X41800Y-39700D02*
X41800Y-39300D01*
X41800Y-39300D02*
X41200Y-39300D01*
X41200Y-39300D02*
X41200Y-39700D01*
X34250Y-40650D02*
X34249Y-40659D01*
X34246Y-40669D01*
X34241Y-40677D01*
X34235Y-40685D01*
X34227Y-40691D01*
X34219Y-40696D01*
X34210Y-40698D01*
X34200Y-40699D01*
X34191Y-40699D01*
X34182Y-40696D01*
X34173Y-40691D01*
X34166Y-40685D01*
X34159Y-40678D01*
X34155Y-40669D01*
X34152Y-40660D01*
X34151Y-40650D01*
X34151Y-40641D01*
X34154Y-40632D01*
X34158Y-40623D01*
X34165Y-40616D01*
X34172Y-40609D01*
X34180Y-40605D01*
X34190Y-40602D01*
X34199Y-40601D01*
X34208Y-40601D01*
X34218Y-40604D01*
X34226Y-40608D01*
X34234Y-40614D01*
X34240Y-40622D01*
X34245Y-40630D01*
X34248Y-40639D01*
X34249Y-40649D01*
X34250Y-40650D01*
X34200Y-40200D02*
X34200Y-40600D01*
X34200Y-40600D02*
X34800Y-40600D01*
X34800Y-40600D02*
X34800Y-40200D01*
X34800Y-39800D02*
X34800Y-39400D01*
X34800Y-39400D02*
X34200Y-39400D01*
X34200Y-39400D02*
X34200Y-39800D01*
X22000Y-30200D02*
X21999Y-30209D01*
X21996Y-30219D01*
X21991Y-30227D01*
X21985Y-30235D01*
X21977Y-30241D01*
X21969Y-30246D01*
X21960Y-30248D01*
X21950Y-30249D01*
X21941Y-30249D01*
X21932Y-30246D01*
X21923Y-30241D01*
X21916Y-30235D01*
X21909Y-30228D01*
X21905Y-30219D01*
X21902Y-30210D01*
X21901Y-30200D01*
X21901Y-30191D01*
X21904Y-30182D01*
X21908Y-30173D01*
X21915Y-30166D01*
X21922Y-30159D01*
X21930Y-30155D01*
X21940Y-30152D01*
X21949Y-30151D01*
X21958Y-30151D01*
X21968Y-30154D01*
X21976Y-30158D01*
X21984Y-30164D01*
X21990Y-30172D01*
X21995Y-30180D01*
X21998Y-30189D01*
X21999Y-30199D01*
X22000Y-30200D01*
X22400Y-30200D02*
X22000Y-30200D01*
X22000Y-30200D02*
X22000Y-30800D01*
X22000Y-30800D02*
X22400Y-30800D01*
X22800Y-30800D02*
X23200Y-30800D01*
X23200Y-30800D02*
X23200Y-30200D01*
X23200Y-30200D02*
X22800Y-30200D01*
X33800Y-24700D02*
X33799Y-24709D01*
X33796Y-24719D01*
X33791Y-24727D01*
X33785Y-24735D01*
X33777Y-24741D01*
X33769Y-24746D01*
X33760Y-24748D01*
X33750Y-24749D01*
X33741Y-24749D01*
X33732Y-24746D01*
X33723Y-24741D01*
X33716Y-24735D01*
X33709Y-24728D01*
X33705Y-24719D01*
X33702Y-24710D01*
X33701Y-24700D01*
X33701Y-24691D01*
X33704Y-24682D01*
X33708Y-24673D01*
X33715Y-24666D01*
X33722Y-24659D01*
X33730Y-24655D01*
X33740Y-24652D01*
X33749Y-24651D01*
X33758Y-24651D01*
X33768Y-24654D01*
X33776Y-24658D01*
X33784Y-24664D01*
X33790Y-24672D01*
X33795Y-24680D01*
X33798Y-24689D01*
X33799Y-24699D01*
X33800Y-24700D01*
X34200Y-24700D02*
X33800Y-24700D01*
X33800Y-24700D02*
X33800Y-25300D01*
X33800Y-25300D02*
X34200Y-25300D01*
X34600Y-25300D02*
X35000Y-25300D01*
X35000Y-25300D02*
X35000Y-24700D01*
X35000Y-24700D02*
X34600Y-24700D01*
X33800Y-28900D02*
X33799Y-28909D01*
X33796Y-28919D01*
X33791Y-28927D01*
X33785Y-28935D01*
X33777Y-28941D01*
X33769Y-28946D01*
X33760Y-28948D01*
X33750Y-28949D01*
X33741Y-28949D01*
X33732Y-28946D01*
X33723Y-28941D01*
X33716Y-28935D01*
X33709Y-28928D01*
X33705Y-28919D01*
X33702Y-28910D01*
X33701Y-28900D01*
X33701Y-28891D01*
X33704Y-28882D01*
X33708Y-28873D01*
X33715Y-28866D01*
X33722Y-28859D01*
X33730Y-28855D01*
X33740Y-28852D01*
X33749Y-28851D01*
X33758Y-28851D01*
X33768Y-28854D01*
X33776Y-28858D01*
X33784Y-28864D01*
X33790Y-28872D01*
X33795Y-28880D01*
X33798Y-28889D01*
X33799Y-28899D01*
X33800Y-28900D01*
X34200Y-28900D02*
X33800Y-28900D01*
X33800Y-28900D02*
X33800Y-29500D01*
X33800Y-29500D02*
X34200Y-29500D01*
X34600Y-29500D02*
X35000Y-29500D01*
X35000Y-29500D02*
X35000Y-28900D01*
X35000Y-28900D02*
X34600Y-28900D01*
G54D14*
X35584Y-25624D02*
X35269Y-25624D01*
X33616Y-25624D02*
X33931Y-25624D01*
X33616Y-28576D02*
X33931Y-28576D01*
X35584Y-28576D02*
X35269Y-28576D01*
X35584Y-25624D02*
X35584Y-28576D01*
X33616Y-28576D02*
X33616Y-25624D01*
G54D11*
X88500Y-18300D02*
X89500Y-18300D01*
X88500Y-19300D02*
X89500Y-19300D01*
G54D12*
X88500Y-18300D02*
X88500Y-19300D01*
X89500Y-19300D02*
X89500Y-18300D01*
G54D13*
X77400Y-33500D02*
X77399Y-33509D01*
X77396Y-33519D01*
X77391Y-33527D01*
X77385Y-33535D01*
X77377Y-33541D01*
X77369Y-33546D01*
X77360Y-33548D01*
X77350Y-33549D01*
X77341Y-33549D01*
X77332Y-33546D01*
X77323Y-33541D01*
X77316Y-33535D01*
X77309Y-33528D01*
X77305Y-33519D01*
X77302Y-33510D01*
X77301Y-33500D01*
X77301Y-33491D01*
X77304Y-33482D01*
X77308Y-33473D01*
X77315Y-33466D01*
X77322Y-33459D01*
X77330Y-33455D01*
X77340Y-33452D01*
X77349Y-33451D01*
X77358Y-33451D01*
X77368Y-33454D01*
X77376Y-33458D01*
X77384Y-33464D01*
X77390Y-33472D01*
X77395Y-33480D01*
X77398Y-33489D01*
X77399Y-33499D01*
X77400Y-33500D01*
X76900Y-33500D02*
X77300Y-33500D01*
X77300Y-33500D02*
X77300Y-32900D01*
X77300Y-32900D02*
X76900Y-32900D01*
X76500Y-32900D02*
X76100Y-32900D01*
X76100Y-32900D02*
X76100Y-33500D01*
X76100Y-33500D02*
X76500Y-33500D01*
X85500Y-18900D02*
X85499Y-18909D01*
X85496Y-18919D01*
X85491Y-18927D01*
X85485Y-18935D01*
X85477Y-18941D01*
X85469Y-18946D01*
X85460Y-18948D01*
X85450Y-18949D01*
X85441Y-18949D01*
X85432Y-18946D01*
X85423Y-18941D01*
X85416Y-18935D01*
X85409Y-18928D01*
X85405Y-18919D01*
X85402Y-18910D01*
X85401Y-18900D01*
X85401Y-18891D01*
X85404Y-18882D01*
X85408Y-18873D01*
X85415Y-18866D01*
X85422Y-18859D01*
X85430Y-18855D01*
X85440Y-18852D01*
X85449Y-18851D01*
X85458Y-18851D01*
X85468Y-18854D01*
X85476Y-18858D01*
X85484Y-18864D01*
X85490Y-18872D01*
X85495Y-18880D01*
X85498Y-18889D01*
X85499Y-18899D01*
X85500Y-18900D01*
X85900Y-18900D02*
X85500Y-18900D01*
X85500Y-18900D02*
X85500Y-19500D01*
X85500Y-19500D02*
X85900Y-19500D01*
X86300Y-19500D02*
X86700Y-19500D01*
X86700Y-19500D02*
X86700Y-18900D01*
X86700Y-18900D02*
X86300Y-18900D01*
X85500Y-20000D02*
X85499Y-20009D01*
X85496Y-20019D01*
X85491Y-20027D01*
X85485Y-20035D01*
X85477Y-20041D01*
X85469Y-20046D01*
X85460Y-20048D01*
X85450Y-20049D01*
X85441Y-20049D01*
X85432Y-20046D01*
X85423Y-20041D01*
X85416Y-20035D01*
X85409Y-20028D01*
X85405Y-20019D01*
X85402Y-20010D01*
X85401Y-20000D01*
X85401Y-19991D01*
X85404Y-19982D01*
X85408Y-19973D01*
X85415Y-19966D01*
X85422Y-19959D01*
X85430Y-19955D01*
X85440Y-19952D01*
X85449Y-19951D01*
X85458Y-19951D01*
X85468Y-19954D01*
X85476Y-19958D01*
X85484Y-19964D01*
X85490Y-19972D01*
X85495Y-19980D01*
X85498Y-19989D01*
X85499Y-19999D01*
X85500Y-20000D01*
X85900Y-20000D02*
X85500Y-20000D01*
X85500Y-20000D02*
X85500Y-20600D01*
X85500Y-20600D02*
X85900Y-20600D01*
X86300Y-20600D02*
X86700Y-20600D01*
X86700Y-20600D02*
X86700Y-20000D01*
X86700Y-20000D02*
X86300Y-20000D01*
X85500Y-21000D02*
X85499Y-21009D01*
X85496Y-21019D01*
X85491Y-21027D01*
X85485Y-21035D01*
X85477Y-21041D01*
X85469Y-21046D01*
X85460Y-21048D01*
X85450Y-21049D01*
X85441Y-21049D01*
X85432Y-21046D01*
X85423Y-21041D01*
X85416Y-21035D01*
X85409Y-21028D01*
X85405Y-21019D01*
X85402Y-21010D01*
X85401Y-21000D01*
X85401Y-20991D01*
X85404Y-20982D01*
X85408Y-20973D01*
X85415Y-20966D01*
X85422Y-20959D01*
X85430Y-20955D01*
X85440Y-20952D01*
X85449Y-20951D01*
X85458Y-20951D01*
X85468Y-20954D01*
X85476Y-20958D01*
X85484Y-20964D01*
X85490Y-20972D01*
X85495Y-20980D01*
X85498Y-20989D01*
X85499Y-20999D01*
X85500Y-21000D01*
X85900Y-21000D02*
X85500Y-21000D01*
X85500Y-21000D02*
X85500Y-21600D01*
X85500Y-21600D02*
X85900Y-21600D01*
X86300Y-21600D02*
X86700Y-21600D01*
X86700Y-21600D02*
X86700Y-21000D01*
X86700Y-21000D02*
X86300Y-21000D01*
X85500Y-21900D02*
X85499Y-21909D01*
X85496Y-21919D01*
X85491Y-21927D01*
X85485Y-21935D01*
X85477Y-21941D01*
X85469Y-21946D01*
X85460Y-21948D01*
X85450Y-21949D01*
X85441Y-21949D01*
X85432Y-21946D01*
X85423Y-21941D01*
X85416Y-21935D01*
X85409Y-21928D01*
X85405Y-21919D01*
X85402Y-21910D01*
X85401Y-21900D01*
X85401Y-21891D01*
X85404Y-21882D01*
X85408Y-21873D01*
X85415Y-21866D01*
X85422Y-21859D01*
X85430Y-21855D01*
X85440Y-21852D01*
X85449Y-21851D01*
X85458Y-21851D01*
X85468Y-21854D01*
X85476Y-21858D01*
X85484Y-21864D01*
X85490Y-21872D01*
X85495Y-21880D01*
X85498Y-21889D01*
X85499Y-21899D01*
X85500Y-21900D01*
X85900Y-21900D02*
X85500Y-21900D01*
X85500Y-21900D02*
X85500Y-22500D01*
X85500Y-22500D02*
X85900Y-22500D01*
X86300Y-22500D02*
X86700Y-22500D01*
X86700Y-22500D02*
X86700Y-21900D01*
X86700Y-21900D02*
X86300Y-21900D01*
X89050Y-22150D02*
X89049Y-22159D01*
X89046Y-22169D01*
X89041Y-22177D01*
X89035Y-22185D01*
X89027Y-22191D01*
X89019Y-22196D01*
X89010Y-22198D01*
X89000Y-22199D01*
X88991Y-22199D01*
X88982Y-22196D01*
X88973Y-22191D01*
X88966Y-22185D01*
X88959Y-22178D01*
X88955Y-22169D01*
X88952Y-22160D01*
X88951Y-22150D01*
X88951Y-22141D01*
X88954Y-22132D01*
X88958Y-22123D01*
X88965Y-22116D01*
X88972Y-22109D01*
X88980Y-22105D01*
X88990Y-22102D01*
X88999Y-22101D01*
X89008Y-22101D01*
X89018Y-22104D01*
X89026Y-22108D01*
X89034Y-22114D01*
X89040Y-22122D01*
X89045Y-22130D01*
X89048Y-22139D01*
X89049Y-22149D01*
X89050Y-22150D01*
X89000Y-22600D02*
X89000Y-22200D01*
X89000Y-22200D02*
X88400Y-22200D01*
X88400Y-22200D02*
X88400Y-22600D01*
X88400Y-23000D02*
X88400Y-23400D01*
X88400Y-23400D02*
X89000Y-23400D01*
X89000Y-23400D02*
X89000Y-23000D01*
X89850Y-40550D02*
X89849Y-40559D01*
X89846Y-40569D01*
X89841Y-40577D01*
X89835Y-40585D01*
X89827Y-40591D01*
X89819Y-40596D01*
X89810Y-40598D01*
X89800Y-40599D01*
X89791Y-40599D01*
X89782Y-40596D01*
X89773Y-40591D01*
X89766Y-40585D01*
X89759Y-40578D01*
X89755Y-40569D01*
X89752Y-40560D01*
X89751Y-40550D01*
X89751Y-40541D01*
X89754Y-40532D01*
X89758Y-40523D01*
X89765Y-40516D01*
X89772Y-40509D01*
X89780Y-40505D01*
X89790Y-40502D01*
X89799Y-40501D01*
X89808Y-40501D01*
X89818Y-40504D01*
X89826Y-40508D01*
X89834Y-40514D01*
X89840Y-40522D01*
X89845Y-40530D01*
X89848Y-40539D01*
X89849Y-40549D01*
X89850Y-40550D01*
X89800Y-40100D02*
X89800Y-40500D01*
X89800Y-40500D02*
X90400Y-40500D01*
X90400Y-40500D02*
X90400Y-40100D01*
X90400Y-39700D02*
X90400Y-39300D01*
X90400Y-39300D02*
X89800Y-39300D01*
X89800Y-39300D02*
X89800Y-39700D01*
X82850Y-40650D02*
X82849Y-40659D01*
X82846Y-40669D01*
X82841Y-40677D01*
X82835Y-40685D01*
X82827Y-40691D01*
X82819Y-40696D01*
X82810Y-40698D01*
X82800Y-40699D01*
X82791Y-40699D01*
X82782Y-40696D01*
X82773Y-40691D01*
X82766Y-40685D01*
X82759Y-40678D01*
X82755Y-40669D01*
X82752Y-40660D01*
X82751Y-40650D01*
X82751Y-40641D01*
X82754Y-40632D01*
X82758Y-40623D01*
X82765Y-40616D01*
X82772Y-40609D01*
X82780Y-40605D01*
X82790Y-40602D01*
X82799Y-40601D01*
X82808Y-40601D01*
X82818Y-40604D01*
X82826Y-40608D01*
X82834Y-40614D01*
X82840Y-40622D01*
X82845Y-40630D01*
X82848Y-40639D01*
X82849Y-40649D01*
X82850Y-40650D01*
X82800Y-40200D02*
X82800Y-40600D01*
X82800Y-40600D02*
X83400Y-40600D01*
X83400Y-40600D02*
X83400Y-40200D01*
X83400Y-39800D02*
X83400Y-39400D01*
X83400Y-39400D02*
X82800Y-39400D01*
X82800Y-39400D02*
X82800Y-39800D01*
X70600Y-30200D02*
X70599Y-30209D01*
X70596Y-30219D01*
X70591Y-30227D01*
X70585Y-30235D01*
X70577Y-30241D01*
X70569Y-30246D01*
X70560Y-30248D01*
X70550Y-30249D01*
X70541Y-30249D01*
X70532Y-30246D01*
X70523Y-30241D01*
X70516Y-30235D01*
X70509Y-30228D01*
X70505Y-30219D01*
X70502Y-30210D01*
X70501Y-30200D01*
X70501Y-30191D01*
X70504Y-30182D01*
X70508Y-30173D01*
X70515Y-30166D01*
X70522Y-30159D01*
X70530Y-30155D01*
X70540Y-30152D01*
X70549Y-30151D01*
X70558Y-30151D01*
X70568Y-30154D01*
X70576Y-30158D01*
X70584Y-30164D01*
X70590Y-30172D01*
X70595Y-30180D01*
X70598Y-30189D01*
X70599Y-30199D01*
X70600Y-30200D01*
X71000Y-30200D02*
X70600Y-30200D01*
X70600Y-30200D02*
X70600Y-30800D01*
X70600Y-30800D02*
X71000Y-30800D01*
X71400Y-30800D02*
X71800Y-30800D01*
X71800Y-30800D02*
X71800Y-30200D01*
X71800Y-30200D02*
X71400Y-30200D01*
X82400Y-24700D02*
X82399Y-24709D01*
X82396Y-24719D01*
X82391Y-24727D01*
X82385Y-24735D01*
X82377Y-24741D01*
X82369Y-24746D01*
X82360Y-24748D01*
X82350Y-24749D01*
X82341Y-24749D01*
X82332Y-24746D01*
X82323Y-24741D01*
X82316Y-24735D01*
X82309Y-24728D01*
X82305Y-24719D01*
X82302Y-24710D01*
X82301Y-24700D01*
X82301Y-24691D01*
X82304Y-24682D01*
X82308Y-24673D01*
X82315Y-24666D01*
X82322Y-24659D01*
X82330Y-24655D01*
X82340Y-24652D01*
X82349Y-24651D01*
X82358Y-24651D01*
X82368Y-24654D01*
X82376Y-24658D01*
X82384Y-24664D01*
X82390Y-24672D01*
X82395Y-24680D01*
X82398Y-24689D01*
X82399Y-24699D01*
X82400Y-24700D01*
X82800Y-24700D02*
X82400Y-24700D01*
X82400Y-24700D02*
X82400Y-25300D01*
X82400Y-25300D02*
X82800Y-25300D01*
X83200Y-25300D02*
X83600Y-25300D01*
X83600Y-25300D02*
X83600Y-24700D01*
X83600Y-24700D02*
X83200Y-24700D01*
X82400Y-28900D02*
X82399Y-28909D01*
X82396Y-28919D01*
X82391Y-28927D01*
X82385Y-28935D01*
X82377Y-28941D01*
X82369Y-28946D01*
X82360Y-28948D01*
X82350Y-28949D01*
X82341Y-28949D01*
X82332Y-28946D01*
X82323Y-28941D01*
X82316Y-28935D01*
X82309Y-28928D01*
X82305Y-28919D01*
X82302Y-28910D01*
X82301Y-28900D01*
X82301Y-28891D01*
X82304Y-28882D01*
X82308Y-28873D01*
X82315Y-28866D01*
X82322Y-28859D01*
X82330Y-28855D01*
X82340Y-28852D01*
X82349Y-28851D01*
X82358Y-28851D01*
X82368Y-28854D01*
X82376Y-28858D01*
X82384Y-28864D01*
X82390Y-28872D01*
X82395Y-28880D01*
X82398Y-28889D01*
X82399Y-28899D01*
X82400Y-28900D01*
X82800Y-28900D02*
X82400Y-28900D01*
X82400Y-28900D02*
X82400Y-29500D01*
X82400Y-29500D02*
X82800Y-29500D01*
X83200Y-29500D02*
X83600Y-29500D01*
X83600Y-29500D02*
X83600Y-28900D01*
X83600Y-28900D02*
X83200Y-28900D01*
G54D14*
X84184Y-25624D02*
X83869Y-25624D01*
X82216Y-25624D02*
X82531Y-25624D01*
X82216Y-28576D02*
X82531Y-28576D01*
X84184Y-28576D02*
X83869Y-28576D01*
X84184Y-25624D02*
X84184Y-28576D01*
X82216Y-28576D02*
X82216Y-25624D01*
G54D11*
X64200Y-18300D02*
X65200Y-18300D01*
X64200Y-19300D02*
X65200Y-19300D01*
G54D12*
X64200Y-18300D02*
X64200Y-19300D01*
X65200Y-19300D02*
X65200Y-18300D01*
G54D13*
X53100Y-33500D02*
X53099Y-33509D01*
X53096Y-33519D01*
X53091Y-33527D01*
X53085Y-33535D01*
X53077Y-33541D01*
X53069Y-33546D01*
X53060Y-33548D01*
X53050Y-33549D01*
X53041Y-33549D01*
X53032Y-33546D01*
X53023Y-33541D01*
X53016Y-33535D01*
X53009Y-33528D01*
X53005Y-33519D01*
X53002Y-33510D01*
X53001Y-33500D01*
X53001Y-33491D01*
X53004Y-33482D01*
X53008Y-33473D01*
X53015Y-33466D01*
X53022Y-33459D01*
X53030Y-33455D01*
X53040Y-33452D01*
X53049Y-33451D01*
X53058Y-33451D01*
X53068Y-33454D01*
X53076Y-33458D01*
X53084Y-33464D01*
X53090Y-33472D01*
X53095Y-33480D01*
X53098Y-33489D01*
X53099Y-33499D01*
X53100Y-33500D01*
X52600Y-33500D02*
X53000Y-33500D01*
X53000Y-33500D02*
X53000Y-32900D01*
X53000Y-32900D02*
X52600Y-32900D01*
X52200Y-32900D02*
X51800Y-32900D01*
X51800Y-32900D02*
X51800Y-33500D01*
X51800Y-33500D02*
X52200Y-33500D01*
X61200Y-18900D02*
X61199Y-18909D01*
X61196Y-18919D01*
X61191Y-18927D01*
X61185Y-18935D01*
X61177Y-18941D01*
X61169Y-18946D01*
X61160Y-18948D01*
X61150Y-18949D01*
X61141Y-18949D01*
X61132Y-18946D01*
X61123Y-18941D01*
X61116Y-18935D01*
X61109Y-18928D01*
X61105Y-18919D01*
X61102Y-18910D01*
X61101Y-18900D01*
X61101Y-18891D01*
X61104Y-18882D01*
X61108Y-18873D01*
X61115Y-18866D01*
X61122Y-18859D01*
X61130Y-18855D01*
X61140Y-18852D01*
X61149Y-18851D01*
X61158Y-18851D01*
X61168Y-18854D01*
X61176Y-18858D01*
X61184Y-18864D01*
X61190Y-18872D01*
X61195Y-18880D01*
X61198Y-18889D01*
X61199Y-18899D01*
X61200Y-18900D01*
X61600Y-18900D02*
X61200Y-18900D01*
X61200Y-18900D02*
X61200Y-19500D01*
X61200Y-19500D02*
X61600Y-19500D01*
X62000Y-19500D02*
X62400Y-19500D01*
X62400Y-19500D02*
X62400Y-18900D01*
X62400Y-18900D02*
X62000Y-18900D01*
X61200Y-20000D02*
X61199Y-20009D01*
X61196Y-20019D01*
X61191Y-20027D01*
X61185Y-20035D01*
X61177Y-20041D01*
X61169Y-20046D01*
X61160Y-20048D01*
X61150Y-20049D01*
X61141Y-20049D01*
X61132Y-20046D01*
X61123Y-20041D01*
X61116Y-20035D01*
X61109Y-20028D01*
X61105Y-20019D01*
X61102Y-20010D01*
X61101Y-20000D01*
X61101Y-19991D01*
X61104Y-19982D01*
X61108Y-19973D01*
X61115Y-19966D01*
X61122Y-19959D01*
X61130Y-19955D01*
X61140Y-19952D01*
X61149Y-19951D01*
X61158Y-19951D01*
X61168Y-19954D01*
X61176Y-19958D01*
X61184Y-19964D01*
X61190Y-19972D01*
X61195Y-19980D01*
X61198Y-19989D01*
X61199Y-19999D01*
X61200Y-20000D01*
X61600Y-20000D02*
X61200Y-20000D01*
X61200Y-20000D02*
X61200Y-20600D01*
X61200Y-20600D02*
X61600Y-20600D01*
X62000Y-20600D02*
X62400Y-20600D01*
X62400Y-20600D02*
X62400Y-20000D01*
X62400Y-20000D02*
X62000Y-20000D01*
X61200Y-21000D02*
X61199Y-21009D01*
X61196Y-21019D01*
X61191Y-21027D01*
X61185Y-21035D01*
X61177Y-21041D01*
X61169Y-21046D01*
X61160Y-21048D01*
X61150Y-21049D01*
X61141Y-21049D01*
X61132Y-21046D01*
X61123Y-21041D01*
X61116Y-21035D01*
X61109Y-21028D01*
X61105Y-21019D01*
X61102Y-21010D01*
X61101Y-21000D01*
X61101Y-20991D01*
X61104Y-20982D01*
X61108Y-20973D01*
X61115Y-20966D01*
X61122Y-20959D01*
X61130Y-20955D01*
X61140Y-20952D01*
X61149Y-20951D01*
X61158Y-20951D01*
X61168Y-20954D01*
X61176Y-20958D01*
X61184Y-20964D01*
X61190Y-20972D01*
X61195Y-20980D01*
X61198Y-20989D01*
X61199Y-20999D01*
X61200Y-21000D01*
X61600Y-21000D02*
X61200Y-21000D01*
X61200Y-21000D02*
X61200Y-21600D01*
X61200Y-21600D02*
X61600Y-21600D01*
X62000Y-21600D02*
X62400Y-21600D01*
X62400Y-21600D02*
X62400Y-21000D01*
X62400Y-21000D02*
X62000Y-21000D01*
X61200Y-21900D02*
X61199Y-21909D01*
X61196Y-21919D01*
X61191Y-21927D01*
X61185Y-21935D01*
X61177Y-21941D01*
X61169Y-21946D01*
X61160Y-21948D01*
X61150Y-21949D01*
X61141Y-21949D01*
X61132Y-21946D01*
X61123Y-21941D01*
X61116Y-21935D01*
X61109Y-21928D01*
X61105Y-21919D01*
X61102Y-21910D01*
X61101Y-21900D01*
X61101Y-21891D01*
X61104Y-21882D01*
X61108Y-21873D01*
X61115Y-21866D01*
X61122Y-21859D01*
X61130Y-21855D01*
X61140Y-21852D01*
X61149Y-21851D01*
X61158Y-21851D01*
X61168Y-21854D01*
X61176Y-21858D01*
X61184Y-21864D01*
X61190Y-21872D01*
X61195Y-21880D01*
X61198Y-21889D01*
X61199Y-21899D01*
X61200Y-21900D01*
X61600Y-21900D02*
X61200Y-21900D01*
X61200Y-21900D02*
X61200Y-22500D01*
X61200Y-22500D02*
X61600Y-22500D01*
X62000Y-22500D02*
X62400Y-22500D01*
X62400Y-22500D02*
X62400Y-21900D01*
X62400Y-21900D02*
X62000Y-21900D01*
X64750Y-22150D02*
X64749Y-22159D01*
X64746Y-22169D01*
X64741Y-22177D01*
X64735Y-22185D01*
X64727Y-22191D01*
X64719Y-22196D01*
X64710Y-22198D01*
X64700Y-22199D01*
X64691Y-22199D01*
X64682Y-22196D01*
X64673Y-22191D01*
X64666Y-22185D01*
X64659Y-22178D01*
X64655Y-22169D01*
X64652Y-22160D01*
X64651Y-22150D01*
X64651Y-22141D01*
X64654Y-22132D01*
X64658Y-22123D01*
X64665Y-22116D01*
X64672Y-22109D01*
X64680Y-22105D01*
X64690Y-22102D01*
X64699Y-22101D01*
X64708Y-22101D01*
X64718Y-22104D01*
X64726Y-22108D01*
X64734Y-22114D01*
X64740Y-22122D01*
X64745Y-22130D01*
X64748Y-22139D01*
X64749Y-22149D01*
X64750Y-22150D01*
X64700Y-22600D02*
X64700Y-22200D01*
X64700Y-22200D02*
X64100Y-22200D01*
X64100Y-22200D02*
X64100Y-22600D01*
X64100Y-23000D02*
X64100Y-23400D01*
X64100Y-23400D02*
X64700Y-23400D01*
X64700Y-23400D02*
X64700Y-23000D01*
X65550Y-40550D02*
X65549Y-40559D01*
X65546Y-40569D01*
X65541Y-40577D01*
X65535Y-40585D01*
X65527Y-40591D01*
X65519Y-40596D01*
X65510Y-40598D01*
X65500Y-40599D01*
X65491Y-40599D01*
X65482Y-40596D01*
X65473Y-40591D01*
X65466Y-40585D01*
X65459Y-40578D01*
X65455Y-40569D01*
X65452Y-40560D01*
X65451Y-40550D01*
X65451Y-40541D01*
X65454Y-40532D01*
X65458Y-40523D01*
X65465Y-40516D01*
X65472Y-40509D01*
X65480Y-40505D01*
X65490Y-40502D01*
X65499Y-40501D01*
X65508Y-40501D01*
X65518Y-40504D01*
X65526Y-40508D01*
X65534Y-40514D01*
X65540Y-40522D01*
X65545Y-40530D01*
X65548Y-40539D01*
X65549Y-40549D01*
X65550Y-40550D01*
X65500Y-40100D02*
X65500Y-40500D01*
X65500Y-40500D02*
X66100Y-40500D01*
X66100Y-40500D02*
X66100Y-40100D01*
X66100Y-39700D02*
X66100Y-39300D01*
X66100Y-39300D02*
X65500Y-39300D01*
X65500Y-39300D02*
X65500Y-39700D01*
X58550Y-40650D02*
X58549Y-40659D01*
X58546Y-40669D01*
X58541Y-40677D01*
X58535Y-40685D01*
X58527Y-40691D01*
X58519Y-40696D01*
X58510Y-40698D01*
X58500Y-40699D01*
X58491Y-40699D01*
X58482Y-40696D01*
X58473Y-40691D01*
X58466Y-40685D01*
X58459Y-40678D01*
X58455Y-40669D01*
X58452Y-40660D01*
X58451Y-40650D01*
X58451Y-40641D01*
X58454Y-40632D01*
X58458Y-40623D01*
X58465Y-40616D01*
X58472Y-40609D01*
X58480Y-40605D01*
X58490Y-40602D01*
X58499Y-40601D01*
X58508Y-40601D01*
X58518Y-40604D01*
X58526Y-40608D01*
X58534Y-40614D01*
X58540Y-40622D01*
X58545Y-40630D01*
X58548Y-40639D01*
X58549Y-40649D01*
X58550Y-40650D01*
X58500Y-40200D02*
X58500Y-40600D01*
X58500Y-40600D02*
X59100Y-40600D01*
X59100Y-40600D02*
X59100Y-40200D01*
X59100Y-39800D02*
X59100Y-39400D01*
X59100Y-39400D02*
X58500Y-39400D01*
X58500Y-39400D02*
X58500Y-39800D01*
X46300Y-30200D02*
X46299Y-30209D01*
X46296Y-30219D01*
X46291Y-30227D01*
X46285Y-30235D01*
X46277Y-30241D01*
X46269Y-30246D01*
X46260Y-30248D01*
X46250Y-30249D01*
X46241Y-30249D01*
X46232Y-30246D01*
X46223Y-30241D01*
X46216Y-30235D01*
X46209Y-30228D01*
X46205Y-30219D01*
X46202Y-30210D01*
X46201Y-30200D01*
X46201Y-30191D01*
X46204Y-30182D01*
X46208Y-30173D01*
X46215Y-30166D01*
X46222Y-30159D01*
X46230Y-30155D01*
X46240Y-30152D01*
X46249Y-30151D01*
X46258Y-30151D01*
X46268Y-30154D01*
X46276Y-30158D01*
X46284Y-30164D01*
X46290Y-30172D01*
X46295Y-30180D01*
X46298Y-30189D01*
X46299Y-30199D01*
X46300Y-30200D01*
X46700Y-30200D02*
X46300Y-30200D01*
X46300Y-30200D02*
X46300Y-30800D01*
X46300Y-30800D02*
X46700Y-30800D01*
X47100Y-30800D02*
X47500Y-30800D01*
X47500Y-30800D02*
X47500Y-30200D01*
X47500Y-30200D02*
X47100Y-30200D01*
X58100Y-24700D02*
X58099Y-24709D01*
X58096Y-24719D01*
X58091Y-24727D01*
X58085Y-24735D01*
X58077Y-24741D01*
X58069Y-24746D01*
X58060Y-24748D01*
X58050Y-24749D01*
X58041Y-24749D01*
X58032Y-24746D01*
X58023Y-24741D01*
X58016Y-24735D01*
X58009Y-24728D01*
X58005Y-24719D01*
X58002Y-24710D01*
X58001Y-24700D01*
X58001Y-24691D01*
X58004Y-24682D01*
X58008Y-24673D01*
X58015Y-24666D01*
X58022Y-24659D01*
X58030Y-24655D01*
X58040Y-24652D01*
X58049Y-24651D01*
X58058Y-24651D01*
X58068Y-24654D01*
X58076Y-24658D01*
X58084Y-24664D01*
X58090Y-24672D01*
X58095Y-24680D01*
X58098Y-24689D01*
X58099Y-24699D01*
X58100Y-24700D01*
X58500Y-24700D02*
X58100Y-24700D01*
X58100Y-24700D02*
X58100Y-25300D01*
X58100Y-25300D02*
X58500Y-25300D01*
X58900Y-25300D02*
X59300Y-25300D01*
X59300Y-25300D02*
X59300Y-24700D01*
X59300Y-24700D02*
X58900Y-24700D01*
X58100Y-28900D02*
X58099Y-28909D01*
X58096Y-28919D01*
X58091Y-28927D01*
X58085Y-28935D01*
X58077Y-28941D01*
X58069Y-28946D01*
X58060Y-28948D01*
X58050Y-28949D01*
X58041Y-28949D01*
X58032Y-28946D01*
X58023Y-28941D01*
X58016Y-28935D01*
X58009Y-28928D01*
X58005Y-28919D01*
X58002Y-28910D01*
X58001Y-28900D01*
X58001Y-28891D01*
X58004Y-28882D01*
X58008Y-28873D01*
X58015Y-28866D01*
X58022Y-28859D01*
X58030Y-28855D01*
X58040Y-28852D01*
X58049Y-28851D01*
X58058Y-28851D01*
X58068Y-28854D01*
X58076Y-28858D01*
X58084Y-28864D01*
X58090Y-28872D01*
X58095Y-28880D01*
X58098Y-28889D01*
X58099Y-28899D01*
X58100Y-28900D01*
X58500Y-28900D02*
X58100Y-28900D01*
X58100Y-28900D02*
X58100Y-29500D01*
X58100Y-29500D02*
X58500Y-29500D01*
X58900Y-29500D02*
X59300Y-29500D01*
X59300Y-29500D02*
X59300Y-28900D01*
X59300Y-28900D02*
X58900Y-28900D01*
G54D14*
X59884Y-25624D02*
X59569Y-25624D01*
X57916Y-25624D02*
X58231Y-25624D01*
X57916Y-28576D02*
X58231Y-28576D01*
X59884Y-28576D02*
X59569Y-28576D01*
X59884Y-25624D02*
X59884Y-28576D01*
X57916Y-28576D02*
X57916Y-25624D01*
G54D15*
X34361Y-53461D02*
X34439Y-53461D01*
X34439Y-53461D02*
X34439Y-53539D01*
X34361Y-53539D02*
X34439Y-53539D01*
X34361Y-53461D02*
X34361Y-53539D01*
X34577Y-53225D02*
X34714Y-53225D01*
X34714Y-53225D02*
X34714Y-53323D01*
X34577Y-53323D02*
X34714Y-53323D01*
X34577Y-53225D02*
X34577Y-53323D01*
X34714Y-53225D02*
X34754Y-53225D01*
X34754Y-53225D02*
X34754Y-53696D01*
X34714Y-53696D02*
X34754Y-53696D01*
X34714Y-53225D02*
X34714Y-53696D01*
X34714Y-53716D02*
X34754Y-53716D01*
X34754Y-53716D02*
X34754Y-53775D01*
X34714Y-53775D02*
X34754Y-53775D01*
X34714Y-53716D02*
X34714Y-53775D01*
X34046Y-53225D02*
X34086Y-53225D01*
X34086Y-53225D02*
X34086Y-53696D01*
X34046Y-53696D02*
X34086Y-53696D01*
X34046Y-53225D02*
X34046Y-53696D01*
X34046Y-53716D02*
X34086Y-53716D01*
X34086Y-53716D02*
X34086Y-53775D01*
X34046Y-53775D02*
X34086Y-53775D01*
X34046Y-53716D02*
X34046Y-53775D01*
X34577Y-53225D02*
X34636Y-53225D01*
X34636Y-53225D02*
X34636Y-53323D01*
X34577Y-53323D02*
X34636Y-53323D01*
X34577Y-53225D02*
X34577Y-53323D01*
G54D16*
X35010Y-53205D02*
X33790Y-53205D01*
X33790Y-53205D02*
X33790Y-53795D01*
X33790Y-53795D02*
X35010Y-53795D01*
X35010Y-53795D02*
X35010Y-53205D01*
X34615Y-53305D02*
X34597Y-53287D01*
X34578Y-53271D01*
X34557Y-53256D01*
X34535Y-53243D01*
X34512Y-53232D01*
X34488Y-53223D01*
X34464Y-53217D01*
X34439Y-53212D01*
X34414Y-53210D01*
X34389Y-53210D01*
X34364Y-53212D01*
X34339Y-53216D01*
X34314Y-53223D01*
X34291Y-53231D01*
X34267Y-53242D01*
X34245Y-53254D01*
X34225Y-53269D01*
X34205Y-53285D01*
X34187Y-53303D01*
X34186Y-53304D01*
X34185Y-53305D02*
X34169Y-53325D01*
X34154Y-53345D01*
X34142Y-53367D01*
X34131Y-53391D01*
X34123Y-53414D01*
X34116Y-53439D01*
X34112Y-53464D01*
X34110Y-53489D01*
X34110Y-53514D01*
X34112Y-53539D01*
X34117Y-53564D01*
X34123Y-53588D01*
X34132Y-53612D01*
X34143Y-53635D01*
X34156Y-53657D01*
X34171Y-53678D01*
X34185Y-53695D01*
X34185Y-53695D02*
X34203Y-53713D01*
X34222Y-53729D01*
X34243Y-53744D01*
X34265Y-53757D01*
X34288Y-53768D01*
X34312Y-53777D01*
X34336Y-53783D01*
X34361Y-53788D01*
X34386Y-53790D01*
X34411Y-53790D01*
X34436Y-53788D01*
X34461Y-53784D01*
X34486Y-53777D01*
X34509Y-53769D01*
X34533Y-53758D01*
X34555Y-53746D01*
X34575Y-53731D01*
X34595Y-53715D01*
X34613Y-53697D01*
X34614Y-53696D01*
X34615Y-53695D02*
X34631Y-53675D01*
X34646Y-53655D01*
X34658Y-53633D01*
X34669Y-53609D01*
X34677Y-53586D01*
X34684Y-53561D01*
X34688Y-53536D01*
X34690Y-53511D01*
X34690Y-53486D01*
X34688Y-53461D01*
X34683Y-53436D01*
X34677Y-53412D01*
X34668Y-53388D01*
X34657Y-53365D01*
X34644Y-53343D01*
X34629Y-53322D01*
X34615Y-53305D01*
G54D15*
X34361Y-52461D02*
X34439Y-52461D01*
X34439Y-52461D02*
X34439Y-52539D01*
X34361Y-52539D02*
X34439Y-52539D01*
X34361Y-52461D02*
X34361Y-52539D01*
X34577Y-52225D02*
X34714Y-52225D01*
X34714Y-52225D02*
X34714Y-52323D01*
X34577Y-52323D02*
X34714Y-52323D01*
X34577Y-52225D02*
X34577Y-52323D01*
X34714Y-52225D02*
X34754Y-52225D01*
X34754Y-52225D02*
X34754Y-52696D01*
X34714Y-52696D02*
X34754Y-52696D01*
X34714Y-52225D02*
X34714Y-52696D01*
X34714Y-52716D02*
X34754Y-52716D01*
X34754Y-52716D02*
X34754Y-52775D01*
X34714Y-52775D02*
X34754Y-52775D01*
X34714Y-52716D02*
X34714Y-52775D01*
X34046Y-52225D02*
X34086Y-52225D01*
X34086Y-52225D02*
X34086Y-52696D01*
X34046Y-52696D02*
X34086Y-52696D01*
X34046Y-52225D02*
X34046Y-52696D01*
X34046Y-52716D02*
X34086Y-52716D01*
X34086Y-52716D02*
X34086Y-52775D01*
X34046Y-52775D02*
X34086Y-52775D01*
X34046Y-52716D02*
X34046Y-52775D01*
X34577Y-52225D02*
X34636Y-52225D01*
X34636Y-52225D02*
X34636Y-52323D01*
X34577Y-52323D02*
X34636Y-52323D01*
X34577Y-52225D02*
X34577Y-52323D01*
G54D16*
X35010Y-52205D02*
X33790Y-52205D01*
X33790Y-52205D02*
X33790Y-52795D01*
X33790Y-52795D02*
X35010Y-52795D01*
X35010Y-52795D02*
X35010Y-52205D01*
X34615Y-52305D02*
X34597Y-52287D01*
X34578Y-52271D01*
X34557Y-52256D01*
X34535Y-52243D01*
X34512Y-52232D01*
X34488Y-52223D01*
X34464Y-52217D01*
X34439Y-52212D01*
X34414Y-52210D01*
X34389Y-52210D01*
X34364Y-52212D01*
X34339Y-52216D01*
X34314Y-52223D01*
X34291Y-52231D01*
X34267Y-52242D01*
X34245Y-52254D01*
X34225Y-52269D01*
X34205Y-52285D01*
X34187Y-52303D01*
X34186Y-52304D01*
X34185Y-52305D02*
X34169Y-52325D01*
X34154Y-52345D01*
X34142Y-52367D01*
X34131Y-52391D01*
X34123Y-52414D01*
X34116Y-52439D01*
X34112Y-52464D01*
X34110Y-52489D01*
X34110Y-52514D01*
X34112Y-52539D01*
X34117Y-52564D01*
X34123Y-52588D01*
X34132Y-52612D01*
X34143Y-52635D01*
X34156Y-52657D01*
X34171Y-52678D01*
X34185Y-52695D01*
X34185Y-52695D02*
X34203Y-52713D01*
X34222Y-52729D01*
X34243Y-52744D01*
X34265Y-52757D01*
X34288Y-52768D01*
X34312Y-52777D01*
X34336Y-52783D01*
X34361Y-52788D01*
X34386Y-52790D01*
X34411Y-52790D01*
X34436Y-52788D01*
X34461Y-52784D01*
X34486Y-52777D01*
X34509Y-52769D01*
X34533Y-52758D01*
X34555Y-52746D01*
X34575Y-52731D01*
X34595Y-52715D01*
X34613Y-52697D01*
X34614Y-52696D01*
X34615Y-52695D02*
X34631Y-52675D01*
X34646Y-52655D01*
X34658Y-52633D01*
X34669Y-52609D01*
X34677Y-52586D01*
X34684Y-52561D01*
X34688Y-52536D01*
X34690Y-52511D01*
X34690Y-52486D01*
X34688Y-52461D01*
X34683Y-52436D01*
X34677Y-52412D01*
X34668Y-52388D01*
X34657Y-52365D01*
X34644Y-52343D01*
X34629Y-52322D01*
X34615Y-52305D01*
G54D15*
X34361Y-51461D02*
X34439Y-51461D01*
X34439Y-51461D02*
X34439Y-51539D01*
X34361Y-51539D02*
X34439Y-51539D01*
X34361Y-51461D02*
X34361Y-51539D01*
X34577Y-51225D02*
X34714Y-51225D01*
X34714Y-51225D02*
X34714Y-51323D01*
X34577Y-51323D02*
X34714Y-51323D01*
X34577Y-51225D02*
X34577Y-51323D01*
X34714Y-51225D02*
X34754Y-51225D01*
X34754Y-51225D02*
X34754Y-51696D01*
X34714Y-51696D02*
X34754Y-51696D01*
X34714Y-51225D02*
X34714Y-51696D01*
X34714Y-51716D02*
X34754Y-51716D01*
X34754Y-51716D02*
X34754Y-51775D01*
X34714Y-51775D02*
X34754Y-51775D01*
X34714Y-51716D02*
X34714Y-51775D01*
X34046Y-51225D02*
X34086Y-51225D01*
X34086Y-51225D02*
X34086Y-51696D01*
X34046Y-51696D02*
X34086Y-51696D01*
X34046Y-51225D02*
X34046Y-51696D01*
X34046Y-51716D02*
X34086Y-51716D01*
X34086Y-51716D02*
X34086Y-51775D01*
X34046Y-51775D02*
X34086Y-51775D01*
X34046Y-51716D02*
X34046Y-51775D01*
X34577Y-51225D02*
X34636Y-51225D01*
X34636Y-51225D02*
X34636Y-51323D01*
X34577Y-51323D02*
X34636Y-51323D01*
X34577Y-51225D02*
X34577Y-51323D01*
G54D16*
X35010Y-51205D02*
X33790Y-51205D01*
X33790Y-51205D02*
X33790Y-51795D01*
X33790Y-51795D02*
X35010Y-51795D01*
X35010Y-51795D02*
X35010Y-51205D01*
X34615Y-51305D02*
X34597Y-51287D01*
X34578Y-51271D01*
X34557Y-51256D01*
X34535Y-51243D01*
X34512Y-51232D01*
X34488Y-51223D01*
X34464Y-51217D01*
X34439Y-51212D01*
X34414Y-51210D01*
X34389Y-51210D01*
X34364Y-51212D01*
X34339Y-51216D01*
X34314Y-51223D01*
X34291Y-51231D01*
X34267Y-51242D01*
X34245Y-51254D01*
X34225Y-51269D01*
X34205Y-51285D01*
X34187Y-51303D01*
X34186Y-51304D01*
X34185Y-51305D02*
X34169Y-51325D01*
X34154Y-51345D01*
X34142Y-51367D01*
X34131Y-51391D01*
X34123Y-51414D01*
X34116Y-51439D01*
X34112Y-51464D01*
X34110Y-51489D01*
X34110Y-51514D01*
X34112Y-51539D01*
X34117Y-51564D01*
X34123Y-51588D01*
X34132Y-51612D01*
X34143Y-51635D01*
X34156Y-51657D01*
X34171Y-51678D01*
X34185Y-51695D01*
X34185Y-51695D02*
X34203Y-51713D01*
X34222Y-51729D01*
X34243Y-51744D01*
X34265Y-51757D01*
X34288Y-51768D01*
X34312Y-51777D01*
X34336Y-51783D01*
X34361Y-51788D01*
X34386Y-51790D01*
X34411Y-51790D01*
X34436Y-51788D01*
X34461Y-51784D01*
X34486Y-51777D01*
X34509Y-51769D01*
X34533Y-51758D01*
X34555Y-51746D01*
X34575Y-51731D01*
X34595Y-51715D01*
X34613Y-51697D01*
X34614Y-51696D01*
X34615Y-51695D02*
X34631Y-51675D01*
X34646Y-51655D01*
X34658Y-51633D01*
X34669Y-51609D01*
X34677Y-51586D01*
X34684Y-51561D01*
X34688Y-51536D01*
X34690Y-51511D01*
X34690Y-51486D01*
X34688Y-51461D01*
X34683Y-51436D01*
X34677Y-51412D01*
X34668Y-51388D01*
X34657Y-51365D01*
X34644Y-51343D01*
X34629Y-51322D01*
X34615Y-51305D01*
G54D15*
X34361Y-50461D02*
X34439Y-50461D01*
X34439Y-50461D02*
X34439Y-50539D01*
X34361Y-50539D02*
X34439Y-50539D01*
X34361Y-50461D02*
X34361Y-50539D01*
X34577Y-50225D02*
X34714Y-50225D01*
X34714Y-50225D02*
X34714Y-50323D01*
X34577Y-50323D02*
X34714Y-50323D01*
X34577Y-50225D02*
X34577Y-50323D01*
X34714Y-50225D02*
X34754Y-50225D01*
X34754Y-50225D02*
X34754Y-50696D01*
X34714Y-50696D02*
X34754Y-50696D01*
X34714Y-50225D02*
X34714Y-50696D01*
X34714Y-50716D02*
X34754Y-50716D01*
X34754Y-50716D02*
X34754Y-50775D01*
X34714Y-50775D02*
X34754Y-50775D01*
X34714Y-50716D02*
X34714Y-50775D01*
X34046Y-50225D02*
X34086Y-50225D01*
X34086Y-50225D02*
X34086Y-50696D01*
X34046Y-50696D02*
X34086Y-50696D01*
X34046Y-50225D02*
X34046Y-50696D01*
X34046Y-50716D02*
X34086Y-50716D01*
X34086Y-50716D02*
X34086Y-50775D01*
X34046Y-50775D02*
X34086Y-50775D01*
X34046Y-50716D02*
X34046Y-50775D01*
X34577Y-50225D02*
X34636Y-50225D01*
X34636Y-50225D02*
X34636Y-50323D01*
X34577Y-50323D02*
X34636Y-50323D01*
X34577Y-50225D02*
X34577Y-50323D01*
G54D16*
X35010Y-50205D02*
X33790Y-50205D01*
X33790Y-50205D02*
X33790Y-50795D01*
X33790Y-50795D02*
X35010Y-50795D01*
X35010Y-50795D02*
X35010Y-50205D01*
X34615Y-50305D02*
X34597Y-50287D01*
X34578Y-50271D01*
X34557Y-50256D01*
X34535Y-50243D01*
X34512Y-50232D01*
X34488Y-50223D01*
X34464Y-50217D01*
X34439Y-50212D01*
X34414Y-50210D01*
X34389Y-50210D01*
X34364Y-50212D01*
X34339Y-50216D01*
X34314Y-50223D01*
X34291Y-50231D01*
X34267Y-50242D01*
X34245Y-50254D01*
X34225Y-50269D01*
X34205Y-50285D01*
X34187Y-50303D01*
X34186Y-50304D01*
X34185Y-50305D02*
X34169Y-50325D01*
X34154Y-50345D01*
X34142Y-50367D01*
X34131Y-50391D01*
X34123Y-50414D01*
X34116Y-50439D01*
X34112Y-50464D01*
X34110Y-50489D01*
X34110Y-50514D01*
X34112Y-50539D01*
X34117Y-50564D01*
X34123Y-50588D01*
X34132Y-50612D01*
X34143Y-50635D01*
X34156Y-50657D01*
X34171Y-50678D01*
X34185Y-50695D01*
X34185Y-50695D02*
X34203Y-50713D01*
X34222Y-50729D01*
X34243Y-50744D01*
X34265Y-50757D01*
X34288Y-50768D01*
X34312Y-50777D01*
X34336Y-50783D01*
X34361Y-50788D01*
X34386Y-50790D01*
X34411Y-50790D01*
X34436Y-50788D01*
X34461Y-50784D01*
X34486Y-50777D01*
X34509Y-50769D01*
X34533Y-50758D01*
X34555Y-50746D01*
X34575Y-50731D01*
X34595Y-50715D01*
X34613Y-50697D01*
X34614Y-50696D01*
X34615Y-50695D02*
X34631Y-50675D01*
X34646Y-50655D01*
X34658Y-50633D01*
X34669Y-50609D01*
X34677Y-50586D01*
X34684Y-50561D01*
X34688Y-50536D01*
X34690Y-50511D01*
X34690Y-50486D01*
X34688Y-50461D01*
X34683Y-50436D01*
X34677Y-50412D01*
X34668Y-50388D01*
X34657Y-50365D01*
X34644Y-50343D01*
X34629Y-50322D01*
X34615Y-50305D01*
G54D15*
X26061Y-50461D02*
X26139Y-50461D01*
X26139Y-50461D02*
X26139Y-50539D01*
X26061Y-50539D02*
X26139Y-50539D01*
X26061Y-50461D02*
X26061Y-50539D01*
X26277Y-50225D02*
X26414Y-50225D01*
X26414Y-50225D02*
X26414Y-50323D01*
X26277Y-50323D02*
X26414Y-50323D01*
X26277Y-50225D02*
X26277Y-50323D01*
X26414Y-50225D02*
X26454Y-50225D01*
X26454Y-50225D02*
X26454Y-50696D01*
X26414Y-50696D02*
X26454Y-50696D01*
X26414Y-50225D02*
X26414Y-50696D01*
X26414Y-50716D02*
X26454Y-50716D01*
X26454Y-50716D02*
X26454Y-50775D01*
X26414Y-50775D02*
X26454Y-50775D01*
X26414Y-50716D02*
X26414Y-50775D01*
X25746Y-50225D02*
X25786Y-50225D01*
X25786Y-50225D02*
X25786Y-50696D01*
X25746Y-50696D02*
X25786Y-50696D01*
X25746Y-50225D02*
X25746Y-50696D01*
X25746Y-50716D02*
X25786Y-50716D01*
X25786Y-50716D02*
X25786Y-50775D01*
X25746Y-50775D02*
X25786Y-50775D01*
X25746Y-50716D02*
X25746Y-50775D01*
X26277Y-50225D02*
X26336Y-50225D01*
X26336Y-50225D02*
X26336Y-50323D01*
X26277Y-50323D02*
X26336Y-50323D01*
X26277Y-50225D02*
X26277Y-50323D01*
G54D16*
X26710Y-50205D02*
X25490Y-50205D01*
X25490Y-50205D02*
X25490Y-50795D01*
X25490Y-50795D02*
X26710Y-50795D01*
X26710Y-50795D02*
X26710Y-50205D01*
X26315Y-50305D02*
X26297Y-50287D01*
X26278Y-50271D01*
X26257Y-50256D01*
X26235Y-50243D01*
X26212Y-50232D01*
X26188Y-50223D01*
X26164Y-50217D01*
X26139Y-50212D01*
X26114Y-50210D01*
X26089Y-50210D01*
X26064Y-50212D01*
X26039Y-50216D01*
X26014Y-50223D01*
X25991Y-50231D01*
X25967Y-50242D01*
X25945Y-50254D01*
X25925Y-50269D01*
X25905Y-50285D01*
X25887Y-50303D01*
X25886Y-50304D01*
X25885Y-50305D02*
X25869Y-50325D01*
X25854Y-50345D01*
X25842Y-50367D01*
X25831Y-50391D01*
X25823Y-50414D01*
X25816Y-50439D01*
X25812Y-50464D01*
X25810Y-50489D01*
X25810Y-50514D01*
X25812Y-50539D01*
X25817Y-50564D01*
X25823Y-50588D01*
X25832Y-50612D01*
X25843Y-50635D01*
X25856Y-50657D01*
X25871Y-50678D01*
X25885Y-50695D01*
X25885Y-50695D02*
X25903Y-50713D01*
X25922Y-50729D01*
X25943Y-50744D01*
X25965Y-50757D01*
X25988Y-50768D01*
X26012Y-50777D01*
X26036Y-50783D01*
X26061Y-50788D01*
X26086Y-50790D01*
X26111Y-50790D01*
X26136Y-50788D01*
X26161Y-50784D01*
X26186Y-50777D01*
X26209Y-50769D01*
X26233Y-50758D01*
X26255Y-50746D01*
X26275Y-50731D01*
X26295Y-50715D01*
X26313Y-50697D01*
X26314Y-50696D01*
X26315Y-50695D02*
X26331Y-50675D01*
X26346Y-50655D01*
X26358Y-50633D01*
X26369Y-50609D01*
X26377Y-50586D01*
X26384Y-50561D01*
X26388Y-50536D01*
X26390Y-50511D01*
X26390Y-50486D01*
X26388Y-50461D01*
X26383Y-50436D01*
X26377Y-50412D01*
X26368Y-50388D01*
X26357Y-50365D01*
X26344Y-50343D01*
X26329Y-50322D01*
X26315Y-50305D01*
G54D17*
X28047Y-56148D02*
X27353Y-56148D01*
X28047Y-55852D02*
X27353Y-55852D01*
X28047Y-55852D02*
X28047Y-56148D01*
X27353Y-55852D02*
X27353Y-56148D01*
X31547Y-54548D02*
X30853Y-54548D01*
X31547Y-54252D02*
X30853Y-54252D01*
X31547Y-54252D02*
X31547Y-54548D01*
X30853Y-54252D02*
X30853Y-54548D01*
X27153Y-50352D02*
X27847Y-50352D01*
X27153Y-50648D02*
X27847Y-50648D01*
X27153Y-50648D02*
X27153Y-50352D01*
X27847Y-50648D02*
X27847Y-50352D01*
X25852Y-52147D02*
X25852Y-51453D01*
X26148Y-52147D02*
X26148Y-51453D01*
X26148Y-52147D02*
X25852Y-52147D01*
X26148Y-51453D02*
X25852Y-51453D01*
X24352Y-52847D02*
X24352Y-52153D01*
X24648Y-52847D02*
X24648Y-52153D01*
X24648Y-52847D02*
X24352Y-52847D01*
X24648Y-52153D02*
X24352Y-52153D01*
X24752Y-52847D02*
X24752Y-52153D01*
X25048Y-52847D02*
X25048Y-52153D01*
X25048Y-52847D02*
X24752Y-52847D01*
X25048Y-52153D02*
X24752Y-52153D01*
X27652Y-52147D02*
X27652Y-51453D01*
X27948Y-52147D02*
X27948Y-51453D01*
X27948Y-52147D02*
X27652Y-52147D01*
X27948Y-51453D02*
X27652Y-51453D01*
X27152Y-52147D02*
X27152Y-51453D01*
X27448Y-52147D02*
X27448Y-51453D01*
X27448Y-52147D02*
X27152Y-52147D01*
X27448Y-51453D02*
X27152Y-51453D01*
X25048Y-50653D02*
X25048Y-51347D01*
X24752Y-50653D02*
X24752Y-51347D01*
X24752Y-50653D02*
X25048Y-50653D01*
X24752Y-51347D02*
X25048Y-51347D01*
X24648Y-50653D02*
X24648Y-51347D01*
X24352Y-50653D02*
X24352Y-51347D01*
X24352Y-50653D02*
X24648Y-50653D01*
X24352Y-51347D02*
X24648Y-51347D01*
G54D10*
X32780Y-50410D02*
X32330Y-50410D01*
X32780Y-52590D02*
X32340Y-52590D01*
X32780Y-50410D02*
X32780Y-52590D01*
X31900Y-49940D02*
X31900Y-49510D01*
X29690Y-49930D02*
X29690Y-49510D01*
X29680Y-49510D02*
X31900Y-49500D01*
X29700Y-53480D02*
X31870Y-53490D01*
X29270Y-52790D02*
X29270Y-49960D01*
X31880Y-53480D02*
X31880Y-53070D01*
X29520Y-53030D02*
X32300Y-53030D01*
X32320Y-49950D02*
X32320Y-52990D01*
X29270Y-49950D02*
X32270Y-49950D01*
X28820Y-52620D02*
X28820Y-50400D01*
X28820Y-50400D02*
X29270Y-50400D01*
X29274Y-52800D02*
X29504Y-53030D01*
X28822Y-52620D02*
X29274Y-52620D01*
X29700Y-53030D02*
X29700Y-53482D01*
X29870Y-52626D02*
X29866Y-52662D01*
X29855Y-52697D01*
X29838Y-52730D01*
X29815Y-52758D01*
X29787Y-52781D01*
X29754Y-52799D01*
X29719Y-52810D01*
X29683Y-52813D01*
X29647Y-52810D01*
X29612Y-52800D01*
X29580Y-52783D01*
X29551Y-52760D01*
X29527Y-52732D01*
X29510Y-52700D01*
X29499Y-52665D01*
X29495Y-52628D01*
X29498Y-52593D01*
X29508Y-52557D01*
X29524Y-52525D01*
X29547Y-52496D01*
X29575Y-52472D01*
X29607Y-52454D01*
X29642Y-52443D01*
X29679Y-52439D01*
X29714Y-52441D01*
X29749Y-52451D01*
X29782Y-52468D01*
X29811Y-52490D01*
X29835Y-52518D01*
X29853Y-52550D01*
X29865Y-52585D01*
X29869Y-52621D01*
X29870Y-52626D01*
G54D15*
X92361Y-53461D02*
X92439Y-53461D01*
X92439Y-53461D02*
X92439Y-53539D01*
X92361Y-53539D02*
X92439Y-53539D01*
X92361Y-53461D02*
X92361Y-53539D01*
X92577Y-53225D02*
X92714Y-53225D01*
X92714Y-53225D02*
X92714Y-53323D01*
X92577Y-53323D02*
X92714Y-53323D01*
X92577Y-53225D02*
X92577Y-53323D01*
X92714Y-53225D02*
X92754Y-53225D01*
X92754Y-53225D02*
X92754Y-53696D01*
X92714Y-53696D02*
X92754Y-53696D01*
X92714Y-53225D02*
X92714Y-53696D01*
X92714Y-53716D02*
X92754Y-53716D01*
X92754Y-53716D02*
X92754Y-53775D01*
X92714Y-53775D02*
X92754Y-53775D01*
X92714Y-53716D02*
X92714Y-53775D01*
X92046Y-53225D02*
X92086Y-53225D01*
X92086Y-53225D02*
X92086Y-53696D01*
X92046Y-53696D02*
X92086Y-53696D01*
X92046Y-53225D02*
X92046Y-53696D01*
X92046Y-53716D02*
X92086Y-53716D01*
X92086Y-53716D02*
X92086Y-53775D01*
X92046Y-53775D02*
X92086Y-53775D01*
X92046Y-53716D02*
X92046Y-53775D01*
X92577Y-53225D02*
X92636Y-53225D01*
X92636Y-53225D02*
X92636Y-53323D01*
X92577Y-53323D02*
X92636Y-53323D01*
X92577Y-53225D02*
X92577Y-53323D01*
G54D16*
X93010Y-53205D02*
X91790Y-53205D01*
X91790Y-53205D02*
X91790Y-53795D01*
X91790Y-53795D02*
X93010Y-53795D01*
X93010Y-53795D02*
X93010Y-53205D01*
X92615Y-53305D02*
X92597Y-53287D01*
X92578Y-53271D01*
X92557Y-53256D01*
X92535Y-53243D01*
X92512Y-53232D01*
X92488Y-53223D01*
X92464Y-53217D01*
X92439Y-53212D01*
X92414Y-53210D01*
X92389Y-53210D01*
X92364Y-53212D01*
X92339Y-53216D01*
X92314Y-53223D01*
X92291Y-53231D01*
X92267Y-53242D01*
X92245Y-53254D01*
X92225Y-53269D01*
X92205Y-53285D01*
X92187Y-53303D01*
X92186Y-53304D01*
X92185Y-53305D02*
X92169Y-53325D01*
X92154Y-53345D01*
X92142Y-53367D01*
X92131Y-53391D01*
X92123Y-53414D01*
X92116Y-53439D01*
X92112Y-53464D01*
X92110Y-53489D01*
X92110Y-53514D01*
X92112Y-53539D01*
X92117Y-53564D01*
X92123Y-53588D01*
X92132Y-53612D01*
X92143Y-53635D01*
X92156Y-53657D01*
X92171Y-53678D01*
X92185Y-53695D01*
X92185Y-53695D02*
X92203Y-53713D01*
X92222Y-53729D01*
X92243Y-53744D01*
X92265Y-53757D01*
X92288Y-53768D01*
X92312Y-53777D01*
X92336Y-53783D01*
X92361Y-53788D01*
X92386Y-53790D01*
X92411Y-53790D01*
X92436Y-53788D01*
X92461Y-53784D01*
X92486Y-53777D01*
X92509Y-53769D01*
X92533Y-53758D01*
X92555Y-53746D01*
X92575Y-53731D01*
X92595Y-53715D01*
X92613Y-53697D01*
X92614Y-53696D01*
X92615Y-53695D02*
X92631Y-53675D01*
X92646Y-53655D01*
X92658Y-53633D01*
X92669Y-53609D01*
X92677Y-53586D01*
X92684Y-53561D01*
X92688Y-53536D01*
X92690Y-53511D01*
X92690Y-53486D01*
X92688Y-53461D01*
X92683Y-53436D01*
X92677Y-53412D01*
X92668Y-53388D01*
X92657Y-53365D01*
X92644Y-53343D01*
X92629Y-53322D01*
X92615Y-53305D01*
G54D15*
X92361Y-52461D02*
X92439Y-52461D01*
X92439Y-52461D02*
X92439Y-52539D01*
X92361Y-52539D02*
X92439Y-52539D01*
X92361Y-52461D02*
X92361Y-52539D01*
X92577Y-52225D02*
X92714Y-52225D01*
X92714Y-52225D02*
X92714Y-52323D01*
X92577Y-52323D02*
X92714Y-52323D01*
X92577Y-52225D02*
X92577Y-52323D01*
X92714Y-52225D02*
X92754Y-52225D01*
X92754Y-52225D02*
X92754Y-52696D01*
X92714Y-52696D02*
X92754Y-52696D01*
X92714Y-52225D02*
X92714Y-52696D01*
X92714Y-52716D02*
X92754Y-52716D01*
X92754Y-52716D02*
X92754Y-52775D01*
X92714Y-52775D02*
X92754Y-52775D01*
X92714Y-52716D02*
X92714Y-52775D01*
X92046Y-52225D02*
X92086Y-52225D01*
X92086Y-52225D02*
X92086Y-52696D01*
X92046Y-52696D02*
X92086Y-52696D01*
X92046Y-52225D02*
X92046Y-52696D01*
X92046Y-52716D02*
X92086Y-52716D01*
X92086Y-52716D02*
X92086Y-52775D01*
X92046Y-52775D02*
X92086Y-52775D01*
X92046Y-52716D02*
X92046Y-52775D01*
X92577Y-52225D02*
X92636Y-52225D01*
X92636Y-52225D02*
X92636Y-52323D01*
X92577Y-52323D02*
X92636Y-52323D01*
X92577Y-52225D02*
X92577Y-52323D01*
G54D16*
X93010Y-52205D02*
X91790Y-52205D01*
X91790Y-52205D02*
X91790Y-52795D01*
X91790Y-52795D02*
X93010Y-52795D01*
X93010Y-52795D02*
X93010Y-52205D01*
X92615Y-52305D02*
X92597Y-52287D01*
X92578Y-52271D01*
X92557Y-52256D01*
X92535Y-52243D01*
X92512Y-52232D01*
X92488Y-52223D01*
X92464Y-52217D01*
X92439Y-52212D01*
X92414Y-52210D01*
X92389Y-52210D01*
X92364Y-52212D01*
X92339Y-52216D01*
X92314Y-52223D01*
X92291Y-52231D01*
X92267Y-52242D01*
X92245Y-52254D01*
X92225Y-52269D01*
X92205Y-52285D01*
X92187Y-52303D01*
X92186Y-52304D01*
X92185Y-52305D02*
X92169Y-52325D01*
X92154Y-52345D01*
X92142Y-52367D01*
X92131Y-52391D01*
X92123Y-52414D01*
X92116Y-52439D01*
X92112Y-52464D01*
X92110Y-52489D01*
X92110Y-52514D01*
X92112Y-52539D01*
X92117Y-52564D01*
X92123Y-52588D01*
X92132Y-52612D01*
X92143Y-52635D01*
X92156Y-52657D01*
X92171Y-52678D01*
X92185Y-52695D01*
X92185Y-52695D02*
X92203Y-52713D01*
X92222Y-52729D01*
X92243Y-52744D01*
X92265Y-52757D01*
X92288Y-52768D01*
X92312Y-52777D01*
X92336Y-52783D01*
X92361Y-52788D01*
X92386Y-52790D01*
X92411Y-52790D01*
X92436Y-52788D01*
X92461Y-52784D01*
X92486Y-52777D01*
X92509Y-52769D01*
X92533Y-52758D01*
X92555Y-52746D01*
X92575Y-52731D01*
X92595Y-52715D01*
X92613Y-52697D01*
X92614Y-52696D01*
X92615Y-52695D02*
X92631Y-52675D01*
X92646Y-52655D01*
X92658Y-52633D01*
X92669Y-52609D01*
X92677Y-52586D01*
X92684Y-52561D01*
X92688Y-52536D01*
X92690Y-52511D01*
X92690Y-52486D01*
X92688Y-52461D01*
X92683Y-52436D01*
X92677Y-52412D01*
X92668Y-52388D01*
X92657Y-52365D01*
X92644Y-52343D01*
X92629Y-52322D01*
X92615Y-52305D01*
G54D15*
X92361Y-51461D02*
X92439Y-51461D01*
X92439Y-51461D02*
X92439Y-51539D01*
X92361Y-51539D02*
X92439Y-51539D01*
X92361Y-51461D02*
X92361Y-51539D01*
X92577Y-51225D02*
X92714Y-51225D01*
X92714Y-51225D02*
X92714Y-51323D01*
X92577Y-51323D02*
X92714Y-51323D01*
X92577Y-51225D02*
X92577Y-51323D01*
X92714Y-51225D02*
X92754Y-51225D01*
X92754Y-51225D02*
X92754Y-51696D01*
X92714Y-51696D02*
X92754Y-51696D01*
X92714Y-51225D02*
X92714Y-51696D01*
X92714Y-51716D02*
X92754Y-51716D01*
X92754Y-51716D02*
X92754Y-51775D01*
X92714Y-51775D02*
X92754Y-51775D01*
X92714Y-51716D02*
X92714Y-51775D01*
X92046Y-51225D02*
X92086Y-51225D01*
X92086Y-51225D02*
X92086Y-51696D01*
X92046Y-51696D02*
X92086Y-51696D01*
X92046Y-51225D02*
X92046Y-51696D01*
X92046Y-51716D02*
X92086Y-51716D01*
X92086Y-51716D02*
X92086Y-51775D01*
X92046Y-51775D02*
X92086Y-51775D01*
X92046Y-51716D02*
X92046Y-51775D01*
X92577Y-51225D02*
X92636Y-51225D01*
X92636Y-51225D02*
X92636Y-51323D01*
X92577Y-51323D02*
X92636Y-51323D01*
X92577Y-51225D02*
X92577Y-51323D01*
G54D16*
X93010Y-51205D02*
X91790Y-51205D01*
X91790Y-51205D02*
X91790Y-51795D01*
X91790Y-51795D02*
X93010Y-51795D01*
X93010Y-51795D02*
X93010Y-51205D01*
X92615Y-51305D02*
X92597Y-51287D01*
X92578Y-51271D01*
X92557Y-51256D01*
X92535Y-51243D01*
X92512Y-51232D01*
X92488Y-51223D01*
X92464Y-51217D01*
X92439Y-51212D01*
X92414Y-51210D01*
X92389Y-51210D01*
X92364Y-51212D01*
X92339Y-51216D01*
X92314Y-51223D01*
X92291Y-51231D01*
X92267Y-51242D01*
X92245Y-51254D01*
X92225Y-51269D01*
X92205Y-51285D01*
X92187Y-51303D01*
X92186Y-51304D01*
X92185Y-51305D02*
X92169Y-51325D01*
X92154Y-51345D01*
X92142Y-51367D01*
X92131Y-51391D01*
X92123Y-51414D01*
X92116Y-51439D01*
X92112Y-51464D01*
X92110Y-51489D01*
X92110Y-51514D01*
X92112Y-51539D01*
X92117Y-51564D01*
X92123Y-51588D01*
X92132Y-51612D01*
X92143Y-51635D01*
X92156Y-51657D01*
X92171Y-51678D01*
X92185Y-51695D01*
X92185Y-51695D02*
X92203Y-51713D01*
X92222Y-51729D01*
X92243Y-51744D01*
X92265Y-51757D01*
X92288Y-51768D01*
X92312Y-51777D01*
X92336Y-51783D01*
X92361Y-51788D01*
X92386Y-51790D01*
X92411Y-51790D01*
X92436Y-51788D01*
X92461Y-51784D01*
X92486Y-51777D01*
X92509Y-51769D01*
X92533Y-51758D01*
X92555Y-51746D01*
X92575Y-51731D01*
X92595Y-51715D01*
X92613Y-51697D01*
X92614Y-51696D01*
X92615Y-51695D02*
X92631Y-51675D01*
X92646Y-51655D01*
X92658Y-51633D01*
X92669Y-51609D01*
X92677Y-51586D01*
X92684Y-51561D01*
X92688Y-51536D01*
X92690Y-51511D01*
X92690Y-51486D01*
X92688Y-51461D01*
X92683Y-51436D01*
X92677Y-51412D01*
X92668Y-51388D01*
X92657Y-51365D01*
X92644Y-51343D01*
X92629Y-51322D01*
X92615Y-51305D01*
G54D15*
X92361Y-50461D02*
X92439Y-50461D01*
X92439Y-50461D02*
X92439Y-50539D01*
X92361Y-50539D02*
X92439Y-50539D01*
X92361Y-50461D02*
X92361Y-50539D01*
X92577Y-50225D02*
X92714Y-50225D01*
X92714Y-50225D02*
X92714Y-50323D01*
X92577Y-50323D02*
X92714Y-50323D01*
X92577Y-50225D02*
X92577Y-50323D01*
X92714Y-50225D02*
X92754Y-50225D01*
X92754Y-50225D02*
X92754Y-50696D01*
X92714Y-50696D02*
X92754Y-50696D01*
X92714Y-50225D02*
X92714Y-50696D01*
X92714Y-50716D02*
X92754Y-50716D01*
X92754Y-50716D02*
X92754Y-50775D01*
X92714Y-50775D02*
X92754Y-50775D01*
X92714Y-50716D02*
X92714Y-50775D01*
X92046Y-50225D02*
X92086Y-50225D01*
X92086Y-50225D02*
X92086Y-50696D01*
X92046Y-50696D02*
X92086Y-50696D01*
X92046Y-50225D02*
X92046Y-50696D01*
X92046Y-50716D02*
X92086Y-50716D01*
X92086Y-50716D02*
X92086Y-50775D01*
X92046Y-50775D02*
X92086Y-50775D01*
X92046Y-50716D02*
X92046Y-50775D01*
X92577Y-50225D02*
X92636Y-50225D01*
X92636Y-50225D02*
X92636Y-50323D01*
X92577Y-50323D02*
X92636Y-50323D01*
X92577Y-50225D02*
X92577Y-50323D01*
G54D16*
X93010Y-50205D02*
X91790Y-50205D01*
X91790Y-50205D02*
X91790Y-50795D01*
X91790Y-50795D02*
X93010Y-50795D01*
X93010Y-50795D02*
X93010Y-50205D01*
X92615Y-50305D02*
X92597Y-50287D01*
X92578Y-50271D01*
X92557Y-50256D01*
X92535Y-50243D01*
X92512Y-50232D01*
X92488Y-50223D01*
X92464Y-50217D01*
X92439Y-50212D01*
X92414Y-50210D01*
X92389Y-50210D01*
X92364Y-50212D01*
X92339Y-50216D01*
X92314Y-50223D01*
X92291Y-50231D01*
X92267Y-50242D01*
X92245Y-50254D01*
X92225Y-50269D01*
X92205Y-50285D01*
X92187Y-50303D01*
X92186Y-50304D01*
X92185Y-50305D02*
X92169Y-50325D01*
X92154Y-50345D01*
X92142Y-50367D01*
X92131Y-50391D01*
X92123Y-50414D01*
X92116Y-50439D01*
X92112Y-50464D01*
X92110Y-50489D01*
X92110Y-50514D01*
X92112Y-50539D01*
X92117Y-50564D01*
X92123Y-50588D01*
X92132Y-50612D01*
X92143Y-50635D01*
X92156Y-50657D01*
X92171Y-50678D01*
X92185Y-50695D01*
X92185Y-50695D02*
X92203Y-50713D01*
X92222Y-50729D01*
X92243Y-50744D01*
X92265Y-50757D01*
X92288Y-50768D01*
X92312Y-50777D01*
X92336Y-50783D01*
X92361Y-50788D01*
X92386Y-50790D01*
X92411Y-50790D01*
X92436Y-50788D01*
X92461Y-50784D01*
X92486Y-50777D01*
X92509Y-50769D01*
X92533Y-50758D01*
X92555Y-50746D01*
X92575Y-50731D01*
X92595Y-50715D01*
X92613Y-50697D01*
X92614Y-50696D01*
X92615Y-50695D02*
X92631Y-50675D01*
X92646Y-50655D01*
X92658Y-50633D01*
X92669Y-50609D01*
X92677Y-50586D01*
X92684Y-50561D01*
X92688Y-50536D01*
X92690Y-50511D01*
X92690Y-50486D01*
X92688Y-50461D01*
X92683Y-50436D01*
X92677Y-50412D01*
X92668Y-50388D01*
X92657Y-50365D01*
X92644Y-50343D01*
X92629Y-50322D01*
X92615Y-50305D01*
G54D15*
X84061Y-50461D02*
X84139Y-50461D01*
X84139Y-50461D02*
X84139Y-50539D01*
X84061Y-50539D02*
X84139Y-50539D01*
X84061Y-50461D02*
X84061Y-50539D01*
X84277Y-50225D02*
X84414Y-50225D01*
X84414Y-50225D02*
X84414Y-50323D01*
X84277Y-50323D02*
X84414Y-50323D01*
X84277Y-50225D02*
X84277Y-50323D01*
X84414Y-50225D02*
X84454Y-50225D01*
X84454Y-50225D02*
X84454Y-50696D01*
X84414Y-50696D02*
X84454Y-50696D01*
X84414Y-50225D02*
X84414Y-50696D01*
X84414Y-50716D02*
X84454Y-50716D01*
X84454Y-50716D02*
X84454Y-50775D01*
X84414Y-50775D02*
X84454Y-50775D01*
X84414Y-50716D02*
X84414Y-50775D01*
X83746Y-50225D02*
X83786Y-50225D01*
X83786Y-50225D02*
X83786Y-50696D01*
X83746Y-50696D02*
X83786Y-50696D01*
X83746Y-50225D02*
X83746Y-50696D01*
X83746Y-50716D02*
X83786Y-50716D01*
X83786Y-50716D02*
X83786Y-50775D01*
X83746Y-50775D02*
X83786Y-50775D01*
X83746Y-50716D02*
X83746Y-50775D01*
X84277Y-50225D02*
X84336Y-50225D01*
X84336Y-50225D02*
X84336Y-50323D01*
X84277Y-50323D02*
X84336Y-50323D01*
X84277Y-50225D02*
X84277Y-50323D01*
G54D16*
X84710Y-50205D02*
X83490Y-50205D01*
X83490Y-50205D02*
X83490Y-50795D01*
X83490Y-50795D02*
X84710Y-50795D01*
X84710Y-50795D02*
X84710Y-50205D01*
X84315Y-50305D02*
X84297Y-50287D01*
X84278Y-50271D01*
X84257Y-50256D01*
X84235Y-50243D01*
X84212Y-50232D01*
X84188Y-50223D01*
X84164Y-50217D01*
X84139Y-50212D01*
X84114Y-50210D01*
X84089Y-50210D01*
X84064Y-50212D01*
X84039Y-50216D01*
X84014Y-50223D01*
X83991Y-50231D01*
X83967Y-50242D01*
X83945Y-50254D01*
X83925Y-50269D01*
X83905Y-50285D01*
X83887Y-50303D01*
X83886Y-50304D01*
X83885Y-50305D02*
X83869Y-50325D01*
X83854Y-50345D01*
X83842Y-50367D01*
X83831Y-50391D01*
X83823Y-50414D01*
X83816Y-50439D01*
X83812Y-50464D01*
X83810Y-50489D01*
X83810Y-50514D01*
X83812Y-50539D01*
X83817Y-50564D01*
X83823Y-50588D01*
X83832Y-50612D01*
X83843Y-50635D01*
X83856Y-50657D01*
X83871Y-50678D01*
X83885Y-50695D01*
X83885Y-50695D02*
X83903Y-50713D01*
X83922Y-50729D01*
X83943Y-50744D01*
X83965Y-50757D01*
X83988Y-50768D01*
X84012Y-50777D01*
X84036Y-50783D01*
X84061Y-50788D01*
X84086Y-50790D01*
X84111Y-50790D01*
X84136Y-50788D01*
X84161Y-50784D01*
X84186Y-50777D01*
X84209Y-50769D01*
X84233Y-50758D01*
X84255Y-50746D01*
X84275Y-50731D01*
X84295Y-50715D01*
X84313Y-50697D01*
X84314Y-50696D01*
X84315Y-50695D02*
X84331Y-50675D01*
X84346Y-50655D01*
X84358Y-50633D01*
X84369Y-50609D01*
X84377Y-50586D01*
X84384Y-50561D01*
X84388Y-50536D01*
X84390Y-50511D01*
X84390Y-50486D01*
X84388Y-50461D01*
X84383Y-50436D01*
X84377Y-50412D01*
X84368Y-50388D01*
X84357Y-50365D01*
X84344Y-50343D01*
X84329Y-50322D01*
X84315Y-50305D01*
G54D17*
X86047Y-56148D02*
X85353Y-56148D01*
X86047Y-55852D02*
X85353Y-55852D01*
X86047Y-55852D02*
X86047Y-56148D01*
X85353Y-55852D02*
X85353Y-56148D01*
X89547Y-54548D02*
X88853Y-54548D01*
X89547Y-54252D02*
X88853Y-54252D01*
X89547Y-54252D02*
X89547Y-54548D01*
X88853Y-54252D02*
X88853Y-54548D01*
X85153Y-50352D02*
X85847Y-50352D01*
X85153Y-50648D02*
X85847Y-50648D01*
X85153Y-50648D02*
X85153Y-50352D01*
X85847Y-50648D02*
X85847Y-50352D01*
X83852Y-52147D02*
X83852Y-51453D01*
X84148Y-52147D02*
X84148Y-51453D01*
X84148Y-52147D02*
X83852Y-52147D01*
X84148Y-51453D02*
X83852Y-51453D01*
X82352Y-52847D02*
X82352Y-52153D01*
X82648Y-52847D02*
X82648Y-52153D01*
X82648Y-52847D02*
X82352Y-52847D01*
X82648Y-52153D02*
X82352Y-52153D01*
X82752Y-52847D02*
X82752Y-52153D01*
X83048Y-52847D02*
X83048Y-52153D01*
X83048Y-52847D02*
X82752Y-52847D01*
X83048Y-52153D02*
X82752Y-52153D01*
X85652Y-52147D02*
X85652Y-51453D01*
X85948Y-52147D02*
X85948Y-51453D01*
X85948Y-52147D02*
X85652Y-52147D01*
X85948Y-51453D02*
X85652Y-51453D01*
X85152Y-52147D02*
X85152Y-51453D01*
X85448Y-52147D02*
X85448Y-51453D01*
X85448Y-52147D02*
X85152Y-52147D01*
X85448Y-51453D02*
X85152Y-51453D01*
X83048Y-50653D02*
X83048Y-51347D01*
X82752Y-50653D02*
X82752Y-51347D01*
X82752Y-50653D02*
X83048Y-50653D01*
X82752Y-51347D02*
X83048Y-51347D01*
X82648Y-50653D02*
X82648Y-51347D01*
X82352Y-50653D02*
X82352Y-51347D01*
X82352Y-50653D02*
X82648Y-50653D01*
X82352Y-51347D02*
X82648Y-51347D01*
G54D10*
X90780Y-50410D02*
X90330Y-50410D01*
X90780Y-52590D02*
X90340Y-52590D01*
X90780Y-50410D02*
X90780Y-52590D01*
X89900Y-49940D02*
X89900Y-49510D01*
X87690Y-49930D02*
X87690Y-49510D01*
X87680Y-49510D02*
X89900Y-49500D01*
X87700Y-53480D02*
X89870Y-53490D01*
X87270Y-52790D02*
X87270Y-49960D01*
X89880Y-53480D02*
X89880Y-53070D01*
X87520Y-53030D02*
X90300Y-53030D01*
X90320Y-49950D02*
X90320Y-52990D01*
X87270Y-49950D02*
X90270Y-49950D01*
X86820Y-52620D02*
X86820Y-50400D01*
X86820Y-50400D02*
X87270Y-50400D01*
X87274Y-52800D02*
X87504Y-53030D01*
X86822Y-52620D02*
X87274Y-52620D01*
X87700Y-53030D02*
X87700Y-53482D01*
X87870Y-52626D02*
X87866Y-52662D01*
X87855Y-52697D01*
X87838Y-52730D01*
X87815Y-52758D01*
X87787Y-52781D01*
X87754Y-52799D01*
X87719Y-52810D01*
X87683Y-52813D01*
X87647Y-52810D01*
X87612Y-52800D01*
X87580Y-52783D01*
X87551Y-52760D01*
X87527Y-52732D01*
X87510Y-52700D01*
X87499Y-52665D01*
X87495Y-52628D01*
X87498Y-52593D01*
X87508Y-52557D01*
X87524Y-52525D01*
X87547Y-52496D01*
X87575Y-52472D01*
X87607Y-52454D01*
X87642Y-52443D01*
X87679Y-52439D01*
X87714Y-52441D01*
X87749Y-52451D01*
X87782Y-52468D01*
X87811Y-52490D01*
X87835Y-52518D01*
X87853Y-52550D01*
X87865Y-52585D01*
X87869Y-52621D01*
X87870Y-52626D01*
G54D15*
X73461Y-53461D02*
X73539Y-53461D01*
X73539Y-53461D02*
X73539Y-53539D01*
X73461Y-53539D02*
X73539Y-53539D01*
X73461Y-53461D02*
X73461Y-53539D01*
X73677Y-53225D02*
X73814Y-53225D01*
X73814Y-53225D02*
X73814Y-53323D01*
X73677Y-53323D02*
X73814Y-53323D01*
X73677Y-53225D02*
X73677Y-53323D01*
X73814Y-53225D02*
X73854Y-53225D01*
X73854Y-53225D02*
X73854Y-53696D01*
X73814Y-53696D02*
X73854Y-53696D01*
X73814Y-53225D02*
X73814Y-53696D01*
X73814Y-53716D02*
X73854Y-53716D01*
X73854Y-53716D02*
X73854Y-53775D01*
X73814Y-53775D02*
X73854Y-53775D01*
X73814Y-53716D02*
X73814Y-53775D01*
X73146Y-53225D02*
X73186Y-53225D01*
X73186Y-53225D02*
X73186Y-53696D01*
X73146Y-53696D02*
X73186Y-53696D01*
X73146Y-53225D02*
X73146Y-53696D01*
X73146Y-53716D02*
X73186Y-53716D01*
X73186Y-53716D02*
X73186Y-53775D01*
X73146Y-53775D02*
X73186Y-53775D01*
X73146Y-53716D02*
X73146Y-53775D01*
X73677Y-53225D02*
X73736Y-53225D01*
X73736Y-53225D02*
X73736Y-53323D01*
X73677Y-53323D02*
X73736Y-53323D01*
X73677Y-53225D02*
X73677Y-53323D01*
G54D16*
X74110Y-53205D02*
X72890Y-53205D01*
X72890Y-53205D02*
X72890Y-53795D01*
X72890Y-53795D02*
X74110Y-53795D01*
X74110Y-53795D02*
X74110Y-53205D01*
X73715Y-53305D02*
X73697Y-53287D01*
X73678Y-53271D01*
X73657Y-53256D01*
X73635Y-53243D01*
X73612Y-53232D01*
X73588Y-53223D01*
X73564Y-53217D01*
X73539Y-53212D01*
X73514Y-53210D01*
X73489Y-53210D01*
X73464Y-53212D01*
X73439Y-53216D01*
X73414Y-53223D01*
X73391Y-53231D01*
X73367Y-53242D01*
X73345Y-53254D01*
X73325Y-53269D01*
X73305Y-53285D01*
X73287Y-53303D01*
X73286Y-53304D01*
X73285Y-53305D02*
X73269Y-53325D01*
X73254Y-53345D01*
X73242Y-53367D01*
X73231Y-53391D01*
X73223Y-53414D01*
X73216Y-53439D01*
X73212Y-53464D01*
X73210Y-53489D01*
X73210Y-53514D01*
X73212Y-53539D01*
X73217Y-53564D01*
X73223Y-53588D01*
X73232Y-53612D01*
X73243Y-53635D01*
X73256Y-53657D01*
X73271Y-53678D01*
X73285Y-53695D01*
X73285Y-53695D02*
X73303Y-53713D01*
X73322Y-53729D01*
X73343Y-53744D01*
X73365Y-53757D01*
X73388Y-53768D01*
X73412Y-53777D01*
X73436Y-53783D01*
X73461Y-53788D01*
X73486Y-53790D01*
X73511Y-53790D01*
X73536Y-53788D01*
X73561Y-53784D01*
X73586Y-53777D01*
X73609Y-53769D01*
X73633Y-53758D01*
X73655Y-53746D01*
X73675Y-53731D01*
X73695Y-53715D01*
X73713Y-53697D01*
X73714Y-53696D01*
X73715Y-53695D02*
X73731Y-53675D01*
X73746Y-53655D01*
X73758Y-53633D01*
X73769Y-53609D01*
X73777Y-53586D01*
X73784Y-53561D01*
X73788Y-53536D01*
X73790Y-53511D01*
X73790Y-53486D01*
X73788Y-53461D01*
X73783Y-53436D01*
X73777Y-53412D01*
X73768Y-53388D01*
X73757Y-53365D01*
X73744Y-53343D01*
X73729Y-53322D01*
X73715Y-53305D01*
G54D15*
X73461Y-52461D02*
X73539Y-52461D01*
X73539Y-52461D02*
X73539Y-52539D01*
X73461Y-52539D02*
X73539Y-52539D01*
X73461Y-52461D02*
X73461Y-52539D01*
X73677Y-52225D02*
X73814Y-52225D01*
X73814Y-52225D02*
X73814Y-52323D01*
X73677Y-52323D02*
X73814Y-52323D01*
X73677Y-52225D02*
X73677Y-52323D01*
X73814Y-52225D02*
X73854Y-52225D01*
X73854Y-52225D02*
X73854Y-52696D01*
X73814Y-52696D02*
X73854Y-52696D01*
X73814Y-52225D02*
X73814Y-52696D01*
X73814Y-52716D02*
X73854Y-52716D01*
X73854Y-52716D02*
X73854Y-52775D01*
X73814Y-52775D02*
X73854Y-52775D01*
X73814Y-52716D02*
X73814Y-52775D01*
X73146Y-52225D02*
X73186Y-52225D01*
X73186Y-52225D02*
X73186Y-52696D01*
X73146Y-52696D02*
X73186Y-52696D01*
X73146Y-52225D02*
X73146Y-52696D01*
X73146Y-52716D02*
X73186Y-52716D01*
X73186Y-52716D02*
X73186Y-52775D01*
X73146Y-52775D02*
X73186Y-52775D01*
X73146Y-52716D02*
X73146Y-52775D01*
X73677Y-52225D02*
X73736Y-52225D01*
X73736Y-52225D02*
X73736Y-52323D01*
X73677Y-52323D02*
X73736Y-52323D01*
X73677Y-52225D02*
X73677Y-52323D01*
G54D16*
X74110Y-52205D02*
X72890Y-52205D01*
X72890Y-52205D02*
X72890Y-52795D01*
X72890Y-52795D02*
X74110Y-52795D01*
X74110Y-52795D02*
X74110Y-52205D01*
X73715Y-52305D02*
X73697Y-52287D01*
X73678Y-52271D01*
X73657Y-52256D01*
X73635Y-52243D01*
X73612Y-52232D01*
X73588Y-52223D01*
X73564Y-52217D01*
X73539Y-52212D01*
X73514Y-52210D01*
X73489Y-52210D01*
X73464Y-52212D01*
X73439Y-52216D01*
X73414Y-52223D01*
X73391Y-52231D01*
X73367Y-52242D01*
X73345Y-52254D01*
X73325Y-52269D01*
X73305Y-52285D01*
X73287Y-52303D01*
X73286Y-52304D01*
X73285Y-52305D02*
X73269Y-52325D01*
X73254Y-52345D01*
X73242Y-52367D01*
X73231Y-52391D01*
X73223Y-52414D01*
X73216Y-52439D01*
X73212Y-52464D01*
X73210Y-52489D01*
X73210Y-52514D01*
X73212Y-52539D01*
X73217Y-52564D01*
X73223Y-52588D01*
X73232Y-52612D01*
X73243Y-52635D01*
X73256Y-52657D01*
X73271Y-52678D01*
X73285Y-52695D01*
X73285Y-52695D02*
X73303Y-52713D01*
X73322Y-52729D01*
X73343Y-52744D01*
X73365Y-52757D01*
X73388Y-52768D01*
X73412Y-52777D01*
X73436Y-52783D01*
X73461Y-52788D01*
X73486Y-52790D01*
X73511Y-52790D01*
X73536Y-52788D01*
X73561Y-52784D01*
X73586Y-52777D01*
X73609Y-52769D01*
X73633Y-52758D01*
X73655Y-52746D01*
X73675Y-52731D01*
X73695Y-52715D01*
X73713Y-52697D01*
X73714Y-52696D01*
X73715Y-52695D02*
X73731Y-52675D01*
X73746Y-52655D01*
X73758Y-52633D01*
X73769Y-52609D01*
X73777Y-52586D01*
X73784Y-52561D01*
X73788Y-52536D01*
X73790Y-52511D01*
X73790Y-52486D01*
X73788Y-52461D01*
X73783Y-52436D01*
X73777Y-52412D01*
X73768Y-52388D01*
X73757Y-52365D01*
X73744Y-52343D01*
X73729Y-52322D01*
X73715Y-52305D01*
G54D15*
X73461Y-51461D02*
X73539Y-51461D01*
X73539Y-51461D02*
X73539Y-51539D01*
X73461Y-51539D02*
X73539Y-51539D01*
X73461Y-51461D02*
X73461Y-51539D01*
X73677Y-51225D02*
X73814Y-51225D01*
X73814Y-51225D02*
X73814Y-51323D01*
X73677Y-51323D02*
X73814Y-51323D01*
X73677Y-51225D02*
X73677Y-51323D01*
X73814Y-51225D02*
X73854Y-51225D01*
X73854Y-51225D02*
X73854Y-51696D01*
X73814Y-51696D02*
X73854Y-51696D01*
X73814Y-51225D02*
X73814Y-51696D01*
X73814Y-51716D02*
X73854Y-51716D01*
X73854Y-51716D02*
X73854Y-51775D01*
X73814Y-51775D02*
X73854Y-51775D01*
X73814Y-51716D02*
X73814Y-51775D01*
X73146Y-51225D02*
X73186Y-51225D01*
X73186Y-51225D02*
X73186Y-51696D01*
X73146Y-51696D02*
X73186Y-51696D01*
X73146Y-51225D02*
X73146Y-51696D01*
X73146Y-51716D02*
X73186Y-51716D01*
X73186Y-51716D02*
X73186Y-51775D01*
X73146Y-51775D02*
X73186Y-51775D01*
X73146Y-51716D02*
X73146Y-51775D01*
X73677Y-51225D02*
X73736Y-51225D01*
X73736Y-51225D02*
X73736Y-51323D01*
X73677Y-51323D02*
X73736Y-51323D01*
X73677Y-51225D02*
X73677Y-51323D01*
G54D16*
X74110Y-51205D02*
X72890Y-51205D01*
X72890Y-51205D02*
X72890Y-51795D01*
X72890Y-51795D02*
X74110Y-51795D01*
X74110Y-51795D02*
X74110Y-51205D01*
X73715Y-51305D02*
X73697Y-51287D01*
X73678Y-51271D01*
X73657Y-51256D01*
X73635Y-51243D01*
X73612Y-51232D01*
X73588Y-51223D01*
X73564Y-51217D01*
X73539Y-51212D01*
X73514Y-51210D01*
X73489Y-51210D01*
X73464Y-51212D01*
X73439Y-51216D01*
X73414Y-51223D01*
X73391Y-51231D01*
X73367Y-51242D01*
X73345Y-51254D01*
X73325Y-51269D01*
X73305Y-51285D01*
X73287Y-51303D01*
X73286Y-51304D01*
X73285Y-51305D02*
X73269Y-51325D01*
X73254Y-51345D01*
X73242Y-51367D01*
X73231Y-51391D01*
X73223Y-51414D01*
X73216Y-51439D01*
X73212Y-51464D01*
X73210Y-51489D01*
X73210Y-51514D01*
X73212Y-51539D01*
X73217Y-51564D01*
X73223Y-51588D01*
X73232Y-51612D01*
X73243Y-51635D01*
X73256Y-51657D01*
X73271Y-51678D01*
X73285Y-51695D01*
X73285Y-51695D02*
X73303Y-51713D01*
X73322Y-51729D01*
X73343Y-51744D01*
X73365Y-51757D01*
X73388Y-51768D01*
X73412Y-51777D01*
X73436Y-51783D01*
X73461Y-51788D01*
X73486Y-51790D01*
X73511Y-51790D01*
X73536Y-51788D01*
X73561Y-51784D01*
X73586Y-51777D01*
X73609Y-51769D01*
X73633Y-51758D01*
X73655Y-51746D01*
X73675Y-51731D01*
X73695Y-51715D01*
X73713Y-51697D01*
X73714Y-51696D01*
X73715Y-51695D02*
X73731Y-51675D01*
X73746Y-51655D01*
X73758Y-51633D01*
X73769Y-51609D01*
X73777Y-51586D01*
X73784Y-51561D01*
X73788Y-51536D01*
X73790Y-51511D01*
X73790Y-51486D01*
X73788Y-51461D01*
X73783Y-51436D01*
X73777Y-51412D01*
X73768Y-51388D01*
X73757Y-51365D01*
X73744Y-51343D01*
X73729Y-51322D01*
X73715Y-51305D01*
G54D15*
X73461Y-50461D02*
X73539Y-50461D01*
X73539Y-50461D02*
X73539Y-50539D01*
X73461Y-50539D02*
X73539Y-50539D01*
X73461Y-50461D02*
X73461Y-50539D01*
X73677Y-50225D02*
X73814Y-50225D01*
X73814Y-50225D02*
X73814Y-50323D01*
X73677Y-50323D02*
X73814Y-50323D01*
X73677Y-50225D02*
X73677Y-50323D01*
X73814Y-50225D02*
X73854Y-50225D01*
X73854Y-50225D02*
X73854Y-50696D01*
X73814Y-50696D02*
X73854Y-50696D01*
X73814Y-50225D02*
X73814Y-50696D01*
X73814Y-50716D02*
X73854Y-50716D01*
X73854Y-50716D02*
X73854Y-50775D01*
X73814Y-50775D02*
X73854Y-50775D01*
X73814Y-50716D02*
X73814Y-50775D01*
X73146Y-50225D02*
X73186Y-50225D01*
X73186Y-50225D02*
X73186Y-50696D01*
X73146Y-50696D02*
X73186Y-50696D01*
X73146Y-50225D02*
X73146Y-50696D01*
X73146Y-50716D02*
X73186Y-50716D01*
X73186Y-50716D02*
X73186Y-50775D01*
X73146Y-50775D02*
X73186Y-50775D01*
X73146Y-50716D02*
X73146Y-50775D01*
X73677Y-50225D02*
X73736Y-50225D01*
X73736Y-50225D02*
X73736Y-50323D01*
X73677Y-50323D02*
X73736Y-50323D01*
X73677Y-50225D02*
X73677Y-50323D01*
G54D16*
X74110Y-50205D02*
X72890Y-50205D01*
X72890Y-50205D02*
X72890Y-50795D01*
X72890Y-50795D02*
X74110Y-50795D01*
X74110Y-50795D02*
X74110Y-50205D01*
X73715Y-50305D02*
X73697Y-50287D01*
X73678Y-50271D01*
X73657Y-50256D01*
X73635Y-50243D01*
X73612Y-50232D01*
X73588Y-50223D01*
X73564Y-50217D01*
X73539Y-50212D01*
X73514Y-50210D01*
X73489Y-50210D01*
X73464Y-50212D01*
X73439Y-50216D01*
X73414Y-50223D01*
X73391Y-50231D01*
X73367Y-50242D01*
X73345Y-50254D01*
X73325Y-50269D01*
X73305Y-50285D01*
X73287Y-50303D01*
X73286Y-50304D01*
X73285Y-50305D02*
X73269Y-50325D01*
X73254Y-50345D01*
X73242Y-50367D01*
X73231Y-50391D01*
X73223Y-50414D01*
X73216Y-50439D01*
X73212Y-50464D01*
X73210Y-50489D01*
X73210Y-50514D01*
X73212Y-50539D01*
X73217Y-50564D01*
X73223Y-50588D01*
X73232Y-50612D01*
X73243Y-50635D01*
X73256Y-50657D01*
X73271Y-50678D01*
X73285Y-50695D01*
X73285Y-50695D02*
X73303Y-50713D01*
X73322Y-50729D01*
X73343Y-50744D01*
X73365Y-50757D01*
X73388Y-50768D01*
X73412Y-50777D01*
X73436Y-50783D01*
X73461Y-50788D01*
X73486Y-50790D01*
X73511Y-50790D01*
X73536Y-50788D01*
X73561Y-50784D01*
X73586Y-50777D01*
X73609Y-50769D01*
X73633Y-50758D01*
X73655Y-50746D01*
X73675Y-50731D01*
X73695Y-50715D01*
X73713Y-50697D01*
X73714Y-50696D01*
X73715Y-50695D02*
X73731Y-50675D01*
X73746Y-50655D01*
X73758Y-50633D01*
X73769Y-50609D01*
X73777Y-50586D01*
X73784Y-50561D01*
X73788Y-50536D01*
X73790Y-50511D01*
X73790Y-50486D01*
X73788Y-50461D01*
X73783Y-50436D01*
X73777Y-50412D01*
X73768Y-50388D01*
X73757Y-50365D01*
X73744Y-50343D01*
X73729Y-50322D01*
X73715Y-50305D01*
G54D15*
X65161Y-50461D02*
X65239Y-50461D01*
X65239Y-50461D02*
X65239Y-50539D01*
X65161Y-50539D02*
X65239Y-50539D01*
X65161Y-50461D02*
X65161Y-50539D01*
X65377Y-50225D02*
X65514Y-50225D01*
X65514Y-50225D02*
X65514Y-50323D01*
X65377Y-50323D02*
X65514Y-50323D01*
X65377Y-50225D02*
X65377Y-50323D01*
X65514Y-50225D02*
X65554Y-50225D01*
X65554Y-50225D02*
X65554Y-50696D01*
X65514Y-50696D02*
X65554Y-50696D01*
X65514Y-50225D02*
X65514Y-50696D01*
X65514Y-50716D02*
X65554Y-50716D01*
X65554Y-50716D02*
X65554Y-50775D01*
X65514Y-50775D02*
X65554Y-50775D01*
X65514Y-50716D02*
X65514Y-50775D01*
X64846Y-50225D02*
X64886Y-50225D01*
X64886Y-50225D02*
X64886Y-50696D01*
X64846Y-50696D02*
X64886Y-50696D01*
X64846Y-50225D02*
X64846Y-50696D01*
X64846Y-50716D02*
X64886Y-50716D01*
X64886Y-50716D02*
X64886Y-50775D01*
X64846Y-50775D02*
X64886Y-50775D01*
X64846Y-50716D02*
X64846Y-50775D01*
X65377Y-50225D02*
X65436Y-50225D01*
X65436Y-50225D02*
X65436Y-50323D01*
X65377Y-50323D02*
X65436Y-50323D01*
X65377Y-50225D02*
X65377Y-50323D01*
G54D16*
X65810Y-50205D02*
X64590Y-50205D01*
X64590Y-50205D02*
X64590Y-50795D01*
X64590Y-50795D02*
X65810Y-50795D01*
X65810Y-50795D02*
X65810Y-50205D01*
X65415Y-50305D02*
X65397Y-50287D01*
X65378Y-50271D01*
X65357Y-50256D01*
X65335Y-50243D01*
X65312Y-50232D01*
X65288Y-50223D01*
X65264Y-50217D01*
X65239Y-50212D01*
X65214Y-50210D01*
X65189Y-50210D01*
X65164Y-50212D01*
X65139Y-50216D01*
X65114Y-50223D01*
X65091Y-50231D01*
X65067Y-50242D01*
X65045Y-50254D01*
X65025Y-50269D01*
X65005Y-50285D01*
X64987Y-50303D01*
X64986Y-50304D01*
X64985Y-50305D02*
X64969Y-50325D01*
X64954Y-50345D01*
X64942Y-50367D01*
X64931Y-50391D01*
X64923Y-50414D01*
X64916Y-50439D01*
X64912Y-50464D01*
X64910Y-50489D01*
X64910Y-50514D01*
X64912Y-50539D01*
X64917Y-50564D01*
X64923Y-50588D01*
X64932Y-50612D01*
X64943Y-50635D01*
X64956Y-50657D01*
X64971Y-50678D01*
X64985Y-50695D01*
X64985Y-50695D02*
X65003Y-50713D01*
X65022Y-50729D01*
X65043Y-50744D01*
X65065Y-50757D01*
X65088Y-50768D01*
X65112Y-50777D01*
X65136Y-50783D01*
X65161Y-50788D01*
X65186Y-50790D01*
X65211Y-50790D01*
X65236Y-50788D01*
X65261Y-50784D01*
X65286Y-50777D01*
X65309Y-50769D01*
X65333Y-50758D01*
X65355Y-50746D01*
X65375Y-50731D01*
X65395Y-50715D01*
X65413Y-50697D01*
X65414Y-50696D01*
X65415Y-50695D02*
X65431Y-50675D01*
X65446Y-50655D01*
X65458Y-50633D01*
X65469Y-50609D01*
X65477Y-50586D01*
X65484Y-50561D01*
X65488Y-50536D01*
X65490Y-50511D01*
X65490Y-50486D01*
X65488Y-50461D01*
X65483Y-50436D01*
X65477Y-50412D01*
X65468Y-50388D01*
X65457Y-50365D01*
X65444Y-50343D01*
X65429Y-50322D01*
X65415Y-50305D01*
G54D17*
X67147Y-56148D02*
X66453Y-56148D01*
X67147Y-55852D02*
X66453Y-55852D01*
X67147Y-55852D02*
X67147Y-56148D01*
X66453Y-55852D02*
X66453Y-56148D01*
X70647Y-54548D02*
X69953Y-54548D01*
X70647Y-54252D02*
X69953Y-54252D01*
X70647Y-54252D02*
X70647Y-54548D01*
X69953Y-54252D02*
X69953Y-54548D01*
X66253Y-50352D02*
X66947Y-50352D01*
X66253Y-50648D02*
X66947Y-50648D01*
X66253Y-50648D02*
X66253Y-50352D01*
X66947Y-50648D02*
X66947Y-50352D01*
X64952Y-52147D02*
X64952Y-51453D01*
X65248Y-52147D02*
X65248Y-51453D01*
X65248Y-52147D02*
X64952Y-52147D01*
X65248Y-51453D02*
X64952Y-51453D01*
X63452Y-52847D02*
X63452Y-52153D01*
X63748Y-52847D02*
X63748Y-52153D01*
X63748Y-52847D02*
X63452Y-52847D01*
X63748Y-52153D02*
X63452Y-52153D01*
X63852Y-52847D02*
X63852Y-52153D01*
X64148Y-52847D02*
X64148Y-52153D01*
X64148Y-52847D02*
X63852Y-52847D01*
X64148Y-52153D02*
X63852Y-52153D01*
X66752Y-52147D02*
X66752Y-51453D01*
X67048Y-52147D02*
X67048Y-51453D01*
X67048Y-52147D02*
X66752Y-52147D01*
X67048Y-51453D02*
X66752Y-51453D01*
X66252Y-52147D02*
X66252Y-51453D01*
X66548Y-52147D02*
X66548Y-51453D01*
X66548Y-52147D02*
X66252Y-52147D01*
X66548Y-51453D02*
X66252Y-51453D01*
X64148Y-50653D02*
X64148Y-51347D01*
X63852Y-50653D02*
X63852Y-51347D01*
X63852Y-50653D02*
X64148Y-50653D01*
X63852Y-51347D02*
X64148Y-51347D01*
X63748Y-50653D02*
X63748Y-51347D01*
X63452Y-50653D02*
X63452Y-51347D01*
X63452Y-50653D02*
X63748Y-50653D01*
X63452Y-51347D02*
X63748Y-51347D01*
G54D10*
X71880Y-50410D02*
X71430Y-50410D01*
X71880Y-52590D02*
X71440Y-52590D01*
X71880Y-50410D02*
X71880Y-52590D01*
X71000Y-49940D02*
X71000Y-49510D01*
X68790Y-49930D02*
X68790Y-49510D01*
X68780Y-49510D02*
X71000Y-49500D01*
X68800Y-53480D02*
X70970Y-53490D01*
X68370Y-52790D02*
X68370Y-49960D01*
X70980Y-53480D02*
X70980Y-53070D01*
X68620Y-53030D02*
X71400Y-53030D01*
X71420Y-49950D02*
X71420Y-52990D01*
X68370Y-49950D02*
X71370Y-49950D01*
X67920Y-52620D02*
X67920Y-50400D01*
X67920Y-50400D02*
X68370Y-50400D01*
X68374Y-52800D02*
X68604Y-53030D01*
X67922Y-52620D02*
X68374Y-52620D01*
X68800Y-53030D02*
X68800Y-53482D01*
X68970Y-52626D02*
X68966Y-52662D01*
X68955Y-52697D01*
X68938Y-52730D01*
X68915Y-52758D01*
X68887Y-52781D01*
X68854Y-52799D01*
X68819Y-52810D01*
X68783Y-52813D01*
X68747Y-52810D01*
X68712Y-52800D01*
X68680Y-52783D01*
X68651Y-52760D01*
X68627Y-52732D01*
X68610Y-52700D01*
X68599Y-52665D01*
X68595Y-52628D01*
X68598Y-52593D01*
X68608Y-52557D01*
X68624Y-52525D01*
X68647Y-52496D01*
X68675Y-52472D01*
X68707Y-52454D01*
X68742Y-52443D01*
X68779Y-52439D01*
X68814Y-52441D01*
X68849Y-52451D01*
X68882Y-52468D01*
X68911Y-52490D01*
X68935Y-52518D01*
X68953Y-52550D01*
X68965Y-52585D01*
X68969Y-52621D01*
X68970Y-52626D01*
G54D15*
X53061Y-53461D02*
X53139Y-53461D01*
X53139Y-53461D02*
X53139Y-53539D01*
X53061Y-53539D02*
X53139Y-53539D01*
X53061Y-53461D02*
X53061Y-53539D01*
X53277Y-53225D02*
X53414Y-53225D01*
X53414Y-53225D02*
X53414Y-53323D01*
X53277Y-53323D02*
X53414Y-53323D01*
X53277Y-53225D02*
X53277Y-53323D01*
X53414Y-53225D02*
X53454Y-53225D01*
X53454Y-53225D02*
X53454Y-53696D01*
X53414Y-53696D02*
X53454Y-53696D01*
X53414Y-53225D02*
X53414Y-53696D01*
X53414Y-53716D02*
X53454Y-53716D01*
X53454Y-53716D02*
X53454Y-53775D01*
X53414Y-53775D02*
X53454Y-53775D01*
X53414Y-53716D02*
X53414Y-53775D01*
X52746Y-53225D02*
X52786Y-53225D01*
X52786Y-53225D02*
X52786Y-53696D01*
X52746Y-53696D02*
X52786Y-53696D01*
X52746Y-53225D02*
X52746Y-53696D01*
X52746Y-53716D02*
X52786Y-53716D01*
X52786Y-53716D02*
X52786Y-53775D01*
X52746Y-53775D02*
X52786Y-53775D01*
X52746Y-53716D02*
X52746Y-53775D01*
X53277Y-53225D02*
X53336Y-53225D01*
X53336Y-53225D02*
X53336Y-53323D01*
X53277Y-53323D02*
X53336Y-53323D01*
X53277Y-53225D02*
X53277Y-53323D01*
G54D16*
X53710Y-53205D02*
X52490Y-53205D01*
X52490Y-53205D02*
X52490Y-53795D01*
X52490Y-53795D02*
X53710Y-53795D01*
X53710Y-53795D02*
X53710Y-53205D01*
X53315Y-53305D02*
X53297Y-53287D01*
X53278Y-53271D01*
X53257Y-53256D01*
X53235Y-53243D01*
X53212Y-53232D01*
X53188Y-53223D01*
X53164Y-53217D01*
X53139Y-53212D01*
X53114Y-53210D01*
X53089Y-53210D01*
X53064Y-53212D01*
X53039Y-53216D01*
X53014Y-53223D01*
X52991Y-53231D01*
X52967Y-53242D01*
X52945Y-53254D01*
X52925Y-53269D01*
X52905Y-53285D01*
X52887Y-53303D01*
X52886Y-53304D01*
X52885Y-53305D02*
X52869Y-53325D01*
X52854Y-53345D01*
X52842Y-53367D01*
X52831Y-53391D01*
X52823Y-53414D01*
X52816Y-53439D01*
X52812Y-53464D01*
X52810Y-53489D01*
X52810Y-53514D01*
X52812Y-53539D01*
X52817Y-53564D01*
X52823Y-53588D01*
X52832Y-53612D01*
X52843Y-53635D01*
X52856Y-53657D01*
X52871Y-53678D01*
X52885Y-53695D01*
X52885Y-53695D02*
X52903Y-53713D01*
X52922Y-53729D01*
X52943Y-53744D01*
X52965Y-53757D01*
X52988Y-53768D01*
X53012Y-53777D01*
X53036Y-53783D01*
X53061Y-53788D01*
X53086Y-53790D01*
X53111Y-53790D01*
X53136Y-53788D01*
X53161Y-53784D01*
X53186Y-53777D01*
X53209Y-53769D01*
X53233Y-53758D01*
X53255Y-53746D01*
X53275Y-53731D01*
X53295Y-53715D01*
X53313Y-53697D01*
X53314Y-53696D01*
X53315Y-53695D02*
X53331Y-53675D01*
X53346Y-53655D01*
X53358Y-53633D01*
X53369Y-53609D01*
X53377Y-53586D01*
X53384Y-53561D01*
X53388Y-53536D01*
X53390Y-53511D01*
X53390Y-53486D01*
X53388Y-53461D01*
X53383Y-53436D01*
X53377Y-53412D01*
X53368Y-53388D01*
X53357Y-53365D01*
X53344Y-53343D01*
X53329Y-53322D01*
X53315Y-53305D01*
G54D15*
X53061Y-52461D02*
X53139Y-52461D01*
X53139Y-52461D02*
X53139Y-52539D01*
X53061Y-52539D02*
X53139Y-52539D01*
X53061Y-52461D02*
X53061Y-52539D01*
X53277Y-52225D02*
X53414Y-52225D01*
X53414Y-52225D02*
X53414Y-52323D01*
X53277Y-52323D02*
X53414Y-52323D01*
X53277Y-52225D02*
X53277Y-52323D01*
X53414Y-52225D02*
X53454Y-52225D01*
X53454Y-52225D02*
X53454Y-52696D01*
X53414Y-52696D02*
X53454Y-52696D01*
X53414Y-52225D02*
X53414Y-52696D01*
X53414Y-52716D02*
X53454Y-52716D01*
X53454Y-52716D02*
X53454Y-52775D01*
X53414Y-52775D02*
X53454Y-52775D01*
X53414Y-52716D02*
X53414Y-52775D01*
X52746Y-52225D02*
X52786Y-52225D01*
X52786Y-52225D02*
X52786Y-52696D01*
X52746Y-52696D02*
X52786Y-52696D01*
X52746Y-52225D02*
X52746Y-52696D01*
X52746Y-52716D02*
X52786Y-52716D01*
X52786Y-52716D02*
X52786Y-52775D01*
X52746Y-52775D02*
X52786Y-52775D01*
X52746Y-52716D02*
X52746Y-52775D01*
X53277Y-52225D02*
X53336Y-52225D01*
X53336Y-52225D02*
X53336Y-52323D01*
X53277Y-52323D02*
X53336Y-52323D01*
X53277Y-52225D02*
X53277Y-52323D01*
G54D16*
X53710Y-52205D02*
X52490Y-52205D01*
X52490Y-52205D02*
X52490Y-52795D01*
X52490Y-52795D02*
X53710Y-52795D01*
X53710Y-52795D02*
X53710Y-52205D01*
X53315Y-52305D02*
X53297Y-52287D01*
X53278Y-52271D01*
X53257Y-52256D01*
X53235Y-52243D01*
X53212Y-52232D01*
X53188Y-52223D01*
X53164Y-52217D01*
X53139Y-52212D01*
X53114Y-52210D01*
X53089Y-52210D01*
X53064Y-52212D01*
X53039Y-52216D01*
X53014Y-52223D01*
X52991Y-52231D01*
X52967Y-52242D01*
X52945Y-52254D01*
X52925Y-52269D01*
X52905Y-52285D01*
X52887Y-52303D01*
X52886Y-52304D01*
X52885Y-52305D02*
X52869Y-52325D01*
X52854Y-52345D01*
X52842Y-52367D01*
X52831Y-52391D01*
X52823Y-52414D01*
X52816Y-52439D01*
X52812Y-52464D01*
X52810Y-52489D01*
X52810Y-52514D01*
X52812Y-52539D01*
X52817Y-52564D01*
X52823Y-52588D01*
X52832Y-52612D01*
X52843Y-52635D01*
X52856Y-52657D01*
X52871Y-52678D01*
X52885Y-52695D01*
X52885Y-52695D02*
X52903Y-52713D01*
X52922Y-52729D01*
X52943Y-52744D01*
X52965Y-52757D01*
X52988Y-52768D01*
X53012Y-52777D01*
X53036Y-52783D01*
X53061Y-52788D01*
X53086Y-52790D01*
X53111Y-52790D01*
X53136Y-52788D01*
X53161Y-52784D01*
X53186Y-52777D01*
X53209Y-52769D01*
X53233Y-52758D01*
X53255Y-52746D01*
X53275Y-52731D01*
X53295Y-52715D01*
X53313Y-52697D01*
X53314Y-52696D01*
X53315Y-52695D02*
X53331Y-52675D01*
X53346Y-52655D01*
X53358Y-52633D01*
X53369Y-52609D01*
X53377Y-52586D01*
X53384Y-52561D01*
X53388Y-52536D01*
X53390Y-52511D01*
X53390Y-52486D01*
X53388Y-52461D01*
X53383Y-52436D01*
X53377Y-52412D01*
X53368Y-52388D01*
X53357Y-52365D01*
X53344Y-52343D01*
X53329Y-52322D01*
X53315Y-52305D01*
G54D15*
X53061Y-51461D02*
X53139Y-51461D01*
X53139Y-51461D02*
X53139Y-51539D01*
X53061Y-51539D02*
X53139Y-51539D01*
X53061Y-51461D02*
X53061Y-51539D01*
X53277Y-51225D02*
X53414Y-51225D01*
X53414Y-51225D02*
X53414Y-51323D01*
X53277Y-51323D02*
X53414Y-51323D01*
X53277Y-51225D02*
X53277Y-51323D01*
X53414Y-51225D02*
X53454Y-51225D01*
X53454Y-51225D02*
X53454Y-51696D01*
X53414Y-51696D02*
X53454Y-51696D01*
X53414Y-51225D02*
X53414Y-51696D01*
X53414Y-51716D02*
X53454Y-51716D01*
X53454Y-51716D02*
X53454Y-51775D01*
X53414Y-51775D02*
X53454Y-51775D01*
X53414Y-51716D02*
X53414Y-51775D01*
X52746Y-51225D02*
X52786Y-51225D01*
X52786Y-51225D02*
X52786Y-51696D01*
X52746Y-51696D02*
X52786Y-51696D01*
X52746Y-51225D02*
X52746Y-51696D01*
X52746Y-51716D02*
X52786Y-51716D01*
X52786Y-51716D02*
X52786Y-51775D01*
X52746Y-51775D02*
X52786Y-51775D01*
X52746Y-51716D02*
X52746Y-51775D01*
X53277Y-51225D02*
X53336Y-51225D01*
X53336Y-51225D02*
X53336Y-51323D01*
X53277Y-51323D02*
X53336Y-51323D01*
X53277Y-51225D02*
X53277Y-51323D01*
G54D16*
X53710Y-51205D02*
X52490Y-51205D01*
X52490Y-51205D02*
X52490Y-51795D01*
X52490Y-51795D02*
X53710Y-51795D01*
X53710Y-51795D02*
X53710Y-51205D01*
X53315Y-51305D02*
X53297Y-51287D01*
X53278Y-51271D01*
X53257Y-51256D01*
X53235Y-51243D01*
X53212Y-51232D01*
X53188Y-51223D01*
X53164Y-51217D01*
X53139Y-51212D01*
X53114Y-51210D01*
X53089Y-51210D01*
X53064Y-51212D01*
X53039Y-51216D01*
X53014Y-51223D01*
X52991Y-51231D01*
X52967Y-51242D01*
X52945Y-51254D01*
X52925Y-51269D01*
X52905Y-51285D01*
X52887Y-51303D01*
X52886Y-51304D01*
X52885Y-51305D02*
X52869Y-51325D01*
X52854Y-51345D01*
X52842Y-51367D01*
X52831Y-51391D01*
X52823Y-51414D01*
X52816Y-51439D01*
X52812Y-51464D01*
X52810Y-51489D01*
X52810Y-51514D01*
X52812Y-51539D01*
X52817Y-51564D01*
X52823Y-51588D01*
X52832Y-51612D01*
X52843Y-51635D01*
X52856Y-51657D01*
X52871Y-51678D01*
X52885Y-51695D01*
X52885Y-51695D02*
X52903Y-51713D01*
X52922Y-51729D01*
X52943Y-51744D01*
X52965Y-51757D01*
X52988Y-51768D01*
X53012Y-51777D01*
X53036Y-51783D01*
X53061Y-51788D01*
X53086Y-51790D01*
X53111Y-51790D01*
X53136Y-51788D01*
X53161Y-51784D01*
X53186Y-51777D01*
X53209Y-51769D01*
X53233Y-51758D01*
X53255Y-51746D01*
X53275Y-51731D01*
X53295Y-51715D01*
X53313Y-51697D01*
X53314Y-51696D01*
X53315Y-51695D02*
X53331Y-51675D01*
X53346Y-51655D01*
X53358Y-51633D01*
X53369Y-51609D01*
X53377Y-51586D01*
X53384Y-51561D01*
X53388Y-51536D01*
X53390Y-51511D01*
X53390Y-51486D01*
X53388Y-51461D01*
X53383Y-51436D01*
X53377Y-51412D01*
X53368Y-51388D01*
X53357Y-51365D01*
X53344Y-51343D01*
X53329Y-51322D01*
X53315Y-51305D01*
G54D15*
X53061Y-50461D02*
X53139Y-50461D01*
X53139Y-50461D02*
X53139Y-50539D01*
X53061Y-50539D02*
X53139Y-50539D01*
X53061Y-50461D02*
X53061Y-50539D01*
X53277Y-50225D02*
X53414Y-50225D01*
X53414Y-50225D02*
X53414Y-50323D01*
X53277Y-50323D02*
X53414Y-50323D01*
X53277Y-50225D02*
X53277Y-50323D01*
X53414Y-50225D02*
X53454Y-50225D01*
X53454Y-50225D02*
X53454Y-50696D01*
X53414Y-50696D02*
X53454Y-50696D01*
X53414Y-50225D02*
X53414Y-50696D01*
X53414Y-50716D02*
X53454Y-50716D01*
X53454Y-50716D02*
X53454Y-50775D01*
X53414Y-50775D02*
X53454Y-50775D01*
X53414Y-50716D02*
X53414Y-50775D01*
X52746Y-50225D02*
X52786Y-50225D01*
X52786Y-50225D02*
X52786Y-50696D01*
X52746Y-50696D02*
X52786Y-50696D01*
X52746Y-50225D02*
X52746Y-50696D01*
X52746Y-50716D02*
X52786Y-50716D01*
X52786Y-50716D02*
X52786Y-50775D01*
X52746Y-50775D02*
X52786Y-50775D01*
X52746Y-50716D02*
X52746Y-50775D01*
X53277Y-50225D02*
X53336Y-50225D01*
X53336Y-50225D02*
X53336Y-50323D01*
X53277Y-50323D02*
X53336Y-50323D01*
X53277Y-50225D02*
X53277Y-50323D01*
G54D16*
X53710Y-50205D02*
X52490Y-50205D01*
X52490Y-50205D02*
X52490Y-50795D01*
X52490Y-50795D02*
X53710Y-50795D01*
X53710Y-50795D02*
X53710Y-50205D01*
X53315Y-50305D02*
X53297Y-50287D01*
X53278Y-50271D01*
X53257Y-50256D01*
X53235Y-50243D01*
X53212Y-50232D01*
X53188Y-50223D01*
X53164Y-50217D01*
X53139Y-50212D01*
X53114Y-50210D01*
X53089Y-50210D01*
X53064Y-50212D01*
X53039Y-50216D01*
X53014Y-50223D01*
X52991Y-50231D01*
X52967Y-50242D01*
X52945Y-50254D01*
X52925Y-50269D01*
X52905Y-50285D01*
X52887Y-50303D01*
X52886Y-50304D01*
X52885Y-50305D02*
X52869Y-50325D01*
X52854Y-50345D01*
X52842Y-50367D01*
X52831Y-50391D01*
X52823Y-50414D01*
X52816Y-50439D01*
X52812Y-50464D01*
X52810Y-50489D01*
X52810Y-50514D01*
X52812Y-50539D01*
X52817Y-50564D01*
X52823Y-50588D01*
X52832Y-50612D01*
X52843Y-50635D01*
X52856Y-50657D01*
X52871Y-50678D01*
X52885Y-50695D01*
X52885Y-50695D02*
X52903Y-50713D01*
X52922Y-50729D01*
X52943Y-50744D01*
X52965Y-50757D01*
X52988Y-50768D01*
X53012Y-50777D01*
X53036Y-50783D01*
X53061Y-50788D01*
X53086Y-50790D01*
X53111Y-50790D01*
X53136Y-50788D01*
X53161Y-50784D01*
X53186Y-50777D01*
X53209Y-50769D01*
X53233Y-50758D01*
X53255Y-50746D01*
X53275Y-50731D01*
X53295Y-50715D01*
X53313Y-50697D01*
X53314Y-50696D01*
X53315Y-50695D02*
X53331Y-50675D01*
X53346Y-50655D01*
X53358Y-50633D01*
X53369Y-50609D01*
X53377Y-50586D01*
X53384Y-50561D01*
X53388Y-50536D01*
X53390Y-50511D01*
X53390Y-50486D01*
X53388Y-50461D01*
X53383Y-50436D01*
X53377Y-50412D01*
X53368Y-50388D01*
X53357Y-50365D01*
X53344Y-50343D01*
X53329Y-50322D01*
X53315Y-50305D01*
G54D15*
X44761Y-50461D02*
X44839Y-50461D01*
X44839Y-50461D02*
X44839Y-50539D01*
X44761Y-50539D02*
X44839Y-50539D01*
X44761Y-50461D02*
X44761Y-50539D01*
X44977Y-50225D02*
X45114Y-50225D01*
X45114Y-50225D02*
X45114Y-50323D01*
X44977Y-50323D02*
X45114Y-50323D01*
X44977Y-50225D02*
X44977Y-50323D01*
X45114Y-50225D02*
X45154Y-50225D01*
X45154Y-50225D02*
X45154Y-50696D01*
X45114Y-50696D02*
X45154Y-50696D01*
X45114Y-50225D02*
X45114Y-50696D01*
X45114Y-50716D02*
X45154Y-50716D01*
X45154Y-50716D02*
X45154Y-50775D01*
X45114Y-50775D02*
X45154Y-50775D01*
X45114Y-50716D02*
X45114Y-50775D01*
X44446Y-50225D02*
X44486Y-50225D01*
X44486Y-50225D02*
X44486Y-50696D01*
X44446Y-50696D02*
X44486Y-50696D01*
X44446Y-50225D02*
X44446Y-50696D01*
X44446Y-50716D02*
X44486Y-50716D01*
X44486Y-50716D02*
X44486Y-50775D01*
X44446Y-50775D02*
X44486Y-50775D01*
X44446Y-50716D02*
X44446Y-50775D01*
X44977Y-50225D02*
X45036Y-50225D01*
X45036Y-50225D02*
X45036Y-50323D01*
X44977Y-50323D02*
X45036Y-50323D01*
X44977Y-50225D02*
X44977Y-50323D01*
G54D16*
X45410Y-50205D02*
X44190Y-50205D01*
X44190Y-50205D02*
X44190Y-50795D01*
X44190Y-50795D02*
X45410Y-50795D01*
X45410Y-50795D02*
X45410Y-50205D01*
X45015Y-50305D02*
X44997Y-50287D01*
X44978Y-50271D01*
X44957Y-50256D01*
X44935Y-50243D01*
X44912Y-50232D01*
X44888Y-50223D01*
X44864Y-50217D01*
X44839Y-50212D01*
X44814Y-50210D01*
X44789Y-50210D01*
X44764Y-50212D01*
X44739Y-50216D01*
X44714Y-50223D01*
X44691Y-50231D01*
X44667Y-50242D01*
X44645Y-50254D01*
X44625Y-50269D01*
X44605Y-50285D01*
X44587Y-50303D01*
X44586Y-50304D01*
X44585Y-50305D02*
X44569Y-50325D01*
X44554Y-50345D01*
X44542Y-50367D01*
X44531Y-50391D01*
X44523Y-50414D01*
X44516Y-50439D01*
X44512Y-50464D01*
X44510Y-50489D01*
X44510Y-50514D01*
X44512Y-50539D01*
X44517Y-50564D01*
X44523Y-50588D01*
X44532Y-50612D01*
X44543Y-50635D01*
X44556Y-50657D01*
X44571Y-50678D01*
X44585Y-50695D01*
X44585Y-50695D02*
X44603Y-50713D01*
X44622Y-50729D01*
X44643Y-50744D01*
X44665Y-50757D01*
X44688Y-50768D01*
X44712Y-50777D01*
X44736Y-50783D01*
X44761Y-50788D01*
X44786Y-50790D01*
X44811Y-50790D01*
X44836Y-50788D01*
X44861Y-50784D01*
X44886Y-50777D01*
X44909Y-50769D01*
X44933Y-50758D01*
X44955Y-50746D01*
X44975Y-50731D01*
X44995Y-50715D01*
X45013Y-50697D01*
X45014Y-50696D01*
X45015Y-50695D02*
X45031Y-50675D01*
X45046Y-50655D01*
X45058Y-50633D01*
X45069Y-50609D01*
X45077Y-50586D01*
X45084Y-50561D01*
X45088Y-50536D01*
X45090Y-50511D01*
X45090Y-50486D01*
X45088Y-50461D01*
X45083Y-50436D01*
X45077Y-50412D01*
X45068Y-50388D01*
X45057Y-50365D01*
X45044Y-50343D01*
X45029Y-50322D01*
X45015Y-50305D01*
G54D17*
X46747Y-56148D02*
X46053Y-56148D01*
X46747Y-55852D02*
X46053Y-55852D01*
X46747Y-55852D02*
X46747Y-56148D01*
X46053Y-55852D02*
X46053Y-56148D01*
X50247Y-54548D02*
X49553Y-54548D01*
X50247Y-54252D02*
X49553Y-54252D01*
X50247Y-54252D02*
X50247Y-54548D01*
X49553Y-54252D02*
X49553Y-54548D01*
X45853Y-50352D02*
X46547Y-50352D01*
X45853Y-50648D02*
X46547Y-50648D01*
X45853Y-50648D02*
X45853Y-50352D01*
X46547Y-50648D02*
X46547Y-50352D01*
X44552Y-52147D02*
X44552Y-51453D01*
X44848Y-52147D02*
X44848Y-51453D01*
X44848Y-52147D02*
X44552Y-52147D01*
X44848Y-51453D02*
X44552Y-51453D01*
X43052Y-52847D02*
X43052Y-52153D01*
X43348Y-52847D02*
X43348Y-52153D01*
X43348Y-52847D02*
X43052Y-52847D01*
X43348Y-52153D02*
X43052Y-52153D01*
X43452Y-52847D02*
X43452Y-52153D01*
X43748Y-52847D02*
X43748Y-52153D01*
X43748Y-52847D02*
X43452Y-52847D01*
X43748Y-52153D02*
X43452Y-52153D01*
X46352Y-52147D02*
X46352Y-51453D01*
X46648Y-52147D02*
X46648Y-51453D01*
X46648Y-52147D02*
X46352Y-52147D01*
X46648Y-51453D02*
X46352Y-51453D01*
X45852Y-52147D02*
X45852Y-51453D01*
X46148Y-52147D02*
X46148Y-51453D01*
X46148Y-52147D02*
X45852Y-52147D01*
X46148Y-51453D02*
X45852Y-51453D01*
X43748Y-50653D02*
X43748Y-51347D01*
X43452Y-50653D02*
X43452Y-51347D01*
X43452Y-50653D02*
X43748Y-50653D01*
X43452Y-51347D02*
X43748Y-51347D01*
X43348Y-50653D02*
X43348Y-51347D01*
X43052Y-50653D02*
X43052Y-51347D01*
X43052Y-50653D02*
X43348Y-50653D01*
X43052Y-51347D02*
X43348Y-51347D01*
G54D10*
X51480Y-50410D02*
X51030Y-50410D01*
X51480Y-52590D02*
X51040Y-52590D01*
X51480Y-50410D02*
X51480Y-52590D01*
X50600Y-49940D02*
X50600Y-49510D01*
X48390Y-49930D02*
X48390Y-49510D01*
X48380Y-49510D02*
X50600Y-49500D01*
X48400Y-53480D02*
X50570Y-53490D01*
X47970Y-52790D02*
X47970Y-49960D01*
X50580Y-53480D02*
X50580Y-53070D01*
X48220Y-53030D02*
X51000Y-53030D01*
X51020Y-49950D02*
X51020Y-52990D01*
X47970Y-49950D02*
X50970Y-49950D01*
X47520Y-52620D02*
X47520Y-50400D01*
X47520Y-50400D02*
X47970Y-50400D01*
X47974Y-52800D02*
X48204Y-53030D01*
X47522Y-52620D02*
X47974Y-52620D01*
X48400Y-53030D02*
X48400Y-53482D01*
X48570Y-52626D02*
X48566Y-52662D01*
X48555Y-52697D01*
X48538Y-52730D01*
X48515Y-52758D01*
X48487Y-52781D01*
X48454Y-52799D01*
X48419Y-52810D01*
X48383Y-52813D01*
X48347Y-52810D01*
X48312Y-52800D01*
X48280Y-52783D01*
X48251Y-52760D01*
X48227Y-52732D01*
X48210Y-52700D01*
X48199Y-52665D01*
X48195Y-52628D01*
X48198Y-52593D01*
X48208Y-52557D01*
X48224Y-52525D01*
X48247Y-52496D01*
X48275Y-52472D01*
X48307Y-52454D01*
X48342Y-52443D01*
X48379Y-52439D01*
X48414Y-52441D01*
X48449Y-52451D01*
X48482Y-52468D01*
X48511Y-52490D01*
X48535Y-52518D01*
X48553Y-52550D01*
X48565Y-52585D01*
X48569Y-52621D01*
X48570Y-52626D01*
G54D18*
X41593Y-18121D02*
X41593Y-17821D01*
X41478Y-17821D01*
X41450Y-17836D01*
X41435Y-17850D01*
X41421Y-17879D01*
X41421Y-17921D01*
X41435Y-17950D01*
X41450Y-17964D01*
X41478Y-17979D01*
X41593Y-17979D01*
X41307Y-18107D02*
X41264Y-18121D01*
X41193Y-18121D01*
X41164Y-18107D01*
X41150Y-18093D01*
X41135Y-18064D01*
X41135Y-18036D01*
X41150Y-18007D01*
X41164Y-17993D01*
X41193Y-17979D01*
X41250Y-17964D01*
X41278Y-17950D01*
X41293Y-17936D01*
X41307Y-17907D01*
X41307Y-17879D01*
X41293Y-17850D01*
X41278Y-17836D01*
X41250Y-17821D01*
X41178Y-17821D01*
X41135Y-17836D01*
X40949Y-17821D02*
X40892Y-17821D01*
X40864Y-17836D01*
X40835Y-17864D01*
X40821Y-17921D01*
X40821Y-18021D01*
X40835Y-18079D01*
X40864Y-18107D01*
X40892Y-18121D01*
X40949Y-18121D01*
X40978Y-18107D01*
X41007Y-18079D01*
X41021Y-18021D01*
X41021Y-17921D01*
X41007Y-17864D01*
X40978Y-17836D01*
X40949Y-17821D01*
X40693Y-17821D02*
X40693Y-18064D01*
X40678Y-18093D01*
X40664Y-18107D01*
X40635Y-18121D01*
X40578Y-18121D01*
X40550Y-18107D01*
X40535Y-18093D01*
X40521Y-18064D01*
X40521Y-17821D01*
X40421Y-17821D02*
X40250Y-17821D01*
X40336Y-18121D02*
X40336Y-17821D01*
X39992Y-18121D02*
X40164Y-18121D01*
X40078Y-18121D02*
X40078Y-17821D01*
X40107Y-17864D01*
X40135Y-17893D01*
X40164Y-17907D01*
G54D13*
X28261Y-33301D02*
X28344Y-33182D01*
X28403Y-33301D02*
X28403Y-33051D01*
X28308Y-33051D01*
X28284Y-33063D01*
X28273Y-33075D01*
X28261Y-33099D01*
X28261Y-33135D01*
X28273Y-33158D01*
X28284Y-33170D01*
X28308Y-33182D01*
X28403Y-33182D01*
X28023Y-33301D02*
X28165Y-33301D01*
X28094Y-33301D02*
X28094Y-33051D01*
X28118Y-33087D01*
X28142Y-33111D01*
X28165Y-33123D01*
X27868Y-33051D02*
X27844Y-33051D01*
X27820Y-33063D01*
X27808Y-33075D01*
X27796Y-33099D01*
X27785Y-33146D01*
X27785Y-33206D01*
X27796Y-33254D01*
X27808Y-33277D01*
X27820Y-33289D01*
X27844Y-33301D01*
X27868Y-33301D01*
X27892Y-33289D01*
X27904Y-33277D01*
X27915Y-33254D01*
X27927Y-33206D01*
X27927Y-33146D01*
X27915Y-33099D01*
X27904Y-33075D01*
X27892Y-33063D01*
X27868Y-33051D01*
X37542Y-19301D02*
X37625Y-19182D01*
X37684Y-19301D02*
X37684Y-19051D01*
X37589Y-19051D01*
X37565Y-19063D01*
X37554Y-19075D01*
X37542Y-19099D01*
X37542Y-19135D01*
X37554Y-19158D01*
X37565Y-19170D01*
X37589Y-19182D01*
X37684Y-19182D01*
X37423Y-19301D02*
X37375Y-19301D01*
X37351Y-19289D01*
X37339Y-19277D01*
X37315Y-19242D01*
X37304Y-19194D01*
X37304Y-19099D01*
X37315Y-19075D01*
X37327Y-19063D01*
X37351Y-19051D01*
X37399Y-19051D01*
X37423Y-19063D01*
X37434Y-19075D01*
X37446Y-19099D01*
X37446Y-19158D01*
X37434Y-19182D01*
X37423Y-19194D01*
X37399Y-19206D01*
X37351Y-19206D01*
X37327Y-19194D01*
X37315Y-19182D01*
X37304Y-19158D01*
X37542Y-20401D02*
X37625Y-20282D01*
X37684Y-20401D02*
X37684Y-20151D01*
X37589Y-20151D01*
X37565Y-20163D01*
X37554Y-20175D01*
X37542Y-20199D01*
X37542Y-20235D01*
X37554Y-20258D01*
X37565Y-20270D01*
X37589Y-20282D01*
X37684Y-20282D01*
X37399Y-20258D02*
X37423Y-20246D01*
X37434Y-20235D01*
X37446Y-20211D01*
X37446Y-20199D01*
X37434Y-20175D01*
X37423Y-20163D01*
X37399Y-20151D01*
X37351Y-20151D01*
X37327Y-20163D01*
X37315Y-20175D01*
X37304Y-20199D01*
X37304Y-20211D01*
X37315Y-20235D01*
X37327Y-20246D01*
X37351Y-20258D01*
X37399Y-20258D01*
X37423Y-20270D01*
X37434Y-20282D01*
X37446Y-20306D01*
X37446Y-20354D01*
X37434Y-20377D01*
X37423Y-20389D01*
X37399Y-20401D01*
X37351Y-20401D01*
X37327Y-20389D01*
X37315Y-20377D01*
X37304Y-20354D01*
X37304Y-20306D01*
X37315Y-20282D01*
X37327Y-20270D01*
X37351Y-20258D01*
X37542Y-21401D02*
X37625Y-21282D01*
X37684Y-21401D02*
X37684Y-21151D01*
X37589Y-21151D01*
X37565Y-21163D01*
X37554Y-21175D01*
X37542Y-21199D01*
X37542Y-21235D01*
X37554Y-21258D01*
X37565Y-21270D01*
X37589Y-21282D01*
X37684Y-21282D01*
X37458Y-21151D02*
X37292Y-21151D01*
X37399Y-21401D01*
X37542Y-22301D02*
X37625Y-22182D01*
X37684Y-22301D02*
X37684Y-22051D01*
X37589Y-22051D01*
X37565Y-22063D01*
X37554Y-22075D01*
X37542Y-22099D01*
X37542Y-22135D01*
X37554Y-22158D01*
X37565Y-22170D01*
X37589Y-22182D01*
X37684Y-22182D01*
X37327Y-22051D02*
X37375Y-22051D01*
X37399Y-22063D01*
X37411Y-22075D01*
X37434Y-22111D01*
X37446Y-22158D01*
X37446Y-22254D01*
X37434Y-22277D01*
X37423Y-22289D01*
X37399Y-22301D01*
X37351Y-22301D01*
X37327Y-22289D01*
X37315Y-22277D01*
X37304Y-22254D01*
X37304Y-22194D01*
X37315Y-22170D01*
X37327Y-22158D01*
X37351Y-22146D01*
X37399Y-22146D01*
X37423Y-22158D01*
X37434Y-22170D01*
X37446Y-22194D01*
X40201Y-22758D02*
X40082Y-22675D01*
X40201Y-22616D02*
X39951Y-22616D01*
X39951Y-22711D01*
X39963Y-22735D01*
X39975Y-22746D01*
X39999Y-22758D01*
X40035Y-22758D01*
X40058Y-22746D01*
X40070Y-22735D01*
X40082Y-22711D01*
X40082Y-22616D01*
X39951Y-22985D02*
X39951Y-22866D01*
X40070Y-22854D01*
X40058Y-22866D01*
X40046Y-22889D01*
X40046Y-22949D01*
X40058Y-22973D01*
X40070Y-22985D01*
X40094Y-22996D01*
X40154Y-22996D01*
X40177Y-22985D01*
X40189Y-22973D01*
X40201Y-22949D01*
X40201Y-22889D01*
X40189Y-22866D01*
X40177Y-22854D01*
X41601Y-39858D02*
X41482Y-39775D01*
X41601Y-39716D02*
X41351Y-39716D01*
X41351Y-39811D01*
X41363Y-39835D01*
X41375Y-39846D01*
X41399Y-39858D01*
X41435Y-39858D01*
X41458Y-39846D01*
X41470Y-39835D01*
X41482Y-39811D01*
X41482Y-39716D01*
X41435Y-40073D02*
X41601Y-40073D01*
X41339Y-40013D02*
X41518Y-39954D01*
X41518Y-40108D01*
X34601Y-39958D02*
X34482Y-39875D01*
X34601Y-39816D02*
X34351Y-39816D01*
X34351Y-39911D01*
X34363Y-39935D01*
X34375Y-39946D01*
X34399Y-39958D01*
X34435Y-39958D01*
X34458Y-39946D01*
X34470Y-39935D01*
X34482Y-39911D01*
X34482Y-39816D01*
X34351Y-40042D02*
X34351Y-40196D01*
X34446Y-40113D01*
X34446Y-40149D01*
X34458Y-40173D01*
X34470Y-40185D01*
X34494Y-40196D01*
X34554Y-40196D01*
X34577Y-40185D01*
X34589Y-40173D01*
X34601Y-40149D01*
X34601Y-40077D01*
X34589Y-40054D01*
X34577Y-40042D01*
X22642Y-30577D02*
X22654Y-30589D01*
X22689Y-30601D01*
X22713Y-30601D01*
X22749Y-30589D01*
X22773Y-30565D01*
X22784Y-30542D01*
X22796Y-30494D01*
X22796Y-30458D01*
X22784Y-30411D01*
X22773Y-30387D01*
X22749Y-30363D01*
X22713Y-30351D01*
X22689Y-30351D01*
X22654Y-30363D01*
X22642Y-30375D01*
X22523Y-30601D02*
X22475Y-30601D01*
X22451Y-30589D01*
X22439Y-30577D01*
X22415Y-30542D01*
X22404Y-30494D01*
X22404Y-30399D01*
X22415Y-30375D01*
X22427Y-30363D01*
X22451Y-30351D01*
X22499Y-30351D01*
X22523Y-30363D01*
X22534Y-30375D01*
X22546Y-30399D01*
X22546Y-30458D01*
X22534Y-30482D01*
X22523Y-30494D01*
X22499Y-30506D01*
X22451Y-30506D01*
X22427Y-30494D01*
X22415Y-30482D01*
X22404Y-30458D01*
X34561Y-25077D02*
X34573Y-25089D01*
X34608Y-25101D01*
X34632Y-25101D01*
X34668Y-25089D01*
X34692Y-25065D01*
X34703Y-25042D01*
X34715Y-24994D01*
X34715Y-24958D01*
X34703Y-24911D01*
X34692Y-24887D01*
X34668Y-24863D01*
X34632Y-24851D01*
X34608Y-24851D01*
X34573Y-24863D01*
X34561Y-24875D01*
X34323Y-25101D02*
X34465Y-25101D01*
X34394Y-25101D02*
X34394Y-24851D01*
X34418Y-24887D01*
X34442Y-24911D01*
X34465Y-24923D01*
X34168Y-24851D02*
X34144Y-24851D01*
X34120Y-24863D01*
X34108Y-24875D01*
X34096Y-24899D01*
X34085Y-24946D01*
X34085Y-25006D01*
X34096Y-25054D01*
X34108Y-25077D01*
X34120Y-25089D01*
X34144Y-25101D01*
X34168Y-25101D01*
X34192Y-25089D01*
X34204Y-25077D01*
X34215Y-25054D01*
X34227Y-25006D01*
X34227Y-24946D01*
X34215Y-24899D01*
X34204Y-24875D01*
X34192Y-24863D01*
X34168Y-24851D01*
X34561Y-29277D02*
X34573Y-29289D01*
X34608Y-29301D01*
X34632Y-29301D01*
X34668Y-29289D01*
X34692Y-29265D01*
X34703Y-29242D01*
X34715Y-29194D01*
X34715Y-29158D01*
X34703Y-29111D01*
X34692Y-29087D01*
X34668Y-29063D01*
X34632Y-29051D01*
X34608Y-29051D01*
X34573Y-29063D01*
X34561Y-29075D01*
X34323Y-29301D02*
X34465Y-29301D01*
X34394Y-29301D02*
X34394Y-29051D01*
X34418Y-29087D01*
X34442Y-29111D01*
X34465Y-29123D01*
X34085Y-29301D02*
X34227Y-29301D01*
X34156Y-29301D02*
X34156Y-29051D01*
X34180Y-29087D01*
X34204Y-29111D01*
X34227Y-29123D01*
G54D12*
X32743Y-26615D02*
X33343Y-27015D01*
X32743Y-27015D02*
X33343Y-26615D01*
X33343Y-27557D02*
X33343Y-27214D01*
X33343Y-27386D02*
X32743Y-27386D01*
X32829Y-27329D01*
X32886Y-27271D01*
X32914Y-27214D01*
G54D18*
X90193Y-18121D02*
X90193Y-17821D01*
X90078Y-17821D01*
X90050Y-17836D01*
X90035Y-17850D01*
X90021Y-17879D01*
X90021Y-17921D01*
X90035Y-17950D01*
X90050Y-17964D01*
X90078Y-17979D01*
X90193Y-17979D01*
X89907Y-18107D02*
X89864Y-18121D01*
X89793Y-18121D01*
X89764Y-18107D01*
X89750Y-18093D01*
X89735Y-18064D01*
X89735Y-18036D01*
X89750Y-18007D01*
X89764Y-17993D01*
X89793Y-17979D01*
X89850Y-17964D01*
X89878Y-17950D01*
X89893Y-17936D01*
X89907Y-17907D01*
X89907Y-17879D01*
X89893Y-17850D01*
X89878Y-17836D01*
X89850Y-17821D01*
X89778Y-17821D01*
X89735Y-17836D01*
X89549Y-17821D02*
X89492Y-17821D01*
X89464Y-17836D01*
X89435Y-17864D01*
X89421Y-17921D01*
X89421Y-18021D01*
X89435Y-18079D01*
X89464Y-18107D01*
X89492Y-18121D01*
X89549Y-18121D01*
X89578Y-18107D01*
X89607Y-18079D01*
X89621Y-18021D01*
X89621Y-17921D01*
X89607Y-17864D01*
X89578Y-17836D01*
X89549Y-17821D01*
X89293Y-17821D02*
X89293Y-18064D01*
X89278Y-18093D01*
X89264Y-18107D01*
X89235Y-18121D01*
X89178Y-18121D01*
X89150Y-18107D01*
X89135Y-18093D01*
X89121Y-18064D01*
X89121Y-17821D01*
X89021Y-17821D02*
X88850Y-17821D01*
X88936Y-18121D02*
X88936Y-17821D01*
X88592Y-18121D02*
X88764Y-18121D01*
X88678Y-18121D02*
X88678Y-17821D01*
X88707Y-17864D01*
X88735Y-17893D01*
X88764Y-17907D01*
G54D13*
X76861Y-33301D02*
X76944Y-33182D01*
X77003Y-33301D02*
X77003Y-33051D01*
X76908Y-33051D01*
X76884Y-33063D01*
X76873Y-33075D01*
X76861Y-33099D01*
X76861Y-33135D01*
X76873Y-33158D01*
X76884Y-33170D01*
X76908Y-33182D01*
X77003Y-33182D01*
X76623Y-33301D02*
X76765Y-33301D01*
X76694Y-33301D02*
X76694Y-33051D01*
X76718Y-33087D01*
X76742Y-33111D01*
X76765Y-33123D01*
X76468Y-33051D02*
X76444Y-33051D01*
X76420Y-33063D01*
X76408Y-33075D01*
X76396Y-33099D01*
X76385Y-33146D01*
X76385Y-33206D01*
X76396Y-33254D01*
X76408Y-33277D01*
X76420Y-33289D01*
X76444Y-33301D01*
X76468Y-33301D01*
X76492Y-33289D01*
X76504Y-33277D01*
X76515Y-33254D01*
X76527Y-33206D01*
X76527Y-33146D01*
X76515Y-33099D01*
X76504Y-33075D01*
X76492Y-33063D01*
X76468Y-33051D01*
X86142Y-19301D02*
X86225Y-19182D01*
X86284Y-19301D02*
X86284Y-19051D01*
X86189Y-19051D01*
X86165Y-19063D01*
X86154Y-19075D01*
X86142Y-19099D01*
X86142Y-19135D01*
X86154Y-19158D01*
X86165Y-19170D01*
X86189Y-19182D01*
X86284Y-19182D01*
X86023Y-19301D02*
X85975Y-19301D01*
X85951Y-19289D01*
X85939Y-19277D01*
X85915Y-19242D01*
X85904Y-19194D01*
X85904Y-19099D01*
X85915Y-19075D01*
X85927Y-19063D01*
X85951Y-19051D01*
X85999Y-19051D01*
X86023Y-19063D01*
X86034Y-19075D01*
X86046Y-19099D01*
X86046Y-19158D01*
X86034Y-19182D01*
X86023Y-19194D01*
X85999Y-19206D01*
X85951Y-19206D01*
X85927Y-19194D01*
X85915Y-19182D01*
X85904Y-19158D01*
X86142Y-20401D02*
X86225Y-20282D01*
X86284Y-20401D02*
X86284Y-20151D01*
X86189Y-20151D01*
X86165Y-20163D01*
X86154Y-20175D01*
X86142Y-20199D01*
X86142Y-20235D01*
X86154Y-20258D01*
X86165Y-20270D01*
X86189Y-20282D01*
X86284Y-20282D01*
X85999Y-20258D02*
X86023Y-20246D01*
X86034Y-20235D01*
X86046Y-20211D01*
X86046Y-20199D01*
X86034Y-20175D01*
X86023Y-20163D01*
X85999Y-20151D01*
X85951Y-20151D01*
X85927Y-20163D01*
X85915Y-20175D01*
X85904Y-20199D01*
X85904Y-20211D01*
X85915Y-20235D01*
X85927Y-20246D01*
X85951Y-20258D01*
X85999Y-20258D01*
X86023Y-20270D01*
X86034Y-20282D01*
X86046Y-20306D01*
X86046Y-20354D01*
X86034Y-20377D01*
X86023Y-20389D01*
X85999Y-20401D01*
X85951Y-20401D01*
X85927Y-20389D01*
X85915Y-20377D01*
X85904Y-20354D01*
X85904Y-20306D01*
X85915Y-20282D01*
X85927Y-20270D01*
X85951Y-20258D01*
X86142Y-21401D02*
X86225Y-21282D01*
X86284Y-21401D02*
X86284Y-21151D01*
X86189Y-21151D01*
X86165Y-21163D01*
X86154Y-21175D01*
X86142Y-21199D01*
X86142Y-21235D01*
X86154Y-21258D01*
X86165Y-21270D01*
X86189Y-21282D01*
X86284Y-21282D01*
X86058Y-21151D02*
X85892Y-21151D01*
X85999Y-21401D01*
X86142Y-22301D02*
X86225Y-22182D01*
X86284Y-22301D02*
X86284Y-22051D01*
X86189Y-22051D01*
X86165Y-22063D01*
X86154Y-22075D01*
X86142Y-22099D01*
X86142Y-22135D01*
X86154Y-22158D01*
X86165Y-22170D01*
X86189Y-22182D01*
X86284Y-22182D01*
X85927Y-22051D02*
X85975Y-22051D01*
X85999Y-22063D01*
X86011Y-22075D01*
X86034Y-22111D01*
X86046Y-22158D01*
X86046Y-22254D01*
X86034Y-22277D01*
X86023Y-22289D01*
X85999Y-22301D01*
X85951Y-22301D01*
X85927Y-22289D01*
X85915Y-22277D01*
X85904Y-22254D01*
X85904Y-22194D01*
X85915Y-22170D01*
X85927Y-22158D01*
X85951Y-22146D01*
X85999Y-22146D01*
X86023Y-22158D01*
X86034Y-22170D01*
X86046Y-22194D01*
X88801Y-22758D02*
X88682Y-22675D01*
X88801Y-22616D02*
X88551Y-22616D01*
X88551Y-22711D01*
X88563Y-22735D01*
X88575Y-22746D01*
X88599Y-22758D01*
X88635Y-22758D01*
X88658Y-22746D01*
X88670Y-22735D01*
X88682Y-22711D01*
X88682Y-22616D01*
X88551Y-22985D02*
X88551Y-22866D01*
X88670Y-22854D01*
X88658Y-22866D01*
X88646Y-22889D01*
X88646Y-22949D01*
X88658Y-22973D01*
X88670Y-22985D01*
X88694Y-22996D01*
X88754Y-22996D01*
X88777Y-22985D01*
X88789Y-22973D01*
X88801Y-22949D01*
X88801Y-22889D01*
X88789Y-22866D01*
X88777Y-22854D01*
X90201Y-39858D02*
X90082Y-39775D01*
X90201Y-39716D02*
X89951Y-39716D01*
X89951Y-39811D01*
X89963Y-39835D01*
X89975Y-39846D01*
X89999Y-39858D01*
X90035Y-39858D01*
X90058Y-39846D01*
X90070Y-39835D01*
X90082Y-39811D01*
X90082Y-39716D01*
X90035Y-40073D02*
X90201Y-40073D01*
X89939Y-40013D02*
X90118Y-39954D01*
X90118Y-40108D01*
X83201Y-39958D02*
X83082Y-39875D01*
X83201Y-39816D02*
X82951Y-39816D01*
X82951Y-39911D01*
X82963Y-39935D01*
X82975Y-39946D01*
X82999Y-39958D01*
X83035Y-39958D01*
X83058Y-39946D01*
X83070Y-39935D01*
X83082Y-39911D01*
X83082Y-39816D01*
X82951Y-40042D02*
X82951Y-40196D01*
X83046Y-40113D01*
X83046Y-40149D01*
X83058Y-40173D01*
X83070Y-40185D01*
X83094Y-40196D01*
X83154Y-40196D01*
X83177Y-40185D01*
X83189Y-40173D01*
X83201Y-40149D01*
X83201Y-40077D01*
X83189Y-40054D01*
X83177Y-40042D01*
X71242Y-30577D02*
X71254Y-30589D01*
X71289Y-30601D01*
X71313Y-30601D01*
X71349Y-30589D01*
X71373Y-30565D01*
X71384Y-30542D01*
X71396Y-30494D01*
X71396Y-30458D01*
X71384Y-30411D01*
X71373Y-30387D01*
X71349Y-30363D01*
X71313Y-30351D01*
X71289Y-30351D01*
X71254Y-30363D01*
X71242Y-30375D01*
X71123Y-30601D02*
X71075Y-30601D01*
X71051Y-30589D01*
X71039Y-30577D01*
X71015Y-30542D01*
X71004Y-30494D01*
X71004Y-30399D01*
X71015Y-30375D01*
X71027Y-30363D01*
X71051Y-30351D01*
X71099Y-30351D01*
X71123Y-30363D01*
X71134Y-30375D01*
X71146Y-30399D01*
X71146Y-30458D01*
X71134Y-30482D01*
X71123Y-30494D01*
X71099Y-30506D01*
X71051Y-30506D01*
X71027Y-30494D01*
X71015Y-30482D01*
X71004Y-30458D01*
X83161Y-25077D02*
X83173Y-25089D01*
X83208Y-25101D01*
X83232Y-25101D01*
X83268Y-25089D01*
X83292Y-25065D01*
X83303Y-25042D01*
X83315Y-24994D01*
X83315Y-24958D01*
X83303Y-24911D01*
X83292Y-24887D01*
X83268Y-24863D01*
X83232Y-24851D01*
X83208Y-24851D01*
X83173Y-24863D01*
X83161Y-24875D01*
X82923Y-25101D02*
X83065Y-25101D01*
X82994Y-25101D02*
X82994Y-24851D01*
X83018Y-24887D01*
X83042Y-24911D01*
X83065Y-24923D01*
X82768Y-24851D02*
X82744Y-24851D01*
X82720Y-24863D01*
X82708Y-24875D01*
X82696Y-24899D01*
X82685Y-24946D01*
X82685Y-25006D01*
X82696Y-25054D01*
X82708Y-25077D01*
X82720Y-25089D01*
X82744Y-25101D01*
X82768Y-25101D01*
X82792Y-25089D01*
X82804Y-25077D01*
X82815Y-25054D01*
X82827Y-25006D01*
X82827Y-24946D01*
X82815Y-24899D01*
X82804Y-24875D01*
X82792Y-24863D01*
X82768Y-24851D01*
X83161Y-29277D02*
X83173Y-29289D01*
X83208Y-29301D01*
X83232Y-29301D01*
X83268Y-29289D01*
X83292Y-29265D01*
X83303Y-29242D01*
X83315Y-29194D01*
X83315Y-29158D01*
X83303Y-29111D01*
X83292Y-29087D01*
X83268Y-29063D01*
X83232Y-29051D01*
X83208Y-29051D01*
X83173Y-29063D01*
X83161Y-29075D01*
X82923Y-29301D02*
X83065Y-29301D01*
X82994Y-29301D02*
X82994Y-29051D01*
X83018Y-29087D01*
X83042Y-29111D01*
X83065Y-29123D01*
X82685Y-29301D02*
X82827Y-29301D01*
X82756Y-29301D02*
X82756Y-29051D01*
X82780Y-29087D01*
X82804Y-29111D01*
X82827Y-29123D01*
G54D12*
X81343Y-26615D02*
X81943Y-27015D01*
X81343Y-27015D02*
X81943Y-26615D01*
X81943Y-27557D02*
X81943Y-27214D01*
X81943Y-27386D02*
X81343Y-27386D01*
X81429Y-27329D01*
X81486Y-27271D01*
X81514Y-27214D01*
G54D18*
X65893Y-18121D02*
X65893Y-17821D01*
X65778Y-17821D01*
X65750Y-17836D01*
X65735Y-17850D01*
X65721Y-17879D01*
X65721Y-17921D01*
X65735Y-17950D01*
X65750Y-17964D01*
X65778Y-17979D01*
X65893Y-17979D01*
X65607Y-18107D02*
X65564Y-18121D01*
X65493Y-18121D01*
X65464Y-18107D01*
X65450Y-18093D01*
X65435Y-18064D01*
X65435Y-18036D01*
X65450Y-18007D01*
X65464Y-17993D01*
X65493Y-17979D01*
X65550Y-17964D01*
X65578Y-17950D01*
X65593Y-17936D01*
X65607Y-17907D01*
X65607Y-17879D01*
X65593Y-17850D01*
X65578Y-17836D01*
X65550Y-17821D01*
X65478Y-17821D01*
X65435Y-17836D01*
X65249Y-17821D02*
X65192Y-17821D01*
X65164Y-17836D01*
X65135Y-17864D01*
X65121Y-17921D01*
X65121Y-18021D01*
X65135Y-18079D01*
X65164Y-18107D01*
X65192Y-18121D01*
X65249Y-18121D01*
X65278Y-18107D01*
X65307Y-18079D01*
X65321Y-18021D01*
X65321Y-17921D01*
X65307Y-17864D01*
X65278Y-17836D01*
X65249Y-17821D01*
X64993Y-17821D02*
X64993Y-18064D01*
X64978Y-18093D01*
X64964Y-18107D01*
X64935Y-18121D01*
X64878Y-18121D01*
X64850Y-18107D01*
X64835Y-18093D01*
X64821Y-18064D01*
X64821Y-17821D01*
X64721Y-17821D02*
X64550Y-17821D01*
X64636Y-18121D02*
X64636Y-17821D01*
X64292Y-18121D02*
X64464Y-18121D01*
X64378Y-18121D02*
X64378Y-17821D01*
X64407Y-17864D01*
X64435Y-17893D01*
X64464Y-17907D01*
G54D13*
X52561Y-33301D02*
X52644Y-33182D01*
X52703Y-33301D02*
X52703Y-33051D01*
X52608Y-33051D01*
X52584Y-33063D01*
X52573Y-33075D01*
X52561Y-33099D01*
X52561Y-33135D01*
X52573Y-33158D01*
X52584Y-33170D01*
X52608Y-33182D01*
X52703Y-33182D01*
X52323Y-33301D02*
X52465Y-33301D01*
X52394Y-33301D02*
X52394Y-33051D01*
X52418Y-33087D01*
X52442Y-33111D01*
X52465Y-33123D01*
X52168Y-33051D02*
X52144Y-33051D01*
X52120Y-33063D01*
X52108Y-33075D01*
X52096Y-33099D01*
X52085Y-33146D01*
X52085Y-33206D01*
X52096Y-33254D01*
X52108Y-33277D01*
X52120Y-33289D01*
X52144Y-33301D01*
X52168Y-33301D01*
X52192Y-33289D01*
X52204Y-33277D01*
X52215Y-33254D01*
X52227Y-33206D01*
X52227Y-33146D01*
X52215Y-33099D01*
X52204Y-33075D01*
X52192Y-33063D01*
X52168Y-33051D01*
X61842Y-19301D02*
X61925Y-19182D01*
X61984Y-19301D02*
X61984Y-19051D01*
X61889Y-19051D01*
X61865Y-19063D01*
X61854Y-19075D01*
X61842Y-19099D01*
X61842Y-19135D01*
X61854Y-19158D01*
X61865Y-19170D01*
X61889Y-19182D01*
X61984Y-19182D01*
X61723Y-19301D02*
X61675Y-19301D01*
X61651Y-19289D01*
X61639Y-19277D01*
X61615Y-19242D01*
X61604Y-19194D01*
X61604Y-19099D01*
X61615Y-19075D01*
X61627Y-19063D01*
X61651Y-19051D01*
X61699Y-19051D01*
X61723Y-19063D01*
X61734Y-19075D01*
X61746Y-19099D01*
X61746Y-19158D01*
X61734Y-19182D01*
X61723Y-19194D01*
X61699Y-19206D01*
X61651Y-19206D01*
X61627Y-19194D01*
X61615Y-19182D01*
X61604Y-19158D01*
X61842Y-20401D02*
X61925Y-20282D01*
X61984Y-20401D02*
X61984Y-20151D01*
X61889Y-20151D01*
X61865Y-20163D01*
X61854Y-20175D01*
X61842Y-20199D01*
X61842Y-20235D01*
X61854Y-20258D01*
X61865Y-20270D01*
X61889Y-20282D01*
X61984Y-20282D01*
X61699Y-20258D02*
X61723Y-20246D01*
X61734Y-20235D01*
X61746Y-20211D01*
X61746Y-20199D01*
X61734Y-20175D01*
X61723Y-20163D01*
X61699Y-20151D01*
X61651Y-20151D01*
X61627Y-20163D01*
X61615Y-20175D01*
X61604Y-20199D01*
X61604Y-20211D01*
X61615Y-20235D01*
X61627Y-20246D01*
X61651Y-20258D01*
X61699Y-20258D01*
X61723Y-20270D01*
X61734Y-20282D01*
X61746Y-20306D01*
X61746Y-20354D01*
X61734Y-20377D01*
X61723Y-20389D01*
X61699Y-20401D01*
X61651Y-20401D01*
X61627Y-20389D01*
X61615Y-20377D01*
X61604Y-20354D01*
X61604Y-20306D01*
X61615Y-20282D01*
X61627Y-20270D01*
X61651Y-20258D01*
X61842Y-21401D02*
X61925Y-21282D01*
X61984Y-21401D02*
X61984Y-21151D01*
X61889Y-21151D01*
X61865Y-21163D01*
X61854Y-21175D01*
X61842Y-21199D01*
X61842Y-21235D01*
X61854Y-21258D01*
X61865Y-21270D01*
X61889Y-21282D01*
X61984Y-21282D01*
X61758Y-21151D02*
X61592Y-21151D01*
X61699Y-21401D01*
X61842Y-22301D02*
X61925Y-22182D01*
X61984Y-22301D02*
X61984Y-22051D01*
X61889Y-22051D01*
X61865Y-22063D01*
X61854Y-22075D01*
X61842Y-22099D01*
X61842Y-22135D01*
X61854Y-22158D01*
X61865Y-22170D01*
X61889Y-22182D01*
X61984Y-22182D01*
X61627Y-22051D02*
X61675Y-22051D01*
X61699Y-22063D01*
X61711Y-22075D01*
X61734Y-22111D01*
X61746Y-22158D01*
X61746Y-22254D01*
X61734Y-22277D01*
X61723Y-22289D01*
X61699Y-22301D01*
X61651Y-22301D01*
X61627Y-22289D01*
X61615Y-22277D01*
X61604Y-22254D01*
X61604Y-22194D01*
X61615Y-22170D01*
X61627Y-22158D01*
X61651Y-22146D01*
X61699Y-22146D01*
X61723Y-22158D01*
X61734Y-22170D01*
X61746Y-22194D01*
X64501Y-22758D02*
X64382Y-22675D01*
X64501Y-22616D02*
X64251Y-22616D01*
X64251Y-22711D01*
X64263Y-22735D01*
X64275Y-22746D01*
X64299Y-22758D01*
X64335Y-22758D01*
X64358Y-22746D01*
X64370Y-22735D01*
X64382Y-22711D01*
X64382Y-22616D01*
X64251Y-22985D02*
X64251Y-22866D01*
X64370Y-22854D01*
X64358Y-22866D01*
X64346Y-22889D01*
X64346Y-22949D01*
X64358Y-22973D01*
X64370Y-22985D01*
X64394Y-22996D01*
X64454Y-22996D01*
X64477Y-22985D01*
X64489Y-22973D01*
X64501Y-22949D01*
X64501Y-22889D01*
X64489Y-22866D01*
X64477Y-22854D01*
X65901Y-39858D02*
X65782Y-39775D01*
X65901Y-39716D02*
X65651Y-39716D01*
X65651Y-39811D01*
X65663Y-39835D01*
X65675Y-39846D01*
X65699Y-39858D01*
X65735Y-39858D01*
X65758Y-39846D01*
X65770Y-39835D01*
X65782Y-39811D01*
X65782Y-39716D01*
X65735Y-40073D02*
X65901Y-40073D01*
X65639Y-40013D02*
X65818Y-39954D01*
X65818Y-40108D01*
X58901Y-39958D02*
X58782Y-39875D01*
X58901Y-39816D02*
X58651Y-39816D01*
X58651Y-39911D01*
X58663Y-39935D01*
X58675Y-39946D01*
X58699Y-39958D01*
X58735Y-39958D01*
X58758Y-39946D01*
X58770Y-39935D01*
X58782Y-39911D01*
X58782Y-39816D01*
X58651Y-40042D02*
X58651Y-40196D01*
X58746Y-40113D01*
X58746Y-40149D01*
X58758Y-40173D01*
X58770Y-40185D01*
X58794Y-40196D01*
X58854Y-40196D01*
X58877Y-40185D01*
X58889Y-40173D01*
X58901Y-40149D01*
X58901Y-40077D01*
X58889Y-40054D01*
X58877Y-40042D01*
X46942Y-30577D02*
X46954Y-30589D01*
X46989Y-30601D01*
X47013Y-30601D01*
X47049Y-30589D01*
X47073Y-30565D01*
X47084Y-30542D01*
X47096Y-30494D01*
X47096Y-30458D01*
X47084Y-30411D01*
X47073Y-30387D01*
X47049Y-30363D01*
X47013Y-30351D01*
X46989Y-30351D01*
X46954Y-30363D01*
X46942Y-30375D01*
X46823Y-30601D02*
X46775Y-30601D01*
X46751Y-30589D01*
X46739Y-30577D01*
X46715Y-30542D01*
X46704Y-30494D01*
X46704Y-30399D01*
X46715Y-30375D01*
X46727Y-30363D01*
X46751Y-30351D01*
X46799Y-30351D01*
X46823Y-30363D01*
X46834Y-30375D01*
X46846Y-30399D01*
X46846Y-30458D01*
X46834Y-30482D01*
X46823Y-30494D01*
X46799Y-30506D01*
X46751Y-30506D01*
X46727Y-30494D01*
X46715Y-30482D01*
X46704Y-30458D01*
X58861Y-25077D02*
X58873Y-25089D01*
X58908Y-25101D01*
X58932Y-25101D01*
X58968Y-25089D01*
X58992Y-25065D01*
X59003Y-25042D01*
X59015Y-24994D01*
X59015Y-24958D01*
X59003Y-24911D01*
X58992Y-24887D01*
X58968Y-24863D01*
X58932Y-24851D01*
X58908Y-24851D01*
X58873Y-24863D01*
X58861Y-24875D01*
X58623Y-25101D02*
X58765Y-25101D01*
X58694Y-25101D02*
X58694Y-24851D01*
X58718Y-24887D01*
X58742Y-24911D01*
X58765Y-24923D01*
X58468Y-24851D02*
X58444Y-24851D01*
X58420Y-24863D01*
X58408Y-24875D01*
X58396Y-24899D01*
X58385Y-24946D01*
X58385Y-25006D01*
X58396Y-25054D01*
X58408Y-25077D01*
X58420Y-25089D01*
X58444Y-25101D01*
X58468Y-25101D01*
X58492Y-25089D01*
X58504Y-25077D01*
X58515Y-25054D01*
X58527Y-25006D01*
X58527Y-24946D01*
X58515Y-24899D01*
X58504Y-24875D01*
X58492Y-24863D01*
X58468Y-24851D01*
X58861Y-29277D02*
X58873Y-29289D01*
X58908Y-29301D01*
X58932Y-29301D01*
X58968Y-29289D01*
X58992Y-29265D01*
X59003Y-29242D01*
X59015Y-29194D01*
X59015Y-29158D01*
X59003Y-29111D01*
X58992Y-29087D01*
X58968Y-29063D01*
X58932Y-29051D01*
X58908Y-29051D01*
X58873Y-29063D01*
X58861Y-29075D01*
X58623Y-29301D02*
X58765Y-29301D01*
X58694Y-29301D02*
X58694Y-29051D01*
X58718Y-29087D01*
X58742Y-29111D01*
X58765Y-29123D01*
X58385Y-29301D02*
X58527Y-29301D01*
X58456Y-29301D02*
X58456Y-29051D01*
X58480Y-29087D01*
X58504Y-29111D01*
X58527Y-29123D01*
G54D12*
X57043Y-26615D02*
X57643Y-27015D01*
X57043Y-27015D02*
X57643Y-26615D01*
X57643Y-27557D02*
X57643Y-27214D01*
X57643Y-27386D02*
X57043Y-27386D01*
X57129Y-27329D01*
X57186Y-27271D01*
X57214Y-27214D01*
G54D19*
X34722Y-54221D02*
X34722Y-53921D01*
X34650Y-53921D01*
X34607Y-53936D01*
X34579Y-53964D01*
X34564Y-53993D01*
X34550Y-54050D01*
X34550Y-54093D01*
X34564Y-54150D01*
X34579Y-54179D01*
X34607Y-54207D01*
X34650Y-54221D01*
X34722Y-54221D01*
X34279Y-53921D02*
X34422Y-53921D01*
X34436Y-54064D01*
X34422Y-54050D01*
X34393Y-54036D01*
X34322Y-54036D01*
X34293Y-54050D01*
X34279Y-54064D01*
X34264Y-54093D01*
X34264Y-54164D01*
X34279Y-54193D01*
X34293Y-54207D01*
X34322Y-54221D01*
X34393Y-54221D01*
X34422Y-54207D01*
X34436Y-54193D01*
X34593Y-53021D02*
X34736Y-53021D01*
X34736Y-52721D01*
X34493Y-52864D02*
X34393Y-52864D01*
X34350Y-53021D02*
X34493Y-53021D01*
X34493Y-52721D01*
X34350Y-52721D01*
X34222Y-53021D02*
X34222Y-52721D01*
X34150Y-52721D01*
X34107Y-52736D01*
X34079Y-52764D01*
X34064Y-52793D01*
X34050Y-52850D01*
X34050Y-52893D01*
X34064Y-52950D01*
X34079Y-52979D01*
X34107Y-53007D01*
X34150Y-53021D01*
X34222Y-53021D01*
X34722Y-53221D02*
X34722Y-52921D01*
X34650Y-52921D01*
X34607Y-52936D01*
X34579Y-52964D01*
X34564Y-52993D01*
X34550Y-53050D01*
X34550Y-53093D01*
X34564Y-53150D01*
X34579Y-53179D01*
X34607Y-53207D01*
X34650Y-53221D01*
X34722Y-53221D01*
X34293Y-53021D02*
X34293Y-53221D01*
X34364Y-52907D02*
X34436Y-53121D01*
X34250Y-53121D01*
X34593Y-52021D02*
X34736Y-52021D01*
X34736Y-51721D01*
X34493Y-51864D02*
X34393Y-51864D01*
X34350Y-52021D02*
X34493Y-52021D01*
X34493Y-51721D01*
X34350Y-51721D01*
X34222Y-52021D02*
X34222Y-51721D01*
X34150Y-51721D01*
X34107Y-51736D01*
X34079Y-51764D01*
X34064Y-51793D01*
X34050Y-51850D01*
X34050Y-51893D01*
X34064Y-51950D01*
X34079Y-51979D01*
X34107Y-52007D01*
X34150Y-52021D01*
X34222Y-52021D01*
X34722Y-52221D02*
X34722Y-51921D01*
X34650Y-51921D01*
X34607Y-51936D01*
X34579Y-51964D01*
X34564Y-51993D01*
X34550Y-52050D01*
X34550Y-52093D01*
X34564Y-52150D01*
X34579Y-52179D01*
X34607Y-52207D01*
X34650Y-52221D01*
X34722Y-52221D01*
X34450Y-51921D02*
X34264Y-51921D01*
X34364Y-52036D01*
X34322Y-52036D01*
X34293Y-52050D01*
X34279Y-52064D01*
X34264Y-52093D01*
X34264Y-52164D01*
X34279Y-52193D01*
X34293Y-52207D01*
X34322Y-52221D01*
X34407Y-52221D01*
X34436Y-52207D01*
X34450Y-52193D01*
X34593Y-51021D02*
X34736Y-51021D01*
X34736Y-50721D01*
X34493Y-50864D02*
X34393Y-50864D01*
X34350Y-51021D02*
X34493Y-51021D01*
X34493Y-50721D01*
X34350Y-50721D01*
X34222Y-51021D02*
X34222Y-50721D01*
X34150Y-50721D01*
X34107Y-50736D01*
X34079Y-50764D01*
X34064Y-50793D01*
X34050Y-50850D01*
X34050Y-50893D01*
X34064Y-50950D01*
X34079Y-50979D01*
X34107Y-51007D01*
X34150Y-51021D01*
X34222Y-51021D01*
X34722Y-51221D02*
X34722Y-50921D01*
X34650Y-50921D01*
X34607Y-50936D01*
X34579Y-50964D01*
X34564Y-50993D01*
X34550Y-51050D01*
X34550Y-51093D01*
X34564Y-51150D01*
X34579Y-51179D01*
X34607Y-51207D01*
X34650Y-51221D01*
X34722Y-51221D01*
X34436Y-50950D02*
X34422Y-50936D01*
X34393Y-50921D01*
X34322Y-50921D01*
X34293Y-50936D01*
X34279Y-50950D01*
X34264Y-50979D01*
X34264Y-51007D01*
X34279Y-51050D01*
X34450Y-51221D01*
X34264Y-51221D01*
X34593Y-50021D02*
X34736Y-50021D01*
X34736Y-49721D01*
X34493Y-49864D02*
X34393Y-49864D01*
X34350Y-50021D02*
X34493Y-50021D01*
X34493Y-49721D01*
X34350Y-49721D01*
X34222Y-50021D02*
X34222Y-49721D01*
X34150Y-49721D01*
X34107Y-49736D01*
X34079Y-49764D01*
X34064Y-49793D01*
X34050Y-49850D01*
X34050Y-49893D01*
X34064Y-49950D01*
X34079Y-49979D01*
X34107Y-50007D01*
X34150Y-50021D01*
X34222Y-50021D01*
X26422Y-51221D02*
X26422Y-50921D01*
X26350Y-50921D01*
X26307Y-50936D01*
X26279Y-50964D01*
X26264Y-50993D01*
X26250Y-51050D01*
X26250Y-51093D01*
X26264Y-51150D01*
X26279Y-51179D01*
X26307Y-51207D01*
X26350Y-51221D01*
X26422Y-51221D01*
X25964Y-51221D02*
X26136Y-51221D01*
X26050Y-51221D02*
X26050Y-50921D01*
X26079Y-50964D01*
X26107Y-50993D01*
X26136Y-51007D01*
X26293Y-50021D02*
X26436Y-50021D01*
X26436Y-49721D01*
X26193Y-49864D02*
X26093Y-49864D01*
X26050Y-50021D02*
X26193Y-50021D01*
X26193Y-49721D01*
X26050Y-49721D01*
X25922Y-50021D02*
X25922Y-49721D01*
X25850Y-49721D01*
X25807Y-49736D01*
X25779Y-49764D01*
X25764Y-49793D01*
X25750Y-49850D01*
X25750Y-49893D01*
X25764Y-49950D01*
X25779Y-49979D01*
X25807Y-50007D01*
X25850Y-50021D01*
X25922Y-50021D01*
X28005Y-55610D02*
X28172Y-55372D01*
X28291Y-55610D02*
X28291Y-55110D01*
X28100Y-55110D01*
X28053Y-55134D01*
X28029Y-55158D01*
X28005Y-55206D01*
X28005Y-55277D01*
X28029Y-55325D01*
X28053Y-55348D01*
X28100Y-55372D01*
X28291Y-55372D01*
X27529Y-55610D02*
X27815Y-55610D01*
X27672Y-55610D02*
X27672Y-55110D01*
X27720Y-55182D01*
X27767Y-55229D01*
X27815Y-55253D01*
X27220Y-55110D02*
X27172Y-55110D01*
X27124Y-55134D01*
X27101Y-55158D01*
X27077Y-55206D01*
X27053Y-55301D01*
X27053Y-55420D01*
X27077Y-55515D01*
X27101Y-55563D01*
X27124Y-55587D01*
X27172Y-55610D01*
X27220Y-55610D01*
X27267Y-55587D01*
X27291Y-55563D01*
X27315Y-55515D01*
X27339Y-55420D01*
X27339Y-55301D01*
X27315Y-55206D01*
X27291Y-55158D01*
X27267Y-55134D01*
X27220Y-55110D01*
G54D10*
X31850Y-54821D02*
X31950Y-54679D01*
X32022Y-54821D02*
X32022Y-54521D01*
X31907Y-54521D01*
X31879Y-54536D01*
X31864Y-54550D01*
X31850Y-54579D01*
X31850Y-54621D01*
X31864Y-54650D01*
X31879Y-54664D01*
X31907Y-54679D01*
X32022Y-54679D01*
X31750Y-54521D02*
X31564Y-54521D01*
X31664Y-54636D01*
X31622Y-54636D01*
X31593Y-54650D01*
X31579Y-54664D01*
X31564Y-54693D01*
X31564Y-54764D01*
X31579Y-54793D01*
X31593Y-54807D01*
X31622Y-54821D01*
X31707Y-54821D01*
X31736Y-54807D01*
X31750Y-54793D01*
G54D19*
X27599Y-51294D02*
X27766Y-51056D01*
X27885Y-51294D02*
X27885Y-50794D01*
X27694Y-50794D01*
X27647Y-50818D01*
X27623Y-50842D01*
X27599Y-50890D01*
X27599Y-50961D01*
X27623Y-51009D01*
X27647Y-51032D01*
X27694Y-51056D01*
X27885Y-51056D01*
X27123Y-51294D02*
X27409Y-51294D01*
X27266Y-51294D02*
X27266Y-50794D01*
X27314Y-50866D01*
X27361Y-50913D01*
X27409Y-50937D01*
X26747Y-51701D02*
X26771Y-51677D01*
X26794Y-51606D01*
X26794Y-51558D01*
X26771Y-51486D01*
X26723Y-51439D01*
X26675Y-51415D01*
X26580Y-51391D01*
X26509Y-51391D01*
X26413Y-51415D01*
X26366Y-51439D01*
X26318Y-51486D01*
X26294Y-51558D01*
X26294Y-51606D01*
X26318Y-51677D01*
X26342Y-51701D01*
X26509Y-51986D02*
X26485Y-51939D01*
X26461Y-51915D01*
X26413Y-51891D01*
X26390Y-51891D01*
X26342Y-51915D01*
X26318Y-51939D01*
X26294Y-51986D01*
X26294Y-52082D01*
X26318Y-52129D01*
X26342Y-52153D01*
X26390Y-52177D01*
X26413Y-52177D01*
X26461Y-52153D01*
X26485Y-52129D01*
X26509Y-52082D01*
X26509Y-51986D01*
X26532Y-51939D01*
X26556Y-51915D01*
X26604Y-51891D01*
X26699Y-51891D01*
X26747Y-51915D01*
X26771Y-51939D01*
X26794Y-51986D01*
X26794Y-52082D01*
X26771Y-52129D01*
X26747Y-52153D01*
X26699Y-52177D01*
X26604Y-52177D01*
X26556Y-52153D01*
X26532Y-52129D01*
X26509Y-52082D01*
X25247Y-52401D02*
X25271Y-52377D01*
X25294Y-52306D01*
X25294Y-52258D01*
X25271Y-52186D01*
X25223Y-52139D01*
X25175Y-52115D01*
X25080Y-52091D01*
X25009Y-52091D01*
X24913Y-52115D01*
X24866Y-52139D01*
X24818Y-52186D01*
X24794Y-52258D01*
X24794Y-52306D01*
X24818Y-52377D01*
X24842Y-52401D01*
X24794Y-52567D02*
X24794Y-52901D01*
X25294Y-52686D01*
X25647Y-52401D02*
X25671Y-52377D01*
X25694Y-52306D01*
X25694Y-52258D01*
X25671Y-52186D01*
X25623Y-52139D01*
X25575Y-52115D01*
X25480Y-52091D01*
X25409Y-52091D01*
X25313Y-52115D01*
X25266Y-52139D01*
X25218Y-52186D01*
X25194Y-52258D01*
X25194Y-52306D01*
X25218Y-52377D01*
X25242Y-52401D01*
X25194Y-52829D02*
X25194Y-52734D01*
X25218Y-52686D01*
X25242Y-52663D01*
X25313Y-52615D01*
X25409Y-52591D01*
X25599Y-52591D01*
X25647Y-52615D01*
X25671Y-52639D01*
X25694Y-52686D01*
X25694Y-52782D01*
X25671Y-52829D01*
X25647Y-52853D01*
X25599Y-52877D01*
X25480Y-52877D01*
X25432Y-52853D01*
X25409Y-52829D01*
X25385Y-52782D01*
X25385Y-52686D01*
X25409Y-52639D01*
X25432Y-52615D01*
X25480Y-52591D01*
X28547Y-51701D02*
X28571Y-51677D01*
X28594Y-51606D01*
X28594Y-51558D01*
X28571Y-51486D01*
X28523Y-51439D01*
X28475Y-51415D01*
X28380Y-51391D01*
X28309Y-51391D01*
X28213Y-51415D01*
X28166Y-51439D01*
X28118Y-51486D01*
X28094Y-51558D01*
X28094Y-51606D01*
X28118Y-51677D01*
X28142Y-51701D01*
X28094Y-52153D02*
X28094Y-51915D01*
X28332Y-51891D01*
X28309Y-51915D01*
X28285Y-51963D01*
X28285Y-52082D01*
X28309Y-52129D01*
X28332Y-52153D01*
X28380Y-52177D01*
X28499Y-52177D01*
X28547Y-52153D01*
X28571Y-52129D01*
X28594Y-52082D01*
X28594Y-51963D01*
X28571Y-51915D01*
X28547Y-51891D01*
X28047Y-51701D02*
X28071Y-51677D01*
X28094Y-51606D01*
X28094Y-51558D01*
X28071Y-51486D01*
X28023Y-51439D01*
X27975Y-51415D01*
X27880Y-51391D01*
X27809Y-51391D01*
X27713Y-51415D01*
X27666Y-51439D01*
X27618Y-51486D01*
X27594Y-51558D01*
X27594Y-51606D01*
X27618Y-51677D01*
X27642Y-51701D01*
X27761Y-52129D02*
X28094Y-52129D01*
X27571Y-52010D02*
X27928Y-51891D01*
X27928Y-52201D01*
X24463Y-50933D02*
X24487Y-50909D01*
X24510Y-50838D01*
X24510Y-50790D01*
X24487Y-50718D01*
X24439Y-50671D01*
X24391Y-50647D01*
X24296Y-50623D01*
X24225Y-50623D01*
X24129Y-50647D01*
X24082Y-50671D01*
X24034Y-50718D01*
X24010Y-50790D01*
X24010Y-50838D01*
X24034Y-50909D01*
X24058Y-50933D01*
X24058Y-51123D02*
X24034Y-51147D01*
X24010Y-51195D01*
X24010Y-51314D01*
X24034Y-51361D01*
X24058Y-51385D01*
X24106Y-51409D01*
X24153Y-51409D01*
X24225Y-51385D01*
X24510Y-51099D01*
X24510Y-51409D01*
X24063Y-50933D02*
X24087Y-50909D01*
X24110Y-50838D01*
X24110Y-50790D01*
X24087Y-50718D01*
X24039Y-50671D01*
X23991Y-50647D01*
X23896Y-50623D01*
X23825Y-50623D01*
X23729Y-50647D01*
X23682Y-50671D01*
X23634Y-50718D01*
X23610Y-50790D01*
X23610Y-50838D01*
X23634Y-50909D01*
X23658Y-50933D01*
X24110Y-51409D02*
X24110Y-51123D01*
X24110Y-51266D02*
X23610Y-51266D01*
X23682Y-51218D01*
X23729Y-51171D01*
X23753Y-51123D01*
G54D20*
X31190Y-52202D02*
X31190Y-51702D01*
X30771Y-52155D02*
X30790Y-52179D01*
X30847Y-52202D01*
X30885Y-52202D01*
X30943Y-52179D01*
X30981Y-52131D01*
X31000Y-52083D01*
X31019Y-51988D01*
X31019Y-51917D01*
X31000Y-51821D01*
X30981Y-51774D01*
X30943Y-51726D01*
X30885Y-51702D01*
X30847Y-51702D01*
X30790Y-51726D01*
X30771Y-51750D01*
X30390Y-52202D02*
X30619Y-52202D01*
X30505Y-52202D02*
X30505Y-51702D01*
X30543Y-51774D01*
X30581Y-51821D01*
X30619Y-51845D01*
X32876Y-50810D02*
X32685Y-50810D01*
X32914Y-50952D02*
X32781Y-50452D01*
X32647Y-50952D01*
X32571Y-50452D02*
X32342Y-50452D01*
X32457Y-50952D02*
X32457Y-50452D01*
X32209Y-50952D02*
X32209Y-50452D01*
X32075Y-50810D01*
X31942Y-50452D01*
X31942Y-50952D01*
X31752Y-50690D02*
X31618Y-50690D01*
X31561Y-50952D02*
X31752Y-50952D01*
X31752Y-50452D01*
X31561Y-50452D01*
X31180Y-50476D02*
X31218Y-50452D01*
X31275Y-50452D01*
X31333Y-50476D01*
X31371Y-50524D01*
X31390Y-50571D01*
X31409Y-50667D01*
X31409Y-50738D01*
X31390Y-50833D01*
X31371Y-50881D01*
X31333Y-50929D01*
X31275Y-50952D01*
X31237Y-50952D01*
X31180Y-50929D01*
X31161Y-50905D01*
X31161Y-50738D01*
X31237Y-50738D01*
X31009Y-50810D02*
X30818Y-50810D01*
X31047Y-50952D02*
X30914Y-50452D01*
X30780Y-50952D01*
X30437Y-50952D02*
X30666Y-50952D01*
X30552Y-50952D02*
X30552Y-50452D01*
X30590Y-50524D01*
X30628Y-50571D01*
X30666Y-50595D01*
X30094Y-50452D02*
X30171Y-50452D01*
X30209Y-50476D01*
X30228Y-50500D01*
X30266Y-50571D01*
X30285Y-50667D01*
X30285Y-50857D01*
X30266Y-50905D01*
X30247Y-50929D01*
X30209Y-50952D01*
X30132Y-50952D01*
X30094Y-50929D01*
X30075Y-50905D01*
X30056Y-50857D01*
X30056Y-50738D01*
X30075Y-50690D01*
X30094Y-50667D01*
X30132Y-50643D01*
X30209Y-50643D01*
X30247Y-50667D01*
X30266Y-50690D01*
X30285Y-50738D01*
X29828Y-50667D02*
X29866Y-50643D01*
X29885Y-50619D01*
X29904Y-50571D01*
X29904Y-50548D01*
X29885Y-50500D01*
X29866Y-50476D01*
X29828Y-50452D01*
X29751Y-50452D01*
X29713Y-50476D01*
X29694Y-50500D01*
X29675Y-50548D01*
X29675Y-50571D01*
X29694Y-50619D01*
X29713Y-50643D01*
X29751Y-50667D01*
X29828Y-50667D01*
X29866Y-50690D01*
X29885Y-50714D01*
X29904Y-50762D01*
X29904Y-50857D01*
X29885Y-50905D01*
X29866Y-50929D01*
X29828Y-50952D01*
X29751Y-50952D01*
X29713Y-50929D01*
X29694Y-50905D01*
X29675Y-50857D01*
X29675Y-50762D01*
X29694Y-50714D01*
X29713Y-50690D01*
X29751Y-50667D01*
X29504Y-50762D02*
X29199Y-50762D01*
X29009Y-50952D02*
X29009Y-50452D01*
X28875Y-50810D01*
X28742Y-50452D01*
X28742Y-50952D01*
G54D19*
X92722Y-54221D02*
X92722Y-53921D01*
X92650Y-53921D01*
X92607Y-53936D01*
X92579Y-53964D01*
X92564Y-53993D01*
X92550Y-54050D01*
X92550Y-54093D01*
X92564Y-54150D01*
X92579Y-54179D01*
X92607Y-54207D01*
X92650Y-54221D01*
X92722Y-54221D01*
X92279Y-53921D02*
X92422Y-53921D01*
X92436Y-54064D01*
X92422Y-54050D01*
X92393Y-54036D01*
X92322Y-54036D01*
X92293Y-54050D01*
X92279Y-54064D01*
X92264Y-54093D01*
X92264Y-54164D01*
X92279Y-54193D01*
X92293Y-54207D01*
X92322Y-54221D01*
X92393Y-54221D01*
X92422Y-54207D01*
X92436Y-54193D01*
X92593Y-53021D02*
X92736Y-53021D01*
X92736Y-52721D01*
X92493Y-52864D02*
X92393Y-52864D01*
X92350Y-53021D02*
X92493Y-53021D01*
X92493Y-52721D01*
X92350Y-52721D01*
X92222Y-53021D02*
X92222Y-52721D01*
X92150Y-52721D01*
X92107Y-52736D01*
X92079Y-52764D01*
X92064Y-52793D01*
X92050Y-52850D01*
X92050Y-52893D01*
X92064Y-52950D01*
X92079Y-52979D01*
X92107Y-53007D01*
X92150Y-53021D01*
X92222Y-53021D01*
X92722Y-53221D02*
X92722Y-52921D01*
X92650Y-52921D01*
X92607Y-52936D01*
X92579Y-52964D01*
X92564Y-52993D01*
X92550Y-53050D01*
X92550Y-53093D01*
X92564Y-53150D01*
X92579Y-53179D01*
X92607Y-53207D01*
X92650Y-53221D01*
X92722Y-53221D01*
X92293Y-53021D02*
X92293Y-53221D01*
X92364Y-52907D02*
X92436Y-53121D01*
X92250Y-53121D01*
X92593Y-52021D02*
X92736Y-52021D01*
X92736Y-51721D01*
X92493Y-51864D02*
X92393Y-51864D01*
X92350Y-52021D02*
X92493Y-52021D01*
X92493Y-51721D01*
X92350Y-51721D01*
X92222Y-52021D02*
X92222Y-51721D01*
X92150Y-51721D01*
X92107Y-51736D01*
X92079Y-51764D01*
X92064Y-51793D01*
X92050Y-51850D01*
X92050Y-51893D01*
X92064Y-51950D01*
X92079Y-51979D01*
X92107Y-52007D01*
X92150Y-52021D01*
X92222Y-52021D01*
X92722Y-52221D02*
X92722Y-51921D01*
X92650Y-51921D01*
X92607Y-51936D01*
X92579Y-51964D01*
X92564Y-51993D01*
X92550Y-52050D01*
X92550Y-52093D01*
X92564Y-52150D01*
X92579Y-52179D01*
X92607Y-52207D01*
X92650Y-52221D01*
X92722Y-52221D01*
X92450Y-51921D02*
X92264Y-51921D01*
X92364Y-52036D01*
X92322Y-52036D01*
X92293Y-52050D01*
X92279Y-52064D01*
X92264Y-52093D01*
X92264Y-52164D01*
X92279Y-52193D01*
X92293Y-52207D01*
X92322Y-52221D01*
X92407Y-52221D01*
X92436Y-52207D01*
X92450Y-52193D01*
X92593Y-51021D02*
X92736Y-51021D01*
X92736Y-50721D01*
X92493Y-50864D02*
X92393Y-50864D01*
X92350Y-51021D02*
X92493Y-51021D01*
X92493Y-50721D01*
X92350Y-50721D01*
X92222Y-51021D02*
X92222Y-50721D01*
X92150Y-50721D01*
X92107Y-50736D01*
X92079Y-50764D01*
X92064Y-50793D01*
X92050Y-50850D01*
X92050Y-50893D01*
X92064Y-50950D01*
X92079Y-50979D01*
X92107Y-51007D01*
X92150Y-51021D01*
X92222Y-51021D01*
X92722Y-51221D02*
X92722Y-50921D01*
X92650Y-50921D01*
X92607Y-50936D01*
X92579Y-50964D01*
X92564Y-50993D01*
X92550Y-51050D01*
X92550Y-51093D01*
X92564Y-51150D01*
X92579Y-51179D01*
X92607Y-51207D01*
X92650Y-51221D01*
X92722Y-51221D01*
X92436Y-50950D02*
X92422Y-50936D01*
X92393Y-50921D01*
X92322Y-50921D01*
X92293Y-50936D01*
X92279Y-50950D01*
X92264Y-50979D01*
X92264Y-51007D01*
X92279Y-51050D01*
X92450Y-51221D01*
X92264Y-51221D01*
X92593Y-50021D02*
X92736Y-50021D01*
X92736Y-49721D01*
X92493Y-49864D02*
X92393Y-49864D01*
X92350Y-50021D02*
X92493Y-50021D01*
X92493Y-49721D01*
X92350Y-49721D01*
X92222Y-50021D02*
X92222Y-49721D01*
X92150Y-49721D01*
X92107Y-49736D01*
X92079Y-49764D01*
X92064Y-49793D01*
X92050Y-49850D01*
X92050Y-49893D01*
X92064Y-49950D01*
X92079Y-49979D01*
X92107Y-50007D01*
X92150Y-50021D01*
X92222Y-50021D01*
X84422Y-51221D02*
X84422Y-50921D01*
X84350Y-50921D01*
X84307Y-50936D01*
X84279Y-50964D01*
X84264Y-50993D01*
X84250Y-51050D01*
X84250Y-51093D01*
X84264Y-51150D01*
X84279Y-51179D01*
X84307Y-51207D01*
X84350Y-51221D01*
X84422Y-51221D01*
X83964Y-51221D02*
X84136Y-51221D01*
X84050Y-51221D02*
X84050Y-50921D01*
X84079Y-50964D01*
X84107Y-50993D01*
X84136Y-51007D01*
X84293Y-50021D02*
X84436Y-50021D01*
X84436Y-49721D01*
X84193Y-49864D02*
X84093Y-49864D01*
X84050Y-50021D02*
X84193Y-50021D01*
X84193Y-49721D01*
X84050Y-49721D01*
X83922Y-50021D02*
X83922Y-49721D01*
X83850Y-49721D01*
X83807Y-49736D01*
X83779Y-49764D01*
X83764Y-49793D01*
X83750Y-49850D01*
X83750Y-49893D01*
X83764Y-49950D01*
X83779Y-49979D01*
X83807Y-50007D01*
X83850Y-50021D01*
X83922Y-50021D01*
X86005Y-55610D02*
X86172Y-55372D01*
X86291Y-55610D02*
X86291Y-55110D01*
X86100Y-55110D01*
X86053Y-55134D01*
X86029Y-55158D01*
X86005Y-55206D01*
X86005Y-55277D01*
X86029Y-55325D01*
X86053Y-55348D01*
X86100Y-55372D01*
X86291Y-55372D01*
X85529Y-55610D02*
X85815Y-55610D01*
X85672Y-55610D02*
X85672Y-55110D01*
X85720Y-55182D01*
X85767Y-55229D01*
X85815Y-55253D01*
X85220Y-55110D02*
X85172Y-55110D01*
X85124Y-55134D01*
X85101Y-55158D01*
X85077Y-55206D01*
X85053Y-55301D01*
X85053Y-55420D01*
X85077Y-55515D01*
X85101Y-55563D01*
X85124Y-55587D01*
X85172Y-55610D01*
X85220Y-55610D01*
X85267Y-55587D01*
X85291Y-55563D01*
X85315Y-55515D01*
X85339Y-55420D01*
X85339Y-55301D01*
X85315Y-55206D01*
X85291Y-55158D01*
X85267Y-55134D01*
X85220Y-55110D01*
G54D10*
X89850Y-54821D02*
X89950Y-54679D01*
X90022Y-54821D02*
X90022Y-54521D01*
X89907Y-54521D01*
X89879Y-54536D01*
X89864Y-54550D01*
X89850Y-54579D01*
X89850Y-54621D01*
X89864Y-54650D01*
X89879Y-54664D01*
X89907Y-54679D01*
X90022Y-54679D01*
X89750Y-54521D02*
X89564Y-54521D01*
X89664Y-54636D01*
X89622Y-54636D01*
X89593Y-54650D01*
X89579Y-54664D01*
X89564Y-54693D01*
X89564Y-54764D01*
X89579Y-54793D01*
X89593Y-54807D01*
X89622Y-54821D01*
X89707Y-54821D01*
X89736Y-54807D01*
X89750Y-54793D01*
G54D19*
X85599Y-51294D02*
X85766Y-51056D01*
X85885Y-51294D02*
X85885Y-50794D01*
X85694Y-50794D01*
X85647Y-50818D01*
X85623Y-50842D01*
X85599Y-50890D01*
X85599Y-50961D01*
X85623Y-51009D01*
X85647Y-51032D01*
X85694Y-51056D01*
X85885Y-51056D01*
X85123Y-51294D02*
X85409Y-51294D01*
X85266Y-51294D02*
X85266Y-50794D01*
X85314Y-50866D01*
X85361Y-50913D01*
X85409Y-50937D01*
X84747Y-51701D02*
X84771Y-51677D01*
X84794Y-51606D01*
X84794Y-51558D01*
X84771Y-51486D01*
X84723Y-51439D01*
X84675Y-51415D01*
X84580Y-51391D01*
X84509Y-51391D01*
X84413Y-51415D01*
X84366Y-51439D01*
X84318Y-51486D01*
X84294Y-51558D01*
X84294Y-51606D01*
X84318Y-51677D01*
X84342Y-51701D01*
X84509Y-51986D02*
X84485Y-51939D01*
X84461Y-51915D01*
X84413Y-51891D01*
X84390Y-51891D01*
X84342Y-51915D01*
X84318Y-51939D01*
X84294Y-51986D01*
X84294Y-52082D01*
X84318Y-52129D01*
X84342Y-52153D01*
X84390Y-52177D01*
X84413Y-52177D01*
X84461Y-52153D01*
X84485Y-52129D01*
X84509Y-52082D01*
X84509Y-51986D01*
X84532Y-51939D01*
X84556Y-51915D01*
X84604Y-51891D01*
X84699Y-51891D01*
X84747Y-51915D01*
X84771Y-51939D01*
X84794Y-51986D01*
X84794Y-52082D01*
X84771Y-52129D01*
X84747Y-52153D01*
X84699Y-52177D01*
X84604Y-52177D01*
X84556Y-52153D01*
X84532Y-52129D01*
X84509Y-52082D01*
X83247Y-52401D02*
X83271Y-52377D01*
X83294Y-52306D01*
X83294Y-52258D01*
X83271Y-52186D01*
X83223Y-52139D01*
X83175Y-52115D01*
X83080Y-52091D01*
X83009Y-52091D01*
X82913Y-52115D01*
X82866Y-52139D01*
X82818Y-52186D01*
X82794Y-52258D01*
X82794Y-52306D01*
X82818Y-52377D01*
X82842Y-52401D01*
X82794Y-52567D02*
X82794Y-52901D01*
X83294Y-52686D01*
X83647Y-52401D02*
X83671Y-52377D01*
X83694Y-52306D01*
X83694Y-52258D01*
X83671Y-52186D01*
X83623Y-52139D01*
X83575Y-52115D01*
X83480Y-52091D01*
X83409Y-52091D01*
X83313Y-52115D01*
X83266Y-52139D01*
X83218Y-52186D01*
X83194Y-52258D01*
X83194Y-52306D01*
X83218Y-52377D01*
X83242Y-52401D01*
X83194Y-52829D02*
X83194Y-52734D01*
X83218Y-52686D01*
X83242Y-52663D01*
X83313Y-52615D01*
X83409Y-52591D01*
X83599Y-52591D01*
X83647Y-52615D01*
X83671Y-52639D01*
X83694Y-52686D01*
X83694Y-52782D01*
X83671Y-52829D01*
X83647Y-52853D01*
X83599Y-52877D01*
X83480Y-52877D01*
X83432Y-52853D01*
X83409Y-52829D01*
X83385Y-52782D01*
X83385Y-52686D01*
X83409Y-52639D01*
X83432Y-52615D01*
X83480Y-52591D01*
X86547Y-51701D02*
X86571Y-51677D01*
X86594Y-51606D01*
X86594Y-51558D01*
X86571Y-51486D01*
X86523Y-51439D01*
X86475Y-51415D01*
X86380Y-51391D01*
X86309Y-51391D01*
X86213Y-51415D01*
X86166Y-51439D01*
X86118Y-51486D01*
X86094Y-51558D01*
X86094Y-51606D01*
X86118Y-51677D01*
X86142Y-51701D01*
X86094Y-52153D02*
X86094Y-51915D01*
X86332Y-51891D01*
X86309Y-51915D01*
X86285Y-51963D01*
X86285Y-52082D01*
X86309Y-52129D01*
X86332Y-52153D01*
X86380Y-52177D01*
X86499Y-52177D01*
X86547Y-52153D01*
X86571Y-52129D01*
X86594Y-52082D01*
X86594Y-51963D01*
X86571Y-51915D01*
X86547Y-51891D01*
X86047Y-51701D02*
X86071Y-51677D01*
X86094Y-51606D01*
X86094Y-51558D01*
X86071Y-51486D01*
X86023Y-51439D01*
X85975Y-51415D01*
X85880Y-51391D01*
X85809Y-51391D01*
X85713Y-51415D01*
X85666Y-51439D01*
X85618Y-51486D01*
X85594Y-51558D01*
X85594Y-51606D01*
X85618Y-51677D01*
X85642Y-51701D01*
X85761Y-52129D02*
X86094Y-52129D01*
X85571Y-52010D02*
X85928Y-51891D01*
X85928Y-52201D01*
X82463Y-50933D02*
X82487Y-50909D01*
X82510Y-50838D01*
X82510Y-50790D01*
X82487Y-50718D01*
X82439Y-50671D01*
X82391Y-50647D01*
X82296Y-50623D01*
X82225Y-50623D01*
X82129Y-50647D01*
X82082Y-50671D01*
X82034Y-50718D01*
X82010Y-50790D01*
X82010Y-50838D01*
X82034Y-50909D01*
X82058Y-50933D01*
X82058Y-51123D02*
X82034Y-51147D01*
X82010Y-51195D01*
X82010Y-51314D01*
X82034Y-51361D01*
X82058Y-51385D01*
X82106Y-51409D01*
X82153Y-51409D01*
X82225Y-51385D01*
X82510Y-51099D01*
X82510Y-51409D01*
X82063Y-50933D02*
X82087Y-50909D01*
X82110Y-50838D01*
X82110Y-50790D01*
X82087Y-50718D01*
X82039Y-50671D01*
X81991Y-50647D01*
X81896Y-50623D01*
X81825Y-50623D01*
X81729Y-50647D01*
X81682Y-50671D01*
X81634Y-50718D01*
X81610Y-50790D01*
X81610Y-50838D01*
X81634Y-50909D01*
X81658Y-50933D01*
X82110Y-51409D02*
X82110Y-51123D01*
X82110Y-51266D02*
X81610Y-51266D01*
X81682Y-51218D01*
X81729Y-51171D01*
X81753Y-51123D01*
G54D20*
X89190Y-52202D02*
X89190Y-51702D01*
X88771Y-52155D02*
X88790Y-52179D01*
X88847Y-52202D01*
X88885Y-52202D01*
X88943Y-52179D01*
X88981Y-52131D01*
X89000Y-52083D01*
X89019Y-51988D01*
X89019Y-51917D01*
X89000Y-51821D01*
X88981Y-51774D01*
X88943Y-51726D01*
X88885Y-51702D01*
X88847Y-51702D01*
X88790Y-51726D01*
X88771Y-51750D01*
X88390Y-52202D02*
X88619Y-52202D01*
X88505Y-52202D02*
X88505Y-51702D01*
X88543Y-51774D01*
X88581Y-51821D01*
X88619Y-51845D01*
X90876Y-50810D02*
X90685Y-50810D01*
X90914Y-50952D02*
X90781Y-50452D01*
X90647Y-50952D01*
X90571Y-50452D02*
X90342Y-50452D01*
X90457Y-50952D02*
X90457Y-50452D01*
X90209Y-50952D02*
X90209Y-50452D01*
X90075Y-50810D01*
X89942Y-50452D01*
X89942Y-50952D01*
X89752Y-50690D02*
X89618Y-50690D01*
X89561Y-50952D02*
X89752Y-50952D01*
X89752Y-50452D01*
X89561Y-50452D01*
X89180Y-50476D02*
X89218Y-50452D01*
X89275Y-50452D01*
X89333Y-50476D01*
X89371Y-50524D01*
X89390Y-50571D01*
X89409Y-50667D01*
X89409Y-50738D01*
X89390Y-50833D01*
X89371Y-50881D01*
X89333Y-50929D01*
X89275Y-50952D01*
X89237Y-50952D01*
X89180Y-50929D01*
X89161Y-50905D01*
X89161Y-50738D01*
X89237Y-50738D01*
X89009Y-50810D02*
X88818Y-50810D01*
X89047Y-50952D02*
X88914Y-50452D01*
X88780Y-50952D01*
X88437Y-50952D02*
X88666Y-50952D01*
X88552Y-50952D02*
X88552Y-50452D01*
X88590Y-50524D01*
X88628Y-50571D01*
X88666Y-50595D01*
X88094Y-50452D02*
X88171Y-50452D01*
X88209Y-50476D01*
X88228Y-50500D01*
X88266Y-50571D01*
X88285Y-50667D01*
X88285Y-50857D01*
X88266Y-50905D01*
X88247Y-50929D01*
X88209Y-50952D01*
X88132Y-50952D01*
X88094Y-50929D01*
X88075Y-50905D01*
X88056Y-50857D01*
X88056Y-50738D01*
X88075Y-50690D01*
X88094Y-50667D01*
X88132Y-50643D01*
X88209Y-50643D01*
X88247Y-50667D01*
X88266Y-50690D01*
X88285Y-50738D01*
X87828Y-50667D02*
X87866Y-50643D01*
X87885Y-50619D01*
X87904Y-50571D01*
X87904Y-50548D01*
X87885Y-50500D01*
X87866Y-50476D01*
X87828Y-50452D01*
X87751Y-50452D01*
X87713Y-50476D01*
X87694Y-50500D01*
X87675Y-50548D01*
X87675Y-50571D01*
X87694Y-50619D01*
X87713Y-50643D01*
X87751Y-50667D01*
X87828Y-50667D01*
X87866Y-50690D01*
X87885Y-50714D01*
X87904Y-50762D01*
X87904Y-50857D01*
X87885Y-50905D01*
X87866Y-50929D01*
X87828Y-50952D01*
X87751Y-50952D01*
X87713Y-50929D01*
X87694Y-50905D01*
X87675Y-50857D01*
X87675Y-50762D01*
X87694Y-50714D01*
X87713Y-50690D01*
X87751Y-50667D01*
X87504Y-50762D02*
X87199Y-50762D01*
X87009Y-50952D02*
X87009Y-50452D01*
X86875Y-50810D01*
X86742Y-50452D01*
X86742Y-50952D01*
G54D19*
X73822Y-54221D02*
X73822Y-53921D01*
X73750Y-53921D01*
X73707Y-53936D01*
X73679Y-53964D01*
X73664Y-53993D01*
X73650Y-54050D01*
X73650Y-54093D01*
X73664Y-54150D01*
X73679Y-54179D01*
X73707Y-54207D01*
X73750Y-54221D01*
X73822Y-54221D01*
X73379Y-53921D02*
X73522Y-53921D01*
X73536Y-54064D01*
X73522Y-54050D01*
X73493Y-54036D01*
X73422Y-54036D01*
X73393Y-54050D01*
X73379Y-54064D01*
X73364Y-54093D01*
X73364Y-54164D01*
X73379Y-54193D01*
X73393Y-54207D01*
X73422Y-54221D01*
X73493Y-54221D01*
X73522Y-54207D01*
X73536Y-54193D01*
X73693Y-53021D02*
X73836Y-53021D01*
X73836Y-52721D01*
X73593Y-52864D02*
X73493Y-52864D01*
X73450Y-53021D02*
X73593Y-53021D01*
X73593Y-52721D01*
X73450Y-52721D01*
X73322Y-53021D02*
X73322Y-52721D01*
X73250Y-52721D01*
X73207Y-52736D01*
X73179Y-52764D01*
X73164Y-52793D01*
X73150Y-52850D01*
X73150Y-52893D01*
X73164Y-52950D01*
X73179Y-52979D01*
X73207Y-53007D01*
X73250Y-53021D01*
X73322Y-53021D01*
X73822Y-53221D02*
X73822Y-52921D01*
X73750Y-52921D01*
X73707Y-52936D01*
X73679Y-52964D01*
X73664Y-52993D01*
X73650Y-53050D01*
X73650Y-53093D01*
X73664Y-53150D01*
X73679Y-53179D01*
X73707Y-53207D01*
X73750Y-53221D01*
X73822Y-53221D01*
X73393Y-53021D02*
X73393Y-53221D01*
X73464Y-52907D02*
X73536Y-53121D01*
X73350Y-53121D01*
X73693Y-52021D02*
X73836Y-52021D01*
X73836Y-51721D01*
X73593Y-51864D02*
X73493Y-51864D01*
X73450Y-52021D02*
X73593Y-52021D01*
X73593Y-51721D01*
X73450Y-51721D01*
X73322Y-52021D02*
X73322Y-51721D01*
X73250Y-51721D01*
X73207Y-51736D01*
X73179Y-51764D01*
X73164Y-51793D01*
X73150Y-51850D01*
X73150Y-51893D01*
X73164Y-51950D01*
X73179Y-51979D01*
X73207Y-52007D01*
X73250Y-52021D01*
X73322Y-52021D01*
X73822Y-52221D02*
X73822Y-51921D01*
X73750Y-51921D01*
X73707Y-51936D01*
X73679Y-51964D01*
X73664Y-51993D01*
X73650Y-52050D01*
X73650Y-52093D01*
X73664Y-52150D01*
X73679Y-52179D01*
X73707Y-52207D01*
X73750Y-52221D01*
X73822Y-52221D01*
X73550Y-51921D02*
X73364Y-51921D01*
X73464Y-52036D01*
X73422Y-52036D01*
X73393Y-52050D01*
X73379Y-52064D01*
X73364Y-52093D01*
X73364Y-52164D01*
X73379Y-52193D01*
X73393Y-52207D01*
X73422Y-52221D01*
X73507Y-52221D01*
X73536Y-52207D01*
X73550Y-52193D01*
X73693Y-51021D02*
X73836Y-51021D01*
X73836Y-50721D01*
X73593Y-50864D02*
X73493Y-50864D01*
X73450Y-51021D02*
X73593Y-51021D01*
X73593Y-50721D01*
X73450Y-50721D01*
X73322Y-51021D02*
X73322Y-50721D01*
X73250Y-50721D01*
X73207Y-50736D01*
X73179Y-50764D01*
X73164Y-50793D01*
X73150Y-50850D01*
X73150Y-50893D01*
X73164Y-50950D01*
X73179Y-50979D01*
X73207Y-51007D01*
X73250Y-51021D01*
X73322Y-51021D01*
X73822Y-51221D02*
X73822Y-50921D01*
X73750Y-50921D01*
X73707Y-50936D01*
X73679Y-50964D01*
X73664Y-50993D01*
X73650Y-51050D01*
X73650Y-51093D01*
X73664Y-51150D01*
X73679Y-51179D01*
X73707Y-51207D01*
X73750Y-51221D01*
X73822Y-51221D01*
X73536Y-50950D02*
X73522Y-50936D01*
X73493Y-50921D01*
X73422Y-50921D01*
X73393Y-50936D01*
X73379Y-50950D01*
X73364Y-50979D01*
X73364Y-51007D01*
X73379Y-51050D01*
X73550Y-51221D01*
X73364Y-51221D01*
X73693Y-50021D02*
X73836Y-50021D01*
X73836Y-49721D01*
X73593Y-49864D02*
X73493Y-49864D01*
X73450Y-50021D02*
X73593Y-50021D01*
X73593Y-49721D01*
X73450Y-49721D01*
X73322Y-50021D02*
X73322Y-49721D01*
X73250Y-49721D01*
X73207Y-49736D01*
X73179Y-49764D01*
X73164Y-49793D01*
X73150Y-49850D01*
X73150Y-49893D01*
X73164Y-49950D01*
X73179Y-49979D01*
X73207Y-50007D01*
X73250Y-50021D01*
X73322Y-50021D01*
X65522Y-51221D02*
X65522Y-50921D01*
X65450Y-50921D01*
X65407Y-50936D01*
X65379Y-50964D01*
X65364Y-50993D01*
X65350Y-51050D01*
X65350Y-51093D01*
X65364Y-51150D01*
X65379Y-51179D01*
X65407Y-51207D01*
X65450Y-51221D01*
X65522Y-51221D01*
X65064Y-51221D02*
X65236Y-51221D01*
X65150Y-51221D02*
X65150Y-50921D01*
X65179Y-50964D01*
X65207Y-50993D01*
X65236Y-51007D01*
X65393Y-50021D02*
X65536Y-50021D01*
X65536Y-49721D01*
X65293Y-49864D02*
X65193Y-49864D01*
X65150Y-50021D02*
X65293Y-50021D01*
X65293Y-49721D01*
X65150Y-49721D01*
X65022Y-50021D02*
X65022Y-49721D01*
X64950Y-49721D01*
X64907Y-49736D01*
X64879Y-49764D01*
X64864Y-49793D01*
X64850Y-49850D01*
X64850Y-49893D01*
X64864Y-49950D01*
X64879Y-49979D01*
X64907Y-50007D01*
X64950Y-50021D01*
X65022Y-50021D01*
X67105Y-55610D02*
X67272Y-55372D01*
X67391Y-55610D02*
X67391Y-55110D01*
X67200Y-55110D01*
X67153Y-55134D01*
X67129Y-55158D01*
X67105Y-55206D01*
X67105Y-55277D01*
X67129Y-55325D01*
X67153Y-55348D01*
X67200Y-55372D01*
X67391Y-55372D01*
X66629Y-55610D02*
X66915Y-55610D01*
X66772Y-55610D02*
X66772Y-55110D01*
X66820Y-55182D01*
X66867Y-55229D01*
X66915Y-55253D01*
X66320Y-55110D02*
X66272Y-55110D01*
X66224Y-55134D01*
X66201Y-55158D01*
X66177Y-55206D01*
X66153Y-55301D01*
X66153Y-55420D01*
X66177Y-55515D01*
X66201Y-55563D01*
X66224Y-55587D01*
X66272Y-55610D01*
X66320Y-55610D01*
X66367Y-55587D01*
X66391Y-55563D01*
X66415Y-55515D01*
X66439Y-55420D01*
X66439Y-55301D01*
X66415Y-55206D01*
X66391Y-55158D01*
X66367Y-55134D01*
X66320Y-55110D01*
G54D10*
X70950Y-54821D02*
X71050Y-54679D01*
X71122Y-54821D02*
X71122Y-54521D01*
X71007Y-54521D01*
X70979Y-54536D01*
X70964Y-54550D01*
X70950Y-54579D01*
X70950Y-54621D01*
X70964Y-54650D01*
X70979Y-54664D01*
X71007Y-54679D01*
X71122Y-54679D01*
X70850Y-54521D02*
X70664Y-54521D01*
X70764Y-54636D01*
X70722Y-54636D01*
X70693Y-54650D01*
X70679Y-54664D01*
X70664Y-54693D01*
X70664Y-54764D01*
X70679Y-54793D01*
X70693Y-54807D01*
X70722Y-54821D01*
X70807Y-54821D01*
X70836Y-54807D01*
X70850Y-54793D01*
G54D19*
X66699Y-51294D02*
X66866Y-51056D01*
X66985Y-51294D02*
X66985Y-50794D01*
X66794Y-50794D01*
X66747Y-50818D01*
X66723Y-50842D01*
X66699Y-50890D01*
X66699Y-50961D01*
X66723Y-51009D01*
X66747Y-51032D01*
X66794Y-51056D01*
X66985Y-51056D01*
X66223Y-51294D02*
X66509Y-51294D01*
X66366Y-51294D02*
X66366Y-50794D01*
X66414Y-50866D01*
X66461Y-50913D01*
X66509Y-50937D01*
X65847Y-51701D02*
X65871Y-51677D01*
X65894Y-51606D01*
X65894Y-51558D01*
X65871Y-51486D01*
X65823Y-51439D01*
X65775Y-51415D01*
X65680Y-51391D01*
X65609Y-51391D01*
X65513Y-51415D01*
X65466Y-51439D01*
X65418Y-51486D01*
X65394Y-51558D01*
X65394Y-51606D01*
X65418Y-51677D01*
X65442Y-51701D01*
X65609Y-51986D02*
X65585Y-51939D01*
X65561Y-51915D01*
X65513Y-51891D01*
X65490Y-51891D01*
X65442Y-51915D01*
X65418Y-51939D01*
X65394Y-51986D01*
X65394Y-52082D01*
X65418Y-52129D01*
X65442Y-52153D01*
X65490Y-52177D01*
X65513Y-52177D01*
X65561Y-52153D01*
X65585Y-52129D01*
X65609Y-52082D01*
X65609Y-51986D01*
X65632Y-51939D01*
X65656Y-51915D01*
X65704Y-51891D01*
X65799Y-51891D01*
X65847Y-51915D01*
X65871Y-51939D01*
X65894Y-51986D01*
X65894Y-52082D01*
X65871Y-52129D01*
X65847Y-52153D01*
X65799Y-52177D01*
X65704Y-52177D01*
X65656Y-52153D01*
X65632Y-52129D01*
X65609Y-52082D01*
X64347Y-52401D02*
X64371Y-52377D01*
X64394Y-52306D01*
X64394Y-52258D01*
X64371Y-52186D01*
X64323Y-52139D01*
X64275Y-52115D01*
X64180Y-52091D01*
X64109Y-52091D01*
X64013Y-52115D01*
X63966Y-52139D01*
X63918Y-52186D01*
X63894Y-52258D01*
X63894Y-52306D01*
X63918Y-52377D01*
X63942Y-52401D01*
X63894Y-52567D02*
X63894Y-52901D01*
X64394Y-52686D01*
X64747Y-52401D02*
X64771Y-52377D01*
X64794Y-52306D01*
X64794Y-52258D01*
X64771Y-52186D01*
X64723Y-52139D01*
X64675Y-52115D01*
X64580Y-52091D01*
X64509Y-52091D01*
X64413Y-52115D01*
X64366Y-52139D01*
X64318Y-52186D01*
X64294Y-52258D01*
X64294Y-52306D01*
X64318Y-52377D01*
X64342Y-52401D01*
X64294Y-52829D02*
X64294Y-52734D01*
X64318Y-52686D01*
X64342Y-52663D01*
X64413Y-52615D01*
X64509Y-52591D01*
X64699Y-52591D01*
X64747Y-52615D01*
X64771Y-52639D01*
X64794Y-52686D01*
X64794Y-52782D01*
X64771Y-52829D01*
X64747Y-52853D01*
X64699Y-52877D01*
X64580Y-52877D01*
X64532Y-52853D01*
X64509Y-52829D01*
X64485Y-52782D01*
X64485Y-52686D01*
X64509Y-52639D01*
X64532Y-52615D01*
X64580Y-52591D01*
X67647Y-51701D02*
X67671Y-51677D01*
X67694Y-51606D01*
X67694Y-51558D01*
X67671Y-51486D01*
X67623Y-51439D01*
X67575Y-51415D01*
X67480Y-51391D01*
X67409Y-51391D01*
X67313Y-51415D01*
X67266Y-51439D01*
X67218Y-51486D01*
X67194Y-51558D01*
X67194Y-51606D01*
X67218Y-51677D01*
X67242Y-51701D01*
X67194Y-52153D02*
X67194Y-51915D01*
X67432Y-51891D01*
X67409Y-51915D01*
X67385Y-51963D01*
X67385Y-52082D01*
X67409Y-52129D01*
X67432Y-52153D01*
X67480Y-52177D01*
X67599Y-52177D01*
X67647Y-52153D01*
X67671Y-52129D01*
X67694Y-52082D01*
X67694Y-51963D01*
X67671Y-51915D01*
X67647Y-51891D01*
X67147Y-51701D02*
X67171Y-51677D01*
X67194Y-51606D01*
X67194Y-51558D01*
X67171Y-51486D01*
X67123Y-51439D01*
X67075Y-51415D01*
X66980Y-51391D01*
X66909Y-51391D01*
X66813Y-51415D01*
X66766Y-51439D01*
X66718Y-51486D01*
X66694Y-51558D01*
X66694Y-51606D01*
X66718Y-51677D01*
X66742Y-51701D01*
X66861Y-52129D02*
X67194Y-52129D01*
X66671Y-52010D02*
X67028Y-51891D01*
X67028Y-52201D01*
X63563Y-50933D02*
X63587Y-50909D01*
X63610Y-50838D01*
X63610Y-50790D01*
X63587Y-50718D01*
X63539Y-50671D01*
X63491Y-50647D01*
X63396Y-50623D01*
X63325Y-50623D01*
X63229Y-50647D01*
X63182Y-50671D01*
X63134Y-50718D01*
X63110Y-50790D01*
X63110Y-50838D01*
X63134Y-50909D01*
X63158Y-50933D01*
X63158Y-51123D02*
X63134Y-51147D01*
X63110Y-51195D01*
X63110Y-51314D01*
X63134Y-51361D01*
X63158Y-51385D01*
X63206Y-51409D01*
X63253Y-51409D01*
X63325Y-51385D01*
X63610Y-51099D01*
X63610Y-51409D01*
X63163Y-50933D02*
X63187Y-50909D01*
X63210Y-50838D01*
X63210Y-50790D01*
X63187Y-50718D01*
X63139Y-50671D01*
X63091Y-50647D01*
X62996Y-50623D01*
X62925Y-50623D01*
X62829Y-50647D01*
X62782Y-50671D01*
X62734Y-50718D01*
X62710Y-50790D01*
X62710Y-50838D01*
X62734Y-50909D01*
X62758Y-50933D01*
X63210Y-51409D02*
X63210Y-51123D01*
X63210Y-51266D02*
X62710Y-51266D01*
X62782Y-51218D01*
X62829Y-51171D01*
X62853Y-51123D01*
G54D20*
X70290Y-52202D02*
X70290Y-51702D01*
X69871Y-52155D02*
X69890Y-52179D01*
X69947Y-52202D01*
X69985Y-52202D01*
X70043Y-52179D01*
X70081Y-52131D01*
X70100Y-52083D01*
X70119Y-51988D01*
X70119Y-51917D01*
X70100Y-51821D01*
X70081Y-51774D01*
X70043Y-51726D01*
X69985Y-51702D01*
X69947Y-51702D01*
X69890Y-51726D01*
X69871Y-51750D01*
X69490Y-52202D02*
X69719Y-52202D01*
X69605Y-52202D02*
X69605Y-51702D01*
X69643Y-51774D01*
X69681Y-51821D01*
X69719Y-51845D01*
X71976Y-50810D02*
X71785Y-50810D01*
X72014Y-50952D02*
X71881Y-50452D01*
X71747Y-50952D01*
X71671Y-50452D02*
X71442Y-50452D01*
X71557Y-50952D02*
X71557Y-50452D01*
X71309Y-50952D02*
X71309Y-50452D01*
X71175Y-50810D01*
X71042Y-50452D01*
X71042Y-50952D01*
X70852Y-50690D02*
X70718Y-50690D01*
X70661Y-50952D02*
X70852Y-50952D01*
X70852Y-50452D01*
X70661Y-50452D01*
X70280Y-50476D02*
X70318Y-50452D01*
X70375Y-50452D01*
X70433Y-50476D01*
X70471Y-50524D01*
X70490Y-50571D01*
X70509Y-50667D01*
X70509Y-50738D01*
X70490Y-50833D01*
X70471Y-50881D01*
X70433Y-50929D01*
X70375Y-50952D01*
X70337Y-50952D01*
X70280Y-50929D01*
X70261Y-50905D01*
X70261Y-50738D01*
X70337Y-50738D01*
X70109Y-50810D02*
X69918Y-50810D01*
X70147Y-50952D02*
X70014Y-50452D01*
X69880Y-50952D01*
X69537Y-50952D02*
X69766Y-50952D01*
X69652Y-50952D02*
X69652Y-50452D01*
X69690Y-50524D01*
X69728Y-50571D01*
X69766Y-50595D01*
X69194Y-50452D02*
X69271Y-50452D01*
X69309Y-50476D01*
X69328Y-50500D01*
X69366Y-50571D01*
X69385Y-50667D01*
X69385Y-50857D01*
X69366Y-50905D01*
X69347Y-50929D01*
X69309Y-50952D01*
X69232Y-50952D01*
X69194Y-50929D01*
X69175Y-50905D01*
X69156Y-50857D01*
X69156Y-50738D01*
X69175Y-50690D01*
X69194Y-50667D01*
X69232Y-50643D01*
X69309Y-50643D01*
X69347Y-50667D01*
X69366Y-50690D01*
X69385Y-50738D01*
X68928Y-50667D02*
X68966Y-50643D01*
X68985Y-50619D01*
X69004Y-50571D01*
X69004Y-50548D01*
X68985Y-50500D01*
X68966Y-50476D01*
X68928Y-50452D01*
X68851Y-50452D01*
X68813Y-50476D01*
X68794Y-50500D01*
X68775Y-50548D01*
X68775Y-50571D01*
X68794Y-50619D01*
X68813Y-50643D01*
X68851Y-50667D01*
X68928Y-50667D01*
X68966Y-50690D01*
X68985Y-50714D01*
X69004Y-50762D01*
X69004Y-50857D01*
X68985Y-50905D01*
X68966Y-50929D01*
X68928Y-50952D01*
X68851Y-50952D01*
X68813Y-50929D01*
X68794Y-50905D01*
X68775Y-50857D01*
X68775Y-50762D01*
X68794Y-50714D01*
X68813Y-50690D01*
X68851Y-50667D01*
X68604Y-50762D02*
X68299Y-50762D01*
X68109Y-50952D02*
X68109Y-50452D01*
X67975Y-50810D01*
X67842Y-50452D01*
X67842Y-50952D01*
G54D19*
X53422Y-54221D02*
X53422Y-53921D01*
X53350Y-53921D01*
X53307Y-53936D01*
X53279Y-53964D01*
X53264Y-53993D01*
X53250Y-54050D01*
X53250Y-54093D01*
X53264Y-54150D01*
X53279Y-54179D01*
X53307Y-54207D01*
X53350Y-54221D01*
X53422Y-54221D01*
X52979Y-53921D02*
X53122Y-53921D01*
X53136Y-54064D01*
X53122Y-54050D01*
X53093Y-54036D01*
X53022Y-54036D01*
X52993Y-54050D01*
X52979Y-54064D01*
X52964Y-54093D01*
X52964Y-54164D01*
X52979Y-54193D01*
X52993Y-54207D01*
X53022Y-54221D01*
X53093Y-54221D01*
X53122Y-54207D01*
X53136Y-54193D01*
X53293Y-53021D02*
X53436Y-53021D01*
X53436Y-52721D01*
X53193Y-52864D02*
X53093Y-52864D01*
X53050Y-53021D02*
X53193Y-53021D01*
X53193Y-52721D01*
X53050Y-52721D01*
X52922Y-53021D02*
X52922Y-52721D01*
X52850Y-52721D01*
X52807Y-52736D01*
X52779Y-52764D01*
X52764Y-52793D01*
X52750Y-52850D01*
X52750Y-52893D01*
X52764Y-52950D01*
X52779Y-52979D01*
X52807Y-53007D01*
X52850Y-53021D01*
X52922Y-53021D01*
X53422Y-53221D02*
X53422Y-52921D01*
X53350Y-52921D01*
X53307Y-52936D01*
X53279Y-52964D01*
X53264Y-52993D01*
X53250Y-53050D01*
X53250Y-53093D01*
X53264Y-53150D01*
X53279Y-53179D01*
X53307Y-53207D01*
X53350Y-53221D01*
X53422Y-53221D01*
X52993Y-53021D02*
X52993Y-53221D01*
X53064Y-52907D02*
X53136Y-53121D01*
X52950Y-53121D01*
X53293Y-52021D02*
X53436Y-52021D01*
X53436Y-51721D01*
X53193Y-51864D02*
X53093Y-51864D01*
X53050Y-52021D02*
X53193Y-52021D01*
X53193Y-51721D01*
X53050Y-51721D01*
X52922Y-52021D02*
X52922Y-51721D01*
X52850Y-51721D01*
X52807Y-51736D01*
X52779Y-51764D01*
X52764Y-51793D01*
X52750Y-51850D01*
X52750Y-51893D01*
X52764Y-51950D01*
X52779Y-51979D01*
X52807Y-52007D01*
X52850Y-52021D01*
X52922Y-52021D01*
X53422Y-52221D02*
X53422Y-51921D01*
X53350Y-51921D01*
X53307Y-51936D01*
X53279Y-51964D01*
X53264Y-51993D01*
X53250Y-52050D01*
X53250Y-52093D01*
X53264Y-52150D01*
X53279Y-52179D01*
X53307Y-52207D01*
X53350Y-52221D01*
X53422Y-52221D01*
X53150Y-51921D02*
X52964Y-51921D01*
X53064Y-52036D01*
X53022Y-52036D01*
X52993Y-52050D01*
X52979Y-52064D01*
X52964Y-52093D01*
X52964Y-52164D01*
X52979Y-52193D01*
X52993Y-52207D01*
X53022Y-52221D01*
X53107Y-52221D01*
X53136Y-52207D01*
X53150Y-52193D01*
X53293Y-51021D02*
X53436Y-51021D01*
X53436Y-50721D01*
X53193Y-50864D02*
X53093Y-50864D01*
X53050Y-51021D02*
X53193Y-51021D01*
X53193Y-50721D01*
X53050Y-50721D01*
X52922Y-51021D02*
X52922Y-50721D01*
X52850Y-50721D01*
X52807Y-50736D01*
X52779Y-50764D01*
X52764Y-50793D01*
X52750Y-50850D01*
X52750Y-50893D01*
X52764Y-50950D01*
X52779Y-50979D01*
X52807Y-51007D01*
X52850Y-51021D01*
X52922Y-51021D01*
X53422Y-51221D02*
X53422Y-50921D01*
X53350Y-50921D01*
X53307Y-50936D01*
X53279Y-50964D01*
X53264Y-50993D01*
X53250Y-51050D01*
X53250Y-51093D01*
X53264Y-51150D01*
X53279Y-51179D01*
X53307Y-51207D01*
X53350Y-51221D01*
X53422Y-51221D01*
X53136Y-50950D02*
X53122Y-50936D01*
X53093Y-50921D01*
X53022Y-50921D01*
X52993Y-50936D01*
X52979Y-50950D01*
X52964Y-50979D01*
X52964Y-51007D01*
X52979Y-51050D01*
X53150Y-51221D01*
X52964Y-51221D01*
X53293Y-50021D02*
X53436Y-50021D01*
X53436Y-49721D01*
X53193Y-49864D02*
X53093Y-49864D01*
X53050Y-50021D02*
X53193Y-50021D01*
X53193Y-49721D01*
X53050Y-49721D01*
X52922Y-50021D02*
X52922Y-49721D01*
X52850Y-49721D01*
X52807Y-49736D01*
X52779Y-49764D01*
X52764Y-49793D01*
X52750Y-49850D01*
X52750Y-49893D01*
X52764Y-49950D01*
X52779Y-49979D01*
X52807Y-50007D01*
X52850Y-50021D01*
X52922Y-50021D01*
X45122Y-51221D02*
X45122Y-50921D01*
X45050Y-50921D01*
X45007Y-50936D01*
X44979Y-50964D01*
X44964Y-50993D01*
X44950Y-51050D01*
X44950Y-51093D01*
X44964Y-51150D01*
X44979Y-51179D01*
X45007Y-51207D01*
X45050Y-51221D01*
X45122Y-51221D01*
X44664Y-51221D02*
X44836Y-51221D01*
X44750Y-51221D02*
X44750Y-50921D01*
X44779Y-50964D01*
X44807Y-50993D01*
X44836Y-51007D01*
X44993Y-50021D02*
X45136Y-50021D01*
X45136Y-49721D01*
X44893Y-49864D02*
X44793Y-49864D01*
X44750Y-50021D02*
X44893Y-50021D01*
X44893Y-49721D01*
X44750Y-49721D01*
X44622Y-50021D02*
X44622Y-49721D01*
X44550Y-49721D01*
X44507Y-49736D01*
X44479Y-49764D01*
X44464Y-49793D01*
X44450Y-49850D01*
X44450Y-49893D01*
X44464Y-49950D01*
X44479Y-49979D01*
X44507Y-50007D01*
X44550Y-50021D01*
X44622Y-50021D01*
X46705Y-55610D02*
X46872Y-55372D01*
X46991Y-55610D02*
X46991Y-55110D01*
X46800Y-55110D01*
X46753Y-55134D01*
X46729Y-55158D01*
X46705Y-55206D01*
X46705Y-55277D01*
X46729Y-55325D01*
X46753Y-55348D01*
X46800Y-55372D01*
X46991Y-55372D01*
X46229Y-55610D02*
X46515Y-55610D01*
X46372Y-55610D02*
X46372Y-55110D01*
X46420Y-55182D01*
X46467Y-55229D01*
X46515Y-55253D01*
X45920Y-55110D02*
X45872Y-55110D01*
X45824Y-55134D01*
X45801Y-55158D01*
X45777Y-55206D01*
X45753Y-55301D01*
X45753Y-55420D01*
X45777Y-55515D01*
X45801Y-55563D01*
X45824Y-55587D01*
X45872Y-55610D01*
X45920Y-55610D01*
X45967Y-55587D01*
X45991Y-55563D01*
X46015Y-55515D01*
X46039Y-55420D01*
X46039Y-55301D01*
X46015Y-55206D01*
X45991Y-55158D01*
X45967Y-55134D01*
X45920Y-55110D01*
G54D10*
X50550Y-54821D02*
X50650Y-54679D01*
X50722Y-54821D02*
X50722Y-54521D01*
X50607Y-54521D01*
X50579Y-54536D01*
X50564Y-54550D01*
X50550Y-54579D01*
X50550Y-54621D01*
X50564Y-54650D01*
X50579Y-54664D01*
X50607Y-54679D01*
X50722Y-54679D01*
X50450Y-54521D02*
X50264Y-54521D01*
X50364Y-54636D01*
X50322Y-54636D01*
X50293Y-54650D01*
X50279Y-54664D01*
X50264Y-54693D01*
X50264Y-54764D01*
X50279Y-54793D01*
X50293Y-54807D01*
X50322Y-54821D01*
X50407Y-54821D01*
X50436Y-54807D01*
X50450Y-54793D01*
G54D19*
X46299Y-51294D02*
X46466Y-51056D01*
X46585Y-51294D02*
X46585Y-50794D01*
X46394Y-50794D01*
X46347Y-50818D01*
X46323Y-50842D01*
X46299Y-50890D01*
X46299Y-50961D01*
X46323Y-51009D01*
X46347Y-51032D01*
X46394Y-51056D01*
X46585Y-51056D01*
X45823Y-51294D02*
X46109Y-51294D01*
X45966Y-51294D02*
X45966Y-50794D01*
X46014Y-50866D01*
X46061Y-50913D01*
X46109Y-50937D01*
X45447Y-51701D02*
X45471Y-51677D01*
X45494Y-51606D01*
X45494Y-51558D01*
X45471Y-51486D01*
X45423Y-51439D01*
X45375Y-51415D01*
X45280Y-51391D01*
X45209Y-51391D01*
X45113Y-51415D01*
X45066Y-51439D01*
X45018Y-51486D01*
X44994Y-51558D01*
X44994Y-51606D01*
X45018Y-51677D01*
X45042Y-51701D01*
X45209Y-51986D02*
X45185Y-51939D01*
X45161Y-51915D01*
X45113Y-51891D01*
X45090Y-51891D01*
X45042Y-51915D01*
X45018Y-51939D01*
X44994Y-51986D01*
X44994Y-52082D01*
X45018Y-52129D01*
X45042Y-52153D01*
X45090Y-52177D01*
X45113Y-52177D01*
X45161Y-52153D01*
X45185Y-52129D01*
X45209Y-52082D01*
X45209Y-51986D01*
X45232Y-51939D01*
X45256Y-51915D01*
X45304Y-51891D01*
X45399Y-51891D01*
X45447Y-51915D01*
X45471Y-51939D01*
X45494Y-51986D01*
X45494Y-52082D01*
X45471Y-52129D01*
X45447Y-52153D01*
X45399Y-52177D01*
X45304Y-52177D01*
X45256Y-52153D01*
X45232Y-52129D01*
X45209Y-52082D01*
X43947Y-52401D02*
X43971Y-52377D01*
X43994Y-52306D01*
X43994Y-52258D01*
X43971Y-52186D01*
X43923Y-52139D01*
X43875Y-52115D01*
X43780Y-52091D01*
X43709Y-52091D01*
X43613Y-52115D01*
X43566Y-52139D01*
X43518Y-52186D01*
X43494Y-52258D01*
X43494Y-52306D01*
X43518Y-52377D01*
X43542Y-52401D01*
X43494Y-52567D02*
X43494Y-52901D01*
X43994Y-52686D01*
X44347Y-52401D02*
X44371Y-52377D01*
X44394Y-52306D01*
X44394Y-52258D01*
X44371Y-52186D01*
X44323Y-52139D01*
X44275Y-52115D01*
X44180Y-52091D01*
X44109Y-52091D01*
X44013Y-52115D01*
X43966Y-52139D01*
X43918Y-52186D01*
X43894Y-52258D01*
X43894Y-52306D01*
X43918Y-52377D01*
X43942Y-52401D01*
X43894Y-52829D02*
X43894Y-52734D01*
X43918Y-52686D01*
X43942Y-52663D01*
X44013Y-52615D01*
X44109Y-52591D01*
X44299Y-52591D01*
X44347Y-52615D01*
X44371Y-52639D01*
X44394Y-52686D01*
X44394Y-52782D01*
X44371Y-52829D01*
X44347Y-52853D01*
X44299Y-52877D01*
X44180Y-52877D01*
X44132Y-52853D01*
X44109Y-52829D01*
X44085Y-52782D01*
X44085Y-52686D01*
X44109Y-52639D01*
X44132Y-52615D01*
X44180Y-52591D01*
X47247Y-51701D02*
X47271Y-51677D01*
X47294Y-51606D01*
X47294Y-51558D01*
X47271Y-51486D01*
X47223Y-51439D01*
X47175Y-51415D01*
X47080Y-51391D01*
X47009Y-51391D01*
X46913Y-51415D01*
X46866Y-51439D01*
X46818Y-51486D01*
X46794Y-51558D01*
X46794Y-51606D01*
X46818Y-51677D01*
X46842Y-51701D01*
X46794Y-52153D02*
X46794Y-51915D01*
X47032Y-51891D01*
X47009Y-51915D01*
X46985Y-51963D01*
X46985Y-52082D01*
X47009Y-52129D01*
X47032Y-52153D01*
X47080Y-52177D01*
X47199Y-52177D01*
X47247Y-52153D01*
X47271Y-52129D01*
X47294Y-52082D01*
X47294Y-51963D01*
X47271Y-51915D01*
X47247Y-51891D01*
X46747Y-51701D02*
X46771Y-51677D01*
X46794Y-51606D01*
X46794Y-51558D01*
X46771Y-51486D01*
X46723Y-51439D01*
X46675Y-51415D01*
X46580Y-51391D01*
X46509Y-51391D01*
X46413Y-51415D01*
X46366Y-51439D01*
X46318Y-51486D01*
X46294Y-51558D01*
X46294Y-51606D01*
X46318Y-51677D01*
X46342Y-51701D01*
X46461Y-52129D02*
X46794Y-52129D01*
X46271Y-52010D02*
X46628Y-51891D01*
X46628Y-52201D01*
X43163Y-50933D02*
X43187Y-50909D01*
X43210Y-50838D01*
X43210Y-50790D01*
X43187Y-50718D01*
X43139Y-50671D01*
X43091Y-50647D01*
X42996Y-50623D01*
X42925Y-50623D01*
X42829Y-50647D01*
X42782Y-50671D01*
X42734Y-50718D01*
X42710Y-50790D01*
X42710Y-50838D01*
X42734Y-50909D01*
X42758Y-50933D01*
X42758Y-51123D02*
X42734Y-51147D01*
X42710Y-51195D01*
X42710Y-51314D01*
X42734Y-51361D01*
X42758Y-51385D01*
X42806Y-51409D01*
X42853Y-51409D01*
X42925Y-51385D01*
X43210Y-51099D01*
X43210Y-51409D01*
X42763Y-50933D02*
X42787Y-50909D01*
X42810Y-50838D01*
X42810Y-50790D01*
X42787Y-50718D01*
X42739Y-50671D01*
X42691Y-50647D01*
X42596Y-50623D01*
X42525Y-50623D01*
X42429Y-50647D01*
X42382Y-50671D01*
X42334Y-50718D01*
X42310Y-50790D01*
X42310Y-50838D01*
X42334Y-50909D01*
X42358Y-50933D01*
X42810Y-51409D02*
X42810Y-51123D01*
X42810Y-51266D02*
X42310Y-51266D01*
X42382Y-51218D01*
X42429Y-51171D01*
X42453Y-51123D01*
G54D20*
X49890Y-52202D02*
X49890Y-51702D01*
X49471Y-52155D02*
X49490Y-52179D01*
X49547Y-52202D01*
X49585Y-52202D01*
X49643Y-52179D01*
X49681Y-52131D01*
X49700Y-52083D01*
X49719Y-51988D01*
X49719Y-51917D01*
X49700Y-51821D01*
X49681Y-51774D01*
X49643Y-51726D01*
X49585Y-51702D01*
X49547Y-51702D01*
X49490Y-51726D01*
X49471Y-51750D01*
X49090Y-52202D02*
X49319Y-52202D01*
X49205Y-52202D02*
X49205Y-51702D01*
X49243Y-51774D01*
X49281Y-51821D01*
X49319Y-51845D01*
X51576Y-50810D02*
X51385Y-50810D01*
X51614Y-50952D02*
X51481Y-50452D01*
X51347Y-50952D01*
X51271Y-50452D02*
X51042Y-50452D01*
X51157Y-50952D02*
X51157Y-50452D01*
X50909Y-50952D02*
X50909Y-50452D01*
X50775Y-50810D01*
X50642Y-50452D01*
X50642Y-50952D01*
X50452Y-50690D02*
X50318Y-50690D01*
X50261Y-50952D02*
X50452Y-50952D01*
X50452Y-50452D01*
X50261Y-50452D01*
X49880Y-50476D02*
X49918Y-50452D01*
X49975Y-50452D01*
X50033Y-50476D01*
X50071Y-50524D01*
X50090Y-50571D01*
X50109Y-50667D01*
X50109Y-50738D01*
X50090Y-50833D01*
X50071Y-50881D01*
X50033Y-50929D01*
X49975Y-50952D01*
X49937Y-50952D01*
X49880Y-50929D01*
X49861Y-50905D01*
X49861Y-50738D01*
X49937Y-50738D01*
X49709Y-50810D02*
X49518Y-50810D01*
X49747Y-50952D02*
X49614Y-50452D01*
X49480Y-50952D01*
X49137Y-50952D02*
X49366Y-50952D01*
X49252Y-50952D02*
X49252Y-50452D01*
X49290Y-50524D01*
X49328Y-50571D01*
X49366Y-50595D01*
X48794Y-50452D02*
X48871Y-50452D01*
X48909Y-50476D01*
X48928Y-50500D01*
X48966Y-50571D01*
X48985Y-50667D01*
X48985Y-50857D01*
X48966Y-50905D01*
X48947Y-50929D01*
X48909Y-50952D01*
X48832Y-50952D01*
X48794Y-50929D01*
X48775Y-50905D01*
X48756Y-50857D01*
X48756Y-50738D01*
X48775Y-50690D01*
X48794Y-50667D01*
X48832Y-50643D01*
X48909Y-50643D01*
X48947Y-50667D01*
X48966Y-50690D01*
X48985Y-50738D01*
X48528Y-50667D02*
X48566Y-50643D01*
X48585Y-50619D01*
X48604Y-50571D01*
X48604Y-50548D01*
X48585Y-50500D01*
X48566Y-50476D01*
X48528Y-50452D01*
X48451Y-50452D01*
X48413Y-50476D01*
X48394Y-50500D01*
X48375Y-50548D01*
X48375Y-50571D01*
X48394Y-50619D01*
X48413Y-50643D01*
X48451Y-50667D01*
X48528Y-50667D01*
X48566Y-50690D01*
X48585Y-50714D01*
X48604Y-50762D01*
X48604Y-50857D01*
X48585Y-50905D01*
X48566Y-50929D01*
X48528Y-50952D01*
X48451Y-50952D01*
X48413Y-50929D01*
X48394Y-50905D01*
X48375Y-50857D01*
X48375Y-50762D01*
X48394Y-50714D01*
X48413Y-50690D01*
X48451Y-50667D01*
X48204Y-50762D02*
X47899Y-50762D01*
X47709Y-50952D02*
X47709Y-50452D01*
X47575Y-50810D01*
X47442Y-50452D01*
X47442Y-50952D01*
M02*
