M48
;DRILL file {PCBnew (2011-07-08)-stable} date Thu 21 Jul 2011 06:08:52 PM EDT
;FORMAT={-:-/ absolute / inch / decimal}
FMAT,2
INCH,TZ
T1C0.025
T2C0.032
T3C0.035
T4C0.036
T5C0.128
%
G90
G05
M72
T1
X2.470Y2.319
X2.470Y3.619
X2.470Y4.919
X2.786Y2.112
X2.786Y3.412
X2.786Y4.712
X2.996Y2.240
X2.996Y3.540
X2.996Y4.840
X3.004Y2.323
X3.004Y3.623
X3.004Y4.923
X3.260Y2.010
X3.260Y2.390
X3.260Y3.310
X3.260Y3.690
X3.260Y4.610
X3.260Y4.990
X3.485Y2.228
X3.485Y3.528
X3.485Y4.828
X3.920Y2.319
X3.920Y3.619
X3.920Y4.919
X4.236Y2.112
X4.236Y3.412
X4.236Y4.712
X4.446Y2.240
X4.446Y3.540
X4.446Y4.840
X4.454Y2.323
X4.454Y3.623
X4.454Y4.923
X4.710Y2.010
X4.710Y2.390
X4.710Y3.310
X4.710Y3.690
X4.710Y4.610
X4.710Y4.990
X4.935Y2.228
X4.935Y3.528
X4.935Y4.828
X5.360Y2.319
X5.360Y3.619
X5.360Y4.919
X5.676Y2.112
X5.676Y3.412
X5.676Y4.712
X5.886Y2.240
X5.886Y3.540
X5.886Y4.840
X5.894Y2.323
X5.894Y3.623
X5.894Y4.923
X6.150Y2.010
X6.150Y2.390
X6.150Y3.310
X6.150Y3.690
X6.150Y4.610
X6.150Y4.990
X6.375Y2.228
X6.375Y3.528
X6.375Y4.828
X6.809Y2.319
X6.809Y3.619
X6.809Y4.919
X7.126Y2.112
X7.126Y3.412
X7.126Y4.712
X7.336Y2.240
X7.336Y3.540
X7.336Y4.840
X7.344Y2.323
X7.344Y3.623
X7.344Y4.923
X7.600Y2.010
X7.600Y2.390
X7.600Y3.310
X7.600Y3.690
X7.600Y4.610
X7.600Y4.990
X7.825Y2.228
X7.825Y3.528
X7.825Y4.828
X8.260Y2.319
X8.260Y3.619
X8.260Y4.919
X8.575Y2.112
X8.575Y3.412
X8.575Y4.712
X8.786Y2.240
X8.786Y3.540
X8.786Y4.840
X8.794Y2.323
X8.794Y3.623
X8.794Y4.923
X9.050Y2.010
X9.050Y2.390
X9.050Y3.310
X9.050Y3.690
X9.050Y4.610
X9.050Y4.990
X9.275Y2.228
X9.275Y3.528
X9.275Y4.828
T2
X3.410Y2.050
X3.410Y2.380
X3.410Y3.350
X3.410Y3.680
X3.410Y4.650
X3.410Y4.980
X3.610Y2.050
X3.610Y2.380
X3.610Y3.350
X3.610Y3.680
X3.610Y4.650
X3.610Y4.980
X4.860Y2.050
X4.860Y2.380
X4.860Y3.350
X4.860Y3.680
X4.860Y4.650
X4.860Y4.980
X5.060Y2.050
X5.060Y2.380
X5.060Y3.350
X5.060Y3.680
X5.060Y4.650
X5.060Y4.980
X6.300Y2.050
X6.300Y2.380
X6.300Y3.350
X6.300Y3.680
X6.300Y4.650
X6.300Y4.980
X6.500Y2.050
X6.500Y2.380
X6.500Y3.350
X6.500Y3.680
X6.500Y4.650
X6.500Y4.980
X7.750Y2.050
X7.750Y2.380
X7.750Y3.350
X7.750Y3.680
X7.750Y4.650
X7.750Y4.980
X7.950Y2.050
X7.950Y2.380
X7.950Y3.350
X7.950Y3.680
X7.950Y4.650
X7.950Y4.980
X9.200Y2.050
X9.200Y2.380
X9.200Y3.350
X9.200Y3.680
X9.200Y4.650
X9.200Y4.980
X9.400Y2.050
X9.400Y2.380
X9.400Y3.350
X9.400Y3.680
X9.400Y4.650
X9.400Y4.980
T3
X2.505Y1.920
X2.505Y3.220
X2.505Y4.520
X2.555Y1.820
X2.555Y3.120
X2.555Y4.420
X2.605Y1.920
X2.605Y3.220
X2.605Y4.520
X2.655Y1.820
X2.655Y3.120
X2.655Y4.420
X2.705Y1.920
X2.705Y3.220
X2.705Y4.520
X2.755Y1.820
X2.755Y3.120
X2.755Y4.420
X2.805Y1.920
X2.805Y3.220
X2.805Y4.520
X2.855Y1.820
X2.855Y3.120
X2.855Y4.420
X3.195Y1.920
X3.195Y3.220
X3.195Y4.520
X3.245Y1.820
X3.245Y3.120
X3.245Y4.420
X3.295Y1.920
X3.295Y3.220
X3.295Y4.520
X3.345Y1.820
X3.345Y3.120
X3.345Y4.420
X3.395Y1.920
X3.395Y3.220
X3.395Y4.520
X3.445Y1.820
X3.445Y3.120
X3.445Y4.420
X3.495Y1.920
X3.495Y3.220
X3.495Y4.520
X3.545Y1.820
X3.545Y3.120
X3.545Y4.420
X3.955Y1.920
X3.955Y3.220
X3.955Y4.520
X4.005Y1.820
X4.005Y3.120
X4.005Y4.420
X4.055Y1.920
X4.055Y3.220
X4.055Y4.520
X4.105Y1.820
X4.105Y3.120
X4.105Y4.420
X4.155Y1.920
X4.155Y3.220
X4.155Y4.520
X4.205Y1.820
X4.205Y3.120
X4.205Y4.420
X4.255Y1.920
X4.255Y3.220
X4.255Y4.520
X4.305Y1.820
X4.305Y3.120
X4.305Y4.420
X4.645Y1.920
X4.645Y3.220
X4.645Y4.520
X4.695Y1.820
X4.695Y3.120
X4.695Y4.420
X4.745Y1.920
X4.745Y3.220
X4.745Y4.520
X4.795Y1.820
X4.795Y3.120
X4.795Y4.420
X4.845Y1.920
X4.845Y3.220
X4.845Y4.520
X4.895Y1.820
X4.895Y3.120
X4.895Y4.420
X4.945Y1.920
X4.945Y3.220
X4.945Y4.520
X4.995Y1.820
X4.995Y3.120
X4.995Y4.420
X5.395Y1.920
X5.395Y3.220
X5.395Y4.520
X5.445Y1.820
X5.445Y3.120
X5.445Y4.420
X5.495Y1.920
X5.495Y3.220
X5.495Y4.520
X5.545Y1.820
X5.545Y3.120
X5.545Y4.420
X5.595Y1.920
X5.595Y3.220
X5.595Y4.520
X5.645Y1.820
X5.645Y3.120
X5.645Y4.420
X5.695Y1.920
X5.695Y3.220
X5.695Y4.520
X5.745Y1.820
X5.745Y3.120
X5.745Y4.420
X6.085Y1.920
X6.085Y3.220
X6.085Y4.520
X6.135Y1.820
X6.135Y3.120
X6.135Y4.420
X6.185Y1.920
X6.185Y3.220
X6.185Y4.520
X6.235Y1.820
X6.235Y3.120
X6.235Y4.420
X6.285Y1.920
X6.285Y3.220
X6.285Y4.520
X6.335Y1.820
X6.335Y3.120
X6.335Y4.420
X6.385Y1.920
X6.385Y3.220
X6.385Y4.520
X6.435Y1.820
X6.435Y3.120
X6.435Y4.420
X6.845Y1.920
X6.845Y3.220
X6.845Y4.520
X6.895Y1.820
X6.895Y3.120
X6.895Y4.420
X6.945Y1.920
X6.945Y3.220
X6.945Y4.520
X6.995Y1.820
X6.995Y3.120
X6.995Y4.420
X7.045Y1.920
X7.045Y3.220
X7.045Y4.520
X7.095Y1.820
X7.095Y3.120
X7.095Y4.420
X7.145Y1.920
X7.145Y3.220
X7.145Y4.520
X7.195Y1.820
X7.195Y3.120
X7.195Y4.420
X7.535Y1.920
X7.535Y3.220
X7.535Y4.520
X7.585Y1.820
X7.585Y3.120
X7.585Y4.420
X7.635Y1.920
X7.635Y3.220
X7.635Y4.520
X7.685Y1.820
X7.685Y3.120
X7.685Y4.420
X7.735Y1.920
X7.735Y3.220
X7.735Y4.520
X7.785Y1.820
X7.785Y3.120
X7.785Y4.420
X7.835Y1.920
X7.835Y3.220
X7.835Y4.520
X7.885Y1.820
X7.885Y3.120
X7.885Y4.420
X8.295Y1.920
X8.295Y3.220
X8.295Y4.520
X8.345Y1.820
X8.345Y3.120
X8.345Y4.420
X8.395Y1.920
X8.395Y3.220
X8.395Y4.520
X8.445Y1.820
X8.445Y3.120
X8.445Y4.420
X8.495Y1.920
X8.495Y3.220
X8.495Y4.520
X8.545Y1.820
X8.545Y3.120
X8.545Y4.420
X8.595Y1.920
X8.595Y3.220
X8.595Y4.520
X8.645Y1.820
X8.645Y3.120
X8.645Y4.420
X8.985Y1.920
X8.985Y3.220
X8.985Y4.520
X9.035Y1.820
X9.035Y3.120
X9.035Y4.420
X9.085Y1.920
X9.085Y3.220
X9.085Y4.520
X9.135Y1.820
X9.135Y3.120
X9.135Y4.420
X9.185Y1.920
X9.185Y3.220
X9.185Y4.520
X9.235Y1.820
X9.235Y3.120
X9.235Y4.420
X9.285Y1.920
X9.285Y3.220
X9.285Y4.520
X9.335Y1.820
X9.335Y3.120
X9.335Y4.420
T4
X2.523Y2.134
X2.523Y2.307
X2.523Y3.433
X2.523Y3.607
X2.523Y4.734
X2.523Y4.907
X3.973Y2.134
X3.973Y2.307
X3.973Y3.433
X3.973Y3.607
X3.973Y4.734
X3.973Y4.907
X5.413Y2.134
X5.413Y2.307
X5.413Y3.433
X5.413Y3.607
X5.413Y4.734
X5.413Y4.907
X6.863Y2.134
X6.863Y2.307
X6.863Y3.433
X6.863Y3.607
X6.863Y4.734
X6.863Y4.907
X8.313Y2.134
X8.313Y2.307
X8.313Y3.433
X8.313Y3.607
X8.313Y4.734
X8.313Y4.907
T5
X2.446Y1.570
X2.446Y2.870
X2.446Y4.170
X2.913Y1.570
X2.913Y2.870
X2.913Y4.170
X3.136Y1.570
X3.136Y2.870
X3.136Y4.170
X3.604Y1.570
X3.604Y2.870
X3.604Y4.170
X3.896Y1.570
X3.896Y2.870
X3.896Y4.170
X4.364Y1.570
X4.364Y2.870
X4.364Y4.170
X4.586Y1.570
X4.586Y2.870
X4.586Y4.170
X5.054Y1.570
X5.054Y2.870
X5.054Y4.170
X5.336Y1.570
X5.336Y2.870
X5.336Y4.170
X5.804Y1.570
X5.804Y2.870
X5.804Y4.170
X6.026Y1.570
X6.026Y2.870
X6.026Y4.170
X6.494Y1.570
X6.494Y2.870
X6.494Y4.170
X6.786Y1.570
X6.786Y2.870
X6.786Y4.170
X7.254Y1.570
X7.254Y2.870
X7.254Y4.170
X7.476Y1.570
X7.476Y2.870
X7.476Y4.170
X7.944Y1.570
X7.944Y2.870
X7.944Y4.170
X8.236Y1.570
X8.236Y2.870
X8.236Y4.170
X8.704Y1.570
X8.704Y2.870
X8.704Y4.170
X8.926Y1.570
X8.926Y2.870
X8.926Y4.170
X9.394Y1.570
X9.394Y2.870
X9.394Y4.170
T0
M30
