G04 (created by PCBNEW-RS274X (2011-07-08)-stable) date Sun 14 Aug 2011 04:05:59 PM EDT*
G01*
G70*
G90*
%MOIN*%
G04 Gerber Fmt 3.4, Leading zero omitted, Abs format*
%FSLAX34Y34*%
G04 APERTURE LIST*
%ADD10C,0.006000*%
%ADD11R,0.055000X0.055000*%
%ADD12R,0.070900X0.062900*%
%ADD13R,0.091000X0.019000*%
%ADD14R,0.098000X0.079000*%
%ADD15C,0.050000*%
%ADD16R,0.050000X0.016000*%
%ADD17R,0.086600X0.023600*%
%ADD18C,0.143700*%
%ADD19R,0.059100X0.059100*%
%ADD20C,0.059100*%
%ADD21C,0.035000*%
%ADD22C,0.008000*%
G04 APERTURE END LIST*
G54D10*
G54D11*
X84900Y-55800D03*
X84900Y-52500D03*
G54D12*
X83400Y-55559D03*
X83400Y-54441D03*
G54D13*
X75015Y-53890D03*
X75015Y-53580D03*
X75015Y-54200D03*
X75015Y-54510D03*
G54D14*
X77220Y-55950D03*
X75050Y-55950D03*
X75050Y-52450D03*
X77220Y-52450D03*
G54D13*
X75015Y-54820D03*
G54D15*
X76030Y-55065D03*
X76030Y-53335D03*
G54D16*
X79400Y-52350D03*
X79400Y-52600D03*
X79400Y-52860D03*
X79400Y-53120D03*
X79400Y-53370D03*
X79400Y-53630D03*
X79400Y-53890D03*
X79400Y-54140D03*
X79400Y-54400D03*
X79400Y-54650D03*
X79400Y-54910D03*
X79400Y-55170D03*
X79400Y-55420D03*
X79400Y-55680D03*
X82200Y-55680D03*
X82200Y-55420D03*
X82200Y-55180D03*
X82200Y-54910D03*
X82200Y-54650D03*
X82200Y-54400D03*
X82200Y-54140D03*
X82200Y-53890D03*
X82200Y-53630D03*
X82200Y-53370D03*
X82200Y-53120D03*
X82200Y-52860D03*
X82200Y-52600D03*
X82200Y-52350D03*
G54D17*
X84876Y-53450D03*
X84876Y-53950D03*
X84876Y-54450D03*
X84876Y-54950D03*
X86923Y-54950D03*
X86923Y-54450D03*
X86923Y-53950D03*
X86923Y-53450D03*
G54D11*
X86900Y-55800D03*
X86900Y-52500D03*
G54D18*
X75262Y-47700D03*
X79935Y-47700D03*
G54D19*
X79350Y-50200D03*
G54D20*
X78850Y-51200D03*
X78350Y-50200D03*
X77850Y-51200D03*
X77350Y-50200D03*
X76850Y-51200D03*
X76350Y-50200D03*
X75850Y-51200D03*
G54D18*
X82162Y-47700D03*
X86835Y-47700D03*
G54D19*
X86250Y-50200D03*
G54D20*
X85750Y-51200D03*
X85250Y-50200D03*
X84750Y-51200D03*
X84250Y-50200D03*
X83750Y-51200D03*
X83250Y-50200D03*
X82750Y-51200D03*
G54D12*
X83400Y-52441D03*
X83400Y-53559D03*
G54D11*
X55900Y-55800D03*
X55900Y-52500D03*
G54D12*
X54400Y-55559D03*
X54400Y-54441D03*
G54D13*
X46015Y-53890D03*
X46015Y-53580D03*
X46015Y-54200D03*
X46015Y-54510D03*
G54D14*
X48220Y-55950D03*
X46050Y-55950D03*
X46050Y-52450D03*
X48220Y-52450D03*
G54D13*
X46015Y-54820D03*
G54D15*
X47030Y-55065D03*
X47030Y-53335D03*
G54D16*
X50400Y-52350D03*
X50400Y-52600D03*
X50400Y-52860D03*
X50400Y-53120D03*
X50400Y-53370D03*
X50400Y-53630D03*
X50400Y-53890D03*
X50400Y-54140D03*
X50400Y-54400D03*
X50400Y-54650D03*
X50400Y-54910D03*
X50400Y-55170D03*
X50400Y-55420D03*
X50400Y-55680D03*
X53200Y-55680D03*
X53200Y-55420D03*
X53200Y-55180D03*
X53200Y-54910D03*
X53200Y-54650D03*
X53200Y-54400D03*
X53200Y-54140D03*
X53200Y-53890D03*
X53200Y-53630D03*
X53200Y-53370D03*
X53200Y-53120D03*
X53200Y-52860D03*
X53200Y-52600D03*
X53200Y-52350D03*
G54D17*
X55876Y-53450D03*
X55876Y-53950D03*
X55876Y-54450D03*
X55876Y-54950D03*
X57923Y-54950D03*
X57923Y-54450D03*
X57923Y-53950D03*
X57923Y-53450D03*
G54D11*
X57900Y-55800D03*
X57900Y-52500D03*
G54D18*
X46262Y-47700D03*
X50935Y-47700D03*
G54D19*
X50350Y-50200D03*
G54D20*
X49850Y-51200D03*
X49350Y-50200D03*
X48850Y-51200D03*
X48350Y-50200D03*
X47850Y-51200D03*
X47350Y-50200D03*
X46850Y-51200D03*
G54D18*
X53162Y-47700D03*
X57835Y-47700D03*
G54D19*
X57250Y-50200D03*
G54D20*
X56750Y-51200D03*
X56250Y-50200D03*
X55750Y-51200D03*
X55250Y-50200D03*
X54750Y-51200D03*
X54250Y-50200D03*
X53750Y-51200D03*
G54D12*
X54400Y-52441D03*
X54400Y-53559D03*
X68900Y-52441D03*
X68900Y-53559D03*
G54D18*
X67662Y-47700D03*
X72335Y-47700D03*
G54D19*
X71750Y-50200D03*
G54D20*
X71250Y-51200D03*
X70750Y-50200D03*
X70250Y-51200D03*
X69750Y-50200D03*
X69250Y-51200D03*
X68750Y-50200D03*
X68250Y-51200D03*
G54D18*
X60762Y-47700D03*
X65435Y-47700D03*
G54D19*
X64850Y-50200D03*
G54D20*
X64350Y-51200D03*
X63850Y-50200D03*
X63350Y-51200D03*
X62850Y-50200D03*
X62350Y-51200D03*
X61850Y-50200D03*
X61350Y-51200D03*
G54D11*
X72400Y-52500D03*
X72400Y-55800D03*
G54D17*
X70376Y-53450D03*
X70376Y-53950D03*
X70376Y-54450D03*
X70376Y-54950D03*
X72423Y-54950D03*
X72423Y-54450D03*
X72423Y-53950D03*
X72423Y-53450D03*
G54D16*
X64900Y-52350D03*
X64900Y-52600D03*
X64900Y-52860D03*
X64900Y-53120D03*
X64900Y-53370D03*
X64900Y-53630D03*
X64900Y-53890D03*
X64900Y-54140D03*
X64900Y-54400D03*
X64900Y-54650D03*
X64900Y-54910D03*
X64900Y-55170D03*
X64900Y-55420D03*
X64900Y-55680D03*
X67700Y-55680D03*
X67700Y-55420D03*
X67700Y-55180D03*
X67700Y-54910D03*
X67700Y-54650D03*
X67700Y-54400D03*
X67700Y-54140D03*
X67700Y-53890D03*
X67700Y-53630D03*
X67700Y-53370D03*
X67700Y-53120D03*
X67700Y-52860D03*
X67700Y-52600D03*
X67700Y-52350D03*
G54D13*
X60515Y-53890D03*
X60515Y-53580D03*
X60515Y-54200D03*
X60515Y-54510D03*
G54D14*
X62720Y-55950D03*
X60550Y-55950D03*
X60550Y-52450D03*
X62720Y-52450D03*
G54D13*
X60515Y-54820D03*
G54D15*
X61530Y-55065D03*
X61530Y-53335D03*
G54D12*
X68900Y-55559D03*
X68900Y-54441D03*
G54D11*
X70400Y-52500D03*
X70400Y-55800D03*
X41500Y-55800D03*
X41500Y-52500D03*
G54D12*
X40000Y-55559D03*
X40000Y-54441D03*
G54D13*
X31615Y-53890D03*
X31615Y-53580D03*
X31615Y-54200D03*
X31615Y-54510D03*
G54D14*
X33820Y-55950D03*
X31650Y-55950D03*
X31650Y-52450D03*
X33820Y-52450D03*
G54D13*
X31615Y-54820D03*
G54D15*
X32630Y-55065D03*
X32630Y-53335D03*
G54D16*
X36000Y-52350D03*
X36000Y-52600D03*
X36000Y-52860D03*
X36000Y-53120D03*
X36000Y-53370D03*
X36000Y-53630D03*
X36000Y-53890D03*
X36000Y-54140D03*
X36000Y-54400D03*
X36000Y-54650D03*
X36000Y-54910D03*
X36000Y-55170D03*
X36000Y-55420D03*
X36000Y-55680D03*
X38800Y-55680D03*
X38800Y-55420D03*
X38800Y-55180D03*
X38800Y-54910D03*
X38800Y-54650D03*
X38800Y-54400D03*
X38800Y-54140D03*
X38800Y-53890D03*
X38800Y-53630D03*
X38800Y-53370D03*
X38800Y-53120D03*
X38800Y-52860D03*
X38800Y-52600D03*
X38800Y-52350D03*
G54D17*
X41476Y-53450D03*
X41476Y-53950D03*
X41476Y-54450D03*
X41476Y-54950D03*
X43523Y-54950D03*
X43523Y-54450D03*
X43523Y-53950D03*
X43523Y-53450D03*
G54D11*
X43500Y-55800D03*
X43500Y-52500D03*
G54D18*
X31862Y-47700D03*
X36535Y-47700D03*
G54D19*
X35950Y-50200D03*
G54D20*
X35450Y-51200D03*
X34950Y-50200D03*
X34450Y-51200D03*
X33950Y-50200D03*
X33450Y-51200D03*
X32950Y-50200D03*
X32450Y-51200D03*
G54D18*
X38762Y-47700D03*
X43435Y-47700D03*
G54D19*
X42850Y-50200D03*
G54D20*
X42350Y-51200D03*
X41850Y-50200D03*
X41350Y-51200D03*
X40850Y-50200D03*
X40350Y-51200D03*
X39850Y-50200D03*
X39350Y-51200D03*
G54D12*
X40000Y-52441D03*
X40000Y-53559D03*
X25500Y-52441D03*
X25500Y-53559D03*
G54D18*
X24262Y-47700D03*
X28935Y-47700D03*
G54D19*
X28350Y-50200D03*
G54D20*
X27850Y-51200D03*
X27350Y-50200D03*
X26850Y-51200D03*
X26350Y-50200D03*
X25850Y-51200D03*
X25350Y-50200D03*
X24850Y-51200D03*
G54D18*
X17362Y-47700D03*
X22035Y-47700D03*
G54D19*
X21450Y-50200D03*
G54D20*
X20950Y-51200D03*
X20450Y-50200D03*
X19950Y-51200D03*
X19450Y-50200D03*
X18950Y-51200D03*
X18450Y-50200D03*
X17950Y-51200D03*
G54D11*
X29000Y-52500D03*
X29000Y-55800D03*
G54D17*
X26976Y-53450D03*
X26976Y-53950D03*
X26976Y-54450D03*
X26976Y-54950D03*
X29023Y-54950D03*
X29023Y-54450D03*
X29023Y-53950D03*
X29023Y-53450D03*
G54D16*
X21500Y-52350D03*
X21500Y-52600D03*
X21500Y-52860D03*
X21500Y-53120D03*
X21500Y-53370D03*
X21500Y-53630D03*
X21500Y-53890D03*
X21500Y-54140D03*
X21500Y-54400D03*
X21500Y-54650D03*
X21500Y-54910D03*
X21500Y-55170D03*
X21500Y-55420D03*
X21500Y-55680D03*
X24300Y-55680D03*
X24300Y-55420D03*
X24300Y-55180D03*
X24300Y-54910D03*
X24300Y-54650D03*
X24300Y-54400D03*
X24300Y-54140D03*
X24300Y-53890D03*
X24300Y-53630D03*
X24300Y-53370D03*
X24300Y-53120D03*
X24300Y-52860D03*
X24300Y-52600D03*
X24300Y-52350D03*
G54D13*
X17115Y-53890D03*
X17115Y-53580D03*
X17115Y-54200D03*
X17115Y-54510D03*
G54D14*
X19320Y-55950D03*
X17150Y-55950D03*
X17150Y-52450D03*
X19320Y-52450D03*
G54D13*
X17115Y-54820D03*
G54D15*
X18130Y-55065D03*
X18130Y-53335D03*
G54D12*
X25500Y-55559D03*
X25500Y-54441D03*
G54D11*
X27000Y-52500D03*
X27000Y-55800D03*
X27000Y-42800D03*
X27000Y-39500D03*
G54D12*
X25500Y-42559D03*
X25500Y-41441D03*
G54D13*
X17115Y-40890D03*
X17115Y-40580D03*
X17115Y-41200D03*
X17115Y-41510D03*
G54D14*
X19320Y-42950D03*
X17150Y-42950D03*
X17150Y-39450D03*
X19320Y-39450D03*
G54D13*
X17115Y-41820D03*
G54D15*
X18130Y-42065D03*
X18130Y-40335D03*
G54D16*
X21500Y-39350D03*
X21500Y-39600D03*
X21500Y-39860D03*
X21500Y-40120D03*
X21500Y-40370D03*
X21500Y-40630D03*
X21500Y-40890D03*
X21500Y-41140D03*
X21500Y-41400D03*
X21500Y-41650D03*
X21500Y-41910D03*
X21500Y-42170D03*
X21500Y-42420D03*
X21500Y-42680D03*
X24300Y-42680D03*
X24300Y-42420D03*
X24300Y-42180D03*
X24300Y-41910D03*
X24300Y-41650D03*
X24300Y-41400D03*
X24300Y-41140D03*
X24300Y-40890D03*
X24300Y-40630D03*
X24300Y-40370D03*
X24300Y-40120D03*
X24300Y-39860D03*
X24300Y-39600D03*
X24300Y-39350D03*
G54D17*
X26976Y-40450D03*
X26976Y-40950D03*
X26976Y-41450D03*
X26976Y-41950D03*
X29023Y-41950D03*
X29023Y-41450D03*
X29023Y-40950D03*
X29023Y-40450D03*
G54D11*
X29000Y-42800D03*
X29000Y-39500D03*
G54D18*
X17362Y-34700D03*
X22035Y-34700D03*
G54D19*
X21450Y-37200D03*
G54D20*
X20950Y-38200D03*
X20450Y-37200D03*
X19950Y-38200D03*
X19450Y-37200D03*
X18950Y-38200D03*
X18450Y-37200D03*
X17950Y-38200D03*
G54D18*
X24262Y-34700D03*
X28935Y-34700D03*
G54D19*
X28350Y-37200D03*
G54D20*
X27850Y-38200D03*
X27350Y-37200D03*
X26850Y-38200D03*
X26350Y-37200D03*
X25850Y-38200D03*
X25350Y-37200D03*
X24850Y-38200D03*
G54D12*
X25500Y-39441D03*
X25500Y-40559D03*
X40000Y-39441D03*
X40000Y-40559D03*
G54D18*
X38762Y-34700D03*
X43435Y-34700D03*
G54D19*
X42850Y-37200D03*
G54D20*
X42350Y-38200D03*
X41850Y-37200D03*
X41350Y-38200D03*
X40850Y-37200D03*
X40350Y-38200D03*
X39850Y-37200D03*
X39350Y-38200D03*
G54D18*
X31862Y-34700D03*
X36535Y-34700D03*
G54D19*
X35950Y-37200D03*
G54D20*
X35450Y-38200D03*
X34950Y-37200D03*
X34450Y-38200D03*
X33950Y-37200D03*
X33450Y-38200D03*
X32950Y-37200D03*
X32450Y-38200D03*
G54D11*
X43500Y-39500D03*
X43500Y-42800D03*
G54D17*
X41476Y-40450D03*
X41476Y-40950D03*
X41476Y-41450D03*
X41476Y-41950D03*
X43523Y-41950D03*
X43523Y-41450D03*
X43523Y-40950D03*
X43523Y-40450D03*
G54D16*
X36000Y-39350D03*
X36000Y-39600D03*
X36000Y-39860D03*
X36000Y-40120D03*
X36000Y-40370D03*
X36000Y-40630D03*
X36000Y-40890D03*
X36000Y-41140D03*
X36000Y-41400D03*
X36000Y-41650D03*
X36000Y-41910D03*
X36000Y-42170D03*
X36000Y-42420D03*
X36000Y-42680D03*
X38800Y-42680D03*
X38800Y-42420D03*
X38800Y-42180D03*
X38800Y-41910D03*
X38800Y-41650D03*
X38800Y-41400D03*
X38800Y-41140D03*
X38800Y-40890D03*
X38800Y-40630D03*
X38800Y-40370D03*
X38800Y-40120D03*
X38800Y-39860D03*
X38800Y-39600D03*
X38800Y-39350D03*
G54D13*
X31615Y-40890D03*
X31615Y-40580D03*
X31615Y-41200D03*
X31615Y-41510D03*
G54D14*
X33820Y-42950D03*
X31650Y-42950D03*
X31650Y-39450D03*
X33820Y-39450D03*
G54D13*
X31615Y-41820D03*
G54D15*
X32630Y-42065D03*
X32630Y-40335D03*
G54D12*
X40000Y-42559D03*
X40000Y-41441D03*
G54D11*
X41500Y-39500D03*
X41500Y-42800D03*
X70400Y-42800D03*
X70400Y-39500D03*
G54D12*
X68900Y-42559D03*
X68900Y-41441D03*
G54D13*
X60515Y-40890D03*
X60515Y-40580D03*
X60515Y-41200D03*
X60515Y-41510D03*
G54D14*
X62720Y-42950D03*
X60550Y-42950D03*
X60550Y-39450D03*
X62720Y-39450D03*
G54D13*
X60515Y-41820D03*
G54D15*
X61530Y-42065D03*
X61530Y-40335D03*
G54D16*
X64900Y-39350D03*
X64900Y-39600D03*
X64900Y-39860D03*
X64900Y-40120D03*
X64900Y-40370D03*
X64900Y-40630D03*
X64900Y-40890D03*
X64900Y-41140D03*
X64900Y-41400D03*
X64900Y-41650D03*
X64900Y-41910D03*
X64900Y-42170D03*
X64900Y-42420D03*
X64900Y-42680D03*
X67700Y-42680D03*
X67700Y-42420D03*
X67700Y-42180D03*
X67700Y-41910D03*
X67700Y-41650D03*
X67700Y-41400D03*
X67700Y-41140D03*
X67700Y-40890D03*
X67700Y-40630D03*
X67700Y-40370D03*
X67700Y-40120D03*
X67700Y-39860D03*
X67700Y-39600D03*
X67700Y-39350D03*
G54D17*
X70376Y-40450D03*
X70376Y-40950D03*
X70376Y-41450D03*
X70376Y-41950D03*
X72423Y-41950D03*
X72423Y-41450D03*
X72423Y-40950D03*
X72423Y-40450D03*
G54D11*
X72400Y-42800D03*
X72400Y-39500D03*
G54D18*
X60762Y-34700D03*
X65435Y-34700D03*
G54D19*
X64850Y-37200D03*
G54D20*
X64350Y-38200D03*
X63850Y-37200D03*
X63350Y-38200D03*
X62850Y-37200D03*
X62350Y-38200D03*
X61850Y-37200D03*
X61350Y-38200D03*
G54D18*
X67662Y-34700D03*
X72335Y-34700D03*
G54D19*
X71750Y-37200D03*
G54D20*
X71250Y-38200D03*
X70750Y-37200D03*
X70250Y-38200D03*
X69750Y-37200D03*
X69250Y-38200D03*
X68750Y-37200D03*
X68250Y-38200D03*
G54D12*
X68900Y-39441D03*
X68900Y-40559D03*
X54400Y-39441D03*
X54400Y-40559D03*
G54D18*
X53162Y-34700D03*
X57835Y-34700D03*
G54D19*
X57250Y-37200D03*
G54D20*
X56750Y-38200D03*
X56250Y-37200D03*
X55750Y-38200D03*
X55250Y-37200D03*
X54750Y-38200D03*
X54250Y-37200D03*
X53750Y-38200D03*
G54D18*
X46262Y-34700D03*
X50935Y-34700D03*
G54D19*
X50350Y-37200D03*
G54D20*
X49850Y-38200D03*
X49350Y-37200D03*
X48850Y-38200D03*
X48350Y-37200D03*
X47850Y-38200D03*
X47350Y-37200D03*
X46850Y-38200D03*
G54D11*
X57900Y-39500D03*
X57900Y-42800D03*
G54D17*
X55876Y-40450D03*
X55876Y-40950D03*
X55876Y-41450D03*
X55876Y-41950D03*
X57923Y-41950D03*
X57923Y-41450D03*
X57923Y-40950D03*
X57923Y-40450D03*
G54D16*
X50400Y-39350D03*
X50400Y-39600D03*
X50400Y-39860D03*
X50400Y-40120D03*
X50400Y-40370D03*
X50400Y-40630D03*
X50400Y-40890D03*
X50400Y-41140D03*
X50400Y-41400D03*
X50400Y-41650D03*
X50400Y-41910D03*
X50400Y-42170D03*
X50400Y-42420D03*
X50400Y-42680D03*
X53200Y-42680D03*
X53200Y-42420D03*
X53200Y-42180D03*
X53200Y-41910D03*
X53200Y-41650D03*
X53200Y-41400D03*
X53200Y-41140D03*
X53200Y-40890D03*
X53200Y-40630D03*
X53200Y-40370D03*
X53200Y-40120D03*
X53200Y-39860D03*
X53200Y-39600D03*
X53200Y-39350D03*
G54D13*
X46015Y-40890D03*
X46015Y-40580D03*
X46015Y-41200D03*
X46015Y-41510D03*
G54D14*
X48220Y-42950D03*
X46050Y-42950D03*
X46050Y-39450D03*
X48220Y-39450D03*
G54D13*
X46015Y-41820D03*
G54D15*
X47030Y-42065D03*
X47030Y-40335D03*
G54D12*
X54400Y-42559D03*
X54400Y-41441D03*
G54D11*
X55900Y-39500D03*
X55900Y-42800D03*
G54D12*
X83400Y-39441D03*
X83400Y-40559D03*
G54D18*
X82162Y-34700D03*
X86835Y-34700D03*
G54D19*
X86250Y-37200D03*
G54D20*
X85750Y-38200D03*
X85250Y-37200D03*
X84750Y-38200D03*
X84250Y-37200D03*
X83750Y-38200D03*
X83250Y-37200D03*
X82750Y-38200D03*
G54D18*
X75262Y-34700D03*
X79935Y-34700D03*
G54D19*
X79350Y-37200D03*
G54D20*
X78850Y-38200D03*
X78350Y-37200D03*
X77850Y-38200D03*
X77350Y-37200D03*
X76850Y-38200D03*
X76350Y-37200D03*
X75850Y-38200D03*
G54D11*
X86900Y-39500D03*
X86900Y-42800D03*
G54D17*
X84876Y-40450D03*
X84876Y-40950D03*
X84876Y-41450D03*
X84876Y-41950D03*
X86923Y-41950D03*
X86923Y-41450D03*
X86923Y-40950D03*
X86923Y-40450D03*
G54D16*
X79400Y-39350D03*
X79400Y-39600D03*
X79400Y-39860D03*
X79400Y-40120D03*
X79400Y-40370D03*
X79400Y-40630D03*
X79400Y-40890D03*
X79400Y-41140D03*
X79400Y-41400D03*
X79400Y-41650D03*
X79400Y-41910D03*
X79400Y-42170D03*
X79400Y-42420D03*
X79400Y-42680D03*
X82200Y-42680D03*
X82200Y-42420D03*
X82200Y-42180D03*
X82200Y-41910D03*
X82200Y-41650D03*
X82200Y-41400D03*
X82200Y-41140D03*
X82200Y-40890D03*
X82200Y-40630D03*
X82200Y-40370D03*
X82200Y-40120D03*
X82200Y-39860D03*
X82200Y-39600D03*
X82200Y-39350D03*
G54D13*
X75015Y-40890D03*
X75015Y-40580D03*
X75015Y-41200D03*
X75015Y-41510D03*
G54D14*
X77220Y-42950D03*
X75050Y-42950D03*
X75050Y-39450D03*
X77220Y-39450D03*
G54D13*
X75015Y-41820D03*
G54D15*
X76030Y-42065D03*
X76030Y-40335D03*
G54D12*
X83400Y-42559D03*
X83400Y-41441D03*
G54D11*
X84900Y-39500D03*
X84900Y-42800D03*
X84900Y-29800D03*
X84900Y-26500D03*
G54D12*
X83400Y-29559D03*
X83400Y-28441D03*
G54D13*
X75015Y-27890D03*
X75015Y-27580D03*
X75015Y-28200D03*
X75015Y-28510D03*
G54D14*
X77220Y-29950D03*
X75050Y-29950D03*
X75050Y-26450D03*
X77220Y-26450D03*
G54D13*
X75015Y-28820D03*
G54D15*
X76030Y-29065D03*
X76030Y-27335D03*
G54D16*
X79400Y-26350D03*
X79400Y-26600D03*
X79400Y-26860D03*
X79400Y-27120D03*
X79400Y-27370D03*
X79400Y-27630D03*
X79400Y-27890D03*
X79400Y-28140D03*
X79400Y-28400D03*
X79400Y-28650D03*
X79400Y-28910D03*
X79400Y-29170D03*
X79400Y-29420D03*
X79400Y-29680D03*
X82200Y-29680D03*
X82200Y-29420D03*
X82200Y-29180D03*
X82200Y-28910D03*
X82200Y-28650D03*
X82200Y-28400D03*
X82200Y-28140D03*
X82200Y-27890D03*
X82200Y-27630D03*
X82200Y-27370D03*
X82200Y-27120D03*
X82200Y-26860D03*
X82200Y-26600D03*
X82200Y-26350D03*
G54D17*
X84876Y-27450D03*
X84876Y-27950D03*
X84876Y-28450D03*
X84876Y-28950D03*
X86923Y-28950D03*
X86923Y-28450D03*
X86923Y-27950D03*
X86923Y-27450D03*
G54D11*
X86900Y-29800D03*
X86900Y-26500D03*
G54D18*
X75262Y-21700D03*
X79935Y-21700D03*
G54D19*
X79350Y-24200D03*
G54D20*
X78850Y-25200D03*
X78350Y-24200D03*
X77850Y-25200D03*
X77350Y-24200D03*
X76850Y-25200D03*
X76350Y-24200D03*
X75850Y-25200D03*
G54D18*
X82162Y-21700D03*
X86835Y-21700D03*
G54D19*
X86250Y-24200D03*
G54D20*
X85750Y-25200D03*
X85250Y-24200D03*
X84750Y-25200D03*
X84250Y-24200D03*
X83750Y-25200D03*
X83250Y-24200D03*
X82750Y-25200D03*
G54D12*
X83400Y-26441D03*
X83400Y-27559D03*
G54D11*
X55900Y-29800D03*
X55900Y-26500D03*
G54D12*
X54400Y-29559D03*
X54400Y-28441D03*
G54D13*
X46015Y-27890D03*
X46015Y-27580D03*
X46015Y-28200D03*
X46015Y-28510D03*
G54D14*
X48220Y-29950D03*
X46050Y-29950D03*
X46050Y-26450D03*
X48220Y-26450D03*
G54D13*
X46015Y-28820D03*
G54D15*
X47030Y-29065D03*
X47030Y-27335D03*
G54D16*
X50400Y-26350D03*
X50400Y-26600D03*
X50400Y-26860D03*
X50400Y-27120D03*
X50400Y-27370D03*
X50400Y-27630D03*
X50400Y-27890D03*
X50400Y-28140D03*
X50400Y-28400D03*
X50400Y-28650D03*
X50400Y-28910D03*
X50400Y-29170D03*
X50400Y-29420D03*
X50400Y-29680D03*
X53200Y-29680D03*
X53200Y-29420D03*
X53200Y-29180D03*
X53200Y-28910D03*
X53200Y-28650D03*
X53200Y-28400D03*
X53200Y-28140D03*
X53200Y-27890D03*
X53200Y-27630D03*
X53200Y-27370D03*
X53200Y-27120D03*
X53200Y-26860D03*
X53200Y-26600D03*
X53200Y-26350D03*
G54D17*
X55876Y-27450D03*
X55876Y-27950D03*
X55876Y-28450D03*
X55876Y-28950D03*
X57923Y-28950D03*
X57923Y-28450D03*
X57923Y-27950D03*
X57923Y-27450D03*
G54D11*
X57900Y-29800D03*
X57900Y-26500D03*
G54D18*
X46262Y-21700D03*
X50935Y-21700D03*
G54D19*
X50350Y-24200D03*
G54D20*
X49850Y-25200D03*
X49350Y-24200D03*
X48850Y-25200D03*
X48350Y-24200D03*
X47850Y-25200D03*
X47350Y-24200D03*
X46850Y-25200D03*
G54D18*
X53162Y-21700D03*
X57835Y-21700D03*
G54D19*
X57250Y-24200D03*
G54D20*
X56750Y-25200D03*
X56250Y-24200D03*
X55750Y-25200D03*
X55250Y-24200D03*
X54750Y-25200D03*
X54250Y-24200D03*
X53750Y-25200D03*
G54D12*
X54400Y-26441D03*
X54400Y-27559D03*
X68900Y-26441D03*
X68900Y-27559D03*
G54D18*
X67662Y-21700D03*
X72335Y-21700D03*
G54D19*
X71750Y-24200D03*
G54D20*
X71250Y-25200D03*
X70750Y-24200D03*
X70250Y-25200D03*
X69750Y-24200D03*
X69250Y-25200D03*
X68750Y-24200D03*
X68250Y-25200D03*
G54D18*
X60762Y-21700D03*
X65435Y-21700D03*
G54D19*
X64850Y-24200D03*
G54D20*
X64350Y-25200D03*
X63850Y-24200D03*
X63350Y-25200D03*
X62850Y-24200D03*
X62350Y-25200D03*
X61850Y-24200D03*
X61350Y-25200D03*
G54D11*
X72400Y-26500D03*
X72400Y-29800D03*
G54D17*
X70376Y-27450D03*
X70376Y-27950D03*
X70376Y-28450D03*
X70376Y-28950D03*
X72423Y-28950D03*
X72423Y-28450D03*
X72423Y-27950D03*
X72423Y-27450D03*
G54D16*
X64900Y-26350D03*
X64900Y-26600D03*
X64900Y-26860D03*
X64900Y-27120D03*
X64900Y-27370D03*
X64900Y-27630D03*
X64900Y-27890D03*
X64900Y-28140D03*
X64900Y-28400D03*
X64900Y-28650D03*
X64900Y-28910D03*
X64900Y-29170D03*
X64900Y-29420D03*
X64900Y-29680D03*
X67700Y-29680D03*
X67700Y-29420D03*
X67700Y-29180D03*
X67700Y-28910D03*
X67700Y-28650D03*
X67700Y-28400D03*
X67700Y-28140D03*
X67700Y-27890D03*
X67700Y-27630D03*
X67700Y-27370D03*
X67700Y-27120D03*
X67700Y-26860D03*
X67700Y-26600D03*
X67700Y-26350D03*
G54D13*
X60515Y-27890D03*
X60515Y-27580D03*
X60515Y-28200D03*
X60515Y-28510D03*
G54D14*
X62720Y-29950D03*
X60550Y-29950D03*
X60550Y-26450D03*
X62720Y-26450D03*
G54D13*
X60515Y-28820D03*
G54D15*
X61530Y-29065D03*
X61530Y-27335D03*
G54D12*
X68900Y-29559D03*
X68900Y-28441D03*
G54D11*
X70400Y-26500D03*
X70400Y-29800D03*
X41500Y-29800D03*
X41500Y-26500D03*
G54D12*
X40000Y-29559D03*
X40000Y-28441D03*
G54D13*
X31615Y-27890D03*
X31615Y-27580D03*
X31615Y-28200D03*
X31615Y-28510D03*
G54D14*
X33820Y-29950D03*
X31650Y-29950D03*
X31650Y-26450D03*
X33820Y-26450D03*
G54D13*
X31615Y-28820D03*
G54D15*
X32630Y-29065D03*
X32630Y-27335D03*
G54D16*
X36000Y-26350D03*
X36000Y-26600D03*
X36000Y-26860D03*
X36000Y-27120D03*
X36000Y-27370D03*
X36000Y-27630D03*
X36000Y-27890D03*
X36000Y-28140D03*
X36000Y-28400D03*
X36000Y-28650D03*
X36000Y-28910D03*
X36000Y-29170D03*
X36000Y-29420D03*
X36000Y-29680D03*
X38800Y-29680D03*
X38800Y-29420D03*
X38800Y-29180D03*
X38800Y-28910D03*
X38800Y-28650D03*
X38800Y-28400D03*
X38800Y-28140D03*
X38800Y-27890D03*
X38800Y-27630D03*
X38800Y-27370D03*
X38800Y-27120D03*
X38800Y-26860D03*
X38800Y-26600D03*
X38800Y-26350D03*
G54D17*
X41476Y-27450D03*
X41476Y-27950D03*
X41476Y-28450D03*
X41476Y-28950D03*
X43523Y-28950D03*
X43523Y-28450D03*
X43523Y-27950D03*
X43523Y-27450D03*
G54D11*
X43500Y-29800D03*
X43500Y-26500D03*
G54D18*
X31862Y-21700D03*
X36535Y-21700D03*
G54D19*
X35950Y-24200D03*
G54D20*
X35450Y-25200D03*
X34950Y-24200D03*
X34450Y-25200D03*
X33950Y-24200D03*
X33450Y-25200D03*
X32950Y-24200D03*
X32450Y-25200D03*
G54D18*
X38762Y-21700D03*
X43435Y-21700D03*
G54D19*
X42850Y-24200D03*
G54D20*
X42350Y-25200D03*
X41850Y-24200D03*
X41350Y-25200D03*
X40850Y-24200D03*
X40350Y-25200D03*
X39850Y-24200D03*
X39350Y-25200D03*
G54D12*
X40000Y-26441D03*
X40000Y-27559D03*
X25500Y-26441D03*
X25500Y-27559D03*
G54D18*
X24262Y-21700D03*
X28935Y-21700D03*
G54D19*
X28350Y-24200D03*
G54D20*
X27850Y-25200D03*
X27350Y-24200D03*
X26850Y-25200D03*
X26350Y-24200D03*
X25850Y-25200D03*
X25350Y-24200D03*
X24850Y-25200D03*
G54D18*
X17362Y-21700D03*
X22035Y-21700D03*
G54D19*
X21450Y-24200D03*
G54D20*
X20950Y-25200D03*
X20450Y-24200D03*
X19950Y-25200D03*
X19450Y-24200D03*
X18950Y-25200D03*
X18450Y-24200D03*
X17950Y-25200D03*
G54D11*
X29000Y-26500D03*
X29000Y-29800D03*
G54D17*
X26976Y-27450D03*
X26976Y-27950D03*
X26976Y-28450D03*
X26976Y-28950D03*
X29023Y-28950D03*
X29023Y-28450D03*
X29023Y-27950D03*
X29023Y-27450D03*
G54D16*
X21500Y-26350D03*
X21500Y-26600D03*
X21500Y-26860D03*
X21500Y-27120D03*
X21500Y-27370D03*
X21500Y-27630D03*
X21500Y-27890D03*
X21500Y-28140D03*
X21500Y-28400D03*
X21500Y-28650D03*
X21500Y-28910D03*
X21500Y-29170D03*
X21500Y-29420D03*
X21500Y-29680D03*
X24300Y-29680D03*
X24300Y-29420D03*
X24300Y-29180D03*
X24300Y-28910D03*
X24300Y-28650D03*
X24300Y-28400D03*
X24300Y-28140D03*
X24300Y-27890D03*
X24300Y-27630D03*
X24300Y-27370D03*
X24300Y-27120D03*
X24300Y-26860D03*
X24300Y-26600D03*
X24300Y-26350D03*
G54D13*
X17115Y-27890D03*
X17115Y-27580D03*
X17115Y-28200D03*
X17115Y-28510D03*
G54D14*
X19320Y-29950D03*
X17150Y-29950D03*
X17150Y-26450D03*
X19320Y-26450D03*
G54D13*
X17115Y-28820D03*
G54D15*
X18130Y-29065D03*
X18130Y-27335D03*
G54D12*
X25500Y-29559D03*
X25500Y-28441D03*
G54D11*
X27000Y-26500D03*
X27000Y-29800D03*
G54D21*
X77900Y-53300D03*
X48900Y-53300D03*
X63400Y-53300D03*
X34500Y-53300D03*
X20000Y-53300D03*
X20000Y-40300D03*
X34500Y-40300D03*
X63400Y-40300D03*
X48900Y-40300D03*
X77900Y-40300D03*
X77900Y-27300D03*
X48900Y-27300D03*
X63400Y-27300D03*
X34500Y-27300D03*
X20000Y-27300D03*
X83400Y-55900D03*
X54400Y-55900D03*
X68900Y-55900D03*
X40000Y-55900D03*
X25500Y-55900D03*
X25500Y-42900D03*
X40000Y-42900D03*
X68900Y-42900D03*
X54400Y-42900D03*
X83400Y-42900D03*
X83400Y-29900D03*
X54400Y-29900D03*
X68900Y-29900D03*
X40000Y-29900D03*
X25500Y-29900D03*
X83400Y-52100D03*
X54400Y-52100D03*
X68900Y-52100D03*
X40000Y-52100D03*
X25500Y-52100D03*
X25500Y-39100D03*
X40000Y-39100D03*
X68900Y-39100D03*
X54400Y-39100D03*
X83400Y-39100D03*
X83400Y-26100D03*
X54400Y-26100D03*
X68900Y-26100D03*
X40000Y-26100D03*
X25500Y-26100D03*
X80836Y-55229D03*
X51836Y-55229D03*
X66336Y-55229D03*
X37436Y-55229D03*
X22936Y-55229D03*
X22936Y-42229D03*
X37436Y-42229D03*
X66336Y-42229D03*
X51836Y-42229D03*
X80836Y-42229D03*
X80836Y-29229D03*
X51836Y-29229D03*
X66336Y-29229D03*
X37436Y-29229D03*
X22936Y-29229D03*
X75400Y-55200D03*
X46400Y-55200D03*
X60900Y-55200D03*
X32000Y-55200D03*
X17500Y-55200D03*
X17500Y-42200D03*
X32000Y-42200D03*
X60900Y-42200D03*
X46400Y-42200D03*
X75400Y-42200D03*
X75400Y-29200D03*
X46400Y-29200D03*
X60900Y-29200D03*
X32000Y-29200D03*
X17500Y-29200D03*
X85650Y-54280D03*
X56650Y-54280D03*
X71150Y-54280D03*
X42250Y-54280D03*
X27750Y-54280D03*
X27750Y-41280D03*
X42250Y-41280D03*
X71150Y-41280D03*
X56650Y-41280D03*
X85650Y-41280D03*
X85650Y-28280D03*
X56650Y-28280D03*
X71150Y-28280D03*
X42250Y-28280D03*
X27750Y-28280D03*
X78655Y-53120D03*
X80761Y-54400D03*
X49655Y-53120D03*
X51761Y-54400D03*
X66261Y-54400D03*
X64155Y-53120D03*
X35255Y-53120D03*
X37361Y-54400D03*
X22861Y-54400D03*
X20755Y-53120D03*
X20755Y-40120D03*
X22861Y-41400D03*
X37361Y-41400D03*
X35255Y-40120D03*
X64155Y-40120D03*
X66261Y-41400D03*
X51761Y-41400D03*
X49655Y-40120D03*
X80761Y-41400D03*
X78655Y-40120D03*
X78655Y-27120D03*
X80761Y-28400D03*
X49655Y-27120D03*
X51761Y-28400D03*
X66261Y-28400D03*
X64155Y-27120D03*
X35255Y-27120D03*
X37361Y-28400D03*
X22861Y-28400D03*
X20755Y-27120D03*
G54D22*
X86347Y-55195D02*
X86347Y-54950D01*
X86900Y-55636D02*
X86788Y-55636D01*
X86788Y-55636D02*
X86347Y-55195D01*
X82593Y-54910D02*
X83787Y-54910D01*
X83787Y-54910D02*
X84463Y-55586D01*
X84463Y-55586D02*
X84463Y-56197D01*
X84463Y-56197D02*
X84485Y-56219D01*
X84485Y-56219D02*
X85323Y-56219D01*
X85323Y-56219D02*
X86347Y-55195D01*
X82397Y-54910D02*
X82593Y-54910D01*
X82200Y-54910D02*
X82397Y-54910D01*
X82200Y-54140D02*
X82593Y-54140D01*
X82593Y-54140D02*
X82593Y-54910D01*
X82004Y-54140D02*
X82200Y-54140D01*
X81807Y-53890D02*
X81807Y-53120D01*
X81807Y-54140D02*
X81807Y-53890D01*
X79400Y-53890D02*
X81807Y-53890D01*
X77800Y-53890D02*
X79400Y-53890D01*
X75015Y-53890D02*
X77800Y-53890D01*
X86923Y-54950D02*
X86347Y-54950D01*
X81866Y-53120D02*
X81807Y-53061D01*
X81807Y-53061D02*
X81807Y-52860D01*
X82004Y-53120D02*
X81866Y-53120D01*
X81866Y-53120D02*
X81807Y-53120D01*
X82200Y-52860D02*
X81807Y-52860D01*
X82200Y-53120D02*
X82004Y-53120D01*
X82004Y-54140D02*
X81807Y-54140D01*
X86900Y-55800D02*
X86900Y-55636D01*
X77800Y-53400D02*
X77900Y-53300D01*
X77800Y-53890D02*
X77800Y-53400D01*
X57347Y-55195D02*
X57347Y-54950D01*
X57900Y-55636D02*
X57788Y-55636D01*
X57788Y-55636D02*
X57347Y-55195D01*
X53593Y-54910D02*
X54787Y-54910D01*
X54787Y-54910D02*
X55463Y-55586D01*
X55463Y-55586D02*
X55463Y-56197D01*
X55463Y-56197D02*
X55485Y-56219D01*
X55485Y-56219D02*
X56323Y-56219D01*
X56323Y-56219D02*
X57347Y-55195D01*
X53397Y-54910D02*
X53593Y-54910D01*
X53200Y-54910D02*
X53397Y-54910D01*
X53200Y-54140D02*
X53593Y-54140D01*
X53593Y-54140D02*
X53593Y-54910D01*
X53004Y-54140D02*
X53200Y-54140D01*
X52807Y-53890D02*
X52807Y-53120D01*
X52807Y-54140D02*
X52807Y-53890D01*
X50400Y-53890D02*
X52807Y-53890D01*
X48800Y-53890D02*
X50400Y-53890D01*
X46015Y-53890D02*
X48800Y-53890D01*
X57923Y-54950D02*
X57347Y-54950D01*
X52866Y-53120D02*
X52807Y-53061D01*
X52807Y-53061D02*
X52807Y-52860D01*
X53004Y-53120D02*
X52866Y-53120D01*
X52866Y-53120D02*
X52807Y-53120D01*
X53200Y-52860D02*
X52807Y-52860D01*
X53200Y-53120D02*
X53004Y-53120D01*
X53004Y-54140D02*
X52807Y-54140D01*
X57900Y-55800D02*
X57900Y-55636D01*
X48800Y-53400D02*
X48900Y-53300D01*
X48800Y-53890D02*
X48800Y-53400D01*
X63300Y-53890D02*
X63300Y-53400D01*
X63300Y-53400D02*
X63400Y-53300D01*
X72400Y-55800D02*
X72400Y-55636D01*
X67504Y-54140D02*
X67307Y-54140D01*
X67700Y-53120D02*
X67504Y-53120D01*
X67700Y-52860D02*
X67307Y-52860D01*
X67366Y-53120D02*
X67307Y-53120D01*
X67504Y-53120D02*
X67366Y-53120D01*
X67307Y-53061D02*
X67307Y-52860D01*
X67366Y-53120D02*
X67307Y-53061D01*
X72423Y-54950D02*
X71847Y-54950D01*
X60515Y-53890D02*
X63300Y-53890D01*
X63300Y-53890D02*
X64900Y-53890D01*
X64900Y-53890D02*
X67307Y-53890D01*
X67307Y-54140D02*
X67307Y-53890D01*
X67307Y-53890D02*
X67307Y-53120D01*
X67504Y-54140D02*
X67700Y-54140D01*
X68093Y-54140D02*
X68093Y-54910D01*
X67700Y-54140D02*
X68093Y-54140D01*
X67700Y-54910D02*
X67897Y-54910D01*
X67897Y-54910D02*
X68093Y-54910D01*
X70823Y-56219D02*
X71847Y-55195D01*
X69985Y-56219D02*
X70823Y-56219D01*
X69963Y-56197D02*
X69985Y-56219D01*
X69963Y-55586D02*
X69963Y-56197D01*
X69287Y-54910D02*
X69963Y-55586D01*
X68093Y-54910D02*
X69287Y-54910D01*
X72288Y-55636D02*
X71847Y-55195D01*
X72400Y-55636D02*
X72288Y-55636D01*
X71847Y-55195D02*
X71847Y-54950D01*
X42947Y-55195D02*
X42947Y-54950D01*
X43500Y-55636D02*
X43388Y-55636D01*
X43388Y-55636D02*
X42947Y-55195D01*
X39193Y-54910D02*
X40387Y-54910D01*
X40387Y-54910D02*
X41063Y-55586D01*
X41063Y-55586D02*
X41063Y-56197D01*
X41063Y-56197D02*
X41085Y-56219D01*
X41085Y-56219D02*
X41923Y-56219D01*
X41923Y-56219D02*
X42947Y-55195D01*
X38997Y-54910D02*
X39193Y-54910D01*
X38800Y-54910D02*
X38997Y-54910D01*
X38800Y-54140D02*
X39193Y-54140D01*
X39193Y-54140D02*
X39193Y-54910D01*
X38604Y-54140D02*
X38800Y-54140D01*
X38407Y-53890D02*
X38407Y-53120D01*
X38407Y-54140D02*
X38407Y-53890D01*
X36000Y-53890D02*
X38407Y-53890D01*
X34400Y-53890D02*
X36000Y-53890D01*
X31615Y-53890D02*
X34400Y-53890D01*
X43523Y-54950D02*
X42947Y-54950D01*
X38466Y-53120D02*
X38407Y-53061D01*
X38407Y-53061D02*
X38407Y-52860D01*
X38604Y-53120D02*
X38466Y-53120D01*
X38466Y-53120D02*
X38407Y-53120D01*
X38800Y-52860D02*
X38407Y-52860D01*
X38800Y-53120D02*
X38604Y-53120D01*
X38604Y-54140D02*
X38407Y-54140D01*
X43500Y-55800D02*
X43500Y-55636D01*
X34400Y-53400D02*
X34500Y-53300D01*
X34400Y-53890D02*
X34400Y-53400D01*
X19900Y-53890D02*
X19900Y-53400D01*
X19900Y-53400D02*
X20000Y-53300D01*
X29000Y-55800D02*
X29000Y-55636D01*
X24104Y-54140D02*
X23907Y-54140D01*
X24300Y-53120D02*
X24104Y-53120D01*
X24300Y-52860D02*
X23907Y-52860D01*
X23966Y-53120D02*
X23907Y-53120D01*
X24104Y-53120D02*
X23966Y-53120D01*
X23907Y-53061D02*
X23907Y-52860D01*
X23966Y-53120D02*
X23907Y-53061D01*
X29023Y-54950D02*
X28447Y-54950D01*
X17115Y-53890D02*
X19900Y-53890D01*
X19900Y-53890D02*
X21500Y-53890D01*
X21500Y-53890D02*
X23907Y-53890D01*
X23907Y-54140D02*
X23907Y-53890D01*
X23907Y-53890D02*
X23907Y-53120D01*
X24104Y-54140D02*
X24300Y-54140D01*
X24693Y-54140D02*
X24693Y-54910D01*
X24300Y-54140D02*
X24693Y-54140D01*
X24300Y-54910D02*
X24497Y-54910D01*
X24497Y-54910D02*
X24693Y-54910D01*
X27423Y-56219D02*
X28447Y-55195D01*
X26585Y-56219D02*
X27423Y-56219D01*
X26563Y-56197D02*
X26585Y-56219D01*
X26563Y-55586D02*
X26563Y-56197D01*
X25887Y-54910D02*
X26563Y-55586D01*
X24693Y-54910D02*
X25887Y-54910D01*
X28888Y-55636D02*
X28447Y-55195D01*
X29000Y-55636D02*
X28888Y-55636D01*
X28447Y-55195D02*
X28447Y-54950D01*
X28447Y-42195D02*
X28447Y-41950D01*
X29000Y-42636D02*
X28888Y-42636D01*
X28888Y-42636D02*
X28447Y-42195D01*
X24693Y-41910D02*
X25887Y-41910D01*
X25887Y-41910D02*
X26563Y-42586D01*
X26563Y-42586D02*
X26563Y-43197D01*
X26563Y-43197D02*
X26585Y-43219D01*
X26585Y-43219D02*
X27423Y-43219D01*
X27423Y-43219D02*
X28447Y-42195D01*
X24497Y-41910D02*
X24693Y-41910D01*
X24300Y-41910D02*
X24497Y-41910D01*
X24300Y-41140D02*
X24693Y-41140D01*
X24693Y-41140D02*
X24693Y-41910D01*
X24104Y-41140D02*
X24300Y-41140D01*
X23907Y-40890D02*
X23907Y-40120D01*
X23907Y-41140D02*
X23907Y-40890D01*
X21500Y-40890D02*
X23907Y-40890D01*
X19900Y-40890D02*
X21500Y-40890D01*
X17115Y-40890D02*
X19900Y-40890D01*
X29023Y-41950D02*
X28447Y-41950D01*
X23966Y-40120D02*
X23907Y-40061D01*
X23907Y-40061D02*
X23907Y-39860D01*
X24104Y-40120D02*
X23966Y-40120D01*
X23966Y-40120D02*
X23907Y-40120D01*
X24300Y-39860D02*
X23907Y-39860D01*
X24300Y-40120D02*
X24104Y-40120D01*
X24104Y-41140D02*
X23907Y-41140D01*
X29000Y-42800D02*
X29000Y-42636D01*
X19900Y-40400D02*
X20000Y-40300D01*
X19900Y-40890D02*
X19900Y-40400D01*
X34400Y-40890D02*
X34400Y-40400D01*
X34400Y-40400D02*
X34500Y-40300D01*
X43500Y-42800D02*
X43500Y-42636D01*
X38604Y-41140D02*
X38407Y-41140D01*
X38800Y-40120D02*
X38604Y-40120D01*
X38800Y-39860D02*
X38407Y-39860D01*
X38466Y-40120D02*
X38407Y-40120D01*
X38604Y-40120D02*
X38466Y-40120D01*
X38407Y-40061D02*
X38407Y-39860D01*
X38466Y-40120D02*
X38407Y-40061D01*
X43523Y-41950D02*
X42947Y-41950D01*
X31615Y-40890D02*
X34400Y-40890D01*
X34400Y-40890D02*
X36000Y-40890D01*
X36000Y-40890D02*
X38407Y-40890D01*
X38407Y-41140D02*
X38407Y-40890D01*
X38407Y-40890D02*
X38407Y-40120D01*
X38604Y-41140D02*
X38800Y-41140D01*
X39193Y-41140D02*
X39193Y-41910D01*
X38800Y-41140D02*
X39193Y-41140D01*
X38800Y-41910D02*
X38997Y-41910D01*
X38997Y-41910D02*
X39193Y-41910D01*
X41923Y-43219D02*
X42947Y-42195D01*
X41085Y-43219D02*
X41923Y-43219D01*
X41063Y-43197D02*
X41085Y-43219D01*
X41063Y-42586D02*
X41063Y-43197D01*
X40387Y-41910D02*
X41063Y-42586D01*
X39193Y-41910D02*
X40387Y-41910D01*
X43388Y-42636D02*
X42947Y-42195D01*
X43500Y-42636D02*
X43388Y-42636D01*
X42947Y-42195D02*
X42947Y-41950D01*
X71847Y-42195D02*
X71847Y-41950D01*
X72400Y-42636D02*
X72288Y-42636D01*
X72288Y-42636D02*
X71847Y-42195D01*
X68093Y-41910D02*
X69287Y-41910D01*
X69287Y-41910D02*
X69963Y-42586D01*
X69963Y-42586D02*
X69963Y-43197D01*
X69963Y-43197D02*
X69985Y-43219D01*
X69985Y-43219D02*
X70823Y-43219D01*
X70823Y-43219D02*
X71847Y-42195D01*
X67897Y-41910D02*
X68093Y-41910D01*
X67700Y-41910D02*
X67897Y-41910D01*
X67700Y-41140D02*
X68093Y-41140D01*
X68093Y-41140D02*
X68093Y-41910D01*
X67504Y-41140D02*
X67700Y-41140D01*
X67307Y-40890D02*
X67307Y-40120D01*
X67307Y-41140D02*
X67307Y-40890D01*
X64900Y-40890D02*
X67307Y-40890D01*
X63300Y-40890D02*
X64900Y-40890D01*
X60515Y-40890D02*
X63300Y-40890D01*
X72423Y-41950D02*
X71847Y-41950D01*
X67366Y-40120D02*
X67307Y-40061D01*
X67307Y-40061D02*
X67307Y-39860D01*
X67504Y-40120D02*
X67366Y-40120D01*
X67366Y-40120D02*
X67307Y-40120D01*
X67700Y-39860D02*
X67307Y-39860D01*
X67700Y-40120D02*
X67504Y-40120D01*
X67504Y-41140D02*
X67307Y-41140D01*
X72400Y-42800D02*
X72400Y-42636D01*
X63300Y-40400D02*
X63400Y-40300D01*
X63300Y-40890D02*
X63300Y-40400D01*
X48800Y-40890D02*
X48800Y-40400D01*
X48800Y-40400D02*
X48900Y-40300D01*
X57900Y-42800D02*
X57900Y-42636D01*
X53004Y-41140D02*
X52807Y-41140D01*
X53200Y-40120D02*
X53004Y-40120D01*
X53200Y-39860D02*
X52807Y-39860D01*
X52866Y-40120D02*
X52807Y-40120D01*
X53004Y-40120D02*
X52866Y-40120D01*
X52807Y-40061D02*
X52807Y-39860D01*
X52866Y-40120D02*
X52807Y-40061D01*
X57923Y-41950D02*
X57347Y-41950D01*
X46015Y-40890D02*
X48800Y-40890D01*
X48800Y-40890D02*
X50400Y-40890D01*
X50400Y-40890D02*
X52807Y-40890D01*
X52807Y-41140D02*
X52807Y-40890D01*
X52807Y-40890D02*
X52807Y-40120D01*
X53004Y-41140D02*
X53200Y-41140D01*
X53593Y-41140D02*
X53593Y-41910D01*
X53200Y-41140D02*
X53593Y-41140D01*
X53200Y-41910D02*
X53397Y-41910D01*
X53397Y-41910D02*
X53593Y-41910D01*
X56323Y-43219D02*
X57347Y-42195D01*
X55485Y-43219D02*
X56323Y-43219D01*
X55463Y-43197D02*
X55485Y-43219D01*
X55463Y-42586D02*
X55463Y-43197D01*
X54787Y-41910D02*
X55463Y-42586D01*
X53593Y-41910D02*
X54787Y-41910D01*
X57788Y-42636D02*
X57347Y-42195D01*
X57900Y-42636D02*
X57788Y-42636D01*
X57347Y-42195D02*
X57347Y-41950D01*
X77800Y-40890D02*
X77800Y-40400D01*
X77800Y-40400D02*
X77900Y-40300D01*
X86900Y-42800D02*
X86900Y-42636D01*
X82004Y-41140D02*
X81807Y-41140D01*
X82200Y-40120D02*
X82004Y-40120D01*
X82200Y-39860D02*
X81807Y-39860D01*
X81866Y-40120D02*
X81807Y-40120D01*
X82004Y-40120D02*
X81866Y-40120D01*
X81807Y-40061D02*
X81807Y-39860D01*
X81866Y-40120D02*
X81807Y-40061D01*
X86923Y-41950D02*
X86347Y-41950D01*
X75015Y-40890D02*
X77800Y-40890D01*
X77800Y-40890D02*
X79400Y-40890D01*
X79400Y-40890D02*
X81807Y-40890D01*
X81807Y-41140D02*
X81807Y-40890D01*
X81807Y-40890D02*
X81807Y-40120D01*
X82004Y-41140D02*
X82200Y-41140D01*
X82593Y-41140D02*
X82593Y-41910D01*
X82200Y-41140D02*
X82593Y-41140D01*
X82200Y-41910D02*
X82397Y-41910D01*
X82397Y-41910D02*
X82593Y-41910D01*
X85323Y-43219D02*
X86347Y-42195D01*
X84485Y-43219D02*
X85323Y-43219D01*
X84463Y-43197D02*
X84485Y-43219D01*
X84463Y-42586D02*
X84463Y-43197D01*
X83787Y-41910D02*
X84463Y-42586D01*
X82593Y-41910D02*
X83787Y-41910D01*
X86788Y-42636D02*
X86347Y-42195D01*
X86900Y-42636D02*
X86788Y-42636D01*
X86347Y-42195D02*
X86347Y-41950D01*
X86347Y-29195D02*
X86347Y-28950D01*
X86900Y-29636D02*
X86788Y-29636D01*
X86788Y-29636D02*
X86347Y-29195D01*
X82593Y-28910D02*
X83787Y-28910D01*
X83787Y-28910D02*
X84463Y-29586D01*
X84463Y-29586D02*
X84463Y-30197D01*
X84463Y-30197D02*
X84485Y-30219D01*
X84485Y-30219D02*
X85323Y-30219D01*
X85323Y-30219D02*
X86347Y-29195D01*
X82397Y-28910D02*
X82593Y-28910D01*
X82200Y-28910D02*
X82397Y-28910D01*
X82200Y-28140D02*
X82593Y-28140D01*
X82593Y-28140D02*
X82593Y-28910D01*
X82004Y-28140D02*
X82200Y-28140D01*
X81807Y-27890D02*
X81807Y-27120D01*
X81807Y-28140D02*
X81807Y-27890D01*
X79400Y-27890D02*
X81807Y-27890D01*
X77800Y-27890D02*
X79400Y-27890D01*
X75015Y-27890D02*
X77800Y-27890D01*
X86923Y-28950D02*
X86347Y-28950D01*
X81866Y-27120D02*
X81807Y-27061D01*
X81807Y-27061D02*
X81807Y-26860D01*
X82004Y-27120D02*
X81866Y-27120D01*
X81866Y-27120D02*
X81807Y-27120D01*
X82200Y-26860D02*
X81807Y-26860D01*
X82200Y-27120D02*
X82004Y-27120D01*
X82004Y-28140D02*
X81807Y-28140D01*
X86900Y-29800D02*
X86900Y-29636D01*
X77800Y-27400D02*
X77900Y-27300D01*
X77800Y-27890D02*
X77800Y-27400D01*
X57347Y-29195D02*
X57347Y-28950D01*
X57900Y-29636D02*
X57788Y-29636D01*
X57788Y-29636D02*
X57347Y-29195D01*
X53593Y-28910D02*
X54787Y-28910D01*
X54787Y-28910D02*
X55463Y-29586D01*
X55463Y-29586D02*
X55463Y-30197D01*
X55463Y-30197D02*
X55485Y-30219D01*
X55485Y-30219D02*
X56323Y-30219D01*
X56323Y-30219D02*
X57347Y-29195D01*
X53397Y-28910D02*
X53593Y-28910D01*
X53200Y-28910D02*
X53397Y-28910D01*
X53200Y-28140D02*
X53593Y-28140D01*
X53593Y-28140D02*
X53593Y-28910D01*
X53004Y-28140D02*
X53200Y-28140D01*
X52807Y-27890D02*
X52807Y-27120D01*
X52807Y-28140D02*
X52807Y-27890D01*
X50400Y-27890D02*
X52807Y-27890D01*
X48800Y-27890D02*
X50400Y-27890D01*
X46015Y-27890D02*
X48800Y-27890D01*
X57923Y-28950D02*
X57347Y-28950D01*
X52866Y-27120D02*
X52807Y-27061D01*
X52807Y-27061D02*
X52807Y-26860D01*
X53004Y-27120D02*
X52866Y-27120D01*
X52866Y-27120D02*
X52807Y-27120D01*
X53200Y-26860D02*
X52807Y-26860D01*
X53200Y-27120D02*
X53004Y-27120D01*
X53004Y-28140D02*
X52807Y-28140D01*
X57900Y-29800D02*
X57900Y-29636D01*
X48800Y-27400D02*
X48900Y-27300D01*
X48800Y-27890D02*
X48800Y-27400D01*
X63300Y-27890D02*
X63300Y-27400D01*
X63300Y-27400D02*
X63400Y-27300D01*
X72400Y-29800D02*
X72400Y-29636D01*
X67504Y-28140D02*
X67307Y-28140D01*
X67700Y-27120D02*
X67504Y-27120D01*
X67700Y-26860D02*
X67307Y-26860D01*
X67366Y-27120D02*
X67307Y-27120D01*
X67504Y-27120D02*
X67366Y-27120D01*
X67307Y-27061D02*
X67307Y-26860D01*
X67366Y-27120D02*
X67307Y-27061D01*
X72423Y-28950D02*
X71847Y-28950D01*
X60515Y-27890D02*
X63300Y-27890D01*
X63300Y-27890D02*
X64900Y-27890D01*
X64900Y-27890D02*
X67307Y-27890D01*
X67307Y-28140D02*
X67307Y-27890D01*
X67307Y-27890D02*
X67307Y-27120D01*
X67504Y-28140D02*
X67700Y-28140D01*
X68093Y-28140D02*
X68093Y-28910D01*
X67700Y-28140D02*
X68093Y-28140D01*
X67700Y-28910D02*
X67897Y-28910D01*
X67897Y-28910D02*
X68093Y-28910D01*
X70823Y-30219D02*
X71847Y-29195D01*
X69985Y-30219D02*
X70823Y-30219D01*
X69963Y-30197D02*
X69985Y-30219D01*
X69963Y-29586D02*
X69963Y-30197D01*
X69287Y-28910D02*
X69963Y-29586D01*
X68093Y-28910D02*
X69287Y-28910D01*
X72288Y-29636D02*
X71847Y-29195D01*
X72400Y-29636D02*
X72288Y-29636D01*
X71847Y-29195D02*
X71847Y-28950D01*
X42947Y-29195D02*
X42947Y-28950D01*
X43500Y-29636D02*
X43388Y-29636D01*
X43388Y-29636D02*
X42947Y-29195D01*
X39193Y-28910D02*
X40387Y-28910D01*
X40387Y-28910D02*
X41063Y-29586D01*
X41063Y-29586D02*
X41063Y-30197D01*
X41063Y-30197D02*
X41085Y-30219D01*
X41085Y-30219D02*
X41923Y-30219D01*
X41923Y-30219D02*
X42947Y-29195D01*
X38997Y-28910D02*
X39193Y-28910D01*
X38800Y-28910D02*
X38997Y-28910D01*
X38800Y-28140D02*
X39193Y-28140D01*
X39193Y-28140D02*
X39193Y-28910D01*
X38604Y-28140D02*
X38800Y-28140D01*
X38407Y-27890D02*
X38407Y-27120D01*
X38407Y-28140D02*
X38407Y-27890D01*
X36000Y-27890D02*
X38407Y-27890D01*
X34400Y-27890D02*
X36000Y-27890D01*
X31615Y-27890D02*
X34400Y-27890D01*
X43523Y-28950D02*
X42947Y-28950D01*
X38466Y-27120D02*
X38407Y-27061D01*
X38407Y-27061D02*
X38407Y-26860D01*
X38604Y-27120D02*
X38466Y-27120D01*
X38466Y-27120D02*
X38407Y-27120D01*
X38800Y-26860D02*
X38407Y-26860D01*
X38800Y-27120D02*
X38604Y-27120D01*
X38604Y-28140D02*
X38407Y-28140D01*
X43500Y-29800D02*
X43500Y-29636D01*
X34400Y-27400D02*
X34500Y-27300D01*
X34400Y-27890D02*
X34400Y-27400D01*
X19900Y-27890D02*
X19900Y-27400D01*
X19900Y-27400D02*
X20000Y-27300D01*
X29000Y-29800D02*
X29000Y-29636D01*
X24104Y-28140D02*
X23907Y-28140D01*
X24300Y-27120D02*
X24104Y-27120D01*
X24300Y-26860D02*
X23907Y-26860D01*
X23966Y-27120D02*
X23907Y-27120D01*
X24104Y-27120D02*
X23966Y-27120D01*
X23907Y-27061D02*
X23907Y-26860D01*
X23966Y-27120D02*
X23907Y-27061D01*
X29023Y-28950D02*
X28447Y-28950D01*
X17115Y-27890D02*
X19900Y-27890D01*
X19900Y-27890D02*
X21500Y-27890D01*
X21500Y-27890D02*
X23907Y-27890D01*
X23907Y-28140D02*
X23907Y-27890D01*
X23907Y-27890D02*
X23907Y-27120D01*
X24104Y-28140D02*
X24300Y-28140D01*
X24693Y-28140D02*
X24693Y-28910D01*
X24300Y-28140D02*
X24693Y-28140D01*
X24300Y-28910D02*
X24497Y-28910D01*
X24497Y-28910D02*
X24693Y-28910D01*
X27423Y-30219D02*
X28447Y-29195D01*
X26585Y-30219D02*
X27423Y-30219D01*
X26563Y-30197D02*
X26585Y-30219D01*
X26563Y-29586D02*
X26563Y-30197D01*
X25887Y-28910D02*
X26563Y-29586D01*
X24693Y-28910D02*
X25887Y-28910D01*
X28888Y-29636D02*
X28447Y-29195D01*
X29000Y-29636D02*
X28888Y-29636D01*
X28447Y-29195D02*
X28447Y-28950D01*
X86923Y-53950D02*
X86347Y-53950D01*
X86347Y-53950D02*
X85983Y-53586D01*
X85983Y-53586D02*
X85983Y-51592D01*
X85983Y-51592D02*
X86250Y-51325D01*
X86250Y-51325D02*
X86250Y-50760D01*
X86250Y-50760D02*
X86250Y-50200D01*
X79788Y-50200D02*
X80428Y-49560D01*
X80428Y-49560D02*
X84349Y-49560D01*
X84349Y-49560D02*
X84750Y-49961D01*
X84750Y-49961D02*
X84750Y-50577D01*
X84750Y-50577D02*
X84933Y-50760D01*
X84933Y-50760D02*
X86250Y-50760D01*
X79350Y-50200D02*
X79788Y-50200D01*
X57923Y-53950D02*
X57347Y-53950D01*
X57347Y-53950D02*
X56983Y-53586D01*
X56983Y-53586D02*
X56983Y-51592D01*
X56983Y-51592D02*
X57250Y-51325D01*
X57250Y-51325D02*
X57250Y-50760D01*
X57250Y-50760D02*
X57250Y-50200D01*
X50788Y-50200D02*
X51428Y-49560D01*
X51428Y-49560D02*
X55349Y-49560D01*
X55349Y-49560D02*
X55750Y-49961D01*
X55750Y-49961D02*
X55750Y-50577D01*
X55750Y-50577D02*
X55933Y-50760D01*
X55933Y-50760D02*
X57250Y-50760D01*
X50350Y-50200D02*
X50788Y-50200D01*
X64850Y-50200D02*
X65288Y-50200D01*
X70433Y-50760D02*
X71750Y-50760D01*
X70250Y-50577D02*
X70433Y-50760D01*
X70250Y-49961D02*
X70250Y-50577D01*
X69849Y-49560D02*
X70250Y-49961D01*
X65928Y-49560D02*
X69849Y-49560D01*
X65288Y-50200D02*
X65928Y-49560D01*
X71750Y-50760D02*
X71750Y-50200D01*
X71750Y-51325D02*
X71750Y-50760D01*
X71483Y-51592D02*
X71750Y-51325D01*
X71483Y-53586D02*
X71483Y-51592D01*
X71847Y-53950D02*
X71483Y-53586D01*
X72423Y-53950D02*
X71847Y-53950D01*
X43523Y-53950D02*
X42947Y-53950D01*
X42947Y-53950D02*
X42583Y-53586D01*
X42583Y-53586D02*
X42583Y-51592D01*
X42583Y-51592D02*
X42850Y-51325D01*
X42850Y-51325D02*
X42850Y-50760D01*
X42850Y-50760D02*
X42850Y-50200D01*
X36388Y-50200D02*
X37028Y-49560D01*
X37028Y-49560D02*
X40949Y-49560D01*
X40949Y-49560D02*
X41350Y-49961D01*
X41350Y-49961D02*
X41350Y-50577D01*
X41350Y-50577D02*
X41533Y-50760D01*
X41533Y-50760D02*
X42850Y-50760D01*
X35950Y-50200D02*
X36388Y-50200D01*
X21450Y-50200D02*
X21888Y-50200D01*
X27033Y-50760D02*
X28350Y-50760D01*
X26850Y-50577D02*
X27033Y-50760D01*
X26850Y-49961D02*
X26850Y-50577D01*
X26449Y-49560D02*
X26850Y-49961D01*
X22528Y-49560D02*
X26449Y-49560D01*
X21888Y-50200D02*
X22528Y-49560D01*
X28350Y-50760D02*
X28350Y-50200D01*
X28350Y-51325D02*
X28350Y-50760D01*
X28083Y-51592D02*
X28350Y-51325D01*
X28083Y-53586D02*
X28083Y-51592D01*
X28447Y-53950D02*
X28083Y-53586D01*
X29023Y-53950D02*
X28447Y-53950D01*
X29023Y-40950D02*
X28447Y-40950D01*
X28447Y-40950D02*
X28083Y-40586D01*
X28083Y-40586D02*
X28083Y-38592D01*
X28083Y-38592D02*
X28350Y-38325D01*
X28350Y-38325D02*
X28350Y-37760D01*
X28350Y-37760D02*
X28350Y-37200D01*
X21888Y-37200D02*
X22528Y-36560D01*
X22528Y-36560D02*
X26449Y-36560D01*
X26449Y-36560D02*
X26850Y-36961D01*
X26850Y-36961D02*
X26850Y-37577D01*
X26850Y-37577D02*
X27033Y-37760D01*
X27033Y-37760D02*
X28350Y-37760D01*
X21450Y-37200D02*
X21888Y-37200D01*
X35950Y-37200D02*
X36388Y-37200D01*
X41533Y-37760D02*
X42850Y-37760D01*
X41350Y-37577D02*
X41533Y-37760D01*
X41350Y-36961D02*
X41350Y-37577D01*
X40949Y-36560D02*
X41350Y-36961D01*
X37028Y-36560D02*
X40949Y-36560D01*
X36388Y-37200D02*
X37028Y-36560D01*
X42850Y-37760D02*
X42850Y-37200D01*
X42850Y-38325D02*
X42850Y-37760D01*
X42583Y-38592D02*
X42850Y-38325D01*
X42583Y-40586D02*
X42583Y-38592D01*
X42947Y-40950D02*
X42583Y-40586D01*
X43523Y-40950D02*
X42947Y-40950D01*
X72423Y-40950D02*
X71847Y-40950D01*
X71847Y-40950D02*
X71483Y-40586D01*
X71483Y-40586D02*
X71483Y-38592D01*
X71483Y-38592D02*
X71750Y-38325D01*
X71750Y-38325D02*
X71750Y-37760D01*
X71750Y-37760D02*
X71750Y-37200D01*
X65288Y-37200D02*
X65928Y-36560D01*
X65928Y-36560D02*
X69849Y-36560D01*
X69849Y-36560D02*
X70250Y-36961D01*
X70250Y-36961D02*
X70250Y-37577D01*
X70250Y-37577D02*
X70433Y-37760D01*
X70433Y-37760D02*
X71750Y-37760D01*
X64850Y-37200D02*
X65288Y-37200D01*
X50350Y-37200D02*
X50788Y-37200D01*
X55933Y-37760D02*
X57250Y-37760D01*
X55750Y-37577D02*
X55933Y-37760D01*
X55750Y-36961D02*
X55750Y-37577D01*
X55349Y-36560D02*
X55750Y-36961D01*
X51428Y-36560D02*
X55349Y-36560D01*
X50788Y-37200D02*
X51428Y-36560D01*
X57250Y-37760D02*
X57250Y-37200D01*
X57250Y-38325D02*
X57250Y-37760D01*
X56983Y-38592D02*
X57250Y-38325D01*
X56983Y-40586D02*
X56983Y-38592D01*
X57347Y-40950D02*
X56983Y-40586D01*
X57923Y-40950D02*
X57347Y-40950D01*
X79350Y-37200D02*
X79788Y-37200D01*
X84933Y-37760D02*
X86250Y-37760D01*
X84750Y-37577D02*
X84933Y-37760D01*
X84750Y-36961D02*
X84750Y-37577D01*
X84349Y-36560D02*
X84750Y-36961D01*
X80428Y-36560D02*
X84349Y-36560D01*
X79788Y-37200D02*
X80428Y-36560D01*
X86250Y-37760D02*
X86250Y-37200D01*
X86250Y-38325D02*
X86250Y-37760D01*
X85983Y-38592D02*
X86250Y-38325D01*
X85983Y-40586D02*
X85983Y-38592D01*
X86347Y-40950D02*
X85983Y-40586D01*
X86923Y-40950D02*
X86347Y-40950D01*
X86923Y-27950D02*
X86347Y-27950D01*
X86347Y-27950D02*
X85983Y-27586D01*
X85983Y-27586D02*
X85983Y-25592D01*
X85983Y-25592D02*
X86250Y-25325D01*
X86250Y-25325D02*
X86250Y-24760D01*
X86250Y-24760D02*
X86250Y-24200D01*
X79788Y-24200D02*
X80428Y-23560D01*
X80428Y-23560D02*
X84349Y-23560D01*
X84349Y-23560D02*
X84750Y-23961D01*
X84750Y-23961D02*
X84750Y-24577D01*
X84750Y-24577D02*
X84933Y-24760D01*
X84933Y-24760D02*
X86250Y-24760D01*
X79350Y-24200D02*
X79788Y-24200D01*
X57923Y-27950D02*
X57347Y-27950D01*
X57347Y-27950D02*
X56983Y-27586D01*
X56983Y-27586D02*
X56983Y-25592D01*
X56983Y-25592D02*
X57250Y-25325D01*
X57250Y-25325D02*
X57250Y-24760D01*
X57250Y-24760D02*
X57250Y-24200D01*
X50788Y-24200D02*
X51428Y-23560D01*
X51428Y-23560D02*
X55349Y-23560D01*
X55349Y-23560D02*
X55750Y-23961D01*
X55750Y-23961D02*
X55750Y-24577D01*
X55750Y-24577D02*
X55933Y-24760D01*
X55933Y-24760D02*
X57250Y-24760D01*
X50350Y-24200D02*
X50788Y-24200D01*
X64850Y-24200D02*
X65288Y-24200D01*
X70433Y-24760D02*
X71750Y-24760D01*
X70250Y-24577D02*
X70433Y-24760D01*
X70250Y-23961D02*
X70250Y-24577D01*
X69849Y-23560D02*
X70250Y-23961D01*
X65928Y-23560D02*
X69849Y-23560D01*
X65288Y-24200D02*
X65928Y-23560D01*
X71750Y-24760D02*
X71750Y-24200D01*
X71750Y-25325D02*
X71750Y-24760D01*
X71483Y-25592D02*
X71750Y-25325D01*
X71483Y-27586D02*
X71483Y-25592D01*
X71847Y-27950D02*
X71483Y-27586D01*
X72423Y-27950D02*
X71847Y-27950D01*
X43523Y-27950D02*
X42947Y-27950D01*
X42947Y-27950D02*
X42583Y-27586D01*
X42583Y-27586D02*
X42583Y-25592D01*
X42583Y-25592D02*
X42850Y-25325D01*
X42850Y-25325D02*
X42850Y-24760D01*
X42850Y-24760D02*
X42850Y-24200D01*
X36388Y-24200D02*
X37028Y-23560D01*
X37028Y-23560D02*
X40949Y-23560D01*
X40949Y-23560D02*
X41350Y-23961D01*
X41350Y-23961D02*
X41350Y-24577D01*
X41350Y-24577D02*
X41533Y-24760D01*
X41533Y-24760D02*
X42850Y-24760D01*
X35950Y-24200D02*
X36388Y-24200D01*
X21450Y-24200D02*
X21888Y-24200D01*
X27033Y-24760D02*
X28350Y-24760D01*
X26850Y-24577D02*
X27033Y-24760D01*
X26850Y-23961D02*
X26850Y-24577D01*
X26449Y-23560D02*
X26850Y-23961D01*
X22528Y-23560D02*
X26449Y-23560D01*
X21888Y-24200D02*
X22528Y-23560D01*
X28350Y-24760D02*
X28350Y-24200D01*
X28350Y-25325D02*
X28350Y-24760D01*
X28083Y-25592D02*
X28350Y-25325D01*
X28083Y-27586D02*
X28083Y-25592D01*
X28447Y-27950D02*
X28083Y-27586D01*
X29023Y-27950D02*
X28447Y-27950D01*
X85250Y-50200D02*
X84382Y-49332D01*
X84382Y-49332D02*
X79218Y-49332D01*
X79218Y-49332D02*
X78350Y-50200D01*
X56250Y-50200D02*
X55382Y-49332D01*
X55382Y-49332D02*
X50218Y-49332D01*
X50218Y-49332D02*
X49350Y-50200D01*
X64718Y-49332D02*
X63850Y-50200D01*
X69882Y-49332D02*
X64718Y-49332D01*
X70750Y-50200D02*
X69882Y-49332D01*
X41850Y-50200D02*
X40982Y-49332D01*
X40982Y-49332D02*
X35818Y-49332D01*
X35818Y-49332D02*
X34950Y-50200D01*
X21318Y-49332D02*
X20450Y-50200D01*
X26482Y-49332D02*
X21318Y-49332D01*
X27350Y-50200D02*
X26482Y-49332D01*
X27350Y-37200D02*
X26482Y-36332D01*
X26482Y-36332D02*
X21318Y-36332D01*
X21318Y-36332D02*
X20450Y-37200D01*
X35818Y-36332D02*
X34950Y-37200D01*
X40982Y-36332D02*
X35818Y-36332D01*
X41850Y-37200D02*
X40982Y-36332D01*
X70750Y-37200D02*
X69882Y-36332D01*
X69882Y-36332D02*
X64718Y-36332D01*
X64718Y-36332D02*
X63850Y-37200D01*
X50218Y-36332D02*
X49350Y-37200D01*
X55382Y-36332D02*
X50218Y-36332D01*
X56250Y-37200D02*
X55382Y-36332D01*
X79218Y-36332D02*
X78350Y-37200D01*
X84382Y-36332D02*
X79218Y-36332D01*
X85250Y-37200D02*
X84382Y-36332D01*
X85250Y-24200D02*
X84382Y-23332D01*
X84382Y-23332D02*
X79218Y-23332D01*
X79218Y-23332D02*
X78350Y-24200D01*
X56250Y-24200D02*
X55382Y-23332D01*
X55382Y-23332D02*
X50218Y-23332D01*
X50218Y-23332D02*
X49350Y-24200D01*
X64718Y-23332D02*
X63850Y-24200D01*
X69882Y-23332D02*
X64718Y-23332D01*
X70750Y-24200D02*
X69882Y-23332D01*
X41850Y-24200D02*
X40982Y-23332D01*
X40982Y-23332D02*
X35818Y-23332D01*
X35818Y-23332D02*
X34950Y-24200D01*
X21318Y-23332D02*
X20450Y-24200D01*
X26482Y-23332D02*
X21318Y-23332D01*
X27350Y-24200D02*
X26482Y-23332D01*
X83750Y-51200D02*
X83303Y-50753D01*
X83303Y-50753D02*
X81702Y-50753D01*
X81702Y-50753D02*
X81346Y-51109D01*
X81346Y-51109D02*
X79562Y-51109D01*
X79562Y-51109D02*
X79032Y-51639D01*
X79032Y-51639D02*
X77289Y-51639D01*
X77289Y-51639D02*
X76850Y-51200D01*
X54750Y-51200D02*
X54303Y-50753D01*
X54303Y-50753D02*
X52702Y-50753D01*
X52702Y-50753D02*
X52346Y-51109D01*
X52346Y-51109D02*
X50562Y-51109D01*
X50562Y-51109D02*
X50032Y-51639D01*
X50032Y-51639D02*
X48289Y-51639D01*
X48289Y-51639D02*
X47850Y-51200D01*
X62789Y-51639D02*
X62350Y-51200D01*
X64532Y-51639D02*
X62789Y-51639D01*
X65062Y-51109D02*
X64532Y-51639D01*
X66846Y-51109D02*
X65062Y-51109D01*
X67202Y-50753D02*
X66846Y-51109D01*
X68803Y-50753D02*
X67202Y-50753D01*
X69250Y-51200D02*
X68803Y-50753D01*
X40350Y-51200D02*
X39903Y-50753D01*
X39903Y-50753D02*
X38302Y-50753D01*
X38302Y-50753D02*
X37946Y-51109D01*
X37946Y-51109D02*
X36162Y-51109D01*
X36162Y-51109D02*
X35632Y-51639D01*
X35632Y-51639D02*
X33889Y-51639D01*
X33889Y-51639D02*
X33450Y-51200D01*
X19389Y-51639D02*
X18950Y-51200D01*
X21132Y-51639D02*
X19389Y-51639D01*
X21662Y-51109D02*
X21132Y-51639D01*
X23446Y-51109D02*
X21662Y-51109D01*
X23802Y-50753D02*
X23446Y-51109D01*
X25403Y-50753D02*
X23802Y-50753D01*
X25850Y-51200D02*
X25403Y-50753D01*
X25850Y-38200D02*
X25403Y-37753D01*
X25403Y-37753D02*
X23802Y-37753D01*
X23802Y-37753D02*
X23446Y-38109D01*
X23446Y-38109D02*
X21662Y-38109D01*
X21662Y-38109D02*
X21132Y-38639D01*
X21132Y-38639D02*
X19389Y-38639D01*
X19389Y-38639D02*
X18950Y-38200D01*
X33889Y-38639D02*
X33450Y-38200D01*
X35632Y-38639D02*
X33889Y-38639D01*
X36162Y-38109D02*
X35632Y-38639D01*
X37946Y-38109D02*
X36162Y-38109D01*
X38302Y-37753D02*
X37946Y-38109D01*
X39903Y-37753D02*
X38302Y-37753D01*
X40350Y-38200D02*
X39903Y-37753D01*
X69250Y-38200D02*
X68803Y-37753D01*
X68803Y-37753D02*
X67202Y-37753D01*
X67202Y-37753D02*
X66846Y-38109D01*
X66846Y-38109D02*
X65062Y-38109D01*
X65062Y-38109D02*
X64532Y-38639D01*
X64532Y-38639D02*
X62789Y-38639D01*
X62789Y-38639D02*
X62350Y-38200D01*
X48289Y-38639D02*
X47850Y-38200D01*
X50032Y-38639D02*
X48289Y-38639D01*
X50562Y-38109D02*
X50032Y-38639D01*
X52346Y-38109D02*
X50562Y-38109D01*
X52702Y-37753D02*
X52346Y-38109D01*
X54303Y-37753D02*
X52702Y-37753D01*
X54750Y-38200D02*
X54303Y-37753D01*
X77289Y-38639D02*
X76850Y-38200D01*
X79032Y-38639D02*
X77289Y-38639D01*
X79562Y-38109D02*
X79032Y-38639D01*
X81346Y-38109D02*
X79562Y-38109D01*
X81702Y-37753D02*
X81346Y-38109D01*
X83303Y-37753D02*
X81702Y-37753D01*
X83750Y-38200D02*
X83303Y-37753D01*
X83750Y-25200D02*
X83303Y-24753D01*
X83303Y-24753D02*
X81702Y-24753D01*
X81702Y-24753D02*
X81346Y-25109D01*
X81346Y-25109D02*
X79562Y-25109D01*
X79562Y-25109D02*
X79032Y-25639D01*
X79032Y-25639D02*
X77289Y-25639D01*
X77289Y-25639D02*
X76850Y-25200D01*
X54750Y-25200D02*
X54303Y-24753D01*
X54303Y-24753D02*
X52702Y-24753D01*
X52702Y-24753D02*
X52346Y-25109D01*
X52346Y-25109D02*
X50562Y-25109D01*
X50562Y-25109D02*
X50032Y-25639D01*
X50032Y-25639D02*
X48289Y-25639D01*
X48289Y-25639D02*
X47850Y-25200D01*
X62789Y-25639D02*
X62350Y-25200D01*
X64532Y-25639D02*
X62789Y-25639D01*
X65062Y-25109D02*
X64532Y-25639D01*
X66846Y-25109D02*
X65062Y-25109D01*
X67202Y-24753D02*
X66846Y-25109D01*
X68803Y-24753D02*
X67202Y-24753D01*
X69250Y-25200D02*
X68803Y-24753D01*
X40350Y-25200D02*
X39903Y-24753D01*
X39903Y-24753D02*
X38302Y-24753D01*
X38302Y-24753D02*
X37946Y-25109D01*
X37946Y-25109D02*
X36162Y-25109D01*
X36162Y-25109D02*
X35632Y-25639D01*
X35632Y-25639D02*
X33889Y-25639D01*
X33889Y-25639D02*
X33450Y-25200D01*
X19389Y-25639D02*
X18950Y-25200D01*
X21132Y-25639D02*
X19389Y-25639D01*
X21662Y-25109D02*
X21132Y-25639D01*
X23446Y-25109D02*
X21662Y-25109D01*
X23802Y-24753D02*
X23446Y-25109D01*
X25403Y-24753D02*
X23802Y-24753D01*
X25850Y-25200D02*
X25403Y-24753D01*
X75850Y-51200D02*
X76473Y-51823D01*
X76473Y-51823D02*
X79831Y-51823D01*
X79831Y-51823D02*
X80271Y-51383D01*
X80271Y-51383D02*
X82567Y-51383D01*
X82567Y-51383D02*
X82750Y-51200D01*
X46850Y-51200D02*
X47473Y-51823D01*
X47473Y-51823D02*
X50831Y-51823D01*
X50831Y-51823D02*
X51271Y-51383D01*
X51271Y-51383D02*
X53567Y-51383D01*
X53567Y-51383D02*
X53750Y-51200D01*
X68067Y-51383D02*
X68250Y-51200D01*
X65771Y-51383D02*
X68067Y-51383D01*
X65331Y-51823D02*
X65771Y-51383D01*
X61973Y-51823D02*
X65331Y-51823D01*
X61350Y-51200D02*
X61973Y-51823D01*
X32450Y-51200D02*
X33073Y-51823D01*
X33073Y-51823D02*
X36431Y-51823D01*
X36431Y-51823D02*
X36871Y-51383D01*
X36871Y-51383D02*
X39167Y-51383D01*
X39167Y-51383D02*
X39350Y-51200D01*
X24667Y-51383D02*
X24850Y-51200D01*
X22371Y-51383D02*
X24667Y-51383D01*
X21931Y-51823D02*
X22371Y-51383D01*
X18573Y-51823D02*
X21931Y-51823D01*
X17950Y-51200D02*
X18573Y-51823D01*
X17950Y-38200D02*
X18573Y-38823D01*
X18573Y-38823D02*
X21931Y-38823D01*
X21931Y-38823D02*
X22371Y-38383D01*
X22371Y-38383D02*
X24667Y-38383D01*
X24667Y-38383D02*
X24850Y-38200D01*
X39167Y-38383D02*
X39350Y-38200D01*
X36871Y-38383D02*
X39167Y-38383D01*
X36431Y-38823D02*
X36871Y-38383D01*
X33073Y-38823D02*
X36431Y-38823D01*
X32450Y-38200D02*
X33073Y-38823D01*
X61350Y-38200D02*
X61973Y-38823D01*
X61973Y-38823D02*
X65331Y-38823D01*
X65331Y-38823D02*
X65771Y-38383D01*
X65771Y-38383D02*
X68067Y-38383D01*
X68067Y-38383D02*
X68250Y-38200D01*
X53567Y-38383D02*
X53750Y-38200D01*
X51271Y-38383D02*
X53567Y-38383D01*
X50831Y-38823D02*
X51271Y-38383D01*
X47473Y-38823D02*
X50831Y-38823D01*
X46850Y-38200D02*
X47473Y-38823D01*
X82567Y-38383D02*
X82750Y-38200D01*
X80271Y-38383D02*
X82567Y-38383D01*
X79831Y-38823D02*
X80271Y-38383D01*
X76473Y-38823D02*
X79831Y-38823D01*
X75850Y-38200D02*
X76473Y-38823D01*
X75850Y-25200D02*
X76473Y-25823D01*
X76473Y-25823D02*
X79831Y-25823D01*
X79831Y-25823D02*
X80271Y-25383D01*
X80271Y-25383D02*
X82567Y-25383D01*
X82567Y-25383D02*
X82750Y-25200D01*
X46850Y-25200D02*
X47473Y-25823D01*
X47473Y-25823D02*
X50831Y-25823D01*
X50831Y-25823D02*
X51271Y-25383D01*
X51271Y-25383D02*
X53567Y-25383D01*
X53567Y-25383D02*
X53750Y-25200D01*
X68067Y-25383D02*
X68250Y-25200D01*
X65771Y-25383D02*
X68067Y-25383D01*
X65331Y-25823D02*
X65771Y-25383D01*
X61973Y-25823D02*
X65331Y-25823D01*
X61350Y-25200D02*
X61973Y-25823D01*
X32450Y-25200D02*
X33073Y-25823D01*
X33073Y-25823D02*
X36431Y-25823D01*
X36431Y-25823D02*
X36871Y-25383D01*
X36871Y-25383D02*
X39167Y-25383D01*
X39167Y-25383D02*
X39350Y-25200D01*
X24667Y-25383D02*
X24850Y-25200D01*
X22371Y-25383D02*
X24667Y-25383D01*
X21931Y-25823D02*
X22371Y-25383D01*
X18573Y-25823D02*
X21931Y-25823D01*
X17950Y-25200D02*
X18573Y-25823D01*
X83400Y-53559D02*
X82903Y-53559D01*
X82200Y-53630D02*
X82832Y-53630D01*
X82832Y-53630D02*
X82903Y-53559D01*
X54400Y-53559D02*
X53903Y-53559D01*
X53200Y-53630D02*
X53832Y-53630D01*
X53832Y-53630D02*
X53903Y-53559D01*
X68332Y-53630D02*
X68403Y-53559D01*
X67700Y-53630D02*
X68332Y-53630D01*
X68900Y-53559D02*
X68403Y-53559D01*
X40000Y-53559D02*
X39503Y-53559D01*
X38800Y-53630D02*
X39432Y-53630D01*
X39432Y-53630D02*
X39503Y-53559D01*
X24932Y-53630D02*
X25003Y-53559D01*
X24300Y-53630D02*
X24932Y-53630D01*
X25500Y-53559D02*
X25003Y-53559D01*
X25500Y-40559D02*
X25003Y-40559D01*
X24300Y-40630D02*
X24932Y-40630D01*
X24932Y-40630D02*
X25003Y-40559D01*
X39432Y-40630D02*
X39503Y-40559D01*
X38800Y-40630D02*
X39432Y-40630D01*
X40000Y-40559D02*
X39503Y-40559D01*
X68900Y-40559D02*
X68403Y-40559D01*
X67700Y-40630D02*
X68332Y-40630D01*
X68332Y-40630D02*
X68403Y-40559D01*
X53832Y-40630D02*
X53903Y-40559D01*
X53200Y-40630D02*
X53832Y-40630D01*
X54400Y-40559D02*
X53903Y-40559D01*
X82832Y-40630D02*
X82903Y-40559D01*
X82200Y-40630D02*
X82832Y-40630D01*
X83400Y-40559D02*
X82903Y-40559D01*
X83400Y-27559D02*
X82903Y-27559D01*
X82200Y-27630D02*
X82832Y-27630D01*
X82832Y-27630D02*
X82903Y-27559D01*
X54400Y-27559D02*
X53903Y-27559D01*
X53200Y-27630D02*
X53832Y-27630D01*
X53832Y-27630D02*
X53903Y-27559D01*
X68332Y-27630D02*
X68403Y-27559D01*
X67700Y-27630D02*
X68332Y-27630D01*
X68900Y-27559D02*
X68403Y-27559D01*
X40000Y-27559D02*
X39503Y-27559D01*
X38800Y-27630D02*
X39432Y-27630D01*
X39432Y-27630D02*
X39503Y-27559D01*
X24932Y-27630D02*
X25003Y-27559D01*
X24300Y-27630D02*
X24932Y-27630D01*
X25500Y-27559D02*
X25003Y-27559D01*
X82200Y-53890D02*
X82849Y-53890D01*
X82849Y-53890D02*
X83400Y-54441D01*
X53200Y-53890D02*
X53849Y-53890D01*
X53849Y-53890D02*
X54400Y-54441D01*
X68349Y-53890D02*
X68900Y-54441D01*
X67700Y-53890D02*
X68349Y-53890D01*
X38800Y-53890D02*
X39449Y-53890D01*
X39449Y-53890D02*
X40000Y-54441D01*
X24949Y-53890D02*
X25500Y-54441D01*
X24300Y-53890D02*
X24949Y-53890D01*
X24300Y-40890D02*
X24949Y-40890D01*
X24949Y-40890D02*
X25500Y-41441D01*
X39449Y-40890D02*
X40000Y-41441D01*
X38800Y-40890D02*
X39449Y-40890D01*
X67700Y-40890D02*
X68349Y-40890D01*
X68349Y-40890D02*
X68900Y-41441D01*
X53849Y-40890D02*
X54400Y-41441D01*
X53200Y-40890D02*
X53849Y-40890D01*
X82849Y-40890D02*
X83400Y-41441D01*
X82200Y-40890D02*
X82849Y-40890D01*
X82200Y-27890D02*
X82849Y-27890D01*
X82849Y-27890D02*
X83400Y-28441D01*
X53200Y-27890D02*
X53849Y-27890D01*
X53849Y-27890D02*
X54400Y-28441D01*
X68349Y-27890D02*
X68900Y-28441D01*
X67700Y-27890D02*
X68349Y-27890D01*
X38800Y-27890D02*
X39449Y-27890D01*
X39449Y-27890D02*
X40000Y-28441D01*
X24949Y-27890D02*
X25500Y-28441D01*
X24300Y-27890D02*
X24949Y-27890D01*
X82200Y-55420D02*
X82593Y-55420D01*
X75015Y-54510D02*
X77161Y-54510D01*
X77161Y-54510D02*
X78738Y-56087D01*
X78738Y-56087D02*
X82572Y-56087D01*
X82572Y-56087D02*
X82593Y-56066D01*
X82593Y-56066D02*
X82593Y-55420D01*
X53200Y-55420D02*
X53593Y-55420D01*
X46015Y-54510D02*
X48161Y-54510D01*
X48161Y-54510D02*
X49738Y-56087D01*
X49738Y-56087D02*
X53572Y-56087D01*
X53572Y-56087D02*
X53593Y-56066D01*
X53593Y-56066D02*
X53593Y-55420D01*
X68093Y-56066D02*
X68093Y-55420D01*
X68072Y-56087D02*
X68093Y-56066D01*
X64238Y-56087D02*
X68072Y-56087D01*
X62661Y-54510D02*
X64238Y-56087D01*
X60515Y-54510D02*
X62661Y-54510D01*
X67700Y-55420D02*
X68093Y-55420D01*
X38800Y-55420D02*
X39193Y-55420D01*
X31615Y-54510D02*
X33761Y-54510D01*
X33761Y-54510D02*
X35338Y-56087D01*
X35338Y-56087D02*
X39172Y-56087D01*
X39172Y-56087D02*
X39193Y-56066D01*
X39193Y-56066D02*
X39193Y-55420D01*
X24693Y-56066D02*
X24693Y-55420D01*
X24672Y-56087D02*
X24693Y-56066D01*
X20838Y-56087D02*
X24672Y-56087D01*
X19261Y-54510D02*
X20838Y-56087D01*
X17115Y-54510D02*
X19261Y-54510D01*
X24300Y-55420D02*
X24693Y-55420D01*
X24300Y-42420D02*
X24693Y-42420D01*
X17115Y-41510D02*
X19261Y-41510D01*
X19261Y-41510D02*
X20838Y-43087D01*
X20838Y-43087D02*
X24672Y-43087D01*
X24672Y-43087D02*
X24693Y-43066D01*
X24693Y-43066D02*
X24693Y-42420D01*
X39193Y-43066D02*
X39193Y-42420D01*
X39172Y-43087D02*
X39193Y-43066D01*
X35338Y-43087D02*
X39172Y-43087D01*
X33761Y-41510D02*
X35338Y-43087D01*
X31615Y-41510D02*
X33761Y-41510D01*
X38800Y-42420D02*
X39193Y-42420D01*
X67700Y-42420D02*
X68093Y-42420D01*
X60515Y-41510D02*
X62661Y-41510D01*
X62661Y-41510D02*
X64238Y-43087D01*
X64238Y-43087D02*
X68072Y-43087D01*
X68072Y-43087D02*
X68093Y-43066D01*
X68093Y-43066D02*
X68093Y-42420D01*
X53593Y-43066D02*
X53593Y-42420D01*
X53572Y-43087D02*
X53593Y-43066D01*
X49738Y-43087D02*
X53572Y-43087D01*
X48161Y-41510D02*
X49738Y-43087D01*
X46015Y-41510D02*
X48161Y-41510D01*
X53200Y-42420D02*
X53593Y-42420D01*
X82593Y-43066D02*
X82593Y-42420D01*
X82572Y-43087D02*
X82593Y-43066D01*
X78738Y-43087D02*
X82572Y-43087D01*
X77161Y-41510D02*
X78738Y-43087D01*
X75015Y-41510D02*
X77161Y-41510D01*
X82200Y-42420D02*
X82593Y-42420D01*
X82200Y-29420D02*
X82593Y-29420D01*
X75015Y-28510D02*
X77161Y-28510D01*
X77161Y-28510D02*
X78738Y-30087D01*
X78738Y-30087D02*
X82572Y-30087D01*
X82572Y-30087D02*
X82593Y-30066D01*
X82593Y-30066D02*
X82593Y-29420D01*
X53200Y-29420D02*
X53593Y-29420D01*
X46015Y-28510D02*
X48161Y-28510D01*
X48161Y-28510D02*
X49738Y-30087D01*
X49738Y-30087D02*
X53572Y-30087D01*
X53572Y-30087D02*
X53593Y-30066D01*
X53593Y-30066D02*
X53593Y-29420D01*
X68093Y-30066D02*
X68093Y-29420D01*
X68072Y-30087D02*
X68093Y-30066D01*
X64238Y-30087D02*
X68072Y-30087D01*
X62661Y-28510D02*
X64238Y-30087D01*
X60515Y-28510D02*
X62661Y-28510D01*
X67700Y-29420D02*
X68093Y-29420D01*
X38800Y-29420D02*
X39193Y-29420D01*
X31615Y-28510D02*
X33761Y-28510D01*
X33761Y-28510D02*
X35338Y-30087D01*
X35338Y-30087D02*
X39172Y-30087D01*
X39172Y-30087D02*
X39193Y-30066D01*
X39193Y-30066D02*
X39193Y-29420D01*
X24693Y-30066D02*
X24693Y-29420D01*
X24672Y-30087D02*
X24693Y-30066D01*
X20838Y-30087D02*
X24672Y-30087D01*
X19261Y-28510D02*
X20838Y-30087D01*
X17115Y-28510D02*
X19261Y-28510D01*
X24300Y-29420D02*
X24693Y-29420D01*
X83400Y-55900D02*
X83400Y-55559D01*
X54400Y-55900D02*
X54400Y-55559D01*
X68900Y-55900D02*
X68900Y-55559D01*
X40000Y-55900D02*
X40000Y-55559D01*
X25500Y-55900D02*
X25500Y-55559D01*
X25500Y-42900D02*
X25500Y-42559D01*
X40000Y-42900D02*
X40000Y-42559D01*
X68900Y-42900D02*
X68900Y-42559D01*
X54400Y-42900D02*
X54400Y-42559D01*
X83400Y-42900D02*
X83400Y-42559D01*
X83400Y-29900D02*
X83400Y-29559D01*
X54400Y-29900D02*
X54400Y-29559D01*
X68900Y-29900D02*
X68900Y-29559D01*
X40000Y-29900D02*
X40000Y-29559D01*
X25500Y-29900D02*
X25500Y-29559D01*
X83400Y-52100D02*
X83400Y-52441D01*
X54400Y-52100D02*
X54400Y-52441D01*
X68900Y-52100D02*
X68900Y-52441D01*
X40000Y-52100D02*
X40000Y-52441D01*
X25500Y-52100D02*
X25500Y-52441D01*
X25500Y-39100D02*
X25500Y-39441D01*
X40000Y-39100D02*
X40000Y-39441D01*
X68900Y-39100D02*
X68900Y-39441D01*
X54400Y-39100D02*
X54400Y-39441D01*
X83400Y-39100D02*
X83400Y-39441D01*
X83400Y-26100D02*
X83400Y-26441D01*
X54400Y-26100D02*
X54400Y-26441D01*
X68900Y-26100D02*
X68900Y-26441D01*
X40000Y-26100D02*
X40000Y-26441D01*
X25500Y-26100D02*
X25500Y-26441D01*
X82200Y-55180D02*
X80885Y-55180D01*
X80885Y-55180D02*
X80836Y-55229D01*
X53200Y-55180D02*
X51885Y-55180D01*
X51885Y-55180D02*
X51836Y-55229D01*
X66385Y-55180D02*
X66336Y-55229D01*
X67700Y-55180D02*
X66385Y-55180D01*
X38800Y-55180D02*
X37485Y-55180D01*
X37485Y-55180D02*
X37436Y-55229D01*
X22985Y-55180D02*
X22936Y-55229D01*
X24300Y-55180D02*
X22985Y-55180D01*
X24300Y-42180D02*
X22985Y-42180D01*
X22985Y-42180D02*
X22936Y-42229D01*
X37485Y-42180D02*
X37436Y-42229D01*
X38800Y-42180D02*
X37485Y-42180D01*
X67700Y-42180D02*
X66385Y-42180D01*
X66385Y-42180D02*
X66336Y-42229D01*
X51885Y-42180D02*
X51836Y-42229D01*
X53200Y-42180D02*
X51885Y-42180D01*
X80885Y-42180D02*
X80836Y-42229D01*
X82200Y-42180D02*
X80885Y-42180D01*
X82200Y-29180D02*
X80885Y-29180D01*
X80885Y-29180D02*
X80836Y-29229D01*
X53200Y-29180D02*
X51885Y-29180D01*
X51885Y-29180D02*
X51836Y-29229D01*
X66385Y-29180D02*
X66336Y-29229D01*
X67700Y-29180D02*
X66385Y-29180D01*
X38800Y-29180D02*
X37485Y-29180D01*
X37485Y-29180D02*
X37436Y-29229D01*
X22985Y-29180D02*
X22936Y-29229D01*
X24300Y-29180D02*
X22985Y-29180D01*
X75020Y-54820D02*
X75400Y-55200D01*
X75015Y-54820D02*
X75020Y-54820D01*
X46020Y-54820D02*
X46400Y-55200D01*
X46015Y-54820D02*
X46020Y-54820D01*
X60515Y-54820D02*
X60520Y-54820D01*
X60520Y-54820D02*
X60900Y-55200D01*
X31620Y-54820D02*
X32000Y-55200D01*
X31615Y-54820D02*
X31620Y-54820D01*
X17115Y-54820D02*
X17120Y-54820D01*
X17120Y-54820D02*
X17500Y-55200D01*
X17120Y-41820D02*
X17500Y-42200D01*
X17115Y-41820D02*
X17120Y-41820D01*
X31615Y-41820D02*
X31620Y-41820D01*
X31620Y-41820D02*
X32000Y-42200D01*
X60520Y-41820D02*
X60900Y-42200D01*
X60515Y-41820D02*
X60520Y-41820D01*
X46015Y-41820D02*
X46020Y-41820D01*
X46020Y-41820D02*
X46400Y-42200D01*
X75015Y-41820D02*
X75020Y-41820D01*
X75020Y-41820D02*
X75400Y-42200D01*
X75020Y-28820D02*
X75400Y-29200D01*
X75015Y-28820D02*
X75020Y-28820D01*
X46020Y-28820D02*
X46400Y-29200D01*
X46015Y-28820D02*
X46020Y-28820D01*
X60515Y-28820D02*
X60520Y-28820D01*
X60520Y-28820D02*
X60900Y-29200D01*
X31620Y-28820D02*
X32000Y-29200D01*
X31615Y-28820D02*
X31620Y-28820D01*
X17115Y-28820D02*
X17120Y-28820D01*
X17120Y-28820D02*
X17500Y-29200D01*
X82200Y-55680D02*
X81807Y-55680D01*
X75015Y-54200D02*
X77188Y-54200D01*
X77188Y-54200D02*
X78891Y-55903D01*
X78891Y-55903D02*
X81584Y-55903D01*
X81584Y-55903D02*
X81807Y-55680D01*
X53200Y-55680D02*
X52807Y-55680D01*
X46015Y-54200D02*
X48188Y-54200D01*
X48188Y-54200D02*
X49891Y-55903D01*
X49891Y-55903D02*
X52584Y-55903D01*
X52584Y-55903D02*
X52807Y-55680D01*
X67084Y-55903D02*
X67307Y-55680D01*
X64391Y-55903D02*
X67084Y-55903D01*
X62688Y-54200D02*
X64391Y-55903D01*
X60515Y-54200D02*
X62688Y-54200D01*
X67700Y-55680D02*
X67307Y-55680D01*
X38800Y-55680D02*
X38407Y-55680D01*
X31615Y-54200D02*
X33788Y-54200D01*
X33788Y-54200D02*
X35491Y-55903D01*
X35491Y-55903D02*
X38184Y-55903D01*
X38184Y-55903D02*
X38407Y-55680D01*
X23684Y-55903D02*
X23907Y-55680D01*
X20991Y-55903D02*
X23684Y-55903D01*
X19288Y-54200D02*
X20991Y-55903D01*
X17115Y-54200D02*
X19288Y-54200D01*
X24300Y-55680D02*
X23907Y-55680D01*
X24300Y-42680D02*
X23907Y-42680D01*
X17115Y-41200D02*
X19288Y-41200D01*
X19288Y-41200D02*
X20991Y-42903D01*
X20991Y-42903D02*
X23684Y-42903D01*
X23684Y-42903D02*
X23907Y-42680D01*
X38184Y-42903D02*
X38407Y-42680D01*
X35491Y-42903D02*
X38184Y-42903D01*
X33788Y-41200D02*
X35491Y-42903D01*
X31615Y-41200D02*
X33788Y-41200D01*
X38800Y-42680D02*
X38407Y-42680D01*
X67700Y-42680D02*
X67307Y-42680D01*
X60515Y-41200D02*
X62688Y-41200D01*
X62688Y-41200D02*
X64391Y-42903D01*
X64391Y-42903D02*
X67084Y-42903D01*
X67084Y-42903D02*
X67307Y-42680D01*
X52584Y-42903D02*
X52807Y-42680D01*
X49891Y-42903D02*
X52584Y-42903D01*
X48188Y-41200D02*
X49891Y-42903D01*
X46015Y-41200D02*
X48188Y-41200D01*
X53200Y-42680D02*
X52807Y-42680D01*
X81584Y-42903D02*
X81807Y-42680D01*
X78891Y-42903D02*
X81584Y-42903D01*
X77188Y-41200D02*
X78891Y-42903D01*
X75015Y-41200D02*
X77188Y-41200D01*
X82200Y-42680D02*
X81807Y-42680D01*
X82200Y-29680D02*
X81807Y-29680D01*
X75015Y-28200D02*
X77188Y-28200D01*
X77188Y-28200D02*
X78891Y-29903D01*
X78891Y-29903D02*
X81584Y-29903D01*
X81584Y-29903D02*
X81807Y-29680D01*
X53200Y-29680D02*
X52807Y-29680D01*
X46015Y-28200D02*
X48188Y-28200D01*
X48188Y-28200D02*
X49891Y-29903D01*
X49891Y-29903D02*
X52584Y-29903D01*
X52584Y-29903D02*
X52807Y-29680D01*
X67084Y-29903D02*
X67307Y-29680D01*
X64391Y-29903D02*
X67084Y-29903D01*
X62688Y-28200D02*
X64391Y-29903D01*
X60515Y-28200D02*
X62688Y-28200D01*
X67700Y-29680D02*
X67307Y-29680D01*
X38800Y-29680D02*
X38407Y-29680D01*
X31615Y-28200D02*
X33788Y-28200D01*
X33788Y-28200D02*
X35491Y-29903D01*
X35491Y-29903D02*
X38184Y-29903D01*
X38184Y-29903D02*
X38407Y-29680D01*
X23684Y-29903D02*
X23907Y-29680D01*
X20991Y-29903D02*
X23684Y-29903D01*
X19288Y-28200D02*
X20991Y-29903D01*
X17115Y-28200D02*
X19288Y-28200D01*
X24300Y-29680D02*
X23907Y-29680D01*
X84715Y-54950D02*
X84900Y-55135D01*
X84900Y-55135D02*
X84900Y-55800D01*
X84715Y-54950D02*
X84300Y-54950D01*
X84876Y-54950D02*
X84715Y-54950D01*
X79400Y-53370D02*
X79793Y-53370D01*
X79793Y-53370D02*
X81037Y-52126D01*
X81037Y-52126D02*
X82572Y-52126D01*
X82572Y-52126D02*
X82902Y-52456D01*
X82902Y-52456D02*
X82902Y-52878D01*
X82902Y-52878D02*
X83122Y-53098D01*
X83122Y-53098D02*
X83877Y-53098D01*
X83877Y-53098D02*
X84300Y-53521D01*
X84300Y-53521D02*
X84300Y-54950D01*
X55715Y-54950D02*
X55900Y-55135D01*
X55900Y-55135D02*
X55900Y-55800D01*
X55715Y-54950D02*
X55300Y-54950D01*
X55876Y-54950D02*
X55715Y-54950D01*
X50400Y-53370D02*
X50793Y-53370D01*
X50793Y-53370D02*
X52037Y-52126D01*
X52037Y-52126D02*
X53572Y-52126D01*
X53572Y-52126D02*
X53902Y-52456D01*
X53902Y-52456D02*
X53902Y-52878D01*
X53902Y-52878D02*
X54122Y-53098D01*
X54122Y-53098D02*
X54877Y-53098D01*
X54877Y-53098D02*
X55300Y-53521D01*
X55300Y-53521D02*
X55300Y-54950D01*
X69800Y-53521D02*
X69800Y-54950D01*
X69377Y-53098D02*
X69800Y-53521D01*
X68622Y-53098D02*
X69377Y-53098D01*
X68402Y-52878D02*
X68622Y-53098D01*
X68402Y-52456D02*
X68402Y-52878D01*
X68072Y-52126D02*
X68402Y-52456D01*
X66537Y-52126D02*
X68072Y-52126D01*
X65293Y-53370D02*
X66537Y-52126D01*
X64900Y-53370D02*
X65293Y-53370D01*
X70376Y-54950D02*
X70215Y-54950D01*
X70215Y-54950D02*
X69800Y-54950D01*
X70400Y-55135D02*
X70400Y-55800D01*
X70215Y-54950D02*
X70400Y-55135D01*
X41315Y-54950D02*
X41500Y-55135D01*
X41500Y-55135D02*
X41500Y-55800D01*
X41315Y-54950D02*
X40900Y-54950D01*
X41476Y-54950D02*
X41315Y-54950D01*
X36000Y-53370D02*
X36393Y-53370D01*
X36393Y-53370D02*
X37637Y-52126D01*
X37637Y-52126D02*
X39172Y-52126D01*
X39172Y-52126D02*
X39502Y-52456D01*
X39502Y-52456D02*
X39502Y-52878D01*
X39502Y-52878D02*
X39722Y-53098D01*
X39722Y-53098D02*
X40477Y-53098D01*
X40477Y-53098D02*
X40900Y-53521D01*
X40900Y-53521D02*
X40900Y-54950D01*
X26400Y-53521D02*
X26400Y-54950D01*
X25977Y-53098D02*
X26400Y-53521D01*
X25222Y-53098D02*
X25977Y-53098D01*
X25002Y-52878D02*
X25222Y-53098D01*
X25002Y-52456D02*
X25002Y-52878D01*
X24672Y-52126D02*
X25002Y-52456D01*
X23137Y-52126D02*
X24672Y-52126D01*
X21893Y-53370D02*
X23137Y-52126D01*
X21500Y-53370D02*
X21893Y-53370D01*
X26976Y-54950D02*
X26815Y-54950D01*
X26815Y-54950D02*
X26400Y-54950D01*
X27000Y-55135D02*
X27000Y-55800D01*
X26815Y-54950D02*
X27000Y-55135D01*
X26815Y-41950D02*
X27000Y-42135D01*
X27000Y-42135D02*
X27000Y-42800D01*
X26815Y-41950D02*
X26400Y-41950D01*
X26976Y-41950D02*
X26815Y-41950D01*
X21500Y-40370D02*
X21893Y-40370D01*
X21893Y-40370D02*
X23137Y-39126D01*
X23137Y-39126D02*
X24672Y-39126D01*
X24672Y-39126D02*
X25002Y-39456D01*
X25002Y-39456D02*
X25002Y-39878D01*
X25002Y-39878D02*
X25222Y-40098D01*
X25222Y-40098D02*
X25977Y-40098D01*
X25977Y-40098D02*
X26400Y-40521D01*
X26400Y-40521D02*
X26400Y-41950D01*
X40900Y-40521D02*
X40900Y-41950D01*
X40477Y-40098D02*
X40900Y-40521D01*
X39722Y-40098D02*
X40477Y-40098D01*
X39502Y-39878D02*
X39722Y-40098D01*
X39502Y-39456D02*
X39502Y-39878D01*
X39172Y-39126D02*
X39502Y-39456D01*
X37637Y-39126D02*
X39172Y-39126D01*
X36393Y-40370D02*
X37637Y-39126D01*
X36000Y-40370D02*
X36393Y-40370D01*
X41476Y-41950D02*
X41315Y-41950D01*
X41315Y-41950D02*
X40900Y-41950D01*
X41500Y-42135D02*
X41500Y-42800D01*
X41315Y-41950D02*
X41500Y-42135D01*
X70215Y-41950D02*
X70400Y-42135D01*
X70400Y-42135D02*
X70400Y-42800D01*
X70215Y-41950D02*
X69800Y-41950D01*
X70376Y-41950D02*
X70215Y-41950D01*
X64900Y-40370D02*
X65293Y-40370D01*
X65293Y-40370D02*
X66537Y-39126D01*
X66537Y-39126D02*
X68072Y-39126D01*
X68072Y-39126D02*
X68402Y-39456D01*
X68402Y-39456D02*
X68402Y-39878D01*
X68402Y-39878D02*
X68622Y-40098D01*
X68622Y-40098D02*
X69377Y-40098D01*
X69377Y-40098D02*
X69800Y-40521D01*
X69800Y-40521D02*
X69800Y-41950D01*
X55300Y-40521D02*
X55300Y-41950D01*
X54877Y-40098D02*
X55300Y-40521D01*
X54122Y-40098D02*
X54877Y-40098D01*
X53902Y-39878D02*
X54122Y-40098D01*
X53902Y-39456D02*
X53902Y-39878D01*
X53572Y-39126D02*
X53902Y-39456D01*
X52037Y-39126D02*
X53572Y-39126D01*
X50793Y-40370D02*
X52037Y-39126D01*
X50400Y-40370D02*
X50793Y-40370D01*
X55876Y-41950D02*
X55715Y-41950D01*
X55715Y-41950D02*
X55300Y-41950D01*
X55900Y-42135D02*
X55900Y-42800D01*
X55715Y-41950D02*
X55900Y-42135D01*
X84300Y-40521D02*
X84300Y-41950D01*
X83877Y-40098D02*
X84300Y-40521D01*
X83122Y-40098D02*
X83877Y-40098D01*
X82902Y-39878D02*
X83122Y-40098D01*
X82902Y-39456D02*
X82902Y-39878D01*
X82572Y-39126D02*
X82902Y-39456D01*
X81037Y-39126D02*
X82572Y-39126D01*
X79793Y-40370D02*
X81037Y-39126D01*
X79400Y-40370D02*
X79793Y-40370D01*
X84876Y-41950D02*
X84715Y-41950D01*
X84715Y-41950D02*
X84300Y-41950D01*
X84900Y-42135D02*
X84900Y-42800D01*
X84715Y-41950D02*
X84900Y-42135D01*
X84715Y-28950D02*
X84900Y-29135D01*
X84900Y-29135D02*
X84900Y-29800D01*
X84715Y-28950D02*
X84300Y-28950D01*
X84876Y-28950D02*
X84715Y-28950D01*
X79400Y-27370D02*
X79793Y-27370D01*
X79793Y-27370D02*
X81037Y-26126D01*
X81037Y-26126D02*
X82572Y-26126D01*
X82572Y-26126D02*
X82902Y-26456D01*
X82902Y-26456D02*
X82902Y-26878D01*
X82902Y-26878D02*
X83122Y-27098D01*
X83122Y-27098D02*
X83877Y-27098D01*
X83877Y-27098D02*
X84300Y-27521D01*
X84300Y-27521D02*
X84300Y-28950D01*
X55715Y-28950D02*
X55900Y-29135D01*
X55900Y-29135D02*
X55900Y-29800D01*
X55715Y-28950D02*
X55300Y-28950D01*
X55876Y-28950D02*
X55715Y-28950D01*
X50400Y-27370D02*
X50793Y-27370D01*
X50793Y-27370D02*
X52037Y-26126D01*
X52037Y-26126D02*
X53572Y-26126D01*
X53572Y-26126D02*
X53902Y-26456D01*
X53902Y-26456D02*
X53902Y-26878D01*
X53902Y-26878D02*
X54122Y-27098D01*
X54122Y-27098D02*
X54877Y-27098D01*
X54877Y-27098D02*
X55300Y-27521D01*
X55300Y-27521D02*
X55300Y-28950D01*
X69800Y-27521D02*
X69800Y-28950D01*
X69377Y-27098D02*
X69800Y-27521D01*
X68622Y-27098D02*
X69377Y-27098D01*
X68402Y-26878D02*
X68622Y-27098D01*
X68402Y-26456D02*
X68402Y-26878D01*
X68072Y-26126D02*
X68402Y-26456D01*
X66537Y-26126D02*
X68072Y-26126D01*
X65293Y-27370D02*
X66537Y-26126D01*
X64900Y-27370D02*
X65293Y-27370D01*
X70376Y-28950D02*
X70215Y-28950D01*
X70215Y-28950D02*
X69800Y-28950D01*
X70400Y-29135D02*
X70400Y-29800D01*
X70215Y-28950D02*
X70400Y-29135D01*
X41315Y-28950D02*
X41500Y-29135D01*
X41500Y-29135D02*
X41500Y-29800D01*
X41315Y-28950D02*
X40900Y-28950D01*
X41476Y-28950D02*
X41315Y-28950D01*
X36000Y-27370D02*
X36393Y-27370D01*
X36393Y-27370D02*
X37637Y-26126D01*
X37637Y-26126D02*
X39172Y-26126D01*
X39172Y-26126D02*
X39502Y-26456D01*
X39502Y-26456D02*
X39502Y-26878D01*
X39502Y-26878D02*
X39722Y-27098D01*
X39722Y-27098D02*
X40477Y-27098D01*
X40477Y-27098D02*
X40900Y-27521D01*
X40900Y-27521D02*
X40900Y-28950D01*
X26400Y-27521D02*
X26400Y-28950D01*
X25977Y-27098D02*
X26400Y-27521D01*
X25222Y-27098D02*
X25977Y-27098D01*
X25002Y-26878D02*
X25222Y-27098D01*
X25002Y-26456D02*
X25002Y-26878D01*
X24672Y-26126D02*
X25002Y-26456D01*
X23137Y-26126D02*
X24672Y-26126D01*
X21893Y-27370D02*
X23137Y-26126D01*
X21500Y-27370D02*
X21893Y-27370D01*
X26976Y-28950D02*
X26815Y-28950D01*
X26815Y-28950D02*
X26400Y-28950D01*
X27000Y-29135D02*
X27000Y-29800D01*
X26815Y-28950D02*
X27000Y-29135D01*
X85452Y-54280D02*
X85650Y-54280D01*
X85452Y-54280D02*
X85452Y-53950D01*
X85452Y-54450D02*
X85452Y-54280D01*
X84876Y-53950D02*
X85452Y-53950D01*
X84876Y-54450D02*
X85452Y-54450D01*
X56452Y-54280D02*
X56650Y-54280D01*
X56452Y-54280D02*
X56452Y-53950D01*
X56452Y-54450D02*
X56452Y-54280D01*
X55876Y-53950D02*
X56452Y-53950D01*
X55876Y-54450D02*
X56452Y-54450D01*
X70376Y-54450D02*
X70952Y-54450D01*
X70376Y-53950D02*
X70952Y-53950D01*
X70952Y-54450D02*
X70952Y-54280D01*
X70952Y-54280D02*
X70952Y-53950D01*
X70952Y-54280D02*
X71150Y-54280D01*
X42052Y-54280D02*
X42250Y-54280D01*
X42052Y-54280D02*
X42052Y-53950D01*
X42052Y-54450D02*
X42052Y-54280D01*
X41476Y-53950D02*
X42052Y-53950D01*
X41476Y-54450D02*
X42052Y-54450D01*
X26976Y-54450D02*
X27552Y-54450D01*
X26976Y-53950D02*
X27552Y-53950D01*
X27552Y-54450D02*
X27552Y-54280D01*
X27552Y-54280D02*
X27552Y-53950D01*
X27552Y-54280D02*
X27750Y-54280D01*
X27552Y-41280D02*
X27750Y-41280D01*
X27552Y-41280D02*
X27552Y-40950D01*
X27552Y-41450D02*
X27552Y-41280D01*
X26976Y-40950D02*
X27552Y-40950D01*
X26976Y-41450D02*
X27552Y-41450D01*
X41476Y-41450D02*
X42052Y-41450D01*
X41476Y-40950D02*
X42052Y-40950D01*
X42052Y-41450D02*
X42052Y-41280D01*
X42052Y-41280D02*
X42052Y-40950D01*
X42052Y-41280D02*
X42250Y-41280D01*
X70952Y-41280D02*
X71150Y-41280D01*
X70952Y-41280D02*
X70952Y-40950D01*
X70952Y-41450D02*
X70952Y-41280D01*
X70376Y-40950D02*
X70952Y-40950D01*
X70376Y-41450D02*
X70952Y-41450D01*
X55876Y-41450D02*
X56452Y-41450D01*
X55876Y-40950D02*
X56452Y-40950D01*
X56452Y-41450D02*
X56452Y-41280D01*
X56452Y-41280D02*
X56452Y-40950D01*
X56452Y-41280D02*
X56650Y-41280D01*
X84876Y-41450D02*
X85452Y-41450D01*
X84876Y-40950D02*
X85452Y-40950D01*
X85452Y-41450D02*
X85452Y-41280D01*
X85452Y-41280D02*
X85452Y-40950D01*
X85452Y-41280D02*
X85650Y-41280D01*
X85452Y-28280D02*
X85650Y-28280D01*
X85452Y-28280D02*
X85452Y-27950D01*
X85452Y-28450D02*
X85452Y-28280D01*
X84876Y-27950D02*
X85452Y-27950D01*
X84876Y-28450D02*
X85452Y-28450D01*
X56452Y-28280D02*
X56650Y-28280D01*
X56452Y-28280D02*
X56452Y-27950D01*
X56452Y-28450D02*
X56452Y-28280D01*
X55876Y-27950D02*
X56452Y-27950D01*
X55876Y-28450D02*
X56452Y-28450D01*
X70376Y-28450D02*
X70952Y-28450D01*
X70376Y-27950D02*
X70952Y-27950D01*
X70952Y-28450D02*
X70952Y-28280D01*
X70952Y-28280D02*
X70952Y-27950D01*
X70952Y-28280D02*
X71150Y-28280D01*
X42052Y-28280D02*
X42250Y-28280D01*
X42052Y-28280D02*
X42052Y-27950D01*
X42052Y-28450D02*
X42052Y-28280D01*
X41476Y-27950D02*
X42052Y-27950D01*
X41476Y-28450D02*
X42052Y-28450D01*
X26976Y-28450D02*
X27552Y-28450D01*
X26976Y-27950D02*
X27552Y-27950D01*
X27552Y-28450D02*
X27552Y-28280D01*
X27552Y-28280D02*
X27552Y-27950D01*
X27552Y-28280D02*
X27750Y-28280D01*
X77350Y-50200D02*
X77790Y-50640D01*
X77790Y-50640D02*
X81470Y-50640D01*
X81470Y-50640D02*
X82366Y-49744D01*
X82366Y-49744D02*
X83794Y-49744D01*
X83794Y-49744D02*
X84250Y-50200D01*
X48350Y-50200D02*
X48790Y-50640D01*
X48790Y-50640D02*
X52470Y-50640D01*
X52470Y-50640D02*
X53366Y-49744D01*
X53366Y-49744D02*
X54794Y-49744D01*
X54794Y-49744D02*
X55250Y-50200D01*
X69294Y-49744D02*
X69750Y-50200D01*
X67866Y-49744D02*
X69294Y-49744D01*
X66970Y-50640D02*
X67866Y-49744D01*
X63290Y-50640D02*
X66970Y-50640D01*
X62850Y-50200D02*
X63290Y-50640D01*
X33950Y-50200D02*
X34390Y-50640D01*
X34390Y-50640D02*
X38070Y-50640D01*
X38070Y-50640D02*
X38966Y-49744D01*
X38966Y-49744D02*
X40394Y-49744D01*
X40394Y-49744D02*
X40850Y-50200D01*
X25894Y-49744D02*
X26350Y-50200D01*
X24466Y-49744D02*
X25894Y-49744D01*
X23570Y-50640D02*
X24466Y-49744D01*
X19890Y-50640D02*
X23570Y-50640D01*
X19450Y-50200D02*
X19890Y-50640D01*
X19450Y-37200D02*
X19890Y-37640D01*
X19890Y-37640D02*
X23570Y-37640D01*
X23570Y-37640D02*
X24466Y-36744D01*
X24466Y-36744D02*
X25894Y-36744D01*
X25894Y-36744D02*
X26350Y-37200D01*
X40394Y-36744D02*
X40850Y-37200D01*
X38966Y-36744D02*
X40394Y-36744D01*
X38070Y-37640D02*
X38966Y-36744D01*
X34390Y-37640D02*
X38070Y-37640D01*
X33950Y-37200D02*
X34390Y-37640D01*
X62850Y-37200D02*
X63290Y-37640D01*
X63290Y-37640D02*
X66970Y-37640D01*
X66970Y-37640D02*
X67866Y-36744D01*
X67866Y-36744D02*
X69294Y-36744D01*
X69294Y-36744D02*
X69750Y-37200D01*
X54794Y-36744D02*
X55250Y-37200D01*
X53366Y-36744D02*
X54794Y-36744D01*
X52470Y-37640D02*
X53366Y-36744D01*
X48790Y-37640D02*
X52470Y-37640D01*
X48350Y-37200D02*
X48790Y-37640D01*
X83794Y-36744D02*
X84250Y-37200D01*
X82366Y-36744D02*
X83794Y-36744D01*
X81470Y-37640D02*
X82366Y-36744D01*
X77790Y-37640D02*
X81470Y-37640D01*
X77350Y-37200D02*
X77790Y-37640D01*
X77350Y-24200D02*
X77790Y-24640D01*
X77790Y-24640D02*
X81470Y-24640D01*
X81470Y-24640D02*
X82366Y-23744D01*
X82366Y-23744D02*
X83794Y-23744D01*
X83794Y-23744D02*
X84250Y-24200D01*
X48350Y-24200D02*
X48790Y-24640D01*
X48790Y-24640D02*
X52470Y-24640D01*
X52470Y-24640D02*
X53366Y-23744D01*
X53366Y-23744D02*
X54794Y-23744D01*
X54794Y-23744D02*
X55250Y-24200D01*
X69294Y-23744D02*
X69750Y-24200D01*
X67866Y-23744D02*
X69294Y-23744D01*
X66970Y-24640D02*
X67866Y-23744D01*
X63290Y-24640D02*
X66970Y-24640D01*
X62850Y-24200D02*
X63290Y-24640D01*
X33950Y-24200D02*
X34390Y-24640D01*
X34390Y-24640D02*
X38070Y-24640D01*
X38070Y-24640D02*
X38966Y-23744D01*
X38966Y-23744D02*
X40394Y-23744D01*
X40394Y-23744D02*
X40850Y-24200D01*
X25894Y-23744D02*
X26350Y-24200D01*
X24466Y-23744D02*
X25894Y-23744D01*
X23570Y-24640D02*
X24466Y-23744D01*
X19890Y-24640D02*
X23570Y-24640D01*
X19450Y-24200D02*
X19890Y-24640D01*
X84691Y-52500D02*
X84876Y-52685D01*
X84876Y-52685D02*
X84876Y-53450D01*
X84691Y-52500D02*
X84482Y-52500D01*
X84900Y-52500D02*
X84691Y-52500D01*
X84482Y-52500D02*
X83697Y-51715D01*
X83697Y-51715D02*
X80428Y-51715D01*
X80428Y-51715D02*
X79793Y-52350D01*
X79400Y-52350D02*
X79793Y-52350D01*
X55691Y-52500D02*
X55876Y-52685D01*
X55876Y-52685D02*
X55876Y-53450D01*
X55691Y-52500D02*
X55482Y-52500D01*
X55900Y-52500D02*
X55691Y-52500D01*
X55482Y-52500D02*
X54697Y-51715D01*
X54697Y-51715D02*
X51428Y-51715D01*
X51428Y-51715D02*
X50793Y-52350D01*
X50400Y-52350D02*
X50793Y-52350D01*
X64900Y-52350D02*
X65293Y-52350D01*
X65928Y-51715D02*
X65293Y-52350D01*
X69197Y-51715D02*
X65928Y-51715D01*
X69982Y-52500D02*
X69197Y-51715D01*
X70400Y-52500D02*
X70191Y-52500D01*
X70191Y-52500D02*
X69982Y-52500D01*
X70376Y-52685D02*
X70376Y-53450D01*
X70191Y-52500D02*
X70376Y-52685D01*
X41291Y-52500D02*
X41476Y-52685D01*
X41476Y-52685D02*
X41476Y-53450D01*
X41291Y-52500D02*
X41082Y-52500D01*
X41500Y-52500D02*
X41291Y-52500D01*
X41082Y-52500D02*
X40297Y-51715D01*
X40297Y-51715D02*
X37028Y-51715D01*
X37028Y-51715D02*
X36393Y-52350D01*
X36000Y-52350D02*
X36393Y-52350D01*
X21500Y-52350D02*
X21893Y-52350D01*
X22528Y-51715D02*
X21893Y-52350D01*
X25797Y-51715D02*
X22528Y-51715D01*
X26582Y-52500D02*
X25797Y-51715D01*
X27000Y-52500D02*
X26791Y-52500D01*
X26791Y-52500D02*
X26582Y-52500D01*
X26976Y-52685D02*
X26976Y-53450D01*
X26791Y-52500D02*
X26976Y-52685D01*
X26791Y-39500D02*
X26976Y-39685D01*
X26976Y-39685D02*
X26976Y-40450D01*
X26791Y-39500D02*
X26582Y-39500D01*
X27000Y-39500D02*
X26791Y-39500D01*
X26582Y-39500D02*
X25797Y-38715D01*
X25797Y-38715D02*
X22528Y-38715D01*
X22528Y-38715D02*
X21893Y-39350D01*
X21500Y-39350D02*
X21893Y-39350D01*
X36000Y-39350D02*
X36393Y-39350D01*
X37028Y-38715D02*
X36393Y-39350D01*
X40297Y-38715D02*
X37028Y-38715D01*
X41082Y-39500D02*
X40297Y-38715D01*
X41500Y-39500D02*
X41291Y-39500D01*
X41291Y-39500D02*
X41082Y-39500D01*
X41476Y-39685D02*
X41476Y-40450D01*
X41291Y-39500D02*
X41476Y-39685D01*
X70191Y-39500D02*
X70376Y-39685D01*
X70376Y-39685D02*
X70376Y-40450D01*
X70191Y-39500D02*
X69982Y-39500D01*
X70400Y-39500D02*
X70191Y-39500D01*
X69982Y-39500D02*
X69197Y-38715D01*
X69197Y-38715D02*
X65928Y-38715D01*
X65928Y-38715D02*
X65293Y-39350D01*
X64900Y-39350D02*
X65293Y-39350D01*
X50400Y-39350D02*
X50793Y-39350D01*
X51428Y-38715D02*
X50793Y-39350D01*
X54697Y-38715D02*
X51428Y-38715D01*
X55482Y-39500D02*
X54697Y-38715D01*
X55900Y-39500D02*
X55691Y-39500D01*
X55691Y-39500D02*
X55482Y-39500D01*
X55876Y-39685D02*
X55876Y-40450D01*
X55691Y-39500D02*
X55876Y-39685D01*
X79400Y-39350D02*
X79793Y-39350D01*
X80428Y-38715D02*
X79793Y-39350D01*
X83697Y-38715D02*
X80428Y-38715D01*
X84482Y-39500D02*
X83697Y-38715D01*
X84900Y-39500D02*
X84691Y-39500D01*
X84691Y-39500D02*
X84482Y-39500D01*
X84876Y-39685D02*
X84876Y-40450D01*
X84691Y-39500D02*
X84876Y-39685D01*
X84691Y-26500D02*
X84876Y-26685D01*
X84876Y-26685D02*
X84876Y-27450D01*
X84691Y-26500D02*
X84482Y-26500D01*
X84900Y-26500D02*
X84691Y-26500D01*
X84482Y-26500D02*
X83697Y-25715D01*
X83697Y-25715D02*
X80428Y-25715D01*
X80428Y-25715D02*
X79793Y-26350D01*
X79400Y-26350D02*
X79793Y-26350D01*
X55691Y-26500D02*
X55876Y-26685D01*
X55876Y-26685D02*
X55876Y-27450D01*
X55691Y-26500D02*
X55482Y-26500D01*
X55900Y-26500D02*
X55691Y-26500D01*
X55482Y-26500D02*
X54697Y-25715D01*
X54697Y-25715D02*
X51428Y-25715D01*
X51428Y-25715D02*
X50793Y-26350D01*
X50400Y-26350D02*
X50793Y-26350D01*
X64900Y-26350D02*
X65293Y-26350D01*
X65928Y-25715D02*
X65293Y-26350D01*
X69197Y-25715D02*
X65928Y-25715D01*
X69982Y-26500D02*
X69197Y-25715D01*
X70400Y-26500D02*
X70191Y-26500D01*
X70191Y-26500D02*
X69982Y-26500D01*
X70376Y-26685D02*
X70376Y-27450D01*
X70191Y-26500D02*
X70376Y-26685D01*
X41291Y-26500D02*
X41476Y-26685D01*
X41476Y-26685D02*
X41476Y-27450D01*
X41291Y-26500D02*
X41082Y-26500D01*
X41500Y-26500D02*
X41291Y-26500D01*
X41082Y-26500D02*
X40297Y-25715D01*
X40297Y-25715D02*
X37028Y-25715D01*
X37028Y-25715D02*
X36393Y-26350D01*
X36000Y-26350D02*
X36393Y-26350D01*
X21500Y-26350D02*
X21893Y-26350D01*
X22528Y-25715D02*
X21893Y-26350D01*
X25797Y-25715D02*
X22528Y-25715D01*
X26582Y-26500D02*
X25797Y-25715D01*
X27000Y-26500D02*
X26791Y-26500D01*
X26791Y-26500D02*
X26582Y-26500D01*
X26976Y-26685D02*
X26976Y-27450D01*
X26791Y-26500D02*
X26976Y-26685D01*
X86923Y-54450D02*
X86347Y-54450D01*
X86347Y-54450D02*
X85750Y-53853D01*
X85750Y-53853D02*
X85750Y-51200D01*
X57923Y-54450D02*
X57347Y-54450D01*
X57347Y-54450D02*
X56750Y-53853D01*
X56750Y-53853D02*
X56750Y-51200D01*
X71250Y-53853D02*
X71250Y-51200D01*
X71847Y-54450D02*
X71250Y-53853D01*
X72423Y-54450D02*
X71847Y-54450D01*
X43523Y-54450D02*
X42947Y-54450D01*
X42947Y-54450D02*
X42350Y-53853D01*
X42350Y-53853D02*
X42350Y-51200D01*
X27850Y-53853D02*
X27850Y-51200D01*
X28447Y-54450D02*
X27850Y-53853D01*
X29023Y-54450D02*
X28447Y-54450D01*
X29023Y-41450D02*
X28447Y-41450D01*
X28447Y-41450D02*
X27850Y-40853D01*
X27850Y-40853D02*
X27850Y-38200D01*
X42350Y-40853D02*
X42350Y-38200D01*
X42947Y-41450D02*
X42350Y-40853D01*
X43523Y-41450D02*
X42947Y-41450D01*
X72423Y-41450D02*
X71847Y-41450D01*
X71847Y-41450D02*
X71250Y-40853D01*
X71250Y-40853D02*
X71250Y-38200D01*
X56750Y-40853D02*
X56750Y-38200D01*
X57347Y-41450D02*
X56750Y-40853D01*
X57923Y-41450D02*
X57347Y-41450D01*
X85750Y-40853D02*
X85750Y-38200D01*
X86347Y-41450D02*
X85750Y-40853D01*
X86923Y-41450D02*
X86347Y-41450D01*
X86923Y-28450D02*
X86347Y-28450D01*
X86347Y-28450D02*
X85750Y-27853D01*
X85750Y-27853D02*
X85750Y-25200D01*
X57923Y-28450D02*
X57347Y-28450D01*
X57347Y-28450D02*
X56750Y-27853D01*
X56750Y-27853D02*
X56750Y-25200D01*
X71250Y-27853D02*
X71250Y-25200D01*
X71847Y-28450D02*
X71250Y-27853D01*
X72423Y-28450D02*
X71847Y-28450D01*
X43523Y-28450D02*
X42947Y-28450D01*
X42947Y-28450D02*
X42350Y-27853D01*
X42350Y-27853D02*
X42350Y-25200D01*
X27850Y-27853D02*
X27850Y-25200D01*
X28447Y-28450D02*
X27850Y-27853D01*
X29023Y-28450D02*
X28447Y-28450D01*
X79007Y-53120D02*
X78655Y-53120D01*
X79400Y-53120D02*
X79007Y-53120D01*
X86923Y-53450D02*
X86347Y-53450D01*
X86900Y-52500D02*
X86900Y-52918D01*
X86900Y-52918D02*
X86634Y-52918D01*
X86634Y-52918D02*
X86347Y-53205D01*
X86347Y-53205D02*
X86347Y-53450D01*
X82200Y-54400D02*
X80761Y-54400D01*
X50007Y-53120D02*
X49655Y-53120D01*
X50400Y-53120D02*
X50007Y-53120D01*
X57923Y-53450D02*
X57347Y-53450D01*
X57900Y-52500D02*
X57900Y-52918D01*
X57900Y-52918D02*
X57634Y-52918D01*
X57634Y-52918D02*
X57347Y-53205D01*
X57347Y-53205D02*
X57347Y-53450D01*
X53200Y-54400D02*
X51761Y-54400D01*
X67700Y-54400D02*
X66261Y-54400D01*
X71847Y-53205D02*
X71847Y-53450D01*
X72134Y-52918D02*
X71847Y-53205D01*
X72400Y-52918D02*
X72134Y-52918D01*
X72400Y-52500D02*
X72400Y-52918D01*
X72423Y-53450D02*
X71847Y-53450D01*
X64900Y-53120D02*
X64507Y-53120D01*
X64507Y-53120D02*
X64155Y-53120D01*
X35607Y-53120D02*
X35255Y-53120D01*
X36000Y-53120D02*
X35607Y-53120D01*
X43523Y-53450D02*
X42947Y-53450D01*
X43500Y-52500D02*
X43500Y-52918D01*
X43500Y-52918D02*
X43234Y-52918D01*
X43234Y-52918D02*
X42947Y-53205D01*
X42947Y-53205D02*
X42947Y-53450D01*
X38800Y-54400D02*
X37361Y-54400D01*
X24300Y-54400D02*
X22861Y-54400D01*
X28447Y-53205D02*
X28447Y-53450D01*
X28734Y-52918D02*
X28447Y-53205D01*
X29000Y-52918D02*
X28734Y-52918D01*
X29000Y-52500D02*
X29000Y-52918D01*
X29023Y-53450D02*
X28447Y-53450D01*
X21500Y-53120D02*
X21107Y-53120D01*
X21107Y-53120D02*
X20755Y-53120D01*
X21107Y-40120D02*
X20755Y-40120D01*
X21500Y-40120D02*
X21107Y-40120D01*
X29023Y-40450D02*
X28447Y-40450D01*
X29000Y-39500D02*
X29000Y-39918D01*
X29000Y-39918D02*
X28734Y-39918D01*
X28734Y-39918D02*
X28447Y-40205D01*
X28447Y-40205D02*
X28447Y-40450D01*
X24300Y-41400D02*
X22861Y-41400D01*
X38800Y-41400D02*
X37361Y-41400D01*
X42947Y-40205D02*
X42947Y-40450D01*
X43234Y-39918D02*
X42947Y-40205D01*
X43500Y-39918D02*
X43234Y-39918D01*
X43500Y-39500D02*
X43500Y-39918D01*
X43523Y-40450D02*
X42947Y-40450D01*
X36000Y-40120D02*
X35607Y-40120D01*
X35607Y-40120D02*
X35255Y-40120D01*
X64507Y-40120D02*
X64155Y-40120D01*
X64900Y-40120D02*
X64507Y-40120D01*
X72423Y-40450D02*
X71847Y-40450D01*
X72400Y-39500D02*
X72400Y-39918D01*
X72400Y-39918D02*
X72134Y-39918D01*
X72134Y-39918D02*
X71847Y-40205D01*
X71847Y-40205D02*
X71847Y-40450D01*
X67700Y-41400D02*
X66261Y-41400D01*
X53200Y-41400D02*
X51761Y-41400D01*
X57347Y-40205D02*
X57347Y-40450D01*
X57634Y-39918D02*
X57347Y-40205D01*
X57900Y-39918D02*
X57634Y-39918D01*
X57900Y-39500D02*
X57900Y-39918D01*
X57923Y-40450D02*
X57347Y-40450D01*
X50400Y-40120D02*
X50007Y-40120D01*
X50007Y-40120D02*
X49655Y-40120D01*
X82200Y-41400D02*
X80761Y-41400D01*
X86347Y-40205D02*
X86347Y-40450D01*
X86634Y-39918D02*
X86347Y-40205D01*
X86900Y-39918D02*
X86634Y-39918D01*
X86900Y-39500D02*
X86900Y-39918D01*
X86923Y-40450D02*
X86347Y-40450D01*
X79400Y-40120D02*
X79007Y-40120D01*
X79007Y-40120D02*
X78655Y-40120D01*
X79007Y-27120D02*
X78655Y-27120D01*
X79400Y-27120D02*
X79007Y-27120D01*
X86923Y-27450D02*
X86347Y-27450D01*
X86900Y-26500D02*
X86900Y-26918D01*
X86900Y-26918D02*
X86634Y-26918D01*
X86634Y-26918D02*
X86347Y-27205D01*
X86347Y-27205D02*
X86347Y-27450D01*
X82200Y-28400D02*
X80761Y-28400D01*
X50007Y-27120D02*
X49655Y-27120D01*
X50400Y-27120D02*
X50007Y-27120D01*
X57923Y-27450D02*
X57347Y-27450D01*
X57900Y-26500D02*
X57900Y-26918D01*
X57900Y-26918D02*
X57634Y-26918D01*
X57634Y-26918D02*
X57347Y-27205D01*
X57347Y-27205D02*
X57347Y-27450D01*
X53200Y-28400D02*
X51761Y-28400D01*
X67700Y-28400D02*
X66261Y-28400D01*
X71847Y-27205D02*
X71847Y-27450D01*
X72134Y-26918D02*
X71847Y-27205D01*
X72400Y-26918D02*
X72134Y-26918D01*
X72400Y-26500D02*
X72400Y-26918D01*
X72423Y-27450D02*
X71847Y-27450D01*
X64900Y-27120D02*
X64507Y-27120D01*
X64507Y-27120D02*
X64155Y-27120D01*
X35607Y-27120D02*
X35255Y-27120D01*
X36000Y-27120D02*
X35607Y-27120D01*
X43523Y-27450D02*
X42947Y-27450D01*
X43500Y-26500D02*
X43500Y-26918D01*
X43500Y-26918D02*
X43234Y-26918D01*
X43234Y-26918D02*
X42947Y-27205D01*
X42947Y-27205D02*
X42947Y-27450D01*
X38800Y-28400D02*
X37361Y-28400D01*
X24300Y-28400D02*
X22861Y-28400D01*
X28447Y-27205D02*
X28447Y-27450D01*
X28734Y-26918D02*
X28447Y-27205D01*
X29000Y-26918D02*
X28734Y-26918D01*
X29000Y-26500D02*
X29000Y-26918D01*
X29023Y-27450D02*
X28447Y-27450D01*
X21500Y-27120D02*
X21107Y-27120D01*
X21107Y-27120D02*
X20755Y-27120D01*
M02*
