M48
;DRILL file {PCBnew (2011-07-08)-stable} date Thu 21 Jul 2011 05:41:41 PM EDT
;FORMAT={-:-/ absolute / inch / decimal}
FMAT,2
INCH,TZ
T1C0.014
T2C0.032
T3C0.032
T4C0.035
T5C0.040
T6C0.045
T7C0.120
T8C0.128
%
G90
G05
M72
T1
X2.691Y5.356
X2.738Y5.561
X2.801Y5.340
X2.887Y5.364
X2.900Y4.970
X2.944Y4.906
X3.053Y5.129
X3.060Y5.070
X3.063Y5.158
X3.140Y5.410
X3.200Y5.199
X3.216Y5.299
X3.440Y5.110
X3.440Y5.010
X3.440Y5.210
X3.440Y5.310
X3.840Y1.920
X3.840Y2.030
X3.840Y2.130
X3.840Y2.220
X4.561Y5.356
X4.608Y5.561
X4.671Y5.340
X4.757Y5.364
X4.770Y4.970
X4.814Y4.906
X4.923Y5.129
X4.930Y5.070
X4.933Y5.158
X5.010Y5.410
X5.070Y5.199
X5.086Y5.299
X5.310Y5.110
X5.310Y5.010
X5.310Y5.210
X5.310Y5.310
X6.270Y1.920
X6.270Y2.030
X6.270Y2.130
X6.270Y2.220
X6.601Y5.356
X6.648Y5.561
X6.711Y5.340
X6.797Y5.364
X6.810Y4.970
X6.854Y4.906
X6.963Y5.129
X6.970Y5.070
X6.973Y5.158
X7.050Y5.410
X7.110Y5.199
X7.126Y5.299
X7.350Y5.110
X7.350Y5.010
X7.350Y5.210
X7.350Y5.310
X8.491Y5.356
X8.538Y5.561
X8.601Y5.340
X8.687Y5.364
X8.700Y1.920
X8.700Y2.030
X8.700Y2.130
X8.700Y2.220
X8.700Y4.970
X8.744Y4.906
X8.853Y5.129
X8.860Y5.070
X8.863Y5.158
X8.940Y5.410
X9.000Y5.199
X9.016Y5.299
X9.240Y5.110
X9.240Y5.010
X9.240Y5.210
X9.240Y5.310
T2
X2.660Y5.130
X2.660Y5.230
X3.110Y2.570
X3.110Y2.670
X4.530Y5.130
X4.530Y5.230
X5.540Y2.570
X5.540Y2.670
X6.570Y5.130
X6.570Y5.230
X7.970Y2.570
X7.970Y2.670
X8.460Y5.130
X8.460Y5.230
T3
X2.220Y2.940
X2.220Y3.140
X2.220Y4.940
X2.220Y5.120
X2.220Y5.240
X2.220Y5.370
X2.220Y5.490
X2.220Y5.610
X2.320Y2.880
X2.320Y3.200
X2.340Y4.940
X2.340Y5.480
X2.460Y4.940
X2.460Y5.480
X2.460Y5.610
X2.580Y4.940
X2.580Y5.480
X2.580Y5.610
X2.680Y4.940
X2.770Y2.570
X2.770Y2.670
X2.780Y2.100
X2.780Y2.200
X2.790Y4.940
X2.820Y2.900
X2.820Y3.200
X2.890Y2.350
X2.890Y2.450
X2.890Y2.570
X2.890Y2.670
X2.900Y2.100
X2.900Y2.200
X2.920Y2.900
X2.920Y3.200
X2.930Y5.620
X3.020Y2.900
X3.020Y3.200
X3.050Y5.620
X3.090Y1.820
X3.090Y1.920
X3.120Y2.900
X3.120Y3.200
X3.170Y5.620
X3.200Y2.400
X3.210Y1.820
X3.210Y1.920
X3.250Y3.300
X3.250Y3.400
X3.250Y3.500
X3.250Y3.600
X3.250Y3.700
X3.250Y3.800
X3.250Y3.900
X3.250Y4.000
X3.250Y4.100
X3.250Y4.200
X3.250Y4.300
X3.250Y4.400
X3.250Y4.500
X3.250Y4.600
X3.290Y5.620
X3.300Y4.940
X3.310Y1.720
X3.310Y1.820
X3.310Y1.920
X3.310Y2.020
X3.310Y2.120
X3.310Y2.220
X3.310Y2.320
X3.310Y2.420
X3.310Y2.520
X3.310Y2.620
X3.310Y2.720
X3.310Y2.820
X3.310Y2.920
X3.310Y3.020
X3.410Y3.020
X3.410Y5.620
X3.550Y3.300
X3.550Y3.400
X3.550Y3.500
X3.550Y3.600
X3.550Y3.700
X3.550Y3.800
X3.550Y3.900
X3.550Y4.000
X3.550Y4.100
X3.550Y4.200
X3.550Y4.300
X3.550Y4.400
X3.550Y4.500
X3.550Y4.600
X3.610Y1.720
X3.610Y1.820
X3.610Y1.920
X3.610Y2.020
X3.610Y2.120
X3.610Y2.220
X3.610Y2.320
X3.610Y2.420
X3.610Y2.520
X3.610Y2.620
X3.610Y2.720
X3.610Y2.820
X3.610Y2.920
X3.610Y3.020
X3.720Y1.720
X3.720Y1.820
X3.720Y2.720
X3.930Y1.720
X3.930Y1.820
X3.930Y1.920
X3.930Y2.020
X3.930Y2.120
X3.930Y2.220
X3.930Y2.320
X3.930Y2.420
X3.930Y2.520
X3.930Y2.620
X3.930Y2.720
X3.930Y2.820
X3.930Y2.920
X3.930Y3.020
X3.930Y3.300
X3.930Y3.400
X3.930Y3.500
X3.930Y3.600
X3.930Y3.700
X3.930Y3.800
X3.930Y3.900
X3.930Y4.000
X3.930Y4.100
X3.930Y4.200
X3.930Y4.300
X3.930Y4.400
X3.930Y4.500
X3.930Y4.600
X4.040Y1.880
X4.090Y4.940
X4.090Y5.120
X4.090Y5.240
X4.090Y5.370
X4.090Y5.490
X4.090Y5.610
X4.210Y4.940
X4.210Y5.480
X4.230Y1.720
X4.230Y1.820
X4.230Y1.920
X4.230Y2.020
X4.230Y2.120
X4.230Y2.220
X4.230Y2.320
X4.230Y2.420
X4.230Y2.520
X4.230Y2.620
X4.230Y2.720
X4.230Y2.820
X4.230Y2.920
X4.230Y3.020
X4.230Y3.300
X4.230Y3.400
X4.230Y3.500
X4.230Y3.600
X4.230Y3.700
X4.230Y3.800
X4.230Y3.900
X4.230Y4.000
X4.230Y4.100
X4.230Y4.200
X4.230Y4.300
X4.230Y4.400
X4.230Y4.500
X4.230Y4.600
X4.330Y4.940
X4.330Y5.480
X4.330Y5.610
X4.450Y4.940
X4.450Y5.480
X4.450Y5.610
X4.550Y4.940
X4.650Y2.940
X4.650Y3.140
X4.660Y4.940
X4.750Y2.880
X4.750Y3.200
X4.800Y5.620
X4.920Y5.620
X5.040Y5.620
X5.160Y5.620
X5.170Y4.940
X5.200Y2.570
X5.200Y2.670
X5.210Y2.100
X5.210Y2.200
X5.250Y2.900
X5.250Y3.200
X5.280Y5.620
X5.320Y2.350
X5.320Y2.450
X5.320Y2.570
X5.320Y2.670
X5.330Y2.100
X5.330Y2.200
X5.350Y2.900
X5.350Y3.200
X5.450Y2.900
X5.450Y3.200
X5.520Y1.820
X5.520Y1.920
X5.550Y2.900
X5.550Y3.200
X5.630Y2.400
X5.640Y1.820
X5.640Y1.920
X5.680Y3.300
X5.680Y3.400
X5.680Y3.500
X5.680Y3.600
X5.680Y3.700
X5.680Y3.800
X5.680Y3.900
X5.680Y4.000
X5.680Y4.100
X5.680Y4.200
X5.680Y4.300
X5.680Y4.400
X5.680Y4.500
X5.680Y4.600
X5.740Y1.720
X5.740Y1.820
X5.740Y1.920
X5.740Y2.020
X5.740Y2.120
X5.740Y2.220
X5.740Y2.320
X5.740Y2.420
X5.740Y2.520
X5.740Y2.620
X5.740Y2.720
X5.740Y2.820
X5.740Y2.920
X5.740Y3.020
X5.840Y3.020
X5.980Y3.300
X5.980Y3.400
X5.980Y3.500
X5.980Y3.600
X5.980Y3.700
X5.980Y3.800
X5.980Y3.900
X5.980Y4.000
X5.980Y4.100
X5.980Y4.200
X5.980Y4.300
X5.980Y4.400
X5.980Y4.500
X5.980Y4.600
X6.040Y1.720
X6.040Y1.820
X6.040Y1.920
X6.040Y2.020
X6.040Y2.120
X6.040Y2.220
X6.040Y2.320
X6.040Y2.420
X6.040Y2.520
X6.040Y2.620
X6.040Y2.720
X6.040Y2.820
X6.040Y2.920
X6.040Y3.020
X6.130Y4.940
X6.130Y5.120
X6.130Y5.240
X6.130Y5.370
X6.130Y5.490
X6.130Y5.610
X6.150Y1.720
X6.150Y1.820
X6.150Y2.720
X6.250Y4.940
X6.250Y5.480
X6.360Y1.720
X6.360Y1.820
X6.360Y1.920
X6.360Y2.020
X6.360Y2.120
X6.360Y2.220
X6.360Y2.320
X6.360Y2.420
X6.360Y2.520
X6.360Y2.620
X6.360Y2.720
X6.360Y2.820
X6.360Y2.920
X6.360Y3.020
X6.360Y3.300
X6.360Y3.400
X6.360Y3.500
X6.360Y3.600
X6.360Y3.700
X6.360Y3.800
X6.360Y3.900
X6.360Y4.000
X6.360Y4.100
X6.360Y4.200
X6.360Y4.300
X6.360Y4.400
X6.360Y4.500
X6.360Y4.600
X6.370Y4.940
X6.370Y5.480
X6.370Y5.610
X6.470Y1.880
X6.490Y4.940
X6.490Y5.480
X6.490Y5.610
X6.590Y4.940
X6.660Y1.720
X6.660Y1.820
X6.660Y1.920
X6.660Y2.020
X6.660Y2.120
X6.660Y2.220
X6.660Y2.320
X6.660Y2.420
X6.660Y2.520
X6.660Y2.620
X6.660Y2.720
X6.660Y2.820
X6.660Y2.920
X6.660Y3.020
X6.660Y3.300
X6.660Y3.400
X6.660Y3.500
X6.660Y3.600
X6.660Y3.700
X6.660Y3.800
X6.660Y3.900
X6.660Y4.000
X6.660Y4.100
X6.660Y4.200
X6.660Y4.300
X6.660Y4.400
X6.660Y4.500
X6.660Y4.600
X6.700Y4.940
X6.840Y5.620
X6.960Y5.620
X7.080Y2.940
X7.080Y3.140
X7.080Y5.620
X7.180Y2.880
X7.180Y3.200
X7.200Y5.620
X7.210Y4.940
X7.320Y5.620
X7.630Y2.570
X7.630Y2.670
X7.640Y2.100
X7.640Y2.200
X7.680Y2.900
X7.680Y3.200
X7.750Y2.350
X7.750Y2.450
X7.750Y2.570
X7.750Y2.670
X7.760Y2.100
X7.760Y2.200
X7.780Y2.900
X7.780Y3.200
X7.880Y2.900
X7.880Y3.200
X7.950Y1.820
X7.950Y1.920
X7.980Y2.900
X7.980Y3.200
X8.020Y4.940
X8.020Y5.120
X8.020Y5.240
X8.020Y5.370
X8.020Y5.490
X8.020Y5.610
X8.060Y2.400
X8.070Y1.820
X8.070Y1.920
X8.110Y3.300
X8.110Y3.400
X8.110Y3.500
X8.110Y3.600
X8.110Y3.700
X8.110Y3.800
X8.110Y3.900
X8.110Y4.000
X8.110Y4.100
X8.110Y4.200
X8.110Y4.300
X8.110Y4.400
X8.110Y4.500
X8.110Y4.600
X8.140Y4.940
X8.140Y5.480
X8.170Y1.720
X8.170Y1.820
X8.170Y1.920
X8.170Y2.020
X8.170Y2.120
X8.170Y2.220
X8.170Y2.320
X8.170Y2.420
X8.170Y2.520
X8.170Y2.620
X8.170Y2.720
X8.170Y2.820
X8.170Y2.920
X8.170Y3.020
X8.260Y4.940
X8.260Y5.480
X8.260Y5.610
X8.270Y3.020
X8.380Y4.940
X8.380Y5.480
X8.380Y5.610
X8.410Y3.300
X8.410Y3.400
X8.410Y3.500
X8.410Y3.600
X8.410Y3.700
X8.410Y3.800
X8.410Y3.900
X8.410Y4.000
X8.410Y4.100
X8.410Y4.200
X8.410Y4.300
X8.410Y4.400
X8.410Y4.500
X8.410Y4.600
X8.470Y1.720
X8.470Y1.820
X8.470Y1.920
X8.470Y2.020
X8.470Y2.120
X8.470Y2.220
X8.470Y2.320
X8.470Y2.420
X8.470Y2.520
X8.470Y2.620
X8.470Y2.720
X8.470Y2.820
X8.470Y2.920
X8.470Y3.020
X8.480Y4.940
X8.580Y1.720
X8.580Y1.820
X8.580Y2.720
X8.590Y4.940
X8.730Y5.620
X8.790Y1.720
X8.790Y1.820
X8.790Y1.920
X8.790Y2.020
X8.790Y2.120
X8.790Y2.220
X8.790Y2.320
X8.790Y2.420
X8.790Y2.520
X8.790Y2.620
X8.790Y2.720
X8.790Y2.820
X8.790Y2.920
X8.790Y3.020
X8.790Y3.300
X8.790Y3.400
X8.790Y3.500
X8.790Y3.600
X8.790Y3.700
X8.790Y3.800
X8.790Y3.900
X8.790Y4.000
X8.790Y4.100
X8.790Y4.200
X8.790Y4.300
X8.790Y4.400
X8.790Y4.500
X8.790Y4.600
X8.850Y5.620
X8.900Y1.880
X8.970Y5.620
X9.090Y1.720
X9.090Y1.820
X9.090Y1.920
X9.090Y2.020
X9.090Y2.120
X9.090Y2.220
X9.090Y2.320
X9.090Y2.420
X9.090Y2.520
X9.090Y2.620
X9.090Y2.720
X9.090Y2.820
X9.090Y2.920
X9.090Y3.020
X9.090Y3.300
X9.090Y3.400
X9.090Y3.500
X9.090Y3.600
X9.090Y3.700
X9.090Y3.800
X9.090Y3.900
X9.090Y4.000
X9.090Y4.100
X9.090Y4.200
X9.090Y4.300
X9.090Y4.400
X9.090Y4.500
X9.090Y4.600
X9.090Y5.620
X9.100Y4.940
X9.210Y5.620
T4
X2.730Y3.405
X2.730Y3.505
X2.730Y3.605
X2.730Y3.705
X2.730Y4.055
X2.730Y4.155
X2.730Y4.255
X2.730Y4.355
X2.830Y3.455
X2.830Y3.555
X2.830Y3.655
X2.830Y3.755
X2.830Y4.105
X2.830Y4.205
X2.830Y4.305
X2.830Y4.405
X5.160Y3.405
X5.160Y3.505
X5.160Y3.605
X5.160Y3.705
X5.160Y4.055
X5.160Y4.155
X5.160Y4.255
X5.160Y4.355
X5.260Y3.455
X5.260Y3.555
X5.260Y3.655
X5.260Y3.755
X5.260Y4.105
X5.260Y4.205
X5.260Y4.305
X5.260Y4.405
X7.590Y3.405
X7.590Y3.505
X7.590Y3.605
X7.590Y3.705
X7.590Y4.055
X7.590Y4.155
X7.590Y4.255
X7.590Y4.355
X7.690Y3.455
X7.690Y3.555
X7.690Y3.655
X7.690Y3.755
X7.690Y4.105
X7.690Y4.205
X7.690Y4.305
X7.690Y4.405
T6
X2.380Y5.100
X2.380Y5.200
X2.380Y5.300
X2.920Y1.720
X2.920Y1.820
X2.920Y1.920
X4.250Y5.100
X4.250Y5.200
X4.250Y5.300
X5.350Y1.720
X5.350Y1.820
X5.350Y1.920
X6.290Y5.100
X6.290Y5.200
X6.290Y5.300
X7.780Y1.720
X7.780Y1.820
X7.780Y1.920
X8.180Y5.100
X8.180Y5.200
X8.180Y5.300
T7
X2.260Y1.640
X2.260Y2.700
X2.260Y4.650
X2.460Y2.780
X2.460Y2.990
X2.500Y1.640
X2.670Y2.810
X3.090Y3.400
X3.090Y3.700
X3.090Y4.000
X3.090Y4.300
X3.090Y4.600
X3.760Y4.300
X3.760Y4.600
X3.770Y3.400
X3.770Y3.700
X3.770Y4.000
X4.370Y1.840
X4.370Y2.080
X4.370Y2.320
X4.370Y2.620
X4.370Y2.920
X4.380Y1.640
X4.380Y4.650
X4.690Y1.640
X4.690Y2.700
X4.690Y4.650
X4.890Y2.780
X4.890Y2.990
X4.930Y1.640
X5.100Y2.810
X5.520Y3.400
X5.520Y3.700
X5.520Y4.000
X5.520Y4.300
X5.520Y4.600
X6.190Y4.300
X6.190Y4.600
X6.200Y3.400
X6.200Y3.700
X6.200Y4.000
X6.800Y1.840
X6.800Y2.080
X6.800Y2.320
X6.800Y2.620
X6.800Y2.920
X6.810Y1.640
X6.810Y4.650
X7.120Y1.640
X7.120Y2.700
X7.120Y4.650
X7.320Y2.780
X7.320Y2.990
X7.360Y1.640
X7.530Y2.810
X7.950Y3.400
X7.950Y3.700
X7.950Y4.000
X7.950Y4.300
X7.950Y4.600
X8.620Y4.300
X8.620Y4.600
X8.630Y3.400
X8.630Y3.700
X8.630Y4.000
X9.230Y1.840
X9.230Y2.080
X9.230Y2.320
X9.230Y2.620
X9.230Y2.920
X9.240Y1.640
X9.240Y4.650
T8
X2.480Y3.347
X2.480Y3.814
X2.480Y3.997
X2.480Y4.464
X4.910Y3.347
X4.910Y3.814
X4.910Y3.997
X4.910Y4.464
X7.340Y3.347
X7.340Y3.814
X7.340Y3.997
X7.340Y4.464
T5
X2.480Y1.900G85X2.480Y1.960
G05
X2.480Y2.370G85X2.480Y2.430
G05
X2.540Y2.130G85X2.600Y2.130
G05
X2.540Y2.600G85X2.600Y2.600
G05
X2.720Y1.900G85X2.720Y1.960
G05
X2.720Y2.370G85X2.720Y2.430
G05
X4.910Y1.900G85X4.910Y1.960
G05
X4.910Y2.370G85X4.910Y2.430
G05
X4.970Y2.130G85X5.030Y2.130
G05
X4.970Y2.600G85X5.030Y2.600
G05
X5.150Y1.900G85X5.150Y1.960
G05
X5.150Y2.370G85X5.150Y2.430
G05
X7.340Y1.900G85X7.340Y1.960
G05
X7.340Y2.370G85X7.340Y2.430
G05
X7.400Y2.130G85X7.460Y2.130
G05
X7.400Y2.600G85X7.460Y2.600
G05
X7.580Y1.900G85X7.580Y1.960
G05
X7.580Y2.370G85X7.580Y2.430
G05
T0
M30
