G04 (created by PCBNEW-RS274X (2012-03-17 BZR 3466)-stable) date Mon 10 Dec 2012 10:26:00 PM EST*
G01*
G70*
G90*
%MOIN*%
G04 Gerber Fmt 3.4, Leading zero omitted, Abs format*
%FSLAX34Y34*%
G04 APERTURE LIST*
%ADD10C,0.006000*%
%ADD11C,0.015000*%
%ADD12C,0.079100*%
%ADD13C,0.080000*%
%ADD14C,0.090000*%
%ADD15C,0.075000*%
%ADD16R,0.075000X0.075000*%
%ADD17C,0.209000*%
%ADD18R,0.209000X0.209000*%
%ADD19C,0.163700*%
%ADD20R,0.079100X0.079100*%
%ADD21R,0.075000X0.055000*%
%ADD22R,0.055000X0.075000*%
%ADD23R,0.080000X0.100000*%
%ADD24R,0.106600X0.043600*%
%ADD25R,0.082900X0.090900*%
%ADD26R,0.090000X0.090000*%
%ADD27C,0.150000*%
%ADD28C,0.118400*%
%ADD29R,0.118400X0.180000*%
G04 APERTURE END LIST*
G54D10*
G54D11*
X00000Y-23500D02*
X39300Y-23500D01*
X00000Y00000D02*
X39300Y00000D01*
X00000Y-23500D02*
X00000Y00000D01*
X39300Y00000D02*
X39300Y-23500D01*
G54D12*
X32000Y-01200D03*
X32000Y-02200D03*
G54D13*
X03250Y-00550D03*
X05250Y-00550D03*
G54D14*
X02650Y-01550D03*
X05850Y-01550D03*
G54D15*
X04200Y-11700D03*
X05200Y-11700D03*
X06200Y-11700D03*
X07200Y-11700D03*
X08200Y-11700D03*
X09200Y-11700D03*
X10200Y-11700D03*
X11200Y-11700D03*
X12200Y-11700D03*
X13200Y-11700D03*
X14200Y-11700D03*
X15200Y-11700D03*
X16200Y-11700D03*
G54D16*
X03200Y-11700D03*
G54D15*
X16200Y-08700D03*
X15200Y-08700D03*
X14200Y-08700D03*
X13200Y-08700D03*
X12200Y-08700D03*
X11200Y-08700D03*
X10200Y-08700D03*
X09200Y-08700D03*
X08200Y-08700D03*
X07200Y-08700D03*
X06200Y-08700D03*
X05200Y-08700D03*
X04200Y-08700D03*
X03200Y-08700D03*
G54D17*
X28400Y-03200D03*
G54D18*
X28400Y-05600D03*
G54D17*
X26400Y-04100D03*
X35500Y-03200D03*
G54D18*
X35500Y-05600D03*
G54D17*
X33500Y-04100D03*
G54D19*
X13762Y-03100D03*
X18435Y-03100D03*
G54D20*
X17850Y-05600D03*
G54D12*
X17350Y-06600D03*
X16850Y-05600D03*
X16350Y-06600D03*
X15850Y-05600D03*
X15350Y-06600D03*
X14850Y-05600D03*
X14350Y-06600D03*
G54D19*
X07262Y-03100D03*
X11935Y-03100D03*
G54D20*
X11350Y-05600D03*
G54D12*
X10850Y-06600D03*
X10350Y-05600D03*
X09850Y-06600D03*
X09350Y-05600D03*
X08850Y-06600D03*
X08350Y-05600D03*
X07850Y-06600D03*
G54D21*
X19600Y-06075D03*
X19600Y-06825D03*
G54D22*
X10575Y-13600D03*
X09825Y-13600D03*
X04625Y-01550D03*
X03875Y-01550D03*
G54D23*
X30750Y-04800D03*
X32050Y-04800D03*
G54D22*
X03875Y-02300D03*
X04625Y-02300D03*
G54D24*
X03176Y-03000D03*
X03176Y-03500D03*
X03176Y-04000D03*
X03176Y-04500D03*
X05223Y-04500D03*
X05223Y-04000D03*
X05223Y-03500D03*
X05223Y-03000D03*
G54D25*
X21459Y-04800D03*
X20341Y-04800D03*
X21459Y-03800D03*
X20341Y-03800D03*
X21459Y-02800D03*
X20341Y-02800D03*
X21459Y-01800D03*
X20341Y-01800D03*
G54D14*
X25600Y-01200D03*
G54D26*
X24600Y-01200D03*
G54D14*
X23600Y-01200D03*
G54D25*
X21459Y-00799D03*
X20341Y-00799D03*
G54D22*
X23525Y-02750D03*
X24275Y-02750D03*
X31875Y-03600D03*
X31125Y-03600D03*
X25675Y-02750D03*
X24925Y-02750D03*
G54D15*
X02550Y-07950D03*
X04200Y-07950D03*
X13200Y-08150D03*
X17000Y-11700D03*
X08200Y-12500D03*
X34100Y-13700D03*
G54D27*
X38300Y-18500D03*
X01000Y-18500D03*
X38300Y-01000D03*
X01000Y-01000D03*
G54D22*
X28725Y-07800D03*
X29475Y-07800D03*
G54D15*
X24100Y-17500D03*
X25100Y-17500D03*
X26100Y-17500D03*
X27100Y-17500D03*
X28100Y-17500D03*
X29100Y-17500D03*
X30100Y-17500D03*
X31100Y-17500D03*
X32100Y-17500D03*
X33100Y-17500D03*
X34100Y-17500D03*
X35100Y-17500D03*
X36100Y-17500D03*
G54D16*
X23100Y-17500D03*
G54D15*
X36100Y-14500D03*
X35100Y-14500D03*
X34100Y-14500D03*
X33100Y-14500D03*
X32100Y-14500D03*
X31100Y-14500D03*
X30100Y-14500D03*
X29100Y-14500D03*
X28100Y-14500D03*
X27100Y-14500D03*
X26100Y-14500D03*
X25100Y-14500D03*
X24100Y-14500D03*
X23100Y-14500D03*
X24100Y-11700D03*
X25100Y-11700D03*
X26100Y-11700D03*
X27100Y-11700D03*
X28100Y-11700D03*
X29100Y-11700D03*
X30100Y-11700D03*
X31100Y-11700D03*
X32100Y-11700D03*
X33100Y-11700D03*
X34100Y-11700D03*
X35100Y-11700D03*
X36100Y-11700D03*
G54D16*
X23100Y-11700D03*
G54D15*
X36100Y-08700D03*
X35100Y-08700D03*
X34100Y-08700D03*
X33100Y-08700D03*
X32100Y-08700D03*
X31100Y-08700D03*
X30100Y-08700D03*
X29100Y-08700D03*
X28100Y-08700D03*
X27100Y-08700D03*
X26100Y-08700D03*
X25100Y-08700D03*
X24100Y-08700D03*
X23100Y-08700D03*
X04200Y-17500D03*
X05200Y-17500D03*
X06200Y-17500D03*
X07200Y-17500D03*
X08200Y-17500D03*
X09200Y-17500D03*
X10200Y-17500D03*
X11200Y-17500D03*
X12200Y-17500D03*
X13200Y-17500D03*
X14200Y-17500D03*
X15200Y-17500D03*
X16200Y-17500D03*
G54D16*
X03200Y-17500D03*
G54D15*
X16200Y-14500D03*
X15200Y-14500D03*
X14200Y-14500D03*
X13200Y-14500D03*
X12200Y-14500D03*
X11200Y-14500D03*
X10200Y-14500D03*
X09200Y-14500D03*
X08200Y-14500D03*
X07200Y-14500D03*
X06200Y-14500D03*
X05200Y-14500D03*
X04200Y-14500D03*
X03200Y-14500D03*
G54D28*
X38354Y-21900D03*
X34416Y-21900D03*
X32448Y-21900D03*
X36385Y-21900D03*
G54D29*
X32448Y-22700D03*
X34416Y-22700D03*
X36385Y-22700D03*
X38354Y-22700D03*
G54D28*
X30454Y-21900D03*
X26516Y-21900D03*
X24548Y-21900D03*
X28485Y-21900D03*
G54D29*
X24548Y-22700D03*
X26516Y-22700D03*
X28485Y-22700D03*
X30454Y-22700D03*
G54D28*
X22554Y-21900D03*
X18616Y-21900D03*
X16648Y-21900D03*
X20585Y-21900D03*
G54D29*
X16648Y-22700D03*
X18616Y-22700D03*
X20585Y-22700D03*
X22554Y-22700D03*
G54D28*
X14654Y-21900D03*
X10716Y-21900D03*
X08748Y-21900D03*
X12685Y-21900D03*
G54D29*
X08748Y-22700D03*
X10716Y-22700D03*
X12685Y-22700D03*
X14654Y-22700D03*
G54D28*
X06754Y-21900D03*
X02816Y-21900D03*
X00848Y-21900D03*
X04785Y-21900D03*
G54D29*
X00848Y-22700D03*
X02816Y-22700D03*
X04785Y-22700D03*
X06754Y-22700D03*
M02*
