G04 (created by PCBNEW-RS274X (2012-03-17 BZR 3466)-stable) date Mon 10 Dec 2012 10:26:00 PM EST*
G01*
G70*
G90*
%MOIN*%
G04 Gerber Fmt 3.4, Leading zero omitted, Abs format*
%FSLAX34Y34*%
G04 APERTURE LIST*
%ADD10C,0.006000*%
%ADD11C,0.007500*%
%ADD12C,0.015000*%
%ADD13C,0.020000*%
%ADD14C,0.012000*%
%ADD15C,0.010000*%
%ADD16C,0.005000*%
%ADD17C,0.007000*%
%ADD18C,0.002600*%
%ADD19C,0.004000*%
%ADD20C,0.011300*%
%ADD21C,0.008000*%
G04 APERTURE END LIST*
G54D10*
X22262Y-00905D02*
X21862Y-00905D01*
X21862Y-00752D01*
X21881Y-00714D01*
X21900Y-00695D01*
X21938Y-00676D01*
X21995Y-00676D01*
X22033Y-00695D01*
X22052Y-00714D01*
X22071Y-00752D01*
X22071Y-00905D01*
G54D11*
X20046Y-06967D02*
X20046Y-06796D01*
X20346Y-06882D02*
X20046Y-06882D01*
X20189Y-06696D02*
X20189Y-06596D01*
X20346Y-06553D02*
X20346Y-06696D01*
X20046Y-06696D01*
X20046Y-06553D01*
X20346Y-06253D02*
X20204Y-06353D01*
X20346Y-06425D02*
X20046Y-06425D01*
X20046Y-06310D01*
X20061Y-06282D01*
X20075Y-06267D01*
X20104Y-06253D01*
X20146Y-06253D01*
X20175Y-06267D01*
X20189Y-06282D01*
X20204Y-06310D01*
X20204Y-06425D01*
X20346Y-06125D02*
X20046Y-06125D01*
X20261Y-06025D01*
X20046Y-05925D01*
X20346Y-05925D01*
G54D12*
X19750Y-13750D02*
X20200Y-13300D01*
X19750Y-13600D02*
X19750Y-13750D01*
X20250Y-13100D02*
X19750Y-13600D01*
X20250Y-13350D02*
X20250Y-13100D01*
X19700Y-13900D02*
X20250Y-13350D01*
X19700Y-13600D02*
X19700Y-13900D01*
X20200Y-13100D02*
X19700Y-13600D01*
X19300Y-13750D02*
X19350Y-13750D01*
X18950Y-13400D02*
X19300Y-13750D01*
X18950Y-13300D02*
X18950Y-13400D01*
X19350Y-13700D02*
X18950Y-13300D01*
X19350Y-13600D02*
X19350Y-13700D01*
X19350Y-13900D02*
X19350Y-13600D01*
X18850Y-13400D02*
X19350Y-13900D01*
X18850Y-13100D02*
X18850Y-13400D01*
X19350Y-13600D02*
X18850Y-13100D01*
X19700Y-13500D02*
X19650Y-13550D01*
X20300Y-12900D02*
X19700Y-13500D01*
X20300Y-13400D02*
X20300Y-12900D01*
X19650Y-14050D02*
X20300Y-13400D01*
X19650Y-13550D02*
X19650Y-14050D01*
X18750Y-13400D02*
X18750Y-12900D01*
X19400Y-14050D02*
X18750Y-13400D01*
X19400Y-13550D02*
X19400Y-14050D01*
X18750Y-12900D02*
X19400Y-13550D01*
G54D11*
X18464Y-10821D02*
X18321Y-10821D01*
X18307Y-10964D01*
X18321Y-10950D01*
X18350Y-10936D01*
X18421Y-10936D01*
X18450Y-10950D01*
X18464Y-10964D01*
X18479Y-10993D01*
X18479Y-11064D01*
X18464Y-11093D01*
X18450Y-11107D01*
X18421Y-11121D01*
X18350Y-11121D01*
X18321Y-11107D01*
X18307Y-11093D01*
X18607Y-11007D02*
X18836Y-11007D01*
X19150Y-11121D02*
X19050Y-10979D01*
X18978Y-11121D02*
X18978Y-10821D01*
X19093Y-10821D01*
X19121Y-10836D01*
X19136Y-10850D01*
X19150Y-10879D01*
X19150Y-10921D01*
X19136Y-10950D01*
X19121Y-10964D01*
X19093Y-10979D01*
X18978Y-10979D01*
X19436Y-10836D02*
X19407Y-10821D01*
X19364Y-10821D01*
X19321Y-10836D01*
X19293Y-10864D01*
X19278Y-10893D01*
X19264Y-10950D01*
X19264Y-10993D01*
X19278Y-11050D01*
X19293Y-11079D01*
X19321Y-11107D01*
X19364Y-11121D01*
X19393Y-11121D01*
X19436Y-11107D01*
X19450Y-11093D01*
X19450Y-10993D01*
X19393Y-10993D01*
X19678Y-10964D02*
X19721Y-10979D01*
X19736Y-10993D01*
X19750Y-11021D01*
X19750Y-11064D01*
X19736Y-11093D01*
X19721Y-11107D01*
X19693Y-11121D01*
X19578Y-11121D01*
X19578Y-10821D01*
X19678Y-10821D01*
X19707Y-10836D01*
X19721Y-10850D01*
X19736Y-10879D01*
X19736Y-10907D01*
X19721Y-10936D01*
X19707Y-10950D01*
X19678Y-10964D01*
X19578Y-10964D01*
X20250Y-11121D02*
X20107Y-11121D01*
X20107Y-10821D01*
X20350Y-10964D02*
X20450Y-10964D01*
X20493Y-11121D02*
X20350Y-11121D01*
X20350Y-10821D01*
X20493Y-10821D01*
X20621Y-11121D02*
X20621Y-10821D01*
X20693Y-10821D01*
X20736Y-10836D01*
X20764Y-10864D01*
X20779Y-10893D01*
X20793Y-10950D01*
X20793Y-10993D01*
X20779Y-11050D01*
X20764Y-11079D01*
X20736Y-11107D01*
X20693Y-11121D01*
X20621Y-11121D01*
X18813Y-11616D02*
X18813Y-11416D01*
X18813Y-11474D02*
X18828Y-11445D01*
X18842Y-11431D01*
X18871Y-11416D01*
X18899Y-11416D01*
X19114Y-11602D02*
X19085Y-11616D01*
X19028Y-11616D01*
X18999Y-11602D01*
X18985Y-11574D01*
X18985Y-11459D01*
X18999Y-11431D01*
X19028Y-11416D01*
X19085Y-11416D01*
X19114Y-11431D01*
X19128Y-11459D01*
X19128Y-11488D01*
X18985Y-11516D01*
X19228Y-11416D02*
X19299Y-11616D01*
X19371Y-11416D01*
X19700Y-11345D02*
X19714Y-11331D01*
X19743Y-11316D01*
X19814Y-11316D01*
X19843Y-11331D01*
X19857Y-11345D01*
X19872Y-11374D01*
X19872Y-11402D01*
X19857Y-11445D01*
X19686Y-11616D01*
X19872Y-11616D01*
X20000Y-11588D02*
X20015Y-11602D01*
X20000Y-11616D01*
X19986Y-11602D01*
X20000Y-11588D01*
X20000Y-11616D01*
X20201Y-11316D02*
X20229Y-11316D01*
X20258Y-11331D01*
X20272Y-11345D01*
X20286Y-11374D01*
X20301Y-11431D01*
X20301Y-11502D01*
X20286Y-11559D01*
X20272Y-11588D01*
X20258Y-11602D01*
X20229Y-11616D01*
X20201Y-11616D01*
X20172Y-11602D01*
X20158Y-11588D01*
X20143Y-11559D01*
X20129Y-11502D01*
X20129Y-11431D01*
X20143Y-11374D01*
X20158Y-11345D01*
X20172Y-11331D01*
X20201Y-11316D01*
X19271Y-11811D02*
X19271Y-12026D01*
X19257Y-12069D01*
X19228Y-12097D01*
X19185Y-12111D01*
X19157Y-12111D01*
X19386Y-11811D02*
X19457Y-12111D01*
X19514Y-11897D01*
X19572Y-12111D01*
X19643Y-11811D01*
X19929Y-12083D02*
X19915Y-12097D01*
X19872Y-12111D01*
X19843Y-12111D01*
X19800Y-12097D01*
X19772Y-12069D01*
X19757Y-12040D01*
X19743Y-11983D01*
X19743Y-11940D01*
X19757Y-11883D01*
X19772Y-11854D01*
X19800Y-11826D01*
X19843Y-11811D01*
X19872Y-11811D01*
X19915Y-11826D01*
X19929Y-11840D01*
X18486Y-12406D02*
X18486Y-12664D01*
X18472Y-12692D01*
X18444Y-12706D01*
X18429Y-12706D01*
X18486Y-12306D02*
X18472Y-12321D01*
X18486Y-12335D01*
X18501Y-12321D01*
X18486Y-12306D01*
X18486Y-12335D01*
X18601Y-12406D02*
X18658Y-12606D01*
X18715Y-12464D01*
X18772Y-12606D01*
X18829Y-12406D01*
X19072Y-12592D02*
X19043Y-12606D01*
X18986Y-12606D01*
X18958Y-12592D01*
X18943Y-12578D01*
X18929Y-12549D01*
X18929Y-12464D01*
X18943Y-12435D01*
X18958Y-12421D01*
X18986Y-12406D01*
X19043Y-12406D01*
X19072Y-12421D01*
X19172Y-12606D02*
X19329Y-12406D01*
X19172Y-12406D02*
X19329Y-12606D01*
X19415Y-12406D02*
X19572Y-12406D01*
X19415Y-12606D01*
X19572Y-12606D01*
X19686Y-12578D02*
X19701Y-12592D01*
X19686Y-12606D01*
X19672Y-12592D01*
X19686Y-12578D01*
X19686Y-12606D01*
X19958Y-12592D02*
X19929Y-12606D01*
X19872Y-12606D01*
X19844Y-12592D01*
X19829Y-12578D01*
X19815Y-12549D01*
X19815Y-12464D01*
X19829Y-12435D01*
X19844Y-12421D01*
X19872Y-12406D01*
X19929Y-12406D01*
X19958Y-12421D01*
X20129Y-12606D02*
X20101Y-12592D01*
X20086Y-12578D01*
X20072Y-12549D01*
X20072Y-12464D01*
X20086Y-12435D01*
X20101Y-12421D01*
X20129Y-12406D01*
X20172Y-12406D01*
X20201Y-12421D01*
X20215Y-12435D01*
X20229Y-12464D01*
X20229Y-12549D01*
X20215Y-12578D01*
X20201Y-12592D01*
X20172Y-12606D01*
X20129Y-12606D01*
X20357Y-12606D02*
X20357Y-12406D01*
X20357Y-12435D02*
X20372Y-12421D01*
X20400Y-12406D01*
X20443Y-12406D01*
X20472Y-12421D01*
X20486Y-12449D01*
X20486Y-12606D01*
X20486Y-12449D02*
X20500Y-12421D01*
X20529Y-12406D01*
X20572Y-12406D01*
X20600Y-12421D01*
X20615Y-12449D01*
X20615Y-12606D01*
G54D13*
X18038Y-10345D02*
X18419Y-10345D01*
X17962Y-10574D02*
X18229Y-09774D01*
X18496Y-10574D01*
X19220Y-10498D02*
X19182Y-10536D01*
X19067Y-10574D01*
X18991Y-10574D01*
X18877Y-10536D01*
X18801Y-10460D01*
X18762Y-10383D01*
X18724Y-10231D01*
X18724Y-10117D01*
X18762Y-09964D01*
X18801Y-09888D01*
X18877Y-09812D01*
X18991Y-09774D01*
X19067Y-09774D01*
X19182Y-09812D01*
X19220Y-09850D01*
X20020Y-10574D02*
X19753Y-10193D01*
X19562Y-10574D02*
X19562Y-09774D01*
X19867Y-09774D01*
X19943Y-09812D01*
X19982Y-09850D01*
X20020Y-09926D01*
X20020Y-10040D01*
X19982Y-10117D01*
X19943Y-10155D01*
X19867Y-10193D01*
X19562Y-10193D01*
X20362Y-10574D02*
X20362Y-09774D01*
X20705Y-10536D02*
X20820Y-10574D01*
X21010Y-10574D01*
X21086Y-10536D01*
X21124Y-10498D01*
X21163Y-10421D01*
X21163Y-10345D01*
X21124Y-10269D01*
X21086Y-10231D01*
X21010Y-10193D01*
X20858Y-10155D01*
X20782Y-10117D01*
X20743Y-10079D01*
X20705Y-10002D01*
X20705Y-09926D01*
X20743Y-09850D01*
X20782Y-09812D01*
X20858Y-09774D01*
X21048Y-09774D01*
X21163Y-09812D01*
G54D12*
X15650Y-19950D02*
X15650Y-18750D01*
X23550Y-19900D02*
X23550Y-18750D01*
X31450Y-19950D02*
X31450Y-18750D01*
X07750Y-18750D02*
X37450Y-18750D01*
X07750Y-18750D02*
X01900Y-18750D01*
X07750Y-19850D02*
X07750Y-18750D01*
X00000Y-23500D02*
X39300Y-23500D01*
X00000Y00000D02*
X39300Y00000D01*
G54D11*
X30365Y-05721D02*
X30222Y-05721D01*
X30222Y-05421D01*
X30623Y-05436D02*
X30594Y-05421D01*
X30551Y-05421D01*
X30508Y-05436D01*
X30480Y-05464D01*
X30465Y-05493D01*
X30451Y-05550D01*
X30451Y-05593D01*
X30465Y-05650D01*
X30480Y-05679D01*
X30508Y-05707D01*
X30551Y-05721D01*
X30580Y-05721D01*
X30623Y-05707D01*
X30637Y-05693D01*
X30637Y-05593D01*
X30580Y-05593D01*
X30937Y-05693D02*
X30923Y-05707D01*
X30880Y-05721D01*
X30851Y-05721D01*
X30808Y-05707D01*
X30780Y-05679D01*
X30765Y-05650D01*
X30751Y-05593D01*
X30751Y-05550D01*
X30765Y-05493D01*
X30780Y-05464D01*
X30808Y-05436D01*
X30851Y-05421D01*
X30880Y-05421D01*
X30923Y-05436D01*
X30937Y-05450D01*
X31294Y-05521D02*
X31065Y-05607D01*
X31294Y-05693D01*
X31436Y-05521D02*
X31665Y-05607D01*
X31436Y-05693D01*
X31950Y-05721D02*
X31807Y-05721D01*
X31807Y-05421D01*
X32050Y-05564D02*
X32150Y-05564D01*
X32193Y-05721D02*
X32050Y-05721D01*
X32050Y-05421D01*
X32193Y-05421D01*
X32321Y-05721D02*
X32321Y-05421D01*
X32393Y-05421D01*
X32436Y-05436D01*
X32464Y-05464D01*
X32479Y-05493D01*
X32493Y-05550D01*
X32493Y-05593D01*
X32479Y-05650D01*
X32464Y-05679D01*
X32436Y-05707D01*
X32393Y-05721D01*
X32321Y-05721D01*
G54D14*
X14743Y-19305D02*
X14829Y-19343D01*
X14857Y-19381D01*
X14886Y-19457D01*
X14886Y-19571D01*
X14857Y-19648D01*
X14829Y-19686D01*
X14771Y-19724D01*
X14543Y-19724D01*
X14543Y-18924D01*
X14743Y-18924D01*
X14800Y-18962D01*
X14829Y-19000D01*
X14857Y-19076D01*
X14857Y-19152D01*
X14829Y-19229D01*
X14800Y-19267D01*
X14743Y-19305D01*
X14543Y-19305D01*
X12857Y-18962D02*
X12800Y-18924D01*
X12714Y-18924D01*
X12629Y-18962D01*
X12571Y-19038D01*
X12543Y-19114D01*
X12514Y-19267D01*
X12514Y-19381D01*
X12543Y-19533D01*
X12571Y-19610D01*
X12629Y-19686D01*
X12714Y-19724D01*
X12771Y-19724D01*
X12857Y-19686D01*
X12886Y-19648D01*
X12886Y-19381D01*
X12771Y-19381D01*
X10886Y-19724D02*
X10686Y-19343D01*
X10543Y-19724D02*
X10543Y-18924D01*
X10771Y-18924D01*
X10829Y-18962D01*
X10857Y-19000D01*
X10886Y-19076D01*
X10886Y-19190D01*
X10857Y-19267D01*
X10829Y-19305D01*
X10771Y-19343D01*
X10543Y-19343D01*
X08522Y-19369D02*
X08979Y-19369D01*
X08750Y-19674D02*
X08750Y-19064D01*
X16472Y-19369D02*
X16929Y-19369D01*
X16700Y-19674D02*
X16700Y-19064D01*
X18836Y-19724D02*
X18636Y-19343D01*
X18493Y-19724D02*
X18493Y-18924D01*
X18721Y-18924D01*
X18779Y-18962D01*
X18807Y-19000D01*
X18836Y-19076D01*
X18836Y-19190D01*
X18807Y-19267D01*
X18779Y-19305D01*
X18721Y-19343D01*
X18493Y-19343D01*
X20807Y-18962D02*
X20750Y-18924D01*
X20664Y-18924D01*
X20579Y-18962D01*
X20521Y-19038D01*
X20493Y-19114D01*
X20464Y-19267D01*
X20464Y-19381D01*
X20493Y-19533D01*
X20521Y-19610D01*
X20579Y-19686D01*
X20664Y-19724D01*
X20721Y-19724D01*
X20807Y-19686D01*
X20836Y-19648D01*
X20836Y-19381D01*
X20721Y-19381D01*
X22593Y-19305D02*
X22679Y-19343D01*
X22707Y-19381D01*
X22736Y-19457D01*
X22736Y-19571D01*
X22707Y-19648D01*
X22679Y-19686D01*
X22621Y-19724D01*
X22393Y-19724D01*
X22393Y-18924D01*
X22593Y-18924D01*
X22650Y-18962D01*
X22679Y-19000D01*
X22707Y-19076D01*
X22707Y-19152D01*
X22679Y-19229D01*
X22650Y-19267D01*
X22593Y-19305D01*
X22393Y-19305D01*
X37293Y-19305D02*
X37379Y-19343D01*
X37407Y-19381D01*
X37436Y-19457D01*
X37436Y-19571D01*
X37407Y-19648D01*
X37379Y-19686D01*
X37321Y-19724D01*
X37093Y-19724D01*
X37093Y-18924D01*
X37293Y-18924D01*
X37350Y-18962D01*
X37379Y-19000D01*
X37407Y-19076D01*
X37407Y-19152D01*
X37379Y-19229D01*
X37350Y-19267D01*
X37293Y-19305D01*
X37093Y-19305D01*
X36557Y-18962D02*
X36500Y-18924D01*
X36414Y-18924D01*
X36329Y-18962D01*
X36271Y-19038D01*
X36243Y-19114D01*
X36214Y-19267D01*
X36214Y-19381D01*
X36243Y-19533D01*
X36271Y-19610D01*
X36329Y-19686D01*
X36414Y-19724D01*
X36471Y-19724D01*
X36557Y-19686D01*
X36586Y-19648D01*
X36586Y-19381D01*
X36471Y-19381D01*
X34636Y-19724D02*
X34436Y-19343D01*
X34293Y-19724D02*
X34293Y-18924D01*
X34521Y-18924D01*
X34579Y-18962D01*
X34607Y-19000D01*
X34636Y-19076D01*
X34636Y-19190D01*
X34607Y-19267D01*
X34579Y-19305D01*
X34521Y-19343D01*
X34293Y-19343D01*
X32272Y-19369D02*
X32729Y-19369D01*
X32500Y-19674D02*
X32500Y-19064D01*
X24322Y-19369D02*
X24779Y-19369D01*
X24550Y-19674D02*
X24550Y-19064D01*
X26686Y-19724D02*
X26486Y-19343D01*
X26343Y-19724D02*
X26343Y-18924D01*
X26571Y-18924D01*
X26629Y-18962D01*
X26657Y-19000D01*
X26686Y-19076D01*
X26686Y-19190D01*
X26657Y-19267D01*
X26629Y-19305D01*
X26571Y-19343D01*
X26343Y-19343D01*
X28657Y-18962D02*
X28600Y-18924D01*
X28514Y-18924D01*
X28429Y-18962D01*
X28371Y-19038D01*
X28343Y-19114D01*
X28314Y-19267D01*
X28314Y-19381D01*
X28343Y-19533D01*
X28371Y-19610D01*
X28429Y-19686D01*
X28514Y-19724D01*
X28571Y-19724D01*
X28657Y-19686D01*
X28686Y-19648D01*
X28686Y-19381D01*
X28571Y-19381D01*
X30493Y-19305D02*
X30579Y-19343D01*
X30607Y-19381D01*
X30636Y-19457D01*
X30636Y-19571D01*
X30607Y-19648D01*
X30579Y-19686D01*
X30521Y-19724D01*
X30293Y-19724D01*
X30293Y-18924D01*
X30493Y-18924D01*
X30550Y-18962D01*
X30579Y-19000D01*
X30607Y-19076D01*
X30607Y-19152D01*
X30579Y-19229D01*
X30550Y-19267D01*
X30493Y-19305D01*
X30293Y-19305D01*
X06793Y-19305D02*
X06879Y-19343D01*
X06907Y-19381D01*
X06936Y-19457D01*
X06936Y-19571D01*
X06907Y-19648D01*
X06879Y-19686D01*
X06821Y-19724D01*
X06593Y-19724D01*
X06593Y-18924D01*
X06793Y-18924D01*
X06850Y-18962D01*
X06879Y-19000D01*
X06907Y-19076D01*
X06907Y-19152D01*
X06879Y-19229D01*
X06850Y-19267D01*
X06793Y-19305D01*
X06593Y-19305D01*
X04907Y-18962D02*
X04850Y-18924D01*
X04764Y-18924D01*
X04679Y-18962D01*
X04621Y-19038D01*
X04593Y-19114D01*
X04564Y-19267D01*
X04564Y-19381D01*
X04593Y-19533D01*
X04621Y-19610D01*
X04679Y-19686D01*
X04764Y-19724D01*
X04821Y-19724D01*
X04907Y-19686D01*
X04936Y-19648D01*
X04936Y-19381D01*
X04821Y-19381D01*
X02936Y-19724D02*
X02736Y-19343D01*
X02593Y-19724D02*
X02593Y-18924D01*
X02821Y-18924D01*
X02879Y-18962D01*
X02907Y-19000D01*
X02936Y-19076D01*
X02936Y-19190D01*
X02907Y-19267D01*
X02879Y-19305D01*
X02821Y-19343D01*
X02593Y-19343D01*
X01572Y-19419D02*
X02029Y-19419D01*
X01800Y-19724D02*
X01800Y-19114D01*
G54D12*
X00000Y-23500D02*
X00000Y00000D01*
X39300Y00000D02*
X39300Y-23500D01*
G54D15*
X34564Y-13843D02*
X34621Y-13862D01*
X34717Y-13862D01*
X34755Y-13843D01*
X34774Y-13824D01*
X34793Y-13786D01*
X34793Y-13748D01*
X34774Y-13710D01*
X34755Y-13690D01*
X34717Y-13671D01*
X34640Y-13652D01*
X34602Y-13633D01*
X34583Y-13614D01*
X34564Y-13576D01*
X34564Y-13538D01*
X34583Y-13500D01*
X34602Y-13481D01*
X34640Y-13462D01*
X34736Y-13462D01*
X34793Y-13481D01*
X35040Y-13462D02*
X35117Y-13462D01*
X35155Y-13481D01*
X35193Y-13519D01*
X35212Y-13595D01*
X35212Y-13729D01*
X35193Y-13805D01*
X35155Y-13843D01*
X35117Y-13862D01*
X35040Y-13862D01*
X35002Y-13843D01*
X34964Y-13805D01*
X34945Y-13729D01*
X34945Y-13595D01*
X34964Y-13519D01*
X35002Y-13481D01*
X35040Y-13462D01*
X35383Y-13462D02*
X35383Y-13786D01*
X35402Y-13824D01*
X35421Y-13843D01*
X35459Y-13862D01*
X35536Y-13862D01*
X35574Y-13843D01*
X35593Y-13824D01*
X35612Y-13786D01*
X35612Y-13462D01*
X35745Y-13462D02*
X35974Y-13462D01*
X35859Y-13862D02*
X35859Y-13462D01*
G54D12*
X20900Y-01600D02*
X20900Y-02000D01*
G54D10*
X22262Y-02685D02*
X22262Y-02914D01*
X22262Y-02800D02*
X21862Y-02800D01*
X21919Y-02838D01*
X21957Y-02876D01*
X21976Y-02914D01*
X21900Y-03914D02*
X21881Y-03895D01*
X21862Y-03857D01*
X21862Y-03761D01*
X21881Y-03723D01*
X21900Y-03704D01*
X21938Y-03685D01*
X21976Y-03685D01*
X22033Y-03704D01*
X22262Y-03933D01*
X22262Y-03685D01*
G54D12*
X20900Y-04800D02*
X20700Y-04800D01*
X20900Y-04600D02*
X20900Y-05000D01*
X20900Y-03800D02*
X20700Y-03800D01*
X20900Y-03600D02*
X20900Y-04000D01*
X20900Y-02800D02*
X20700Y-02800D01*
X20900Y-03000D02*
X20900Y-02600D01*
X20900Y-01800D02*
X20700Y-01800D01*
X20900Y-00800D02*
X20700Y-00800D01*
X20900Y-00600D02*
X20900Y-00800D01*
X20900Y-01000D02*
X20900Y-00600D01*
G54D10*
X21862Y-01819D02*
X21862Y-01780D01*
X21881Y-01742D01*
X21900Y-01723D01*
X21938Y-01704D01*
X22014Y-01685D01*
X22110Y-01685D01*
X22186Y-01704D01*
X22224Y-01723D01*
X22243Y-01742D01*
X22262Y-01780D01*
X22262Y-01819D01*
X22243Y-01857D01*
X22224Y-01876D01*
X22186Y-01895D01*
X22110Y-01914D01*
X22014Y-01914D01*
X21938Y-01895D01*
X21900Y-01876D01*
X21881Y-01857D01*
X21862Y-01819D01*
X21862Y-04933D02*
X21862Y-04685D01*
X22014Y-04819D01*
X22014Y-04761D01*
X22033Y-04723D01*
X22052Y-04704D01*
X22090Y-04685D01*
X22186Y-04685D01*
X22224Y-04704D01*
X22243Y-04723D01*
X22262Y-04761D01*
X22262Y-04876D01*
X22243Y-04914D01*
X22224Y-04933D01*
G54D12*
X31000Y-02400D02*
X31500Y-02400D01*
X31250Y-02650D02*
X31250Y-02200D01*
X33500Y-01700D02*
X33471Y-01991D01*
X33386Y-02271D01*
X33249Y-02530D01*
X33064Y-02756D01*
X32838Y-02943D01*
X32581Y-03082D01*
X32301Y-03169D01*
X32010Y-03199D01*
X31719Y-03173D01*
X31439Y-03090D01*
X31179Y-02955D01*
X30951Y-02771D01*
X30763Y-02547D01*
X30622Y-02290D01*
X30533Y-02011D01*
X30501Y-01720D01*
X30525Y-01430D01*
X30606Y-01148D01*
X30740Y-00888D01*
X30921Y-00659D01*
X31144Y-00469D01*
X31400Y-00326D01*
X31678Y-00235D01*
X31969Y-00201D01*
X32260Y-00223D01*
X32542Y-00302D01*
X32803Y-00434D01*
X33034Y-00614D01*
X33225Y-00836D01*
X33370Y-01090D01*
X33462Y-01368D01*
X33499Y-01659D01*
X33500Y-01700D01*
X02550Y-00850D02*
X02550Y-01050D01*
X02550Y-01050D02*
X05850Y-01050D01*
X05850Y-01050D02*
X05850Y-00850D01*
X03050Y-00050D02*
X02350Y-00050D01*
X02350Y-00050D02*
X02350Y-01150D01*
X03050Y-00050D02*
X05250Y-00050D01*
X05250Y-00050D02*
X06050Y-00050D01*
X06050Y-00050D02*
X06050Y-01050D01*
X02200Y-09200D02*
X17200Y-09200D01*
X17200Y-09200D02*
X17200Y-11200D01*
X17200Y-11200D02*
X02200Y-11200D01*
X02200Y-11200D02*
X02200Y-09200D01*
X02200Y-09700D02*
X02700Y-09700D01*
X02700Y-09700D02*
X02700Y-10700D01*
X02700Y-10700D02*
X02200Y-10700D01*
X30100Y-00400D02*
X30100Y-00100D01*
X30100Y-00100D02*
X26700Y-00100D01*
X26700Y-00100D02*
X26700Y-00400D01*
X30100Y-01600D02*
X26700Y-01600D01*
X30100Y-05400D02*
X26700Y-05400D01*
X26700Y-00400D02*
X26700Y-05400D01*
X30100Y-00400D02*
X30100Y-05400D01*
X37200Y-00400D02*
X37200Y-00100D01*
X37200Y-00100D02*
X33800Y-00100D01*
X33800Y-00100D02*
X33800Y-00400D01*
X37200Y-01600D02*
X33800Y-01600D01*
X37200Y-05400D02*
X33800Y-05400D01*
X33800Y-00400D02*
X33800Y-05400D01*
X37200Y-00400D02*
X37200Y-05400D01*
G54D16*
X19100Y00000D02*
X13100Y00000D01*
X13100Y00000D02*
X13100Y-07100D01*
X13100Y-07100D02*
X19100Y-07100D01*
X19100Y-07100D02*
X19100Y00000D01*
X12600Y00000D02*
X06600Y00000D01*
X06600Y00000D02*
X06600Y-07100D01*
X06600Y-07100D02*
X12600Y-07100D01*
X12600Y-07100D02*
X12600Y00000D01*
X19350Y-05800D02*
X19349Y-05809D01*
X19346Y-05819D01*
X19341Y-05827D01*
X19335Y-05835D01*
X19327Y-05841D01*
X19319Y-05846D01*
X19310Y-05848D01*
X19300Y-05849D01*
X19291Y-05849D01*
X19282Y-05846D01*
X19273Y-05841D01*
X19266Y-05835D01*
X19259Y-05828D01*
X19255Y-05819D01*
X19252Y-05810D01*
X19251Y-05800D01*
X19251Y-05791D01*
X19254Y-05782D01*
X19258Y-05773D01*
X19265Y-05766D01*
X19272Y-05759D01*
X19280Y-05755D01*
X19290Y-05752D01*
X19299Y-05751D01*
X19308Y-05751D01*
X19318Y-05754D01*
X19326Y-05758D01*
X19334Y-05764D01*
X19340Y-05772D01*
X19345Y-05780D01*
X19348Y-05789D01*
X19349Y-05799D01*
X19350Y-05800D01*
X19300Y-06250D02*
X19300Y-05850D01*
X19300Y-05850D02*
X19900Y-05850D01*
X19900Y-05850D02*
X19900Y-06250D01*
X19900Y-06650D02*
X19900Y-07050D01*
X19900Y-07050D02*
X19300Y-07050D01*
X19300Y-07050D02*
X19300Y-06650D01*
X10900Y-13300D02*
X10899Y-13309D01*
X10896Y-13319D01*
X10891Y-13327D01*
X10885Y-13335D01*
X10877Y-13341D01*
X10869Y-13346D01*
X10860Y-13348D01*
X10850Y-13349D01*
X10841Y-13349D01*
X10832Y-13346D01*
X10823Y-13341D01*
X10816Y-13335D01*
X10809Y-13328D01*
X10805Y-13319D01*
X10802Y-13310D01*
X10801Y-13300D01*
X10801Y-13291D01*
X10804Y-13282D01*
X10808Y-13273D01*
X10815Y-13266D01*
X10822Y-13259D01*
X10830Y-13255D01*
X10840Y-13252D01*
X10849Y-13251D01*
X10858Y-13251D01*
X10868Y-13254D01*
X10876Y-13258D01*
X10884Y-13264D01*
X10890Y-13272D01*
X10895Y-13280D01*
X10898Y-13289D01*
X10899Y-13299D01*
X10900Y-13300D01*
X10400Y-13300D02*
X10800Y-13300D01*
X10800Y-13300D02*
X10800Y-13900D01*
X10800Y-13900D02*
X10400Y-13900D01*
X10000Y-13900D02*
X09600Y-13900D01*
X09600Y-13900D02*
X09600Y-13300D01*
X09600Y-13300D02*
X10000Y-13300D01*
X04950Y-01250D02*
X04949Y-01259D01*
X04946Y-01269D01*
X04941Y-01277D01*
X04935Y-01285D01*
X04927Y-01291D01*
X04919Y-01296D01*
X04910Y-01298D01*
X04900Y-01299D01*
X04891Y-01299D01*
X04882Y-01296D01*
X04873Y-01291D01*
X04866Y-01285D01*
X04859Y-01278D01*
X04855Y-01269D01*
X04852Y-01260D01*
X04851Y-01250D01*
X04851Y-01241D01*
X04854Y-01232D01*
X04858Y-01223D01*
X04865Y-01216D01*
X04872Y-01209D01*
X04880Y-01205D01*
X04890Y-01202D01*
X04899Y-01201D01*
X04908Y-01201D01*
X04918Y-01204D01*
X04926Y-01208D01*
X04934Y-01214D01*
X04940Y-01222D01*
X04945Y-01230D01*
X04948Y-01239D01*
X04949Y-01249D01*
X04950Y-01250D01*
X04450Y-01250D02*
X04850Y-01250D01*
X04850Y-01250D02*
X04850Y-01850D01*
X04850Y-01850D02*
X04450Y-01850D01*
X04050Y-01850D02*
X03650Y-01850D01*
X03650Y-01850D02*
X03650Y-01250D01*
X03650Y-01250D02*
X04050Y-01250D01*
X30400Y-04350D02*
X30400Y-05250D01*
X30400Y-05250D02*
X31050Y-05250D01*
X31750Y-04350D02*
X32400Y-04350D01*
X32400Y-04350D02*
X32400Y-05250D01*
X32400Y-05250D02*
X31750Y-05250D01*
X31050Y-04350D02*
X30400Y-04350D01*
X03650Y-02600D02*
X03649Y-02609D01*
X03646Y-02619D01*
X03641Y-02627D01*
X03635Y-02635D01*
X03627Y-02641D01*
X03619Y-02646D01*
X03610Y-02648D01*
X03600Y-02649D01*
X03591Y-02649D01*
X03582Y-02646D01*
X03573Y-02641D01*
X03566Y-02635D01*
X03559Y-02628D01*
X03555Y-02619D01*
X03552Y-02610D01*
X03551Y-02600D01*
X03551Y-02591D01*
X03554Y-02582D01*
X03558Y-02573D01*
X03565Y-02566D01*
X03572Y-02559D01*
X03580Y-02555D01*
X03590Y-02552D01*
X03599Y-02551D01*
X03608Y-02551D01*
X03618Y-02554D01*
X03626Y-02558D01*
X03634Y-02564D01*
X03640Y-02572D01*
X03645Y-02580D01*
X03648Y-02589D01*
X03649Y-02599D01*
X03650Y-02600D01*
X04050Y-02600D02*
X03650Y-02600D01*
X03650Y-02600D02*
X03650Y-02000D01*
X03650Y-02000D02*
X04050Y-02000D01*
X04450Y-02000D02*
X04850Y-02000D01*
X04850Y-02000D02*
X04850Y-02600D01*
X04850Y-02600D02*
X04450Y-02600D01*
G54D17*
X03073Y-02670D02*
X03071Y-02680D01*
X03069Y-02690D01*
X03064Y-02699D01*
X03057Y-02707D01*
X03049Y-02713D01*
X03040Y-02718D01*
X03030Y-02721D01*
X03020Y-02722D01*
X03011Y-02722D01*
X03001Y-02719D01*
X02991Y-02714D01*
X02983Y-02707D01*
X02977Y-02699D01*
X02972Y-02690D01*
X02969Y-02681D01*
X02968Y-02670D01*
X02968Y-02661D01*
X02971Y-02651D01*
X02976Y-02642D01*
X02982Y-02634D01*
X02990Y-02627D01*
X02999Y-02622D01*
X03009Y-02619D01*
X03019Y-02618D01*
X03029Y-02618D01*
X03039Y-02621D01*
X03048Y-02626D01*
X03056Y-02632D01*
X03063Y-02640D01*
X03068Y-02649D01*
X03071Y-02659D01*
X03072Y-02669D01*
X03073Y-02670D01*
G54D10*
X05300Y-02850D02*
X05300Y-02750D01*
X05300Y-02750D02*
X03100Y-02750D01*
X03100Y-02750D02*
X03100Y-02850D01*
X03100Y-04750D02*
X05300Y-04750D01*
X05300Y-04750D02*
X05300Y-04650D01*
X03100Y-04750D02*
X03100Y-04650D01*
G54D18*
X20939Y-04761D02*
X20861Y-04761D01*
X20861Y-04761D02*
X20861Y-04839D01*
X20939Y-04839D02*
X20861Y-04839D01*
X20939Y-04761D02*
X20939Y-04839D01*
X20723Y-04525D02*
X20586Y-04525D01*
X20586Y-04525D02*
X20586Y-04623D01*
X20723Y-04623D02*
X20586Y-04623D01*
X20723Y-04525D02*
X20723Y-04623D01*
X20586Y-04525D02*
X20546Y-04525D01*
X20546Y-04525D02*
X20546Y-04996D01*
X20586Y-04996D02*
X20546Y-04996D01*
X20586Y-04525D02*
X20586Y-04996D01*
X20586Y-05016D02*
X20546Y-05016D01*
X20546Y-05016D02*
X20546Y-05075D01*
X20586Y-05075D02*
X20546Y-05075D01*
X20586Y-05016D02*
X20586Y-05075D01*
X21254Y-04525D02*
X21214Y-04525D01*
X21214Y-04525D02*
X21214Y-04996D01*
X21254Y-04996D02*
X21214Y-04996D01*
X21254Y-04525D02*
X21254Y-04996D01*
X21254Y-05016D02*
X21214Y-05016D01*
X21214Y-05016D02*
X21214Y-05075D01*
X21254Y-05075D02*
X21214Y-05075D01*
X21254Y-05016D02*
X21254Y-05075D01*
X20723Y-04525D02*
X20664Y-04525D01*
X20664Y-04525D02*
X20664Y-04623D01*
X20723Y-04623D02*
X20664Y-04623D01*
X20723Y-04525D02*
X20723Y-04623D01*
G54D19*
X20290Y-04505D02*
X21510Y-04505D01*
X21510Y-04505D02*
X21510Y-05095D01*
X21510Y-05095D02*
X20290Y-05095D01*
X20290Y-05095D02*
X20290Y-04505D01*
X21114Y-04604D02*
X21096Y-04586D01*
X21077Y-04570D01*
X21056Y-04555D01*
X21034Y-04543D01*
X21011Y-04532D01*
X20987Y-04523D01*
X20963Y-04517D01*
X20938Y-04512D01*
X20913Y-04510D01*
X20888Y-04510D01*
X20863Y-04512D01*
X20838Y-04516D01*
X20813Y-04523D01*
X20790Y-04531D01*
X20767Y-04542D01*
X20745Y-04555D01*
X20724Y-04569D01*
X20704Y-04586D01*
X20686Y-04604D01*
X20685Y-04605D01*
X21115Y-04995D02*
X21131Y-04976D01*
X21145Y-04955D01*
X21158Y-04933D01*
X21169Y-04910D01*
X21177Y-04886D01*
X21184Y-04861D01*
X21188Y-04836D01*
X21190Y-04811D01*
X21190Y-04787D01*
X21188Y-04762D01*
X21183Y-04737D01*
X21177Y-04712D01*
X21168Y-04688D01*
X21157Y-04665D01*
X21144Y-04643D01*
X21130Y-04623D01*
X21115Y-04605D01*
X20686Y-04996D02*
X20704Y-05014D01*
X20723Y-05030D01*
X20744Y-05045D01*
X20766Y-05057D01*
X20789Y-05068D01*
X20813Y-05077D01*
X20837Y-05083D01*
X20862Y-05088D01*
X20887Y-05090D01*
X20912Y-05090D01*
X20937Y-05088D01*
X20962Y-05084D01*
X20987Y-05077D01*
X21010Y-05069D01*
X21033Y-05058D01*
X21055Y-05045D01*
X21076Y-05031D01*
X21096Y-05014D01*
X21114Y-04996D01*
X21115Y-04995D01*
X20685Y-04605D02*
X20669Y-04624D01*
X20655Y-04645D01*
X20642Y-04667D01*
X20631Y-04690D01*
X20623Y-04714D01*
X20616Y-04739D01*
X20612Y-04764D01*
X20610Y-04789D01*
X20610Y-04813D01*
X20612Y-04838D01*
X20617Y-04863D01*
X20623Y-04888D01*
X20632Y-04912D01*
X20643Y-04935D01*
X20656Y-04957D01*
X20670Y-04977D01*
X20685Y-04995D01*
G54D18*
X20939Y-03761D02*
X20861Y-03761D01*
X20861Y-03761D02*
X20861Y-03839D01*
X20939Y-03839D02*
X20861Y-03839D01*
X20939Y-03761D02*
X20939Y-03839D01*
X20723Y-03525D02*
X20586Y-03525D01*
X20586Y-03525D02*
X20586Y-03623D01*
X20723Y-03623D02*
X20586Y-03623D01*
X20723Y-03525D02*
X20723Y-03623D01*
X20586Y-03525D02*
X20546Y-03525D01*
X20546Y-03525D02*
X20546Y-03996D01*
X20586Y-03996D02*
X20546Y-03996D01*
X20586Y-03525D02*
X20586Y-03996D01*
X20586Y-04016D02*
X20546Y-04016D01*
X20546Y-04016D02*
X20546Y-04075D01*
X20586Y-04075D02*
X20546Y-04075D01*
X20586Y-04016D02*
X20586Y-04075D01*
X21254Y-03525D02*
X21214Y-03525D01*
X21214Y-03525D02*
X21214Y-03996D01*
X21254Y-03996D02*
X21214Y-03996D01*
X21254Y-03525D02*
X21254Y-03996D01*
X21254Y-04016D02*
X21214Y-04016D01*
X21214Y-04016D02*
X21214Y-04075D01*
X21254Y-04075D02*
X21214Y-04075D01*
X21254Y-04016D02*
X21254Y-04075D01*
X20723Y-03525D02*
X20664Y-03525D01*
X20664Y-03525D02*
X20664Y-03623D01*
X20723Y-03623D02*
X20664Y-03623D01*
X20723Y-03525D02*
X20723Y-03623D01*
G54D19*
X20290Y-03505D02*
X21510Y-03505D01*
X21510Y-03505D02*
X21510Y-04095D01*
X21510Y-04095D02*
X20290Y-04095D01*
X20290Y-04095D02*
X20290Y-03505D01*
X21114Y-03604D02*
X21096Y-03586D01*
X21077Y-03570D01*
X21056Y-03555D01*
X21034Y-03543D01*
X21011Y-03532D01*
X20987Y-03523D01*
X20963Y-03517D01*
X20938Y-03512D01*
X20913Y-03510D01*
X20888Y-03510D01*
X20863Y-03512D01*
X20838Y-03516D01*
X20813Y-03523D01*
X20790Y-03531D01*
X20767Y-03542D01*
X20745Y-03555D01*
X20724Y-03569D01*
X20704Y-03586D01*
X20686Y-03604D01*
X20685Y-03605D01*
X21115Y-03995D02*
X21131Y-03976D01*
X21145Y-03955D01*
X21158Y-03933D01*
X21169Y-03910D01*
X21177Y-03886D01*
X21184Y-03861D01*
X21188Y-03836D01*
X21190Y-03811D01*
X21190Y-03787D01*
X21188Y-03762D01*
X21183Y-03737D01*
X21177Y-03712D01*
X21168Y-03688D01*
X21157Y-03665D01*
X21144Y-03643D01*
X21130Y-03623D01*
X21115Y-03605D01*
X20686Y-03996D02*
X20704Y-04014D01*
X20723Y-04030D01*
X20744Y-04045D01*
X20766Y-04057D01*
X20789Y-04068D01*
X20813Y-04077D01*
X20837Y-04083D01*
X20862Y-04088D01*
X20887Y-04090D01*
X20912Y-04090D01*
X20937Y-04088D01*
X20962Y-04084D01*
X20987Y-04077D01*
X21010Y-04069D01*
X21033Y-04058D01*
X21055Y-04045D01*
X21076Y-04031D01*
X21096Y-04014D01*
X21114Y-03996D01*
X21115Y-03995D01*
X20685Y-03605D02*
X20669Y-03624D01*
X20655Y-03645D01*
X20642Y-03667D01*
X20631Y-03690D01*
X20623Y-03714D01*
X20616Y-03739D01*
X20612Y-03764D01*
X20610Y-03789D01*
X20610Y-03813D01*
X20612Y-03838D01*
X20617Y-03863D01*
X20623Y-03888D01*
X20632Y-03912D01*
X20643Y-03935D01*
X20656Y-03957D01*
X20670Y-03977D01*
X20685Y-03995D01*
G54D18*
X20939Y-02761D02*
X20861Y-02761D01*
X20861Y-02761D02*
X20861Y-02839D01*
X20939Y-02839D02*
X20861Y-02839D01*
X20939Y-02761D02*
X20939Y-02839D01*
X20723Y-02525D02*
X20586Y-02525D01*
X20586Y-02525D02*
X20586Y-02623D01*
X20723Y-02623D02*
X20586Y-02623D01*
X20723Y-02525D02*
X20723Y-02623D01*
X20586Y-02525D02*
X20546Y-02525D01*
X20546Y-02525D02*
X20546Y-02996D01*
X20586Y-02996D02*
X20546Y-02996D01*
X20586Y-02525D02*
X20586Y-02996D01*
X20586Y-03016D02*
X20546Y-03016D01*
X20546Y-03016D02*
X20546Y-03075D01*
X20586Y-03075D02*
X20546Y-03075D01*
X20586Y-03016D02*
X20586Y-03075D01*
X21254Y-02525D02*
X21214Y-02525D01*
X21214Y-02525D02*
X21214Y-02996D01*
X21254Y-02996D02*
X21214Y-02996D01*
X21254Y-02525D02*
X21254Y-02996D01*
X21254Y-03016D02*
X21214Y-03016D01*
X21214Y-03016D02*
X21214Y-03075D01*
X21254Y-03075D02*
X21214Y-03075D01*
X21254Y-03016D02*
X21254Y-03075D01*
X20723Y-02525D02*
X20664Y-02525D01*
X20664Y-02525D02*
X20664Y-02623D01*
X20723Y-02623D02*
X20664Y-02623D01*
X20723Y-02525D02*
X20723Y-02623D01*
G54D19*
X20290Y-02505D02*
X21510Y-02505D01*
X21510Y-02505D02*
X21510Y-03095D01*
X21510Y-03095D02*
X20290Y-03095D01*
X20290Y-03095D02*
X20290Y-02505D01*
X21114Y-02604D02*
X21096Y-02586D01*
X21077Y-02570D01*
X21056Y-02555D01*
X21034Y-02543D01*
X21011Y-02532D01*
X20987Y-02523D01*
X20963Y-02517D01*
X20938Y-02512D01*
X20913Y-02510D01*
X20888Y-02510D01*
X20863Y-02512D01*
X20838Y-02516D01*
X20813Y-02523D01*
X20790Y-02531D01*
X20767Y-02542D01*
X20745Y-02555D01*
X20724Y-02569D01*
X20704Y-02586D01*
X20686Y-02604D01*
X20685Y-02605D01*
X21115Y-02995D02*
X21131Y-02976D01*
X21145Y-02955D01*
X21158Y-02933D01*
X21169Y-02910D01*
X21177Y-02886D01*
X21184Y-02861D01*
X21188Y-02836D01*
X21190Y-02811D01*
X21190Y-02787D01*
X21188Y-02762D01*
X21183Y-02737D01*
X21177Y-02712D01*
X21168Y-02688D01*
X21157Y-02665D01*
X21144Y-02643D01*
X21130Y-02623D01*
X21115Y-02605D01*
X20686Y-02996D02*
X20704Y-03014D01*
X20723Y-03030D01*
X20744Y-03045D01*
X20766Y-03057D01*
X20789Y-03068D01*
X20813Y-03077D01*
X20837Y-03083D01*
X20862Y-03088D01*
X20887Y-03090D01*
X20912Y-03090D01*
X20937Y-03088D01*
X20962Y-03084D01*
X20987Y-03077D01*
X21010Y-03069D01*
X21033Y-03058D01*
X21055Y-03045D01*
X21076Y-03031D01*
X21096Y-03014D01*
X21114Y-02996D01*
X21115Y-02995D01*
X20685Y-02605D02*
X20669Y-02624D01*
X20655Y-02645D01*
X20642Y-02667D01*
X20631Y-02690D01*
X20623Y-02714D01*
X20616Y-02739D01*
X20612Y-02764D01*
X20610Y-02789D01*
X20610Y-02813D01*
X20612Y-02838D01*
X20617Y-02863D01*
X20623Y-02888D01*
X20632Y-02912D01*
X20643Y-02935D01*
X20656Y-02957D01*
X20670Y-02977D01*
X20685Y-02995D01*
G54D18*
X20939Y-01761D02*
X20861Y-01761D01*
X20861Y-01761D02*
X20861Y-01839D01*
X20939Y-01839D02*
X20861Y-01839D01*
X20939Y-01761D02*
X20939Y-01839D01*
X20723Y-01525D02*
X20586Y-01525D01*
X20586Y-01525D02*
X20586Y-01623D01*
X20723Y-01623D02*
X20586Y-01623D01*
X20723Y-01525D02*
X20723Y-01623D01*
X20586Y-01525D02*
X20546Y-01525D01*
X20546Y-01525D02*
X20546Y-01996D01*
X20586Y-01996D02*
X20546Y-01996D01*
X20586Y-01525D02*
X20586Y-01996D01*
X20586Y-02016D02*
X20546Y-02016D01*
X20546Y-02016D02*
X20546Y-02075D01*
X20586Y-02075D02*
X20546Y-02075D01*
X20586Y-02016D02*
X20586Y-02075D01*
X21254Y-01525D02*
X21214Y-01525D01*
X21214Y-01525D02*
X21214Y-01996D01*
X21254Y-01996D02*
X21214Y-01996D01*
X21254Y-01525D02*
X21254Y-01996D01*
X21254Y-02016D02*
X21214Y-02016D01*
X21214Y-02016D02*
X21214Y-02075D01*
X21254Y-02075D02*
X21214Y-02075D01*
X21254Y-02016D02*
X21254Y-02075D01*
X20723Y-01525D02*
X20664Y-01525D01*
X20664Y-01525D02*
X20664Y-01623D01*
X20723Y-01623D02*
X20664Y-01623D01*
X20723Y-01525D02*
X20723Y-01623D01*
G54D19*
X20290Y-01505D02*
X21510Y-01505D01*
X21510Y-01505D02*
X21510Y-02095D01*
X21510Y-02095D02*
X20290Y-02095D01*
X20290Y-02095D02*
X20290Y-01505D01*
X21114Y-01604D02*
X21096Y-01586D01*
X21077Y-01570D01*
X21056Y-01555D01*
X21034Y-01543D01*
X21011Y-01532D01*
X20987Y-01523D01*
X20963Y-01517D01*
X20938Y-01512D01*
X20913Y-01510D01*
X20888Y-01510D01*
X20863Y-01512D01*
X20838Y-01516D01*
X20813Y-01523D01*
X20790Y-01531D01*
X20767Y-01542D01*
X20745Y-01555D01*
X20724Y-01569D01*
X20704Y-01586D01*
X20686Y-01604D01*
X20685Y-01605D01*
X21115Y-01995D02*
X21131Y-01976D01*
X21145Y-01955D01*
X21158Y-01933D01*
X21169Y-01910D01*
X21177Y-01886D01*
X21184Y-01861D01*
X21188Y-01836D01*
X21190Y-01811D01*
X21190Y-01787D01*
X21188Y-01762D01*
X21183Y-01737D01*
X21177Y-01712D01*
X21168Y-01688D01*
X21157Y-01665D01*
X21144Y-01643D01*
X21130Y-01623D01*
X21115Y-01605D01*
X20686Y-01996D02*
X20704Y-02014D01*
X20723Y-02030D01*
X20744Y-02045D01*
X20766Y-02057D01*
X20789Y-02068D01*
X20813Y-02077D01*
X20837Y-02083D01*
X20862Y-02088D01*
X20887Y-02090D01*
X20912Y-02090D01*
X20937Y-02088D01*
X20962Y-02084D01*
X20987Y-02077D01*
X21010Y-02069D01*
X21033Y-02058D01*
X21055Y-02045D01*
X21076Y-02031D01*
X21096Y-02014D01*
X21114Y-01996D01*
X21115Y-01995D01*
X20685Y-01605D02*
X20669Y-01624D01*
X20655Y-01645D01*
X20642Y-01667D01*
X20631Y-01690D01*
X20623Y-01714D01*
X20616Y-01739D01*
X20612Y-01764D01*
X20610Y-01789D01*
X20610Y-01813D01*
X20612Y-01838D01*
X20617Y-01863D01*
X20623Y-01888D01*
X20632Y-01912D01*
X20643Y-01935D01*
X20656Y-01957D01*
X20670Y-01977D01*
X20685Y-01995D01*
G54D15*
X26350Y-01950D02*
X26350Y-02200D01*
X26350Y-02200D02*
X22850Y-02200D01*
X22850Y-02200D02*
X22850Y-01950D01*
X26350Y-00450D02*
X26350Y-01950D01*
X26350Y-01950D02*
X22850Y-01950D01*
X22850Y-01950D02*
X22850Y-00450D01*
X22850Y-00450D02*
X26350Y-00450D01*
G54D18*
X20939Y-00760D02*
X20861Y-00760D01*
X20861Y-00760D02*
X20861Y-00838D01*
X20939Y-00838D02*
X20861Y-00838D01*
X20939Y-00760D02*
X20939Y-00838D01*
X20723Y-00524D02*
X20586Y-00524D01*
X20586Y-00524D02*
X20586Y-00622D01*
X20723Y-00622D02*
X20586Y-00622D01*
X20723Y-00524D02*
X20723Y-00622D01*
X20586Y-00524D02*
X20546Y-00524D01*
X20546Y-00524D02*
X20546Y-00995D01*
X20586Y-00995D02*
X20546Y-00995D01*
X20586Y-00524D02*
X20586Y-00995D01*
X20586Y-01015D02*
X20546Y-01015D01*
X20546Y-01015D02*
X20546Y-01074D01*
X20586Y-01074D02*
X20546Y-01074D01*
X20586Y-01015D02*
X20586Y-01074D01*
X21254Y-00524D02*
X21214Y-00524D01*
X21214Y-00524D02*
X21214Y-00995D01*
X21254Y-00995D02*
X21214Y-00995D01*
X21254Y-00524D02*
X21254Y-00995D01*
X21254Y-01015D02*
X21214Y-01015D01*
X21214Y-01015D02*
X21214Y-01074D01*
X21254Y-01074D02*
X21214Y-01074D01*
X21254Y-01015D02*
X21254Y-01074D01*
X20723Y-00524D02*
X20664Y-00524D01*
X20664Y-00524D02*
X20664Y-00622D01*
X20723Y-00622D02*
X20664Y-00622D01*
X20723Y-00524D02*
X20723Y-00622D01*
G54D19*
X20290Y-00504D02*
X21510Y-00504D01*
X21510Y-00504D02*
X21510Y-01094D01*
X21510Y-01094D02*
X20290Y-01094D01*
X20290Y-01094D02*
X20290Y-00504D01*
X21114Y-00603D02*
X21096Y-00585D01*
X21077Y-00569D01*
X21056Y-00554D01*
X21034Y-00542D01*
X21011Y-00531D01*
X20987Y-00522D01*
X20963Y-00516D01*
X20938Y-00511D01*
X20913Y-00509D01*
X20888Y-00509D01*
X20863Y-00511D01*
X20838Y-00515D01*
X20813Y-00522D01*
X20790Y-00530D01*
X20767Y-00541D01*
X20745Y-00554D01*
X20724Y-00568D01*
X20704Y-00585D01*
X20686Y-00603D01*
X20685Y-00604D01*
X21115Y-00994D02*
X21131Y-00975D01*
X21145Y-00954D01*
X21158Y-00932D01*
X21169Y-00909D01*
X21177Y-00885D01*
X21184Y-00860D01*
X21188Y-00835D01*
X21190Y-00810D01*
X21190Y-00786D01*
X21188Y-00761D01*
X21183Y-00736D01*
X21177Y-00711D01*
X21168Y-00687D01*
X21157Y-00664D01*
X21144Y-00642D01*
X21130Y-00622D01*
X21115Y-00604D01*
X20686Y-00995D02*
X20704Y-01013D01*
X20723Y-01029D01*
X20744Y-01044D01*
X20766Y-01056D01*
X20789Y-01067D01*
X20813Y-01076D01*
X20837Y-01082D01*
X20862Y-01087D01*
X20887Y-01089D01*
X20912Y-01089D01*
X20937Y-01087D01*
X20962Y-01083D01*
X20987Y-01076D01*
X21010Y-01068D01*
X21033Y-01057D01*
X21055Y-01044D01*
X21076Y-01030D01*
X21096Y-01013D01*
X21114Y-00995D01*
X21115Y-00994D01*
X20685Y-00604D02*
X20669Y-00623D01*
X20655Y-00644D01*
X20642Y-00666D01*
X20631Y-00689D01*
X20623Y-00713D01*
X20616Y-00738D01*
X20612Y-00763D01*
X20610Y-00788D01*
X20610Y-00812D01*
X20612Y-00837D01*
X20617Y-00862D01*
X20623Y-00887D01*
X20632Y-00911D01*
X20643Y-00934D01*
X20656Y-00956D01*
X20670Y-00976D01*
X20685Y-00994D01*
G54D16*
X23300Y-03050D02*
X23299Y-03059D01*
X23296Y-03069D01*
X23291Y-03077D01*
X23285Y-03085D01*
X23277Y-03091D01*
X23269Y-03096D01*
X23260Y-03098D01*
X23250Y-03099D01*
X23241Y-03099D01*
X23232Y-03096D01*
X23223Y-03091D01*
X23216Y-03085D01*
X23209Y-03078D01*
X23205Y-03069D01*
X23202Y-03060D01*
X23201Y-03050D01*
X23201Y-03041D01*
X23204Y-03032D01*
X23208Y-03023D01*
X23215Y-03016D01*
X23222Y-03009D01*
X23230Y-03005D01*
X23240Y-03002D01*
X23249Y-03001D01*
X23258Y-03001D01*
X23268Y-03004D01*
X23276Y-03008D01*
X23284Y-03014D01*
X23290Y-03022D01*
X23295Y-03030D01*
X23298Y-03039D01*
X23299Y-03049D01*
X23300Y-03050D01*
X23700Y-03050D02*
X23300Y-03050D01*
X23300Y-03050D02*
X23300Y-02450D01*
X23300Y-02450D02*
X23700Y-02450D01*
X24100Y-02450D02*
X24500Y-02450D01*
X24500Y-02450D02*
X24500Y-03050D01*
X24500Y-03050D02*
X24100Y-03050D01*
X32200Y-03300D02*
X32199Y-03309D01*
X32196Y-03319D01*
X32191Y-03327D01*
X32185Y-03335D01*
X32177Y-03341D01*
X32169Y-03346D01*
X32160Y-03348D01*
X32150Y-03349D01*
X32141Y-03349D01*
X32132Y-03346D01*
X32123Y-03341D01*
X32116Y-03335D01*
X32109Y-03328D01*
X32105Y-03319D01*
X32102Y-03310D01*
X32101Y-03300D01*
X32101Y-03291D01*
X32104Y-03282D01*
X32108Y-03273D01*
X32115Y-03266D01*
X32122Y-03259D01*
X32130Y-03255D01*
X32140Y-03252D01*
X32149Y-03251D01*
X32158Y-03251D01*
X32168Y-03254D01*
X32176Y-03258D01*
X32184Y-03264D01*
X32190Y-03272D01*
X32195Y-03280D01*
X32198Y-03289D01*
X32199Y-03299D01*
X32200Y-03300D01*
X31700Y-03300D02*
X32100Y-03300D01*
X32100Y-03300D02*
X32100Y-03900D01*
X32100Y-03900D02*
X31700Y-03900D01*
X31300Y-03900D02*
X30900Y-03900D01*
X30900Y-03900D02*
X30900Y-03300D01*
X30900Y-03300D02*
X31300Y-03300D01*
X26000Y-02450D02*
X25999Y-02459D01*
X25996Y-02469D01*
X25991Y-02477D01*
X25985Y-02485D01*
X25977Y-02491D01*
X25969Y-02496D01*
X25960Y-02498D01*
X25950Y-02499D01*
X25941Y-02499D01*
X25932Y-02496D01*
X25923Y-02491D01*
X25916Y-02485D01*
X25909Y-02478D01*
X25905Y-02469D01*
X25902Y-02460D01*
X25901Y-02450D01*
X25901Y-02441D01*
X25904Y-02432D01*
X25908Y-02423D01*
X25915Y-02416D01*
X25922Y-02409D01*
X25930Y-02405D01*
X25940Y-02402D01*
X25949Y-02401D01*
X25958Y-02401D01*
X25968Y-02404D01*
X25976Y-02408D01*
X25984Y-02414D01*
X25990Y-02422D01*
X25995Y-02430D01*
X25998Y-02439D01*
X25999Y-02449D01*
X26000Y-02450D01*
X25500Y-02450D02*
X25900Y-02450D01*
X25900Y-02450D02*
X25900Y-03050D01*
X25900Y-03050D02*
X25500Y-03050D01*
X25100Y-03050D02*
X24700Y-03050D01*
X24700Y-03050D02*
X24700Y-02450D01*
X24700Y-02450D02*
X25100Y-02450D01*
G54D12*
X39200Y-18500D02*
X39182Y-18674D01*
X39132Y-18842D01*
X39049Y-18998D01*
X38938Y-19134D01*
X38803Y-19246D01*
X38648Y-19329D01*
X38480Y-19381D01*
X38306Y-19399D01*
X38132Y-19384D01*
X37963Y-19334D01*
X37808Y-19253D01*
X37671Y-19143D01*
X37558Y-19008D01*
X37473Y-18854D01*
X37420Y-18687D01*
X37401Y-18512D01*
X37415Y-18338D01*
X37464Y-18169D01*
X37544Y-18013D01*
X37653Y-17875D01*
X37787Y-17761D01*
X37940Y-17676D01*
X38107Y-17621D01*
X38282Y-17601D01*
X38456Y-17614D01*
X38625Y-17661D01*
X38782Y-17741D01*
X38920Y-17849D01*
X39035Y-17982D01*
X39122Y-18134D01*
X39177Y-18301D01*
X39199Y-18475D01*
X39200Y-18500D01*
X01900Y-18500D02*
X01882Y-18674D01*
X01832Y-18842D01*
X01749Y-18998D01*
X01638Y-19134D01*
X01503Y-19246D01*
X01348Y-19329D01*
X01180Y-19381D01*
X01006Y-19399D01*
X00832Y-19384D01*
X00663Y-19334D01*
X00508Y-19253D01*
X00371Y-19143D01*
X00258Y-19008D01*
X00173Y-18854D01*
X00120Y-18687D01*
X00101Y-18512D01*
X00115Y-18338D01*
X00164Y-18169D01*
X00244Y-18013D01*
X00353Y-17875D01*
X00487Y-17761D01*
X00640Y-17676D01*
X00807Y-17621D01*
X00982Y-17601D01*
X01156Y-17614D01*
X01325Y-17661D01*
X01482Y-17741D01*
X01620Y-17849D01*
X01735Y-17982D01*
X01822Y-18134D01*
X01877Y-18301D01*
X01899Y-18475D01*
X01900Y-18500D01*
X39200Y-01000D02*
X39182Y-01174D01*
X39132Y-01342D01*
X39049Y-01498D01*
X38938Y-01634D01*
X38803Y-01746D01*
X38648Y-01829D01*
X38480Y-01881D01*
X38306Y-01899D01*
X38132Y-01884D01*
X37963Y-01834D01*
X37808Y-01753D01*
X37671Y-01643D01*
X37558Y-01508D01*
X37473Y-01354D01*
X37420Y-01187D01*
X37401Y-01012D01*
X37415Y-00838D01*
X37464Y-00669D01*
X37544Y-00513D01*
X37653Y-00375D01*
X37787Y-00261D01*
X37940Y-00176D01*
X38107Y-00121D01*
X38282Y-00101D01*
X38456Y-00114D01*
X38625Y-00161D01*
X38782Y-00241D01*
X38920Y-00349D01*
X39035Y-00482D01*
X39122Y-00634D01*
X39177Y-00801D01*
X39199Y-00975D01*
X39200Y-01000D01*
X01900Y-01000D02*
X01882Y-01174D01*
X01832Y-01342D01*
X01749Y-01498D01*
X01638Y-01634D01*
X01503Y-01746D01*
X01348Y-01829D01*
X01180Y-01881D01*
X01006Y-01899D01*
X00832Y-01884D01*
X00663Y-01834D01*
X00508Y-01753D01*
X00371Y-01643D01*
X00258Y-01508D01*
X00173Y-01354D01*
X00120Y-01187D01*
X00101Y-01012D01*
X00115Y-00838D01*
X00164Y-00669D01*
X00244Y-00513D01*
X00353Y-00375D01*
X00487Y-00261D01*
X00640Y-00176D01*
X00807Y-00121D01*
X00982Y-00101D01*
X01156Y-00114D01*
X01325Y-00161D01*
X01482Y-00241D01*
X01620Y-00349D01*
X01735Y-00482D01*
X01822Y-00634D01*
X01877Y-00801D01*
X01899Y-00975D01*
X01900Y-01000D01*
G54D16*
X28500Y-08100D02*
X28499Y-08109D01*
X28496Y-08119D01*
X28491Y-08127D01*
X28485Y-08135D01*
X28477Y-08141D01*
X28469Y-08146D01*
X28460Y-08148D01*
X28450Y-08149D01*
X28441Y-08149D01*
X28432Y-08146D01*
X28423Y-08141D01*
X28416Y-08135D01*
X28409Y-08128D01*
X28405Y-08119D01*
X28402Y-08110D01*
X28401Y-08100D01*
X28401Y-08091D01*
X28404Y-08082D01*
X28408Y-08073D01*
X28415Y-08066D01*
X28422Y-08059D01*
X28430Y-08055D01*
X28440Y-08052D01*
X28449Y-08051D01*
X28458Y-08051D01*
X28468Y-08054D01*
X28476Y-08058D01*
X28484Y-08064D01*
X28490Y-08072D01*
X28495Y-08080D01*
X28498Y-08089D01*
X28499Y-08099D01*
X28500Y-08100D01*
X28900Y-08100D02*
X28500Y-08100D01*
X28500Y-08100D02*
X28500Y-07500D01*
X28500Y-07500D02*
X28900Y-07500D01*
X29300Y-07500D02*
X29700Y-07500D01*
X29700Y-07500D02*
X29700Y-08100D01*
X29700Y-08100D02*
X29300Y-08100D01*
G54D12*
X22100Y-15000D02*
X37100Y-15000D01*
X37100Y-15000D02*
X37100Y-17000D01*
X37100Y-17000D02*
X22100Y-17000D01*
X22100Y-17000D02*
X22100Y-15000D01*
X22100Y-15500D02*
X22600Y-15500D01*
X22600Y-15500D02*
X22600Y-16500D01*
X22600Y-16500D02*
X22100Y-16500D01*
X22100Y-09200D02*
X37100Y-09200D01*
X37100Y-09200D02*
X37100Y-11200D01*
X37100Y-11200D02*
X22100Y-11200D01*
X22100Y-11200D02*
X22100Y-09200D01*
X22100Y-09700D02*
X22600Y-09700D01*
X22600Y-09700D02*
X22600Y-10700D01*
X22600Y-10700D02*
X22100Y-10700D01*
X02200Y-15000D02*
X17200Y-15000D01*
X17200Y-15000D02*
X17200Y-17000D01*
X17200Y-17000D02*
X02200Y-17000D01*
X02200Y-17000D02*
X02200Y-15000D01*
X02200Y-15500D02*
X02700Y-15500D01*
X02700Y-15500D02*
X02700Y-16500D01*
X02700Y-16500D02*
X02200Y-16500D01*
X31698Y-20399D02*
X31462Y-20399D01*
X31698Y-20596D02*
X31698Y-20399D01*
X31462Y-20596D02*
X31698Y-20596D01*
X39337Y-19931D02*
X39337Y-20404D01*
X39337Y-20601D02*
X39337Y-23475D01*
X31463Y-20601D02*
X31463Y-23475D01*
X31463Y-19931D02*
X31463Y-20404D01*
X31464Y-23475D02*
X39338Y-23475D01*
X31464Y-19931D02*
X39338Y-19931D01*
X39336Y-20596D02*
X39572Y-20596D01*
X39572Y-20596D02*
X39572Y-20399D01*
X39572Y-20399D02*
X39336Y-20399D01*
X23798Y-20399D02*
X23562Y-20399D01*
X23798Y-20596D02*
X23798Y-20399D01*
X23562Y-20596D02*
X23798Y-20596D01*
X31437Y-19931D02*
X31437Y-20404D01*
X31437Y-20601D02*
X31437Y-23475D01*
X23563Y-20601D02*
X23563Y-23475D01*
X23563Y-19931D02*
X23563Y-20404D01*
X23564Y-23475D02*
X31438Y-23475D01*
X23564Y-19931D02*
X31438Y-19931D01*
X31436Y-20596D02*
X31672Y-20596D01*
X31672Y-20596D02*
X31672Y-20399D01*
X31672Y-20399D02*
X31436Y-20399D01*
X15898Y-20399D02*
X15662Y-20399D01*
X15898Y-20596D02*
X15898Y-20399D01*
X15662Y-20596D02*
X15898Y-20596D01*
X23537Y-19931D02*
X23537Y-20404D01*
X23537Y-20601D02*
X23537Y-23475D01*
X15663Y-20601D02*
X15663Y-23475D01*
X15663Y-19931D02*
X15663Y-20404D01*
X15664Y-23475D02*
X23538Y-23475D01*
X15664Y-19931D02*
X23538Y-19931D01*
X23536Y-20596D02*
X23772Y-20596D01*
X23772Y-20596D02*
X23772Y-20399D01*
X23772Y-20399D02*
X23536Y-20399D01*
X07998Y-20399D02*
X07762Y-20399D01*
X07998Y-20596D02*
X07998Y-20399D01*
X07762Y-20596D02*
X07998Y-20596D01*
X15637Y-19931D02*
X15637Y-20404D01*
X15637Y-20601D02*
X15637Y-23475D01*
X07763Y-20601D02*
X07763Y-23475D01*
X07763Y-19931D02*
X07763Y-20404D01*
X07764Y-23475D02*
X15638Y-23475D01*
X07764Y-19931D02*
X15638Y-19931D01*
X15636Y-20596D02*
X15872Y-20596D01*
X15872Y-20596D02*
X15872Y-20399D01*
X15872Y-20399D02*
X15636Y-20399D01*
X00098Y-20399D02*
X-00138Y-20399D01*
X00098Y-20596D02*
X00098Y-20399D01*
X-00138Y-20596D02*
X00098Y-20596D01*
X07737Y-19931D02*
X07737Y-20404D01*
X07737Y-20601D02*
X07737Y-23475D01*
X-00137Y-20601D02*
X-00137Y-23475D01*
X-00137Y-19931D02*
X-00137Y-20404D01*
X-00136Y-23475D02*
X07738Y-23475D01*
X-00136Y-19931D02*
X07738Y-19931D01*
X07736Y-20596D02*
X07972Y-20596D01*
X07972Y-20596D02*
X07972Y-20399D01*
X07972Y-20399D02*
X07736Y-20399D01*
G54D14*
X33186Y-01799D02*
X33214Y-01828D01*
X33243Y-01914D01*
X33243Y-01971D01*
X33214Y-02056D01*
X33157Y-02114D01*
X33100Y-02142D01*
X32986Y-02171D01*
X32900Y-02171D01*
X32786Y-02142D01*
X32729Y-02114D01*
X32671Y-02056D01*
X32643Y-01971D01*
X32643Y-01914D01*
X32671Y-01828D01*
X32700Y-01799D01*
X32643Y-01599D02*
X32643Y-01228D01*
X32871Y-01428D01*
X32871Y-01342D01*
X32900Y-01285D01*
X32929Y-01256D01*
X32986Y-01228D01*
X33129Y-01228D01*
X33186Y-01256D01*
X33214Y-01285D01*
X33243Y-01342D01*
X33243Y-01514D01*
X33214Y-01571D01*
X33186Y-01599D01*
G54D11*
X03850Y-00657D02*
X03893Y-00671D01*
X03964Y-00671D01*
X03993Y-00657D01*
X04007Y-00643D01*
X04022Y-00614D01*
X04022Y-00586D01*
X04007Y-00557D01*
X03993Y-00543D01*
X03964Y-00529D01*
X03907Y-00514D01*
X03879Y-00500D01*
X03864Y-00486D01*
X03850Y-00457D01*
X03850Y-00429D01*
X03864Y-00400D01*
X03879Y-00386D01*
X03907Y-00371D01*
X03979Y-00371D01*
X04022Y-00386D01*
X04122Y-00371D02*
X04193Y-00671D01*
X04250Y-00457D01*
X04308Y-00671D01*
X04379Y-00371D01*
X04651Y-00671D02*
X04479Y-00671D01*
X04565Y-00671D02*
X04565Y-00371D01*
X04536Y-00414D01*
X04508Y-00443D01*
X04479Y-00457D01*
G54D20*
X04661Y-10443D02*
X04661Y-09843D01*
X05132Y-10386D02*
X05111Y-10414D01*
X05047Y-10443D01*
X05004Y-10443D01*
X04939Y-10414D01*
X04897Y-10357D01*
X04875Y-10300D01*
X04854Y-10186D01*
X04854Y-10100D01*
X04875Y-09986D01*
X04897Y-09929D01*
X04939Y-09871D01*
X05004Y-09843D01*
X05047Y-09843D01*
X05111Y-09871D01*
X05132Y-09900D01*
X05561Y-10443D02*
X05304Y-10443D01*
X05432Y-10443D02*
X05432Y-09843D01*
X05389Y-09929D01*
X05347Y-09986D01*
X05304Y-10014D01*
X11346Y-10271D02*
X11560Y-10271D01*
X11303Y-10443D02*
X11453Y-09843D01*
X11603Y-10443D01*
X11689Y-09843D02*
X11946Y-09843D01*
X11817Y-10443D02*
X11817Y-09843D01*
X12096Y-10443D02*
X12096Y-09843D01*
X12246Y-10271D01*
X12396Y-09843D01*
X12396Y-10443D01*
X12610Y-10129D02*
X12760Y-10129D01*
X12824Y-10443D02*
X12610Y-10443D01*
X12610Y-09843D01*
X12824Y-09843D01*
X13253Y-09871D02*
X13210Y-09843D01*
X13146Y-09843D01*
X13081Y-09871D01*
X13039Y-09929D01*
X13017Y-09986D01*
X12996Y-10100D01*
X12996Y-10186D01*
X13017Y-10300D01*
X13039Y-10357D01*
X13081Y-10414D01*
X13146Y-10443D01*
X13189Y-10443D01*
X13253Y-10414D01*
X13274Y-10386D01*
X13274Y-10186D01*
X13189Y-10186D01*
X13446Y-10271D02*
X13660Y-10271D01*
X13403Y-10443D02*
X13553Y-09843D01*
X13703Y-10443D01*
X14089Y-10443D02*
X13832Y-10443D01*
X13960Y-10443D02*
X13960Y-09843D01*
X13917Y-09929D01*
X13875Y-09986D01*
X13832Y-10014D01*
X14475Y-09843D02*
X14389Y-09843D01*
X14346Y-09871D01*
X14325Y-09900D01*
X14282Y-09986D01*
X14261Y-10100D01*
X14261Y-10329D01*
X14282Y-10386D01*
X14304Y-10414D01*
X14346Y-10443D01*
X14432Y-10443D01*
X14475Y-10414D01*
X14496Y-10386D01*
X14518Y-10329D01*
X14518Y-10186D01*
X14496Y-10129D01*
X14475Y-10100D01*
X14432Y-10071D01*
X14346Y-10071D01*
X14304Y-10100D01*
X14282Y-10129D01*
X14261Y-10186D01*
X14775Y-10100D02*
X14733Y-10071D01*
X14711Y-10043D01*
X14690Y-09986D01*
X14690Y-09957D01*
X14711Y-09900D01*
X14733Y-09871D01*
X14775Y-09843D01*
X14861Y-09843D01*
X14904Y-09871D01*
X14925Y-09900D01*
X14947Y-09957D01*
X14947Y-09986D01*
X14925Y-10043D01*
X14904Y-10071D01*
X14861Y-10100D01*
X14775Y-10100D01*
X14733Y-10129D01*
X14711Y-10157D01*
X14690Y-10214D01*
X14690Y-10329D01*
X14711Y-10386D01*
X14733Y-10414D01*
X14775Y-10443D01*
X14861Y-10443D01*
X14904Y-10414D01*
X14925Y-10386D01*
X14947Y-10329D01*
X14947Y-10214D01*
X14925Y-10157D01*
X14904Y-10129D01*
X14861Y-10100D01*
X15140Y-10214D02*
X15483Y-10214D01*
X15697Y-10443D02*
X15697Y-09843D01*
X15869Y-09843D01*
X15911Y-09871D01*
X15933Y-09900D01*
X15954Y-09957D01*
X15954Y-10043D01*
X15933Y-10100D01*
X15911Y-10129D01*
X15869Y-10157D01*
X15697Y-10157D01*
G54D11*
X27407Y-01121D02*
X27407Y-01336D01*
X27393Y-01379D01*
X27364Y-01407D01*
X27321Y-01421D01*
X27293Y-01421D01*
X27693Y-01421D02*
X27550Y-01421D01*
X27550Y-01121D01*
X27951Y-01136D02*
X27922Y-01121D01*
X27879Y-01121D01*
X27836Y-01136D01*
X27808Y-01164D01*
X27793Y-01193D01*
X27779Y-01250D01*
X27779Y-01293D01*
X27793Y-01350D01*
X27808Y-01379D01*
X27836Y-01407D01*
X27879Y-01421D01*
X27908Y-01421D01*
X27951Y-01407D01*
X27965Y-01393D01*
X27965Y-01293D01*
X27908Y-01293D01*
X28265Y-01393D02*
X28251Y-01407D01*
X28208Y-01421D01*
X28179Y-01421D01*
X28136Y-01407D01*
X28108Y-01379D01*
X28093Y-01350D01*
X28079Y-01293D01*
X28079Y-01250D01*
X28093Y-01193D01*
X28108Y-01164D01*
X28136Y-01136D01*
X28179Y-01121D01*
X28208Y-01121D01*
X28251Y-01136D01*
X28265Y-01150D01*
X28393Y-01421D02*
X28393Y-01121D01*
X28508Y-01121D01*
X28536Y-01136D01*
X28551Y-01150D01*
X28565Y-01179D01*
X28565Y-01221D01*
X28551Y-01250D01*
X28536Y-01264D01*
X28508Y-01279D01*
X28393Y-01279D01*
X28665Y-01121D02*
X28736Y-01421D01*
X28793Y-01207D01*
X28851Y-01421D01*
X28922Y-01121D01*
X29208Y-01421D02*
X29108Y-01279D01*
X29036Y-01421D02*
X29036Y-01121D01*
X29151Y-01121D01*
X29179Y-01136D01*
X29194Y-01150D01*
X29208Y-01179D01*
X29208Y-01221D01*
X29194Y-01250D01*
X29179Y-01264D01*
X29151Y-01279D01*
X29036Y-01279D01*
X29494Y-01421D02*
X29322Y-01421D01*
X29408Y-01421D02*
X29408Y-01121D01*
X29379Y-01164D01*
X29351Y-01193D01*
X29322Y-01207D01*
X34521Y-01121D02*
X34521Y-01336D01*
X34507Y-01379D01*
X34478Y-01407D01*
X34435Y-01421D01*
X34407Y-01421D01*
X34807Y-01421D02*
X34664Y-01421D01*
X34664Y-01121D01*
X34907Y-01264D02*
X35007Y-01264D01*
X35050Y-01421D02*
X34907Y-01421D01*
X34907Y-01121D01*
X35050Y-01121D01*
X35178Y-01421D02*
X35178Y-01121D01*
X35250Y-01121D01*
X35293Y-01136D01*
X35321Y-01164D01*
X35336Y-01193D01*
X35350Y-01250D01*
X35350Y-01293D01*
X35336Y-01350D01*
X35321Y-01379D01*
X35293Y-01407D01*
X35250Y-01421D01*
X35178Y-01421D01*
X35478Y-01421D02*
X35478Y-01121D01*
X35593Y-01121D01*
X35621Y-01136D01*
X35636Y-01150D01*
X35650Y-01179D01*
X35650Y-01221D01*
X35636Y-01250D01*
X35621Y-01264D01*
X35593Y-01279D01*
X35478Y-01279D01*
X35750Y-01121D02*
X35821Y-01421D01*
X35878Y-01207D01*
X35936Y-01421D01*
X36007Y-01121D01*
X36293Y-01421D02*
X36193Y-01279D01*
X36121Y-01421D02*
X36121Y-01121D01*
X36236Y-01121D01*
X36264Y-01136D01*
X36279Y-01150D01*
X36293Y-01179D01*
X36293Y-01221D01*
X36279Y-01250D01*
X36264Y-01264D01*
X36236Y-01279D01*
X36121Y-01279D01*
X36407Y-01150D02*
X36421Y-01136D01*
X36450Y-01121D01*
X36521Y-01121D01*
X36550Y-01136D01*
X36564Y-01150D01*
X36579Y-01179D01*
X36579Y-01207D01*
X36564Y-01250D01*
X36393Y-01421D01*
X36579Y-01421D01*
G54D14*
X15800Y-00843D02*
X15800Y-01271D01*
X15772Y-01357D01*
X15715Y-01414D01*
X15629Y-01443D01*
X15572Y-01443D01*
X16057Y-00900D02*
X16086Y-00871D01*
X16143Y-00843D01*
X16286Y-00843D01*
X16343Y-00871D01*
X16372Y-00900D01*
X16400Y-00957D01*
X16400Y-01014D01*
X16372Y-01100D01*
X16029Y-01443D01*
X16400Y-01443D01*
G54D21*
X15641Y-03299D02*
X15510Y-03112D01*
X15416Y-03299D02*
X15416Y-02905D01*
X15566Y-02905D01*
X15603Y-02924D01*
X15622Y-02943D01*
X15641Y-02981D01*
X15641Y-03037D01*
X15622Y-03074D01*
X15603Y-03093D01*
X15566Y-03112D01*
X15416Y-03112D01*
X15922Y-02905D02*
X15922Y-03187D01*
X15904Y-03243D01*
X15866Y-03281D01*
X15810Y-03299D01*
X15772Y-03299D01*
X16279Y-03037D02*
X16279Y-03299D01*
X16185Y-02887D02*
X16091Y-03168D01*
X16335Y-03168D01*
X16672Y-02905D02*
X16485Y-02905D01*
X16466Y-03093D01*
X16485Y-03074D01*
X16522Y-03056D01*
X16616Y-03056D01*
X16654Y-03074D01*
X16672Y-03093D01*
X16691Y-03131D01*
X16691Y-03224D01*
X16672Y-03262D01*
X16654Y-03281D01*
X16616Y-03299D01*
X16522Y-03299D01*
X16485Y-03281D01*
X16466Y-03262D01*
G54D14*
X09300Y-00843D02*
X09300Y-01271D01*
X09272Y-01357D01*
X09215Y-01414D01*
X09129Y-01443D01*
X09072Y-01443D01*
X09900Y-01443D02*
X09557Y-01443D01*
X09729Y-01443D02*
X09729Y-00843D01*
X09672Y-00929D01*
X09614Y-00986D01*
X09557Y-01014D01*
G54D21*
X09141Y-03299D02*
X09010Y-03112D01*
X08916Y-03299D02*
X08916Y-02905D01*
X09066Y-02905D01*
X09103Y-02924D01*
X09122Y-02943D01*
X09141Y-02981D01*
X09141Y-03037D01*
X09122Y-03074D01*
X09103Y-03093D01*
X09066Y-03112D01*
X08916Y-03112D01*
X09422Y-02905D02*
X09422Y-03187D01*
X09404Y-03243D01*
X09366Y-03281D01*
X09310Y-03299D01*
X09272Y-03299D01*
X09779Y-03037D02*
X09779Y-03299D01*
X09685Y-02887D02*
X09591Y-03168D01*
X09835Y-03168D01*
X10172Y-02905D02*
X09985Y-02905D01*
X09966Y-03093D01*
X09985Y-03074D01*
X10022Y-03056D01*
X10116Y-03056D01*
X10154Y-03074D01*
X10172Y-03093D01*
X10191Y-03131D01*
X10191Y-03224D01*
X10172Y-03262D01*
X10154Y-03281D01*
X10116Y-03299D01*
X10022Y-03299D01*
X09985Y-03281D01*
X09966Y-03262D01*
G54D16*
X19439Y-06551D02*
X19356Y-06432D01*
X19297Y-06551D02*
X19297Y-06301D01*
X19392Y-06301D01*
X19416Y-06313D01*
X19427Y-06325D01*
X19439Y-06349D01*
X19439Y-06385D01*
X19427Y-06408D01*
X19416Y-06420D01*
X19392Y-06432D01*
X19297Y-06432D01*
X19677Y-06551D02*
X19535Y-06551D01*
X19606Y-06551D02*
X19606Y-06301D01*
X19582Y-06337D01*
X19558Y-06361D01*
X19535Y-06373D01*
X19832Y-06301D02*
X19856Y-06301D01*
X19880Y-06313D01*
X19892Y-06325D01*
X19904Y-06349D01*
X19915Y-06396D01*
X19915Y-06456D01*
X19904Y-06504D01*
X19892Y-06527D01*
X19880Y-06539D01*
X19856Y-06551D01*
X19832Y-06551D01*
X19808Y-06539D01*
X19796Y-06527D01*
X19785Y-06504D01*
X19773Y-06456D01*
X19773Y-06396D01*
X19785Y-06349D01*
X19796Y-06325D01*
X19808Y-06313D01*
X19832Y-06301D01*
G54D10*
X10301Y-13642D02*
X10182Y-13725D01*
X10301Y-13784D02*
X10051Y-13784D01*
X10051Y-13689D01*
X10063Y-13665D01*
X10075Y-13654D01*
X10099Y-13642D01*
X10135Y-13642D01*
X10158Y-13654D01*
X10170Y-13665D01*
X10182Y-13689D01*
X10182Y-13784D01*
X10051Y-13558D02*
X10051Y-13404D01*
X10146Y-13487D01*
X10146Y-13451D01*
X10158Y-13427D01*
X10170Y-13415D01*
X10194Y-13404D01*
X10254Y-13404D01*
X10277Y-13415D01*
X10289Y-13427D01*
X10301Y-13451D01*
X10301Y-13523D01*
X10289Y-13546D01*
X10277Y-13558D01*
G54D16*
X04351Y-01592D02*
X04232Y-01675D01*
X04351Y-01734D02*
X04101Y-01734D01*
X04101Y-01639D01*
X04113Y-01615D01*
X04125Y-01604D01*
X04149Y-01592D01*
X04185Y-01592D01*
X04208Y-01604D01*
X04220Y-01615D01*
X04232Y-01639D01*
X04232Y-01734D01*
X04125Y-01496D02*
X04113Y-01484D01*
X04101Y-01461D01*
X04101Y-01401D01*
X04113Y-01377D01*
X04125Y-01365D01*
X04149Y-01354D01*
X04173Y-01354D01*
X04208Y-01365D01*
X04351Y-01508D01*
X04351Y-01354D01*
X31221Y-05050D02*
X31436Y-05050D01*
X31479Y-05064D01*
X31507Y-05093D01*
X31521Y-05136D01*
X31521Y-05164D01*
X31521Y-04907D02*
X31221Y-04907D01*
X31221Y-04792D01*
X31236Y-04764D01*
X31250Y-04749D01*
X31279Y-04735D01*
X31321Y-04735D01*
X31350Y-04749D01*
X31364Y-04764D01*
X31379Y-04792D01*
X31379Y-04907D01*
X31521Y-04449D02*
X31521Y-04621D01*
X31521Y-04535D02*
X31221Y-04535D01*
X31264Y-04564D01*
X31293Y-04592D01*
X31307Y-04621D01*
X04351Y-02461D02*
X04232Y-02544D01*
X04351Y-02603D02*
X04101Y-02603D01*
X04101Y-02508D01*
X04113Y-02484D01*
X04125Y-02473D01*
X04149Y-02461D01*
X04185Y-02461D01*
X04208Y-02473D01*
X04220Y-02484D01*
X04232Y-02508D01*
X04232Y-02603D01*
X04351Y-02223D02*
X04351Y-02365D01*
X04351Y-02294D02*
X04101Y-02294D01*
X04137Y-02318D01*
X04161Y-02342D01*
X04173Y-02365D01*
X04351Y-01985D02*
X04351Y-02127D01*
X04351Y-02056D02*
X04101Y-02056D01*
X04137Y-02080D01*
X04161Y-02104D01*
X04173Y-02127D01*
G54D10*
X03857Y-03892D02*
X03857Y-03542D01*
X04172Y-03858D02*
X04158Y-03875D01*
X04115Y-03892D01*
X04086Y-03892D01*
X04043Y-03875D01*
X04015Y-03842D01*
X04000Y-03808D01*
X03986Y-03742D01*
X03986Y-03692D01*
X04000Y-03625D01*
X04015Y-03592D01*
X04043Y-03558D01*
X04086Y-03542D01*
X04115Y-03542D01*
X04158Y-03558D01*
X04172Y-03575D01*
X04286Y-03575D02*
X04300Y-03558D01*
X04329Y-03542D01*
X04400Y-03542D01*
X04429Y-03558D01*
X04443Y-03575D01*
X04458Y-03608D01*
X04458Y-03642D01*
X04443Y-03692D01*
X04272Y-03892D01*
X04458Y-03892D01*
X03092Y-05225D02*
X03135Y-05242D01*
X03206Y-05242D01*
X03235Y-05225D01*
X03249Y-05208D01*
X03264Y-05175D01*
X03264Y-05142D01*
X03249Y-05108D01*
X03235Y-05092D01*
X03206Y-05075D01*
X03149Y-05058D01*
X03121Y-05042D01*
X03106Y-05025D01*
X03092Y-04992D01*
X03092Y-04958D01*
X03106Y-04925D01*
X03121Y-04908D01*
X03149Y-04892D01*
X03221Y-04892D01*
X03264Y-04908D01*
X03392Y-05242D02*
X03392Y-04892D01*
X03564Y-05242D01*
X03564Y-04892D01*
X03678Y-04892D02*
X03878Y-04892D01*
X03749Y-05242D01*
X04135Y-04892D02*
X03992Y-04892D01*
X03978Y-05058D01*
X03992Y-05042D01*
X04021Y-05025D01*
X04092Y-05025D01*
X04121Y-05042D01*
X04135Y-05058D01*
X04150Y-05092D01*
X04150Y-05175D01*
X04135Y-05208D01*
X04121Y-05225D01*
X04092Y-05242D01*
X04021Y-05242D01*
X03992Y-05225D01*
X03978Y-05208D01*
X04436Y-05242D02*
X04264Y-05242D01*
X04350Y-05242D02*
X04350Y-04892D01*
X04321Y-04942D01*
X04293Y-04975D01*
X04264Y-04992D01*
X04536Y-04892D02*
X04736Y-04892D01*
X04607Y-05242D01*
X04979Y-04892D02*
X04922Y-04892D01*
X04893Y-04908D01*
X04879Y-04925D01*
X04850Y-04975D01*
X04836Y-05042D01*
X04836Y-05175D01*
X04850Y-05208D01*
X04865Y-05225D01*
X04893Y-05242D01*
X04950Y-05242D01*
X04979Y-05225D01*
X04993Y-05208D01*
X05008Y-05175D01*
X05008Y-05092D01*
X04993Y-05058D01*
X04979Y-05042D01*
X04950Y-05025D01*
X04893Y-05025D01*
X04865Y-05042D01*
X04850Y-05058D01*
X04836Y-05092D01*
X05236Y-05058D02*
X05279Y-05075D01*
X05294Y-05092D01*
X05308Y-05125D01*
X05308Y-05175D01*
X05294Y-05208D01*
X05279Y-05225D01*
X05251Y-05242D01*
X05136Y-05242D01*
X05136Y-04892D01*
X05236Y-04892D01*
X05265Y-04908D01*
X05279Y-04925D01*
X05294Y-04958D01*
X05294Y-04992D01*
X05279Y-05025D01*
X05265Y-05042D01*
X05236Y-05058D01*
X05136Y-05058D01*
X19921Y-05022D02*
X19621Y-05022D01*
X19621Y-04950D01*
X19636Y-04907D01*
X19664Y-04879D01*
X19693Y-04864D01*
X19750Y-04850D01*
X19793Y-04850D01*
X19850Y-04864D01*
X19879Y-04879D01*
X19907Y-04907D01*
X19921Y-04950D01*
X19921Y-05022D01*
X19621Y-04579D02*
X19621Y-04722D01*
X19764Y-04736D01*
X19750Y-04722D01*
X19736Y-04693D01*
X19736Y-04622D01*
X19750Y-04593D01*
X19764Y-04579D01*
X19793Y-04564D01*
X19864Y-04564D01*
X19893Y-04579D01*
X19907Y-04593D01*
X19921Y-04622D01*
X19921Y-04693D01*
X19907Y-04722D01*
X19893Y-04736D01*
X19921Y-04022D02*
X19621Y-04022D01*
X19621Y-03950D01*
X19636Y-03907D01*
X19664Y-03879D01*
X19693Y-03864D01*
X19750Y-03850D01*
X19793Y-03850D01*
X19850Y-03864D01*
X19879Y-03879D01*
X19907Y-03907D01*
X19921Y-03950D01*
X19921Y-04022D01*
X19721Y-03593D02*
X19921Y-03593D01*
X19607Y-03664D02*
X19821Y-03736D01*
X19821Y-03550D01*
X19921Y-03022D02*
X19621Y-03022D01*
X19621Y-02950D01*
X19636Y-02907D01*
X19664Y-02879D01*
X19693Y-02864D01*
X19750Y-02850D01*
X19793Y-02850D01*
X19850Y-02864D01*
X19879Y-02879D01*
X19907Y-02907D01*
X19921Y-02950D01*
X19921Y-03022D01*
X19621Y-02750D02*
X19621Y-02564D01*
X19736Y-02664D01*
X19736Y-02622D01*
X19750Y-02593D01*
X19764Y-02579D01*
X19793Y-02564D01*
X19864Y-02564D01*
X19893Y-02579D01*
X19907Y-02593D01*
X19921Y-02622D01*
X19921Y-02707D01*
X19907Y-02736D01*
X19893Y-02750D01*
X19921Y-02022D02*
X19621Y-02022D01*
X19621Y-01950D01*
X19636Y-01907D01*
X19664Y-01879D01*
X19693Y-01864D01*
X19750Y-01850D01*
X19793Y-01850D01*
X19850Y-01864D01*
X19879Y-01879D01*
X19907Y-01907D01*
X19921Y-01950D01*
X19921Y-02022D01*
X19650Y-01736D02*
X19636Y-01722D01*
X19621Y-01693D01*
X19621Y-01622D01*
X19636Y-01593D01*
X19650Y-01579D01*
X19679Y-01564D01*
X19707Y-01564D01*
X19750Y-01579D01*
X19921Y-01750D01*
X19921Y-01564D01*
G54D11*
X25971Y-02321D02*
X25971Y-02564D01*
X25986Y-02593D01*
X26000Y-02607D01*
X26029Y-02621D01*
X26086Y-02621D01*
X26114Y-02607D01*
X26129Y-02593D01*
X26143Y-02564D01*
X26143Y-02321D01*
X26443Y-02621D02*
X26271Y-02621D01*
X26357Y-02621D02*
X26357Y-02321D01*
X26328Y-02364D01*
X26300Y-02393D01*
X26271Y-02407D01*
X22721Y-02051D02*
X22721Y-02194D01*
X22421Y-02194D01*
X22721Y-01951D02*
X22421Y-01951D01*
X22636Y-01851D01*
X22421Y-01751D01*
X22721Y-01751D01*
X22421Y-01636D02*
X22421Y-01436D01*
X22721Y-01565D01*
X22550Y-01279D02*
X22536Y-01307D01*
X22521Y-01322D01*
X22493Y-01336D01*
X22479Y-01336D01*
X22450Y-01322D01*
X22436Y-01307D01*
X22421Y-01279D01*
X22421Y-01222D01*
X22436Y-01193D01*
X22450Y-01179D01*
X22479Y-01164D01*
X22493Y-01164D01*
X22521Y-01179D01*
X22536Y-01193D01*
X22550Y-01222D01*
X22550Y-01279D01*
X22564Y-01307D01*
X22579Y-01322D01*
X22607Y-01336D01*
X22664Y-01336D01*
X22693Y-01322D01*
X22707Y-01307D01*
X22721Y-01279D01*
X22721Y-01222D01*
X22707Y-01193D01*
X22693Y-01179D01*
X22664Y-01164D01*
X22607Y-01164D01*
X22579Y-01179D01*
X22564Y-01193D01*
X22550Y-01222D01*
X22421Y-00978D02*
X22421Y-00950D01*
X22436Y-00921D01*
X22450Y-00907D01*
X22479Y-00893D01*
X22536Y-00878D01*
X22607Y-00878D01*
X22664Y-00893D01*
X22693Y-00907D01*
X22707Y-00921D01*
X22721Y-00950D01*
X22721Y-00978D01*
X22707Y-01007D01*
X22693Y-01021D01*
X22664Y-01036D01*
X22607Y-01050D01*
X22536Y-01050D01*
X22479Y-01036D01*
X22450Y-01021D01*
X22436Y-01007D01*
X22421Y-00978D01*
X22421Y-00607D02*
X22421Y-00750D01*
X22564Y-00764D01*
X22550Y-00750D01*
X22536Y-00721D01*
X22536Y-00650D01*
X22550Y-00621D01*
X22564Y-00607D01*
X22593Y-00592D01*
X22664Y-00592D01*
X22693Y-00607D01*
X22707Y-00621D01*
X22721Y-00650D01*
X22721Y-00721D01*
X22707Y-00750D01*
X22693Y-00764D01*
G54D10*
X19921Y-01022D02*
X19621Y-01022D01*
X19621Y-00950D01*
X19636Y-00907D01*
X19664Y-00879D01*
X19693Y-00864D01*
X19750Y-00850D01*
X19793Y-00850D01*
X19850Y-00864D01*
X19879Y-00879D01*
X19907Y-00907D01*
X19921Y-00950D01*
X19921Y-01022D01*
X19921Y-00564D02*
X19921Y-00736D01*
X19921Y-00650D02*
X19621Y-00650D01*
X19664Y-00679D01*
X19693Y-00707D01*
X19707Y-00736D01*
G54D16*
X23977Y-02792D02*
X23989Y-02804D01*
X24001Y-02839D01*
X24001Y-02863D01*
X23989Y-02899D01*
X23965Y-02923D01*
X23942Y-02934D01*
X23894Y-02946D01*
X23858Y-02946D01*
X23811Y-02934D01*
X23787Y-02923D01*
X23763Y-02899D01*
X23751Y-02863D01*
X23751Y-02839D01*
X23763Y-02804D01*
X23775Y-02792D01*
X23835Y-02577D02*
X24001Y-02577D01*
X23739Y-02637D02*
X23918Y-02696D01*
X23918Y-02542D01*
X31577Y-03642D02*
X31589Y-03654D01*
X31601Y-03689D01*
X31601Y-03713D01*
X31589Y-03749D01*
X31565Y-03773D01*
X31542Y-03784D01*
X31494Y-03796D01*
X31458Y-03796D01*
X31411Y-03784D01*
X31387Y-03773D01*
X31363Y-03749D01*
X31351Y-03713D01*
X31351Y-03689D01*
X31363Y-03654D01*
X31375Y-03642D01*
X31375Y-03546D02*
X31363Y-03534D01*
X31351Y-03511D01*
X31351Y-03451D01*
X31363Y-03427D01*
X31375Y-03415D01*
X31399Y-03404D01*
X31423Y-03404D01*
X31458Y-03415D01*
X31601Y-03558D01*
X31601Y-03404D01*
X25377Y-02792D02*
X25389Y-02804D01*
X25401Y-02839D01*
X25401Y-02863D01*
X25389Y-02899D01*
X25365Y-02923D01*
X25342Y-02934D01*
X25294Y-02946D01*
X25258Y-02946D01*
X25211Y-02934D01*
X25187Y-02923D01*
X25163Y-02899D01*
X25151Y-02863D01*
X25151Y-02839D01*
X25163Y-02804D01*
X25175Y-02792D01*
X25401Y-02554D02*
X25401Y-02696D01*
X25401Y-02625D02*
X25151Y-02625D01*
X25187Y-02649D01*
X25211Y-02673D01*
X25223Y-02696D01*
X29201Y-07961D02*
X29082Y-08044D01*
X29201Y-08103D02*
X28951Y-08103D01*
X28951Y-08008D01*
X28963Y-07984D01*
X28975Y-07973D01*
X28999Y-07961D01*
X29035Y-07961D01*
X29058Y-07973D01*
X29070Y-07984D01*
X29082Y-08008D01*
X29082Y-08103D01*
X29201Y-07723D02*
X29201Y-07865D01*
X29201Y-07794D02*
X28951Y-07794D01*
X28987Y-07818D01*
X29011Y-07842D01*
X29023Y-07865D01*
X28975Y-07627D02*
X28963Y-07615D01*
X28951Y-07592D01*
X28951Y-07532D01*
X28963Y-07508D01*
X28975Y-07496D01*
X28999Y-07485D01*
X29023Y-07485D01*
X29058Y-07496D01*
X29201Y-07639D01*
X29201Y-07485D01*
G54D20*
X24350Y-15643D02*
X24607Y-15643D01*
X24478Y-16243D02*
X24478Y-15643D01*
X24971Y-16243D02*
X24757Y-16243D01*
X24757Y-15643D01*
X25378Y-16186D02*
X25357Y-16214D01*
X25293Y-16243D01*
X25250Y-16243D01*
X25185Y-16214D01*
X25143Y-16157D01*
X25121Y-16100D01*
X25100Y-15986D01*
X25100Y-15900D01*
X25121Y-15786D01*
X25143Y-15729D01*
X25185Y-15671D01*
X25250Y-15643D01*
X25293Y-15643D01*
X25357Y-15671D01*
X25378Y-15700D01*
X25528Y-15643D02*
X25807Y-15643D01*
X25657Y-15871D01*
X25721Y-15871D01*
X25764Y-15900D01*
X25785Y-15929D01*
X25807Y-15986D01*
X25807Y-16129D01*
X25785Y-16186D01*
X25764Y-16214D01*
X25721Y-16243D01*
X25593Y-16243D01*
X25550Y-16214D01*
X25528Y-16186D01*
X32207Y-15643D02*
X32464Y-15643D01*
X32335Y-16243D02*
X32335Y-15643D01*
X32828Y-16243D02*
X32614Y-16243D01*
X32614Y-15643D01*
X33235Y-16186D02*
X33214Y-16214D01*
X33150Y-16243D01*
X33107Y-16243D01*
X33042Y-16214D01*
X33000Y-16157D01*
X32978Y-16100D01*
X32957Y-15986D01*
X32957Y-15900D01*
X32978Y-15786D01*
X33000Y-15729D01*
X33042Y-15671D01*
X33107Y-15643D01*
X33150Y-15643D01*
X33214Y-15671D01*
X33235Y-15700D01*
X33642Y-15643D02*
X33428Y-15643D01*
X33407Y-15929D01*
X33428Y-15900D01*
X33471Y-15871D01*
X33578Y-15871D01*
X33621Y-15900D01*
X33642Y-15929D01*
X33664Y-15986D01*
X33664Y-16129D01*
X33642Y-16186D01*
X33621Y-16214D01*
X33578Y-16243D01*
X33471Y-16243D01*
X33428Y-16214D01*
X33407Y-16186D01*
X33879Y-16243D02*
X33964Y-16243D01*
X34007Y-16214D01*
X34029Y-16186D01*
X34071Y-16100D01*
X34093Y-15986D01*
X34093Y-15757D01*
X34071Y-15700D01*
X34050Y-15671D01*
X34007Y-15643D01*
X33921Y-15643D01*
X33879Y-15671D01*
X33857Y-15700D01*
X33836Y-15757D01*
X33836Y-15900D01*
X33857Y-15957D01*
X33879Y-15986D01*
X33921Y-16014D01*
X34007Y-16014D01*
X34050Y-15986D01*
X34071Y-15957D01*
X34093Y-15900D01*
X34479Y-15843D02*
X34479Y-16243D01*
X34372Y-15614D02*
X34265Y-16043D01*
X34543Y-16043D01*
X34801Y-15643D02*
X34844Y-15643D01*
X34887Y-15671D01*
X34908Y-15700D01*
X34929Y-15757D01*
X34951Y-15871D01*
X34951Y-16014D01*
X34929Y-16129D01*
X34908Y-16186D01*
X34887Y-16214D01*
X34844Y-16243D01*
X34801Y-16243D01*
X34758Y-16214D01*
X34737Y-16186D01*
X34715Y-16129D01*
X34694Y-16014D01*
X34694Y-15871D01*
X34715Y-15757D01*
X34737Y-15700D01*
X34758Y-15671D01*
X34801Y-15643D01*
X24350Y-09843D02*
X24607Y-09843D01*
X24478Y-10443D02*
X24478Y-09843D01*
X24971Y-10443D02*
X24757Y-10443D01*
X24757Y-09843D01*
X25378Y-10386D02*
X25357Y-10414D01*
X25293Y-10443D01*
X25250Y-10443D01*
X25185Y-10414D01*
X25143Y-10357D01*
X25121Y-10300D01*
X25100Y-10186D01*
X25100Y-10100D01*
X25121Y-09986D01*
X25143Y-09929D01*
X25185Y-09871D01*
X25250Y-09843D01*
X25293Y-09843D01*
X25357Y-09871D01*
X25378Y-09900D01*
X25550Y-09900D02*
X25571Y-09871D01*
X25614Y-09843D01*
X25721Y-09843D01*
X25764Y-09871D01*
X25785Y-09900D01*
X25807Y-09957D01*
X25807Y-10014D01*
X25785Y-10100D01*
X25528Y-10443D01*
X25807Y-10443D01*
X32207Y-09843D02*
X32464Y-09843D01*
X32335Y-10443D02*
X32335Y-09843D01*
X32828Y-10443D02*
X32614Y-10443D01*
X32614Y-09843D01*
X33235Y-10386D02*
X33214Y-10414D01*
X33150Y-10443D01*
X33107Y-10443D01*
X33042Y-10414D01*
X33000Y-10357D01*
X32978Y-10300D01*
X32957Y-10186D01*
X32957Y-10100D01*
X32978Y-09986D01*
X33000Y-09929D01*
X33042Y-09871D01*
X33107Y-09843D01*
X33150Y-09843D01*
X33214Y-09871D01*
X33235Y-09900D01*
X33642Y-09843D02*
X33428Y-09843D01*
X33407Y-10129D01*
X33428Y-10100D01*
X33471Y-10071D01*
X33578Y-10071D01*
X33621Y-10100D01*
X33642Y-10129D01*
X33664Y-10186D01*
X33664Y-10329D01*
X33642Y-10386D01*
X33621Y-10414D01*
X33578Y-10443D01*
X33471Y-10443D01*
X33428Y-10414D01*
X33407Y-10386D01*
X33879Y-10443D02*
X33964Y-10443D01*
X34007Y-10414D01*
X34029Y-10386D01*
X34071Y-10300D01*
X34093Y-10186D01*
X34093Y-09957D01*
X34071Y-09900D01*
X34050Y-09871D01*
X34007Y-09843D01*
X33921Y-09843D01*
X33879Y-09871D01*
X33857Y-09900D01*
X33836Y-09957D01*
X33836Y-10100D01*
X33857Y-10157D01*
X33879Y-10186D01*
X33921Y-10214D01*
X34007Y-10214D01*
X34050Y-10186D01*
X34071Y-10157D01*
X34093Y-10100D01*
X34479Y-10043D02*
X34479Y-10443D01*
X34372Y-09814D02*
X34265Y-10243D01*
X34543Y-10243D01*
X34801Y-09843D02*
X34844Y-09843D01*
X34887Y-09871D01*
X34908Y-09900D01*
X34929Y-09957D01*
X34951Y-10071D01*
X34951Y-10214D01*
X34929Y-10329D01*
X34908Y-10386D01*
X34887Y-10414D01*
X34844Y-10443D01*
X34801Y-10443D01*
X34758Y-10414D01*
X34737Y-10386D01*
X34715Y-10329D01*
X34694Y-10214D01*
X34694Y-10071D01*
X34715Y-09957D01*
X34737Y-09900D01*
X34758Y-09871D01*
X34801Y-09843D01*
X04450Y-15643D02*
X04707Y-15643D01*
X04578Y-16243D02*
X04578Y-15643D01*
X05071Y-16243D02*
X04857Y-16243D01*
X04857Y-15643D01*
X05478Y-16186D02*
X05457Y-16214D01*
X05393Y-16243D01*
X05350Y-16243D01*
X05285Y-16214D01*
X05243Y-16157D01*
X05221Y-16100D01*
X05200Y-15986D01*
X05200Y-15900D01*
X05221Y-15786D01*
X05243Y-15729D01*
X05285Y-15671D01*
X05350Y-15643D01*
X05393Y-15643D01*
X05457Y-15671D01*
X05478Y-15700D01*
X05907Y-16243D02*
X05650Y-16243D01*
X05778Y-16243D02*
X05778Y-15643D01*
X05735Y-15729D01*
X05693Y-15786D01*
X05650Y-15814D01*
X12307Y-15643D02*
X12564Y-15643D01*
X12435Y-16243D02*
X12435Y-15643D01*
X12928Y-16243D02*
X12714Y-16243D01*
X12714Y-15643D01*
X13335Y-16186D02*
X13314Y-16214D01*
X13250Y-16243D01*
X13207Y-16243D01*
X13142Y-16214D01*
X13100Y-16157D01*
X13078Y-16100D01*
X13057Y-15986D01*
X13057Y-15900D01*
X13078Y-15786D01*
X13100Y-15729D01*
X13142Y-15671D01*
X13207Y-15643D01*
X13250Y-15643D01*
X13314Y-15671D01*
X13335Y-15700D01*
X13742Y-15643D02*
X13528Y-15643D01*
X13507Y-15929D01*
X13528Y-15900D01*
X13571Y-15871D01*
X13678Y-15871D01*
X13721Y-15900D01*
X13742Y-15929D01*
X13764Y-15986D01*
X13764Y-16129D01*
X13742Y-16186D01*
X13721Y-16214D01*
X13678Y-16243D01*
X13571Y-16243D01*
X13528Y-16214D01*
X13507Y-16186D01*
X13979Y-16243D02*
X14064Y-16243D01*
X14107Y-16214D01*
X14129Y-16186D01*
X14171Y-16100D01*
X14193Y-15986D01*
X14193Y-15757D01*
X14171Y-15700D01*
X14150Y-15671D01*
X14107Y-15643D01*
X14021Y-15643D01*
X13979Y-15671D01*
X13957Y-15700D01*
X13936Y-15757D01*
X13936Y-15900D01*
X13957Y-15957D01*
X13979Y-15986D01*
X14021Y-16014D01*
X14107Y-16014D01*
X14150Y-15986D01*
X14171Y-15957D01*
X14193Y-15900D01*
X14579Y-15843D02*
X14579Y-16243D01*
X14472Y-15614D02*
X14365Y-16043D01*
X14643Y-16043D01*
X14901Y-15643D02*
X14944Y-15643D01*
X14987Y-15671D01*
X15008Y-15700D01*
X15029Y-15757D01*
X15051Y-15871D01*
X15051Y-16014D01*
X15029Y-16129D01*
X15008Y-16186D01*
X14987Y-16214D01*
X14944Y-16243D01*
X14901Y-16243D01*
X14858Y-16214D01*
X14837Y-16186D01*
X14815Y-16129D01*
X14794Y-16014D01*
X14794Y-15871D01*
X14815Y-15757D01*
X14837Y-15700D01*
X14858Y-15671D01*
X14901Y-15643D01*
G54D14*
X34828Y-20707D02*
X34584Y-20707D01*
X34584Y-20195D01*
X34998Y-20439D02*
X35169Y-20439D01*
X35242Y-20707D02*
X34998Y-20707D01*
X34998Y-20195D01*
X35242Y-20195D01*
X35461Y-20707D02*
X35461Y-20195D01*
X35583Y-20195D01*
X35656Y-20220D01*
X35705Y-20268D01*
X35729Y-20317D01*
X35753Y-20415D01*
X35753Y-20488D01*
X35729Y-20585D01*
X35705Y-20634D01*
X35656Y-20683D01*
X35583Y-20707D01*
X35461Y-20707D01*
X36192Y-20366D02*
X36192Y-20707D01*
X36070Y-20171D02*
X35949Y-20537D01*
X36265Y-20537D01*
X26928Y-20707D02*
X26684Y-20707D01*
X26684Y-20195D01*
X27098Y-20439D02*
X27269Y-20439D01*
X27342Y-20707D02*
X27098Y-20707D01*
X27098Y-20195D01*
X27342Y-20195D01*
X27561Y-20707D02*
X27561Y-20195D01*
X27683Y-20195D01*
X27756Y-20220D01*
X27805Y-20268D01*
X27829Y-20317D01*
X27853Y-20415D01*
X27853Y-20488D01*
X27829Y-20585D01*
X27805Y-20634D01*
X27756Y-20683D01*
X27683Y-20707D01*
X27561Y-20707D01*
X28024Y-20195D02*
X28341Y-20195D01*
X28170Y-20390D01*
X28244Y-20390D01*
X28292Y-20415D01*
X28317Y-20439D01*
X28341Y-20488D01*
X28341Y-20610D01*
X28317Y-20658D01*
X28292Y-20683D01*
X28244Y-20707D01*
X28097Y-20707D01*
X28049Y-20683D01*
X28024Y-20658D01*
X19078Y-20707D02*
X18834Y-20707D01*
X18834Y-20195D01*
X19248Y-20439D02*
X19419Y-20439D01*
X19492Y-20707D02*
X19248Y-20707D01*
X19248Y-20195D01*
X19492Y-20195D01*
X19711Y-20707D02*
X19711Y-20195D01*
X19833Y-20195D01*
X19906Y-20220D01*
X19955Y-20268D01*
X19979Y-20317D01*
X20003Y-20415D01*
X20003Y-20488D01*
X19979Y-20585D01*
X19955Y-20634D01*
X19906Y-20683D01*
X19833Y-20707D01*
X19711Y-20707D01*
X20199Y-20244D02*
X20223Y-20220D01*
X20272Y-20195D01*
X20394Y-20195D01*
X20442Y-20220D01*
X20467Y-20244D01*
X20491Y-20293D01*
X20491Y-20342D01*
X20467Y-20415D01*
X20174Y-20707D01*
X20491Y-20707D01*
X11128Y-20707D02*
X10884Y-20707D01*
X10884Y-20195D01*
X11298Y-20439D02*
X11469Y-20439D01*
X11542Y-20707D02*
X11298Y-20707D01*
X11298Y-20195D01*
X11542Y-20195D01*
X11761Y-20707D02*
X11761Y-20195D01*
X11883Y-20195D01*
X11956Y-20220D01*
X12005Y-20268D01*
X12029Y-20317D01*
X12053Y-20415D01*
X12053Y-20488D01*
X12029Y-20585D01*
X12005Y-20634D01*
X11956Y-20683D01*
X11883Y-20707D01*
X11761Y-20707D01*
X12541Y-20707D02*
X12249Y-20707D01*
X12395Y-20707D02*
X12395Y-20195D01*
X12346Y-20268D01*
X12297Y-20317D01*
X12249Y-20342D01*
X03228Y-20707D02*
X02984Y-20707D01*
X02984Y-20195D01*
X03398Y-20439D02*
X03569Y-20439D01*
X03642Y-20707D02*
X03398Y-20707D01*
X03398Y-20195D01*
X03642Y-20195D01*
X03861Y-20707D02*
X03861Y-20195D01*
X03983Y-20195D01*
X04056Y-20220D01*
X04105Y-20268D01*
X04129Y-20317D01*
X04153Y-20415D01*
X04153Y-20488D01*
X04129Y-20585D01*
X04105Y-20634D01*
X04056Y-20683D01*
X03983Y-20707D01*
X03861Y-20707D01*
X04470Y-20195D02*
X04519Y-20195D01*
X04568Y-20220D01*
X04592Y-20244D01*
X04617Y-20293D01*
X04641Y-20390D01*
X04641Y-20512D01*
X04617Y-20610D01*
X04592Y-20658D01*
X04568Y-20683D01*
X04519Y-20707D01*
X04470Y-20707D01*
X04422Y-20683D01*
X04397Y-20658D01*
X04373Y-20610D01*
X04349Y-20512D01*
X04349Y-20390D01*
X04373Y-20293D01*
X04397Y-20244D01*
X04422Y-20220D01*
X04470Y-20195D01*
M02*
