G04 (created by PCBNEW-RS274X (2012-03-17 BZR 3466)-stable) date Mon 10 Dec 2012 10:26:00 PM EST*
G01*
G70*
G90*
%MOIN*%
G04 Gerber Fmt 3.4, Leading zero omitted, Abs format*
%FSLAX34Y34*%
G04 APERTURE LIST*
%ADD10C,0.006000*%
%ADD11C,0.015000*%
%ADD12C,0.059100*%
%ADD13C,0.060000*%
%ADD14C,0.070000*%
%ADD15C,0.055000*%
%ADD16R,0.055000X0.055000*%
%ADD17C,0.189000*%
%ADD18R,0.189000X0.189000*%
%ADD19C,0.143700*%
%ADD20R,0.059100X0.059100*%
%ADD21R,0.055000X0.035000*%
%ADD22R,0.035000X0.055000*%
%ADD23R,0.060000X0.080000*%
%ADD24R,0.086600X0.023600*%
%ADD25R,0.062900X0.070900*%
%ADD26R,0.070000X0.070000*%
%ADD27C,0.130000*%
%ADD28C,0.098400*%
%ADD29R,0.098400X0.160000*%
%ADD30C,0.024000*%
%ADD31C,0.010000*%
%ADD32C,0.020000*%
%ADD33C,0.050000*%
G04 APERTURE END LIST*
G54D10*
G54D11*
X00000Y-23500D02*
X39300Y-23500D01*
X00000Y00000D02*
X39300Y00000D01*
X00000Y-23500D02*
X00000Y00000D01*
X39300Y00000D02*
X39300Y-23500D01*
G54D12*
X32000Y-01200D03*
X32000Y-02200D03*
G54D13*
X03250Y-00550D03*
X05250Y-00550D03*
G54D14*
X02650Y-01550D03*
X05850Y-01550D03*
G54D15*
X04200Y-11700D03*
X05200Y-11700D03*
X06200Y-11700D03*
X07200Y-11700D03*
X08200Y-11700D03*
X09200Y-11700D03*
X10200Y-11700D03*
X11200Y-11700D03*
X12200Y-11700D03*
X13200Y-11700D03*
X14200Y-11700D03*
X15200Y-11700D03*
X16200Y-11700D03*
G54D16*
X03200Y-11700D03*
G54D15*
X16200Y-08700D03*
X15200Y-08700D03*
X14200Y-08700D03*
X13200Y-08700D03*
X12200Y-08700D03*
X11200Y-08700D03*
X10200Y-08700D03*
X09200Y-08700D03*
X08200Y-08700D03*
X07200Y-08700D03*
X06200Y-08700D03*
X05200Y-08700D03*
X04200Y-08700D03*
X03200Y-08700D03*
G54D17*
X28400Y-03200D03*
G54D18*
X28400Y-05600D03*
G54D17*
X26400Y-04100D03*
X35500Y-03200D03*
G54D18*
X35500Y-05600D03*
G54D17*
X33500Y-04100D03*
G54D19*
X13762Y-03100D03*
X18435Y-03100D03*
G54D20*
X17850Y-05600D03*
G54D12*
X17350Y-06600D03*
X16850Y-05600D03*
X16350Y-06600D03*
X15850Y-05600D03*
X15350Y-06600D03*
X14850Y-05600D03*
X14350Y-06600D03*
G54D19*
X07262Y-03100D03*
X11935Y-03100D03*
G54D20*
X11350Y-05600D03*
G54D12*
X10850Y-06600D03*
X10350Y-05600D03*
X09850Y-06600D03*
X09350Y-05600D03*
X08850Y-06600D03*
X08350Y-05600D03*
X07850Y-06600D03*
G54D21*
X19600Y-06075D03*
X19600Y-06825D03*
G54D22*
X10575Y-13600D03*
X09825Y-13600D03*
X04625Y-01550D03*
X03875Y-01550D03*
G54D23*
X30750Y-04800D03*
X32050Y-04800D03*
G54D22*
X03875Y-02300D03*
X04625Y-02300D03*
G54D24*
X03176Y-03000D03*
X03176Y-03500D03*
X03176Y-04000D03*
X03176Y-04500D03*
X05223Y-04500D03*
X05223Y-04000D03*
X05223Y-03500D03*
X05223Y-03000D03*
G54D25*
X21459Y-04800D03*
X20341Y-04800D03*
X21459Y-03800D03*
X20341Y-03800D03*
X21459Y-02800D03*
X20341Y-02800D03*
X21459Y-01800D03*
X20341Y-01800D03*
G54D14*
X25600Y-01200D03*
G54D26*
X24600Y-01200D03*
G54D14*
X23600Y-01200D03*
G54D25*
X21459Y-00799D03*
X20341Y-00799D03*
G54D22*
X23525Y-02750D03*
X24275Y-02750D03*
X31875Y-03600D03*
X31125Y-03600D03*
X25675Y-02750D03*
X24925Y-02750D03*
G54D15*
X02550Y-07950D03*
X04200Y-07950D03*
X13200Y-08150D03*
X17000Y-11700D03*
X08200Y-12500D03*
X34100Y-13700D03*
G54D27*
X38300Y-18500D03*
X01000Y-18500D03*
X38300Y-01000D03*
X01000Y-01000D03*
G54D22*
X28725Y-07800D03*
X29475Y-07800D03*
G54D15*
X24100Y-17500D03*
X25100Y-17500D03*
X26100Y-17500D03*
X27100Y-17500D03*
X28100Y-17500D03*
X29100Y-17500D03*
X30100Y-17500D03*
X31100Y-17500D03*
X32100Y-17500D03*
X33100Y-17500D03*
X34100Y-17500D03*
X35100Y-17500D03*
X36100Y-17500D03*
G54D16*
X23100Y-17500D03*
G54D15*
X36100Y-14500D03*
X35100Y-14500D03*
X34100Y-14500D03*
X33100Y-14500D03*
X32100Y-14500D03*
X31100Y-14500D03*
X30100Y-14500D03*
X29100Y-14500D03*
X28100Y-14500D03*
X27100Y-14500D03*
X26100Y-14500D03*
X25100Y-14500D03*
X24100Y-14500D03*
X23100Y-14500D03*
X24100Y-11700D03*
X25100Y-11700D03*
X26100Y-11700D03*
X27100Y-11700D03*
X28100Y-11700D03*
X29100Y-11700D03*
X30100Y-11700D03*
X31100Y-11700D03*
X32100Y-11700D03*
X33100Y-11700D03*
X34100Y-11700D03*
X35100Y-11700D03*
X36100Y-11700D03*
G54D16*
X23100Y-11700D03*
G54D15*
X36100Y-08700D03*
X35100Y-08700D03*
X34100Y-08700D03*
X33100Y-08700D03*
X32100Y-08700D03*
X31100Y-08700D03*
X30100Y-08700D03*
X29100Y-08700D03*
X28100Y-08700D03*
X27100Y-08700D03*
X26100Y-08700D03*
X25100Y-08700D03*
X24100Y-08700D03*
X23100Y-08700D03*
X04200Y-17500D03*
X05200Y-17500D03*
X06200Y-17500D03*
X07200Y-17500D03*
X08200Y-17500D03*
X09200Y-17500D03*
X10200Y-17500D03*
X11200Y-17500D03*
X12200Y-17500D03*
X13200Y-17500D03*
X14200Y-17500D03*
X15200Y-17500D03*
X16200Y-17500D03*
G54D16*
X03200Y-17500D03*
G54D15*
X16200Y-14500D03*
X15200Y-14500D03*
X14200Y-14500D03*
X13200Y-14500D03*
X12200Y-14500D03*
X11200Y-14500D03*
X10200Y-14500D03*
X09200Y-14500D03*
X08200Y-14500D03*
X07200Y-14500D03*
X06200Y-14500D03*
X05200Y-14500D03*
X04200Y-14500D03*
X03200Y-14500D03*
G54D28*
X38354Y-21900D03*
X34416Y-21900D03*
X32448Y-21900D03*
X36385Y-21900D03*
G54D29*
X32448Y-22700D03*
X34416Y-22700D03*
X36385Y-22700D03*
X38354Y-22700D03*
G54D28*
X30454Y-21900D03*
X26516Y-21900D03*
X24548Y-21900D03*
X28485Y-21900D03*
G54D29*
X24548Y-22700D03*
X26516Y-22700D03*
X28485Y-22700D03*
X30454Y-22700D03*
G54D28*
X22554Y-21900D03*
X18616Y-21900D03*
X16648Y-21900D03*
X20585Y-21900D03*
G54D29*
X16648Y-22700D03*
X18616Y-22700D03*
X20585Y-22700D03*
X22554Y-22700D03*
G54D28*
X14654Y-21900D03*
X10716Y-21900D03*
X08748Y-21900D03*
X12685Y-21900D03*
G54D29*
X08748Y-22700D03*
X10716Y-22700D03*
X12685Y-22700D03*
X14654Y-22700D03*
G54D28*
X06754Y-21900D03*
X02816Y-21900D03*
X00848Y-21900D03*
X04785Y-21900D03*
G54D29*
X00848Y-22700D03*
X02816Y-22700D03*
X04785Y-22700D03*
X06754Y-22700D03*
G54D30*
X08200Y-15500D03*
X27300Y-16300D03*
X22800Y-05700D03*
X22400Y-05700D03*
X22000Y-05700D03*
X21600Y-05700D03*
X32275Y-15925D03*
X12675Y-12475D03*
X12850Y-06100D03*
X12850Y-07100D03*
X16100Y-07300D03*
X17650Y-14825D03*
X24700Y-10000D03*
X15900Y-15550D03*
X05825Y-04500D03*
X04975Y-02300D03*
X20000Y-01800D03*
X20000Y-00800D03*
X20000Y-02800D03*
X20000Y-03800D03*
X20000Y-04800D03*
X01500Y-08800D03*
X05825Y-03000D03*
G54D31*
X27300Y-16300D02*
X28100Y-15500D01*
X08200Y-15500D02*
X08200Y-14500D01*
X28725Y-07800D02*
X28100Y-08425D01*
X28100Y-14500D02*
X28100Y-15500D01*
X28100Y-08425D02*
X28100Y-08700D01*
X21459Y-01800D02*
X22400Y-01800D01*
X22400Y-01800D02*
X22800Y-02200D01*
X22800Y-02200D02*
X22800Y-05700D01*
X22000Y-02800D02*
X21459Y-02800D01*
X22400Y-03200D02*
X22400Y-05700D01*
X22000Y-02800D02*
X22400Y-03200D01*
X21800Y-03800D02*
X22000Y-04000D01*
X21800Y-03800D02*
X21459Y-03800D01*
X22000Y-04000D02*
X22000Y-05700D01*
X21600Y-05700D02*
X21600Y-04941D01*
X21459Y-04800D02*
X21600Y-04941D01*
X12350Y-04850D02*
X11900Y-05300D01*
X17175Y-04850D02*
X12350Y-04850D01*
X06250Y-04000D02*
X07100Y-04850D01*
X05223Y-04000D02*
X06250Y-04000D01*
X17350Y-06600D02*
X19375Y-06600D01*
X10850Y-05150D02*
X10850Y-06600D01*
X17350Y-06600D02*
X17350Y-05025D01*
X10550Y-04850D02*
X10850Y-05150D01*
X11900Y-06150D02*
X11450Y-06600D01*
X11450Y-06600D02*
X10850Y-06600D01*
X19375Y-06600D02*
X19600Y-06825D01*
X11900Y-05300D02*
X11900Y-06150D01*
X07100Y-04850D02*
X10550Y-04850D01*
X17350Y-05025D02*
X17175Y-04850D01*
X17850Y-05000D02*
X17850Y-05600D01*
X07200Y-04650D02*
X10800Y-04650D01*
X06050Y-03500D02*
X07200Y-04650D01*
X11350Y-05150D02*
X11350Y-05600D01*
X10850Y-04650D02*
X11350Y-05150D01*
X18325Y-06075D02*
X19600Y-06075D01*
X17850Y-05600D02*
X18325Y-06075D01*
X10800Y-04650D02*
X10850Y-04650D01*
X10800Y-04650D02*
X17500Y-04650D01*
X17500Y-04650D02*
X17850Y-05000D01*
X05223Y-03500D02*
X06050Y-03500D01*
X13200Y-13000D02*
X13200Y-14500D01*
X12675Y-12475D02*
X13200Y-13000D01*
X33100Y-15100D02*
X33100Y-14500D01*
X32275Y-15925D02*
X33100Y-15100D01*
X10575Y-13600D02*
X11200Y-14225D01*
X11200Y-14225D02*
X11200Y-14500D01*
X30750Y-04800D02*
X30150Y-05400D01*
X30150Y-05400D02*
X29950Y-05600D01*
X29950Y-05600D02*
X28400Y-05600D01*
X25675Y-01275D02*
X25600Y-01200D01*
X29300Y-01200D02*
X30150Y-02050D01*
X30150Y-02050D02*
X30150Y-05400D01*
X25600Y-01200D02*
X29300Y-01200D01*
X25675Y-02750D02*
X25675Y-01275D01*
X01650Y-02950D02*
X02150Y-02450D01*
X03875Y-01550D02*
X03875Y-01175D01*
X03200Y-09750D02*
X01650Y-08200D01*
X01650Y-08200D02*
X01650Y-02950D01*
X03875Y-01175D02*
X03250Y-00550D01*
X02150Y-02450D02*
X02975Y-02450D01*
X03200Y-11700D02*
X03200Y-09750D01*
X02975Y-02450D02*
X03875Y-01550D01*
X12850Y-06100D02*
X16600Y-06100D01*
X16600Y-06100D02*
X16850Y-05850D01*
X16850Y-05850D02*
X16850Y-05600D01*
X10350Y-07100D02*
X12850Y-07100D01*
X09850Y-06600D02*
X10350Y-07100D01*
X15350Y-06600D02*
X15400Y-06600D01*
X15400Y-06600D02*
X16100Y-07300D01*
X07850Y-06600D02*
X07850Y-07050D01*
X08150Y-07350D02*
X13600Y-07350D01*
X13600Y-07350D02*
X14350Y-06600D01*
X07850Y-07050D02*
X08150Y-07350D01*
X03176Y-03000D02*
X02525Y-03000D01*
X02250Y-03275D02*
X02250Y-06700D01*
X03700Y-11200D02*
X04200Y-11700D01*
X02525Y-03000D02*
X02250Y-03275D01*
X03700Y-08150D02*
X03700Y-11200D01*
X02250Y-06700D02*
X03700Y-08150D01*
X25600Y-07750D02*
X26100Y-08250D01*
X12300Y-08100D02*
X12650Y-07750D01*
X12650Y-07750D02*
X25600Y-07750D01*
X06700Y-08400D02*
X07000Y-08100D01*
X12100Y-08100D02*
X12300Y-08100D01*
X06700Y-13350D02*
X06700Y-08400D01*
X06200Y-14500D02*
X06200Y-13850D01*
X26100Y-08250D02*
X26100Y-08700D01*
X06200Y-13850D02*
X06700Y-13350D01*
X12100Y-08100D02*
X12200Y-08200D01*
X12200Y-08700D02*
X12200Y-08200D01*
X07000Y-08100D02*
X12100Y-08100D01*
X09700Y-12350D02*
X08350Y-13700D01*
X08350Y-13700D02*
X07100Y-13700D01*
X06400Y-15250D02*
X05950Y-15250D01*
X05200Y-15000D02*
X05450Y-15250D01*
X14200Y-08700D02*
X13700Y-09200D01*
X09700Y-10850D02*
X09700Y-12350D01*
X06700Y-14950D02*
X06400Y-15250D01*
X06700Y-14100D02*
X06700Y-14950D01*
X05200Y-14500D02*
X05200Y-15000D01*
X11350Y-09200D02*
X09700Y-10850D01*
X05450Y-15250D02*
X05950Y-15250D01*
X13700Y-09200D02*
X11350Y-09200D01*
X07100Y-13700D02*
X06700Y-14100D01*
X17650Y-14825D02*
X22475Y-10000D01*
X22475Y-10000D02*
X24700Y-10000D01*
X34100Y-14500D02*
X34100Y-13700D01*
X04700Y-11200D02*
X05200Y-11700D01*
X03176Y-04500D02*
X03176Y-06226D01*
X04700Y-07750D02*
X04700Y-11200D01*
X03176Y-06226D02*
X04700Y-07750D01*
X03176Y-04000D02*
X03176Y-03500D01*
X04100Y-06350D02*
X05700Y-07950D01*
X05700Y-11200D02*
X06200Y-11700D01*
X03176Y-03500D02*
X03600Y-03500D01*
X04100Y-04000D02*
X04100Y-06350D01*
X03600Y-03500D02*
X03875Y-03775D01*
X05700Y-07950D02*
X05700Y-11200D01*
X03875Y-03775D02*
X04100Y-04000D01*
X04500Y-06750D02*
X05700Y-07950D01*
X03875Y-02300D02*
X03875Y-03775D01*
X13200Y-12100D02*
X13200Y-11700D01*
X15200Y-14500D02*
X15200Y-14100D01*
X15200Y-14100D02*
X13200Y-12100D01*
X14200Y-11700D02*
X14200Y-11100D01*
X14200Y-11100D02*
X15900Y-09400D01*
X15900Y-09400D02*
X34850Y-09400D01*
X34850Y-09400D02*
X35100Y-09150D01*
X35100Y-09150D02*
X35100Y-08700D01*
X15700Y-12450D02*
X15700Y-15350D01*
X15200Y-11950D02*
X15200Y-11700D01*
X15700Y-12450D02*
X15200Y-11950D01*
X15700Y-15350D02*
X15900Y-15550D01*
X24600Y-09000D02*
X24800Y-09200D01*
X22175Y-08700D02*
X16200Y-08700D01*
X22175Y-08700D02*
X22775Y-08100D01*
X22775Y-08100D02*
X24300Y-08100D01*
X24300Y-08100D02*
X24600Y-08400D01*
X24800Y-09200D02*
X26600Y-09200D01*
X27100Y-08700D02*
X26600Y-09200D01*
X24600Y-08400D02*
X24600Y-09000D01*
X16200Y-11700D02*
X17000Y-11700D01*
X13200Y-08150D02*
X13200Y-08700D01*
X04200Y-07950D02*
X04200Y-08700D01*
X02550Y-08050D02*
X03200Y-08700D01*
X02550Y-07950D02*
X02550Y-08050D01*
X08200Y-11700D02*
X08200Y-12500D01*
X29100Y-14500D02*
X29100Y-15500D01*
X05825Y-04500D02*
X05223Y-04500D01*
X31100Y-03650D02*
X31125Y-03625D01*
X25250Y-16650D02*
X24100Y-15500D01*
X04975Y-02300D02*
X04625Y-02300D01*
X27950Y-16650D02*
X25250Y-16650D01*
X24600Y-02750D02*
X24600Y-01200D01*
X24100Y-15500D02*
X24100Y-14500D01*
X08725Y-15900D02*
X05600Y-15900D01*
X09200Y-15425D02*
X08725Y-15900D01*
X09200Y-14225D02*
X09825Y-13600D01*
X29100Y-15500D02*
X27950Y-16650D01*
X31125Y-03625D02*
X31125Y-03600D01*
X24275Y-02750D02*
X24600Y-02750D01*
X31125Y-03600D02*
X31125Y-02075D01*
X31125Y-02075D02*
X32000Y-01200D01*
X05600Y-15900D02*
X04200Y-14500D01*
X24600Y-02750D02*
X24925Y-02750D01*
X09200Y-14500D02*
X09200Y-14225D01*
X09200Y-14500D02*
X09200Y-15425D01*
G54D32*
X09200Y-17500D02*
X06754Y-19946D01*
X06754Y-19946D02*
X06754Y-21900D01*
X09200Y-17500D02*
X11200Y-17500D01*
X10200Y-17500D02*
X09200Y-17500D01*
X24100Y-11700D02*
X25100Y-11700D01*
X23100Y-11700D02*
X25100Y-11700D01*
X22500Y-11700D02*
X17750Y-16450D01*
X17750Y-16450D02*
X17750Y-18804D01*
X23100Y-11700D02*
X22500Y-11700D01*
X17750Y-18804D02*
X14654Y-21900D01*
X33100Y-11700D02*
X34100Y-11700D01*
X22650Y-13200D02*
X21200Y-14650D01*
X30600Y-13200D02*
X22650Y-13200D01*
X21200Y-20546D02*
X22554Y-21900D01*
X34100Y-11700D02*
X32100Y-11700D01*
X21200Y-14650D02*
X21200Y-20546D01*
X32100Y-11700D02*
X30600Y-13200D01*
X26100Y-17500D02*
X28100Y-17500D01*
X28100Y-17500D02*
X30454Y-19854D01*
X30454Y-19854D02*
X30454Y-21900D01*
X27100Y-17500D02*
X28100Y-17500D01*
X36100Y-17500D02*
X36100Y-18200D01*
X36100Y-17500D02*
X36100Y-14500D01*
X36100Y-18200D02*
X38354Y-20454D01*
X35100Y-17500D02*
X36100Y-17500D01*
X38354Y-20454D02*
X38354Y-21900D01*
X06200Y-17500D02*
X04785Y-18915D01*
X04785Y-18915D02*
X04785Y-21900D01*
X07200Y-17500D02*
X08200Y-17500D01*
X06200Y-17500D02*
X08200Y-17500D01*
X15200Y-17500D02*
X16200Y-17500D01*
X15200Y-17500D02*
X12685Y-20015D01*
X12685Y-20015D02*
X12685Y-21900D01*
X16200Y-17500D02*
X16200Y-14500D01*
X29100Y-11700D02*
X30100Y-11700D01*
X20685Y-14615D02*
X20685Y-21900D01*
X29100Y-11700D02*
X28000Y-12800D01*
X22500Y-12800D02*
X20685Y-14615D01*
X29100Y-11700D02*
X31100Y-11700D01*
X28000Y-12800D02*
X22500Y-12800D01*
X28485Y-20885D02*
X28485Y-21900D01*
X23100Y-17500D02*
X25100Y-17500D01*
X25100Y-17500D02*
X28485Y-20885D01*
X24100Y-17500D02*
X25100Y-17500D01*
X32100Y-17500D02*
X34100Y-17500D01*
X33100Y-17500D02*
X34100Y-17500D01*
X36385Y-19785D02*
X36385Y-21900D01*
X34100Y-17500D02*
X36385Y-19785D01*
X04200Y-17500D02*
X05200Y-17500D01*
X03200Y-17500D02*
X02816Y-17884D01*
X02816Y-17884D02*
X02816Y-21900D01*
X03200Y-17500D02*
X05200Y-17500D01*
X12200Y-17500D02*
X14200Y-17500D01*
X12200Y-17500D02*
X10716Y-18984D01*
X14200Y-17500D02*
X13200Y-17500D01*
X10716Y-18984D02*
X10716Y-21900D01*
X27100Y-11700D02*
X28100Y-11700D01*
X26100Y-11700D02*
X25400Y-12400D01*
X26100Y-11700D02*
X28100Y-11700D01*
X18616Y-16134D02*
X18616Y-21900D01*
X25400Y-12400D02*
X22350Y-12400D01*
X22350Y-12400D02*
X18616Y-16134D01*
X21700Y-19300D02*
X22900Y-20500D01*
X22900Y-20500D02*
X26000Y-20500D01*
X33200Y-13600D02*
X22800Y-13600D01*
X26516Y-21016D02*
X26516Y-21900D01*
X22800Y-13600D02*
X21700Y-14700D01*
X26000Y-20500D02*
X26516Y-21016D01*
X36100Y-11700D02*
X35100Y-11700D01*
X35100Y-11700D02*
X33200Y-13600D01*
X36100Y-08700D02*
X36100Y-11700D01*
X21700Y-14700D02*
X21700Y-19300D01*
X29100Y-17500D02*
X31100Y-17500D01*
X30100Y-17500D02*
X29100Y-17500D01*
X34416Y-20816D02*
X34416Y-21900D01*
X31100Y-17500D02*
X34416Y-20816D01*
G54D31*
X20341Y-01800D02*
X20000Y-01800D01*
X20001Y-00799D02*
X20000Y-00800D01*
X20341Y-00799D02*
X20001Y-00799D01*
X20341Y-02800D02*
X20000Y-02800D01*
X20341Y-03800D02*
X20000Y-03800D01*
X20341Y-04800D02*
X20000Y-04800D01*
G54D33*
X00848Y-21900D02*
X00848Y-22700D01*
X31875Y-03600D02*
X32050Y-03775D01*
X32050Y-02250D02*
X32050Y-04800D01*
X32000Y-02200D02*
X32050Y-02250D01*
X32448Y-21900D02*
X32448Y-22700D01*
X16648Y-21900D02*
X16648Y-22700D01*
X24548Y-21900D02*
X24548Y-22700D01*
X32850Y-05600D02*
X35500Y-05600D01*
X32050Y-03775D02*
X32050Y-04800D01*
X08748Y-21900D02*
X08748Y-22700D01*
X32050Y-04800D02*
X32850Y-05600D01*
G54D31*
X12200Y-14500D02*
X12200Y-14950D01*
X12200Y-14950D02*
X11900Y-15250D01*
X11900Y-15250D02*
X09850Y-15250D01*
X04625Y-01550D02*
X04800Y-01550D01*
X10200Y-14900D02*
X09850Y-15250D01*
X26850Y-07100D02*
X28775Y-07100D01*
X26850Y-07100D02*
X26150Y-07100D01*
X10200Y-14500D02*
X10200Y-14900D01*
X23600Y-01200D02*
X23199Y-00799D01*
X09850Y-15250D02*
X08950Y-16150D01*
X05300Y-02050D02*
X04800Y-01550D01*
X01500Y-14050D02*
X01500Y-08800D01*
X05223Y-03000D02*
X05300Y-02923D01*
X03600Y-16150D02*
X01500Y-14050D01*
X08950Y-16150D02*
X03600Y-16150D01*
X05825Y-03000D02*
X05223Y-03000D01*
X29200Y-07100D02*
X29475Y-07375D01*
X23600Y-01200D02*
X23525Y-01275D01*
X26150Y-07100D02*
X23525Y-04475D01*
X07300Y-01300D02*
X05825Y-02775D01*
X23525Y-01275D02*
X23525Y-02750D01*
X21459Y-01091D02*
X21250Y-01300D01*
X21459Y-00799D02*
X21459Y-01091D01*
X10200Y-08700D02*
X09200Y-09700D01*
X29475Y-07800D02*
X30100Y-08425D01*
X21250Y-01300D02*
X07300Y-01300D01*
X04900Y-03000D02*
X05223Y-03000D01*
X05825Y-02775D02*
X05825Y-03000D01*
X29475Y-07375D02*
X29475Y-07800D01*
X05300Y-02923D02*
X05300Y-02050D01*
X28775Y-07100D02*
X29200Y-07100D01*
X23525Y-02750D02*
X23525Y-04475D01*
X30100Y-08425D02*
X30100Y-08700D01*
X09200Y-09700D02*
X09200Y-11700D01*
X23199Y-00799D02*
X21459Y-00799D01*
M02*
