G04 (created by PCBNEW-RS274X (2011-07-08)-stable) date Fri 25 Nov 2011 09:09:20 PM EST*
G01*
G70*
G90*
%MOIN*%
G04 Gerber Fmt 3.4, Leading zero omitted, Abs format*
%FSLAX34Y34*%
G04 APERTURE LIST*
%ADD10C,0.006000*%
%ADD11C,0.006300*%
%ADD12C,0.007500*%
%ADD13C,0.008800*%
%ADD14C,0.008000*%
%ADD15C,0.005000*%
%ADD16C,0.002600*%
%ADD17C,0.004000*%
%ADD18C,0.012000*%
G04 APERTURE END LIST*
G54D10*
G54D11*
X31720Y-19796D02*
X31708Y-19785D01*
X31684Y-19749D01*
X31672Y-19725D01*
X31660Y-19689D01*
X31649Y-19630D01*
X31649Y-19582D01*
X31660Y-19523D01*
X31672Y-19487D01*
X31684Y-19463D01*
X31708Y-19427D01*
X31720Y-19415D01*
X31958Y-19677D02*
X31946Y-19689D01*
X31911Y-19701D01*
X31887Y-19701D01*
X31851Y-19689D01*
X31827Y-19665D01*
X31816Y-19642D01*
X31804Y-19594D01*
X31804Y-19558D01*
X31816Y-19511D01*
X31827Y-19487D01*
X31851Y-19463D01*
X31887Y-19451D01*
X31911Y-19451D01*
X31946Y-19463D01*
X31958Y-19475D01*
X32054Y-19475D02*
X32066Y-19463D01*
X32089Y-19451D01*
X32149Y-19451D01*
X32173Y-19463D01*
X32185Y-19475D01*
X32196Y-19499D01*
X32196Y-19523D01*
X32185Y-19558D01*
X32042Y-19701D01*
X32196Y-19701D01*
X32280Y-19796D02*
X32292Y-19785D01*
X32315Y-19749D01*
X32327Y-19725D01*
X32339Y-19689D01*
X32351Y-19630D01*
X32351Y-19582D01*
X32339Y-19523D01*
X32327Y-19487D01*
X32315Y-19463D01*
X32292Y-19427D01*
X32280Y-19415D01*
X30920Y-19796D02*
X30908Y-19785D01*
X30884Y-19749D01*
X30872Y-19725D01*
X30860Y-19689D01*
X30849Y-19630D01*
X30849Y-19582D01*
X30860Y-19523D01*
X30872Y-19487D01*
X30884Y-19463D01*
X30908Y-19427D01*
X30920Y-19415D01*
X31158Y-19677D02*
X31146Y-19689D01*
X31111Y-19701D01*
X31087Y-19701D01*
X31051Y-19689D01*
X31027Y-19665D01*
X31016Y-19642D01*
X31004Y-19594D01*
X31004Y-19558D01*
X31016Y-19511D01*
X31027Y-19487D01*
X31051Y-19463D01*
X31087Y-19451D01*
X31111Y-19451D01*
X31146Y-19463D01*
X31158Y-19475D01*
X31396Y-19701D02*
X31254Y-19701D01*
X31325Y-19701D02*
X31325Y-19451D01*
X31301Y-19487D01*
X31277Y-19511D01*
X31254Y-19523D01*
X31480Y-19796D02*
X31492Y-19785D01*
X31515Y-19749D01*
X31527Y-19725D01*
X31539Y-19689D01*
X31551Y-19630D01*
X31551Y-19582D01*
X31539Y-19523D01*
X31527Y-19487D01*
X31515Y-19463D01*
X31492Y-19427D01*
X31480Y-19415D01*
X30870Y-18546D02*
X30858Y-18535D01*
X30834Y-18499D01*
X30822Y-18475D01*
X30810Y-18439D01*
X30799Y-18380D01*
X30799Y-18332D01*
X30810Y-18273D01*
X30822Y-18237D01*
X30834Y-18213D01*
X30858Y-18177D01*
X30870Y-18165D01*
X31108Y-18427D02*
X31096Y-18439D01*
X31061Y-18451D01*
X31037Y-18451D01*
X31001Y-18439D01*
X30977Y-18415D01*
X30966Y-18392D01*
X30954Y-18344D01*
X30954Y-18308D01*
X30966Y-18261D01*
X30977Y-18237D01*
X31001Y-18213D01*
X31037Y-18201D01*
X31061Y-18201D01*
X31096Y-18213D01*
X31108Y-18225D01*
X31323Y-18285D02*
X31323Y-18451D01*
X31263Y-18189D02*
X31204Y-18368D01*
X31358Y-18368D01*
X31430Y-18546D02*
X31442Y-18535D01*
X31465Y-18499D01*
X31477Y-18475D01*
X31489Y-18439D01*
X31501Y-18380D01*
X31501Y-18332D01*
X31489Y-18273D01*
X31477Y-18237D01*
X31465Y-18213D01*
X31442Y-18177D01*
X31430Y-18165D01*
X31120Y-15246D02*
X31108Y-15235D01*
X31084Y-15199D01*
X31072Y-15175D01*
X31060Y-15139D01*
X31049Y-15080D01*
X31049Y-15032D01*
X31060Y-14973D01*
X31072Y-14937D01*
X31084Y-14913D01*
X31108Y-14877D01*
X31120Y-14865D01*
X31358Y-15151D02*
X31275Y-15032D01*
X31216Y-15151D02*
X31216Y-14901D01*
X31311Y-14901D01*
X31335Y-14913D01*
X31346Y-14925D01*
X31358Y-14949D01*
X31358Y-14985D01*
X31346Y-15008D01*
X31335Y-15020D01*
X31311Y-15032D01*
X31216Y-15032D01*
X31596Y-15151D02*
X31454Y-15151D01*
X31525Y-15151D02*
X31525Y-14901D01*
X31501Y-14937D01*
X31477Y-14961D01*
X31454Y-14973D01*
X31680Y-15246D02*
X31692Y-15235D01*
X31715Y-15199D01*
X31727Y-15175D01*
X31739Y-15139D01*
X31751Y-15080D01*
X31751Y-15032D01*
X31739Y-14973D01*
X31727Y-14937D01*
X31715Y-14913D01*
X31692Y-14877D01*
X31680Y-14865D01*
X34014Y-16696D02*
X34002Y-16685D01*
X33978Y-16649D01*
X33966Y-16625D01*
X33954Y-16589D01*
X33943Y-16530D01*
X33943Y-16482D01*
X33954Y-16423D01*
X33966Y-16387D01*
X33978Y-16363D01*
X34002Y-16327D01*
X34014Y-16315D01*
X34110Y-16351D02*
X34110Y-16554D01*
X34121Y-16577D01*
X34133Y-16589D01*
X34157Y-16601D01*
X34205Y-16601D01*
X34229Y-16589D01*
X34240Y-16577D01*
X34252Y-16554D01*
X34252Y-16351D01*
X34360Y-16375D02*
X34372Y-16363D01*
X34395Y-16351D01*
X34455Y-16351D01*
X34479Y-16363D01*
X34491Y-16375D01*
X34502Y-16399D01*
X34502Y-16423D01*
X34491Y-16458D01*
X34348Y-16601D01*
X34502Y-16601D01*
X34586Y-16696D02*
X34598Y-16685D01*
X34621Y-16649D01*
X34633Y-16625D01*
X34645Y-16589D01*
X34657Y-16530D01*
X34657Y-16482D01*
X34645Y-16423D01*
X34633Y-16387D01*
X34621Y-16363D01*
X34598Y-16327D01*
X34586Y-16315D01*
X34420Y-18746D02*
X34408Y-18735D01*
X34384Y-18699D01*
X34372Y-18675D01*
X34360Y-18639D01*
X34349Y-18580D01*
X34349Y-18532D01*
X34360Y-18473D01*
X34372Y-18437D01*
X34384Y-18413D01*
X34408Y-18377D01*
X34420Y-18365D01*
X34658Y-18627D02*
X34646Y-18639D01*
X34611Y-18651D01*
X34587Y-18651D01*
X34551Y-18639D01*
X34527Y-18615D01*
X34516Y-18592D01*
X34504Y-18544D01*
X34504Y-18508D01*
X34516Y-18461D01*
X34527Y-18437D01*
X34551Y-18413D01*
X34587Y-18401D01*
X34611Y-18401D01*
X34646Y-18413D01*
X34658Y-18425D01*
X34742Y-18401D02*
X34896Y-18401D01*
X34813Y-18496D01*
X34849Y-18496D01*
X34873Y-18508D01*
X34885Y-18520D01*
X34896Y-18544D01*
X34896Y-18604D01*
X34885Y-18627D01*
X34873Y-18639D01*
X34849Y-18651D01*
X34777Y-18651D01*
X34754Y-18639D01*
X34742Y-18627D01*
X34980Y-18746D02*
X34992Y-18735D01*
X35015Y-18699D01*
X35027Y-18675D01*
X35039Y-18639D01*
X35051Y-18580D01*
X35051Y-18532D01*
X35039Y-18473D01*
X35027Y-18437D01*
X35015Y-18413D01*
X34992Y-18377D01*
X34980Y-18365D01*
X37496Y-19980D02*
X37485Y-19992D01*
X37449Y-20016D01*
X37425Y-20028D01*
X37389Y-20040D01*
X37330Y-20051D01*
X37282Y-20051D01*
X37223Y-20040D01*
X37187Y-20028D01*
X37163Y-20016D01*
X37127Y-19992D01*
X37115Y-19980D01*
X37401Y-19742D02*
X37282Y-19825D01*
X37401Y-19884D02*
X37151Y-19884D01*
X37151Y-19789D01*
X37163Y-19765D01*
X37175Y-19754D01*
X37199Y-19742D01*
X37235Y-19742D01*
X37258Y-19754D01*
X37270Y-19765D01*
X37282Y-19789D01*
X37282Y-19884D01*
X37151Y-19658D02*
X37151Y-19504D01*
X37246Y-19587D01*
X37246Y-19551D01*
X37258Y-19527D01*
X37270Y-19515D01*
X37294Y-19504D01*
X37354Y-19504D01*
X37377Y-19515D01*
X37389Y-19527D01*
X37401Y-19551D01*
X37401Y-19623D01*
X37389Y-19646D01*
X37377Y-19658D01*
X37496Y-19420D02*
X37485Y-19408D01*
X37449Y-19385D01*
X37425Y-19373D01*
X37389Y-19361D01*
X37330Y-19349D01*
X37282Y-19349D01*
X37223Y-19361D01*
X37187Y-19373D01*
X37163Y-19385D01*
X37127Y-19408D01*
X37115Y-19420D01*
X37496Y-17980D02*
X37485Y-17992D01*
X37449Y-18016D01*
X37425Y-18028D01*
X37389Y-18040D01*
X37330Y-18051D01*
X37282Y-18051D01*
X37223Y-18040D01*
X37187Y-18028D01*
X37163Y-18016D01*
X37127Y-17992D01*
X37115Y-17980D01*
X37401Y-17742D02*
X37282Y-17825D01*
X37401Y-17884D02*
X37151Y-17884D01*
X37151Y-17789D01*
X37163Y-17765D01*
X37175Y-17754D01*
X37199Y-17742D01*
X37235Y-17742D01*
X37258Y-17754D01*
X37270Y-17765D01*
X37282Y-17789D01*
X37282Y-17884D01*
X37175Y-17646D02*
X37163Y-17634D01*
X37151Y-17611D01*
X37151Y-17551D01*
X37163Y-17527D01*
X37175Y-17515D01*
X37199Y-17504D01*
X37223Y-17504D01*
X37258Y-17515D01*
X37401Y-17658D01*
X37401Y-17504D01*
X37496Y-17420D02*
X37485Y-17408D01*
X37449Y-17385D01*
X37425Y-17373D01*
X37389Y-17361D01*
X37330Y-17349D01*
X37282Y-17349D01*
X37223Y-17361D01*
X37187Y-17373D01*
X37163Y-17385D01*
X37127Y-17408D01*
X37115Y-17420D01*
X36420Y-15996D02*
X36408Y-15985D01*
X36384Y-15949D01*
X36372Y-15925D01*
X36360Y-15889D01*
X36349Y-15830D01*
X36349Y-15782D01*
X36360Y-15723D01*
X36372Y-15687D01*
X36384Y-15663D01*
X36408Y-15627D01*
X36420Y-15615D01*
X36658Y-15901D02*
X36575Y-15782D01*
X36516Y-15901D02*
X36516Y-15651D01*
X36611Y-15651D01*
X36635Y-15663D01*
X36646Y-15675D01*
X36658Y-15699D01*
X36658Y-15735D01*
X36646Y-15758D01*
X36635Y-15770D01*
X36611Y-15782D01*
X36516Y-15782D01*
X36873Y-15735D02*
X36873Y-15901D01*
X36813Y-15639D02*
X36754Y-15818D01*
X36908Y-15818D01*
X36980Y-15996D02*
X36992Y-15985D01*
X37015Y-15949D01*
X37027Y-15925D01*
X37039Y-15889D01*
X37051Y-15830D01*
X37051Y-15782D01*
X37039Y-15723D01*
X37027Y-15687D01*
X37015Y-15663D01*
X36992Y-15627D01*
X36980Y-15615D01*
X30709Y-20013D02*
X30686Y-20001D01*
X30650Y-20001D01*
X30614Y-20013D01*
X30590Y-20037D01*
X30579Y-20061D01*
X30567Y-20108D01*
X30567Y-20144D01*
X30579Y-20192D01*
X30590Y-20215D01*
X30614Y-20239D01*
X30650Y-20251D01*
X30674Y-20251D01*
X30709Y-20239D01*
X30721Y-20227D01*
X30721Y-20144D01*
X30674Y-20144D01*
X30829Y-20251D02*
X30829Y-20001D01*
X30971Y-20251D01*
X30971Y-20001D01*
X31091Y-20251D02*
X31091Y-20001D01*
X31150Y-20001D01*
X31186Y-20013D01*
X31210Y-20037D01*
X31221Y-20061D01*
X31233Y-20108D01*
X31233Y-20144D01*
X31221Y-20192D01*
X31210Y-20215D01*
X31186Y-20239D01*
X31150Y-20251D01*
X31091Y-20251D01*
X31667Y-20001D02*
X31750Y-20251D01*
X31833Y-20001D01*
X32059Y-20227D02*
X32047Y-20239D01*
X32012Y-20251D01*
X31988Y-20251D01*
X31952Y-20239D01*
X31928Y-20215D01*
X31917Y-20192D01*
X31905Y-20144D01*
X31905Y-20108D01*
X31917Y-20061D01*
X31928Y-20037D01*
X31952Y-20013D01*
X31988Y-20001D01*
X32012Y-20001D01*
X32047Y-20013D01*
X32059Y-20025D01*
X32309Y-20227D02*
X32297Y-20239D01*
X32262Y-20251D01*
X32238Y-20251D01*
X32202Y-20239D01*
X32178Y-20215D01*
X32167Y-20192D01*
X32155Y-20144D01*
X32155Y-20108D01*
X32167Y-20061D01*
X32178Y-20037D01*
X32202Y-20013D01*
X32238Y-20001D01*
X32262Y-20001D01*
X32297Y-20013D01*
X32309Y-20025D01*
X31826Y-17051D02*
X31743Y-16932D01*
X31684Y-17051D02*
X31684Y-16801D01*
X31779Y-16801D01*
X31803Y-16813D01*
X31814Y-16825D01*
X31826Y-16849D01*
X31826Y-16885D01*
X31814Y-16908D01*
X31803Y-16920D01*
X31779Y-16932D01*
X31684Y-16932D01*
X31910Y-17051D02*
X32041Y-16885D01*
X31910Y-16885D02*
X32041Y-17051D01*
X31678Y-16451D02*
X31821Y-16451D01*
X31749Y-16701D02*
X31749Y-16451D01*
X31880Y-16701D02*
X32011Y-16535D01*
X31880Y-16535D02*
X32011Y-16701D01*
G54D12*
X32514Y-20721D02*
X32514Y-20936D01*
X32500Y-20979D01*
X32471Y-21007D01*
X32428Y-21021D01*
X32400Y-21021D01*
X32629Y-20721D02*
X32700Y-21021D01*
X32757Y-20807D01*
X32815Y-21021D01*
X32886Y-20721D01*
X33172Y-20993D02*
X33158Y-21007D01*
X33115Y-21021D01*
X33086Y-21021D01*
X33043Y-21007D01*
X33015Y-20979D01*
X33000Y-20950D01*
X32986Y-20893D01*
X32986Y-20850D01*
X33000Y-20793D01*
X33015Y-20764D01*
X33043Y-20736D01*
X33086Y-20721D01*
X33115Y-20721D01*
X33158Y-20736D01*
X33172Y-20750D01*
X33529Y-20993D02*
X33544Y-21007D01*
X33529Y-21021D01*
X33515Y-21007D01*
X33529Y-20993D01*
X33529Y-21021D01*
X33529Y-20836D02*
X33544Y-20850D01*
X33529Y-20864D01*
X33515Y-20850D01*
X33529Y-20836D01*
X33529Y-20864D01*
X33672Y-20993D02*
X33687Y-21007D01*
X33672Y-21021D01*
X33658Y-21007D01*
X33672Y-20993D01*
X33672Y-21021D01*
X33672Y-20836D02*
X33687Y-20850D01*
X33672Y-20864D01*
X33658Y-20850D01*
X33672Y-20836D01*
X33672Y-20864D01*
X34044Y-20821D02*
X34044Y-21079D01*
X34030Y-21107D01*
X34002Y-21121D01*
X33987Y-21121D01*
X34044Y-20721D02*
X34030Y-20736D01*
X34044Y-20750D01*
X34059Y-20736D01*
X34044Y-20721D01*
X34044Y-20750D01*
X34159Y-20821D02*
X34216Y-21021D01*
X34273Y-20879D01*
X34330Y-21021D01*
X34387Y-20821D01*
X34630Y-21007D02*
X34601Y-21021D01*
X34544Y-21021D01*
X34516Y-21007D01*
X34501Y-20993D01*
X34487Y-20964D01*
X34487Y-20879D01*
X34501Y-20850D01*
X34516Y-20836D01*
X34544Y-20821D01*
X34601Y-20821D01*
X34630Y-20836D01*
X34730Y-21021D02*
X34887Y-20821D01*
X34730Y-20821D02*
X34887Y-21021D01*
X34973Y-20821D02*
X35130Y-20821D01*
X34973Y-21021D01*
X35130Y-21021D01*
X35244Y-20993D02*
X35259Y-21007D01*
X35244Y-21021D01*
X35230Y-21007D01*
X35244Y-20993D01*
X35244Y-21021D01*
X35516Y-21007D02*
X35487Y-21021D01*
X35430Y-21021D01*
X35402Y-21007D01*
X35387Y-20993D01*
X35373Y-20964D01*
X35373Y-20879D01*
X35387Y-20850D01*
X35402Y-20836D01*
X35430Y-20821D01*
X35487Y-20821D01*
X35516Y-20836D01*
X35687Y-21021D02*
X35659Y-21007D01*
X35644Y-20993D01*
X35630Y-20964D01*
X35630Y-20879D01*
X35644Y-20850D01*
X35659Y-20836D01*
X35687Y-20821D01*
X35730Y-20821D01*
X35759Y-20836D01*
X35773Y-20850D01*
X35787Y-20879D01*
X35787Y-20964D01*
X35773Y-20993D01*
X35759Y-21007D01*
X35730Y-21021D01*
X35687Y-21021D01*
X35915Y-21021D02*
X35915Y-20821D01*
X35915Y-20850D02*
X35930Y-20836D01*
X35958Y-20821D01*
X36001Y-20821D01*
X36030Y-20836D01*
X36044Y-20864D01*
X36044Y-21021D01*
X36044Y-20864D02*
X36058Y-20836D01*
X36087Y-20821D01*
X36130Y-20821D01*
X36158Y-20836D01*
X36173Y-20864D01*
X36173Y-21021D01*
G54D13*
X32426Y-20242D02*
X32426Y-20525D01*
X32443Y-20558D01*
X32460Y-20575D01*
X32493Y-20592D01*
X32560Y-20592D01*
X32593Y-20575D01*
X32610Y-20558D01*
X32626Y-20525D01*
X32626Y-20242D01*
X32777Y-20575D02*
X32827Y-20592D01*
X32910Y-20592D01*
X32943Y-20575D01*
X32960Y-20558D01*
X32977Y-20525D01*
X32977Y-20492D01*
X32960Y-20458D01*
X32943Y-20442D01*
X32910Y-20425D01*
X32843Y-20408D01*
X32810Y-20392D01*
X32793Y-20375D01*
X32777Y-20342D01*
X32777Y-20308D01*
X32793Y-20275D01*
X32810Y-20258D01*
X32843Y-20242D01*
X32927Y-20242D01*
X32977Y-20258D01*
X33243Y-20408D02*
X33293Y-20425D01*
X33310Y-20442D01*
X33326Y-20475D01*
X33326Y-20525D01*
X33310Y-20558D01*
X33293Y-20575D01*
X33260Y-20592D01*
X33126Y-20592D01*
X33126Y-20242D01*
X33243Y-20242D01*
X33276Y-20258D01*
X33293Y-20275D01*
X33310Y-20308D01*
X33310Y-20342D01*
X33293Y-20375D01*
X33276Y-20392D01*
X33243Y-20408D01*
X33126Y-20408D01*
X33460Y-20275D02*
X33476Y-20258D01*
X33510Y-20242D01*
X33593Y-20242D01*
X33626Y-20258D01*
X33643Y-20275D01*
X33660Y-20308D01*
X33660Y-20342D01*
X33643Y-20392D01*
X33443Y-20592D01*
X33660Y-20592D01*
X33776Y-20242D02*
X33993Y-20242D01*
X33876Y-20375D01*
X33926Y-20375D01*
X33959Y-20392D01*
X33976Y-20408D01*
X33993Y-20442D01*
X33993Y-20525D01*
X33976Y-20558D01*
X33959Y-20575D01*
X33926Y-20592D01*
X33826Y-20592D01*
X33793Y-20575D01*
X33776Y-20558D01*
X34126Y-20275D02*
X34142Y-20258D01*
X34176Y-20242D01*
X34259Y-20242D01*
X34292Y-20258D01*
X34309Y-20275D01*
X34326Y-20308D01*
X34326Y-20342D01*
X34309Y-20392D01*
X34109Y-20592D01*
X34326Y-20592D01*
X34475Y-20458D02*
X34742Y-20458D01*
X34908Y-20358D02*
X35175Y-20458D01*
X34908Y-20558D01*
X35491Y-20358D02*
X35491Y-20592D01*
X35408Y-20225D02*
X35325Y-20475D01*
X35541Y-20475D01*
X35724Y-20392D02*
X35691Y-20375D01*
X35674Y-20358D01*
X35658Y-20325D01*
X35658Y-20308D01*
X35674Y-20275D01*
X35691Y-20258D01*
X35724Y-20242D01*
X35791Y-20242D01*
X35824Y-20258D01*
X35841Y-20275D01*
X35858Y-20308D01*
X35858Y-20325D01*
X35841Y-20358D01*
X35824Y-20375D01*
X35791Y-20392D01*
X35724Y-20392D01*
X35691Y-20408D01*
X35674Y-20425D01*
X35658Y-20458D01*
X35658Y-20525D01*
X35674Y-20558D01*
X35691Y-20575D01*
X35724Y-20592D01*
X35791Y-20592D01*
X35824Y-20575D01*
X35841Y-20558D01*
X35858Y-20525D01*
X35858Y-20458D01*
X35841Y-20425D01*
X35824Y-20408D01*
X35791Y-20392D01*
X36174Y-20242D02*
X36007Y-20242D01*
X35991Y-20408D01*
X36007Y-20392D01*
X36041Y-20375D01*
X36124Y-20375D01*
X36157Y-20392D01*
X36174Y-20408D01*
X36191Y-20442D01*
X36191Y-20525D01*
X36174Y-20558D01*
X36157Y-20575D01*
X36124Y-20592D01*
X36041Y-20592D01*
X36007Y-20575D01*
X35991Y-20558D01*
G54D14*
X22393Y-15638D02*
X22393Y-20362D01*
X28298Y-15638D02*
X28298Y-20362D01*
X28219Y-15638D02*
X22393Y-15638D01*
X28219Y-20362D02*
X22393Y-20362D01*
X28219Y-15638D02*
X28613Y-15638D01*
X28219Y-20362D02*
X28613Y-20362D01*
X29675Y-19574D02*
X29675Y-16426D01*
X24086Y-16308D02*
X24086Y-17252D01*
X24086Y-17252D02*
X24991Y-17252D01*
X24991Y-17252D02*
X24991Y-16308D01*
X24991Y-16308D02*
X24086Y-16308D01*
X24086Y-18748D02*
X24086Y-19692D01*
X24086Y-19692D02*
X24991Y-19692D01*
X24991Y-19692D02*
X24991Y-18748D01*
X24991Y-18748D02*
X24086Y-18748D01*
G54D15*
X33491Y-16100D02*
X33488Y-16127D01*
X33480Y-16153D01*
X33467Y-16178D01*
X33450Y-16199D01*
X33428Y-16216D01*
X33404Y-16229D01*
X33378Y-16238D01*
X33350Y-16240D01*
X33324Y-16238D01*
X33298Y-16230D01*
X33273Y-16217D01*
X33252Y-16200D01*
X33234Y-16179D01*
X33221Y-16155D01*
X33213Y-16129D01*
X33210Y-16101D01*
X33212Y-16075D01*
X33219Y-16049D01*
X33232Y-16024D01*
X33249Y-16003D01*
X33270Y-15985D01*
X33294Y-15971D01*
X33320Y-15963D01*
X33348Y-15960D01*
X33374Y-15962D01*
X33400Y-15969D01*
X33425Y-15981D01*
X33447Y-15998D01*
X33465Y-16019D01*
X33478Y-16043D01*
X33487Y-16069D01*
X33490Y-16097D01*
X33491Y-16100D01*
X34450Y-15900D02*
X34450Y-16200D01*
X34450Y-16200D02*
X33950Y-16200D01*
X33950Y-16200D02*
X33950Y-15900D01*
X33150Y-19950D02*
X33150Y-15900D01*
X35250Y-15900D02*
X35250Y-19950D01*
X35250Y-15900D02*
X33150Y-15900D01*
X35250Y-19950D02*
X33150Y-19950D01*
X31850Y-19600D02*
X30950Y-19600D01*
X30950Y-19600D02*
X30950Y-19100D01*
X30950Y-19100D02*
X31850Y-19100D01*
X31850Y-19100D02*
X31850Y-19600D01*
X37600Y-22600D02*
X43600Y-22600D01*
X43600Y-22600D02*
X43600Y-15500D01*
X43600Y-15500D02*
X37600Y-15500D01*
X37600Y-15500D02*
X37600Y-22600D01*
X44100Y-22600D02*
X50100Y-22600D01*
X50100Y-22600D02*
X50100Y-15500D01*
X50100Y-15500D02*
X44100Y-15500D01*
X44100Y-15500D02*
X44100Y-22600D01*
G54D16*
X36739Y-19739D02*
X36739Y-19661D01*
X36739Y-19661D02*
X36661Y-19661D01*
X36661Y-19739D02*
X36661Y-19661D01*
X36739Y-19739D02*
X36661Y-19739D01*
X36975Y-19523D02*
X36975Y-19386D01*
X36975Y-19386D02*
X36877Y-19386D01*
X36877Y-19523D02*
X36877Y-19386D01*
X36975Y-19523D02*
X36877Y-19523D01*
X36975Y-19386D02*
X36975Y-19346D01*
X36975Y-19346D02*
X36504Y-19346D01*
X36504Y-19386D02*
X36504Y-19346D01*
X36975Y-19386D02*
X36504Y-19386D01*
X36484Y-19386D02*
X36484Y-19346D01*
X36484Y-19346D02*
X36425Y-19346D01*
X36425Y-19386D02*
X36425Y-19346D01*
X36484Y-19386D02*
X36425Y-19386D01*
X36975Y-20054D02*
X36975Y-20014D01*
X36975Y-20014D02*
X36504Y-20014D01*
X36504Y-20054D02*
X36504Y-20014D01*
X36975Y-20054D02*
X36504Y-20054D01*
X36484Y-20054D02*
X36484Y-20014D01*
X36484Y-20014D02*
X36425Y-20014D01*
X36425Y-20054D02*
X36425Y-20014D01*
X36484Y-20054D02*
X36425Y-20054D01*
X36975Y-19523D02*
X36975Y-19464D01*
X36975Y-19464D02*
X36877Y-19464D01*
X36877Y-19523D02*
X36877Y-19464D01*
X36975Y-19523D02*
X36877Y-19523D01*
G54D17*
X36995Y-19090D02*
X36995Y-20310D01*
X36995Y-20310D02*
X36405Y-20310D01*
X36405Y-20310D02*
X36405Y-19090D01*
X36405Y-19090D02*
X36995Y-19090D01*
X36896Y-19914D02*
X36914Y-19896D01*
X36930Y-19877D01*
X36945Y-19856D01*
X36957Y-19834D01*
X36968Y-19811D01*
X36977Y-19787D01*
X36983Y-19763D01*
X36988Y-19738D01*
X36990Y-19713D01*
X36990Y-19688D01*
X36988Y-19663D01*
X36984Y-19638D01*
X36977Y-19613D01*
X36969Y-19590D01*
X36958Y-19567D01*
X36945Y-19545D01*
X36931Y-19524D01*
X36914Y-19504D01*
X36896Y-19486D01*
X36895Y-19485D01*
X36505Y-19915D02*
X36524Y-19931D01*
X36545Y-19945D01*
X36567Y-19958D01*
X36590Y-19969D01*
X36614Y-19977D01*
X36639Y-19984D01*
X36664Y-19988D01*
X36689Y-19990D01*
X36713Y-19990D01*
X36738Y-19988D01*
X36763Y-19983D01*
X36788Y-19977D01*
X36812Y-19968D01*
X36835Y-19957D01*
X36857Y-19944D01*
X36877Y-19930D01*
X36895Y-19915D01*
X36504Y-19486D02*
X36486Y-19504D01*
X36470Y-19523D01*
X36455Y-19544D01*
X36443Y-19566D01*
X36432Y-19589D01*
X36423Y-19613D01*
X36417Y-19637D01*
X36412Y-19662D01*
X36410Y-19687D01*
X36410Y-19712D01*
X36412Y-19737D01*
X36416Y-19762D01*
X36423Y-19787D01*
X36431Y-19810D01*
X36442Y-19833D01*
X36455Y-19855D01*
X36469Y-19876D01*
X36486Y-19896D01*
X36504Y-19914D01*
X36505Y-19915D01*
X36895Y-19485D02*
X36876Y-19469D01*
X36855Y-19455D01*
X36833Y-19442D01*
X36810Y-19431D01*
X36786Y-19423D01*
X36761Y-19416D01*
X36736Y-19412D01*
X36711Y-19410D01*
X36687Y-19410D01*
X36662Y-19412D01*
X36637Y-19417D01*
X36612Y-19423D01*
X36588Y-19432D01*
X36565Y-19443D01*
X36543Y-19456D01*
X36523Y-19470D01*
X36505Y-19485D01*
G54D16*
X36661Y-17661D02*
X36661Y-17739D01*
X36661Y-17739D02*
X36739Y-17739D01*
X36739Y-17661D02*
X36739Y-17739D01*
X36661Y-17661D02*
X36739Y-17661D01*
X36425Y-17877D02*
X36425Y-18014D01*
X36425Y-18014D02*
X36523Y-18014D01*
X36523Y-17877D02*
X36523Y-18014D01*
X36425Y-17877D02*
X36523Y-17877D01*
X36425Y-18014D02*
X36425Y-18054D01*
X36425Y-18054D02*
X36896Y-18054D01*
X36896Y-18014D02*
X36896Y-18054D01*
X36425Y-18014D02*
X36896Y-18014D01*
X36916Y-18014D02*
X36916Y-18054D01*
X36916Y-18054D02*
X36975Y-18054D01*
X36975Y-18014D02*
X36975Y-18054D01*
X36916Y-18014D02*
X36975Y-18014D01*
X36425Y-17346D02*
X36425Y-17386D01*
X36425Y-17386D02*
X36896Y-17386D01*
X36896Y-17346D02*
X36896Y-17386D01*
X36425Y-17346D02*
X36896Y-17346D01*
X36916Y-17346D02*
X36916Y-17386D01*
X36916Y-17386D02*
X36975Y-17386D01*
X36975Y-17346D02*
X36975Y-17386D01*
X36916Y-17346D02*
X36975Y-17346D01*
X36425Y-17877D02*
X36425Y-17936D01*
X36425Y-17936D02*
X36523Y-17936D01*
X36523Y-17877D02*
X36523Y-17936D01*
X36425Y-17877D02*
X36523Y-17877D01*
G54D17*
X36405Y-18310D02*
X36405Y-17090D01*
X36405Y-17090D02*
X36995Y-17090D01*
X36995Y-17090D02*
X36995Y-18310D01*
X36995Y-18310D02*
X36405Y-18310D01*
X36504Y-17486D02*
X36486Y-17504D01*
X36470Y-17523D01*
X36455Y-17544D01*
X36443Y-17566D01*
X36432Y-17589D01*
X36423Y-17613D01*
X36417Y-17637D01*
X36412Y-17662D01*
X36410Y-17687D01*
X36410Y-17712D01*
X36412Y-17737D01*
X36416Y-17762D01*
X36423Y-17787D01*
X36431Y-17810D01*
X36442Y-17833D01*
X36455Y-17855D01*
X36469Y-17876D01*
X36486Y-17896D01*
X36504Y-17914D01*
X36505Y-17915D01*
X36895Y-17485D02*
X36876Y-17469D01*
X36855Y-17455D01*
X36833Y-17442D01*
X36810Y-17431D01*
X36786Y-17423D01*
X36761Y-17416D01*
X36736Y-17412D01*
X36711Y-17410D01*
X36687Y-17410D01*
X36662Y-17412D01*
X36637Y-17417D01*
X36612Y-17423D01*
X36588Y-17432D01*
X36565Y-17443D01*
X36543Y-17456D01*
X36523Y-17470D01*
X36505Y-17485D01*
X36896Y-17914D02*
X36914Y-17896D01*
X36930Y-17877D01*
X36945Y-17856D01*
X36957Y-17834D01*
X36968Y-17811D01*
X36977Y-17787D01*
X36983Y-17763D01*
X36988Y-17738D01*
X36990Y-17713D01*
X36990Y-17688D01*
X36988Y-17663D01*
X36984Y-17638D01*
X36977Y-17613D01*
X36969Y-17590D01*
X36958Y-17567D01*
X36945Y-17545D01*
X36931Y-17524D01*
X36914Y-17504D01*
X36896Y-17486D01*
X36895Y-17485D01*
X36505Y-17915D02*
X36524Y-17931D01*
X36545Y-17945D01*
X36567Y-17958D01*
X36590Y-17969D01*
X36614Y-17977D01*
X36639Y-17984D01*
X36664Y-17988D01*
X36689Y-17990D01*
X36713Y-17990D01*
X36738Y-17988D01*
X36763Y-17983D01*
X36788Y-17977D01*
X36812Y-17968D01*
X36835Y-17957D01*
X36857Y-17944D01*
X36877Y-17930D01*
X36895Y-17915D01*
G54D16*
X31361Y-15539D02*
X31439Y-15539D01*
X31439Y-15539D02*
X31439Y-15461D01*
X31361Y-15461D02*
X31439Y-15461D01*
X31361Y-15539D02*
X31361Y-15461D01*
X31577Y-15775D02*
X31714Y-15775D01*
X31714Y-15775D02*
X31714Y-15677D01*
X31577Y-15677D02*
X31714Y-15677D01*
X31577Y-15775D02*
X31577Y-15677D01*
X31714Y-15775D02*
X31754Y-15775D01*
X31754Y-15775D02*
X31754Y-15304D01*
X31714Y-15304D02*
X31754Y-15304D01*
X31714Y-15775D02*
X31714Y-15304D01*
X31714Y-15284D02*
X31754Y-15284D01*
X31754Y-15284D02*
X31754Y-15225D01*
X31714Y-15225D02*
X31754Y-15225D01*
X31714Y-15284D02*
X31714Y-15225D01*
X31046Y-15775D02*
X31086Y-15775D01*
X31086Y-15775D02*
X31086Y-15304D01*
X31046Y-15304D02*
X31086Y-15304D01*
X31046Y-15775D02*
X31046Y-15304D01*
X31046Y-15284D02*
X31086Y-15284D01*
X31086Y-15284D02*
X31086Y-15225D01*
X31046Y-15225D02*
X31086Y-15225D01*
X31046Y-15284D02*
X31046Y-15225D01*
X31577Y-15775D02*
X31636Y-15775D01*
X31636Y-15775D02*
X31636Y-15677D01*
X31577Y-15677D02*
X31636Y-15677D01*
X31577Y-15775D02*
X31577Y-15677D01*
G54D17*
X32010Y-15795D02*
X30790Y-15795D01*
X30790Y-15795D02*
X30790Y-15205D01*
X30790Y-15205D02*
X32010Y-15205D01*
X32010Y-15205D02*
X32010Y-15795D01*
X31186Y-15696D02*
X31204Y-15714D01*
X31223Y-15730D01*
X31244Y-15745D01*
X31266Y-15757D01*
X31289Y-15768D01*
X31313Y-15777D01*
X31337Y-15783D01*
X31362Y-15788D01*
X31387Y-15790D01*
X31412Y-15790D01*
X31437Y-15788D01*
X31462Y-15784D01*
X31487Y-15777D01*
X31510Y-15769D01*
X31533Y-15758D01*
X31555Y-15745D01*
X31576Y-15731D01*
X31596Y-15714D01*
X31614Y-15696D01*
X31615Y-15695D01*
X31185Y-15305D02*
X31169Y-15324D01*
X31155Y-15345D01*
X31142Y-15367D01*
X31131Y-15390D01*
X31123Y-15414D01*
X31116Y-15439D01*
X31112Y-15464D01*
X31110Y-15489D01*
X31110Y-15513D01*
X31112Y-15538D01*
X31117Y-15563D01*
X31123Y-15588D01*
X31132Y-15612D01*
X31143Y-15635D01*
X31156Y-15657D01*
X31170Y-15677D01*
X31185Y-15695D01*
X31614Y-15304D02*
X31596Y-15286D01*
X31577Y-15270D01*
X31556Y-15255D01*
X31534Y-15243D01*
X31511Y-15232D01*
X31487Y-15223D01*
X31463Y-15217D01*
X31438Y-15212D01*
X31413Y-15210D01*
X31388Y-15210D01*
X31363Y-15212D01*
X31338Y-15216D01*
X31313Y-15223D01*
X31290Y-15231D01*
X31267Y-15242D01*
X31245Y-15255D01*
X31224Y-15269D01*
X31204Y-15286D01*
X31186Y-15304D01*
X31185Y-15305D01*
X31615Y-15695D02*
X31631Y-15676D01*
X31645Y-15655D01*
X31658Y-15633D01*
X31669Y-15610D01*
X31677Y-15586D01*
X31684Y-15561D01*
X31688Y-15536D01*
X31690Y-15511D01*
X31690Y-15487D01*
X31688Y-15462D01*
X31683Y-15437D01*
X31677Y-15412D01*
X31668Y-15388D01*
X31657Y-15365D01*
X31644Y-15343D01*
X31630Y-15323D01*
X31615Y-15305D01*
G54D10*
X29301Y-18083D02*
X29480Y-18083D01*
X29515Y-18095D01*
X29539Y-18119D01*
X29551Y-18154D01*
X29551Y-18178D01*
X29551Y-17834D02*
X29551Y-17976D01*
X29551Y-17905D02*
X29301Y-17905D01*
X29337Y-17929D01*
X29361Y-17953D01*
X29373Y-17976D01*
X34660Y-19501D02*
X34660Y-19704D01*
X34671Y-19727D01*
X34683Y-19739D01*
X34707Y-19751D01*
X34755Y-19751D01*
X34779Y-19739D01*
X34790Y-19727D01*
X34802Y-19704D01*
X34802Y-19501D01*
X35052Y-19751D02*
X34910Y-19751D01*
X34981Y-19751D02*
X34981Y-19501D01*
X34957Y-19537D01*
X34933Y-19561D01*
X34910Y-19573D01*
X30942Y-18870D02*
X30859Y-18870D01*
X30859Y-19001D02*
X30859Y-18751D01*
X30978Y-18751D01*
X31156Y-18870D02*
X31192Y-18882D01*
X31203Y-18894D01*
X31215Y-18918D01*
X31215Y-18954D01*
X31203Y-18977D01*
X31192Y-18989D01*
X31168Y-19001D01*
X31073Y-19001D01*
X31073Y-18751D01*
X31156Y-18751D01*
X31180Y-18763D01*
X31192Y-18775D01*
X31203Y-18799D01*
X31203Y-18823D01*
X31192Y-18846D01*
X31180Y-18858D01*
X31156Y-18870D01*
X31073Y-18870D01*
X31453Y-19001D02*
X31311Y-19001D01*
X31382Y-19001D02*
X31382Y-18751D01*
X31358Y-18787D01*
X31334Y-18811D01*
X31311Y-18823D01*
G54D18*
X40400Y-19943D02*
X40400Y-20371D01*
X40372Y-20457D01*
X40315Y-20514D01*
X40229Y-20543D01*
X40172Y-20543D01*
X40657Y-20000D02*
X40686Y-19971D01*
X40743Y-19943D01*
X40886Y-19943D01*
X40943Y-19971D01*
X40972Y-20000D01*
X41000Y-20057D01*
X41000Y-20114D01*
X40972Y-20200D01*
X40629Y-20543D01*
X41000Y-20543D01*
X46900Y-19943D02*
X46900Y-20371D01*
X46872Y-20457D01*
X46815Y-20514D01*
X46729Y-20543D01*
X46672Y-20543D01*
X47129Y-19943D02*
X47500Y-19943D01*
X47300Y-20171D01*
X47386Y-20171D01*
X47443Y-20200D01*
X47472Y-20229D01*
X47500Y-20286D01*
X47500Y-20429D01*
X47472Y-20486D01*
X47443Y-20514D01*
X47386Y-20543D01*
X47214Y-20543D01*
X47157Y-20514D01*
X47129Y-20486D01*
G54D10*
X36301Y-19884D02*
X36051Y-19884D01*
X36051Y-19825D01*
X36063Y-19789D01*
X36087Y-19765D01*
X36111Y-19754D01*
X36158Y-19742D01*
X36194Y-19742D01*
X36242Y-19754D01*
X36265Y-19765D01*
X36289Y-19789D01*
X36301Y-19825D01*
X36301Y-19884D01*
X36051Y-19658D02*
X36051Y-19504D01*
X36146Y-19587D01*
X36146Y-19551D01*
X36158Y-19527D01*
X36170Y-19515D01*
X36194Y-19504D01*
X36254Y-19504D01*
X36277Y-19515D01*
X36289Y-19527D01*
X36301Y-19551D01*
X36301Y-19623D01*
X36289Y-19646D01*
X36277Y-19658D01*
X36301Y-17884D02*
X36051Y-17884D01*
X36051Y-17825D01*
X36063Y-17789D01*
X36087Y-17765D01*
X36111Y-17754D01*
X36158Y-17742D01*
X36194Y-17742D01*
X36242Y-17754D01*
X36265Y-17765D01*
X36289Y-17789D01*
X36301Y-17825D01*
X36301Y-17884D01*
X36075Y-17646D02*
X36063Y-17634D01*
X36051Y-17611D01*
X36051Y-17551D01*
X36063Y-17527D01*
X36075Y-17515D01*
X36099Y-17504D01*
X36123Y-17504D01*
X36158Y-17515D01*
X36301Y-17658D01*
X36301Y-17504D01*
X32416Y-15301D02*
X32416Y-15051D01*
X32475Y-15051D01*
X32511Y-15063D01*
X32535Y-15087D01*
X32546Y-15111D01*
X32558Y-15158D01*
X32558Y-15194D01*
X32546Y-15242D01*
X32535Y-15265D01*
X32511Y-15289D01*
X32475Y-15301D01*
X32416Y-15301D01*
X32796Y-15301D02*
X32654Y-15301D01*
X32725Y-15301D02*
X32725Y-15051D01*
X32701Y-15087D01*
X32677Y-15111D01*
X32654Y-15123D01*
M02*
