G04 (created by PCBNEW-RS274X (2011-07-08)-stable) date Fri 25 Nov 2011 09:09:20 PM EST*
G01*
G70*
G90*
%MOIN*%
G04 Gerber Fmt 3.4, Leading zero omitted, Abs format*
%FSLAX34Y34*%
G04 APERTURE LIST*
%ADD10C,0.006000*%
%ADD11C,0.079100*%
%ADD12C,0.083000*%
%ADD13C,0.146600*%
%ADD14R,0.070000X0.036000*%
%ADD15R,0.045000X0.065000*%
%ADD16C,0.163700*%
%ADD17R,0.079100X0.079100*%
%ADD18R,0.090900X0.082900*%
%ADD19R,0.082900X0.090900*%
%ADD20C,0.075000*%
G04 APERTURE END LIST*
G54D10*
G54D11*
X29400Y-18886D03*
G54D12*
X30226Y-17606D03*
X30227Y-18394D03*
X30226Y-16622D03*
G54D13*
X29400Y-20283D03*
X29400Y-15717D03*
G54D12*
X30227Y-19378D03*
G54D11*
X29400Y-17114D03*
G54D14*
X32800Y-16250D03*
X32800Y-16500D03*
X32800Y-16760D03*
X32800Y-17020D03*
X32800Y-17270D03*
X32800Y-17530D03*
X32800Y-17790D03*
X32800Y-18040D03*
X32800Y-18300D03*
X32800Y-18550D03*
X32800Y-18810D03*
X32800Y-19070D03*
X32800Y-19320D03*
X32800Y-19580D03*
X35600Y-19580D03*
X35600Y-19320D03*
X35600Y-19080D03*
X35600Y-18810D03*
X35600Y-18550D03*
X35600Y-18300D03*
X35600Y-18040D03*
X35600Y-17790D03*
X35600Y-17530D03*
X35600Y-17270D03*
X35600Y-17020D03*
X35600Y-16760D03*
X35600Y-16500D03*
X35600Y-16250D03*
G54D15*
X31700Y-19350D03*
X31100Y-19350D03*
G54D16*
X42938Y-19500D03*
X38265Y-19500D03*
G54D17*
X38850Y-17000D03*
G54D11*
X39350Y-16000D03*
X39850Y-17000D03*
X40350Y-16000D03*
X40850Y-17000D03*
X41350Y-16000D03*
X41850Y-17000D03*
X42350Y-16000D03*
G54D16*
X49438Y-19500D03*
X44765Y-19500D03*
G54D17*
X45350Y-17000D03*
G54D11*
X45850Y-16000D03*
X46350Y-17000D03*
X46850Y-16000D03*
X47350Y-17000D03*
X47850Y-16000D03*
X48350Y-17000D03*
X48850Y-16000D03*
G54D18*
X36700Y-20259D03*
X36700Y-19141D03*
X36700Y-17141D03*
X36700Y-18259D03*
G54D19*
X30841Y-15500D03*
X31959Y-15500D03*
G54D20*
X30900Y-20600D03*
X31300Y-16350D03*
X31300Y-17250D03*
X32000Y-20600D03*
M02*
